{"width": 1280, "settings": {}, "channels": 2, "version": {"libopenshot": "0.1.9", "openshot-qt": "2.4.1"}, "duration": 300, "progress": [], "2": null, "files": [{"width": 6803, "media_type": "image", "has_audio": false, "pixel_ratio": {"den": 1, "num": 1}, "acodec": "", "channels": 0, "file_size": "104140324", "pixel_format": -1, "video_bit_rate": 0, "fps": {"den": 1, "num": 30}, "type": "QtImageReader", "channel_layout": 4, "audio_timebase": {"den": 1, "num": 1}, "path": "Images/02-Title Progress Cards.svg", "audio_stream_index": -1, "duration": 86400.0, "top_field_first": true, "video_timebase": {"den": 30, "num": 1}, "has_single_image": true, "height": 3827, "has_video": true, "interlaced_frame": false, "audio_bit_rate": 0, "id": "5OEZCIVW6D", "video_stream_index": -1, "sample_rate": 0, "video_length": "2592000", "display_ratio": {"den": 3827, "num": 6803}, "vcodec": ""}, {"width": 1920, "media_type": "image", "has_audio": false, "pixel_ratio": {"den": 1, "num": 1}, "acodec": "", "channels": 0, "file_size": "8294400", "pixel_format": -1, "video_bit_rate": 0, "fps": {"den": 1, "num": 30}, "type": "QtImageReader", "channel_layout": 4, "audio_timebase": {"den": 1, "num": 1}, "path": "Images/01-White-Background.svg", "audio_stream_index": -1, "duration": 86400.0, "top_field_first": true, "video_timebase": {"den": 30, "num": 1}, "has_single_image": true, "height": 1080, "has_video": true, "interlaced_frame": false, "audio_bit_rate": 0, "id": "TDIZ1HFAHG", "video_stream_index": -1, "sample_rate": 0, "video_length": "2592000", "display_ratio": {"den": 9, "num": 16}, "vcodec": ""}, {"width": 600, "media_type": "image", "has_audio": false, "pixel_ratio": {"den": 1, "num": 1}, "acodec": "", "channels": 0, "file_size": "427200", "pixel_format": -1, "video_bit_rate": 0, "fps": {"den": 1, "num": 30}, "type": "QtImageReader", "channel_layout": 4, "audio_timebase": {"den": 1, "num": 1}, "path": "Images/04-LibreOffice_external_logo.svg", "audio_stream_index": -1, "duration": 86400.0, "top_field_first": true, "video_timebase": {"den": 30, "num": 1}, "has_single_image": true, "height": 178, "has_video": true, "interlaced_frame": false, "audio_bit_rate": 0, "id": "9LYJA9LENR", "video_stream_index": -1, "sample_rate": 0, "video_length": "2592000", "display_ratio": {"den": 89, "num": 300}, "vcodec": ""}, {"width": 1366, "media_type": "video", "has_audio": false, "pixel_ratio": {"den": 1, "num": 1}, "acodec": "", "channels": 0, "file_size": "394038", "pixel_format": 0, "video_bit_rate": 0, "fps": {"den": 1, "num": 25}, "type": "FFmpegReader", "channel_layout": 4, "audio_timebase": {"den": 1, "num": 1}, "path": "Clips/06-Create Progress Card Template.mkv", "audio_stream_index": -1, "duration": 44.0, "top_field_first": true, "video_timebase": {"den": 1000, "num": 1}, "has_single_image": false, "height": 768, "has_video": true, "interlaced_frame": false, "audio_bit_rate": 0, "id": "3316O7MJ5Y", "video_stream_index": 0, "sample_rate": 0, "video_length": "1100", "display_ratio": {"den": 384, "num": 683}, "vcodec": "h264"}, {"width": 6803, "media_type": "image", "has_audio": false, "pixel_ratio": {"den": 1, "num": 1}, "acodec": "", "channels": 0, "file_size": "104140324", "pixel_format": -1, "video_bit_rate": 0, "fps": {"den": 1, "num": 30}, "type": "QtImageReader", "channel_layout": 4, "audio_timebase": {"den": 1, "num": 1}, "path": "Images/03-Title-In.svg", "audio_stream_index": -1, "duration": 86400.0, "top_field_first": true, "video_timebase": {"den": 30, "num": 1}, "has_single_image": true, "height": 3827, "has_video": true, "interlaced_frame": false, "audio_bit_rate": 0, "id": "V0JTT8RBI4", "video_stream_index": -1, "sample_rate": 0, "video_length": "2592000", "display_ratio": {"den": 3827, "num": 6803}, "vcodec": ""}, {"width": 6803, "acodec": "", "has_audio": false, "pixel_ratio": {"den": 1, "num": 1}, "has_video": true, "sample_rate": 0, "channels": 0, "file_size": "104140324", "top_field_first": true, "video_bit_rate": 0, "duration": 86400.0, "fps": {"den": 1, "num": 30}, "type": "QtImageReader", "channel_layout": 4, "audio_timebase": {"den": 1, "num": 1}, "path": "Images/04-Slide-Create Card Template.svg", "audio_stream_index": -1, "video_timebase": {"den": 30, "num": 1}, "has_single_image": true, "height": 3827, "interlaced_frame": false, "audio_bit_rate": 0, "media_type": "image", "id": "C0VL89HM2N", "video_stream_index": -1, "pixel_format": -1, "video_length": "2592000", "display_ratio": {"den": 3827, "num": 6803}, "vcodec": ""}, {"width": 6803, "acodec": "", "has_audio": false, "pixel_ratio": {"den": 1, "num": 1}, "has_video": true, "sample_rate": 0, "channels": 0, "file_size": "104140324", "top_field_first": true, "video_bit_rate": 0, "duration": 86400.0, "fps": {"den": 1, "num": 30}, "type": "QtImageReader", "channel_layout": 4, "audio_timebase": {"den": 1, "num": 1}, "path": "Images/05-Title -Open Writer.svg", "audio_stream_index": -1, "video_timebase": {"den": 30, "num": 1}, "has_single_image": true, "height": 3827, "interlaced_frame": false, "audio_bit_rate": 0, "media_type": "image", "id": "UXYIII238I", "video_stream_index": -1, "pixel_format": -1, "video_length": "2592000", "display_ratio": {"den": 3827, "num": 6803}, "vcodec": ""}], "export_path": "", "tick_pixels": 100, "clips": [{"anchor": 0, "reader": {"width": 1920, "acodec": "", "has_audio": false, "pixel_ratio": {"den": 1, "num": 1}, "has_video": true, "channels": 0, "file_size": "8294400", "pixel_format": -1, "video_bit_rate": 0, "fps": {"den": 1, "num": 30}, "type": "QtImageReader", "channel_layout": 4, "audio_timebase": {"den": 1, "num": 1}, "path": "Images/01-White-Background.svg", "audio_stream_index": -1, "duration": 86400.0, "top_field_first": true, "video_timebase": {"den": 30, "num": 1}, "has_single_image": true, "height": 1080, "interlaced_frame": false, "audio_bit_rate": 0, "video_stream_index": -1, "sample_rate": 0, "video_length": "2592000", "display_ratio": {"den": 9, "num": 16}, "vcodec": ""}, "channel_filter": {"Points": [{"interpolation": 2, "co": {"X": 1.0, "Y": -1.0}}]}, "perspective_c1_y": {"Points": [{"interpolation": 2, "co": {"X": 1.0, "Y": -1.0}}]}, "layer": 0, "shear_x": {"Points": [{"interpolation": 2, "co": {"X": 1.0, "Y": 0.0}}]}, "has_audio": {"Points": [{"interpolation": 2, "co": {"X": 1.0, "Y": -1.0}}]}, "perspective_c3_y": {"Points": [{"interpolation": 2, "co": {"X": 1.0, "Y": -1.0}}]}, "perspective_c4_y": {"Points": [{"interpolation": 2, "co": {"X": 1.0, "Y": -1.0}}]}, "location_x": {"Points": [{"interpolation": 2, "co": {"X": 1.0, "Y": 0.0}}]}, "start": 0, "position": 0, "perspective_c2_y": {"Points": [{"interpolation": 2, "co": {"X": 1.0, "Y": -1.0}}]}, "crop_y": {"Points": [{"interpolation": 2, "co": {"X": 1.0, "Y": 0.0}}]}, "gravity": 4, "effects": [], "crop_width": {"Points": [{"interpolation": 2, "co": {"X": 1.0, "Y": -1.0}}]}, "duration": 86400.0, "scale_y": {"Points": [{"interpolation": 2, "co": {"X": 1.0, "Y": 1.0}}]}, "volume": {"Points": [{"interpolation": 2, "co": {"X": 1.0, "Y": 1.0}}]}, "end": 70.16, "display": 0, "crop_height": {"Points": [{"interpolation": 2, "co": {"X": 1.0, "Y": -1.0}}]}, "crop_x": {"Points": [{"interpolation": 2, "co": {"X": 1.0, "Y": 0.0}}]}, "has_video": {"Points": [{"interpolation": 2, "co": {"X": 1.0, "Y": -1.0}}]}, "perspective_c4_x": {"Points": [{"interpolation": 2, "co": {"X": 1.0, "Y": -1.0}}]}, "waveform": false, "scale_x": {"Points": [{"interpolation": 2, "co": {"X": 1.0, "Y": 1.0}}]}, "id": "QI9WV3T42Q", "file_id": "TDIZ1HFAHG", "title": "01-White-Background.svg", "time": {"Points": [{"interpolation": 2, "co": {"X": 1.0, "Y": 1.0}}]}, "rotation": {"Points": [{"interpolation": 2, "co": {"X": 1.0, "Y": 0.0}}]}, "image": "../../../.openshot_qt/thumbnail/TDIZ1HFAHG.png", "alpha": {"Points": [{"interpolation": 2, "co": {"X": 1.0, "Y": 1.0}}]}, "perspective_c1_x": {"Points": [{"interpolation": 2, "co": {"X": 1.0, "Y": -1.0}}]}, "location_y": {"Points": [{"interpolation": 2, "co": {"X": 1.0, "Y": 0.0}}]}, "shear_y": {"Points": [{"interpolation": 2, "co": {"X": 1.0, "Y": 0.0}}]}, "channel_mapping": {"Points": [{"interpolation": 2, "co": {"X": 1.0, "Y": -1.0}}]}, "scale": 1, "wave_color": {"green": {"Points": [{"handle_type": 0, "interpolation": 0, "handle_left": {"X": 0.5, "Y": 1.0}, "handle_right": {"X": 0.5, "Y": 0.0}, "co": {"X": 1.0, "Y": 123.0}}]}, "blue": {"Points": [{"handle_type": 0, "interpolation": 0, "handle_left": {"X": 0.5, "Y": 1.0}, "handle_right": {"X": 0.5, "Y": 0.0}, "co": {"X": 1.0, "Y": 255.0}}]}, "red": {"Points": [{"handle_type": 0, "interpolation": 0, "handle_left": {"X": 0.5, "Y": 1.0}, "handle_right": {"X": 0.5, "Y": 0.0}, "co": {"X": 1.0, "Y": 0.0}}]}, "alpha": {"Points": [{"handle_type": 0, "interpolation": 0, "handle_left": {"X": 0.5, "Y": 1.0}, "handle_right": {"X": 0.5, "Y": 0.0}, "co": {"X": 1.0, "Y": 255.0}}]}}, "perspective_c2_x": {"Points": [{"interpolation": 2, "co": {"X": 1.0, "Y": -1.0}}]}, "perspective_c3_x": {"Points": [{"interpolation": 2, "co": {"X": 1.0, "Y": -1.0}}]}}, {"anchor": 0, "reader": {"width": 6803, "acodec": "", "has_audio": false, "pixel_ratio": {"den": 1, "num": 1}, "has_video": true, "channels": 0, "file_size": "104140324", "pixel_format": -1, "video_bit_rate": 0, "fps": {"den": 1, "num": 30}, "type": "QtImageReader", "channel_layout": 4, "audio_timebase": {"den": 1, "num": 1}, "path": "Images/02-Title Progress Cards.svg", "audio_stream_index": -1, "duration": 86400.0, "top_field_first": true, "video_timebase": {"den": 30, "num": 1}, "has_single_image": true, "height": 3827, "interlaced_frame": false, "audio_bit_rate": 0, "video_stream_index": -1, "sample_rate": 0, "video_length": "2592000", "display_ratio": {"den": 3827, "num": 6803}, "vcodec": ""}, "channel_filter": {"Points": [{"interpolation": 2, "co": {"X": 1.0, "Y": -1.0}}]}, "perspective_c1_y": {"Points": [{"interpolation": 2, "co": {"X": 1.0, "Y": -1.0}}]}, "layer": 1, "shear_x": {"Points": [{"interpolation": 2, "co": {"X": 1.0, "Y": 0.0}}]}, "has_audio": {"Points": [{"interpolation": 2, "co": {"X": 1.0, "Y": -1.0}}]}, "perspective_c3_y": {"Points": [{"interpolation": 2, "co": {"X": 1.0, "Y": -1.0}}]}, "perspective_c4_y": {"Points": [{"interpolation": 2, "co": {"X": 1.0, "Y": -1.0}}]}, "location_x": {"Points": [{"handle_type": 0, "interpolation": 0, "handle_left": {"X": 0.5, "Y": 1.0}, "handle_right": {"X": 0.5, "Y": 0.0}, "co": {"X": 1.0, "Y": 0.0}}]}, "start": 0, "position": 0, "perspective_c2_y": {"Points": [{"interpolation": 2, "co": {"X": 1.0, "Y": -1.0}}]}, "crop_y": {"Points": [{"interpolation": 2, "co": {"X": 1.0, "Y": 0.0}}]}, "location_y": {"Points": [{"handle_type": 0, "interpolation": 0, "handle_left": {"X": 0.5, "Y": 1.0}, "handle_right": {"X": 0.5, "Y": 0.0}, "co": {"X": 1.0, "Y": 0.0}}]}, "effects": [], "perspective_c3_x": {"Points": [{"interpolation": 2, "co": {"X": 1.0, "Y": -1.0}}]}, "crop_width": {"Points": [{"interpolation": 2, "co": {"X": 1.0, "Y": -1.0}}]}, "duration": 86400.0, "scale_y": {"Points": [{"handle_type": 0, "interpolation": 0, "handle_left": {"X": 0.5, "Y": 1.0}, "handle_right": {"X": 0.5, "Y": 0.0}, "co": {"X": 1.0, "Y": 20.0}}, {"interpolation": 1, "co": {"X": 71, "Y": 1.0}}]}, "volume": {"Points": [{"interpolation": 2, "co": {"X": 1.0, "Y": 1.0}}]}, "end": 7.583333333333333, "display": 0, "crop_x": {"Points": [{"interpolation": 2, "co": {"X": 1.0, "Y": 0.0}}]}, "has_video": {"Points": [{"interpolation": 2, "co": {"X": 1.0, "Y": -1.0}}]}, "perspective_c4_x": {"Points": [{"interpolation": 2, "co": {"X": 1.0, "Y": -1.0}}]}, "waveform": false, "scale_x": {"Points": [{"handle_type": 0, "interpolation": 0, "handle_left": {"X": 0.5, "Y": 1.0}, "handle_right": {"X": 0.5, "Y": 0.0}, "co": {"X": 1.0, "Y": 20.0}}, {"interpolation": 1, "co": {"X": 71, "Y": 1.0}}]}, "id": "GIMJDSPZQK", "file_id": "5OEZCIVW6D", "title": "02-Title Progress Cards.svg", "time": {"Points": [{"interpolation": 2, "co": {"X": 1.0, "Y": 1.0}}]}, "rotation": {"Points": [{"interpolation": 2, "co": {"X": 1.0, "Y": 0.0}}]}, "image": "../../../.openshot_qt/thumbnail/5OEZCIVW6D.png", "alpha": {"Points": [{"handle_type": 0, "interpolation": 0, "handle_left": {"X": 0.5, "Y": 1.0}, "handle_right": {"X": 0.5, "Y": 0.0}, "co": {"X": 1.0, "Y": 1.0}}, {"handle_type": 0, "interpolation": 0, "handle_left": {"X": 0.5, "Y": 1.0}, "handle_right": {"X": 0.5, "Y": 0.0}, "co": {"X": 1.0, "Y": 0.0}}, {"handle_type": 0, "interpolation": 0, "handle_left": {"X": 0.5, "Y": 1.0}, "handle_right": {"X": 0.5, "Y": 0.0}, "co": {"X": 73.0, "Y": 1.0}}, {"handle_type": 0, "interpolation": 0, "handle_left": {"X": 0.5, "Y": 1.0}, "handle_right": {"X": 0.5, "Y": 0.0}, "co": {"X": 111.0, "Y": 1.0}}, {"handle_type": 0, "interpolation": 0, "handle_left": {"X": 0.5, "Y": 1.0}, "handle_right": {"X": 0.5, "Y": 0.0}, "co": {"X": 183.0, "Y": 0.0}}]}, "perspective_c1_x": {"Points": [{"interpolation": 2, "co": {"X": 1.0, "Y": -1.0}}]}, "gravity": 4, "shear_y": {"Points": [{"interpolation": 2, "co": {"X": 1.0, "Y": 0.0}}]}, "crop_height": {"Points": [{"interpolation": 2, "co": {"X": 1.0, "Y": -1.0}}]}, "scale": 1, "wave_color": {"green": {"Points": [{"handle_type": 0, "interpolation": 0, "handle_left": {"X": 0.5, "Y": 1.0}, "handle_right": {"X": 0.5, "Y": 0.0}, "co": {"X": 1.0, "Y": 123.0}}]}, "blue": {"Points": [{"handle_type": 0, "interpolation": 0, "handle_left": {"X": 0.5, "Y": 1.0}, "handle_right": {"X": 0.5, "Y": 0.0}, "co": {"X": 1.0, "Y": 255.0}}]}, "red": {"Points": [{"handle_type": 0, "interpolation": 0, "handle_left": {"X": 0.5, "Y": 1.0}, "handle_right": {"X": 0.5, "Y": 0.0}, "co": {"X": 1.0, "Y": 0.0}}]}, "alpha": {"Points": [{"handle_type": 0, "interpolation": 0, "handle_left": {"X": 0.5, "Y": 1.0}, "handle_right": {"X": 0.5, "Y": 0.0}, "co": {"X": 1.0, "Y": 255.0}}]}}, "perspective_c2_x": {"Points": [{"interpolation": 2, "co": {"X": 1.0, "Y": -1.0}}]}, "channel_mapping": {"Points": [{"interpolation": 2, "co": {"X": 1.0, "Y": -1.0}}]}}, {"anchor": 0, "reader": {"width": 600, "acodec": "", "has_audio": false, "pixel_ratio": {"den": 1, "num": 1}, "has_video": true, "channels": 0, "file_size": "427200", "pixel_format": -1, "video_bit_rate": 0, "fps": {"den": 1, "num": 30}, "type": "QtImageReader", "channel_layout": 4, "audio_timebase": {"den": 1, "num": 1}, "path": "Images/04-LibreOffice_external_logo.svg", "audio_stream_index": -1, "duration": 86400.0, "top_field_first": true, "video_timebase": {"den": 30, "num": 1}, "has_single_image": true, "height": 178, "interlaced_frame": false, "audio_bit_rate": 0, "video_stream_index": -1, "sample_rate": 0, "video_length": "2592000", "display_ratio": {"den": 89, "num": 300}, "vcodec": ""}, "channel_filter": {"Points": [{"interpolation": 2, "co": {"X": 1.0, "Y": -1.0}}]}, "perspective_c1_y": {"Points": [{"interpolation": 2, "co": {"X": 1.0, "Y": -1.0}}]}, "layer": 1, "shear_x": {"Points": [{"interpolation": 2, "co": {"X": 1.0, "Y": 0.0}}]}, "has_audio": {"Points": [{"interpolation": 2, "co": {"X": 1.0, "Y": -1.0}}]}, "perspective_c3_y": {"Points": [{"interpolation": 2, "co": {"X": 1.0, "Y": -1.0}}]}, "perspective_c4_y": {"Points": [{"interpolation": 2, "co": {"X": 1.0, "Y": -1.0}}]}, "location_x": {"Points": [{"handle_type": 0, "interpolation": 0, "handle_left": {"X": 0.5, "Y": 1.0}, "handle_right": {"X": 0.5, "Y": 0.0}, "co": {"X": 1.0, "Y": 0.0}}]}, "start": 0, "position": 12.64, "perspective_c2_y": {"Points": [{"interpolation": 2, "co": {"X": 1.0, "Y": -1.0}}]}, "crop_y": {"Points": [{"interpolation": 2, "co": {"X": 1.0, "Y": 0.0}}]}, "location_y": {"Points": [{"handle_type": 0, "interpolation": 0, "handle_left": {"X": 0.5, "Y": 1.0}, "handle_right": {"X": 0.5, "Y": 0.0}, "co": {"X": 1.0, "Y": 0.0}}]}, "effects": [], "perspective_c3_x": {"Points": [{"interpolation": 2, "co": {"X": 1.0, "Y": -1.0}}]}, "crop_width": {"Points": [{"interpolation": 2, "co": {"X": 1.0, "Y": -1.0}}]}, "duration": 86400.0, "scale_y": {"Points": [{"handle_type": 0, "interpolation": 0, "handle_left": {"X": 0.5, "Y": 1.0}, "handle_right": {"X": 0.5, "Y": 0.0}, "co": {"X": 1.0, "Y": 1.0}}]}, "volume": {"Points": [{"interpolation": 2, "co": {"X": 1.0, "Y": 1.0}}]}, "end": 7.083333333333332, "display": 0, "crop_x": {"Points": [{"interpolation": 2, "co": {"X": 1.0, "Y": 0.0}}]}, "has_video": {"Points": [{"interpolation": 2, "co": {"X": 1.0, "Y": -1.0}}]}, "perspective_c4_x": {"Points": [{"interpolation": 2, "co": {"X": 1.0, "Y": -1.0}}]}, "waveform": false, "scale_x": {"Points": [{"handle_type": 0, "interpolation": 0, "handle_left": {"X": 0.5, "Y": 1.0}, "handle_right": {"X": 0.5, "Y": 0.0}, "co": {"X": 1.0, "Y": 1.0}}]}, "id": "1MXPXZXR6K", "file_id": "9LYJA9LENR", "title": "04-LibreOffice_external_logo.svg", "time": {"Points": [{"interpolation": 2, "co": {"X": 1.0, "Y": 1.0}}]}, "rotation": {"Points": [{"interpolation": 2, "co": {"X": 1.0, "Y": 0.0}}]}, "image": "../../../.openshot_qt/thumbnail/9LYJA9LENR.png", "alpha": {"Points": [{"handle_type": 0, "interpolation": 0, "handle_left": {"X": 0.5, "Y": 1.0}, "handle_right": {"X": 0.5, "Y": 0.0}, "co": {"X": 1.0, "Y": 1.0}}, {"handle_type": 0, "interpolation": 0, "handle_left": {"X": 0.5, "Y": 1.0}, "handle_right": {"X": 0.5, "Y": 0.0}, "co": {"X": 1.0, "Y": 0.0}}, {"handle_type": 0, "interpolation": 0, "handle_left": {"X": 0.5, "Y": 1.0}, "handle_right": {"X": 0.5, "Y": 0.0}, "co": {"X": 73.0, "Y": 1.0}}, {"handle_type": 0, "interpolation": 0, "handle_left": {"X": 0.5, "Y": 1.0}, "handle_right": {"X": 0.5, "Y": 0.0}, "co": {"X": 99.0, "Y": 1.0}}, {"handle_type": 0, "interpolation": 0, "handle_left": {"X": 0.5, "Y": 1.0}, "handle_right": {"X": 0.5, "Y": 0.0}, "co": {"X": 171.0, "Y": 0.0}}]}, "perspective_c1_x": {"Points": [{"interpolation": 2, "co": {"X": 1.0, "Y": -1.0}}]}, "gravity": 4, "shear_y": {"Points": [{"interpolation": 2, "co": {"X": 1.0, "Y": 0.0}}]}, "crop_height": {"Points": [{"interpolation": 2, "co": {"X": 1.0, "Y": -1.0}}]}, "scale": 1, "wave_color": {"green": {"Points": [{"handle_type": 0, "interpolation": 0, "handle_left": {"X": 0.5, "Y": 1.0}, "handle_right": {"X": 0.5, "Y": 0.0}, "co": {"X": 1.0, "Y": 123.0}}]}, "blue": {"Points": [{"handle_type": 0, "interpolation": 0, "handle_left": {"X": 0.5, "Y": 1.0}, "handle_right": {"X": 0.5, "Y": 0.0}, "co": {"X": 1.0, "Y": 255.0}}]}, "red": {"Points": [{"handle_type": 0, "interpolation": 0, "handle_left": {"X": 0.5, "Y": 1.0}, "handle_right": {"X": 0.5, "Y": 0.0}, "co": {"X": 1.0, "Y": 0.0}}]}, "alpha": {"Points": [{"handle_type": 0, "interpolation": 0, "handle_left": {"X": 0.5, "Y": 1.0}, "handle_right": {"X": 0.5, "Y": 0.0}, "co": {"X": 1.0, "Y": 255.0}}]}}, "perspective_c2_x": {"Points": [{"interpolation": 2, "co": {"X": 1.0, "Y": -1.0}}]}, "channel_mapping": {"Points": [{"interpolation": 2, "co": {"X": 1.0, "Y": -1.0}}]}}, {"has_audio": {"Points": [{"interpolation": 2, "co": {"X": 1.0, "Y": -1.0}}]}, "has_video": {"Points": [{"interpolation": 2, "co": {"X": 1.0, "Y": -1.0}}]}, "perspective_c3_y": {"Points": [{"interpolation": 2, "co": {"X": 1.0, "Y": -1.0}}]}, "start": 5.361666666666668, "time": {"Points": [{"interpolation": 2, "co": {"X": 1.0, "Y": 1.0}}]}, "crop_y": {"Points": [{"interpolation": 2, "co": {"X": 1.0, "Y": 0.0}}]}, "volume": {"Points": [{"interpolation": 2, "co": {"X": 1.0, "Y": 1.0}}]}, "perspective_c4_y": {"Points": [{"interpolation": 2, "co": {"X": 1.0, "Y": -1.0}}]}, "crop_x": {"Points": [{"interpolation": 2, "co": {"X": 1.0, "Y": 0.0}}]}, "perspective_c2_y": {"Points": [{"interpolation": 2, "co": {"X": 1.0, "Y": -1.0}}]}, "effects": [], "waveform": false, "crop_width": {"Points": [{"interpolation": 2, "co": {"X": 1.0, "Y": -1.0}}]}, "file_id": "XQEQ903ILK", "perspective_c3_x": {"Points": [{"interpolation": 2, "co": {"X": 1.0, "Y": -1.0}}]}, "alpha": {"Points": [{"handle_type": 0, "interpolation": 0, "handle_left": {"X": 0.5, "Y": 1.0}, "handle_right": {"X": 0.5, "Y": 0.0}, "co": {"X": 1.0, "Y": 1.0}}, {"handle_type": 0, "interpolation": 0, "handle_left": {"X": 0.5, "Y": 1.0}, "handle_right": {"X": 0.5, "Y": 0.0}, "co": {"X": 130.0, "Y": 0.0}}, {"handle_type": 0, "interpolation": 0, "handle_left": {"X": 0.5, "Y": 1.0}, "handle_right": {"X": 0.5, "Y": 0.0}, "co": {"X": 202.0, "Y": 1.0}}, {"handle_type": 0, "interpolation": 0, "handle_left": {"X": 0.5, "Y": 1.0}, "handle_right": {"X": 0.5, "Y": 0.0}, "co": {"X": 943.0, "Y": 1.0}}, {"handle_type": 0, "interpolation": 0, "handle_left": {"X": 0.5, "Y": 1.0}, "handle_right": {"X": 0.5, "Y": 0.0}, "co": {"X": 1015.0, "Y": 0.0}}]}, "location_x": {"Points": [{"interpolation": 2, "co": {"X": 1.0, "Y": 0.0}}]}, "location_y": {"Points": [{"interpolation": 2, "co": {"X": 1.0, "Y": 0.0}}, {"interpolation": 1, "co": {"X": 803, "Y": -0.3199999928474426}}, {"interpolation": 1, "co": {"X": 1057, "Y": 0.0}}]}, "crop_height": {"Points": [{"interpolation": 2, "co": {"X": 1.0, "Y": -1.0}}]}, "scale": 1, "perspective_c2_x": {"Points": [{"interpolation": 2, "co": {"X": 1.0, "Y": -1.0}}]}, "anchor": 0, "reader": {"width": 1366, "acodec": "", "has_audio": false, "pixel_ratio": {"den": 1, "num": 1}, "has_video": true, "channels": 0, "file_size": "394038", "pixel_format": 0, "video_bit_rate": 0, "fps": {"den": 1, "num": 25}, "type": "FFmpegReader", "channel_layout": 4, "audio_timebase": {"den": 1, "num": 1}, "path": "Clips/06-Create Progress Card Template.mkv", "audio_stream_index": -1, "duration": 44.0, "top_field_first": true, "video_timebase": {"den": 1000, "num": 1}, "has_single_image": false, "height": 768, "interlaced_frame": false, "audio_bit_rate": 0, "video_stream_index": 0, "sample_rate": 0, "video_length": "1100", "display_ratio": {"den": 384, "num": 683}, "vcodec": "h264"}, "channel_filter": {"Points": [{"interpolation": 2, "co": {"X": 1.0, "Y": -1.0}}]}, "shear_x": {"Points": [{"interpolation": 2, "co": {"X": 1.0, "Y": 0.0}}]}, "layer": 1, "perspective_c1_y": {"Points": [{"interpolation": 2, "co": {"X": 1.0, "Y": -1.0}}]}, "perspective_c1_x": {"Points": [{"interpolation": 2, "co": {"X": 1.0, "Y": -1.0}}]}, "duration": 44.0, "scale_y": {"Points": [{"interpolation": 2, "co": {"X": 1.0, "Y": 1.0}}, {"interpolation": 1, "co": {"X": 803, "Y": 1.649999976158142}}, {"interpolation": 1, "co": {"X": 1057, "Y": 1.0}}]}, "display": 0, "position": 39.52, "perspective_c4_x": {"Points": [{"interpolation": 2, "co": {"X": 1.0, "Y": -1.0}}]}, "scale_x": {"Points": [{"interpolation": 2, "co": {"X": 1.0, "Y": 1.0}}, {"interpolation": 1, "co": {"X": 803, "Y": 1.649999976158142}}, {"interpolation": 1, "co": {"X": 1057, "Y": 1.0}}]}, "id": "NCU6KKCVQ7", "end": 42.258333333333326, "title": "06-Create Progress Card Template.mkv", "rotation": {"Points": [{"interpolation": 2, "co": {"X": 1.0, "Y": 0.0}}]}, "image": "../../../.openshot_qt/thumbnail/XQEQ903ILK.png", "gravity": 4, "shear_y": {"Points": [{"interpolation": 2, "co": {"X": 1.0, "Y": 0.0}}]}, "wave_color": {"green": {"Points": [{"handle_type": 0, "interpolation": 0, "handle_left": {"X": 0.5, "Y": 1.0}, "handle_right": {"X": 0.5, "Y": 0.0}, "co": {"X": 1.0, "Y": 123.0}}]}, "blue": {"Points": [{"handle_type": 0, "interpolation": 0, "handle_left": {"X": 0.5, "Y": 1.0}, "handle_right": {"X": 0.5, "Y": 0.0}, "co": {"X": 1.0, "Y": 255.0}}]}, "red": {"Points": [{"handle_type": 0, "interpolation": 0, "handle_left": {"X": 0.5, "Y": 1.0}, "handle_right": {"X": 0.5, "Y": 0.0}, "co": {"X": 1.0, "Y": 0.0}}]}, "alpha": {"Points": [{"handle_type": 0, "interpolation": 0, "handle_left": {"X": 0.5, "Y": 1.0}, "handle_right": {"X": 0.5, "Y": 0.0}, "co": {"X": 1.0, "Y": 255.0}}]}}, "channel_mapping": {"Points": [{"interpolation": 2, "co": {"X": 1.0, "Y": -1.0}}]}}, {"anchor": 0, "reader": {"width": 6803, "acodec": "", "has_audio": false, "pixel_ratio": {"den": 1, "num": 1}, "has_video": true, "channels": 0, "file_size": "104140324", "pixel_format": -1, "video_bit_rate": 0, "fps": {"den": 1, "num": 30}, "type": "QtImageReader", "channel_layout": 4, "audio_timebase": {"den": 1, "num": 1}, "path": "Images/03-Title-In.svg", "audio_stream_index": -1, "duration": 86400.0, "top_field_first": true, "video_timebase": {"den": 30, "num": 1}, "has_single_image": true, "height": 3827, "interlaced_frame": false, "audio_bit_rate": 0, "video_stream_index": -1, "sample_rate": 0, "video_length": "2592000", "display_ratio": {"den": 3827, "num": 6803}, "vcodec": ""}, "channel_filter": {"Points": [{"interpolation": 2, "co": {"X": 1.0, "Y": -1.0}}]}, "perspective_c1_y": {"Points": [{"interpolation": 2, "co": {"X": 1.0, "Y": -1.0}}]}, "layer": 1, "shear_x": {"Points": [{"interpolation": 2, "co": {"X": 1.0, "Y": 0.0}}]}, "has_audio": {"Points": [{"interpolation": 2, "co": {"X": 1.0, "Y": -1.0}}]}, "perspective_c3_y": {"Points": [{"interpolation": 2, "co": {"X": 1.0, "Y": -1.0}}]}, "perspective_c4_y": {"Points": [{"interpolation": 2, "co": {"X": 1.0, "Y": -1.0}}]}, "location_x": {"Points": [{"interpolation": 2, "co": {"X": 1.0, "Y": 0.0}}]}, "start": 0, "position": 7.52, "perspective_c2_y": {"Points": [{"interpolation": 2, "co": {"X": 1.0, "Y": -1.0}}]}, "crop_y": {"Points": [{"interpolation": 2, "co": {"X": 1.0, "Y": 0.0}}]}, "gravity": 4, "effects": [], "crop_width": {"Points": [{"interpolation": 2, "co": {"X": 1.0, "Y": -1.0}}]}, "duration": 86400.0, "scale_y": {"Points": [{"interpolation": 2, "co": {"X": 1.0, "Y": 1.0}}]}, "volume": {"Points": [{"interpolation": 2, "co": {"X": 1.0, "Y": 1.0}}]}, "end": 5.2, "display": 0, "crop_height": {"Points": [{"interpolation": 2, "co": {"X": 1.0, "Y": -1.0}}]}, "wave_color": {"green": {"Points": [{"handle_type": 0, "interpolation": 0, "handle_left": {"X": 0.5, "Y": 1.0}, "handle_right": {"X": 0.5, "Y": 0.0}, "co": {"X": 1.0, "Y": 123.0}}]}, "blue": {"Points": [{"handle_type": 0, "interpolation": 0, "handle_left": {"X": 0.5, "Y": 1.0}, "handle_right": {"X": 0.5, "Y": 0.0}, "co": {"X": 1.0, "Y": 255.0}}]}, "red": {"Points": [{"handle_type": 0, "interpolation": 0, "handle_left": {"X": 0.5, "Y": 1.0}, "handle_right": {"X": 0.5, "Y": 0.0}, "co": {"X": 1.0, "Y": 0.0}}]}, "alpha": {"Points": [{"handle_type": 0, "interpolation": 0, "handle_left": {"X": 0.5, "Y": 1.0}, "handle_right": {"X": 0.5, "Y": 0.0}, "co": {"X": 1.0, "Y": 255.0}}]}}, "has_video": {"Points": [{"interpolation": 2, "co": {"X": 1.0, "Y": -1.0}}]}, "perspective_c4_x": {"Points": [{"interpolation": 2, "co": {"X": 1.0, "Y": -1.0}}]}, "waveform": false, "scale_x": {"Points": [{"interpolation": 2, "co": {"X": 1.0, "Y": 1.0}}]}, "id": "A67X93JE0R", "file_id": "V0JTT8RBI4", "title": "03-Title-In.svg", "time": {"Points": [{"interpolation": 2, "co": {"X": 1.0, "Y": 1.0}}]}, "rotation": {"Points": [{"interpolation": 2, "co": {"X": 1.0, "Y": 0.0}}]}, "image": "../../../.openshot_qt/thumbnail/V0JTT8RBI4.png", "alpha": {"Points": [{"interpolation": 2, "co": {"X": 1.0, "Y": 1.0}}, {"handle_type": 0, "interpolation": 0, "handle_left": {"X": 0.5, "Y": 1.0}, "handle_right": {"X": 0.5, "Y": 0.0}, "co": {"X": 1.0, "Y": 0.0}}, {"handle_type": 0, "interpolation": 0, "handle_left": {"X": 0.5, "Y": 1.0}, "handle_right": {"X": 0.5, "Y": 0.0}, "co": {"X": 73.0, "Y": 1.0}}, {"handle_type": 0, "interpolation": 0, "handle_left": {"X": 0.5, "Y": 1.0}, "handle_right": {"X": 0.5, "Y": 0.0}, "co": {"X": 54.0, "Y": 1.0}}, {"handle_type": 0, "interpolation": 0, "handle_left": {"X": 0.5, "Y": 1.0}, "handle_right": {"X": 0.5, "Y": 0.0}, "co": {"X": 126.0, "Y": 0.0}}]}, "perspective_c1_x": {"Points": [{"interpolation": 2, "co": {"X": 1.0, "Y": -1.0}}]}, "location_y": {"Points": [{"interpolation": 2, "co": {"X": 1.0, "Y": 0.0}}]}, "shear_y": {"Points": [{"interpolation": 2, "co": {"X": 1.0, "Y": 0.0}}]}, "channel_mapping": {"Points": [{"interpolation": 2, "co": {"X": 1.0, "Y": -1.0}}]}, "scale": 1, "crop_x": {"Points": [{"interpolation": 2, "co": {"X": 1.0, "Y": 0.0}}]}, "perspective_c2_x": {"Points": [{"interpolation": 2, "co": {"X": 1.0, "Y": -1.0}}]}, "perspective_c3_x": {"Points": [{"interpolation": 2, "co": {"X": 1.0, "Y": -1.0}}]}}, {"has_audio": {"Points": [{"interpolation": 2, "co": {"X": 1.0, "Y": -1.0}}]}, "perspective_c2_y": {"Points": [{"interpolation": 2, "co": {"X": 1.0, "Y": -1.0}}]}, "has_video": {"Points": [{"interpolation": 2, "co": {"X": 1.0, "Y": -1.0}}]}, "perspective_c3_y": {"Points": [{"interpolation": 2, "co": {"X": 1.0, "Y": -1.0}}]}, "start": 0, "time": {"Points": [{"interpolation": 2, "co": {"X": 1.0, "Y": 1.0}}]}, "crop_y": {"Points": [{"interpolation": 2, "co": {"X": 1.0, "Y": 0.0}}]}, "crop_height": {"Points": [{"interpolation": 2, "co": {"X": 1.0, "Y": -1.0}}]}, "perspective_c4_y": {"Points": [{"interpolation": 2, "co": {"X": 1.0, "Y": -1.0}}]}, "crop_x": {"Points": [{"interpolation": 2, "co": {"X": 1.0, "Y": 0.0}}]}, "perspective_c1_y": {"Points": [{"interpolation": 2, "co": {"X": 1.0, "Y": -1.0}}]}, "effects": [], "waveform": false, "crop_width": {"Points": [{"interpolation": 2, "co": {"X": 1.0, "Y": -1.0}}]}, "file_id": "C0VL89HM2N", "perspective_c3_x": {"Points": [{"interpolation": 2, "co": {"X": 1.0, "Y": -1.0}}]}, "alpha": {"Points": [{"interpolation": 2, "co": {"X": 1.0, "Y": 1.0}}, {"handle_type": 0, "interpolation": 0, "handle_left": {"X": 0.5, "Y": 1.0}, "co": {"X": 1.0, "Y": 0.0}, "handle_right": {"X": 0.5, "Y": 0.0}}, {"handle_type": 0, "interpolation": 0, "handle_left": {"X": 0.5, "Y": 1.0}, "co": {"X": 73.0, "Y": 1.0}, "handle_right": {"X": 0.5, "Y": 0.0}}, {"handle_type": 0, "interpolation": 0, "handle_left": {"X": 0.5, "Y": 1.0}, "co": {"X": 169.0, "Y": 1.0}, "handle_right": {"X": 0.5, "Y": 0.0}}, {"handle_type": 0, "interpolation": 0, "handle_left": {"X": 0.5, "Y": 1.0}, "co": {"X": 241.0, "Y": 0.0}, "handle_right": {"X": 0.5, "Y": 0.0}}]}, "location_x": {"Points": [{"interpolation": 2, "co": {"X": 1.0, "Y": 0.0}}]}, "location_y": {"Points": [{"interpolation": 2, "co": {"X": 1.0, "Y": 0.0}}]}, "volume": {"Points": [{"interpolation": 2, "co": {"X": 1.0, "Y": 1.0}}]}, "scale": 1, "perspective_c2_x": {"Points": [{"interpolation": 2, "co": {"X": 1.0, "Y": -1.0}}]}, "anchor": 0, "reader": {"width": 6803, "acodec": "", "has_audio": false, "pixel_ratio": {"den": 1, "num": 1}, "has_video": true, "sample_rate": 0, "channels": 0, "file_size": "104140324", "top_field_first": true, "video_bit_rate": 0, "duration": 86400.0, "fps": {"den": 1, "num": 30}, "type": "QtImageReader", "channel_layout": 4, "audio_timebase": {"den": 1, "num": 1}, "path": "Images/04-Slide-Create Card Template.svg", "audio_stream_index": -1, "video_timebase": {"den": 30, "num": 1}, "has_single_image": true, "height": 3827, "interlaced_frame": false, "audio_bit_rate": 0, "video_stream_index": -1, "pixel_format": -1, "video_length": "2592000", "display_ratio": {"den": 3827, "num": 6803}, "vcodec": ""}, "channel_filter": {"Points": [{"interpolation": 2, "co": {"X": 1.0, "Y": -1.0}}]}, "shear_x": {"Points": [{"interpolation": 2, "co": {"X": 1.0, "Y": 0.0}}]}, "layer": 1, "perspective_c1_x": {"Points": [{"interpolation": 2, "co": {"X": 1.0, "Y": -1.0}}]}, "duration": 86400.0, "scale_y": {"Points": [{"interpolation": 2, "co": {"X": 1.0, "Y": 1.0}}]}, "display": 0, "position": 19.723333333333333, "perspective_c4_x": {"Points": [{"interpolation": 2, "co": {"X": 1.0, "Y": -1.0}}]}, "scale_x": {"Points": [{"interpolation": 2, "co": {"X": 1.0, "Y": 1.0}}]}, "id": "OQVFZFG317", "end": 10, "title": "04-Slide-Create Card Template.svg", "rotation": {"Points": [{"interpolation": 2, "co": {"X": 1.0, "Y": 0.0}}]}, "image": "../../../.openshot_qt/thumbnail/C0VL89HM2N.png", "gravity": 4, "shear_y": {"Points": [{"interpolation": 2, "co": {"X": 1.0, "Y": 0.0}}]}, "wave_color": {"green": {"Points": [{"handle_type": 0, "interpolation": 0, "handle_left": {"X": 0.5, "Y": 1.0}, "co": {"X": 1.0, "Y": 123.0}, "handle_right": {"X": 0.5, "Y": 0.0}}]}, "alpha": {"Points": [{"handle_type": 0, "interpolation": 0, "handle_left": {"X": 0.5, "Y": 1.0}, "co": {"X": 1.0, "Y": 255.0}, "handle_right": {"X": 0.5, "Y": 0.0}}]}, "red": {"Points": [{"handle_type": 0, "interpolation": 0, "handle_left": {"X": 0.5, "Y": 1.0}, "co": {"X": 1.0, "Y": 0.0}, "handle_right": {"X": 0.5, "Y": 0.0}}]}, "blue": {"Points": [{"handle_type": 0, "interpolation": 0, "handle_left": {"X": 0.5, "Y": 1.0}, "co": {"X": 1.0, "Y": 255.0}, "handle_right": {"X": 0.5, "Y": 0.0}}]}}, "channel_mapping": {"Points": [{"interpolation": 2, "co": {"X": 1.0, "Y": -1.0}}]}}, {"has_audio": {"Points": [{"interpolation": 2, "co": {"X": 1.0, "Y": -1.0}}]}, "perspective_c2_y": {"Points": [{"interpolation": 2, "co": {"X": 1.0, "Y": -1.0}}]}, "has_video": {"Points": [{"interpolation": 2, "co": {"X": 1.0, "Y": -1.0}}]}, "perspective_c3_y": {"Points": [{"interpolation": 2, "co": {"X": 1.0, "Y": -1.0}}]}, "start": 0, "time": {"Points": [{"interpolation": 2, "co": {"X": 1.0, "Y": 1.0}}]}, "crop_y": {"Points": [{"interpolation": 2, "co": {"X": 1.0, "Y": 0.0}}]}, "crop_height": {"Points": [{"interpolation": 2, "co": {"X": 1.0, "Y": -1.0}}]}, "perspective_c4_y": {"Points": [{"interpolation": 2, "co": {"X": 1.0, "Y": -1.0}}]}, "crop_x": {"Points": [{"interpolation": 2, "co": {"X": 1.0, "Y": 0.0}}]}, "perspective_c1_y": {"Points": [{"interpolation": 2, "co": {"X": 1.0, "Y": -1.0}}]}, "effects": [], "waveform": false, "crop_width": {"Points": [{"interpolation": 2, "co": {"X": 1.0, "Y": -1.0}}]}, "file_id": "UXYIII238I", "perspective_c3_x": {"Points": [{"interpolation": 2, "co": {"X": 1.0, "Y": -1.0}}]}, "alpha": {"Points": [{"interpolation": 2, "co": {"X": 1.0, "Y": 1.0}}, {"handle_type": 0, "interpolation": 0, "handle_left": {"X": 0.5, "Y": 1.0}, "co": {"X": 1.0, "Y": 0.0}, "handle_right": {"X": 0.5, "Y": 0.0}}, {"handle_type": 0, "interpolation": 0, "handle_left": {"X": 0.5, "Y": 1.0}, "co": {"X": 73.0, "Y": 1.0}, "handle_right": {"X": 0.5, "Y": 0.0}}, {"handle_type": 0, "interpolation": 0, "handle_left": {"X": 0.5, "Y": 1.0}, "co": {"X": 169.0, "Y": 1.0}, "handle_right": {"X": 0.5, "Y": 0.0}}, {"handle_type": 0, "interpolation": 0, "handle_left": {"X": 0.5, "Y": 1.0}, "co": {"X": 241.0, "Y": 0.0}, "handle_right": {"X": 0.5, "Y": 0.0}}, {"handle_type": 0, "interpolation": 0, "handle_left": {"X": 0.5, "Y": 1.0}, "co": {"X": 1.0, "Y": 0.0}, "handle_right": {"X": 0.5, "Y": 0.0}}, {"handle_type": 0, "interpolation": 0, "handle_left": {"X": 0.5, "Y": 1.0}, "co": {"X": 73.0, "Y": 1.0}, "handle_right": {"X": 0.5, "Y": 0.0}}, {"handle_type": 0, "interpolation": 0, "handle_left": {"X": 0.5, "Y": 1.0}, "co": {"X": 169.0, "Y": 1.0}, "handle_right": {"X": 0.5, "Y": 0.0}}, {"handle_type": 0, "interpolation": 0, "handle_left": {"X": 0.5, "Y": 1.0}, "co": {"X": 241.0, "Y": 0.0}, "handle_right": {"X": 0.5, "Y": 0.0}}]}, "location_x": {"Points": [{"interpolation": 2, "co": {"X": 1.0, "Y": 0.0}}]}, "location_y": {"Points": [{"interpolation": 2, "co": {"X": 1.0, "Y": 0.0}}]}, "volume": {"Points": [{"interpolation": 2, "co": {"X": 1.0, "Y": 1.0}}]}, "scale": 1, "perspective_c2_x": {"Points": [{"interpolation": 2, "co": {"X": 1.0, "Y": -1.0}}]}, "anchor": 0, "reader": {"width": 6803, "acodec": "", "has_audio": false, "pixel_ratio": {"den": 1, "num": 1}, "has_video": true, "sample_rate": 0, "channels": 0, "file_size": "104140324", "top_field_first": true, "video_bit_rate": 0, "duration": 86400.0, "fps": {"den": 1, "num": 30}, "type": "QtImageReader", "channel_layout": 4, "audio_timebase": {"den": 1, "num": 1}, "path": "Images/05-Title -Open Writer.svg", "audio_stream_index": -1, "video_timebase": {"den": 30, "num": 1}, "has_single_image": true, "height": 3827, "interlaced_frame": false, "audio_bit_rate": 0, "video_stream_index": -1, "pixel_format": -1, "video_length": "2592000", "display_ratio": {"den": 3827, "num": 6803}, "vcodec": ""}, "channel_filter": {"Points": [{"interpolation": 2, "co": {"X": 1.0, "Y": -1.0}}]}, "shear_x": {"Points": [{"interpolation": 2, "co": {"X": 1.0, "Y": 0.0}}]}, "layer": 1, "perspective_c1_x": {"Points": [{"interpolation": 2, "co": {"X": 1.0, "Y": -1.0}}]}, "duration": 86400.0, "scale_y": {"Points": [{"interpolation": 2, "co": {"X": 1.0, "Y": 1.0}}]}, "display": 0, "position": 29.760000000000005, "perspective_c4_x": {"Points": [{"interpolation": 2, "co": {"X": 1.0, "Y": -1.0}}]}, "scale_x": {"Points": [{"interpolation": 2, "co": {"X": 1.0, "Y": 1.0}}]}, "id": "TL0AR8K26Q", "end": 10, "title": "05-Title -Open Writer.svg", "rotation": {"Points": [{"interpolation": 2, "co": {"X": 1.0, "Y": 0.0}}]}, "image": "../../../.openshot_qt/thumbnail/UXYIII238I.png", "gravity": 4, "shear_y": {"Points": [{"interpolation": 2, "co": {"X": 1.0, "Y": 0.0}}]}, "wave_color": {"green": {"Points": [{"handle_type": 0, "interpolation": 0, "handle_left": {"X": 0.5, "Y": 1.0}, "co": {"X": 1.0, "Y": 123.0}, "handle_right": {"X": 0.5, "Y": 0.0}}]}, "alpha": {"Points": [{"handle_type": 0, "interpolation": 0, "handle_left": {"X": 0.5, "Y": 1.0}, "co": {"X": 1.0, "Y": 255.0}, "handle_right": {"X": 0.5, "Y": 0.0}}]}, "red": {"Points": [{"handle_type": 0, "interpolation": 0, "handle_left": {"X": 0.5, "Y": 1.0}, "co": {"X": 1.0, "Y": 0.0}, "handle_right": {"X": 0.5, "Y": 0.0}}]}, "blue": {"Points": [{"handle_type": 0, "interpolation": 0, "handle_left": {"X": 0.5, "Y": 1.0}, "co": {"X": 1.0, "Y": 255.0}, "handle_right": {"X": 0.5, "Y": 0.0}}]}}, "channel_mapping": {"Points": [{"interpolation": 2, "co": {"X": 1.0, "Y": -1.0}}]}}], "id": "T0", "channel_layout": 3, "height": 720, "layers": [{"number": 0, "id": "L0", "label": "", "y": 0, "lock": false}, {"number": 1, "id": "L1", "label": "", "y": 0, "lock": false}, {"number": 2, "id": "L2", "label": "", "y": 0, "lock": false}, {"number": 3, "id": "L3", "label": "", "y": 0, "lock": false}, {"number": 4, "id": "L4", "label": "", "y": 0, "lock": false}], "effects": [], "history": {"redo": [], "undo": [{"partial": false, "key": ["clips"], "type": "insert", "value": {"anchor": 0, "has_audio": {"Points": [{"interpolation": 2, "co": {"X": 1.0, "Y": -1.0}}]}, "channel_filter": {"Points": [{"interpolation": 2, "co": {"X": 1.0, "Y": -1.0}}]}, "image": "/home/milind/.openshot_qt/thumbnail/BMSYFSQJ9F.png", "perspective_c1_y": {"Points": [{"interpolation": 2, "co": {"X": 1.0, "Y": -1.0}}]}, "layer": 1, "shear_x": {"Points": [{"interpolation": 2, "co": {"X": 1.0, "Y": 0.0}}]}, "reader": {"width": 6803, "acodec": "", "has_audio": false, "pixel_ratio": {"den": 1, "num": 1}, "has_video": true, "vcodec": "", "channels": 0, "file_size": "104140324", "top_field_first": true, "video_bit_rate": 0, "duration": 86400.0, "type": "QtImageReader", "channel_layout": 4, "audio_timebase": {"den": 1, "num": 1}, "path": "/home/milind/Data/Projects/ProgressCard/Images/05-Slide-Create Card Template.svg", "audio_stream_index": -1, "video_timebase": {"den": 30, "num": 1}, "has_single_image": true, "height": 3827, "interlaced_frame": false, "audio_bit_rate": 0, "pixel_format": -1, "video_stream_index": -1, "sample_rate": 0, "video_length": "2592000", "display_ratio": {"den": 3827, "num": 6803}, "fps": {"den": 1, "num": 30}}, "perspective_c3_y": {"Points": [{"interpolation": 2, "co": {"X": 1.0, "Y": -1.0}}]}, "perspective_c4_x": {"Points": [{"interpolation": 2, "co": {"X": 1.0, "Y": -1.0}}]}, "perspective_c1_x": {"Points": [{"interpolation": 2, "co": {"X": 1.0, "Y": -1.0}}]}, "start": 0, "has_video": {"Points": [{"interpolation": 2, "co": {"X": 1.0, "Y": -1.0}}]}, "time": {"Points": [{"interpolation": 2, "co": {"X": 1.0, "Y": 1.0}}]}, "crop_y": {"Points": [{"interpolation": 2, "co": {"X": 1.0, "Y": 0.0}}]}, "gravity": 4, "scale_x": {"Points": [{"interpolation": 2, "co": {"X": 1.0, "Y": 1.0}}]}, "scale_y": {"Points": [{"interpolation": 2, "co": {"X": 1.0, "Y": 1.0}}]}, "volume": {"Points": [{"interpolation": 2, "co": {"X": 1.0, "Y": 1.0}}]}, "perspective_c4_y": {"Points": [{"interpolation": 2, "co": {"X": 1.0, "Y": -1.0}}]}, "display": 0, "id": "QP863O0CPG", "end": 10, "crop_x": {"Points": [{"interpolation": 2, "co": {"X": 1.0, "Y": 0.0}}]}, "perspective_c2_y": {"Points": [{"interpolation": 2, "co": {"X": 1.0, "Y": -1.0}}]}, "effects": [], "waveform": false, "crop_width": {"Points": [{"interpolation": 2, "co": {"X": 1.0, "Y": -1.0}}]}, "position": 29.760000000000005, "file_id": "BMSYFSQJ9F", "title": "05-Slide-Create Card Template.svg", "channel_mapping": {"Points": [{"interpolation": 2, "co": {"X": 1.0, "Y": -1.0}}]}, "perspective_c3_x": {"Points": [{"interpolation": 2, "co": {"X": 1.0, "Y": -1.0}}]}, "rotation": {"Points": [{"interpolation": 2, "co": {"X": 1.0, "Y": 0.0}}]}, "alpha": {"Points": [{"interpolation": 2, "co": {"X": 1.0, "Y": 1.0}}]}, "location_x": {"Points": [{"interpolation": 2, "co": {"X": 1.0, "Y": 0.0}}]}, "location_y": {"Points": [{"interpolation": 2, "co": {"X": 1.0, "Y": 0.0}}]}, "shear_y": {"Points": [{"interpolation": 2, "co": {"X": 1.0, "Y": 0.0}}]}, "crop_height": {"Points": [{"interpolation": 2, "co": {"X": 1.0, "Y": -1.0}}]}, "scale": 1, "wave_color": {"green": {"Points": [{"handle_type": 0, "interpolation": 0, "handle_left": {"X": 0.5, "Y": 1.0}, "co": {"X": 1.0, "Y": 123.0}, "handle_right": {"X": 0.5, "Y": 0.0}}]}, "blue": {"Points": [{"handle_type": 0, "interpolation": 0, "handle_left": {"X": 0.5, "Y": 1.0}, "co": {"X": 1.0, "Y": 255.0}, "handle_right": {"X": 0.5, "Y": 0.0}}]}, "red": {"Points": [{"handle_type": 0, "interpolation": 0, "handle_left": {"X": 0.5, "Y": 1.0}, "co": {"X": 1.0, "Y": 0.0}, "handle_right": {"X": 0.5, "Y": 0.0}}]}, "alpha": {"Points": [{"handle_type": 0, "interpolation": 0, "handle_left": {"X": 0.5, "Y": 1.0}, "co": {"X": 1.0, "Y": 255.0}, "handle_right": {"X": 0.5, "Y": 0.0}}]}}, "perspective_c2_x": {"Points": [{"interpolation": 2, "co": {"X": 1.0, "Y": -1.0}}]}, "duration": 86400.0}, "old_values": [{"anchor": 0, "reader": {"width": 1920, "acodec": "", "has_audio": false, "pixel_ratio": {"den": 1, "num": 1}, "has_video": true, "channels": 0, "file_size": "8294400", "top_field_first": true, "video_bit_rate": 0, "fps": {"den": 1, "num": 30}, "type": "QtImageReader", "channel_layout": 4, "audio_timebase": {"den": 1, "num": 1}, "path": "/home/milind/Data/Projects/ProgressCard/Images/01-White-Background.svg", "audio_stream_index": -1, "duration": 86400.0, "video_timebase": {"den": 30, "num": 1}, "has_single_image": true, "height": 1080, "interlaced_frame": false, "audio_bit_rate": 0, "pixel_format": -1, "video_stream_index": -1, "sample_rate": 0, "video_length": "2592000", "display_ratio": {"den": 9, "num": 16}, "vcodec": ""}, "channel_filter": {"Points": [{"interpolation": 2, "co": {"X": 1.0, "Y": -1.0}}]}, "perspective_c1_y": {"Points": [{"interpolation": 2, "co": {"X": 1.0, "Y": -1.0}}]}, "perspective_c2_y": {"Points": [{"interpolation": 2, "co": {"X": 1.0, "Y": -1.0}}]}, "layer": 0, "shear_x": {"Points": [{"interpolation": 2, "co": {"X": 1.0, "Y": 0.0}}]}, "has_audio": {"Points": [{"interpolation": 2, "co": {"X": 1.0, "Y": -1.0}}]}, "perspective_c3_y": {"Points": [{"interpolation": 2, "co": {"X": 1.0, "Y": -1.0}}]}, "effects": [], "title": "01-White-Background.svg", "start": 0, "position": 0, "end": 70.16, "crop_y": {"Points": [{"interpolation": 2, "co": {"X": 1.0, "Y": 0.0}}]}, "gravity": 4, "crop_width": {"Points": [{"interpolation": 2, "co": {"X": 1.0, "Y": -1.0}}]}, "duration": 86400.0, "scale_y": {"Points": [{"interpolation": 2, "co": {"X": 1.0, "Y": 1.0}}]}, "volume": {"Points": [{"interpolation": 2, "co": {"X": 1.0, "Y": 1.0}}]}, "perspective_c4_y": {"Points": [{"interpolation": 2, "co": {"X": 1.0, "Y": -1.0}}]}, "display": 0, "location_x": {"Points": [{"interpolation": 2, "co": {"X": 1.0, "Y": 0.0}}]}, "crop_x": {"Points": [{"interpolation": 2, "co": {"X": 1.0, "Y": 0.0}}]}, "has_video": {"Points": [{"interpolation": 2, "co": {"X": 1.0, "Y": -1.0}}]}, "perspective_c4_x": {"Points": [{"interpolation": 2, "co": {"X": 1.0, "Y": -1.0}}]}, "waveform": false, "scale_x": {"Points": [{"interpolation": 2, "co": {"X": 1.0, "Y": 1.0}}]}, "id": "QI9WV3T42Q", "file_id": "TDIZ1HFAHG", "rotation": {"Points": [{"interpolation": 2, "co": {"X": 1.0, "Y": 0.0}}]}, "time": {"Points": [{"interpolation": 2, "co": {"X": 1.0, "Y": 1.0}}]}, "perspective_c3_x": {"Points": [{"interpolation": 2, "co": {"X": 1.0, "Y": -1.0}}]}, "image": "/home/milind/.openshot_qt/thumbnail/TDIZ1HFAHG.png", "alpha": {"Points": [{"interpolation": 2, "co": {"X": 1.0, "Y": 1.0}}]}, "perspective_c1_x": {"Points": [{"interpolation": 2, "co": {"X": 1.0, "Y": -1.0}}]}, "location_y": {"Points": [{"interpolation": 2, "co": {"X": 1.0, "Y": 0.0}}]}, "shear_y": {"Points": [{"interpolation": 2, "co": {"X": 1.0, "Y": 0.0}}]}, "crop_height": {"Points": [{"interpolation": 2, "co": {"X": 1.0, "Y": -1.0}}]}, "scale": 1, "wave_color": {"green": {"Points": [{"handle_type": 0, "interpolation": 0, "handle_left": {"X": 0.5, "Y": 1.0}, "handle_right": {"X": 0.5, "Y": 0.0}, "co": {"X": 1.0, "Y": 123.0}}]}, "blue": {"Points": [{"handle_type": 0, "interpolation": 0, "handle_left": {"X": 0.5, "Y": 1.0}, "handle_right": {"X": 0.5, "Y": 0.0}, "co": {"X": 1.0, "Y": 255.0}}]}, "red": {"Points": [{"handle_type": 0, "interpolation": 0, "handle_left": {"X": 0.5, "Y": 1.0}, "handle_right": {"X": 0.5, "Y": 0.0}, "co": {"X": 1.0, "Y": 0.0}}]}, "alpha": {"Points": [{"handle_type": 0, "interpolation": 0, "handle_left": {"X": 0.5, "Y": 1.0}, "handle_right": {"X": 0.5, "Y": 0.0}, "co": {"X": 1.0, "Y": 255.0}}]}}, "perspective_c2_x": {"Points": [{"interpolation": 2, "co": {"X": 1.0, "Y": -1.0}}]}, "channel_mapping": {"Points": [{"interpolation": 2, "co": {"X": 1.0, "Y": -1.0}}]}}, {"anchor": 0, "reader": {"width": 6803, "acodec": "", "has_audio": false, "pixel_ratio": {"den": 1, "num": 1}, "has_video": true, "channels": 0, "file_size": "104140324", "top_field_first": true, "video_bit_rate": 0, "fps": {"den": 1, "num": 30}, "type": "QtImageReader", "channel_layout": 4, "audio_timebase": {"den": 1, "num": 1}, "path": "/home/milind/Data/Projects/ProgressCard/Images/02-Title Progress Cards.svg", "audio_stream_index": -1, "duration": 86400.0, "video_timebase": {"den": 30, "num": 1}, "has_single_image": true, "height": 3827, "interlaced_frame": false, "audio_bit_rate": 0, "pixel_format": -1, "video_stream_index": -1, "sample_rate": 0, "video_length": "2592000", "display_ratio": {"den": 3827, "num": 6803}, "vcodec": ""}, "channel_filter": {"Points": [{"interpolation": 2, "co": {"X": 1.0, "Y": -1.0}}]}, "perspective_c1_y": {"Points": [{"interpolation": 2, "co": {"X": 1.0, "Y": -1.0}}]}, "perspective_c2_y": {"Points": [{"interpolation": 2, "co": {"X": 1.0, "Y": -1.0}}]}, "layer": 1, "shear_x": {"Points": [{"interpolation": 2, "co": {"X": 1.0, "Y": 0.0}}]}, "has_audio": {"Points": [{"interpolation": 2, "co": {"X": 1.0, "Y": -1.0}}]}, "perspective_c3_y": {"Points": [{"interpolation": 2, "co": {"X": 1.0, "Y": -1.0}}]}, "effects": [], "title": "02-Title Progress Cards.svg", "start": 0, "position": 0, "duration": 86400.0, "crop_y": {"Points": [{"interpolation": 2, "co": {"X": 1.0, "Y": 0.0}}]}, "location_y": {"Points": [{"handle_type": 0, "interpolation": 0, "handle_left": {"X": 0.5, "Y": 1.0}, "handle_right": {"X": 0.5, "Y": 0.0}, "co": {"X": 1.0, "Y": 0.0}}]}, "perspective_c3_x": {"Points": [{"interpolation": 2, "co": {"X": 1.0, "Y": -1.0}}]}, "crop_width": {"Points": [{"interpolation": 2, "co": {"X": 1.0, "Y": -1.0}}]}, "scale_y": {"Points": [{"handle_type": 0, "interpolation": 0, "handle_left": {"X": 0.5, "Y": 1.0}, "handle_right": {"X": 0.5, "Y": 0.0}, "co": {"X": 1.0, "Y": 20.0}}, {"interpolation": 1, "co": {"X": 71, "Y": 1.0}}]}, "volume": {"Points": [{"interpolation": 2, "co": {"X": 1.0, "Y": 1.0}}]}, "perspective_c4_y": {"Points": [{"interpolation": 2, "co": {"X": 1.0, "Y": -1.0}}]}, "display": 0, "location_x": {"Points": [{"handle_type": 0, "interpolation": 0, "handle_left": {"X": 0.5, "Y": 1.0}, "handle_right": {"X": 0.5, "Y": 0.0}, "co": {"X": 1.0, "Y": 0.0}}]}, "end": 7.583333333333333, "crop_x": {"Points": [{"interpolation": 2, "co": {"X": 1.0, "Y": 0.0}}]}, "has_video": {"Points": [{"interpolation": 2, "co": {"X": 1.0, "Y": -1.0}}]}, "perspective_c4_x": {"Points": [{"interpolation": 2, "co": {"X": 1.0, "Y": -1.0}}]}, "waveform": false, "scale_x": {"Points": [{"handle_type": 0, "interpolation": 0, "handle_left": {"X": 0.5, "Y": 1.0}, "handle_right": {"X": 0.5, "Y": 0.0}, "co": {"X": 1.0, "Y": 20.0}}, {"interpolation": 1, "co": {"X": 71, "Y": 1.0}}]}, "id": "GIMJDSPZQK", "file_id": "5OEZCIVW6D", "time": {"Points": [{"interpolation": 2, "co": {"X": 1.0, "Y": 1.0}}]}, "rotation": {"Points": [{"interpolation": 2, "co": {"X": 1.0, "Y": 0.0}}]}, "image": "/home/milind/.openshot_qt/thumbnail/5OEZCIVW6D.png", "alpha": {"Points": [{"handle_type": 0, "interpolation": 0, "handle_left": {"X": 0.5, "Y": 1.0}, "handle_right": {"X": 0.5, "Y": 0.0}, "co": {"X": 1.0, "Y": 1.0}}, {"handle_type": 0, "interpolation": 0, "handle_left": {"X": 0.5, "Y": 1.0}, "handle_right": {"X": 0.5, "Y": 0.0}, "co": {"X": 1.0, "Y": 0.0}}, {"handle_type": 0, "interpolation": 0, "handle_left": {"X": 0.5, "Y": 1.0}, "handle_right": {"X": 0.5, "Y": 0.0}, "co": {"X": 73.0, "Y": 1.0}}, {"handle_type": 0, "interpolation": 0, "handle_left": {"X": 0.5, "Y": 1.0}, "handle_right": {"X": 0.5, "Y": 0.0}, "co": {"X": 111.0, "Y": 1.0}}, {"handle_type": 0, "interpolation": 0, "handle_left": {"X": 0.5, "Y": 1.0}, "handle_right": {"X": 0.5, "Y": 0.0}, "co": {"X": 183.0, "Y": 0.0}}]}, "perspective_c1_x": {"Points": [{"interpolation": 2, "co": {"X": 1.0, "Y": -1.0}}]}, "gravity": 4, "shear_y": {"Points": [{"interpolation": 2, "co": {"X": 1.0, "Y": 0.0}}]}, "crop_height": {"Points": [{"interpolation": 2, "co": {"X": 1.0, "Y": -1.0}}]}, "scale": 1, "wave_color": {"green": {"Points": [{"handle_type": 0, "interpolation": 0, "handle_left": {"X": 0.5, "Y": 1.0}, "handle_right": {"X": 0.5, "Y": 0.0}, "co": {"X": 1.0, "Y": 123.0}}]}, "blue": {"Points": [{"handle_type": 0, "interpolation": 0, "handle_left": {"X": 0.5, "Y": 1.0}, "handle_right": {"X": 0.5, "Y": 0.0}, "co": {"X": 1.0, "Y": 255.0}}]}, "red": {"Points": [{"handle_type": 0, "interpolation": 0, "handle_left": {"X": 0.5, "Y": 1.0}, "handle_right": {"X": 0.5, "Y": 0.0}, "co": {"X": 1.0, "Y": 0.0}}]}, "alpha": {"Points": [{"handle_type": 0, "interpolation": 0, "handle_left": {"X": 0.5, "Y": 1.0}, "handle_right": {"X": 0.5, "Y": 0.0}, "co": {"X": 1.0, "Y": 255.0}}]}}, "perspective_c2_x": {"Points": [{"interpolation": 2, "co": {"X": 1.0, "Y": -1.0}}]}, "channel_mapping": {"Points": [{"interpolation": 2, "co": {"X": 1.0, "Y": -1.0}}]}}, {"anchor": 0, "reader": {"width": 600, "acodec": "", "has_audio": false, "pixel_ratio": {"den": 1, "num": 1}, "has_video": true, "channels": 0, "file_size": "427200", "top_field_first": true, "video_bit_rate": 0, "fps": {"den": 1, "num": 30}, "type": "QtImageReader", "channel_layout": 4, "audio_timebase": {"den": 1, "num": 1}, "path": "/home/milind/Data/Projects/ProgressCard/Images/04-LibreOffice_external_logo.svg", "audio_stream_index": -1, "duration": 86400.0, "video_timebase": {"den": 30, "num": 1}, "has_single_image": true, "height": 178, "interlaced_frame": false, "audio_bit_rate": 0, "pixel_format": -1, "video_stream_index": -1, "sample_rate": 0, "video_length": "2592000", "display_ratio": {"den": 89, "num": 300}, "vcodec": ""}, "channel_filter": {"Points": [{"interpolation": 2, "co": {"X": 1.0, "Y": -1.0}}]}, "perspective_c1_y": {"Points": [{"interpolation": 2, "co": {"X": 1.0, "Y": -1.0}}]}, "perspective_c2_y": {"Points": [{"interpolation": 2, "co": {"X": 1.0, "Y": -1.0}}]}, "layer": 1, "shear_x": {"Points": [{"interpolation": 2, "co": {"X": 1.0, "Y": 0.0}}]}, "has_audio": {"Points": [{"interpolation": 2, "co": {"X": 1.0, "Y": -1.0}}]}, "perspective_c3_y": {"Points": [{"interpolation": 2, "co": {"X": 1.0, "Y": -1.0}}]}, "effects": [], "title": "04-LibreOffice_external_logo.svg", "start": 0, "position": 12.64, "duration": 86400.0, "crop_y": {"Points": [{"interpolation": 2, "co": {"X": 1.0, "Y": 0.0}}]}, "location_y": {"Points": [{"handle_type": 0, "interpolation": 0, "handle_left": {"X": 0.5, "Y": 1.0}, "handle_right": {"X": 0.5, "Y": 0.0}, "co": {"X": 1.0, "Y": 0.0}}]}, "perspective_c3_x": {"Points": [{"interpolation": 2, "co": {"X": 1.0, "Y": -1.0}}]}, "crop_width": {"Points": [{"interpolation": 2, "co": {"X": 1.0, "Y": -1.0}}]}, "scale_y": {"Points": [{"handle_type": 0, "interpolation": 0, "handle_left": {"X": 0.5, "Y": 1.0}, "handle_right": {"X": 0.5, "Y": 0.0}, "co": {"X": 1.0, "Y": 1.0}}]}, "volume": {"Points": [{"interpolation": 2, "co": {"X": 1.0, "Y": 1.0}}]}, "perspective_c4_y": {"Points": [{"interpolation": 2, "co": {"X": 1.0, "Y": -1.0}}]}, "display": 0, "location_x": {"Points": [{"handle_type": 0, "interpolation": 0, "handle_left": {"X": 0.5, "Y": 1.0}, "handle_right": {"X": 0.5, "Y": 0.0}, "co": {"X": 1.0, "Y": 0.0}}]}, "end": 7.083333333333332, "crop_x": {"Points": [{"interpolation": 2, "co": {"X": 1.0, "Y": 0.0}}]}, "has_video": {"Points": [{"interpolation": 2, "co": {"X": 1.0, "Y": -1.0}}]}, "perspective_c4_x": {"Points": [{"interpolation": 2, "co": {"X": 1.0, "Y": -1.0}}]}, "waveform": false, "scale_x": {"Points": [{"handle_type": 0, "interpolation": 0, "handle_left": {"X": 0.5, "Y": 1.0}, "handle_right": {"X": 0.5, "Y": 0.0}, "co": {"X": 1.0, "Y": 1.0}}]}, "id": "1MXPXZXR6K", "file_id": "9LYJA9LENR", "time": {"Points": [{"interpolation": 2, "co": {"X": 1.0, "Y": 1.0}}]}, "rotation": {"Points": [{"interpolation": 2, "co": {"X": 1.0, "Y": 0.0}}]}, "image": "/home/milind/.openshot_qt/thumbnail/9LYJA9LENR.png", "alpha": {"Points": [{"handle_type": 0, "interpolation": 0, "handle_left": {"X": 0.5, "Y": 1.0}, "handle_right": {"X": 0.5, "Y": 0.0}, "co": {"X": 1.0, "Y": 1.0}}, {"handle_type": 0, "interpolation": 0, "handle_left": {"X": 0.5, "Y": 1.0}, "handle_right": {"X": 0.5, "Y": 0.0}, "co": {"X": 1.0, "Y": 0.0}}, {"handle_type": 0, "interpolation": 0, "handle_left": {"X": 0.5, "Y": 1.0}, "handle_right": {"X": 0.5, "Y": 0.0}, "co": {"X": 73.0, "Y": 1.0}}, {"handle_type": 0, "interpolation": 0, "handle_left": {"X": 0.5, "Y": 1.0}, "handle_right": {"X": 0.5, "Y": 0.0}, "co": {"X": 99.0, "Y": 1.0}}, {"handle_type": 0, "interpolation": 0, "handle_left": {"X": 0.5, "Y": 1.0}, "handle_right": {"X": 0.5, "Y": 0.0}, "co": {"X": 171.0, "Y": 0.0}}]}, "perspective_c1_x": {"Points": [{"interpolation": 2, "co": {"X": 1.0, "Y": -1.0}}]}, "gravity": 4, "shear_y": {"Points": [{"interpolation": 2, "co": {"X": 1.0, "Y": 0.0}}]}, "crop_height": {"Points": [{"interpolation": 2, "co": {"X": 1.0, "Y": -1.0}}]}, "scale": 1, "wave_color": {"green": {"Points": [{"handle_type": 0, "interpolation": 0, "handle_left": {"X": 0.5, "Y": 1.0}, "handle_right": {"X": 0.5, "Y": 0.0}, "co": {"X": 1.0, "Y": 123.0}}]}, "blue": {"Points": [{"handle_type": 0, "interpolation": 0, "handle_left": {"X": 0.5, "Y": 1.0}, "handle_right": {"X": 0.5, "Y": 0.0}, "co": {"X": 1.0, "Y": 255.0}}]}, "red": {"Points": [{"handle_type": 0, "interpolation": 0, "handle_left": {"X": 0.5, "Y": 1.0}, "handle_right": {"X": 0.5, "Y": 0.0}, "co": {"X": 1.0, "Y": 0.0}}]}, "alpha": {"Points": [{"handle_type": 0, "interpolation": 0, "handle_left": {"X": 0.5, "Y": 1.0}, "handle_right": {"X": 0.5, "Y": 0.0}, "co": {"X": 1.0, "Y": 255.0}}]}}, "perspective_c2_x": {"Points": [{"interpolation": 2, "co": {"X": 1.0, "Y": -1.0}}]}, "channel_mapping": {"Points": [{"interpolation": 2, "co": {"X": 1.0, "Y": -1.0}}]}}, {"anchor": 0, "has_audio": {"Points": [{"interpolation": 2, "co": {"X": 1.0, "Y": -1.0}}]}, "channel_filter": {"Points": [{"interpolation": 2, "co": {"X": 1.0, "Y": -1.0}}]}, "perspective_c2_x": {"Points": [{"interpolation": 2, "co": {"X": 1.0, "Y": -1.0}}]}, "perspective_c1_y": {"Points": [{"interpolation": 2, "co": {"X": 1.0, "Y": -1.0}}]}, "layer": 1, "reader": {"width": 1366, "acodec": "", "has_audio": false, "pixel_ratio": {"den": 1, "num": 1}, "has_video": true, "channels": 0, "file_size": "394038", "top_field_first": true, "video_bit_rate": 0, "fps": {"den": 1, "num": 25}, "type": "FFmpegReader", "channel_layout": 4, "audio_timebase": {"den": 1, "num": 1}, "path": "/home/milind/Data/Projects/ProgressCard/Clips/06-Create Progress Card Template.mkv", "audio_stream_index": -1, "duration": 44.0, "video_timebase": {"den": 1000, "num": 1}, "has_single_image": false, "height": 768, "interlaced_frame": false, "audio_bit_rate": 0, "pixel_format": 0, "video_stream_index": 0, "sample_rate": 0, "video_length": "1100", "display_ratio": {"den": 384, "num": 683}, "vcodec": "h264"}, "perspective_c3_y": {"Points": [{"interpolation": 2, "co": {"X": 1.0, "Y": -1.0}}]}, "effects": [], "title": "06-Create Progress Card Template.mkv", "start": 5.361666666666668, "position": 39.52, "has_video": {"Points": [{"interpolation": 2, "co": {"X": 1.0, "Y": -1.0}}]}, "time": {"Points": [{"interpolation": 2, "co": {"X": 1.0, "Y": 1.0}}]}, "crop_y": {"Points": [{"interpolation": 2, "co": {"X": 1.0, "Y": 0.0}}]}, "location_y": {"Points": [{"interpolation": 2, "co": {"X": 1.0, "Y": 0.0}}, {"interpolation": 1, "co": {"X": 803, "Y": -0.3199999928474426}}, {"interpolation": 1, "co": {"X": 1057, "Y": 0.0}}]}, "crop_width": {"Points": [{"interpolation": 2, "co": {"X": 1.0, "Y": -1.0}}]}, "scale_y": {"Points": [{"interpolation": 2, "co": {"X": 1.0, "Y": 1.0}}, {"interpolation": 1, "co": {"X": 803, "Y": 1.649999976158142}}, {"interpolation": 1, "co": {"X": 1057, "Y": 1.0}}]}, "crop_height": {"Points": [{"interpolation": 2, "co": {"X": 1.0, "Y": -1.0}}]}, "perspective_c4_y": {"Points": [{"interpolation": 2, "co": {"X": 1.0, "Y": -1.0}}]}, "display": 0, "location_x": {"Points": [{"interpolation": 2, "co": {"X": 1.0, "Y": 0.0}}]}, "volume": {"Points": [{"interpolation": 2, "co": {"X": 1.0, "Y": 1.0}}]}, "crop_x": {"Points": [{"interpolation": 2, "co": {"X": 1.0, "Y": 0.0}}]}, "shear_x": {"Points": [{"interpolation": 2, "co": {"X": 1.0, "Y": 0.0}}]}, "perspective_c4_x": {"Points": [{"interpolation": 2, "co": {"X": 1.0, "Y": -1.0}}]}, "waveform": false, "scale_x": {"Points": [{"interpolation": 2, "co": {"X": 1.0, "Y": 1.0}}, {"interpolation": 1, "co": {"X": 803, "Y": 1.649999976158142}}, {"interpolation": 1, "co": {"X": 1057, "Y": 1.0}}]}, "id": "NCU6KKCVQ7", "file_id": "XQEQ903ILK", "rotation": {"Points": [{"interpolation": 2, "co": {"X": 1.0, "Y": 0.0}}]}, "duration": 44.0, "perspective_c3_x": {"Points": [{"interpolation": 2, "co": {"X": 1.0, "Y": -1.0}}]}, "image": "/home/milind/.openshot_qt/thumbnail/XQEQ903ILK.png", "alpha": {"Points": [{"handle_type": 0, "interpolation": 0, "handle_left": {"X": 0.5, "Y": 1.0}, "handle_right": {"X": 0.5, "Y": 0.0}, "co": {"X": 1.0, "Y": 1.0}}, {"handle_type": 0, "interpolation": 0, "handle_left": {"X": 0.5, "Y": 1.0}, "handle_right": {"X": 0.5, "Y": 0.0}, "co": {"X": 130.0, "Y": 0.0}}, {"handle_type": 0, "interpolation": 0, "handle_left": {"X": 0.5, "Y": 1.0}, "handle_right": {"X": 0.5, "Y": 0.0}, "co": {"X": 202.0, "Y": 1.0}}, {"handle_type": 0, "interpolation": 0, "handle_left": {"X": 0.5, "Y": 1.0}, "handle_right": {"X": 0.5, "Y": 0.0}, "co": {"X": 943.0, "Y": 1.0}}, {"handle_type": 0, "interpolation": 0, "handle_left": {"X": 0.5, "Y": 1.0}, "handle_right": {"X": 0.5, "Y": 0.0}, "co": {"X": 1015.0, "Y": 0.0}}]}, "perspective_c1_x": {"Points": [{"interpolation": 2, "co": {"X": 1.0, "Y": -1.0}}]}, "gravity": 4, "shear_y": {"Points": [{"interpolation": 2, "co": {"X": 1.0, "Y": 0.0}}]}, "channel_mapping": {"Points": [{"interpolation": 2, "co": {"X": 1.0, "Y": -1.0}}]}, "scale": 1, "wave_color": {"green": {"Points": [{"handle_type": 0, "interpolation": 0, "handle_left": {"X": 0.5, "Y": 1.0}, "handle_right": {"X": 0.5, "Y": 0.0}, "co": {"X": 1.0, "Y": 123.0}}]}, "blue": {"Points": [{"handle_type": 0, "interpolation": 0, "handle_left": {"X": 0.5, "Y": 1.0}, "handle_right": {"X": 0.5, "Y": 0.0}, "co": {"X": 1.0, "Y": 255.0}}]}, "red": {"Points": [{"handle_type": 0, "interpolation": 0, "handle_left": {"X": 0.5, "Y": 1.0}, "handle_right": {"X": 0.5, "Y": 0.0}, "co": {"X": 1.0, "Y": 0.0}}]}, "alpha": {"Points": [{"handle_type": 0, "interpolation": 0, "handle_left": {"X": 0.5, "Y": 1.0}, "handle_right": {"X": 0.5, "Y": 0.0}, "co": {"X": 1.0, "Y": 255.0}}]}}, "perspective_c2_y": {"Points": [{"interpolation": 2, "co": {"X": 1.0, "Y": -1.0}}]}, "end": 42.258333333333326}, {"anchor": 0, "reader": {"width": 6803, "acodec": "", "has_audio": false, "pixel_ratio": {"den": 1, "num": 1}, "has_video": true, "channels": 0, "file_size": "104140324", "top_field_first": true, "video_bit_rate": 0, "fps": {"den": 1, "num": 30}, "type": "QtImageReader", "channel_layout": 4, "audio_timebase": {"den": 1, "num": 1}, "path": "/home/milind/Data/Projects/ProgressCard/Images/03-Title-In.svg", "audio_stream_index": -1, "duration": 86400.0, "video_timebase": {"den": 30, "num": 1}, "has_single_image": true, "height": 3827, "interlaced_frame": false, "audio_bit_rate": 0, "pixel_format": -1, "video_stream_index": -1, "sample_rate": 0, "video_length": "2592000", "display_ratio": {"den": 3827, "num": 6803}, "vcodec": ""}, "channel_filter": {"Points": [{"interpolation": 2, "co": {"X": 1.0, "Y": -1.0}}]}, "perspective_c1_y": {"Points": [{"interpolation": 2, "co": {"X": 1.0, "Y": -1.0}}]}, "perspective_c2_y": {"Points": [{"interpolation": 2, "co": {"X": 1.0, "Y": -1.0}}]}, "layer": 1, "shear_x": {"Points": [{"interpolation": 2, "co": {"X": 1.0, "Y": 0.0}}]}, "has_audio": {"Points": [{"interpolation": 2, "co": {"X": 1.0, "Y": -1.0}}]}, "perspective_c3_y": {"Points": [{"interpolation": 2, "co": {"X": 1.0, "Y": -1.0}}]}, "effects": [], "title": "03-Title-In.svg", "start": 0, "position": 7.52, "end": 5.2, "crop_y": {"Points": [{"interpolation": 2, "co": {"X": 1.0, "Y": 0.0}}]}, "gravity": 4, "crop_width": {"Points": [{"interpolation": 2, "co": {"X": 1.0, "Y": -1.0}}]}, "duration": 86400.0, "scale_y": {"Points": [{"interpolation": 2, "co": {"X": 1.0, "Y": 1.0}}]}, "volume": {"Points": [{"interpolation": 2, "co": {"X": 1.0, "Y": 1.0}}]}, "perspective_c4_y": {"Points": [{"interpolation": 2, "co": {"X": 1.0, "Y": -1.0}}]}, "display": 0, "location_x": {"Points": [{"interpolation": 2, "co": {"X": 1.0, "Y": 0.0}}]}, "wave_color": {"green": {"Points": [{"handle_type": 0, "interpolation": 0, "handle_left": {"X": 0.5, "Y": 1.0}, "handle_right": {"X": 0.5, "Y": 0.0}, "co": {"X": 1.0, "Y": 123.0}}]}, "blue": {"Points": [{"handle_type": 0, "interpolation": 0, "handle_left": {"X": 0.5, "Y": 1.0}, "handle_right": {"X": 0.5, "Y": 0.0}, "co": {"X": 1.0, "Y": 255.0}}]}, "red": {"Points": [{"handle_type": 0, "interpolation": 0, "handle_left": {"X": 0.5, "Y": 1.0}, "handle_right": {"X": 0.5, "Y": 0.0}, "co": {"X": 1.0, "Y": 0.0}}]}, "alpha": {"Points": [{"handle_type": 0, "interpolation": 0, "handle_left": {"X": 0.5, "Y": 1.0}, "handle_right": {"X": 0.5, "Y": 0.0}, "co": {"X": 1.0, "Y": 255.0}}]}}, "has_video": {"Points": [{"interpolation": 2, "co": {"X": 1.0, "Y": -1.0}}]}, "perspective_c4_x": {"Points": [{"interpolation": 2, "co": {"X": 1.0, "Y": -1.0}}]}, "waveform": false, "scale_x": {"Points": [{"interpolation": 2, "co": {"X": 1.0, "Y": 1.0}}]}, "id": "A67X93JE0R", "file_id": "V0JTT8RBI4", "rotation": {"Points": [{"interpolation": 2, "co": {"X": 1.0, "Y": 0.0}}]}, "time": {"Points": [{"interpolation": 2, "co": {"X": 1.0, "Y": 1.0}}]}, "perspective_c3_x": {"Points": [{"interpolation": 2, "co": {"X": 1.0, "Y": -1.0}}]}, "image": "/home/milind/.openshot_qt/thumbnail/V0JTT8RBI4.png", "alpha": {"Points": [{"interpolation": 2, "co": {"X": 1.0, "Y": 1.0}}, {"handle_type": 0, "interpolation": 0, "handle_left": {"X": 0.5, "Y": 1.0}, "handle_right": {"X": 0.5, "Y": 0.0}, "co": {"X": 1.0, "Y": 0.0}}, {"handle_type": 0, "interpolation": 0, "handle_left": {"X": 0.5, "Y": 1.0}, "handle_right": {"X": 0.5, "Y": 0.0}, "co": {"X": 73.0, "Y": 1.0}}, {"handle_type": 0, "interpolation": 0, "handle_left": {"X": 0.5, "Y": 1.0}, "handle_right": {"X": 0.5, "Y": 0.0}, "co": {"X": 54.0, "Y": 1.0}}, {"handle_type": 0, "interpolation": 0, "handle_left": {"X": 0.5, "Y": 1.0}, "handle_right": {"X": 0.5, "Y": 0.0}, "co": {"X": 126.0, "Y": 0.0}}]}, "perspective_c1_x": {"Points": [{"interpolation": 2, "co": {"X": 1.0, "Y": -1.0}}]}, "location_y": {"Points": [{"interpolation": 2, "co": {"X": 1.0, "Y": 0.0}}]}, "shear_y": {"Points": [{"interpolation": 2, "co": {"X": 1.0, "Y": 0.0}}]}, "crop_height": {"Points": [{"interpolation": 2, "co": {"X": 1.0, "Y": -1.0}}]}, "scale": 1, "crop_x": {"Points": [{"interpolation": 2, "co": {"X": 1.0, "Y": 0.0}}]}, "perspective_c2_x": {"Points": [{"interpolation": 2, "co": {"X": 1.0, "Y": -1.0}}]}, "channel_mapping": {"Points": [{"interpolation": 2, "co": {"X": 1.0, "Y": -1.0}}]}}, {"anchor": 0, "has_audio": {"Points": [{"interpolation": 2, "co": {"X": 1.0, "Y": -1.0}}]}, "channel_filter": {"Points": [{"interpolation": 2, "co": {"X": 1.0, "Y": -1.0}}]}, "perspective_c2_x": {"Points": [{"interpolation": 2, "co": {"X": 1.0, "Y": -1.0}}]}, "perspective_c1_y": {"Points": [{"interpolation": 2, "co": {"X": 1.0, "Y": -1.0}}]}, "layer": 1, "reader": {"width": 6803, "acodec": "", "has_audio": false, "pixel_ratio": {"den": 1, "num": 1}, "has_video": true, "sample_rate": 0, "channels": 0, "file_size": "104140324", "top_field_first": true, "video_bit_rate": 0, "duration": 86400.0, "fps": {"den": 1, "num": 30}, "type": "QtImageReader", "channel_layout": 4, "audio_timebase": {"den": 1, "num": 1}, "path": "/home/milind/Data/Projects/ProgressCard/Images/04-Title -Open Writer.svg", "audio_stream_index": -1, "video_timebase": {"den": 30, "num": 1}, "has_single_image": true, "height": 3827, "interlaced_frame": false, "audio_bit_rate": 0, "video_stream_index": -1, "pixel_format": -1, "video_length": "2592000", "display_ratio": {"den": 3827, "num": 6803}, "vcodec": ""}, "perspective_c3_y": {"Points": [{"interpolation": 2, "co": {"X": 1.0, "Y": -1.0}}]}, "effects": [], "title": "04-Title -Open Writer.svg", "start": 0, "position": 19.723333333333333, "has_video": {"Points": [{"interpolation": 2, "co": {"X": 1.0, "Y": -1.0}}]}, "time": {"Points": [{"interpolation": 2, "co": {"X": 1.0, "Y": 1.0}}]}, "crop_y": {"Points": [{"interpolation": 2, "co": {"X": 1.0, "Y": 0.0}}]}, "location_y": {"Points": [{"interpolation": 2, "co": {"X": 1.0, "Y": 0.0}}]}, "crop_width": {"Points": [{"interpolation": 2, "co": {"X": 1.0, "Y": -1.0}}]}, "scale_y": {"Points": [{"interpolation": 2, "co": {"X": 1.0, "Y": 1.0}}]}, "volume": {"Points": [{"interpolation": 2, "co": {"X": 1.0, "Y": 1.0}}]}, "perspective_c4_y": {"Points": [{"interpolation": 2, "co": {"X": 1.0, "Y": -1.0}}]}, "display": 0, "location_x": {"Points": [{"interpolation": 2, "co": {"X": 1.0, "Y": 0.0}}]}, "crop_height": {"Points": [{"interpolation": 2, "co": {"X": 1.0, "Y": -1.0}}]}, "crop_x": {"Points": [{"interpolation": 2, "co": {"X": 1.0, "Y": 0.0}}]}, "shear_x": {"Points": [{"interpolation": 2, "co": {"X": 1.0, "Y": 0.0}}]}, "perspective_c4_x": {"Points": [{"interpolation": 2, "co": {"X": 1.0, "Y": -1.0}}]}, "waveform": false, "scale_x": {"Points": [{"interpolation": 2, "co": {"X": 1.0, "Y": 1.0}}]}, "id": "HQAVSFANQA", "file_id": "LCX92BC34E", "rotation": {"Points": [{"interpolation": 2, "co": {"X": 1.0, "Y": 0.0}}]}, "duration": 86400.0, "perspective_c3_x": {"Points": [{"interpolation": 2, "co": {"X": 1.0, "Y": -1.0}}]}, "image": "/home/milind/.openshot_qt/thumbnail/LCX92BC34E.png", "alpha": {"Points": [{"interpolation": 2, "co": {"X": 1.0, "Y": 1.0}}]}, "perspective_c1_x": {"Points": [{"interpolation": 2, "co": {"X": 1.0, "Y": -1.0}}]}, "gravity": 4, "shear_y": {"Points": [{"interpolation": 2, "co": {"X": 1.0, "Y": 0.0}}]}, "channel_mapping": {"Points": [{"interpolation": 2, "co": {"X": 1.0, "Y": -1.0}}]}, "scale": 1, "wave_color": {"green": {"Points": [{"handle_type": 0, "interpolation": 0, "handle_left": {"X": 0.5, "Y": 1.0}, "co": {"X": 1.0, "Y": 123.0}, "handle_right": {"X": 0.5, "Y": 0.0}}]}, "alpha": {"Points": [{"handle_type": 0, "interpolation": 0, "handle_left": {"X": 0.5, "Y": 1.0}, "co": {"X": 1.0, "Y": 255.0}, "handle_right": {"X": 0.5, "Y": 0.0}}]}, "red": {"Points": [{"handle_type": 0, "interpolation": 0, "handle_left": {"X": 0.5, "Y": 1.0}, "co": {"X": 1.0, "Y": 0.0}, "handle_right": {"X": 0.5, "Y": 0.0}}]}, "blue": {"Points": [{"handle_type": 0, "interpolation": 0, "handle_left": {"X": 0.5, "Y": 1.0}, "co": {"X": 1.0, "Y": 255.0}, "handle_right": {"X": 0.5, "Y": 0.0}}]}}, "perspective_c2_y": {"Points": [{"interpolation": 2, "co": {"X": 1.0, "Y": -1.0}}]}, "end": 10}]}, {"partial": false, "key": ["clips", {"id": "QP863O0CPG"}], "type": "update", "value": {"id": "QP863O0CPG", "start": 0, "end": 10, "image": "/home/milind/.openshot_qt/thumbnail/BMSYFSQJ9F.png", "layer": 1, "position": 29.760000000000005}, "old_values": {"anchor": 0, "has_audio": {"Points": [{"interpolation": 2, "co": {"X": 1.0, "Y": -1.0}}]}, "channel_filter": {"Points": [{"interpolation": 2, "co": {"X": 1.0, "Y": -1.0}}]}, "has_video": {"Points": [{"interpolation": 2, "co": {"X": 1.0, "Y": -1.0}}]}, "perspective_c2_y": {"Points": [{"interpolation": 2, "co": {"X": 1.0, "Y": -1.0}}]}, "layer": 2, "reader": {"width": 6803, "acodec": "", "has_audio": false, "pixel_ratio": {"den": 1, "num": 1}, "has_video": true, "sample_rate": 0, "channels": 0, "file_size": "104140324", "top_field_first": true, "video_bit_rate": 0, "duration": 86400.0, "fps": {"den": 1, "num": 30}, "type": "QtImageReader", "channel_layout": 4, "audio_timebase": {"den": 1, "num": 1}, "path": "/home/milind/Data/Projects/ProgressCard/Images/05-Slide-Create Card Template.svg", "audio_stream_index": -1, "video_timebase": {"den": 30, "num": 1}, "has_single_image": true, "height": 3827, "interlaced_frame": false, "audio_bit_rate": 0, "video_stream_index": -1, "pixel_format": -1, "video_length": "2592000", "display_ratio": {"den": 3827, "num": 6803}, "vcodec": ""}, "perspective_c3_y": {"Points": [{"interpolation": 2, "co": {"X": 1.0, "Y": -1.0}}]}, "effects": [], "perspective_c1_y": {"Points": [{"interpolation": 2, "co": {"X": 1.0, "Y": -1.0}}]}, "title": "05-Slide-Create Card Template.svg", "start": 0.0, "duration": 86400.0, "crop_y": {"Points": [{"interpolation": 2, "co": {"X": 1.0, "Y": 0.0}}]}, "location_y": {"Points": [{"interpolation": 2, "co": {"X": 1.0, "Y": 0.0}}]}, "perspective_c3_x": {"Points": [{"interpolation": 2, "co": {"X": 1.0, "Y": -1.0}}]}, "crop_width": {"Points": [{"interpolation": 2, "co": {"X": 1.0, "Y": -1.0}}]}, "channel_mapping": {"Points": [{"interpolation": 2, "co": {"X": 1.0, "Y": -1.0}}]}, "scale_y": {"Points": [{"interpolation": 2, "co": {"X": 1.0, "Y": 1.0}}]}, "crop_height": {"Points": [{"interpolation": 2, "co": {"X": 1.0, "Y": -1.0}}]}, "perspective_c1_x": {"Points": [{"interpolation": 2, "co": {"X": 1.0, "Y": -1.0}}]}, "perspective_c4_y": {"Points": [{"interpolation": 2, "co": {"X": 1.0, "Y": -1.0}}]}, "display": 0, "id": "QP863O0CPG", "crop_x": {"Points": [{"interpolation": 2, "co": {"X": 1.0, "Y": 0.0}}]}, "shear_x": {"Points": [{"interpolation": 2, "co": {"X": 1.0, "Y": 0.0}}]}, "perspective_c4_x": {"Points": [{"interpolation": 2, "co": {"X": 1.0, "Y": -1.0}}]}, "waveform": false, "scale_x": {"Points": [{"interpolation": 2, "co": {"X": 1.0, "Y": 1.0}}]}, "position": 19.2, "file_id": "BMSYFSQJ9F", "time": {"Points": [{"interpolation": 2, "co": {"X": 1.0, "Y": 1.0}}]}, "rotation": {"Points": [{"interpolation": 2, "co": {"X": 1.0, "Y": 0.0}}]}, "image": "/home/milind/.openshot_qt/thumbnail/BMSYFSQJ9F.png", "alpha": {"Points": [{"interpolation": 2, "co": {"X": 1.0, "Y": 1.0}}]}, "location_x": {"Points": [{"interpolation": 2, "co": {"X": 1.0, "Y": 0.0}}]}, "gravity": 4, "shear_y": {"Points": [{"interpolation": 2, "co": {"X": 1.0, "Y": 0.0}}]}, "volume": {"Points": [{"interpolation": 2, "co": {"X": 1.0, "Y": 1.0}}]}, "scale": 1, "wave_color": {"green": {"Points": [{"handle_type": 0, "interpolation": 0, "handle_left": {"X": 0.5, "Y": 1.0}, "co": {"X": 1.0, "Y": 123.0}, "handle_right": {"X": 0.5, "Y": 0.0}}]}, "alpha": {"Points": [{"handle_type": 0, "interpolation": 0, "handle_left": {"X": 0.5, "Y": 1.0}, "co": {"X": 1.0, "Y": 255.0}, "handle_right": {"X": 0.5, "Y": 0.0}}]}, "red": {"Points": [{"handle_type": 0, "interpolation": 0, "handle_left": {"X": 0.5, "Y": 1.0}, "co": {"X": 1.0, "Y": 0.0}, "handle_right": {"X": 0.5, "Y": 0.0}}]}, "blue": {"Points": [{"handle_type": 0, "interpolation": 0, "handle_left": {"X": 0.5, "Y": 1.0}, "co": {"X": 1.0, "Y": 255.0}, "handle_right": {"X": 0.5, "Y": 0.0}}]}}, "perspective_c2_x": {"Points": [{"interpolation": 2, "co": {"X": 1.0, "Y": -1.0}}]}, "end": 10.0}}, {"partial": false, "key": ["files", {"id": "BMSYFSQJ9F"}], "type": "delete", "value": null, "old_values": {"width": 6803, "acodec": "", "has_audio": false, "pixel_ratio": {"den": 1, "num": 1}, "has_video": true, "sample_rate": 0, "channels": 0, "file_size": "104140324", "top_field_first": true, "video_bit_rate": 0, "duration": 86400.0, "fps": {"den": 1, "num": 30}, "type": "QtImageReader", "channel_layout": 4, "audio_timebase": {"den": 1, "num": 1}, "path": "/home/milind/Data/Projects/ProgressCard/Images/05-Slide-Create Card Template.svg", "audio_stream_index": -1, "video_timebase": {"den": 30, "num": 1}, "has_single_image": true, "height": 3827, "interlaced_frame": false, "audio_bit_rate": 0, "media_type": "image", "id": "BMSYFSQJ9F", "video_stream_index": -1, "pixel_format": -1, "video_length": "2592000", "display_ratio": {"den": 3827, "num": 6803}, "vcodec": ""}}, {"partial": false, "key": ["clips", {"id": "QP863O0CPG"}], "type": "delete", "value": null, "old_values": {"anchor": 0, "has_audio": {"Points": [{"interpolation": 2, "co": {"X": 1.0, "Y": -1.0}}]}, "channel_filter": {"Points": [{"interpolation": 2, "co": {"X": 1.0, "Y": -1.0}}]}, "perspective_c2_x": {"Points": [{"interpolation": 2, "co": {"X": 1.0, "Y": -1.0}}]}, "perspective_c1_y": {"Points": [{"interpolation": 2, "co": {"X": 1.0, "Y": -1.0}}]}, "layer": 1, "reader": {"width": 6803, "acodec": "", "has_audio": false, "pixel_ratio": {"den": 1, "num": 1}, "has_video": true, "sample_rate": 0, "channels": 0, "file_size": "104140324", "top_field_first": true, "video_bit_rate": 0, "duration": 86400.0, "fps": {"den": 1, "num": 30}, "type": "QtImageReader", "channel_layout": 4, "audio_timebase": {"den": 1, "num": 1}, "path": "/home/milind/Data/Projects/ProgressCard/Images/05-Slide-Create Card Template.svg", "audio_stream_index": -1, "video_timebase": {"den": 30, "num": 1}, "has_single_image": true, "height": 3827, "interlaced_frame": false, "audio_bit_rate": 0, "video_stream_index": -1, "pixel_format": -1, "video_length": "2592000", "display_ratio": {"den": 3827, "num": 6803}, "vcodec": ""}, "perspective_c3_y": {"Points": [{"interpolation": 2, "co": {"X": 1.0, "Y": -1.0}}]}, "effects": [], "title": "05-Slide-Create Card Template.svg", "start": 0, "position": 29.760000000000005, "has_video": {"Points": [{"interpolation": 2, "co": {"X": 1.0, "Y": -1.0}}]}, "time": {"Points": [{"interpolation": 2, "co": {"X": 1.0, "Y": 1.0}}]}, "crop_y": {"Points": [{"interpolation": 2, "co": {"X": 1.0, "Y": 0.0}}]}, "location_y": {"Points": [{"interpolation": 2, "co": {"X": 1.0, "Y": 0.0}}]}, "crop_width": {"Points": [{"interpolation": 2, "co": {"X": 1.0, "Y": -1.0}}]}, "scale_y": {"Points": [{"interpolation": 2, "co": {"X": 1.0, "Y": 1.0}}]}, "volume": {"Points": [{"interpolation": 2, "co": {"X": 1.0, "Y": 1.0}}]}, "perspective_c4_y": {"Points": [{"interpolation": 2, "co": {"X": 1.0, "Y": -1.0}}]}, "display": 0, "location_x": {"Points": [{"interpolation": 2, "co": {"X": 1.0, "Y": 0.0}}]}, "crop_height": {"Points": [{"interpolation": 2, "co": {"X": 1.0, "Y": -1.0}}]}, "crop_x": {"Points": [{"interpolation": 2, "co": {"X": 1.0, "Y": 0.0}}]}, "shear_x": {"Points": [{"interpolation": 2, "co": {"X": 1.0, "Y": 0.0}}]}, "perspective_c4_x": {"Points": [{"interpolation": 2, "co": {"X": 1.0, "Y": -1.0}}]}, "waveform": false, "scale_x": {"Points": [{"interpolation": 2, "co": {"X": 1.0, "Y": 1.0}}]}, "id": "QP863O0CPG", "file_id": "BMSYFSQJ9F", "rotation": {"Points": [{"interpolation": 2, "co": {"X": 1.0, "Y": 0.0}}]}, "duration": 86400.0, "perspective_c3_x": {"Points": [{"interpolation": 2, "co": {"X": 1.0, "Y": -1.0}}]}, "image": "/home/milind/.openshot_qt/thumbnail/BMSYFSQJ9F.png", "alpha": {"Points": [{"interpolation": 2, "co": {"X": 1.0, "Y": 1.0}}]}, "perspective_c1_x": {"Points": [{"interpolation": 2, "co": {"X": 1.0, "Y": -1.0}}]}, "gravity": 4, "shear_y": {"Points": [{"interpolation": 2, "co": {"X": 1.0, "Y": 0.0}}]}, "channel_mapping": {"Points": [{"interpolation": 2, "co": {"X": 1.0, "Y": -1.0}}]}, "scale": 1, "wave_color": {"green": {"Points": [{"handle_type": 0, "interpolation": 0, "handle_left": {"X": 0.5, "Y": 1.0}, "co": {"X": 1.0, "Y": 123.0}, "handle_right": {"X": 0.5, "Y": 0.0}}]}, "alpha": {"Points": [{"handle_type": 0, "interpolation": 0, "handle_left": {"X": 0.5, "Y": 1.0}, "co": {"X": 1.0, "Y": 255.0}, "handle_right": {"X": 0.5, "Y": 0.0}}]}, "red": {"Points": [{"handle_type": 0, "interpolation": 0, "handle_left": {"X": 0.5, "Y": 1.0}, "co": {"X": 1.0, "Y": 0.0}, "handle_right": {"X": 0.5, "Y": 0.0}}]}, "blue": {"Points": [{"handle_type": 0, "interpolation": 0, "handle_left": {"X": 0.5, "Y": 1.0}, "co": {"X": 1.0, "Y": 255.0}, "handle_right": {"X": 0.5, "Y": 0.0}}]}}, "perspective_c2_y": {"Points": [{"interpolation": 2, "co": {"X": 1.0, "Y": -1.0}}]}, "end": 10}}, {"partial": false, "key": ["files", {"id": "LCX92BC34E"}], "type": "delete", "value": null, "old_values": {"width": 6803, "acodec": "", "has_audio": false, "pixel_ratio": {"den": 1, "num": 1}, "has_video": true, "sample_rate": 0, "channels": 0, "file_size": "104140324", "top_field_first": true, "video_bit_rate": 0, "duration": 86400.0, "fps": {"den": 1, "num": 30}, "type": "QtImageReader", "channel_layout": 4, "audio_timebase": {"den": 1, "num": 1}, "path": "/home/milind/Data/Projects/ProgressCard/Images/04-Title -Open Writer.svg", "audio_stream_index": -1, "video_timebase": {"den": 30, "num": 1}, "has_single_image": true, "height": 3827, "interlaced_frame": false, "audio_bit_rate": 0, "media_type": "image", "id": "LCX92BC34E", "video_stream_index": -1, "pixel_format": -1, "video_length": "2592000", "display_ratio": {"den": 3827, "num": 6803}, "vcodec": ""}}, {"partial": false, "key": ["clips", {"id": "HQAVSFANQA"}], "type": "delete", "value": null, "old_values": {"anchor": 0, "has_audio": {"Points": [{"interpolation": 2, "co": {"X": 1.0, "Y": -1.0}}]}, "channel_filter": {"Points": [{"interpolation": 2, "co": {"X": 1.0, "Y": -1.0}}]}, "perspective_c2_x": {"Points": [{"interpolation": 2, "co": {"X": 1.0, "Y": -1.0}}]}, "perspective_c1_y": {"Points": [{"interpolation": 2, "co": {"X": 1.0, "Y": -1.0}}]}, "layer": 1, "reader": {"width": 6803, "acodec": "", "has_audio": false, "pixel_ratio": {"den": 1, "num": 1}, "has_video": true, "sample_rate": 0, "channels": 0, "file_size": "104140324", "top_field_first": true, "video_bit_rate": 0, "duration": 86400.0, "fps": {"den": 1, "num": 30}, "type": "QtImageReader", "channel_layout": 4, "audio_timebase": {"den": 1, "num": 1}, "path": "/home/milind/Data/Projects/ProgressCard/Images/04-Title -Open Writer.svg", "audio_stream_index": -1, "video_timebase": {"den": 30, "num": 1}, "has_single_image": true, "height": 3827, "interlaced_frame": false, "audio_bit_rate": 0, "video_stream_index": -1, "pixel_format": -1, "video_length": "2592000", "display_ratio": {"den": 3827, "num": 6803}, "vcodec": ""}, "perspective_c3_y": {"Points": [{"interpolation": 2, "co": {"X": 1.0, "Y": -1.0}}]}, "effects": [], "title": "04-Title -Open Writer.svg", "start": 0, "position": 19.723333333333333, "has_video": {"Points": [{"interpolation": 2, "co": {"X": 1.0, "Y": -1.0}}]}, "time": {"Points": [{"interpolation": 2, "co": {"X": 1.0, "Y": 1.0}}]}, "crop_y": {"Points": [{"interpolation": 2, "co": {"X": 1.0, "Y": 0.0}}]}, "location_y": {"Points": [{"interpolation": 2, "co": {"X": 1.0, "Y": 0.0}}]}, "crop_width": {"Points": [{"interpolation": 2, "co": {"X": 1.0, "Y": -1.0}}]}, "scale_y": {"Points": [{"interpolation": 2, "co": {"X": 1.0, "Y": 1.0}}]}, "volume": {"Points": [{"interpolation": 2, "co": {"X": 1.0, "Y": 1.0}}]}, "perspective_c4_y": {"Points": [{"interpolation": 2, "co": {"X": 1.0, "Y": -1.0}}]}, "display": 0, "location_x": {"Points": [{"interpolation": 2, "co": {"X": 1.0, "Y": 0.0}}]}, "crop_height": {"Points": [{"interpolation": 2, "co": {"X": 1.0, "Y": -1.0}}]}, "crop_x": {"Points": [{"interpolation": 2, "co": {"X": 1.0, "Y": 0.0}}]}, "shear_x": {"Points": [{"interpolation": 2, "co": {"X": 1.0, "Y": 0.0}}]}, "perspective_c4_x": {"Points": [{"interpolation": 2, "co": {"X": 1.0, "Y": -1.0}}]}, "waveform": false, "scale_x": {"Points": [{"interpolation": 2, "co": {"X": 1.0, "Y": 1.0}}]}, "id": "HQAVSFANQA", "file_id": "LCX92BC34E", "rotation": {"Points": [{"interpolation": 2, "co": {"X": 1.0, "Y": 0.0}}]}, "duration": 86400.0, "perspective_c3_x": {"Points": [{"interpolation": 2, "co": {"X": 1.0, "Y": -1.0}}]}, "image": "/home/milind/.openshot_qt/thumbnail/LCX92BC34E.png", "alpha": {"Points": [{"interpolation": 2, "co": {"X": 1.0, "Y": 1.0}}]}, "perspective_c1_x": {"Points": [{"interpolation": 2, "co": {"X": 1.0, "Y": -1.0}}]}, "gravity": 4, "shear_y": {"Points": [{"interpolation": 2, "co": {"X": 1.0, "Y": 0.0}}]}, "channel_mapping": {"Points": [{"interpolation": 2, "co": {"X": 1.0, "Y": -1.0}}]}, "scale": 1, "wave_color": {"green": {"Points": [{"handle_type": 0, "interpolation": 0, "handle_left": {"X": 0.5, "Y": 1.0}, "co": {"X": 1.0, "Y": 123.0}, "handle_right": {"X": 0.5, "Y": 0.0}}]}, "alpha": {"Points": [{"handle_type": 0, "interpolation": 0, "handle_left": {"X": 0.5, "Y": 1.0}, "co": {"X": 1.0, "Y": 255.0}, "handle_right": {"X": 0.5, "Y": 0.0}}]}, "red": {"Points": [{"handle_type": 0, "interpolation": 0, "handle_left": {"X": 0.5, "Y": 1.0}, "co": {"X": 1.0, "Y": 0.0}, "handle_right": {"X": 0.5, "Y": 0.0}}]}, "blue": {"Points": [{"handle_type": 0, "interpolation": 0, "handle_left": {"X": 0.5, "Y": 1.0}, "co": {"X": 1.0, "Y": 255.0}, "handle_right": {"X": 0.5, "Y": 0.0}}]}}, "perspective_c2_y": {"Points": [{"interpolation": 2, "co": {"X": 1.0, "Y": -1.0}}]}, "end": 10}}, {"partial": false, "key": ["files"], "type": "insert", "value": {"width": 6803, "acodec": "", "has_audio": false, "pixel_ratio": {"den": 1, "num": 1}, "has_video": true, "vcodec": "", "channels": 0, "file_size": "104140324", "top_field_first": true, "video_bit_rate": 0, "duration": 86400.0, "type": "QtImageReader", "channel_layout": 4, "audio_timebase": {"den": 1, "num": 1}, "path": "/home/milind/Data/Projects/ProgressCard/Images/04-Slide-Create Card Template.svg", "audio_stream_index": -1, "id": "C0VL89HM2N", "video_timebase": {"den": 30, "num": 1}, "has_single_image": true, "height": 3827, "interlaced_frame": false, "audio_bit_rate": 0, "media_type": "image", "pixel_format": -1, "video_stream_index": -1, "sample_rate": 0, "video_length": "2592000", "display_ratio": {"den": 3827, "num": 6803}, "fps": {"den": 1, "num": 30}}, "old_values": [{"width": 6803, "media_type": "image", "has_audio": false, "pixel_ratio": {"den": 1, "num": 1}, "acodec": "", "channels": 0, "file_size": "104140324", "top_field_first": true, "video_bit_rate": 0, "fps": {"den": 1, "num": 30}, "type": "QtImageReader", "channel_layout": 4, "audio_timebase": {"den": 1, "num": 1}, "path": "/home/milind/Data/Projects/ProgressCard/Images/02-Title Progress Cards.svg", "audio_stream_index": -1, "duration": 86400.0, "video_timebase": {"den": 30, "num": 1}, "has_single_image": true, "height": 3827, "has_video": true, "interlaced_frame": false, "audio_bit_rate": 0, "id": "5OEZCIVW6D", "pixel_format": -1, "video_stream_index": -1, "sample_rate": 0, "video_length": "2592000", "display_ratio": {"den": 3827, "num": 6803}, "vcodec": ""}, {"width": 1920, "media_type": "image", "has_audio": false, "pixel_ratio": {"den": 1, "num": 1}, "acodec": "", "channels": 0, "file_size": "8294400", "top_field_first": true, "video_bit_rate": 0, "fps": {"den": 1, "num": 30}, "type": "QtImageReader", "channel_layout": 4, "audio_timebase": {"den": 1, "num": 1}, "path": "/home/milind/Data/Projects/ProgressCard/Images/01-White-Background.svg", "audio_stream_index": -1, "duration": 86400.0, "video_timebase": {"den": 30, "num": 1}, "has_single_image": true, "height": 1080, "has_video": true, "interlaced_frame": false, "audio_bit_rate": 0, "id": "TDIZ1HFAHG", "pixel_format": -1, "video_stream_index": -1, "sample_rate": 0, "video_length": "2592000", "display_ratio": {"den": 9, "num": 16}, "vcodec": ""}, {"width": 600, "media_type": "image", "has_audio": false, "pixel_ratio": {"den": 1, "num": 1}, "acodec": "", "channels": 0, "file_size": "427200", "top_field_first": true, "video_bit_rate": 0, "fps": {"den": 1, "num": 30}, "type": "QtImageReader", "channel_layout": 4, "audio_timebase": {"den": 1, "num": 1}, "path": "/home/milind/Data/Projects/ProgressCard/Images/04-LibreOffice_external_logo.svg", "audio_stream_index": -1, "duration": 86400.0, "video_timebase": {"den": 30, "num": 1}, "has_single_image": true, "height": 178, "has_video": true, "interlaced_frame": false, "audio_bit_rate": 0, "id": "9LYJA9LENR", "pixel_format": -1, "video_stream_index": -1, "sample_rate": 0, "video_length": "2592000", "display_ratio": {"den": 89, "num": 300}, "vcodec": ""}, {"width": 1366, "media_type": "video", "has_audio": false, "pixel_ratio": {"den": 1, "num": 1}, "acodec": "", "channels": 0, "file_size": "394038", "top_field_first": true, "video_bit_rate": 0, "fps": {"den": 1, "num": 25}, "type": "FFmpegReader", "channel_layout": 4, "audio_timebase": {"den": 1, "num": 1}, "path": "/home/milind/Data/Projects/ProgressCard/Clips/06-Create Progress Card Template.mkv", "audio_stream_index": -1, "duration": 44.0, "video_timebase": {"den": 1000, "num": 1}, "has_single_image": false, "height": 768, "has_video": true, "interlaced_frame": false, "audio_bit_rate": 0, "id": "3316O7MJ5Y", "pixel_format": 0, "video_stream_index": 0, "sample_rate": 0, "video_length": "1100", "display_ratio": {"den": 384, "num": 683}, "vcodec": "h264"}, {"width": 6803, "media_type": "image", "has_audio": false, "pixel_ratio": {"den": 1, "num": 1}, "acodec": "", "channels": 0, "file_size": "104140324", "top_field_first": true, "video_bit_rate": 0, "fps": {"den": 1, "num": 30}, "type": "QtImageReader", "channel_layout": 4, "audio_timebase": {"den": 1, "num": 1}, "path": "/home/milind/Data/Projects/ProgressCard/Images/03-Title-In.svg", "audio_stream_index": -1, "duration": 86400.0, "video_timebase": {"den": 30, "num": 1}, "has_single_image": true, "height": 3827, "has_video": true, "interlaced_frame": false, "audio_bit_rate": 0, "id": "V0JTT8RBI4", "pixel_format": -1, "video_stream_index": -1, "sample_rate": 0, "video_length": "2592000", "display_ratio": {"den": 3827, "num": 6803}, "vcodec": ""}]}, {"partial": false, "key": ["files"], "type": "insert", "value": {"width": 6803, "acodec": "", "has_audio": false, "pixel_ratio": {"den": 1, "num": 1}, "has_video": true, "vcodec": "", "channels": 0, "file_size": "104140324", "top_field_first": true, "video_bit_rate": 0, "duration": 86400.0, "type": "QtImageReader", "channel_layout": 4, "audio_timebase": {"den": 1, "num": 1}, "path": "/home/milind/Data/Projects/ProgressCard/Images/05-Title -Open Writer.svg", "audio_stream_index": -1, "id": "UXYIII238I", "video_timebase": {"den": 30, "num": 1}, "has_single_image": true, "height": 3827, "interlaced_frame": false, "audio_bit_rate": 0, "media_type": "image", "pixel_format": -1, "video_stream_index": -1, "sample_rate": 0, "video_length": "2592000", "display_ratio": {"den": 3827, "num": 6803}, "fps": {"den": 1, "num": 30}}, "old_values": [{"width": 6803, "media_type": "image", "has_audio": false, "pixel_ratio": {"den": 1, "num": 1}, "acodec": "", "channels": 0, "file_size": "104140324", "top_field_first": true, "video_bit_rate": 0, "fps": {"den": 1, "num": 30}, "type": "QtImageReader", "channel_layout": 4, "audio_timebase": {"den": 1, "num": 1}, "path": "/home/milind/Data/Projects/ProgressCard/Images/02-Title Progress Cards.svg", "audio_stream_index": -1, "duration": 86400.0, "video_timebase": {"den": 30, "num": 1}, "has_single_image": true, "height": 3827, "has_video": true, "interlaced_frame": false, "audio_bit_rate": 0, "id": "5OEZCIVW6D", "pixel_format": -1, "video_stream_index": -1, "sample_rate": 0, "video_length": "2592000", "display_ratio": {"den": 3827, "num": 6803}, "vcodec": ""}, {"width": 1920, "media_type": "image", "has_audio": false, "pixel_ratio": {"den": 1, "num": 1}, "acodec": "", "channels": 0, "file_size": "8294400", "top_field_first": true, "video_bit_rate": 0, "fps": {"den": 1, "num": 30}, "type": "QtImageReader", "channel_layout": 4, "audio_timebase": {"den": 1, "num": 1}, "path": "/home/milind/Data/Projects/ProgressCard/Images/01-White-Background.svg", "audio_stream_index": -1, "duration": 86400.0, "video_timebase": {"den": 30, "num": 1}, "has_single_image": true, "height": 1080, "has_video": true, "interlaced_frame": false, "audio_bit_rate": 0, "id": "TDIZ1HFAHG", "pixel_format": -1, "video_stream_index": -1, "sample_rate": 0, "video_length": "2592000", "display_ratio": {"den": 9, "num": 16}, "vcodec": ""}, {"width": 600, "media_type": "image", "has_audio": false, "pixel_ratio": {"den": 1, "num": 1}, "acodec": "", "channels": 0, "file_size": "427200", "top_field_first": true, "video_bit_rate": 0, "fps": {"den": 1, "num": 30}, "type": "QtImageReader", "channel_layout": 4, "audio_timebase": {"den": 1, "num": 1}, "path": "/home/milind/Data/Projects/ProgressCard/Images/04-LibreOffice_external_logo.svg", "audio_stream_index": -1, "duration": 86400.0, "video_timebase": {"den": 30, "num": 1}, "has_single_image": true, "height": 178, "has_video": true, "interlaced_frame": false, "audio_bit_rate": 0, "id": "9LYJA9LENR", "pixel_format": -1, "video_stream_index": -1, "sample_rate": 0, "video_length": "2592000", "display_ratio": {"den": 89, "num": 300}, "vcodec": ""}, {"width": 1366, "media_type": "video", "has_audio": false, "pixel_ratio": {"den": 1, "num": 1}, "acodec": "", "channels": 0, "file_size": "394038", "top_field_first": true, "video_bit_rate": 0, "fps": {"den": 1, "num": 25}, "type": "FFmpegReader", "channel_layout": 4, "audio_timebase": {"den": 1, "num": 1}, "path": "/home/milind/Data/Projects/ProgressCard/Clips/06-Create Progress Card Template.mkv", "audio_stream_index": -1, "duration": 44.0, "video_timebase": {"den": 1000, "num": 1}, "has_single_image": false, "height": 768, "has_video": true, "interlaced_frame": false, "audio_bit_rate": 0, "id": "3316O7MJ5Y", "pixel_format": 0, "video_stream_index": 0, "sample_rate": 0, "video_length": "1100", "display_ratio": {"den": 384, "num": 683}, "vcodec": "h264"}, {"width": 6803, "media_type": "image", "has_audio": false, "pixel_ratio": {"den": 1, "num": 1}, "acodec": "", "channels": 0, "file_size": "104140324", "top_field_first": true, "video_bit_rate": 0, "fps": {"den": 1, "num": 30}, "type": "QtImageReader", "channel_layout": 4, "audio_timebase": {"den": 1, "num": 1}, "path": "/home/milind/Data/Projects/ProgressCard/Images/03-Title-In.svg", "audio_stream_index": -1, "duration": 86400.0, "video_timebase": {"den": 30, "num": 1}, "has_single_image": true, "height": 3827, "has_video": true, "interlaced_frame": false, "audio_bit_rate": 0, "id": "V0JTT8RBI4", "pixel_format": -1, "video_stream_index": -1, "sample_rate": 0, "video_length": "2592000", "display_ratio": {"den": 3827, "num": 6803}, "vcodec": ""}, {"width": 6803, "acodec": "", "has_audio": false, "pixel_ratio": {"den": 1, "num": 1}, "has_video": true, "sample_rate": 0, "channels": 0, "file_size": "104140324", "top_field_first": true, "video_bit_rate": 0, "duration": 86400.0, "fps": {"den": 1, "num": 30}, "type": "QtImageReader", "channel_layout": 4, "audio_timebase": {"den": 1, "num": 1}, "path": "/home/milind/Data/Projects/ProgressCard/Images/04-Slide-Create Card Template.svg", "audio_stream_index": -1, "video_timebase": {"den": 30, "num": 1}, "has_single_image": true, "height": 3827, "interlaced_frame": false, "audio_bit_rate": 0, "media_type": "image", "id": "C0VL89HM2N", "video_stream_index": -1, "pixel_format": -1, "video_length": "2592000", "display_ratio": {"den": 3827, "num": 6803}, "vcodec": ""}]}, {"partial": false, "key": ["clips"], "type": "insert", "value": {"anchor": 0, "has_audio": {"Points": [{"interpolation": 2, "co": {"X": 1.0, "Y": -1.0}}]}, "channel_filter": {"Points": [{"interpolation": 2, "co": {"X": 1.0, "Y": -1.0}}]}, "image": "/home/milind/.openshot_qt/thumbnail/C0VL89HM2N.png", "perspective_c1_y": {"Points": [{"interpolation": 2, "co": {"X": 1.0, "Y": -1.0}}]}, "layer": 1, "shear_x": {"Points": [{"interpolation": 2, "co": {"X": 1.0, "Y": 0.0}}]}, "reader": {"width": 6803, "acodec": "", "has_audio": false, "pixel_ratio": {"den": 1, "num": 1}, "has_video": true, "vcodec": "", "channels": 0, "file_size": "104140324", "top_field_first": true, "video_bit_rate": 0, "duration": 86400.0, "type": "QtImageReader", "channel_layout": 4, "audio_timebase": {"den": 1, "num": 1}, "path": "/home/milind/Data/Projects/ProgressCard/Images/04-Slide-Create Card Template.svg", "audio_stream_index": -1, "video_timebase": {"den": 30, "num": 1}, "has_single_image": true, "height": 3827, "interlaced_frame": false, "audio_bit_rate": 0, "pixel_format": -1, "video_stream_index": -1, "sample_rate": 0, "video_length": "2592000", "display_ratio": {"den": 3827, "num": 6803}, "fps": {"den": 1, "num": 30}}, "perspective_c3_y": {"Points": [{"interpolation": 2, "co": {"X": 1.0, "Y": -1.0}}]}, "perspective_c4_x": {"Points": [{"interpolation": 2, "co": {"X": 1.0, "Y": -1.0}}]}, "perspective_c1_x": {"Points": [{"interpolation": 2, "co": {"X": 1.0, "Y": -1.0}}]}, "start": 0, "has_video": {"Points": [{"interpolation": 2, "co": {"X": 1.0, "Y": -1.0}}]}, "time": {"Points": [{"interpolation": 2, "co": {"X": 1.0, "Y": 1.0}}]}, "crop_y": {"Points": [{"interpolation": 2, "co": {"X": 1.0, "Y": 0.0}}]}, "gravity": 4, "scale_x": {"Points": [{"interpolation": 2, "co": {"X": 1.0, "Y": 1.0}}]}, "scale_y": {"Points": [{"interpolation": 2, "co": {"X": 1.0, "Y": 1.0}}]}, "volume": {"Points": [{"interpolation": 2, "co": {"X": 1.0, "Y": 1.0}}]}, "perspective_c4_y": {"Points": [{"interpolation": 2, "co": {"X": 1.0, "Y": -1.0}}]}, "display": 0, "id": "OQVFZFG317", "end": 10, "crop_x": {"Points": [{"interpolation": 2, "co": {"X": 1.0, "Y": 0.0}}]}, "perspective_c2_y": {"Points": [{"interpolation": 2, "co": {"X": 1.0, "Y": -1.0}}]}, "effects": [], "waveform": false, "crop_width": {"Points": [{"interpolation": 2, "co": {"X": 1.0, "Y": -1.0}}]}, "position": 19.723333333333333, "file_id": "C0VL89HM2N", "title": "04-Slide-Create Card Template.svg", "channel_mapping": {"Points": [{"interpolation": 2, "co": {"X": 1.0, "Y": -1.0}}]}, "perspective_c3_x": {"Points": [{"interpolation": 2, "co": {"X": 1.0, "Y": -1.0}}]}, "rotation": {"Points": [{"interpolation": 2, "co": {"X": 1.0, "Y": 0.0}}]}, "alpha": {"Points": [{"interpolation": 2, "co": {"X": 1.0, "Y": 1.0}}, {"handle_type": 0, "interpolation": 0, "handle_left": {"X": 0.5, "Y": 1.0}, "co": {"X": 1.0, "Y": 0.0}, "handle_right": {"X": 0.5, "Y": 0.0}}, {"handle_type": 0, "interpolation": 0, "handle_left": {"X": 0.5, "Y": 1.0}, "co": {"X": 73.0, "Y": 1.0}, "handle_right": {"X": 0.5, "Y": 0.0}}, {"handle_type": 0, "interpolation": 0, "handle_left": {"X": 0.5, "Y": 1.0}, "co": {"X": 169.0, "Y": 1.0}, "handle_right": {"X": 0.5, "Y": 0.0}}, {"handle_type": 0, "interpolation": 0, "handle_left": {"X": 0.5, "Y": 1.0}, "co": {"X": 241.0, "Y": 0.0}, "handle_right": {"X": 0.5, "Y": 0.0}}]}, "location_x": {"Points": [{"interpolation": 2, "co": {"X": 1.0, "Y": 0.0}}]}, "location_y": {"Points": [{"interpolation": 2, "co": {"X": 1.0, "Y": 0.0}}]}, "shear_y": {"Points": [{"interpolation": 2, "co": {"X": 1.0, "Y": 0.0}}]}, "crop_height": {"Points": [{"interpolation": 2, "co": {"X": 1.0, "Y": -1.0}}]}, "scale": 1, "wave_color": {"green": {"Points": [{"handle_type": 0, "interpolation": 0, "handle_left": {"X": 0.5, "Y": 1.0}, "co": {"X": 1.0, "Y": 123.0}, "handle_right": {"X": 0.5, "Y": 0.0}}]}, "blue": {"Points": [{"handle_type": 0, "interpolation": 0, "handle_left": {"X": 0.5, "Y": 1.0}, "co": {"X": 1.0, "Y": 255.0}, "handle_right": {"X": 0.5, "Y": 0.0}}]}, "red": {"Points": [{"handle_type": 0, "interpolation": 0, "handle_left": {"X": 0.5, "Y": 1.0}, "co": {"X": 1.0, "Y": 0.0}, "handle_right": {"X": 0.5, "Y": 0.0}}]}, "alpha": {"Points": [{"handle_type": 0, "interpolation": 0, "handle_left": {"X": 0.5, "Y": 1.0}, "co": {"X": 1.0, "Y": 255.0}, "handle_right": {"X": 0.5, "Y": 0.0}}]}}, "perspective_c2_x": {"Points": [{"interpolation": 2, "co": {"X": 1.0, "Y": -1.0}}]}, "duration": 86400.0}, "old_values": [{"anchor": 0, "reader": {"width": 1920, "acodec": "", "has_audio": false, "pixel_ratio": {"den": 1, "num": 1}, "has_video": true, "channels": 0, "file_size": "8294400", "top_field_first": true, "video_bit_rate": 0, "fps": {"den": 1, "num": 30}, "type": "QtImageReader", "channel_layout": 4, "audio_timebase": {"den": 1, "num": 1}, "path": "/home/milind/Data/Projects/ProgressCard/Images/01-White-Background.svg", "audio_stream_index": -1, "duration": 86400.0, "video_timebase": {"den": 30, "num": 1}, "has_single_image": true, "height": 1080, "interlaced_frame": false, "audio_bit_rate": 0, "pixel_format": -1, "video_stream_index": -1, "sample_rate": 0, "video_length": "2592000", "display_ratio": {"den": 9, "num": 16}, "vcodec": ""}, "channel_filter": {"Points": [{"interpolation": 2, "co": {"X": 1.0, "Y": -1.0}}]}, "perspective_c1_y": {"Points": [{"interpolation": 2, "co": {"X": 1.0, "Y": -1.0}}]}, "perspective_c2_y": {"Points": [{"interpolation": 2, "co": {"X": 1.0, "Y": -1.0}}]}, "layer": 0, "shear_x": {"Points": [{"interpolation": 2, "co": {"X": 1.0, "Y": 0.0}}]}, "has_audio": {"Points": [{"interpolation": 2, "co": {"X": 1.0, "Y": -1.0}}]}, "perspective_c3_y": {"Points": [{"interpolation": 2, "co": {"X": 1.0, "Y": -1.0}}]}, "effects": [], "title": "01-White-Background.svg", "start": 0, "position": 0, "end": 70.16, "crop_y": {"Points": [{"interpolation": 2, "co": {"X": 1.0, "Y": 0.0}}]}, "gravity": 4, "crop_width": {"Points": [{"interpolation": 2, "co": {"X": 1.0, "Y": -1.0}}]}, "duration": 86400.0, "scale_y": {"Points": [{"interpolation": 2, "co": {"X": 1.0, "Y": 1.0}}]}, "volume": {"Points": [{"interpolation": 2, "co": {"X": 1.0, "Y": 1.0}}]}, "perspective_c4_y": {"Points": [{"interpolation": 2, "co": {"X": 1.0, "Y": -1.0}}]}, "display": 0, "location_x": {"Points": [{"interpolation": 2, "co": {"X": 1.0, "Y": 0.0}}]}, "crop_x": {"Points": [{"interpolation": 2, "co": {"X": 1.0, "Y": 0.0}}]}, "has_video": {"Points": [{"interpolation": 2, "co": {"X": 1.0, "Y": -1.0}}]}, "perspective_c4_x": {"Points": [{"interpolation": 2, "co": {"X": 1.0, "Y": -1.0}}]}, "waveform": false, "scale_x": {"Points": [{"interpolation": 2, "co": {"X": 1.0, "Y": 1.0}}]}, "id": "QI9WV3T42Q", "file_id": "TDIZ1HFAHG", "rotation": {"Points": [{"interpolation": 2, "co": {"X": 1.0, "Y": 0.0}}]}, "time": {"Points": [{"interpolation": 2, "co": {"X": 1.0, "Y": 1.0}}]}, "perspective_c3_x": {"Points": [{"interpolation": 2, "co": {"X": 1.0, "Y": -1.0}}]}, "image": "/home/milind/.openshot_qt/thumbnail/TDIZ1HFAHG.png", "alpha": {"Points": [{"interpolation": 2, "co": {"X": 1.0, "Y": 1.0}}]}, "perspective_c1_x": {"Points": [{"interpolation": 2, "co": {"X": 1.0, "Y": -1.0}}]}, "location_y": {"Points": [{"interpolation": 2, "co": {"X": 1.0, "Y": 0.0}}]}, "shear_y": {"Points": [{"interpolation": 2, "co": {"X": 1.0, "Y": 0.0}}]}, "crop_height": {"Points": [{"interpolation": 2, "co": {"X": 1.0, "Y": -1.0}}]}, "scale": 1, "wave_color": {"green": {"Points": [{"handle_type": 0, "interpolation": 0, "handle_left": {"X": 0.5, "Y": 1.0}, "handle_right": {"X": 0.5, "Y": 0.0}, "co": {"X": 1.0, "Y": 123.0}}]}, "blue": {"Points": [{"handle_type": 0, "interpolation": 0, "handle_left": {"X": 0.5, "Y": 1.0}, "handle_right": {"X": 0.5, "Y": 0.0}, "co": {"X": 1.0, "Y": 255.0}}]}, "red": {"Points": [{"handle_type": 0, "interpolation": 0, "handle_left": {"X": 0.5, "Y": 1.0}, "handle_right": {"X": 0.5, "Y": 0.0}, "co": {"X": 1.0, "Y": 0.0}}]}, "alpha": {"Points": [{"handle_type": 0, "interpolation": 0, "handle_left": {"X": 0.5, "Y": 1.0}, "handle_right": {"X": 0.5, "Y": 0.0}, "co": {"X": 1.0, "Y": 255.0}}]}}, "perspective_c2_x": {"Points": [{"interpolation": 2, "co": {"X": 1.0, "Y": -1.0}}]}, "channel_mapping": {"Points": [{"interpolation": 2, "co": {"X": 1.0, "Y": -1.0}}]}}, {"anchor": 0, "reader": {"width": 6803, "acodec": "", "has_audio": false, "pixel_ratio": {"den": 1, "num": 1}, "has_video": true, "channels": 0, "file_size": "104140324", "top_field_first": true, "video_bit_rate": 0, "fps": {"den": 1, "num": 30}, "type": "QtImageReader", "channel_layout": 4, "audio_timebase": {"den": 1, "num": 1}, "path": "/home/milind/Data/Projects/ProgressCard/Images/02-Title Progress Cards.svg", "audio_stream_index": -1, "duration": 86400.0, "video_timebase": {"den": 30, "num": 1}, "has_single_image": true, "height": 3827, "interlaced_frame": false, "audio_bit_rate": 0, "pixel_format": -1, "video_stream_index": -1, "sample_rate": 0, "video_length": "2592000", "display_ratio": {"den": 3827, "num": 6803}, "vcodec": ""}, "channel_filter": {"Points": [{"interpolation": 2, "co": {"X": 1.0, "Y": -1.0}}]}, "perspective_c1_y": {"Points": [{"interpolation": 2, "co": {"X": 1.0, "Y": -1.0}}]}, "perspective_c2_y": {"Points": [{"interpolation": 2, "co": {"X": 1.0, "Y": -1.0}}]}, "layer": 1, "shear_x": {"Points": [{"interpolation": 2, "co": {"X": 1.0, "Y": 0.0}}]}, "has_audio": {"Points": [{"interpolation": 2, "co": {"X": 1.0, "Y": -1.0}}]}, "perspective_c3_y": {"Points": [{"interpolation": 2, "co": {"X": 1.0, "Y": -1.0}}]}, "effects": [], "title": "02-Title Progress Cards.svg", "start": 0, "position": 0, "duration": 86400.0, "crop_y": {"Points": [{"interpolation": 2, "co": {"X": 1.0, "Y": 0.0}}]}, "location_y": {"Points": [{"handle_type": 0, "interpolation": 0, "handle_left": {"X": 0.5, "Y": 1.0}, "handle_right": {"X": 0.5, "Y": 0.0}, "co": {"X": 1.0, "Y": 0.0}}]}, "perspective_c3_x": {"Points": [{"interpolation": 2, "co": {"X": 1.0, "Y": -1.0}}]}, "crop_width": {"Points": [{"interpolation": 2, "co": {"X": 1.0, "Y": -1.0}}]}, "scale_y": {"Points": [{"handle_type": 0, "interpolation": 0, "handle_left": {"X": 0.5, "Y": 1.0}, "handle_right": {"X": 0.5, "Y": 0.0}, "co": {"X": 1.0, "Y": 20.0}}, {"interpolation": 1, "co": {"X": 71, "Y": 1.0}}]}, "volume": {"Points": [{"interpolation": 2, "co": {"X": 1.0, "Y": 1.0}}]}, "perspective_c4_y": {"Points": [{"interpolation": 2, "co": {"X": 1.0, "Y": -1.0}}]}, "display": 0, "location_x": {"Points": [{"handle_type": 0, "interpolation": 0, "handle_left": {"X": 0.5, "Y": 1.0}, "handle_right": {"X": 0.5, "Y": 0.0}, "co": {"X": 1.0, "Y": 0.0}}]}, "end": 7.583333333333333, "crop_x": {"Points": [{"interpolation": 2, "co": {"X": 1.0, "Y": 0.0}}]}, "has_video": {"Points": [{"interpolation": 2, "co": {"X": 1.0, "Y": -1.0}}]}, "perspective_c4_x": {"Points": [{"interpolation": 2, "co": {"X": 1.0, "Y": -1.0}}]}, "waveform": false, "scale_x": {"Points": [{"handle_type": 0, "interpolation": 0, "handle_left": {"X": 0.5, "Y": 1.0}, "handle_right": {"X": 0.5, "Y": 0.0}, "co": {"X": 1.0, "Y": 20.0}}, {"interpolation": 1, "co": {"X": 71, "Y": 1.0}}]}, "id": "GIMJDSPZQK", "file_id": "5OEZCIVW6D", "time": {"Points": [{"interpolation": 2, "co": {"X": 1.0, "Y": 1.0}}]}, "rotation": {"Points": [{"interpolation": 2, "co": {"X": 1.0, "Y": 0.0}}]}, "image": "/home/milind/.openshot_qt/thumbnail/5OEZCIVW6D.png", "alpha": {"Points": [{"handle_type": 0, "interpolation": 0, "handle_left": {"X": 0.5, "Y": 1.0}, "handle_right": {"X": 0.5, "Y": 0.0}, "co": {"X": 1.0, "Y": 1.0}}, {"handle_type": 0, "interpolation": 0, "handle_left": {"X": 0.5, "Y": 1.0}, "handle_right": {"X": 0.5, "Y": 0.0}, "co": {"X": 1.0, "Y": 0.0}}, {"handle_type": 0, "interpolation": 0, "handle_left": {"X": 0.5, "Y": 1.0}, "handle_right": {"X": 0.5, "Y": 0.0}, "co": {"X": 73.0, "Y": 1.0}}, {"handle_type": 0, "interpolation": 0, "handle_left": {"X": 0.5, "Y": 1.0}, "handle_right": {"X": 0.5, "Y": 0.0}, "co": {"X": 111.0, "Y": 1.0}}, {"handle_type": 0, "interpolation": 0, "handle_left": {"X": 0.5, "Y": 1.0}, "handle_right": {"X": 0.5, "Y": 0.0}, "co": {"X": 183.0, "Y": 0.0}}]}, "perspective_c1_x": {"Points": [{"interpolation": 2, "co": {"X": 1.0, "Y": -1.0}}]}, "gravity": 4, "shear_y": {"Points": [{"interpolation": 2, "co": {"X": 1.0, "Y": 0.0}}]}, "crop_height": {"Points": [{"interpolation": 2, "co": {"X": 1.0, "Y": -1.0}}]}, "scale": 1, "wave_color": {"green": {"Points": [{"handle_type": 0, "interpolation": 0, "handle_left": {"X": 0.5, "Y": 1.0}, "handle_right": {"X": 0.5, "Y": 0.0}, "co": {"X": 1.0, "Y": 123.0}}]}, "blue": {"Points": [{"handle_type": 0, "interpolation": 0, "handle_left": {"X": 0.5, "Y": 1.0}, "handle_right": {"X": 0.5, "Y": 0.0}, "co": {"X": 1.0, "Y": 255.0}}]}, "red": {"Points": [{"handle_type": 0, "interpolation": 0, "handle_left": {"X": 0.5, "Y": 1.0}, "handle_right": {"X": 0.5, "Y": 0.0}, "co": {"X": 1.0, "Y": 0.0}}]}, "alpha": {"Points": [{"handle_type": 0, "interpolation": 0, "handle_left": {"X": 0.5, "Y": 1.0}, "handle_right": {"X": 0.5, "Y": 0.0}, "co": {"X": 1.0, "Y": 255.0}}]}}, "perspective_c2_x": {"Points": [{"interpolation": 2, "co": {"X": 1.0, "Y": -1.0}}]}, "channel_mapping": {"Points": [{"interpolation": 2, "co": {"X": 1.0, "Y": -1.0}}]}}, {"anchor": 0, "reader": {"width": 600, "acodec": "", "has_audio": false, "pixel_ratio": {"den": 1, "num": 1}, "has_video": true, "channels": 0, "file_size": "427200", "top_field_first": true, "video_bit_rate": 0, "fps": {"den": 1, "num": 30}, "type": "QtImageReader", "channel_layout": 4, "audio_timebase": {"den": 1, "num": 1}, "path": "/home/milind/Data/Projects/ProgressCard/Images/04-LibreOffice_external_logo.svg", "audio_stream_index": -1, "duration": 86400.0, "video_timebase": {"den": 30, "num": 1}, "has_single_image": true, "height": 178, "interlaced_frame": false, "audio_bit_rate": 0, "pixel_format": -1, "video_stream_index": -1, "sample_rate": 0, "video_length": "2592000", "display_ratio": {"den": 89, "num": 300}, "vcodec": ""}, "channel_filter": {"Points": [{"interpolation": 2, "co": {"X": 1.0, "Y": -1.0}}]}, "perspective_c1_y": {"Points": [{"interpolation": 2, "co": {"X": 1.0, "Y": -1.0}}]}, "perspective_c2_y": {"Points": [{"interpolation": 2, "co": {"X": 1.0, "Y": -1.0}}]}, "layer": 1, "shear_x": {"Points": [{"interpolation": 2, "co": {"X": 1.0, "Y": 0.0}}]}, "has_audio": {"Points": [{"interpolation": 2, "co": {"X": 1.0, "Y": -1.0}}]}, "perspective_c3_y": {"Points": [{"interpolation": 2, "co": {"X": 1.0, "Y": -1.0}}]}, "effects": [], "title": "04-LibreOffice_external_logo.svg", "start": 0, "position": 12.64, "duration": 86400.0, "crop_y": {"Points": [{"interpolation": 2, "co": {"X": 1.0, "Y": 0.0}}]}, "location_y": {"Points": [{"handle_type": 0, "interpolation": 0, "handle_left": {"X": 0.5, "Y": 1.0}, "handle_right": {"X": 0.5, "Y": 0.0}, "co": {"X": 1.0, "Y": 0.0}}]}, "perspective_c3_x": {"Points": [{"interpolation": 2, "co": {"X": 1.0, "Y": -1.0}}]}, "crop_width": {"Points": [{"interpolation": 2, "co": {"X": 1.0, "Y": -1.0}}]}, "scale_y": {"Points": [{"handle_type": 0, "interpolation": 0, "handle_left": {"X": 0.5, "Y": 1.0}, "handle_right": {"X": 0.5, "Y": 0.0}, "co": {"X": 1.0, "Y": 1.0}}]}, "volume": {"Points": [{"interpolation": 2, "co": {"X": 1.0, "Y": 1.0}}]}, "perspective_c4_y": {"Points": [{"interpolation": 2, "co": {"X": 1.0, "Y": -1.0}}]}, "display": 0, "location_x": {"Points": [{"handle_type": 0, "interpolation": 0, "handle_left": {"X": 0.5, "Y": 1.0}, "handle_right": {"X": 0.5, "Y": 0.0}, "co": {"X": 1.0, "Y": 0.0}}]}, "end": 7.083333333333332, "crop_x": {"Points": [{"interpolation": 2, "co": {"X": 1.0, "Y": 0.0}}]}, "has_video": {"Points": [{"interpolation": 2, "co": {"X": 1.0, "Y": -1.0}}]}, "perspective_c4_x": {"Points": [{"interpolation": 2, "co": {"X": 1.0, "Y": -1.0}}]}, "waveform": false, "scale_x": {"Points": [{"handle_type": 0, "interpolation": 0, "handle_left": {"X": 0.5, "Y": 1.0}, "handle_right": {"X": 0.5, "Y": 0.0}, "co": {"X": 1.0, "Y": 1.0}}]}, "id": "1MXPXZXR6K", "file_id": "9LYJA9LENR", "time": {"Points": [{"interpolation": 2, "co": {"X": 1.0, "Y": 1.0}}]}, "rotation": {"Points": [{"interpolation": 2, "co": {"X": 1.0, "Y": 0.0}}]}, "image": "/home/milind/.openshot_qt/thumbnail/9LYJA9LENR.png", "alpha": {"Points": [{"handle_type": 0, "interpolation": 0, "handle_left": {"X": 0.5, "Y": 1.0}, "handle_right": {"X": 0.5, "Y": 0.0}, "co": {"X": 1.0, "Y": 1.0}}, {"handle_type": 0, "interpolation": 0, "handle_left": {"X": 0.5, "Y": 1.0}, "handle_right": {"X": 0.5, "Y": 0.0}, "co": {"X": 1.0, "Y": 0.0}}, {"handle_type": 0, "interpolation": 0, "handle_left": {"X": 0.5, "Y": 1.0}, "handle_right": {"X": 0.5, "Y": 0.0}, "co": {"X": 73.0, "Y": 1.0}}, {"handle_type": 0, "interpolation": 0, "handle_left": {"X": 0.5, "Y": 1.0}, "handle_right": {"X": 0.5, "Y": 0.0}, "co": {"X": 99.0, "Y": 1.0}}, {"handle_type": 0, "interpolation": 0, "handle_left": {"X": 0.5, "Y": 1.0}, "handle_right": {"X": 0.5, "Y": 0.0}, "co": {"X": 171.0, "Y": 0.0}}]}, "perspective_c1_x": {"Points": [{"interpolation": 2, "co": {"X": 1.0, "Y": -1.0}}]}, "gravity": 4, "shear_y": {"Points": [{"interpolation": 2, "co": {"X": 1.0, "Y": 0.0}}]}, "crop_height": {"Points": [{"interpolation": 2, "co": {"X": 1.0, "Y": -1.0}}]}, "scale": 1, "wave_color": {"green": {"Points": [{"handle_type": 0, "interpolation": 0, "handle_left": {"X": 0.5, "Y": 1.0}, "handle_right": {"X": 0.5, "Y": 0.0}, "co": {"X": 1.0, "Y": 123.0}}]}, "blue": {"Points": [{"handle_type": 0, "interpolation": 0, "handle_left": {"X": 0.5, "Y": 1.0}, "handle_right": {"X": 0.5, "Y": 0.0}, "co": {"X": 1.0, "Y": 255.0}}]}, "red": {"Points": [{"handle_type": 0, "interpolation": 0, "handle_left": {"X": 0.5, "Y": 1.0}, "handle_right": {"X": 0.5, "Y": 0.0}, "co": {"X": 1.0, "Y": 0.0}}]}, "alpha": {"Points": [{"handle_type": 0, "interpolation": 0, "handle_left": {"X": 0.5, "Y": 1.0}, "handle_right": {"X": 0.5, "Y": 0.0}, "co": {"X": 1.0, "Y": 255.0}}]}}, "perspective_c2_x": {"Points": [{"interpolation": 2, "co": {"X": 1.0, "Y": -1.0}}]}, "channel_mapping": {"Points": [{"interpolation": 2, "co": {"X": 1.0, "Y": -1.0}}]}}, {"anchor": 0, "has_audio": {"Points": [{"interpolation": 2, "co": {"X": 1.0, "Y": -1.0}}]}, "channel_filter": {"Points": [{"interpolation": 2, "co": {"X": 1.0, "Y": -1.0}}]}, "perspective_c2_x": {"Points": [{"interpolation": 2, "co": {"X": 1.0, "Y": -1.0}}]}, "perspective_c1_y": {"Points": [{"interpolation": 2, "co": {"X": 1.0, "Y": -1.0}}]}, "layer": 1, "reader": {"width": 1366, "acodec": "", "has_audio": false, "pixel_ratio": {"den": 1, "num": 1}, "has_video": true, "channels": 0, "file_size": "394038", "top_field_first": true, "video_bit_rate": 0, "fps": {"den": 1, "num": 25}, "type": "FFmpegReader", "channel_layout": 4, "audio_timebase": {"den": 1, "num": 1}, "path": "/home/milind/Data/Projects/ProgressCard/Clips/06-Create Progress Card Template.mkv", "audio_stream_index": -1, "duration": 44.0, "video_timebase": {"den": 1000, "num": 1}, "has_single_image": false, "height": 768, "interlaced_frame": false, "audio_bit_rate": 0, "pixel_format": 0, "video_stream_index": 0, "sample_rate": 0, "video_length": "1100", "display_ratio": {"den": 384, "num": 683}, "vcodec": "h264"}, "perspective_c3_y": {"Points": [{"interpolation": 2, "co": {"X": 1.0, "Y": -1.0}}]}, "effects": [], "title": "06-Create Progress Card Template.mkv", "start": 5.361666666666668, "position": 39.52, "has_video": {"Points": [{"interpolation": 2, "co": {"X": 1.0, "Y": -1.0}}]}, "time": {"Points": [{"interpolation": 2, "co": {"X": 1.0, "Y": 1.0}}]}, "crop_y": {"Points": [{"interpolation": 2, "co": {"X": 1.0, "Y": 0.0}}]}, "location_y": {"Points": [{"interpolation": 2, "co": {"X": 1.0, "Y": 0.0}}, {"interpolation": 1, "co": {"X": 803, "Y": -0.3199999928474426}}, {"interpolation": 1, "co": {"X": 1057, "Y": 0.0}}]}, "crop_width": {"Points": [{"interpolation": 2, "co": {"X": 1.0, "Y": -1.0}}]}, "scale_y": {"Points": [{"interpolation": 2, "co": {"X": 1.0, "Y": 1.0}}, {"interpolation": 1, "co": {"X": 803, "Y": 1.649999976158142}}, {"interpolation": 1, "co": {"X": 1057, "Y": 1.0}}]}, "crop_height": {"Points": [{"interpolation": 2, "co": {"X": 1.0, "Y": -1.0}}]}, "perspective_c4_y": {"Points": [{"interpolation": 2, "co": {"X": 1.0, "Y": -1.0}}]}, "display": 0, "location_x": {"Points": [{"interpolation": 2, "co": {"X": 1.0, "Y": 0.0}}]}, "volume": {"Points": [{"interpolation": 2, "co": {"X": 1.0, "Y": 1.0}}]}, "crop_x": {"Points": [{"interpolation": 2, "co": {"X": 1.0, "Y": 0.0}}]}, "shear_x": {"Points": [{"interpolation": 2, "co": {"X": 1.0, "Y": 0.0}}]}, "perspective_c4_x": {"Points": [{"interpolation": 2, "co": {"X": 1.0, "Y": -1.0}}]}, "waveform": false, "scale_x": {"Points": [{"interpolation": 2, "co": {"X": 1.0, "Y": 1.0}}, {"interpolation": 1, "co": {"X": 803, "Y": 1.649999976158142}}, {"interpolation": 1, "co": {"X": 1057, "Y": 1.0}}]}, "id": "NCU6KKCVQ7", "file_id": "XQEQ903ILK", "rotation": {"Points": [{"interpolation": 2, "co": {"X": 1.0, "Y": 0.0}}]}, "duration": 44.0, "perspective_c3_x": {"Points": [{"interpolation": 2, "co": {"X": 1.0, "Y": -1.0}}]}, "image": "/home/milind/.openshot_qt/thumbnail/XQEQ903ILK.png", "alpha": {"Points": [{"handle_type": 0, "interpolation": 0, "handle_left": {"X": 0.5, "Y": 1.0}, "handle_right": {"X": 0.5, "Y": 0.0}, "co": {"X": 1.0, "Y": 1.0}}, {"handle_type": 0, "interpolation": 0, "handle_left": {"X": 0.5, "Y": 1.0}, "handle_right": {"X": 0.5, "Y": 0.0}, "co": {"X": 130.0, "Y": 0.0}}, {"handle_type": 0, "interpolation": 0, "handle_left": {"X": 0.5, "Y": 1.0}, "handle_right": {"X": 0.5, "Y": 0.0}, "co": {"X": 202.0, "Y": 1.0}}, {"handle_type": 0, "interpolation": 0, "handle_left": {"X": 0.5, "Y": 1.0}, "handle_right": {"X": 0.5, "Y": 0.0}, "co": {"X": 943.0, "Y": 1.0}}, {"handle_type": 0, "interpolation": 0, "handle_left": {"X": 0.5, "Y": 1.0}, "handle_right": {"X": 0.5, "Y": 0.0}, "co": {"X": 1015.0, "Y": 0.0}}]}, "perspective_c1_x": {"Points": [{"interpolation": 2, "co": {"X": 1.0, "Y": -1.0}}]}, "gravity": 4, "shear_y": {"Points": [{"interpolation": 2, "co": {"X": 1.0, "Y": 0.0}}]}, "channel_mapping": {"Points": [{"interpolation": 2, "co": {"X": 1.0, "Y": -1.0}}]}, "scale": 1, "wave_color": {"green": {"Points": [{"handle_type": 0, "interpolation": 0, "handle_left": {"X": 0.5, "Y": 1.0}, "handle_right": {"X": 0.5, "Y": 0.0}, "co": {"X": 1.0, "Y": 123.0}}]}, "blue": {"Points": [{"handle_type": 0, "interpolation": 0, "handle_left": {"X": 0.5, "Y": 1.0}, "handle_right": {"X": 0.5, "Y": 0.0}, "co": {"X": 1.0, "Y": 255.0}}]}, "red": {"Points": [{"handle_type": 0, "interpolation": 0, "handle_left": {"X": 0.5, "Y": 1.0}, "handle_right": {"X": 0.5, "Y": 0.0}, "co": {"X": 1.0, "Y": 0.0}}]}, "alpha": {"Points": [{"handle_type": 0, "interpolation": 0, "handle_left": {"X": 0.5, "Y": 1.0}, "handle_right": {"X": 0.5, "Y": 0.0}, "co": {"X": 1.0, "Y": 255.0}}]}}, "perspective_c2_y": {"Points": [{"interpolation": 2, "co": {"X": 1.0, "Y": -1.0}}]}, "end": 42.258333333333326}, {"anchor": 0, "reader": {"width": 6803, "acodec": "", "has_audio": false, "pixel_ratio": {"den": 1, "num": 1}, "has_video": true, "channels": 0, "file_size": "104140324", "top_field_first": true, "video_bit_rate": 0, "fps": {"den": 1, "num": 30}, "type": "QtImageReader", "channel_layout": 4, "audio_timebase": {"den": 1, "num": 1}, "path": "/home/milind/Data/Projects/ProgressCard/Images/03-Title-In.svg", "audio_stream_index": -1, "duration": 86400.0, "video_timebase": {"den": 30, "num": 1}, "has_single_image": true, "height": 3827, "interlaced_frame": false, "audio_bit_rate": 0, "pixel_format": -1, "video_stream_index": -1, "sample_rate": 0, "video_length": "2592000", "display_ratio": {"den": 3827, "num": 6803}, "vcodec": ""}, "channel_filter": {"Points": [{"interpolation": 2, "co": {"X": 1.0, "Y": -1.0}}]}, "perspective_c1_y": {"Points": [{"interpolation": 2, "co": {"X": 1.0, "Y": -1.0}}]}, "perspective_c2_y": {"Points": [{"interpolation": 2, "co": {"X": 1.0, "Y": -1.0}}]}, "layer": 1, "shear_x": {"Points": [{"interpolation": 2, "co": {"X": 1.0, "Y": 0.0}}]}, "has_audio": {"Points": [{"interpolation": 2, "co": {"X": 1.0, "Y": -1.0}}]}, "perspective_c3_y": {"Points": [{"interpolation": 2, "co": {"X": 1.0, "Y": -1.0}}]}, "effects": [], "title": "03-Title-In.svg", "start": 0, "position": 7.52, "end": 5.2, "crop_y": {"Points": [{"interpolation": 2, "co": {"X": 1.0, "Y": 0.0}}]}, "gravity": 4, "crop_width": {"Points": [{"interpolation": 2, "co": {"X": 1.0, "Y": -1.0}}]}, "duration": 86400.0, "scale_y": {"Points": [{"interpolation": 2, "co": {"X": 1.0, "Y": 1.0}}]}, "volume": {"Points": [{"interpolation": 2, "co": {"X": 1.0, "Y": 1.0}}]}, "perspective_c4_y": {"Points": [{"interpolation": 2, "co": {"X": 1.0, "Y": -1.0}}]}, "display": 0, "location_x": {"Points": [{"interpolation": 2, "co": {"X": 1.0, "Y": 0.0}}]}, "wave_color": {"green": {"Points": [{"handle_type": 0, "interpolation": 0, "handle_left": {"X": 0.5, "Y": 1.0}, "handle_right": {"X": 0.5, "Y": 0.0}, "co": {"X": 1.0, "Y": 123.0}}]}, "blue": {"Points": [{"handle_type": 0, "interpolation": 0, "handle_left": {"X": 0.5, "Y": 1.0}, "handle_right": {"X": 0.5, "Y": 0.0}, "co": {"X": 1.0, "Y": 255.0}}]}, "red": {"Points": [{"handle_type": 0, "interpolation": 0, "handle_left": {"X": 0.5, "Y": 1.0}, "handle_right": {"X": 0.5, "Y": 0.0}, "co": {"X": 1.0, "Y": 0.0}}]}, "alpha": {"Points": [{"handle_type": 0, "interpolation": 0, "handle_left": {"X": 0.5, "Y": 1.0}, "handle_right": {"X": 0.5, "Y": 0.0}, "co": {"X": 1.0, "Y": 255.0}}]}}, "has_video": {"Points": [{"interpolation": 2, "co": {"X": 1.0, "Y": -1.0}}]}, "perspective_c4_x": {"Points": [{"interpolation": 2, "co": {"X": 1.0, "Y": -1.0}}]}, "waveform": false, "scale_x": {"Points": [{"interpolation": 2, "co": {"X": 1.0, "Y": 1.0}}]}, "id": "A67X93JE0R", "file_id": "V0JTT8RBI4", "rotation": {"Points": [{"interpolation": 2, "co": {"X": 1.0, "Y": 0.0}}]}, "time": {"Points": [{"interpolation": 2, "co": {"X": 1.0, "Y": 1.0}}]}, "perspective_c3_x": {"Points": [{"interpolation": 2, "co": {"X": 1.0, "Y": -1.0}}]}, "image": "/home/milind/.openshot_qt/thumbnail/V0JTT8RBI4.png", "alpha": {"Points": [{"interpolation": 2, "co": {"X": 1.0, "Y": 1.0}}, {"handle_type": 0, "interpolation": 0, "handle_left": {"X": 0.5, "Y": 1.0}, "handle_right": {"X": 0.5, "Y": 0.0}, "co": {"X": 1.0, "Y": 0.0}}, {"handle_type": 0, "interpolation": 0, "handle_left": {"X": 0.5, "Y": 1.0}, "handle_right": {"X": 0.5, "Y": 0.0}, "co": {"X": 73.0, "Y": 1.0}}, {"handle_type": 0, "interpolation": 0, "handle_left": {"X": 0.5, "Y": 1.0}, "handle_right": {"X": 0.5, "Y": 0.0}, "co": {"X": 54.0, "Y": 1.0}}, {"handle_type": 0, "interpolation": 0, "handle_left": {"X": 0.5, "Y": 1.0}, "handle_right": {"X": 0.5, "Y": 0.0}, "co": {"X": 126.0, "Y": 0.0}}]}, "perspective_c1_x": {"Points": [{"interpolation": 2, "co": {"X": 1.0, "Y": -1.0}}]}, "location_y": {"Points": [{"interpolation": 2, "co": {"X": 1.0, "Y": 0.0}}]}, "shear_y": {"Points": [{"interpolation": 2, "co": {"X": 1.0, "Y": 0.0}}]}, "crop_height": {"Points": [{"interpolation": 2, "co": {"X": 1.0, "Y": -1.0}}]}, "scale": 1, "crop_x": {"Points": [{"interpolation": 2, "co": {"X": 1.0, "Y": 0.0}}]}, "perspective_c2_x": {"Points": [{"interpolation": 2, "co": {"X": 1.0, "Y": -1.0}}]}, "channel_mapping": {"Points": [{"interpolation": 2, "co": {"X": 1.0, "Y": -1.0}}]}}]}, {"partial": false, "key": ["clips", {"id": "OQVFZFG317"}], "type": "update", "value": {"id": "OQVFZFG317", "start": 0, "end": 10, "image": "/home/milind/.openshot_qt/thumbnail/C0VL89HM2N.png", "layer": 1, "position": 19.723333333333333}, "old_values": {"anchor": 0, "has_audio": {"Points": [{"interpolation": 2, "co": {"X": 1.0, "Y": -1.0}}]}, "channel_filter": {"Points": [{"interpolation": 2, "co": {"X": 1.0, "Y": -1.0}}]}, "has_video": {"Points": [{"interpolation": 2, "co": {"X": 1.0, "Y": -1.0}}]}, "perspective_c2_y": {"Points": [{"interpolation": 2, "co": {"X": 1.0, "Y": -1.0}}]}, "layer": 3, "reader": {"width": 6803, "acodec": "", "has_audio": false, "pixel_ratio": {"den": 1, "num": 1}, "has_video": true, "sample_rate": 0, "channels": 0, "file_size": "104140324", "top_field_first": true, "video_bit_rate": 0, "duration": 86400.0, "fps": {"den": 1, "num": 30}, "type": "QtImageReader", "channel_layout": 4, "audio_timebase": {"den": 1, "num": 1}, "path": "/home/milind/Data/Projects/ProgressCard/Images/04-Slide-Create Card Template.svg", "audio_stream_index": -1, "video_timebase": {"den": 30, "num": 1}, "has_single_image": true, "height": 3827, "interlaced_frame": false, "audio_bit_rate": 0, "video_stream_index": -1, "pixel_format": -1, "video_length": "2592000", "display_ratio": {"den": 3827, "num": 6803}, "vcodec": ""}, "perspective_c3_y": {"Points": [{"interpolation": 2, "co": {"X": 1.0, "Y": -1.0}}]}, "effects": [], "perspective_c1_y": {"Points": [{"interpolation": 2, "co": {"X": 1.0, "Y": -1.0}}]}, "title": "04-Slide-Create Card Template.svg", "start": 0.0, "duration": 86400.0, "crop_y": {"Points": [{"interpolation": 2, "co": {"X": 1.0, "Y": 0.0}}]}, "location_y": {"Points": [{"interpolation": 2, "co": {"X": 1.0, "Y": 0.0}}]}, "perspective_c3_x": {"Points": [{"interpolation": 2, "co": {"X": 1.0, "Y": -1.0}}]}, "crop_width": {"Points": [{"interpolation": 2, "co": {"X": 1.0, "Y": -1.0}}]}, "channel_mapping": {"Points": [{"interpolation": 2, "co": {"X": 1.0, "Y": -1.0}}]}, "scale_y": {"Points": [{"interpolation": 2, "co": {"X": 1.0, "Y": 1.0}}]}, "crop_height": {"Points": [{"interpolation": 2, "co": {"X": 1.0, "Y": -1.0}}]}, "perspective_c1_x": {"Points": [{"interpolation": 2, "co": {"X": 1.0, "Y": -1.0}}]}, "perspective_c4_y": {"Points": [{"interpolation": 2, "co": {"X": 1.0, "Y": -1.0}}]}, "display": 0, "id": "OQVFZFG317", "crop_x": {"Points": [{"interpolation": 2, "co": {"X": 1.0, "Y": 0.0}}]}, "shear_x": {"Points": [{"interpolation": 2, "co": {"X": 1.0, "Y": 0.0}}]}, "perspective_c4_x": {"Points": [{"interpolation": 2, "co": {"X": 1.0, "Y": -1.0}}]}, "waveform": false, "scale_x": {"Points": [{"interpolation": 2, "co": {"X": 1.0, "Y": 1.0}}]}, "position": 0.0, "file_id": "C0VL89HM2N", "time": {"Points": [{"interpolation": 2, "co": {"X": 1.0, "Y": 1.0}}]}, "rotation": {"Points": [{"interpolation": 2, "co": {"X": 1.0, "Y": 0.0}}]}, "image": "/home/milind/.openshot_qt/thumbnail/C0VL89HM2N.png", "alpha": {"Points": [{"interpolation": 2, "co": {"X": 1.0, "Y": 1.0}}]}, "location_x": {"Points": [{"interpolation": 2, "co": {"X": 1.0, "Y": 0.0}}]}, "gravity": 4, "shear_y": {"Points": [{"interpolation": 2, "co": {"X": 1.0, "Y": 0.0}}]}, "volume": {"Points": [{"interpolation": 2, "co": {"X": 1.0, "Y": 1.0}}]}, "scale": 1, "wave_color": {"green": {"Points": [{"handle_type": 0, "interpolation": 0, "handle_left": {"X": 0.5, "Y": 1.0}, "co": {"X": 1.0, "Y": 123.0}, "handle_right": {"X": 0.5, "Y": 0.0}}]}, "alpha": {"Points": [{"handle_type": 0, "interpolation": 0, "handle_left": {"X": 0.5, "Y": 1.0}, "co": {"X": 1.0, "Y": 255.0}, "handle_right": {"X": 0.5, "Y": 0.0}}]}, "red": {"Points": [{"handle_type": 0, "interpolation": 0, "handle_left": {"X": 0.5, "Y": 1.0}, "co": {"X": 1.0, "Y": 0.0}, "handle_right": {"X": 0.5, "Y": 0.0}}]}, "blue": {"Points": [{"handle_type": 0, "interpolation": 0, "handle_left": {"X": 0.5, "Y": 1.0}, "co": {"X": 1.0, "Y": 255.0}, "handle_right": {"X": 0.5, "Y": 0.0}}]}}, "perspective_c2_x": {"Points": [{"interpolation": 2, "co": {"X": 1.0, "Y": -1.0}}]}, "end": 10.0}}, {"partial": false, "key": ["clips"], "type": "insert", "value": {"anchor": 0, "has_audio": {"Points": [{"interpolation": 2, "co": {"X": 1.0, "Y": -1.0}}]}, "channel_filter": {"Points": [{"interpolation": 2, "co": {"X": 1.0, "Y": -1.0}}]}, "perspective_c2_x": {"Points": [{"interpolation": 2, "co": {"X": 1.0, "Y": -1.0}}]}, "title": "05-Title -Open Writer.svg", "has_video": {"Points": [{"interpolation": 2, "co": {"X": 1.0, "Y": -1.0}}]}, "layer": 3, "shear_x": {"Points": [{"interpolation": 2, "co": {"X": 1.0, "Y": 0.0}}]}, "reader": {"width": 6803, "acodec": "", "has_audio": false, "pixel_ratio": {"den": 1, "num": 1}, "has_video": true, "vcodec": "", "channels": 0, "file_size": "104140324", "top_field_first": true, "video_bit_rate": 0, "duration": 86400.0, "type": "QtImageReader", "channel_layout": 4, "audio_timebase": {"den": 1, "num": 1}, "path": "/home/milind/Data/Projects/ProgressCard/Images/05-Title -Open Writer.svg", "audio_stream_index": -1, "video_timebase": {"den": 30, "num": 1}, "has_single_image": true, "height": 3827, "interlaced_frame": false, "audio_bit_rate": 0, "pixel_format": -1, "video_stream_index": -1, "sample_rate": 0, "video_length": "2592000", "display_ratio": {"den": 3827, "num": 6803}, "fps": {"den": 1, "num": 30}}, "perspective_c3_y": {"Points": [{"interpolation": 2, "co": {"X": 1.0, "Y": -1.0}}]}, "perspective_c4_x": {"Points": [{"interpolation": 2, "co": {"X": 1.0, "Y": -1.0}}]}, "location_x": {"Points": [{"interpolation": 2, "co": {"X": 1.0, "Y": 0.0}}]}, "start": 0.0, "position": 3.68, "duration": 86400.0, "crop_y": {"Points": [{"interpolation": 2, "co": {"X": 1.0, "Y": 0.0}}]}, "gravity": 4, "scale_x": {"Points": [{"interpolation": 2, "co": {"X": 1.0, "Y": 1.0}}]}, "scale_y": {"Points": [{"interpolation": 2, "co": {"X": 1.0, "Y": 1.0}}]}, "crop_height": {"Points": [{"interpolation": 2, "co": {"X": 1.0, "Y": -1.0}}]}, "perspective_c4_y": {"Points": [{"interpolation": 2, "co": {"X": 1.0, "Y": -1.0}}]}, "display": 0, "end": 10.0, "crop_x": {"Points": [{"interpolation": 2, "co": {"X": 1.0, "Y": 0.0}}]}, "perspective_c1_y": {"Points": [{"interpolation": 2, "co": {"X": 1.0, "Y": -1.0}}]}, "effects": [], "waveform": false, "crop_width": {"Points": [{"interpolation": 2, "co": {"X": 1.0, "Y": -1.0}}]}, "id": "V61V9132NT", "file_id": "UXYIII238I", "rotation": {"Points": [{"interpolation": 2, "co": {"X": 1.0, "Y": 0.0}}]}, "time": {"Points": [{"interpolation": 2, "co": {"X": 1.0, "Y": 1.0}}]}, "perspective_c3_x": {"Points": [{"interpolation": 2, "co": {"X": 1.0, "Y": -1.0}}]}, "image": "/home/milind/.openshot_qt/thumbnail/UXYIII238I.png", "alpha": {"Points": [{"interpolation": 2, "co": {"X": 1.0, "Y": 1.0}}]}, "perspective_c1_x": {"Points": [{"interpolation": 2, "co": {"X": 1.0, "Y": -1.0}}]}, "location_y": {"Points": [{"interpolation": 2, "co": {"X": 1.0, "Y": 0.0}}]}, "shear_y": {"Points": [{"interpolation": 2, "co": {"X": 1.0, "Y": 0.0}}]}, "volume": {"Points": [{"interpolation": 2, "co": {"X": 1.0, "Y": 1.0}}]}, "scale": 1, "wave_color": {"green": {"Points": [{"handle_type": 0, "interpolation": 0, "handle_left": {"X": 0.5, "Y": 1.0}, "co": {"X": 1.0, "Y": 123.0}, "handle_right": {"X": 0.5, "Y": 0.0}}]}, "blue": {"Points": [{"handle_type": 0, "interpolation": 0, "handle_left": {"X": 0.5, "Y": 1.0}, "co": {"X": 1.0, "Y": 255.0}, "handle_right": {"X": 0.5, "Y": 0.0}}]}, "red": {"Points": [{"handle_type": 0, "interpolation": 0, "handle_left": {"X": 0.5, "Y": 1.0}, "co": {"X": 1.0, "Y": 0.0}, "handle_right": {"X": 0.5, "Y": 0.0}}]}, "alpha": {"Points": [{"handle_type": 0, "interpolation": 0, "handle_left": {"X": 0.5, "Y": 1.0}, "co": {"X": 1.0, "Y": 255.0}, "handle_right": {"X": 0.5, "Y": 0.0}}]}}, "perspective_c2_y": {"Points": [{"interpolation": 2, "co": {"X": 1.0, "Y": -1.0}}]}, "channel_mapping": {"Points": [{"interpolation": 2, "co": {"X": 1.0, "Y": -1.0}}]}}, "old_values": [{"anchor": 0, "reader": {"width": 1920, "acodec": "", "has_audio": false, "pixel_ratio": {"den": 1, "num": 1}, "has_video": true, "channels": 0, "file_size": "8294400", "top_field_first": true, "video_bit_rate": 0, "fps": {"den": 1, "num": 30}, "type": "QtImageReader", "channel_layout": 4, "audio_timebase": {"den": 1, "num": 1}, "path": "/home/milind/Data/Projects/ProgressCard/Images/01-White-Background.svg", "audio_stream_index": -1, "duration": 86400.0, "video_timebase": {"den": 30, "num": 1}, "has_single_image": true, "height": 1080, "interlaced_frame": false, "audio_bit_rate": 0, "pixel_format": -1, "video_stream_index": -1, "sample_rate": 0, "video_length": "2592000", "display_ratio": {"den": 9, "num": 16}, "vcodec": ""}, "channel_filter": {"Points": [{"interpolation": 2, "co": {"X": 1.0, "Y": -1.0}}]}, "perspective_c1_y": {"Points": [{"interpolation": 2, "co": {"X": 1.0, "Y": -1.0}}]}, "perspective_c2_y": {"Points": [{"interpolation": 2, "co": {"X": 1.0, "Y": -1.0}}]}, "layer": 0, "shear_x": {"Points": [{"interpolation": 2, "co": {"X": 1.0, "Y": 0.0}}]}, "has_audio": {"Points": [{"interpolation": 2, "co": {"X": 1.0, "Y": -1.0}}]}, "perspective_c3_y": {"Points": [{"interpolation": 2, "co": {"X": 1.0, "Y": -1.0}}]}, "effects": [], "title": "01-White-Background.svg", "start": 0, "position": 0, "end": 70.16, "crop_y": {"Points": [{"interpolation": 2, "co": {"X": 1.0, "Y": 0.0}}]}, "gravity": 4, "crop_width": {"Points": [{"interpolation": 2, "co": {"X": 1.0, "Y": -1.0}}]}, "duration": 86400.0, "scale_y": {"Points": [{"interpolation": 2, "co": {"X": 1.0, "Y": 1.0}}]}, "volume": {"Points": [{"interpolation": 2, "co": {"X": 1.0, "Y": 1.0}}]}, "perspective_c4_y": {"Points": [{"interpolation": 2, "co": {"X": 1.0, "Y": -1.0}}]}, "display": 0, "location_x": {"Points": [{"interpolation": 2, "co": {"X": 1.0, "Y": 0.0}}]}, "crop_x": {"Points": [{"interpolation": 2, "co": {"X": 1.0, "Y": 0.0}}]}, "has_video": {"Points": [{"interpolation": 2, "co": {"X": 1.0, "Y": -1.0}}]}, "perspective_c4_x": {"Points": [{"interpolation": 2, "co": {"X": 1.0, "Y": -1.0}}]}, "waveform": false, "scale_x": {"Points": [{"interpolation": 2, "co": {"X": 1.0, "Y": 1.0}}]}, "id": "QI9WV3T42Q", "file_id": "TDIZ1HFAHG", "rotation": {"Points": [{"interpolation": 2, "co": {"X": 1.0, "Y": 0.0}}]}, "time": {"Points": [{"interpolation": 2, "co": {"X": 1.0, "Y": 1.0}}]}, "perspective_c3_x": {"Points": [{"interpolation": 2, "co": {"X": 1.0, "Y": -1.0}}]}, "image": "/home/milind/.openshot_qt/thumbnail/TDIZ1HFAHG.png", "alpha": {"Points": [{"interpolation": 2, "co": {"X": 1.0, "Y": 1.0}}]}, "perspective_c1_x": {"Points": [{"interpolation": 2, "co": {"X": 1.0, "Y": -1.0}}]}, "location_y": {"Points": [{"interpolation": 2, "co": {"X": 1.0, "Y": 0.0}}]}, "shear_y": {"Points": [{"interpolation": 2, "co": {"X": 1.0, "Y": 0.0}}]}, "crop_height": {"Points": [{"interpolation": 2, "co": {"X": 1.0, "Y": -1.0}}]}, "scale": 1, "wave_color": {"green": {"Points": [{"handle_type": 0, "interpolation": 0, "handle_left": {"X": 0.5, "Y": 1.0}, "handle_right": {"X": 0.5, "Y": 0.0}, "co": {"X": 1.0, "Y": 123.0}}]}, "blue": {"Points": [{"handle_type": 0, "interpolation": 0, "handle_left": {"X": 0.5, "Y": 1.0}, "handle_right": {"X": 0.5, "Y": 0.0}, "co": {"X": 1.0, "Y": 255.0}}]}, "red": {"Points": [{"handle_type": 0, "interpolation": 0, "handle_left": {"X": 0.5, "Y": 1.0}, "handle_right": {"X": 0.5, "Y": 0.0}, "co": {"X": 1.0, "Y": 0.0}}]}, "alpha": {"Points": [{"handle_type": 0, "interpolation": 0, "handle_left": {"X": 0.5, "Y": 1.0}, "handle_right": {"X": 0.5, "Y": 0.0}, "co": {"X": 1.0, "Y": 255.0}}]}}, "perspective_c2_x": {"Points": [{"interpolation": 2, "co": {"X": 1.0, "Y": -1.0}}]}, "channel_mapping": {"Points": [{"interpolation": 2, "co": {"X": 1.0, "Y": -1.0}}]}}, {"anchor": 0, "reader": {"width": 6803, "acodec": "", "has_audio": false, "pixel_ratio": {"den": 1, "num": 1}, "has_video": true, "channels": 0, "file_size": "104140324", "top_field_first": true, "video_bit_rate": 0, "fps": {"den": 1, "num": 30}, "type": "QtImageReader", "channel_layout": 4, "audio_timebase": {"den": 1, "num": 1}, "path": "/home/milind/Data/Projects/ProgressCard/Images/02-Title Progress Cards.svg", "audio_stream_index": -1, "duration": 86400.0, "video_timebase": {"den": 30, "num": 1}, "has_single_image": true, "height": 3827, "interlaced_frame": false, "audio_bit_rate": 0, "pixel_format": -1, "video_stream_index": -1, "sample_rate": 0, "video_length": "2592000", "display_ratio": {"den": 3827, "num": 6803}, "vcodec": ""}, "channel_filter": {"Points": [{"interpolation": 2, "co": {"X": 1.0, "Y": -1.0}}]}, "perspective_c1_y": {"Points": [{"interpolation": 2, "co": {"X": 1.0, "Y": -1.0}}]}, "perspective_c2_y": {"Points": [{"interpolation": 2, "co": {"X": 1.0, "Y": -1.0}}]}, "layer": 1, "shear_x": {"Points": [{"interpolation": 2, "co": {"X": 1.0, "Y": 0.0}}]}, "has_audio": {"Points": [{"interpolation": 2, "co": {"X": 1.0, "Y": -1.0}}]}, "perspective_c3_y": {"Points": [{"interpolation": 2, "co": {"X": 1.0, "Y": -1.0}}]}, "effects": [], "title": "02-Title Progress Cards.svg", "start": 0, "position": 0, "duration": 86400.0, "crop_y": {"Points": [{"interpolation": 2, "co": {"X": 1.0, "Y": 0.0}}]}, "location_y": {"Points": [{"handle_type": 0, "interpolation": 0, "handle_left": {"X": 0.5, "Y": 1.0}, "handle_right": {"X": 0.5, "Y": 0.0}, "co": {"X": 1.0, "Y": 0.0}}]}, "perspective_c3_x": {"Points": [{"interpolation": 2, "co": {"X": 1.0, "Y": -1.0}}]}, "crop_width": {"Points": [{"interpolation": 2, "co": {"X": 1.0, "Y": -1.0}}]}, "scale_y": {"Points": [{"handle_type": 0, "interpolation": 0, "handle_left": {"X": 0.5, "Y": 1.0}, "handle_right": {"X": 0.5, "Y": 0.0}, "co": {"X": 1.0, "Y": 20.0}}, {"interpolation": 1, "co": {"X": 71, "Y": 1.0}}]}, "volume": {"Points": [{"interpolation": 2, "co": {"X": 1.0, "Y": 1.0}}]}, "perspective_c4_y": {"Points": [{"interpolation": 2, "co": {"X": 1.0, "Y": -1.0}}]}, "display": 0, "location_x": {"Points": [{"handle_type": 0, "interpolation": 0, "handle_left": {"X": 0.5, "Y": 1.0}, "handle_right": {"X": 0.5, "Y": 0.0}, "co": {"X": 1.0, "Y": 0.0}}]}, "end": 7.583333333333333, "crop_x": {"Points": [{"interpolation": 2, "co": {"X": 1.0, "Y": 0.0}}]}, "has_video": {"Points": [{"interpolation": 2, "co": {"X": 1.0, "Y": -1.0}}]}, "perspective_c4_x": {"Points": [{"interpolation": 2, "co": {"X": 1.0, "Y": -1.0}}]}, "waveform": false, "scale_x": {"Points": [{"handle_type": 0, "interpolation": 0, "handle_left": {"X": 0.5, "Y": 1.0}, "handle_right": {"X": 0.5, "Y": 0.0}, "co": {"X": 1.0, "Y": 20.0}}, {"interpolation": 1, "co": {"X": 71, "Y": 1.0}}]}, "id": "GIMJDSPZQK", "file_id": "5OEZCIVW6D", "time": {"Points": [{"interpolation": 2, "co": {"X": 1.0, "Y": 1.0}}]}, "rotation": {"Points": [{"interpolation": 2, "co": {"X": 1.0, "Y": 0.0}}]}, "image": "/home/milind/.openshot_qt/thumbnail/5OEZCIVW6D.png", "alpha": {"Points": [{"handle_type": 0, "interpolation": 0, "handle_left": {"X": 0.5, "Y": 1.0}, "handle_right": {"X": 0.5, "Y": 0.0}, "co": {"X": 1.0, "Y": 1.0}}, {"handle_type": 0, "interpolation": 0, "handle_left": {"X": 0.5, "Y": 1.0}, "handle_right": {"X": 0.5, "Y": 0.0}, "co": {"X": 1.0, "Y": 0.0}}, {"handle_type": 0, "interpolation": 0, "handle_left": {"X": 0.5, "Y": 1.0}, "handle_right": {"X": 0.5, "Y": 0.0}, "co": {"X": 73.0, "Y": 1.0}}, {"handle_type": 0, "interpolation": 0, "handle_left": {"X": 0.5, "Y": 1.0}, "handle_right": {"X": 0.5, "Y": 0.0}, "co": {"X": 111.0, "Y": 1.0}}, {"handle_type": 0, "interpolation": 0, "handle_left": {"X": 0.5, "Y": 1.0}, "handle_right": {"X": 0.5, "Y": 0.0}, "co": {"X": 183.0, "Y": 0.0}}]}, "perspective_c1_x": {"Points": [{"interpolation": 2, "co": {"X": 1.0, "Y": -1.0}}]}, "gravity": 4, "shear_y": {"Points": [{"interpolation": 2, "co": {"X": 1.0, "Y": 0.0}}]}, "crop_height": {"Points": [{"interpolation": 2, "co": {"X": 1.0, "Y": -1.0}}]}, "scale": 1, "wave_color": {"green": {"Points": [{"handle_type": 0, "interpolation": 0, "handle_left": {"X": 0.5, "Y": 1.0}, "handle_right": {"X": 0.5, "Y": 0.0}, "co": {"X": 1.0, "Y": 123.0}}]}, "blue": {"Points": [{"handle_type": 0, "interpolation": 0, "handle_left": {"X": 0.5, "Y": 1.0}, "handle_right": {"X": 0.5, "Y": 0.0}, "co": {"X": 1.0, "Y": 255.0}}]}, "red": {"Points": [{"handle_type": 0, "interpolation": 0, "handle_left": {"X": 0.5, "Y": 1.0}, "handle_right": {"X": 0.5, "Y": 0.0}, "co": {"X": 1.0, "Y": 0.0}}]}, "alpha": {"Points": [{"handle_type": 0, "interpolation": 0, "handle_left": {"X": 0.5, "Y": 1.0}, "handle_right": {"X": 0.5, "Y": 0.0}, "co": {"X": 1.0, "Y": 255.0}}]}}, "perspective_c2_x": {"Points": [{"interpolation": 2, "co": {"X": 1.0, "Y": -1.0}}]}, "channel_mapping": {"Points": [{"interpolation": 2, "co": {"X": 1.0, "Y": -1.0}}]}}, {"anchor": 0, "reader": {"width": 600, "acodec": "", "has_audio": false, "pixel_ratio": {"den": 1, "num": 1}, "has_video": true, "channels": 0, "file_size": "427200", "top_field_first": true, "video_bit_rate": 0, "fps": {"den": 1, "num": 30}, "type": "QtImageReader", "channel_layout": 4, "audio_timebase": {"den": 1, "num": 1}, "path": "/home/milind/Data/Projects/ProgressCard/Images/04-LibreOffice_external_logo.svg", "audio_stream_index": -1, "duration": 86400.0, "video_timebase": {"den": 30, "num": 1}, "has_single_image": true, "height": 178, "interlaced_frame": false, "audio_bit_rate": 0, "pixel_format": -1, "video_stream_index": -1, "sample_rate": 0, "video_length": "2592000", "display_ratio": {"den": 89, "num": 300}, "vcodec": ""}, "channel_filter": {"Points": [{"interpolation": 2, "co": {"X": 1.0, "Y": -1.0}}]}, "perspective_c1_y": {"Points": [{"interpolation": 2, "co": {"X": 1.0, "Y": -1.0}}]}, "perspective_c2_y": {"Points": [{"interpolation": 2, "co": {"X": 1.0, "Y": -1.0}}]}, "layer": 1, "shear_x": {"Points": [{"interpolation": 2, "co": {"X": 1.0, "Y": 0.0}}]}, "has_audio": {"Points": [{"interpolation": 2, "co": {"X": 1.0, "Y": -1.0}}]}, "perspective_c3_y": {"Points": [{"interpolation": 2, "co": {"X": 1.0, "Y": -1.0}}]}, "effects": [], "title": "04-LibreOffice_external_logo.svg", "start": 0, "position": 12.64, "duration": 86400.0, "crop_y": {"Points": [{"interpolation": 2, "co": {"X": 1.0, "Y": 0.0}}]}, "location_y": {"Points": [{"handle_type": 0, "interpolation": 0, "handle_left": {"X": 0.5, "Y": 1.0}, "handle_right": {"X": 0.5, "Y": 0.0}, "co": {"X": 1.0, "Y": 0.0}}]}, "perspective_c3_x": {"Points": [{"interpolation": 2, "co": {"X": 1.0, "Y": -1.0}}]}, "crop_width": {"Points": [{"interpolation": 2, "co": {"X": 1.0, "Y": -1.0}}]}, "scale_y": {"Points": [{"handle_type": 0, "interpolation": 0, "handle_left": {"X": 0.5, "Y": 1.0}, "handle_right": {"X": 0.5, "Y": 0.0}, "co": {"X": 1.0, "Y": 1.0}}]}, "volume": {"Points": [{"interpolation": 2, "co": {"X": 1.0, "Y": 1.0}}]}, "perspective_c4_y": {"Points": [{"interpolation": 2, "co": {"X": 1.0, "Y": -1.0}}]}, "display": 0, "location_x": {"Points": [{"handle_type": 0, "interpolation": 0, "handle_left": {"X": 0.5, "Y": 1.0}, "handle_right": {"X": 0.5, "Y": 0.0}, "co": {"X": 1.0, "Y": 0.0}}]}, "end": 7.083333333333332, "crop_x": {"Points": [{"interpolation": 2, "co": {"X": 1.0, "Y": 0.0}}]}, "has_video": {"Points": [{"interpolation": 2, "co": {"X": 1.0, "Y": -1.0}}]}, "perspective_c4_x": {"Points": [{"interpolation": 2, "co": {"X": 1.0, "Y": -1.0}}]}, "waveform": false, "scale_x": {"Points": [{"handle_type": 0, "interpolation": 0, "handle_left": {"X": 0.5, "Y": 1.0}, "handle_right": {"X": 0.5, "Y": 0.0}, "co": {"X": 1.0, "Y": 1.0}}]}, "id": "1MXPXZXR6K", "file_id": "9LYJA9LENR", "time": {"Points": [{"interpolation": 2, "co": {"X": 1.0, "Y": 1.0}}]}, "rotation": {"Points": [{"interpolation": 2, "co": {"X": 1.0, "Y": 0.0}}]}, "image": "/home/milind/.openshot_qt/thumbnail/9LYJA9LENR.png", "alpha": {"Points": [{"handle_type": 0, "interpolation": 0, "handle_left": {"X": 0.5, "Y": 1.0}, "handle_right": {"X": 0.5, "Y": 0.0}, "co": {"X": 1.0, "Y": 1.0}}, {"handle_type": 0, "interpolation": 0, "handle_left": {"X": 0.5, "Y": 1.0}, "handle_right": {"X": 0.5, "Y": 0.0}, "co": {"X": 1.0, "Y": 0.0}}, {"handle_type": 0, "interpolation": 0, "handle_left": {"X": 0.5, "Y": 1.0}, "handle_right": {"X": 0.5, "Y": 0.0}, "co": {"X": 73.0, "Y": 1.0}}, {"handle_type": 0, "interpolation": 0, "handle_left": {"X": 0.5, "Y": 1.0}, "handle_right": {"X": 0.5, "Y": 0.0}, "co": {"X": 99.0, "Y": 1.0}}, {"handle_type": 0, "interpolation": 0, "handle_left": {"X": 0.5, "Y": 1.0}, "handle_right": {"X": 0.5, "Y": 0.0}, "co": {"X": 171.0, "Y": 0.0}}]}, "perspective_c1_x": {"Points": [{"interpolation": 2, "co": {"X": 1.0, "Y": -1.0}}]}, "gravity": 4, "shear_y": {"Points": [{"interpolation": 2, "co": {"X": 1.0, "Y": 0.0}}]}, "crop_height": {"Points": [{"interpolation": 2, "co": {"X": 1.0, "Y": -1.0}}]}, "scale": 1, "wave_color": {"green": {"Points": [{"handle_type": 0, "interpolation": 0, "handle_left": {"X": 0.5, "Y": 1.0}, "handle_right": {"X": 0.5, "Y": 0.0}, "co": {"X": 1.0, "Y": 123.0}}]}, "blue": {"Points": [{"handle_type": 0, "interpolation": 0, "handle_left": {"X": 0.5, "Y": 1.0}, "handle_right": {"X": 0.5, "Y": 0.0}, "co": {"X": 1.0, "Y": 255.0}}]}, "red": {"Points": [{"handle_type": 0, "interpolation": 0, "handle_left": {"X": 0.5, "Y": 1.0}, "handle_right": {"X": 0.5, "Y": 0.0}, "co": {"X": 1.0, "Y": 0.0}}]}, "alpha": {"Points": [{"handle_type": 0, "interpolation": 0, "handle_left": {"X": 0.5, "Y": 1.0}, "handle_right": {"X": 0.5, "Y": 0.0}, "co": {"X": 1.0, "Y": 255.0}}]}}, "perspective_c2_x": {"Points": [{"interpolation": 2, "co": {"X": 1.0, "Y": -1.0}}]}, "channel_mapping": {"Points": [{"interpolation": 2, "co": {"X": 1.0, "Y": -1.0}}]}}, {"anchor": 0, "has_audio": {"Points": [{"interpolation": 2, "co": {"X": 1.0, "Y": -1.0}}]}, "channel_filter": {"Points": [{"interpolation": 2, "co": {"X": 1.0, "Y": -1.0}}]}, "perspective_c2_x": {"Points": [{"interpolation": 2, "co": {"X": 1.0, "Y": -1.0}}]}, "perspective_c1_y": {"Points": [{"interpolation": 2, "co": {"X": 1.0, "Y": -1.0}}]}, "layer": 1, "reader": {"width": 1366, "acodec": "", "has_audio": false, "pixel_ratio": {"den": 1, "num": 1}, "has_video": true, "channels": 0, "file_size": "394038", "top_field_first": true, "video_bit_rate": 0, "fps": {"den": 1, "num": 25}, "type": "FFmpegReader", "channel_layout": 4, "audio_timebase": {"den": 1, "num": 1}, "path": "/home/milind/Data/Projects/ProgressCard/Clips/06-Create Progress Card Template.mkv", "audio_stream_index": -1, "duration": 44.0, "video_timebase": {"den": 1000, "num": 1}, "has_single_image": false, "height": 768, "interlaced_frame": false, "audio_bit_rate": 0, "pixel_format": 0, "video_stream_index": 0, "sample_rate": 0, "video_length": "1100", "display_ratio": {"den": 384, "num": 683}, "vcodec": "h264"}, "perspective_c3_y": {"Points": [{"interpolation": 2, "co": {"X": 1.0, "Y": -1.0}}]}, "effects": [], "title": "06-Create Progress Card Template.mkv", "start": 5.361666666666668, "position": 39.52, "has_video": {"Points": [{"interpolation": 2, "co": {"X": 1.0, "Y": -1.0}}]}, "time": {"Points": [{"interpolation": 2, "co": {"X": 1.0, "Y": 1.0}}]}, "crop_y": {"Points": [{"interpolation": 2, "co": {"X": 1.0, "Y": 0.0}}]}, "location_y": {"Points": [{"interpolation": 2, "co": {"X": 1.0, "Y": 0.0}}, {"interpolation": 1, "co": {"X": 803, "Y": -0.3199999928474426}}, {"interpolation": 1, "co": {"X": 1057, "Y": 0.0}}]}, "crop_width": {"Points": [{"interpolation": 2, "co": {"X": 1.0, "Y": -1.0}}]}, "scale_y": {"Points": [{"interpolation": 2, "co": {"X": 1.0, "Y": 1.0}}, {"interpolation": 1, "co": {"X": 803, "Y": 1.649999976158142}}, {"interpolation": 1, "co": {"X": 1057, "Y": 1.0}}]}, "crop_height": {"Points": [{"interpolation": 2, "co": {"X": 1.0, "Y": -1.0}}]}, "perspective_c4_y": {"Points": [{"interpolation": 2, "co": {"X": 1.0, "Y": -1.0}}]}, "display": 0, "location_x": {"Points": [{"interpolation": 2, "co": {"X": 1.0, "Y": 0.0}}]}, "volume": {"Points": [{"interpolation": 2, "co": {"X": 1.0, "Y": 1.0}}]}, "crop_x": {"Points": [{"interpolation": 2, "co": {"X": 1.0, "Y": 0.0}}]}, "shear_x": {"Points": [{"interpolation": 2, "co": {"X": 1.0, "Y": 0.0}}]}, "perspective_c4_x": {"Points": [{"interpolation": 2, "co": {"X": 1.0, "Y": -1.0}}]}, "waveform": false, "scale_x": {"Points": [{"interpolation": 2, "co": {"X": 1.0, "Y": 1.0}}, {"interpolation": 1, "co": {"X": 803, "Y": 1.649999976158142}}, {"interpolation": 1, "co": {"X": 1057, "Y": 1.0}}]}, "id": "NCU6KKCVQ7", "file_id": "XQEQ903ILK", "rotation": {"Points": [{"interpolation": 2, "co": {"X": 1.0, "Y": 0.0}}]}, "duration": 44.0, "perspective_c3_x": {"Points": [{"interpolation": 2, "co": {"X": 1.0, "Y": -1.0}}]}, "image": "/home/milind/.openshot_qt/thumbnail/XQEQ903ILK.png", "alpha": {"Points": [{"handle_type": 0, "interpolation": 0, "handle_left": {"X": 0.5, "Y": 1.0}, "handle_right": {"X": 0.5, "Y": 0.0}, "co": {"X": 1.0, "Y": 1.0}}, {"handle_type": 0, "interpolation": 0, "handle_left": {"X": 0.5, "Y": 1.0}, "handle_right": {"X": 0.5, "Y": 0.0}, "co": {"X": 130.0, "Y": 0.0}}, {"handle_type": 0, "interpolation": 0, "handle_left": {"X": 0.5, "Y": 1.0}, "handle_right": {"X": 0.5, "Y": 0.0}, "co": {"X": 202.0, "Y": 1.0}}, {"handle_type": 0, "interpolation": 0, "handle_left": {"X": 0.5, "Y": 1.0}, "handle_right": {"X": 0.5, "Y": 0.0}, "co": {"X": 943.0, "Y": 1.0}}, {"handle_type": 0, "interpolation": 0, "handle_left": {"X": 0.5, "Y": 1.0}, "handle_right": {"X": 0.5, "Y": 0.0}, "co": {"X": 1015.0, "Y": 0.0}}]}, "perspective_c1_x": {"Points": [{"interpolation": 2, "co": {"X": 1.0, "Y": -1.0}}]}, "gravity": 4, "shear_y": {"Points": [{"interpolation": 2, "co": {"X": 1.0, "Y": 0.0}}]}, "channel_mapping": {"Points": [{"interpolation": 2, "co": {"X": 1.0, "Y": -1.0}}]}, "scale": 1, "wave_color": {"green": {"Points": [{"handle_type": 0, "interpolation": 0, "handle_left": {"X": 0.5, "Y": 1.0}, "handle_right": {"X": 0.5, "Y": 0.0}, "co": {"X": 1.0, "Y": 123.0}}]}, "blue": {"Points": [{"handle_type": 0, "interpolation": 0, "handle_left": {"X": 0.5, "Y": 1.0}, "handle_right": {"X": 0.5, "Y": 0.0}, "co": {"X": 1.0, "Y": 255.0}}]}, "red": {"Points": [{"handle_type": 0, "interpolation": 0, "handle_left": {"X": 0.5, "Y": 1.0}, "handle_right": {"X": 0.5, "Y": 0.0}, "co": {"X": 1.0, "Y": 0.0}}]}, "alpha": {"Points": [{"handle_type": 0, "interpolation": 0, "handle_left": {"X": 0.5, "Y": 1.0}, "handle_right": {"X": 0.5, "Y": 0.0}, "co": {"X": 1.0, "Y": 255.0}}]}}, "perspective_c2_y": {"Points": [{"interpolation": 2, "co": {"X": 1.0, "Y": -1.0}}]}, "end": 42.258333333333326}, {"anchor": 0, "reader": {"width": 6803, "acodec": "", "has_audio": false, "pixel_ratio": {"den": 1, "num": 1}, "has_video": true, "channels": 0, "file_size": "104140324", "top_field_first": true, "video_bit_rate": 0, "fps": {"den": 1, "num": 30}, "type": "QtImageReader", "channel_layout": 4, "audio_timebase": {"den": 1, "num": 1}, "path": "/home/milind/Data/Projects/ProgressCard/Images/03-Title-In.svg", "audio_stream_index": -1, "duration": 86400.0, "video_timebase": {"den": 30, "num": 1}, "has_single_image": true, "height": 3827, "interlaced_frame": false, "audio_bit_rate": 0, "pixel_format": -1, "video_stream_index": -1, "sample_rate": 0, "video_length": "2592000", "display_ratio": {"den": 3827, "num": 6803}, "vcodec": ""}, "channel_filter": {"Points": [{"interpolation": 2, "co": {"X": 1.0, "Y": -1.0}}]}, "perspective_c1_y": {"Points": [{"interpolation": 2, "co": {"X": 1.0, "Y": -1.0}}]}, "perspective_c2_y": {"Points": [{"interpolation": 2, "co": {"X": 1.0, "Y": -1.0}}]}, "layer": 1, "shear_x": {"Points": [{"interpolation": 2, "co": {"X": 1.0, "Y": 0.0}}]}, "has_audio": {"Points": [{"interpolation": 2, "co": {"X": 1.0, "Y": -1.0}}]}, "perspective_c3_y": {"Points": [{"interpolation": 2, "co": {"X": 1.0, "Y": -1.0}}]}, "effects": [], "title": "03-Title-In.svg", "start": 0, "position": 7.52, "end": 5.2, "crop_y": {"Points": [{"interpolation": 2, "co": {"X": 1.0, "Y": 0.0}}]}, "gravity": 4, "crop_width": {"Points": [{"interpolation": 2, "co": {"X": 1.0, "Y": -1.0}}]}, "duration": 86400.0, "scale_y": {"Points": [{"interpolation": 2, "co": {"X": 1.0, "Y": 1.0}}]}, "volume": {"Points": [{"interpolation": 2, "co": {"X": 1.0, "Y": 1.0}}]}, "perspective_c4_y": {"Points": [{"interpolation": 2, "co": {"X": 1.0, "Y": -1.0}}]}, "display": 0, "location_x": {"Points": [{"interpolation": 2, "co": {"X": 1.0, "Y": 0.0}}]}, "wave_color": {"green": {"Points": [{"handle_type": 0, "interpolation": 0, "handle_left": {"X": 0.5, "Y": 1.0}, "handle_right": {"X": 0.5, "Y": 0.0}, "co": {"X": 1.0, "Y": 123.0}}]}, "blue": {"Points": [{"handle_type": 0, "interpolation": 0, "handle_left": {"X": 0.5, "Y": 1.0}, "handle_right": {"X": 0.5, "Y": 0.0}, "co": {"X": 1.0, "Y": 255.0}}]}, "red": {"Points": [{"handle_type": 0, "interpolation": 0, "handle_left": {"X": 0.5, "Y": 1.0}, "handle_right": {"X": 0.5, "Y": 0.0}, "co": {"X": 1.0, "Y": 0.0}}]}, "alpha": {"Points": [{"handle_type": 0, "interpolation": 0, "handle_left": {"X": 0.5, "Y": 1.0}, "handle_right": {"X": 0.5, "Y": 0.0}, "co": {"X": 1.0, "Y": 255.0}}]}}, "has_video": {"Points": [{"interpolation": 2, "co": {"X": 1.0, "Y": -1.0}}]}, "perspective_c4_x": {"Points": [{"interpolation": 2, "co": {"X": 1.0, "Y": -1.0}}]}, "waveform": false, "scale_x": {"Points": [{"interpolation": 2, "co": {"X": 1.0, "Y": 1.0}}]}, "id": "A67X93JE0R", "file_id": "V0JTT8RBI4", "rotation": {"Points": [{"interpolation": 2, "co": {"X": 1.0, "Y": 0.0}}]}, "time": {"Points": [{"interpolation": 2, "co": {"X": 1.0, "Y": 1.0}}]}, "perspective_c3_x": {"Points": [{"interpolation": 2, "co": {"X": 1.0, "Y": -1.0}}]}, "image": "/home/milind/.openshot_qt/thumbnail/V0JTT8RBI4.png", "alpha": {"Points": [{"interpolation": 2, "co": {"X": 1.0, "Y": 1.0}}, {"handle_type": 0, "interpolation": 0, "handle_left": {"X": 0.5, "Y": 1.0}, "handle_right": {"X": 0.5, "Y": 0.0}, "co": {"X": 1.0, "Y": 0.0}}, {"handle_type": 0, "interpolation": 0, "handle_left": {"X": 0.5, "Y": 1.0}, "handle_right": {"X": 0.5, "Y": 0.0}, "co": {"X": 73.0, "Y": 1.0}}, {"handle_type": 0, "interpolation": 0, "handle_left": {"X": 0.5, "Y": 1.0}, "handle_right": {"X": 0.5, "Y": 0.0}, "co": {"X": 54.0, "Y": 1.0}}, {"handle_type": 0, "interpolation": 0, "handle_left": {"X": 0.5, "Y": 1.0}, "handle_right": {"X": 0.5, "Y": 0.0}, "co": {"X": 126.0, "Y": 0.0}}]}, "perspective_c1_x": {"Points": [{"interpolation": 2, "co": {"X": 1.0, "Y": -1.0}}]}, "location_y": {"Points": [{"interpolation": 2, "co": {"X": 1.0, "Y": 0.0}}]}, "shear_y": {"Points": [{"interpolation": 2, "co": {"X": 1.0, "Y": 0.0}}]}, "crop_height": {"Points": [{"interpolation": 2, "co": {"X": 1.0, "Y": -1.0}}]}, "scale": 1, "crop_x": {"Points": [{"interpolation": 2, "co": {"X": 1.0, "Y": 0.0}}]}, "perspective_c2_x": {"Points": [{"interpolation": 2, "co": {"X": 1.0, "Y": -1.0}}]}, "channel_mapping": {"Points": [{"interpolation": 2, "co": {"X": 1.0, "Y": -1.0}}]}}, {"anchor": 0, "has_audio": {"Points": [{"interpolation": 2, "co": {"X": 1.0, "Y": -1.0}}]}, "channel_filter": {"Points": [{"interpolation": 2, "co": {"X": 1.0, "Y": -1.0}}]}, "perspective_c2_x": {"Points": [{"interpolation": 2, "co": {"X": 1.0, "Y": -1.0}}]}, "perspective_c1_y": {"Points": [{"interpolation": 2, "co": {"X": 1.0, "Y": -1.0}}]}, "layer": 1, "reader": {"width": 6803, "acodec": "", "has_audio": false, "pixel_ratio": {"den": 1, "num": 1}, "has_video": true, "sample_rate": 0, "channels": 0, "file_size": "104140324", "top_field_first": true, "video_bit_rate": 0, "duration": 86400.0, "fps": {"den": 1, "num": 30}, "type": "QtImageReader", "channel_layout": 4, "audio_timebase": {"den": 1, "num": 1}, "path": "/home/milind/Data/Projects/ProgressCard/Images/04-Slide-Create Card Template.svg", "audio_stream_index": -1, "video_timebase": {"den": 30, "num": 1}, "has_single_image": true, "height": 3827, "interlaced_frame": false, "audio_bit_rate": 0, "video_stream_index": -1, "pixel_format": -1, "video_length": "2592000", "display_ratio": {"den": 3827, "num": 6803}, "vcodec": ""}, "perspective_c3_y": {"Points": [{"interpolation": 2, "co": {"X": 1.0, "Y": -1.0}}]}, "effects": [], "title": "04-Slide-Create Card Template.svg", "start": 0, "position": 19.723333333333333, "has_video": {"Points": [{"interpolation": 2, "co": {"X": 1.0, "Y": -1.0}}]}, "time": {"Points": [{"interpolation": 2, "co": {"X": 1.0, "Y": 1.0}}]}, "crop_y": {"Points": [{"interpolation": 2, "co": {"X": 1.0, "Y": 0.0}}]}, "location_y": {"Points": [{"interpolation": 2, "co": {"X": 1.0, "Y": 0.0}}]}, "crop_width": {"Points": [{"interpolation": 2, "co": {"X": 1.0, "Y": -1.0}}]}, "scale_y": {"Points": [{"interpolation": 2, "co": {"X": 1.0, "Y": 1.0}}]}, "volume": {"Points": [{"interpolation": 2, "co": {"X": 1.0, "Y": 1.0}}]}, "perspective_c4_y": {"Points": [{"interpolation": 2, "co": {"X": 1.0, "Y": -1.0}}]}, "display": 0, "location_x": {"Points": [{"interpolation": 2, "co": {"X": 1.0, "Y": 0.0}}]}, "crop_height": {"Points": [{"interpolation": 2, "co": {"X": 1.0, "Y": -1.0}}]}, "crop_x": {"Points": [{"interpolation": 2, "co": {"X": 1.0, "Y": 0.0}}]}, "shear_x": {"Points": [{"interpolation": 2, "co": {"X": 1.0, "Y": 0.0}}]}, "perspective_c4_x": {"Points": [{"interpolation": 2, "co": {"X": 1.0, "Y": -1.0}}]}, "waveform": false, "scale_x": {"Points": [{"interpolation": 2, "co": {"X": 1.0, "Y": 1.0}}]}, "id": "OQVFZFG317", "file_id": "C0VL89HM2N", "rotation": {"Points": [{"interpolation": 2, "co": {"X": 1.0, "Y": 0.0}}]}, "duration": 86400.0, "perspective_c3_x": {"Points": [{"interpolation": 2, "co": {"X": 1.0, "Y": -1.0}}]}, "image": "/home/milind/.openshot_qt/thumbnail/C0VL89HM2N.png", "alpha": {"Points": [{"interpolation": 2, "co": {"X": 1.0, "Y": 1.0}}]}, "perspective_c1_x": {"Points": [{"interpolation": 2, "co": {"X": 1.0, "Y": -1.0}}]}, "gravity": 4, "shear_y": {"Points": [{"interpolation": 2, "co": {"X": 1.0, "Y": 0.0}}]}, "channel_mapping": {"Points": [{"interpolation": 2, "co": {"X": 1.0, "Y": -1.0}}]}, "scale": 1, "wave_color": {"green": {"Points": [{"handle_type": 0, "interpolation": 0, "handle_left": {"X": 0.5, "Y": 1.0}, "co": {"X": 1.0, "Y": 123.0}, "handle_right": {"X": 0.5, "Y": 0.0}}]}, "alpha": {"Points": [{"handle_type": 0, "interpolation": 0, "handle_left": {"X": 0.5, "Y": 1.0}, "co": {"X": 1.0, "Y": 255.0}, "handle_right": {"X": 0.5, "Y": 0.0}}]}, "red": {"Points": [{"handle_type": 0, "interpolation": 0, "handle_left": {"X": 0.5, "Y": 1.0}, "co": {"X": 1.0, "Y": 0.0}, "handle_right": {"X": 0.5, "Y": 0.0}}]}, "blue": {"Points": [{"handle_type": 0, "interpolation": 0, "handle_left": {"X": 0.5, "Y": 1.0}, "co": {"X": 1.0, "Y": 255.0}, "handle_right": {"X": 0.5, "Y": 0.0}}]}}, "perspective_c2_y": {"Points": [{"interpolation": 2, "co": {"X": 1.0, "Y": -1.0}}]}, "end": 10}]}, {"partial": false, "key": ["clips", {"id": "V61V9132NT"}], "type": "delete", "value": null, "old_values": {"anchor": 0, "has_audio": {"Points": [{"interpolation": 2, "co": {"X": 1.0, "Y": -1.0}}]}, "channel_filter": {"Points": [{"interpolation": 2, "co": {"X": 1.0, "Y": -1.0}}]}, "has_video": {"Points": [{"interpolation": 2, "co": {"X": 1.0, "Y": -1.0}}]}, "perspective_c2_y": {"Points": [{"interpolation": 2, "co": {"X": 1.0, "Y": -1.0}}]}, "layer": 3, "reader": {"width": 6803, "acodec": "", "has_audio": false, "pixel_ratio": {"den": 1, "num": 1}, "has_video": true, "sample_rate": 0, "channels": 0, "file_size": "104140324", "top_field_first": true, "video_bit_rate": 0, "duration": 86400.0, "fps": {"den": 1, "num": 30}, "type": "QtImageReader", "channel_layout": 4, "audio_timebase": {"den": 1, "num": 1}, "path": "/home/milind/Data/Projects/ProgressCard/Images/05-Title -Open Writer.svg", "audio_stream_index": -1, "video_timebase": {"den": 30, "num": 1}, "has_single_image": true, "height": 3827, "interlaced_frame": false, "audio_bit_rate": 0, "video_stream_index": -1, "pixel_format": -1, "video_length": "2592000", "display_ratio": {"den": 3827, "num": 6803}, "vcodec": ""}, "perspective_c3_y": {"Points": [{"interpolation": 2, "co": {"X": 1.0, "Y": -1.0}}]}, "effects": [], "perspective_c1_y": {"Points": [{"interpolation": 2, "co": {"X": 1.0, "Y": -1.0}}]}, "title": "05-Title -Open Writer.svg", "start": 0.0, "duration": 86400.0, "crop_y": {"Points": [{"interpolation": 2, "co": {"X": 1.0, "Y": 0.0}}]}, "location_y": {"Points": [{"interpolation": 2, "co": {"X": 1.0, "Y": 0.0}}]}, "perspective_c3_x": {"Points": [{"interpolation": 2, "co": {"X": 1.0, "Y": -1.0}}]}, "crop_width": {"Points": [{"interpolation": 2, "co": {"X": 1.0, "Y": -1.0}}]}, "channel_mapping": {"Points": [{"interpolation": 2, "co": {"X": 1.0, "Y": -1.0}}]}, "scale_y": {"Points": [{"interpolation": 2, "co": {"X": 1.0, "Y": 1.0}}]}, "crop_height": {"Points": [{"interpolation": 2, "co": {"X": 1.0, "Y": -1.0}}]}, "perspective_c1_x": {"Points": [{"interpolation": 2, "co": {"X": 1.0, "Y": -1.0}}]}, "perspective_c4_y": {"Points": [{"interpolation": 2, "co": {"X": 1.0, "Y": -1.0}}]}, "display": 0, "id": "V61V9132NT", "crop_x": {"Points": [{"interpolation": 2, "co": {"X": 1.0, "Y": 0.0}}]}, "shear_x": {"Points": [{"interpolation": 2, "co": {"X": 1.0, "Y": 0.0}}]}, "perspective_c4_x": {"Points": [{"interpolation": 2, "co": {"X": 1.0, "Y": -1.0}}]}, "waveform": false, "scale_x": {"Points": [{"interpolation": 2, "co": {"X": 1.0, "Y": 1.0}}]}, "position": 3.68, "file_id": "UXYIII238I", "time": {"Points": [{"interpolation": 2, "co": {"X": 1.0, "Y": 1.0}}]}, "rotation": {"Points": [{"interpolation": 2, "co": {"X": 1.0, "Y": 0.0}}]}, "image": "/home/milind/.openshot_qt/thumbnail/UXYIII238I.png", "alpha": {"Points": [{"interpolation": 2, "co": {"X": 1.0, "Y": 1.0}}]}, "location_x": {"Points": [{"interpolation": 2, "co": {"X": 1.0, "Y": 0.0}}]}, "gravity": 4, "shear_y": {"Points": [{"interpolation": 2, "co": {"X": 1.0, "Y": 0.0}}]}, "volume": {"Points": [{"interpolation": 2, "co": {"X": 1.0, "Y": 1.0}}]}, "scale": 1, "wave_color": {"green": {"Points": [{"handle_type": 0, "interpolation": 0, "handle_left": {"X": 0.5, "Y": 1.0}, "co": {"X": 1.0, "Y": 123.0}, "handle_right": {"X": 0.5, "Y": 0.0}}]}, "alpha": {"Points": [{"handle_type": 0, "interpolation": 0, "handle_left": {"X": 0.5, "Y": 1.0}, "co": {"X": 1.0, "Y": 255.0}, "handle_right": {"X": 0.5, "Y": 0.0}}]}, "red": {"Points": [{"handle_type": 0, "interpolation": 0, "handle_left": {"X": 0.5, "Y": 1.0}, "co": {"X": 1.0, "Y": 0.0}, "handle_right": {"X": 0.5, "Y": 0.0}}]}, "blue": {"Points": [{"handle_type": 0, "interpolation": 0, "handle_left": {"X": 0.5, "Y": 1.0}, "co": {"X": 1.0, "Y": 255.0}, "handle_right": {"X": 0.5, "Y": 0.0}}]}}, "perspective_c2_x": {"Points": [{"interpolation": 2, "co": {"X": 1.0, "Y": -1.0}}]}, "end": 10.0}}, {"partial": false, "key": ["clips"], "type": "insert", "value": {"anchor": 0, "has_audio": {"Points": [{"interpolation": 2, "co": {"X": 1.0, "Y": -1.0}}]}, "channel_filter": {"Points": [{"interpolation": 2, "co": {"X": 1.0, "Y": -1.0}}]}, "image": "/home/milind/.openshot_qt/thumbnail/UXYIII238I.png", "perspective_c1_y": {"Points": [{"interpolation": 2, "co": {"X": 1.0, "Y": -1.0}}]}, "layer": 1, "shear_x": {"Points": [{"interpolation": 2, "co": {"X": 1.0, "Y": 0.0}}]}, "reader": {"width": 6803, "acodec": "", "has_audio": false, "pixel_ratio": {"den": 1, "num": 1}, "has_video": true, "vcodec": "", "channels": 0, "file_size": "104140324", "top_field_first": true, "video_bit_rate": 0, "duration": 86400.0, "type": "QtImageReader", "channel_layout": 4, "audio_timebase": {"den": 1, "num": 1}, "path": "/home/milind/Data/Projects/ProgressCard/Images/05-Title -Open Writer.svg", "audio_stream_index": -1, "video_timebase": {"den": 30, "num": 1}, "has_single_image": true, "height": 3827, "interlaced_frame": false, "audio_bit_rate": 0, "pixel_format": -1, "video_stream_index": -1, "sample_rate": 0, "video_length": "2592000", "display_ratio": {"den": 3827, "num": 6803}, "fps": {"den": 1, "num": 30}}, "perspective_c3_y": {"Points": [{"interpolation": 2, "co": {"X": 1.0, "Y": -1.0}}]}, "perspective_c4_x": {"Points": [{"interpolation": 2, "co": {"X": 1.0, "Y": -1.0}}]}, "perspective_c1_x": {"Points": [{"interpolation": 2, "co": {"X": 1.0, "Y": -1.0}}]}, "start": 0, "has_video": {"Points": [{"interpolation": 2, "co": {"X": 1.0, "Y": -1.0}}]}, "time": {"Points": [{"interpolation": 2, "co": {"X": 1.0, "Y": 1.0}}]}, "crop_y": {"Points": [{"interpolation": 2, "co": {"X": 1.0, "Y": 0.0}}]}, "gravity": 4, "scale_x": {"Points": [{"interpolation": 2, "co": {"X": 1.0, "Y": 1.0}}]}, "scale_y": {"Points": [{"interpolation": 2, "co": {"X": 1.0, "Y": 1.0}}]}, "volume": {"Points": [{"interpolation": 2, "co": {"X": 1.0, "Y": 1.0}}]}, "perspective_c4_y": {"Points": [{"interpolation": 2, "co": {"X": 1.0, "Y": -1.0}}]}, "display": 0, "id": "TL0AR8K26Q", "end": 10, "crop_x": {"Points": [{"interpolation": 2, "co": {"X": 1.0, "Y": 0.0}}]}, "perspective_c2_y": {"Points": [{"interpolation": 2, "co": {"X": 1.0, "Y": -1.0}}]}, "effects": [], "waveform": false, "crop_width": {"Points": [{"interpolation": 2, "co": {"X": 1.0, "Y": -1.0}}]}, "position": 29.760000000000005, "file_id": "UXYIII238I", "title": "05-Title -Open Writer.svg", "channel_mapping": {"Points": [{"interpolation": 2, "co": {"X": 1.0, "Y": -1.0}}]}, "perspective_c3_x": {"Points": [{"interpolation": 2, "co": {"X": 1.0, "Y": -1.0}}]}, "rotation": {"Points": [{"interpolation": 2, "co": {"X": 1.0, "Y": 0.0}}]}, "alpha": {"Points": [{"interpolation": 2, "co": {"X": 1.0, "Y": 1.0}}, {"handle_type": 0, "interpolation": 0, "handle_left": {"X": 0.5, "Y": 1.0}, "co": {"X": 1.0, "Y": 0.0}, "handle_right": {"X": 0.5, "Y": 0.0}}, {"handle_type": 0, "interpolation": 0, "handle_left": {"X": 0.5, "Y": 1.0}, "co": {"X": 73.0, "Y": 1.0}, "handle_right": {"X": 0.5, "Y": 0.0}}, {"handle_type": 0, "interpolation": 0, "handle_left": {"X": 0.5, "Y": 1.0}, "co": {"X": 169.0, "Y": 1.0}, "handle_right": {"X": 0.5, "Y": 0.0}}, {"handle_type": 0, "interpolation": 0, "handle_left": {"X": 0.5, "Y": 1.0}, "co": {"X": 241.0, "Y": 0.0}, "handle_right": {"X": 0.5, "Y": 0.0}}, {"handle_type": 0, "interpolation": 0, "handle_left": {"X": 0.5, "Y": 1.0}, "co": {"X": 1.0, "Y": 0.0}, "handle_right": {"X": 0.5, "Y": 0.0}}, {"handle_type": 0, "interpolation": 0, "handle_left": {"X": 0.5, "Y": 1.0}, "co": {"X": 73.0, "Y": 1.0}, "handle_right": {"X": 0.5, "Y": 0.0}}, {"handle_type": 0, "interpolation": 0, "handle_left": {"X": 0.5, "Y": 1.0}, "co": {"X": 169.0, "Y": 1.0}, "handle_right": {"X": 0.5, "Y": 0.0}}, {"handle_type": 0, "interpolation": 0, "handle_left": {"X": 0.5, "Y": 1.0}, "co": {"X": 241.0, "Y": 0.0}, "handle_right": {"X": 0.5, "Y": 0.0}}]}, "location_x": {"Points": [{"interpolation": 2, "co": {"X": 1.0, "Y": 0.0}}]}, "location_y": {"Points": [{"interpolation": 2, "co": {"X": 1.0, "Y": 0.0}}]}, "shear_y": {"Points": [{"interpolation": 2, "co": {"X": 1.0, "Y": 0.0}}]}, "crop_height": {"Points": [{"interpolation": 2, "co": {"X": 1.0, "Y": -1.0}}]}, "scale": 1, "wave_color": {"green": {"Points": [{"handle_type": 0, "interpolation": 0, "handle_left": {"X": 0.5, "Y": 1.0}, "co": {"X": 1.0, "Y": 123.0}, "handle_right": {"X": 0.5, "Y": 0.0}}]}, "blue": {"Points": [{"handle_type": 0, "interpolation": 0, "handle_left": {"X": 0.5, "Y": 1.0}, "co": {"X": 1.0, "Y": 255.0}, "handle_right": {"X": 0.5, "Y": 0.0}}]}, "red": {"Points": [{"handle_type": 0, "interpolation": 0, "handle_left": {"X": 0.5, "Y": 1.0}, "co": {"X": 1.0, "Y": 0.0}, "handle_right": {"X": 0.5, "Y": 0.0}}]}, "alpha": {"Points": [{"handle_type": 0, "interpolation": 0, "handle_left": {"X": 0.5, "Y": 1.0}, "co": {"X": 1.0, "Y": 255.0}, "handle_right": {"X": 0.5, "Y": 0.0}}]}}, "perspective_c2_x": {"Points": [{"interpolation": 2, "co": {"X": 1.0, "Y": -1.0}}]}, "duration": 86400.0}, "old_values": [{"anchor": 0, "reader": {"width": 1920, "acodec": "", "has_audio": false, "pixel_ratio": {"den": 1, "num": 1}, "has_video": true, "channels": 0, "file_size": "8294400", "top_field_first": true, "video_bit_rate": 0, "fps": {"den": 1, "num": 30}, "type": "QtImageReader", "channel_layout": 4, "audio_timebase": {"den": 1, "num": 1}, "path": "/home/milind/Data/Projects/ProgressCard/Images/01-White-Background.svg", "audio_stream_index": -1, "duration": 86400.0, "video_timebase": {"den": 30, "num": 1}, "has_single_image": true, "height": 1080, "interlaced_frame": false, "audio_bit_rate": 0, "pixel_format": -1, "video_stream_index": -1, "sample_rate": 0, "video_length": "2592000", "display_ratio": {"den": 9, "num": 16}, "vcodec": ""}, "channel_filter": {"Points": [{"interpolation": 2, "co": {"X": 1.0, "Y": -1.0}}]}, "perspective_c1_y": {"Points": [{"interpolation": 2, "co": {"X": 1.0, "Y": -1.0}}]}, "perspective_c2_y": {"Points": [{"interpolation": 2, "co": {"X": 1.0, "Y": -1.0}}]}, "layer": 0, "shear_x": {"Points": [{"interpolation": 2, "co": {"X": 1.0, "Y": 0.0}}]}, "has_audio": {"Points": [{"interpolation": 2, "co": {"X": 1.0, "Y": -1.0}}]}, "perspective_c3_y": {"Points": [{"interpolation": 2, "co": {"X": 1.0, "Y": -1.0}}]}, "effects": [], "title": "01-White-Background.svg", "start": 0, "position": 0, "end": 70.16, "crop_y": {"Points": [{"interpolation": 2, "co": {"X": 1.0, "Y": 0.0}}]}, "gravity": 4, "crop_width": {"Points": [{"interpolation": 2, "co": {"X": 1.0, "Y": -1.0}}]}, "duration": 86400.0, "scale_y": {"Points": [{"interpolation": 2, "co": {"X": 1.0, "Y": 1.0}}]}, "volume": {"Points": [{"interpolation": 2, "co": {"X": 1.0, "Y": 1.0}}]}, "perspective_c4_y": {"Points": [{"interpolation": 2, "co": {"X": 1.0, "Y": -1.0}}]}, "display": 0, "location_x": {"Points": [{"interpolation": 2, "co": {"X": 1.0, "Y": 0.0}}]}, "crop_x": {"Points": [{"interpolation": 2, "co": {"X": 1.0, "Y": 0.0}}]}, "has_video": {"Points": [{"interpolation": 2, "co": {"X": 1.0, "Y": -1.0}}]}, "perspective_c4_x": {"Points": [{"interpolation": 2, "co": {"X": 1.0, "Y": -1.0}}]}, "waveform": false, "scale_x": {"Points": [{"interpolation": 2, "co": {"X": 1.0, "Y": 1.0}}]}, "id": "QI9WV3T42Q", "file_id": "TDIZ1HFAHG", "rotation": {"Points": [{"interpolation": 2, "co": {"X": 1.0, "Y": 0.0}}]}, "time": {"Points": [{"interpolation": 2, "co": {"X": 1.0, "Y": 1.0}}]}, "perspective_c3_x": {"Points": [{"interpolation": 2, "co": {"X": 1.0, "Y": -1.0}}]}, "image": "/home/milind/.openshot_qt/thumbnail/TDIZ1HFAHG.png", "alpha": {"Points": [{"interpolation": 2, "co": {"X": 1.0, "Y": 1.0}}]}, "perspective_c1_x": {"Points": [{"interpolation": 2, "co": {"X": 1.0, "Y": -1.0}}]}, "location_y": {"Points": [{"interpolation": 2, "co": {"X": 1.0, "Y": 0.0}}]}, "shear_y": {"Points": [{"interpolation": 2, "co": {"X": 1.0, "Y": 0.0}}]}, "crop_height": {"Points": [{"interpolation": 2, "co": {"X": 1.0, "Y": -1.0}}]}, "scale": 1, "wave_color": {"green": {"Points": [{"handle_type": 0, "interpolation": 0, "handle_left": {"X": 0.5, "Y": 1.0}, "handle_right": {"X": 0.5, "Y": 0.0}, "co": {"X": 1.0, "Y": 123.0}}]}, "blue": {"Points": [{"handle_type": 0, "interpolation": 0, "handle_left": {"X": 0.5, "Y": 1.0}, "handle_right": {"X": 0.5, "Y": 0.0}, "co": {"X": 1.0, "Y": 255.0}}]}, "red": {"Points": [{"handle_type": 0, "interpolation": 0, "handle_left": {"X": 0.5, "Y": 1.0}, "handle_right": {"X": 0.5, "Y": 0.0}, "co": {"X": 1.0, "Y": 0.0}}]}, "alpha": {"Points": [{"handle_type": 0, "interpolation": 0, "handle_left": {"X": 0.5, "Y": 1.0}, "handle_right": {"X": 0.5, "Y": 0.0}, "co": {"X": 1.0, "Y": 255.0}}]}}, "perspective_c2_x": {"Points": [{"interpolation": 2, "co": {"X": 1.0, "Y": -1.0}}]}, "channel_mapping": {"Points": [{"interpolation": 2, "co": {"X": 1.0, "Y": -1.0}}]}}, {"anchor": 0, "reader": {"width": 6803, "acodec": "", "has_audio": false, "pixel_ratio": {"den": 1, "num": 1}, "has_video": true, "channels": 0, "file_size": "104140324", "top_field_first": true, "video_bit_rate": 0, "fps": {"den": 1, "num": 30}, "type": "QtImageReader", "channel_layout": 4, "audio_timebase": {"den": 1, "num": 1}, "path": "/home/milind/Data/Projects/ProgressCard/Images/02-Title Progress Cards.svg", "audio_stream_index": -1, "duration": 86400.0, "video_timebase": {"den": 30, "num": 1}, "has_single_image": true, "height": 3827, "interlaced_frame": false, "audio_bit_rate": 0, "pixel_format": -1, "video_stream_index": -1, "sample_rate": 0, "video_length": "2592000", "display_ratio": {"den": 3827, "num": 6803}, "vcodec": ""}, "channel_filter": {"Points": [{"interpolation": 2, "co": {"X": 1.0, "Y": -1.0}}]}, "perspective_c1_y": {"Points": [{"interpolation": 2, "co": {"X": 1.0, "Y": -1.0}}]}, "perspective_c2_y": {"Points": [{"interpolation": 2, "co": {"X": 1.0, "Y": -1.0}}]}, "layer": 1, "shear_x": {"Points": [{"interpolation": 2, "co": {"X": 1.0, "Y": 0.0}}]}, "has_audio": {"Points": [{"interpolation": 2, "co": {"X": 1.0, "Y": -1.0}}]}, "perspective_c3_y": {"Points": [{"interpolation": 2, "co": {"X": 1.0, "Y": -1.0}}]}, "effects": [], "title": "02-Title Progress Cards.svg", "start": 0, "position": 0, "duration": 86400.0, "crop_y": {"Points": [{"interpolation": 2, "co": {"X": 1.0, "Y": 0.0}}]}, "location_y": {"Points": [{"handle_type": 0, "interpolation": 0, "handle_left": {"X": 0.5, "Y": 1.0}, "handle_right": {"X": 0.5, "Y": 0.0}, "co": {"X": 1.0, "Y": 0.0}}]}, "perspective_c3_x": {"Points": [{"interpolation": 2, "co": {"X": 1.0, "Y": -1.0}}]}, "crop_width": {"Points": [{"interpolation": 2, "co": {"X": 1.0, "Y": -1.0}}]}, "scale_y": {"Points": [{"handle_type": 0, "interpolation": 0, "handle_left": {"X": 0.5, "Y": 1.0}, "handle_right": {"X": 0.5, "Y": 0.0}, "co": {"X": 1.0, "Y": 20.0}}, {"interpolation": 1, "co": {"X": 71, "Y": 1.0}}]}, "volume": {"Points": [{"interpolation": 2, "co": {"X": 1.0, "Y": 1.0}}]}, "perspective_c4_y": {"Points": [{"interpolation": 2, "co": {"X": 1.0, "Y": -1.0}}]}, "display": 0, "location_x": {"Points": [{"handle_type": 0, "interpolation": 0, "handle_left": {"X": 0.5, "Y": 1.0}, "handle_right": {"X": 0.5, "Y": 0.0}, "co": {"X": 1.0, "Y": 0.0}}]}, "end": 7.583333333333333, "crop_x": {"Points": [{"interpolation": 2, "co": {"X": 1.0, "Y": 0.0}}]}, "has_video": {"Points": [{"interpolation": 2, "co": {"X": 1.0, "Y": -1.0}}]}, "perspective_c4_x": {"Points": [{"interpolation": 2, "co": {"X": 1.0, "Y": -1.0}}]}, "waveform": false, "scale_x": {"Points": [{"handle_type": 0, "interpolation": 0, "handle_left": {"X": 0.5, "Y": 1.0}, "handle_right": {"X": 0.5, "Y": 0.0}, "co": {"X": 1.0, "Y": 20.0}}, {"interpolation": 1, "co": {"X": 71, "Y": 1.0}}]}, "id": "GIMJDSPZQK", "file_id": "5OEZCIVW6D", "time": {"Points": [{"interpolation": 2, "co": {"X": 1.0, "Y": 1.0}}]}, "rotation": {"Points": [{"interpolation": 2, "co": {"X": 1.0, "Y": 0.0}}]}, "image": "/home/milind/.openshot_qt/thumbnail/5OEZCIVW6D.png", "alpha": {"Points": [{"handle_type": 0, "interpolation": 0, "handle_left": {"X": 0.5, "Y": 1.0}, "handle_right": {"X": 0.5, "Y": 0.0}, "co": {"X": 1.0, "Y": 1.0}}, {"handle_type": 0, "interpolation": 0, "handle_left": {"X": 0.5, "Y": 1.0}, "handle_right": {"X": 0.5, "Y": 0.0}, "co": {"X": 1.0, "Y": 0.0}}, {"handle_type": 0, "interpolation": 0, "handle_left": {"X": 0.5, "Y": 1.0}, "handle_right": {"X": 0.5, "Y": 0.0}, "co": {"X": 73.0, "Y": 1.0}}, {"handle_type": 0, "interpolation": 0, "handle_left": {"X": 0.5, "Y": 1.0}, "handle_right": {"X": 0.5, "Y": 0.0}, "co": {"X": 111.0, "Y": 1.0}}, {"handle_type": 0, "interpolation": 0, "handle_left": {"X": 0.5, "Y": 1.0}, "handle_right": {"X": 0.5, "Y": 0.0}, "co": {"X": 183.0, "Y": 0.0}}]}, "perspective_c1_x": {"Points": [{"interpolation": 2, "co": {"X": 1.0, "Y": -1.0}}]}, "gravity": 4, "shear_y": {"Points": [{"interpolation": 2, "co": {"X": 1.0, "Y": 0.0}}]}, "crop_height": {"Points": [{"interpolation": 2, "co": {"X": 1.0, "Y": -1.0}}]}, "scale": 1, "wave_color": {"green": {"Points": [{"handle_type": 0, "interpolation": 0, "handle_left": {"X": 0.5, "Y": 1.0}, "handle_right": {"X": 0.5, "Y": 0.0}, "co": {"X": 1.0, "Y": 123.0}}]}, "blue": {"Points": [{"handle_type": 0, "interpolation": 0, "handle_left": {"X": 0.5, "Y": 1.0}, "handle_right": {"X": 0.5, "Y": 0.0}, "co": {"X": 1.0, "Y": 255.0}}]}, "red": {"Points": [{"handle_type": 0, "interpolation": 0, "handle_left": {"X": 0.5, "Y": 1.0}, "handle_right": {"X": 0.5, "Y": 0.0}, "co": {"X": 1.0, "Y": 0.0}}]}, "alpha": {"Points": [{"handle_type": 0, "interpolation": 0, "handle_left": {"X": 0.5, "Y": 1.0}, "handle_right": {"X": 0.5, "Y": 0.0}, "co": {"X": 1.0, "Y": 255.0}}]}}, "perspective_c2_x": {"Points": [{"interpolation": 2, "co": {"X": 1.0, "Y": -1.0}}]}, "channel_mapping": {"Points": [{"interpolation": 2, "co": {"X": 1.0, "Y": -1.0}}]}}, {"anchor": 0, "reader": {"width": 600, "acodec": "", "has_audio": false, "pixel_ratio": {"den": 1, "num": 1}, "has_video": true, "channels": 0, "file_size": "427200", "top_field_first": true, "video_bit_rate": 0, "fps": {"den": 1, "num": 30}, "type": "QtImageReader", "channel_layout": 4, "audio_timebase": {"den": 1, "num": 1}, "path": "/home/milind/Data/Projects/ProgressCard/Images/04-LibreOffice_external_logo.svg", "audio_stream_index": -1, "duration": 86400.0, "video_timebase": {"den": 30, "num": 1}, "has_single_image": true, "height": 178, "interlaced_frame": false, "audio_bit_rate": 0, "pixel_format": -1, "video_stream_index": -1, "sample_rate": 0, "video_length": "2592000", "display_ratio": {"den": 89, "num": 300}, "vcodec": ""}, "channel_filter": {"Points": [{"interpolation": 2, "co": {"X": 1.0, "Y": -1.0}}]}, "perspective_c1_y": {"Points": [{"interpolation": 2, "co": {"X": 1.0, "Y": -1.0}}]}, "perspective_c2_y": {"Points": [{"interpolation": 2, "co": {"X": 1.0, "Y": -1.0}}]}, "layer": 1, "shear_x": {"Points": [{"interpolation": 2, "co": {"X": 1.0, "Y": 0.0}}]}, "has_audio": {"Points": [{"interpolation": 2, "co": {"X": 1.0, "Y": -1.0}}]}, "perspective_c3_y": {"Points": [{"interpolation": 2, "co": {"X": 1.0, "Y": -1.0}}]}, "effects": [], "title": "04-LibreOffice_external_logo.svg", "start": 0, "position": 12.64, "duration": 86400.0, "crop_y": {"Points": [{"interpolation": 2, "co": {"X": 1.0, "Y": 0.0}}]}, "location_y": {"Points": [{"handle_type": 0, "interpolation": 0, "handle_left": {"X": 0.5, "Y": 1.0}, "handle_right": {"X": 0.5, "Y": 0.0}, "co": {"X": 1.0, "Y": 0.0}}]}, "perspective_c3_x": {"Points": [{"interpolation": 2, "co": {"X": 1.0, "Y": -1.0}}]}, "crop_width": {"Points": [{"interpolation": 2, "co": {"X": 1.0, "Y": -1.0}}]}, "scale_y": {"Points": [{"handle_type": 0, "interpolation": 0, "handle_left": {"X": 0.5, "Y": 1.0}, "handle_right": {"X": 0.5, "Y": 0.0}, "co": {"X": 1.0, "Y": 1.0}}]}, "volume": {"Points": [{"interpolation": 2, "co": {"X": 1.0, "Y": 1.0}}]}, "perspective_c4_y": {"Points": [{"interpolation": 2, "co": {"X": 1.0, "Y": -1.0}}]}, "display": 0, "location_x": {"Points": [{"handle_type": 0, "interpolation": 0, "handle_left": {"X": 0.5, "Y": 1.0}, "handle_right": {"X": 0.5, "Y": 0.0}, "co": {"X": 1.0, "Y": 0.0}}]}, "end": 7.083333333333332, "crop_x": {"Points": [{"interpolation": 2, "co": {"X": 1.0, "Y": 0.0}}]}, "has_video": {"Points": [{"interpolation": 2, "co": {"X": 1.0, "Y": -1.0}}]}, "perspective_c4_x": {"Points": [{"interpolation": 2, "co": {"X": 1.0, "Y": -1.0}}]}, "waveform": false, "scale_x": {"Points": [{"handle_type": 0, "interpolation": 0, "handle_left": {"X": 0.5, "Y": 1.0}, "handle_right": {"X": 0.5, "Y": 0.0}, "co": {"X": 1.0, "Y": 1.0}}]}, "id": "1MXPXZXR6K", "file_id": "9LYJA9LENR", "time": {"Points": [{"interpolation": 2, "co": {"X": 1.0, "Y": 1.0}}]}, "rotation": {"Points": [{"interpolation": 2, "co": {"X": 1.0, "Y": 0.0}}]}, "image": "/home/milind/.openshot_qt/thumbnail/9LYJA9LENR.png", "alpha": {"Points": [{"handle_type": 0, "interpolation": 0, "handle_left": {"X": 0.5, "Y": 1.0}, "handle_right": {"X": 0.5, "Y": 0.0}, "co": {"X": 1.0, "Y": 1.0}}, {"handle_type": 0, "interpolation": 0, "handle_left": {"X": 0.5, "Y": 1.0}, "handle_right": {"X": 0.5, "Y": 0.0}, "co": {"X": 1.0, "Y": 0.0}}, {"handle_type": 0, "interpolation": 0, "handle_left": {"X": 0.5, "Y": 1.0}, "handle_right": {"X": 0.5, "Y": 0.0}, "co": {"X": 73.0, "Y": 1.0}}, {"handle_type": 0, "interpolation": 0, "handle_left": {"X": 0.5, "Y": 1.0}, "handle_right": {"X": 0.5, "Y": 0.0}, "co": {"X": 99.0, "Y": 1.0}}, {"handle_type": 0, "interpolation": 0, "handle_left": {"X": 0.5, "Y": 1.0}, "handle_right": {"X": 0.5, "Y": 0.0}, "co": {"X": 171.0, "Y": 0.0}}]}, "perspective_c1_x": {"Points": [{"interpolation": 2, "co": {"X": 1.0, "Y": -1.0}}]}, "gravity": 4, "shear_y": {"Points": [{"interpolation": 2, "co": {"X": 1.0, "Y": 0.0}}]}, "crop_height": {"Points": [{"interpolation": 2, "co": {"X": 1.0, "Y": -1.0}}]}, "scale": 1, "wave_color": {"green": {"Points": [{"handle_type": 0, "interpolation": 0, "handle_left": {"X": 0.5, "Y": 1.0}, "handle_right": {"X": 0.5, "Y": 0.0}, "co": {"X": 1.0, "Y": 123.0}}]}, "blue": {"Points": [{"handle_type": 0, "interpolation": 0, "handle_left": {"X": 0.5, "Y": 1.0}, "handle_right": {"X": 0.5, "Y": 0.0}, "co": {"X": 1.0, "Y": 255.0}}]}, "red": {"Points": [{"handle_type": 0, "interpolation": 0, "handle_left": {"X": 0.5, "Y": 1.0}, "handle_right": {"X": 0.5, "Y": 0.0}, "co": {"X": 1.0, "Y": 0.0}}]}, "alpha": {"Points": [{"handle_type": 0, "interpolation": 0, "handle_left": {"X": 0.5, "Y": 1.0}, "handle_right": {"X": 0.5, "Y": 0.0}, "co": {"X": 1.0, "Y": 255.0}}]}}, "perspective_c2_x": {"Points": [{"interpolation": 2, "co": {"X": 1.0, "Y": -1.0}}]}, "channel_mapping": {"Points": [{"interpolation": 2, "co": {"X": 1.0, "Y": -1.0}}]}}, {"anchor": 0, "has_audio": {"Points": [{"interpolation": 2, "co": {"X": 1.0, "Y": -1.0}}]}, "channel_filter": {"Points": [{"interpolation": 2, "co": {"X": 1.0, "Y": -1.0}}]}, "perspective_c2_x": {"Points": [{"interpolation": 2, "co": {"X": 1.0, "Y": -1.0}}]}, "perspective_c1_y": {"Points": [{"interpolation": 2, "co": {"X": 1.0, "Y": -1.0}}]}, "layer": 1, "reader": {"width": 1366, "acodec": "", "has_audio": false, "pixel_ratio": {"den": 1, "num": 1}, "has_video": true, "channels": 0, "file_size": "394038", "top_field_first": true, "video_bit_rate": 0, "fps": {"den": 1, "num": 25}, "type": "FFmpegReader", "channel_layout": 4, "audio_timebase": {"den": 1, "num": 1}, "path": "/home/milind/Data/Projects/ProgressCard/Clips/06-Create Progress Card Template.mkv", "audio_stream_index": -1, "duration": 44.0, "video_timebase": {"den": 1000, "num": 1}, "has_single_image": false, "height": 768, "interlaced_frame": false, "audio_bit_rate": 0, "pixel_format": 0, "video_stream_index": 0, "sample_rate": 0, "video_length": "1100", "display_ratio": {"den": 384, "num": 683}, "vcodec": "h264"}, "perspective_c3_y": {"Points": [{"interpolation": 2, "co": {"X": 1.0, "Y": -1.0}}]}, "effects": [], "title": "06-Create Progress Card Template.mkv", "start": 5.361666666666668, "position": 39.52, "has_video": {"Points": [{"interpolation": 2, "co": {"X": 1.0, "Y": -1.0}}]}, "time": {"Points": [{"interpolation": 2, "co": {"X": 1.0, "Y": 1.0}}]}, "crop_y": {"Points": [{"interpolation": 2, "co": {"X": 1.0, "Y": 0.0}}]}, "location_y": {"Points": [{"interpolation": 2, "co": {"X": 1.0, "Y": 0.0}}, {"interpolation": 1, "co": {"X": 803, "Y": -0.3199999928474426}}, {"interpolation": 1, "co": {"X": 1057, "Y": 0.0}}]}, "crop_width": {"Points": [{"interpolation": 2, "co": {"X": 1.0, "Y": -1.0}}]}, "scale_y": {"Points": [{"interpolation": 2, "co": {"X": 1.0, "Y": 1.0}}, {"interpolation": 1, "co": {"X": 803, "Y": 1.649999976158142}}, {"interpolation": 1, "co": {"X": 1057, "Y": 1.0}}]}, "crop_height": {"Points": [{"interpolation": 2, "co": {"X": 1.0, "Y": -1.0}}]}, "perspective_c4_y": {"Points": [{"interpolation": 2, "co": {"X": 1.0, "Y": -1.0}}]}, "display": 0, "location_x": {"Points": [{"interpolation": 2, "co": {"X": 1.0, "Y": 0.0}}]}, "volume": {"Points": [{"interpolation": 2, "co": {"X": 1.0, "Y": 1.0}}]}, "crop_x": {"Points": [{"interpolation": 2, "co": {"X": 1.0, "Y": 0.0}}]}, "shear_x": {"Points": [{"interpolation": 2, "co": {"X": 1.0, "Y": 0.0}}]}, "perspective_c4_x": {"Points": [{"interpolation": 2, "co": {"X": 1.0, "Y": -1.0}}]}, "waveform": false, "scale_x": {"Points": [{"interpolation": 2, "co": {"X": 1.0, "Y": 1.0}}, {"interpolation": 1, "co": {"X": 803, "Y": 1.649999976158142}}, {"interpolation": 1, "co": {"X": 1057, "Y": 1.0}}]}, "id": "NCU6KKCVQ7", "file_id": "XQEQ903ILK", "rotation": {"Points": [{"interpolation": 2, "co": {"X": 1.0, "Y": 0.0}}]}, "duration": 44.0, "perspective_c3_x": {"Points": [{"interpolation": 2, "co": {"X": 1.0, "Y": -1.0}}]}, "image": "/home/milind/.openshot_qt/thumbnail/XQEQ903ILK.png", "alpha": {"Points": [{"handle_type": 0, "interpolation": 0, "handle_left": {"X": 0.5, "Y": 1.0}, "handle_right": {"X": 0.5, "Y": 0.0}, "co": {"X": 1.0, "Y": 1.0}}, {"handle_type": 0, "interpolation": 0, "handle_left": {"X": 0.5, "Y": 1.0}, "handle_right": {"X": 0.5, "Y": 0.0}, "co": {"X": 130.0, "Y": 0.0}}, {"handle_type": 0, "interpolation": 0, "handle_left": {"X": 0.5, "Y": 1.0}, "handle_right": {"X": 0.5, "Y": 0.0}, "co": {"X": 202.0, "Y": 1.0}}, {"handle_type": 0, "interpolation": 0, "handle_left": {"X": 0.5, "Y": 1.0}, "handle_right": {"X": 0.5, "Y": 0.0}, "co": {"X": 943.0, "Y": 1.0}}, {"handle_type": 0, "interpolation": 0, "handle_left": {"X": 0.5, "Y": 1.0}, "handle_right": {"X": 0.5, "Y": 0.0}, "co": {"X": 1015.0, "Y": 0.0}}]}, "perspective_c1_x": {"Points": [{"interpolation": 2, "co": {"X": 1.0, "Y": -1.0}}]}, "gravity": 4, "shear_y": {"Points": [{"interpolation": 2, "co": {"X": 1.0, "Y": 0.0}}]}, "channel_mapping": {"Points": [{"interpolation": 2, "co": {"X": 1.0, "Y": -1.0}}]}, "scale": 1, "wave_color": {"green": {"Points": [{"handle_type": 0, "interpolation": 0, "handle_left": {"X": 0.5, "Y": 1.0}, "handle_right": {"X": 0.5, "Y": 0.0}, "co": {"X": 1.0, "Y": 123.0}}]}, "blue": {"Points": [{"handle_type": 0, "interpolation": 0, "handle_left": {"X": 0.5, "Y": 1.0}, "handle_right": {"X": 0.5, "Y": 0.0}, "co": {"X": 1.0, "Y": 255.0}}]}, "red": {"Points": [{"handle_type": 0, "interpolation": 0, "handle_left": {"X": 0.5, "Y": 1.0}, "handle_right": {"X": 0.5, "Y": 0.0}, "co": {"X": 1.0, "Y": 0.0}}]}, "alpha": {"Points": [{"handle_type": 0, "interpolation": 0, "handle_left": {"X": 0.5, "Y": 1.0}, "handle_right": {"X": 0.5, "Y": 0.0}, "co": {"X": 1.0, "Y": 255.0}}]}}, "perspective_c2_y": {"Points": [{"interpolation": 2, "co": {"X": 1.0, "Y": -1.0}}]}, "end": 42.258333333333326}, {"anchor": 0, "reader": {"width": 6803, "acodec": "", "has_audio": false, "pixel_ratio": {"den": 1, "num": 1}, "has_video": true, "channels": 0, "file_size": "104140324", "top_field_first": true, "video_bit_rate": 0, "fps": {"den": 1, "num": 30}, "type": "QtImageReader", "channel_layout": 4, "audio_timebase": {"den": 1, "num": 1}, "path": "/home/milind/Data/Projects/ProgressCard/Images/03-Title-In.svg", "audio_stream_index": -1, "duration": 86400.0, "video_timebase": {"den": 30, "num": 1}, "has_single_image": true, "height": 3827, "interlaced_frame": false, "audio_bit_rate": 0, "pixel_format": -1, "video_stream_index": -1, "sample_rate": 0, "video_length": "2592000", "display_ratio": {"den": 3827, "num": 6803}, "vcodec": ""}, "channel_filter": {"Points": [{"interpolation": 2, "co": {"X": 1.0, "Y": -1.0}}]}, "perspective_c1_y": {"Points": [{"interpolation": 2, "co": {"X": 1.0, "Y": -1.0}}]}, "perspective_c2_y": {"Points": [{"interpolation": 2, "co": {"X": 1.0, "Y": -1.0}}]}, "layer": 1, "shear_x": {"Points": [{"interpolation": 2, "co": {"X": 1.0, "Y": 0.0}}]}, "has_audio": {"Points": [{"interpolation": 2, "co": {"X": 1.0, "Y": -1.0}}]}, "perspective_c3_y": {"Points": [{"interpolation": 2, "co": {"X": 1.0, "Y": -1.0}}]}, "effects": [], "title": "03-Title-In.svg", "start": 0, "position": 7.52, "end": 5.2, "crop_y": {"Points": [{"interpolation": 2, "co": {"X": 1.0, "Y": 0.0}}]}, "gravity": 4, "crop_width": {"Points": [{"interpolation": 2, "co": {"X": 1.0, "Y": -1.0}}]}, "duration": 86400.0, "scale_y": {"Points": [{"interpolation": 2, "co": {"X": 1.0, "Y": 1.0}}]}, "volume": {"Points": [{"interpolation": 2, "co": {"X": 1.0, "Y": 1.0}}]}, "perspective_c4_y": {"Points": [{"interpolation": 2, "co": {"X": 1.0, "Y": -1.0}}]}, "display": 0, "location_x": {"Points": [{"interpolation": 2, "co": {"X": 1.0, "Y": 0.0}}]}, "wave_color": {"green": {"Points": [{"handle_type": 0, "interpolation": 0, "handle_left": {"X": 0.5, "Y": 1.0}, "handle_right": {"X": 0.5, "Y": 0.0}, "co": {"X": 1.0, "Y": 123.0}}]}, "blue": {"Points": [{"handle_type": 0, "interpolation": 0, "handle_left": {"X": 0.5, "Y": 1.0}, "handle_right": {"X": 0.5, "Y": 0.0}, "co": {"X": 1.0, "Y": 255.0}}]}, "red": {"Points": [{"handle_type": 0, "interpolation": 0, "handle_left": {"X": 0.5, "Y": 1.0}, "handle_right": {"X": 0.5, "Y": 0.0}, "co": {"X": 1.0, "Y": 0.0}}]}, "alpha": {"Points": [{"handle_type": 0, "interpolation": 0, "handle_left": {"X": 0.5, "Y": 1.0}, "handle_right": {"X": 0.5, "Y": 0.0}, "co": {"X": 1.0, "Y": 255.0}}]}}, "has_video": {"Points": [{"interpolation": 2, "co": {"X": 1.0, "Y": -1.0}}]}, "perspective_c4_x": {"Points": [{"interpolation": 2, "co": {"X": 1.0, "Y": -1.0}}]}, "waveform": false, "scale_x": {"Points": [{"interpolation": 2, "co": {"X": 1.0, "Y": 1.0}}]}, "id": "A67X93JE0R", "file_id": "V0JTT8RBI4", "rotation": {"Points": [{"interpolation": 2, "co": {"X": 1.0, "Y": 0.0}}]}, "time": {"Points": [{"interpolation": 2, "co": {"X": 1.0, "Y": 1.0}}]}, "perspective_c3_x": {"Points": [{"interpolation": 2, "co": {"X": 1.0, "Y": -1.0}}]}, "image": "/home/milind/.openshot_qt/thumbnail/V0JTT8RBI4.png", "alpha": {"Points": [{"interpolation": 2, "co": {"X": 1.0, "Y": 1.0}}, {"handle_type": 0, "interpolation": 0, "handle_left": {"X": 0.5, "Y": 1.0}, "handle_right": {"X": 0.5, "Y": 0.0}, "co": {"X": 1.0, "Y": 0.0}}, {"handle_type": 0, "interpolation": 0, "handle_left": {"X": 0.5, "Y": 1.0}, "handle_right": {"X": 0.5, "Y": 0.0}, "co": {"X": 73.0, "Y": 1.0}}, {"handle_type": 0, "interpolation": 0, "handle_left": {"X": 0.5, "Y": 1.0}, "handle_right": {"X": 0.5, "Y": 0.0}, "co": {"X": 54.0, "Y": 1.0}}, {"handle_type": 0, "interpolation": 0, "handle_left": {"X": 0.5, "Y": 1.0}, "handle_right": {"X": 0.5, "Y": 0.0}, "co": {"X": 126.0, "Y": 0.0}}]}, "perspective_c1_x": {"Points": [{"interpolation": 2, "co": {"X": 1.0, "Y": -1.0}}]}, "location_y": {"Points": [{"interpolation": 2, "co": {"X": 1.0, "Y": 0.0}}]}, "shear_y": {"Points": [{"interpolation": 2, "co": {"X": 1.0, "Y": 0.0}}]}, "crop_height": {"Points": [{"interpolation": 2, "co": {"X": 1.0, "Y": -1.0}}]}, "scale": 1, "crop_x": {"Points": [{"interpolation": 2, "co": {"X": 1.0, "Y": 0.0}}]}, "perspective_c2_x": {"Points": [{"interpolation": 2, "co": {"X": 1.0, "Y": -1.0}}]}, "channel_mapping": {"Points": [{"interpolation": 2, "co": {"X": 1.0, "Y": -1.0}}]}}, {"anchor": 0, "has_audio": {"Points": [{"interpolation": 2, "co": {"X": 1.0, "Y": -1.0}}]}, "channel_filter": {"Points": [{"interpolation": 2, "co": {"X": 1.0, "Y": -1.0}}]}, "perspective_c2_x": {"Points": [{"interpolation": 2, "co": {"X": 1.0, "Y": -1.0}}]}, "perspective_c1_y": {"Points": [{"interpolation": 2, "co": {"X": 1.0, "Y": -1.0}}]}, "layer": 1, "reader": {"width": 6803, "acodec": "", "has_audio": false, "pixel_ratio": {"den": 1, "num": 1}, "has_video": true, "sample_rate": 0, "channels": 0, "file_size": "104140324", "top_field_first": true, "video_bit_rate": 0, "duration": 86400.0, "fps": {"den": 1, "num": 30}, "type": "QtImageReader", "channel_layout": 4, "audio_timebase": {"den": 1, "num": 1}, "path": "/home/milind/Data/Projects/ProgressCard/Images/04-Slide-Create Card Template.svg", "audio_stream_index": -1, "video_timebase": {"den": 30, "num": 1}, "has_single_image": true, "height": 3827, "interlaced_frame": false, "audio_bit_rate": 0, "video_stream_index": -1, "pixel_format": -1, "video_length": "2592000", "display_ratio": {"den": 3827, "num": 6803}, "vcodec": ""}, "perspective_c3_y": {"Points": [{"interpolation": 2, "co": {"X": 1.0, "Y": -1.0}}]}, "effects": [], "title": "04-Slide-Create Card Template.svg", "start": 0, "position": 19.723333333333333, "has_video": {"Points": [{"interpolation": 2, "co": {"X": 1.0, "Y": -1.0}}]}, "time": {"Points": [{"interpolation": 2, "co": {"X": 1.0, "Y": 1.0}}]}, "crop_y": {"Points": [{"interpolation": 2, "co": {"X": 1.0, "Y": 0.0}}]}, "location_y": {"Points": [{"interpolation": 2, "co": {"X": 1.0, "Y": 0.0}}]}, "crop_width": {"Points": [{"interpolation": 2, "co": {"X": 1.0, "Y": -1.0}}]}, "scale_y": {"Points": [{"interpolation": 2, "co": {"X": 1.0, "Y": 1.0}}]}, "volume": {"Points": [{"interpolation": 2, "co": {"X": 1.0, "Y": 1.0}}]}, "perspective_c4_y": {"Points": [{"interpolation": 2, "co": {"X": 1.0, "Y": -1.0}}]}, "display": 0, "location_x": {"Points": [{"interpolation": 2, "co": {"X": 1.0, "Y": 0.0}}]}, "crop_height": {"Points": [{"interpolation": 2, "co": {"X": 1.0, "Y": -1.0}}]}, "crop_x": {"Points": [{"interpolation": 2, "co": {"X": 1.0, "Y": 0.0}}]}, "shear_x": {"Points": [{"interpolation": 2, "co": {"X": 1.0, "Y": 0.0}}]}, "perspective_c4_x": {"Points": [{"interpolation": 2, "co": {"X": 1.0, "Y": -1.0}}]}, "waveform": false, "scale_x": {"Points": [{"interpolation": 2, "co": {"X": 1.0, "Y": 1.0}}]}, "id": "OQVFZFG317", "file_id": "C0VL89HM2N", "rotation": {"Points": [{"interpolation": 2, "co": {"X": 1.0, "Y": 0.0}}]}, "duration": 86400.0, "perspective_c3_x": {"Points": [{"interpolation": 2, "co": {"X": 1.0, "Y": -1.0}}]}, "image": "/home/milind/.openshot_qt/thumbnail/C0VL89HM2N.png", "alpha": {"Points": [{"interpolation": 2, "co": {"X": 1.0, "Y": 1.0}}]}, "perspective_c1_x": {"Points": [{"interpolation": 2, "co": {"X": 1.0, "Y": -1.0}}]}, "gravity": 4, "shear_y": {"Points": [{"interpolation": 2, "co": {"X": 1.0, "Y": 0.0}}]}, "channel_mapping": {"Points": [{"interpolation": 2, "co": {"X": 1.0, "Y": -1.0}}]}, "scale": 1, "wave_color": {"green": {"Points": [{"handle_type": 0, "interpolation": 0, "handle_left": {"X": 0.5, "Y": 1.0}, "co": {"X": 1.0, "Y": 123.0}, "handle_right": {"X": 0.5, "Y": 0.0}}]}, "alpha": {"Points": [{"handle_type": 0, "interpolation": 0, "handle_left": {"X": 0.5, "Y": 1.0}, "co": {"X": 1.0, "Y": 255.0}, "handle_right": {"X": 0.5, "Y": 0.0}}]}, "red": {"Points": [{"handle_type": 0, "interpolation": 0, "handle_left": {"X": 0.5, "Y": 1.0}, "co": {"X": 1.0, "Y": 0.0}, "handle_right": {"X": 0.5, "Y": 0.0}}]}, "blue": {"Points": [{"handle_type": 0, "interpolation": 0, "handle_left": {"X": 0.5, "Y": 1.0}, "co": {"X": 1.0, "Y": 255.0}, "handle_right": {"X": 0.5, "Y": 0.0}}]}}, "perspective_c2_y": {"Points": [{"interpolation": 2, "co": {"X": 1.0, "Y": -1.0}}]}, "end": 10}]}, {"partial": false, "key": ["clips", {"id": "TL0AR8K26Q"}], "type": "update", "value": {"id": "TL0AR8K26Q", "start": 0, "end": 10, "image": "/home/milind/.openshot_qt/thumbnail/UXYIII238I.png", "layer": 1, "position": 29.760000000000005}, "old_values": {"anchor": 0, "has_audio": {"Points": [{"interpolation": 2, "co": {"X": 1.0, "Y": -1.0}}]}, "channel_filter": {"Points": [{"interpolation": 2, "co": {"X": 1.0, "Y": -1.0}}]}, "has_video": {"Points": [{"interpolation": 2, "co": {"X": 1.0, "Y": -1.0}}]}, "perspective_c2_y": {"Points": [{"interpolation": 2, "co": {"X": 1.0, "Y": -1.0}}]}, "layer": 1, "reader": {"width": 6803, "acodec": "", "has_audio": false, "pixel_ratio": {"den": 1, "num": 1}, "has_video": true, "sample_rate": 0, "channels": 0, "file_size": "104140324", "top_field_first": true, "video_bit_rate": 0, "duration": 86400.0, "fps": {"den": 1, "num": 30}, "type": "QtImageReader", "channel_layout": 4, "audio_timebase": {"den": 1, "num": 1}, "path": "/home/milind/Data/Projects/ProgressCard/Images/05-Title -Open Writer.svg", "audio_stream_index": -1, "video_timebase": {"den": 30, "num": 1}, "has_single_image": true, "height": 3827, "interlaced_frame": false, "audio_bit_rate": 0, "video_stream_index": -1, "pixel_format": -1, "video_length": "2592000", "display_ratio": {"den": 3827, "num": 6803}, "vcodec": ""}, "perspective_c3_y": {"Points": [{"interpolation": 2, "co": {"X": 1.0, "Y": -1.0}}]}, "effects": [], "perspective_c1_y": {"Points": [{"interpolation": 2, "co": {"X": 1.0, "Y": -1.0}}]}, "title": "05-Title -Open Writer.svg", "start": 0.0, "duration": 86400.0, "crop_y": {"Points": [{"interpolation": 2, "co": {"X": 1.0, "Y": 0.0}}]}, "location_y": {"Points": [{"interpolation": 2, "co": {"X": 1.0, "Y": 0.0}}]}, "perspective_c3_x": {"Points": [{"interpolation": 2, "co": {"X": 1.0, "Y": -1.0}}]}, "crop_width": {"Points": [{"interpolation": 2, "co": {"X": 1.0, "Y": -1.0}}]}, "channel_mapping": {"Points": [{"interpolation": 2, "co": {"X": 1.0, "Y": -1.0}}]}, "scale_y": {"Points": [{"interpolation": 2, "co": {"X": 1.0, "Y": 1.0}}]}, "crop_height": {"Points": [{"interpolation": 2, "co": {"X": 1.0, "Y": -1.0}}]}, "perspective_c1_x": {"Points": [{"interpolation": 2, "co": {"X": 1.0, "Y": -1.0}}]}, "perspective_c4_y": {"Points": [{"interpolation": 2, "co": {"X": 1.0, "Y": -1.0}}]}, "display": 0, "id": "TL0AR8K26Q", "crop_x": {"Points": [{"interpolation": 2, "co": {"X": 1.0, "Y": 0.0}}]}, "shear_x": {"Points": [{"interpolation": 2, "co": {"X": 1.0, "Y": 0.0}}]}, "perspective_c4_x": {"Points": [{"interpolation": 2, "co": {"X": 1.0, "Y": -1.0}}]}, "waveform": false, "scale_x": {"Points": [{"interpolation": 2, "co": {"X": 1.0, "Y": 1.0}}]}, "position": 33.12, "file_id": "UXYIII238I", "time": {"Points": [{"interpolation": 2, "co": {"X": 1.0, "Y": 1.0}}]}, "rotation": {"Points": [{"interpolation": 2, "co": {"X": 1.0, "Y": 0.0}}]}, "image": "/home/milind/.openshot_qt/thumbnail/UXYIII238I.png", "alpha": {"Points": [{"interpolation": 2, "co": {"X": 1.0, "Y": 1.0}}]}, "location_x": {"Points": [{"interpolation": 2, "co": {"X": 1.0, "Y": 0.0}}]}, "gravity": 4, "shear_y": {"Points": [{"interpolation": 2, "co": {"X": 1.0, "Y": 0.0}}]}, "volume": {"Points": [{"interpolation": 2, "co": {"X": 1.0, "Y": 1.0}}]}, "scale": 1, "wave_color": {"green": {"Points": [{"handle_type": 0, "interpolation": 0, "handle_left": {"X": 0.5, "Y": 1.0}, "co": {"X": 1.0, "Y": 123.0}, "handle_right": {"X": 0.5, "Y": 0.0}}]}, "alpha": {"Points": [{"handle_type": 0, "interpolation": 0, "handle_left": {"X": 0.5, "Y": 1.0}, "co": {"X": 1.0, "Y": 255.0}, "handle_right": {"X": 0.5, "Y": 0.0}}]}, "red": {"Points": [{"handle_type": 0, "interpolation": 0, "handle_left": {"X": 0.5, "Y": 1.0}, "co": {"X": 1.0, "Y": 0.0}, "handle_right": {"X": 0.5, "Y": 0.0}}]}, "blue": {"Points": [{"handle_type": 0, "interpolation": 0, "handle_left": {"X": 0.5, "Y": 1.0}, "co": {"X": 1.0, "Y": 255.0}, "handle_right": {"X": 0.5, "Y": 0.0}}]}}, "perspective_c2_x": {"Points": [{"interpolation": 2, "co": {"X": 1.0, "Y": -1.0}}]}, "end": 10.0}}, {"partial": false, "key": ["clips", {"id": "TL0AR8K26Q"}], "type": "update", "value": {"anchor": 0, "has_audio": {"Points": [{"interpolation": 2, "co": {"X": 1.0, "Y": -1.0}}]}, "channel_filter": {"Points": [{"interpolation": 2, "co": {"X": 1.0, "Y": -1.0}}]}, "perspective_c2_x": {"Points": [{"interpolation": 2, "co": {"X": 1.0, "Y": -1.0}}]}, "perspective_c1_y": {"Points": [{"interpolation": 2, "co": {"X": 1.0, "Y": -1.0}}]}, "layer": 1, "perspective_c3_y": {"Points": [{"interpolation": 2, "co": {"X": 1.0, "Y": -1.0}}]}, "effects": [], "title": "05-Title -Open Writer.svg", "start": 0, "position": 29.760000000000005, "has_video": {"Points": [{"interpolation": 2, "co": {"X": 1.0, "Y": -1.0}}]}, "time": {"Points": [{"interpolation": 2, "co": {"X": 1.0, "Y": 1.0}}]}, "crop_y": {"Points": [{"interpolation": 2, "co": {"X": 1.0, "Y": 0.0}}]}, "location_y": {"Points": [{"interpolation": 2, "co": {"X": 1.0, "Y": 0.0}}]}, "crop_width": {"Points": [{"interpolation": 2, "co": {"X": 1.0, "Y": -1.0}}]}, "scale_y": {"Points": [{"interpolation": 2, "co": {"X": 1.0, "Y": 1.0}}]}, "volume": {"Points": [{"interpolation": 2, "co": {"X": 1.0, "Y": 1.0}}]}, "perspective_c4_y": {"Points": [{"interpolation": 2, "co": {"X": 1.0, "Y": -1.0}}]}, "display": 0, "location_x": {"Points": [{"interpolation": 2, "co": {"X": 1.0, "Y": 0.0}}]}, "crop_height": {"Points": [{"interpolation": 2, "co": {"X": 1.0, "Y": -1.0}}]}, "crop_x": {"Points": [{"interpolation": 2, "co": {"X": 1.0, "Y": 0.0}}]}, "shear_x": {"Points": [{"interpolation": 2, "co": {"X": 1.0, "Y": 0.0}}]}, "perspective_c4_x": {"Points": [{"interpolation": 2, "co": {"X": 1.0, "Y": -1.0}}]}, "waveform": false, "scale_x": {"Points": [{"interpolation": 2, "co": {"X": 1.0, "Y": 1.0}}]}, "id": "TL0AR8K26Q", "file_id": "UXYIII238I", "rotation": {"Points": [{"interpolation": 2, "co": {"X": 1.0, "Y": 0.0}}]}, "duration": 86400.0, "perspective_c3_x": {"Points": [{"interpolation": 2, "co": {"X": 1.0, "Y": -1.0}}]}, "image": "/home/milind/.openshot_qt/thumbnail/UXYIII238I.png", "alpha": {"Points": [{"interpolation": 2, "co": {"X": 1.0, "Y": 1.0}}, {"handle_type": 0, "interpolation": 0, "handle_left": {"X": 0.5, "Y": 1.0}, "co": {"X": 1.0, "Y": 0.0}, "handle_right": {"X": 0.5, "Y": 0.0}}, {"handle_type": 0, "interpolation": 0, "handle_left": {"X": 0.5, "Y": 1.0}, "co": {"X": 73.0, "Y": 1.0}, "handle_right": {"X": 0.5, "Y": 0.0}}]}, "perspective_c1_x": {"Points": [{"interpolation": 2, "co": {"X": 1.0, "Y": -1.0}}]}, "gravity": 4, "shear_y": {"Points": [{"interpolation": 2, "co": {"X": 1.0, "Y": 0.0}}]}, "channel_mapping": {"Points": [{"interpolation": 2, "co": {"X": 1.0, "Y": -1.0}}]}, "scale": 1, "wave_color": {"green": {"Points": [{"handle_type": 0, "interpolation": 0, "handle_left": {"X": 0.5, "Y": 1.0}, "co": {"X": 1.0, "Y": 123.0}, "handle_right": {"X": 0.5, "Y": 0.0}}]}, "alpha": {"Points": [{"handle_type": 0, "interpolation": 0, "handle_left": {"X": 0.5, "Y": 1.0}, "co": {"X": 1.0, "Y": 255.0}, "handle_right": {"X": 0.5, "Y": 0.0}}]}, "red": {"Points": [{"handle_type": 0, "interpolation": 0, "handle_left": {"X": 0.5, "Y": 1.0}, "co": {"X": 1.0, "Y": 0.0}, "handle_right": {"X": 0.5, "Y": 0.0}}]}, "blue": {"Points": [{"handle_type": 0, "interpolation": 0, "handle_left": {"X": 0.5, "Y": 1.0}, "co": {"X": 1.0, "Y": 255.0}, "handle_right": {"X": 0.5, "Y": 0.0}}]}}, "perspective_c2_y": {"Points": [{"interpolation": 2, "co": {"X": 1.0, "Y": -1.0}}]}, "end": 10}, "old_values": {"anchor": 0, "has_audio": {"Points": [{"interpolation": 2, "co": {"X": 1.0, "Y": -1.0}}]}, "channel_filter": {"Points": [{"interpolation": 2, "co": {"X": 1.0, "Y": -1.0}}]}, "perspective_c2_x": {"Points": [{"interpolation": 2, "co": {"X": 1.0, "Y": -1.0}}]}, "perspective_c1_y": {"Points": [{"interpolation": 2, "co": {"X": 1.0, "Y": -1.0}}]}, "layer": 1, "reader": {"width": 6803, "acodec": "", "has_audio": false, "pixel_ratio": {"den": 1, "num": 1}, "has_video": true, "sample_rate": 0, "channels": 0, "file_size": "104140324", "top_field_first": true, "video_bit_rate": 0, "duration": 86400.0, "fps": {"den": 1, "num": 30}, "type": "QtImageReader", "channel_layout": 4, "audio_timebase": {"den": 1, "num": 1}, "path": "/home/milind/Data/Projects/ProgressCard/Images/05-Title -Open Writer.svg", "audio_stream_index": -1, "video_timebase": {"den": 30, "num": 1}, "has_single_image": true, "height": 3827, "interlaced_frame": false, "audio_bit_rate": 0, "video_stream_index": -1, "pixel_format": -1, "video_length": "2592000", "display_ratio": {"den": 3827, "num": 6803}, "vcodec": ""}, "perspective_c3_y": {"Points": [{"interpolation": 2, "co": {"X": 1.0, "Y": -1.0}}]}, "effects": [], "title": "05-Title -Open Writer.svg", "start": 0, "position": 29.760000000000005, "has_video": {"Points": [{"interpolation": 2, "co": {"X": 1.0, "Y": -1.0}}]}, "time": {"Points": [{"interpolation": 2, "co": {"X": 1.0, "Y": 1.0}}]}, "crop_y": {"Points": [{"interpolation": 2, "co": {"X": 1.0, "Y": 0.0}}]}, "location_y": {"Points": [{"interpolation": 2, "co": {"X": 1.0, "Y": 0.0}}]}, "crop_width": {"Points": [{"interpolation": 2, "co": {"X": 1.0, "Y": -1.0}}]}, "scale_y": {"Points": [{"interpolation": 2, "co": {"X": 1.0, "Y": 1.0}}]}, "volume": {"Points": [{"interpolation": 2, "co": {"X": 1.0, "Y": 1.0}}]}, "perspective_c4_y": {"Points": [{"interpolation": 2, "co": {"X": 1.0, "Y": -1.0}}]}, "display": 0, "location_x": {"Points": [{"interpolation": 2, "co": {"X": 1.0, "Y": 0.0}}]}, "crop_height": {"Points": [{"interpolation": 2, "co": {"X": 1.0, "Y": -1.0}}]}, "crop_x": {"Points": [{"interpolation": 2, "co": {"X": 1.0, "Y": 0.0}}]}, "shear_x": {"Points": [{"interpolation": 2, "co": {"X": 1.0, "Y": 0.0}}]}, "perspective_c4_x": {"Points": [{"interpolation": 2, "co": {"X": 1.0, "Y": -1.0}}]}, "waveform": false, "scale_x": {"Points": [{"interpolation": 2, "co": {"X": 1.0, "Y": 1.0}}]}, "id": "TL0AR8K26Q", "file_id": "UXYIII238I", "rotation": {"Points": [{"interpolation": 2, "co": {"X": 1.0, "Y": 0.0}}]}, "duration": 86400.0, "perspective_c3_x": {"Points": [{"interpolation": 2, "co": {"X": 1.0, "Y": -1.0}}]}, "image": "/home/milind/.openshot_qt/thumbnail/UXYIII238I.png", "alpha": {"Points": [{"interpolation": 2, "co": {"X": 1.0, "Y": 1.0}}]}, "perspective_c1_x": {"Points": [{"interpolation": 2, "co": {"X": 1.0, "Y": -1.0}}]}, "gravity": 4, "shear_y": {"Points": [{"interpolation": 2, "co": {"X": 1.0, "Y": 0.0}}]}, "channel_mapping": {"Points": [{"interpolation": 2, "co": {"X": 1.0, "Y": -1.0}}]}, "scale": 1, "wave_color": {"green": {"Points": [{"handle_type": 0, "interpolation": 0, "handle_left": {"X": 0.5, "Y": 1.0}, "co": {"X": 1.0, "Y": 123.0}, "handle_right": {"X": 0.5, "Y": 0.0}}]}, "alpha": {"Points": [{"handle_type": 0, "interpolation": 0, "handle_left": {"X": 0.5, "Y": 1.0}, "co": {"X": 1.0, "Y": 255.0}, "handle_right": {"X": 0.5, "Y": 0.0}}]}, "red": {"Points": [{"handle_type": 0, "interpolation": 0, "handle_left": {"X": 0.5, "Y": 1.0}, "co": {"X": 1.0, "Y": 0.0}, "handle_right": {"X": 0.5, "Y": 0.0}}]}, "blue": {"Points": [{"handle_type": 0, "interpolation": 0, "handle_left": {"X": 0.5, "Y": 1.0}, "co": {"X": 1.0, "Y": 255.0}, "handle_right": {"X": 0.5, "Y": 0.0}}]}}, "perspective_c2_y": {"Points": [{"interpolation": 2, "co": {"X": 1.0, "Y": -1.0}}]}, "end": 10}}, {"partial": false, "key": ["clips", {"id": "OQVFZFG317"}], "type": "update", "value": {"anchor": 0, "has_audio": {"Points": [{"interpolation": 2, "co": {"X": 1.0, "Y": -1.0}}]}, "channel_filter": {"Points": [{"interpolation": 2, "co": {"X": 1.0, "Y": -1.0}}]}, "perspective_c2_x": {"Points": [{"interpolation": 2, "co": {"X": 1.0, "Y": -1.0}}]}, "perspective_c1_y": {"Points": [{"interpolation": 2, "co": {"X": 1.0, "Y": -1.0}}]}, "layer": 1, "perspective_c3_y": {"Points": [{"interpolation": 2, "co": {"X": 1.0, "Y": -1.0}}]}, "effects": [], "title": "04-Slide-Create Card Template.svg", "start": 0, "position": 19.723333333333333, "has_video": {"Points": [{"interpolation": 2, "co": {"X": 1.0, "Y": -1.0}}]}, "time": {"Points": [{"interpolation": 2, "co": {"X": 1.0, "Y": 1.0}}]}, "crop_y": {"Points": [{"interpolation": 2, "co": {"X": 1.0, "Y": 0.0}}]}, "location_y": {"Points": [{"interpolation": 2, "co": {"X": 1.0, "Y": 0.0}}]}, "crop_width": {"Points": [{"interpolation": 2, "co": {"X": 1.0, "Y": -1.0}}]}, "scale_y": {"Points": [{"interpolation": 2, "co": {"X": 1.0, "Y": 1.0}}]}, "volume": {"Points": [{"interpolation": 2, "co": {"X": 1.0, "Y": 1.0}}]}, "perspective_c4_y": {"Points": [{"interpolation": 2, "co": {"X": 1.0, "Y": -1.0}}]}, "display": 0, "location_x": {"Points": [{"interpolation": 2, "co": {"X": 1.0, "Y": 0.0}}]}, "crop_height": {"Points": [{"interpolation": 2, "co": {"X": 1.0, "Y": -1.0}}]}, "crop_x": {"Points": [{"interpolation": 2, "co": {"X": 1.0, "Y": 0.0}}]}, "shear_x": {"Points": [{"interpolation": 2, "co": {"X": 1.0, "Y": 0.0}}]}, "perspective_c4_x": {"Points": [{"interpolation": 2, "co": {"X": 1.0, "Y": -1.0}}]}, "waveform": false, "scale_x": {"Points": [{"interpolation": 2, "co": {"X": 1.0, "Y": 1.0}}]}, "id": "OQVFZFG317", "file_id": "C0VL89HM2N", "rotation": {"Points": [{"interpolation": 2, "co": {"X": 1.0, "Y": 0.0}}]}, "duration": 86400.0, "perspective_c3_x": {"Points": [{"interpolation": 2, "co": {"X": 1.0, "Y": -1.0}}]}, "image": "/home/milind/.openshot_qt/thumbnail/C0VL89HM2N.png", "alpha": {"Points": [{"interpolation": 2, "co": {"X": 1.0, "Y": 1.0}}, {"handle_type": 0, "interpolation": 0, "handle_left": {"X": 0.5, "Y": 1.0}, "co": {"X": 1.0, "Y": 0.0}, "handle_right": {"X": 0.5, "Y": 0.0}}, {"handle_type": 0, "interpolation": 0, "handle_left": {"X": 0.5, "Y": 1.0}, "co": {"X": 73.0, "Y": 1.0}, "handle_right": {"X": 0.5, "Y": 0.0}}]}, "perspective_c1_x": {"Points": [{"interpolation": 2, "co": {"X": 1.0, "Y": -1.0}}]}, "gravity": 4, "shear_y": {"Points": [{"interpolation": 2, "co": {"X": 1.0, "Y": 0.0}}]}, "channel_mapping": {"Points": [{"interpolation": 2, "co": {"X": 1.0, "Y": -1.0}}]}, "scale": 1, "wave_color": {"green": {"Points": [{"handle_type": 0, "interpolation": 0, "handle_left": {"X": 0.5, "Y": 1.0}, "co": {"X": 1.0, "Y": 123.0}, "handle_right": {"X": 0.5, "Y": 0.0}}]}, "alpha": {"Points": [{"handle_type": 0, "interpolation": 0, "handle_left": {"X": 0.5, "Y": 1.0}, "co": {"X": 1.0, "Y": 255.0}, "handle_right": {"X": 0.5, "Y": 0.0}}]}, "red": {"Points": [{"handle_type": 0, "interpolation": 0, "handle_left": {"X": 0.5, "Y": 1.0}, "co": {"X": 1.0, "Y": 0.0}, "handle_right": {"X": 0.5, "Y": 0.0}}]}, "blue": {"Points": [{"handle_type": 0, "interpolation": 0, "handle_left": {"X": 0.5, "Y": 1.0}, "co": {"X": 1.0, "Y": 255.0}, "handle_right": {"X": 0.5, "Y": 0.0}}]}}, "perspective_c2_y": {"Points": [{"interpolation": 2, "co": {"X": 1.0, "Y": -1.0}}]}, "end": 10}, "old_values": {"anchor": 0, "has_audio": {"Points": [{"interpolation": 2, "co": {"X": 1.0, "Y": -1.0}}]}, "channel_filter": {"Points": [{"interpolation": 2, "co": {"X": 1.0, "Y": -1.0}}]}, "perspective_c2_x": {"Points": [{"interpolation": 2, "co": {"X": 1.0, "Y": -1.0}}]}, "perspective_c1_y": {"Points": [{"interpolation": 2, "co": {"X": 1.0, "Y": -1.0}}]}, "layer": 1, "reader": {"width": 6803, "acodec": "", "has_audio": false, "pixel_ratio": {"den": 1, "num": 1}, "has_video": true, "sample_rate": 0, "channels": 0, "file_size": "104140324", "top_field_first": true, "video_bit_rate": 0, "duration": 86400.0, "fps": {"den": 1, "num": 30}, "type": "QtImageReader", "channel_layout": 4, "audio_timebase": {"den": 1, "num": 1}, "path": "/home/milind/Data/Projects/ProgressCard/Images/04-Slide-Create Card Template.svg", "audio_stream_index": -1, "video_timebase": {"den": 30, "num": 1}, "has_single_image": true, "height": 3827, "interlaced_frame": false, "audio_bit_rate": 0, "video_stream_index": -1, "pixel_format": -1, "video_length": "2592000", "display_ratio": {"den": 3827, "num": 6803}, "vcodec": ""}, "perspective_c3_y": {"Points": [{"interpolation": 2, "co": {"X": 1.0, "Y": -1.0}}]}, "effects": [], "title": "04-Slide-Create Card Template.svg", "start": 0, "position": 19.723333333333333, "has_video": {"Points": [{"interpolation": 2, "co": {"X": 1.0, "Y": -1.0}}]}, "time": {"Points": [{"interpolation": 2, "co": {"X": 1.0, "Y": 1.0}}]}, "crop_y": {"Points": [{"interpolation": 2, "co": {"X": 1.0, "Y": 0.0}}]}, "location_y": {"Points": [{"interpolation": 2, "co": {"X": 1.0, "Y": 0.0}}]}, "crop_width": {"Points": [{"interpolation": 2, "co": {"X": 1.0, "Y": -1.0}}]}, "scale_y": {"Points": [{"interpolation": 2, "co": {"X": 1.0, "Y": 1.0}}]}, "volume": {"Points": [{"interpolation": 2, "co": {"X": 1.0, "Y": 1.0}}]}, "perspective_c4_y": {"Points": [{"interpolation": 2, "co": {"X": 1.0, "Y": -1.0}}]}, "display": 0, "location_x": {"Points": [{"interpolation": 2, "co": {"X": 1.0, "Y": 0.0}}]}, "crop_height": {"Points": [{"interpolation": 2, "co": {"X": 1.0, "Y": -1.0}}]}, "crop_x": {"Points": [{"interpolation": 2, "co": {"X": 1.0, "Y": 0.0}}]}, "shear_x": {"Points": [{"interpolation": 2, "co": {"X": 1.0, "Y": 0.0}}]}, "perspective_c4_x": {"Points": [{"interpolation": 2, "co": {"X": 1.0, "Y": -1.0}}]}, "waveform": false, "scale_x": {"Points": [{"interpolation": 2, "co": {"X": 1.0, "Y": 1.0}}]}, "id": "OQVFZFG317", "file_id": "C0VL89HM2N", "rotation": {"Points": [{"interpolation": 2, "co": {"X": 1.0, "Y": 0.0}}]}, "duration": 86400.0, "perspective_c3_x": {"Points": [{"interpolation": 2, "co": {"X": 1.0, "Y": -1.0}}]}, "image": "/home/milind/.openshot_qt/thumbnail/C0VL89HM2N.png", "alpha": {"Points": [{"interpolation": 2, "co": {"X": 1.0, "Y": 1.0}}]}, "perspective_c1_x": {"Points": [{"interpolation": 2, "co": {"X": 1.0, "Y": -1.0}}]}, "gravity": 4, "shear_y": {"Points": [{"interpolation": 2, "co": {"X": 1.0, "Y": 0.0}}]}, "channel_mapping": {"Points": [{"interpolation": 2, "co": {"X": 1.0, "Y": -1.0}}]}, "scale": 1, "wave_color": {"green": {"Points": [{"handle_type": 0, "interpolation": 0, "handle_left": {"X": 0.5, "Y": 1.0}, "co": {"X": 1.0, "Y": 123.0}, "handle_right": {"X": 0.5, "Y": 0.0}}]}, "alpha": {"Points": [{"handle_type": 0, "interpolation": 0, "handle_left": {"X": 0.5, "Y": 1.0}, "co": {"X": 1.0, "Y": 255.0}, "handle_right": {"X": 0.5, "Y": 0.0}}]}, "red": {"Points": [{"handle_type": 0, "interpolation": 0, "handle_left": {"X": 0.5, "Y": 1.0}, "co": {"X": 1.0, "Y": 0.0}, "handle_right": {"X": 0.5, "Y": 0.0}}]}, "blue": {"Points": [{"handle_type": 0, "interpolation": 0, "handle_left": {"X": 0.5, "Y": 1.0}, "co": {"X": 1.0, "Y": 255.0}, "handle_right": {"X": 0.5, "Y": 0.0}}]}}, "perspective_c2_y": {"Points": [{"interpolation": 2, "co": {"X": 1.0, "Y": -1.0}}]}, "end": 10}}, {"partial": false, "key": ["clips", {"id": "TL0AR8K26Q"}], "type": "update", "value": {"anchor": 0, "has_audio": {"Points": [{"interpolation": 2, "co": {"X": 1.0, "Y": -1.0}}]}, "channel_filter": {"Points": [{"interpolation": 2, "co": {"X": 1.0, "Y": -1.0}}]}, "perspective_c2_x": {"Points": [{"interpolation": 2, "co": {"X": 1.0, "Y": -1.0}}]}, "perspective_c1_y": {"Points": [{"interpolation": 2, "co": {"X": 1.0, "Y": -1.0}}]}, "layer": 1, "perspective_c3_y": {"Points": [{"interpolation": 2, "co": {"X": 1.0, "Y": -1.0}}]}, "effects": [], "title": "05-Title -Open Writer.svg", "start": 0, "position": 29.760000000000005, "has_video": {"Points": [{"interpolation": 2, "co": {"X": 1.0, "Y": -1.0}}]}, "time": {"Points": [{"interpolation": 2, "co": {"X": 1.0, "Y": 1.0}}]}, "crop_y": {"Points": [{"interpolation": 2, "co": {"X": 1.0, "Y": 0.0}}]}, "location_y": {"Points": [{"interpolation": 2, "co": {"X": 1.0, "Y": 0.0}}]}, "crop_width": {"Points": [{"interpolation": 2, "co": {"X": 1.0, "Y": -1.0}}]}, "scale_y": {"Points": [{"interpolation": 2, "co": {"X": 1.0, "Y": 1.0}}]}, "volume": {"Points": [{"interpolation": 2, "co": {"X": 1.0, "Y": 1.0}}]}, "perspective_c4_y": {"Points": [{"interpolation": 2, "co": {"X": 1.0, "Y": -1.0}}]}, "display": 0, "location_x": {"Points": [{"interpolation": 2, "co": {"X": 1.0, "Y": 0.0}}]}, "crop_height": {"Points": [{"interpolation": 2, "co": {"X": 1.0, "Y": -1.0}}]}, "crop_x": {"Points": [{"interpolation": 2, "co": {"X": 1.0, "Y": 0.0}}]}, "shear_x": {"Points": [{"interpolation": 2, "co": {"X": 1.0, "Y": 0.0}}]}, "perspective_c4_x": {"Points": [{"interpolation": 2, "co": {"X": 1.0, "Y": -1.0}}]}, "waveform": false, "scale_x": {"Points": [{"interpolation": 2, "co": {"X": 1.0, "Y": 1.0}}]}, "id": "TL0AR8K26Q", "file_id": "UXYIII238I", "rotation": {"Points": [{"interpolation": 2, "co": {"X": 1.0, "Y": 0.0}}]}, "duration": 86400.0, "perspective_c3_x": {"Points": [{"interpolation": 2, "co": {"X": 1.0, "Y": -1.0}}]}, "image": "/home/milind/.openshot_qt/thumbnail/UXYIII238I.png", "alpha": {"Points": [{"interpolation": 2, "co": {"X": 1.0, "Y": 1.0}}, {"handle_type": 0, "interpolation": 0, "handle_left": {"X": 0.5, "Y": 1.0}, "co": {"X": 1.0, "Y": 0.0}, "handle_right": {"X": 0.5, "Y": 0.0}}, {"handle_type": 0, "interpolation": 0, "handle_left": {"X": 0.5, "Y": 1.0}, "co": {"X": 73.0, "Y": 1.0}, "handle_right": {"X": 0.5, "Y": 0.0}}, {"handle_type": 0, "interpolation": 0, "handle_left": {"X": 0.5, "Y": 1.0}, "co": {"X": 169.0, "Y": 1.0}, "handle_right": {"X": 0.5, "Y": 0.0}}, {"handle_type": 0, "interpolation": 0, "handle_left": {"X": 0.5, "Y": 1.0}, "co": {"X": 241.0, "Y": 0.0}, "handle_right": {"X": 0.5, "Y": 0.0}}]}, "perspective_c1_x": {"Points": [{"interpolation": 2, "co": {"X": 1.0, "Y": -1.0}}]}, "gravity": 4, "shear_y": {"Points": [{"interpolation": 2, "co": {"X": 1.0, "Y": 0.0}}]}, "channel_mapping": {"Points": [{"interpolation": 2, "co": {"X": 1.0, "Y": -1.0}}]}, "scale": 1, "wave_color": {"green": {"Points": [{"handle_type": 0, "interpolation": 0, "handle_left": {"X": 0.5, "Y": 1.0}, "co": {"X": 1.0, "Y": 123.0}, "handle_right": {"X": 0.5, "Y": 0.0}}]}, "blue": {"Points": [{"handle_type": 0, "interpolation": 0, "handle_left": {"X": 0.5, "Y": 1.0}, "co": {"X": 1.0, "Y": 255.0}, "handle_right": {"X": 0.5, "Y": 0.0}}]}, "red": {"Points": [{"handle_type": 0, "interpolation": 0, "handle_left": {"X": 0.5, "Y": 1.0}, "co": {"X": 1.0, "Y": 0.0}, "handle_right": {"X": 0.5, "Y": 0.0}}]}, "alpha": {"Points": [{"handle_type": 0, "interpolation": 0, "handle_left": {"X": 0.5, "Y": 1.0}, "co": {"X": 1.0, "Y": 255.0}, "handle_right": {"X": 0.5, "Y": 0.0}}]}}, "perspective_c2_y": {"Points": [{"interpolation": 2, "co": {"X": 1.0, "Y": -1.0}}]}, "end": 10}, "old_values": {"anchor": 0, "has_audio": {"Points": [{"interpolation": 2, "co": {"X": 1.0, "Y": -1.0}}]}, "channel_filter": {"Points": [{"interpolation": 2, "co": {"X": 1.0, "Y": -1.0}}]}, "perspective_c2_x": {"Points": [{"interpolation": 2, "co": {"X": 1.0, "Y": -1.0}}]}, "perspective_c1_y": {"Points": [{"interpolation": 2, "co": {"X": 1.0, "Y": -1.0}}]}, "layer": 1, "reader": {"width": 6803, "acodec": "", "has_audio": false, "pixel_ratio": {"den": 1, "num": 1}, "has_video": true, "sample_rate": 0, "channels": 0, "file_size": "104140324", "top_field_first": true, "video_bit_rate": 0, "duration": 86400.0, "fps": {"den": 1, "num": 30}, "type": "QtImageReader", "channel_layout": 4, "audio_timebase": {"den": 1, "num": 1}, "path": "/home/milind/Data/Projects/ProgressCard/Images/05-Title -Open Writer.svg", "audio_stream_index": -1, "video_timebase": {"den": 30, "num": 1}, "has_single_image": true, "height": 3827, "interlaced_frame": false, "audio_bit_rate": 0, "video_stream_index": -1, "pixel_format": -1, "video_length": "2592000", "display_ratio": {"den": 3827, "num": 6803}, "vcodec": ""}, "perspective_c3_y": {"Points": [{"interpolation": 2, "co": {"X": 1.0, "Y": -1.0}}]}, "effects": [], "title": "05-Title -Open Writer.svg", "start": 0, "position": 29.760000000000005, "has_video": {"Points": [{"interpolation": 2, "co": {"X": 1.0, "Y": -1.0}}]}, "time": {"Points": [{"interpolation": 2, "co": {"X": 1.0, "Y": 1.0}}]}, "crop_y": {"Points": [{"interpolation": 2, "co": {"X": 1.0, "Y": 0.0}}]}, "location_y": {"Points": [{"interpolation": 2, "co": {"X": 1.0, "Y": 0.0}}]}, "crop_width": {"Points": [{"interpolation": 2, "co": {"X": 1.0, "Y": -1.0}}]}, "scale_y": {"Points": [{"interpolation": 2, "co": {"X": 1.0, "Y": 1.0}}]}, "volume": {"Points": [{"interpolation": 2, "co": {"X": 1.0, "Y": 1.0}}]}, "perspective_c4_y": {"Points": [{"interpolation": 2, "co": {"X": 1.0, "Y": -1.0}}]}, "display": 0, "location_x": {"Points": [{"interpolation": 2, "co": {"X": 1.0, "Y": 0.0}}]}, "crop_height": {"Points": [{"interpolation": 2, "co": {"X": 1.0, "Y": -1.0}}]}, "crop_x": {"Points": [{"interpolation": 2, "co": {"X": 1.0, "Y": 0.0}}]}, "shear_x": {"Points": [{"interpolation": 2, "co": {"X": 1.0, "Y": 0.0}}]}, "perspective_c4_x": {"Points": [{"interpolation": 2, "co": {"X": 1.0, "Y": -1.0}}]}, "waveform": false, "scale_x": {"Points": [{"interpolation": 2, "co": {"X": 1.0, "Y": 1.0}}]}, "id": "TL0AR8K26Q", "file_id": "UXYIII238I", "rotation": {"Points": [{"interpolation": 2, "co": {"X": 1.0, "Y": 0.0}}]}, "duration": 86400.0, "perspective_c3_x": {"Points": [{"interpolation": 2, "co": {"X": 1.0, "Y": -1.0}}]}, "image": "/home/milind/.openshot_qt/thumbnail/UXYIII238I.png", "alpha": {"Points": [{"interpolation": 2, "co": {"X": 1.0, "Y": 1.0}}, {"handle_type": 0, "interpolation": 0, "handle_left": {"X": 0.5, "Y": 1.0}, "co": {"X": 1.0, "Y": 0.0}, "handle_right": {"X": 0.5, "Y": 0.0}}, {"handle_type": 0, "interpolation": 0, "handle_left": {"X": 0.5, "Y": 1.0}, "co": {"X": 73.0, "Y": 1.0}, "handle_right": {"X": 0.5, "Y": 0.0}}]}, "perspective_c1_x": {"Points": [{"interpolation": 2, "co": {"X": 1.0, "Y": -1.0}}]}, "gravity": 4, "shear_y": {"Points": [{"interpolation": 2, "co": {"X": 1.0, "Y": 0.0}}]}, "channel_mapping": {"Points": [{"interpolation": 2, "co": {"X": 1.0, "Y": -1.0}}]}, "scale": 1, "wave_color": {"green": {"Points": [{"handle_type": 0, "interpolation": 0, "handle_left": {"X": 0.5, "Y": 1.0}, "co": {"X": 1.0, "Y": 123.0}, "handle_right": {"X": 0.5, "Y": 0.0}}]}, "blue": {"Points": [{"handle_type": 0, "interpolation": 0, "handle_left": {"X": 0.5, "Y": 1.0}, "co": {"X": 1.0, "Y": 255.0}, "handle_right": {"X": 0.5, "Y": 0.0}}]}, "red": {"Points": [{"handle_type": 0, "interpolation": 0, "handle_left": {"X": 0.5, "Y": 1.0}, "co": {"X": 1.0, "Y": 0.0}, "handle_right": {"X": 0.5, "Y": 0.0}}]}, "alpha": {"Points": [{"handle_type": 0, "interpolation": 0, "handle_left": {"X": 0.5, "Y": 1.0}, "co": {"X": 1.0, "Y": 255.0}, "handle_right": {"X": 0.5, "Y": 0.0}}]}}, "perspective_c2_y": {"Points": [{"interpolation": 2, "co": {"X": 1.0, "Y": -1.0}}]}, "end": 10}}, {"partial": false, "key": ["clips", {"id": "OQVFZFG317"}], "type": "update", "value": {"anchor": 0, "has_audio": {"Points": [{"interpolation": 2, "co": {"X": 1.0, "Y": -1.0}}]}, "channel_filter": {"Points": [{"interpolation": 2, "co": {"X": 1.0, "Y": -1.0}}]}, "perspective_c2_x": {"Points": [{"interpolation": 2, "co": {"X": 1.0, "Y": -1.0}}]}, "perspective_c1_y": {"Points": [{"interpolation": 2, "co": {"X": 1.0, "Y": -1.0}}]}, "layer": 1, "perspective_c3_y": {"Points": [{"interpolation": 2, "co": {"X": 1.0, "Y": -1.0}}]}, "effects": [], "title": "04-Slide-Create Card Template.svg", "start": 0, "position": 19.723333333333333, "has_video": {"Points": [{"interpolation": 2, "co": {"X": 1.0, "Y": -1.0}}]}, "time": {"Points": [{"interpolation": 2, "co": {"X": 1.0, "Y": 1.0}}]}, "crop_y": {"Points": [{"interpolation": 2, "co": {"X": 1.0, "Y": 0.0}}]}, "location_y": {"Points": [{"interpolation": 2, "co": {"X": 1.0, "Y": 0.0}}]}, "crop_width": {"Points": [{"interpolation": 2, "co": {"X": 1.0, "Y": -1.0}}]}, "scale_y": {"Points": [{"interpolation": 2, "co": {"X": 1.0, "Y": 1.0}}]}, "volume": {"Points": [{"interpolation": 2, "co": {"X": 1.0, "Y": 1.0}}]}, "perspective_c4_y": {"Points": [{"interpolation": 2, "co": {"X": 1.0, "Y": -1.0}}]}, "display": 0, "location_x": {"Points": [{"interpolation": 2, "co": {"X": 1.0, "Y": 0.0}}]}, "crop_height": {"Points": [{"interpolation": 2, "co": {"X": 1.0, "Y": -1.0}}]}, "crop_x": {"Points": [{"interpolation": 2, "co": {"X": 1.0, "Y": 0.0}}]}, "shear_x": {"Points": [{"interpolation": 2, "co": {"X": 1.0, "Y": 0.0}}]}, "perspective_c4_x": {"Points": [{"interpolation": 2, "co": {"X": 1.0, "Y": -1.0}}]}, "waveform": false, "scale_x": {"Points": [{"interpolation": 2, "co": {"X": 1.0, "Y": 1.0}}]}, "id": "OQVFZFG317", "file_id": "C0VL89HM2N", "rotation": {"Points": [{"interpolation": 2, "co": {"X": 1.0, "Y": 0.0}}]}, "duration": 86400.0, "perspective_c3_x": {"Points": [{"interpolation": 2, "co": {"X": 1.0, "Y": -1.0}}]}, "image": "/home/milind/.openshot_qt/thumbnail/C0VL89HM2N.png", "alpha": {"Points": [{"interpolation": 2, "co": {"X": 1.0, "Y": 1.0}}, {"handle_type": 0, "interpolation": 0, "handle_left": {"X": 0.5, "Y": 1.0}, "co": {"X": 1.0, "Y": 0.0}, "handle_right": {"X": 0.5, "Y": 0.0}}, {"handle_type": 0, "interpolation": 0, "handle_left": {"X": 0.5, "Y": 1.0}, "co": {"X": 73.0, "Y": 1.0}, "handle_right": {"X": 0.5, "Y": 0.0}}, {"handle_type": 0, "interpolation": 0, "handle_left": {"X": 0.5, "Y": 1.0}, "co": {"X": 169.0, "Y": 1.0}, "handle_right": {"X": 0.5, "Y": 0.0}}, {"handle_type": 0, "interpolation": 0, "handle_left": {"X": 0.5, "Y": 1.0}, "co": {"X": 241.0, "Y": 0.0}, "handle_right": {"X": 0.5, "Y": 0.0}}]}, "perspective_c1_x": {"Points": [{"interpolation": 2, "co": {"X": 1.0, "Y": -1.0}}]}, "gravity": 4, "shear_y": {"Points": [{"interpolation": 2, "co": {"X": 1.0, "Y": 0.0}}]}, "channel_mapping": {"Points": [{"interpolation": 2, "co": {"X": 1.0, "Y": -1.0}}]}, "scale": 1, "wave_color": {"green": {"Points": [{"handle_type": 0, "interpolation": 0, "handle_left": {"X": 0.5, "Y": 1.0}, "co": {"X": 1.0, "Y": 123.0}, "handle_right": {"X": 0.5, "Y": 0.0}}]}, "blue": {"Points": [{"handle_type": 0, "interpolation": 0, "handle_left": {"X": 0.5, "Y": 1.0}, "co": {"X": 1.0, "Y": 255.0}, "handle_right": {"X": 0.5, "Y": 0.0}}]}, "red": {"Points": [{"handle_type": 0, "interpolation": 0, "handle_left": {"X": 0.5, "Y": 1.0}, "co": {"X": 1.0, "Y": 0.0}, "handle_right": {"X": 0.5, "Y": 0.0}}]}, "alpha": {"Points": [{"handle_type": 0, "interpolation": 0, "handle_left": {"X": 0.5, "Y": 1.0}, "co": {"X": 1.0, "Y": 255.0}, "handle_right": {"X": 0.5, "Y": 0.0}}]}}, "perspective_c2_y": {"Points": [{"interpolation": 2, "co": {"X": 1.0, "Y": -1.0}}]}, "end": 10}, "old_values": {"anchor": 0, "has_audio": {"Points": [{"interpolation": 2, "co": {"X": 1.0, "Y": -1.0}}]}, "channel_filter": {"Points": [{"interpolation": 2, "co": {"X": 1.0, "Y": -1.0}}]}, "perspective_c2_x": {"Points": [{"interpolation": 2, "co": {"X": 1.0, "Y": -1.0}}]}, "perspective_c1_y": {"Points": [{"interpolation": 2, "co": {"X": 1.0, "Y": -1.0}}]}, "layer": 1, "reader": {"width": 6803, "acodec": "", "has_audio": false, "pixel_ratio": {"den": 1, "num": 1}, "has_video": true, "sample_rate": 0, "channels": 0, "file_size": "104140324", "top_field_first": true, "video_bit_rate": 0, "duration": 86400.0, "fps": {"den": 1, "num": 30}, "type": "QtImageReader", "channel_layout": 4, "audio_timebase": {"den": 1, "num": 1}, "path": "/home/milind/Data/Projects/ProgressCard/Images/04-Slide-Create Card Template.svg", "audio_stream_index": -1, "video_timebase": {"den": 30, "num": 1}, "has_single_image": true, "height": 3827, "interlaced_frame": false, "audio_bit_rate": 0, "video_stream_index": -1, "pixel_format": -1, "video_length": "2592000", "display_ratio": {"den": 3827, "num": 6803}, "vcodec": ""}, "perspective_c3_y": {"Points": [{"interpolation": 2, "co": {"X": 1.0, "Y": -1.0}}]}, "effects": [], "title": "04-Slide-Create Card Template.svg", "start": 0, "position": 19.723333333333333, "has_video": {"Points": [{"interpolation": 2, "co": {"X": 1.0, "Y": -1.0}}]}, "time": {"Points": [{"interpolation": 2, "co": {"X": 1.0, "Y": 1.0}}]}, "crop_y": {"Points": [{"interpolation": 2, "co": {"X": 1.0, "Y": 0.0}}]}, "location_y": {"Points": [{"interpolation": 2, "co": {"X": 1.0, "Y": 0.0}}]}, "crop_width": {"Points": [{"interpolation": 2, "co": {"X": 1.0, "Y": -1.0}}]}, "scale_y": {"Points": [{"interpolation": 2, "co": {"X": 1.0, "Y": 1.0}}]}, "volume": {"Points": [{"interpolation": 2, "co": {"X": 1.0, "Y": 1.0}}]}, "perspective_c4_y": {"Points": [{"interpolation": 2, "co": {"X": 1.0, "Y": -1.0}}]}, "display": 0, "location_x": {"Points": [{"interpolation": 2, "co": {"X": 1.0, "Y": 0.0}}]}, "crop_height": {"Points": [{"interpolation": 2, "co": {"X": 1.0, "Y": -1.0}}]}, "crop_x": {"Points": [{"interpolation": 2, "co": {"X": 1.0, "Y": 0.0}}]}, "shear_x": {"Points": [{"interpolation": 2, "co": {"X": 1.0, "Y": 0.0}}]}, "perspective_c4_x": {"Points": [{"interpolation": 2, "co": {"X": 1.0, "Y": -1.0}}]}, "waveform": false, "scale_x": {"Points": [{"interpolation": 2, "co": {"X": 1.0, "Y": 1.0}}]}, "id": "OQVFZFG317", "file_id": "C0VL89HM2N", "rotation": {"Points": [{"interpolation": 2, "co": {"X": 1.0, "Y": 0.0}}]}, "duration": 86400.0, "perspective_c3_x": {"Points": [{"interpolation": 2, "co": {"X": 1.0, "Y": -1.0}}]}, "image": "/home/milind/.openshot_qt/thumbnail/C0VL89HM2N.png", "alpha": {"Points": [{"interpolation": 2, "co": {"X": 1.0, "Y": 1.0}}, {"handle_type": 0, "interpolation": 0, "handle_left": {"X": 0.5, "Y": 1.0}, "co": {"X": 1.0, "Y": 0.0}, "handle_right": {"X": 0.5, "Y": 0.0}}, {"handle_type": 0, "interpolation": 0, "handle_left": {"X": 0.5, "Y": 1.0}, "co": {"X": 73.0, "Y": 1.0}, "handle_right": {"X": 0.5, "Y": 0.0}}]}, "perspective_c1_x": {"Points": [{"interpolation": 2, "co": {"X": 1.0, "Y": -1.0}}]}, "gravity": 4, "shear_y": {"Points": [{"interpolation": 2, "co": {"X": 1.0, "Y": 0.0}}]}, "channel_mapping": {"Points": [{"interpolation": 2, "co": {"X": 1.0, "Y": -1.0}}]}, "scale": 1, "wave_color": {"green": {"Points": [{"handle_type": 0, "interpolation": 0, "handle_left": {"X": 0.5, "Y": 1.0}, "co": {"X": 1.0, "Y": 123.0}, "handle_right": {"X": 0.5, "Y": 0.0}}]}, "blue": {"Points": [{"handle_type": 0, "interpolation": 0, "handle_left": {"X": 0.5, "Y": 1.0}, "co": {"X": 1.0, "Y": 255.0}, "handle_right": {"X": 0.5, "Y": 0.0}}]}, "red": {"Points": [{"handle_type": 0, "interpolation": 0, "handle_left": {"X": 0.5, "Y": 1.0}, "co": {"X": 1.0, "Y": 0.0}, "handle_right": {"X": 0.5, "Y": 0.0}}]}, "alpha": {"Points": [{"handle_type": 0, "interpolation": 0, "handle_left": {"X": 0.5, "Y": 1.0}, "co": {"X": 1.0, "Y": 255.0}, "handle_right": {"X": 0.5, "Y": 0.0}}]}}, "perspective_c2_y": {"Points": [{"interpolation": 2, "co": {"X": 1.0, "Y": -1.0}}]}, "end": 10}}, {"partial": false, "key": ["clips", {"id": "TL0AR8K26Q"}], "type": "update", "value": {"anchor": 0, "has_audio": {"Points": [{"interpolation": 2, "co": {"X": 1.0, "Y": -1.0}}]}, "channel_filter": {"Points": [{"interpolation": 2, "co": {"X": 1.0, "Y": -1.0}}]}, "perspective_c2_x": {"Points": [{"interpolation": 2, "co": {"X": 1.0, "Y": -1.0}}]}, "perspective_c1_y": {"Points": [{"interpolation": 2, "co": {"X": 1.0, "Y": -1.0}}]}, "layer": 1, "perspective_c3_y": {"Points": [{"interpolation": 2, "co": {"X": 1.0, "Y": -1.0}}]}, "effects": [], "title": "05-Title -Open Writer.svg", "start": 0, "position": 29.760000000000005, "has_video": {"Points": [{"interpolation": 2, "co": {"X": 1.0, "Y": -1.0}}]}, "time": {"Points": [{"interpolation": 2, "co": {"X": 1.0, "Y": 1.0}}]}, "crop_y": {"Points": [{"interpolation": 2, "co": {"X": 1.0, "Y": 0.0}}]}, "location_y": {"Points": [{"interpolation": 2, "co": {"X": 1.0, "Y": 0.0}}]}, "crop_width": {"Points": [{"interpolation": 2, "co": {"X": 1.0, "Y": -1.0}}]}, "scale_y": {"Points": [{"interpolation": 2, "co": {"X": 1.0, "Y": 1.0}}]}, "volume": {"Points": [{"interpolation": 2, "co": {"X": 1.0, "Y": 1.0}}]}, "perspective_c4_y": {"Points": [{"interpolation": 2, "co": {"X": 1.0, "Y": -1.0}}]}, "display": 0, "location_x": {"Points": [{"interpolation": 2, "co": {"X": 1.0, "Y": 0.0}}]}, "crop_height": {"Points": [{"interpolation": 2, "co": {"X": 1.0, "Y": -1.0}}]}, "crop_x": {"Points": [{"interpolation": 2, "co": {"X": 1.0, "Y": 0.0}}]}, "shear_x": {"Points": [{"interpolation": 2, "co": {"X": 1.0, "Y": 0.0}}]}, "perspective_c4_x": {"Points": [{"interpolation": 2, "co": {"X": 1.0, "Y": -1.0}}]}, "waveform": false, "scale_x": {"Points": [{"interpolation": 2, "co": {"X": 1.0, "Y": 1.0}}]}, "id": "TL0AR8K26Q", "file_id": "UXYIII238I", "rotation": {"Points": [{"interpolation": 2, "co": {"X": 1.0, "Y": 0.0}}]}, "duration": 86400.0, "perspective_c3_x": {"Points": [{"interpolation": 2, "co": {"X": 1.0, "Y": -1.0}}]}, "image": "/home/milind/.openshot_qt/thumbnail/UXYIII238I.png", "alpha": {"Points": [{"interpolation": 2, "co": {"X": 1.0, "Y": 1.0}}, {"handle_type": 0, "interpolation": 0, "handle_left": {"X": 0.5, "Y": 1.0}, "co": {"X": 1.0, "Y": 0.0}, "handle_right": {"X": 0.5, "Y": 0.0}}, {"handle_type": 0, "interpolation": 0, "handle_left": {"X": 0.5, "Y": 1.0}, "co": {"X": 73.0, "Y": 1.0}, "handle_right": {"X": 0.5, "Y": 0.0}}, {"handle_type": 0, "interpolation": 0, "handle_left": {"X": 0.5, "Y": 1.0}, "co": {"X": 169.0, "Y": 1.0}, "handle_right": {"X": 0.5, "Y": 0.0}}, {"handle_type": 0, "interpolation": 0, "handle_left": {"X": 0.5, "Y": 1.0}, "co": {"X": 241.0, "Y": 0.0}, "handle_right": {"X": 0.5, "Y": 0.0}}, {"handle_type": 0, "interpolation": 0, "handle_left": {"X": 0.5, "Y": 1.0}, "co": {"X": 1.0, "Y": 0.0}, "handle_right": {"X": 0.5, "Y": 0.0}}, {"handle_type": 0, "interpolation": 0, "handle_left": {"X": 0.5, "Y": 1.0}, "co": {"X": 73.0, "Y": 1.0}, "handle_right": {"X": 0.5, "Y": 0.0}}]}, "perspective_c1_x": {"Points": [{"interpolation": 2, "co": {"X": 1.0, "Y": -1.0}}]}, "gravity": 4, "shear_y": {"Points": [{"interpolation": 2, "co": {"X": 1.0, "Y": 0.0}}]}, "channel_mapping": {"Points": [{"interpolation": 2, "co": {"X": 1.0, "Y": -1.0}}]}, "scale": 1, "wave_color": {"green": {"Points": [{"handle_type": 0, "interpolation": 0, "handle_left": {"X": 0.5, "Y": 1.0}, "co": {"X": 1.0, "Y": 123.0}, "handle_right": {"X": 0.5, "Y": 0.0}}]}, "alpha": {"Points": [{"handle_type": 0, "interpolation": 0, "handle_left": {"X": 0.5, "Y": 1.0}, "co": {"X": 1.0, "Y": 255.0}, "handle_right": {"X": 0.5, "Y": 0.0}}]}, "red": {"Points": [{"handle_type": 0, "interpolation": 0, "handle_left": {"X": 0.5, "Y": 1.0}, "co": {"X": 1.0, "Y": 0.0}, "handle_right": {"X": 0.5, "Y": 0.0}}]}, "blue": {"Points": [{"handle_type": 0, "interpolation": 0, "handle_left": {"X": 0.5, "Y": 1.0}, "co": {"X": 1.0, "Y": 255.0}, "handle_right": {"X": 0.5, "Y": 0.0}}]}}, "perspective_c2_y": {"Points": [{"interpolation": 2, "co": {"X": 1.0, "Y": -1.0}}]}, "end": 10}, "old_values": {"anchor": 0, "has_audio": {"Points": [{"interpolation": 2, "co": {"X": 1.0, "Y": -1.0}}]}, "channel_filter": {"Points": [{"interpolation": 2, "co": {"X": 1.0, "Y": -1.0}}]}, "perspective_c2_x": {"Points": [{"interpolation": 2, "co": {"X": 1.0, "Y": -1.0}}]}, "perspective_c1_y": {"Points": [{"interpolation": 2, "co": {"X": 1.0, "Y": -1.0}}]}, "layer": 1, "reader": {"width": 6803, "acodec": "", "has_audio": false, "pixel_ratio": {"den": 1, "num": 1}, "has_video": true, "sample_rate": 0, "channels": 0, "file_size": "104140324", "top_field_first": true, "video_bit_rate": 0, "duration": 86400.0, "fps": {"den": 1, "num": 30}, "type": "QtImageReader", "channel_layout": 4, "audio_timebase": {"den": 1, "num": 1}, "path": "/home/milind/Data/Projects/ProgressCard/Images/05-Title -Open Writer.svg", "audio_stream_index": -1, "video_timebase": {"den": 30, "num": 1}, "has_single_image": true, "height": 3827, "interlaced_frame": false, "audio_bit_rate": 0, "video_stream_index": -1, "pixel_format": -1, "video_length": "2592000", "display_ratio": {"den": 3827, "num": 6803}, "vcodec": ""}, "perspective_c3_y": {"Points": [{"interpolation": 2, "co": {"X": 1.0, "Y": -1.0}}]}, "effects": [], "title": "05-Title -Open Writer.svg", "start": 0, "position": 29.760000000000005, "has_video": {"Points": [{"interpolation": 2, "co": {"X": 1.0, "Y": -1.0}}]}, "time": {"Points": [{"interpolation": 2, "co": {"X": 1.0, "Y": 1.0}}]}, "crop_y": {"Points": [{"interpolation": 2, "co": {"X": 1.0, "Y": 0.0}}]}, "location_y": {"Points": [{"interpolation": 2, "co": {"X": 1.0, "Y": 0.0}}]}, "crop_width": {"Points": [{"interpolation": 2, "co": {"X": 1.0, "Y": -1.0}}]}, "scale_y": {"Points": [{"interpolation": 2, "co": {"X": 1.0, "Y": 1.0}}]}, "volume": {"Points": [{"interpolation": 2, "co": {"X": 1.0, "Y": 1.0}}]}, "perspective_c4_y": {"Points": [{"interpolation": 2, "co": {"X": 1.0, "Y": -1.0}}]}, "display": 0, "location_x": {"Points": [{"interpolation": 2, "co": {"X": 1.0, "Y": 0.0}}]}, "crop_height": {"Points": [{"interpolation": 2, "co": {"X": 1.0, "Y": -1.0}}]}, "crop_x": {"Points": [{"interpolation": 2, "co": {"X": 1.0, "Y": 0.0}}]}, "shear_x": {"Points": [{"interpolation": 2, "co": {"X": 1.0, "Y": 0.0}}]}, "perspective_c4_x": {"Points": [{"interpolation": 2, "co": {"X": 1.0, "Y": -1.0}}]}, "waveform": false, "scale_x": {"Points": [{"interpolation": 2, "co": {"X": 1.0, "Y": 1.0}}]}, "id": "TL0AR8K26Q", "file_id": "UXYIII238I", "rotation": {"Points": [{"interpolation": 2, "co": {"X": 1.0, "Y": 0.0}}]}, "duration": 86400.0, "perspective_c3_x": {"Points": [{"interpolation": 2, "co": {"X": 1.0, "Y": -1.0}}]}, "image": "/home/milind/.openshot_qt/thumbnail/UXYIII238I.png", "alpha": {"Points": [{"interpolation": 2, "co": {"X": 1.0, "Y": 1.0}}, {"handle_type": 0, "interpolation": 0, "handle_left": {"X": 0.5, "Y": 1.0}, "co": {"X": 1.0, "Y": 0.0}, "handle_right": {"X": 0.5, "Y": 0.0}}, {"handle_type": 0, "interpolation": 0, "handle_left": {"X": 0.5, "Y": 1.0}, "co": {"X": 73.0, "Y": 1.0}, "handle_right": {"X": 0.5, "Y": 0.0}}, {"handle_type": 0, "interpolation": 0, "handle_left": {"X": 0.5, "Y": 1.0}, "co": {"X": 169.0, "Y": 1.0}, "handle_right": {"X": 0.5, "Y": 0.0}}, {"handle_type": 0, "interpolation": 0, "handle_left": {"X": 0.5, "Y": 1.0}, "co": {"X": 241.0, "Y": 0.0}, "handle_right": {"X": 0.5, "Y": 0.0}}]}, "perspective_c1_x": {"Points": [{"interpolation": 2, "co": {"X": 1.0, "Y": -1.0}}]}, "gravity": 4, "shear_y": {"Points": [{"interpolation": 2, "co": {"X": 1.0, "Y": 0.0}}]}, "channel_mapping": {"Points": [{"interpolation": 2, "co": {"X": 1.0, "Y": -1.0}}]}, "scale": 1, "wave_color": {"green": {"Points": [{"handle_type": 0, "interpolation": 0, "handle_left": {"X": 0.5, "Y": 1.0}, "co": {"X": 1.0, "Y": 123.0}, "handle_right": {"X": 0.5, "Y": 0.0}}]}, "alpha": {"Points": [{"handle_type": 0, "interpolation": 0, "handle_left": {"X": 0.5, "Y": 1.0}, "co": {"X": 1.0, "Y": 255.0}, "handle_right": {"X": 0.5, "Y": 0.0}}]}, "red": {"Points": [{"handle_type": 0, "interpolation": 0, "handle_left": {"X": 0.5, "Y": 1.0}, "co": {"X": 1.0, "Y": 0.0}, "handle_right": {"X": 0.5, "Y": 0.0}}]}, "blue": {"Points": [{"handle_type": 0, "interpolation": 0, "handle_left": {"X": 0.5, "Y": 1.0}, "co": {"X": 1.0, "Y": 255.0}, "handle_right": {"X": 0.5, "Y": 0.0}}]}}, "perspective_c2_y": {"Points": [{"interpolation": 2, "co": {"X": 1.0, "Y": -1.0}}]}, "end": 10}}, {"partial": false, "key": ["clips", {"id": "TL0AR8K26Q"}], "type": "update", "value": {"anchor": 0, "has_audio": {"Points": [{"interpolation": 2, "co": {"X": 1.0, "Y": -1.0}}]}, "channel_filter": {"Points": [{"interpolation": 2, "co": {"X": 1.0, "Y": -1.0}}]}, "perspective_c2_x": {"Points": [{"interpolation": 2, "co": {"X": 1.0, "Y": -1.0}}]}, "perspective_c1_y": {"Points": [{"interpolation": 2, "co": {"X": 1.0, "Y": -1.0}}]}, "layer": 1, "perspective_c3_y": {"Points": [{"interpolation": 2, "co": {"X": 1.0, "Y": -1.0}}]}, "effects": [], "title": "05-Title -Open Writer.svg", "start": 0, "position": 29.760000000000005, "has_video": {"Points": [{"interpolation": 2, "co": {"X": 1.0, "Y": -1.0}}]}, "time": {"Points": [{"interpolation": 2, "co": {"X": 1.0, "Y": 1.0}}]}, "crop_y": {"Points": [{"interpolation": 2, "co": {"X": 1.0, "Y": 0.0}}]}, "location_y": {"Points": [{"interpolation": 2, "co": {"X": 1.0, "Y": 0.0}}]}, "crop_width": {"Points": [{"interpolation": 2, "co": {"X": 1.0, "Y": -1.0}}]}, "scale_y": {"Points": [{"interpolation": 2, "co": {"X": 1.0, "Y": 1.0}}]}, "volume": {"Points": [{"interpolation": 2, "co": {"X": 1.0, "Y": 1.0}}]}, "perspective_c4_y": {"Points": [{"interpolation": 2, "co": {"X": 1.0, "Y": -1.0}}]}, "display": 0, "location_x": {"Points": [{"interpolation": 2, "co": {"X": 1.0, "Y": 0.0}}]}, "crop_height": {"Points": [{"interpolation": 2, "co": {"X": 1.0, "Y": -1.0}}]}, "crop_x": {"Points": [{"interpolation": 2, "co": {"X": 1.0, "Y": 0.0}}]}, "shear_x": {"Points": [{"interpolation": 2, "co": {"X": 1.0, "Y": 0.0}}]}, "perspective_c4_x": {"Points": [{"interpolation": 2, "co": {"X": 1.0, "Y": -1.0}}]}, "waveform": false, "scale_x": {"Points": [{"interpolation": 2, "co": {"X": 1.0, "Y": 1.0}}]}, "id": "TL0AR8K26Q", "file_id": "UXYIII238I", "rotation": {"Points": [{"interpolation": 2, "co": {"X": 1.0, "Y": 0.0}}]}, "duration": 86400.0, "perspective_c3_x": {"Points": [{"interpolation": 2, "co": {"X": 1.0, "Y": -1.0}}]}, "image": "/home/milind/.openshot_qt/thumbnail/UXYIII238I.png", "alpha": {"Points": [{"interpolation": 2, "co": {"X": 1.0, "Y": 1.0}}, {"handle_type": 0, "interpolation": 0, "handle_left": {"X": 0.5, "Y": 1.0}, "co": {"X": 1.0, "Y": 0.0}, "handle_right": {"X": 0.5, "Y": 0.0}}, {"handle_type": 0, "interpolation": 0, "handle_left": {"X": 0.5, "Y": 1.0}, "co": {"X": 73.0, "Y": 1.0}, "handle_right": {"X": 0.5, "Y": 0.0}}, {"handle_type": 0, "interpolation": 0, "handle_left": {"X": 0.5, "Y": 1.0}, "co": {"X": 169.0, "Y": 1.0}, "handle_right": {"X": 0.5, "Y": 0.0}}, {"handle_type": 0, "interpolation": 0, "handle_left": {"X": 0.5, "Y": 1.0}, "co": {"X": 241.0, "Y": 0.0}, "handle_right": {"X": 0.5, "Y": 0.0}}, {"handle_type": 0, "interpolation": 0, "handle_left": {"X": 0.5, "Y": 1.0}, "co": {"X": 1.0, "Y": 0.0}, "handle_right": {"X": 0.5, "Y": 0.0}}, {"handle_type": 0, "interpolation": 0, "handle_left": {"X": 0.5, "Y": 1.0}, "co": {"X": 73.0, "Y": 1.0}, "handle_right": {"X": 0.5, "Y": 0.0}}, {"handle_type": 0, "interpolation": 0, "handle_left": {"X": 0.5, "Y": 1.0}, "co": {"X": 169.0, "Y": 1.0}, "handle_right": {"X": 0.5, "Y": 0.0}}, {"handle_type": 0, "interpolation": 0, "handle_left": {"X": 0.5, "Y": 1.0}, "co": {"X": 241.0, "Y": 0.0}, "handle_right": {"X": 0.5, "Y": 0.0}}]}, "perspective_c1_x": {"Points": [{"interpolation": 2, "co": {"X": 1.0, "Y": -1.0}}]}, "gravity": 4, "shear_y": {"Points": [{"interpolation": 2, "co": {"X": 1.0, "Y": 0.0}}]}, "channel_mapping": {"Points": [{"interpolation": 2, "co": {"X": 1.0, "Y": -1.0}}]}, "scale": 1, "wave_color": {"green": {"Points": [{"handle_type": 0, "interpolation": 0, "handle_left": {"X": 0.5, "Y": 1.0}, "co": {"X": 1.0, "Y": 123.0}, "handle_right": {"X": 0.5, "Y": 0.0}}]}, "blue": {"Points": [{"handle_type": 0, "interpolation": 0, "handle_left": {"X": 0.5, "Y": 1.0}, "co": {"X": 1.0, "Y": 255.0}, "handle_right": {"X": 0.5, "Y": 0.0}}]}, "red": {"Points": [{"handle_type": 0, "interpolation": 0, "handle_left": {"X": 0.5, "Y": 1.0}, "co": {"X": 1.0, "Y": 0.0}, "handle_right": {"X": 0.5, "Y": 0.0}}]}, "alpha": {"Points": [{"handle_type": 0, "interpolation": 0, "handle_left": {"X": 0.5, "Y": 1.0}, "co": {"X": 1.0, "Y": 255.0}, "handle_right": {"X": 0.5, "Y": 0.0}}]}}, "perspective_c2_y": {"Points": [{"interpolation": 2, "co": {"X": 1.0, "Y": -1.0}}]}, "end": 10}, "old_values": {"anchor": 0, "has_audio": {"Points": [{"interpolation": 2, "co": {"X": 1.0, "Y": -1.0}}]}, "channel_filter": {"Points": [{"interpolation": 2, "co": {"X": 1.0, "Y": -1.0}}]}, "perspective_c2_x": {"Points": [{"interpolation": 2, "co": {"X": 1.0, "Y": -1.0}}]}, "perspective_c1_y": {"Points": [{"interpolation": 2, "co": {"X": 1.0, "Y": -1.0}}]}, "layer": 1, "reader": {"width": 6803, "acodec": "", "has_audio": false, "pixel_ratio": {"den": 1, "num": 1}, "has_video": true, "sample_rate": 0, "channels": 0, "file_size": "104140324", "top_field_first": true, "video_bit_rate": 0, "duration": 86400.0, "fps": {"den": 1, "num": 30}, "type": "QtImageReader", "channel_layout": 4, "audio_timebase": {"den": 1, "num": 1}, "path": "/home/milind/Data/Projects/ProgressCard/Images/05-Title -Open Writer.svg", "audio_stream_index": -1, "video_timebase": {"den": 30, "num": 1}, "has_single_image": true, "height": 3827, "interlaced_frame": false, "audio_bit_rate": 0, "video_stream_index": -1, "pixel_format": -1, "video_length": "2592000", "display_ratio": {"den": 3827, "num": 6803}, "vcodec": ""}, "perspective_c3_y": {"Points": [{"interpolation": 2, "co": {"X": 1.0, "Y": -1.0}}]}, "effects": [], "title": "05-Title -Open Writer.svg", "start": 0, "position": 29.760000000000005, "has_video": {"Points": [{"interpolation": 2, "co": {"X": 1.0, "Y": -1.0}}]}, "time": {"Points": [{"interpolation": 2, "co": {"X": 1.0, "Y": 1.0}}]}, "crop_y": {"Points": [{"interpolation": 2, "co": {"X": 1.0, "Y": 0.0}}]}, "location_y": {"Points": [{"interpolation": 2, "co": {"X": 1.0, "Y": 0.0}}]}, "crop_width": {"Points": [{"interpolation": 2, "co": {"X": 1.0, "Y": -1.0}}]}, "scale_y": {"Points": [{"interpolation": 2, "co": {"X": 1.0, "Y": 1.0}}]}, "volume": {"Points": [{"interpolation": 2, "co": {"X": 1.0, "Y": 1.0}}]}, "perspective_c4_y": {"Points": [{"interpolation": 2, "co": {"X": 1.0, "Y": -1.0}}]}, "display": 0, "location_x": {"Points": [{"interpolation": 2, "co": {"X": 1.0, "Y": 0.0}}]}, "crop_height": {"Points": [{"interpolation": 2, "co": {"X": 1.0, "Y": -1.0}}]}, "crop_x": {"Points": [{"interpolation": 2, "co": {"X": 1.0, "Y": 0.0}}]}, "shear_x": {"Points": [{"interpolation": 2, "co": {"X": 1.0, "Y": 0.0}}]}, "perspective_c4_x": {"Points": [{"interpolation": 2, "co": {"X": 1.0, "Y": -1.0}}]}, "waveform": false, "scale_x": {"Points": [{"interpolation": 2, "co": {"X": 1.0, "Y": 1.0}}]}, "id": "TL0AR8K26Q", "file_id": "UXYIII238I", "rotation": {"Points": [{"interpolation": 2, "co": {"X": 1.0, "Y": 0.0}}]}, "duration": 86400.0, "perspective_c3_x": {"Points": [{"interpolation": 2, "co": {"X": 1.0, "Y": -1.0}}]}, "image": "/home/milind/.openshot_qt/thumbnail/UXYIII238I.png", "alpha": {"Points": [{"interpolation": 2, "co": {"X": 1.0, "Y": 1.0}}, {"handle_type": 0, "interpolation": 0, "handle_left": {"X": 0.5, "Y": 1.0}, "co": {"X": 1.0, "Y": 0.0}, "handle_right": {"X": 0.5, "Y": 0.0}}, {"handle_type": 0, "interpolation": 0, "handle_left": {"X": 0.5, "Y": 1.0}, "co": {"X": 73.0, "Y": 1.0}, "handle_right": {"X": 0.5, "Y": 0.0}}, {"handle_type": 0, "interpolation": 0, "handle_left": {"X": 0.5, "Y": 1.0}, "co": {"X": 169.0, "Y": 1.0}, "handle_right": {"X": 0.5, "Y": 0.0}}, {"handle_type": 0, "interpolation": 0, "handle_left": {"X": 0.5, "Y": 1.0}, "co": {"X": 241.0, "Y": 0.0}, "handle_right": {"X": 0.5, "Y": 0.0}}, {"handle_type": 0, "interpolation": 0, "handle_left": {"X": 0.5, "Y": 1.0}, "co": {"X": 1.0, "Y": 0.0}, "handle_right": {"X": 0.5, "Y": 0.0}}, {"handle_type": 0, "interpolation": 0, "handle_left": {"X": 0.5, "Y": 1.0}, "co": {"X": 73.0, "Y": 1.0}, "handle_right": {"X": 0.5, "Y": 0.0}}]}, "perspective_c1_x": {"Points": [{"interpolation": 2, "co": {"X": 1.0, "Y": -1.0}}]}, "gravity": 4, "shear_y": {"Points": [{"interpolation": 2, "co": {"X": 1.0, "Y": 0.0}}]}, "channel_mapping": {"Points": [{"interpolation": 2, "co": {"X": 1.0, "Y": -1.0}}]}, "scale": 1, "wave_color": {"green": {"Points": [{"handle_type": 0, "interpolation": 0, "handle_left": {"X": 0.5, "Y": 1.0}, "co": {"X": 1.0, "Y": 123.0}, "handle_right": {"X": 0.5, "Y": 0.0}}]}, "blue": {"Points": [{"handle_type": 0, "interpolation": 0, "handle_left": {"X": 0.5, "Y": 1.0}, "co": {"X": 1.0, "Y": 255.0}, "handle_right": {"X": 0.5, "Y": 0.0}}]}, "red": {"Points": [{"handle_type": 0, "interpolation": 0, "handle_left": {"X": 0.5, "Y": 1.0}, "co": {"X": 1.0, "Y": 0.0}, "handle_right": {"X": 0.5, "Y": 0.0}}]}, "alpha": {"Points": [{"handle_type": 0, "interpolation": 0, "handle_left": {"X": 0.5, "Y": 1.0}, "co": {"X": 1.0, "Y": 255.0}, "handle_right": {"X": 0.5, "Y": 0.0}}]}}, "perspective_c2_y": {"Points": [{"interpolation": 2, "co": {"X": 1.0, "Y": -1.0}}]}, "end": 10}}]}, "playhead_position": 0, "profile": "HDV 720 24p", "sample_rate": 44100, "markers": [], "scale": 16, "fps": {"den": 1, "num": 24}}