{"settings": {}, "height": 720, "fps": {"den": 1, "num": 24}, "history": {"redo": [], "undo": [{"key": ["files"], "type": "insert", "value": {"has_audio": false, "pixel_ratio": {"num": 1, "den": 1}, "video_length": "1475", "audio_bit_rate": 0, "height": 768, "fps": {"num": 25, "den": 1}, "video_stream_index": 0, "video_bit_rate": 0, "display_ratio": {"num": 683, "den": 384}, "path": "/home/milind/Data/Projects/ProgressCard/Clips/07-Entered Record of 10 students.mkv", "channels": 0, "media_type": "video", "vcodec": "h264", "id": "J4ML763TY0", "pixel_format": 0, "width": 1366, "sample_rate": 0, "audio_stream_index": -1, "duration": 59.0, "top_field_first": true, "channel_layout": 4, "video_timebase": {"num": 1, "den": 1000}, "type": "FFmpegReader", "acodec": "", "interlaced_frame": false, "has_video": true, "has_single_image": false, "audio_timebase": {"num": 1, "den": 1}, "file_size": "595628"}, "old_values": [{"has_audio": false, "pixel_ratio": {"den": 1, "num": 1}, "video_length": "2592000", "interlaced_frame": false, "audio_bit_rate": 0, "height": 1080, "fps": {"den": 1, "num": 30}, "video_stream_index": -1, "video_bit_rate": 0, "display_ratio": {"den": 9, "num": 16}, "path": "/home/milind/Data/Projects/ProgressCard/Images/01-White-Background.svg", "has_single_image": true, "media_type": "image", "id": "H51D80S6SD", "pixel_format": -1, "width": 1920, "sample_rate": 0, "audio_stream_index": -1, "duration": 86400.0, "type": "QtImageReader", "channel_layout": 4, "video_timebase": {"den": 30, "num": 1}, "top_field_first": true, "acodec": "", "vcodec": "", "has_video": true, "channels": 0, "audio_timebase": {"den": 1, "num": 1}, "file_size": "8294400"}], "partial": false}, {"key": ["clips"], "type": "insert", "value": {"has_audio": {"Points": [{"interpolation": 2, "co": {"X": 1.0, "Y": -1.0}}]}, "image": "/home/milind/.openshot_qt/thumbnail/H51D80S6SD.png", "rotation": {"Points": [{"interpolation": 2, "co": {"X": 1.0, "Y": 0.0}}]}, "anchor": 0, "location_x": {"Points": [{"interpolation": 2, "co": {"X": 1.0, "Y": 0.0}}]}, "file_id": "H51D80S6SD", "perspective_c1_y": {"Points": [{"interpolation": 2, "co": {"X": 1.0, "Y": -1.0}}]}, "gravity": 4, "perspective_c4_x": {"Points": [{"interpolation": 2, "co": {"X": 1.0, "Y": -1.0}}]}, "layer": 2, "wave_color": {"green": {"Points": [{"handle_right": {"X": 0.5, "Y": 0.0}, "handle_type": 0, "handle_left": {"X": 0.5, "Y": 1.0}, "co": {"X": 1.0, "Y": 123.0}, "interpolation": 0}]}, "red": {"Points": [{"handle_right": {"X": 0.5, "Y": 0.0}, "handle_type": 0, "handle_left": {"X": 0.5, "Y": 1.0}, "co": {"X": 1.0, "Y": 0.0}, "interpolation": 0}]}, "blue": {"Points": [{"handle_right": {"X": 0.5, "Y": 0.0}, "handle_type": 0, "handle_left": {"X": 0.5, "Y": 1.0}, "co": {"X": 1.0, "Y": 255.0}, "interpolation": 0}]}, "alpha": {"Points": [{"handle_right": {"X": 0.5, "Y": 0.0}, "handle_type": 0, "handle_left": {"X": 0.5, "Y": 1.0}, "co": {"X": 1.0, "Y": 255.0}, "interpolation": 0}]}}, "volume": {"Points": [{"interpolation": 2, "co": {"X": 1.0, "Y": 1.0}}]}, "display": 0, "location_y": {"Points": [{"interpolation": 2, "co": {"X": 1.0, "Y": 0.0}}]}, "perspective_c4_y": {"Points": [{"interpolation": 2, "co": {"X": 1.0, "Y": -1.0}}]}, "alpha": {"Points": [{"interpolation": 2, "co": {"X": 1.0, "Y": 1.0}}]}, "perspective_c2_x": {"Points": [{"interpolation": 2, "co": {"X": 1.0, "Y": -1.0}}]}, "scale": 1, "time": {"Points": [{"interpolation": 2, "co": {"X": 1.0, "Y": 1.0}}]}, "start": 0, "end": 68.72, "crop_width": {"Points": [{"interpolation": 2, "co": {"X": 1.0, "Y": -1.0}}]}, "position": 0, "id": "T5YYS00GWW", "title": "01-White-Background.svg", "shear_x": {"Points": [{"interpolation": 2, "co": {"X": 1.0, "Y": 0.0}}]}, "duration": 86400.0, "perspective_c3_y": {"Points": [{"interpolation": 2, "co": {"X": 1.0, "Y": -1.0}}]}, "crop_y": {"Points": [{"interpolation": 2, "co": {"X": 1.0, "Y": 0.0}}]}, "reader": {"has_audio": false, "pixel_ratio": {"num": 1, "den": 1}, "video_length": "2592000", "audio_bit_rate": 0, "height": 1080, "fps": {"num": 30, "den": 1}, "video_stream_index": -1, "video_bit_rate": 0, "display_ratio": {"num": 16, "den": 9}, "path": "/home/milind/Data/Projects/ProgressCard/Images/01-White-Background.svg", "channels": 0, "vcodec": "", "pixel_format": -1, "width": 1920, "sample_rate": 0, "audio_stream_index": -1, "duration": 86400.0, "top_field_first": true, "channel_layout": 4, "video_timebase": {"num": 1, "den": 30}, "type": "QtImageReader", "acodec": "", "interlaced_frame": false, "has_video": true, "has_single_image": true, "audio_timebase": {"num": 1, "den": 1}, "file_size": "8294400"}, "channel_filter": {"Points": [{"interpolation": 2, "co": {"X": 1.0, "Y": -1.0}}]}, "crop_height": {"Points": [{"interpolation": 2, "co": {"X": 1.0, "Y": -1.0}}]}, "effects": [], "waveform": false, "perspective_c1_x": {"Points": [{"interpolation": 2, "co": {"X": 1.0, "Y": -1.0}}]}, "crop_x": {"Points": [{"interpolation": 2, "co": {"X": 1.0, "Y": 0.0}}]}, "channel_mapping": {"Points": [{"interpolation": 2, "co": {"X": 1.0, "Y": -1.0}}]}, "perspective_c2_y": {"Points": [{"interpolation": 2, "co": {"X": 1.0, "Y": -1.0}}]}, "has_video": {"Points": [{"interpolation": 2, "co": {"X": 1.0, "Y": -1.0}}]}, "scale_x": {"Points": [{"interpolation": 2, "co": {"X": 1.0, "Y": 1.0}}]}, "perspective_c3_x": {"Points": [{"interpolation": 2, "co": {"X": 1.0, "Y": -1.0}}]}, "shear_y": {"Points": [{"interpolation": 2, "co": {"X": 1.0, "Y": 0.0}}]}, "scale_y": {"Points": [{"interpolation": 2, "co": {"X": 1.0, "Y": 1.0}}]}}, "old_values": [{"has_audio": {"Points": [{"interpolation": 2, "co": {"Y": -1.0, "X": 1.0}}]}, "perspective_c1_x": {"Points": [{"interpolation": 2, "co": {"Y": -1.0, "X": 1.0}}]}, "rotation": {"Points": [{"interpolation": 2, "co": {"Y": 0.0, "X": 1.0}}]}, "location_x": {"Points": [{"interpolation": 2, "co": {"Y": 0.0, "X": 1.0}}, {"interpolation": 1, "co": {"Y": 0.43511450381679384, "X": 192}}]}, "file_id": "IV7EF51HD1", "perspective_c1_y": {"Points": [{"interpolation": 2, "co": {"Y": -1.0, "X": 1.0}}]}, "perspective_c3_x": {"Points": [{"interpolation": 2, "co": {"Y": -1.0, "X": 1.0}}]}, "perspective_c4_x": {"Points": [{"interpolation": 2, "co": {"Y": -1.0, "X": 1.0}}]}, "volume": {"Points": [{"interpolation": 2, "co": {"Y": 1.0, "X": 1.0}}]}, "wave_color": {"alpha": {"Points": [{"handle_right": {"Y": 0.0, "X": 0.5}, "handle_type": 0, "handle_left": {"Y": 1.0, "X": 0.5}, "co": {"Y": 255.0, "X": 1.0}, "interpolation": 0}]}, "red": {"Points": [{"handle_right": {"Y": 0.0, "X": 0.5}, "handle_type": 0, "handle_left": {"Y": 1.0, "X": 0.5}, "co": {"Y": 0.0, "X": 1.0}, "interpolation": 0}]}, "blue": {"Points": [{"handle_right": {"Y": 0.0, "X": 0.5}, "handle_type": 0, "handle_left": {"Y": 1.0, "X": 0.5}, "co": {"Y": 255.0, "X": 1.0}, "interpolation": 0}]}, "green": {"Points": [{"handle_right": {"Y": 0.0, "X": 0.5}, "handle_type": 0, "handle_left": {"Y": 1.0, "X": 0.5}, "co": {"Y": 123.0, "X": 1.0}, "interpolation": 0}]}}, "layer": 5, "has_video": {"Points": [{"interpolation": 2, "co": {"Y": -1.0, "X": 1.0}}]}, "location_y": {"Points": [{"interpolation": 2, "co": {"Y": 0.0, "X": 1.0}}, {"interpolation": 1, "co": {"Y": 0.45038167938931295, "X": 192}}]}, "perspective_c2_y": {"Points": [{"interpolation": 2, "co": {"Y": -1.0, "X": 1.0}}]}, "perspective_c2_x": {"Points": [{"interpolation": 2, "co": {"Y": -1.0, "X": 1.0}}]}, "scale": 1, "time": {"Points": [{"interpolation": 2, "co": {"Y": 1.0, "X": 1.0}}]}, "start": 0, "end": 59, "channel_mapping": {"Points": [{"interpolation": 2, "co": {"Y": -1.0, "X": 1.0}}]}, "position": 125.0, "id": "GF97G5QV3C", "crop_x": {"Points": [{"interpolation": 2, "co": {"Y": 0.0, "X": 1.0}}]}, "title": "07-Entered Record of 10 students.mkv", "shear_x": {"Points": [{"interpolation": 2, "co": {"Y": 0.0, "X": 1.0}}]}, "duration": 59.0, "perspective_c3_y": {"Points": [{"interpolation": 2, "co": {"Y": -1.0, "X": 1.0}}]}, "crop_y": {"Points": [{"interpolation": 2, "co": {"Y": 0.0, "X": 1.0}}]}, "reader": {"has_audio": false, "pixel_ratio": {"den": 1, "num": 1}, "video_length": "1475", "audio_bit_rate": 0, "interlaced_frame": false, "fps": {"den": 1, "num": 25}, "video_stream_index": 0, "video_bit_rate": 0, "display_ratio": {"den": 384, "num": 683}, "path": "/home/milind/Data/Projects/ProgressCard/Clips/07-Entered Record of 10 students.mkv", "channels": 0, "pixel_format": 0, "width": 1366, "sample_rate": 0, "audio_stream_index": -1, "duration": 59.0, "top_field_first": true, "channel_layout": 4, "video_timebase": {"den": 1000, "num": 1}, "type": "FFmpegReader", "has_single_image": false, "vcodec": "h264", "has_video": true, "acodec": "", "height": 768, "audio_timebase": {"den": 1, "num": 1}, "file_size": "595628"}, "channel_filter": {"Points": [{"interpolation": 2, "co": {"Y": -1.0, "X": 1.0}}]}, "crop_height": {"Points": [{"interpolation": 2, "co": {"Y": -1.0, "X": 1.0}}]}, "effects": [], "waveform": false, "perspective_c4_y": {"Points": [{"interpolation": 2, "co": {"Y": -1.0, "X": 1.0}}]}, "scale_x": {"Points": [{"interpolation": 2, "co": {"Y": 1.0, "X": 1.0}}, {"interpolation": 1, "co": {"Y": 1.899999976158142, "X": 192}}]}, "crop_width": {"Points": [{"interpolation": 2, "co": {"Y": -1.0, "X": 1.0}}]}, "alpha": {"Points": [{"interpolation": 2, "co": {"Y": 1.0, "X": 1.0}}, {"handle_right": {"Y": 0.0, "X": 0.5}, "handle_type": 0, "handle_left": {"Y": 1.0, "X": 0.5}, "co": {"Y": 0.0, "X": 1.0}, "interpolation": 0}, {"handle_right": {"Y": 0.0, "X": 0.5}, "handle_type": 0, "handle_left": {"Y": 1.0, "X": 0.5}, "co": {"Y": 1.0, "X": 73.0}, "interpolation": 0}, {"handle_right": {"Y": 0.0, "X": 0.5}, "handle_type": 0, "handle_left": {"Y": 1.0, "X": 0.5}, "co": {"Y": 1.0, "X": 1345.0}, "interpolation": 0}, {"handle_right": {"Y": 0.0, "X": 0.5}, "handle_type": 0, "handle_left": {"Y": 1.0, "X": 0.5}, "co": {"Y": 0.0, "X": 1417.0}, "interpolation": 0}]}, "display": 0, "anchor": 0, "image": "/home/milind/.openshot_qt/thumbnail/IV7EF51HD1.png", "gravity": 4, "shear_y": {"Points": [{"interpolation": 2, "co": {"Y": 0.0, "X": 1.0}}]}, "scale_y": {"Points": [{"interpolation": 2, "co": {"Y": 1.0, "X": 1.0}}, {"interpolation": 1, "co": {"Y": 1.899999976158142, "X": 192}}]}}, {"has_audio": {"Points": [{"interpolation": 2, "co": {"Y": -1.0, "X": 1.0}}]}, "position": 0, "rotation": {"Points": [{"interpolation": 2, "co": {"Y": 0.0, "X": 1.0}}]}, "location_x": {"Points": [{"interpolation": 2, "co": {"Y": 0.0, "X": 1.0}}, {"interpolation": 1, "co": {"Y": 0.43511450381679384, "X": 192}}]}, "file_id": "IV7EF51HD1", "channel_filter": {"Points": [{"interpolation": 2, "co": {"Y": -1.0, "X": 1.0}}]}, "perspective_c3_x": {"Points": [{"interpolation": 2, "co": {"Y": -1.0, "X": 1.0}}]}, "perspective_c4_x": {"Points": [{"interpolation": 2, "co": {"Y": -1.0, "X": 1.0}}]}, "layer": 3, "wave_color": {"alpha": {"Points": [{"handle_right": {"Y": 0.0, "X": 0.5}, "handle_type": 0, "handle_left": {"Y": 1.0, "X": 0.5}, "co": {"Y": 255.0, "X": 1.0}, "interpolation": 0}]}, "red": {"Points": [{"handle_right": {"Y": 0.0, "X": 0.5}, "handle_type": 0, "handle_left": {"Y": 1.0, "X": 0.5}, "co": {"Y": 0.0, "X": 1.0}, "interpolation": 0}]}, "blue": {"Points": [{"handle_right": {"Y": 0.0, "X": 0.5}, "handle_type": 0, "handle_left": {"Y": 1.0, "X": 0.5}, "co": {"Y": 255.0, "X": 1.0}, "interpolation": 0}]}, "green": {"Points": [{"handle_right": {"Y": 0.0, "X": 0.5}, "handle_type": 0, "handle_left": {"Y": 1.0, "X": 0.5}, "co": {"Y": 123.0, "X": 1.0}, "interpolation": 0}]}}, "volume": {"Points": [{"interpolation": 2, "co": {"Y": 1.0, "X": 1.0}}]}, "has_video": {"Points": [{"interpolation": 2, "co": {"Y": -1.0, "X": 1.0}}]}, "location_y": {"Points": [{"interpolation": 2, "co": {"Y": 0.0, "X": 1.0}}, {"interpolation": 1, "co": {"Y": 0.45038167938931295, "X": 192}}]}, "gravity": 4, "alpha": {"Points": [{"interpolation": 2, "co": {"Y": 1.0, "X": 1.0}}, {"handle_right": {"Y": 0.0, "X": 0.5}, "handle_type": 0, "handle_left": {"Y": 1.0, "X": 0.5}, "co": {"Y": 0.0, "X": 1.0}, "interpolation": 0}, {"handle_right": {"Y": 0.0, "X": 0.5}, "handle_type": 0, "handle_left": {"Y": 1.0, "X": 0.5}, "co": {"Y": 1.0, "X": 73.0}, "interpolation": 0}, {"handle_right": {"Y": 0.0, "X": 0.5}, "handle_type": 0, "handle_left": {"Y": 1.0, "X": 0.5}, "co": {"Y": 1.0, "X": 1345.0}, "interpolation": 0}, {"handle_right": {"Y": 0.0, "X": 0.5}, "handle_type": 0, "handle_left": {"Y": 1.0, "X": 0.5}, "co": {"Y": 0.0, "X": 1417.0}, "interpolation": 0}]}, "scale": 1, "time": {"Points": [{"interpolation": 2, "co": {"Y": 1.0, "X": 1.0}}]}, "start": 0, "end": 59, "crop_width": {"Points": [{"interpolation": 2, "co": {"Y": -1.0, "X": 1.0}}]}, "scale_x": {"Points": [{"interpolation": 2, "co": {"Y": 1.0, "X": 1.0}}, {"interpolation": 1, "co": {"Y": 1.899999976158142, "X": 192}}]}, "image": "/home/milind/.openshot_qt/thumbnail/IV7EF51HD1.png", "id": "XNSK4PWD2F", "title": "07-Entered Record of 10 students.mkv", "shear_x": {"Points": [{"interpolation": 2, "co": {"Y": 0.0, "X": 1.0}}]}, "duration": 59.0, "perspective_c3_y": {"Points": [{"interpolation": 2, "co": {"Y": -1.0, "X": 1.0}}]}, "perspective_c2_y": {"Points": [{"interpolation": 2, "co": {"Y": -1.0, "X": 1.0}}]}, "reader": {"has_audio": false, "pixel_ratio": {"den": 1, "num": 1}, "video_length": "1475", "audio_bit_rate": 0, "interlaced_frame": false, "fps": {"den": 1, "num": 25}, "video_stream_index": 0, "video_bit_rate": 0, "display_ratio": {"den": 384, "num": 683}, "path": "/home/milind/Data/Projects/ProgressCard/Clips/07-Entered Record of 10 students.mkv", "channels": 0, "pixel_format": 0, "width": 1366, "sample_rate": 0, "audio_stream_index": -1, "duration": 59.0, "top_field_first": true, "channel_layout": 4, "video_timebase": {"den": 1000, "num": 1}, "type": "FFmpegReader", "has_single_image": false, "vcodec": "h264", "has_video": true, "acodec": "", "height": 768, "audio_timebase": {"den": 1, "num": 1}, "file_size": "595628"}, "perspective_c1_y": {"Points": [{"interpolation": 2, "co": {"Y": -1.0, "X": 1.0}}]}, "crop_height": {"Points": [{"interpolation": 2, "co": {"Y": -1.0, "X": 1.0}}]}, "effects": [], "waveform": false, "perspective_c1_x": {"Points": [{"interpolation": 2, "co": {"Y": -1.0, "X": 1.0}}]}, "perspective_c4_y": {"Points": [{"interpolation": 2, "co": {"Y": -1.0, "X": 1.0}}]}, "crop_x": {"Points": [{"interpolation": 2, "co": {"Y": 0.0, "X": 1.0}}]}, "channel_mapping": {"Points": [{"interpolation": 2, "co": {"Y": -1.0, "X": 1.0}}]}, "crop_y": {"Points": [{"interpolation": 2, "co": {"Y": 0.0, "X": 1.0}}]}, "display": 0, "anchor": 0, "perspective_c2_x": {"Points": [{"interpolation": 2, "co": {"Y": -1.0, "X": 1.0}}]}, "shear_y": {"Points": [{"interpolation": 2, "co": {"Y": 0.0, "X": 1.0}}]}, "scale_y": {"Points": [{"interpolation": 2, "co": {"Y": 1.0, "X": 1.0}}, {"interpolation": 1, "co": {"Y": 1.899999976158142, "X": 192}}]}}], "partial": false}, {"key": ["clips", {"id": "T5YYS00GWW"}], "type": "update", "value": {"position": 0, "id": "T5YYS00GWW", "image": "/home/milind/.openshot_qt/thumbnail/H51D80S6SD.png", "start": 0, "layer": 2, "end": 10}, "old_values": {"has_audio": {"Points": [{"interpolation": 2, "co": {"X": 1.0, "Y": -1.0}}]}, "position": 0.0, "rotation": {"Points": [{"interpolation": 2, "co": {"X": 1.0, "Y": 0.0}}]}, "location_x": {"Points": [{"interpolation": 2, "co": {"X": 1.0, "Y": 0.0}}]}, "file_id": "H51D80S6SD", "perspective_c1_y": {"Points": [{"interpolation": 2, "co": {"X": 1.0, "Y": -1.0}}]}, "gravity": 4, "perspective_c4_x": {"Points": [{"interpolation": 2, "co": {"X": 1.0, "Y": -1.0}}]}, "layer": 2, "wave_color": {"alpha": {"Points": [{"handle_right": {"X": 0.5, "Y": 0.0}, "handle_type": 0, "handle_left": {"X": 0.5, "Y": 1.0}, "co": {"X": 1.0, "Y": 255.0}, "interpolation": 0}]}, "red": {"Points": [{"handle_right": {"X": 0.5, "Y": 0.0}, "handle_type": 0, "handle_left": {"X": 0.5, "Y": 1.0}, "co": {"X": 1.0, "Y": 0.0}, "interpolation": 0}]}, "blue": {"Points": [{"handle_right": {"X": 0.5, "Y": 0.0}, "handle_type": 0, "handle_left": {"X": 0.5, "Y": 1.0}, "co": {"X": 1.0, "Y": 255.0}, "interpolation": 0}]}, "green": {"Points": [{"handle_right": {"X": 0.5, "Y": 0.0}, "handle_type": 0, "handle_left": {"X": 0.5, "Y": 1.0}, "co": {"X": 1.0, "Y": 123.0}, "interpolation": 0}]}}, "start": 0.0, "has_video": {"Points": [{"interpolation": 2, "co": {"X": 1.0, "Y": -1.0}}]}, "location_y": {"Points": [{"interpolation": 2, "co": {"X": 1.0, "Y": 0.0}}]}, "alpha": {"Points": [{"interpolation": 2, "co": {"X": 1.0, "Y": 1.0}}]}, "perspective_c2_x": {"Points": [{"interpolation": 2, "co": {"X": 1.0, "Y": -1.0}}]}, "scale": 1, "time": {"Points": [{"interpolation": 2, "co": {"X": 1.0, "Y": 1.0}}]}, "anchor": 0, "end": 10.0, "channel_mapping": {"Points": [{"interpolation": 2, "co": {"X": 1.0, "Y": -1.0}}]}, "volume": {"Points": [{"interpolation": 2, "co": {"X": 1.0, "Y": 1.0}}]}, "image": "/home/milind/.openshot_qt/thumbnail/H51D80S6SD.png", "id": "T5YYS00GWW", "title": "01-White-Background.svg", "shear_x": {"Points": [{"interpolation": 2, "co": {"X": 1.0, "Y": 0.0}}]}, "duration": 86400.0, "perspective_c3_y": {"Points": [{"interpolation": 2, "co": {"X": 1.0, "Y": -1.0}}]}, "crop_y": {"Points": [{"interpolation": 2, "co": {"X": 1.0, "Y": 0.0}}]}, "reader": {"has_audio": false, "pixel_ratio": {"den": 1, "num": 1}, "video_length": "2592000", "interlaced_frame": false, "audio_bit_rate": 0, "height": 1080, "fps": {"den": 1, "num": 30}, "video_stream_index": -1, "video_bit_rate": 0, "display_ratio": {"den": 9, "num": 16}, "path": "/home/milind/Data/Projects/ProgressCard/Images/01-White-Background.svg", "has_single_image": true, "pixel_format": -1, "width": 1920, "sample_rate": 0, "audio_stream_index": -1, "duration": 86400.0, "type": "QtImageReader", "channel_layout": 4, "video_timebase": {"den": 30, "num": 1}, "top_field_first": true, "acodec": "", "vcodec": "", "has_video": true, "channels": 0, "audio_timebase": {"den": 1, "num": 1}, "file_size": "8294400"}, "channel_filter": {"Points": [{"interpolation": 2, "co": {"X": 1.0, "Y": -1.0}}]}, "crop_height": {"Points": [{"interpolation": 2, "co": {"X": 1.0, "Y": -1.0}}]}, "effects": [], "waveform": false, "perspective_c1_x": {"Points": [{"interpolation": 2, "co": {"X": 1.0, "Y": -1.0}}]}, "perspective_c4_y": {"Points": [{"interpolation": 2, "co": {"X": 1.0, "Y": -1.0}}]}, "crop_x": {"Points": [{"interpolation": 2, "co": {"X": 1.0, "Y": 0.0}}]}, "crop_width": {"Points": [{"interpolation": 2, "co": {"X": 1.0, "Y": -1.0}}]}, "perspective_c2_y": {"Points": [{"interpolation": 2, "co": {"X": 1.0, "Y": -1.0}}]}, "display": 0, "scale_x": {"Points": [{"interpolation": 2, "co": {"X": 1.0, "Y": 1.0}}]}, "perspective_c3_x": {"Points": [{"interpolation": 2, "co": {"X": 1.0, "Y": -1.0}}]}, "shear_y": {"Points": [{"interpolation": 2, "co": {"X": 1.0, "Y": 0.0}}]}, "scale_y": {"Points": [{"interpolation": 2, "co": {"X": 1.0, "Y": 1.0}}]}}, "partial": false}, {"key": ["clips", {"id": "T5YYS00GWW"}], "type": "update", "value": {"position": 0, "id": "T5YYS00GWW", "image": "/home/milind/.openshot_qt/thumbnail/H51D80S6SD.png", "start": 0, "layer": 2, "end": 68.72}, "old_values": {"has_audio": {"Points": [{"interpolation": 2, "co": {"X": 1.0, "Y": -1.0}}]}, "position": 0, "rotation": {"Points": [{"interpolation": 2, "co": {"X": 1.0, "Y": 0.0}}]}, "location_x": {"Points": [{"interpolation": 2, "co": {"X": 1.0, "Y": 0.0}}]}, "file_id": "H51D80S6SD", "channel_filter": {"Points": [{"interpolation": 2, "co": {"X": 1.0, "Y": -1.0}}]}, "gravity": 4, "perspective_c4_x": {"Points": [{"interpolation": 2, "co": {"X": 1.0, "Y": -1.0}}]}, "layer": 2, "wave_color": {"alpha": {"Points": [{"handle_right": {"X": 0.5, "Y": 0.0}, "handle_type": 0, "handle_left": {"X": 0.5, "Y": 1.0}, "co": {"X": 1.0, "Y": 255.0}, "interpolation": 0}]}, "red": {"Points": [{"handle_right": {"X": 0.5, "Y": 0.0}, "handle_type": 0, "handle_left": {"X": 0.5, "Y": 1.0}, "co": {"X": 1.0, "Y": 0.0}, "interpolation": 0}]}, "blue": {"Points": [{"handle_right": {"X": 0.5, "Y": 0.0}, "handle_type": 0, "handle_left": {"X": 0.5, "Y": 1.0}, "co": {"X": 1.0, "Y": 255.0}, "interpolation": 0}]}, "green": {"Points": [{"handle_right": {"X": 0.5, "Y": 0.0}, "handle_type": 0, "handle_left": {"X": 0.5, "Y": 1.0}, "co": {"X": 1.0, "Y": 123.0}, "interpolation": 0}]}}, "volume": {"Points": [{"interpolation": 2, "co": {"X": 1.0, "Y": 1.0}}]}, "perspective_c3_x": {"Points": [{"interpolation": 2, "co": {"X": 1.0, "Y": -1.0}}]}, "has_video": {"Points": [{"interpolation": 2, "co": {"X": 1.0, "Y": -1.0}}]}, "location_y": {"Points": [{"interpolation": 2, "co": {"X": 1.0, "Y": 0.0}}]}, "perspective_c2_y": {"Points": [{"interpolation": 2, "co": {"X": 1.0, "Y": -1.0}}]}, "scale": 1, "time": {"Points": [{"interpolation": 2, "co": {"X": 1.0, "Y": 1.0}}]}, "start": 0, "end": 10, "crop_width": {"Points": [{"interpolation": 2, "co": {"X": 1.0, "Y": -1.0}}]}, "scale_x": {"Points": [{"interpolation": 2, "co": {"X": 1.0, "Y": 1.0}}]}, "image": "/home/milind/.openshot_qt/thumbnail/H51D80S6SD.png", "id": "T5YYS00GWW", "title": "01-White-Background.svg", "shear_x": {"Points": [{"interpolation": 2, "co": {"X": 1.0, "Y": 0.0}}]}, "duration": 86400.0, "perspective_c3_y": {"Points": [{"interpolation": 2, "co": {"X": 1.0, "Y": -1.0}}]}, "crop_y": {"Points": [{"interpolation": 2, "co": {"X": 1.0, "Y": 0.0}}]}, "reader": {"has_audio": false, "pixel_ratio": {"den": 1, "num": 1}, "video_length": "2592000", "interlaced_frame": false, "audio_bit_rate": 0, "height": 1080, "fps": {"den": 1, "num": 30}, "video_stream_index": -1, "video_bit_rate": 0, "display_ratio": {"den": 9, "num": 16}, "path": "/home/milind/Data/Projects/ProgressCard/Images/01-White-Background.svg", "has_single_image": true, "pixel_format": -1, "width": 1920, "sample_rate": 0, "audio_stream_index": -1, "duration": 86400.0, "type": "QtImageReader", "channel_layout": 4, "video_timebase": {"den": 30, "num": 1}, "top_field_first": true, "acodec": "", "vcodec": "", "has_video": true, "channels": 0, "audio_timebase": {"den": 1, "num": 1}, "file_size": "8294400"}, "perspective_c1_y": {"Points": [{"interpolation": 2, "co": {"X": 1.0, "Y": -1.0}}]}, "crop_height": {"Points": [{"interpolation": 2, "co": {"X": 1.0, "Y": -1.0}}]}, "effects": [], "waveform": false, "perspective_c1_x": {"Points": [{"interpolation": 2, "co": {"X": 1.0, "Y": -1.0}}]}, "perspective_c4_y": {"Points": [{"interpolation": 2, "co": {"X": 1.0, "Y": -1.0}}]}, "crop_x": {"Points": [{"interpolation": 2, "co": {"X": 1.0, "Y": 0.0}}]}, "channel_mapping": {"Points": [{"interpolation": 2, "co": {"X": 1.0, "Y": -1.0}}]}, "alpha": {"Points": [{"interpolation": 2, "co": {"X": 1.0, "Y": 1.0}}]}, "display": 0, "anchor": 0, "perspective_c2_x": {"Points": [{"interpolation": 2, "co": {"X": 1.0, "Y": -1.0}}]}, "shear_y": {"Points": [{"interpolation": 2, "co": {"X": 1.0, "Y": 0.0}}]}, "scale_y": {"Points": [{"interpolation": 2, "co": {"X": 1.0, "Y": 1.0}}]}}, "partial": false}, {"key": ["clips", {"id": "XNSK4PWD2F"}], "type": "update", "value": {"position": 26.08, "id": "XNSK4PWD2F", "image": "/home/milind/.openshot_qt/thumbnail/IV7EF51HD1.png", "start": 0, "layer": 3, "end": 59}, "old_values": {"has_audio": {"Points": [{"interpolation": 2, "co": {"Y": -1.0, "X": 1.0}}]}, "position": 0, "rotation": {"Points": [{"interpolation": 2, "co": {"Y": 0.0, "X": 1.0}}]}, "location_x": {"Points": [{"interpolation": 2, "co": {"Y": 0.0, "X": 1.0}}, {"interpolation": 1, "co": {"Y": 0.43511450381679384, "X": 192}}]}, "file_id": "IV7EF51HD1", "channel_filter": {"Points": [{"interpolation": 2, "co": {"Y": -1.0, "X": 1.0}}]}, "perspective_c3_x": {"Points": [{"interpolation": 2, "co": {"Y": -1.0, "X": 1.0}}]}, "perspective_c4_x": {"Points": [{"interpolation": 2, "co": {"Y": -1.0, "X": 1.0}}]}, "layer": 3, "wave_color": {"alpha": {"Points": [{"handle_right": {"Y": 0.0, "X": 0.5}, "handle_type": 0, "handle_left": {"Y": 1.0, "X": 0.5}, "co": {"Y": 255.0, "X": 1.0}, "interpolation": 0}]}, "red": {"Points": [{"handle_right": {"Y": 0.0, "X": 0.5}, "handle_type": 0, "handle_left": {"Y": 1.0, "X": 0.5}, "co": {"Y": 0.0, "X": 1.0}, "interpolation": 0}]}, "blue": {"Points": [{"handle_right": {"Y": 0.0, "X": 0.5}, "handle_type": 0, "handle_left": {"Y": 1.0, "X": 0.5}, "co": {"Y": 255.0, "X": 1.0}, "interpolation": 0}]}, "green": {"Points": [{"handle_right": {"Y": 0.0, "X": 0.5}, "handle_type": 0, "handle_left": {"Y": 1.0, "X": 0.5}, "co": {"Y": 123.0, "X": 1.0}, "interpolation": 0}]}}, "volume": {"Points": [{"interpolation": 2, "co": {"Y": 1.0, "X": 1.0}}]}, "has_video": {"Points": [{"interpolation": 2, "co": {"Y": -1.0, "X": 1.0}}]}, "location_y": {"Points": [{"interpolation": 2, "co": {"Y": 0.0, "X": 1.0}}, {"interpolation": 1, "co": {"Y": 0.45038167938931295, "X": 192}}]}, "gravity": 4, "alpha": {"Points": [{"interpolation": 2, "co": {"Y": 1.0, "X": 1.0}}, {"handle_right": {"Y": 0.0, "X": 0.5}, "handle_type": 0, "handle_left": {"Y": 1.0, "X": 0.5}, "co": {"Y": 0.0, "X": 1.0}, "interpolation": 0}, {"handle_right": {"Y": 0.0, "X": 0.5}, "handle_type": 0, "handle_left": {"Y": 1.0, "X": 0.5}, "co": {"Y": 1.0, "X": 73.0}, "interpolation": 0}, {"handle_right": {"Y": 0.0, "X": 0.5}, "handle_type": 0, "handle_left": {"Y": 1.0, "X": 0.5}, "co": {"Y": 1.0, "X": 1345.0}, "interpolation": 0}, {"handle_right": {"Y": 0.0, "X": 0.5}, "handle_type": 0, "handle_left": {"Y": 1.0, "X": 0.5}, "co": {"Y": 0.0, "X": 1417.0}, "interpolation": 0}]}, "scale": 1, "time": {"Points": [{"interpolation": 2, "co": {"Y": 1.0, "X": 1.0}}]}, "start": 0, "end": 59, "crop_width": {"Points": [{"interpolation": 2, "co": {"Y": -1.0, "X": 1.0}}]}, "scale_x": {"Points": [{"interpolation": 2, "co": {"Y": 1.0, "X": 1.0}}, {"interpolation": 1, "co": {"Y": 1.899999976158142, "X": 192}}]}, "image": "/home/milind/.openshot_qt/thumbnail/IV7EF51HD1.png", "id": "XNSK4PWD2F", "title": "07-Entered Record of 10 students.mkv", "shear_x": {"Points": [{"interpolation": 2, "co": {"Y": 0.0, "X": 1.0}}]}, "duration": 59.0, "perspective_c3_y": {"Points": [{"interpolation": 2, "co": {"Y": -1.0, "X": 1.0}}]}, "perspective_c2_y": {"Points": [{"interpolation": 2, "co": {"Y": -1.0, "X": 1.0}}]}, "reader": {"has_audio": false, "pixel_ratio": {"den": 1, "num": 1}, "video_length": "1475", "audio_bit_rate": 0, "interlaced_frame": false, "fps": {"den": 1, "num": 25}, "video_stream_index": 0, "video_bit_rate": 0, "display_ratio": {"den": 384, "num": 683}, "path": "/home/milind/Data/Projects/ProgressCard/Clips/07-Entered Record of 10 students.mkv", "channels": 0, "pixel_format": 0, "width": 1366, "sample_rate": 0, "audio_stream_index": -1, "duration": 59.0, "top_field_first": true, "channel_layout": 4, "video_timebase": {"den": 1000, "num": 1}, "type": "FFmpegReader", "has_single_image": false, "vcodec": "h264", "has_video": true, "acodec": "", "height": 768, "audio_timebase": {"den": 1, "num": 1}, "file_size": "595628"}, "perspective_c1_y": {"Points": [{"interpolation": 2, "co": {"Y": -1.0, "X": 1.0}}]}, "crop_height": {"Points": [{"interpolation": 2, "co": {"Y": -1.0, "X": 1.0}}]}, "effects": [], "waveform": false, "perspective_c1_x": {"Points": [{"interpolation": 2, "co": {"Y": -1.0, "X": 1.0}}]}, "perspective_c4_y": {"Points": [{"interpolation": 2, "co": {"Y": -1.0, "X": 1.0}}]}, "crop_x": {"Points": [{"interpolation": 2, "co": {"Y": 0.0, "X": 1.0}}]}, "channel_mapping": {"Points": [{"interpolation": 2, "co": {"Y": -1.0, "X": 1.0}}]}, "crop_y": {"Points": [{"interpolation": 2, "co": {"Y": 0.0, "X": 1.0}}]}, "display": 0, "anchor": 0, "perspective_c2_x": {"Points": [{"interpolation": 2, "co": {"Y": -1.0, "X": 1.0}}]}, "shear_y": {"Points": [{"interpolation": 2, "co": {"Y": 0.0, "X": 1.0}}]}, "scale_y": {"Points": [{"interpolation": 2, "co": {"Y": 1.0, "X": 1.0}}, {"interpolation": 1, "co": {"Y": 1.899999976158142, "X": 192}}]}}, "partial": false}, {"key": ["files"], "type": "insert", "value": {"has_audio": false, "pixel_ratio": {"num": 1, "den": 1}, "video_length": "2592000", "audio_bit_rate": 0, "height": 3827, "fps": {"num": 30, "den": 1}, "video_stream_index": -1, "video_bit_rate": 0, "display_ratio": {"num": 6803, "den": 3827}, "path": "/home/milind/Data/Projects/ProgressCard/Images/06-Slide-Create Students Record In Libre Calc.svg", "channels": 0, "media_type": "image", "vcodec": "", "id": "9DMFO1XFX6", "pixel_format": -1, "width": 6803, "sample_rate": 0, "audio_stream_index": -1, "duration": 86400.0, "top_field_first": true, "channel_layout": 4, "video_timebase": {"num": 1, "den": 30}, "type": "QtImageReader", "acodec": "", "interlaced_frame": false, "has_video": true, "has_single_image": true, "audio_timebase": {"num": 1, "den": 1}, "file_size": "104140324"}, "old_values": [{"has_audio": false, "pixel_ratio": {"den": 1, "num": 1}, "video_length": "2592000", "interlaced_frame": false, "audio_bit_rate": 0, "height": 1080, "fps": {"den": 1, "num": 30}, "video_stream_index": -1, "video_bit_rate": 0, "display_ratio": {"den": 9, "num": 16}, "path": "/home/milind/Data/Projects/ProgressCard/Images/01-White-Background.svg", "has_single_image": true, "media_type": "image", "id": "H51D80S6SD", "pixel_format": -1, "width": 1920, "sample_rate": 0, "audio_stream_index": -1, "duration": 86400.0, "type": "QtImageReader", "channel_layout": 4, "video_timebase": {"den": 30, "num": 1}, "top_field_first": true, "acodec": "", "vcodec": "", "has_video": true, "channels": 0, "audio_timebase": {"den": 1, "num": 1}, "file_size": "8294400"}, {"has_audio": false, "pixel_ratio": {"den": 1, "num": 1}, "video_length": "1475", "interlaced_frame": false, "audio_bit_rate": 0, "height": 768, "fps": {"den": 1, "num": 25}, "video_stream_index": 0, "video_bit_rate": 0, "display_ratio": {"den": 384, "num": 683}, "path": "/home/milind/Data/Projects/ProgressCard/Clips/07-Entered Record of 10 students.mkv", "has_single_image": false, "media_type": "video", "id": "J4ML763TY0", "pixel_format": 0, "width": 1366, "sample_rate": 0, "audio_stream_index": -1, "duration": 59.0, "type": "FFmpegReader", "channel_layout": 4, "video_timebase": {"den": 1000, "num": 1}, "top_field_first": true, "acodec": "", "vcodec": "h264", "has_video": true, "channels": 0, "audio_timebase": {"den": 1, "num": 1}, "file_size": "595628"}], "partial": false}, {"key": ["files"], "type": "insert", "value": {"has_audio": false, "pixel_ratio": {"num": 1, "den": 1}, "video_length": "2592000", "audio_bit_rate": 0, "height": 3827, "fps": {"num": 30, "den": 1}, "video_stream_index": -1, "video_bit_rate": 0, "display_ratio": {"num": 6803, "den": 3827}, "path": "/home/milind/Data/Projects/ProgressCard/Images/07-Slide -Open Libre Calc.svg", "channels": 0, "media_type": "image", "vcodec": "", "id": "OE5TV4582C", "pixel_format": -1, "width": 6803, "sample_rate": 0, "audio_stream_index": -1, "duration": 86400.0, "top_field_first": true, "channel_layout": 4, "video_timebase": {"num": 1, "den": 30}, "type": "QtImageReader", "acodec": "", "interlaced_frame": false, "has_video": true, "has_single_image": true, "audio_timebase": {"num": 1, "den": 1}, "file_size": "104140324"}, "old_values": [{"has_audio": false, "pixel_ratio": {"den": 1, "num": 1}, "video_length": "2592000", "interlaced_frame": false, "audio_bit_rate": 0, "height": 1080, "fps": {"den": 1, "num": 30}, "video_stream_index": -1, "video_bit_rate": 0, "display_ratio": {"den": 9, "num": 16}, "path": "/home/milind/Data/Projects/ProgressCard/Images/01-White-Background.svg", "has_single_image": true, "media_type": "image", "id": "H51D80S6SD", "pixel_format": -1, "width": 1920, "sample_rate": 0, "audio_stream_index": -1, "duration": 86400.0, "type": "QtImageReader", "channel_layout": 4, "video_timebase": {"den": 30, "num": 1}, "top_field_first": true, "acodec": "", "vcodec": "", "has_video": true, "channels": 0, "audio_timebase": {"den": 1, "num": 1}, "file_size": "8294400"}, {"has_audio": false, "pixel_ratio": {"den": 1, "num": 1}, "video_length": "1475", "interlaced_frame": false, "audio_bit_rate": 0, "height": 768, "fps": {"den": 1, "num": 25}, "video_stream_index": 0, "video_bit_rate": 0, "display_ratio": {"den": 384, "num": 683}, "path": "/home/milind/Data/Projects/ProgressCard/Clips/07-Entered Record of 10 students.mkv", "has_single_image": false, "media_type": "video", "id": "J4ML763TY0", "pixel_format": 0, "width": 1366, "sample_rate": 0, "audio_stream_index": -1, "duration": 59.0, "type": "FFmpegReader", "channel_layout": 4, "video_timebase": {"den": 1000, "num": 1}, "top_field_first": true, "acodec": "", "vcodec": "h264", "has_video": true, "channels": 0, "audio_timebase": {"den": 1, "num": 1}, "file_size": "595628"}, {"has_audio": false, "pixel_ratio": {"den": 1, "num": 1}, "video_length": "2592000", "interlaced_frame": false, "audio_bit_rate": 0, "height": 3827, "fps": {"den": 1, "num": 30}, "video_stream_index": -1, "video_bit_rate": 0, "display_ratio": {"den": 3827, "num": 6803}, "path": "/home/milind/Data/Projects/ProgressCard/Images/06-Slide-Create Students Record In Libre Calc.svg", "has_single_image": true, "media_type": "image", "id": "9DMFO1XFX6", "pixel_format": -1, "width": 6803, "sample_rate": 0, "audio_stream_index": -1, "duration": 86400.0, "type": "QtImageReader", "channel_layout": 4, "video_timebase": {"den": 30, "num": 1}, "top_field_first": true, "acodec": "", "vcodec": "", "has_video": true, "channels": 0, "audio_timebase": {"den": 1, "num": 1}, "file_size": "104140324"}], "partial": false}, {"key": ["clips"], "type": "insert", "value": {"has_audio": {"Points": [{"interpolation": 2, "co": {"X": 1.0, "Y": -1.0}}]}, "image": "/home/milind/.openshot_qt/thumbnail/9DMFO1XFX6.png", "rotation": {"Points": [{"interpolation": 2, "co": {"X": 1.0, "Y": 0.0}}]}, "anchor": 0, "location_x": {"Points": [{"interpolation": 2, "co": {"X": 1.0, "Y": 0.0}}]}, "file_id": "9DMFO1XFX6", "perspective_c1_y": {"Points": [{"interpolation": 2, "co": {"X": 1.0, "Y": -1.0}}]}, "gravity": 4, "perspective_c4_x": {"Points": [{"interpolation": 2, "co": {"X": 1.0, "Y": -1.0}}]}, "layer": 3, "wave_color": {"green": {"Points": [{"handle_right": {"X": 0.5, "Y": 0.0}, "handle_type": 0, "handle_left": {"X": 0.5, "Y": 1.0}, "co": {"X": 1.0, "Y": 123.0}, "interpolation": 0}]}, "red": {"Points": [{"handle_right": {"X": 0.5, "Y": 0.0}, "handle_type": 0, "handle_left": {"X": 0.5, "Y": 1.0}, "co": {"X": 1.0, "Y": 0.0}, "interpolation": 0}]}, "blue": {"Points": [{"handle_right": {"X": 0.5, "Y": 0.0}, "handle_type": 0, "handle_left": {"X": 0.5, "Y": 1.0}, "co": {"X": 1.0, "Y": 255.0}, "interpolation": 0}]}, "alpha": {"Points": [{"handle_right": {"X": 0.5, "Y": 0.0}, "handle_type": 0, "handle_left": {"X": 0.5, "Y": 1.0}, "co": {"X": 1.0, "Y": 255.0}, "interpolation": 0}]}}, "volume": {"Points": [{"interpolation": 2, "co": {"X": 1.0, "Y": 1.0}}]}, "display": 0, "location_y": {"Points": [{"interpolation": 2, "co": {"X": 1.0, "Y": 0.0}}]}, "perspective_c4_y": {"Points": [{"interpolation": 2, "co": {"X": 1.0, "Y": -1.0}}]}, "alpha": {"Points": [{"interpolation": 2, "co": {"X": 1.0, "Y": 1.0}}, {"handle_right": {"X": 0.5, "Y": 0.0}, "handle_type": 0, "handle_left": {"X": 0.5, "Y": 1.0}, "co": {"X": 1.0, "Y": 0.0}, "interpolation": 0}, {"handle_right": {"X": 0.5, "Y": 0.0}, "handle_type": 0, "handle_left": {"X": 0.5, "Y": 1.0}, "co": {"X": 73.0, "Y": 1.0}, "interpolation": 0}, {"handle_right": {"X": 0.5, "Y": 0.0}, "handle_type": 0, "handle_left": {"X": 0.5, "Y": 1.0}, "co": {"X": 169.0, "Y": 1.0}, "interpolation": 0}, {"handle_right": {"X": 0.5, "Y": 0.0}, "handle_type": 0, "handle_left": {"X": 0.5, "Y": 1.0}, "co": {"X": 241.0, "Y": 0.0}, "interpolation": 0}]}, "perspective_c2_x": {"Points": [{"interpolation": 2, "co": {"X": 1.0, "Y": -1.0}}]}, "scale": 1, "time": {"Points": [{"interpolation": 2, "co": {"X": 1.0, "Y": 1.0}}]}, "start": 0, "end": 10, "crop_width": {"Points": [{"interpolation": 2, "co": {"X": 1.0, "Y": -1.0}}]}, "position": 0, "id": "FBMFTB0HC9", "title": "06-Slide-Create Students Record In Libre Calc.svg", "shear_x": {"Points": [{"interpolation": 2, "co": {"X": 1.0, "Y": 0.0}}]}, "duration": 86400.0, "perspective_c3_y": {"Points": [{"interpolation": 2, "co": {"X": 1.0, "Y": -1.0}}]}, "crop_y": {"Points": [{"interpolation": 2, "co": {"X": 1.0, "Y": 0.0}}]}, "reader": {"has_audio": false, "pixel_ratio": {"num": 1, "den": 1}, "video_length": "2592000", "audio_bit_rate": 0, "height": 3827, "fps": {"num": 30, "den": 1}, "video_stream_index": -1, "video_bit_rate": 0, "display_ratio": {"num": 6803, "den": 3827}, "path": "/home/milind/Data/Projects/ProgressCard/Images/06-Slide-Create Students Record In Libre Calc.svg", "channels": 0, "vcodec": "", "pixel_format": -1, "width": 6803, "sample_rate": 0, "audio_stream_index": -1, "duration": 86400.0, "top_field_first": true, "channel_layout": 4, "video_timebase": {"num": 1, "den": 30}, "type": "QtImageReader", "acodec": "", "interlaced_frame": false, "has_video": true, "has_single_image": true, "audio_timebase": {"num": 1, "den": 1}, "file_size": "104140324"}, "channel_filter": {"Points": [{"interpolation": 2, "co": {"X": 1.0, "Y": -1.0}}]}, "crop_height": {"Points": [{"interpolation": 2, "co": {"X": 1.0, "Y": -1.0}}]}, "effects": [], "waveform": false, "perspective_c1_x": {"Points": [{"interpolation": 2, "co": {"X": 1.0, "Y": -1.0}}]}, "crop_x": {"Points": [{"interpolation": 2, "co": {"X": 1.0, "Y": 0.0}}]}, "channel_mapping": {"Points": [{"interpolation": 2, "co": {"X": 1.0, "Y": -1.0}}]}, "perspective_c2_y": {"Points": [{"interpolation": 2, "co": {"X": 1.0, "Y": -1.0}}]}, "has_video": {"Points": [{"interpolation": 2, "co": {"X": 1.0, "Y": -1.0}}]}, "scale_x": {"Points": [{"interpolation": 2, "co": {"X": 1.0, "Y": 1.0}}]}, "perspective_c3_x": {"Points": [{"interpolation": 2, "co": {"X": 1.0, "Y": -1.0}}]}, "shear_y": {"Points": [{"interpolation": 2, "co": {"X": 1.0, "Y": 0.0}}]}, "scale_y": {"Points": [{"interpolation": 2, "co": {"X": 1.0, "Y": 1.0}}]}}, "old_values": [{"has_audio": {"Points": [{"interpolation": 2, "co": {"Y": -1.0, "X": 1.0}}]}, "perspective_c1_x": {"Points": [{"interpolation": 2, "co": {"Y": -1.0, "X": 1.0}}]}, "rotation": {"Points": [{"interpolation": 2, "co": {"Y": 0.0, "X": 1.0}}]}, "location_x": {"Points": [{"interpolation": 2, "co": {"Y": 0.0, "X": 1.0}}, {"interpolation": 1, "co": {"Y": 0.43511450381679384, "X": 192}}]}, "file_id": "IV7EF51HD1", "perspective_c1_y": {"Points": [{"interpolation": 2, "co": {"Y": -1.0, "X": 1.0}}]}, "perspective_c3_x": {"Points": [{"interpolation": 2, "co": {"Y": -1.0, "X": 1.0}}]}, "perspective_c4_x": {"Points": [{"interpolation": 2, "co": {"Y": -1.0, "X": 1.0}}]}, "volume": {"Points": [{"interpolation": 2, "co": {"Y": 1.0, "X": 1.0}}]}, "wave_color": {"alpha": {"Points": [{"handle_right": {"Y": 0.0, "X": 0.5}, "handle_type": 0, "handle_left": {"Y": 1.0, "X": 0.5}, "co": {"Y": 255.0, "X": 1.0}, "interpolation": 0}]}, "red": {"Points": [{"handle_right": {"Y": 0.0, "X": 0.5}, "handle_type": 0, "handle_left": {"Y": 1.0, "X": 0.5}, "co": {"Y": 0.0, "X": 1.0}, "interpolation": 0}]}, "blue": {"Points": [{"handle_right": {"Y": 0.0, "X": 0.5}, "handle_type": 0, "handle_left": {"Y": 1.0, "X": 0.5}, "co": {"Y": 255.0, "X": 1.0}, "interpolation": 0}]}, "green": {"Points": [{"handle_right": {"Y": 0.0, "X": 0.5}, "handle_type": 0, "handle_left": {"Y": 1.0, "X": 0.5}, "co": {"Y": 123.0, "X": 1.0}, "interpolation": 0}]}}, "layer": 5, "has_video": {"Points": [{"interpolation": 2, "co": {"Y": -1.0, "X": 1.0}}]}, "location_y": {"Points": [{"interpolation": 2, "co": {"Y": 0.0, "X": 1.0}}, {"interpolation": 1, "co": {"Y": 0.45038167938931295, "X": 192}}]}, "perspective_c2_y": {"Points": [{"interpolation": 2, "co": {"Y": -1.0, "X": 1.0}}]}, "perspective_c2_x": {"Points": [{"interpolation": 2, "co": {"Y": -1.0, "X": 1.0}}]}, "scale": 1, "time": {"Points": [{"interpolation": 2, "co": {"Y": 1.0, "X": 1.0}}]}, "start": 0, "end": 59, "channel_mapping": {"Points": [{"interpolation": 2, "co": {"Y": -1.0, "X": 1.0}}]}, "position": 125.0, "id": "GF97G5QV3C", "crop_x": {"Points": [{"interpolation": 2, "co": {"Y": 0.0, "X": 1.0}}]}, "title": "07-Entered Record of 10 students.mkv", "shear_x": {"Points": [{"interpolation": 2, "co": {"Y": 0.0, "X": 1.0}}]}, "duration": 59.0, "perspective_c3_y": {"Points": [{"interpolation": 2, "co": {"Y": -1.0, "X": 1.0}}]}, "crop_y": {"Points": [{"interpolation": 2, "co": {"Y": 0.0, "X": 1.0}}]}, "reader": {"has_audio": false, "pixel_ratio": {"den": 1, "num": 1}, "video_length": "1475", "audio_bit_rate": 0, "interlaced_frame": false, "fps": {"den": 1, "num": 25}, "video_stream_index": 0, "video_bit_rate": 0, "display_ratio": {"den": 384, "num": 683}, "path": "/home/milind/Data/Projects/ProgressCard/Clips/07-Entered Record of 10 students.mkv", "channels": 0, "pixel_format": 0, "width": 1366, "sample_rate": 0, "audio_stream_index": -1, "duration": 59.0, "top_field_first": true, "channel_layout": 4, "video_timebase": {"den": 1000, "num": 1}, "type": "FFmpegReader", "has_single_image": false, "vcodec": "h264", "has_video": true, "acodec": "", "height": 768, "audio_timebase": {"den": 1, "num": 1}, "file_size": "595628"}, "channel_filter": {"Points": [{"interpolation": 2, "co": {"Y": -1.0, "X": 1.0}}]}, "crop_height": {"Points": [{"interpolation": 2, "co": {"Y": -1.0, "X": 1.0}}]}, "effects": [], "waveform": false, "perspective_c4_y": {"Points": [{"interpolation": 2, "co": {"Y": -1.0, "X": 1.0}}]}, "scale_x": {"Points": [{"interpolation": 2, "co": {"Y": 1.0, "X": 1.0}}, {"interpolation": 1, "co": {"Y": 1.899999976158142, "X": 192}}]}, "crop_width": {"Points": [{"interpolation": 2, "co": {"Y": -1.0, "X": 1.0}}]}, "alpha": {"Points": [{"interpolation": 2, "co": {"Y": 1.0, "X": 1.0}}, {"handle_right": {"Y": 0.0, "X": 0.5}, "handle_type": 0, "handle_left": {"Y": 1.0, "X": 0.5}, "co": {"Y": 0.0, "X": 1.0}, "interpolation": 0}, {"handle_right": {"Y": 0.0, "X": 0.5}, "handle_type": 0, "handle_left": {"Y": 1.0, "X": 0.5}, "co": {"Y": 1.0, "X": 73.0}, "interpolation": 0}, {"handle_right": {"Y": 0.0, "X": 0.5}, "handle_type": 0, "handle_left": {"Y": 1.0, "X": 0.5}, "co": {"Y": 1.0, "X": 1345.0}, "interpolation": 0}, {"handle_right": {"Y": 0.0, "X": 0.5}, "handle_type": 0, "handle_left": {"Y": 1.0, "X": 0.5}, "co": {"Y": 0.0, "X": 1417.0}, "interpolation": 0}]}, "display": 0, "anchor": 0, "image": "/home/milind/.openshot_qt/thumbnail/IV7EF51HD1.png", "gravity": 4, "shear_y": {"Points": [{"interpolation": 2, "co": {"Y": 0.0, "X": 1.0}}]}, "scale_y": {"Points": [{"interpolation": 2, "co": {"Y": 1.0, "X": 1.0}}, {"interpolation": 1, "co": {"Y": 1.899999976158142, "X": 192}}]}}, {"has_audio": {"Points": [{"interpolation": 2, "co": {"Y": -1.0, "X": 1.0}}]}, "position": 26.08, "rotation": {"Points": [{"interpolation": 2, "co": {"Y": 0.0, "X": 1.0}}]}, "location_x": {"Points": [{"interpolation": 2, "co": {"Y": 0.0, "X": 1.0}}, {"interpolation": 1, "co": {"Y": 0.43511450381679384, "X": 192}}]}, "file_id": "IV7EF51HD1", "channel_filter": {"Points": [{"interpolation": 2, "co": {"Y": -1.0, "X": 1.0}}]}, "perspective_c3_x": {"Points": [{"interpolation": 2, "co": {"Y": -1.0, "X": 1.0}}]}, "perspective_c4_x": {"Points": [{"interpolation": 2, "co": {"Y": -1.0, "X": 1.0}}]}, "layer": 3, "wave_color": {"alpha": {"Points": [{"handle_right": {"Y": 0.0, "X": 0.5}, "handle_type": 0, "handle_left": {"Y": 1.0, "X": 0.5}, "co": {"Y": 255.0, "X": 1.0}, "interpolation": 0}]}, "red": {"Points": [{"handle_right": {"Y": 0.0, "X": 0.5}, "handle_type": 0, "handle_left": {"Y": 1.0, "X": 0.5}, "co": {"Y": 0.0, "X": 1.0}, "interpolation": 0}]}, "blue": {"Points": [{"handle_right": {"Y": 0.0, "X": 0.5}, "handle_type": 0, "handle_left": {"Y": 1.0, "X": 0.5}, "co": {"Y": 255.0, "X": 1.0}, "interpolation": 0}]}, "green": {"Points": [{"handle_right": {"Y": 0.0, "X": 0.5}, "handle_type": 0, "handle_left": {"Y": 1.0, "X": 0.5}, "co": {"Y": 123.0, "X": 1.0}, "interpolation": 0}]}}, "volume": {"Points": [{"interpolation": 2, "co": {"Y": 1.0, "X": 1.0}}]}, "has_video": {"Points": [{"interpolation": 2, "co": {"Y": -1.0, "X": 1.0}}]}, "location_y": {"Points": [{"interpolation": 2, "co": {"Y": 0.0, "X": 1.0}}, {"interpolation": 1, "co": {"Y": 0.45038167938931295, "X": 192}}]}, "gravity": 4, "alpha": {"Points": [{"interpolation": 2, "co": {"Y": 1.0, "X": 1.0}}, {"handle_right": {"Y": 0.0, "X": 0.5}, "handle_type": 0, "handle_left": {"Y": 1.0, "X": 0.5}, "co": {"Y": 0.0, "X": 1.0}, "interpolation": 0}, {"handle_right": {"Y": 0.0, "X": 0.5}, "handle_type": 0, "handle_left": {"Y": 1.0, "X": 0.5}, "co": {"Y": 1.0, "X": 73.0}, "interpolation": 0}, {"handle_right": {"Y": 0.0, "X": 0.5}, "handle_type": 0, "handle_left": {"Y": 1.0, "X": 0.5}, "co": {"Y": 1.0, "X": 1345.0}, "interpolation": 0}, {"handle_right": {"Y": 0.0, "X": 0.5}, "handle_type": 0, "handle_left": {"Y": 1.0, "X": 0.5}, "co": {"Y": 0.0, "X": 1417.0}, "interpolation": 0}]}, "scale": 1, "time": {"Points": [{"interpolation": 2, "co": {"Y": 1.0, "X": 1.0}}]}, "start": 0, "end": 59, "crop_width": {"Points": [{"interpolation": 2, "co": {"Y": -1.0, "X": 1.0}}]}, "scale_x": {"Points": [{"interpolation": 2, "co": {"Y": 1.0, "X": 1.0}}, {"interpolation": 1, "co": {"Y": 1.899999976158142, "X": 192}}]}, "image": "/home/milind/.openshot_qt/thumbnail/IV7EF51HD1.png", "id": "XNSK4PWD2F", "title": "07-Entered Record of 10 students.mkv", "shear_x": {"Points": [{"interpolation": 2, "co": {"Y": 0.0, "X": 1.0}}]}, "duration": 59.0, "perspective_c3_y": {"Points": [{"interpolation": 2, "co": {"Y": -1.0, "X": 1.0}}]}, "perspective_c2_y": {"Points": [{"interpolation": 2, "co": {"Y": -1.0, "X": 1.0}}]}, "reader": {"has_audio": false, "pixel_ratio": {"den": 1, "num": 1}, "video_length": "1475", "audio_bit_rate": 0, "interlaced_frame": false, "fps": {"den": 1, "num": 25}, "video_stream_index": 0, "video_bit_rate": 0, "display_ratio": {"den": 384, "num": 683}, "path": "/home/milind/Data/Projects/ProgressCard/Clips/07-Entered Record of 10 students.mkv", "channels": 0, "pixel_format": 0, "width": 1366, "sample_rate": 0, "audio_stream_index": -1, "duration": 59.0, "top_field_first": true, "channel_layout": 4, "video_timebase": {"den": 1000, "num": 1}, "type": "FFmpegReader", "has_single_image": false, "vcodec": "h264", "has_video": true, "acodec": "", "height": 768, "audio_timebase": {"den": 1, "num": 1}, "file_size": "595628"}, "perspective_c1_y": {"Points": [{"interpolation": 2, "co": {"Y": -1.0, "X": 1.0}}]}, "crop_height": {"Points": [{"interpolation": 2, "co": {"Y": -1.0, "X": 1.0}}]}, "effects": [], "waveform": false, "perspective_c1_x": {"Points": [{"interpolation": 2, "co": {"Y": -1.0, "X": 1.0}}]}, "perspective_c4_y": {"Points": [{"interpolation": 2, "co": {"Y": -1.0, "X": 1.0}}]}, "crop_x": {"Points": [{"interpolation": 2, "co": {"Y": 0.0, "X": 1.0}}]}, "channel_mapping": {"Points": [{"interpolation": 2, "co": {"Y": -1.0, "X": 1.0}}]}, "crop_y": {"Points": [{"interpolation": 2, "co": {"Y": 0.0, "X": 1.0}}]}, "display": 0, "anchor": 0, "perspective_c2_x": {"Points": [{"interpolation": 2, "co": {"Y": -1.0, "X": 1.0}}]}, "shear_y": {"Points": [{"interpolation": 2, "co": {"Y": 0.0, "X": 1.0}}]}, "scale_y": {"Points": [{"interpolation": 2, "co": {"Y": 1.0, "X": 1.0}}, {"interpolation": 1, "co": {"Y": 1.899999976158142, "X": 192}}]}}, {"has_audio": {"Points": [{"interpolation": 2, "co": {"X": 1.0, "Y": -1.0}}]}, "position": 0, "rotation": {"Points": [{"interpolation": 2, "co": {"X": 1.0, "Y": 0.0}}]}, "location_x": {"Points": [{"interpolation": 2, "co": {"X": 1.0, "Y": 0.0}}]}, "file_id": "H51D80S6SD", "channel_filter": {"Points": [{"interpolation": 2, "co": {"X": 1.0, "Y": -1.0}}]}, "gravity": 4, "perspective_c4_x": {"Points": [{"interpolation": 2, "co": {"X": 1.0, "Y": -1.0}}]}, "layer": 2, "wave_color": {"alpha": {"Points": [{"handle_right": {"X": 0.5, "Y": 0.0}, "handle_type": 0, "handle_left": {"X": 0.5, "Y": 1.0}, "co": {"X": 1.0, "Y": 255.0}, "interpolation": 0}]}, "red": {"Points": [{"handle_right": {"X": 0.5, "Y": 0.0}, "handle_type": 0, "handle_left": {"X": 0.5, "Y": 1.0}, "co": {"X": 1.0, "Y": 0.0}, "interpolation": 0}]}, "blue": {"Points": [{"handle_right": {"X": 0.5, "Y": 0.0}, "handle_type": 0, "handle_left": {"X": 0.5, "Y": 1.0}, "co": {"X": 1.0, "Y": 255.0}, "interpolation": 0}]}, "green": {"Points": [{"handle_right": {"X": 0.5, "Y": 0.0}, "handle_type": 0, "handle_left": {"X": 0.5, "Y": 1.0}, "co": {"X": 1.0, "Y": 123.0}, "interpolation": 0}]}}, "volume": {"Points": [{"interpolation": 2, "co": {"X": 1.0, "Y": 1.0}}]}, "perspective_c3_x": {"Points": [{"interpolation": 2, "co": {"X": 1.0, "Y": -1.0}}]}, "has_video": {"Points": [{"interpolation": 2, "co": {"X": 1.0, "Y": -1.0}}]}, "location_y": {"Points": [{"interpolation": 2, "co": {"X": 1.0, "Y": 0.0}}]}, "perspective_c2_y": {"Points": [{"interpolation": 2, "co": {"X": 1.0, "Y": -1.0}}]}, "scale": 1, "time": {"Points": [{"interpolation": 2, "co": {"X": 1.0, "Y": 1.0}}]}, "start": 0, "end": 68.72, "crop_width": {"Points": [{"interpolation": 2, "co": {"X": 1.0, "Y": -1.0}}]}, "scale_x": {"Points": [{"interpolation": 2, "co": {"X": 1.0, "Y": 1.0}}]}, "image": "/home/milind/.openshot_qt/thumbnail/H51D80S6SD.png", "id": "T5YYS00GWW", "title": "01-White-Background.svg", "shear_x": {"Points": [{"interpolation": 2, "co": {"X": 1.0, "Y": 0.0}}]}, "duration": 86400.0, "perspective_c3_y": {"Points": [{"interpolation": 2, "co": {"X": 1.0, "Y": -1.0}}]}, "crop_y": {"Points": [{"interpolation": 2, "co": {"X": 1.0, "Y": 0.0}}]}, "reader": {"has_audio": false, "pixel_ratio": {"den": 1, "num": 1}, "video_length": "2592000", "interlaced_frame": false, "audio_bit_rate": 0, "height": 1080, "fps": {"den": 1, "num": 30}, "video_stream_index": -1, "video_bit_rate": 0, "display_ratio": {"den": 9, "num": 16}, "path": "/home/milind/Data/Projects/ProgressCard/Images/01-White-Background.svg", "has_single_image": true, "pixel_format": -1, "width": 1920, "sample_rate": 0, "audio_stream_index": -1, "duration": 86400.0, "type": "QtImageReader", "channel_layout": 4, "video_timebase": {"den": 30, "num": 1}, "top_field_first": true, "acodec": "", "vcodec": "", "has_video": true, "channels": 0, "audio_timebase": {"den": 1, "num": 1}, "file_size": "8294400"}, "perspective_c1_y": {"Points": [{"interpolation": 2, "co": {"X": 1.0, "Y": -1.0}}]}, "crop_height": {"Points": [{"interpolation": 2, "co": {"X": 1.0, "Y": -1.0}}]}, "effects": [], "waveform": false, "perspective_c1_x": {"Points": [{"interpolation": 2, "co": {"X": 1.0, "Y": -1.0}}]}, "perspective_c4_y": {"Points": [{"interpolation": 2, "co": {"X": 1.0, "Y": -1.0}}]}, "crop_x": {"Points": [{"interpolation": 2, "co": {"X": 1.0, "Y": 0.0}}]}, "channel_mapping": {"Points": [{"interpolation": 2, "co": {"X": 1.0, "Y": -1.0}}]}, "alpha": {"Points": [{"interpolation": 2, "co": {"X": 1.0, "Y": 1.0}}]}, "display": 0, "anchor": 0, "perspective_c2_x": {"Points": [{"interpolation": 2, "co": {"X": 1.0, "Y": -1.0}}]}, "shear_y": {"Points": [{"interpolation": 2, "co": {"X": 1.0, "Y": 0.0}}]}, "scale_y": {"Points": [{"interpolation": 2, "co": {"X": 1.0, "Y": 1.0}}]}}], "partial": false}, {"key": ["clips", {"id": "FBMFTB0HC9"}], "type": "update", "value": {"position": 0, "id": "FBMFTB0HC9", "image": "/home/milind/.openshot_qt/thumbnail/9DMFO1XFX6.png", "start": 0, "layer": 3, "end": 10}, "old_values": {"has_audio": {"Points": [{"interpolation": 2, "co": {"X": 1.0, "Y": -1.0}}]}, "position": 0.0, "rotation": {"Points": [{"interpolation": 2, "co": {"X": 1.0, "Y": 0.0}}]}, "location_x": {"Points": [{"interpolation": 2, "co": {"X": 1.0, "Y": 0.0}}]}, "file_id": "9DMFO1XFX6", "perspective_c1_y": {"Points": [{"interpolation": 2, "co": {"X": 1.0, "Y": -1.0}}]}, "gravity": 4, "perspective_c4_x": {"Points": [{"interpolation": 2, "co": {"X": 1.0, "Y": -1.0}}]}, "layer": 4, "wave_color": {"alpha": {"Points": [{"handle_right": {"X": 0.5, "Y": 0.0}, "handle_type": 0, "handle_left": {"X": 0.5, "Y": 1.0}, "co": {"X": 1.0, "Y": 255.0}, "interpolation": 0}]}, "red": {"Points": [{"handle_right": {"X": 0.5, "Y": 0.0}, "handle_type": 0, "handle_left": {"X": 0.5, "Y": 1.0}, "co": {"X": 1.0, "Y": 0.0}, "interpolation": 0}]}, "blue": {"Points": [{"handle_right": {"X": 0.5, "Y": 0.0}, "handle_type": 0, "handle_left": {"X": 0.5, "Y": 1.0}, "co": {"X": 1.0, "Y": 255.0}, "interpolation": 0}]}, "green": {"Points": [{"handle_right": {"X": 0.5, "Y": 0.0}, "handle_type": 0, "handle_left": {"X": 0.5, "Y": 1.0}, "co": {"X": 1.0, "Y": 123.0}, "interpolation": 0}]}}, "start": 0.0, "has_video": {"Points": [{"interpolation": 2, "co": {"X": 1.0, "Y": -1.0}}]}, "location_y": {"Points": [{"interpolation": 2, "co": {"X": 1.0, "Y": 0.0}}]}, "alpha": {"Points": [{"interpolation": 2, "co": {"X": 1.0, "Y": 1.0}}]}, "perspective_c2_x": {"Points": [{"interpolation": 2, "co": {"X": 1.0, "Y": -1.0}}]}, "scale": 1, "time": {"Points": [{"interpolation": 2, "co": {"X": 1.0, "Y": 1.0}}]}, "anchor": 0, "end": 10.0, "channel_mapping": {"Points": [{"interpolation": 2, "co": {"X": 1.0, "Y": -1.0}}]}, "volume": {"Points": [{"interpolation": 2, "co": {"X": 1.0, "Y": 1.0}}]}, "image": "/home/milind/.openshot_qt/thumbnail/9DMFO1XFX6.png", "id": "FBMFTB0HC9", "title": "06-Slide-Create Students Record In Libre Calc.svg", "shear_x": {"Points": [{"interpolation": 2, "co": {"X": 1.0, "Y": 0.0}}]}, "duration": 86400.0, "perspective_c3_y": {"Points": [{"interpolation": 2, "co": {"X": 1.0, "Y": -1.0}}]}, "crop_y": {"Points": [{"interpolation": 2, "co": {"X": 1.0, "Y": 0.0}}]}, "reader": {"has_audio": false, "pixel_ratio": {"den": 1, "num": 1}, "video_length": "2592000", "interlaced_frame": false, "audio_bit_rate": 0, "height": 3827, "fps": {"den": 1, "num": 30}, "video_stream_index": -1, "video_bit_rate": 0, "display_ratio": {"den": 3827, "num": 6803}, "path": "/home/milind/Data/Projects/ProgressCard/Images/06-Slide-Create Students Record In Libre Calc.svg", "has_single_image": true, "pixel_format": -1, "width": 6803, "sample_rate": 0, "audio_stream_index": -1, "duration": 86400.0, "type": "QtImageReader", "channel_layout": 4, "video_timebase": {"den": 30, "num": 1}, "top_field_first": true, "acodec": "", "vcodec": "", "has_video": true, "channels": 0, "audio_timebase": {"den": 1, "num": 1}, "file_size": "104140324"}, "channel_filter": {"Points": [{"interpolation": 2, "co": {"X": 1.0, "Y": -1.0}}]}, "crop_height": {"Points": [{"interpolation": 2, "co": {"X": 1.0, "Y": -1.0}}]}, "effects": [], "waveform": false, "perspective_c1_x": {"Points": [{"interpolation": 2, "co": {"X": 1.0, "Y": -1.0}}]}, "perspective_c4_y": {"Points": [{"interpolation": 2, "co": {"X": 1.0, "Y": -1.0}}]}, "crop_x": {"Points": [{"interpolation": 2, "co": {"X": 1.0, "Y": 0.0}}]}, "crop_width": {"Points": [{"interpolation": 2, "co": {"X": 1.0, "Y": -1.0}}]}, "perspective_c2_y": {"Points": [{"interpolation": 2, "co": {"X": 1.0, "Y": -1.0}}]}, "display": 0, "scale_x": {"Points": [{"interpolation": 2, "co": {"X": 1.0, "Y": 1.0}}]}, "perspective_c3_x": {"Points": [{"interpolation": 2, "co": {"X": 1.0, "Y": -1.0}}]}, "shear_y": {"Points": [{"interpolation": 2, "co": {"X": 1.0, "Y": 0.0}}]}, "scale_y": {"Points": [{"interpolation": 2, "co": {"X": 1.0, "Y": 1.0}}]}}, "partial": false}, {"key": ["clips"], "type": "insert", "value": {"has_audio": {"Points": [{"interpolation": 2, "co": {"X": 1.0, "Y": -1.0}}]}, "image": "/home/milind/.openshot_qt/thumbnail/OE5TV4582C.png", "rotation": {"Points": [{"interpolation": 2, "co": {"X": 1.0, "Y": 0.0}}]}, "crop_y": {"Points": [{"interpolation": 2, "co": {"X": 1.0, "Y": 0.0}}]}, "location_x": {"Points": [{"interpolation": 2, "co": {"X": 1.0, "Y": 0.0}}]}, "file_id": "OE5TV4582C", "channel_filter": {"Points": [{"interpolation": 2, "co": {"X": 1.0, "Y": -1.0}}]}, "gravity": 4, "perspective_c4_x": {"Points": [{"interpolation": 2, "co": {"X": 1.0, "Y": -1.0}}]}, "layer": 4, "wave_color": {"green": {"Points": [{"handle_right": {"X": 0.5, "Y": 0.0}, "handle_type": 0, "handle_left": {"X": 0.5, "Y": 1.0}, "co": {"X": 1.0, "Y": 123.0}, "interpolation": 0}]}, "red": {"Points": [{"handle_right": {"X": 0.5, "Y": 0.0}, "handle_type": 0, "handle_left": {"X": 0.5, "Y": 1.0}, "co": {"X": 1.0, "Y": 0.0}, "interpolation": 0}]}, "blue": {"Points": [{"handle_right": {"X": 0.5, "Y": 0.0}, "handle_type": 0, "handle_left": {"X": 0.5, "Y": 1.0}, "co": {"X": 1.0, "Y": 255.0}, "interpolation": 0}]}, "alpha": {"Points": [{"handle_right": {"X": 0.5, "Y": 0.0}, "handle_type": 0, "handle_left": {"X": 0.5, "Y": 1.0}, "co": {"X": 1.0, "Y": 255.0}, "interpolation": 0}]}}, "start": 0.0, "perspective_c3_x": {"Points": [{"interpolation": 2, "co": {"X": 1.0, "Y": -1.0}}]}, "display": 0, "location_y": {"Points": [{"interpolation": 2, "co": {"X": 1.0, "Y": 0.0}}]}, "perspective_c4_y": {"Points": [{"interpolation": 2, "co": {"X": 1.0, "Y": -1.0}}]}, "scale": 1, "time": {"Points": [{"interpolation": 2, "co": {"X": 1.0, "Y": 1.0}}]}, "end": 10.0, "channel_mapping": {"Points": [{"interpolation": 2, "co": {"X": 1.0, "Y": -1.0}}]}, "volume": {"Points": [{"interpolation": 2, "co": {"X": 1.0, "Y": 1.0}}]}, "position": 9.76, "id": "U2RBKTDKLK", "crop_x": {"Points": [{"interpolation": 2, "co": {"X": 1.0, "Y": 0.0}}]}, "title": "07-Slide -Open Libre Calc.svg", "shear_x": {"Points": [{"interpolation": 2, "co": {"X": 1.0, "Y": 0.0}}]}, "duration": 86400.0, "perspective_c3_y": {"Points": [{"interpolation": 2, "co": {"X": 1.0, "Y": -1.0}}]}, "perspective_c2_y": {"Points": [{"interpolation": 2, "co": {"X": 1.0, "Y": -1.0}}]}, "reader": {"has_audio": false, "pixel_ratio": {"num": 1, "den": 1}, "video_length": "2592000", "audio_bit_rate": 0, "height": 3827, "fps": {"num": 30, "den": 1}, "video_stream_index": -1, "video_bit_rate": 0, "display_ratio": {"num": 6803, "den": 3827}, "path": "/home/milind/Data/Projects/ProgressCard/Images/07-Slide -Open Libre Calc.svg", "channels": 0, "vcodec": "", "pixel_format": -1, "width": 6803, "sample_rate": 0, "audio_stream_index": -1, "duration": 86400.0, "top_field_first": true, "channel_layout": 4, "video_timebase": {"num": 1, "den": 30}, "type": "QtImageReader", "acodec": "", "interlaced_frame": false, "has_video": true, "has_single_image": true, "audio_timebase": {"num": 1, "den": 1}, "file_size": "104140324"}, "perspective_c1_y": {"Points": [{"interpolation": 2, "co": {"X": 1.0, "Y": -1.0}}]}, "crop_height": {"Points": [{"interpolation": 2, "co": {"X": 1.0, "Y": -1.0}}]}, "effects": [], "waveform": false, "perspective_c1_x": {"Points": [{"interpolation": 2, "co": {"X": 1.0, "Y": -1.0}}]}, "scale_x": {"Points": [{"interpolation": 2, "co": {"X": 1.0, "Y": 1.0}}]}, "crop_width": {"Points": [{"interpolation": 2, "co": {"X": 1.0, "Y": -1.0}}]}, "alpha": {"Points": [{"interpolation": 2, "co": {"X": 1.0, "Y": 1.0}}]}, "has_video": {"Points": [{"interpolation": 2, "co": {"X": 1.0, "Y": -1.0}}]}, "anchor": 0, "perspective_c2_x": {"Points": [{"interpolation": 2, "co": {"X": 1.0, "Y": -1.0}}]}, "shear_y": {"Points": [{"interpolation": 2, "co": {"X": 1.0, "Y": 0.0}}]}, "scale_y": {"Points": [{"interpolation": 2, "co": {"X": 1.0, "Y": 1.0}}]}}, "old_values": [{"has_audio": {"Points": [{"interpolation": 2, "co": {"Y": -1.0, "X": 1.0}}]}, "perspective_c1_x": {"Points": [{"interpolation": 2, "co": {"Y": -1.0, "X": 1.0}}]}, "rotation": {"Points": [{"interpolation": 2, "co": {"Y": 0.0, "X": 1.0}}]}, "location_x": {"Points": [{"interpolation": 2, "co": {"Y": 0.0, "X": 1.0}}, {"interpolation": 1, "co": {"Y": 0.43511450381679384, "X": 192}}]}, "file_id": "IV7EF51HD1", "perspective_c1_y": {"Points": [{"interpolation": 2, "co": {"Y": -1.0, "X": 1.0}}]}, "perspective_c3_x": {"Points": [{"interpolation": 2, "co": {"Y": -1.0, "X": 1.0}}]}, "perspective_c4_x": {"Points": [{"interpolation": 2, "co": {"Y": -1.0, "X": 1.0}}]}, "volume": {"Points": [{"interpolation": 2, "co": {"Y": 1.0, "X": 1.0}}]}, "wave_color": {"alpha": {"Points": [{"handle_right": {"Y": 0.0, "X": 0.5}, "handle_type": 0, "handle_left": {"Y": 1.0, "X": 0.5}, "co": {"Y": 255.0, "X": 1.0}, "interpolation": 0}]}, "red": {"Points": [{"handle_right": {"Y": 0.0, "X": 0.5}, "handle_type": 0, "handle_left": {"Y": 1.0, "X": 0.5}, "co": {"Y": 0.0, "X": 1.0}, "interpolation": 0}]}, "blue": {"Points": [{"handle_right": {"Y": 0.0, "X": 0.5}, "handle_type": 0, "handle_left": {"Y": 1.0, "X": 0.5}, "co": {"Y": 255.0, "X": 1.0}, "interpolation": 0}]}, "green": {"Points": [{"handle_right": {"Y": 0.0, "X": 0.5}, "handle_type": 0, "handle_left": {"Y": 1.0, "X": 0.5}, "co": {"Y": 123.0, "X": 1.0}, "interpolation": 0}]}}, "layer": 5, "has_video": {"Points": [{"interpolation": 2, "co": {"Y": -1.0, "X": 1.0}}]}, "location_y": {"Points": [{"interpolation": 2, "co": {"Y": 0.0, "X": 1.0}}, {"interpolation": 1, "co": {"Y": 0.45038167938931295, "X": 192}}]}, "perspective_c2_y": {"Points": [{"interpolation": 2, "co": {"Y": -1.0, "X": 1.0}}]}, "perspective_c2_x": {"Points": [{"interpolation": 2, "co": {"Y": -1.0, "X": 1.0}}]}, "scale": 1, "time": {"Points": [{"interpolation": 2, "co": {"Y": 1.0, "X": 1.0}}]}, "start": 0, "end": 59, "channel_mapping": {"Points": [{"interpolation": 2, "co": {"Y": -1.0, "X": 1.0}}]}, "position": 125.0, "id": "GF97G5QV3C", "crop_x": {"Points": [{"interpolation": 2, "co": {"Y": 0.0, "X": 1.0}}]}, "title": "07-Entered Record of 10 students.mkv", "shear_x": {"Points": [{"interpolation": 2, "co": {"Y": 0.0, "X": 1.0}}]}, "duration": 59.0, "perspective_c3_y": {"Points": [{"interpolation": 2, "co": {"Y": -1.0, "X": 1.0}}]}, "crop_y": {"Points": [{"interpolation": 2, "co": {"Y": 0.0, "X": 1.0}}]}, "reader": {"has_audio": false, "pixel_ratio": {"den": 1, "num": 1}, "video_length": "1475", "audio_bit_rate": 0, "interlaced_frame": false, "fps": {"den": 1, "num": 25}, "video_stream_index": 0, "video_bit_rate": 0, "display_ratio": {"den": 384, "num": 683}, "path": "/home/milind/Data/Projects/ProgressCard/Clips/07-Entered Record of 10 students.mkv", "channels": 0, "pixel_format": 0, "width": 1366, "sample_rate": 0, "audio_stream_index": -1, "duration": 59.0, "top_field_first": true, "channel_layout": 4, "video_timebase": {"den": 1000, "num": 1}, "type": "FFmpegReader", "has_single_image": false, "vcodec": "h264", "has_video": true, "acodec": "", "height": 768, "audio_timebase": {"den": 1, "num": 1}, "file_size": "595628"}, "channel_filter": {"Points": [{"interpolation": 2, "co": {"Y": -1.0, "X": 1.0}}]}, "crop_height": {"Points": [{"interpolation": 2, "co": {"Y": -1.0, "X": 1.0}}]}, "effects": [], "waveform": false, "perspective_c4_y": {"Points": [{"interpolation": 2, "co": {"Y": -1.0, "X": 1.0}}]}, "scale_x": {"Points": [{"interpolation": 2, "co": {"Y": 1.0, "X": 1.0}}, {"interpolation": 1, "co": {"Y": 1.899999976158142, "X": 192}}]}, "crop_width": {"Points": [{"interpolation": 2, "co": {"Y": -1.0, "X": 1.0}}]}, "alpha": {"Points": [{"interpolation": 2, "co": {"Y": 1.0, "X": 1.0}}, {"handle_right": {"Y": 0.0, "X": 0.5}, "handle_type": 0, "handle_left": {"Y": 1.0, "X": 0.5}, "co": {"Y": 0.0, "X": 1.0}, "interpolation": 0}, {"handle_right": {"Y": 0.0, "X": 0.5}, "handle_type": 0, "handle_left": {"Y": 1.0, "X": 0.5}, "co": {"Y": 1.0, "X": 73.0}, "interpolation": 0}, {"handle_right": {"Y": 0.0, "X": 0.5}, "handle_type": 0, "handle_left": {"Y": 1.0, "X": 0.5}, "co": {"Y": 1.0, "X": 1345.0}, "interpolation": 0}, {"handle_right": {"Y": 0.0, "X": 0.5}, "handle_type": 0, "handle_left": {"Y": 1.0, "X": 0.5}, "co": {"Y": 0.0, "X": 1417.0}, "interpolation": 0}]}, "display": 0, "anchor": 0, "image": "/home/milind/.openshot_qt/thumbnail/IV7EF51HD1.png", "gravity": 4, "shear_y": {"Points": [{"interpolation": 2, "co": {"Y": 0.0, "X": 1.0}}]}, "scale_y": {"Points": [{"interpolation": 2, "co": {"Y": 1.0, "X": 1.0}}, {"interpolation": 1, "co": {"Y": 1.899999976158142, "X": 192}}]}}, {"has_audio": {"Points": [{"interpolation": 2, "co": {"Y": -1.0, "X": 1.0}}]}, "position": 26.08, "rotation": {"Points": [{"interpolation": 2, "co": {"Y": 0.0, "X": 1.0}}]}, "location_x": {"Points": [{"interpolation": 2, "co": {"Y": 0.0, "X": 1.0}}, {"interpolation": 1, "co": {"Y": 0.43511450381679384, "X": 192}}]}, "file_id": "IV7EF51HD1", "channel_filter": {"Points": [{"interpolation": 2, "co": {"Y": -1.0, "X": 1.0}}]}, "perspective_c3_x": {"Points": [{"interpolation": 2, "co": {"Y": -1.0, "X": 1.0}}]}, "perspective_c4_x": {"Points": [{"interpolation": 2, "co": {"Y": -1.0, "X": 1.0}}]}, "layer": 3, "wave_color": {"alpha": {"Points": [{"handle_right": {"Y": 0.0, "X": 0.5}, "handle_type": 0, "handle_left": {"Y": 1.0, "X": 0.5}, "co": {"Y": 255.0, "X": 1.0}, "interpolation": 0}]}, "red": {"Points": [{"handle_right": {"Y": 0.0, "X": 0.5}, "handle_type": 0, "handle_left": {"Y": 1.0, "X": 0.5}, "co": {"Y": 0.0, "X": 1.0}, "interpolation": 0}]}, "blue": {"Points": [{"handle_right": {"Y": 0.0, "X": 0.5}, "handle_type": 0, "handle_left": {"Y": 1.0, "X": 0.5}, "co": {"Y": 255.0, "X": 1.0}, "interpolation": 0}]}, "green": {"Points": [{"handle_right": {"Y": 0.0, "X": 0.5}, "handle_type": 0, "handle_left": {"Y": 1.0, "X": 0.5}, "co": {"Y": 123.0, "X": 1.0}, "interpolation": 0}]}}, "volume": {"Points": [{"interpolation": 2, "co": {"Y": 1.0, "X": 1.0}}]}, "has_video": {"Points": [{"interpolation": 2, "co": {"Y": -1.0, "X": 1.0}}]}, "location_y": {"Points": [{"interpolation": 2, "co": {"Y": 0.0, "X": 1.0}}, {"interpolation": 1, "co": {"Y": 0.45038167938931295, "X": 192}}]}, "gravity": 4, "alpha": {"Points": [{"interpolation": 2, "co": {"Y": 1.0, "X": 1.0}}, {"handle_right": {"Y": 0.0, "X": 0.5}, "handle_type": 0, "handle_left": {"Y": 1.0, "X": 0.5}, "co": {"Y": 0.0, "X": 1.0}, "interpolation": 0}, {"handle_right": {"Y": 0.0, "X": 0.5}, "handle_type": 0, "handle_left": {"Y": 1.0, "X": 0.5}, "co": {"Y": 1.0, "X": 73.0}, "interpolation": 0}, {"handle_right": {"Y": 0.0, "X": 0.5}, "handle_type": 0, "handle_left": {"Y": 1.0, "X": 0.5}, "co": {"Y": 1.0, "X": 1345.0}, "interpolation": 0}, {"handle_right": {"Y": 0.0, "X": 0.5}, "handle_type": 0, "handle_left": {"Y": 1.0, "X": 0.5}, "co": {"Y": 0.0, "X": 1417.0}, "interpolation": 0}]}, "scale": 1, "time": {"Points": [{"interpolation": 2, "co": {"Y": 1.0, "X": 1.0}}]}, "start": 0, "end": 59, "crop_width": {"Points": [{"interpolation": 2, "co": {"Y": -1.0, "X": 1.0}}]}, "scale_x": {"Points": [{"interpolation": 2, "co": {"Y": 1.0, "X": 1.0}}, {"interpolation": 1, "co": {"Y": 1.899999976158142, "X": 192}}]}, "image": "/home/milind/.openshot_qt/thumbnail/IV7EF51HD1.png", "id": "XNSK4PWD2F", "title": "07-Entered Record of 10 students.mkv", "shear_x": {"Points": [{"interpolation": 2, "co": {"Y": 0.0, "X": 1.0}}]}, "duration": 59.0, "perspective_c3_y": {"Points": [{"interpolation": 2, "co": {"Y": -1.0, "X": 1.0}}]}, "perspective_c2_y": {"Points": [{"interpolation": 2, "co": {"Y": -1.0, "X": 1.0}}]}, "reader": {"has_audio": false, "pixel_ratio": {"den": 1, "num": 1}, "video_length": "1475", "audio_bit_rate": 0, "interlaced_frame": false, "fps": {"den": 1, "num": 25}, "video_stream_index": 0, "video_bit_rate": 0, "display_ratio": {"den": 384, "num": 683}, "path": "/home/milind/Data/Projects/ProgressCard/Clips/07-Entered Record of 10 students.mkv", "channels": 0, "pixel_format": 0, "width": 1366, "sample_rate": 0, "audio_stream_index": -1, "duration": 59.0, "top_field_first": true, "channel_layout": 4, "video_timebase": {"den": 1000, "num": 1}, "type": "FFmpegReader", "has_single_image": false, "vcodec": "h264", "has_video": true, "acodec": "", "height": 768, "audio_timebase": {"den": 1, "num": 1}, "file_size": "595628"}, "perspective_c1_y": {"Points": [{"interpolation": 2, "co": {"Y": -1.0, "X": 1.0}}]}, "crop_height": {"Points": [{"interpolation": 2, "co": {"Y": -1.0, "X": 1.0}}]}, "effects": [], "waveform": false, "perspective_c1_x": {"Points": [{"interpolation": 2, "co": {"Y": -1.0, "X": 1.0}}]}, "perspective_c4_y": {"Points": [{"interpolation": 2, "co": {"Y": -1.0, "X": 1.0}}]}, "crop_x": {"Points": [{"interpolation": 2, "co": {"Y": 0.0, "X": 1.0}}]}, "channel_mapping": {"Points": [{"interpolation": 2, "co": {"Y": -1.0, "X": 1.0}}]}, "crop_y": {"Points": [{"interpolation": 2, "co": {"Y": 0.0, "X": 1.0}}]}, "display": 0, "anchor": 0, "perspective_c2_x": {"Points": [{"interpolation": 2, "co": {"Y": -1.0, "X": 1.0}}]}, "shear_y": {"Points": [{"interpolation": 2, "co": {"Y": 0.0, "X": 1.0}}]}, "scale_y": {"Points": [{"interpolation": 2, "co": {"Y": 1.0, "X": 1.0}}, {"interpolation": 1, "co": {"Y": 1.899999976158142, "X": 192}}]}}, {"has_audio": {"Points": [{"interpolation": 2, "co": {"X": 1.0, "Y": -1.0}}]}, "position": 0, "rotation": {"Points": [{"interpolation": 2, "co": {"X": 1.0, "Y": 0.0}}]}, "location_x": {"Points": [{"interpolation": 2, "co": {"X": 1.0, "Y": 0.0}}]}, "file_id": "H51D80S6SD", "channel_filter": {"Points": [{"interpolation": 2, "co": {"X": 1.0, "Y": -1.0}}]}, "gravity": 4, "perspective_c4_x": {"Points": [{"interpolation": 2, "co": {"X": 1.0, "Y": -1.0}}]}, "layer": 2, "wave_color": {"alpha": {"Points": [{"handle_right": {"X": 0.5, "Y": 0.0}, "handle_type": 0, "handle_left": {"X": 0.5, "Y": 1.0}, "co": {"X": 1.0, "Y": 255.0}, "interpolation": 0}]}, "red": {"Points": [{"handle_right": {"X": 0.5, "Y": 0.0}, "handle_type": 0, "handle_left": {"X": 0.5, "Y": 1.0}, "co": {"X": 1.0, "Y": 0.0}, "interpolation": 0}]}, "blue": {"Points": [{"handle_right": {"X": 0.5, "Y": 0.0}, "handle_type": 0, "handle_left": {"X": 0.5, "Y": 1.0}, "co": {"X": 1.0, "Y": 255.0}, "interpolation": 0}]}, "green": {"Points": [{"handle_right": {"X": 0.5, "Y": 0.0}, "handle_type": 0, "handle_left": {"X": 0.5, "Y": 1.0}, "co": {"X": 1.0, "Y": 123.0}, "interpolation": 0}]}}, "volume": {"Points": [{"interpolation": 2, "co": {"X": 1.0, "Y": 1.0}}]}, "perspective_c3_x": {"Points": [{"interpolation": 2, "co": {"X": 1.0, "Y": -1.0}}]}, "has_video": {"Points": [{"interpolation": 2, "co": {"X": 1.0, "Y": -1.0}}]}, "location_y": {"Points": [{"interpolation": 2, "co": {"X": 1.0, "Y": 0.0}}]}, "perspective_c2_y": {"Points": [{"interpolation": 2, "co": {"X": 1.0, "Y": -1.0}}]}, "scale": 1, "time": {"Points": [{"interpolation": 2, "co": {"X": 1.0, "Y": 1.0}}]}, "start": 0, "end": 68.72, "crop_width": {"Points": [{"interpolation": 2, "co": {"X": 1.0, "Y": -1.0}}]}, "scale_x": {"Points": [{"interpolation": 2, "co": {"X": 1.0, "Y": 1.0}}]}, "image": "/home/milind/.openshot_qt/thumbnail/H51D80S6SD.png", "id": "T5YYS00GWW", "title": "01-White-Background.svg", "shear_x": {"Points": [{"interpolation": 2, "co": {"X": 1.0, "Y": 0.0}}]}, "duration": 86400.0, "perspective_c3_y": {"Points": [{"interpolation": 2, "co": {"X": 1.0, "Y": -1.0}}]}, "crop_y": {"Points": [{"interpolation": 2, "co": {"X": 1.0, "Y": 0.0}}]}, "reader": {"has_audio": false, "pixel_ratio": {"den": 1, "num": 1}, "video_length": "2592000", "interlaced_frame": false, "audio_bit_rate": 0, "height": 1080, "fps": {"den": 1, "num": 30}, "video_stream_index": -1, "video_bit_rate": 0, "display_ratio": {"den": 9, "num": 16}, "path": "/home/milind/Data/Projects/ProgressCard/Images/01-White-Background.svg", "has_single_image": true, "pixel_format": -1, "width": 1920, "sample_rate": 0, "audio_stream_index": -1, "duration": 86400.0, "type": "QtImageReader", "channel_layout": 4, "video_timebase": {"den": 30, "num": 1}, "top_field_first": true, "acodec": "", "vcodec": "", "has_video": true, "channels": 0, "audio_timebase": {"den": 1, "num": 1}, "file_size": "8294400"}, "perspective_c1_y": {"Points": [{"interpolation": 2, "co": {"X": 1.0, "Y": -1.0}}]}, "crop_height": {"Points": [{"interpolation": 2, "co": {"X": 1.0, "Y": -1.0}}]}, "effects": [], "waveform": false, "perspective_c1_x": {"Points": [{"interpolation": 2, "co": {"X": 1.0, "Y": -1.0}}]}, "perspective_c4_y": {"Points": [{"interpolation": 2, "co": {"X": 1.0, "Y": -1.0}}]}, "crop_x": {"Points": [{"interpolation": 2, "co": {"X": 1.0, "Y": 0.0}}]}, "channel_mapping": {"Points": [{"interpolation": 2, "co": {"X": 1.0, "Y": -1.0}}]}, "alpha": {"Points": [{"interpolation": 2, "co": {"X": 1.0, "Y": 1.0}}]}, "display": 0, "anchor": 0, "perspective_c2_x": {"Points": [{"interpolation": 2, "co": {"X": 1.0, "Y": -1.0}}]}, "shear_y": {"Points": [{"interpolation": 2, "co": {"X": 1.0, "Y": 0.0}}]}, "scale_y": {"Points": [{"interpolation": 2, "co": {"X": 1.0, "Y": 1.0}}]}}, {"has_audio": {"Points": [{"interpolation": 2, "co": {"X": 1.0, "Y": -1.0}}]}, "position": 0, "rotation": {"Points": [{"interpolation": 2, "co": {"X": 1.0, "Y": 0.0}}]}, "location_x": {"Points": [{"interpolation": 2, "co": {"X": 1.0, "Y": 0.0}}]}, "file_id": "9DMFO1XFX6", "channel_filter": {"Points": [{"interpolation": 2, "co": {"X": 1.0, "Y": -1.0}}]}, "gravity": 4, "perspective_c4_x": {"Points": [{"interpolation": 2, "co": {"X": 1.0, "Y": -1.0}}]}, "layer": 3, "wave_color": {"alpha": {"Points": [{"handle_right": {"X": 0.5, "Y": 0.0}, "handle_type": 0, "handle_left": {"X": 0.5, "Y": 1.0}, "co": {"X": 1.0, "Y": 255.0}, "interpolation": 0}]}, "red": {"Points": [{"handle_right": {"X": 0.5, "Y": 0.0}, "handle_type": 0, "handle_left": {"X": 0.5, "Y": 1.0}, "co": {"X": 1.0, "Y": 0.0}, "interpolation": 0}]}, "blue": {"Points": [{"handle_right": {"X": 0.5, "Y": 0.0}, "handle_type": 0, "handle_left": {"X": 0.5, "Y": 1.0}, "co": {"X": 1.0, "Y": 255.0}, "interpolation": 0}]}, "green": {"Points": [{"handle_right": {"X": 0.5, "Y": 0.0}, "handle_type": 0, "handle_left": {"X": 0.5, "Y": 1.0}, "co": {"X": 1.0, "Y": 123.0}, "interpolation": 0}]}}, "volume": {"Points": [{"interpolation": 2, "co": {"X": 1.0, "Y": 1.0}}]}, "perspective_c3_x": {"Points": [{"interpolation": 2, "co": {"X": 1.0, "Y": -1.0}}]}, "has_video": {"Points": [{"interpolation": 2, "co": {"X": 1.0, "Y": -1.0}}]}, "location_y": {"Points": [{"interpolation": 2, "co": {"X": 1.0, "Y": 0.0}}]}, "perspective_c2_y": {"Points": [{"interpolation": 2, "co": {"X": 1.0, "Y": -1.0}}]}, "scale": 1, "time": {"Points": [{"interpolation": 2, "co": {"X": 1.0, "Y": 1.0}}]}, "start": 0, "end": 10, "crop_width": {"Points": [{"interpolation": 2, "co": {"X": 1.0, "Y": -1.0}}]}, "scale_x": {"Points": [{"interpolation": 2, "co": {"X": 1.0, "Y": 1.0}}]}, "image": "/home/milind/.openshot_qt/thumbnail/9DMFO1XFX6.png", "id": "FBMFTB0HC9", "title": "06-Slide-Create Students Record In Libre Calc.svg", "shear_x": {"Points": [{"interpolation": 2, "co": {"X": 1.0, "Y": 0.0}}]}, "duration": 86400.0, "perspective_c3_y": {"Points": [{"interpolation": 2, "co": {"X": 1.0, "Y": -1.0}}]}, "crop_y": {"Points": [{"interpolation": 2, "co": {"X": 1.0, "Y": 0.0}}]}, "reader": {"has_audio": false, "pixel_ratio": {"den": 1, "num": 1}, "video_length": "2592000", "interlaced_frame": false, "audio_bit_rate": 0, "height": 3827, "fps": {"den": 1, "num": 30}, "video_stream_index": -1, "video_bit_rate": 0, "display_ratio": {"den": 3827, "num": 6803}, "path": "/home/milind/Data/Projects/ProgressCard/Images/06-Slide-Create Students Record In Libre Calc.svg", "has_single_image": true, "pixel_format": -1, "width": 6803, "sample_rate": 0, "audio_stream_index": -1, "duration": 86400.0, "type": "QtImageReader", "channel_layout": 4, "video_timebase": {"den": 30, "num": 1}, "top_field_first": true, "acodec": "", "vcodec": "", "has_video": true, "channels": 0, "audio_timebase": {"den": 1, "num": 1}, "file_size": "104140324"}, "perspective_c1_y": {"Points": [{"interpolation": 2, "co": {"X": 1.0, "Y": -1.0}}]}, "crop_height": {"Points": [{"interpolation": 2, "co": {"X": 1.0, "Y": -1.0}}]}, "effects": [], "waveform": false, "perspective_c1_x": {"Points": [{"interpolation": 2, "co": {"X": 1.0, "Y": -1.0}}]}, "perspective_c4_y": {"Points": [{"interpolation": 2, "co": {"X": 1.0, "Y": -1.0}}]}, "crop_x": {"Points": [{"interpolation": 2, "co": {"X": 1.0, "Y": 0.0}}]}, "channel_mapping": {"Points": [{"interpolation": 2, "co": {"X": 1.0, "Y": -1.0}}]}, "alpha": {"Points": [{"interpolation": 2, "co": {"X": 1.0, "Y": 1.0}}]}, "display": 0, "anchor": 0, "perspective_c2_x": {"Points": [{"interpolation": 2, "co": {"X": 1.0, "Y": -1.0}}]}, "shear_y": {"Points": [{"interpolation": 2, "co": {"X": 1.0, "Y": 0.0}}]}, "scale_y": {"Points": [{"interpolation": 2, "co": {"X": 1.0, "Y": 1.0}}]}}], "partial": false}, {"key": ["clips", {"id": "U2RBKTDKLK"}], "type": "delete", "value": null, "old_values": {"has_audio": {"Points": [{"interpolation": 2, "co": {"X": 1.0, "Y": -1.0}}]}, "position": 9.76, "rotation": {"Points": [{"interpolation": 2, "co": {"X": 1.0, "Y": 0.0}}]}, "location_x": {"Points": [{"interpolation": 2, "co": {"X": 1.0, "Y": 0.0}}]}, "file_id": "OE5TV4582C", "perspective_c1_y": {"Points": [{"interpolation": 2, "co": {"X": 1.0, "Y": -1.0}}]}, "gravity": 4, "perspective_c4_x": {"Points": [{"interpolation": 2, "co": {"X": 1.0, "Y": -1.0}}]}, "layer": 4, "wave_color": {"alpha": {"Points": [{"handle_right": {"X": 0.5, "Y": 0.0}, "handle_type": 0, "handle_left": {"X": 0.5, "Y": 1.0}, "co": {"X": 1.0, "Y": 255.0}, "interpolation": 0}]}, "red": {"Points": [{"handle_right": {"X": 0.5, "Y": 0.0}, "handle_type": 0, "handle_left": {"X": 0.5, "Y": 1.0}, "co": {"X": 1.0, "Y": 0.0}, "interpolation": 0}]}, "blue": {"Points": [{"handle_right": {"X": 0.5, "Y": 0.0}, "handle_type": 0, "handle_left": {"X": 0.5, "Y": 1.0}, "co": {"X": 1.0, "Y": 255.0}, "interpolation": 0}]}, "green": {"Points": [{"handle_right": {"X": 0.5, "Y": 0.0}, "handle_type": 0, "handle_left": {"X": 0.5, "Y": 1.0}, "co": {"X": 1.0, "Y": 123.0}, "interpolation": 0}]}}, "start": 0.0, "has_video": {"Points": [{"interpolation": 2, "co": {"X": 1.0, "Y": -1.0}}]}, "location_y": {"Points": [{"interpolation": 2, "co": {"X": 1.0, "Y": 0.0}}]}, "alpha": {"Points": [{"interpolation": 2, "co": {"X": 1.0, "Y": 1.0}}]}, "perspective_c2_x": {"Points": [{"interpolation": 2, "co": {"X": 1.0, "Y": -1.0}}]}, "scale": 1, "time": {"Points": [{"interpolation": 2, "co": {"X": 1.0, "Y": 1.0}}]}, "anchor": 0, "end": 10.0, "channel_mapping": {"Points": [{"interpolation": 2, "co": {"X": 1.0, "Y": -1.0}}]}, "volume": {"Points": [{"interpolation": 2, "co": {"X": 1.0, "Y": 1.0}}]}, "image": "/home/milind/.openshot_qt/thumbnail/OE5TV4582C.png", "id": "U2RBKTDKLK", "title": "07-Slide -Open Libre Calc.svg", "shear_x": {"Points": [{"interpolation": 2, "co": {"X": 1.0, "Y": 0.0}}]}, "duration": 86400.0, "perspective_c3_y": {"Points": [{"interpolation": 2, "co": {"X": 1.0, "Y": -1.0}}]}, "crop_y": {"Points": [{"interpolation": 2, "co": {"X": 1.0, "Y": 0.0}}]}, "reader": {"has_audio": false, "pixel_ratio": {"den": 1, "num": 1}, "video_length": "2592000", "interlaced_frame": false, "audio_bit_rate": 0, "height": 3827, "fps": {"den": 1, "num": 30}, "video_stream_index": -1, "video_bit_rate": 0, "display_ratio": {"den": 3827, "num": 6803}, "path": "/home/milind/Data/Projects/ProgressCard/Images/07-Slide -Open Libre Calc.svg", "has_single_image": true, "pixel_format": -1, "width": 6803, "sample_rate": 0, "audio_stream_index": -1, "duration": 86400.0, "type": "QtImageReader", "channel_layout": 4, "video_timebase": {"den": 30, "num": 1}, "top_field_first": true, "acodec": "", "vcodec": "", "has_video": true, "channels": 0, "audio_timebase": {"den": 1, "num": 1}, "file_size": "104140324"}, "channel_filter": {"Points": [{"interpolation": 2, "co": {"X": 1.0, "Y": -1.0}}]}, "crop_height": {"Points": [{"interpolation": 2, "co": {"X": 1.0, "Y": -1.0}}]}, "effects": [], "waveform": false, "perspective_c1_x": {"Points": [{"interpolation": 2, "co": {"X": 1.0, "Y": -1.0}}]}, "perspective_c4_y": {"Points": [{"interpolation": 2, "co": {"X": 1.0, "Y": -1.0}}]}, "crop_x": {"Points": [{"interpolation": 2, "co": {"X": 1.0, "Y": 0.0}}]}, "crop_width": {"Points": [{"interpolation": 2, "co": {"X": 1.0, "Y": -1.0}}]}, "perspective_c2_y": {"Points": [{"interpolation": 2, "co": {"X": 1.0, "Y": -1.0}}]}, "display": 0, "scale_x": {"Points": [{"interpolation": 2, "co": {"X": 1.0, "Y": 1.0}}]}, "perspective_c3_x": {"Points": [{"interpolation": 2, "co": {"X": 1.0, "Y": -1.0}}]}, "shear_y": {"Points": [{"interpolation": 2, "co": {"X": 1.0, "Y": 0.0}}]}, "scale_y": {"Points": [{"interpolation": 2, "co": {"X": 1.0, "Y": 1.0}}]}}, "partial": false}, {"key": ["clips"], "type": "insert", "value": {"has_audio": {"Points": [{"interpolation": 2, "co": {"X": 1.0, "Y": -1.0}}]}, "image": "/home/milind/.openshot_qt/thumbnail/OE5TV4582C.png", "rotation": {"Points": [{"interpolation": 2, "co": {"X": 1.0, "Y": 0.0}}]}, "anchor": 0, "location_x": {"Points": [{"interpolation": 2, "co": {"X": 1.0, "Y": 0.0}}]}, "file_id": "OE5TV4582C", "perspective_c1_y": {"Points": [{"interpolation": 2, "co": {"X": 1.0, "Y": -1.0}}]}, "gravity": 4, "perspective_c4_x": {"Points": [{"interpolation": 2, "co": {"X": 1.0, "Y": -1.0}}]}, "layer": 3, "wave_color": {"green": {"Points": [{"handle_right": {"X": 0.5, "Y": 0.0}, "handle_type": 0, "handle_left": {"X": 0.5, "Y": 1.0}, "co": {"X": 1.0, "Y": 123.0}, "interpolation": 0}]}, "red": {"Points": [{"handle_right": {"X": 0.5, "Y": 0.0}, "handle_type": 0, "handle_left": {"X": 0.5, "Y": 1.0}, "co": {"X": 1.0, "Y": 0.0}, "interpolation": 0}]}, "blue": {"Points": [{"handle_right": {"X": 0.5, "Y": 0.0}, "handle_type": 0, "handle_left": {"X": 0.5, "Y": 1.0}, "co": {"X": 1.0, "Y": 255.0}, "interpolation": 0}]}, "alpha": {"Points": [{"handle_right": {"X": 0.5, "Y": 0.0}, "handle_type": 0, "handle_left": {"X": 0.5, "Y": 1.0}, "co": {"X": 1.0, "Y": 255.0}, "interpolation": 0}]}}, "volume": {"Points": [{"interpolation": 2, "co": {"X": 1.0, "Y": 1.0}}]}, "display": 0, "location_y": {"Points": [{"interpolation": 2, "co": {"X": 1.0, "Y": 0.0}}]}, "perspective_c4_y": {"Points": [{"interpolation": 2, "co": {"X": 1.0, "Y": -1.0}}]}, "alpha": {"Points": [{"interpolation": 2, "co": {"X": 1.0, "Y": 1.0}}, {"handle_right": {"X": 0.5, "Y": 0.0}, "handle_type": 0, "handle_left": {"X": 0.5, "Y": 1.0}, "co": {"X": 1.0, "Y": 0.0}, "interpolation": 0}, {"handle_right": {"X": 0.5, "Y": 0.0}, "handle_type": 0, "handle_left": {"X": 0.5, "Y": 1.0}, "co": {"X": 73.0, "Y": 1.0}, "interpolation": 0}, {"handle_right": {"X": 0.5, "Y": 0.0}, "handle_type": 0, "handle_left": {"X": 0.5, "Y": 1.0}, "co": {"X": 169.0, "Y": 1.0}, "interpolation": 0}, {"handle_right": {"X": 0.5, "Y": 0.0}, "handle_type": 0, "handle_left": {"X": 0.5, "Y": 1.0}, "co": {"X": 241.0, "Y": 0.0}, "interpolation": 0}]}, "perspective_c2_x": {"Points": [{"interpolation": 2, "co": {"X": 1.0, "Y": -1.0}}]}, "scale": 1, "time": {"Points": [{"interpolation": 2, "co": {"X": 1.0, "Y": 1.0}}]}, "start": 0, "end": 10, "crop_width": {"Points": [{"interpolation": 2, "co": {"X": 1.0, "Y": -1.0}}]}, "position": 10, "id": "H0YV894FP9", "title": "07-Slide -Open Libre Calc.svg", "shear_x": {"Points": [{"interpolation": 2, "co": {"X": 1.0, "Y": 0.0}}]}, "duration": 86400.0, "perspective_c3_y": {"Points": [{"interpolation": 2, "co": {"X": 1.0, "Y": -1.0}}]}, "crop_y": {"Points": [{"interpolation": 2, "co": {"X": 1.0, "Y": 0.0}}]}, "reader": {"has_audio": false, "pixel_ratio": {"num": 1, "den": 1}, "video_length": "2592000", "audio_bit_rate": 0, "height": 3827, "fps": {"num": 30, "den": 1}, "video_stream_index": -1, "video_bit_rate": 0, "display_ratio": {"num": 6803, "den": 3827}, "path": "/home/milind/Data/Projects/ProgressCard/Images/07-Slide -Open Libre Calc.svg", "channels": 0, "vcodec": "", "pixel_format": -1, "width": 6803, "sample_rate": 0, "audio_stream_index": -1, "duration": 86400.0, "top_field_first": true, "channel_layout": 4, "video_timebase": {"num": 1, "den": 30}, "type": "QtImageReader", "acodec": "", "interlaced_frame": false, "has_video": true, "has_single_image": true, "audio_timebase": {"num": 1, "den": 1}, "file_size": "104140324"}, "channel_filter": {"Points": [{"interpolation": 2, "co": {"X": 1.0, "Y": -1.0}}]}, "crop_height": {"Points": [{"interpolation": 2, "co": {"X": 1.0, "Y": -1.0}}]}, "effects": [], "waveform": false, "perspective_c1_x": {"Points": [{"interpolation": 2, "co": {"X": 1.0, "Y": -1.0}}]}, "crop_x": {"Points": [{"interpolation": 2, "co": {"X": 1.0, "Y": 0.0}}]}, "channel_mapping": {"Points": [{"interpolation": 2, "co": {"X": 1.0, "Y": -1.0}}]}, "perspective_c2_y": {"Points": [{"interpolation": 2, "co": {"X": 1.0, "Y": -1.0}}]}, "has_video": {"Points": [{"interpolation": 2, "co": {"X": 1.0, "Y": -1.0}}]}, "scale_x": {"Points": [{"interpolation": 2, "co": {"X": 1.0, "Y": 1.0}}]}, "perspective_c3_x": {"Points": [{"interpolation": 2, "co": {"X": 1.0, "Y": -1.0}}]}, "shear_y": {"Points": [{"interpolation": 2, "co": {"X": 1.0, "Y": 0.0}}]}, "scale_y": {"Points": [{"interpolation": 2, "co": {"X": 1.0, "Y": 1.0}}]}}, "old_values": [{"has_audio": {"Points": [{"interpolation": 2, "co": {"Y": -1.0, "X": 1.0}}]}, "perspective_c1_x": {"Points": [{"interpolation": 2, "co": {"Y": -1.0, "X": 1.0}}]}, "rotation": {"Points": [{"interpolation": 2, "co": {"Y": 0.0, "X": 1.0}}]}, "location_x": {"Points": [{"interpolation": 2, "co": {"Y": 0.0, "X": 1.0}}, {"interpolation": 1, "co": {"Y": 0.43511450381679384, "X": 192}}]}, "file_id": "IV7EF51HD1", "perspective_c1_y": {"Points": [{"interpolation": 2, "co": {"Y": -1.0, "X": 1.0}}]}, "perspective_c3_x": {"Points": [{"interpolation": 2, "co": {"Y": -1.0, "X": 1.0}}]}, "perspective_c4_x": {"Points": [{"interpolation": 2, "co": {"Y": -1.0, "X": 1.0}}]}, "volume": {"Points": [{"interpolation": 2, "co": {"Y": 1.0, "X": 1.0}}]}, "wave_color": {"alpha": {"Points": [{"handle_right": {"Y": 0.0, "X": 0.5}, "handle_type": 0, "handle_left": {"Y": 1.0, "X": 0.5}, "co": {"Y": 255.0, "X": 1.0}, "interpolation": 0}]}, "red": {"Points": [{"handle_right": {"Y": 0.0, "X": 0.5}, "handle_type": 0, "handle_left": {"Y": 1.0, "X": 0.5}, "co": {"Y": 0.0, "X": 1.0}, "interpolation": 0}]}, "blue": {"Points": [{"handle_right": {"Y": 0.0, "X": 0.5}, "handle_type": 0, "handle_left": {"Y": 1.0, "X": 0.5}, "co": {"Y": 255.0, "X": 1.0}, "interpolation": 0}]}, "green": {"Points": [{"handle_right": {"Y": 0.0, "X": 0.5}, "handle_type": 0, "handle_left": {"Y": 1.0, "X": 0.5}, "co": {"Y": 123.0, "X": 1.0}, "interpolation": 0}]}}, "layer": 5, "has_video": {"Points": [{"interpolation": 2, "co": {"Y": -1.0, "X": 1.0}}]}, "location_y": {"Points": [{"interpolation": 2, "co": {"Y": 0.0, "X": 1.0}}, {"interpolation": 1, "co": {"Y": 0.45038167938931295, "X": 192}}]}, "perspective_c2_y": {"Points": [{"interpolation": 2, "co": {"Y": -1.0, "X": 1.0}}]}, "perspective_c2_x": {"Points": [{"interpolation": 2, "co": {"Y": -1.0, "X": 1.0}}]}, "scale": 1, "time": {"Points": [{"interpolation": 2, "co": {"Y": 1.0, "X": 1.0}}]}, "start": 0, "end": 59, "channel_mapping": {"Points": [{"interpolation": 2, "co": {"Y": -1.0, "X": 1.0}}]}, "position": 125.0, "id": "GF97G5QV3C", "crop_x": {"Points": [{"interpolation": 2, "co": {"Y": 0.0, "X": 1.0}}]}, "title": "07-Entered Record of 10 students.mkv", "shear_x": {"Points": [{"interpolation": 2, "co": {"Y": 0.0, "X": 1.0}}]}, "duration": 59.0, "perspective_c3_y": {"Points": [{"interpolation": 2, "co": {"Y": -1.0, "X": 1.0}}]}, "crop_y": {"Points": [{"interpolation": 2, "co": {"Y": 0.0, "X": 1.0}}]}, "reader": {"has_audio": false, "pixel_ratio": {"den": 1, "num": 1}, "video_length": "1475", "audio_bit_rate": 0, "interlaced_frame": false, "fps": {"den": 1, "num": 25}, "video_stream_index": 0, "video_bit_rate": 0, "display_ratio": {"den": 384, "num": 683}, "path": "/home/milind/Data/Projects/ProgressCard/Clips/07-Entered Record of 10 students.mkv", "channels": 0, "pixel_format": 0, "width": 1366, "sample_rate": 0, "audio_stream_index": -1, "duration": 59.0, "top_field_first": true, "channel_layout": 4, "video_timebase": {"den": 1000, "num": 1}, "type": "FFmpegReader", "has_single_image": false, "vcodec": "h264", "has_video": true, "acodec": "", "height": 768, "audio_timebase": {"den": 1, "num": 1}, "file_size": "595628"}, "channel_filter": {"Points": [{"interpolation": 2, "co": {"Y": -1.0, "X": 1.0}}]}, "crop_height": {"Points": [{"interpolation": 2, "co": {"Y": -1.0, "X": 1.0}}]}, "effects": [], "waveform": false, "perspective_c4_y": {"Points": [{"interpolation": 2, "co": {"Y": -1.0, "X": 1.0}}]}, "scale_x": {"Points": [{"interpolation": 2, "co": {"Y": 1.0, "X": 1.0}}, {"interpolation": 1, "co": {"Y": 1.899999976158142, "X": 192}}]}, "crop_width": {"Points": [{"interpolation": 2, "co": {"Y": -1.0, "X": 1.0}}]}, "alpha": {"Points": [{"interpolation": 2, "co": {"Y": 1.0, "X": 1.0}}, {"handle_right": {"Y": 0.0, "X": 0.5}, "handle_type": 0, "handle_left": {"Y": 1.0, "X": 0.5}, "co": {"Y": 0.0, "X": 1.0}, "interpolation": 0}, {"handle_right": {"Y": 0.0, "X": 0.5}, "handle_type": 0, "handle_left": {"Y": 1.0, "X": 0.5}, "co": {"Y": 1.0, "X": 73.0}, "interpolation": 0}, {"handle_right": {"Y": 0.0, "X": 0.5}, "handle_type": 0, "handle_left": {"Y": 1.0, "X": 0.5}, "co": {"Y": 1.0, "X": 1345.0}, "interpolation": 0}, {"handle_right": {"Y": 0.0, "X": 0.5}, "handle_type": 0, "handle_left": {"Y": 1.0, "X": 0.5}, "co": {"Y": 0.0, "X": 1417.0}, "interpolation": 0}]}, "display": 0, "anchor": 0, "image": "/home/milind/.openshot_qt/thumbnail/IV7EF51HD1.png", "gravity": 4, "shear_y": {"Points": [{"interpolation": 2, "co": {"Y": 0.0, "X": 1.0}}]}, "scale_y": {"Points": [{"interpolation": 2, "co": {"Y": 1.0, "X": 1.0}}, {"interpolation": 1, "co": {"Y": 1.899999976158142, "X": 192}}]}}, {"has_audio": {"Points": [{"interpolation": 2, "co": {"Y": -1.0, "X": 1.0}}]}, "position": 26.08, "rotation": {"Points": [{"interpolation": 2, "co": {"Y": 0.0, "X": 1.0}}]}, "location_x": {"Points": [{"interpolation": 2, "co": {"Y": 0.0, "X": 1.0}}, {"interpolation": 1, "co": {"Y": 0.43511450381679384, "X": 192}}]}, "file_id": "IV7EF51HD1", "channel_filter": {"Points": [{"interpolation": 2, "co": {"Y": -1.0, "X": 1.0}}]}, "perspective_c3_x": {"Points": [{"interpolation": 2, "co": {"Y": -1.0, "X": 1.0}}]}, "perspective_c4_x": {"Points": [{"interpolation": 2, "co": {"Y": -1.0, "X": 1.0}}]}, "layer": 3, "wave_color": {"alpha": {"Points": [{"handle_right": {"Y": 0.0, "X": 0.5}, "handle_type": 0, "handle_left": {"Y": 1.0, "X": 0.5}, "co": {"Y": 255.0, "X": 1.0}, "interpolation": 0}]}, "red": {"Points": [{"handle_right": {"Y": 0.0, "X": 0.5}, "handle_type": 0, "handle_left": {"Y": 1.0, "X": 0.5}, "co": {"Y": 0.0, "X": 1.0}, "interpolation": 0}]}, "blue": {"Points": [{"handle_right": {"Y": 0.0, "X": 0.5}, "handle_type": 0, "handle_left": {"Y": 1.0, "X": 0.5}, "co": {"Y": 255.0, "X": 1.0}, "interpolation": 0}]}, "green": {"Points": [{"handle_right": {"Y": 0.0, "X": 0.5}, "handle_type": 0, "handle_left": {"Y": 1.0, "X": 0.5}, "co": {"Y": 123.0, "X": 1.0}, "interpolation": 0}]}}, "volume": {"Points": [{"interpolation": 2, "co": {"Y": 1.0, "X": 1.0}}]}, "has_video": {"Points": [{"interpolation": 2, "co": {"Y": -1.0, "X": 1.0}}]}, "location_y": {"Points": [{"interpolation": 2, "co": {"Y": 0.0, "X": 1.0}}, {"interpolation": 1, "co": {"Y": 0.45038167938931295, "X": 192}}]}, "gravity": 4, "alpha": {"Points": [{"interpolation": 2, "co": {"Y": 1.0, "X": 1.0}}, {"handle_right": {"Y": 0.0, "X": 0.5}, "handle_type": 0, "handle_left": {"Y": 1.0, "X": 0.5}, "co": {"Y": 0.0, "X": 1.0}, "interpolation": 0}, {"handle_right": {"Y": 0.0, "X": 0.5}, "handle_type": 0, "handle_left": {"Y": 1.0, "X": 0.5}, "co": {"Y": 1.0, "X": 73.0}, "interpolation": 0}, {"handle_right": {"Y": 0.0, "X": 0.5}, "handle_type": 0, "handle_left": {"Y": 1.0, "X": 0.5}, "co": {"Y": 1.0, "X": 1345.0}, "interpolation": 0}, {"handle_right": {"Y": 0.0, "X": 0.5}, "handle_type": 0, "handle_left": {"Y": 1.0, "X": 0.5}, "co": {"Y": 0.0, "X": 1417.0}, "interpolation": 0}]}, "scale": 1, "time": {"Points": [{"interpolation": 2, "co": {"Y": 1.0, "X": 1.0}}]}, "start": 0, "end": 59, "crop_width": {"Points": [{"interpolation": 2, "co": {"Y": -1.0, "X": 1.0}}]}, "scale_x": {"Points": [{"interpolation": 2, "co": {"Y": 1.0, "X": 1.0}}, {"interpolation": 1, "co": {"Y": 1.899999976158142, "X": 192}}]}, "image": "/home/milind/.openshot_qt/thumbnail/IV7EF51HD1.png", "id": "XNSK4PWD2F", "title": "07-Entered Record of 10 students.mkv", "shear_x": {"Points": [{"interpolation": 2, "co": {"Y": 0.0, "X": 1.0}}]}, "duration": 59.0, "perspective_c3_y": {"Points": [{"interpolation": 2, "co": {"Y": -1.0, "X": 1.0}}]}, "perspective_c2_y": {"Points": [{"interpolation": 2, "co": {"Y": -1.0, "X": 1.0}}]}, "reader": {"has_audio": false, "pixel_ratio": {"den": 1, "num": 1}, "video_length": "1475", "audio_bit_rate": 0, "interlaced_frame": false, "fps": {"den": 1, "num": 25}, "video_stream_index": 0, "video_bit_rate": 0, "display_ratio": {"den": 384, "num": 683}, "path": "/home/milind/Data/Projects/ProgressCard/Clips/07-Entered Record of 10 students.mkv", "channels": 0, "pixel_format": 0, "width": 1366, "sample_rate": 0, "audio_stream_index": -1, "duration": 59.0, "top_field_first": true, "channel_layout": 4, "video_timebase": {"den": 1000, "num": 1}, "type": "FFmpegReader", "has_single_image": false, "vcodec": "h264", "has_video": true, "acodec": "", "height": 768, "audio_timebase": {"den": 1, "num": 1}, "file_size": "595628"}, "perspective_c1_y": {"Points": [{"interpolation": 2, "co": {"Y": -1.0, "X": 1.0}}]}, "crop_height": {"Points": [{"interpolation": 2, "co": {"Y": -1.0, "X": 1.0}}]}, "effects": [], "waveform": false, "perspective_c1_x": {"Points": [{"interpolation": 2, "co": {"Y": -1.0, "X": 1.0}}]}, "perspective_c4_y": {"Points": [{"interpolation": 2, "co": {"Y": -1.0, "X": 1.0}}]}, "crop_x": {"Points": [{"interpolation": 2, "co": {"Y": 0.0, "X": 1.0}}]}, "channel_mapping": {"Points": [{"interpolation": 2, "co": {"Y": -1.0, "X": 1.0}}]}, "crop_y": {"Points": [{"interpolation": 2, "co": {"Y": 0.0, "X": 1.0}}]}, "display": 0, "anchor": 0, "perspective_c2_x": {"Points": [{"interpolation": 2, "co": {"Y": -1.0, "X": 1.0}}]}, "shear_y": {"Points": [{"interpolation": 2, "co": {"Y": 0.0, "X": 1.0}}]}, "scale_y": {"Points": [{"interpolation": 2, "co": {"Y": 1.0, "X": 1.0}}, {"interpolation": 1, "co": {"Y": 1.899999976158142, "X": 192}}]}}, {"has_audio": {"Points": [{"interpolation": 2, "co": {"X": 1.0, "Y": -1.0}}]}, "position": 0, "rotation": {"Points": [{"interpolation": 2, "co": {"X": 1.0, "Y": 0.0}}]}, "location_x": {"Points": [{"interpolation": 2, "co": {"X": 1.0, "Y": 0.0}}]}, "file_id": "H51D80S6SD", "channel_filter": {"Points": [{"interpolation": 2, "co": {"X": 1.0, "Y": -1.0}}]}, "gravity": 4, "perspective_c4_x": {"Points": [{"interpolation": 2, "co": {"X": 1.0, "Y": -1.0}}]}, "layer": 2, "wave_color": {"alpha": {"Points": [{"handle_right": {"X": 0.5, "Y": 0.0}, "handle_type": 0, "handle_left": {"X": 0.5, "Y": 1.0}, "co": {"X": 1.0, "Y": 255.0}, "interpolation": 0}]}, "red": {"Points": [{"handle_right": {"X": 0.5, "Y": 0.0}, "handle_type": 0, "handle_left": {"X": 0.5, "Y": 1.0}, "co": {"X": 1.0, "Y": 0.0}, "interpolation": 0}]}, "blue": {"Points": [{"handle_right": {"X": 0.5, "Y": 0.0}, "handle_type": 0, "handle_left": {"X": 0.5, "Y": 1.0}, "co": {"X": 1.0, "Y": 255.0}, "interpolation": 0}]}, "green": {"Points": [{"handle_right": {"X": 0.5, "Y": 0.0}, "handle_type": 0, "handle_left": {"X": 0.5, "Y": 1.0}, "co": {"X": 1.0, "Y": 123.0}, "interpolation": 0}]}}, "volume": {"Points": [{"interpolation": 2, "co": {"X": 1.0, "Y": 1.0}}]}, "perspective_c3_x": {"Points": [{"interpolation": 2, "co": {"X": 1.0, "Y": -1.0}}]}, "has_video": {"Points": [{"interpolation": 2, "co": {"X": 1.0, "Y": -1.0}}]}, "location_y": {"Points": [{"interpolation": 2, "co": {"X": 1.0, "Y": 0.0}}]}, "perspective_c2_y": {"Points": [{"interpolation": 2, "co": {"X": 1.0, "Y": -1.0}}]}, "scale": 1, "time": {"Points": [{"interpolation": 2, "co": {"X": 1.0, "Y": 1.0}}]}, "start": 0, "end": 68.72, "crop_width": {"Points": [{"interpolation": 2, "co": {"X": 1.0, "Y": -1.0}}]}, "scale_x": {"Points": [{"interpolation": 2, "co": {"X": 1.0, "Y": 1.0}}]}, "image": "/home/milind/.openshot_qt/thumbnail/H51D80S6SD.png", "id": "T5YYS00GWW", "title": "01-White-Background.svg", "shear_x": {"Points": [{"interpolation": 2, "co": {"X": 1.0, "Y": 0.0}}]}, "duration": 86400.0, "perspective_c3_y": {"Points": [{"interpolation": 2, "co": {"X": 1.0, "Y": -1.0}}]}, "crop_y": {"Points": [{"interpolation": 2, "co": {"X": 1.0, "Y": 0.0}}]}, "reader": {"has_audio": false, "pixel_ratio": {"den": 1, "num": 1}, "video_length": "2592000", "interlaced_frame": false, "audio_bit_rate": 0, "height": 1080, "fps": {"den": 1, "num": 30}, "video_stream_index": -1, "video_bit_rate": 0, "display_ratio": {"den": 9, "num": 16}, "path": "/home/milind/Data/Projects/ProgressCard/Images/01-White-Background.svg", "has_single_image": true, "pixel_format": -1, "width": 1920, "sample_rate": 0, "audio_stream_index": -1, "duration": 86400.0, "type": "QtImageReader", "channel_layout": 4, "video_timebase": {"den": 30, "num": 1}, "top_field_first": true, "acodec": "", "vcodec": "", "has_video": true, "channels": 0, "audio_timebase": {"den": 1, "num": 1}, "file_size": "8294400"}, "perspective_c1_y": {"Points": [{"interpolation": 2, "co": {"X": 1.0, "Y": -1.0}}]}, "crop_height": {"Points": [{"interpolation": 2, "co": {"X": 1.0, "Y": -1.0}}]}, "effects": [], "waveform": false, "perspective_c1_x": {"Points": [{"interpolation": 2, "co": {"X": 1.0, "Y": -1.0}}]}, "perspective_c4_y": {"Points": [{"interpolation": 2, "co": {"X": 1.0, "Y": -1.0}}]}, "crop_x": {"Points": [{"interpolation": 2, "co": {"X": 1.0, "Y": 0.0}}]}, "channel_mapping": {"Points": [{"interpolation": 2, "co": {"X": 1.0, "Y": -1.0}}]}, "alpha": {"Points": [{"interpolation": 2, "co": {"X": 1.0, "Y": 1.0}}]}, "display": 0, "anchor": 0, "perspective_c2_x": {"Points": [{"interpolation": 2, "co": {"X": 1.0, "Y": -1.0}}]}, "shear_y": {"Points": [{"interpolation": 2, "co": {"X": 1.0, "Y": 0.0}}]}, "scale_y": {"Points": [{"interpolation": 2, "co": {"X": 1.0, "Y": 1.0}}]}}, {"has_audio": {"Points": [{"interpolation": 2, "co": {"X": 1.0, "Y": -1.0}}]}, "position": 0, "rotation": {"Points": [{"interpolation": 2, "co": {"X": 1.0, "Y": 0.0}}]}, "location_x": {"Points": [{"interpolation": 2, "co": {"X": 1.0, "Y": 0.0}}]}, "file_id": "9DMFO1XFX6", "channel_filter": {"Points": [{"interpolation": 2, "co": {"X": 1.0, "Y": -1.0}}]}, "gravity": 4, "perspective_c4_x": {"Points": [{"interpolation": 2, "co": {"X": 1.0, "Y": -1.0}}]}, "layer": 3, "wave_color": {"alpha": {"Points": [{"handle_right": {"X": 0.5, "Y": 0.0}, "handle_type": 0, "handle_left": {"X": 0.5, "Y": 1.0}, "co": {"X": 1.0, "Y": 255.0}, "interpolation": 0}]}, "red": {"Points": [{"handle_right": {"X": 0.5, "Y": 0.0}, "handle_type": 0, "handle_left": {"X": 0.5, "Y": 1.0}, "co": {"X": 1.0, "Y": 0.0}, "interpolation": 0}]}, "blue": {"Points": [{"handle_right": {"X": 0.5, "Y": 0.0}, "handle_type": 0, "handle_left": {"X": 0.5, "Y": 1.0}, "co": {"X": 1.0, "Y": 255.0}, "interpolation": 0}]}, "green": {"Points": [{"handle_right": {"X": 0.5, "Y": 0.0}, "handle_type": 0, "handle_left": {"X": 0.5, "Y": 1.0}, "co": {"X": 1.0, "Y": 123.0}, "interpolation": 0}]}}, "volume": {"Points": [{"interpolation": 2, "co": {"X": 1.0, "Y": 1.0}}]}, "perspective_c3_x": {"Points": [{"interpolation": 2, "co": {"X": 1.0, "Y": -1.0}}]}, "has_video": {"Points": [{"interpolation": 2, "co": {"X": 1.0, "Y": -1.0}}]}, "location_y": {"Points": [{"interpolation": 2, "co": {"X": 1.0, "Y": 0.0}}]}, "perspective_c2_y": {"Points": [{"interpolation": 2, "co": {"X": 1.0, "Y": -1.0}}]}, "scale": 1, "time": {"Points": [{"interpolation": 2, "co": {"X": 1.0, "Y": 1.0}}]}, "start": 0, "end": 10, "crop_width": {"Points": [{"interpolation": 2, "co": {"X": 1.0, "Y": -1.0}}]}, "scale_x": {"Points": [{"interpolation": 2, "co": {"X": 1.0, "Y": 1.0}}]}, "image": "/home/milind/.openshot_qt/thumbnail/9DMFO1XFX6.png", "id": "FBMFTB0HC9", "title": "06-Slide-Create Students Record In Libre Calc.svg", "shear_x": {"Points": [{"interpolation": 2, "co": {"X": 1.0, "Y": 0.0}}]}, "duration": 86400.0, "perspective_c3_y": {"Points": [{"interpolation": 2, "co": {"X": 1.0, "Y": -1.0}}]}, "crop_y": {"Points": [{"interpolation": 2, "co": {"X": 1.0, "Y": 0.0}}]}, "reader": {"has_audio": false, "pixel_ratio": {"den": 1, "num": 1}, "video_length": "2592000", "interlaced_frame": false, "audio_bit_rate": 0, "height": 3827, "fps": {"den": 1, "num": 30}, "video_stream_index": -1, "video_bit_rate": 0, "display_ratio": {"den": 3827, "num": 6803}, "path": "/home/milind/Data/Projects/ProgressCard/Images/06-Slide-Create Students Record In Libre Calc.svg", "has_single_image": true, "pixel_format": -1, "width": 6803, "sample_rate": 0, "audio_stream_index": -1, "duration": 86400.0, "type": "QtImageReader", "channel_layout": 4, "video_timebase": {"den": 30, "num": 1}, "top_field_first": true, "acodec": "", "vcodec": "", "has_video": true, "channels": 0, "audio_timebase": {"den": 1, "num": 1}, "file_size": "104140324"}, "perspective_c1_y": {"Points": [{"interpolation": 2, "co": {"X": 1.0, "Y": -1.0}}]}, "crop_height": {"Points": [{"interpolation": 2, "co": {"X": 1.0, "Y": -1.0}}]}, "effects": [], "waveform": false, "perspective_c1_x": {"Points": [{"interpolation": 2, "co": {"X": 1.0, "Y": -1.0}}]}, "perspective_c4_y": {"Points": [{"interpolation": 2, "co": {"X": 1.0, "Y": -1.0}}]}, "crop_x": {"Points": [{"interpolation": 2, "co": {"X": 1.0, "Y": 0.0}}]}, "channel_mapping": {"Points": [{"interpolation": 2, "co": {"X": 1.0, "Y": -1.0}}]}, "alpha": {"Points": [{"interpolation": 2, "co": {"X": 1.0, "Y": 1.0}}]}, "display": 0, "anchor": 0, "perspective_c2_x": {"Points": [{"interpolation": 2, "co": {"X": 1.0, "Y": -1.0}}]}, "shear_y": {"Points": [{"interpolation": 2, "co": {"X": 1.0, "Y": 0.0}}]}, "scale_y": {"Points": [{"interpolation": 2, "co": {"X": 1.0, "Y": 1.0}}]}}], "partial": false}, {"key": ["clips", {"id": "H0YV894FP9"}], "type": "update", "value": {"position": 10, "id": "H0YV894FP9", "image": "/home/milind/.openshot_qt/thumbnail/OE5TV4582C.png", "start": 0, "layer": 3, "end": 10}, "old_values": {"has_audio": {"Points": [{"interpolation": 2, "co": {"X": 1.0, "Y": -1.0}}]}, "position": 0.0, "rotation": {"Points": [{"interpolation": 2, "co": {"X": 1.0, "Y": 0.0}}]}, "location_x": {"Points": [{"interpolation": 2, "co": {"X": 1.0, "Y": 0.0}}]}, "file_id": "OE5TV4582C", "perspective_c1_y": {"Points": [{"interpolation": 2, "co": {"X": 1.0, "Y": -1.0}}]}, "gravity": 4, "perspective_c4_x": {"Points": [{"interpolation": 2, "co": {"X": 1.0, "Y": -1.0}}]}, "layer": 3, "wave_color": {"alpha": {"Points": [{"handle_right": {"X": 0.5, "Y": 0.0}, "handle_type": 0, "handle_left": {"X": 0.5, "Y": 1.0}, "co": {"X": 1.0, "Y": 255.0}, "interpolation": 0}]}, "red": {"Points": [{"handle_right": {"X": 0.5, "Y": 0.0}, "handle_type": 0, "handle_left": {"X": 0.5, "Y": 1.0}, "co": {"X": 1.0, "Y": 0.0}, "interpolation": 0}]}, "blue": {"Points": [{"handle_right": {"X": 0.5, "Y": 0.0}, "handle_type": 0, "handle_left": {"X": 0.5, "Y": 1.0}, "co": {"X": 1.0, "Y": 255.0}, "interpolation": 0}]}, "green": {"Points": [{"handle_right": {"X": 0.5, "Y": 0.0}, "handle_type": 0, "handle_left": {"X": 0.5, "Y": 1.0}, "co": {"X": 1.0, "Y": 123.0}, "interpolation": 0}]}}, "start": 0.0, "has_video": {"Points": [{"interpolation": 2, "co": {"X": 1.0, "Y": -1.0}}]}, "location_y": {"Points": [{"interpolation": 2, "co": {"X": 1.0, "Y": 0.0}}]}, "alpha": {"Points": [{"interpolation": 2, "co": {"X": 1.0, "Y": 1.0}}]}, "perspective_c2_x": {"Points": [{"interpolation": 2, "co": {"X": 1.0, "Y": -1.0}}]}, "scale": 1, "time": {"Points": [{"interpolation": 2, "co": {"X": 1.0, "Y": 1.0}}]}, "anchor": 0, "end": 10.0, "channel_mapping": {"Points": [{"interpolation": 2, "co": {"X": 1.0, "Y": -1.0}}]}, "volume": {"Points": [{"interpolation": 2, "co": {"X": 1.0, "Y": 1.0}}]}, "image": "/home/milind/.openshot_qt/thumbnail/OE5TV4582C.png", "id": "H0YV894FP9", "title": "07-Slide -Open Libre Calc.svg", "shear_x": {"Points": [{"interpolation": 2, "co": {"X": 1.0, "Y": 0.0}}]}, "duration": 86400.0, "perspective_c3_y": {"Points": [{"interpolation": 2, "co": {"X": 1.0, "Y": -1.0}}]}, "crop_y": {"Points": [{"interpolation": 2, "co": {"X": 1.0, "Y": 0.0}}]}, "reader": {"has_audio": false, "pixel_ratio": {"den": 1, "num": 1}, "video_length": "2592000", "interlaced_frame": false, "audio_bit_rate": 0, "height": 3827, "fps": {"den": 1, "num": 30}, "video_stream_index": -1, "video_bit_rate": 0, "display_ratio": {"den": 3827, "num": 6803}, "path": "/home/milind/Data/Projects/ProgressCard/Images/07-Slide -Open Libre Calc.svg", "has_single_image": true, "pixel_format": -1, "width": 6803, "sample_rate": 0, "audio_stream_index": -1, "duration": 86400.0, "type": "QtImageReader", "channel_layout": 4, "video_timebase": {"den": 30, "num": 1}, "top_field_first": true, "acodec": "", "vcodec": "", "has_video": true, "channels": 0, "audio_timebase": {"den": 1, "num": 1}, "file_size": "104140324"}, "channel_filter": {"Points": [{"interpolation": 2, "co": {"X": 1.0, "Y": -1.0}}]}, "crop_height": {"Points": [{"interpolation": 2, "co": {"X": 1.0, "Y": -1.0}}]}, "effects": [], "waveform": false, "perspective_c1_x": {"Points": [{"interpolation": 2, "co": {"X": 1.0, "Y": -1.0}}]}, "perspective_c4_y": {"Points": [{"interpolation": 2, "co": {"X": 1.0, "Y": -1.0}}]}, "crop_x": {"Points": [{"interpolation": 2, "co": {"X": 1.0, "Y": 0.0}}]}, "crop_width": {"Points": [{"interpolation": 2, "co": {"X": 1.0, "Y": -1.0}}]}, "perspective_c2_y": {"Points": [{"interpolation": 2, "co": {"X": 1.0, "Y": -1.0}}]}, "display": 0, "scale_x": {"Points": [{"interpolation": 2, "co": {"X": 1.0, "Y": 1.0}}]}, "perspective_c3_x": {"Points": [{"interpolation": 2, "co": {"X": 1.0, "Y": -1.0}}]}, "shear_y": {"Points": [{"interpolation": 2, "co": {"X": 1.0, "Y": 0.0}}]}, "scale_y": {"Points": [{"interpolation": 2, "co": {"X": 1.0, "Y": 1.0}}]}}, "partial": false}, {"key": ["clips", {"id": "XNSK4PWD2F"}], "type": "update", "value": {"position": 20, "id": "XNSK4PWD2F", "image": "/home/milind/.openshot_qt/thumbnail/IV7EF51HD1.png", "start": 0, "layer": 3, "end": 59}, "old_values": {"has_audio": {"Points": [{"interpolation": 2, "co": {"Y": -1.0, "X": 1.0}}]}, "position": 26.08, "rotation": {"Points": [{"interpolation": 2, "co": {"Y": 0.0, "X": 1.0}}]}, "location_x": {"Points": [{"interpolation": 2, "co": {"Y": 0.0, "X": 1.0}}, {"interpolation": 1, "co": {"Y": 0.43511450381679384, "X": 192}}]}, "file_id": "IV7EF51HD1", "channel_filter": {"Points": [{"interpolation": 2, "co": {"Y": -1.0, "X": 1.0}}]}, "perspective_c3_x": {"Points": [{"interpolation": 2, "co": {"Y": -1.0, "X": 1.0}}]}, "perspective_c4_x": {"Points": [{"interpolation": 2, "co": {"Y": -1.0, "X": 1.0}}]}, "layer": 3, "wave_color": {"alpha": {"Points": [{"handle_right": {"Y": 0.0, "X": 0.5}, "handle_type": 0, "handle_left": {"Y": 1.0, "X": 0.5}, "co": {"Y": 255.0, "X": 1.0}, "interpolation": 0}]}, "red": {"Points": [{"handle_right": {"Y": 0.0, "X": 0.5}, "handle_type": 0, "handle_left": {"Y": 1.0, "X": 0.5}, "co": {"Y": 0.0, "X": 1.0}, "interpolation": 0}]}, "blue": {"Points": [{"handle_right": {"Y": 0.0, "X": 0.5}, "handle_type": 0, "handle_left": {"Y": 1.0, "X": 0.5}, "co": {"Y": 255.0, "X": 1.0}, "interpolation": 0}]}, "green": {"Points": [{"handle_right": {"Y": 0.0, "X": 0.5}, "handle_type": 0, "handle_left": {"Y": 1.0, "X": 0.5}, "co": {"Y": 123.0, "X": 1.0}, "interpolation": 0}]}}, "volume": {"Points": [{"interpolation": 2, "co": {"Y": 1.0, "X": 1.0}}]}, "has_video": {"Points": [{"interpolation": 2, "co": {"Y": -1.0, "X": 1.0}}]}, "location_y": {"Points": [{"interpolation": 2, "co": {"Y": 0.0, "X": 1.0}}, {"interpolation": 1, "co": {"Y": 0.45038167938931295, "X": 192}}]}, "gravity": 4, "alpha": {"Points": [{"interpolation": 2, "co": {"Y": 1.0, "X": 1.0}}, {"handle_right": {"Y": 0.0, "X": 0.5}, "handle_type": 0, "handle_left": {"Y": 1.0, "X": 0.5}, "co": {"Y": 0.0, "X": 1.0}, "interpolation": 0}, {"handle_right": {"Y": 0.0, "X": 0.5}, "handle_type": 0, "handle_left": {"Y": 1.0, "X": 0.5}, "co": {"Y": 1.0, "X": 73.0}, "interpolation": 0}, {"handle_right": {"Y": 0.0, "X": 0.5}, "handle_type": 0, "handle_left": {"Y": 1.0, "X": 0.5}, "co": {"Y": 1.0, "X": 1345.0}, "interpolation": 0}, {"handle_right": {"Y": 0.0, "X": 0.5}, "handle_type": 0, "handle_left": {"Y": 1.0, "X": 0.5}, "co": {"Y": 0.0, "X": 1417.0}, "interpolation": 0}]}, "scale": 1, "time": {"Points": [{"interpolation": 2, "co": {"Y": 1.0, "X": 1.0}}]}, "start": 0, "end": 59, "crop_width": {"Points": [{"interpolation": 2, "co": {"Y": -1.0, "X": 1.0}}]}, "scale_x": {"Points": [{"interpolation": 2, "co": {"Y": 1.0, "X": 1.0}}, {"interpolation": 1, "co": {"Y": 1.899999976158142, "X": 192}}]}, "image": "/home/milind/.openshot_qt/thumbnail/IV7EF51HD1.png", "id": "XNSK4PWD2F", "title": "07-Entered Record of 10 students.mkv", "shear_x": {"Points": [{"interpolation": 2, "co": {"Y": 0.0, "X": 1.0}}]}, "duration": 59.0, "perspective_c3_y": {"Points": [{"interpolation": 2, "co": {"Y": -1.0, "X": 1.0}}]}, "perspective_c2_y": {"Points": [{"interpolation": 2, "co": {"Y": -1.0, "X": 1.0}}]}, "reader": {"has_audio": false, "pixel_ratio": {"den": 1, "num": 1}, "video_length": "1475", "audio_bit_rate": 0, "interlaced_frame": false, "fps": {"den": 1, "num": 25}, "video_stream_index": 0, "video_bit_rate": 0, "display_ratio": {"den": 384, "num": 683}, "path": "/home/milind/Data/Projects/ProgressCard/Clips/07-Entered Record of 10 students.mkv", "channels": 0, "pixel_format": 0, "width": 1366, "sample_rate": 0, "audio_stream_index": -1, "duration": 59.0, "top_field_first": true, "channel_layout": 4, "video_timebase": {"den": 1000, "num": 1}, "type": "FFmpegReader", "has_single_image": false, "vcodec": "h264", "has_video": true, "acodec": "", "height": 768, "audio_timebase": {"den": 1, "num": 1}, "file_size": "595628"}, "perspective_c1_y": {"Points": [{"interpolation": 2, "co": {"Y": -1.0, "X": 1.0}}]}, "crop_height": {"Points": [{"interpolation": 2, "co": {"Y": -1.0, "X": 1.0}}]}, "effects": [], "waveform": false, "perspective_c1_x": {"Points": [{"interpolation": 2, "co": {"Y": -1.0, "X": 1.0}}]}, "perspective_c4_y": {"Points": [{"interpolation": 2, "co": {"Y": -1.0, "X": 1.0}}]}, "crop_x": {"Points": [{"interpolation": 2, "co": {"Y": 0.0, "X": 1.0}}]}, "channel_mapping": {"Points": [{"interpolation": 2, "co": {"Y": -1.0, "X": 1.0}}]}, "crop_y": {"Points": [{"interpolation": 2, "co": {"Y": 0.0, "X": 1.0}}]}, "display": 0, "anchor": 0, "perspective_c2_x": {"Points": [{"interpolation": 2, "co": {"Y": -1.0, "X": 1.0}}]}, "shear_y": {"Points": [{"interpolation": 2, "co": {"Y": 0.0, "X": 1.0}}]}, "scale_y": {"Points": [{"interpolation": 2, "co": {"Y": 1.0, "X": 1.0}}, {"interpolation": 1, "co": {"Y": 1.899999976158142, "X": 192}}]}}, "partial": false}, {"key": ["clips", {"id": "XNSK4PWD2F"}], "type": "update", "value": {"has_audio": {"Points": [{"interpolation": 2, "co": {"Y": -1.0, "X": 1.0}}]}, "position": 20, "rotation": {"Points": [{"interpolation": 2, "co": {"Y": 0.0, "X": 1.0}}]}, "location_x": {"Points": [{"interpolation": 2, "co": {"Y": 0.0, "X": 1.0}}, {"interpolation": 1, "co": {"Y": 0.43511450381679384, "X": 192}}]}, "file_id": "IV7EF51HD1", "channel_filter": {"Points": [{"interpolation": 2, "co": {"Y": -1.0, "X": 1.0}}]}, "perspective_c3_x": {"Points": [{"interpolation": 2, "co": {"Y": -1.0, "X": 1.0}}]}, "perspective_c4_x": {"Points": [{"interpolation": 2, "co": {"Y": -1.0, "X": 1.0}}]}, "layer": 3, "wave_color": {"alpha": {"Points": [{"handle_right": {"Y": 0.0, "X": 0.5}, "handle_type": 0, "handle_left": {"Y": 1.0, "X": 0.5}, "co": {"Y": 255.0, "X": 1.0}, "interpolation": 0}]}, "red": {"Points": [{"handle_right": {"Y": 0.0, "X": 0.5}, "handle_type": 0, "handle_left": {"Y": 1.0, "X": 0.5}, "co": {"Y": 0.0, "X": 1.0}, "interpolation": 0}]}, "blue": {"Points": [{"handle_right": {"Y": 0.0, "X": 0.5}, "handle_type": 0, "handle_left": {"Y": 1.0, "X": 0.5}, "co": {"Y": 255.0, "X": 1.0}, "interpolation": 0}]}, "green": {"Points": [{"handle_right": {"Y": 0.0, "X": 0.5}, "handle_type": 0, "handle_left": {"Y": 1.0, "X": 0.5}, "co": {"Y": 123.0, "X": 1.0}, "interpolation": 0}]}}, "volume": {"Points": [{"interpolation": 2, "co": {"Y": 1.0, "X": 1.0}}]}, "has_video": {"Points": [{"interpolation": 2, "co": {"Y": -1.0, "X": 1.0}}]}, "location_y": {"Points": [{"interpolation": 2, "co": {"Y": 0.0, "X": 1.0}}, {"interpolation": 1, "co": {"Y": 0.45038167938931295, "X": 192}}]}, "gravity": 4, "alpha": {"Points": [{"interpolation": 2, "co": {"Y": 1.0, "X": 1.0}}, {"handle_right": {"Y": 0.0, "X": 0.5}, "handle_type": 0, "handle_left": {"Y": 1.0, "X": 0.5}, "co": {"Y": 0.0, "X": 1.0}, "interpolation": 0}, {"handle_right": {"Y": 0.0, "X": 0.5}, "handle_type": 0, "handle_left": {"Y": 1.0, "X": 0.5}, "co": {"Y": 1.0, "X": 73.0}, "interpolation": 0}, {"handle_right": {"Y": 0.0, "X": 0.5}, "handle_type": 0, "handle_left": {"Y": 1.0, "X": 0.5}, "co": {"Y": 1.0, "X": 1345.0}, "interpolation": 0}, {"handle_right": {"Y": 0.0, "X": 0.5}, "handle_type": 0, "handle_left": {"Y": 1.0, "X": 0.5}, "co": {"Y": 0.0, "X": 1417.0}, "interpolation": 0}, {"handle_right": {"X": 0.5, "Y": 0.0}, "handle_type": 0, "handle_left": {"X": 0.5, "Y": 1.0}, "co": {"X": 1.0, "Y": 0.0}, "interpolation": 0}, {"handle_right": {"X": 0.5, "Y": 0.0}, "handle_type": 0, "handle_left": {"X": 0.5, "Y": 1.0}, "co": {"X": 73.0, "Y": 1.0}, "interpolation": 0}]}, "scale": 1, "time": {"Points": [{"interpolation": 2, "co": {"Y": 1.0, "X": 1.0}}]}, "start": 0, "end": 59, "crop_width": {"Points": [{"interpolation": 2, "co": {"Y": -1.0, "X": 1.0}}]}, "scale_x": {"Points": [{"interpolation": 2, "co": {"Y": 1.0, "X": 1.0}}, {"interpolation": 1, "co": {"Y": 1.899999976158142, "X": 192}}]}, "image": "/home/milind/.openshot_qt/thumbnail/IV7EF51HD1.png", "id": "XNSK4PWD2F", "title": "07-Entered Record of 10 students.mkv", "shear_x": {"Points": [{"interpolation": 2, "co": {"Y": 0.0, "X": 1.0}}]}, "duration": 59.0, "perspective_c3_y": {"Points": [{"interpolation": 2, "co": {"Y": -1.0, "X": 1.0}}]}, "perspective_c2_y": {"Points": [{"interpolation": 2, "co": {"Y": -1.0, "X": 1.0}}]}, "perspective_c1_y": {"Points": [{"interpolation": 2, "co": {"Y": -1.0, "X": 1.0}}]}, "crop_height": {"Points": [{"interpolation": 2, "co": {"Y": -1.0, "X": 1.0}}]}, "effects": [], "waveform": false, "perspective_c1_x": {"Points": [{"interpolation": 2, "co": {"Y": -1.0, "X": 1.0}}]}, "perspective_c4_y": {"Points": [{"interpolation": 2, "co": {"Y": -1.0, "X": 1.0}}]}, "crop_x": {"Points": [{"interpolation": 2, "co": {"Y": 0.0, "X": 1.0}}]}, "channel_mapping": {"Points": [{"interpolation": 2, "co": {"Y": -1.0, "X": 1.0}}]}, "crop_y": {"Points": [{"interpolation": 2, "co": {"Y": 0.0, "X": 1.0}}]}, "display": 0, "anchor": 0, "perspective_c2_x": {"Points": [{"interpolation": 2, "co": {"Y": -1.0, "X": 1.0}}]}, "shear_y": {"Points": [{"interpolation": 2, "co": {"Y": 0.0, "X": 1.0}}]}, "scale_y": {"Points": [{"interpolation": 2, "co": {"Y": 1.0, "X": 1.0}}, {"interpolation": 1, "co": {"Y": 1.899999976158142, "X": 192}}]}}, "old_values": {"has_audio": {"Points": [{"interpolation": 2, "co": {"Y": -1.0, "X": 1.0}}]}, "position": 20, "rotation": {"Points": [{"interpolation": 2, "co": {"Y": 0.0, "X": 1.0}}]}, "location_x": {"Points": [{"interpolation": 2, "co": {"Y": 0.0, "X": 1.0}}, {"interpolation": 1, "co": {"Y": 0.43511450381679384, "X": 192}}]}, "file_id": "IV7EF51HD1", "channel_filter": {"Points": [{"interpolation": 2, "co": {"Y": -1.0, "X": 1.0}}]}, "perspective_c3_x": {"Points": [{"interpolation": 2, "co": {"Y": -1.0, "X": 1.0}}]}, "perspective_c4_x": {"Points": [{"interpolation": 2, "co": {"Y": -1.0, "X": 1.0}}]}, "layer": 3, "wave_color": {"alpha": {"Points": [{"handle_right": {"Y": 0.0, "X": 0.5}, "handle_type": 0, "handle_left": {"Y": 1.0, "X": 0.5}, "co": {"Y": 255.0, "X": 1.0}, "interpolation": 0}]}, "red": {"Points": [{"handle_right": {"Y": 0.0, "X": 0.5}, "handle_type": 0, "handle_left": {"Y": 1.0, "X": 0.5}, "co": {"Y": 0.0, "X": 1.0}, "interpolation": 0}]}, "blue": {"Points": [{"handle_right": {"Y": 0.0, "X": 0.5}, "handle_type": 0, "handle_left": {"Y": 1.0, "X": 0.5}, "co": {"Y": 255.0, "X": 1.0}, "interpolation": 0}]}, "green": {"Points": [{"handle_right": {"Y": 0.0, "X": 0.5}, "handle_type": 0, "handle_left": {"Y": 1.0, "X": 0.5}, "co": {"Y": 123.0, "X": 1.0}, "interpolation": 0}]}}, "volume": {"Points": [{"interpolation": 2, "co": {"Y": 1.0, "X": 1.0}}]}, "has_video": {"Points": [{"interpolation": 2, "co": {"Y": -1.0, "X": 1.0}}]}, "location_y": {"Points": [{"interpolation": 2, "co": {"Y": 0.0, "X": 1.0}}, {"interpolation": 1, "co": {"Y": 0.45038167938931295, "X": 192}}]}, "gravity": 4, "alpha": {"Points": [{"interpolation": 2, "co": {"Y": 1.0, "X": 1.0}}, {"handle_right": {"Y": 0.0, "X": 0.5}, "handle_type": 0, "handle_left": {"Y": 1.0, "X": 0.5}, "co": {"Y": 0.0, "X": 1.0}, "interpolation": 0}, {"handle_right": {"Y": 0.0, "X": 0.5}, "handle_type": 0, "handle_left": {"Y": 1.0, "X": 0.5}, "co": {"Y": 1.0, "X": 73.0}, "interpolation": 0}, {"handle_right": {"Y": 0.0, "X": 0.5}, "handle_type": 0, "handle_left": {"Y": 1.0, "X": 0.5}, "co": {"Y": 1.0, "X": 1345.0}, "interpolation": 0}, {"handle_right": {"Y": 0.0, "X": 0.5}, "handle_type": 0, "handle_left": {"Y": 1.0, "X": 0.5}, "co": {"Y": 0.0, "X": 1417.0}, "interpolation": 0}]}, "scale": 1, "time": {"Points": [{"interpolation": 2, "co": {"Y": 1.0, "X": 1.0}}]}, "start": 0, "end": 59, "crop_width": {"Points": [{"interpolation": 2, "co": {"Y": -1.0, "X": 1.0}}]}, "scale_x": {"Points": [{"interpolation": 2, "co": {"Y": 1.0, "X": 1.0}}, {"interpolation": 1, "co": {"Y": 1.899999976158142, "X": 192}}]}, "image": "/home/milind/.openshot_qt/thumbnail/IV7EF51HD1.png", "id": "XNSK4PWD2F", "title": "07-Entered Record of 10 students.mkv", "shear_x": {"Points": [{"interpolation": 2, "co": {"Y": 0.0, "X": 1.0}}]}, "duration": 59.0, "perspective_c3_y": {"Points": [{"interpolation": 2, "co": {"Y": -1.0, "X": 1.0}}]}, "perspective_c2_y": {"Points": [{"interpolation": 2, "co": {"Y": -1.0, "X": 1.0}}]}, "reader": {"has_audio": false, "pixel_ratio": {"den": 1, "num": 1}, "video_length": "1475", "audio_bit_rate": 0, "interlaced_frame": false, "fps": {"den": 1, "num": 25}, "video_stream_index": 0, "video_bit_rate": 0, "display_ratio": {"den": 384, "num": 683}, "path": "/home/milind/Data/Projects/ProgressCard/Clips/07-Entered Record of 10 students.mkv", "channels": 0, "pixel_format": 0, "width": 1366, "sample_rate": 0, "audio_stream_index": -1, "duration": 59.0, "top_field_first": true, "channel_layout": 4, "video_timebase": {"den": 1000, "num": 1}, "type": "FFmpegReader", "has_single_image": false, "vcodec": "h264", "has_video": true, "acodec": "", "height": 768, "audio_timebase": {"den": 1, "num": 1}, "file_size": "595628"}, "perspective_c1_y": {"Points": [{"interpolation": 2, "co": {"Y": -1.0, "X": 1.0}}]}, "crop_height": {"Points": [{"interpolation": 2, "co": {"Y": -1.0, "X": 1.0}}]}, "effects": [], "waveform": false, "perspective_c1_x": {"Points": [{"interpolation": 2, "co": {"Y": -1.0, "X": 1.0}}]}, "perspective_c4_y": {"Points": [{"interpolation": 2, "co": {"Y": -1.0, "X": 1.0}}]}, "crop_x": {"Points": [{"interpolation": 2, "co": {"Y": 0.0, "X": 1.0}}]}, "channel_mapping": {"Points": [{"interpolation": 2, "co": {"Y": -1.0, "X": 1.0}}]}, "crop_y": {"Points": [{"interpolation": 2, "co": {"Y": 0.0, "X": 1.0}}]}, "display": 0, "anchor": 0, "perspective_c2_x": {"Points": [{"interpolation": 2, "co": {"Y": -1.0, "X": 1.0}}]}, "shear_y": {"Points": [{"interpolation": 2, "co": {"Y": 0.0, "X": 1.0}}]}, "scale_y": {"Points": [{"interpolation": 2, "co": {"Y": 1.0, "X": 1.0}}, {"interpolation": 1, "co": {"Y": 1.899999976158142, "X": 192}}]}}, "partial": false}, {"key": ["clips", {"id": "FBMFTB0HC9"}], "type": "update", "value": {"has_audio": {"Points": [{"interpolation": 2, "co": {"X": 1.0, "Y": -1.0}}]}, "position": 0, "rotation": {"Points": [{"interpolation": 2, "co": {"X": 1.0, "Y": 0.0}}]}, "location_x": {"Points": [{"interpolation": 2, "co": {"X": 1.0, "Y": 0.0}}]}, "file_id": "9DMFO1XFX6", "channel_filter": {"Points": [{"interpolation": 2, "co": {"X": 1.0, "Y": -1.0}}]}, "gravity": 4, "perspective_c4_x": {"Points": [{"interpolation": 2, "co": {"X": 1.0, "Y": -1.0}}]}, "layer": 3, "wave_color": {"alpha": {"Points": [{"handle_right": {"X": 0.5, "Y": 0.0}, "handle_type": 0, "handle_left": {"X": 0.5, "Y": 1.0}, "co": {"X": 1.0, "Y": 255.0}, "interpolation": 0}]}, "red": {"Points": [{"handle_right": {"X": 0.5, "Y": 0.0}, "handle_type": 0, "handle_left": {"X": 0.5, "Y": 1.0}, "co": {"X": 1.0, "Y": 0.0}, "interpolation": 0}]}, "blue": {"Points": [{"handle_right": {"X": 0.5, "Y": 0.0}, "handle_type": 0, "handle_left": {"X": 0.5, "Y": 1.0}, "co": {"X": 1.0, "Y": 255.0}, "interpolation": 0}]}, "green": {"Points": [{"handle_right": {"X": 0.5, "Y": 0.0}, "handle_type": 0, "handle_left": {"X": 0.5, "Y": 1.0}, "co": {"X": 1.0, "Y": 123.0}, "interpolation": 0}]}}, "volume": {"Points": [{"interpolation": 2, "co": {"X": 1.0, "Y": 1.0}}]}, "has_video": {"Points": [{"interpolation": 2, "co": {"X": 1.0, "Y": -1.0}}]}, "location_y": {"Points": [{"interpolation": 2, "co": {"X": 1.0, "Y": 0.0}}]}, "perspective_c2_y": {"Points": [{"interpolation": 2, "co": {"X": 1.0, "Y": -1.0}}]}, "scale": 1, "time": {"Points": [{"interpolation": 2, "co": {"X": 1.0, "Y": 1.0}}]}, "start": 0, "end": 10, "crop_width": {"Points": [{"interpolation": 2, "co": {"X": 1.0, "Y": -1.0}}]}, "scale_x": {"Points": [{"interpolation": 2, "co": {"X": 1.0, "Y": 1.0}}]}, "image": "/home/milind/.openshot_qt/thumbnail/9DMFO1XFX6.png", "id": "FBMFTB0HC9", "title": "06-Slide-Create Students Record In Libre Calc.svg", "shear_x": {"Points": [{"interpolation": 2, "co": {"X": 1.0, "Y": 0.0}}]}, "duration": 86400.0, "perspective_c3_y": {"Points": [{"interpolation": 2, "co": {"X": 1.0, "Y": -1.0}}]}, "crop_y": {"Points": [{"interpolation": 2, "co": {"X": 1.0, "Y": 0.0}}]}, "perspective_c3_x": {"Points": [{"interpolation": 2, "co": {"X": 1.0, "Y": -1.0}}]}, "perspective_c1_y": {"Points": [{"interpolation": 2, "co": {"X": 1.0, "Y": -1.0}}]}, "crop_height": {"Points": [{"interpolation": 2, "co": {"X": 1.0, "Y": -1.0}}]}, "effects": [], "waveform": false, "perspective_c1_x": {"Points": [{"interpolation": 2, "co": {"X": 1.0, "Y": -1.0}}]}, "perspective_c4_y": {"Points": [{"interpolation": 2, "co": {"X": 1.0, "Y": -1.0}}]}, "crop_x": {"Points": [{"interpolation": 2, "co": {"X": 1.0, "Y": 0.0}}]}, "channel_mapping": {"Points": [{"interpolation": 2, "co": {"X": 1.0, "Y": -1.0}}]}, "alpha": {"Points": [{"interpolation": 2, "co": {"X": 1.0, "Y": 1.0}}, {"handle_right": {"X": 0.5, "Y": 0.0}, "handle_type": 0, "handle_left": {"X": 0.5, "Y": 1.0}, "co": {"X": 1.0, "Y": 0.0}, "interpolation": 0}, {"handle_right": {"X": 0.5, "Y": 0.0}, "handle_type": 0, "handle_left": {"X": 0.5, "Y": 1.0}, "co": {"X": 73.0, "Y": 1.0}, "interpolation": 0}]}, "display": 0, "anchor": 0, "perspective_c2_x": {"Points": [{"interpolation": 2, "co": {"X": 1.0, "Y": -1.0}}]}, "shear_y": {"Points": [{"interpolation": 2, "co": {"X": 1.0, "Y": 0.0}}]}, "scale_y": {"Points": [{"interpolation": 2, "co": {"X": 1.0, "Y": 1.0}}]}}, "old_values": {"has_audio": {"Points": [{"interpolation": 2, "co": {"X": 1.0, "Y": -1.0}}]}, "position": 0, "rotation": {"Points": [{"interpolation": 2, "co": {"X": 1.0, "Y": 0.0}}]}, "location_x": {"Points": [{"interpolation": 2, "co": {"X": 1.0, "Y": 0.0}}]}, "file_id": "9DMFO1XFX6", "channel_filter": {"Points": [{"interpolation": 2, "co": {"X": 1.0, "Y": -1.0}}]}, "gravity": 4, "perspective_c4_x": {"Points": [{"interpolation": 2, "co": {"X": 1.0, "Y": -1.0}}]}, "layer": 3, "wave_color": {"alpha": {"Points": [{"handle_right": {"X": 0.5, "Y": 0.0}, "handle_type": 0, "handle_left": {"X": 0.5, "Y": 1.0}, "co": {"X": 1.0, "Y": 255.0}, "interpolation": 0}]}, "red": {"Points": [{"handle_right": {"X": 0.5, "Y": 0.0}, "handle_type": 0, "handle_left": {"X": 0.5, "Y": 1.0}, "co": {"X": 1.0, "Y": 0.0}, "interpolation": 0}]}, "blue": {"Points": [{"handle_right": {"X": 0.5, "Y": 0.0}, "handle_type": 0, "handle_left": {"X": 0.5, "Y": 1.0}, "co": {"X": 1.0, "Y": 255.0}, "interpolation": 0}]}, "green": {"Points": [{"handle_right": {"X": 0.5, "Y": 0.0}, "handle_type": 0, "handle_left": {"X": 0.5, "Y": 1.0}, "co": {"X": 1.0, "Y": 123.0}, "interpolation": 0}]}}, "volume": {"Points": [{"interpolation": 2, "co": {"X": 1.0, "Y": 1.0}}]}, "perspective_c3_x": {"Points": [{"interpolation": 2, "co": {"X": 1.0, "Y": -1.0}}]}, "has_video": {"Points": [{"interpolation": 2, "co": {"X": 1.0, "Y": -1.0}}]}, "location_y": {"Points": [{"interpolation": 2, "co": {"X": 1.0, "Y": 0.0}}]}, "perspective_c2_y": {"Points": [{"interpolation": 2, "co": {"X": 1.0, "Y": -1.0}}]}, "scale": 1, "time": {"Points": [{"interpolation": 2, "co": {"X": 1.0, "Y": 1.0}}]}, "start": 0, "end": 10, "crop_width": {"Points": [{"interpolation": 2, "co": {"X": 1.0, "Y": -1.0}}]}, "scale_x": {"Points": [{"interpolation": 2, "co": {"X": 1.0, "Y": 1.0}}]}, "image": "/home/milind/.openshot_qt/thumbnail/9DMFO1XFX6.png", "id": "FBMFTB0HC9", "title": "06-Slide-Create Students Record In Libre Calc.svg", "shear_x": {"Points": [{"interpolation": 2, "co": {"X": 1.0, "Y": 0.0}}]}, "duration": 86400.0, "perspective_c3_y": {"Points": [{"interpolation": 2, "co": {"X": 1.0, "Y": -1.0}}]}, "crop_y": {"Points": [{"interpolation": 2, "co": {"X": 1.0, "Y": 0.0}}]}, "reader": {"has_audio": false, "pixel_ratio": {"den": 1, "num": 1}, "video_length": "2592000", "interlaced_frame": false, "audio_bit_rate": 0, "height": 3827, "fps": {"den": 1, "num": 30}, "video_stream_index": -1, "video_bit_rate": 0, "display_ratio": {"den": 3827, "num": 6803}, "path": "/home/milind/Data/Projects/ProgressCard/Images/06-Slide-Create Students Record In Libre Calc.svg", "has_single_image": true, "pixel_format": -1, "width": 6803, "sample_rate": 0, "audio_stream_index": -1, "duration": 86400.0, "type": "QtImageReader", "channel_layout": 4, "video_timebase": {"den": 30, "num": 1}, "top_field_first": true, "acodec": "", "vcodec": "", "has_video": true, "channels": 0, "audio_timebase": {"den": 1, "num": 1}, "file_size": "104140324"}, "perspective_c1_y": {"Points": [{"interpolation": 2, "co": {"X": 1.0, "Y": -1.0}}]}, "crop_height": {"Points": [{"interpolation": 2, "co": {"X": 1.0, "Y": -1.0}}]}, "effects": [], "waveform": false, "perspective_c1_x": {"Points": [{"interpolation": 2, "co": {"X": 1.0, "Y": -1.0}}]}, "perspective_c4_y": {"Points": [{"interpolation": 2, "co": {"X": 1.0, "Y": -1.0}}]}, "crop_x": {"Points": [{"interpolation": 2, "co": {"X": 1.0, "Y": 0.0}}]}, "channel_mapping": {"Points": [{"interpolation": 2, "co": {"X": 1.0, "Y": -1.0}}]}, "alpha": {"Points": [{"interpolation": 2, "co": {"X": 1.0, "Y": 1.0}}]}, "display": 0, "anchor": 0, "perspective_c2_x": {"Points": [{"interpolation": 2, "co": {"X": 1.0, "Y": -1.0}}]}, "shear_y": {"Points": [{"interpolation": 2, "co": {"X": 1.0, "Y": 0.0}}]}, "scale_y": {"Points": [{"interpolation": 2, "co": {"X": 1.0, "Y": 1.0}}]}}, "partial": false}, {"key": ["clips", {"id": "XNSK4PWD2F"}], "type": "update", "value": {"has_audio": {"Points": [{"interpolation": 2, "co": {"Y": -1.0, "X": 1.0}}]}, "position": 20, "rotation": {"Points": [{"interpolation": 2, "co": {"Y": 0.0, "X": 1.0}}]}, "location_x": {"Points": [{"interpolation": 2, "co": {"Y": 0.0, "X": 1.0}}, {"interpolation": 1, "co": {"Y": 0.43511450381679384, "X": 192}}]}, "file_id": "IV7EF51HD1", "channel_filter": {"Points": [{"interpolation": 2, "co": {"Y": -1.0, "X": 1.0}}]}, "perspective_c3_x": {"Points": [{"interpolation": 2, "co": {"Y": -1.0, "X": 1.0}}]}, "perspective_c4_x": {"Points": [{"interpolation": 2, "co": {"Y": -1.0, "X": 1.0}}]}, "layer": 3, "wave_color": {"green": {"Points": [{"handle_right": {"Y": 0.0, "X": 0.5}, "handle_type": 0, "handle_left": {"Y": 1.0, "X": 0.5}, "co": {"Y": 123.0, "X": 1.0}, "interpolation": 0}]}, "red": {"Points": [{"handle_right": {"Y": 0.0, "X": 0.5}, "handle_type": 0, "handle_left": {"Y": 1.0, "X": 0.5}, "co": {"Y": 0.0, "X": 1.0}, "interpolation": 0}]}, "blue": {"Points": [{"handle_right": {"Y": 0.0, "X": 0.5}, "handle_type": 0, "handle_left": {"Y": 1.0, "X": 0.5}, "co": {"Y": 255.0, "X": 1.0}, "interpolation": 0}]}, "alpha": {"Points": [{"handle_right": {"Y": 0.0, "X": 0.5}, "handle_type": 0, "handle_left": {"Y": 1.0, "X": 0.5}, "co": {"Y": 255.0, "X": 1.0}, "interpolation": 0}]}}, "volume": {"Points": [{"interpolation": 2, "co": {"Y": 1.0, "X": 1.0}}]}, "has_video": {"Points": [{"interpolation": 2, "co": {"Y": -1.0, "X": 1.0}}]}, "location_y": {"Points": [{"interpolation": 2, "co": {"Y": 0.0, "X": 1.0}}, {"interpolation": 1, "co": {"Y": 0.45038167938931295, "X": 192}}]}, "gravity": 4, "alpha": {"Points": [{"interpolation": 2, "co": {"Y": 1.0, "X": 1.0}}, {"handle_right": {"Y": 0.0, "X": 0.5}, "handle_type": 0, "handle_left": {"Y": 1.0, "X": 0.5}, "co": {"Y": 0.0, "X": 1.0}, "interpolation": 0}, {"handle_right": {"Y": 0.0, "X": 0.5}, "handle_type": 0, "handle_left": {"Y": 1.0, "X": 0.5}, "co": {"Y": 1.0, "X": 73.0}, "interpolation": 0}, {"handle_right": {"Y": 0.0, "X": 0.5}, "handle_type": 0, "handle_left": {"Y": 1.0, "X": 0.5}, "co": {"Y": 1.0, "X": 1345.0}, "interpolation": 0}, {"handle_right": {"Y": 0.0, "X": 0.5}, "handle_type": 0, "handle_left": {"Y": 1.0, "X": 0.5}, "co": {"Y": 0.0, "X": 1417.0}, "interpolation": 0}, {"handle_right": {"X": 0.5, "Y": 0.0}, "handle_type": 0, "handle_left": {"X": 0.5, "Y": 1.0}, "co": {"X": 1.0, "Y": 0.0}, "interpolation": 0}, {"handle_right": {"X": 0.5, "Y": 0.0}, "handle_type": 0, "handle_left": {"X": 0.5, "Y": 1.0}, "co": {"X": 73.0, "Y": 1.0}, "interpolation": 0}, {"handle_right": {"X": 0.5, "Y": 0.0}, "handle_type": 0, "handle_left": {"X": 0.5, "Y": 1.0}, "co": {"X": 1345.0, "Y": 1.0}, "interpolation": 0}, {"handle_right": {"X": 0.5, "Y": 0.0}, "handle_type": 0, "handle_left": {"X": 0.5, "Y": 1.0}, "co": {"X": 1417.0, "Y": 0.0}, "interpolation": 0}]}, "scale": 1, "time": {"Points": [{"interpolation": 2, "co": {"Y": 1.0, "X": 1.0}}]}, "start": 0, "end": 59, "crop_width": {"Points": [{"interpolation": 2, "co": {"Y": -1.0, "X": 1.0}}]}, "scale_x": {"Points": [{"interpolation": 2, "co": {"Y": 1.0, "X": 1.0}}, {"interpolation": 1, "co": {"Y": 1.899999976158142, "X": 192}}]}, "image": "/home/milind/.openshot_qt/thumbnail/IV7EF51HD1.png", "id": "XNSK4PWD2F", "title": "07-Entered Record of 10 students.mkv", "shear_x": {"Points": [{"interpolation": 2, "co": {"Y": 0.0, "X": 1.0}}]}, "duration": 59.0, "perspective_c3_y": {"Points": [{"interpolation": 2, "co": {"Y": -1.0, "X": 1.0}}]}, "perspective_c2_y": {"Points": [{"interpolation": 2, "co": {"Y": -1.0, "X": 1.0}}]}, "perspective_c1_y": {"Points": [{"interpolation": 2, "co": {"Y": -1.0, "X": 1.0}}]}, "crop_height": {"Points": [{"interpolation": 2, "co": {"Y": -1.0, "X": 1.0}}]}, "effects": [], "waveform": false, "perspective_c1_x": {"Points": [{"interpolation": 2, "co": {"Y": -1.0, "X": 1.0}}]}, "perspective_c4_y": {"Points": [{"interpolation": 2, "co": {"Y": -1.0, "X": 1.0}}]}, "crop_x": {"Points": [{"interpolation": 2, "co": {"Y": 0.0, "X": 1.0}}]}, "channel_mapping": {"Points": [{"interpolation": 2, "co": {"Y": -1.0, "X": 1.0}}]}, "crop_y": {"Points": [{"interpolation": 2, "co": {"Y": 0.0, "X": 1.0}}]}, "display": 0, "anchor": 0, "perspective_c2_x": {"Points": [{"interpolation": 2, "co": {"Y": -1.0, "X": 1.0}}]}, "shear_y": {"Points": [{"interpolation": 2, "co": {"Y": 0.0, "X": 1.0}}]}, "scale_y": {"Points": [{"interpolation": 2, "co": {"Y": 1.0, "X": 1.0}}, {"interpolation": 1, "co": {"Y": 1.899999976158142, "X": 192}}]}}, "old_values": {"has_audio": {"Points": [{"interpolation": 2, "co": {"Y": -1.0, "X": 1.0}}]}, "position": 20, "rotation": {"Points": [{"interpolation": 2, "co": {"Y": 0.0, "X": 1.0}}]}, "location_x": {"Points": [{"interpolation": 2, "co": {"Y": 0.0, "X": 1.0}}, {"interpolation": 1, "co": {"Y": 0.43511450381679384, "X": 192}}]}, "file_id": "IV7EF51HD1", "channel_filter": {"Points": [{"interpolation": 2, "co": {"Y": -1.0, "X": 1.0}}]}, "perspective_c3_x": {"Points": [{"interpolation": 2, "co": {"Y": -1.0, "X": 1.0}}]}, "perspective_c4_x": {"Points": [{"interpolation": 2, "co": {"Y": -1.0, "X": 1.0}}]}, "layer": 3, "wave_color": {"green": {"Points": [{"handle_right": {"Y": 0.0, "X": 0.5}, "handle_type": 0, "handle_left": {"Y": 1.0, "X": 0.5}, "co": {"Y": 123.0, "X": 1.0}, "interpolation": 0}]}, "red": {"Points": [{"handle_right": {"Y": 0.0, "X": 0.5}, "handle_type": 0, "handle_left": {"Y": 1.0, "X": 0.5}, "co": {"Y": 0.0, "X": 1.0}, "interpolation": 0}]}, "blue": {"Points": [{"handle_right": {"Y": 0.0, "X": 0.5}, "handle_type": 0, "handle_left": {"Y": 1.0, "X": 0.5}, "co": {"Y": 255.0, "X": 1.0}, "interpolation": 0}]}, "alpha": {"Points": [{"handle_right": {"Y": 0.0, "X": 0.5}, "handle_type": 0, "handle_left": {"Y": 1.0, "X": 0.5}, "co": {"Y": 255.0, "X": 1.0}, "interpolation": 0}]}}, "volume": {"Points": [{"interpolation": 2, "co": {"Y": 1.0, "X": 1.0}}]}, "has_video": {"Points": [{"interpolation": 2, "co": {"Y": -1.0, "X": 1.0}}]}, "location_y": {"Points": [{"interpolation": 2, "co": {"Y": 0.0, "X": 1.0}}, {"interpolation": 1, "co": {"Y": 0.45038167938931295, "X": 192}}]}, "gravity": 4, "alpha": {"Points": [{"interpolation": 2, "co": {"Y": 1.0, "X": 1.0}}, {"handle_right": {"Y": 0.0, "X": 0.5}, "handle_type": 0, "handle_left": {"Y": 1.0, "X": 0.5}, "co": {"Y": 0.0, "X": 1.0}, "interpolation": 0}, {"handle_right": {"Y": 0.0, "X": 0.5}, "handle_type": 0, "handle_left": {"Y": 1.0, "X": 0.5}, "co": {"Y": 1.0, "X": 73.0}, "interpolation": 0}, {"handle_right": {"Y": 0.0, "X": 0.5}, "handle_type": 0, "handle_left": {"Y": 1.0, "X": 0.5}, "co": {"Y": 1.0, "X": 1345.0}, "interpolation": 0}, {"handle_right": {"Y": 0.0, "X": 0.5}, "handle_type": 0, "handle_left": {"Y": 1.0, "X": 0.5}, "co": {"Y": 0.0, "X": 1417.0}, "interpolation": 0}, {"handle_right": {"X": 0.5, "Y": 0.0}, "handle_type": 0, "handle_left": {"X": 0.5, "Y": 1.0}, "co": {"X": 1.0, "Y": 0.0}, "interpolation": 0}, {"handle_right": {"X": 0.5, "Y": 0.0}, "handle_type": 0, "handle_left": {"X": 0.5, "Y": 1.0}, "co": {"X": 73.0, "Y": 1.0}, "interpolation": 0}]}, "scale": 1, "time": {"Points": [{"interpolation": 2, "co": {"Y": 1.0, "X": 1.0}}]}, "start": 0, "end": 59, "crop_width": {"Points": [{"interpolation": 2, "co": {"Y": -1.0, "X": 1.0}}]}, "scale_x": {"Points": [{"interpolation": 2, "co": {"Y": 1.0, "X": 1.0}}, {"interpolation": 1, "co": {"Y": 1.899999976158142, "X": 192}}]}, "image": "/home/milind/.openshot_qt/thumbnail/IV7EF51HD1.png", "id": "XNSK4PWD2F", "title": "07-Entered Record of 10 students.mkv", "shear_x": {"Points": [{"interpolation": 2, "co": {"Y": 0.0, "X": 1.0}}]}, "duration": 59.0, "perspective_c3_y": {"Points": [{"interpolation": 2, "co": {"Y": -1.0, "X": 1.0}}]}, "perspective_c2_y": {"Points": [{"interpolation": 2, "co": {"Y": -1.0, "X": 1.0}}]}, "reader": {"has_audio": false, "pixel_ratio": {"den": 1, "num": 1}, "video_length": "1475", "audio_bit_rate": 0, "interlaced_frame": false, "fps": {"den": 1, "num": 25}, "video_stream_index": 0, "video_bit_rate": 0, "display_ratio": {"den": 384, "num": 683}, "path": "/home/milind/Data/Projects/ProgressCard/Clips/07-Entered Record of 10 students.mkv", "channels": 0, "pixel_format": 0, "width": 1366, "sample_rate": 0, "audio_stream_index": -1, "duration": 59.0, "top_field_first": true, "channel_layout": 4, "video_timebase": {"den": 1000, "num": 1}, "type": "FFmpegReader", "has_single_image": false, "vcodec": "h264", "has_video": true, "acodec": "", "height": 768, "audio_timebase": {"den": 1, "num": 1}, "file_size": "595628"}, "perspective_c1_y": {"Points": [{"interpolation": 2, "co": {"Y": -1.0, "X": 1.0}}]}, "crop_height": {"Points": [{"interpolation": 2, "co": {"Y": -1.0, "X": 1.0}}]}, "effects": [], "waveform": false, "perspective_c1_x": {"Points": [{"interpolation": 2, "co": {"Y": -1.0, "X": 1.0}}]}, "perspective_c4_y": {"Points": [{"interpolation": 2, "co": {"Y": -1.0, "X": 1.0}}]}, "crop_x": {"Points": [{"interpolation": 2, "co": {"Y": 0.0, "X": 1.0}}]}, "channel_mapping": {"Points": [{"interpolation": 2, "co": {"Y": -1.0, "X": 1.0}}]}, "crop_y": {"Points": [{"interpolation": 2, "co": {"Y": 0.0, "X": 1.0}}]}, "display": 0, "anchor": 0, "perspective_c2_x": {"Points": [{"interpolation": 2, "co": {"Y": -1.0, "X": 1.0}}]}, "shear_y": {"Points": [{"interpolation": 2, "co": {"Y": 0.0, "X": 1.0}}]}, "scale_y": {"Points": [{"interpolation": 2, "co": {"Y": 1.0, "X": 1.0}}, {"interpolation": 1, "co": {"Y": 1.899999976158142, "X": 192}}]}}, "partial": false}, {"key": ["clips", {"id": "FBMFTB0HC9"}], "type": "update", "value": {"has_audio": {"Points": [{"interpolation": 2, "co": {"X": 1.0, "Y": -1.0}}]}, "position": 0, "rotation": {"Points": [{"interpolation": 2, "co": {"X": 1.0, "Y": 0.0}}]}, "location_x": {"Points": [{"interpolation": 2, "co": {"X": 1.0, "Y": 0.0}}]}, "file_id": "9DMFO1XFX6", "channel_filter": {"Points": [{"interpolation": 2, "co": {"X": 1.0, "Y": -1.0}}]}, "gravity": 4, "perspective_c4_x": {"Points": [{"interpolation": 2, "co": {"X": 1.0, "Y": -1.0}}]}, "layer": 3, "wave_color": {"green": {"Points": [{"handle_right": {"X": 0.5, "Y": 0.0}, "handle_type": 0, "handle_left": {"X": 0.5, "Y": 1.0}, "co": {"X": 1.0, "Y": 123.0}, "interpolation": 0}]}, "red": {"Points": [{"handle_right": {"X": 0.5, "Y": 0.0}, "handle_type": 0, "handle_left": {"X": 0.5, "Y": 1.0}, "co": {"X": 1.0, "Y": 0.0}, "interpolation": 0}]}, "blue": {"Points": [{"handle_right": {"X": 0.5, "Y": 0.0}, "handle_type": 0, "handle_left": {"X": 0.5, "Y": 1.0}, "co": {"X": 1.0, "Y": 255.0}, "interpolation": 0}]}, "alpha": {"Points": [{"handle_right": {"X": 0.5, "Y": 0.0}, "handle_type": 0, "handle_left": {"X": 0.5, "Y": 1.0}, "co": {"X": 1.0, "Y": 255.0}, "interpolation": 0}]}}, "volume": {"Points": [{"interpolation": 2, "co": {"X": 1.0, "Y": 1.0}}]}, "has_video": {"Points": [{"interpolation": 2, "co": {"X": 1.0, "Y": -1.0}}]}, "location_y": {"Points": [{"interpolation": 2, "co": {"X": 1.0, "Y": 0.0}}]}, "perspective_c2_y": {"Points": [{"interpolation": 2, "co": {"X": 1.0, "Y": -1.0}}]}, "scale": 1, "time": {"Points": [{"interpolation": 2, "co": {"X": 1.0, "Y": 1.0}}]}, "start": 0, "end": 10, "crop_width": {"Points": [{"interpolation": 2, "co": {"X": 1.0, "Y": -1.0}}]}, "scale_x": {"Points": [{"interpolation": 2, "co": {"X": 1.0, "Y": 1.0}}]}, "image": "/home/milind/.openshot_qt/thumbnail/9DMFO1XFX6.png", "id": "FBMFTB0HC9", "title": "06-Slide-Create Students Record In Libre Calc.svg", "shear_x": {"Points": [{"interpolation": 2, "co": {"X": 1.0, "Y": 0.0}}]}, "duration": 86400.0, "perspective_c3_y": {"Points": [{"interpolation": 2, "co": {"X": 1.0, "Y": -1.0}}]}, "crop_y": {"Points": [{"interpolation": 2, "co": {"X": 1.0, "Y": 0.0}}]}, "perspective_c3_x": {"Points": [{"interpolation": 2, "co": {"X": 1.0, "Y": -1.0}}]}, "perspective_c1_y": {"Points": [{"interpolation": 2, "co": {"X": 1.0, "Y": -1.0}}]}, "crop_height": {"Points": [{"interpolation": 2, "co": {"X": 1.0, "Y": -1.0}}]}, "effects": [], "waveform": false, "perspective_c1_x": {"Points": [{"interpolation": 2, "co": {"X": 1.0, "Y": -1.0}}]}, "perspective_c4_y": {"Points": [{"interpolation": 2, "co": {"X": 1.0, "Y": -1.0}}]}, "crop_x": {"Points": [{"interpolation": 2, "co": {"X": 1.0, "Y": 0.0}}]}, "channel_mapping": {"Points": [{"interpolation": 2, "co": {"X": 1.0, "Y": -1.0}}]}, "alpha": {"Points": [{"interpolation": 2, "co": {"X": 1.0, "Y": 1.0}}, {"handle_right": {"X": 0.5, "Y": 0.0}, "handle_type": 0, "handle_left": {"X": 0.5, "Y": 1.0}, "co": {"X": 1.0, "Y": 0.0}, "interpolation": 0}, {"handle_right": {"X": 0.5, "Y": 0.0}, "handle_type": 0, "handle_left": {"X": 0.5, "Y": 1.0}, "co": {"X": 73.0, "Y": 1.0}, "interpolation": 0}, {"handle_right": {"X": 0.5, "Y": 0.0}, "handle_type": 0, "handle_left": {"X": 0.5, "Y": 1.0}, "co": {"X": 169.0, "Y": 1.0}, "interpolation": 0}, {"handle_right": {"X": 0.5, "Y": 0.0}, "handle_type": 0, "handle_left": {"X": 0.5, "Y": 1.0}, "co": {"X": 241.0, "Y": 0.0}, "interpolation": 0}]}, "display": 0, "anchor": 0, "perspective_c2_x": {"Points": [{"interpolation": 2, "co": {"X": 1.0, "Y": -1.0}}]}, "shear_y": {"Points": [{"interpolation": 2, "co": {"X": 1.0, "Y": 0.0}}]}, "scale_y": {"Points": [{"interpolation": 2, "co": {"X": 1.0, "Y": 1.0}}]}}, "old_values": {"has_audio": {"Points": [{"interpolation": 2, "co": {"X": 1.0, "Y": -1.0}}]}, "position": 0, "rotation": {"Points": [{"interpolation": 2, "co": {"X": 1.0, "Y": 0.0}}]}, "location_x": {"Points": [{"interpolation": 2, "co": {"X": 1.0, "Y": 0.0}}]}, "file_id": "9DMFO1XFX6", "channel_filter": {"Points": [{"interpolation": 2, "co": {"X": 1.0, "Y": -1.0}}]}, "gravity": 4, "perspective_c4_x": {"Points": [{"interpolation": 2, "co": {"X": 1.0, "Y": -1.0}}]}, "layer": 3, "wave_color": {"green": {"Points": [{"handle_right": {"X": 0.5, "Y": 0.0}, "handle_type": 0, "handle_left": {"X": 0.5, "Y": 1.0}, "co": {"X": 1.0, "Y": 123.0}, "interpolation": 0}]}, "red": {"Points": [{"handle_right": {"X": 0.5, "Y": 0.0}, "handle_type": 0, "handle_left": {"X": 0.5, "Y": 1.0}, "co": {"X": 1.0, "Y": 0.0}, "interpolation": 0}]}, "blue": {"Points": [{"handle_right": {"X": 0.5, "Y": 0.0}, "handle_type": 0, "handle_left": {"X": 0.5, "Y": 1.0}, "co": {"X": 1.0, "Y": 255.0}, "interpolation": 0}]}, "alpha": {"Points": [{"handle_right": {"X": 0.5, "Y": 0.0}, "handle_type": 0, "handle_left": {"X": 0.5, "Y": 1.0}, "co": {"X": 1.0, "Y": 255.0}, "interpolation": 0}]}}, "volume": {"Points": [{"interpolation": 2, "co": {"X": 1.0, "Y": 1.0}}]}, "perspective_c3_x": {"Points": [{"interpolation": 2, "co": {"X": 1.0, "Y": -1.0}}]}, "has_video": {"Points": [{"interpolation": 2, "co": {"X": 1.0, "Y": -1.0}}]}, "location_y": {"Points": [{"interpolation": 2, "co": {"X": 1.0, "Y": 0.0}}]}, "perspective_c2_y": {"Points": [{"interpolation": 2, "co": {"X": 1.0, "Y": -1.0}}]}, "scale": 1, "time": {"Points": [{"interpolation": 2, "co": {"X": 1.0, "Y": 1.0}}]}, "start": 0, "end": 10, "crop_width": {"Points": [{"interpolation": 2, "co": {"X": 1.0, "Y": -1.0}}]}, "scale_x": {"Points": [{"interpolation": 2, "co": {"X": 1.0, "Y": 1.0}}]}, "image": "/home/milind/.openshot_qt/thumbnail/9DMFO1XFX6.png", "id": "FBMFTB0HC9", "title": "06-Slide-Create Students Record In Libre Calc.svg", "shear_x": {"Points": [{"interpolation": 2, "co": {"X": 1.0, "Y": 0.0}}]}, "duration": 86400.0, "perspective_c3_y": {"Points": [{"interpolation": 2, "co": {"X": 1.0, "Y": -1.0}}]}, "crop_y": {"Points": [{"interpolation": 2, "co": {"X": 1.0, "Y": 0.0}}]}, "reader": {"has_audio": false, "pixel_ratio": {"den": 1, "num": 1}, "video_length": "2592000", "interlaced_frame": false, "audio_bit_rate": 0, "height": 3827, "fps": {"den": 1, "num": 30}, "video_stream_index": -1, "video_bit_rate": 0, "display_ratio": {"den": 3827, "num": 6803}, "path": "/home/milind/Data/Projects/ProgressCard/Images/06-Slide-Create Students Record In Libre Calc.svg", "has_single_image": true, "pixel_format": -1, "width": 6803, "sample_rate": 0, "audio_stream_index": -1, "duration": 86400.0, "type": "QtImageReader", "channel_layout": 4, "video_timebase": {"den": 30, "num": 1}, "top_field_first": true, "acodec": "", "vcodec": "", "has_video": true, "channels": 0, "audio_timebase": {"den": 1, "num": 1}, "file_size": "104140324"}, "perspective_c1_y": {"Points": [{"interpolation": 2, "co": {"X": 1.0, "Y": -1.0}}]}, "crop_height": {"Points": [{"interpolation": 2, "co": {"X": 1.0, "Y": -1.0}}]}, "effects": [], "waveform": false, "perspective_c1_x": {"Points": [{"interpolation": 2, "co": {"X": 1.0, "Y": -1.0}}]}, "perspective_c4_y": {"Points": [{"interpolation": 2, "co": {"X": 1.0, "Y": -1.0}}]}, "crop_x": {"Points": [{"interpolation": 2, "co": {"X": 1.0, "Y": 0.0}}]}, "channel_mapping": {"Points": [{"interpolation": 2, "co": {"X": 1.0, "Y": -1.0}}]}, "alpha": {"Points": [{"interpolation": 2, "co": {"X": 1.0, "Y": 1.0}}, {"handle_right": {"X": 0.5, "Y": 0.0}, "handle_type": 0, "handle_left": {"X": 0.5, "Y": 1.0}, "co": {"X": 1.0, "Y": 0.0}, "interpolation": 0}, {"handle_right": {"X": 0.5, "Y": 0.0}, "handle_type": 0, "handle_left": {"X": 0.5, "Y": 1.0}, "co": {"X": 73.0, "Y": 1.0}, "interpolation": 0}]}, "display": 0, "anchor": 0, "perspective_c2_x": {"Points": [{"interpolation": 2, "co": {"X": 1.0, "Y": -1.0}}]}, "shear_y": {"Points": [{"interpolation": 2, "co": {"X": 1.0, "Y": 0.0}}]}, "scale_y": {"Points": [{"interpolation": 2, "co": {"X": 1.0, "Y": 1.0}}]}}, "partial": false}, {"key": ["clips", {"id": "H0YV894FP9"}], "type": "update", "value": {"has_audio": {"Points": [{"interpolation": 2, "co": {"X": 1.0, "Y": -1.0}}]}, "position": 10, "rotation": {"Points": [{"interpolation": 2, "co": {"X": 1.0, "Y": 0.0}}]}, "location_x": {"Points": [{"interpolation": 2, "co": {"X": 1.0, "Y": 0.0}}]}, "file_id": "OE5TV4582C", "channel_filter": {"Points": [{"interpolation": 2, "co": {"X": 1.0, "Y": -1.0}}]}, "gravity": 4, "perspective_c4_x": {"Points": [{"interpolation": 2, "co": {"X": 1.0, "Y": -1.0}}]}, "layer": 3, "wave_color": {"alpha": {"Points": [{"handle_right": {"X": 0.5, "Y": 0.0}, "handle_type": 0, "handle_left": {"X": 0.5, "Y": 1.0}, "co": {"X": 1.0, "Y": 255.0}, "interpolation": 0}]}, "red": {"Points": [{"handle_right": {"X": 0.5, "Y": 0.0}, "handle_type": 0, "handle_left": {"X": 0.5, "Y": 1.0}, "co": {"X": 1.0, "Y": 0.0}, "interpolation": 0}]}, "blue": {"Points": [{"handle_right": {"X": 0.5, "Y": 0.0}, "handle_type": 0, "handle_left": {"X": 0.5, "Y": 1.0}, "co": {"X": 1.0, "Y": 255.0}, "interpolation": 0}]}, "green": {"Points": [{"handle_right": {"X": 0.5, "Y": 0.0}, "handle_type": 0, "handle_left": {"X": 0.5, "Y": 1.0}, "co": {"X": 1.0, "Y": 123.0}, "interpolation": 0}]}}, "volume": {"Points": [{"interpolation": 2, "co": {"X": 1.0, "Y": 1.0}}]}, "has_video": {"Points": [{"interpolation": 2, "co": {"X": 1.0, "Y": -1.0}}]}, "location_y": {"Points": [{"interpolation": 2, "co": {"X": 1.0, "Y": 0.0}}]}, "perspective_c2_y": {"Points": [{"interpolation": 2, "co": {"X": 1.0, "Y": -1.0}}]}, "scale": 1, "time": {"Points": [{"interpolation": 2, "co": {"X": 1.0, "Y": 1.0}}]}, "start": 0, "end": 10, "crop_width": {"Points": [{"interpolation": 2, "co": {"X": 1.0, "Y": -1.0}}]}, "scale_x": {"Points": [{"interpolation": 2, "co": {"X": 1.0, "Y": 1.0}}]}, "image": "/home/milind/.openshot_qt/thumbnail/OE5TV4582C.png", "id": "H0YV894FP9", "title": "07-Slide -Open Libre Calc.svg", "shear_x": {"Points": [{"interpolation": 2, "co": {"X": 1.0, "Y": 0.0}}]}, "duration": 86400.0, "perspective_c3_y": {"Points": [{"interpolation": 2, "co": {"X": 1.0, "Y": -1.0}}]}, "crop_y": {"Points": [{"interpolation": 2, "co": {"X": 1.0, "Y": 0.0}}]}, "perspective_c3_x": {"Points": [{"interpolation": 2, "co": {"X": 1.0, "Y": -1.0}}]}, "perspective_c1_y": {"Points": [{"interpolation": 2, "co": {"X": 1.0, "Y": -1.0}}]}, "crop_height": {"Points": [{"interpolation": 2, "co": {"X": 1.0, "Y": -1.0}}]}, "effects": [], "waveform": false, "perspective_c1_x": {"Points": [{"interpolation": 2, "co": {"X": 1.0, "Y": -1.0}}]}, "perspective_c4_y": {"Points": [{"interpolation": 2, "co": {"X": 1.0, "Y": -1.0}}]}, "crop_x": {"Points": [{"interpolation": 2, "co": {"X": 1.0, "Y": 0.0}}]}, "channel_mapping": {"Points": [{"interpolation": 2, "co": {"X": 1.0, "Y": -1.0}}]}, "alpha": {"Points": [{"interpolation": 2, "co": {"X": 1.0, "Y": 1.0}}, {"handle_right": {"X": 0.5, "Y": 0.0}, "handle_type": 0, "handle_left": {"X": 0.5, "Y": 1.0}, "co": {"X": 1.0, "Y": 0.0}, "interpolation": 0}, {"handle_right": {"X": 0.5, "Y": 0.0}, "handle_type": 0, "handle_left": {"X": 0.5, "Y": 1.0}, "co": {"X": 73.0, "Y": 1.0}, "interpolation": 0}]}, "display": 0, "anchor": 0, "perspective_c2_x": {"Points": [{"interpolation": 2, "co": {"X": 1.0, "Y": -1.0}}]}, "shear_y": {"Points": [{"interpolation": 2, "co": {"X": 1.0, "Y": 0.0}}]}, "scale_y": {"Points": [{"interpolation": 2, "co": {"X": 1.0, "Y": 1.0}}]}}, "old_values": {"has_audio": {"Points": [{"interpolation": 2, "co": {"X": 1.0, "Y": -1.0}}]}, "position": 10, "rotation": {"Points": [{"interpolation": 2, "co": {"X": 1.0, "Y": 0.0}}]}, "location_x": {"Points": [{"interpolation": 2, "co": {"X": 1.0, "Y": 0.0}}]}, "file_id": "OE5TV4582C", "channel_filter": {"Points": [{"interpolation": 2, "co": {"X": 1.0, "Y": -1.0}}]}, "gravity": 4, "perspective_c4_x": {"Points": [{"interpolation": 2, "co": {"X": 1.0, "Y": -1.0}}]}, "layer": 3, "wave_color": {"alpha": {"Points": [{"handle_right": {"X": 0.5, "Y": 0.0}, "handle_type": 0, "handle_left": {"X": 0.5, "Y": 1.0}, "co": {"X": 1.0, "Y": 255.0}, "interpolation": 0}]}, "red": {"Points": [{"handle_right": {"X": 0.5, "Y": 0.0}, "handle_type": 0, "handle_left": {"X": 0.5, "Y": 1.0}, "co": {"X": 1.0, "Y": 0.0}, "interpolation": 0}]}, "blue": {"Points": [{"handle_right": {"X": 0.5, "Y": 0.0}, "handle_type": 0, "handle_left": {"X": 0.5, "Y": 1.0}, "co": {"X": 1.0, "Y": 255.0}, "interpolation": 0}]}, "green": {"Points": [{"handle_right": {"X": 0.5, "Y": 0.0}, "handle_type": 0, "handle_left": {"X": 0.5, "Y": 1.0}, "co": {"X": 1.0, "Y": 123.0}, "interpolation": 0}]}}, "volume": {"Points": [{"interpolation": 2, "co": {"X": 1.0, "Y": 1.0}}]}, "perspective_c3_x": {"Points": [{"interpolation": 2, "co": {"X": 1.0, "Y": -1.0}}]}, "has_video": {"Points": [{"interpolation": 2, "co": {"X": 1.0, "Y": -1.0}}]}, "location_y": {"Points": [{"interpolation": 2, "co": {"X": 1.0, "Y": 0.0}}]}, "perspective_c2_y": {"Points": [{"interpolation": 2, "co": {"X": 1.0, "Y": -1.0}}]}, "scale": 1, "time": {"Points": [{"interpolation": 2, "co": {"X": 1.0, "Y": 1.0}}]}, "start": 0, "end": 10, "crop_width": {"Points": [{"interpolation": 2, "co": {"X": 1.0, "Y": -1.0}}]}, "scale_x": {"Points": [{"interpolation": 2, "co": {"X": 1.0, "Y": 1.0}}]}, "image": "/home/milind/.openshot_qt/thumbnail/OE5TV4582C.png", "id": "H0YV894FP9", "title": "07-Slide -Open Libre Calc.svg", "shear_x": {"Points": [{"interpolation": 2, "co": {"X": 1.0, "Y": 0.0}}]}, "duration": 86400.0, "perspective_c3_y": {"Points": [{"interpolation": 2, "co": {"X": 1.0, "Y": -1.0}}]}, "crop_y": {"Points": [{"interpolation": 2, "co": {"X": 1.0, "Y": 0.0}}]}, "reader": {"has_audio": false, "pixel_ratio": {"den": 1, "num": 1}, "video_length": "2592000", "interlaced_frame": false, "audio_bit_rate": 0, "height": 3827, "fps": {"den": 1, "num": 30}, "video_stream_index": -1, "video_bit_rate": 0, "display_ratio": {"den": 3827, "num": 6803}, "path": "/home/milind/Data/Projects/ProgressCard/Images/07-Slide -Open Libre Calc.svg", "has_single_image": true, "pixel_format": -1, "width": 6803, "sample_rate": 0, "audio_stream_index": -1, "duration": 86400.0, "type": "QtImageReader", "channel_layout": 4, "video_timebase": {"den": 30, "num": 1}, "top_field_first": true, "acodec": "", "vcodec": "", "has_video": true, "channels": 0, "audio_timebase": {"den": 1, "num": 1}, "file_size": "104140324"}, "perspective_c1_y": {"Points": [{"interpolation": 2, "co": {"X": 1.0, "Y": -1.0}}]}, "crop_height": {"Points": [{"interpolation": 2, "co": {"X": 1.0, "Y": -1.0}}]}, "effects": [], "waveform": false, "perspective_c1_x": {"Points": [{"interpolation": 2, "co": {"X": 1.0, "Y": -1.0}}]}, "perspective_c4_y": {"Points": [{"interpolation": 2, "co": {"X": 1.0, "Y": -1.0}}]}, "crop_x": {"Points": [{"interpolation": 2, "co": {"X": 1.0, "Y": 0.0}}]}, "channel_mapping": {"Points": [{"interpolation": 2, "co": {"X": 1.0, "Y": -1.0}}]}, "alpha": {"Points": [{"interpolation": 2, "co": {"X": 1.0, "Y": 1.0}}]}, "display": 0, "anchor": 0, "perspective_c2_x": {"Points": [{"interpolation": 2, "co": {"X": 1.0, "Y": -1.0}}]}, "shear_y": {"Points": [{"interpolation": 2, "co": {"X": 1.0, "Y": 0.0}}]}, "scale_y": {"Points": [{"interpolation": 2, "co": {"X": 1.0, "Y": 1.0}}]}}, "partial": false}, {"key": ["clips", {"id": "H0YV894FP9"}], "type": "update", "value": {"has_audio": {"Points": [{"interpolation": 2, "co": {"X": 1.0, "Y": -1.0}}]}, "position": 10, "rotation": {"Points": [{"interpolation": 2, "co": {"X": 1.0, "Y": 0.0}}]}, "location_x": {"Points": [{"interpolation": 2, "co": {"X": 1.0, "Y": 0.0}}]}, "file_id": "OE5TV4582C", "channel_filter": {"Points": [{"interpolation": 2, "co": {"X": 1.0, "Y": -1.0}}]}, "gravity": 4, "perspective_c4_x": {"Points": [{"interpolation": 2, "co": {"X": 1.0, "Y": -1.0}}]}, "layer": 3, "wave_color": {"green": {"Points": [{"handle_right": {"X": 0.5, "Y": 0.0}, "handle_type": 0, "handle_left": {"X": 0.5, "Y": 1.0}, "co": {"X": 1.0, "Y": 123.0}, "interpolation": 0}]}, "red": {"Points": [{"handle_right": {"X": 0.5, "Y": 0.0}, "handle_type": 0, "handle_left": {"X": 0.5, "Y": 1.0}, "co": {"X": 1.0, "Y": 0.0}, "interpolation": 0}]}, "blue": {"Points": [{"handle_right": {"X": 0.5, "Y": 0.0}, "handle_type": 0, "handle_left": {"X": 0.5, "Y": 1.0}, "co": {"X": 1.0, "Y": 255.0}, "interpolation": 0}]}, "alpha": {"Points": [{"handle_right": {"X": 0.5, "Y": 0.0}, "handle_type": 0, "handle_left": {"X": 0.5, "Y": 1.0}, "co": {"X": 1.0, "Y": 255.0}, "interpolation": 0}]}}, "volume": {"Points": [{"interpolation": 2, "co": {"X": 1.0, "Y": 1.0}}]}, "has_video": {"Points": [{"interpolation": 2, "co": {"X": 1.0, "Y": -1.0}}]}, "location_y": {"Points": [{"interpolation": 2, "co": {"X": 1.0, "Y": 0.0}}]}, "perspective_c2_y": {"Points": [{"interpolation": 2, "co": {"X": 1.0, "Y": -1.0}}]}, "scale": 1, "time": {"Points": [{"interpolation": 2, "co": {"X": 1.0, "Y": 1.0}}]}, "start": 0, "end": 10, "crop_width": {"Points": [{"interpolation": 2, "co": {"X": 1.0, "Y": -1.0}}]}, "scale_x": {"Points": [{"interpolation": 2, "co": {"X": 1.0, "Y": 1.0}}]}, "image": "/home/milind/.openshot_qt/thumbnail/OE5TV4582C.png", "id": "H0YV894FP9", "title": "07-Slide -Open Libre Calc.svg", "shear_x": {"Points": [{"interpolation": 2, "co": {"X": 1.0, "Y": 0.0}}]}, "duration": 86400.0, "perspective_c3_y": {"Points": [{"interpolation": 2, "co": {"X": 1.0, "Y": -1.0}}]}, "crop_y": {"Points": [{"interpolation": 2, "co": {"X": 1.0, "Y": 0.0}}]}, "perspective_c3_x": {"Points": [{"interpolation": 2, "co": {"X": 1.0, "Y": -1.0}}]}, "perspective_c1_y": {"Points": [{"interpolation": 2, "co": {"X": 1.0, "Y": -1.0}}]}, "crop_height": {"Points": [{"interpolation": 2, "co": {"X": 1.0, "Y": -1.0}}]}, "effects": [], "waveform": false, "perspective_c1_x": {"Points": [{"interpolation": 2, "co": {"X": 1.0, "Y": -1.0}}]}, "perspective_c4_y": {"Points": [{"interpolation": 2, "co": {"X": 1.0, "Y": -1.0}}]}, "crop_x": {"Points": [{"interpolation": 2, "co": {"X": 1.0, "Y": 0.0}}]}, "channel_mapping": {"Points": [{"interpolation": 2, "co": {"X": 1.0, "Y": -1.0}}]}, "alpha": {"Points": [{"interpolation": 2, "co": {"X": 1.0, "Y": 1.0}}, {"handle_right": {"X": 0.5, "Y": 0.0}, "handle_type": 0, "handle_left": {"X": 0.5, "Y": 1.0}, "co": {"X": 1.0, "Y": 0.0}, "interpolation": 0}, {"handle_right": {"X": 0.5, "Y": 0.0}, "handle_type": 0, "handle_left": {"X": 0.5, "Y": 1.0}, "co": {"X": 73.0, "Y": 1.0}, "interpolation": 0}, {"handle_right": {"X": 0.5, "Y": 0.0}, "handle_type": 0, "handle_left": {"X": 0.5, "Y": 1.0}, "co": {"X": 169.0, "Y": 1.0}, "interpolation": 0}, {"handle_right": {"X": 0.5, "Y": 0.0}, "handle_type": 0, "handle_left": {"X": 0.5, "Y": 1.0}, "co": {"X": 241.0, "Y": 0.0}, "interpolation": 0}]}, "display": 0, "anchor": 0, "perspective_c2_x": {"Points": [{"interpolation": 2, "co": {"X": 1.0, "Y": -1.0}}]}, "shear_y": {"Points": [{"interpolation": 2, "co": {"X": 1.0, "Y": 0.0}}]}, "scale_y": {"Points": [{"interpolation": 2, "co": {"X": 1.0, "Y": 1.0}}]}}, "old_values": {"has_audio": {"Points": [{"interpolation": 2, "co": {"X": 1.0, "Y": -1.0}}]}, "position": 10, "rotation": {"Points": [{"interpolation": 2, "co": {"X": 1.0, "Y": 0.0}}]}, "location_x": {"Points": [{"interpolation": 2, "co": {"X": 1.0, "Y": 0.0}}]}, "file_id": "OE5TV4582C", "channel_filter": {"Points": [{"interpolation": 2, "co": {"X": 1.0, "Y": -1.0}}]}, "gravity": 4, "perspective_c4_x": {"Points": [{"interpolation": 2, "co": {"X": 1.0, "Y": -1.0}}]}, "layer": 3, "wave_color": {"green": {"Points": [{"handle_right": {"X": 0.5, "Y": 0.0}, "handle_type": 0, "handle_left": {"X": 0.5, "Y": 1.0}, "co": {"X": 1.0, "Y": 123.0}, "interpolation": 0}]}, "red": {"Points": [{"handle_right": {"X": 0.5, "Y": 0.0}, "handle_type": 0, "handle_left": {"X": 0.5, "Y": 1.0}, "co": {"X": 1.0, "Y": 0.0}, "interpolation": 0}]}, "blue": {"Points": [{"handle_right": {"X": 0.5, "Y": 0.0}, "handle_type": 0, "handle_left": {"X": 0.5, "Y": 1.0}, "co": {"X": 1.0, "Y": 255.0}, "interpolation": 0}]}, "alpha": {"Points": [{"handle_right": {"X": 0.5, "Y": 0.0}, "handle_type": 0, "handle_left": {"X": 0.5, "Y": 1.0}, "co": {"X": 1.0, "Y": 255.0}, "interpolation": 0}]}}, "volume": {"Points": [{"interpolation": 2, "co": {"X": 1.0, "Y": 1.0}}]}, "perspective_c3_x": {"Points": [{"interpolation": 2, "co": {"X": 1.0, "Y": -1.0}}]}, "has_video": {"Points": [{"interpolation": 2, "co": {"X": 1.0, "Y": -1.0}}]}, "location_y": {"Points": [{"interpolation": 2, "co": {"X": 1.0, "Y": 0.0}}]}, "perspective_c2_y": {"Points": [{"interpolation": 2, "co": {"X": 1.0, "Y": -1.0}}]}, "scale": 1, "time": {"Points": [{"interpolation": 2, "co": {"X": 1.0, "Y": 1.0}}]}, "start": 0, "end": 10, "crop_width": {"Points": [{"interpolation": 2, "co": {"X": 1.0, "Y": -1.0}}]}, "scale_x": {"Points": [{"interpolation": 2, "co": {"X": 1.0, "Y": 1.0}}]}, "image": "/home/milind/.openshot_qt/thumbnail/OE5TV4582C.png", "id": "H0YV894FP9", "title": "07-Slide -Open Libre Calc.svg", "shear_x": {"Points": [{"interpolation": 2, "co": {"X": 1.0, "Y": 0.0}}]}, "duration": 86400.0, "perspective_c3_y": {"Points": [{"interpolation": 2, "co": {"X": 1.0, "Y": -1.0}}]}, "crop_y": {"Points": [{"interpolation": 2, "co": {"X": 1.0, "Y": 0.0}}]}, "reader": {"has_audio": false, "pixel_ratio": {"den": 1, "num": 1}, "video_length": "2592000", "interlaced_frame": false, "audio_bit_rate": 0, "height": 3827, "fps": {"den": 1, "num": 30}, "video_stream_index": -1, "video_bit_rate": 0, "display_ratio": {"den": 3827, "num": 6803}, "path": "/home/milind/Data/Projects/ProgressCard/Images/07-Slide -Open Libre Calc.svg", "has_single_image": true, "pixel_format": -1, "width": 6803, "sample_rate": 0, "audio_stream_index": -1, "duration": 86400.0, "type": "QtImageReader", "channel_layout": 4, "video_timebase": {"den": 30, "num": 1}, "top_field_first": true, "acodec": "", "vcodec": "", "has_video": true, "channels": 0, "audio_timebase": {"den": 1, "num": 1}, "file_size": "104140324"}, "perspective_c1_y": {"Points": [{"interpolation": 2, "co": {"X": 1.0, "Y": -1.0}}]}, "crop_height": {"Points": [{"interpolation": 2, "co": {"X": 1.0, "Y": -1.0}}]}, "effects": [], "waveform": false, "perspective_c1_x": {"Points": [{"interpolation": 2, "co": {"X": 1.0, "Y": -1.0}}]}, "perspective_c4_y": {"Points": [{"interpolation": 2, "co": {"X": 1.0, "Y": -1.0}}]}, "crop_x": {"Points": [{"interpolation": 2, "co": {"X": 1.0, "Y": 0.0}}]}, "channel_mapping": {"Points": [{"interpolation": 2, "co": {"X": 1.0, "Y": -1.0}}]}, "alpha": {"Points": [{"interpolation": 2, "co": {"X": 1.0, "Y": 1.0}}, {"handle_right": {"X": 0.5, "Y": 0.0}, "handle_type": 0, "handle_left": {"X": 0.5, "Y": 1.0}, "co": {"X": 1.0, "Y": 0.0}, "interpolation": 0}, {"handle_right": {"X": 0.5, "Y": 0.0}, "handle_type": 0, "handle_left": {"X": 0.5, "Y": 1.0}, "co": {"X": 73.0, "Y": 1.0}, "interpolation": 0}]}, "display": 0, "anchor": 0, "perspective_c2_x": {"Points": [{"interpolation": 2, "co": {"X": 1.0, "Y": -1.0}}]}, "shear_y": {"Points": [{"interpolation": 2, "co": {"X": 1.0, "Y": 0.0}}]}, "scale_y": {"Points": [{"interpolation": 2, "co": {"X": 1.0, "Y": 1.0}}]}}, "partial": false}]}, "files": [{"has_audio": false, "pixel_ratio": {"den": 1, "num": 1}, "video_length": "2592000", "interlaced_frame": false, "audio_bit_rate": 0, "height": 1080, "fps": {"den": 1, "num": 30}, "video_stream_index": -1, "video_bit_rate": 0, "display_ratio": {"den": 9, "num": 16}, "path": "Images/01-White-Background.svg", "media_type": "image", "id": "H51D80S6SD", "pixel_format": -1, "width": 1920, "sample_rate": 0, "audio_stream_index": -1, "duration": 86400.0, "type": "QtImageReader", "channel_layout": 4, "acodec": "", "video_timebase": {"den": 30, "num": 1}, "top_field_first": true, "has_single_image": true, "vcodec": "", "has_video": true, "channels": 0, "audio_timebase": {"den": 1, "num": 1}, "file_size": "8294400"}, {"has_audio": false, "pixel_ratio": {"den": 1, "num": 1}, "video_length": "1475", "interlaced_frame": false, "audio_bit_rate": 0, "height": 768, "fps": {"den": 1, "num": 25}, "video_stream_index": 0, "video_bit_rate": 0, "display_ratio": {"den": 384, "num": 683}, "path": "Clips/07-Entered Record of 10 students.mkv", "media_type": "video", "id": "J4ML763TY0", "pixel_format": 0, "width": 1366, "sample_rate": 0, "audio_stream_index": -1, "duration": 59.0, "type": "FFmpegReader", "channel_layout": 4, "acodec": "", "video_timebase": {"den": 1000, "num": 1}, "top_field_first": true, "has_single_image": false, "vcodec": "h264", "has_video": true, "channels": 0, "audio_timebase": {"den": 1, "num": 1}, "file_size": "595628"}, {"has_audio": false, "pixel_ratio": {"den": 1, "num": 1}, "video_length": "2592000", "interlaced_frame": false, "audio_bit_rate": 0, "height": 3827, "fps": {"den": 1, "num": 30}, "video_stream_index": -1, "video_bit_rate": 0, "display_ratio": {"den": 3827, "num": 6803}, "path": "Images/06-Slide-Create Students Record In Libre Calc.svg", "media_type": "image", "id": "9DMFO1XFX6", "pixel_format": -1, "width": 6803, "sample_rate": 0, "audio_stream_index": -1, "duration": 86400.0, "type": "QtImageReader", "channel_layout": 4, "acodec": "", "video_timebase": {"den": 30, "num": 1}, "top_field_first": true, "has_single_image": true, "vcodec": "", "has_video": true, "channels": 0, "audio_timebase": {"den": 1, "num": 1}, "file_size": "104140324"}, {"has_audio": false, "pixel_ratio": {"den": 1, "num": 1}, "video_length": "2592000", "interlaced_frame": false, "audio_bit_rate": 0, "height": 3827, "fps": {"den": 1, "num": 30}, "video_stream_index": -1, "video_bit_rate": 0, "display_ratio": {"den": 3827, "num": 6803}, "path": "Images/07-Slide -Open Libre Calc.svg", "media_type": "image", "id": "OE5TV4582C", "pixel_format": -1, "width": 6803, "sample_rate": 0, "audio_stream_index": -1, "duration": 86400.0, "type": "QtImageReader", "channel_layout": 4, "acodec": "", "video_timebase": {"den": 30, "num": 1}, "top_field_first": true, "has_single_image": true, "vcodec": "", "has_video": true, "channels": 0, "audio_timebase": {"den": 1, "num": 1}, "file_size": "104140324"}], "effects": [], "clips": [{"has_audio": {"Points": [{"interpolation": 2, "co": {"Y": -1.0, "X": 1.0}}]}, "perspective_c1_x": {"Points": [{"interpolation": 2, "co": {"Y": -1.0, "X": 1.0}}]}, "rotation": {"Points": [{"interpolation": 2, "co": {"Y": 0.0, "X": 1.0}}]}, "location_x": {"Points": [{"interpolation": 2, "co": {"Y": 0.0, "X": 1.0}}, {"interpolation": 1, "co": {"Y": 0.43511450381679384, "X": 192}}]}, "file_id": "IV7EF51HD1", "perspective_c1_y": {"Points": [{"interpolation": 2, "co": {"Y": -1.0, "X": 1.0}}]}, "perspective_c3_x": {"Points": [{"interpolation": 2, "co": {"Y": -1.0, "X": 1.0}}]}, "perspective_c4_x": {"Points": [{"interpolation": 2, "co": {"Y": -1.0, "X": 1.0}}]}, "volume": {"Points": [{"interpolation": 2, "co": {"Y": 1.0, "X": 1.0}}]}, "wave_color": {"alpha": {"Points": [{"handle_right": {"Y": 0.0, "X": 0.5}, "handle_type": 0, "handle_left": {"Y": 1.0, "X": 0.5}, "co": {"Y": 255.0, "X": 1.0}, "interpolation": 0}]}, "red": {"Points": [{"handle_right": {"Y": 0.0, "X": 0.5}, "handle_type": 0, "handle_left": {"Y": 1.0, "X": 0.5}, "co": {"Y": 0.0, "X": 1.0}, "interpolation": 0}]}, "blue": {"Points": [{"handle_right": {"Y": 0.0, "X": 0.5}, "handle_type": 0, "handle_left": {"Y": 1.0, "X": 0.5}, "co": {"Y": 255.0, "X": 1.0}, "interpolation": 0}]}, "green": {"Points": [{"handle_right": {"Y": 0.0, "X": 0.5}, "handle_type": 0, "handle_left": {"Y": 1.0, "X": 0.5}, "co": {"Y": 123.0, "X": 1.0}, "interpolation": 0}]}}, "layer": 5, "has_video": {"Points": [{"interpolation": 2, "co": {"Y": -1.0, "X": 1.0}}]}, "location_y": {"Points": [{"interpolation": 2, "co": {"Y": 0.0, "X": 1.0}}, {"interpolation": 1, "co": {"Y": 0.45038167938931295, "X": 192}}]}, "scale_x": {"Points": [{"interpolation": 2, "co": {"Y": 1.0, "X": 1.0}}, {"interpolation": 1, "co": {"Y": 1.899999976158142, "X": 192}}]}, "perspective_c2_x": {"Points": [{"interpolation": 2, "co": {"Y": -1.0, "X": 1.0}}]}, "scale": 1, "time": {"Points": [{"interpolation": 2, "co": {"Y": 1.0, "X": 1.0}}]}, "start": 0, "end": 59, "channel_mapping": {"Points": [{"interpolation": 2, "co": {"Y": -1.0, "X": 1.0}}]}, "crop_y": {"Points": [{"interpolation": 2, "co": {"Y": 0.0, "X": 1.0}}]}, "position": 125.0, "id": "GF97G5QV3C", "title": "07-Entered Record of 10 students.mkv", "shear_x": {"Points": [{"interpolation": 2, "co": {"Y": 0.0, "X": 1.0}}]}, "duration": 59.0, "perspective_c3_y": {"Points": [{"interpolation": 2, "co": {"Y": -1.0, "X": 1.0}}]}, "perspective_c2_y": {"Points": [{"interpolation": 2, "co": {"Y": -1.0, "X": 1.0}}]}, "reader": {"has_audio": false, "pixel_ratio": {"den": 1, "num": 1}, "video_length": "1475", "audio_bit_rate": 0, "interlaced_frame": false, "fps": {"den": 1, "num": 25}, "video_stream_index": 0, "video_bit_rate": 0, "display_ratio": {"den": 384, "num": 683}, "path": "Clips/07-Entered Record of 10 students.mkv", "channels": 0, "pixel_format": 0, "width": 1366, "sample_rate": 0, "audio_stream_index": -1, "duration": 59.0, "top_field_first": true, "channel_layout": 4, "video_timebase": {"den": 1000, "num": 1}, "type": "FFmpegReader", "acodec": "", "vcodec": "h264", "has_video": true, "has_single_image": false, "height": 768, "audio_timebase": {"den": 1, "num": 1}, "file_size": "595628"}, "channel_filter": {"Points": [{"interpolation": 2, "co": {"Y": -1.0, "X": 1.0}}]}, "crop_height": {"Points": [{"interpolation": 2, "co": {"Y": -1.0, "X": 1.0}}]}, "effects": [], "waveform": false, "perspective_c4_y": {"Points": [{"interpolation": 2, "co": {"Y": -1.0, "X": 1.0}}]}, "crop_x": {"Points": [{"interpolation": 2, "co": {"Y": 0.0, "X": 1.0}}]}, "crop_width": {"Points": [{"interpolation": 2, "co": {"Y": -1.0, "X": 1.0}}]}, "alpha": {"Points": [{"interpolation": 2, "co": {"Y": 1.0, "X": 1.0}}, {"handle_right": {"Y": 0.0, "X": 0.5}, "handle_type": 0, "handle_left": {"Y": 1.0, "X": 0.5}, "co": {"Y": 0.0, "X": 1.0}, "interpolation": 0}, {"handle_right": {"Y": 0.0, "X": 0.5}, "handle_type": 0, "handle_left": {"Y": 1.0, "X": 0.5}, "co": {"Y": 1.0, "X": 73.0}, "interpolation": 0}, {"handle_right": {"Y": 0.0, "X": 0.5}, "handle_type": 0, "handle_left": {"Y": 1.0, "X": 0.5}, "co": {"Y": 1.0, "X": 1345.0}, "interpolation": 0}, {"handle_right": {"Y": 0.0, "X": 0.5}, "handle_type": 0, "handle_left": {"Y": 1.0, "X": 0.5}, "co": {"Y": 0.0, "X": 1417.0}, "interpolation": 0}]}, "display": 0, "anchor": 0, "image": "../../../.openshot_qt/thumbnail/IV7EF51HD1.png", "gravity": 4, "shear_y": {"Points": [{"interpolation": 2, "co": {"Y": 0.0, "X": 1.0}}]}, "scale_y": {"Points": [{"interpolation": 2, "co": {"Y": 1.0, "X": 1.0}}, {"interpolation": 1, "co": {"Y": 1.899999976158142, "X": 192}}]}}, {"location_x": {"Points": [{"interpolation": 2, "co": {"Y": 0.0, "X": 1.0}}, {"interpolation": 1, "co": {"Y": 0.43511450381679384, "X": 192}}]}, "channel_filter": {"Points": [{"interpolation": 2, "co": {"Y": -1.0, "X": 1.0}}]}, "perspective_c3_x": {"Points": [{"interpolation": 2, "co": {"Y": -1.0, "X": 1.0}}]}, "perspective_c4_x": {"Points": [{"interpolation": 2, "co": {"Y": -1.0, "X": 1.0}}]}, "layer": 3, "time": {"Points": [{"interpolation": 2, "co": {"Y": 1.0, "X": 1.0}}]}, "end": 59, "channel_mapping": {"Points": [{"interpolation": 2, "co": {"Y": -1.0, "X": 1.0}}]}, "position": 20, "id": "XNSK4PWD2F", "title": "07-Entered Record of 10 students.mkv", "duration": 59.0, "crop_height": {"Points": [{"interpolation": 2, "co": {"Y": -1.0, "X": 1.0}}]}, "effects": [], "perspective_c1_x": {"Points": [{"interpolation": 2, "co": {"Y": -1.0, "X": 1.0}}]}, "crop_width": {"Points": [{"interpolation": 2, "co": {"Y": -1.0, "X": 1.0}}]}, "has_video": {"Points": [{"interpolation": 2, "co": {"Y": -1.0, "X": 1.0}}]}, "crop_x": {"Points": [{"interpolation": 2, "co": {"Y": 0.0, "X": 1.0}}]}, "gravity": 4, "shear_y": {"Points": [{"interpolation": 2, "co": {"Y": 0.0, "X": 1.0}}]}, "has_audio": {"Points": [{"interpolation": 2, "co": {"Y": -1.0, "X": 1.0}}]}, "image": "../../../.openshot_qt/thumbnail/IV7EF51HD1.png", "rotation": {"Points": [{"interpolation": 2, "co": {"Y": 0.0, "X": 1.0}}]}, "file_id": "IV7EF51HD1", "perspective_c2_x": {"Points": [{"interpolation": 2, "co": {"Y": -1.0, "X": 1.0}}]}, "alpha": {"Points": [{"interpolation": 2, "co": {"Y": 1.0, "X": 1.0}}, {"handle_right": {"Y": 0.0, "X": 0.5}, "handle_type": 0, "handle_left": {"Y": 1.0, "X": 0.5}, "co": {"Y": 0.0, "X": 1.0}, "interpolation": 0}, {"handle_right": {"Y": 0.0, "X": 0.5}, "handle_type": 0, "handle_left": {"Y": 1.0, "X": 0.5}, "co": {"Y": 1.0, "X": 73.0}, "interpolation": 0}, {"handle_right": {"Y": 0.0, "X": 0.5}, "handle_type": 0, "handle_left": {"Y": 1.0, "X": 0.5}, "co": {"Y": 1.0, "X": 1345.0}, "interpolation": 0}, {"handle_right": {"Y": 0.0, "X": 0.5}, "handle_type": 0, "handle_left": {"Y": 1.0, "X": 0.5}, "co": {"Y": 0.0, "X": 1417.0}, "interpolation": 0}, {"handle_right": {"X": 0.5, "Y": 0.0}, "handle_type": 0, "handle_left": {"X": 0.5, "Y": 1.0}, "co": {"X": 1.0, "Y": 0.0}, "interpolation": 0}, {"handle_right": {"X": 0.5, "Y": 0.0}, "handle_type": 0, "handle_left": {"X": 0.5, "Y": 1.0}, "co": {"X": 73.0, "Y": 1.0}, "interpolation": 0}, {"handle_right": {"X": 0.5, "Y": 0.0}, "handle_type": 0, "handle_left": {"X": 0.5, "Y": 1.0}, "co": {"X": 1345.0, "Y": 1.0}, "interpolation": 0}, {"handle_right": {"X": 0.5, "Y": 0.0}, "handle_type": 0, "handle_left": {"X": 0.5, "Y": 1.0}, "co": {"X": 1417.0, "Y": 0.0}, "interpolation": 0}]}, "volume": {"Points": [{"interpolation": 2, "co": {"Y": 1.0, "X": 1.0}}]}, "wave_color": {"alpha": {"Points": [{"handle_right": {"Y": 0.0, "X": 0.5}, "handle_type": 0, "handle_left": {"Y": 1.0, "X": 0.5}, "co": {"Y": 255.0, "X": 1.0}, "interpolation": 0}]}, "red": {"Points": [{"handle_right": {"Y": 0.0, "X": 0.5}, "handle_type": 0, "handle_left": {"Y": 1.0, "X": 0.5}, "co": {"Y": 0.0, "X": 1.0}, "interpolation": 0}]}, "blue": {"Points": [{"handle_right": {"Y": 0.0, "X": 0.5}, "handle_type": 0, "handle_left": {"Y": 1.0, "X": 0.5}, "co": {"Y": 255.0, "X": 1.0}, "interpolation": 0}]}, "green": {"Points": [{"handle_right": {"Y": 0.0, "X": 0.5}, "handle_type": 0, "handle_left": {"Y": 1.0, "X": 0.5}, "co": {"Y": 123.0, "X": 1.0}, "interpolation": 0}]}}, "start": 0, "display": 0, "location_y": {"Points": [{"interpolation": 2, "co": {"Y": 0.0, "X": 1.0}}, {"interpolation": 1, "co": {"Y": 0.45038167938931295, "X": 192}}]}, "scale": 1, "shear_x": {"Points": [{"interpolation": 2, "co": {"Y": 0.0, "X": 1.0}}]}, "perspective_c3_y": {"Points": [{"interpolation": 2, "co": {"Y": -1.0, "X": 1.0}}]}, "crop_y": {"Points": [{"interpolation": 2, "co": {"Y": 0.0, "X": 1.0}}]}, "reader": {"has_audio": false, "pixel_ratio": {"den": 1, "num": 1}, "video_length": "1475", "audio_bit_rate": 0, "interlaced_frame": false, "fps": {"den": 1, "num": 25}, "video_stream_index": 0, "video_bit_rate": 0, "display_ratio": {"den": 384, "num": 683}, "path": "Clips/07-Entered Record of 10 students.mkv", "channels": 0, "pixel_format": 0, "width": 1366, "sample_rate": 0, "audio_stream_index": -1, "duration": 59.0, "top_field_first": true, "channel_layout": 4, "video_timebase": {"den": 1000, "num": 1}, "type": "FFmpegReader", "acodec": "", "vcodec": "h264", "has_video": true, "has_single_image": false, "height": 768, "audio_timebase": {"den": 1, "num": 1}, "file_size": "595628"}, "perspective_c1_y": {"Points": [{"interpolation": 2, "co": {"Y": -1.0, "X": 1.0}}]}, "waveform": false, "perspective_c4_y": {"Points": [{"interpolation": 2, "co": {"Y": -1.0, "X": 1.0}}]}, "scale_x": {"Points": [{"interpolation": 2, "co": {"Y": 1.0, "X": 1.0}}, {"interpolation": 1, "co": {"Y": 1.899999976158142, "X": 192}}]}, "scale_y": {"Points": [{"interpolation": 2, "co": {"Y": 1.0, "X": 1.0}}, {"interpolation": 1, "co": {"Y": 1.899999976158142, "X": 192}}]}, "perspective_c2_y": {"Points": [{"interpolation": 2, "co": {"Y": -1.0, "X": 1.0}}]}, "anchor": 0}, {"location_x": {"Points": [{"interpolation": 2, "co": {"X": 1.0, "Y": 0.0}}]}, "channel_filter": {"Points": [{"interpolation": 2, "co": {"X": 1.0, "Y": -1.0}}]}, "gravity": 4, "perspective_c4_x": {"Points": [{"interpolation": 2, "co": {"X": 1.0, "Y": -1.0}}]}, "layer": 2, "time": {"Points": [{"interpolation": 2, "co": {"X": 1.0, "Y": 1.0}}]}, "end": 68.72, "channel_mapping": {"Points": [{"interpolation": 2, "co": {"X": 1.0, "Y": -1.0}}]}, "position": 0, "id": "T5YYS00GWW", "title": "01-White-Background.svg", "duration": 86400.0, "crop_height": {"Points": [{"interpolation": 2, "co": {"X": 1.0, "Y": -1.0}}]}, "effects": [], "perspective_c1_x": {"Points": [{"interpolation": 2, "co": {"X": 1.0, "Y": -1.0}}]}, "crop_width": {"Points": [{"interpolation": 2, "co": {"X": 1.0, "Y": -1.0}}]}, "has_video": {"Points": [{"interpolation": 2, "co": {"X": 1.0, "Y": -1.0}}]}, "crop_x": {"Points": [{"interpolation": 2, "co": {"X": 1.0, "Y": 0.0}}]}, "perspective_c3_x": {"Points": [{"interpolation": 2, "co": {"X": 1.0, "Y": -1.0}}]}, "shear_y": {"Points": [{"interpolation": 2, "co": {"X": 1.0, "Y": 0.0}}]}, "has_audio": {"Points": [{"interpolation": 2, "co": {"X": 1.0, "Y": -1.0}}]}, "image": "../../../.openshot_qt/thumbnail/H51D80S6SD.png", "rotation": {"Points": [{"interpolation": 2, "co": {"X": 1.0, "Y": 0.0}}]}, "file_id": "H51D80S6SD", "perspective_c2_x": {"Points": [{"interpolation": 2, "co": {"X": 1.0, "Y": -1.0}}]}, "crop_y": {"Points": [{"interpolation": 2, "co": {"X": 1.0, "Y": 0.0}}]}, "volume": {"Points": [{"interpolation": 2, "co": {"X": 1.0, "Y": 1.0}}]}, "wave_color": {"alpha": {"Points": [{"handle_right": {"X": 0.5, "Y": 0.0}, "handle_type": 0, "handle_left": {"X": 0.5, "Y": 1.0}, "co": {"X": 1.0, "Y": 255.0}, "interpolation": 0}]}, "red": {"Points": [{"handle_right": {"X": 0.5, "Y": 0.0}, "handle_type": 0, "handle_left": {"X": 0.5, "Y": 1.0}, "co": {"X": 1.0, "Y": 0.0}, "interpolation": 0}]}, "blue": {"Points": [{"handle_right": {"X": 0.5, "Y": 0.0}, "handle_type": 0, "handle_left": {"X": 0.5, "Y": 1.0}, "co": {"X": 1.0, "Y": 255.0}, "interpolation": 0}]}, "green": {"Points": [{"handle_right": {"X": 0.5, "Y": 0.0}, "handle_type": 0, "handle_left": {"X": 0.5, "Y": 1.0}, "co": {"X": 1.0, "Y": 123.0}, "interpolation": 0}]}}, "start": 0, "display": 0, "location_y": {"Points": [{"interpolation": 2, "co": {"X": 1.0, "Y": 0.0}}]}, "scale": 1, "shear_x": {"Points": [{"interpolation": 2, "co": {"X": 1.0, "Y": 0.0}}]}, "perspective_c3_y": {"Points": [{"interpolation": 2, "co": {"X": 1.0, "Y": -1.0}}]}, "perspective_c2_y": {"Points": [{"interpolation": 2, "co": {"X": 1.0, "Y": -1.0}}]}, "reader": {"has_audio": false, "pixel_ratio": {"den": 1, "num": 1}, "video_length": "2592000", "interlaced_frame": false, "audio_bit_rate": 0, "height": 1080, "fps": {"den": 1, "num": 30}, "video_stream_index": -1, "video_bit_rate": 0, "display_ratio": {"den": 9, "num": 16}, "path": "Images/01-White-Background.svg", "pixel_format": -1, "width": 1920, "sample_rate": 0, "audio_stream_index": -1, "duration": 86400.0, "type": "QtImageReader", "channel_layout": 4, "acodec": "", "video_timebase": {"den": 30, "num": 1}, "top_field_first": true, "has_single_image": true, "vcodec": "", "has_video": true, "channels": 0, "audio_timebase": {"den": 1, "num": 1}, "file_size": "8294400"}, "perspective_c1_y": {"Points": [{"interpolation": 2, "co": {"X": 1.0, "Y": -1.0}}]}, "waveform": false, "perspective_c4_y": {"Points": [{"interpolation": 2, "co": {"X": 1.0, "Y": -1.0}}]}, "scale_x": {"Points": [{"interpolation": 2, "co": {"X": 1.0, "Y": 1.0}}]}, "scale_y": {"Points": [{"interpolation": 2, "co": {"X": 1.0, "Y": 1.0}}]}, "alpha": {"Points": [{"interpolation": 2, "co": {"X": 1.0, "Y": 1.0}}]}, "anchor": 0}, {"location_x": {"Points": [{"interpolation": 2, "co": {"X": 1.0, "Y": 0.0}}]}, "channel_filter": {"Points": [{"interpolation": 2, "co": {"X": 1.0, "Y": -1.0}}]}, "gravity": 4, "perspective_c4_x": {"Points": [{"interpolation": 2, "co": {"X": 1.0, "Y": -1.0}}]}, "layer": 3, "time": {"Points": [{"interpolation": 2, "co": {"X": 1.0, "Y": 1.0}}]}, "end": 10, "channel_mapping": {"Points": [{"interpolation": 2, "co": {"X": 1.0, "Y": -1.0}}]}, "position": 0, "id": "FBMFTB0HC9", "title": "06-Slide-Create Students Record In Libre Calc.svg", "duration": 86400.0, "crop_height": {"Points": [{"interpolation": 2, "co": {"X": 1.0, "Y": -1.0}}]}, "effects": [], "perspective_c1_x": {"Points": [{"interpolation": 2, "co": {"X": 1.0, "Y": -1.0}}]}, "crop_width": {"Points": [{"interpolation": 2, "co": {"X": 1.0, "Y": -1.0}}]}, "has_video": {"Points": [{"interpolation": 2, "co": {"X": 1.0, "Y": -1.0}}]}, "crop_x": {"Points": [{"interpolation": 2, "co": {"X": 1.0, "Y": 0.0}}]}, "perspective_c3_x": {"Points": [{"interpolation": 2, "co": {"X": 1.0, "Y": -1.0}}]}, "shear_y": {"Points": [{"interpolation": 2, "co": {"X": 1.0, "Y": 0.0}}]}, "has_audio": {"Points": [{"interpolation": 2, "co": {"X": 1.0, "Y": -1.0}}]}, "image": "../../../.openshot_qt/thumbnail/9DMFO1XFX6.png", "rotation": {"Points": [{"interpolation": 2, "co": {"X": 1.0, "Y": 0.0}}]}, "file_id": "9DMFO1XFX6", "perspective_c2_x": {"Points": [{"interpolation": 2, "co": {"X": 1.0, "Y": -1.0}}]}, "crop_y": {"Points": [{"interpolation": 2, "co": {"X": 1.0, "Y": 0.0}}]}, "volume": {"Points": [{"interpolation": 2, "co": {"X": 1.0, "Y": 1.0}}]}, "wave_color": {"alpha": {"Points": [{"handle_right": {"X": 0.5, "Y": 0.0}, "handle_type": 0, "handle_left": {"X": 0.5, "Y": 1.0}, "co": {"X": 1.0, "Y": 255.0}, "interpolation": 0}]}, "red": {"Points": [{"handle_right": {"X": 0.5, "Y": 0.0}, "handle_type": 0, "handle_left": {"X": 0.5, "Y": 1.0}, "co": {"X": 1.0, "Y": 0.0}, "interpolation": 0}]}, "blue": {"Points": [{"handle_right": {"X": 0.5, "Y": 0.0}, "handle_type": 0, "handle_left": {"X": 0.5, "Y": 1.0}, "co": {"X": 1.0, "Y": 255.0}, "interpolation": 0}]}, "green": {"Points": [{"handle_right": {"X": 0.5, "Y": 0.0}, "handle_type": 0, "handle_left": {"X": 0.5, "Y": 1.0}, "co": {"X": 1.0, "Y": 123.0}, "interpolation": 0}]}}, "start": 0, "display": 0, "location_y": {"Points": [{"interpolation": 2, "co": {"X": 1.0, "Y": 0.0}}]}, "scale": 1, "shear_x": {"Points": [{"interpolation": 2, "co": {"X": 1.0, "Y": 0.0}}]}, "perspective_c3_y": {"Points": [{"interpolation": 2, "co": {"X": 1.0, "Y": -1.0}}]}, "perspective_c2_y": {"Points": [{"interpolation": 2, "co": {"X": 1.0, "Y": -1.0}}]}, "reader": {"has_audio": false, "pixel_ratio": {"den": 1, "num": 1}, "video_length": "2592000", "interlaced_frame": false, "audio_bit_rate": 0, "height": 3827, "fps": {"den": 1, "num": 30}, "video_stream_index": -1, "video_bit_rate": 0, "display_ratio": {"den": 3827, "num": 6803}, "path": "Images/06-Slide-Create Students Record In Libre Calc.svg", "pixel_format": -1, "width": 6803, "sample_rate": 0, "audio_stream_index": -1, "duration": 86400.0, "type": "QtImageReader", "channel_layout": 4, "acodec": "", "video_timebase": {"den": 30, "num": 1}, "top_field_first": true, "has_single_image": true, "vcodec": "", "has_video": true, "channels": 0, "audio_timebase": {"den": 1, "num": 1}, "file_size": "104140324"}, "perspective_c1_y": {"Points": [{"interpolation": 2, "co": {"X": 1.0, "Y": -1.0}}]}, "waveform": false, "perspective_c4_y": {"Points": [{"interpolation": 2, "co": {"X": 1.0, "Y": -1.0}}]}, "scale_x": {"Points": [{"interpolation": 2, "co": {"X": 1.0, "Y": 1.0}}]}, "scale_y": {"Points": [{"interpolation": 2, "co": {"X": 1.0, "Y": 1.0}}]}, "alpha": {"Points": [{"interpolation": 2, "co": {"X": 1.0, "Y": 1.0}}, {"handle_right": {"X": 0.5, "Y": 0.0}, "handle_type": 0, "handle_left": {"X": 0.5, "Y": 1.0}, "co": {"X": 1.0, "Y": 0.0}, "interpolation": 0}, {"handle_right": {"X": 0.5, "Y": 0.0}, "handle_type": 0, "handle_left": {"X": 0.5, "Y": 1.0}, "co": {"X": 73.0, "Y": 1.0}, "interpolation": 0}, {"handle_right": {"X": 0.5, "Y": 0.0}, "handle_type": 0, "handle_left": {"X": 0.5, "Y": 1.0}, "co": {"X": 169.0, "Y": 1.0}, "interpolation": 0}, {"handle_right": {"X": 0.5, "Y": 0.0}, "handle_type": 0, "handle_left": {"X": 0.5, "Y": 1.0}, "co": {"X": 241.0, "Y": 0.0}, "interpolation": 0}]}, "anchor": 0}, {"location_x": {"Points": [{"interpolation": 2, "co": {"X": 1.0, "Y": 0.0}}]}, "channel_filter": {"Points": [{"interpolation": 2, "co": {"X": 1.0, "Y": -1.0}}]}, "gravity": 4, "perspective_c4_x": {"Points": [{"interpolation": 2, "co": {"X": 1.0, "Y": -1.0}}]}, "layer": 3, "time": {"Points": [{"interpolation": 2, "co": {"X": 1.0, "Y": 1.0}}]}, "end": 10, "channel_mapping": {"Points": [{"interpolation": 2, "co": {"X": 1.0, "Y": -1.0}}]}, "position": 10, "id": "H0YV894FP9", "title": "07-Slide -Open Libre Calc.svg", "duration": 86400.0, "crop_height": {"Points": [{"interpolation": 2, "co": {"X": 1.0, "Y": -1.0}}]}, "effects": [], "perspective_c1_x": {"Points": [{"interpolation": 2, "co": {"X": 1.0, "Y": -1.0}}]}, "crop_width": {"Points": [{"interpolation": 2, "co": {"X": 1.0, "Y": -1.0}}]}, "has_video": {"Points": [{"interpolation": 2, "co": {"X": 1.0, "Y": -1.0}}]}, "crop_x": {"Points": [{"interpolation": 2, "co": {"X": 1.0, "Y": 0.0}}]}, "perspective_c3_x": {"Points": [{"interpolation": 2, "co": {"X": 1.0, "Y": -1.0}}]}, "shear_y": {"Points": [{"interpolation": 2, "co": {"X": 1.0, "Y": 0.0}}]}, "has_audio": {"Points": [{"interpolation": 2, "co": {"X": 1.0, "Y": -1.0}}]}, "image": "../../../.openshot_qt/thumbnail/OE5TV4582C.png", "rotation": {"Points": [{"interpolation": 2, "co": {"X": 1.0, "Y": 0.0}}]}, "file_id": "OE5TV4582C", "perspective_c2_x": {"Points": [{"interpolation": 2, "co": {"X": 1.0, "Y": -1.0}}]}, "crop_y": {"Points": [{"interpolation": 2, "co": {"X": 1.0, "Y": 0.0}}]}, "volume": {"Points": [{"interpolation": 2, "co": {"X": 1.0, "Y": 1.0}}]}, "wave_color": {"alpha": {"Points": [{"handle_right": {"X": 0.5, "Y": 0.0}, "handle_type": 0, "handle_left": {"X": 0.5, "Y": 1.0}, "co": {"X": 1.0, "Y": 255.0}, "interpolation": 0}]}, "red": {"Points": [{"handle_right": {"X": 0.5, "Y": 0.0}, "handle_type": 0, "handle_left": {"X": 0.5, "Y": 1.0}, "co": {"X": 1.0, "Y": 0.0}, "interpolation": 0}]}, "blue": {"Points": [{"handle_right": {"X": 0.5, "Y": 0.0}, "handle_type": 0, "handle_left": {"X": 0.5, "Y": 1.0}, "co": {"X": 1.0, "Y": 255.0}, "interpolation": 0}]}, "green": {"Points": [{"handle_right": {"X": 0.5, "Y": 0.0}, "handle_type": 0, "handle_left": {"X": 0.5, "Y": 1.0}, "co": {"X": 1.0, "Y": 123.0}, "interpolation": 0}]}}, "start": 0, "display": 0, "location_y": {"Points": [{"interpolation": 2, "co": {"X": 1.0, "Y": 0.0}}]}, "scale": 1, "shear_x": {"Points": [{"interpolation": 2, "co": {"X": 1.0, "Y": 0.0}}]}, "perspective_c3_y": {"Points": [{"interpolation": 2, "co": {"X": 1.0, "Y": -1.0}}]}, "perspective_c2_y": {"Points": [{"interpolation": 2, "co": {"X": 1.0, "Y": -1.0}}]}, "reader": {"has_audio": false, "pixel_ratio": {"den": 1, "num": 1}, "video_length": "2592000", "interlaced_frame": false, "audio_bit_rate": 0, "height": 3827, "fps": {"den": 1, "num": 30}, "video_stream_index": -1, "video_bit_rate": 0, "display_ratio": {"den": 3827, "num": 6803}, "path": "Images/07-Slide -Open Libre Calc.svg", "pixel_format": -1, "width": 6803, "sample_rate": 0, "audio_stream_index": -1, "duration": 86400.0, "type": "QtImageReader", "channel_layout": 4, "acodec": "", "video_timebase": {"den": 30, "num": 1}, "top_field_first": true, "has_single_image": true, "vcodec": "", "has_video": true, "channels": 0, "audio_timebase": {"den": 1, "num": 1}, "file_size": "104140324"}, "perspective_c1_y": {"Points": [{"interpolation": 2, "co": {"X": 1.0, "Y": -1.0}}]}, "waveform": false, "perspective_c4_y": {"Points": [{"interpolation": 2, "co": {"X": 1.0, "Y": -1.0}}]}, "scale_x": {"Points": [{"interpolation": 2, "co": {"X": 1.0, "Y": 1.0}}]}, "scale_y": {"Points": [{"interpolation": 2, "co": {"X": 1.0, "Y": 1.0}}]}, "alpha": {"Points": [{"interpolation": 2, "co": {"X": 1.0, "Y": 1.0}}, {"handle_right": {"X": 0.5, "Y": 0.0}, "handle_type": 0, "handle_left": {"X": 0.5, "Y": 1.0}, "co": {"X": 1.0, "Y": 0.0}, "interpolation": 0}, {"handle_right": {"X": 0.5, "Y": 0.0}, "handle_type": 0, "handle_left": {"X": 0.5, "Y": 1.0}, "co": {"X": 73.0, "Y": 1.0}, "interpolation": 0}, {"handle_right": {"X": 0.5, "Y": 0.0}, "handle_type": 0, "handle_left": {"X": 0.5, "Y": 1.0}, "co": {"X": 169.0, "Y": 1.0}, "interpolation": 0}, {"handle_right": {"X": 0.5, "Y": 0.0}, "handle_type": 0, "handle_left": {"X": 0.5, "Y": 1.0}, "co": {"X": 241.0, "Y": 0.0}, "interpolation": 0}]}, "anchor": 0}], "scale": 16, "layers": [{"id": "L0", "lock": false, "number": 0, "y": 0, "label": ""}, {"id": "L1", "lock": false, "number": 1, "y": 0, "label": ""}, {"id": "L2", "lock": false, "number": 2, "y": 0, "label": ""}, {"id": "L3", "lock": false, "number": 3, "y": 0, "label": ""}, {"id": "L4", "lock": false, "number": 4, "y": 0, "label": ""}], "id": "T0", "width": 1280, "sample_rate": 44100, "duration": 300, "channel_layout": 3, "progress": [], "markers": [], "export_path": "", "tick_pixels": 100, "profile": "HDV 720 24p", "channels": 2, "playhead_position": 0, "version": {"libopenshot": "0.1.9", "openshot-qt": "2.4.1"}}