{"duration": 300, "version": {"openshot-qt": "2.4.1", "libopenshot": "0.1.9"}, "playhead_position": 0, "effects": [], "height": 720, "profile": "HDV 720 24p", "progress": [], "scale": 16, "fps": {"den": 1, "num": 24}, "tick_pixels": 100, "files": [{"duration": 48.0, "pixel_ratio": {"den": 1, "num": 1}, "video_timebase": {"den": 1000, "num": 1}, "height": 768, "file_size": "460413", "vcodec": "h264", "video_stream_index": 0, "interlaced_frame": false, "path": "Clips/09-Grace Mark Titles.mkv", "audio_timebase": {"den": 1, "num": 1}, "acodec": "", "has_video": true, "audio_stream_index": -1, "video_bit_rate": 0, "width": 1366, "display_ratio": {"den": 384, "num": 683}, "channels": 0, "type": "FFmpegReader", "has_audio": false, "pixel_format": 0, "top_field_first": true, "audio_bit_rate": 0, "channel_layout": 4, "id": "BGTBTEAKWJ", "sample_rate": 0, "has_single_image": false, "media_type": "video", "video_length": "1200", "fps": {"den": 1, "num": 25}}, {"duration": 157.0, "pixel_ratio": {"den": 1, "num": 1}, "sample_rate": 0, "video_timebase": {"den": 1000, "num": 1}, "height": 768, "file_size": "1511397", "vcodec": "h264", "video_stream_index": 0, "interlaced_frame": false, "path": "Clips/10-Grace Marks Formula.mkv", "audio_timebase": {"den": 1, "num": 1}, "acodec": "", "has_video": true, "audio_stream_index": -1, "has_single_image": false, "video_bit_rate": 0, "width": 1366, "channels": 0, "type": "FFmpegReader", "has_audio": false, "top_field_first": true, "audio_bit_rate": 0, "channel_layout": 4, "id": "LXYD11YP0F", "display_ratio": {"den": 384, "num": 683}, "pixel_format": 0, "media_type": "video", "video_length": "3925", "fps": {"den": 1, "num": 25}}], "markers": [], "width": 1280, "channels": 2, "layers": [{"label": "", "y": 0, "id": "L0", "lock": false, "number": 0}, {"label": "", "y": 0, "id": "L1", "lock": false, "number": 1}, {"label": "", "y": 0, "id": "L2", "lock": false, "number": 2}, {"label": "", "y": 0, "id": "L3", "lock": false, "number": 3}, {"label": "", "y": 0, "id": "L4", "lock": false, "number": 4}], "settings": {}, "clips": [{"crop_width": {"Points": [{"interpolation": 2, "co": {"X": 1.0, "Y": -1.0}}]}, "perspective_c3_x": {"Points": [{"interpolation": 2, "co": {"X": 1.0, "Y": -1.0}}]}, "effects": [], "perspective_c1_x": {"Points": [{"interpolation": 2, "co": {"X": 1.0, "Y": -1.0}}]}, "channel_mapping": {"Points": [{"interpolation": 2, "co": {"X": 1.0, "Y": -1.0}}]}, "scale": 1, "perspective_c1_y": {"Points": [{"interpolation": 2, "co": {"X": 1.0, "Y": -1.0}}]}, "gravity": 4, "shear_y": {"Points": [{"interpolation": 2, "co": {"X": 1.0, "Y": 0.0}}]}, "crop_x": {"Points": [{"interpolation": 2, "co": {"X": 1.0, "Y": 0.0}}]}, "end": 48, "image": "../../../.openshot_qt/thumbnail/BGTBTEAKWJ.png", "has_video": {"Points": [{"interpolation": 2, "co": {"X": 1.0, "Y": -1.0}}]}, "display": 0, "duration": 48.0, "crop_height": {"Points": [{"interpolation": 2, "co": {"X": 1.0, "Y": -1.0}}]}, "start": 0, "reader": {"duration": 48.0, "pixel_ratio": {"den": 1, "num": 1}, "sample_rate": 0, "video_timebase": {"den": 1000, "num": 1}, "height": 768, "file_size": "460413", "vcodec": "h264", "video_stream_index": 0, "interlaced_frame": false, "path": "Clips/09-Grace Mark Titles.mkv", "audio_timebase": {"den": 1, "num": 1}, "acodec": "", "has_video": true, "audio_stream_index": -1, "has_single_image": false, "video_bit_rate": 0, "width": 1366, "channels": 0, "type": "FFmpegReader", "has_audio": false, "top_field_first": true, "audio_bit_rate": 0, "channel_layout": 4, "display_ratio": {"den": 384, "num": 683}, "pixel_format": 0, "video_length": "1200", "fps": {"den": 1, "num": 25}}, "title": "09-Grace Mark Titles.mkv", "perspective_c4_x": {"Points": [{"interpolation": 2, "co": {"X": 1.0, "Y": -1.0}}]}, "has_audio": {"Points": [{"interpolation": 2, "co": {"X": 1.0, "Y": -1.0}}]}, "position": 0.20999999344348907, "location_y": {"Points": [{"interpolation": 2, "co": {"X": 1.0, "Y": 0.699999988079071}}]}, "location_x": {"Points": [{"interpolation": 2, "co": {"X": 1.0, "Y": 0.5}}, {"interpolation": 1, "co": {"X": 383, "Y": 0.10000000149011612}}]}, "id": "IQLQFEQVTT", "perspective_c2_y": {"Points": [{"interpolation": 2, "co": {"X": 1.0, "Y": -1.0}}]}, "perspective_c4_y": {"Points": [{"interpolation": 2, "co": {"X": 1.0, "Y": -1.0}}]}, "crop_y": {"Points": [{"interpolation": 2, "co": {"X": 1.0, "Y": 0.0}}]}, "scale_x": {"Points": [{"interpolation": 2, "co": {"X": 1.0, "Y": 3.0}}]}, "channel_filter": {"Points": [{"interpolation": 2, "co": {"X": 1.0, "Y": -1.0}}]}, "file_id": "BGTBTEAKWJ", "alpha": {"Points": [{"interpolation": 2, "co": {"X": 1.0, "Y": 1.0}}, {"handle_type": 0, "handle_left": {"X": 0.5, "Y": 1.0}, "co": {"X": 1.0, "Y": 0.0}, "interpolation": 0, "handle_right": {"X": 0.5, "Y": 0.0}}, {"handle_type": 0, "handle_left": {"X": 0.5, "Y": 1.0}, "co": {"X": 73.0, "Y": 1.0}, "interpolation": 0, "handle_right": {"X": 0.5, "Y": 0.0}}, {"interpolation": 0, "handle_left": {"X": 0.5, "Y": 1.0}, "handle_right": {"X": 0.5, "Y": 0.0}, "handle_type": 0, "co": {"X": 1081.0, "Y": 1.0}}, {"interpolation": 0, "handle_left": {"X": 0.5, "Y": 1.0}, "handle_right": {"X": 0.5, "Y": 0.0}, "handle_type": 0, "co": {"X": 1153.0, "Y": 0.0}}]}, "volume": {"Points": [{"interpolation": 2, "co": {"X": 1.0, "Y": 1.0}}]}, "wave_color": {"alpha": {"Points": [{"handle_type": 0, "co": {"X": 1.0, "Y": 255.0}, "interpolation": 0, "handle_left": {"X": 0.5, "Y": 1.0}, "handle_right": {"X": 0.5, "Y": 0.0}}]}, "green": {"Points": [{"handle_type": 0, "co": {"X": 1.0, "Y": 123.0}, "interpolation": 0, "handle_left": {"X": 0.5, "Y": 1.0}, "handle_right": {"X": 0.5, "Y": 0.0}}]}, "blue": {"Points": [{"handle_type": 0, "co": {"X": 1.0, "Y": 255.0}, "interpolation": 0, "handle_left": {"X": 0.5, "Y": 1.0}, "handle_right": {"X": 0.5, "Y": 0.0}}]}, "red": {"Points": [{"handle_type": 0, "co": {"X": 1.0, "Y": 0.0}, "interpolation": 0, "handle_left": {"X": 0.5, "Y": 1.0}, "handle_right": {"X": 0.5, "Y": 0.0}}]}}, "perspective_c3_y": {"Points": [{"interpolation": 2, "co": {"X": 1.0, "Y": -1.0}}]}, "shear_x": {"Points": [{"interpolation": 2, "co": {"X": 1.0, "Y": 0.0}}]}, "anchor": 0, "layer": 3, "scale_y": {"Points": [{"interpolation": 2, "co": {"X": 1.0, "Y": 3.0}}]}, "perspective_c2_x": {"Points": [{"interpolation": 2, "co": {"X": 1.0, "Y": -1.0}}]}, "waveform": false, "time": {"Points": [{"interpolation": 2, "co": {"X": 1.0, "Y": 1.0}}]}, "rotation": {"Points": [{"interpolation": 2, "co": {"X": 1.0, "Y": 0.0}}]}}, {"crop_width": {"Points": [{"interpolation": 2, "co": {"X": 1.0, "Y": -1.0}}]}, "perspective_c3_x": {"Points": [{"interpolation": 2, "co": {"X": 1.0, "Y": -1.0}}]}, "effects": [], "perspective_c1_x": {"Points": [{"interpolation": 2, "co": {"X": 1.0, "Y": -1.0}}]}, "channel_mapping": {"Points": [{"interpolation": 2, "co": {"X": 1.0, "Y": -1.0}}]}, "scale": 1, "perspective_c1_y": {"Points": [{"interpolation": 2, "co": {"X": 1.0, "Y": -1.0}}]}, "gravity": 4, "shear_y": {"Points": [{"interpolation": 2, "co": {"X": 1.0, "Y": 0.0}}]}, "crop_x": {"Points": [{"interpolation": 2, "co": {"X": 1.0, "Y": 0.0}}]}, "end": 157, "image": "../../../.openshot_qt/thumbnail/LXYD11YP0F.png", "has_video": {"Points": [{"interpolation": 2, "co": {"X": 1.0, "Y": -1.0}}]}, "display": 0, "duration": 157.0, "crop_height": {"Points": [{"interpolation": 2, "co": {"X": 1.0, "Y": -1.0}}]}, "start": 0, "reader": {"duration": 157.0, "pixel_ratio": {"den": 1, "num": 1}, "sample_rate": 0, "video_timebase": {"den": 1000, "num": 1}, "height": 768, "file_size": "1511397", "vcodec": "h264", "video_stream_index": 0, "interlaced_frame": false, "path": "Clips/10-Grace Marks Formula.mkv", "audio_timebase": {"den": 1, "num": 1}, "acodec": "", "has_video": true, "audio_stream_index": -1, "has_single_image": false, "video_bit_rate": 0, "width": 1366, "channels": 0, "type": "FFmpegReader", "has_audio": false, "top_field_first": true, "audio_bit_rate": 0, "channel_layout": 4, "display_ratio": {"den": 384, "num": 683}, "pixel_format": 0, "video_length": "3925", "fps": {"den": 1, "num": 25}}, "title": "10-Grace Marks Formula.mkv", "perspective_c4_x": {"Points": [{"interpolation": 2, "co": {"X": 1.0, "Y": -1.0}}]}, "has_audio": {"Points": [{"interpolation": 2, "co": {"X": 1.0, "Y": -1.0}}]}, "position": 48.20999999344349, "location_y": {"Points": [{"interpolation": 2, "co": {"X": 1.0, "Y": 0.0}}]}, "location_x": {"Points": [{"interpolation": 2, "co": {"X": 1.0, "Y": 0.0}}]}, "id": "ECM1H2JNNB", "perspective_c2_y": {"Points": [{"interpolation": 2, "co": {"X": 1.0, "Y": -1.0}}]}, "perspective_c4_y": {"Points": [{"interpolation": 2, "co": {"X": 1.0, "Y": -1.0}}]}, "crop_y": {"Points": [{"interpolation": 2, "co": {"X": 1.0, "Y": 0.0}}]}, "scale_x": {"Points": [{"interpolation": 2, "co": {"X": 1.0, "Y": 1.0}}]}, "channel_filter": {"Points": [{"interpolation": 2, "co": {"X": 1.0, "Y": -1.0}}]}, "file_id": "LXYD11YP0F", "alpha": {"Points": [{"interpolation": 2, "co": {"X": 1.0, "Y": 1.0}}]}, "volume": {"Points": [{"interpolation": 2, "co": {"X": 1.0, "Y": 1.0}}]}, "wave_color": {"alpha": {"Points": [{"handle_type": 0, "handle_left": {"X": 0.5, "Y": 1.0}, "co": {"X": 1.0, "Y": 255.0}, "interpolation": 0, "handle_right": {"X": 0.5, "Y": 0.0}}]}, "green": {"Points": [{"handle_type": 0, "handle_left": {"X": 0.5, "Y": 1.0}, "co": {"X": 1.0, "Y": 123.0}, "interpolation": 0, "handle_right": {"X": 0.5, "Y": 0.0}}]}, "blue": {"Points": [{"handle_type": 0, "handle_left": {"X": 0.5, "Y": 1.0}, "co": {"X": 1.0, "Y": 255.0}, "interpolation": 0, "handle_right": {"X": 0.5, "Y": 0.0}}]}, "red": {"Points": [{"handle_type": 0, "handle_left": {"X": 0.5, "Y": 1.0}, "co": {"X": 1.0, "Y": 0.0}, "interpolation": 0, "handle_right": {"X": 0.5, "Y": 0.0}}]}}, "perspective_c3_y": {"Points": [{"interpolation": 2, "co": {"X": 1.0, "Y": -1.0}}]}, "shear_x": {"Points": [{"interpolation": 2, "co": {"X": 1.0, "Y": 0.0}}]}, "anchor": 0, "layer": 3, "scale_y": {"Points": [{"interpolation": 2, "co": {"X": 1.0, "Y": 1.0}}]}, "perspective_c2_x": {"Points": [{"interpolation": 2, "co": {"X": 1.0, "Y": -1.0}}]}, "waveform": false, "time": {"Points": [{"interpolation": 2, "co": {"X": 1.0, "Y": 1.0}}]}, "rotation": {"Points": [{"interpolation": 2, "co": {"X": 1.0, "Y": 0.0}}]}}], "channel_layout": 3, "sample_rate": 44100, "id": "T0", "export_path": "", "history": {"undo": [{"type": "update", "value": {"redo": [], "undo": [{"type": "delete", "value": null, "old_values": {"crop_width": {"Points": [{"interpolation": 2, "co": {"X": 1.0, "Y": -1.0}}]}, "channel_filter": {"Points": [{"interpolation": 2, "co": {"X": 1.0, "Y": -1.0}}]}, "perspective_c3_x": {"Points": [{"interpolation": 2, "co": {"X": 1.0, "Y": -1.0}}]}, "effects": [], "perspective_c1_x": {"Points": [{"interpolation": 2, "co": {"X": 1.0, "Y": -1.0}}]}, "channel_mapping": {"Points": [{"interpolation": 2, "co": {"X": 1.0, "Y": -1.0}}]}, "scale_x": {"Points": [{"handle_type": 0, "handle_right": {"X": 0.5, "Y": 0.0}, "interpolation": 0, "handle_left": {"X": 0.5, "Y": 1.0}, "co": {"X": 1.0, "Y": 1.0}}, {"interpolation": 1, "co": {"X": 436, "Y": 3.0}}]}, "scale": 1, "perspective_c1_y": {"Points": [{"interpolation": 2, "co": {"X": 1.0, "Y": -1.0}}]}, "gravity": 4, "shear_y": {"Points": [{"interpolation": 2, "co": {"X": 1.0, "Y": 0.0}}]}, "crop_x": {"Points": [{"interpolation": 2, "co": {"X": 1.0, "Y": 0.0}}]}, "end": 43.708333333333336, "file_id": "BGTBTEAKWJ", "image": "/home/milind/.openshot_qt/thumbnail/YX0UFQ3Z3A-6.png", "alpha": {"Points": [{"handle_type": 0, "handle_right": {"X": 0.5, "Y": 0.0}, "interpolation": 0, "handle_left": {"X": 0.5, "Y": 1.0}, "co": {"X": 1.0, "Y": 1.0}}, {"handle_type": 0, "handle_right": {"X": 0.5, "Y": 0.0}, "interpolation": 0, "handle_left": {"X": 0.5, "Y": 1.0}, "co": {"X": 7.0, "Y": 0.0}}, {"handle_type": 0, "handle_right": {"X": 0.5, "Y": 0.0}, "interpolation": 0, "handle_left": {"X": 0.5, "Y": 1.0}, "co": {"X": 79.0, "Y": 1.0}}, {"handle_type": 0, "handle_right": {"X": 0.5, "Y": 0.0}, "interpolation": 0, "handle_left": {"X": 0.5, "Y": 1.0}, "co": {"X": 2378.0, "Y": 1.0}}, {"handle_type": 0, "handle_right": {"X": 0.5, "Y": 0.0}, "interpolation": 0, "handle_left": {"X": 0.5, "Y": 1.0}, "co": {"X": 2450.0, "Y": 0.0}}]}, "has_video": {"Points": [{"interpolation": 2, "co": {"X": 1.0, "Y": -1.0}}]}, "volume": {"Points": [{"interpolation": 2, "co": {"X": 1.0, "Y": 1.0}}]}, "wave_color": {"alpha": {"Points": [{"handle_type": 0, "co": {"X": 1.0, "Y": 255.0}, "interpolation": 0, "handle_left": {"X": 0.5, "Y": 1.0}, "handle_right": {"X": 0.5, "Y": 0.0}}]}, "green": {"Points": [{"handle_type": 0, "co": {"X": 1.0, "Y": 123.0}, "interpolation": 0, "handle_left": {"X": 0.5, "Y": 1.0}, "handle_right": {"X": 0.5, "Y": 0.0}}]}, "blue": {"Points": [{"handle_type": 0, "co": {"X": 1.0, "Y": 255.0}, "interpolation": 0, "handle_left": {"X": 0.5, "Y": 1.0}, "handle_right": {"X": 0.5, "Y": 0.0}}]}, "red": {"Points": [{"handle_type": 0, "co": {"X": 1.0, "Y": 0.0}, "interpolation": 0, "handle_left": {"X": 0.5, "Y": 1.0}, "handle_right": {"X": 0.5, "Y": 0.0}}]}}, "crop_height": {"Points": [{"interpolation": 2, "co": {"X": 1.0, "Y": -1.0}}]}, "perspective_c3_y": {"Points": [{"interpolation": 2, "co": {"X": 1.0, "Y": -1.0}}]}, "shear_x": {"Points": [{"interpolation": 2, "co": {"X": 1.0, "Y": 0.0}}]}, "display": 0, "start": 0.20833333333333334, "reader": {"duration": 48.0, "pixel_ratio": {"den": 1, "num": 1}, "video_timebase": {"den": 1000, "num": 1}, "height": 768, "file_size": "460413", "vcodec": "h264", "video_stream_index": 0, "interlaced_frame": false, "path": "/home/milind/Data/Projects/ProgressCard/Clips/09-Grace Mark Titles.mkv", "audio_timebase": {"den": 1, "num": 1}, "acodec": "", "has_video": true, "audio_stream_index": -1, "video_bit_rate": 0, "width": 1366, "display_ratio": {"den": 384, "num": 683}, "channels": 0, "type": "FFmpegReader", "has_audio": false, "pixel_format": 0, "top_field_first": true, "audio_bit_rate": 0, "channel_layout": 4, "sample_rate": 0, "has_single_image": false, "video_length": "1200", "fps": {"den": 1, "num": 25}}, "title": "09-Grace Mark Titles.mkv", "perspective_c4_x": {"Points": [{"interpolation": 2, "co": {"X": 1.0, "Y": -1.0}}]}, "has_audio": {"Points": [{"interpolation": 2, "co": {"X": 1.0, "Y": -1.0}}]}, "perspective_c2_x": {"Points": [{"interpolation": 2, "co": {"X": 1.0, "Y": -1.0}}]}, "rotation": {"Points": [{"interpolation": 2, "co": {"X": 1.0, "Y": 0.0}}]}, "duration": 48.0, "layer": 3, "position": 0.20833333333333334, "anchor": 0, "location_y": {"Points": [{"handle_type": 0, "handle_right": {"X": 0.5, "Y": 0.0}, "interpolation": 0, "handle_left": {"X": 0.5, "Y": 1.0}, "co": {"X": 1.0, "Y": 0.0}}, {"interpolation": 1, "co": {"X": 436, "Y": 0.699999988079071}}]}, "scale_y": {"Points": [{"handle_type": 0, "handle_right": {"X": 0.5, "Y": 0.0}, "interpolation": 0, "handle_left": {"X": 0.5, "Y": 1.0}, "co": {"X": 1.0, "Y": 1.0}}, {"interpolation": 1, "co": {"X": 436, "Y": 3.0}}]}, "location_x": {"Points": [{"handle_type": 0, "handle_right": {"X": 0.5, "Y": 0.0}, "interpolation": 0, "handle_left": {"X": 0.5, "Y": 1.0}, "co": {"X": 1.0, "Y": 0.0}}, {"interpolation": 1, "co": {"X": 436, "Y": 0.5}}]}, "waveform": false, "id": "YX0UFQ3Z3A", "time": {"Points": [{"interpolation": 2, "co": {"X": 1.0, "Y": 1.0}}]}, "perspective_c2_y": {"Points": [{"interpolation": 2, "co": {"X": 1.0, "Y": -1.0}}]}, "perspective_c4_y": {"Points": [{"interpolation": 2, "co": {"X": 1.0, "Y": -1.0}}]}, "crop_y": {"Points": [{"interpolation": 2, "co": {"X": 1.0, "Y": 0.0}}]}}, "partial": false, "key": ["clips", {"id": "YX0UFQ3Z3A"}]}, {"type": "insert", "value": {"crop_width": {"Points": [{"interpolation": 2, "co": {"X": 1.0, "Y": -1.0}}]}, "channel_mapping": {"Points": [{"interpolation": 2, "co": {"X": 1.0, "Y": -1.0}}]}, "perspective_c3_x": {"Points": [{"interpolation": 2, "co": {"X": 1.0, "Y": -1.0}}]}, "effects": [], "perspective_c2_y": {"Points": [{"interpolation": 2, "co": {"X": 1.0, "Y": -1.0}}]}, "channel_filter": {"Points": [{"interpolation": 2, "co": {"X": 1.0, "Y": -1.0}}]}, "scale": 1, "perspective_c1_y": {"Points": [{"interpolation": 2, "co": {"X": 1.0, "Y": -1.0}}]}, "alpha": {"Points": [{"interpolation": 2, "co": {"X": 1.0, "Y": 1.0}}]}, "shear_y": {"Points": [{"interpolation": 2, "co": {"X": 1.0, "Y": 0.0}}]}, "crop_x": {"Points": [{"interpolation": 2, "co": {"X": 1.0, "Y": 0.0}}]}, "end": 48.0, "file_id": "BGTBTEAKWJ", "image": "/home/milind/.openshot_qt/thumbnail/BGTBTEAKWJ.png", "gravity": 4, "has_video": {"Points": [{"interpolation": 2, "co": {"X": 1.0, "Y": -1.0}}]}, "display": 0, "duration": 48.0, "crop_height": {"Points": [{"interpolation": 2, "co": {"X": 1.0, "Y": -1.0}}]}, "reader": {"duration": 48.0, "pixel_ratio": {"den": 1, "num": 1}, "sample_rate": 0, "video_timebase": {"den": 1000, "num": 1}, "height": 768, "file_size": "460413", "vcodec": "h264", "video_stream_index": 0, "interlaced_frame": false, "path": "/home/milind/Data/Projects/ProgressCard/Clips/09-Grace Mark Titles.mkv", "audio_timebase": {"den": 1, "num": 1}, "acodec": "", "has_video": true, "audio_stream_index": -1, "has_single_image": false, "video_bit_rate": 0, "width": 1366, "channels": 0, "type": "FFmpegReader", "has_audio": false, "top_field_first": true, "audio_bit_rate": 0, "channel_layout": 4, "display_ratio": {"den": 384, "num": 683}, "pixel_format": 0, "video_length": "1200", "fps": {"den": 1, "num": 25}}, "shear_x": {"Points": [{"interpolation": 2, "co": {"X": 1.0, "Y": 0.0}}]}, "volume": {"Points": [{"interpolation": 2, "co": {"X": 1.0, "Y": 1.0}}]}, "start": 0.0, "perspective_c3_y": {"Points": [{"interpolation": 2, "co": {"X": 1.0, "Y": -1.0}}]}, "title": "09-Grace Mark Titles.mkv", "wave_color": {"alpha": {"Points": [{"handle_type": 0, "co": {"X": 1.0, "Y": 255.0}, "interpolation": 0, "handle_left": {"X": 0.5, "Y": 1.0}, "handle_right": {"X": 0.5, "Y": 0.0}}]}, "green": {"Points": [{"handle_type": 0, "co": {"X": 1.0, "Y": 123.0}, "interpolation": 0, "handle_left": {"X": 0.5, "Y": 1.0}, "handle_right": {"X": 0.5, "Y": 0.0}}]}, "blue": {"Points": [{"handle_type": 0, "co": {"X": 1.0, "Y": 255.0}, "interpolation": 0, "handle_left": {"X": 0.5, "Y": 1.0}, "handle_right": {"X": 0.5, "Y": 0.0}}]}, "red": {"Points": [{"handle_type": 0, "co": {"X": 1.0, "Y": 0.0}, "interpolation": 0, "handle_left": {"X": 0.5, "Y": 1.0}, "handle_right": {"X": 0.5, "Y": 0.0}}]}}, "has_audio": {"Points": [{"interpolation": 2, "co": {"X": 1.0, "Y": -1.0}}]}, "perspective_c2_x": {"Points": [{"interpolation": 2, "co": {"X": 1.0, "Y": -1.0}}]}, "crop_y": {"Points": [{"interpolation": 2, "co": {"X": 1.0, "Y": 0.0}}]}, "perspective_c1_x": {"Points": [{"interpolation": 2, "co": {"X": 1.0, "Y": -1.0}}]}, "layer": 4, "position": 23.52, "anchor": 0, "perspective_c4_x": {"Points": [{"interpolation": 2, "co": {"X": 1.0, "Y": -1.0}}]}, "location_y": {"Points": [{"interpolation": 2, "co": {"X": 1.0, "Y": 0.0}}]}, "scale_y": {"Points": [{"interpolation": 2, "co": {"X": 1.0, "Y": 1.0}}]}, "location_x": {"Points": [{"interpolation": 2, "co": {"X": 1.0, "Y": 0.0}}]}, "waveform": false, "id": "B8ON3103P9", "time": {"Points": [{"interpolation": 2, "co": {"X": 1.0, "Y": 1.0}}]}, "scale_x": {"Points": [{"interpolation": 2, "co": {"X": 1.0, "Y": 1.0}}]}, "perspective_c4_y": {"Points": [{"interpolation": 2, "co": {"X": 1.0, "Y": -1.0}}]}, "rotation": {"Points": [{"interpolation": 2, "co": {"X": 1.0, "Y": 0.0}}]}}, "old_values": [], "partial": false, "key": ["clips"]}, {"type": "delete", "value": null, "old_values": {"crop_width": {"Points": [{"interpolation": 2, "co": {"X": 1.0, "Y": -1.0}}]}, "channel_filter": {"Points": [{"interpolation": 2, "co": {"X": 1.0, "Y": -1.0}}]}, "perspective_c3_x": {"Points": [{"interpolation": 2, "co": {"X": 1.0, "Y": -1.0}}]}, "effects": [], "perspective_c2_y": {"Points": [{"interpolation": 2, "co": {"X": 1.0, "Y": -1.0}}]}, "channel_mapping": {"Points": [{"interpolation": 2, "co": {"X": 1.0, "Y": -1.0}}]}, "scale_x": {"Points": [{"interpolation": 2, "co": {"X": 1.0, "Y": 1.0}}]}, "scale": 1, "perspective_c1_y": {"Points": [{"interpolation": 2, "co": {"X": 1.0, "Y": -1.0}}]}, "alpha": {"Points": [{"interpolation": 2, "co": {"X": 1.0, "Y": 1.0}}]}, "shear_y": {"Points": [{"interpolation": 2, "co": {"X": 1.0, "Y": 0.0}}]}, "crop_x": {"Points": [{"interpolation": 2, "co": {"X": 1.0, "Y": 0.0}}]}, "end": 48.0, "file_id": "BGTBTEAKWJ", "image": "/home/milind/.openshot_qt/thumbnail/BGTBTEAKWJ.png", "gravity": 4, "has_video": {"Points": [{"interpolation": 2, "co": {"X": 1.0, "Y": -1.0}}]}, "display": 0, "duration": 48.0, "crop_height": {"Points": [{"interpolation": 2, "co": {"X": 1.0, "Y": -1.0}}]}, "perspective_c3_y": {"Points": [{"interpolation": 2, "co": {"X": 1.0, "Y": -1.0}}]}, "shear_x": {"Points": [{"interpolation": 2, "co": {"X": 1.0, "Y": 0.0}}]}, "volume": {"Points": [{"interpolation": 2, "co": {"X": 1.0, "Y": 1.0}}]}, "start": 0.0, "reader": {"duration": 48.0, "pixel_ratio": {"den": 1, "num": 1}, "video_timebase": {"den": 1000, "num": 1}, "height": 768, "file_size": "460413", "vcodec": "h264", "video_stream_index": 0, "interlaced_frame": false, "path": "/home/milind/Data/Projects/ProgressCard/Clips/09-Grace Mark Titles.mkv", "audio_timebase": {"den": 1, "num": 1}, "acodec": "", "has_video": true, "audio_stream_index": -1, "video_bit_rate": 0, "width": 1366, "display_ratio": {"den": 384, "num": 683}, "channels": 0, "type": "FFmpegReader", "has_audio": false, "pixel_format": 0, "top_field_first": true, "audio_bit_rate": 0, "channel_layout": 4, "sample_rate": 0, "has_single_image": false, "video_length": "1200", "fps": {"den": 1, "num": 25}}, "title": "09-Grace Mark Titles.mkv", "wave_color": {"alpha": {"Points": [{"handle_type": 0, "handle_right": {"X": 0.5, "Y": 0.0}, "interpolation": 0, "handle_left": {"X": 0.5, "Y": 1.0}, "co": {"X": 1.0, "Y": 255.0}}]}, "green": {"Points": [{"handle_type": 0, "handle_right": {"X": 0.5, "Y": 0.0}, "interpolation": 0, "handle_left": {"X": 0.5, "Y": 1.0}, "co": {"X": 1.0, "Y": 123.0}}]}, "red": {"Points": [{"handle_type": 0, "handle_right": {"X": 0.5, "Y": 0.0}, "interpolation": 0, "handle_left": {"X": 0.5, "Y": 1.0}, "co": {"X": 1.0, "Y": 0.0}}]}, "blue": {"Points": [{"handle_type": 0, "handle_right": {"X": 0.5, "Y": 0.0}, "interpolation": 0, "handle_left": {"X": 0.5, "Y": 1.0}, "co": {"X": 1.0, "Y": 255.0}}]}}, "has_audio": {"Points": [{"interpolation": 2, "co": {"X": 1.0, "Y": -1.0}}]}, "perspective_c2_x": {"Points": [{"interpolation": 2, "co": {"X": 1.0, "Y": -1.0}}]}, "rotation": {"Points": [{"interpolation": 2, "co": {"X": 1.0, "Y": 0.0}}]}, "layer": 4, "position": 23.52, "anchor": 0, "perspective_c4_x": {"Points": [{"interpolation": 2, "co": {"X": 1.0, "Y": -1.0}}]}, "location_y": {"Points": [{"interpolation": 2, "co": {"X": 1.0, "Y": 0.0}}]}, "scale_y": {"Points": [{"interpolation": 2, "co": {"X": 1.0, "Y": 1.0}}]}, "location_x": {"Points": [{"interpolation": 2, "co": {"X": 1.0, "Y": 0.0}}]}, "waveform": false, "id": "B8ON3103P9", "time": {"Points": [{"interpolation": 2, "co": {"X": 1.0, "Y": 1.0}}]}, "perspective_c1_x": {"Points": [{"interpolation": 2, "co": {"X": 1.0, "Y": -1.0}}]}, "perspective_c4_y": {"Points": [{"interpolation": 2, "co": {"X": 1.0, "Y": -1.0}}]}, "crop_y": {"Points": [{"interpolation": 2, "co": {"X": 1.0, "Y": 0.0}}]}}, "partial": false, "key": ["clips", {"id": "B8ON3103P9"}]}, {"type": "insert", "value": {"crop_width": {"Points": [{"interpolation": 2, "co": {"X": 1.0, "Y": -1.0}}]}, "channel_mapping": {"Points": [{"interpolation": 2, "co": {"X": 1.0, "Y": -1.0}}]}, "perspective_c3_x": {"Points": [{"interpolation": 2, "co": {"X": 1.0, "Y": -1.0}}]}, "effects": [], "perspective_c1_x": {"Points": [{"interpolation": 2, "co": {"X": 1.0, "Y": -1.0}}]}, "channel_filter": {"Points": [{"interpolation": 2, "co": {"X": 1.0, "Y": -1.0}}]}, "scale": 1, "perspective_c1_y": {"Points": [{"interpolation": 2, "co": {"X": 1.0, "Y": -1.0}}]}, "alpha": {"Points": [{"interpolation": 2, "co": {"X": 1.0, "Y": 1.0}}]}, "shear_y": {"Points": [{"interpolation": 2, "co": {"X": 1.0, "Y": 0.0}}]}, "crop_x": {"Points": [{"interpolation": 2, "co": {"X": 1.0, "Y": 0.0}}]}, "end": 48, "file_id": "BGTBTEAKWJ", "image": "/home/milind/.openshot_qt/thumbnail/BGTBTEAKWJ.png", "gravity": 4, "has_video": {"Points": [{"interpolation": 2, "co": {"X": 1.0, "Y": -1.0}}]}, "display": 0, "perspective_c4_x": {"Points": [{"interpolation": 2, "co": {"X": 1.0, "Y": -1.0}}]}, "crop_height": {"Points": [{"interpolation": 2, "co": {"X": 1.0, "Y": -1.0}}]}, "reader": {"duration": 48.0, "pixel_ratio": {"den": 1, "num": 1}, "sample_rate": 0, "video_timebase": {"den": 1000, "num": 1}, "height": 768, "file_size": "460413", "vcodec": "h264", "video_stream_index": 0, "interlaced_frame": false, "path": "/home/milind/Data/Projects/ProgressCard/Clips/09-Grace Mark Titles.mkv", "audio_timebase": {"den": 1, "num": 1}, "acodec": "", "has_video": true, "audio_stream_index": -1, "has_single_image": false, "video_bit_rate": 0, "width": 1366, "channels": 0, "type": "FFmpegReader", "has_audio": false, "top_field_first": true, "audio_bit_rate": 0, "channel_layout": 4, "display_ratio": {"den": 384, "num": 683}, "pixel_format": 0, "video_length": "1200", "fps": {"den": 1, "num": 25}}, "perspective_c2_y": {"Points": [{"interpolation": 2, "co": {"X": 1.0, "Y": -1.0}}]}, "shear_x": {"Points": [{"interpolation": 2, "co": {"X": 1.0, "Y": 0.0}}]}, "volume": {"Points": [{"interpolation": 2, "co": {"X": 1.0, "Y": 1.0}}]}, "start": 0, "perspective_c3_y": {"Points": [{"interpolation": 2, "co": {"X": 1.0, "Y": -1.0}}]}, "title": "09-Grace Mark Titles.mkv", "wave_color": {"alpha": {"Points": [{"handle_type": 0, "co": {"X": 1.0, "Y": 255.0}, "interpolation": 0, "handle_left": {"X": 0.5, "Y": 1.0}, "handle_right": {"X": 0.5, "Y": 0.0}}]}, "green": {"Points": [{"handle_type": 0, "co": {"X": 1.0, "Y": 123.0}, "interpolation": 0, "handle_left": {"X": 0.5, "Y": 1.0}, "handle_right": {"X": 0.5, "Y": 0.0}}]}, "blue": {"Points": [{"handle_type": 0, "co": {"X": 1.0, "Y": 255.0}, "interpolation": 0, "handle_left": {"X": 0.5, "Y": 1.0}, "handle_right": {"X": 0.5, "Y": 0.0}}]}, "red": {"Points": [{"handle_type": 0, "co": {"X": 1.0, "Y": 0.0}, "interpolation": 0, "handle_left": {"X": 0.5, "Y": 1.0}, "handle_right": {"X": 0.5, "Y": 0.0}}]}}, "has_audio": {"Points": [{"interpolation": 2, "co": {"X": 1.0, "Y": -1.0}}]}, "perspective_c2_x": {"Points": [{"interpolation": 2, "co": {"X": 1.0, "Y": -1.0}}]}, "crop_y": {"Points": [{"interpolation": 2, "co": {"X": 1.0, "Y": 0.0}}]}, "duration": 48.0, "layer": 3, "position": 0.20999999344348907, "anchor": 0, "location_y": {"Points": [{"interpolation": 2, "co": {"X": 1.0, "Y": 0.699999988079071}}]}, "scale_y": {"Points": [{"interpolation": 2, "co": {"X": 1.0, "Y": 3.0}}]}, "location_x": {"Points": [{"interpolation": 2, "co": {"X": 1.0, "Y": 0.5}}]}, "waveform": false, "id": "IQLQFEQVTT", "time": {"Points": [{"interpolation": 2, "co": {"X": 1.0, "Y": 1.0}}]}, "scale_x": {"Points": [{"interpolation": 2, "co": {"X": 1.0, "Y": 3.0}}]}, "perspective_c4_y": {"Points": [{"interpolation": 2, "co": {"X": 1.0, "Y": -1.0}}]}, "rotation": {"Points": [{"interpolation": 2, "co": {"X": 1.0, "Y": 0.0}}]}}, "old_values": [], "partial": false, "key": ["clips"]}, {"type": "update", "value": {"position": 0, "start": 0, "layer": 3, "image": "/home/milind/.openshot_qt/thumbnail/BGTBTEAKWJ.png", "end": 48, "id": "IQLQFEQVTT"}, "old_values": null, "partial": false, "key": ["clips", {"id": "IQLQFEQVTT"}]}, {"type": "update", "value": {"position": 0, "start": 0, "layer": 3, "image": "/home/milind/.openshot_qt/thumbnail/BGTBTEAKWJ.png", "end": 48, "id": "IQLQFEQVTT"}, "old_values": null, "partial": false, "key": ["clips", {"id": "IQLQFEQVTT"}]}, {"type": "update", "value": {"location_x": {"Points": [{"interpolation": 2, "co": {"X": 1.0, "Y": 0.5}}]}}, "old_values": null, "partial": false, "key": ["clips", {"id": "IQLQFEQVTT"}]}, {"type": "update", "value": {"location_x": {"Points": [{"interpolation": 2, "co": {"X": 1.0, "Y": 0.5}}]}}, "old_values": null, "partial": false, "key": ["clips", {"id": "IQLQFEQVTT"}]}, {"type": "update", "value": {"location_x": {"Points": [{"interpolation": 2, "co": {"X": 1.0, "Y": 0.5}}]}}, "old_values": null, "partial": false, "key": ["clips", {"id": "IQLQFEQVTT"}]}, {"type": "update", "value": {"location_y": {"Points": [{"interpolation": 2, "co": {"X": 1.0, "Y": 0.699999988079071}}]}}, "old_values": null, "partial": false, "key": ["clips", {"id": "IQLQFEQVTT"}]}, {"type": "update", "value": {"location_y": {"Points": [{"interpolation": 2, "co": {"X": 1.0, "Y": 0.699999988079071}}]}}, "old_values": null, "partial": false, "key": ["clips", {"id": "IQLQFEQVTT"}]}, {"type": "update", "value": {"location_y": {"Points": [{"interpolation": 2, "co": {"X": 1.0, "Y": 0.699999988079071}}]}}, "old_values": null, "partial": false, "key": ["clips", {"id": "IQLQFEQVTT"}]}, {"type": "update", "value": {"position": 0.20999999344348907}, "old_values": null, "partial": false, "key": ["clips", {"id": "IQLQFEQVTT"}]}, {"type": "update", "value": {"position": 0.20999999344348907}, "old_values": null, "partial": false, "key": ["clips", {"id": "IQLQFEQVTT"}]}, {"type": "update", "value": {"position": 0.20999999344348907}, "old_values": null, "partial": false, "key": ["clips", {"id": "IQLQFEQVTT"}]}, {"type": "update", "value": {"scale_x": {"Points": [{"interpolation": 2, "co": {"X": 1.0, "Y": 3.0}}]}}, "old_values": null, "partial": false, "key": ["clips", {"id": "IQLQFEQVTT"}]}, {"type": "update", "value": {"scale_x": {"Points": [{"interpolation": 2, "co": {"X": 1.0, "Y": 3.0}}]}}, "old_values": null, "partial": false, "key": ["clips", {"id": "IQLQFEQVTT"}]}, {"type": "update", "value": {"scale_x": {"Points": [{"interpolation": 2, "co": {"X": 1.0, "Y": 3.0}}]}}, "old_values": null, "partial": false, "key": ["clips", {"id": "IQLQFEQVTT"}]}, {"type": "update", "value": {"scale_y": {"Points": [{"interpolation": 2, "co": {"X": 1.0, "Y": 3.0}}]}}, "old_values": null, "partial": false, "key": ["clips", {"id": "IQLQFEQVTT"}]}, {"type": "update", "value": {"scale_y": {"Points": [{"interpolation": 2, "co": {"X": 1.0, "Y": 3.0}}]}}, "old_values": null, "partial": false, "key": ["clips", {"id": "IQLQFEQVTT"}]}]}, "key": ["history"], "old_values": null, "partial": false}, {"type": "update", "value": {"redo": [], "undo": [{"type": "delete", "value": null, "old_values": {"crop_width": {"Points": [{"interpolation": 2, "co": {"X": 1.0, "Y": -1.0}}]}, "channel_filter": {"Points": [{"interpolation": 2, "co": {"X": 1.0, "Y": -1.0}}]}, "perspective_c3_x": {"Points": [{"interpolation": 2, "co": {"X": 1.0, "Y": -1.0}}]}, "effects": [], "perspective_c1_x": {"Points": [{"interpolation": 2, "co": {"X": 1.0, "Y": -1.0}}]}, "channel_mapping": {"Points": [{"interpolation": 2, "co": {"X": 1.0, "Y": -1.0}}]}, "scale_x": {"Points": [{"handle_type": 0, "handle_right": {"X": 0.5, "Y": 0.0}, "interpolation": 0, "handle_left": {"X": 0.5, "Y": 1.0}, "co": {"X": 1.0, "Y": 1.0}}, {"interpolation": 1, "co": {"X": 436, "Y": 3.0}}]}, "scale": 1, "perspective_c1_y": {"Points": [{"interpolation": 2, "co": {"X": 1.0, "Y": -1.0}}]}, "gravity": 4, "shear_y": {"Points": [{"interpolation": 2, "co": {"X": 1.0, "Y": 0.0}}]}, "crop_x": {"Points": [{"interpolation": 2, "co": {"X": 1.0, "Y": 0.0}}]}, "end": 43.708333333333336, "file_id": "BGTBTEAKWJ", "image": "/home/milind/.openshot_qt/thumbnail/YX0UFQ3Z3A-6.png", "alpha": {"Points": [{"handle_type": 0, "handle_right": {"X": 0.5, "Y": 0.0}, "interpolation": 0, "handle_left": {"X": 0.5, "Y": 1.0}, "co": {"X": 1.0, "Y": 1.0}}, {"handle_type": 0, "handle_right": {"X": 0.5, "Y": 0.0}, "interpolation": 0, "handle_left": {"X": 0.5, "Y": 1.0}, "co": {"X": 7.0, "Y": 0.0}}, {"handle_type": 0, "handle_right": {"X": 0.5, "Y": 0.0}, "interpolation": 0, "handle_left": {"X": 0.5, "Y": 1.0}, "co": {"X": 79.0, "Y": 1.0}}, {"handle_type": 0, "handle_right": {"X": 0.5, "Y": 0.0}, "interpolation": 0, "handle_left": {"X": 0.5, "Y": 1.0}, "co": {"X": 2378.0, "Y": 1.0}}, {"handle_type": 0, "handle_right": {"X": 0.5, "Y": 0.0}, "interpolation": 0, "handle_left": {"X": 0.5, "Y": 1.0}, "co": {"X": 2450.0, "Y": 0.0}}]}, "has_video": {"Points": [{"interpolation": 2, "co": {"X": 1.0, "Y": -1.0}}]}, "volume": {"Points": [{"interpolation": 2, "co": {"X": 1.0, "Y": 1.0}}]}, "wave_color": {"alpha": {"Points": [{"handle_type": 0, "co": {"X": 1.0, "Y": 255.0}, "interpolation": 0, "handle_left": {"X": 0.5, "Y": 1.0}, "handle_right": {"X": 0.5, "Y": 0.0}}]}, "green": {"Points": [{"handle_type": 0, "co": {"X": 1.0, "Y": 123.0}, "interpolation": 0, "handle_left": {"X": 0.5, "Y": 1.0}, "handle_right": {"X": 0.5, "Y": 0.0}}]}, "blue": {"Points": [{"handle_type": 0, "co": {"X": 1.0, "Y": 255.0}, "interpolation": 0, "handle_left": {"X": 0.5, "Y": 1.0}, "handle_right": {"X": 0.5, "Y": 0.0}}]}, "red": {"Points": [{"handle_type": 0, "co": {"X": 1.0, "Y": 0.0}, "interpolation": 0, "handle_left": {"X": 0.5, "Y": 1.0}, "handle_right": {"X": 0.5, "Y": 0.0}}]}}, "crop_height": {"Points": [{"interpolation": 2, "co": {"X": 1.0, "Y": -1.0}}]}, "perspective_c3_y": {"Points": [{"interpolation": 2, "co": {"X": 1.0, "Y": -1.0}}]}, "shear_x": {"Points": [{"interpolation": 2, "co": {"X": 1.0, "Y": 0.0}}]}, "display": 0, "start": 0.20833333333333334, "reader": {"duration": 48.0, "pixel_ratio": {"den": 1, "num": 1}, "video_timebase": {"den": 1000, "num": 1}, "height": 768, "file_size": "460413", "vcodec": "h264", "video_stream_index": 0, "interlaced_frame": false, "path": "/home/milind/Data/Projects/ProgressCard/Clips/09-Grace Mark Titles.mkv", "audio_timebase": {"den": 1, "num": 1}, "acodec": "", "has_video": true, "audio_stream_index": -1, "video_bit_rate": 0, "width": 1366, "display_ratio": {"den": 384, "num": 683}, "channels": 0, "type": "FFmpegReader", "has_audio": false, "pixel_format": 0, "top_field_first": true, "audio_bit_rate": 0, "channel_layout": 4, "sample_rate": 0, "has_single_image": false, "video_length": "1200", "fps": {"den": 1, "num": 25}}, "title": "09-Grace Mark Titles.mkv", "perspective_c4_x": {"Points": [{"interpolation": 2, "co": {"X": 1.0, "Y": -1.0}}]}, "has_audio": {"Points": [{"interpolation": 2, "co": {"X": 1.0, "Y": -1.0}}]}, "perspective_c2_x": {"Points": [{"interpolation": 2, "co": {"X": 1.0, "Y": -1.0}}]}, "rotation": {"Points": [{"interpolation": 2, "co": {"X": 1.0, "Y": 0.0}}]}, "duration": 48.0, "layer": 3, "position": 0.20833333333333334, "anchor": 0, "location_y": {"Points": [{"handle_type": 0, "handle_right": {"X": 0.5, "Y": 0.0}, "interpolation": 0, "handle_left": {"X": 0.5, "Y": 1.0}, "co": {"X": 1.0, "Y": 0.0}}, {"interpolation": 1, "co": {"X": 436, "Y": 0.699999988079071}}]}, "scale_y": {"Points": [{"handle_type": 0, "handle_right": {"X": 0.5, "Y": 0.0}, "interpolation": 0, "handle_left": {"X": 0.5, "Y": 1.0}, "co": {"X": 1.0, "Y": 1.0}}, {"interpolation": 1, "co": {"X": 436, "Y": 3.0}}]}, "location_x": {"Points": [{"handle_type": 0, "handle_right": {"X": 0.5, "Y": 0.0}, "interpolation": 0, "handle_left": {"X": 0.5, "Y": 1.0}, "co": {"X": 1.0, "Y": 0.0}}, {"interpolation": 1, "co": {"X": 436, "Y": 0.5}}]}, "waveform": false, "id": "YX0UFQ3Z3A", "time": {"Points": [{"interpolation": 2, "co": {"X": 1.0, "Y": 1.0}}]}, "perspective_c2_y": {"Points": [{"interpolation": 2, "co": {"X": 1.0, "Y": -1.0}}]}, "perspective_c4_y": {"Points": [{"interpolation": 2, "co": {"X": 1.0, "Y": -1.0}}]}, "crop_y": {"Points": [{"interpolation": 2, "co": {"X": 1.0, "Y": 0.0}}]}}, "partial": false, "key": ["clips", {"id": "YX0UFQ3Z3A"}]}, {"type": "insert", "value": {"crop_width": {"Points": [{"interpolation": 2, "co": {"X": 1.0, "Y": -1.0}}]}, "channel_mapping": {"Points": [{"interpolation": 2, "co": {"X": 1.0, "Y": -1.0}}]}, "perspective_c3_x": {"Points": [{"interpolation": 2, "co": {"X": 1.0, "Y": -1.0}}]}, "effects": [], "perspective_c2_y": {"Points": [{"interpolation": 2, "co": {"X": 1.0, "Y": -1.0}}]}, "channel_filter": {"Points": [{"interpolation": 2, "co": {"X": 1.0, "Y": -1.0}}]}, "scale": 1, "perspective_c1_y": {"Points": [{"interpolation": 2, "co": {"X": 1.0, "Y": -1.0}}]}, "alpha": {"Points": [{"interpolation": 2, "co": {"X": 1.0, "Y": 1.0}}]}, "shear_y": {"Points": [{"interpolation": 2, "co": {"X": 1.0, "Y": 0.0}}]}, "crop_x": {"Points": [{"interpolation": 2, "co": {"X": 1.0, "Y": 0.0}}]}, "end": 48.0, "file_id": "BGTBTEAKWJ", "image": "/home/milind/.openshot_qt/thumbnail/BGTBTEAKWJ.png", "gravity": 4, "has_video": {"Points": [{"interpolation": 2, "co": {"X": 1.0, "Y": -1.0}}]}, "display": 0, "duration": 48.0, "crop_height": {"Points": [{"interpolation": 2, "co": {"X": 1.0, "Y": -1.0}}]}, "reader": {"duration": 48.0, "pixel_ratio": {"den": 1, "num": 1}, "sample_rate": 0, "video_timebase": {"den": 1000, "num": 1}, "height": 768, "file_size": "460413", "vcodec": "h264", "video_stream_index": 0, "interlaced_frame": false, "path": "/home/milind/Data/Projects/ProgressCard/Clips/09-Grace Mark Titles.mkv", "audio_timebase": {"den": 1, "num": 1}, "acodec": "", "has_video": true, "audio_stream_index": -1, "has_single_image": false, "video_bit_rate": 0, "width": 1366, "channels": 0, "type": "FFmpegReader", "has_audio": false, "top_field_first": true, "audio_bit_rate": 0, "channel_layout": 4, "display_ratio": {"den": 384, "num": 683}, "pixel_format": 0, "video_length": "1200", "fps": {"den": 1, "num": 25}}, "shear_x": {"Points": [{"interpolation": 2, "co": {"X": 1.0, "Y": 0.0}}]}, "volume": {"Points": [{"interpolation": 2, "co": {"X": 1.0, "Y": 1.0}}]}, "start": 0.0, "perspective_c3_y": {"Points": [{"interpolation": 2, "co": {"X": 1.0, "Y": -1.0}}]}, "title": "09-Grace Mark Titles.mkv", "wave_color": {"alpha": {"Points": [{"handle_type": 0, "co": {"X": 1.0, "Y": 255.0}, "interpolation": 0, "handle_left": {"X": 0.5, "Y": 1.0}, "handle_right": {"X": 0.5, "Y": 0.0}}]}, "green": {"Points": [{"handle_type": 0, "co": {"X": 1.0, "Y": 123.0}, "interpolation": 0, "handle_left": {"X": 0.5, "Y": 1.0}, "handle_right": {"X": 0.5, "Y": 0.0}}]}, "blue": {"Points": [{"handle_type": 0, "co": {"X": 1.0, "Y": 255.0}, "interpolation": 0, "handle_left": {"X": 0.5, "Y": 1.0}, "handle_right": {"X": 0.5, "Y": 0.0}}]}, "red": {"Points": [{"handle_type": 0, "co": {"X": 1.0, "Y": 0.0}, "interpolation": 0, "handle_left": {"X": 0.5, "Y": 1.0}, "handle_right": {"X": 0.5, "Y": 0.0}}]}}, "has_audio": {"Points": [{"interpolation": 2, "co": {"X": 1.0, "Y": -1.0}}]}, "perspective_c2_x": {"Points": [{"interpolation": 2, "co": {"X": 1.0, "Y": -1.0}}]}, "crop_y": {"Points": [{"interpolation": 2, "co": {"X": 1.0, "Y": 0.0}}]}, "perspective_c1_x": {"Points": [{"interpolation": 2, "co": {"X": 1.0, "Y": -1.0}}]}, "layer": 4, "position": 23.52, "anchor": 0, "perspective_c4_x": {"Points": [{"interpolation": 2, "co": {"X": 1.0, "Y": -1.0}}]}, "location_y": {"Points": [{"interpolation": 2, "co": {"X": 1.0, "Y": 0.0}}]}, "scale_y": {"Points": [{"interpolation": 2, "co": {"X": 1.0, "Y": 1.0}}]}, "location_x": {"Points": [{"interpolation": 2, "co": {"X": 1.0, "Y": 0.0}}]}, "waveform": false, "id": "B8ON3103P9", "time": {"Points": [{"interpolation": 2, "co": {"X": 1.0, "Y": 1.0}}]}, "scale_x": {"Points": [{"interpolation": 2, "co": {"X": 1.0, "Y": 1.0}}]}, "perspective_c4_y": {"Points": [{"interpolation": 2, "co": {"X": 1.0, "Y": -1.0}}]}, "rotation": {"Points": [{"interpolation": 2, "co": {"X": 1.0, "Y": 0.0}}]}}, "old_values": [], "partial": false, "key": ["clips"]}, {"type": "delete", "value": null, "old_values": {"crop_width": {"Points": [{"interpolation": 2, "co": {"X": 1.0, "Y": -1.0}}]}, "channel_filter": {"Points": [{"interpolation": 2, "co": {"X": 1.0, "Y": -1.0}}]}, "perspective_c3_x": {"Points": [{"interpolation": 2, "co": {"X": 1.0, "Y": -1.0}}]}, "effects": [], "perspective_c2_y": {"Points": [{"interpolation": 2, "co": {"X": 1.0, "Y": -1.0}}]}, "channel_mapping": {"Points": [{"interpolation": 2, "co": {"X": 1.0, "Y": -1.0}}]}, "scale_x": {"Points": [{"interpolation": 2, "co": {"X": 1.0, "Y": 1.0}}]}, "scale": 1, "perspective_c1_y": {"Points": [{"interpolation": 2, "co": {"X": 1.0, "Y": -1.0}}]}, "alpha": {"Points": [{"interpolation": 2, "co": {"X": 1.0, "Y": 1.0}}]}, "shear_y": {"Points": [{"interpolation": 2, "co": {"X": 1.0, "Y": 0.0}}]}, "crop_x": {"Points": [{"interpolation": 2, "co": {"X": 1.0, "Y": 0.0}}]}, "end": 48.0, "file_id": "BGTBTEAKWJ", "image": "/home/milind/.openshot_qt/thumbnail/BGTBTEAKWJ.png", "gravity": 4, "has_video": {"Points": [{"interpolation": 2, "co": {"X": 1.0, "Y": -1.0}}]}, "display": 0, "duration": 48.0, "crop_height": {"Points": [{"interpolation": 2, "co": {"X": 1.0, "Y": -1.0}}]}, "perspective_c3_y": {"Points": [{"interpolation": 2, "co": {"X": 1.0, "Y": -1.0}}]}, "shear_x": {"Points": [{"interpolation": 2, "co": {"X": 1.0, "Y": 0.0}}]}, "volume": {"Points": [{"interpolation": 2, "co": {"X": 1.0, "Y": 1.0}}]}, "start": 0.0, "reader": {"duration": 48.0, "pixel_ratio": {"den": 1, "num": 1}, "video_timebase": {"den": 1000, "num": 1}, "height": 768, "file_size": "460413", "vcodec": "h264", "video_stream_index": 0, "interlaced_frame": false, "path": "/home/milind/Data/Projects/ProgressCard/Clips/09-Grace Mark Titles.mkv", "audio_timebase": {"den": 1, "num": 1}, "acodec": "", "has_video": true, "audio_stream_index": -1, "video_bit_rate": 0, "width": 1366, "display_ratio": {"den": 384, "num": 683}, "channels": 0, "type": "FFmpegReader", "has_audio": false, "pixel_format": 0, "top_field_first": true, "audio_bit_rate": 0, "channel_layout": 4, "sample_rate": 0, "has_single_image": false, "video_length": "1200", "fps": {"den": 1, "num": 25}}, "title": "09-Grace Mark Titles.mkv", "wave_color": {"alpha": {"Points": [{"handle_type": 0, "handle_right": {"X": 0.5, "Y": 0.0}, "interpolation": 0, "handle_left": {"X": 0.5, "Y": 1.0}, "co": {"X": 1.0, "Y": 255.0}}]}, "green": {"Points": [{"handle_type": 0, "handle_right": {"X": 0.5, "Y": 0.0}, "interpolation": 0, "handle_left": {"X": 0.5, "Y": 1.0}, "co": {"X": 1.0, "Y": 123.0}}]}, "red": {"Points": [{"handle_type": 0, "handle_right": {"X": 0.5, "Y": 0.0}, "interpolation": 0, "handle_left": {"X": 0.5, "Y": 1.0}, "co": {"X": 1.0, "Y": 0.0}}]}, "blue": {"Points": [{"handle_type": 0, "handle_right": {"X": 0.5, "Y": 0.0}, "interpolation": 0, "handle_left": {"X": 0.5, "Y": 1.0}, "co": {"X": 1.0, "Y": 255.0}}]}}, "has_audio": {"Points": [{"interpolation": 2, "co": {"X": 1.0, "Y": -1.0}}]}, "perspective_c2_x": {"Points": [{"interpolation": 2, "co": {"X": 1.0, "Y": -1.0}}]}, "rotation": {"Points": [{"interpolation": 2, "co": {"X": 1.0, "Y": 0.0}}]}, "layer": 4, "position": 23.52, "anchor": 0, "perspective_c4_x": {"Points": [{"interpolation": 2, "co": {"X": 1.0, "Y": -1.0}}]}, "location_y": {"Points": [{"interpolation": 2, "co": {"X": 1.0, "Y": 0.0}}]}, "scale_y": {"Points": [{"interpolation": 2, "co": {"X": 1.0, "Y": 1.0}}]}, "location_x": {"Points": [{"interpolation": 2, "co": {"X": 1.0, "Y": 0.0}}]}, "waveform": false, "id": "B8ON3103P9", "time": {"Points": [{"interpolation": 2, "co": {"X": 1.0, "Y": 1.0}}]}, "perspective_c1_x": {"Points": [{"interpolation": 2, "co": {"X": 1.0, "Y": -1.0}}]}, "perspective_c4_y": {"Points": [{"interpolation": 2, "co": {"X": 1.0, "Y": -1.0}}]}, "crop_y": {"Points": [{"interpolation": 2, "co": {"X": 1.0, "Y": 0.0}}]}}, "partial": false, "key": ["clips", {"id": "B8ON3103P9"}]}, {"type": "insert", "value": {"crop_width": {"Points": [{"interpolation": 2, "co": {"X": 1.0, "Y": -1.0}}]}, "channel_mapping": {"Points": [{"interpolation": 2, "co": {"X": 1.0, "Y": -1.0}}]}, "perspective_c3_x": {"Points": [{"interpolation": 2, "co": {"X": 1.0, "Y": -1.0}}]}, "effects": [], "perspective_c1_x": {"Points": [{"interpolation": 2, "co": {"X": 1.0, "Y": -1.0}}]}, "channel_filter": {"Points": [{"interpolation": 2, "co": {"X": 1.0, "Y": -1.0}}]}, "scale": 1, "perspective_c1_y": {"Points": [{"interpolation": 2, "co": {"X": 1.0, "Y": -1.0}}]}, "alpha": {"Points": [{"interpolation": 2, "co": {"X": 1.0, "Y": 1.0}}]}, "shear_y": {"Points": [{"interpolation": 2, "co": {"X": 1.0, "Y": 0.0}}]}, "crop_x": {"Points": [{"interpolation": 2, "co": {"X": 1.0, "Y": 0.0}}]}, "end": 48, "file_id": "BGTBTEAKWJ", "image": "/home/milind/.openshot_qt/thumbnail/BGTBTEAKWJ.png", "gravity": 4, "has_video": {"Points": [{"interpolation": 2, "co": {"X": 1.0, "Y": -1.0}}]}, "display": 0, "perspective_c4_x": {"Points": [{"interpolation": 2, "co": {"X": 1.0, "Y": -1.0}}]}, "crop_height": {"Points": [{"interpolation": 2, "co": {"X": 1.0, "Y": -1.0}}]}, "reader": {"duration": 48.0, "pixel_ratio": {"den": 1, "num": 1}, "sample_rate": 0, "video_timebase": {"den": 1000, "num": 1}, "height": 768, "file_size": "460413", "vcodec": "h264", "video_stream_index": 0, "interlaced_frame": false, "path": "/home/milind/Data/Projects/ProgressCard/Clips/09-Grace Mark Titles.mkv", "audio_timebase": {"den": 1, "num": 1}, "acodec": "", "has_video": true, "audio_stream_index": -1, "has_single_image": false, "video_bit_rate": 0, "width": 1366, "channels": 0, "type": "FFmpegReader", "has_audio": false, "top_field_first": true, "audio_bit_rate": 0, "channel_layout": 4, "display_ratio": {"den": 384, "num": 683}, "pixel_format": 0, "video_length": "1200", "fps": {"den": 1, "num": 25}}, "perspective_c2_y": {"Points": [{"interpolation": 2, "co": {"X": 1.0, "Y": -1.0}}]}, "shear_x": {"Points": [{"interpolation": 2, "co": {"X": 1.0, "Y": 0.0}}]}, "volume": {"Points": [{"interpolation": 2, "co": {"X": 1.0, "Y": 1.0}}]}, "start": 0, "perspective_c3_y": {"Points": [{"interpolation": 2, "co": {"X": 1.0, "Y": -1.0}}]}, "title": "09-Grace Mark Titles.mkv", "wave_color": {"alpha": {"Points": [{"handle_type": 0, "co": {"X": 1.0, "Y": 255.0}, "interpolation": 0, "handle_left": {"X": 0.5, "Y": 1.0}, "handle_right": {"X": 0.5, "Y": 0.0}}]}, "green": {"Points": [{"handle_type": 0, "co": {"X": 1.0, "Y": 123.0}, "interpolation": 0, "handle_left": {"X": 0.5, "Y": 1.0}, "handle_right": {"X": 0.5, "Y": 0.0}}]}, "blue": {"Points": [{"handle_type": 0, "co": {"X": 1.0, "Y": 255.0}, "interpolation": 0, "handle_left": {"X": 0.5, "Y": 1.0}, "handle_right": {"X": 0.5, "Y": 0.0}}]}, "red": {"Points": [{"handle_type": 0, "co": {"X": 1.0, "Y": 0.0}, "interpolation": 0, "handle_left": {"X": 0.5, "Y": 1.0}, "handle_right": {"X": 0.5, "Y": 0.0}}]}}, "has_audio": {"Points": [{"interpolation": 2, "co": {"X": 1.0, "Y": -1.0}}]}, "perspective_c2_x": {"Points": [{"interpolation": 2, "co": {"X": 1.0, "Y": -1.0}}]}, "crop_y": {"Points": [{"interpolation": 2, "co": {"X": 1.0, "Y": 0.0}}]}, "duration": 48.0, "layer": 3, "position": 0.20999999344348907, "anchor": 0, "location_y": {"Points": [{"interpolation": 2, "co": {"X": 1.0, "Y": 0.699999988079071}}]}, "scale_y": {"Points": [{"interpolation": 2, "co": {"X": 1.0, "Y": 3.0}}]}, "location_x": {"Points": [{"interpolation": 2, "co": {"X": 1.0, "Y": 0.5}}]}, "waveform": false, "id": "IQLQFEQVTT", "time": {"Points": [{"interpolation": 2, "co": {"X": 1.0, "Y": 1.0}}]}, "scale_x": {"Points": [{"interpolation": 2, "co": {"X": 1.0, "Y": 3.0}}]}, "perspective_c4_y": {"Points": [{"interpolation": 2, "co": {"X": 1.0, "Y": -1.0}}]}, "rotation": {"Points": [{"interpolation": 2, "co": {"X": 1.0, "Y": 0.0}}]}}, "old_values": [], "partial": false, "key": ["clips"]}, {"type": "update", "value": {"position": 0, "start": 0, "layer": 3, "image": "/home/milind/.openshot_qt/thumbnail/BGTBTEAKWJ.png", "end": 48, "id": "IQLQFEQVTT"}, "old_values": null, "partial": false, "key": ["clips", {"id": "IQLQFEQVTT"}]}, {"type": "update", "value": {"position": 0, "start": 0, "layer": 3, "image": "/home/milind/.openshot_qt/thumbnail/BGTBTEAKWJ.png", "end": 48, "id": "IQLQFEQVTT"}, "old_values": null, "partial": false, "key": ["clips", {"id": "IQLQFEQVTT"}]}, {"type": "update", "value": {"location_x": {"Points": [{"interpolation": 2, "co": {"X": 1.0, "Y": 0.5}}]}}, "old_values": null, "partial": false, "key": ["clips", {"id": "IQLQFEQVTT"}]}, {"type": "update", "value": {"location_x": {"Points": [{"interpolation": 2, "co": {"X": 1.0, "Y": 0.5}}]}}, "old_values": null, "partial": false, "key": ["clips", {"id": "IQLQFEQVTT"}]}, {"type": "update", "value": {"location_x": {"Points": [{"interpolation": 2, "co": {"X": 1.0, "Y": 0.5}}]}}, "old_values": null, "partial": false, "key": ["clips", {"id": "IQLQFEQVTT"}]}, {"type": "update", "value": {"location_y": {"Points": [{"interpolation": 2, "co": {"X": 1.0, "Y": 0.699999988079071}}]}}, "old_values": null, "partial": false, "key": ["clips", {"id": "IQLQFEQVTT"}]}, {"type": "update", "value": {"location_y": {"Points": [{"interpolation": 2, "co": {"X": 1.0, "Y": 0.699999988079071}}]}}, "old_values": null, "partial": false, "key": ["clips", {"id": "IQLQFEQVTT"}]}, {"type": "update", "value": {"location_y": {"Points": [{"interpolation": 2, "co": {"X": 1.0, "Y": 0.699999988079071}}]}}, "old_values": null, "partial": false, "key": ["clips", {"id": "IQLQFEQVTT"}]}, {"type": "update", "value": {"position": 0.20999999344348907}, "old_values": null, "partial": false, "key": ["clips", {"id": "IQLQFEQVTT"}]}, {"type": "update", "value": {"position": 0.20999999344348907}, "old_values": null, "partial": false, "key": ["clips", {"id": "IQLQFEQVTT"}]}, {"type": "update", "value": {"position": 0.20999999344348907}, "old_values": null, "partial": false, "key": ["clips", {"id": "IQLQFEQVTT"}]}, {"type": "update", "value": {"scale_x": {"Points": [{"interpolation": 2, "co": {"X": 1.0, "Y": 3.0}}]}}, "old_values": null, "partial": false, "key": ["clips", {"id": "IQLQFEQVTT"}]}, {"type": "update", "value": {"scale_x": {"Points": [{"interpolation": 2, "co": {"X": 1.0, "Y": 3.0}}]}}, "old_values": null, "partial": false, "key": ["clips", {"id": "IQLQFEQVTT"}]}, {"type": "update", "value": {"scale_x": {"Points": [{"interpolation": 2, "co": {"X": 1.0, "Y": 3.0}}]}}, "old_values": null, "partial": false, "key": ["clips", {"id": "IQLQFEQVTT"}]}, {"type": "update", "value": {"scale_y": {"Points": [{"interpolation": 2, "co": {"X": 1.0, "Y": 3.0}}]}}, "old_values": null, "partial": false, "key": ["clips", {"id": "IQLQFEQVTT"}]}, {"type": "update", "value": {"scale_y": {"Points": [{"interpolation": 2, "co": {"X": 1.0, "Y": 3.0}}]}}, "old_values": null, "partial": false, "key": ["clips", {"id": "IQLQFEQVTT"}]}]}, "key": ["history"], "old_values": null, "partial": false}, {"type": "update", "value": {"location_x": {"Points": [{"interpolation": 2, "co": {"X": 1.0, "Y": 0.5}}, {"interpolation": 1, "co": {"X": 383, "Y": 0.6000000238418579}}]}}, "key": ["clips", {"id": "IQLQFEQVTT"}], "old_values": null, "partial": false}, {"type": "update", "value": {"location_x": {"Points": [{"interpolation": 2, "co": {"X": 1.0, "Y": 0.5}}, {"interpolation": 1, "co": {"X": 383, "Y": 0.6000000238418579}}]}}, "key": ["clips", {"id": "IQLQFEQVTT"}], "old_values": null, "partial": false}, {"type": "update", "value": {"location_x": {"Points": [{"interpolation": 2, "co": {"X": 1.0, "Y": 0.5}}, {"interpolation": 1, "co": {"X": 383, "Y": 0.6000000238418579}}]}}, "key": ["clips", {"id": "IQLQFEQVTT"}], "old_values": null, "partial": false}, {"type": "update", "value": {"location_x": {"Points": [{"interpolation": 2, "co": {"X": 1.0, "Y": 0.5}}, {"interpolation": 1, "co": {"X": 383, "Y": 0.4000000059604645}}]}}, "key": ["clips", {"id": "IQLQFEQVTT"}], "old_values": {"crop_width": {"Points": [{"interpolation": 2, "co": {"X": 1.0, "Y": -1.0}}]}, "channel_mapping": {"Points": [{"interpolation": 2, "co": {"X": 1.0, "Y": -1.0}}]}, "perspective_c3_x": {"Points": [{"interpolation": 2, "co": {"X": 1.0, "Y": -1.0}}]}, "effects": [], "perspective_c1_x": {"Points": [{"interpolation": 2, "co": {"X": 1.0, "Y": -1.0}}]}, "channel_filter": {"Points": [{"interpolation": 2, "co": {"X": 1.0, "Y": -1.0}}]}, "scale": 1, "perspective_c1_y": {"Points": [{"interpolation": 2, "co": {"X": 1.0, "Y": -1.0}}]}, "alpha": {"Points": [{"interpolation": 2, "co": {"X": 1.0, "Y": 1.0}}]}, "shear_y": {"Points": [{"interpolation": 2, "co": {"X": 1.0, "Y": 0.0}}]}, "crop_x": {"Points": [{"interpolation": 2, "co": {"X": 1.0, "Y": 0.0}}]}, "end": 48, "file_id": "BGTBTEAKWJ", "image": "/home/milind/.openshot_qt/thumbnail/BGTBTEAKWJ.png", "gravity": 4, "has_video": {"Points": [{"interpolation": 2, "co": {"X": 1.0, "Y": -1.0}}]}, "display": 0, "perspective_c4_x": {"Points": [{"interpolation": 2, "co": {"X": 1.0, "Y": -1.0}}]}, "crop_height": {"Points": [{"interpolation": 2, "co": {"X": 1.0, "Y": -1.0}}]}, "reader": {"duration": 48.0, "pixel_ratio": {"den": 1, "num": 1}, "sample_rate": 0, "video_timebase": {"den": 1000, "num": 1}, "height": 768, "file_size": "460413", "vcodec": "h264", "video_stream_index": 0, "interlaced_frame": false, "path": "/home/milind/Data/Projects/ProgressCard/Clips/09-Grace Mark Titles.mkv", "audio_timebase": {"den": 1, "num": 1}, "acodec": "", "has_video": true, "audio_stream_index": -1, "has_single_image": false, "video_bit_rate": 0, "width": 1366, "channels": 0, "type": "FFmpegReader", "has_audio": false, "top_field_first": true, "audio_bit_rate": 0, "channel_layout": 4, "display_ratio": {"den": 384, "num": 683}, "pixel_format": 0, "video_length": "1200", "fps": {"den": 1, "num": 25}}, "perspective_c2_y": {"Points": [{"interpolation": 2, "co": {"X": 1.0, "Y": -1.0}}]}, "shear_x": {"Points": [{"interpolation": 2, "co": {"X": 1.0, "Y": 0.0}}]}, "volume": {"Points": [{"interpolation": 2, "co": {"X": 1.0, "Y": 1.0}}]}, "start": 0, "perspective_c3_y": {"Points": [{"interpolation": 2, "co": {"X": 1.0, "Y": -1.0}}]}, "title": "09-Grace Mark Titles.mkv", "wave_color": {"alpha": {"Points": [{"handle_type": 0, "co": {"X": 1.0, "Y": 255.0}, "interpolation": 0, "handle_left": {"X": 0.5, "Y": 1.0}, "handle_right": {"X": 0.5, "Y": 0.0}}]}, "green": {"Points": [{"handle_type": 0, "co": {"X": 1.0, "Y": 123.0}, "interpolation": 0, "handle_left": {"X": 0.5, "Y": 1.0}, "handle_right": {"X": 0.5, "Y": 0.0}}]}, "blue": {"Points": [{"handle_type": 0, "co": {"X": 1.0, "Y": 255.0}, "interpolation": 0, "handle_left": {"X": 0.5, "Y": 1.0}, "handle_right": {"X": 0.5, "Y": 0.0}}]}, "red": {"Points": [{"handle_type": 0, "co": {"X": 1.0, "Y": 0.0}, "interpolation": 0, "handle_left": {"X": 0.5, "Y": 1.0}, "handle_right": {"X": 0.5, "Y": 0.0}}]}}, "has_audio": {"Points": [{"interpolation": 2, "co": {"X": 1.0, "Y": -1.0}}]}, "perspective_c2_x": {"Points": [{"interpolation": 2, "co": {"X": 1.0, "Y": -1.0}}]}, "crop_y": {"Points": [{"interpolation": 2, "co": {"X": 1.0, "Y": 0.0}}]}, "duration": 48.0, "layer": 3, "position": 0.20999999344348907, "anchor": 0, "location_y": {"Points": [{"interpolation": 2, "co": {"X": 1.0, "Y": 0.699999988079071}}]}, "scale_y": {"Points": [{"interpolation": 2, "co": {"X": 1.0, "Y": 3.0}}]}, "location_x": {"Points": [{"interpolation": 2, "co": {"X": 1.0, "Y": 0.5}}, {"interpolation": 1, "co": {"X": 383, "Y": 0.6000000238418579}}]}, "waveform": false, "id": "IQLQFEQVTT", "time": {"Points": [{"interpolation": 2, "co": {"X": 1.0, "Y": 1.0}}]}, "scale_x": {"Points": [{"interpolation": 2, "co": {"X": 1.0, "Y": 3.0}}]}, "perspective_c4_y": {"Points": [{"interpolation": 2, "co": {"X": 1.0, "Y": -1.0}}]}, "rotation": {"Points": [{"interpolation": 2, "co": {"X": 1.0, "Y": 0.0}}]}}, "partial": false}, {"type": "update", "value": {"redo": [], "undo": [{"type": "update", "value": {"location_x": {"Points": [{"interpolation": 2, "co": {"X": 1.0, "Y": 0.5}}]}}, "old_values": null, "partial": false, "key": ["clips", {"id": "IQLQFEQVTT"}]}, {"type": "update", "value": {"location_x": {"Points": [{"interpolation": 2, "co": {"X": 1.0, "Y": 0.5}}]}}, "old_values": null, "partial": false, "key": ["clips", {"id": "IQLQFEQVTT"}]}, {"type": "update", "value": {"location_x": {"Points": [{"interpolation": 2, "co": {"X": 1.0, "Y": 0.5}}]}}, "old_values": null, "partial": false, "key": ["clips", {"id": "IQLQFEQVTT"}]}, {"type": "update", "value": {"location_y": {"Points": [{"interpolation": 2, "co": {"X": 1.0, "Y": 0.699999988079071}}]}}, "old_values": null, "partial": false, "key": ["clips", {"id": "IQLQFEQVTT"}]}, {"type": "update", "value": {"location_y": {"Points": [{"interpolation": 2, "co": {"X": 1.0, "Y": 0.699999988079071}}]}}, "old_values": null, "partial": false, "key": ["clips", {"id": "IQLQFEQVTT"}]}, {"type": "update", "value": {"location_y": {"Points": [{"interpolation": 2, "co": {"X": 1.0, "Y": 0.699999988079071}}]}}, "old_values": null, "partial": false, "key": ["clips", {"id": "IQLQFEQVTT"}]}, {"type": "update", "value": {"position": 0.20999999344348907}, "old_values": null, "partial": false, "key": ["clips", {"id": "IQLQFEQVTT"}]}, {"type": "update", "value": {"position": 0.20999999344348907}, "old_values": null, "partial": false, "key": ["clips", {"id": "IQLQFEQVTT"}]}, {"type": "update", "value": {"position": 0.20999999344348907}, "old_values": null, "partial": false, "key": ["clips", {"id": "IQLQFEQVTT"}]}, {"type": "update", "value": {"scale_x": {"Points": [{"interpolation": 2, "co": {"X": 1.0, "Y": 3.0}}]}}, "old_values": null, "partial": false, "key": ["clips", {"id": "IQLQFEQVTT"}]}, {"type": "update", "value": {"scale_x": {"Points": [{"interpolation": 2, "co": {"X": 1.0, "Y": 3.0}}]}}, "old_values": null, "partial": false, "key": ["clips", {"id": "IQLQFEQVTT"}]}, {"type": "update", "value": {"scale_x": {"Points": [{"interpolation": 2, "co": {"X": 1.0, "Y": 3.0}}]}}, "old_values": null, "partial": false, "key": ["clips", {"id": "IQLQFEQVTT"}]}, {"type": "update", "value": {"scale_y": {"Points": [{"interpolation": 2, "co": {"X": 1.0, "Y": 3.0}}]}}, "old_values": null, "partial": false, "key": ["clips", {"id": "IQLQFEQVTT"}]}, {"type": "update", "value": {"scale_y": {"Points": [{"interpolation": 2, "co": {"X": 1.0, "Y": 3.0}}]}}, "old_values": null, "partial": false, "key": ["clips", {"id": "IQLQFEQVTT"}]}, {"type": "update", "value": {"redo": [], "undo": [{"type": "delete", "value": null, "key": ["clips", {"id": "YX0UFQ3Z3A"}], "old_values": {"crop_width": {"Points": [{"interpolation": 2, "co": {"X": 1.0, "Y": -1.0}}]}, "channel_mapping": {"Points": [{"interpolation": 2, "co": {"X": 1.0, "Y": -1.0}}]}, "perspective_c3_x": {"Points": [{"interpolation": 2, "co": {"X": 1.0, "Y": -1.0}}]}, "effects": [], "perspective_c1_x": {"Points": [{"interpolation": 2, "co": {"X": 1.0, "Y": -1.0}}]}, "channel_filter": {"Points": [{"interpolation": 2, "co": {"X": 1.0, "Y": -1.0}}]}, "scale": 1, "perspective_c1_y": {"Points": [{"interpolation": 2, "co": {"X": 1.0, "Y": -1.0}}]}, "gravity": 4, "shear_y": {"Points": [{"interpolation": 2, "co": {"X": 1.0, "Y": 0.0}}]}, "crop_x": {"Points": [{"interpolation": 2, "co": {"X": 1.0, "Y": 0.0}}]}, "end": 43.708333333333336, "file_id": "BGTBTEAKWJ", "image": "/home/milind/.openshot_qt/thumbnail/YX0UFQ3Z3A-6.png", "alpha": {"Points": [{"handle_type": 0, "co": {"X": 1.0, "Y": 1.0}, "interpolation": 0, "handle_left": {"X": 0.5, "Y": 1.0}, "handle_right": {"X": 0.5, "Y": 0.0}}, {"handle_type": 0, "co": {"X": 7.0, "Y": 0.0}, "interpolation": 0, "handle_left": {"X": 0.5, "Y": 1.0}, "handle_right": {"X": 0.5, "Y": 0.0}}, {"handle_type": 0, "co": {"X": 79.0, "Y": 1.0}, "interpolation": 0, "handle_left": {"X": 0.5, "Y": 1.0}, "handle_right": {"X": 0.5, "Y": 0.0}}, {"handle_type": 0, "co": {"X": 2378.0, "Y": 1.0}, "interpolation": 0, "handle_left": {"X": 0.5, "Y": 1.0}, "handle_right": {"X": 0.5, "Y": 0.0}}, {"handle_type": 0, "co": {"X": 2450.0, "Y": 0.0}, "interpolation": 0, "handle_left": {"X": 0.5, "Y": 1.0}, "handle_right": {"X": 0.5, "Y": 0.0}}]}, "has_video": {"Points": [{"interpolation": 2, "co": {"X": 1.0, "Y": -1.0}}]}, "volume": {"Points": [{"interpolation": 2, "co": {"X": 1.0, "Y": 1.0}}]}, "wave_color": {"alpha": {"Points": [{"handle_type": 0, "handle_right": {"X": 0.5, "Y": 0.0}, "interpolation": 0, "handle_left": {"X": 0.5, "Y": 1.0}, "co": {"X": 1.0, "Y": 255.0}}]}, "green": {"Points": [{"handle_type": 0, "handle_right": {"X": 0.5, "Y": 0.0}, "interpolation": 0, "handle_left": {"X": 0.5, "Y": 1.0}, "co": {"X": 1.0, "Y": 123.0}}]}, "red": {"Points": [{"handle_type": 0, "handle_right": {"X": 0.5, "Y": 0.0}, "interpolation": 0, "handle_left": {"X": 0.5, "Y": 1.0}, "co": {"X": 1.0, "Y": 0.0}}]}, "blue": {"Points": [{"handle_type": 0, "handle_right": {"X": 0.5, "Y": 0.0}, "interpolation": 0, "handle_left": {"X": 0.5, "Y": 1.0}, "co": {"X": 1.0, "Y": 255.0}}]}}, "crop_height": {"Points": [{"interpolation": 2, "co": {"X": 1.0, "Y": -1.0}}]}, "reader": {"duration": 48.0, "pixel_ratio": {"den": 1, "num": 1}, "sample_rate": 0, "video_timebase": {"den": 1000, "num": 1}, "height": 768, "file_size": "460413", "vcodec": "h264", "video_stream_index": 0, "interlaced_frame": false, "path": "/home/milind/Data/Projects/ProgressCard/Clips/09-Grace Mark Titles.mkv", "audio_timebase": {"den": 1, "num": 1}, "acodec": "", "has_video": true, "audio_stream_index": -1, "has_single_image": false, "video_bit_rate": 0, "width": 1366, "channels": 0, "type": "FFmpegReader", "has_audio": false, "top_field_first": true, "audio_bit_rate": 0, "channel_layout": 4, "display_ratio": {"den": 384, "num": 683}, "pixel_format": 0, "video_length": "1200", "fps": {"den": 1, "num": 25}}, "perspective_c2_y": {"Points": [{"interpolation": 2, "co": {"X": 1.0, "Y": -1.0}}]}, "shear_x": {"Points": [{"interpolation": 2, "co": {"X": 1.0, "Y": 0.0}}]}, "display": 0, "start": 0.20833333333333334, "perspective_c3_y": {"Points": [{"interpolation": 2, "co": {"X": 1.0, "Y": -1.0}}]}, "title": "09-Grace Mark Titles.mkv", "perspective_c4_x": {"Points": [{"interpolation": 2, "co": {"X": 1.0, "Y": -1.0}}]}, "has_audio": {"Points": [{"interpolation": 2, "co": {"X": 1.0, "Y": -1.0}}]}, "perspective_c2_x": {"Points": [{"interpolation": 2, "co": {"X": 1.0, "Y": -1.0}}]}, "crop_y": {"Points": [{"interpolation": 2, "co": {"X": 1.0, "Y": 0.0}}]}, "duration": 48.0, "layer": 3, "position": 0.20833333333333334, "anchor": 0, "location_y": {"Points": [{"handle_type": 0, "co": {"X": 1.0, "Y": 0.0}, "interpolation": 0, "handle_left": {"X": 0.5, "Y": 1.0}, "handle_right": {"X": 0.5, "Y": 0.0}}, {"interpolation": 1, "co": {"X": 436, "Y": 0.699999988079071}}]}, "scale_y": {"Points": [{"handle_type": 0, "co": {"X": 1.0, "Y": 1.0}, "interpolation": 0, "handle_left": {"X": 0.5, "Y": 1.0}, "handle_right": {"X": 0.5, "Y": 0.0}}, {"interpolation": 1, "co": {"X": 436, "Y": 3.0}}]}, "location_x": {"Points": [{"handle_type": 0, "co": {"X": 1.0, "Y": 0.0}, "interpolation": 0, "handle_left": {"X": 0.5, "Y": 1.0}, "handle_right": {"X": 0.5, "Y": 0.0}}, {"interpolation": 1, "co": {"X": 436, "Y": 0.5}}]}, "waveform": false, "id": "YX0UFQ3Z3A", "time": {"Points": [{"interpolation": 2, "co": {"X": 1.0, "Y": 1.0}}]}, "scale_x": {"Points": [{"handle_type": 0, "co": {"X": 1.0, "Y": 1.0}, "interpolation": 0, "handle_left": {"X": 0.5, "Y": 1.0}, "handle_right": {"X": 0.5, "Y": 0.0}}, {"interpolation": 1, "co": {"X": 436, "Y": 3.0}}]}, "perspective_c4_y": {"Points": [{"interpolation": 2, "co": {"X": 1.0, "Y": -1.0}}]}, "rotation": {"Points": [{"interpolation": 2, "co": {"X": 1.0, "Y": 0.0}}]}}, "partial": false}, {"type": "insert", "value": {"crop_width": {"Points": [{"interpolation": 2, "co": {"X": 1.0, "Y": -1.0}}]}, "channel_filter": {"Points": [{"interpolation": 2, "co": {"X": 1.0, "Y": -1.0}}]}, "perspective_c3_x": {"Points": [{"interpolation": 2, "co": {"X": 1.0, "Y": -1.0}}]}, "effects": [], "perspective_c2_y": {"Points": [{"interpolation": 2, "co": {"X": 1.0, "Y": -1.0}}]}, "channel_mapping": {"Points": [{"interpolation": 2, "co": {"X": 1.0, "Y": -1.0}}]}, "scale_x": {"Points": [{"interpolation": 2, "co": {"X": 1.0, "Y": 1.0}}]}, "scale": 1, "perspective_c1_y": {"Points": [{"interpolation": 2, "co": {"X": 1.0, "Y": -1.0}}]}, "alpha": {"Points": [{"interpolation": 2, "co": {"X": 1.0, "Y": 1.0}}]}, "shear_y": {"Points": [{"interpolation": 2, "co": {"X": 1.0, "Y": 0.0}}]}, "crop_x": {"Points": [{"interpolation": 2, "co": {"X": 1.0, "Y": 0.0}}]}, "end": 48.0, "file_id": "BGTBTEAKWJ", "image": "/home/milind/.openshot_qt/thumbnail/BGTBTEAKWJ.png", "gravity": 4, "has_video": {"Points": [{"interpolation": 2, "co": {"X": 1.0, "Y": -1.0}}]}, "display": 0, "duration": 48.0, "crop_height": {"Points": [{"interpolation": 2, "co": {"X": 1.0, "Y": -1.0}}]}, "perspective_c3_y": {"Points": [{"interpolation": 2, "co": {"X": 1.0, "Y": -1.0}}]}, "shear_x": {"Points": [{"interpolation": 2, "co": {"X": 1.0, "Y": 0.0}}]}, "volume": {"Points": [{"interpolation": 2, "co": {"X": 1.0, "Y": 1.0}}]}, "start": 0.0, "reader": {"duration": 48.0, "pixel_ratio": {"den": 1, "num": 1}, "video_timebase": {"den": 1000, "num": 1}, "height": 768, "file_size": "460413", "vcodec": "h264", "video_stream_index": 0, "interlaced_frame": false, "path": "/home/milind/Data/Projects/ProgressCard/Clips/09-Grace Mark Titles.mkv", "audio_timebase": {"den": 1, "num": 1}, "acodec": "", "has_video": true, "audio_stream_index": -1, "video_bit_rate": 0, "width": 1366, "display_ratio": {"den": 384, "num": 683}, "channels": 0, "type": "FFmpegReader", "has_audio": false, "pixel_format": 0, "top_field_first": true, "audio_bit_rate": 0, "channel_layout": 4, "sample_rate": 0, "has_single_image": false, "video_length": "1200", "fps": {"den": 1, "num": 25}}, "title": "09-Grace Mark Titles.mkv", "wave_color": {"alpha": {"Points": [{"handle_type": 0, "handle_right": {"X": 0.5, "Y": 0.0}, "interpolation": 0, "handle_left": {"X": 0.5, "Y": 1.0}, "co": {"X": 1.0, "Y": 255.0}}]}, "green": {"Points": [{"handle_type": 0, "handle_right": {"X": 0.5, "Y": 0.0}, "interpolation": 0, "handle_left": {"X": 0.5, "Y": 1.0}, "co": {"X": 1.0, "Y": 123.0}}]}, "red": {"Points": [{"handle_type": 0, "handle_right": {"X": 0.5, "Y": 0.0}, "interpolation": 0, "handle_left": {"X": 0.5, "Y": 1.0}, "co": {"X": 1.0, "Y": 0.0}}]}, "blue": {"Points": [{"handle_type": 0, "handle_right": {"X": 0.5, "Y": 0.0}, "interpolation": 0, "handle_left": {"X": 0.5, "Y": 1.0}, "co": {"X": 1.0, "Y": 255.0}}]}}, "has_audio": {"Points": [{"interpolation": 2, "co": {"X": 1.0, "Y": -1.0}}]}, "perspective_c2_x": {"Points": [{"interpolation": 2, "co": {"X": 1.0, "Y": -1.0}}]}, "rotation": {"Points": [{"interpolation": 2, "co": {"X": 1.0, "Y": 0.0}}]}, "layer": 4, "position": 23.52, "anchor": 0, "perspective_c4_x": {"Points": [{"interpolation": 2, "co": {"X": 1.0, "Y": -1.0}}]}, "location_y": {"Points": [{"interpolation": 2, "co": {"X": 1.0, "Y": 0.0}}]}, "scale_y": {"Points": [{"interpolation": 2, "co": {"X": 1.0, "Y": 1.0}}]}, "location_x": {"Points": [{"interpolation": 2, "co": {"X": 1.0, "Y": 0.0}}]}, "waveform": false, "id": "B8ON3103P9", "time": {"Points": [{"interpolation": 2, "co": {"X": 1.0, "Y": 1.0}}]}, "perspective_c1_x": {"Points": [{"interpolation": 2, "co": {"X": 1.0, "Y": -1.0}}]}, "perspective_c4_y": {"Points": [{"interpolation": 2, "co": {"X": 1.0, "Y": -1.0}}]}, "crop_y": {"Points": [{"interpolation": 2, "co": {"X": 1.0, "Y": 0.0}}]}}, "key": ["clips"], "old_values": [], "partial": false}, {"type": "delete", "value": null, "key": ["clips", {"id": "B8ON3103P9"}], "old_values": {"crop_width": {"Points": [{"interpolation": 2, "co": {"X": 1.0, "Y": -1.0}}]}, "channel_mapping": {"Points": [{"interpolation": 2, "co": {"X": 1.0, "Y": -1.0}}]}, "perspective_c3_x": {"Points": [{"interpolation": 2, "co": {"X": 1.0, "Y": -1.0}}]}, "effects": [], "perspective_c2_y": {"Points": [{"interpolation": 2, "co": {"X": 1.0, "Y": -1.0}}]}, "channel_filter": {"Points": [{"interpolation": 2, "co": {"X": 1.0, "Y": -1.0}}]}, "scale": 1, "perspective_c1_y": {"Points": [{"interpolation": 2, "co": {"X": 1.0, "Y": -1.0}}]}, "alpha": {"Points": [{"interpolation": 2, "co": {"X": 1.0, "Y": 1.0}}]}, "shear_y": {"Points": [{"interpolation": 2, "co": {"X": 1.0, "Y": 0.0}}]}, "crop_x": {"Points": [{"interpolation": 2, "co": {"X": 1.0, "Y": 0.0}}]}, "end": 48.0, "file_id": "BGTBTEAKWJ", "image": "/home/milind/.openshot_qt/thumbnail/BGTBTEAKWJ.png", "gravity": 4, "has_video": {"Points": [{"interpolation": 2, "co": {"X": 1.0, "Y": -1.0}}]}, "display": 0, "duration": 48.0, "crop_height": {"Points": [{"interpolation": 2, "co": {"X": 1.0, "Y": -1.0}}]}, "reader": {"duration": 48.0, "pixel_ratio": {"den": 1, "num": 1}, "sample_rate": 0, "video_timebase": {"den": 1000, "num": 1}, "height": 768, "file_size": "460413", "vcodec": "h264", "video_stream_index": 0, "interlaced_frame": false, "path": "/home/milind/Data/Projects/ProgressCard/Clips/09-Grace Mark Titles.mkv", "audio_timebase": {"den": 1, "num": 1}, "acodec": "", "has_video": true, "audio_stream_index": -1, "has_single_image": false, "video_bit_rate": 0, "width": 1366, "channels": 0, "type": "FFmpegReader", "has_audio": false, "top_field_first": true, "audio_bit_rate": 0, "channel_layout": 4, "display_ratio": {"den": 384, "num": 683}, "pixel_format": 0, "video_length": "1200", "fps": {"den": 1, "num": 25}}, "shear_x": {"Points": [{"interpolation": 2, "co": {"X": 1.0, "Y": 0.0}}]}, "volume": {"Points": [{"interpolation": 2, "co": {"X": 1.0, "Y": 1.0}}]}, "start": 0.0, "perspective_c3_y": {"Points": [{"interpolation": 2, "co": {"X": 1.0, "Y": -1.0}}]}, "title": "09-Grace Mark Titles.mkv", "wave_color": {"alpha": {"Points": [{"handle_type": 0, "co": {"X": 1.0, "Y": 255.0}, "interpolation": 0, "handle_left": {"X": 0.5, "Y": 1.0}, "handle_right": {"X": 0.5, "Y": 0.0}}]}, "green": {"Points": [{"handle_type": 0, "co": {"X": 1.0, "Y": 123.0}, "interpolation": 0, "handle_left": {"X": 0.5, "Y": 1.0}, "handle_right": {"X": 0.5, "Y": 0.0}}]}, "blue": {"Points": [{"handle_type": 0, "co": {"X": 1.0, "Y": 255.0}, "interpolation": 0, "handle_left": {"X": 0.5, "Y": 1.0}, "handle_right": {"X": 0.5, "Y": 0.0}}]}, "red": {"Points": [{"handle_type": 0, "co": {"X": 1.0, "Y": 0.0}, "interpolation": 0, "handle_left": {"X": 0.5, "Y": 1.0}, "handle_right": {"X": 0.5, "Y": 0.0}}]}}, "has_audio": {"Points": [{"interpolation": 2, "co": {"X": 1.0, "Y": -1.0}}]}, "perspective_c2_x": {"Points": [{"interpolation": 2, "co": {"X": 1.0, "Y": -1.0}}]}, "crop_y": {"Points": [{"interpolation": 2, "co": {"X": 1.0, "Y": 0.0}}]}, "perspective_c1_x": {"Points": [{"interpolation": 2, "co": {"X": 1.0, "Y": -1.0}}]}, "layer": 4, "position": 23.52, "anchor": 0, "perspective_c4_x": {"Points": [{"interpolation": 2, "co": {"X": 1.0, "Y": -1.0}}]}, "location_y": {"Points": [{"interpolation": 2, "co": {"X": 1.0, "Y": 0.0}}]}, "scale_y": {"Points": [{"interpolation": 2, "co": {"X": 1.0, "Y": 1.0}}]}, "location_x": {"Points": [{"interpolation": 2, "co": {"X": 1.0, "Y": 0.0}}]}, "waveform": false, "id": "B8ON3103P9", "time": {"Points": [{"interpolation": 2, "co": {"X": 1.0, "Y": 1.0}}]}, "scale_x": {"Points": [{"interpolation": 2, "co": {"X": 1.0, "Y": 1.0}}]}, "perspective_c4_y": {"Points": [{"interpolation": 2, "co": {"X": 1.0, "Y": -1.0}}]}, "rotation": {"Points": [{"interpolation": 2, "co": {"X": 1.0, "Y": 0.0}}]}}, "partial": false}, {"type": "insert", "value": {"crop_width": {"Points": [{"interpolation": 2, "co": {"X": 1.0, "Y": -1.0}}]}, "channel_filter": {"Points": [{"interpolation": 2, "co": {"X": 1.0, "Y": -1.0}}]}, "perspective_c3_x": {"Points": [{"interpolation": 2, "co": {"X": 1.0, "Y": -1.0}}]}, "effects": [], "perspective_c2_y": {"Points": [{"interpolation": 2, "co": {"X": 1.0, "Y": -1.0}}]}, "channel_mapping": {"Points": [{"interpolation": 2, "co": {"X": 1.0, "Y": -1.0}}]}, "scale_x": {"Points": [{"interpolation": 2, "co": {"X": 1.0, "Y": 3.0}}]}, "scale": 1, "perspective_c1_y": {"Points": [{"interpolation": 2, "co": {"X": 1.0, "Y": -1.0}}]}, "alpha": {"Points": [{"interpolation": 2, "co": {"X": 1.0, "Y": 1.0}}]}, "shear_y": {"Points": [{"interpolation": 2, "co": {"X": 1.0, "Y": 0.0}}]}, "crop_x": {"Points": [{"interpolation": 2, "co": {"X": 1.0, "Y": 0.0}}]}, "end": 48, "file_id": "BGTBTEAKWJ", "image": "/home/milind/.openshot_qt/thumbnail/BGTBTEAKWJ.png", "gravity": 4, "has_video": {"Points": [{"interpolation": 2, "co": {"X": 1.0, "Y": -1.0}}]}, "display": 0, "perspective_c4_x": {"Points": [{"interpolation": 2, "co": {"X": 1.0, "Y": -1.0}}]}, "crop_height": {"Points": [{"interpolation": 2, "co": {"X": 1.0, "Y": -1.0}}]}, "perspective_c3_y": {"Points": [{"interpolation": 2, "co": {"X": 1.0, "Y": -1.0}}]}, "shear_x": {"Points": [{"interpolation": 2, "co": {"X": 1.0, "Y": 0.0}}]}, "volume": {"Points": [{"interpolation": 2, "co": {"X": 1.0, "Y": 1.0}}]}, "start": 0, "reader": {"duration": 48.0, "pixel_ratio": {"den": 1, "num": 1}, "video_timebase": {"den": 1000, "num": 1}, "height": 768, "file_size": "460413", "vcodec": "h264", "video_stream_index": 0, "interlaced_frame": false, "path": "/home/milind/Data/Projects/ProgressCard/Clips/09-Grace Mark Titles.mkv", "audio_timebase": {"den": 1, "num": 1}, "acodec": "", "has_video": true, "audio_stream_index": -1, "video_bit_rate": 0, "width": 1366, "display_ratio": {"den": 384, "num": 683}, "channels": 0, "type": "FFmpegReader", "has_audio": false, "pixel_format": 0, "top_field_first": true, "audio_bit_rate": 0, "channel_layout": 4, "sample_rate": 0, "has_single_image": false, "video_length": "1200", "fps": {"den": 1, "num": 25}}, "title": "09-Grace Mark Titles.mkv", "wave_color": {"alpha": {"Points": [{"handle_type": 0, "handle_right": {"X": 0.5, "Y": 0.0}, "interpolation": 0, "handle_left": {"X": 0.5, "Y": 1.0}, "co": {"X": 1.0, "Y": 255.0}}]}, "green": {"Points": [{"handle_type": 0, "handle_right": {"X": 0.5, "Y": 0.0}, "interpolation": 0, "handle_left": {"X": 0.5, "Y": 1.0}, "co": {"X": 1.0, "Y": 123.0}}]}, "red": {"Points": [{"handle_type": 0, "handle_right": {"X": 0.5, "Y": 0.0}, "interpolation": 0, "handle_left": {"X": 0.5, "Y": 1.0}, "co": {"X": 1.0, "Y": 0.0}}]}, "blue": {"Points": [{"handle_type": 0, "handle_right": {"X": 0.5, "Y": 0.0}, "interpolation": 0, "handle_left": {"X": 0.5, "Y": 1.0}, "co": {"X": 1.0, "Y": 255.0}}]}}, "has_audio": {"Points": [{"interpolation": 2, "co": {"X": 1.0, "Y": -1.0}}]}, "perspective_c2_x": {"Points": [{"interpolation": 2, "co": {"X": 1.0, "Y": -1.0}}]}, "rotation": {"Points": [{"interpolation": 2, "co": {"X": 1.0, "Y": 0.0}}]}, "duration": 48.0, "layer": 3, "position": 0.20999999344348907, "anchor": 0, "location_y": {"Points": [{"interpolation": 2, "co": {"X": 1.0, "Y": 0.699999988079071}}]}, "scale_y": {"Points": [{"interpolation": 2, "co": {"X": 1.0, "Y": 3.0}}]}, "location_x": {"Points": [{"interpolation": 2, "co": {"X": 1.0, "Y": 0.5}}]}, "waveform": false, "id": "IQLQFEQVTT", "time": {"Points": [{"interpolation": 2, "co": {"X": 1.0, "Y": 1.0}}]}, "perspective_c1_x": {"Points": [{"interpolation": 2, "co": {"X": 1.0, "Y": -1.0}}]}, "perspective_c4_y": {"Points": [{"interpolation": 2, "co": {"X": 1.0, "Y": -1.0}}]}, "crop_y": {"Points": [{"interpolation": 2, "co": {"X": 1.0, "Y": 0.0}}]}}, "key": ["clips"], "old_values": [], "partial": false}, {"type": "update", "value": {"position": 0, "end": 48, "layer": 3, "image": "/home/milind/.openshot_qt/thumbnail/BGTBTEAKWJ.png", "start": 0, "id": "IQLQFEQVTT"}, "key": ["clips", {"id": "IQLQFEQVTT"}], "old_values": null, "partial": false}, {"type": "update", "value": {"position": 0, "end": 48, "layer": 3, "image": "/home/milind/.openshot_qt/thumbnail/BGTBTEAKWJ.png", "start": 0, "id": "IQLQFEQVTT"}, "key": ["clips", {"id": "IQLQFEQVTT"}], "old_values": null, "partial": false}, {"type": "update", "value": {"location_x": {"Points": [{"interpolation": 2, "co": {"X": 1.0, "Y": 0.5}}]}}, "key": ["clips", {"id": "IQLQFEQVTT"}], "old_values": null, "partial": false}, {"type": "update", "value": {"location_x": {"Points": [{"interpolation": 2, "co": {"X": 1.0, "Y": 0.5}}]}}, "key": ["clips", {"id": "IQLQFEQVTT"}], "old_values": null, "partial": false}, {"type": "update", "value": {"location_x": {"Points": [{"interpolation": 2, "co": {"X": 1.0, "Y": 0.5}}]}}, "key": ["clips", {"id": "IQLQFEQVTT"}], "old_values": null, "partial": false}, {"type": "update", "value": {"location_y": {"Points": [{"interpolation": 2, "co": {"X": 1.0, "Y": 0.699999988079071}}]}}, "key": ["clips", {"id": "IQLQFEQVTT"}], "old_values": null, "partial": false}, {"type": "update", "value": {"location_y": {"Points": [{"interpolation": 2, "co": {"X": 1.0, "Y": 0.699999988079071}}]}}, "key": ["clips", {"id": "IQLQFEQVTT"}], "old_values": null, "partial": false}, {"type": "update", "value": {"location_y": {"Points": [{"interpolation": 2, "co": {"X": 1.0, "Y": 0.699999988079071}}]}}, "key": ["clips", {"id": "IQLQFEQVTT"}], "old_values": null, "partial": false}, {"type": "update", "value": {"position": 0.20999999344348907}, "key": ["clips", {"id": "IQLQFEQVTT"}], "old_values": null, "partial": false}, {"type": "update", "value": {"position": 0.20999999344348907}, "key": ["clips", {"id": "IQLQFEQVTT"}], "old_values": null, "partial": false}, {"type": "update", "value": {"position": 0.20999999344348907}, "key": ["clips", {"id": "IQLQFEQVTT"}], "old_values": null, "partial": false}, {"type": "update", "value": {"scale_x": {"Points": [{"interpolation": 2, "co": {"X": 1.0, "Y": 3.0}}]}}, "key": ["clips", {"id": "IQLQFEQVTT"}], "old_values": null, "partial": false}, {"type": "update", "value": {"scale_x": {"Points": [{"interpolation": 2, "co": {"X": 1.0, "Y": 3.0}}]}}, "key": ["clips", {"id": "IQLQFEQVTT"}], "old_values": null, "partial": false}, {"type": "update", "value": {"scale_x": {"Points": [{"interpolation": 2, "co": {"X": 1.0, "Y": 3.0}}]}}, "key": ["clips", {"id": "IQLQFEQVTT"}], "old_values": null, "partial": false}, {"type": "update", "value": {"scale_y": {"Points": [{"interpolation": 2, "co": {"X": 1.0, "Y": 3.0}}]}}, "key": ["clips", {"id": "IQLQFEQVTT"}], "old_values": null, "partial": false}, {"type": "update", "value": {"scale_y": {"Points": [{"interpolation": 2, "co": {"X": 1.0, "Y": 3.0}}]}}, "key": ["clips", {"id": "IQLQFEQVTT"}], "old_values": null, "partial": false}]}, "old_values": null, "partial": false, "key": ["history"]}, {"type": "update", "value": {"redo": [], "undo": [{"type": "delete", "value": null, "key": ["clips", {"id": "YX0UFQ3Z3A"}], "old_values": {"crop_width": {"Points": [{"interpolation": 2, "co": {"X": 1.0, "Y": -1.0}}]}, "channel_mapping": {"Points": [{"interpolation": 2, "co": {"X": 1.0, "Y": -1.0}}]}, "perspective_c3_x": {"Points": [{"interpolation": 2, "co": {"X": 1.0, "Y": -1.0}}]}, "effects": [], "perspective_c1_x": {"Points": [{"interpolation": 2, "co": {"X": 1.0, "Y": -1.0}}]}, "channel_filter": {"Points": [{"interpolation": 2, "co": {"X": 1.0, "Y": -1.0}}]}, "scale": 1, "perspective_c1_y": {"Points": [{"interpolation": 2, "co": {"X": 1.0, "Y": -1.0}}]}, "gravity": 4, "shear_y": {"Points": [{"interpolation": 2, "co": {"X": 1.0, "Y": 0.0}}]}, "crop_x": {"Points": [{"interpolation": 2, "co": {"X": 1.0, "Y": 0.0}}]}, "end": 43.708333333333336, "file_id": "BGTBTEAKWJ", "image": "/home/milind/.openshot_qt/thumbnail/YX0UFQ3Z3A-6.png", "alpha": {"Points": [{"handle_type": 0, "co": {"X": 1.0, "Y": 1.0}, "interpolation": 0, "handle_left": {"X": 0.5, "Y": 1.0}, "handle_right": {"X": 0.5, "Y": 0.0}}, {"handle_type": 0, "co": {"X": 7.0, "Y": 0.0}, "interpolation": 0, "handle_left": {"X": 0.5, "Y": 1.0}, "handle_right": {"X": 0.5, "Y": 0.0}}, {"handle_type": 0, "co": {"X": 79.0, "Y": 1.0}, "interpolation": 0, "handle_left": {"X": 0.5, "Y": 1.0}, "handle_right": {"X": 0.5, "Y": 0.0}}, {"handle_type": 0, "co": {"X": 2378.0, "Y": 1.0}, "interpolation": 0, "handle_left": {"X": 0.5, "Y": 1.0}, "handle_right": {"X": 0.5, "Y": 0.0}}, {"handle_type": 0, "co": {"X": 2450.0, "Y": 0.0}, "interpolation": 0, "handle_left": {"X": 0.5, "Y": 1.0}, "handle_right": {"X": 0.5, "Y": 0.0}}]}, "has_video": {"Points": [{"interpolation": 2, "co": {"X": 1.0, "Y": -1.0}}]}, "volume": {"Points": [{"interpolation": 2, "co": {"X": 1.0, "Y": 1.0}}]}, "wave_color": {"alpha": {"Points": [{"handle_type": 0, "handle_right": {"X": 0.5, "Y": 0.0}, "interpolation": 0, "handle_left": {"X": 0.5, "Y": 1.0}, "co": {"X": 1.0, "Y": 255.0}}]}, "green": {"Points": [{"handle_type": 0, "handle_right": {"X": 0.5, "Y": 0.0}, "interpolation": 0, "handle_left": {"X": 0.5, "Y": 1.0}, "co": {"X": 1.0, "Y": 123.0}}]}, "red": {"Points": [{"handle_type": 0, "handle_right": {"X": 0.5, "Y": 0.0}, "interpolation": 0, "handle_left": {"X": 0.5, "Y": 1.0}, "co": {"X": 1.0, "Y": 0.0}}]}, "blue": {"Points": [{"handle_type": 0, "handle_right": {"X": 0.5, "Y": 0.0}, "interpolation": 0, "handle_left": {"X": 0.5, "Y": 1.0}, "co": {"X": 1.0, "Y": 255.0}}]}}, "crop_height": {"Points": [{"interpolation": 2, "co": {"X": 1.0, "Y": -1.0}}]}, "reader": {"duration": 48.0, "pixel_ratio": {"den": 1, "num": 1}, "sample_rate": 0, "video_timebase": {"den": 1000, "num": 1}, "height": 768, "file_size": "460413", "vcodec": "h264", "video_stream_index": 0, "interlaced_frame": false, "path": "/home/milind/Data/Projects/ProgressCard/Clips/09-Grace Mark Titles.mkv", "audio_timebase": {"den": 1, "num": 1}, "acodec": "", "has_video": true, "audio_stream_index": -1, "has_single_image": false, "video_bit_rate": 0, "width": 1366, "channels": 0, "type": "FFmpegReader", "has_audio": false, "top_field_first": true, "audio_bit_rate": 0, "channel_layout": 4, "display_ratio": {"den": 384, "num": 683}, "pixel_format": 0, "video_length": "1200", "fps": {"den": 1, "num": 25}}, "perspective_c2_y": {"Points": [{"interpolation": 2, "co": {"X": 1.0, "Y": -1.0}}]}, "shear_x": {"Points": [{"interpolation": 2, "co": {"X": 1.0, "Y": 0.0}}]}, "display": 0, "start": 0.20833333333333334, "perspective_c3_y": {"Points": [{"interpolation": 2, "co": {"X": 1.0, "Y": -1.0}}]}, "title": "09-Grace Mark Titles.mkv", "perspective_c4_x": {"Points": [{"interpolation": 2, "co": {"X": 1.0, "Y": -1.0}}]}, "has_audio": {"Points": [{"interpolation": 2, "co": {"X": 1.0, "Y": -1.0}}]}, "perspective_c2_x": {"Points": [{"interpolation": 2, "co": {"X": 1.0, "Y": -1.0}}]}, "crop_y": {"Points": [{"interpolation": 2, "co": {"X": 1.0, "Y": 0.0}}]}, "duration": 48.0, "layer": 3, "position": 0.20833333333333334, "anchor": 0, "location_y": {"Points": [{"handle_type": 0, "co": {"X": 1.0, "Y": 0.0}, "interpolation": 0, "handle_left": {"X": 0.5, "Y": 1.0}, "handle_right": {"X": 0.5, "Y": 0.0}}, {"interpolation": 1, "co": {"X": 436, "Y": 0.699999988079071}}]}, "scale_y": {"Points": [{"handle_type": 0, "co": {"X": 1.0, "Y": 1.0}, "interpolation": 0, "handle_left": {"X": 0.5, "Y": 1.0}, "handle_right": {"X": 0.5, "Y": 0.0}}, {"interpolation": 1, "co": {"X": 436, "Y": 3.0}}]}, "location_x": {"Points": [{"handle_type": 0, "co": {"X": 1.0, "Y": 0.0}, "interpolation": 0, "handle_left": {"X": 0.5, "Y": 1.0}, "handle_right": {"X": 0.5, "Y": 0.0}}, {"interpolation": 1, "co": {"X": 436, "Y": 0.5}}]}, "waveform": false, "id": "YX0UFQ3Z3A", "time": {"Points": [{"interpolation": 2, "co": {"X": 1.0, "Y": 1.0}}]}, "scale_x": {"Points": [{"handle_type": 0, "co": {"X": 1.0, "Y": 1.0}, "interpolation": 0, "handle_left": {"X": 0.5, "Y": 1.0}, "handle_right": {"X": 0.5, "Y": 0.0}}, {"interpolation": 1, "co": {"X": 436, "Y": 3.0}}]}, "perspective_c4_y": {"Points": [{"interpolation": 2, "co": {"X": 1.0, "Y": -1.0}}]}, "rotation": {"Points": [{"interpolation": 2, "co": {"X": 1.0, "Y": 0.0}}]}}, "partial": false}, {"type": "insert", "value": {"crop_width": {"Points": [{"interpolation": 2, "co": {"X": 1.0, "Y": -1.0}}]}, "channel_filter": {"Points": [{"interpolation": 2, "co": {"X": 1.0, "Y": -1.0}}]}, "perspective_c3_x": {"Points": [{"interpolation": 2, "co": {"X": 1.0, "Y": -1.0}}]}, "effects": [], "perspective_c2_y": {"Points": [{"interpolation": 2, "co": {"X": 1.0, "Y": -1.0}}]}, "channel_mapping": {"Points": [{"interpolation": 2, "co": {"X": 1.0, "Y": -1.0}}]}, "scale_x": {"Points": [{"interpolation": 2, "co": {"X": 1.0, "Y": 1.0}}]}, "scale": 1, "perspective_c1_y": {"Points": [{"interpolation": 2, "co": {"X": 1.0, "Y": -1.0}}]}, "alpha": {"Points": [{"interpolation": 2, "co": {"X": 1.0, "Y": 1.0}}]}, "shear_y": {"Points": [{"interpolation": 2, "co": {"X": 1.0, "Y": 0.0}}]}, "crop_x": {"Points": [{"interpolation": 2, "co": {"X": 1.0, "Y": 0.0}}]}, "end": 48.0, "file_id": "BGTBTEAKWJ", "image": "/home/milind/.openshot_qt/thumbnail/BGTBTEAKWJ.png", "gravity": 4, "has_video": {"Points": [{"interpolation": 2, "co": {"X": 1.0, "Y": -1.0}}]}, "display": 0, "duration": 48.0, "crop_height": {"Points": [{"interpolation": 2, "co": {"X": 1.0, "Y": -1.0}}]}, "perspective_c3_y": {"Points": [{"interpolation": 2, "co": {"X": 1.0, "Y": -1.0}}]}, "shear_x": {"Points": [{"interpolation": 2, "co": {"X": 1.0, "Y": 0.0}}]}, "volume": {"Points": [{"interpolation": 2, "co": {"X": 1.0, "Y": 1.0}}]}, "start": 0.0, "reader": {"duration": 48.0, "pixel_ratio": {"den": 1, "num": 1}, "video_timebase": {"den": 1000, "num": 1}, "height": 768, "file_size": "460413", "vcodec": "h264", "video_stream_index": 0, "interlaced_frame": false, "path": "/home/milind/Data/Projects/ProgressCard/Clips/09-Grace Mark Titles.mkv", "audio_timebase": {"den": 1, "num": 1}, "acodec": "", "has_video": true, "audio_stream_index": -1, "video_bit_rate": 0, "width": 1366, "display_ratio": {"den": 384, "num": 683}, "channels": 0, "type": "FFmpegReader", "has_audio": false, "pixel_format": 0, "top_field_first": true, "audio_bit_rate": 0, "channel_layout": 4, "sample_rate": 0, "has_single_image": false, "video_length": "1200", "fps": {"den": 1, "num": 25}}, "title": "09-Grace Mark Titles.mkv", "wave_color": {"alpha": {"Points": [{"handle_type": 0, "handle_right": {"X": 0.5, "Y": 0.0}, "interpolation": 0, "handle_left": {"X": 0.5, "Y": 1.0}, "co": {"X": 1.0, "Y": 255.0}}]}, "green": {"Points": [{"handle_type": 0, "handle_right": {"X": 0.5, "Y": 0.0}, "interpolation": 0, "handle_left": {"X": 0.5, "Y": 1.0}, "co": {"X": 1.0, "Y": 123.0}}]}, "red": {"Points": [{"handle_type": 0, "handle_right": {"X": 0.5, "Y": 0.0}, "interpolation": 0, "handle_left": {"X": 0.5, "Y": 1.0}, "co": {"X": 1.0, "Y": 0.0}}]}, "blue": {"Points": [{"handle_type": 0, "handle_right": {"X": 0.5, "Y": 0.0}, "interpolation": 0, "handle_left": {"X": 0.5, "Y": 1.0}, "co": {"X": 1.0, "Y": 255.0}}]}}, "has_audio": {"Points": [{"interpolation": 2, "co": {"X": 1.0, "Y": -1.0}}]}, "perspective_c2_x": {"Points": [{"interpolation": 2, "co": {"X": 1.0, "Y": -1.0}}]}, "rotation": {"Points": [{"interpolation": 2, "co": {"X": 1.0, "Y": 0.0}}]}, "layer": 4, "position": 23.52, "anchor": 0, "perspective_c4_x": {"Points": [{"interpolation": 2, "co": {"X": 1.0, "Y": -1.0}}]}, "location_y": {"Points": [{"interpolation": 2, "co": {"X": 1.0, "Y": 0.0}}]}, "scale_y": {"Points": [{"interpolation": 2, "co": {"X": 1.0, "Y": 1.0}}]}, "location_x": {"Points": [{"interpolation": 2, "co": {"X": 1.0, "Y": 0.0}}]}, "waveform": false, "id": "B8ON3103P9", "time": {"Points": [{"interpolation": 2, "co": {"X": 1.0, "Y": 1.0}}]}, "perspective_c1_x": {"Points": [{"interpolation": 2, "co": {"X": 1.0, "Y": -1.0}}]}, "perspective_c4_y": {"Points": [{"interpolation": 2, "co": {"X": 1.0, "Y": -1.0}}]}, "crop_y": {"Points": [{"interpolation": 2, "co": {"X": 1.0, "Y": 0.0}}]}}, "key": ["clips"], "old_values": [], "partial": false}, {"type": "delete", "value": null, "key": ["clips", {"id": "B8ON3103P9"}], "old_values": {"crop_width": {"Points": [{"interpolation": 2, "co": {"X": 1.0, "Y": -1.0}}]}, "channel_mapping": {"Points": [{"interpolation": 2, "co": {"X": 1.0, "Y": -1.0}}]}, "perspective_c3_x": {"Points": [{"interpolation": 2, "co": {"X": 1.0, "Y": -1.0}}]}, "effects": [], "perspective_c2_y": {"Points": [{"interpolation": 2, "co": {"X": 1.0, "Y": -1.0}}]}, "channel_filter": {"Points": [{"interpolation": 2, "co": {"X": 1.0, "Y": -1.0}}]}, "scale": 1, "perspective_c1_y": {"Points": [{"interpolation": 2, "co": {"X": 1.0, "Y": -1.0}}]}, "alpha": {"Points": [{"interpolation": 2, "co": {"X": 1.0, "Y": 1.0}}]}, "shear_y": {"Points": [{"interpolation": 2, "co": {"X": 1.0, "Y": 0.0}}]}, "crop_x": {"Points": [{"interpolation": 2, "co": {"X": 1.0, "Y": 0.0}}]}, "end": 48.0, "file_id": "BGTBTEAKWJ", "image": "/home/milind/.openshot_qt/thumbnail/BGTBTEAKWJ.png", "gravity": 4, "has_video": {"Points": [{"interpolation": 2, "co": {"X": 1.0, "Y": -1.0}}]}, "display": 0, "duration": 48.0, "crop_height": {"Points": [{"interpolation": 2, "co": {"X": 1.0, "Y": -1.0}}]}, "reader": {"duration": 48.0, "pixel_ratio": {"den": 1, "num": 1}, "sample_rate": 0, "video_timebase": {"den": 1000, "num": 1}, "height": 768, "file_size": "460413", "vcodec": "h264", "video_stream_index": 0, "interlaced_frame": false, "path": "/home/milind/Data/Projects/ProgressCard/Clips/09-Grace Mark Titles.mkv", "audio_timebase": {"den": 1, "num": 1}, "acodec": "", "has_video": true, "audio_stream_index": -1, "has_single_image": false, "video_bit_rate": 0, "width": 1366, "channels": 0, "type": "FFmpegReader", "has_audio": false, "top_field_first": true, "audio_bit_rate": 0, "channel_layout": 4, "display_ratio": {"den": 384, "num": 683}, "pixel_format": 0, "video_length": "1200", "fps": {"den": 1, "num": 25}}, "shear_x": {"Points": [{"interpolation": 2, "co": {"X": 1.0, "Y": 0.0}}]}, "volume": {"Points": [{"interpolation": 2, "co": {"X": 1.0, "Y": 1.0}}]}, "start": 0.0, "perspective_c3_y": {"Points": [{"interpolation": 2, "co": {"X": 1.0, "Y": -1.0}}]}, "title": "09-Grace Mark Titles.mkv", "wave_color": {"alpha": {"Points": [{"handle_type": 0, "co": {"X": 1.0, "Y": 255.0}, "interpolation": 0, "handle_left": {"X": 0.5, "Y": 1.0}, "handle_right": {"X": 0.5, "Y": 0.0}}]}, "green": {"Points": [{"handle_type": 0, "co": {"X": 1.0, "Y": 123.0}, "interpolation": 0, "handle_left": {"X": 0.5, "Y": 1.0}, "handle_right": {"X": 0.5, "Y": 0.0}}]}, "blue": {"Points": [{"handle_type": 0, "co": {"X": 1.0, "Y": 255.0}, "interpolation": 0, "handle_left": {"X": 0.5, "Y": 1.0}, "handle_right": {"X": 0.5, "Y": 0.0}}]}, "red": {"Points": [{"handle_type": 0, "co": {"X": 1.0, "Y": 0.0}, "interpolation": 0, "handle_left": {"X": 0.5, "Y": 1.0}, "handle_right": {"X": 0.5, "Y": 0.0}}]}}, "has_audio": {"Points": [{"interpolation": 2, "co": {"X": 1.0, "Y": -1.0}}]}, "perspective_c2_x": {"Points": [{"interpolation": 2, "co": {"X": 1.0, "Y": -1.0}}]}, "crop_y": {"Points": [{"interpolation": 2, "co": {"X": 1.0, "Y": 0.0}}]}, "perspective_c1_x": {"Points": [{"interpolation": 2, "co": {"X": 1.0, "Y": -1.0}}]}, "layer": 4, "position": 23.52, "anchor": 0, "perspective_c4_x": {"Points": [{"interpolation": 2, "co": {"X": 1.0, "Y": -1.0}}]}, "location_y": {"Points": [{"interpolation": 2, "co": {"X": 1.0, "Y": 0.0}}]}, "scale_y": {"Points": [{"interpolation": 2, "co": {"X": 1.0, "Y": 1.0}}]}, "location_x": {"Points": [{"interpolation": 2, "co": {"X": 1.0, "Y": 0.0}}]}, "waveform": false, "id": "B8ON3103P9", "time": {"Points": [{"interpolation": 2, "co": {"X": 1.0, "Y": 1.0}}]}, "scale_x": {"Points": [{"interpolation": 2, "co": {"X": 1.0, "Y": 1.0}}]}, "perspective_c4_y": {"Points": [{"interpolation": 2, "co": {"X": 1.0, "Y": -1.0}}]}, "rotation": {"Points": [{"interpolation": 2, "co": {"X": 1.0, "Y": 0.0}}]}}, "partial": false}, {"type": "insert", "value": {"crop_width": {"Points": [{"interpolation": 2, "co": {"X": 1.0, "Y": -1.0}}]}, "channel_filter": {"Points": [{"interpolation": 2, "co": {"X": 1.0, "Y": -1.0}}]}, "perspective_c3_x": {"Points": [{"interpolation": 2, "co": {"X": 1.0, "Y": -1.0}}]}, "effects": [], "perspective_c2_y": {"Points": [{"interpolation": 2, "co": {"X": 1.0, "Y": -1.0}}]}, "channel_mapping": {"Points": [{"interpolation": 2, "co": {"X": 1.0, "Y": -1.0}}]}, "scale_x": {"Points": [{"interpolation": 2, "co": {"X": 1.0, "Y": 3.0}}]}, "scale": 1, "perspective_c1_y": {"Points": [{"interpolation": 2, "co": {"X": 1.0, "Y": -1.0}}]}, "alpha": {"Points": [{"interpolation": 2, "co": {"X": 1.0, "Y": 1.0}}]}, "shear_y": {"Points": [{"interpolation": 2, "co": {"X": 1.0, "Y": 0.0}}]}, "crop_x": {"Points": [{"interpolation": 2, "co": {"X": 1.0, "Y": 0.0}}]}, "end": 48, "file_id": "BGTBTEAKWJ", "image": "/home/milind/.openshot_qt/thumbnail/BGTBTEAKWJ.png", "gravity": 4, "has_video": {"Points": [{"interpolation": 2, "co": {"X": 1.0, "Y": -1.0}}]}, "display": 0, "perspective_c4_x": {"Points": [{"interpolation": 2, "co": {"X": 1.0, "Y": -1.0}}]}, "crop_height": {"Points": [{"interpolation": 2, "co": {"X": 1.0, "Y": -1.0}}]}, "perspective_c3_y": {"Points": [{"interpolation": 2, "co": {"X": 1.0, "Y": -1.0}}]}, "shear_x": {"Points": [{"interpolation": 2, "co": {"X": 1.0, "Y": 0.0}}]}, "volume": {"Points": [{"interpolation": 2, "co": {"X": 1.0, "Y": 1.0}}]}, "start": 0, "reader": {"duration": 48.0, "pixel_ratio": {"den": 1, "num": 1}, "video_timebase": {"den": 1000, "num": 1}, "height": 768, "file_size": "460413", "vcodec": "h264", "video_stream_index": 0, "interlaced_frame": false, "path": "/home/milind/Data/Projects/ProgressCard/Clips/09-Grace Mark Titles.mkv", "audio_timebase": {"den": 1, "num": 1}, "acodec": "", "has_video": true, "audio_stream_index": -1, "video_bit_rate": 0, "width": 1366, "display_ratio": {"den": 384, "num": 683}, "channels": 0, "type": "FFmpegReader", "has_audio": false, "pixel_format": 0, "top_field_first": true, "audio_bit_rate": 0, "channel_layout": 4, "sample_rate": 0, "has_single_image": false, "video_length": "1200", "fps": {"den": 1, "num": 25}}, "title": "09-Grace Mark Titles.mkv", "wave_color": {"alpha": {"Points": [{"handle_type": 0, "handle_right": {"X": 0.5, "Y": 0.0}, "interpolation": 0, "handle_left": {"X": 0.5, "Y": 1.0}, "co": {"X": 1.0, "Y": 255.0}}]}, "green": {"Points": [{"handle_type": 0, "handle_right": {"X": 0.5, "Y": 0.0}, "interpolation": 0, "handle_left": {"X": 0.5, "Y": 1.0}, "co": {"X": 1.0, "Y": 123.0}}]}, "red": {"Points": [{"handle_type": 0, "handle_right": {"X": 0.5, "Y": 0.0}, "interpolation": 0, "handle_left": {"X": 0.5, "Y": 1.0}, "co": {"X": 1.0, "Y": 0.0}}]}, "blue": {"Points": [{"handle_type": 0, "handle_right": {"X": 0.5, "Y": 0.0}, "interpolation": 0, "handle_left": {"X": 0.5, "Y": 1.0}, "co": {"X": 1.0, "Y": 255.0}}]}}, "has_audio": {"Points": [{"interpolation": 2, "co": {"X": 1.0, "Y": -1.0}}]}, "perspective_c2_x": {"Points": [{"interpolation": 2, "co": {"X": 1.0, "Y": -1.0}}]}, "rotation": {"Points": [{"interpolation": 2, "co": {"X": 1.0, "Y": 0.0}}]}, "duration": 48.0, "layer": 3, "position": 0.20999999344348907, "anchor": 0, "location_y": {"Points": [{"interpolation": 2, "co": {"X": 1.0, "Y": 0.699999988079071}}]}, "scale_y": {"Points": [{"interpolation": 2, "co": {"X": 1.0, "Y": 3.0}}]}, "location_x": {"Points": [{"interpolation": 2, "co": {"X": 1.0, "Y": 0.5}}]}, "waveform": false, "id": "IQLQFEQVTT", "time": {"Points": [{"interpolation": 2, "co": {"X": 1.0, "Y": 1.0}}]}, "perspective_c1_x": {"Points": [{"interpolation": 2, "co": {"X": 1.0, "Y": -1.0}}]}, "perspective_c4_y": {"Points": [{"interpolation": 2, "co": {"X": 1.0, "Y": -1.0}}]}, "crop_y": {"Points": [{"interpolation": 2, "co": {"X": 1.0, "Y": 0.0}}]}}, "key": ["clips"], "old_values": [], "partial": false}, {"type": "update", "value": {"position": 0, "end": 48, "layer": 3, "image": "/home/milind/.openshot_qt/thumbnail/BGTBTEAKWJ.png", "start": 0, "id": "IQLQFEQVTT"}, "key": ["clips", {"id": "IQLQFEQVTT"}], "old_values": null, "partial": false}, {"type": "update", "value": {"position": 0, "end": 48, "layer": 3, "image": "/home/milind/.openshot_qt/thumbnail/BGTBTEAKWJ.png", "start": 0, "id": "IQLQFEQVTT"}, "key": ["clips", {"id": "IQLQFEQVTT"}], "old_values": null, "partial": false}, {"type": "update", "value": {"location_x": {"Points": [{"interpolation": 2, "co": {"X": 1.0, "Y": 0.5}}]}}, "key": ["clips", {"id": "IQLQFEQVTT"}], "old_values": null, "partial": false}, {"type": "update", "value": {"location_x": {"Points": [{"interpolation": 2, "co": {"X": 1.0, "Y": 0.5}}]}}, "key": ["clips", {"id": "IQLQFEQVTT"}], "old_values": null, "partial": false}, {"type": "update", "value": {"location_x": {"Points": [{"interpolation": 2, "co": {"X": 1.0, "Y": 0.5}}]}}, "key": ["clips", {"id": "IQLQFEQVTT"}], "old_values": null, "partial": false}, {"type": "update", "value": {"location_y": {"Points": [{"interpolation": 2, "co": {"X": 1.0, "Y": 0.699999988079071}}]}}, "key": ["clips", {"id": "IQLQFEQVTT"}], "old_values": null, "partial": false}, {"type": "update", "value": {"location_y": {"Points": [{"interpolation": 2, "co": {"X": 1.0, "Y": 0.699999988079071}}]}}, "key": ["clips", {"id": "IQLQFEQVTT"}], "old_values": null, "partial": false}, {"type": "update", "value": {"location_y": {"Points": [{"interpolation": 2, "co": {"X": 1.0, "Y": 0.699999988079071}}]}}, "key": ["clips", {"id": "IQLQFEQVTT"}], "old_values": null, "partial": false}, {"type": "update", "value": {"position": 0.20999999344348907}, "key": ["clips", {"id": "IQLQFEQVTT"}], "old_values": null, "partial": false}, {"type": "update", "value": {"position": 0.20999999344348907}, "key": ["clips", {"id": "IQLQFEQVTT"}], "old_values": null, "partial": false}, {"type": "update", "value": {"position": 0.20999999344348907}, "key": ["clips", {"id": "IQLQFEQVTT"}], "old_values": null, "partial": false}, {"type": "update", "value": {"scale_x": {"Points": [{"interpolation": 2, "co": {"X": 1.0, "Y": 3.0}}]}}, "key": ["clips", {"id": "IQLQFEQVTT"}], "old_values": null, "partial": false}, {"type": "update", "value": {"scale_x": {"Points": [{"interpolation": 2, "co": {"X": 1.0, "Y": 3.0}}]}}, "key": ["clips", {"id": "IQLQFEQVTT"}], "old_values": null, "partial": false}, {"type": "update", "value": {"scale_x": {"Points": [{"interpolation": 2, "co": {"X": 1.0, "Y": 3.0}}]}}, "key": ["clips", {"id": "IQLQFEQVTT"}], "old_values": null, "partial": false}, {"type": "update", "value": {"scale_y": {"Points": [{"interpolation": 2, "co": {"X": 1.0, "Y": 3.0}}]}}, "key": ["clips", {"id": "IQLQFEQVTT"}], "old_values": null, "partial": false}, {"type": "update", "value": {"scale_y": {"Points": [{"interpolation": 2, "co": {"X": 1.0, "Y": 3.0}}]}}, "key": ["clips", {"id": "IQLQFEQVTT"}], "old_values": null, "partial": false}]}, "old_values": null, "partial": false, "key": ["history"]}, {"type": "update", "value": {"location_x": {"Points": [{"interpolation": 2, "co": {"X": 1.0, "Y": 0.5}}, {"interpolation": 1, "co": {"X": 383, "Y": 0.6000000238418579}}]}}, "old_values": null, "partial": false, "key": ["clips", {"id": "IQLQFEQVTT"}]}, {"type": "update", "value": {"location_x": {"Points": [{"interpolation": 2, "co": {"X": 1.0, "Y": 0.5}}, {"interpolation": 1, "co": {"X": 383, "Y": 0.6000000238418579}}]}}, "old_values": null, "partial": false, "key": ["clips", {"id": "IQLQFEQVTT"}]}, {"type": "update", "value": {"location_x": {"Points": [{"interpolation": 2, "co": {"X": 1.0, "Y": 0.5}}, {"interpolation": 1, "co": {"X": 383, "Y": 0.6000000238418579}}]}}, "old_values": null, "partial": false, "key": ["clips", {"id": "IQLQFEQVTT"}]}, {"type": "update", "value": {"location_x": {"Points": [{"interpolation": 2, "co": {"X": 1.0, "Y": 0.5}}, {"interpolation": 1, "co": {"X": 383, "Y": 0.4000000059604645}}]}}, "old_values": {"crop_width": {"Points": [{"interpolation": 2, "co": {"X": 1.0, "Y": -1.0}}]}, "channel_filter": {"Points": [{"interpolation": 2, "co": {"X": 1.0, "Y": -1.0}}]}, "perspective_c3_x": {"Points": [{"interpolation": 2, "co": {"X": 1.0, "Y": -1.0}}]}, "effects": [], "perspective_c2_y": {"Points": [{"interpolation": 2, "co": {"X": 1.0, "Y": -1.0}}]}, "channel_mapping": {"Points": [{"interpolation": 2, "co": {"X": 1.0, "Y": -1.0}}]}, "scale_x": {"Points": [{"interpolation": 2, "co": {"X": 1.0, "Y": 3.0}}]}, "scale": 1, "perspective_c1_y": {"Points": [{"interpolation": 2, "co": {"X": 1.0, "Y": -1.0}}]}, "alpha": {"Points": [{"interpolation": 2, "co": {"X": 1.0, "Y": 1.0}}]}, "shear_y": {"Points": [{"interpolation": 2, "co": {"X": 1.0, "Y": 0.0}}]}, "crop_x": {"Points": [{"interpolation": 2, "co": {"X": 1.0, "Y": 0.0}}]}, "end": 48, "file_id": "BGTBTEAKWJ", "image": "/home/milind/.openshot_qt/thumbnail/BGTBTEAKWJ.png", "gravity": 4, "has_video": {"Points": [{"interpolation": 2, "co": {"X": 1.0, "Y": -1.0}}]}, "display": 0, "perspective_c4_x": {"Points": [{"interpolation": 2, "co": {"X": 1.0, "Y": -1.0}}]}, "crop_height": {"Points": [{"interpolation": 2, "co": {"X": 1.0, "Y": -1.0}}]}, "perspective_c3_y": {"Points": [{"interpolation": 2, "co": {"X": 1.0, "Y": -1.0}}]}, "shear_x": {"Points": [{"interpolation": 2, "co": {"X": 1.0, "Y": 0.0}}]}, "volume": {"Points": [{"interpolation": 2, "co": {"X": 1.0, "Y": 1.0}}]}, "start": 0, "reader": {"duration": 48.0, "pixel_ratio": {"den": 1, "num": 1}, "video_timebase": {"den": 1000, "num": 1}, "height": 768, "file_size": "460413", "vcodec": "h264", "video_stream_index": 0, "interlaced_frame": false, "path": "/home/milind/Data/Projects/ProgressCard/Clips/09-Grace Mark Titles.mkv", "audio_timebase": {"den": 1, "num": 1}, "acodec": "", "has_video": true, "audio_stream_index": -1, "video_bit_rate": 0, "width": 1366, "display_ratio": {"den": 384, "num": 683}, "channels": 0, "type": "FFmpegReader", "has_audio": false, "pixel_format": 0, "top_field_first": true, "audio_bit_rate": 0, "channel_layout": 4, "sample_rate": 0, "has_single_image": false, "video_length": "1200", "fps": {"den": 1, "num": 25}}, "title": "09-Grace Mark Titles.mkv", "wave_color": {"alpha": {"Points": [{"handle_type": 0, "handle_right": {"X": 0.5, "Y": 0.0}, "interpolation": 0, "handle_left": {"X": 0.5, "Y": 1.0}, "co": {"X": 1.0, "Y": 255.0}}]}, "green": {"Points": [{"handle_type": 0, "handle_right": {"X": 0.5, "Y": 0.0}, "interpolation": 0, "handle_left": {"X": 0.5, "Y": 1.0}, "co": {"X": 1.0, "Y": 123.0}}]}, "red": {"Points": [{"handle_type": 0, "handle_right": {"X": 0.5, "Y": 0.0}, "interpolation": 0, "handle_left": {"X": 0.5, "Y": 1.0}, "co": {"X": 1.0, "Y": 0.0}}]}, "blue": {"Points": [{"handle_type": 0, "handle_right": {"X": 0.5, "Y": 0.0}, "interpolation": 0, "handle_left": {"X": 0.5, "Y": 1.0}, "co": {"X": 1.0, "Y": 255.0}}]}}, "has_audio": {"Points": [{"interpolation": 2, "co": {"X": 1.0, "Y": -1.0}}]}, "perspective_c2_x": {"Points": [{"interpolation": 2, "co": {"X": 1.0, "Y": -1.0}}]}, "rotation": {"Points": [{"interpolation": 2, "co": {"X": 1.0, "Y": 0.0}}]}, "duration": 48.0, "layer": 3, "position": 0.20999999344348907, "anchor": 0, "location_y": {"Points": [{"interpolation": 2, "co": {"X": 1.0, "Y": 0.699999988079071}}]}, "scale_y": {"Points": [{"interpolation": 2, "co": {"X": 1.0, "Y": 3.0}}]}, "location_x": {"Points": [{"interpolation": 2, "co": {"X": 1.0, "Y": 0.5}}, {"interpolation": 1, "co": {"X": 383, "Y": 0.6000000238418579}}]}, "waveform": false, "id": "IQLQFEQVTT", "time": {"Points": [{"interpolation": 2, "co": {"X": 1.0, "Y": 1.0}}]}, "perspective_c1_x": {"Points": [{"interpolation": 2, "co": {"X": 1.0, "Y": -1.0}}]}, "perspective_c4_y": {"Points": [{"interpolation": 2, "co": {"X": 1.0, "Y": -1.0}}]}, "crop_y": {"Points": [{"interpolation": 2, "co": {"X": 1.0, "Y": 0.0}}]}}, "partial": false, "key": ["clips", {"id": "IQLQFEQVTT"}]}]}, "key": ["history"], "old_values": null, "partial": false}, {"type": "update", "value": {"redo": [], "undo": [{"type": "update", "value": {"location_x": {"Points": [{"interpolation": 2, "co": {"X": 1.0, "Y": 0.5}}]}}, "old_values": null, "partial": false, "key": ["clips", {"id": "IQLQFEQVTT"}]}, {"type": "update", "value": {"location_x": {"Points": [{"interpolation": 2, "co": {"X": 1.0, "Y": 0.5}}]}}, "old_values": null, "partial": false, "key": ["clips", {"id": "IQLQFEQVTT"}]}, {"type": "update", "value": {"location_x": {"Points": [{"interpolation": 2, "co": {"X": 1.0, "Y": 0.5}}]}}, "old_values": null, "partial": false, "key": ["clips", {"id": "IQLQFEQVTT"}]}, {"type": "update", "value": {"location_y": {"Points": [{"interpolation": 2, "co": {"X": 1.0, "Y": 0.699999988079071}}]}}, "old_values": null, "partial": false, "key": ["clips", {"id": "IQLQFEQVTT"}]}, {"type": "update", "value": {"location_y": {"Points": [{"interpolation": 2, "co": {"X": 1.0, "Y": 0.699999988079071}}]}}, "old_values": null, "partial": false, "key": ["clips", {"id": "IQLQFEQVTT"}]}, {"type": "update", "value": {"location_y": {"Points": [{"interpolation": 2, "co": {"X": 1.0, "Y": 0.699999988079071}}]}}, "old_values": null, "partial": false, "key": ["clips", {"id": "IQLQFEQVTT"}]}, {"type": "update", "value": {"position": 0.20999999344348907}, "old_values": null, "partial": false, "key": ["clips", {"id": "IQLQFEQVTT"}]}, {"type": "update", "value": {"position": 0.20999999344348907}, "old_values": null, "partial": false, "key": ["clips", {"id": "IQLQFEQVTT"}]}, {"type": "update", "value": {"position": 0.20999999344348907}, "old_values": null, "partial": false, "key": ["clips", {"id": "IQLQFEQVTT"}]}, {"type": "update", "value": {"scale_x": {"Points": [{"interpolation": 2, "co": {"X": 1.0, "Y": 3.0}}]}}, "old_values": null, "partial": false, "key": ["clips", {"id": "IQLQFEQVTT"}]}, {"type": "update", "value": {"scale_x": {"Points": [{"interpolation": 2, "co": {"X": 1.0, "Y": 3.0}}]}}, "old_values": null, "partial": false, "key": ["clips", {"id": "IQLQFEQVTT"}]}, {"type": "update", "value": {"scale_x": {"Points": [{"interpolation": 2, "co": {"X": 1.0, "Y": 3.0}}]}}, "old_values": null, "partial": false, "key": ["clips", {"id": "IQLQFEQVTT"}]}, {"type": "update", "value": {"scale_y": {"Points": [{"interpolation": 2, "co": {"X": 1.0, "Y": 3.0}}]}}, "old_values": null, "partial": false, "key": ["clips", {"id": "IQLQFEQVTT"}]}, {"type": "update", "value": {"scale_y": {"Points": [{"interpolation": 2, "co": {"X": 1.0, "Y": 3.0}}]}}, "old_values": null, "partial": false, "key": ["clips", {"id": "IQLQFEQVTT"}]}, {"type": "update", "value": {"redo": [], "undo": [{"type": "delete", "value": null, "key": ["clips", {"id": "YX0UFQ3Z3A"}], "old_values": {"crop_width": {"Points": [{"interpolation": 2, "co": {"X": 1.0, "Y": -1.0}}]}, "channel_mapping": {"Points": [{"interpolation": 2, "co": {"X": 1.0, "Y": -1.0}}]}, "perspective_c3_x": {"Points": [{"interpolation": 2, "co": {"X": 1.0, "Y": -1.0}}]}, "effects": [], "perspective_c1_x": {"Points": [{"interpolation": 2, "co": {"X": 1.0, "Y": -1.0}}]}, "channel_filter": {"Points": [{"interpolation": 2, "co": {"X": 1.0, "Y": -1.0}}]}, "scale": 1, "perspective_c1_y": {"Points": [{"interpolation": 2, "co": {"X": 1.0, "Y": -1.0}}]}, "gravity": 4, "shear_y": {"Points": [{"interpolation": 2, "co": {"X": 1.0, "Y": 0.0}}]}, "crop_x": {"Points": [{"interpolation": 2, "co": {"X": 1.0, "Y": 0.0}}]}, "end": 43.708333333333336, "file_id": "BGTBTEAKWJ", "image": "/home/milind/.openshot_qt/thumbnail/YX0UFQ3Z3A-6.png", "alpha": {"Points": [{"handle_type": 0, "co": {"X": 1.0, "Y": 1.0}, "interpolation": 0, "handle_left": {"X": 0.5, "Y": 1.0}, "handle_right": {"X": 0.5, "Y": 0.0}}, {"handle_type": 0, "co": {"X": 7.0, "Y": 0.0}, "interpolation": 0, "handle_left": {"X": 0.5, "Y": 1.0}, "handle_right": {"X": 0.5, "Y": 0.0}}, {"handle_type": 0, "co": {"X": 79.0, "Y": 1.0}, "interpolation": 0, "handle_left": {"X": 0.5, "Y": 1.0}, "handle_right": {"X": 0.5, "Y": 0.0}}, {"handle_type": 0, "co": {"X": 2378.0, "Y": 1.0}, "interpolation": 0, "handle_left": {"X": 0.5, "Y": 1.0}, "handle_right": {"X": 0.5, "Y": 0.0}}, {"handle_type": 0, "co": {"X": 2450.0, "Y": 0.0}, "interpolation": 0, "handle_left": {"X": 0.5, "Y": 1.0}, "handle_right": {"X": 0.5, "Y": 0.0}}]}, "has_video": {"Points": [{"interpolation": 2, "co": {"X": 1.0, "Y": -1.0}}]}, "volume": {"Points": [{"interpolation": 2, "co": {"X": 1.0, "Y": 1.0}}]}, "wave_color": {"alpha": {"Points": [{"handle_type": 0, "handle_right": {"X": 0.5, "Y": 0.0}, "interpolation": 0, "handle_left": {"X": 0.5, "Y": 1.0}, "co": {"X": 1.0, "Y": 255.0}}]}, "green": {"Points": [{"handle_type": 0, "handle_right": {"X": 0.5, "Y": 0.0}, "interpolation": 0, "handle_left": {"X": 0.5, "Y": 1.0}, "co": {"X": 1.0, "Y": 123.0}}]}, "red": {"Points": [{"handle_type": 0, "handle_right": {"X": 0.5, "Y": 0.0}, "interpolation": 0, "handle_left": {"X": 0.5, "Y": 1.0}, "co": {"X": 1.0, "Y": 0.0}}]}, "blue": {"Points": [{"handle_type": 0, "handle_right": {"X": 0.5, "Y": 0.0}, "interpolation": 0, "handle_left": {"X": 0.5, "Y": 1.0}, "co": {"X": 1.0, "Y": 255.0}}]}}, "crop_height": {"Points": [{"interpolation": 2, "co": {"X": 1.0, "Y": -1.0}}]}, "reader": {"duration": 48.0, "pixel_ratio": {"den": 1, "num": 1}, "sample_rate": 0, "video_timebase": {"den": 1000, "num": 1}, "height": 768, "file_size": "460413", "vcodec": "h264", "video_stream_index": 0, "interlaced_frame": false, "path": "/home/milind/Data/Projects/ProgressCard/Clips/09-Grace Mark Titles.mkv", "audio_timebase": {"den": 1, "num": 1}, "acodec": "", "has_video": true, "audio_stream_index": -1, "has_single_image": false, "video_bit_rate": 0, "width": 1366, "channels": 0, "type": "FFmpegReader", "has_audio": false, "top_field_first": true, "audio_bit_rate": 0, "channel_layout": 4, "display_ratio": {"den": 384, "num": 683}, "pixel_format": 0, "video_length": "1200", "fps": {"den": 1, "num": 25}}, "perspective_c2_y": {"Points": [{"interpolation": 2, "co": {"X": 1.0, "Y": -1.0}}]}, "shear_x": {"Points": [{"interpolation": 2, "co": {"X": 1.0, "Y": 0.0}}]}, "display": 0, "start": 0.20833333333333334, "perspective_c3_y": {"Points": [{"interpolation": 2, "co": {"X": 1.0, "Y": -1.0}}]}, "title": "09-Grace Mark Titles.mkv", "perspective_c4_x": {"Points": [{"interpolation": 2, "co": {"X": 1.0, "Y": -1.0}}]}, "has_audio": {"Points": [{"interpolation": 2, "co": {"X": 1.0, "Y": -1.0}}]}, "perspective_c2_x": {"Points": [{"interpolation": 2, "co": {"X": 1.0, "Y": -1.0}}]}, "crop_y": {"Points": [{"interpolation": 2, "co": {"X": 1.0, "Y": 0.0}}]}, "duration": 48.0, "layer": 3, "position": 0.20833333333333334, "anchor": 0, "location_y": {"Points": [{"handle_type": 0, "co": {"X": 1.0, "Y": 0.0}, "interpolation": 0, "handle_left": {"X": 0.5, "Y": 1.0}, "handle_right": {"X": 0.5, "Y": 0.0}}, {"interpolation": 1, "co": {"X": 436, "Y": 0.699999988079071}}]}, "scale_y": {"Points": [{"handle_type": 0, "co": {"X": 1.0, "Y": 1.0}, "interpolation": 0, "handle_left": {"X": 0.5, "Y": 1.0}, "handle_right": {"X": 0.5, "Y": 0.0}}, {"interpolation": 1, "co": {"X": 436, "Y": 3.0}}]}, "location_x": {"Points": [{"handle_type": 0, "co": {"X": 1.0, "Y": 0.0}, "interpolation": 0, "handle_left": {"X": 0.5, "Y": 1.0}, "handle_right": {"X": 0.5, "Y": 0.0}}, {"interpolation": 1, "co": {"X": 436, "Y": 0.5}}]}, "waveform": false, "id": "YX0UFQ3Z3A", "time": {"Points": [{"interpolation": 2, "co": {"X": 1.0, "Y": 1.0}}]}, "scale_x": {"Points": [{"handle_type": 0, "co": {"X": 1.0, "Y": 1.0}, "interpolation": 0, "handle_left": {"X": 0.5, "Y": 1.0}, "handle_right": {"X": 0.5, "Y": 0.0}}, {"interpolation": 1, "co": {"X": 436, "Y": 3.0}}]}, "perspective_c4_y": {"Points": [{"interpolation": 2, "co": {"X": 1.0, "Y": -1.0}}]}, "rotation": {"Points": [{"interpolation": 2, "co": {"X": 1.0, "Y": 0.0}}]}}, "partial": false}, {"type": "insert", "value": {"crop_width": {"Points": [{"interpolation": 2, "co": {"X": 1.0, "Y": -1.0}}]}, "channel_filter": {"Points": [{"interpolation": 2, "co": {"X": 1.0, "Y": -1.0}}]}, "perspective_c3_x": {"Points": [{"interpolation": 2, "co": {"X": 1.0, "Y": -1.0}}]}, "effects": [], "perspective_c2_y": {"Points": [{"interpolation": 2, "co": {"X": 1.0, "Y": -1.0}}]}, "channel_mapping": {"Points": [{"interpolation": 2, "co": {"X": 1.0, "Y": -1.0}}]}, "scale_x": {"Points": [{"interpolation": 2, "co": {"X": 1.0, "Y": 1.0}}]}, "scale": 1, "perspective_c1_y": {"Points": [{"interpolation": 2, "co": {"X": 1.0, "Y": -1.0}}]}, "alpha": {"Points": [{"interpolation": 2, "co": {"X": 1.0, "Y": 1.0}}]}, "shear_y": {"Points": [{"interpolation": 2, "co": {"X": 1.0, "Y": 0.0}}]}, "crop_x": {"Points": [{"interpolation": 2, "co": {"X": 1.0, "Y": 0.0}}]}, "end": 48.0, "file_id": "BGTBTEAKWJ", "image": "/home/milind/.openshot_qt/thumbnail/BGTBTEAKWJ.png", "gravity": 4, "has_video": {"Points": [{"interpolation": 2, "co": {"X": 1.0, "Y": -1.0}}]}, "display": 0, "duration": 48.0, "crop_height": {"Points": [{"interpolation": 2, "co": {"X": 1.0, "Y": -1.0}}]}, "perspective_c3_y": {"Points": [{"interpolation": 2, "co": {"X": 1.0, "Y": -1.0}}]}, "shear_x": {"Points": [{"interpolation": 2, "co": {"X": 1.0, "Y": 0.0}}]}, "volume": {"Points": [{"interpolation": 2, "co": {"X": 1.0, "Y": 1.0}}]}, "start": 0.0, "reader": {"duration": 48.0, "pixel_ratio": {"den": 1, "num": 1}, "video_timebase": {"den": 1000, "num": 1}, "height": 768, "file_size": "460413", "vcodec": "h264", "video_stream_index": 0, "interlaced_frame": false, "path": "/home/milind/Data/Projects/ProgressCard/Clips/09-Grace Mark Titles.mkv", "audio_timebase": {"den": 1, "num": 1}, "acodec": "", "has_video": true, "audio_stream_index": -1, "video_bit_rate": 0, "width": 1366, "display_ratio": {"den": 384, "num": 683}, "channels": 0, "type": "FFmpegReader", "has_audio": false, "pixel_format": 0, "top_field_first": true, "audio_bit_rate": 0, "channel_layout": 4, "sample_rate": 0, "has_single_image": false, "video_length": "1200", "fps": {"den": 1, "num": 25}}, "title": "09-Grace Mark Titles.mkv", "wave_color": {"alpha": {"Points": [{"handle_type": 0, "handle_right": {"X": 0.5, "Y": 0.0}, "interpolation": 0, "handle_left": {"X": 0.5, "Y": 1.0}, "co": {"X": 1.0, "Y": 255.0}}]}, "green": {"Points": [{"handle_type": 0, "handle_right": {"X": 0.5, "Y": 0.0}, "interpolation": 0, "handle_left": {"X": 0.5, "Y": 1.0}, "co": {"X": 1.0, "Y": 123.0}}]}, "red": {"Points": [{"handle_type": 0, "handle_right": {"X": 0.5, "Y": 0.0}, "interpolation": 0, "handle_left": {"X": 0.5, "Y": 1.0}, "co": {"X": 1.0, "Y": 0.0}}]}, "blue": {"Points": [{"handle_type": 0, "handle_right": {"X": 0.5, "Y": 0.0}, "interpolation": 0, "handle_left": {"X": 0.5, "Y": 1.0}, "co": {"X": 1.0, "Y": 255.0}}]}}, "has_audio": {"Points": [{"interpolation": 2, "co": {"X": 1.0, "Y": -1.0}}]}, "perspective_c2_x": {"Points": [{"interpolation": 2, "co": {"X": 1.0, "Y": -1.0}}]}, "rotation": {"Points": [{"interpolation": 2, "co": {"X": 1.0, "Y": 0.0}}]}, "layer": 4, "position": 23.52, "anchor": 0, "perspective_c4_x": {"Points": [{"interpolation": 2, "co": {"X": 1.0, "Y": -1.0}}]}, "location_y": {"Points": [{"interpolation": 2, "co": {"X": 1.0, "Y": 0.0}}]}, "scale_y": {"Points": [{"interpolation": 2, "co": {"X": 1.0, "Y": 1.0}}]}, "location_x": {"Points": [{"interpolation": 2, "co": {"X": 1.0, "Y": 0.0}}]}, "waveform": false, "id": "B8ON3103P9", "time": {"Points": [{"interpolation": 2, "co": {"X": 1.0, "Y": 1.0}}]}, "perspective_c1_x": {"Points": [{"interpolation": 2, "co": {"X": 1.0, "Y": -1.0}}]}, "perspective_c4_y": {"Points": [{"interpolation": 2, "co": {"X": 1.0, "Y": -1.0}}]}, "crop_y": {"Points": [{"interpolation": 2, "co": {"X": 1.0, "Y": 0.0}}]}}, "key": ["clips"], "old_values": [], "partial": false}, {"type": "delete", "value": null, "key": ["clips", {"id": "B8ON3103P9"}], "old_values": {"crop_width": {"Points": [{"interpolation": 2, "co": {"X": 1.0, "Y": -1.0}}]}, "channel_mapping": {"Points": [{"interpolation": 2, "co": {"X": 1.0, "Y": -1.0}}]}, "perspective_c3_x": {"Points": [{"interpolation": 2, "co": {"X": 1.0, "Y": -1.0}}]}, "effects": [], "perspective_c2_y": {"Points": [{"interpolation": 2, "co": {"X": 1.0, "Y": -1.0}}]}, "channel_filter": {"Points": [{"interpolation": 2, "co": {"X": 1.0, "Y": -1.0}}]}, "scale": 1, "perspective_c1_y": {"Points": [{"interpolation": 2, "co": {"X": 1.0, "Y": -1.0}}]}, "alpha": {"Points": [{"interpolation": 2, "co": {"X": 1.0, "Y": 1.0}}]}, "shear_y": {"Points": [{"interpolation": 2, "co": {"X": 1.0, "Y": 0.0}}]}, "crop_x": {"Points": [{"interpolation": 2, "co": {"X": 1.0, "Y": 0.0}}]}, "end": 48.0, "file_id": "BGTBTEAKWJ", "image": "/home/milind/.openshot_qt/thumbnail/BGTBTEAKWJ.png", "gravity": 4, "has_video": {"Points": [{"interpolation": 2, "co": {"X": 1.0, "Y": -1.0}}]}, "display": 0, "duration": 48.0, "crop_height": {"Points": [{"interpolation": 2, "co": {"X": 1.0, "Y": -1.0}}]}, "reader": {"duration": 48.0, "pixel_ratio": {"den": 1, "num": 1}, "sample_rate": 0, "video_timebase": {"den": 1000, "num": 1}, "height": 768, "file_size": "460413", "vcodec": "h264", "video_stream_index": 0, "interlaced_frame": false, "path": "/home/milind/Data/Projects/ProgressCard/Clips/09-Grace Mark Titles.mkv", "audio_timebase": {"den": 1, "num": 1}, "acodec": "", "has_video": true, "audio_stream_index": -1, "has_single_image": false, "video_bit_rate": 0, "width": 1366, "channels": 0, "type": "FFmpegReader", "has_audio": false, "top_field_first": true, "audio_bit_rate": 0, "channel_layout": 4, "display_ratio": {"den": 384, "num": 683}, "pixel_format": 0, "video_length": "1200", "fps": {"den": 1, "num": 25}}, "shear_x": {"Points": [{"interpolation": 2, "co": {"X": 1.0, "Y": 0.0}}]}, "volume": {"Points": [{"interpolation": 2, "co": {"X": 1.0, "Y": 1.0}}]}, "start": 0.0, "perspective_c3_y": {"Points": [{"interpolation": 2, "co": {"X": 1.0, "Y": -1.0}}]}, "title": "09-Grace Mark Titles.mkv", "wave_color": {"alpha": {"Points": [{"handle_type": 0, "co": {"X": 1.0, "Y": 255.0}, "interpolation": 0, "handle_left": {"X": 0.5, "Y": 1.0}, "handle_right": {"X": 0.5, "Y": 0.0}}]}, "green": {"Points": [{"handle_type": 0, "co": {"X": 1.0, "Y": 123.0}, "interpolation": 0, "handle_left": {"X": 0.5, "Y": 1.0}, "handle_right": {"X": 0.5, "Y": 0.0}}]}, "blue": {"Points": [{"handle_type": 0, "co": {"X": 1.0, "Y": 255.0}, "interpolation": 0, "handle_left": {"X": 0.5, "Y": 1.0}, "handle_right": {"X": 0.5, "Y": 0.0}}]}, "red": {"Points": [{"handle_type": 0, "co": {"X": 1.0, "Y": 0.0}, "interpolation": 0, "handle_left": {"X": 0.5, "Y": 1.0}, "handle_right": {"X": 0.5, "Y": 0.0}}]}}, "has_audio": {"Points": [{"interpolation": 2, "co": {"X": 1.0, "Y": -1.0}}]}, "perspective_c2_x": {"Points": [{"interpolation": 2, "co": {"X": 1.0, "Y": -1.0}}]}, "crop_y": {"Points": [{"interpolation": 2, "co": {"X": 1.0, "Y": 0.0}}]}, "perspective_c1_x": {"Points": [{"interpolation": 2, "co": {"X": 1.0, "Y": -1.0}}]}, "layer": 4, "position": 23.52, "anchor": 0, "perspective_c4_x": {"Points": [{"interpolation": 2, "co": {"X": 1.0, "Y": -1.0}}]}, "location_y": {"Points": [{"interpolation": 2, "co": {"X": 1.0, "Y": 0.0}}]}, "scale_y": {"Points": [{"interpolation": 2, "co": {"X": 1.0, "Y": 1.0}}]}, "location_x": {"Points": [{"interpolation": 2, "co": {"X": 1.0, "Y": 0.0}}]}, "waveform": false, "id": "B8ON3103P9", "time": {"Points": [{"interpolation": 2, "co": {"X": 1.0, "Y": 1.0}}]}, "scale_x": {"Points": [{"interpolation": 2, "co": {"X": 1.0, "Y": 1.0}}]}, "perspective_c4_y": {"Points": [{"interpolation": 2, "co": {"X": 1.0, "Y": -1.0}}]}, "rotation": {"Points": [{"interpolation": 2, "co": {"X": 1.0, "Y": 0.0}}]}}, "partial": false}, {"type": "insert", "value": {"crop_width": {"Points": [{"interpolation": 2, "co": {"X": 1.0, "Y": -1.0}}]}, "channel_filter": {"Points": [{"interpolation": 2, "co": {"X": 1.0, "Y": -1.0}}]}, "perspective_c3_x": {"Points": [{"interpolation": 2, "co": {"X": 1.0, "Y": -1.0}}]}, "effects": [], "perspective_c2_y": {"Points": [{"interpolation": 2, "co": {"X": 1.0, "Y": -1.0}}]}, "channel_mapping": {"Points": [{"interpolation": 2, "co": {"X": 1.0, "Y": -1.0}}]}, "scale_x": {"Points": [{"interpolation": 2, "co": {"X": 1.0, "Y": 3.0}}]}, "scale": 1, "perspective_c1_y": {"Points": [{"interpolation": 2, "co": {"X": 1.0, "Y": -1.0}}]}, "alpha": {"Points": [{"interpolation": 2, "co": {"X": 1.0, "Y": 1.0}}]}, "shear_y": {"Points": [{"interpolation": 2, "co": {"X": 1.0, "Y": 0.0}}]}, "crop_x": {"Points": [{"interpolation": 2, "co": {"X": 1.0, "Y": 0.0}}]}, "end": 48, "file_id": "BGTBTEAKWJ", "image": "/home/milind/.openshot_qt/thumbnail/BGTBTEAKWJ.png", "gravity": 4, "has_video": {"Points": [{"interpolation": 2, "co": {"X": 1.0, "Y": -1.0}}]}, "display": 0, "perspective_c4_x": {"Points": [{"interpolation": 2, "co": {"X": 1.0, "Y": -1.0}}]}, "crop_height": {"Points": [{"interpolation": 2, "co": {"X": 1.0, "Y": -1.0}}]}, "perspective_c3_y": {"Points": [{"interpolation": 2, "co": {"X": 1.0, "Y": -1.0}}]}, "shear_x": {"Points": [{"interpolation": 2, "co": {"X": 1.0, "Y": 0.0}}]}, "volume": {"Points": [{"interpolation": 2, "co": {"X": 1.0, "Y": 1.0}}]}, "start": 0, "reader": {"duration": 48.0, "pixel_ratio": {"den": 1, "num": 1}, "video_timebase": {"den": 1000, "num": 1}, "height": 768, "file_size": "460413", "vcodec": "h264", "video_stream_index": 0, "interlaced_frame": false, "path": "/home/milind/Data/Projects/ProgressCard/Clips/09-Grace Mark Titles.mkv", "audio_timebase": {"den": 1, "num": 1}, "acodec": "", "has_video": true, "audio_stream_index": -1, "video_bit_rate": 0, "width": 1366, "display_ratio": {"den": 384, "num": 683}, "channels": 0, "type": "FFmpegReader", "has_audio": false, "pixel_format": 0, "top_field_first": true, "audio_bit_rate": 0, "channel_layout": 4, "sample_rate": 0, "has_single_image": false, "video_length": "1200", "fps": {"den": 1, "num": 25}}, "title": "09-Grace Mark Titles.mkv", "wave_color": {"alpha": {"Points": [{"handle_type": 0, "handle_right": {"X": 0.5, "Y": 0.0}, "interpolation": 0, "handle_left": {"X": 0.5, "Y": 1.0}, "co": {"X": 1.0, "Y": 255.0}}]}, "green": {"Points": [{"handle_type": 0, "handle_right": {"X": 0.5, "Y": 0.0}, "interpolation": 0, "handle_left": {"X": 0.5, "Y": 1.0}, "co": {"X": 1.0, "Y": 123.0}}]}, "red": {"Points": [{"handle_type": 0, "handle_right": {"X": 0.5, "Y": 0.0}, "interpolation": 0, "handle_left": {"X": 0.5, "Y": 1.0}, "co": {"X": 1.0, "Y": 0.0}}]}, "blue": {"Points": [{"handle_type": 0, "handle_right": {"X": 0.5, "Y": 0.0}, "interpolation": 0, "handle_left": {"X": 0.5, "Y": 1.0}, "co": {"X": 1.0, "Y": 255.0}}]}}, "has_audio": {"Points": [{"interpolation": 2, "co": {"X": 1.0, "Y": -1.0}}]}, "perspective_c2_x": {"Points": [{"interpolation": 2, "co": {"X": 1.0, "Y": -1.0}}]}, "rotation": {"Points": [{"interpolation": 2, "co": {"X": 1.0, "Y": 0.0}}]}, "duration": 48.0, "layer": 3, "position": 0.20999999344348907, "anchor": 0, "location_y": {"Points": [{"interpolation": 2, "co": {"X": 1.0, "Y": 0.699999988079071}}]}, "scale_y": {"Points": [{"interpolation": 2, "co": {"X": 1.0, "Y": 3.0}}]}, "location_x": {"Points": [{"interpolation": 2, "co": {"X": 1.0, "Y": 0.5}}]}, "waveform": false, "id": "IQLQFEQVTT", "time": {"Points": [{"interpolation": 2, "co": {"X": 1.0, "Y": 1.0}}]}, "perspective_c1_x": {"Points": [{"interpolation": 2, "co": {"X": 1.0, "Y": -1.0}}]}, "perspective_c4_y": {"Points": [{"interpolation": 2, "co": {"X": 1.0, "Y": -1.0}}]}, "crop_y": {"Points": [{"interpolation": 2, "co": {"X": 1.0, "Y": 0.0}}]}}, "key": ["clips"], "old_values": [], "partial": false}, {"type": "update", "value": {"position": 0, "end": 48, "layer": 3, "image": "/home/milind/.openshot_qt/thumbnail/BGTBTEAKWJ.png", "start": 0, "id": "IQLQFEQVTT"}, "key": ["clips", {"id": "IQLQFEQVTT"}], "old_values": null, "partial": false}, {"type": "update", "value": {"position": 0, "end": 48, "layer": 3, "image": "/home/milind/.openshot_qt/thumbnail/BGTBTEAKWJ.png", "start": 0, "id": "IQLQFEQVTT"}, "key": ["clips", {"id": "IQLQFEQVTT"}], "old_values": null, "partial": false}, {"type": "update", "value": {"location_x": {"Points": [{"interpolation": 2, "co": {"X": 1.0, "Y": 0.5}}]}}, "key": ["clips", {"id": "IQLQFEQVTT"}], "old_values": null, "partial": false}, {"type": "update", "value": {"location_x": {"Points": [{"interpolation": 2, "co": {"X": 1.0, "Y": 0.5}}]}}, "key": ["clips", {"id": "IQLQFEQVTT"}], "old_values": null, "partial": false}, {"type": "update", "value": {"location_x": {"Points": [{"interpolation": 2, "co": {"X": 1.0, "Y": 0.5}}]}}, "key": ["clips", {"id": "IQLQFEQVTT"}], "old_values": null, "partial": false}, {"type": "update", "value": {"location_y": {"Points": [{"interpolation": 2, "co": {"X": 1.0, "Y": 0.699999988079071}}]}}, "key": ["clips", {"id": "IQLQFEQVTT"}], "old_values": null, "partial": false}, {"type": "update", "value": {"location_y": {"Points": [{"interpolation": 2, "co": {"X": 1.0, "Y": 0.699999988079071}}]}}, "key": ["clips", {"id": "IQLQFEQVTT"}], "old_values": null, "partial": false}, {"type": "update", "value": {"location_y": {"Points": [{"interpolation": 2, "co": {"X": 1.0, "Y": 0.699999988079071}}]}}, "key": ["clips", {"id": "IQLQFEQVTT"}], "old_values": null, "partial": false}, {"type": "update", "value": {"position": 0.20999999344348907}, "key": ["clips", {"id": "IQLQFEQVTT"}], "old_values": null, "partial": false}, {"type": "update", "value": {"position": 0.20999999344348907}, "key": ["clips", {"id": "IQLQFEQVTT"}], "old_values": null, "partial": false}, {"type": "update", "value": {"position": 0.20999999344348907}, "key": ["clips", {"id": "IQLQFEQVTT"}], "old_values": null, "partial": false}, {"type": "update", "value": {"scale_x": {"Points": [{"interpolation": 2, "co": {"X": 1.0, "Y": 3.0}}]}}, "key": ["clips", {"id": "IQLQFEQVTT"}], "old_values": null, "partial": false}, {"type": "update", "value": {"scale_x": {"Points": [{"interpolation": 2, "co": {"X": 1.0, "Y": 3.0}}]}}, "key": ["clips", {"id": "IQLQFEQVTT"}], "old_values": null, "partial": false}, {"type": "update", "value": {"scale_x": {"Points": [{"interpolation": 2, "co": {"X": 1.0, "Y": 3.0}}]}}, "key": ["clips", {"id": "IQLQFEQVTT"}], "old_values": null, "partial": false}, {"type": "update", "value": {"scale_y": {"Points": [{"interpolation": 2, "co": {"X": 1.0, "Y": 3.0}}]}}, "key": ["clips", {"id": "IQLQFEQVTT"}], "old_values": null, "partial": false}, {"type": "update", "value": {"scale_y": {"Points": [{"interpolation": 2, "co": {"X": 1.0, "Y": 3.0}}]}}, "key": ["clips", {"id": "IQLQFEQVTT"}], "old_values": null, "partial": false}]}, "old_values": null, "partial": false, "key": ["history"]}, {"type": "update", "value": {"redo": [], "undo": [{"type": "delete", "value": null, "key": ["clips", {"id": "YX0UFQ3Z3A"}], "old_values": {"crop_width": {"Points": [{"interpolation": 2, "co": {"X": 1.0, "Y": -1.0}}]}, "channel_mapping": {"Points": [{"interpolation": 2, "co": {"X": 1.0, "Y": -1.0}}]}, "perspective_c3_x": {"Points": [{"interpolation": 2, "co": {"X": 1.0, "Y": -1.0}}]}, "effects": [], "perspective_c1_x": {"Points": [{"interpolation": 2, "co": {"X": 1.0, "Y": -1.0}}]}, "channel_filter": {"Points": [{"interpolation": 2, "co": {"X": 1.0, "Y": -1.0}}]}, "scale": 1, "perspective_c1_y": {"Points": [{"interpolation": 2, "co": {"X": 1.0, "Y": -1.0}}]}, "gravity": 4, "shear_y": {"Points": [{"interpolation": 2, "co": {"X": 1.0, "Y": 0.0}}]}, "crop_x": {"Points": [{"interpolation": 2, "co": {"X": 1.0, "Y": 0.0}}]}, "end": 43.708333333333336, "file_id": "BGTBTEAKWJ", "image": "/home/milind/.openshot_qt/thumbnail/YX0UFQ3Z3A-6.png", "alpha": {"Points": [{"handle_type": 0, "co": {"X": 1.0, "Y": 1.0}, "interpolation": 0, "handle_left": {"X": 0.5, "Y": 1.0}, "handle_right": {"X": 0.5, "Y": 0.0}}, {"handle_type": 0, "co": {"X": 7.0, "Y": 0.0}, "interpolation": 0, "handle_left": {"X": 0.5, "Y": 1.0}, "handle_right": {"X": 0.5, "Y": 0.0}}, {"handle_type": 0, "co": {"X": 79.0, "Y": 1.0}, "interpolation": 0, "handle_left": {"X": 0.5, "Y": 1.0}, "handle_right": {"X": 0.5, "Y": 0.0}}, {"handle_type": 0, "co": {"X": 2378.0, "Y": 1.0}, "interpolation": 0, "handle_left": {"X": 0.5, "Y": 1.0}, "handle_right": {"X": 0.5, "Y": 0.0}}, {"handle_type": 0, "co": {"X": 2450.0, "Y": 0.0}, "interpolation": 0, "handle_left": {"X": 0.5, "Y": 1.0}, "handle_right": {"X": 0.5, "Y": 0.0}}]}, "has_video": {"Points": [{"interpolation": 2, "co": {"X": 1.0, "Y": -1.0}}]}, "volume": {"Points": [{"interpolation": 2, "co": {"X": 1.0, "Y": 1.0}}]}, "wave_color": {"alpha": {"Points": [{"handle_type": 0, "handle_right": {"X": 0.5, "Y": 0.0}, "interpolation": 0, "handle_left": {"X": 0.5, "Y": 1.0}, "co": {"X": 1.0, "Y": 255.0}}]}, "green": {"Points": [{"handle_type": 0, "handle_right": {"X": 0.5, "Y": 0.0}, "interpolation": 0, "handle_left": {"X": 0.5, "Y": 1.0}, "co": {"X": 1.0, "Y": 123.0}}]}, "red": {"Points": [{"handle_type": 0, "handle_right": {"X": 0.5, "Y": 0.0}, "interpolation": 0, "handle_left": {"X": 0.5, "Y": 1.0}, "co": {"X": 1.0, "Y": 0.0}}]}, "blue": {"Points": [{"handle_type": 0, "handle_right": {"X": 0.5, "Y": 0.0}, "interpolation": 0, "handle_left": {"X": 0.5, "Y": 1.0}, "co": {"X": 1.0, "Y": 255.0}}]}}, "crop_height": {"Points": [{"interpolation": 2, "co": {"X": 1.0, "Y": -1.0}}]}, "reader": {"duration": 48.0, "pixel_ratio": {"den": 1, "num": 1}, "sample_rate": 0, "video_timebase": {"den": 1000, "num": 1}, "height": 768, "file_size": "460413", "vcodec": "h264", "video_stream_index": 0, "interlaced_frame": false, "path": "/home/milind/Data/Projects/ProgressCard/Clips/09-Grace Mark Titles.mkv", "audio_timebase": {"den": 1, "num": 1}, "acodec": "", "has_video": true, "audio_stream_index": -1, "has_single_image": false, "video_bit_rate": 0, "width": 1366, "channels": 0, "type": "FFmpegReader", "has_audio": false, "top_field_first": true, "audio_bit_rate": 0, "channel_layout": 4, "display_ratio": {"den": 384, "num": 683}, "pixel_format": 0, "video_length": "1200", "fps": {"den": 1, "num": 25}}, "perspective_c2_y": {"Points": [{"interpolation": 2, "co": {"X": 1.0, "Y": -1.0}}]}, "shear_x": {"Points": [{"interpolation": 2, "co": {"X": 1.0, "Y": 0.0}}]}, "display": 0, "start": 0.20833333333333334, "perspective_c3_y": {"Points": [{"interpolation": 2, "co": {"X": 1.0, "Y": -1.0}}]}, "title": "09-Grace Mark Titles.mkv", "perspective_c4_x": {"Points": [{"interpolation": 2, "co": {"X": 1.0, "Y": -1.0}}]}, "has_audio": {"Points": [{"interpolation": 2, "co": {"X": 1.0, "Y": -1.0}}]}, "perspective_c2_x": {"Points": [{"interpolation": 2, "co": {"X": 1.0, "Y": -1.0}}]}, "crop_y": {"Points": [{"interpolation": 2, "co": {"X": 1.0, "Y": 0.0}}]}, "duration": 48.0, "layer": 3, "position": 0.20833333333333334, "anchor": 0, "location_y": {"Points": [{"handle_type": 0, "co": {"X": 1.0, "Y": 0.0}, "interpolation": 0, "handle_left": {"X": 0.5, "Y": 1.0}, "handle_right": {"X": 0.5, "Y": 0.0}}, {"interpolation": 1, "co": {"X": 436, "Y": 0.699999988079071}}]}, "scale_y": {"Points": [{"handle_type": 0, "co": {"X": 1.0, "Y": 1.0}, "interpolation": 0, "handle_left": {"X": 0.5, "Y": 1.0}, "handle_right": {"X": 0.5, "Y": 0.0}}, {"interpolation": 1, "co": {"X": 436, "Y": 3.0}}]}, "location_x": {"Points": [{"handle_type": 0, "co": {"X": 1.0, "Y": 0.0}, "interpolation": 0, "handle_left": {"X": 0.5, "Y": 1.0}, "handle_right": {"X": 0.5, "Y": 0.0}}, {"interpolation": 1, "co": {"X": 436, "Y": 0.5}}]}, "waveform": false, "id": "YX0UFQ3Z3A", "time": {"Points": [{"interpolation": 2, "co": {"X": 1.0, "Y": 1.0}}]}, "scale_x": {"Points": [{"handle_type": 0, "co": {"X": 1.0, "Y": 1.0}, "interpolation": 0, "handle_left": {"X": 0.5, "Y": 1.0}, "handle_right": {"X": 0.5, "Y": 0.0}}, {"interpolation": 1, "co": {"X": 436, "Y": 3.0}}]}, "perspective_c4_y": {"Points": [{"interpolation": 2, "co": {"X": 1.0, "Y": -1.0}}]}, "rotation": {"Points": [{"interpolation": 2, "co": {"X": 1.0, "Y": 0.0}}]}}, "partial": false}, {"type": "insert", "value": {"crop_width": {"Points": [{"interpolation": 2, "co": {"X": 1.0, "Y": -1.0}}]}, "channel_filter": {"Points": [{"interpolation": 2, "co": {"X": 1.0, "Y": -1.0}}]}, "perspective_c3_x": {"Points": [{"interpolation": 2, "co": {"X": 1.0, "Y": -1.0}}]}, "effects": [], "perspective_c2_y": {"Points": [{"interpolation": 2, "co": {"X": 1.0, "Y": -1.0}}]}, "channel_mapping": {"Points": [{"interpolation": 2, "co": {"X": 1.0, "Y": -1.0}}]}, "scale_x": {"Points": [{"interpolation": 2, "co": {"X": 1.0, "Y": 1.0}}]}, "scale": 1, "perspective_c1_y": {"Points": [{"interpolation": 2, "co": {"X": 1.0, "Y": -1.0}}]}, "alpha": {"Points": [{"interpolation": 2, "co": {"X": 1.0, "Y": 1.0}}]}, "shear_y": {"Points": [{"interpolation": 2, "co": {"X": 1.0, "Y": 0.0}}]}, "crop_x": {"Points": [{"interpolation": 2, "co": {"X": 1.0, "Y": 0.0}}]}, "end": 48.0, "file_id": "BGTBTEAKWJ", "image": "/home/milind/.openshot_qt/thumbnail/BGTBTEAKWJ.png", "gravity": 4, "has_video": {"Points": [{"interpolation": 2, "co": {"X": 1.0, "Y": -1.0}}]}, "display": 0, "duration": 48.0, "crop_height": {"Points": [{"interpolation": 2, "co": {"X": 1.0, "Y": -1.0}}]}, "perspective_c3_y": {"Points": [{"interpolation": 2, "co": {"X": 1.0, "Y": -1.0}}]}, "shear_x": {"Points": [{"interpolation": 2, "co": {"X": 1.0, "Y": 0.0}}]}, "volume": {"Points": [{"interpolation": 2, "co": {"X": 1.0, "Y": 1.0}}]}, "start": 0.0, "reader": {"duration": 48.0, "pixel_ratio": {"den": 1, "num": 1}, "video_timebase": {"den": 1000, "num": 1}, "height": 768, "file_size": "460413", "vcodec": "h264", "video_stream_index": 0, "interlaced_frame": false, "path": "/home/milind/Data/Projects/ProgressCard/Clips/09-Grace Mark Titles.mkv", "audio_timebase": {"den": 1, "num": 1}, "acodec": "", "has_video": true, "audio_stream_index": -1, "video_bit_rate": 0, "width": 1366, "display_ratio": {"den": 384, "num": 683}, "channels": 0, "type": "FFmpegReader", "has_audio": false, "pixel_format": 0, "top_field_first": true, "audio_bit_rate": 0, "channel_layout": 4, "sample_rate": 0, "has_single_image": false, "video_length": "1200", "fps": {"den": 1, "num": 25}}, "title": "09-Grace Mark Titles.mkv", "wave_color": {"alpha": {"Points": [{"handle_type": 0, "handle_right": {"X": 0.5, "Y": 0.0}, "interpolation": 0, "handle_left": {"X": 0.5, "Y": 1.0}, "co": {"X": 1.0, "Y": 255.0}}]}, "green": {"Points": [{"handle_type": 0, "handle_right": {"X": 0.5, "Y": 0.0}, "interpolation": 0, "handle_left": {"X": 0.5, "Y": 1.0}, "co": {"X": 1.0, "Y": 123.0}}]}, "red": {"Points": [{"handle_type": 0, "handle_right": {"X": 0.5, "Y": 0.0}, "interpolation": 0, "handle_left": {"X": 0.5, "Y": 1.0}, "co": {"X": 1.0, "Y": 0.0}}]}, "blue": {"Points": [{"handle_type": 0, "handle_right": {"X": 0.5, "Y": 0.0}, "interpolation": 0, "handle_left": {"X": 0.5, "Y": 1.0}, "co": {"X": 1.0, "Y": 255.0}}]}}, "has_audio": {"Points": [{"interpolation": 2, "co": {"X": 1.0, "Y": -1.0}}]}, "perspective_c2_x": {"Points": [{"interpolation": 2, "co": {"X": 1.0, "Y": -1.0}}]}, "rotation": {"Points": [{"interpolation": 2, "co": {"X": 1.0, "Y": 0.0}}]}, "layer": 4, "position": 23.52, "anchor": 0, "perspective_c4_x": {"Points": [{"interpolation": 2, "co": {"X": 1.0, "Y": -1.0}}]}, "location_y": {"Points": [{"interpolation": 2, "co": {"X": 1.0, "Y": 0.0}}]}, "scale_y": {"Points": [{"interpolation": 2, "co": {"X": 1.0, "Y": 1.0}}]}, "location_x": {"Points": [{"interpolation": 2, "co": {"X": 1.0, "Y": 0.0}}]}, "waveform": false, "id": "B8ON3103P9", "time": {"Points": [{"interpolation": 2, "co": {"X": 1.0, "Y": 1.0}}]}, "perspective_c1_x": {"Points": [{"interpolation": 2, "co": {"X": 1.0, "Y": -1.0}}]}, "perspective_c4_y": {"Points": [{"interpolation": 2, "co": {"X": 1.0, "Y": -1.0}}]}, "crop_y": {"Points": [{"interpolation": 2, "co": {"X": 1.0, "Y": 0.0}}]}}, "key": ["clips"], "old_values": [], "partial": false}, {"type": "delete", "value": null, "key": ["clips", {"id": "B8ON3103P9"}], "old_values": {"crop_width": {"Points": [{"interpolation": 2, "co": {"X": 1.0, "Y": -1.0}}]}, "channel_mapping": {"Points": [{"interpolation": 2, "co": {"X": 1.0, "Y": -1.0}}]}, "perspective_c3_x": {"Points": [{"interpolation": 2, "co": {"X": 1.0, "Y": -1.0}}]}, "effects": [], "perspective_c2_y": {"Points": [{"interpolation": 2, "co": {"X": 1.0, "Y": -1.0}}]}, "channel_filter": {"Points": [{"interpolation": 2, "co": {"X": 1.0, "Y": -1.0}}]}, "scale": 1, "perspective_c1_y": {"Points": [{"interpolation": 2, "co": {"X": 1.0, "Y": -1.0}}]}, "alpha": {"Points": [{"interpolation": 2, "co": {"X": 1.0, "Y": 1.0}}]}, "shear_y": {"Points": [{"interpolation": 2, "co": {"X": 1.0, "Y": 0.0}}]}, "crop_x": {"Points": [{"interpolation": 2, "co": {"X": 1.0, "Y": 0.0}}]}, "end": 48.0, "file_id": "BGTBTEAKWJ", "image": "/home/milind/.openshot_qt/thumbnail/BGTBTEAKWJ.png", "gravity": 4, "has_video": {"Points": [{"interpolation": 2, "co": {"X": 1.0, "Y": -1.0}}]}, "display": 0, "duration": 48.0, "crop_height": {"Points": [{"interpolation": 2, "co": {"X": 1.0, "Y": -1.0}}]}, "reader": {"duration": 48.0, "pixel_ratio": {"den": 1, "num": 1}, "sample_rate": 0, "video_timebase": {"den": 1000, "num": 1}, "height": 768, "file_size": "460413", "vcodec": "h264", "video_stream_index": 0, "interlaced_frame": false, "path": "/home/milind/Data/Projects/ProgressCard/Clips/09-Grace Mark Titles.mkv", "audio_timebase": {"den": 1, "num": 1}, "acodec": "", "has_video": true, "audio_stream_index": -1, "has_single_image": false, "video_bit_rate": 0, "width": 1366, "channels": 0, "type": "FFmpegReader", "has_audio": false, "top_field_first": true, "audio_bit_rate": 0, "channel_layout": 4, "display_ratio": {"den": 384, "num": 683}, "pixel_format": 0, "video_length": "1200", "fps": {"den": 1, "num": 25}}, "shear_x": {"Points": [{"interpolation": 2, "co": {"X": 1.0, "Y": 0.0}}]}, "volume": {"Points": [{"interpolation": 2, "co": {"X": 1.0, "Y": 1.0}}]}, "start": 0.0, "perspective_c3_y": {"Points": [{"interpolation": 2, "co": {"X": 1.0, "Y": -1.0}}]}, "title": "09-Grace Mark Titles.mkv", "wave_color": {"alpha": {"Points": [{"handle_type": 0, "co": {"X": 1.0, "Y": 255.0}, "interpolation": 0, "handle_left": {"X": 0.5, "Y": 1.0}, "handle_right": {"X": 0.5, "Y": 0.0}}]}, "green": {"Points": [{"handle_type": 0, "co": {"X": 1.0, "Y": 123.0}, "interpolation": 0, "handle_left": {"X": 0.5, "Y": 1.0}, "handle_right": {"X": 0.5, "Y": 0.0}}]}, "blue": {"Points": [{"handle_type": 0, "co": {"X": 1.0, "Y": 255.0}, "interpolation": 0, "handle_left": {"X": 0.5, "Y": 1.0}, "handle_right": {"X": 0.5, "Y": 0.0}}]}, "red": {"Points": [{"handle_type": 0, "co": {"X": 1.0, "Y": 0.0}, "interpolation": 0, "handle_left": {"X": 0.5, "Y": 1.0}, "handle_right": {"X": 0.5, "Y": 0.0}}]}}, "has_audio": {"Points": [{"interpolation": 2, "co": {"X": 1.0, "Y": -1.0}}]}, "perspective_c2_x": {"Points": [{"interpolation": 2, "co": {"X": 1.0, "Y": -1.0}}]}, "crop_y": {"Points": [{"interpolation": 2, "co": {"X": 1.0, "Y": 0.0}}]}, "perspective_c1_x": {"Points": [{"interpolation": 2, "co": {"X": 1.0, "Y": -1.0}}]}, "layer": 4, "position": 23.52, "anchor": 0, "perspective_c4_x": {"Points": [{"interpolation": 2, "co": {"X": 1.0, "Y": -1.0}}]}, "location_y": {"Points": [{"interpolation": 2, "co": {"X": 1.0, "Y": 0.0}}]}, "scale_y": {"Points": [{"interpolation": 2, "co": {"X": 1.0, "Y": 1.0}}]}, "location_x": {"Points": [{"interpolation": 2, "co": {"X": 1.0, "Y": 0.0}}]}, "waveform": false, "id": "B8ON3103P9", "time": {"Points": [{"interpolation": 2, "co": {"X": 1.0, "Y": 1.0}}]}, "scale_x": {"Points": [{"interpolation": 2, "co": {"X": 1.0, "Y": 1.0}}]}, "perspective_c4_y": {"Points": [{"interpolation": 2, "co": {"X": 1.0, "Y": -1.0}}]}, "rotation": {"Points": [{"interpolation": 2, "co": {"X": 1.0, "Y": 0.0}}]}}, "partial": false}, {"type": "insert", "value": {"crop_width": {"Points": [{"interpolation": 2, "co": {"X": 1.0, "Y": -1.0}}]}, "channel_filter": {"Points": [{"interpolation": 2, "co": {"X": 1.0, "Y": -1.0}}]}, "perspective_c3_x": {"Points": [{"interpolation": 2, "co": {"X": 1.0, "Y": -1.0}}]}, "effects": [], "perspective_c2_y": {"Points": [{"interpolation": 2, "co": {"X": 1.0, "Y": -1.0}}]}, "channel_mapping": {"Points": [{"interpolation": 2, "co": {"X": 1.0, "Y": -1.0}}]}, "scale_x": {"Points": [{"interpolation": 2, "co": {"X": 1.0, "Y": 3.0}}]}, "scale": 1, "perspective_c1_y": {"Points": [{"interpolation": 2, "co": {"X": 1.0, "Y": -1.0}}]}, "alpha": {"Points": [{"interpolation": 2, "co": {"X": 1.0, "Y": 1.0}}]}, "shear_y": {"Points": [{"interpolation": 2, "co": {"X": 1.0, "Y": 0.0}}]}, "crop_x": {"Points": [{"interpolation": 2, "co": {"X": 1.0, "Y": 0.0}}]}, "end": 48, "file_id": "BGTBTEAKWJ", "image": "/home/milind/.openshot_qt/thumbnail/BGTBTEAKWJ.png", "gravity": 4, "has_video": {"Points": [{"interpolation": 2, "co": {"X": 1.0, "Y": -1.0}}]}, "display": 0, "perspective_c4_x": {"Points": [{"interpolation": 2, "co": {"X": 1.0, "Y": -1.0}}]}, "crop_height": {"Points": [{"interpolation": 2, "co": {"X": 1.0, "Y": -1.0}}]}, "perspective_c3_y": {"Points": [{"interpolation": 2, "co": {"X": 1.0, "Y": -1.0}}]}, "shear_x": {"Points": [{"interpolation": 2, "co": {"X": 1.0, "Y": 0.0}}]}, "volume": {"Points": [{"interpolation": 2, "co": {"X": 1.0, "Y": 1.0}}]}, "start": 0, "reader": {"duration": 48.0, "pixel_ratio": {"den": 1, "num": 1}, "video_timebase": {"den": 1000, "num": 1}, "height": 768, "file_size": "460413", "vcodec": "h264", "video_stream_index": 0, "interlaced_frame": false, "path": "/home/milind/Data/Projects/ProgressCard/Clips/09-Grace Mark Titles.mkv", "audio_timebase": {"den": 1, "num": 1}, "acodec": "", "has_video": true, "audio_stream_index": -1, "video_bit_rate": 0, "width": 1366, "display_ratio": {"den": 384, "num": 683}, "channels": 0, "type": "FFmpegReader", "has_audio": false, "pixel_format": 0, "top_field_first": true, "audio_bit_rate": 0, "channel_layout": 4, "sample_rate": 0, "has_single_image": false, "video_length": "1200", "fps": {"den": 1, "num": 25}}, "title": "09-Grace Mark Titles.mkv", "wave_color": {"alpha": {"Points": [{"handle_type": 0, "handle_right": {"X": 0.5, "Y": 0.0}, "interpolation": 0, "handle_left": {"X": 0.5, "Y": 1.0}, "co": {"X": 1.0, "Y": 255.0}}]}, "green": {"Points": [{"handle_type": 0, "handle_right": {"X": 0.5, "Y": 0.0}, "interpolation": 0, "handle_left": {"X": 0.5, "Y": 1.0}, "co": {"X": 1.0, "Y": 123.0}}]}, "red": {"Points": [{"handle_type": 0, "handle_right": {"X": 0.5, "Y": 0.0}, "interpolation": 0, "handle_left": {"X": 0.5, "Y": 1.0}, "co": {"X": 1.0, "Y": 0.0}}]}, "blue": {"Points": [{"handle_type": 0, "handle_right": {"X": 0.5, "Y": 0.0}, "interpolation": 0, "handle_left": {"X": 0.5, "Y": 1.0}, "co": {"X": 1.0, "Y": 255.0}}]}}, "has_audio": {"Points": [{"interpolation": 2, "co": {"X": 1.0, "Y": -1.0}}]}, "perspective_c2_x": {"Points": [{"interpolation": 2, "co": {"X": 1.0, "Y": -1.0}}]}, "rotation": {"Points": [{"interpolation": 2, "co": {"X": 1.0, "Y": 0.0}}]}, "duration": 48.0, "layer": 3, "position": 0.20999999344348907, "anchor": 0, "location_y": {"Points": [{"interpolation": 2, "co": {"X": 1.0, "Y": 0.699999988079071}}]}, "scale_y": {"Points": [{"interpolation": 2, "co": {"X": 1.0, "Y": 3.0}}]}, "location_x": {"Points": [{"interpolation": 2, "co": {"X": 1.0, "Y": 0.5}}]}, "waveform": false, "id": "IQLQFEQVTT", "time": {"Points": [{"interpolation": 2, "co": {"X": 1.0, "Y": 1.0}}]}, "perspective_c1_x": {"Points": [{"interpolation": 2, "co": {"X": 1.0, "Y": -1.0}}]}, "perspective_c4_y": {"Points": [{"interpolation": 2, "co": {"X": 1.0, "Y": -1.0}}]}, "crop_y": {"Points": [{"interpolation": 2, "co": {"X": 1.0, "Y": 0.0}}]}}, "key": ["clips"], "old_values": [], "partial": false}, {"type": "update", "value": {"position": 0, "end": 48, "layer": 3, "image": "/home/milind/.openshot_qt/thumbnail/BGTBTEAKWJ.png", "start": 0, "id": "IQLQFEQVTT"}, "key": ["clips", {"id": "IQLQFEQVTT"}], "old_values": null, "partial": false}, {"type": "update", "value": {"position": 0, "end": 48, "layer": 3, "image": "/home/milind/.openshot_qt/thumbnail/BGTBTEAKWJ.png", "start": 0, "id": "IQLQFEQVTT"}, "key": ["clips", {"id": "IQLQFEQVTT"}], "old_values": null, "partial": false}, {"type": "update", "value": {"location_x": {"Points": [{"interpolation": 2, "co": {"X": 1.0, "Y": 0.5}}]}}, "key": ["clips", {"id": "IQLQFEQVTT"}], "old_values": null, "partial": false}, {"type": "update", "value": {"location_x": {"Points": [{"interpolation": 2, "co": {"X": 1.0, "Y": 0.5}}]}}, "key": ["clips", {"id": "IQLQFEQVTT"}], "old_values": null, "partial": false}, {"type": "update", "value": {"location_x": {"Points": [{"interpolation": 2, "co": {"X": 1.0, "Y": 0.5}}]}}, "key": ["clips", {"id": "IQLQFEQVTT"}], "old_values": null, "partial": false}, {"type": "update", "value": {"location_y": {"Points": [{"interpolation": 2, "co": {"X": 1.0, "Y": 0.699999988079071}}]}}, "key": ["clips", {"id": "IQLQFEQVTT"}], "old_values": null, "partial": false}, {"type": "update", "value": {"location_y": {"Points": [{"interpolation": 2, "co": {"X": 1.0, "Y": 0.699999988079071}}]}}, "key": ["clips", {"id": "IQLQFEQVTT"}], "old_values": null, "partial": false}, {"type": "update", "value": {"location_y": {"Points": [{"interpolation": 2, "co": {"X": 1.0, "Y": 0.699999988079071}}]}}, "key": ["clips", {"id": "IQLQFEQVTT"}], "old_values": null, "partial": false}, {"type": "update", "value": {"position": 0.20999999344348907}, "key": ["clips", {"id": "IQLQFEQVTT"}], "old_values": null, "partial": false}, {"type": "update", "value": {"position": 0.20999999344348907}, "key": ["clips", {"id": "IQLQFEQVTT"}], "old_values": null, "partial": false}, {"type": "update", "value": {"position": 0.20999999344348907}, "key": ["clips", {"id": "IQLQFEQVTT"}], "old_values": null, "partial": false}, {"type": "update", "value": {"scale_x": {"Points": [{"interpolation": 2, "co": {"X": 1.0, "Y": 3.0}}]}}, "key": ["clips", {"id": "IQLQFEQVTT"}], "old_values": null, "partial": false}, {"type": "update", "value": {"scale_x": {"Points": [{"interpolation": 2, "co": {"X": 1.0, "Y": 3.0}}]}}, "key": ["clips", {"id": "IQLQFEQVTT"}], "old_values": null, "partial": false}, {"type": "update", "value": {"scale_x": {"Points": [{"interpolation": 2, "co": {"X": 1.0, "Y": 3.0}}]}}, "key": ["clips", {"id": "IQLQFEQVTT"}], "old_values": null, "partial": false}, {"type": "update", "value": {"scale_y": {"Points": [{"interpolation": 2, "co": {"X": 1.0, "Y": 3.0}}]}}, "key": ["clips", {"id": "IQLQFEQVTT"}], "old_values": null, "partial": false}, {"type": "update", "value": {"scale_y": {"Points": [{"interpolation": 2, "co": {"X": 1.0, "Y": 3.0}}]}}, "key": ["clips", {"id": "IQLQFEQVTT"}], "old_values": null, "partial": false}]}, "old_values": null, "partial": false, "key": ["history"]}, {"type": "update", "value": {"location_x": {"Points": [{"interpolation": 2, "co": {"X": 1.0, "Y": 0.5}}, {"interpolation": 1, "co": {"X": 383, "Y": 0.6000000238418579}}]}}, "old_values": null, "partial": false, "key": ["clips", {"id": "IQLQFEQVTT"}]}, {"type": "update", "value": {"location_x": {"Points": [{"interpolation": 2, "co": {"X": 1.0, "Y": 0.5}}, {"interpolation": 1, "co": {"X": 383, "Y": 0.6000000238418579}}]}}, "old_values": null, "partial": false, "key": ["clips", {"id": "IQLQFEQVTT"}]}, {"type": "update", "value": {"location_x": {"Points": [{"interpolation": 2, "co": {"X": 1.0, "Y": 0.5}}, {"interpolation": 1, "co": {"X": 383, "Y": 0.6000000238418579}}]}}, "old_values": null, "partial": false, "key": ["clips", {"id": "IQLQFEQVTT"}]}, {"type": "update", "value": {"location_x": {"Points": [{"interpolation": 2, "co": {"X": 1.0, "Y": 0.5}}, {"interpolation": 1, "co": {"X": 383, "Y": 0.4000000059604645}}]}}, "old_values": {"crop_width": {"Points": [{"interpolation": 2, "co": {"X": 1.0, "Y": -1.0}}]}, "channel_filter": {"Points": [{"interpolation": 2, "co": {"X": 1.0, "Y": -1.0}}]}, "perspective_c3_x": {"Points": [{"interpolation": 2, "co": {"X": 1.0, "Y": -1.0}}]}, "effects": [], "perspective_c2_y": {"Points": [{"interpolation": 2, "co": {"X": 1.0, "Y": -1.0}}]}, "channel_mapping": {"Points": [{"interpolation": 2, "co": {"X": 1.0, "Y": -1.0}}]}, "scale_x": {"Points": [{"interpolation": 2, "co": {"X": 1.0, "Y": 3.0}}]}, "scale": 1, "perspective_c1_y": {"Points": [{"interpolation": 2, "co": {"X": 1.0, "Y": -1.0}}]}, "alpha": {"Points": [{"interpolation": 2, "co": {"X": 1.0, "Y": 1.0}}]}, "shear_y": {"Points": [{"interpolation": 2, "co": {"X": 1.0, "Y": 0.0}}]}, "crop_x": {"Points": [{"interpolation": 2, "co": {"X": 1.0, "Y": 0.0}}]}, "end": 48, "file_id": "BGTBTEAKWJ", "image": "/home/milind/.openshot_qt/thumbnail/BGTBTEAKWJ.png", "gravity": 4, "has_video": {"Points": [{"interpolation": 2, "co": {"X": 1.0, "Y": -1.0}}]}, "display": 0, "perspective_c4_x": {"Points": [{"interpolation": 2, "co": {"X": 1.0, "Y": -1.0}}]}, "crop_height": {"Points": [{"interpolation": 2, "co": {"X": 1.0, "Y": -1.0}}]}, "perspective_c3_y": {"Points": [{"interpolation": 2, "co": {"X": 1.0, "Y": -1.0}}]}, "shear_x": {"Points": [{"interpolation": 2, "co": {"X": 1.0, "Y": 0.0}}]}, "volume": {"Points": [{"interpolation": 2, "co": {"X": 1.0, "Y": 1.0}}]}, "start": 0, "reader": {"duration": 48.0, "pixel_ratio": {"den": 1, "num": 1}, "video_timebase": {"den": 1000, "num": 1}, "height": 768, "file_size": "460413", "vcodec": "h264", "video_stream_index": 0, "interlaced_frame": false, "path": "/home/milind/Data/Projects/ProgressCard/Clips/09-Grace Mark Titles.mkv", "audio_timebase": {"den": 1, "num": 1}, "acodec": "", "has_video": true, "audio_stream_index": -1, "video_bit_rate": 0, "width": 1366, "display_ratio": {"den": 384, "num": 683}, "channels": 0, "type": "FFmpegReader", "has_audio": false, "pixel_format": 0, "top_field_first": true, "audio_bit_rate": 0, "channel_layout": 4, "sample_rate": 0, "has_single_image": false, "video_length": "1200", "fps": {"den": 1, "num": 25}}, "title": "09-Grace Mark Titles.mkv", "wave_color": {"alpha": {"Points": [{"handle_type": 0, "handle_right": {"X": 0.5, "Y": 0.0}, "interpolation": 0, "handle_left": {"X": 0.5, "Y": 1.0}, "co": {"X": 1.0, "Y": 255.0}}]}, "green": {"Points": [{"handle_type": 0, "handle_right": {"X": 0.5, "Y": 0.0}, "interpolation": 0, "handle_left": {"X": 0.5, "Y": 1.0}, "co": {"X": 1.0, "Y": 123.0}}]}, "red": {"Points": [{"handle_type": 0, "handle_right": {"X": 0.5, "Y": 0.0}, "interpolation": 0, "handle_left": {"X": 0.5, "Y": 1.0}, "co": {"X": 1.0, "Y": 0.0}}]}, "blue": {"Points": [{"handle_type": 0, "handle_right": {"X": 0.5, "Y": 0.0}, "interpolation": 0, "handle_left": {"X": 0.5, "Y": 1.0}, "co": {"X": 1.0, "Y": 255.0}}]}}, "has_audio": {"Points": [{"interpolation": 2, "co": {"X": 1.0, "Y": -1.0}}]}, "perspective_c2_x": {"Points": [{"interpolation": 2, "co": {"X": 1.0, "Y": -1.0}}]}, "rotation": {"Points": [{"interpolation": 2, "co": {"X": 1.0, "Y": 0.0}}]}, "duration": 48.0, "layer": 3, "position": 0.20999999344348907, "anchor": 0, "location_y": {"Points": [{"interpolation": 2, "co": {"X": 1.0, "Y": 0.699999988079071}}]}, "scale_y": {"Points": [{"interpolation": 2, "co": {"X": 1.0, "Y": 3.0}}]}, "location_x": {"Points": [{"interpolation": 2, "co": {"X": 1.0, "Y": 0.5}}, {"interpolation": 1, "co": {"X": 383, "Y": 0.6000000238418579}}]}, "waveform": false, "id": "IQLQFEQVTT", "time": {"Points": [{"interpolation": 2, "co": {"X": 1.0, "Y": 1.0}}]}, "perspective_c1_x": {"Points": [{"interpolation": 2, "co": {"X": 1.0, "Y": -1.0}}]}, "perspective_c4_y": {"Points": [{"interpolation": 2, "co": {"X": 1.0, "Y": -1.0}}]}, "crop_y": {"Points": [{"interpolation": 2, "co": {"X": 1.0, "Y": 0.0}}]}}, "partial": false, "key": ["clips", {"id": "IQLQFEQVTT"}]}]}, "key": ["history"], "old_values": null, "partial": false}, {"type": "update", "value": {"location_x": {"Points": [{"interpolation": 2, "co": {"X": 1.0, "Y": 0.5}}, {"interpolation": 1, "co": {"X": 383, "Y": 0.30000001192092896}}]}}, "key": ["clips", {"id": "IQLQFEQVTT"}], "old_values": null, "partial": false}, {"type": "update", "value": {"location_x": {"Points": [{"interpolation": 2, "co": {"X": 1.0, "Y": 0.5}}, {"interpolation": 1, "co": {"X": 383, "Y": 0.30000001192092896}}]}}, "key": ["clips", {"id": "IQLQFEQVTT"}], "old_values": null, "partial": false}, {"type": "update", "value": {"location_x": {"Points": [{"interpolation": 2, "co": {"X": 1.0, "Y": 0.5}}, {"interpolation": 1, "co": {"X": 383, "Y": 0.30000001192092896}}]}}, "key": ["clips", {"id": "IQLQFEQVTT"}], "old_values": null, "partial": false}, {"type": "update", "value": {"location_x": {"Points": [{"interpolation": 2, "co": {"X": 1.0, "Y": 0.5}}, {"interpolation": 1, "co": {"X": 383, "Y": 0.20000000298023224}}]}}, "key": ["clips", {"id": "IQLQFEQVTT"}], "old_values": null, "partial": false}, {"type": "update", "value": {"location_x": {"Points": [{"interpolation": 2, "co": {"X": 1.0, "Y": 0.5}}, {"interpolation": 1, "co": {"X": 383, "Y": 0.20000000298023224}}]}}, "key": ["clips", {"id": "IQLQFEQVTT"}], "old_values": null, "partial": false}, {"type": "update", "value": {"location_x": {"Points": [{"interpolation": 2, "co": {"X": 1.0, "Y": 0.5}}, {"interpolation": 1, "co": {"X": 383, "Y": 0.20000000298023224}}]}}, "key": ["clips", {"id": "IQLQFEQVTT"}], "old_values": null, "partial": false}, {"type": "update", "value": {"location_x": {"Points": [{"interpolation": 2, "co": {"X": 1.0, "Y": 0.5}}, {"interpolation": 1, "co": {"X": 383, "Y": 0.10000000149011612}}]}}, "key": ["clips", {"id": "IQLQFEQVTT"}], "old_values": {"crop_width": {"Points": [{"interpolation": 2, "co": {"X": 1.0, "Y": -1.0}}]}, "channel_mapping": {"Points": [{"interpolation": 2, "co": {"X": 1.0, "Y": -1.0}}]}, "perspective_c3_x": {"Points": [{"interpolation": 2, "co": {"X": 1.0, "Y": -1.0}}]}, "effects": [], "perspective_c1_x": {"Points": [{"interpolation": 2, "co": {"X": 1.0, "Y": -1.0}}]}, "channel_filter": {"Points": [{"interpolation": 2, "co": {"X": 1.0, "Y": -1.0}}]}, "scale": 1, "perspective_c1_y": {"Points": [{"interpolation": 2, "co": {"X": 1.0, "Y": -1.0}}]}, "alpha": {"Points": [{"interpolation": 2, "co": {"X": 1.0, "Y": 1.0}}]}, "shear_y": {"Points": [{"interpolation": 2, "co": {"X": 1.0, "Y": 0.0}}]}, "crop_x": {"Points": [{"interpolation": 2, "co": {"X": 1.0, "Y": 0.0}}]}, "end": 48, "file_id": "BGTBTEAKWJ", "image": "/home/milind/.openshot_qt/thumbnail/BGTBTEAKWJ.png", "gravity": 4, "has_video": {"Points": [{"interpolation": 2, "co": {"X": 1.0, "Y": -1.0}}]}, "display": 0, "perspective_c4_x": {"Points": [{"interpolation": 2, "co": {"X": 1.0, "Y": -1.0}}]}, "crop_height": {"Points": [{"interpolation": 2, "co": {"X": 1.0, "Y": -1.0}}]}, "reader": {"duration": 48.0, "pixel_ratio": {"den": 1, "num": 1}, "sample_rate": 0, "video_timebase": {"den": 1000, "num": 1}, "height": 768, "file_size": "460413", "vcodec": "h264", "video_stream_index": 0, "interlaced_frame": false, "path": "/home/milind/Data/Projects/ProgressCard/Clips/09-Grace Mark Titles.mkv", "audio_timebase": {"den": 1, "num": 1}, "acodec": "", "has_video": true, "audio_stream_index": -1, "has_single_image": false, "video_bit_rate": 0, "width": 1366, "channels": 0, "type": "FFmpegReader", "has_audio": false, "top_field_first": true, "audio_bit_rate": 0, "channel_layout": 4, "display_ratio": {"den": 384, "num": 683}, "pixel_format": 0, "video_length": "1200", "fps": {"den": 1, "num": 25}}, "perspective_c2_y": {"Points": [{"interpolation": 2, "co": {"X": 1.0, "Y": -1.0}}]}, "shear_x": {"Points": [{"interpolation": 2, "co": {"X": 1.0, "Y": 0.0}}]}, "volume": {"Points": [{"interpolation": 2, "co": {"X": 1.0, "Y": 1.0}}]}, "start": 0, "perspective_c3_y": {"Points": [{"interpolation": 2, "co": {"X": 1.0, "Y": -1.0}}]}, "title": "09-Grace Mark Titles.mkv", "wave_color": {"alpha": {"Points": [{"handle_type": 0, "co": {"X": 1.0, "Y": 255.0}, "interpolation": 0, "handle_left": {"X": 0.5, "Y": 1.0}, "handle_right": {"X": 0.5, "Y": 0.0}}]}, "green": {"Points": [{"handle_type": 0, "co": {"X": 1.0, "Y": 123.0}, "interpolation": 0, "handle_left": {"X": 0.5, "Y": 1.0}, "handle_right": {"X": 0.5, "Y": 0.0}}]}, "blue": {"Points": [{"handle_type": 0, "co": {"X": 1.0, "Y": 255.0}, "interpolation": 0, "handle_left": {"X": 0.5, "Y": 1.0}, "handle_right": {"X": 0.5, "Y": 0.0}}]}, "red": {"Points": [{"handle_type": 0, "co": {"X": 1.0, "Y": 0.0}, "interpolation": 0, "handle_left": {"X": 0.5, "Y": 1.0}, "handle_right": {"X": 0.5, "Y": 0.0}}]}}, "has_audio": {"Points": [{"interpolation": 2, "co": {"X": 1.0, "Y": -1.0}}]}, "perspective_c2_x": {"Points": [{"interpolation": 2, "co": {"X": 1.0, "Y": -1.0}}]}, "crop_y": {"Points": [{"interpolation": 2, "co": {"X": 1.0, "Y": 0.0}}]}, "duration": 48.0, "layer": 3, "position": 0.20999999344348907, "anchor": 0, "location_y": {"Points": [{"interpolation": 2, "co": {"X": 1.0, "Y": 0.699999988079071}}]}, "scale_y": {"Points": [{"interpolation": 2, "co": {"X": 1.0, "Y": 3.0}}]}, "location_x": {"Points": [{"interpolation": 2, "co": {"X": 1.0, "Y": 0.5}}, {"interpolation": 1, "co": {"X": 383, "Y": 0.20000000298023224}}]}, "waveform": false, "id": "IQLQFEQVTT", "time": {"Points": [{"interpolation": 2, "co": {"X": 1.0, "Y": 1.0}}]}, "scale_x": {"Points": [{"interpolation": 2, "co": {"X": 1.0, "Y": 3.0}}]}, "perspective_c4_y": {"Points": [{"interpolation": 2, "co": {"X": 1.0, "Y": -1.0}}]}, "rotation": {"Points": [{"interpolation": 2, "co": {"X": 1.0, "Y": 0.0}}]}}, "partial": false}, {"type": "update", "value": {"crop_width": {"Points": [{"interpolation": 2, "co": {"X": 1.0, "Y": -1.0}}]}, "channel_mapping": {"Points": [{"interpolation": 2, "co": {"X": 1.0, "Y": -1.0}}]}, "perspective_c3_x": {"Points": [{"interpolation": 2, "co": {"X": 1.0, "Y": -1.0}}]}, "effects": [], "perspective_c1_x": {"Points": [{"interpolation": 2, "co": {"X": 1.0, "Y": -1.0}}]}, "channel_filter": {"Points": [{"interpolation": 2, "co": {"X": 1.0, "Y": -1.0}}]}, "scale": 1, "perspective_c1_y": {"Points": [{"interpolation": 2, "co": {"X": 1.0, "Y": -1.0}}]}, "alpha": {"Points": [{"interpolation": 2, "co": {"X": 1.0, "Y": 1.0}}, {"handle_type": 0, "handle_left": {"X": 0.5, "Y": 1.0}, "co": {"X": 1.0, "Y": 0.0}, "interpolation": 0, "handle_right": {"X": 0.5, "Y": 0.0}}, {"handle_type": 0, "handle_left": {"X": 0.5, "Y": 1.0}, "co": {"X": 73.0, "Y": 1.0}, "interpolation": 0, "handle_right": {"X": 0.5, "Y": 0.0}}]}, "shear_y": {"Points": [{"interpolation": 2, "co": {"X": 1.0, "Y": 0.0}}]}, "crop_x": {"Points": [{"interpolation": 2, "co": {"X": 1.0, "Y": 0.0}}]}, "end": 48, "file_id": "BGTBTEAKWJ", "image": "/home/milind/.openshot_qt/thumbnail/BGTBTEAKWJ.png", "gravity": 4, "has_video": {"Points": [{"interpolation": 2, "co": {"X": 1.0, "Y": -1.0}}]}, "display": 0, "perspective_c4_x": {"Points": [{"interpolation": 2, "co": {"X": 1.0, "Y": -1.0}}]}, "crop_height": {"Points": [{"interpolation": 2, "co": {"X": 1.0, "Y": -1.0}}]}, "anchor": 0, "perspective_c2_y": {"Points": [{"interpolation": 2, "co": {"X": 1.0, "Y": -1.0}}]}, "shear_x": {"Points": [{"interpolation": 2, "co": {"X": 1.0, "Y": 0.0}}]}, "volume": {"Points": [{"interpolation": 2, "co": {"X": 1.0, "Y": 1.0}}]}, "start": 0, "perspective_c3_y": {"Points": [{"interpolation": 2, "co": {"X": 1.0, "Y": -1.0}}]}, "title": "09-Grace Mark Titles.mkv", "wave_color": {"alpha": {"Points": [{"handle_type": 0, "co": {"X": 1.0, "Y": 255.0}, "interpolation": 0, "handle_left": {"X": 0.5, "Y": 1.0}, "handle_right": {"X": 0.5, "Y": 0.0}}]}, "green": {"Points": [{"handle_type": 0, "co": {"X": 1.0, "Y": 123.0}, "interpolation": 0, "handle_left": {"X": 0.5, "Y": 1.0}, "handle_right": {"X": 0.5, "Y": 0.0}}]}, "blue": {"Points": [{"handle_type": 0, "co": {"X": 1.0, "Y": 255.0}, "interpolation": 0, "handle_left": {"X": 0.5, "Y": 1.0}, "handle_right": {"X": 0.5, "Y": 0.0}}]}, "red": {"Points": [{"handle_type": 0, "co": {"X": 1.0, "Y": 0.0}, "interpolation": 0, "handle_left": {"X": 0.5, "Y": 1.0}, "handle_right": {"X": 0.5, "Y": 0.0}}]}}, "has_audio": {"Points": [{"interpolation": 2, "co": {"X": 1.0, "Y": -1.0}}]}, "perspective_c2_x": {"Points": [{"interpolation": 2, "co": {"X": 1.0, "Y": -1.0}}]}, "crop_y": {"Points": [{"interpolation": 2, "co": {"X": 1.0, "Y": 0.0}}]}, "duration": 48.0, "layer": 3, "position": 0.20999999344348907, "location_y": {"Points": [{"interpolation": 2, "co": {"X": 1.0, "Y": 0.699999988079071}}]}, "scale_y": {"Points": [{"interpolation": 2, "co": {"X": 1.0, "Y": 3.0}}]}, "location_x": {"Points": [{"interpolation": 2, "co": {"X": 1.0, "Y": 0.5}}, {"interpolation": 1, "co": {"X": 383, "Y": 0.10000000149011612}}]}, "waveform": false, "id": "IQLQFEQVTT", "time": {"Points": [{"interpolation": 2, "co": {"X": 1.0, "Y": 1.0}}]}, "scale_x": {"Points": [{"interpolation": 2, "co": {"X": 1.0, "Y": 3.0}}]}, "perspective_c4_y": {"Points": [{"interpolation": 2, "co": {"X": 1.0, "Y": -1.0}}]}, "rotation": {"Points": [{"interpolation": 2, "co": {"X": 1.0, "Y": 0.0}}]}}, "key": ["clips", {"id": "IQLQFEQVTT"}], "old_values": {"crop_width": {"Points": [{"interpolation": 2, "co": {"X": 1.0, "Y": -1.0}}]}, "channel_mapping": {"Points": [{"interpolation": 2, "co": {"X": 1.0, "Y": -1.0}}]}, "perspective_c3_x": {"Points": [{"interpolation": 2, "co": {"X": 1.0, "Y": -1.0}}]}, "effects": [], "perspective_c1_x": {"Points": [{"interpolation": 2, "co": {"X": 1.0, "Y": -1.0}}]}, "channel_filter": {"Points": [{"interpolation": 2, "co": {"X": 1.0, "Y": -1.0}}]}, "scale": 1, "perspective_c1_y": {"Points": [{"interpolation": 2, "co": {"X": 1.0, "Y": -1.0}}]}, "alpha": {"Points": [{"interpolation": 2, "co": {"X": 1.0, "Y": 1.0}}]}, "shear_y": {"Points": [{"interpolation": 2, "co": {"X": 1.0, "Y": 0.0}}]}, "crop_x": {"Points": [{"interpolation": 2, "co": {"X": 1.0, "Y": 0.0}}]}, "end": 48, "file_id": "BGTBTEAKWJ", "image": "/home/milind/.openshot_qt/thumbnail/BGTBTEAKWJ.png", "gravity": 4, "has_video": {"Points": [{"interpolation": 2, "co": {"X": 1.0, "Y": -1.0}}]}, "display": 0, "perspective_c4_x": {"Points": [{"interpolation": 2, "co": {"X": 1.0, "Y": -1.0}}]}, "crop_height": {"Points": [{"interpolation": 2, "co": {"X": 1.0, "Y": -1.0}}]}, "reader": {"duration": 48.0, "pixel_ratio": {"den": 1, "num": 1}, "sample_rate": 0, "video_timebase": {"den": 1000, "num": 1}, "height": 768, "file_size": "460413", "vcodec": "h264", "video_stream_index": 0, "interlaced_frame": false, "path": "/home/milind/Data/Projects/ProgressCard/Clips/09-Grace Mark Titles.mkv", "audio_timebase": {"den": 1, "num": 1}, "acodec": "", "has_video": true, "audio_stream_index": -1, "has_single_image": false, "video_bit_rate": 0, "width": 1366, "channels": 0, "type": "FFmpegReader", "has_audio": false, "top_field_first": true, "audio_bit_rate": 0, "channel_layout": 4, "display_ratio": {"den": 384, "num": 683}, "pixel_format": 0, "video_length": "1200", "fps": {"den": 1, "num": 25}}, "perspective_c2_y": {"Points": [{"interpolation": 2, "co": {"X": 1.0, "Y": -1.0}}]}, "shear_x": {"Points": [{"interpolation": 2, "co": {"X": 1.0, "Y": 0.0}}]}, "volume": {"Points": [{"interpolation": 2, "co": {"X": 1.0, "Y": 1.0}}]}, "start": 0, "perspective_c3_y": {"Points": [{"interpolation": 2, "co": {"X": 1.0, "Y": -1.0}}]}, "title": "09-Grace Mark Titles.mkv", "wave_color": {"alpha": {"Points": [{"handle_type": 0, "co": {"X": 1.0, "Y": 255.0}, "interpolation": 0, "handle_left": {"X": 0.5, "Y": 1.0}, "handle_right": {"X": 0.5, "Y": 0.0}}]}, "green": {"Points": [{"handle_type": 0, "co": {"X": 1.0, "Y": 123.0}, "interpolation": 0, "handle_left": {"X": 0.5, "Y": 1.0}, "handle_right": {"X": 0.5, "Y": 0.0}}]}, "blue": {"Points": [{"handle_type": 0, "co": {"X": 1.0, "Y": 255.0}, "interpolation": 0, "handle_left": {"X": 0.5, "Y": 1.0}, "handle_right": {"X": 0.5, "Y": 0.0}}]}, "red": {"Points": [{"handle_type": 0, "co": {"X": 1.0, "Y": 0.0}, "interpolation": 0, "handle_left": {"X": 0.5, "Y": 1.0}, "handle_right": {"X": 0.5, "Y": 0.0}}]}}, "has_audio": {"Points": [{"interpolation": 2, "co": {"X": 1.0, "Y": -1.0}}]}, "perspective_c2_x": {"Points": [{"interpolation": 2, "co": {"X": 1.0, "Y": -1.0}}]}, "crop_y": {"Points": [{"interpolation": 2, "co": {"X": 1.0, "Y": 0.0}}]}, "duration": 48.0, "layer": 3, "position": 0.20999999344348907, "anchor": 0, "location_y": {"Points": [{"interpolation": 2, "co": {"X": 1.0, "Y": 0.699999988079071}}]}, "scale_y": {"Points": [{"interpolation": 2, "co": {"X": 1.0, "Y": 3.0}}]}, "location_x": {"Points": [{"interpolation": 2, "co": {"X": 1.0, "Y": 0.5}}, {"interpolation": 1, "co": {"X": 383, "Y": 0.10000000149011612}}]}, "waveform": false, "id": "IQLQFEQVTT", "time": {"Points": [{"interpolation": 2, "co": {"X": 1.0, "Y": 1.0}}]}, "scale_x": {"Points": [{"interpolation": 2, "co": {"X": 1.0, "Y": 3.0}}]}, "perspective_c4_y": {"Points": [{"interpolation": 2, "co": {"X": 1.0, "Y": -1.0}}]}, "rotation": {"Points": [{"interpolation": 2, "co": {"X": 1.0, "Y": 0.0}}]}}, "partial": false}, {"type": "update", "value": {"crop_width": {"Points": [{"interpolation": 2, "co": {"X": 1.0, "Y": -1.0}}]}, "channel_mapping": {"Points": [{"interpolation": 2, "co": {"X": 1.0, "Y": -1.0}}]}, "perspective_c3_x": {"Points": [{"interpolation": 2, "co": {"X": 1.0, "Y": -1.0}}]}, "effects": [], "perspective_c1_x": {"Points": [{"interpolation": 2, "co": {"X": 1.0, "Y": -1.0}}]}, "channel_filter": {"Points": [{"interpolation": 2, "co": {"X": 1.0, "Y": -1.0}}]}, "scale": 1, "perspective_c1_y": {"Points": [{"interpolation": 2, "co": {"X": 1.0, "Y": -1.0}}]}, "alpha": {"Points": [{"interpolation": 2, "co": {"X": 1.0, "Y": 1.0}}, {"handle_type": 0, "handle_right": {"X": 0.5, "Y": 0.0}, "interpolation": 0, "handle_left": {"X": 0.5, "Y": 1.0}, "co": {"X": 1.0, "Y": 0.0}}, {"handle_type": 0, "handle_right": {"X": 0.5, "Y": 0.0}, "interpolation": 0, "handle_left": {"X": 0.5, "Y": 1.0}, "co": {"X": 73.0, "Y": 1.0}}, {"handle_type": 0, "handle_left": {"X": 0.5, "Y": 1.0}, "co": {"X": 1081.0, "Y": 1.0}, "interpolation": 0, "handle_right": {"X": 0.5, "Y": 0.0}}, {"handle_type": 0, "handle_left": {"X": 0.5, "Y": 1.0}, "co": {"X": 1153.0, "Y": 0.0}, "interpolation": 0, "handle_right": {"X": 0.5, "Y": 0.0}}]}, "shear_y": {"Points": [{"interpolation": 2, "co": {"X": 1.0, "Y": 0.0}}]}, "crop_x": {"Points": [{"interpolation": 2, "co": {"X": 1.0, "Y": 0.0}}]}, "end": 48, "file_id": "BGTBTEAKWJ", "image": "/home/milind/.openshot_qt/thumbnail/BGTBTEAKWJ.png", "gravity": 4, "has_video": {"Points": [{"interpolation": 2, "co": {"X": 1.0, "Y": -1.0}}]}, "display": 0, "perspective_c4_x": {"Points": [{"interpolation": 2, "co": {"X": 1.0, "Y": -1.0}}]}, "crop_height": {"Points": [{"interpolation": 2, "co": {"X": 1.0, "Y": -1.0}}]}, "anchor": 0, "perspective_c2_y": {"Points": [{"interpolation": 2, "co": {"X": 1.0, "Y": -1.0}}]}, "shear_x": {"Points": [{"interpolation": 2, "co": {"X": 1.0, "Y": 0.0}}]}, "volume": {"Points": [{"interpolation": 2, "co": {"X": 1.0, "Y": 1.0}}]}, "start": 0, "perspective_c3_y": {"Points": [{"interpolation": 2, "co": {"X": 1.0, "Y": -1.0}}]}, "title": "09-Grace Mark Titles.mkv", "wave_color": {"alpha": {"Points": [{"handle_type": 0, "handle_right": {"X": 0.5, "Y": 0.0}, "interpolation": 0, "handle_left": {"X": 0.5, "Y": 1.0}, "co": {"X": 1.0, "Y": 255.0}}]}, "green": {"Points": [{"handle_type": 0, "handle_right": {"X": 0.5, "Y": 0.0}, "interpolation": 0, "handle_left": {"X": 0.5, "Y": 1.0}, "co": {"X": 1.0, "Y": 123.0}}]}, "red": {"Points": [{"handle_type": 0, "handle_right": {"X": 0.5, "Y": 0.0}, "interpolation": 0, "handle_left": {"X": 0.5, "Y": 1.0}, "co": {"X": 1.0, "Y": 0.0}}]}, "blue": {"Points": [{"handle_type": 0, "handle_right": {"X": 0.5, "Y": 0.0}, "interpolation": 0, "handle_left": {"X": 0.5, "Y": 1.0}, "co": {"X": 1.0, "Y": 255.0}}]}}, "has_audio": {"Points": [{"interpolation": 2, "co": {"X": 1.0, "Y": -1.0}}]}, "perspective_c2_x": {"Points": [{"interpolation": 2, "co": {"X": 1.0, "Y": -1.0}}]}, "crop_y": {"Points": [{"interpolation": 2, "co": {"X": 1.0, "Y": 0.0}}]}, "duration": 48.0, "layer": 3, "position": 0.20999999344348907, "location_y": {"Points": [{"interpolation": 2, "co": {"X": 1.0, "Y": 0.699999988079071}}]}, "scale_y": {"Points": [{"interpolation": 2, "co": {"X": 1.0, "Y": 3.0}}]}, "location_x": {"Points": [{"interpolation": 2, "co": {"X": 1.0, "Y": 0.5}}, {"interpolation": 1, "co": {"X": 383, "Y": 0.10000000149011612}}]}, "waveform": false, "id": "IQLQFEQVTT", "time": {"Points": [{"interpolation": 2, "co": {"X": 1.0, "Y": 1.0}}]}, "scale_x": {"Points": [{"interpolation": 2, "co": {"X": 1.0, "Y": 3.0}}]}, "perspective_c4_y": {"Points": [{"interpolation": 2, "co": {"X": 1.0, "Y": -1.0}}]}, "rotation": {"Points": [{"interpolation": 2, "co": {"X": 1.0, "Y": 0.0}}]}}, "key": ["clips", {"id": "IQLQFEQVTT"}], "old_values": {"crop_width": {"Points": [{"interpolation": 2, "co": {"X": 1.0, "Y": -1.0}}]}, "channel_mapping": {"Points": [{"interpolation": 2, "co": {"X": 1.0, "Y": -1.0}}]}, "perspective_c3_x": {"Points": [{"interpolation": 2, "co": {"X": 1.0, "Y": -1.0}}]}, "effects": [], "perspective_c1_x": {"Points": [{"interpolation": 2, "co": {"X": 1.0, "Y": -1.0}}]}, "channel_filter": {"Points": [{"interpolation": 2, "co": {"X": 1.0, "Y": -1.0}}]}, "scale": 1, "perspective_c1_y": {"Points": [{"interpolation": 2, "co": {"X": 1.0, "Y": -1.0}}]}, "alpha": {"Points": [{"interpolation": 2, "co": {"X": 1.0, "Y": 1.0}}, {"handle_type": 0, "handle_right": {"X": 0.5, "Y": 0.0}, "interpolation": 0, "handle_left": {"X": 0.5, "Y": 1.0}, "co": {"X": 1.0, "Y": 0.0}}, {"handle_type": 0, "handle_right": {"X": 0.5, "Y": 0.0}, "interpolation": 0, "handle_left": {"X": 0.5, "Y": 1.0}, "co": {"X": 73.0, "Y": 1.0}}]}, "shear_y": {"Points": [{"interpolation": 2, "co": {"X": 1.0, "Y": 0.0}}]}, "crop_x": {"Points": [{"interpolation": 2, "co": {"X": 1.0, "Y": 0.0}}]}, "end": 48, "file_id": "BGTBTEAKWJ", "image": "/home/milind/.openshot_qt/thumbnail/BGTBTEAKWJ.png", "gravity": 4, "has_video": {"Points": [{"interpolation": 2, "co": {"X": 1.0, "Y": -1.0}}]}, "display": 0, "perspective_c4_x": {"Points": [{"interpolation": 2, "co": {"X": 1.0, "Y": -1.0}}]}, "crop_height": {"Points": [{"interpolation": 2, "co": {"X": 1.0, "Y": -1.0}}]}, "reader": {"duration": 48.0, "pixel_ratio": {"den": 1, "num": 1}, "sample_rate": 0, "video_timebase": {"den": 1000, "num": 1}, "height": 768, "file_size": "460413", "vcodec": "h264", "video_stream_index": 0, "interlaced_frame": false, "path": "/home/milind/Data/Projects/ProgressCard/Clips/09-Grace Mark Titles.mkv", "audio_timebase": {"den": 1, "num": 1}, "acodec": "", "has_video": true, "audio_stream_index": -1, "has_single_image": false, "video_bit_rate": 0, "width": 1366, "channels": 0, "type": "FFmpegReader", "has_audio": false, "top_field_first": true, "audio_bit_rate": 0, "channel_layout": 4, "display_ratio": {"den": 384, "num": 683}, "pixel_format": 0, "video_length": "1200", "fps": {"den": 1, "num": 25}}, "perspective_c2_y": {"Points": [{"interpolation": 2, "co": {"X": 1.0, "Y": -1.0}}]}, "shear_x": {"Points": [{"interpolation": 2, "co": {"X": 1.0, "Y": 0.0}}]}, "volume": {"Points": [{"interpolation": 2, "co": {"X": 1.0, "Y": 1.0}}]}, "start": 0, "perspective_c3_y": {"Points": [{"interpolation": 2, "co": {"X": 1.0, "Y": -1.0}}]}, "title": "09-Grace Mark Titles.mkv", "wave_color": {"alpha": {"Points": [{"handle_type": 0, "handle_right": {"X": 0.5, "Y": 0.0}, "interpolation": 0, "handle_left": {"X": 0.5, "Y": 1.0}, "co": {"X": 1.0, "Y": 255.0}}]}, "green": {"Points": [{"handle_type": 0, "handle_right": {"X": 0.5, "Y": 0.0}, "interpolation": 0, "handle_left": {"X": 0.5, "Y": 1.0}, "co": {"X": 1.0, "Y": 123.0}}]}, "red": {"Points": [{"handle_type": 0, "handle_right": {"X": 0.5, "Y": 0.0}, "interpolation": 0, "handle_left": {"X": 0.5, "Y": 1.0}, "co": {"X": 1.0, "Y": 0.0}}]}, "blue": {"Points": [{"handle_type": 0, "handle_right": {"X": 0.5, "Y": 0.0}, "interpolation": 0, "handle_left": {"X": 0.5, "Y": 1.0}, "co": {"X": 1.0, "Y": 255.0}}]}}, "has_audio": {"Points": [{"interpolation": 2, "co": {"X": 1.0, "Y": -1.0}}]}, "perspective_c2_x": {"Points": [{"interpolation": 2, "co": {"X": 1.0, "Y": -1.0}}]}, "crop_y": {"Points": [{"interpolation": 2, "co": {"X": 1.0, "Y": 0.0}}]}, "duration": 48.0, "layer": 3, "position": 0.20999999344348907, "anchor": 0, "location_y": {"Points": [{"interpolation": 2, "co": {"X": 1.0, "Y": 0.699999988079071}}]}, "scale_y": {"Points": [{"interpolation": 2, "co": {"X": 1.0, "Y": 3.0}}]}, "location_x": {"Points": [{"interpolation": 2, "co": {"X": 1.0, "Y": 0.5}}, {"interpolation": 1, "co": {"X": 383, "Y": 0.10000000149011612}}]}, "waveform": false, "id": "IQLQFEQVTT", "time": {"Points": [{"interpolation": 2, "co": {"X": 1.0, "Y": 1.0}}]}, "scale_x": {"Points": [{"interpolation": 2, "co": {"X": 1.0, "Y": 3.0}}]}, "perspective_c4_y": {"Points": [{"interpolation": 2, "co": {"X": 1.0, "Y": -1.0}}]}, "rotation": {"Points": [{"interpolation": 2, "co": {"X": 1.0, "Y": 0.0}}]}}, "partial": false}, {"type": "insert", "value": {"duration": 157.0, "pixel_ratio": {"den": 1, "num": 1}, "video_timebase": {"den": 1000, "num": 1}, "height": 768, "file_size": "1511397", "vcodec": "h264", "video_stream_index": 0, "interlaced_frame": false, "path": "/home/milind/Data/Projects/ProgressCard/Clips/10-Grace Marks Formula.mkv", "audio_timebase": {"den": 1, "num": 1}, "acodec": "", "has_video": true, "audio_stream_index": -1, "video_bit_rate": 0, "width": 1366, "display_ratio": {"den": 384, "num": 683}, "channels": 0, "type": "FFmpegReader", "has_audio": false, "pixel_format": 0, "top_field_first": true, "audio_bit_rate": 0, "channel_layout": 4, "id": "LXYD11YP0F", "sample_rate": 0, "has_single_image": false, "media_type": "video", "video_length": "3925", "fps": {"den": 1, "num": 25}}, "key": ["files"], "old_values": [{"duration": 48.0, "pixel_ratio": {"den": 1, "num": 1}, "video_timebase": {"den": 1000, "num": 1}, "height": 768, "file_size": "460413", "vcodec": "h264", "video_stream_index": 0, "interlaced_frame": false, "path": "/home/milind/Data/Projects/ProgressCard/Clips/09-Grace Mark Titles.mkv", "audio_timebase": {"den": 1, "num": 1}, "acodec": "", "has_video": true, "audio_stream_index": -1, "video_bit_rate": 0, "width": 1366, "display_ratio": {"den": 384, "num": 683}, "channels": 0, "type": "FFmpegReader", "has_audio": false, "pixel_format": 0, "top_field_first": true, "audio_bit_rate": 0, "channel_layout": 4, "id": "BGTBTEAKWJ", "sample_rate": 0, "has_single_image": false, "media_type": "video", "video_length": "1200", "fps": {"den": 1, "num": 25}}], "partial": false}, {"type": "insert", "value": {"crop_width": {"Points": [{"interpolation": 2, "co": {"X": 1.0, "Y": -1.0}}]}, "channel_filter": {"Points": [{"interpolation": 2, "co": {"X": 1.0, "Y": -1.0}}]}, "perspective_c3_x": {"Points": [{"interpolation": 2, "co": {"X": 1.0, "Y": -1.0}}]}, "effects": [], "perspective_c1_x": {"Points": [{"interpolation": 2, "co": {"X": 1.0, "Y": -1.0}}]}, "channel_mapping": {"Points": [{"interpolation": 2, "co": {"X": 1.0, "Y": -1.0}}]}, "scale_x": {"Points": [{"interpolation": 2, "co": {"X": 1.0, "Y": 1.0}}]}, "scale": 1, "perspective_c1_y": {"Points": [{"interpolation": 2, "co": {"X": 1.0, "Y": -1.0}}]}, "alpha": {"Points": [{"interpolation": 2, "co": {"X": 1.0, "Y": 1.0}}]}, "shear_y": {"Points": [{"interpolation": 2, "co": {"X": 1.0, "Y": 0.0}}]}, "crop_x": {"Points": [{"interpolation": 2, "co": {"X": 1.0, "Y": 0.0}}]}, "end": 157, "file_id": "LXYD11YP0F", "image": "/home/milind/.openshot_qt/thumbnail/LXYD11YP0F.png", "gravity": 4, "has_video": {"Points": [{"interpolation": 2, "co": {"X": 1.0, "Y": -1.0}}]}, "display": 0, "perspective_c4_x": {"Points": [{"interpolation": 2, "co": {"X": 1.0, "Y": -1.0}}]}, "crop_height": {"Points": [{"interpolation": 2, "co": {"X": 1.0, "Y": -1.0}}]}, "perspective_c3_y": {"Points": [{"interpolation": 2, "co": {"X": 1.0, "Y": -1.0}}]}, "shear_x": {"Points": [{"interpolation": 2, "co": {"X": 1.0, "Y": 0.0}}]}, "volume": {"Points": [{"interpolation": 2, "co": {"X": 1.0, "Y": 1.0}}]}, "start": 0, "reader": {"duration": 157.0, "pixel_ratio": {"den": 1, "num": 1}, "video_timebase": {"den": 1000, "num": 1}, "height": 768, "file_size": "1511397", "vcodec": "h264", "video_stream_index": 0, "interlaced_frame": false, "path": "/home/milind/Data/Projects/ProgressCard/Clips/10-Grace Marks Formula.mkv", "audio_timebase": {"den": 1, "num": 1}, "acodec": "", "has_video": true, "audio_stream_index": -1, "video_bit_rate": 0, "width": 1366, "display_ratio": {"den": 384, "num": 683}, "channels": 0, "type": "FFmpegReader", "has_audio": false, "pixel_format": 0, "top_field_first": true, "audio_bit_rate": 0, "channel_layout": 4, "sample_rate": 0, "has_single_image": false, "video_length": "3925", "fps": {"den": 1, "num": 25}}, "title": "10-Grace Marks Formula.mkv", "wave_color": {"alpha": {"Points": [{"handle_type": 0, "handle_right": {"X": 0.5, "Y": 0.0}, "interpolation": 0, "handle_left": {"X": 0.5, "Y": 1.0}, "co": {"X": 1.0, "Y": 255.0}}]}, "green": {"Points": [{"handle_type": 0, "handle_right": {"X": 0.5, "Y": 0.0}, "interpolation": 0, "handle_left": {"X": 0.5, "Y": 1.0}, "co": {"X": 1.0, "Y": 123.0}}]}, "red": {"Points": [{"handle_type": 0, "handle_right": {"X": 0.5, "Y": 0.0}, "interpolation": 0, "handle_left": {"X": 0.5, "Y": 1.0}, "co": {"X": 1.0, "Y": 0.0}}]}, "blue": {"Points": [{"handle_type": 0, "handle_right": {"X": 0.5, "Y": 0.0}, "interpolation": 0, "handle_left": {"X": 0.5, "Y": 1.0}, "co": {"X": 1.0, "Y": 255.0}}]}}, "has_audio": {"Points": [{"interpolation": 2, "co": {"X": 1.0, "Y": -1.0}}]}, "perspective_c2_x": {"Points": [{"interpolation": 2, "co": {"X": 1.0, "Y": -1.0}}]}, "rotation": {"Points": [{"interpolation": 2, "co": {"X": 1.0, "Y": 0.0}}]}, "duration": 157.0, "layer": 3, "position": 48.20999999344349, "anchor": 0, "location_y": {"Points": [{"interpolation": 2, "co": {"X": 1.0, "Y": 0.0}}]}, "scale_y": {"Points": [{"interpolation": 2, "co": {"X": 1.0, "Y": 1.0}}]}, "location_x": {"Points": [{"interpolation": 2, "co": {"X": 1.0, "Y": 0.0}}]}, "waveform": false, "id": "ECM1H2JNNB", "time": {"Points": [{"interpolation": 2, "co": {"X": 1.0, "Y": 1.0}}]}, "perspective_c2_y": {"Points": [{"interpolation": 2, "co": {"X": 1.0, "Y": -1.0}}]}, "perspective_c4_y": {"Points": [{"interpolation": 2, "co": {"X": 1.0, "Y": -1.0}}]}, "crop_y": {"Points": [{"interpolation": 2, "co": {"X": 1.0, "Y": 0.0}}]}}, "key": ["clips"], "old_values": [{"crop_width": {"Points": [{"interpolation": 2, "co": {"X": 1.0, "Y": -1.0}}]}, "channel_mapping": {"Points": [{"interpolation": 2, "co": {"X": 1.0, "Y": -1.0}}]}, "perspective_c3_x": {"Points": [{"interpolation": 2, "co": {"X": 1.0, "Y": -1.0}}]}, "effects": [], "perspective_c1_x": {"Points": [{"interpolation": 2, "co": {"X": 1.0, "Y": -1.0}}]}, "channel_filter": {"Points": [{"interpolation": 2, "co": {"X": 1.0, "Y": -1.0}}]}, "scale": 1, "perspective_c1_y": {"Points": [{"interpolation": 2, "co": {"X": 1.0, "Y": -1.0}}]}, "alpha": {"Points": [{"interpolation": 2, "co": {"X": 1.0, "Y": 1.0}}, {"handle_type": 0, "co": {"X": 1.0, "Y": 0.0}, "interpolation": 0, "handle_left": {"X": 0.5, "Y": 1.0}, "handle_right": {"X": 0.5, "Y": 0.0}}, {"handle_type": 0, "co": {"X": 73.0, "Y": 1.0}, "interpolation": 0, "handle_left": {"X": 0.5, "Y": 1.0}, "handle_right": {"X": 0.5, "Y": 0.0}}, {"handle_type": 0, "handle_right": {"X": 0.5, "Y": 0.0}, "interpolation": 0, "handle_left": {"X": 0.5, "Y": 1.0}, "co": {"X": 1081.0, "Y": 1.0}}, {"handle_type": 0, "handle_right": {"X": 0.5, "Y": 0.0}, "interpolation": 0, "handle_left": {"X": 0.5, "Y": 1.0}, "co": {"X": 1153.0, "Y": 0.0}}]}, "shear_y": {"Points": [{"interpolation": 2, "co": {"X": 1.0, "Y": 0.0}}]}, "crop_x": {"Points": [{"interpolation": 2, "co": {"X": 1.0, "Y": 0.0}}]}, "end": 48, "file_id": "BGTBTEAKWJ", "image": "/home/milind/.openshot_qt/thumbnail/BGTBTEAKWJ.png", "gravity": 4, "has_video": {"Points": [{"interpolation": 2, "co": {"X": 1.0, "Y": -1.0}}]}, "display": 0, "perspective_c4_x": {"Points": [{"interpolation": 2, "co": {"X": 1.0, "Y": -1.0}}]}, "crop_height": {"Points": [{"interpolation": 2, "co": {"X": 1.0, "Y": -1.0}}]}, "reader": {"duration": 48.0, "pixel_ratio": {"den": 1, "num": 1}, "sample_rate": 0, "video_timebase": {"den": 1000, "num": 1}, "height": 768, "file_size": "460413", "vcodec": "h264", "video_stream_index": 0, "interlaced_frame": false, "path": "/home/milind/Data/Projects/ProgressCard/Clips/09-Grace Mark Titles.mkv", "audio_timebase": {"den": 1, "num": 1}, "acodec": "", "has_video": true, "audio_stream_index": -1, "has_single_image": false, "video_bit_rate": 0, "width": 1366, "channels": 0, "type": "FFmpegReader", "has_audio": false, "top_field_first": true, "audio_bit_rate": 0, "channel_layout": 4, "display_ratio": {"den": 384, "num": 683}, "pixel_format": 0, "video_length": "1200", "fps": {"den": 1, "num": 25}}, "perspective_c2_y": {"Points": [{"interpolation": 2, "co": {"X": 1.0, "Y": -1.0}}]}, "shear_x": {"Points": [{"interpolation": 2, "co": {"X": 1.0, "Y": 0.0}}]}, "volume": {"Points": [{"interpolation": 2, "co": {"X": 1.0, "Y": 1.0}}]}, "start": 0, "perspective_c3_y": {"Points": [{"interpolation": 2, "co": {"X": 1.0, "Y": -1.0}}]}, "title": "09-Grace Mark Titles.mkv", "wave_color": {"alpha": {"Points": [{"handle_type": 0, "co": {"X": 1.0, "Y": 255.0}, "interpolation": 0, "handle_left": {"X": 0.5, "Y": 1.0}, "handle_right": {"X": 0.5, "Y": 0.0}}]}, "green": {"Points": [{"handle_type": 0, "co": {"X": 1.0, "Y": 123.0}, "interpolation": 0, "handle_left": {"X": 0.5, "Y": 1.0}, "handle_right": {"X": 0.5, "Y": 0.0}}]}, "blue": {"Points": [{"handle_type": 0, "co": {"X": 1.0, "Y": 255.0}, "interpolation": 0, "handle_left": {"X": 0.5, "Y": 1.0}, "handle_right": {"X": 0.5, "Y": 0.0}}]}, "red": {"Points": [{"handle_type": 0, "co": {"X": 1.0, "Y": 0.0}, "interpolation": 0, "handle_left": {"X": 0.5, "Y": 1.0}, "handle_right": {"X": 0.5, "Y": 0.0}}]}}, "has_audio": {"Points": [{"interpolation": 2, "co": {"X": 1.0, "Y": -1.0}}]}, "perspective_c2_x": {"Points": [{"interpolation": 2, "co": {"X": 1.0, "Y": -1.0}}]}, "crop_y": {"Points": [{"interpolation": 2, "co": {"X": 1.0, "Y": 0.0}}]}, "duration": 48.0, "layer": 3, "position": 0.20999999344348907, "anchor": 0, "location_y": {"Points": [{"interpolation": 2, "co": {"X": 1.0, "Y": 0.699999988079071}}]}, "scale_y": {"Points": [{"interpolation": 2, "co": {"X": 1.0, "Y": 3.0}}]}, "location_x": {"Points": [{"interpolation": 2, "co": {"X": 1.0, "Y": 0.5}}, {"interpolation": 1, "co": {"X": 383, "Y": 0.10000000149011612}}]}, "waveform": false, "id": "IQLQFEQVTT", "time": {"Points": [{"interpolation": 2, "co": {"X": 1.0, "Y": 1.0}}]}, "scale_x": {"Points": [{"interpolation": 2, "co": {"X": 1.0, "Y": 3.0}}]}, "perspective_c4_y": {"Points": [{"interpolation": 2, "co": {"X": 1.0, "Y": -1.0}}]}, "rotation": {"Points": [{"interpolation": 2, "co": {"X": 1.0, "Y": 0.0}}]}}], "partial": false}, {"type": "update", "value": {"position": 48.20999999344349, "end": 157, "layer": 3, "image": "/home/milind/.openshot_qt/thumbnail/LXYD11YP0F.png", "start": 0, "id": "ECM1H2JNNB"}, "key": ["clips", {"id": "ECM1H2JNNB"}], "old_values": {"crop_width": {"Points": [{"interpolation": 2, "co": {"X": 1.0, "Y": -1.0}}]}, "channel_mapping": {"Points": [{"interpolation": 2, "co": {"X": 1.0, "Y": -1.0}}]}, "perspective_c3_x": {"Points": [{"interpolation": 2, "co": {"X": 1.0, "Y": -1.0}}]}, "effects": [], "perspective_c2_y": {"Points": [{"interpolation": 2, "co": {"X": 1.0, "Y": -1.0}}]}, "channel_filter": {"Points": [{"interpolation": 2, "co": {"X": 1.0, "Y": -1.0}}]}, "scale": 1, "perspective_c1_y": {"Points": [{"interpolation": 2, "co": {"X": 1.0, "Y": -1.0}}]}, "alpha": {"Points": [{"interpolation": 2, "co": {"X": 1.0, "Y": 1.0}}]}, "shear_y": {"Points": [{"interpolation": 2, "co": {"X": 1.0, "Y": 0.0}}]}, "crop_x": {"Points": [{"interpolation": 2, "co": {"X": 1.0, "Y": 0.0}}]}, "end": 157.0, "file_id": "LXYD11YP0F", "image": "/home/milind/.openshot_qt/thumbnail/LXYD11YP0F.png", "gravity": 4, "has_video": {"Points": [{"interpolation": 2, "co": {"X": 1.0, "Y": -1.0}}]}, "display": 0, "duration": 157.0, "crop_height": {"Points": [{"interpolation": 2, "co": {"X": 1.0, "Y": -1.0}}]}, "reader": {"duration": 157.0, "pixel_ratio": {"den": 1, "num": 1}, "sample_rate": 0, "video_timebase": {"den": 1000, "num": 1}, "height": 768, "file_size": "1511397", "vcodec": "h264", "video_stream_index": 0, "interlaced_frame": false, "path": "/home/milind/Data/Projects/ProgressCard/Clips/10-Grace Marks Formula.mkv", "audio_timebase": {"den": 1, "num": 1}, "acodec": "", "has_video": true, "audio_stream_index": -1, "has_single_image": false, "video_bit_rate": 0, "width": 1366, "channels": 0, "type": "FFmpegReader", "has_audio": false, "top_field_first": true, "audio_bit_rate": 0, "channel_layout": 4, "display_ratio": {"den": 384, "num": 683}, "pixel_format": 0, "video_length": "3925", "fps": {"den": 1, "num": 25}}, "shear_x": {"Points": [{"interpolation": 2, "co": {"X": 1.0, "Y": 0.0}}]}, "volume": {"Points": [{"interpolation": 2, "co": {"X": 1.0, "Y": 1.0}}]}, "start": 0.0, "perspective_c3_y": {"Points": [{"interpolation": 2, "co": {"X": 1.0, "Y": -1.0}}]}, "title": "10-Grace Marks Formula.mkv", "wave_color": {"alpha": {"Points": [{"handle_type": 0, "co": {"X": 1.0, "Y": 255.0}, "interpolation": 0, "handle_left": {"X": 0.5, "Y": 1.0}, "handle_right": {"X": 0.5, "Y": 0.0}}]}, "green": {"Points": [{"handle_type": 0, "co": {"X": 1.0, "Y": 123.0}, "interpolation": 0, "handle_left": {"X": 0.5, "Y": 1.0}, "handle_right": {"X": 0.5, "Y": 0.0}}]}, "blue": {"Points": [{"handle_type": 0, "co": {"X": 1.0, "Y": 255.0}, "interpolation": 0, "handle_left": {"X": 0.5, "Y": 1.0}, "handle_right": {"X": 0.5, "Y": 0.0}}]}, "red": {"Points": [{"handle_type": 0, "co": {"X": 1.0, "Y": 0.0}, "interpolation": 0, "handle_left": {"X": 0.5, "Y": 1.0}, "handle_right": {"X": 0.5, "Y": 0.0}}]}}, "has_audio": {"Points": [{"interpolation": 2, "co": {"X": 1.0, "Y": -1.0}}]}, "perspective_c2_x": {"Points": [{"interpolation": 2, "co": {"X": 1.0, "Y": -1.0}}]}, "crop_y": {"Points": [{"interpolation": 2, "co": {"X": 1.0, "Y": 0.0}}]}, "perspective_c1_x": {"Points": [{"interpolation": 2, "co": {"X": 1.0, "Y": -1.0}}]}, "layer": 4, "position": 56.48, "anchor": 0, "perspective_c4_x": {"Points": [{"interpolation": 2, "co": {"X": 1.0, "Y": -1.0}}]}, "location_y": {"Points": [{"interpolation": 2, "co": {"X": 1.0, "Y": 0.0}}]}, "scale_y": {"Points": [{"interpolation": 2, "co": {"X": 1.0, "Y": 1.0}}]}, "location_x": {"Points": [{"interpolation": 2, "co": {"X": 1.0, "Y": 0.0}}]}, "waveform": false, "id": "ECM1H2JNNB", "time": {"Points": [{"interpolation": 2, "co": {"X": 1.0, "Y": 1.0}}]}, "scale_x": {"Points": [{"interpolation": 2, "co": {"X": 1.0, "Y": 1.0}}]}, "perspective_c4_y": {"Points": [{"interpolation": 2, "co": {"X": 1.0, "Y": -1.0}}]}, "rotation": {"Points": [{"interpolation": 2, "co": {"X": 1.0, "Y": 0.0}}]}}, "partial": false}], "redo": []}}