{"channels": 2, "history": {"undo": [{"partial": false, "key": ["clips", {"id": "XXQSWHAJ46"}], "old_values": {"channel_filter": {"Points": [{"co": {"Y": -1.0, "X": 1.0}, "interpolation": 2}]}, "start": 0, "channel_mapping": {"Points": [{"co": {"Y": -1.0, "X": 1.0}, "interpolation": 2}]}, "rotation": {"Points": [{"co": {"Y": 0.0, "X": 1.0}, "interpolation": 2}]}, "title": "!050-Sample Students Data.mkv", "crop_width": {"Points": [{"co": {"Y": -1.0, "X": 1.0}, "interpolation": 2}]}, "alpha": {"Points": [{"handle_type": 0, "handle_right": {"Y": 0.0, "X": 0.5}, "handle_left": {"Y": 1.0, "X": 0.5}, "co": {"Y": 1.0, "X": 1.0}, "interpolation": 0}, {"handle_type": 0, "handle_right": {"Y": 0.0, "X": 0.5}, "handle_left": {"Y": 1.0, "X": 0.5}, "co": {"Y": 0.0, "X": 1.0}, "interpolation": 0}, {"handle_type": 0, "handle_right": {"Y": 0.0, "X": 0.5}, "handle_left": {"Y": 1.0, "X": 0.5}, "co": {"Y": 1.0, "X": 73.0}, "interpolation": 0}, {"handle_type": 0, "handle_right": {"Y": 0.0, "X": 0.5}, "handle_left": {"Y": 1.0, "X": 0.5}, "co": {"Y": 1.0, "X": 1135.0}, "interpolation": 0}, {"handle_type": 0, "handle_right": {"Y": 0.0, "X": 0.5}, "handle_left": {"Y": 1.0, "X": 0.5}, "co": {"Y": 0.0, "X": 1207.0}, "interpolation": 0}]}, "crop_x": {"Points": [{"co": {"Y": 0.0, "X": 1.0}, "interpolation": 2}]}, "crop_height": {"Points": [{"co": {"Y": -1.0, "X": 1.0}, "interpolation": 2}]}, "display": 0, "time": {"Points": [{"co": {"Y": 1.0, "X": 1.0}, "interpolation": 2}]}, "perspective_c4_x": {"Points": [{"co": {"Y": -1.0, "X": 1.0}, "interpolation": 2}]}, "scale_x": {"Points": [{"co": {"Y": 1.0, "X": 1.0}, "interpolation": 2}, {"co": {"Y": 2.299999952316284, "X": 279}, "interpolation": 1}]}, "perspective_c3_y": {"Points": [{"co": {"Y": -1.0, "X": 1.0}, "interpolation": 2}]}, "volume": {"Points": [{"co": {"Y": 1.0, "X": 1.0}, "interpolation": 2}]}, "shear_y": {"Points": [{"co": {"Y": 0.0, "X": 1.0}, "interpolation": 2}]}, "id": "XXQSWHAJ46", "gravity": 4, "position": 99.115, "waveform": false, "file_id": "6Q4ECI0JKX", "location_y": {"Points": [{"co": {"Y": 0.0, "X": 1.0}, "interpolation": 2}, {"co": {"Y": 0.5199999809265137, "X": 279}, "interpolation": 1}]}, "has_video": {"Points": [{"co": {"Y": -1.0, "X": 1.0}, "interpolation": 2}]}, "location_x": {"Points": [{"co": {"Y": 0.0, "X": 1.0}, "interpolation": 2}, {"co": {"Y": 0.6200000047683716, "X": 279}, "interpolation": 1}]}, "layer": 1, "reader": {"pixel_format": 0, "pixel_ratio": {"num": 1, "den": 1}, "acodec": "", "video_bit_rate": 0, "interlaced_frame": false, "fps": {"num": 25, "den": 1}, "has_single_image": false, "sample_rate": 0, "video_stream_index": 0, "channel_layout": 4, "audio_timebase": {"num": 1, "den": 1}, "video_timebase": {"num": 1, "den": 1000}, "display_ratio": {"num": 325, "den": 186}, "channels": 0, "has_video": true, "type": "FFmpegReader", "width": 1300, "top_field_first": true, "file_size": "447833", "vcodec": "h264", "path": "/home/milind/Data/Projects/ProgressCard/!050-Sample Students Data.mkv", "audio_stream_index": -1, "audio_bit_rate": 0, "height": 744, "video_length": "1325", "duration": 53.0, "has_audio": false}, "crop_y": {"Points": [{"co": {"Y": 0.0, "X": 1.0}, "interpolation": 2}]}, "end": 50.25000000000003, "wave_color": {"alpha": {"Points": [{"handle_type": 0, "handle_right": {"Y": 0.0, "X": 0.5}, "handle_left": {"Y": 1.0, "X": 0.5}, "co": {"Y": 255.0, "X": 1.0}, "interpolation": 0}]}, "red": {"Points": [{"handle_type": 0, "handle_right": {"Y": 0.0, "X": 0.5}, "handle_left": {"Y": 1.0, "X": 0.5}, "co": {"Y": 0.0, "X": 1.0}, "interpolation": 0}]}, "blue": {"Points": [{"handle_type": 0, "handle_right": {"Y": 0.0, "X": 0.5}, "handle_left": {"Y": 1.0, "X": 0.5}, "co": {"Y": 255.0, "X": 1.0}, "interpolation": 0}]}, "green": {"Points": [{"handle_type": 0, "handle_right": {"Y": 0.0, "X": 0.5}, "handle_left": {"Y": 1.0, "X": 0.5}, "co": {"Y": 123.0, "X": 1.0}, "interpolation": 0}]}}, "perspective_c1_x": {"Points": [{"co": {"Y": -1.0, "X": 1.0}, "interpolation": 2}]}, "has_audio": {"Points": [{"co": {"Y": -1.0, "X": 1.0}, "interpolation": 2}]}, "scale": 1, "anchor": 0, "effects": [], "scale_y": {"Points": [{"co": {"Y": 1.0, "X": 1.0}, "interpolation": 2}, {"co": {"Y": 2.299999952316284, "X": 279}, "interpolation": 1}]}, "shear_x": {"Points": [{"co": {"Y": 0.0, "X": 1.0}, "interpolation": 2}]}, "perspective_c4_y": {"Points": [{"co": {"Y": -1.0, "X": 1.0}, "interpolation": 2}]}, "perspective_c1_y": {"Points": [{"co": {"Y": -1.0, "X": 1.0}, "interpolation": 2}]}, "perspective_c3_x": {"Points": [{"co": {"Y": -1.0, "X": 1.0}, "interpolation": 2}]}, "perspective_c2_y": {"Points": [{"co": {"Y": -1.0, "X": 1.0}, "interpolation": 2}]}, "image": "/home/milind/.openshot_qt/thumbnail/6Q4ECI0JKX.png", "duration": 53.0, "perspective_c2_x": {"Points": [{"co": {"Y": -1.0, "X": 1.0}, "interpolation": 2}]}}, "type": "update", "value": {"start": 0, "layer": 1, "end": 50.25000000000003, "image": "/home/milind/.openshot_qt/thumbnail/6Q4ECI0JKX.png", "position": 96.04, "id": "XXQSWHAJ46"}}, {"partial": false, "key": ["clips", {"id": "WALX2TP5RQ"}], "old_values": {"channel_filter": {"Points": [{"co": {"Y": -1.0, "X": 1.0}, "interpolation": 2}]}, "start": 0, "channel_mapping": {"Points": [{"co": {"Y": -1.0, "X": 1.0}, "interpolation": 2}]}, "rotation": {"Points": [{"co": {"Y": 0.0, "X": 1.0}, "interpolation": 2}]}, "title": "01-White-Background.svg", "perspective_c4_x": {"Points": [{"co": {"Y": -1.0, "X": 1.0}, "interpolation": 2}]}, "alpha": {"Points": [{"co": {"Y": 1.0, "X": 1.0}, "interpolation": 2}]}, "crop_x": {"Points": [{"co": {"Y": 0.0, "X": 1.0}, "interpolation": 2}]}, "crop_height": {"Points": [{"co": {"Y": -1.0, "X": 1.0}, "interpolation": 2}]}, "location_y": {"Points": [{"co": {"Y": 0.0, "X": 1.0}, "interpolation": 2}]}, "perspective_c4_y": {"Points": [{"co": {"Y": -1.0, "X": 1.0}, "interpolation": 2}]}, "time": {"Points": [{"co": {"Y": 1.0, "X": 1.0}, "interpolation": 2}]}, "perspective_c2_x": {"Points": [{"co": {"Y": -1.0, "X": 1.0}, "interpolation": 2}]}, "scale_x": {"Points": [{"co": {"Y": 1.0, "X": 1.0}, "interpolation": 2}]}, "perspective_c3_y": {"Points": [{"co": {"Y": -1.0, "X": 1.0}, "interpolation": 2}]}, "volume": {"Points": [{"co": {"Y": 1.0, "X": 1.0}, "interpolation": 2}]}, "shear_y": {"Points": [{"co": {"Y": 0.0, "X": 1.0}, "interpolation": 2}]}, "id": "WALX2TP5RQ", "gravity": 4, "position": 100.8275, "waveform": false, "file_id": "TDIZ1HFAHG", "display": 0, "has_video": {"Points": [{"co": {"Y": -1.0, "X": 1.0}, "interpolation": 2}]}, "layer": 0, "location_x": {"Points": [{"co": {"Y": 0.0, "X": 1.0}, "interpolation": 2}]}, "scale": 1, "crop_y": {"Points": [{"co": {"Y": 0.0, "X": 1.0}, "interpolation": 2}]}, "image": "/home/milind/.openshot_qt/thumbnail/TDIZ1HFAHG.png", "wave_color": {"alpha": {"Points": [{"handle_type": 0, "handle_right": {"Y": 0.0, "X": 0.5}, "handle_left": {"Y": 1.0, "X": 0.5}, "co": {"Y": 255.0, "X": 1.0}, "interpolation": 0}]}, "red": {"Points": [{"handle_type": 0, "handle_right": {"Y": 0.0, "X": 0.5}, "handle_left": {"Y": 1.0, "X": 0.5}, "co": {"Y": 0.0, "X": 1.0}, "interpolation": 0}]}, "blue": {"Points": [{"handle_type": 0, "handle_right": {"Y": 0.0, "X": 0.5}, "handle_left": {"Y": 1.0, "X": 0.5}, "co": {"Y": 255.0, "X": 1.0}, "interpolation": 0}]}, "green": {"Points": [{"handle_type": 0, "handle_right": {"Y": 0.0, "X": 0.5}, "handle_left": {"Y": 1.0, "X": 0.5}, "co": {"Y": 123.0, "X": 1.0}, "interpolation": 0}]}}, "duration": 86400.0, "perspective_c1_x": {"Points": [{"co": {"Y": -1.0, "X": 1.0}, "interpolation": 2}]}, "has_audio": {"Points": [{"co": {"Y": -1.0, "X": 1.0}, "interpolation": 2}]}, "crop_width": {"Points": [{"co": {"Y": -1.0, "X": 1.0}, "interpolation": 2}]}, "anchor": 0, "effects": [], "scale_y": {"Points": [{"co": {"Y": 1.0, "X": 1.0}, "interpolation": 2}]}, "shear_x": {"Points": [{"co": {"Y": 0.0, "X": 1.0}, "interpolation": 2}]}, "end": 16.88, "perspective_c1_y": {"Points": [{"co": {"Y": -1.0, "X": 1.0}, "interpolation": 2}]}, "perspective_c3_x": {"Points": [{"co": {"Y": -1.0, "X": 1.0}, "interpolation": 2}]}, "perspective_c2_y": {"Points": [{"co": {"Y": -1.0, "X": 1.0}, "interpolation": 2}]}, "reader": {"pixel_format": -1, "pixel_ratio": {"num": 1, "den": 1}, "acodec": "", "video_bit_rate": 0, "interlaced_frame": false, "fps": {"num": 30, "den": 1}, "has_single_image": true, "sample_rate": 0, "video_stream_index": -1, "channel_layout": 4, "audio_timebase": {"num": 1, "den": 1}, "video_timebase": {"num": 1, "den": 30}, "display_ratio": {"num": 16, "den": 9}, "channels": 0, "has_video": true, "type": "QtImageReader", "width": 1920, "top_field_first": true, "file_size": "8294400", "vcodec": "", "path": "/home/milind/Data/Projects/ProgressCard/Images/01-White-Background.svg", "audio_stream_index": -1, "audio_bit_rate": 0, "height": 1080, "video_length": "2592000", "duration": 86400.0, "has_audio": false}}, "type": "update", "value": {"start": 0, "layer": 0, "end": 16.88, "image": "/home/milind/.openshot_qt/thumbnail/TDIZ1HFAHG.png", "position": 86.375, "id": "WALX2TP5RQ"}}, {"partial": false, "key": ["clips", {"id": "XXQSWHAJ46"}], "old_values": {"channel_filter": {"Points": [{"co": {"Y": -1.0, "X": 1.0}, "interpolation": 2}]}, "start": 0, "channel_mapping": {"Points": [{"co": {"Y": -1.0, "X": 1.0}, "interpolation": 2}]}, "rotation": {"Points": [{"co": {"Y": 0.0, "X": 1.0}, "interpolation": 2}]}, "title": "!050-Sample Students Data.mkv", "perspective_c4_x": {"Points": [{"co": {"Y": -1.0, "X": 1.0}, "interpolation": 2}]}, "alpha": {"Points": [{"handle_type": 0, "handle_right": {"Y": 0.0, "X": 0.5}, "handle_left": {"Y": 1.0, "X": 0.5}, "co": {"Y": 1.0, "X": 1.0}, "interpolation": 0}, {"handle_type": 0, "handle_right": {"Y": 0.0, "X": 0.5}, "handle_left": {"Y": 1.0, "X": 0.5}, "co": {"Y": 0.0, "X": 1.0}, "interpolation": 0}, {"handle_type": 0, "handle_right": {"Y": 0.0, "X": 0.5}, "handle_left": {"Y": 1.0, "X": 0.5}, "co": {"Y": 1.0, "X": 73.0}, "interpolation": 0}, {"handle_type": 0, "handle_right": {"Y": 0.0, "X": 0.5}, "handle_left": {"Y": 1.0, "X": 0.5}, "co": {"Y": 1.0, "X": 1135.0}, "interpolation": 0}, {"handle_type": 0, "handle_right": {"Y": 0.0, "X": 0.5}, "handle_left": {"Y": 1.0, "X": 0.5}, "co": {"Y": 0.0, "X": 1207.0}, "interpolation": 0}]}, "crop_x": {"Points": [{"co": {"Y": 0.0, "X": 1.0}, "interpolation": 2}]}, "crop_height": {"Points": [{"co": {"Y": -1.0, "X": 1.0}, "interpolation": 2}]}, "location_y": {"Points": [{"co": {"Y": 0.0, "X": 1.0}, "interpolation": 2}, {"co": {"Y": 0.5199999809265137, "X": 279}, "interpolation": 1}]}, "perspective_c4_y": {"Points": [{"co": {"Y": -1.0, "X": 1.0}, "interpolation": 2}]}, "time": {"Points": [{"co": {"Y": 1.0, "X": 1.0}, "interpolation": 2}]}, "perspective_c2_x": {"Points": [{"co": {"Y": -1.0, "X": 1.0}, "interpolation": 2}]}, "scale_x": {"Points": [{"co": {"Y": 1.0, "X": 1.0}, "interpolation": 2}, {"co": {"Y": 2.299999952316284, "X": 279}, "interpolation": 1}]}, "perspective_c3_y": {"Points": [{"co": {"Y": -1.0, "X": 1.0}, "interpolation": 2}]}, "volume": {"Points": [{"co": {"Y": 1.0, "X": 1.0}, "interpolation": 2}]}, "shear_y": {"Points": [{"co": {"Y": 0.0, "X": 1.0}, "interpolation": 2}]}, "id": "XXQSWHAJ46", "gravity": 4, "position": 96.04, "waveform": false, "file_id": "6Q4ECI0JKX", "display": 0, "has_video": {"Points": [{"co": {"Y": -1.0, "X": 1.0}, "interpolation": 2}]}, "layer": 1, "location_x": {"Points": [{"co": {"Y": 0.0, "X": 1.0}, "interpolation": 2}, {"co": {"Y": 0.6200000047683716, "X": 279}, "interpolation": 1}]}, "scale": 1, "crop_y": {"Points": [{"co": {"Y": 0.0, "X": 1.0}, "interpolation": 2}]}, "image": "/home/milind/.openshot_qt/thumbnail/6Q4ECI0JKX.png", "wave_color": {"alpha": {"Points": [{"handle_type": 0, "handle_right": {"Y": 0.0, "X": 0.5}, "handle_left": {"Y": 1.0, "X": 0.5}, "co": {"Y": 255.0, "X": 1.0}, "interpolation": 0}]}, "red": {"Points": [{"handle_type": 0, "handle_right": {"Y": 0.0, "X": 0.5}, "handle_left": {"Y": 1.0, "X": 0.5}, "co": {"Y": 0.0, "X": 1.0}, "interpolation": 0}]}, "blue": {"Points": [{"handle_type": 0, "handle_right": {"Y": 0.0, "X": 0.5}, "handle_left": {"Y": 1.0, "X": 0.5}, "co": {"Y": 255.0, "X": 1.0}, "interpolation": 0}]}, "green": {"Points": [{"handle_type": 0, "handle_right": {"Y": 0.0, "X": 0.5}, "handle_left": {"Y": 1.0, "X": 0.5}, "co": {"Y": 123.0, "X": 1.0}, "interpolation": 0}]}}, "duration": 53.0, "perspective_c1_x": {"Points": [{"co": {"Y": -1.0, "X": 1.0}, "interpolation": 2}]}, "has_audio": {"Points": [{"co": {"Y": -1.0, "X": 1.0}, "interpolation": 2}]}, "crop_width": {"Points": [{"co": {"Y": -1.0, "X": 1.0}, "interpolation": 2}]}, "anchor": 0, "effects": [], "scale_y": {"Points": [{"co": {"Y": 1.0, "X": 1.0}, "interpolation": 2}, {"co": {"Y": 2.299999952316284, "X": 279}, "interpolation": 1}]}, "shear_x": {"Points": [{"co": {"Y": 0.0, "X": 1.0}, "interpolation": 2}]}, "end": 50.25000000000003, "perspective_c1_y": {"Points": [{"co": {"Y": -1.0, "X": 1.0}, "interpolation": 2}]}, "perspective_c3_x": {"Points": [{"co": {"Y": -1.0, "X": 1.0}, "interpolation": 2}]}, "perspective_c2_y": {"Points": [{"co": {"Y": -1.0, "X": 1.0}, "interpolation": 2}]}, "reader": {"pixel_format": 0, "pixel_ratio": {"num": 1, "den": 1}, "acodec": "", "video_bit_rate": 0, "interlaced_frame": false, "fps": {"num": 25, "den": 1}, "has_single_image": false, "sample_rate": 0, "video_stream_index": 0, "channel_layout": 4, "audio_timebase": {"num": 1, "den": 1}, "video_timebase": {"num": 1, "den": 1000}, "display_ratio": {"num": 325, "den": 186}, "channels": 0, "has_video": true, "type": "FFmpegReader", "width": 1300, "top_field_first": true, "file_size": "447833", "vcodec": "h264", "path": "/home/milind/Data/Projects/ProgressCard/!050-Sample Students Data.mkv", "audio_stream_index": -1, "audio_bit_rate": 0, "height": 744, "video_length": "1325", "duration": 53.0, "has_audio": false}}, "type": "update", "value": {"start": 0, "layer": 1, "end": 50.25000000000003, "image": "/home/milind/.openshot_qt/thumbnail/6Q4ECI0JKX.png", "position": 95.665, "id": "XXQSWHAJ46"}}, {"partial": false, "key": ["files"], "old_values": [{"pixel_format": -1, "media_type": "image", "acodec": "", "audio_stream_index": -1, "interlaced_frame": false, "fps": {"num": 30, "den": 1}, "has_single_image": true, "sample_rate": 0, "video_stream_index": -1, "channel_layout": 4, "audio_timebase": {"num": 1, "den": 1}, "id": "5OEZCIVW6D", "display_ratio": {"num": 6803, "den": 3827}, "channels": 0, "has_video": true, "width": 6803, "type": "QtImageReader", "video_timebase": {"num": 1, "den": 30}, "pixel_ratio": {"num": 1, "den": 1}, "top_field_first": true, "file_size": "104140324", "vcodec": "", "path": "/home/milind/Data/Projects/ProgressCard/Images/02-Title Progress Cards.svg", "video_bit_rate": 0, "audio_bit_rate": 0, "height": 3827, "video_length": "2592000", "duration": 86400.0, "has_audio": false}, {"pixel_format": -1, "media_type": "image", "acodec": "", "audio_stream_index": -1, "interlaced_frame": false, "fps": {"num": 30, "den": 1}, "has_single_image": true, "sample_rate": 0, "video_stream_index": -1, "channel_layout": 4, "audio_timebase": {"num": 1, "den": 1}, "id": "TDIZ1HFAHG", "display_ratio": {"num": 16, "den": 9}, "channels": 0, "has_video": true, "width": 1920, "type": "QtImageReader", "video_timebase": {"num": 1, "den": 30}, "pixel_ratio": {"num": 1, "den": 1}, "top_field_first": true, "file_size": "8294400", "vcodec": "", "path": "/home/milind/Data/Projects/ProgressCard/Images/01-White-Background.svg", "video_bit_rate": 0, "audio_bit_rate": 0, "height": 1080, "video_length": "2592000", "duration": 86400.0, "has_audio": false}, {"pixel_format": -1, "media_type": "image", "acodec": "", "audio_stream_index": -1, "interlaced_frame": false, "fps": {"num": 30, "den": 1}, "has_single_image": true, "sample_rate": 0, "video_stream_index": -1, "channel_layout": 4, "audio_timebase": {"num": 1, "den": 1}, "id": "9LYJA9LENR", "display_ratio": {"num": 300, "den": 89}, "channels": 0, "has_video": true, "width": 600, "type": "QtImageReader", "video_timebase": {"num": 1, "den": 30}, "pixel_ratio": {"num": 1, "den": 1}, "top_field_first": true, "file_size": "427200", "vcodec": "", "path": "/home/milind/Data/Projects/ProgressCard/Images/04-LibreOffice_external_logo.svg", "video_bit_rate": 0, "audio_bit_rate": 0, "height": 178, "video_length": "2592000", "duration": 86400.0, "has_audio": false}, {"pixel_format": -1, "media_type": "image", "acodec": "", "audio_stream_index": -1, "interlaced_frame": false, "fps": {"num": 30, "den": 1}, "has_single_image": true, "sample_rate": 0, "video_stream_index": -1, "channel_layout": 4, "audio_timebase": {"num": 1, "den": 1}, "id": "V0JTT8RBI4", "display_ratio": {"num": 6803, "den": 3827}, "channels": 0, "has_video": true, "width": 6803, "type": "QtImageReader", "video_timebase": {"num": 1, "den": 30}, "pixel_ratio": {"num": 1, "den": 1}, "top_field_first": true, "file_size": "104140324", "vcodec": "", "path": "/home/milind/Data/Projects/ProgressCard/Images/03-Title-In.svg", "video_bit_rate": 0, "audio_bit_rate": 0, "height": 3827, "video_length": "2592000", "duration": 86400.0, "has_audio": false}, {"pixel_format": -1, "media_type": "image", "acodec": "", "audio_stream_index": -1, "interlaced_frame": false, "fps": {"num": 30, "den": 1}, "has_single_image": true, "sample_rate": 0, "video_stream_index": -1, "channel_layout": 4, "audio_timebase": {"num": 1, "den": 1}, "id": "UXYIII238I", "display_ratio": {"num": 6803, "den": 3827}, "channels": 0, "has_video": true, "width": 6803, "type": "QtImageReader", "video_timebase": {"num": 1, "den": 30}, "pixel_ratio": {"num": 1, "den": 1}, "top_field_first": true, "file_size": "104140324", "vcodec": "", "path": "/home/milind/Data/Projects/ProgressCard/Images/05-Title -Open Writer.svg", "video_bit_rate": 0, "audio_bit_rate": 0, "height": 3827, "video_length": "2592000", "duration": 86400.0, "has_audio": false}, {"pixel_format": 0, "media_type": "video", "acodec": "", "audio_stream_index": -1, "interlaced_frame": false, "fps": {"num": 25, "den": 1}, "has_single_image": false, "sample_rate": 0, "video_stream_index": 0, "channel_layout": 4, "audio_timebase": {"num": 1, "den": 1}, "id": "LH1LTFW4JK", "display_ratio": {"num": 683, "den": 384}, "channels": 0, "has_video": true, "width": 1366, "type": "FFmpegReader", "video_timebase": {"num": 1, "den": 1000}, "pixel_ratio": {"num": 1, "den": 1}, "top_field_first": true, "file_size": "263859", "vcodec": "h264", "path": "/home/milind/Data/Projects/ProgressCard/!020-Redice Page Height 21x13 to Save Paper.mkv", "video_bit_rate": 0, "audio_bit_rate": 0, "height": 768, "video_length": "900", "duration": 36.0, "has_audio": false}, {"pixel_format": 0, "media_type": "video", "acodec": "", "audio_stream_index": -1, "interlaced_frame": false, "fps": {"num": 25, "den": 1}, "has_single_image": false, "sample_rate": 0, "video_stream_index": 0, "channel_layout": 4, "audio_timebase": {"num": 1, "den": 1}, "id": "0CRU9IJ6JU", "display_ratio": {"num": 683, "den": 384}, "channels": 0, "has_video": true, "width": 1366, "type": "FFmpegReader", "video_timebase": {"num": 1, "den": 1000}, "pixel_ratio": {"num": 1, "den": 1}, "top_field_first": true, "file_size": "345131", "vcodec": "h264", "path": "/home/milind/Data/Projects/ProgressCard/!030-Create Progress Card Template.mkv", "video_bit_rate": 0, "audio_bit_rate": 0, "height": 768, "video_length": "1025", "duration": 41.0, "has_audio": false}, {"pixel_format": -1, "media_type": "image", "acodec": "", "audio_stream_index": -1, "interlaced_frame": false, "fps": {"num": 30, "den": 1}, "has_single_image": true, "sample_rate": 0, "video_stream_index": -1, "channel_layout": 4, "audio_timebase": {"num": 1, "den": 1}, "id": "V62OPXLIQ5", "display_ratio": {"num": 6803, "den": 3827}, "channels": 0, "has_video": true, "width": 6803, "type": "QtImageReader", "video_timebase": {"num": 1, "den": 30}, "pixel_ratio": {"num": 1, "den": 1}, "top_field_first": true, "file_size": "104140324", "vcodec": "", "path": "/home/milind/Data/Projects/ProgressCard/!040-Slide -Open Libre Calc.svg", "video_bit_rate": 0, "audio_bit_rate": 0, "height": 3827, "video_length": "2592000", "duration": 86400.0, "has_audio": false}, {"pixel_format": 0, "media_type": "video", "acodec": "", "audio_stream_index": -1, "interlaced_frame": false, "fps": {"num": 25, "den": 1}, "has_single_image": false, "sample_rate": 0, "video_stream_index": 0, "channel_layout": 4, "audio_timebase": {"num": 1, "den": 1}, "id": "6Q4ECI0JKX", "display_ratio": {"num": 325, "den": 186}, "channels": 0, "has_video": true, "width": 1300, "type": "FFmpegReader", "video_timebase": {"num": 1, "den": 1000}, "pixel_ratio": {"num": 1, "den": 1}, "top_field_first": true, "file_size": "447833", "vcodec": "h264", "path": "/home/milind/Data/Projects/ProgressCard/!050-Sample Students Data.mkv", "video_bit_rate": 0, "audio_bit_rate": 0, "height": 744, "video_length": "1325", "duration": 53.0, "has_audio": false}, {"pixel_format": 0, "media_type": "video", "acodec": "", "audio_stream_index": -1, "interlaced_frame": false, "fps": {"num": 25, "den": 1}, "has_single_image": false, "sample_rate": 0, "video_stream_index": 0, "channel_layout": 4, "audio_timebase": {"num": 1, "den": 1}, "id": "VQPCDZYTHO", "display_ratio": {"num": 325, "den": 186}, "channels": 0, "has_video": true, "width": 1300, "type": "FFmpegReader", "video_timebase": {"num": 1, "den": 1000}, "pixel_ratio": {"num": 1, "den": 1}, "top_field_first": true, "file_size": "638294", "vcodec": "h264", "path": "/home/milind/Data/Projects/ProgressCard/!060-Total of All Subjects.mkv", "video_bit_rate": 0, "audio_bit_rate": 0, "height": 744, "video_length": "2050", "duration": 82.0, "has_audio": false}, {"pixel_format": 0, "media_type": "video", "acodec": "", "audio_stream_index": -1, "interlaced_frame": false, "fps": {"num": 25, "den": 1}, "has_single_image": false, "sample_rate": 0, "video_stream_index": 0, "channel_layout": 4, "audio_timebase": {"num": 1, "den": 1}, "id": "5CQQB4EVIM", "display_ratio": {"num": 325, "den": 186}, "channels": 0, "has_video": true, "width": 1300, "type": "FFmpegReader", "video_timebase": {"num": 1, "den": 1000}, "pixel_ratio": {"num": 1, "den": 1}, "top_field_first": true, "file_size": "754457", "vcodec": "h264", "path": "/home/milind/Data/Projects/ProgressCard/!070-Calculate Grace Marks.mkv", "video_bit_rate": 0, "audio_bit_rate": 0, "height": 744, "video_length": "2375", "duration": 95.0, "has_audio": false}, {"pixel_format": -1, "media_type": "image", "acodec": "", "audio_stream_index": -1, "interlaced_frame": false, "fps": {"num": 30, "den": 1}, "has_single_image": true, "sample_rate": 0, "video_stream_index": -1, "channel_layout": 4, "audio_timebase": {"num": 1, "den": 1}, "id": "GIMS8XDQW5", "display_ratio": {"num": 6803, "den": 3827}, "channels": 0, "has_video": true, "width": 6803, "type": "QtImageReader", "video_timebase": {"num": 1, "den": 30}, "pixel_ratio": {"num": 1, "den": 1}, "top_field_first": true, "file_size": "104140324", "vcodec": "", "path": "/home/milind/Data/Projects/ProgressCard/!013-Format-Page-Dialog.svg", "video_bit_rate": 0, "audio_bit_rate": 0, "height": 3827, "video_length": "2592000", "duration": 86400.0, "has_audio": false}, {"pixel_format": 0, "media_type": "video", "acodec": "", "audio_stream_index": -1, "interlaced_frame": false, "fps": {"num": 25, "den": 1}, "has_single_image": false, "sample_rate": 0, "video_stream_index": 0, "channel_layout": 4, "audio_timebase": {"num": 1, "den": 1}, "id": "JMYSBVPZGY", "display_ratio": {"num": 325, "den": 186}, "channels": 0, "has_video": true, "width": 1300, "type": "FFmpegReader", "video_timebase": {"num": 1, "den": 1000}, "pixel_ratio": {"num": 1, "den": 1}, "top_field_first": true, "file_size": "31067", "vcodec": "h264", "path": "/home/milind/Data/Projects/ProgressCard/!010-Libre Writer Normal Screen.mkv", "video_bit_rate": 23625, "audio_bit_rate": 0, "height": 744, "video_length": "250", "duration": 10, "has_audio": false}, {"pixel_format": -1, "media_type": "image", "acodec": "", "audio_stream_index": -1, "interlaced_frame": false, "fps": {"num": 30, "den": 1}, "has_single_image": true, "sample_rate": 0, "video_stream_index": -1, "channel_layout": 4, "audio_timebase": {"num": 1, "den": 1}, "id": "EWJO5LAFDV", "display_ratio": {"num": 6803, "den": 3827}, "channels": 0, "has_video": true, "width": 6803, "type": "QtImageReader", "video_timebase": {"num": 1, "den": 30}, "pixel_ratio": {"num": 1, "den": 1}, "top_field_first": true, "file_size": "104140324", "vcodec": "", "path": "/home/milind/Data/Projects/ProgressCard/!065-Calculate Grace Marks.svg", "video_bit_rate": 0, "audio_bit_rate": 0, "height": 3827, "video_length": "2592000", "duration": 86400, "has_audio": false}, {"pixel_format": -1, "media_type": "image", "acodec": "", "audio_stream_index": -1, "interlaced_frame": false, "fps": {"num": 30, "den": 1}, "has_single_image": true, "sample_rate": 0, "video_stream_index": -1, "channel_layout": 4, "audio_timebase": {"num": 1, "den": 1}, "id": "7VACJ3VWTI", "file_size": "104140324", "channels": 0, "has_video": true, "width": 6803, "type": "QtImageReader", "video_timebase": {"num": 1, "den": 30}, "pixel_ratio": {"num": 1, "den": 1}, "top_field_first": true, "display_ratio": {"num": 6803, "den": 3827}, "vcodec": "", "path": "/home/milind/Data/Projects/ProgressCard/!011-Slide-We need only half page.svg", "video_bit_rate": 0, "audio_bit_rate": 0, "height": 3827, "video_length": "2592000", "duration": 86400.0, "has_audio": false}, {"pixel_format": -1, "media_type": "image", "acodec": "", "audio_stream_index": -1, "interlaced_frame": false, "fps": {"num": 30, "den": 1}, "has_single_image": true, "sample_rate": 0, "video_stream_index": -1, "channel_layout": 4, "audio_timebase": {"num": 1, "den": 1}, "id": "CQ9HLHMG6Y", "file_size": "104140324", "channels": 0, "has_video": true, "has_audio": false, "type": "QtImageReader", "video_bit_rate": 0, "width": 6803, "top_field_first": true, "display_ratio": {"num": 6803, "den": 3827}, "vcodec": "", "path": "/home/milind/Data/Projects/ProgressCard/!025-Create Progress Card Template.svg", "pixel_ratio": {"num": 1, "den": 1}, "audio_bit_rate": 0, "height": 3827, "video_length": "2592000", "duration": 86400, "video_timebase": {"num": 1, "den": 30}}], "type": "insert", "value": {"pixel_format": -1, "media_type": "image", "video_timebase": {"num": 1, "den": 30}, "acodec": "", "audio_stream_index": -1, "interlaced_frame": false, "fps": {"num": 30, "den": 1}, "has_single_image": true, "sample_rate": 0, "video_stream_index": -1, "channel_layout": 4, "audio_timebase": {"num": 1, "den": 1}, "id": "GOJEXTAQVD", "display_ratio": {"num": 6803, "den": 3827}, "channels": 0, "has_video": true, "type": "QtImageReader", "pixel_ratio": {"num": 1, "den": 1}, "width": 6803, "top_field_first": true, "file_size": "104140324", "vcodec": "", "path": "/home/milind/Data/Projects/ProgressCard/!045-Slide-Sample Students Data.svg", "video_bit_rate": 0, "audio_bit_rate": 0, "height": 3827, "video_length": "2592000", "duration": 86400, "has_audio": false}}, {"partial": false, "key": ["clips"], "old_values": [{"channel_filter": {"Points": [{"co": {"Y": -1.0, "X": 1.0}, "interpolation": 2}]}, "start": 0, "channel_mapping": {"Points": [{"co": {"Y": -1.0, "X": 1.0}, "interpolation": 2}]}, "rotation": {"Points": [{"co": {"Y": 0.0, "X": 1.0}, "interpolation": 2}]}, "title": "!020-Redice Page Height 21x13 to Save Paper.mkv", "crop_width": {"Points": [{"co": {"Y": -1.0, "X": 1.0}, "interpolation": 2}]}, "position": 28.96, "alpha": {"Points": [{"handle_type": 0, "handle_right": {"Y": 0, "X": 0.5}, "handle_left": {"Y": 1, "X": 0.5}, "co": {"Y": 1, "X": 1}, "interpolation": 0}, {"handle_type": 0, "handle_right": {"Y": 0, "X": 0.5}, "handle_left": {"Y": 1, "X": 0.5}, "co": {"Y": 0, "X": 1}, "interpolation": 0}, {"handle_type": 0, "handle_right": {"Y": 0, "X": 0.5}, "handle_left": {"Y": 1, "X": 0.5}, "co": {"Y": 1, "X": 73}, "interpolation": 0}, {"handle_type": 0, "handle_right": {"Y": 0, "X": 0.5}, "handle_left": {"Y": 1, "X": 0.5}, "co": {"Y": 1, "X": 543}, "interpolation": 0}, {"handle_type": 0, "handle_right": {"Y": 0, "X": 0.5}, "handle_left": {"Y": 1, "X": 0.5}, "co": {"Y": 0, "X": 615}, "interpolation": 0}]}, "crop_x": {"Points": [{"co": {"Y": 0.0, "X": 1.0}, "interpolation": 2}]}, "crop_height": {"Points": [{"co": {"Y": -1.0, "X": 1.0}, "interpolation": 2}]}, "location_y": {"Points": [{"handle_type": 0, "handle_right": {"Y": 0, "X": 0.5}, "handle_left": {"Y": 1, "X": 0.5}, "co": {"Y": 0, "X": 1}, "interpolation": 0}, {"co": {"Y": 0.1599999964237213, "X": 183}, "interpolation": 1}, {"co": {"Y": 0.0, "X": 104}, "interpolation": 1}, {"co": {"Y": 0.0, "X": 615}, "interpolation": 1}, {"co": {"Y": 0.1599999964237213, "X": 498}, "interpolation": 1}]}, "time": {"Points": [{"co": {"Y": 1.0, "X": 1.0}, "interpolation": 2}]}, "perspective_c2_x": {"Points": [{"co": {"Y": -1.0, "X": 1.0}, "interpolation": 2}]}, "has_video": {"Points": [{"co": {"Y": -1.0, "X": 1.0}, "interpolation": 2}]}, "perspective_c3_y": {"Points": [{"co": {"Y": -1.0, "X": 1.0}, "interpolation": 2}]}, "volume": {"Points": [{"co": {"Y": 1.0, "X": 1.0}, "interpolation": 2}]}, "shear_y": {"Points": [{"co": {"Y": 0.0, "X": 1.0}, "interpolation": 2}]}, "id": "O2YU232VRL", "gravity": 4, "perspective_c2_y": {"Points": [{"co": {"Y": -1.0, "X": 1.0}, "interpolation": 2}]}, "waveform": false, "file_id": "LH1LTFW4JK", "display": 0, "scale_x": {"Points": [{"handle_type": 0, "handle_right": {"Y": 0, "X": 0.5}, "handle_left": {"Y": 1, "X": 0.5}, "co": {"Y": 1.2000000476837158, "X": 1}, "interpolation": 0}, {"co": {"Y": 2.0, "X": 183}, "interpolation": 1}, {"co": {"Y": 1.2000000476837158, "X": 104}, "interpolation": 1}, {"co": {"Y": 1.2000000476837158, "X": 615}, "interpolation": 1}, {"co": {"Y": 2.0, "X": 498}, "interpolation": 1}]}, "layer": 2, "location_x": {"Points": [{"handle_type": 0, "handle_right": {"Y": 0, "X": 0.5}, "handle_left": {"Y": 1, "X": 0.5}, "co": {"Y": 0, "X": 1}, "interpolation": 0}, {"co": {"Y": 0.05999999865889549, "X": 183}, "interpolation": 1}, {"co": {"Y": 0.0, "X": 104}, "interpolation": 1}, {"co": {"Y": 0.0, "X": 615}, "interpolation": 1}, {"co": {"Y": 0.05999999865889549, "X": 498}, "interpolation": 1}]}, "scale": 1, "crop_y": {"Points": [{"co": {"Y": 0.0, "X": 1.0}, "interpolation": 2}]}, "image": "/home/milind/.openshot_qt/thumbnail/LH1LTFW4JK.png", "perspective_c3_x": {"Points": [{"co": {"Y": -1.0, "X": 1.0}, "interpolation": 2}]}, "end": 25.59166666666666, "perspective_c1_x": {"Points": [{"co": {"Y": -1.0, "X": 1.0}, "interpolation": 2}]}, "reader": {"pixel_format": 0, "pixel_ratio": {"num": 1, "den": 1}, "acodec": "", "video_bit_rate": 0, "interlaced_frame": false, "fps": {"num": 25, "den": 1}, "has_single_image": false, "sample_rate": 0, "video_stream_index": 0, "channel_layout": 4, "audio_timebase": {"num": 1, "den": 1}, "video_timebase": {"num": 1, "den": 1000}, "display_ratio": {"num": 683, "den": 384}, "channels": 0, "has_video": true, "type": "FFmpegReader", "width": 1366, "top_field_first": true, "file_size": "263859", "vcodec": "h264", "path": "/home/milind/Data/Projects/ProgressCard/!020-Redice Page Height 21x13 to Save Paper.mkv", "audio_stream_index": -1, "audio_bit_rate": 0, "height": 768, "video_length": "900", "duration": 36.0, "has_audio": false}, "anchor": 0, "has_audio": {"Points": [{"co": {"Y": -1.0, "X": 1.0}, "interpolation": 2}]}, "scale_y": {"Points": [{"handle_type": 0, "handle_right": {"Y": 0, "X": 0.5}, "handle_left": {"Y": 1, "X": 0.5}, "co": {"Y": 1.2000000476837158, "X": 1}, "interpolation": 0}, {"co": {"Y": 2.0, "X": 183}, "interpolation": 1}, {"co": {"Y": 1.2000000476837158, "X": 104}, "interpolation": 1}, {"co": {"Y": 1.2000000476837158, "X": 615}, "interpolation": 1}, {"co": {"Y": 2.0, "X": 498}, "interpolation": 1}]}, "shear_x": {"Points": [{"co": {"Y": 0.0, "X": 1.0}, "interpolation": 2}]}, "perspective_c4_y": {"Points": [{"co": {"Y": -1.0, "X": 1.0}, "interpolation": 2}]}, "perspective_c1_y": {"Points": [{"co": {"Y": -1.0, "X": 1.0}, "interpolation": 2}]}, "perspective_c4_x": {"Points": [{"co": {"Y": -1.0, "X": 1.0}, "interpolation": 2}]}, "effects": [], "wave_color": {"alpha": {"Points": [{"handle_type": 0, "handle_right": {"Y": 0.0, "X": 0.5}, "handle_left": {"Y": 1.0, "X": 0.5}, "co": {"Y": 255.0, "X": 1.0}, "interpolation": 0}]}, "red": {"Points": [{"handle_type": 0, "handle_right": {"Y": 0.0, "X": 0.5}, "handle_left": {"Y": 1.0, "X": 0.5}, "co": {"Y": 0.0, "X": 1.0}, "interpolation": 0}]}, "blue": {"Points": [{"handle_type": 0, "handle_right": {"Y": 0.0, "X": 0.5}, "handle_left": {"Y": 1.0, "X": 0.5}, "co": {"Y": 255.0, "X": 1.0}, "interpolation": 0}]}, "green": {"Points": [{"handle_type": 0, "handle_right": {"Y": 0.0, "X": 0.5}, "handle_left": {"Y": 1.0, "X": 0.5}, "co": {"Y": 123.0, "X": 1.0}, "interpolation": 0}]}}, "duration": 36.0}, {"channel_filter": {"Points": [{"co": {"Y": -1.0, "X": 1.0}, "interpolation": 2}]}, "start": 0.13666666666667027, "channel_mapping": {"Points": [{"co": {"Y": -1.0, "X": 1.0}, "interpolation": 2}]}, "rotation": {"Points": [{"co": {"Y": 0.0, "X": 1.0}, "interpolation": 2}]}, "title": "!030-Create Progress Card Template.mkv", "perspective_c4_x": {"Points": [{"co": {"Y": -1.0, "X": 1.0}, "interpolation": 2}]}, "alpha": {"Points": [{"handle_type": 0, "handle_left": {"Y": 1, "X": 0.5}, "handle_right": {"Y": 0, "X": 0.5}, "co": {"Y": 1, "X": 1}, "interpolation": 0}, {"handle_type": 0, "handle_left": {"Y": 1, "X": 0.5}, "handle_right": {"Y": 0, "X": 0.5}, "co": {"Y": 0, "X": 4}, "interpolation": 0}, {"handle_type": 0, "handle_left": {"Y": 1, "X": 0.5}, "handle_right": {"Y": 0, "X": 0.5}, "co": {"Y": 1, "X": 76}, "interpolation": 0}, {"handle_type": 0, "handle_left": {"Y": 1, "X": 0.5}, "interpolation": 0, "co": {"Y": 1, "X": 803}, "handle_right": {"Y": 0, "X": 0.5}}, {"handle_type": 0, "handle_left": {"Y": 1, "X": 0.5}, "interpolation": 0, "co": {"Y": 0, "X": 875}, "handle_right": {"Y": 0, "X": 0.5}}]}, "crop_x": {"Points": [{"co": {"Y": 0.0, "X": 1.0}, "interpolation": 2}]}, "crop_height": {"Points": [{"co": {"Y": -1.0, "X": 1.0}, "interpolation": 2}]}, "location_y": {"Points": [{"handle_type": 0, "handle_right": {"Y": 0, "X": 0.5}, "handle_left": {"Y": 1, "X": 0.5}, "co": {"Y": 0, "X": 1}, "interpolation": 0}]}, "time": {"Points": [{"co": {"Y": 1.0, "X": 1.0}, "interpolation": 2}]}, "has_video": {"Points": [{"co": {"Y": -1.0, "X": 1.0}, "interpolation": 2}]}, "scale_x": {"Points": [{"handle_type": 0, "handle_right": {"Y": 0, "X": 0.5}, "handle_left": {"Y": 1, "X": 0.5}, "co": {"Y": 1, "X": 1}, "interpolation": 0}, {"co": {"Y": 1.2000000476837158, "X": 4}, "interpolation": 1}, {"co": {"Y": 2.0, "X": 648}, "interpolation": 1}, {"co": {"Y": 2.0, "X": 522}, "interpolation": 1}, {"co": {"Y": 1.2000000476837158, "X": 768}, "interpolation": 1}]}, "perspective_c3_y": {"Points": [{"co": {"Y": -1.0, "X": 1.0}, "interpolation": 2}]}, "volume": {"Points": [{"co": {"Y": 1.0, "X": 1.0}, "interpolation": 2}]}, "shear_y": {"Points": [{"co": {"Y": 0.0, "X": 1.0}, "interpolation": 2}]}, "id": "TTIRD7551Y", "gravity": 4, "perspective_c2_y": {"Points": [{"co": {"Y": -1.0, "X": 1.0}, "interpolation": 2}]}, "waveform": false, "file_id": "0CRU9IJ6JU", "display": 0, "effects": [], "location_x": {"Points": [{"handle_type": 0, "handle_right": {"Y": 0, "X": 0.5}, "handle_left": {"Y": 1, "X": 0.5}, "co": {"Y": 0, "X": 1}, "interpolation": 0}, {"co": {"Y": -0.014999999664723873, "X": 648}, "interpolation": 1}, {"co": {"Y": -0.014999999664723873, "X": 522}, "interpolation": 1}, {"co": {"Y": 0.0, "X": 768}, "interpolation": 1}]}, "layer": 1, "anchor": 0, "crop_y": {"Points": [{"co": {"Y": 0.0, "X": 1.0}, "interpolation": 2}]}, "image": "/home/milind/.openshot_qt/thumbnail/TTIRD7551Y-4.png", "wave_color": {"alpha": {"Points": [{"handle_type": 0, "handle_right": {"Y": 0.0, "X": 0.5}, "handle_left": {"Y": 1.0, "X": 0.5}, "co": {"Y": 255.0, "X": 1.0}, "interpolation": 0}]}, "red": {"Points": [{"handle_type": 0, "handle_right": {"Y": 0.0, "X": 0.5}, "handle_left": {"Y": 1.0, "X": 0.5}, "co": {"Y": 0.0, "X": 1.0}, "interpolation": 0}]}, "blue": {"Points": [{"handle_type": 0, "handle_right": {"Y": 0.0, "X": 0.5}, "handle_left": {"Y": 1.0, "X": 0.5}, "co": {"Y": 255.0, "X": 1.0}, "interpolation": 0}]}, "green": {"Points": [{"handle_type": 0, "handle_right": {"Y": 0.0, "X": 0.5}, "handle_left": {"Y": 1.0, "X": 0.5}, "co": {"Y": 123.0, "X": 1.0}, "interpolation": 0}]}}, "perspective_c1_x": {"Points": [{"co": {"Y": -1.0, "X": 1.0}, "interpolation": 2}]}, "duration": 41.0, "scale": 1, "crop_width": {"Points": [{"co": {"Y": -1.0, "X": 1.0}, "interpolation": 2}]}, "has_audio": {"Points": [{"co": {"Y": -1.0, "X": 1.0}, "interpolation": 2}]}, "scale_y": {"Points": [{"handle_type": 0, "handle_right": {"Y": 0, "X": 0.5}, "handle_left": {"Y": 1, "X": 0.5}, "co": {"Y": 1, "X": 1}, "interpolation": 0}, {"co": {"Y": 1.2000000476837158, "X": 4}, "interpolation": 1}, {"co": {"Y": 2.0, "X": 648}, "interpolation": 1}, {"co": {"Y": 2.0, "X": 522}, "interpolation": 1}, {"co": {"Y": 1.2000000476837158, "X": 768}, "interpolation": 1}]}, "shear_x": {"Points": [{"co": {"Y": 0.0, "X": 1.0}, "interpolation": 2}]}, "perspective_c4_y": {"Points": [{"co": {"Y": -1.0, "X": 1.0}, "interpolation": 2}]}, "perspective_c1_y": {"Points": [{"co": {"Y": -1.0, "X": 1.0}, "interpolation": 2}]}, "perspective_c3_x": {"Points": [{"co": {"Y": -1.0, "X": 1.0}, "interpolation": 2}]}, "position": 54.37, "reader": {"pixel_format": 0, "pixel_ratio": {"num": 1, "den": 1}, "acodec": "", "video_bit_rate": 0, "interlaced_frame": false, "fps": {"num": 25, "den": 1}, "has_single_image": false, "sample_rate": 0, "video_stream_index": 0, "channel_layout": 4, "audio_timebase": {"num": 1, "den": 1}, "video_timebase": {"num": 1, "den": 1000}, "display_ratio": {"num": 683, "den": 384}, "channels": 0, "has_video": true, "type": "FFmpegReader", "width": 1366, "top_field_first": true, "file_size": "345131", "vcodec": "h264", "path": "/home/milind/Data/Projects/ProgressCard/!030-Create Progress Card Template.mkv", "audio_stream_index": -1, "audio_bit_rate": 0, "height": 768, "video_length": "1025", "duration": 41.0, "has_audio": false}, "perspective_c2_x": {"Points": [{"co": {"Y": -1.0, "X": 1.0}, "interpolation": 2}]}, "end": 36.433333333333344}, {"channel_filter": {"Points": [{"co": {"Y": -1.0, "X": 1.0}, "interpolation": 2}]}, "start": 0, "channel_mapping": {"Points": [{"co": {"Y": -1.0, "X": 1.0}, "interpolation": 2}]}, "rotation": {"Points": [{"co": {"Y": 0.0, "X": 1.0}, "interpolation": 2}]}, "title": "01-White-Background.svg", "alpha": {"Points": [{"co": {"Y": 1.0, "X": 1.0}, "interpolation": 2}]}, "crop_x": {"Points": [{"co": {"Y": 0.0, "X": 1.0}, "interpolation": 2}]}, "crop_height": {"Points": [{"co": {"Y": -1.0, "X": 1.0}, "interpolation": 2}]}, "display": 0, "perspective_c4_y": {"Points": [{"co": {"Y": -1.0, "X": 1.0}, "interpolation": 2}]}, "time": {"Points": [{"co": {"Y": 1.0, "X": 1.0}, "interpolation": 2}]}, "has_video": {"Points": [{"co": {"Y": -1.0, "X": 1.0}, "interpolation": 2}]}, "perspective_c3_y": {"Points": [{"co": {"Y": -1.0, "X": 1.0}, "interpolation": 2}]}, "volume": {"Points": [{"co": {"Y": 1.0, "X": 1.0}, "interpolation": 2}]}, "shear_y": {"Points": [{"co": {"Y": 0.0, "X": 1.0}, "interpolation": 2}]}, "effects": [], "id": "3IJL49SBNP", "gravity": 4, "perspective_c2_y": {"Points": [{"co": {"Y": -1.0, "X": 1.0}, "interpolation": 2}]}, "waveform": false, "file_id": "TDIZ1HFAHG", "location_y": {"Points": [{"co": {"Y": 0.0, "X": 1.0}, "interpolation": 2}]}, "scale_x": {"Points": [{"co": {"Y": 1.0, "X": 1.0}, "interpolation": 2}, {"co": {"Y": 2.0, "X": 1567}, "interpolation": 1}]}, "location_x": {"Points": [{"co": {"Y": 0.0, "X": 1.0}, "interpolation": 2}]}, "layer": 0, "crop_width": {"Points": [{"co": {"Y": -1.0, "X": 1.0}, "interpolation": 2}]}, "crop_y": {"Points": [{"co": {"Y": 0.0, "X": 1.0}, "interpolation": 2}]}, "end": 62.319999999999986, "perspective_c3_x": {"Points": [{"co": {"Y": -1.0, "X": 1.0}, "interpolation": 2}]}, "duration": 86400.0, "perspective_c1_x": {"Points": [{"co": {"Y": -1.0, "X": 1.0}, "interpolation": 2}]}, "has_audio": {"Points": [{"co": {"Y": -1.0, "X": 1.0}, "interpolation": 2}]}, "scale": 1, "anchor": 0, "wave_color": {"alpha": {"Points": [{"handle_type": 0, "handle_right": {"Y": 0.0, "X": 0.5}, "handle_left": {"Y": 1.0, "X": 0.5}, "co": {"Y": 255.0, "X": 1.0}, "interpolation": 0}]}, "red": {"Points": [{"handle_type": 0, "handle_right": {"Y": 0.0, "X": 0.5}, "handle_left": {"Y": 1.0, "X": 0.5}, "co": {"Y": 0.0, "X": 1.0}, "interpolation": 0}]}, "blue": {"Points": [{"handle_type": 0, "handle_right": {"Y": 0.0, "X": 0.5}, "handle_left": {"Y": 1.0, "X": 0.5}, "co": {"Y": 255.0, "X": 1.0}, "interpolation": 0}]}, "green": {"Points": [{"handle_type": 0, "handle_right": {"Y": 0.0, "X": 0.5}, "handle_left": {"Y": 1.0, "X": 0.5}, "co": {"Y": 123.0, "X": 1.0}, "interpolation": 0}]}}, "scale_y": {"Points": [{"co": {"Y": 1.0, "X": 1.0}, "interpolation": 2}, {"co": {"Y": 2.0, "X": 1567}, "interpolation": 1}]}, "shear_x": {"Points": [{"co": {"Y": 0.0, "X": 1.0}, "interpolation": 2}]}, "perspective_c2_x": {"Points": [{"co": {"Y": -1.0, "X": 1.0}, "interpolation": 2}]}, "perspective_c1_y": {"Points": [{"co": {"Y": -1.0, "X": 1.0}, "interpolation": 2}]}, "perspective_c4_x": {"Points": [{"co": {"Y": -1.0, "X": 1.0}, "interpolation": 2}]}, "position": 0, "image": "/home/milind/.openshot_qt/thumbnail/TDIZ1HFAHG.png", "reader": {"pixel_format": -1, "pixel_ratio": {"num": 1, "den": 1}, "acodec": "", "video_bit_rate": 0, "interlaced_frame": false, "fps": {"num": 30, "den": 1}, "has_single_image": true, "sample_rate": 0, "video_stream_index": -1, "channel_layout": 4, "audio_timebase": {"num": 1, "den": 1}, "video_timebase": {"num": 1, "den": 30}, "display_ratio": {"num": 16, "den": 9}, "channels": 0, "has_video": true, "type": "QtImageReader", "width": 1920, "top_field_first": true, "file_size": "8294400", "vcodec": "", "path": "/home/milind/Data/Projects/ProgressCard/Images/01-White-Background.svg", "audio_stream_index": -1, "audio_bit_rate": 0, "height": 1080, "video_length": "2592000", "duration": 86400.0, "has_audio": false}}, {"channel_filter": {"Points": [{"co": {"Y": -1.0, "X": 1.0}, "interpolation": 2}]}, "start": 0, "channel_mapping": {"Points": [{"co": {"Y": -1.0, "X": 1.0}, "interpolation": 2}]}, "rotation": {"Points": [{"co": {"Y": 0.0, "X": 1.0}, "interpolation": 2}]}, "title": "01-White-Background.svg", "perspective_c4_x": {"Points": [{"co": {"Y": -1.0, "X": 1.0}, "interpolation": 2}]}, "alpha": {"Points": [{"co": {"Y": 1.0, "X": 1.0}, "interpolation": 2}]}, "crop_x": {"Points": [{"co": {"Y": 0.0, "X": 1.0}, "interpolation": 2}]}, "crop_height": {"Points": [{"co": {"Y": -1.0, "X": 1.0}, "interpolation": 2}]}, "location_y": {"Points": [{"co": {"Y": 0.0, "X": 1.0}, "interpolation": 2}]}, "perspective_c4_y": {"Points": [{"co": {"Y": -1.0, "X": 1.0}, "interpolation": 2}]}, "time": {"Points": [{"co": {"Y": 1.0, "X": 1.0}, "interpolation": 2}]}, "perspective_c2_x": {"Points": [{"co": {"Y": -1.0, "X": 1.0}, "interpolation": 2}]}, "scale_x": {"Points": [{"co": {"Y": 1.0, "X": 1.0}, "interpolation": 2}]}, "perspective_c3_y": {"Points": [{"co": {"Y": -1.0, "X": 1.0}, "interpolation": 2}]}, "volume": {"Points": [{"co": {"Y": 1.0, "X": 1.0}, "interpolation": 2}]}, "shear_y": {"Points": [{"co": {"Y": 0.0, "X": 1.0}, "interpolation": 2}]}, "id": "WALX2TP5RQ", "gravity": 4, "position": 86.375, "waveform": false, "file_id": "TDIZ1HFAHG", "display": 0, "has_video": {"Points": [{"co": {"Y": -1.0, "X": 1.0}, "interpolation": 2}]}, "layer": 0, "location_x": {"Points": [{"co": {"Y": 0.0, "X": 1.0}, "interpolation": 2}]}, "scale": 1, "crop_y": {"Points": [{"co": {"Y": 0.0, "X": 1.0}, "interpolation": 2}]}, "image": "/home/milind/.openshot_qt/thumbnail/TDIZ1HFAHG.png", "wave_color": {"alpha": {"Points": [{"handle_type": 0, "handle_right": {"Y": 0.0, "X": 0.5}, "handle_left": {"Y": 1.0, "X": 0.5}, "co": {"Y": 255.0, "X": 1.0}, "interpolation": 0}]}, "red": {"Points": [{"handle_type": 0, "handle_right": {"Y": 0.0, "X": 0.5}, "handle_left": {"Y": 1.0, "X": 0.5}, "co": {"Y": 0.0, "X": 1.0}, "interpolation": 0}]}, "blue": {"Points": [{"handle_type": 0, "handle_right": {"Y": 0.0, "X": 0.5}, "handle_left": {"Y": 1.0, "X": 0.5}, "co": {"Y": 255.0, "X": 1.0}, "interpolation": 0}]}, "green": {"Points": [{"handle_type": 0, "handle_right": {"Y": 0.0, "X": 0.5}, "handle_left": {"Y": 1.0, "X": 0.5}, "co": {"Y": 123.0, "X": 1.0}, "interpolation": 0}]}}, "duration": 86400.0, "perspective_c1_x": {"Points": [{"co": {"Y": -1.0, "X": 1.0}, "interpolation": 2}]}, "has_audio": {"Points": [{"co": {"Y": -1.0, "X": 1.0}, "interpolation": 2}]}, "crop_width": {"Points": [{"co": {"Y": -1.0, "X": 1.0}, "interpolation": 2}]}, "anchor": 0, "effects": [], "scale_y": {"Points": [{"co": {"Y": 1.0, "X": 1.0}, "interpolation": 2}]}, "shear_x": {"Points": [{"co": {"Y": 0.0, "X": 1.0}, "interpolation": 2}]}, "end": 16.88, "perspective_c1_y": {"Points": [{"co": {"Y": -1.0, "X": 1.0}, "interpolation": 2}]}, "perspective_c3_x": {"Points": [{"co": {"Y": -1.0, "X": 1.0}, "interpolation": 2}]}, "perspective_c2_y": {"Points": [{"co": {"Y": -1.0, "X": 1.0}, "interpolation": 2}]}, "reader": {"pixel_format": -1, "pixel_ratio": {"num": 1, "den": 1}, "acodec": "", "video_bit_rate": 0, "interlaced_frame": false, "fps": {"num": 30, "den": 1}, "has_single_image": true, "sample_rate": 0, "video_stream_index": -1, "channel_layout": 4, "audio_timebase": {"num": 1, "den": 1}, "video_timebase": {"num": 1, "den": 30}, "display_ratio": {"num": 16, "den": 9}, "channels": 0, "has_video": true, "type": "QtImageReader", "width": 1920, "top_field_first": true, "file_size": "8294400", "vcodec": "", "path": "/home/milind/Data/Projects/ProgressCard/Images/01-White-Background.svg", "audio_stream_index": -1, "audio_bit_rate": 0, "height": 1080, "video_length": "2592000", "duration": 86400.0, "has_audio": false}}, {"channel_filter": {"Points": [{"co": {"Y": -1.0, "X": 1.0}, "interpolation": 2}]}, "start": 0, "channel_mapping": {"Points": [{"co": {"Y": -1.0, "X": 1.0}, "interpolation": 2}]}, "rotation": {"Points": [{"co": {"Y": 0.0, "X": 1.0}, "interpolation": 2}]}, "title": "!050-Sample Students Data.mkv", "perspective_c4_x": {"Points": [{"co": {"Y": -1.0, "X": 1.0}, "interpolation": 2}]}, "alpha": {"Points": [{"handle_type": 0, "handle_right": {"Y": 0.0, "X": 0.5}, "handle_left": {"Y": 1.0, "X": 0.5}, "co": {"Y": 1.0, "X": 1.0}, "interpolation": 0}, {"handle_type": 0, "handle_right": {"Y": 0.0, "X": 0.5}, "handle_left": {"Y": 1.0, "X": 0.5}, "co": {"Y": 0.0, "X": 1.0}, "interpolation": 0}, {"handle_type": 0, "handle_right": {"Y": 0.0, "X": 0.5}, "handle_left": {"Y": 1.0, "X": 0.5}, "co": {"Y": 1.0, "X": 73.0}, "interpolation": 0}, {"handle_type": 0, "handle_right": {"Y": 0.0, "X": 0.5}, "handle_left": {"Y": 1.0, "X": 0.5}, "co": {"Y": 1.0, "X": 1135.0}, "interpolation": 0}, {"handle_type": 0, "handle_right": {"Y": 0.0, "X": 0.5}, "handle_left": {"Y": 1.0, "X": 0.5}, "co": {"Y": 0.0, "X": 1207.0}, "interpolation": 0}]}, "crop_x": {"Points": [{"co": {"Y": 0.0, "X": 1.0}, "interpolation": 2}]}, "crop_height": {"Points": [{"co": {"Y": -1.0, "X": 1.0}, "interpolation": 2}]}, "location_y": {"Points": [{"co": {"Y": 0.0, "X": 1.0}, "interpolation": 2}, {"co": {"Y": 0.5199999809265137, "X": 279}, "interpolation": 1}]}, "perspective_c4_y": {"Points": [{"co": {"Y": -1.0, "X": 1.0}, "interpolation": 2}]}, "time": {"Points": [{"co": {"Y": 1.0, "X": 1.0}, "interpolation": 2}]}, "perspective_c2_x": {"Points": [{"co": {"Y": -1.0, "X": 1.0}, "interpolation": 2}]}, "scale_x": {"Points": [{"co": {"Y": 1.0, "X": 1.0}, "interpolation": 2}, {"co": {"Y": 2.299999952316284, "X": 279}, "interpolation": 1}]}, "perspective_c3_y": {"Points": [{"co": {"Y": -1.0, "X": 1.0}, "interpolation": 2}]}, "volume": {"Points": [{"co": {"Y": 1.0, "X": 1.0}, "interpolation": 2}]}, "shear_y": {"Points": [{"co": {"Y": 0.0, "X": 1.0}, "interpolation": 2}]}, "id": "XXQSWHAJ46", "gravity": 4, "position": 95.665, "waveform": false, "file_id": "6Q4ECI0JKX", "display": 0, "has_video": {"Points": [{"co": {"Y": -1.0, "X": 1.0}, "interpolation": 2}]}, "layer": 1, "location_x": {"Points": [{"co": {"Y": 0.0, "X": 1.0}, "interpolation": 2}, {"co": {"Y": 0.6200000047683716, "X": 279}, "interpolation": 1}]}, "scale": 1, "crop_y": {"Points": [{"co": {"Y": 0.0, "X": 1.0}, "interpolation": 2}]}, "image": "/home/milind/.openshot_qt/thumbnail/6Q4ECI0JKX.png", "wave_color": {"alpha": {"Points": [{"handle_type": 0, "handle_right": {"Y": 0.0, "X": 0.5}, "handle_left": {"Y": 1.0, "X": 0.5}, "co": {"Y": 255.0, "X": 1.0}, "interpolation": 0}]}, "red": {"Points": [{"handle_type": 0, "handle_right": {"Y": 0.0, "X": 0.5}, "handle_left": {"Y": 1.0, "X": 0.5}, "co": {"Y": 0.0, "X": 1.0}, "interpolation": 0}]}, "blue": {"Points": [{"handle_type": 0, "handle_right": {"Y": 0.0, "X": 0.5}, "handle_left": {"Y": 1.0, "X": 0.5}, "co": {"Y": 255.0, "X": 1.0}, "interpolation": 0}]}, "green": {"Points": [{"handle_type": 0, "handle_right": {"Y": 0.0, "X": 0.5}, "handle_left": {"Y": 1.0, "X": 0.5}, "co": {"Y": 123.0, "X": 1.0}, "interpolation": 0}]}}, "duration": 53.0, "perspective_c1_x": {"Points": [{"co": {"Y": -1.0, "X": 1.0}, "interpolation": 2}]}, "has_audio": {"Points": [{"co": {"Y": -1.0, "X": 1.0}, "interpolation": 2}]}, "crop_width": {"Points": [{"co": {"Y": -1.0, "X": 1.0}, "interpolation": 2}]}, "anchor": 0, "effects": [], "scale_y": {"Points": [{"co": {"Y": 1.0, "X": 1.0}, "interpolation": 2}, {"co": {"Y": 2.299999952316284, "X": 279}, "interpolation": 1}]}, "shear_x": {"Points": [{"co": {"Y": 0.0, "X": 1.0}, "interpolation": 2}]}, "end": 50.25000000000003, "perspective_c1_y": {"Points": [{"co": {"Y": -1.0, "X": 1.0}, "interpolation": 2}]}, "perspective_c3_x": {"Points": [{"co": {"Y": -1.0, "X": 1.0}, "interpolation": 2}]}, "perspective_c2_y": {"Points": [{"co": {"Y": -1.0, "X": 1.0}, "interpolation": 2}]}, "reader": {"pixel_format": 0, "pixel_ratio": {"num": 1, "den": 1}, "acodec": "", "video_bit_rate": 0, "interlaced_frame": false, "fps": {"num": 25, "den": 1}, "has_single_image": false, "sample_rate": 0, "video_stream_index": 0, "channel_layout": 4, "audio_timebase": {"num": 1, "den": 1}, "video_timebase": {"num": 1, "den": 1000}, "display_ratio": {"num": 325, "den": 186}, "channels": 0, "has_video": true, "type": "FFmpegReader", "width": 1300, "top_field_first": true, "file_size": "447833", "vcodec": "h264", "path": "/home/milind/Data/Projects/ProgressCard/!050-Sample Students Data.mkv", "audio_stream_index": -1, "audio_bit_rate": 0, "height": 744, "video_length": "1325", "duration": 53.0, "has_audio": false}}, {"channel_filter": {"Points": [{"co": {"Y": -1.0, "X": 1.0}, "interpolation": 2}]}, "start": 0, "channel_mapping": {"Points": [{"co": {"Y": -1.0, "X": 1.0}, "interpolation": 2}]}, "rotation": {"Points": [{"co": {"Y": 0.0, "X": 1.0}, "interpolation": 2}]}, "title": "!060-Total of All Subjects.mkv", "crop_width": {"Points": [{"co": {"Y": -1.0, "X": 1.0}, "interpolation": 2}]}, "perspective_c4_x": {"Points": [{"co": {"Y": -1.0, "X": 1.0}, "interpolation": 2}]}, "alpha": {"Points": [{"handle_type": 0, "handle_right": {"Y": 0, "X": 0.5}, "handle_left": {"Y": 1, "X": 0.5}, "co": {"Y": 1, "X": 1}, "interpolation": 0}, {"handle_type": 0, "handle_right": {"Y": 0, "X": 0.5}, "handle_left": {"Y": 1, "X": 0.5}, "co": {"Y": 0, "X": 1}, "interpolation": 0}, {"handle_type": 0, "handle_right": {"Y": 0, "X": 0.5}, "handle_left": {"Y": 1, "X": 0.5}, "co": {"Y": 1, "X": 73}, "interpolation": 0}, {"handle_type": 0, "handle_right": {"Y": 0, "X": 0.5}, "handle_left": {"Y": 1, "X": 0.5}, "co": {"Y": 1, "X": 892}, "interpolation": 0}, {"handle_type": 0, "handle_right": {"Y": 0, "X": 0.5}, "handle_left": {"Y": 1, "X": 0.5}, "co": {"Y": 0, "X": 964}, "interpolation": 0}]}, "crop_x": {"Points": [{"co": {"Y": 0.0, "X": 1.0}, "interpolation": 2}]}, "crop_height": {"Points": [{"co": {"Y": -1.0, "X": 1.0}, "interpolation": 2}]}, "display": 0, "time": {"Points": [{"co": {"Y": 1, "X": 1}, "interpolation": 1}, {"co": {"Y": 1925, "X": 963}, "interpolation": 1}]}, "crop_y": {"Points": [{"co": {"Y": 0.0, "X": 1.0}, "interpolation": 2}]}, "has_video": {"Points": [{"co": {"Y": -1.0, "X": 1.0}, "interpolation": 2}]}, "perspective_c3_y": {"Points": [{"co": {"Y": -1.0, "X": 1.0}, "interpolation": 2}]}, "volume": {"Points": [{"co": {"Y": 1.0, "X": 1.0}, "interpolation": 2}]}, "shear_y": {"Points": [{"co": {"Y": 0.0, "X": 1.0}, "interpolation": 2}]}, "id": "XIG1DXTS01", "gravity": 4, "position": 149.365, "waveform": false, "file_id": "VQPCDZYTHO", "location_y": {"Points": [{"co": {"Y": 0.5199999809265137, "X": 1.0}, "interpolation": 2}]}, "scale_x": {"Points": [{"co": {"Y": 2.299999952316284, "X": 1.0}, "interpolation": 2}]}, "location_x": {"Points": [{"co": {"Y": 0.6200000047683716, "X": 1.0}, "interpolation": 2}, {"co": {"Y": 0.41999998688697815, "X": 265}, "interpolation": 1}]}, "layer": 1, "reader": {"pixel_format": 0, "pixel_ratio": {"num": 1, "den": 1}, "acodec": "", "video_bit_rate": 0, "interlaced_frame": false, "fps": {"num": 25, "den": 1}, "has_single_image": false, "sample_rate": 0, "video_stream_index": 0, "channel_layout": 4, "audio_timebase": {"num": 1, "den": 1}, "video_timebase": {"num": 1, "den": 1000}, "display_ratio": {"num": 325, "den": 186}, "channels": 0, "has_video": true, "type": "FFmpegReader", "width": 1300, "top_field_first": true, "file_size": "638294", "vcodec": "h264", "path": "/home/milind/Data/Projects/ProgressCard/!060-Total of All Subjects.mkv", "audio_stream_index": -1, "audio_bit_rate": 0, "height": 744, "video_length": "2050", "duration": 82.0, "has_audio": false}, "perspective_c4_y": {"Points": [{"co": {"Y": -1.0, "X": 1.0}, "interpolation": 2}]}, "end": 40.125, "wave_color": {"alpha": {"Points": [{"handle_type": 0, "handle_right": {"Y": 0.0, "X": 0.5}, "handle_left": {"Y": 1.0, "X": 0.5}, "co": {"Y": 255.0, "X": 1.0}, "interpolation": 0}]}, "red": {"Points": [{"handle_type": 0, "handle_right": {"Y": 0.0, "X": 0.5}, "handle_left": {"Y": 1.0, "X": 0.5}, "co": {"Y": 0.0, "X": 1.0}, "interpolation": 0}]}, "blue": {"Points": [{"handle_type": 0, "handle_right": {"Y": 0.0, "X": 0.5}, "handle_left": {"Y": 1.0, "X": 0.5}, "co": {"Y": 255.0, "X": 1.0}, "interpolation": 0}]}, "green": {"Points": [{"handle_type": 0, "handle_right": {"Y": 0.0, "X": 0.5}, "handle_left": {"Y": 1.0, "X": 0.5}, "co": {"Y": 123.0, "X": 1.0}, "interpolation": 0}]}}, "perspective_c1_x": {"Points": [{"co": {"Y": -1.0, "X": 1.0}, "interpolation": 2}]}, "has_audio": {"Points": [{"co": {"Y": -1.0, "X": 1.0}, "interpolation": 2}]}, "scale": 1, "anchor": 0, "effects": [], "scale_y": {"Points": [{"co": {"Y": 2.299999952316284, "X": 1.0}, "interpolation": 2}]}, "shear_x": {"Points": [{"co": {"Y": 0.0, "X": 1.0}, "interpolation": 2}]}, "perspective_c2_x": {"Points": [{"co": {"Y": -1.0, "X": 1.0}, "interpolation": 2}]}, "perspective_c1_y": {"Points": [{"co": {"Y": -1.0, "X": 1.0}, "interpolation": 2}]}, "perspective_c3_x": {"Points": [{"co": {"Y": -1.0, "X": 1.0}, "interpolation": 2}]}, "perspective_c2_y": {"Points": [{"co": {"Y": -1.0, "X": 1.0}, "interpolation": 2}]}, "image": "/home/milind/.openshot_qt/thumbnail/VQPCDZYTHO.png", "duration": 40.0}, {"channel_filter": {"Points": [{"co": {"Y": -1.0, "X": 1.0}, "interpolation": 2}]}, "start": 0, "channel_mapping": {"Points": [{"co": {"Y": -1.0, "X": 1.0}, "interpolation": 2}]}, "rotation": {"Points": [{"co": {"Y": 0.0, "X": 1.0}, "interpolation": 2}]}, "title": "01-White-Background.svg", "crop_width": {"Points": [{"co": {"Y": -1.0, "X": 1.0}, "interpolation": 2}]}, "alpha": {"Points": [{"co": {"Y": 1.0, "X": 1.0}, "interpolation": 2}]}, "crop_x": {"Points": [{"co": {"Y": 0.0, "X": 1.0}, "interpolation": 2}]}, "crop_height": {"Points": [{"co": {"Y": -1.0, "X": 1.0}, "interpolation": 2}]}, "display": 0, "time": {"Points": [{"co": {"Y": 1.0, "X": 1.0}, "interpolation": 2}]}, "perspective_c4_x": {"Points": [{"co": {"Y": -1.0, "X": 1.0}, "interpolation": 2}]}, "scale_x": {"Points": [{"co": {"Y": 1.0, "X": 1.0}, "interpolation": 2}]}, "perspective_c3_y": {"Points": [{"co": {"Y": -1.0, "X": 1.0}, "interpolation": 2}]}, "volume": {"Points": [{"co": {"Y": 1.0, "X": 1.0}, "interpolation": 2}]}, "shear_y": {"Points": [{"co": {"Y": 0.0, "X": 1.0}, "interpolation": 2}]}, "id": "ZSCEWQGJ8G", "gravity": 4, "position": 143.68, "waveform": false, "file_id": "TDIZ1HFAHG", "location_y": {"Points": [{"co": {"Y": 0.0, "X": 1.0}, "interpolation": 2}]}, "has_video": {"Points": [{"co": {"Y": -1.0, "X": 1.0}, "interpolation": 2}]}, "location_x": {"Points": [{"co": {"Y": 0.0, "X": 1.0}, "interpolation": 2}]}, "layer": 0, "reader": {"pixel_format": -1, "pixel_ratio": {"num": 1, "den": 1}, "acodec": "", "video_bit_rate": 0, "interlaced_frame": false, "fps": {"num": 30, "den": 1}, "has_single_image": true, "sample_rate": 0, "video_stream_index": -1, "channel_layout": 4, "audio_timebase": {"num": 1, "den": 1}, "video_timebase": {"num": 1, "den": 30}, "display_ratio": {"num": 16, "den": 9}, "channels": 0, "has_video": true, "type": "QtImageReader", "width": 1920, "top_field_first": true, "file_size": "8294400", "vcodec": "", "path": "/home/milind/Data/Projects/ProgressCard/Images/01-White-Background.svg", "audio_stream_index": -1, "audio_bit_rate": 0, "height": 1080, "video_length": "2592000", "duration": 86400.0, "has_audio": false}, "crop_y": {"Points": [{"co": {"Y": 0.0, "X": 1.0}, "interpolation": 2}]}, "end": 10, "wave_color": {"alpha": {"Points": [{"handle_type": 0, "handle_right": {"Y": 0.0, "X": 0.5}, "handle_left": {"Y": 1.0, "X": 0.5}, "co": {"Y": 255.0, "X": 1.0}, "interpolation": 0}]}, "red": {"Points": [{"handle_type": 0, "handle_right": {"Y": 0.0, "X": 0.5}, "handle_left": {"Y": 1.0, "X": 0.5}, "co": {"Y": 0.0, "X": 1.0}, "interpolation": 0}]}, "blue": {"Points": [{"handle_type": 0, "handle_right": {"Y": 0.0, "X": 0.5}, "handle_left": {"Y": 1.0, "X": 0.5}, "co": {"Y": 255.0, "X": 1.0}, "interpolation": 0}]}, "green": {"Points": [{"handle_type": 0, "handle_right": {"Y": 0.0, "X": 0.5}, "handle_left": {"Y": 1.0, "X": 0.5}, "co": {"Y": 123.0, "X": 1.0}, "interpolation": 0}]}}, "perspective_c1_x": {"Points": [{"co": {"Y": -1.0, "X": 1.0}, "interpolation": 2}]}, "has_audio": {"Points": [{"co": {"Y": -1.0, "X": 1.0}, "interpolation": 2}]}, "scale": 1, "anchor": 0, "effects": [], "scale_y": {"Points": [{"co": {"Y": 1.0, "X": 1.0}, "interpolation": 2}]}, "shear_x": {"Points": [{"co": {"Y": 0.0, "X": 1.0}, "interpolation": 2}]}, "perspective_c4_y": {"Points": [{"co": {"Y": -1.0, "X": 1.0}, "interpolation": 2}]}, "perspective_c1_y": {"Points": [{"co": {"Y": -1.0, "X": 1.0}, "interpolation": 2}]}, "perspective_c3_x": {"Points": [{"co": {"Y": -1.0, "X": 1.0}, "interpolation": 2}]}, "perspective_c2_y": {"Points": [{"co": {"Y": -1.0, "X": 1.0}, "interpolation": 2}]}, "image": "/home/milind/.openshot_qt/thumbnail/TDIZ1HFAHG.png", "duration": 86400.0, "perspective_c2_x": {"Points": [{"co": {"Y": -1.0, "X": 1.0}, "interpolation": 2}]}}, {"channel_filter": {"Points": [{"co": {"Y": -1.0, "X": 1.0}, "interpolation": 2}]}, "start": 0, "channel_mapping": {"Points": [{"co": {"Y": -1.0, "X": 1.0}, "interpolation": 2}]}, "rotation": {"Points": [{"co": {"Y": 0.0, "X": 1.0}, "interpolation": 2}]}, "title": "!070-Calculate Grace Marks.mkv", "alpha": {"Points": [{"handle_type": 0, "handle_right": {"Y": 0, "X": 0.5}, "handle_left": {"Y": 1, "X": 0.5}, "co": {"Y": 1, "X": 1}, "interpolation": 0}, {"handle_type": 0, "handle_right": {"Y": 0, "X": 0.5}, "handle_left": {"Y": 1, "X": 0.5}, "co": {"Y": 0, "X": 1}, "interpolation": 0}, {"handle_type": 0, "handle_right": {"Y": 0, "X": 0.5}, "handle_left": {"Y": 1, "X": 0.5}, "co": {"Y": 1, "X": 73}, "interpolation": 0}, {"handle_type": 0, "handle_right": {"Y": 0, "X": 0.5}, "handle_left": {"Y": 1, "X": 0.5}, "co": {"Y": 1, "X": 1042}, "interpolation": 0}, {"handle_type": 0, "handle_right": {"Y": 0, "X": 0.5}, "handle_left": {"Y": 1, "X": 0.5}, "co": {"Y": 0, "X": 1114}, "interpolation": 0}]}, "crop_x": {"Points": [{"co": {"Y": 0.0, "X": 1.0}, "interpolation": 2}]}, "crop_height": {"Points": [{"co": {"Y": -1.0, "X": 1.0}, "interpolation": 2}]}, "display": 0, "perspective_c4_y": {"Points": [{"co": {"Y": -1.0, "X": 1.0}, "interpolation": 2}]}, "time": {"Points": [{"co": {"Y": 1, "X": 1}, "interpolation": 1}, {"co": {"Y": 2225, "X": 1113}, "interpolation": 1}]}, "scale_x": {"Points": [{"co": {"Y": 2.299999952316284, "X": 1.0}, "interpolation": 2}, {"co": {"Y": 2.200000047683716, "X": 447}, "interpolation": 1}]}, "perspective_c3_y": {"Points": [{"co": {"Y": -1.0, "X": 1.0}, "interpolation": 2}]}, "volume": {"Points": [{"co": {"Y": 1.0, "X": 1.0}, "interpolation": 2}]}, "shear_y": {"Points": [{"co": {"Y": 0.0, "X": 1.0}, "interpolation": 2}]}, "effects": [], "id": "WW1TERPBZB", "gravity": 4, "position": 192.69, "waveform": false, "file_id": "5CQQB4EVIM", "location_y": {"Points": [{"co": {"Y": 0.5199999809265137, "X": 1.0}, "interpolation": 2}]}, "has_video": {"Points": [{"co": {"Y": -1.0, "X": 1.0}, "interpolation": 2}]}, "layer": 1, "location_x": {"Points": [{"co": {"Y": 0.41999998688697815, "X": 1.0}, "interpolation": 2}, {"co": {"Y": 0.33000001311302185, "X": 447}, "interpolation": 1}, {"co": {"Y": 0.33000001311302185, "X": 230}, "interpolation": 1}]}, "scale": 1, "crop_y": {"Points": [{"co": {"Y": 0.0, "X": 1.0}, "interpolation": 2}]}, "end": 46.375, "perspective_c3_x": {"Points": [{"co": {"Y": -1.0, "X": 1.0}, "interpolation": 2}]}, "duration": 46.0, "perspective_c1_x": {"Points": [{"co": {"Y": -1.0, "X": 1.0}, "interpolation": 2}]}, "has_audio": {"Points": [{"co": {"Y": -1.0, "X": 1.0}, "interpolation": 2}]}, "crop_width": {"Points": [{"co": {"Y": -1.0, "X": 1.0}, "interpolation": 2}]}, "anchor": 0, "wave_color": {"alpha": {"Points": [{"handle_type": 0, "handle_right": {"Y": 0.0, "X": 0.5}, "handle_left": {"Y": 1.0, "X": 0.5}, "co": {"Y": 255.0, "X": 1.0}, "interpolation": 0}]}, "red": {"Points": [{"handle_type": 0, "handle_right": {"Y": 0.0, "X": 0.5}, "handle_left": {"Y": 1.0, "X": 0.5}, "co": {"Y": 0.0, "X": 1.0}, "interpolation": 0}]}, "blue": {"Points": [{"handle_type": 0, "handle_right": {"Y": 0.0, "X": 0.5}, "handle_left": {"Y": 1.0, "X": 0.5}, "co": {"Y": 255.0, "X": 1.0}, "interpolation": 0}]}, "green": {"Points": [{"handle_type": 0, "handle_right": {"Y": 0.0, "X": 0.5}, "handle_left": {"Y": 1.0, "X": 0.5}, "co": {"Y": 123.0, "X": 1.0}, "interpolation": 0}]}}, "scale_y": {"Points": [{"co": {"Y": 2.299999952316284, "X": 1.0}, "interpolation": 2}, {"co": {"Y": 2.200000047683716, "X": 447}, "interpolation": 1}]}, "shear_x": {"Points": [{"co": {"Y": 0.0, "X": 1.0}, "interpolation": 2}]}, "perspective_c2_x": {"Points": [{"co": {"Y": -1.0, "X": 1.0}, "interpolation": 2}]}, "perspective_c1_y": {"Points": [{"co": {"Y": -1.0, "X": 1.0}, "interpolation": 2}]}, "perspective_c4_x": {"Points": [{"co": {"Y": -1.0, "X": 1.0}, "interpolation": 2}]}, "perspective_c2_y": {"Points": [{"co": {"Y": -1.0, "X": 1.0}, "interpolation": 2}]}, "image": "/home/milind/.openshot_qt/thumbnail/5CQQB4EVIM.png", "reader": {"pixel_format": 0, "pixel_ratio": {"num": 1, "den": 1}, "acodec": "", "video_bit_rate": 0, "interlaced_frame": false, "fps": {"num": 25, "den": 1}, "has_single_image": false, "sample_rate": 0, "video_stream_index": 0, "channel_layout": 4, "audio_timebase": {"num": 1, "den": 1}, "video_timebase": {"num": 1, "den": 1000}, "display_ratio": {"num": 325, "den": 186}, "channels": 0, "has_video": true, "type": "FFmpegReader", "width": 1300, "top_field_first": true, "file_size": "754457", "vcodec": "h264", "path": "/home/milind/Data/Projects/ProgressCard/!070-Calculate Grace Marks.mkv", "audio_stream_index": -1, "audio_bit_rate": 0, "height": 744, "video_length": "2375", "duration": 95.0, "has_audio": false}}, {"channel_filter": {"Points": [{"co": {"Y": -1.0, "X": 1.0}, "interpolation": 2}]}, "start": 0, "channel_mapping": {"Points": [{"co": {"Y": -1.0, "X": 1.0}, "interpolation": 2}]}, "rotation": {"Points": [{"co": {"Y": 0.0, "X": 1.0}, "interpolation": 2}]}, "title": "01-White-Background.svg", "crop_width": {"Points": [{"co": {"Y": -1.0, "X": 1.0}, "interpolation": 2}]}, "perspective_c4_x": {"Points": [{"co": {"Y": -1.0, "X": 1.0}, "interpolation": 2}]}, "alpha": {"Points": [{"co": {"Y": 1.0, "X": 1.0}, "interpolation": 2}]}, "crop_x": {"Points": [{"co": {"Y": 0.0, "X": 1.0}, "interpolation": 2}]}, "crop_height": {"Points": [{"co": {"Y": -1.0, "X": 1.0}, "interpolation": 2}]}, "display": 0, "time": {"Points": [{"co": {"Y": 1.0, "X": 1.0}, "interpolation": 2}]}, "crop_y": {"Points": [{"co": {"Y": 0.0, "X": 1.0}, "interpolation": 2}]}, "has_video": {"Points": [{"co": {"Y": -1.0, "X": 1.0}, "interpolation": 2}]}, "perspective_c3_y": {"Points": [{"co": {"Y": -1.0, "X": 1.0}, "interpolation": 2}]}, "volume": {"Points": [{"co": {"Y": 1.0, "X": 1.0}, "interpolation": 2}]}, "shear_y": {"Points": [{"co": {"Y": 0.0, "X": 1.0}, "interpolation": 2}]}, "id": "A97KLODAGG", "gravity": 4, "position": 186.65, "waveform": false, "file_id": "TDIZ1HFAHG", "location_y": {"Points": [{"co": {"Y": 0.0, "X": 1.0}, "interpolation": 2}]}, "scale_x": {"Points": [{"co": {"Y": 1.0, "X": 1.0}, "interpolation": 2}]}, "location_x": {"Points": [{"co": {"Y": 0.0, "X": 1.0}, "interpolation": 2}]}, "layer": 0, "reader": {"pixel_format": -1, "pixel_ratio": {"num": 1, "den": 1}, "acodec": "", "video_bit_rate": 0, "interlaced_frame": false, "fps": {"num": 30, "den": 1}, "has_single_image": true, "sample_rate": 0, "video_stream_index": -1, "channel_layout": 4, "audio_timebase": {"num": 1, "den": 1}, "video_timebase": {"num": 1, "den": 30}, "display_ratio": {"num": 16, "den": 9}, "channels": 0, "has_video": true, "type": "QtImageReader", "width": 1920, "top_field_first": true, "file_size": "8294400", "vcodec": "", "path": "/home/milind/Data/Projects/ProgressCard/Images/01-White-Background.svg", "audio_stream_index": -1, "audio_bit_rate": 0, "height": 1080, "video_length": "2592000", "duration": 86400.0, "has_audio": false}, "perspective_c4_y": {"Points": [{"co": {"Y": -1.0, "X": 1.0}, "interpolation": 2}]}, "end": 10, "wave_color": {"alpha": {"Points": [{"handle_type": 0, "handle_right": {"Y": 0.0, "X": 0.5}, "handle_left": {"Y": 1.0, "X": 0.5}, "co": {"Y": 255.0, "X": 1.0}, "interpolation": 0}]}, "red": {"Points": [{"handle_type": 0, "handle_right": {"Y": 0.0, "X": 0.5}, "handle_left": {"Y": 1.0, "X": 0.5}, "co": {"Y": 0.0, "X": 1.0}, "interpolation": 0}]}, "blue": {"Points": [{"handle_type": 0, "handle_right": {"Y": 0.0, "X": 0.5}, "handle_left": {"Y": 1.0, "X": 0.5}, "co": {"Y": 255.0, "X": 1.0}, "interpolation": 0}]}, "green": {"Points": [{"handle_type": 0, "handle_right": {"Y": 0.0, "X": 0.5}, "handle_left": {"Y": 1.0, "X": 0.5}, "co": {"Y": 123.0, "X": 1.0}, "interpolation": 0}]}}, "perspective_c1_x": {"Points": [{"co": {"Y": -1.0, "X": 1.0}, "interpolation": 2}]}, "has_audio": {"Points": [{"co": {"Y": -1.0, "X": 1.0}, "interpolation": 2}]}, "scale": 1, "anchor": 0, "effects": [], "scale_y": {"Points": [{"co": {"Y": 1.0, "X": 1.0}, "interpolation": 2}]}, "shear_x": {"Points": [{"co": {"Y": 0.0, "X": 1.0}, "interpolation": 2}]}, "perspective_c2_x": {"Points": [{"co": {"Y": -1.0, "X": 1.0}, "interpolation": 2}]}, "perspective_c1_y": {"Points": [{"co": {"Y": -1.0, "X": 1.0}, "interpolation": 2}]}, "perspective_c3_x": {"Points": [{"co": {"Y": -1.0, "X": 1.0}, "interpolation": 2}]}, "perspective_c2_y": {"Points": [{"co": {"Y": -1.0, "X": 1.0}, "interpolation": 2}]}, "image": "/home/milind/.openshot_qt/thumbnail/TDIZ1HFAHG.png", "duration": 86400.0}, {"channel_filter": {"Points": [{"co": {"Y": -1.0, "X": 1.0}, "interpolation": 2}]}, "start": 0, "channel_mapping": {"Points": [{"co": {"Y": -1.0, "X": 1.0}, "interpolation": 2}]}, "rotation": {"Points": [{"co": {"Y": 0.0, "X": 1.0}, "interpolation": 2}]}, "title": "!013-Format-Page-Dialog.svg", "crop_width": {"Points": [{"co": {"Y": -1.0, "X": 1.0}, "interpolation": 2}]}, "position": 28.96, "alpha": {"Points": [{"co": {"Y": 1.0, "X": 1.0}, "interpolation": 2}, {"handle_type": 0, "handle_right": {"Y": 0.0, "X": 0.5}, "handle_left": {"Y": 1.0, "X": 0.5}, "co": {"Y": 0.0, "X": 1.0}, "interpolation": 0}, {"handle_type": 0, "handle_right": {"Y": 0.0, "X": 0.5}, "handle_left": {"Y": 1.0, "X": 0.5}, "co": {"Y": 1.0, "X": 73.0}, "interpolation": 0}, {"handle_type": 0, "handle_right": {"Y": 0.0, "X": 0.5}, "handle_left": {"Y": 1.0, "X": 0.5}, "co": {"Y": 1.0, "X": 169.0}, "interpolation": 0}, {"handle_type": 0, "handle_right": {"Y": 0.0, "X": 0.5}, "handle_left": {"Y": 1.0, "X": 0.5}, "co": {"Y": 0.0, "X": 241.0}, "interpolation": 0}]}, "crop_x": {"Points": [{"co": {"Y": 0.0, "X": 1.0}, "interpolation": 2}]}, "crop_height": {"Points": [{"co": {"Y": -1.0, "X": 1.0}, "interpolation": 2}]}, "location_y": {"Points": [{"co": {"Y": 0.0, "X": 1.0}, "interpolation": 2}]}, "time": {"Points": [{"co": {"Y": 1.0, "X": 1.0}, "interpolation": 2}]}, "perspective_c2_x": {"Points": [{"co": {"Y": -1.0, "X": 1.0}, "interpolation": 2}]}, "has_video": {"Points": [{"co": {"Y": -1.0, "X": 1.0}, "interpolation": 2}]}, "perspective_c3_y": {"Points": [{"co": {"Y": -1.0, "X": 1.0}, "interpolation": 2}]}, "volume": {"Points": [{"co": {"Y": 1.0, "X": 1.0}, "interpolation": 2}]}, "shear_y": {"Points": [{"co": {"Y": 0.0, "X": 1.0}, "interpolation": 2}]}, "id": "1YCRB7905M", "gravity": 4, "perspective_c2_y": {"Points": [{"co": {"Y": -1.0, "X": 1.0}, "interpolation": 2}]}, "waveform": false, "file_id": "GIMS8XDQW5", "display": 0, "scale_x": {"Points": [{"co": {"Y": 1.0, "X": 1.0}, "interpolation": 2}]}, "layer": 3, "location_x": {"Points": [{"co": {"Y": 0.0, "X": 1.0}, "interpolation": 2}]}, "scale": 1, "crop_y": {"Points": [{"co": {"Y": 0.0, "X": 1.0}, "interpolation": 2}]}, "image": "/home/milind/.openshot_qt/thumbnail/GIMS8XDQW5.png", "perspective_c3_x": {"Points": [{"co": {"Y": -1.0, "X": 1.0}, "interpolation": 2}]}, "end": 10, "perspective_c1_x": {"Points": [{"co": {"Y": -1.0, "X": 1.0}, "interpolation": 2}]}, "reader": {"pixel_format": -1, "pixel_ratio": {"num": 1, "den": 1}, "acodec": "", "video_bit_rate": 0, "interlaced_frame": false, "fps": {"num": 30, "den": 1}, "has_single_image": true, "sample_rate": 0, "video_stream_index": -1, "channel_layout": 4, "audio_timebase": {"num": 1, "den": 1}, "video_timebase": {"num": 1, "den": 30}, "display_ratio": {"num": 6803, "den": 3827}, "channels": 0, "has_video": true, "type": "QtImageReader", "width": 6803, "top_field_first": true, "file_size": "104140324", "vcodec": "", "path": "/home/milind/Data/Projects/ProgressCard/!013-Format-Page-Dialog.svg", "audio_stream_index": -1, "audio_bit_rate": 0, "height": 3827, "video_length": "2592000", "duration": 86400.0, "has_audio": false}, "anchor": 0, "has_audio": {"Points": [{"co": {"Y": -1.0, "X": 1.0}, "interpolation": 2}]}, "scale_y": {"Points": [{"co": {"Y": 1.0, "X": 1.0}, "interpolation": 2}]}, "shear_x": {"Points": [{"co": {"Y": 0.0, "X": 1.0}, "interpolation": 2}]}, "perspective_c4_y": {"Points": [{"co": {"Y": -1.0, "X": 1.0}, "interpolation": 2}]}, "perspective_c1_y": {"Points": [{"co": {"Y": -1.0, "X": 1.0}, "interpolation": 2}]}, "perspective_c4_x": {"Points": [{"co": {"Y": -1.0, "X": 1.0}, "interpolation": 2}]}, "effects": [], "wave_color": {"alpha": {"Points": [{"handle_type": 0, "handle_right": {"Y": 0.0, "X": 0.5}, "handle_left": {"Y": 1.0, "X": 0.5}, "co": {"Y": 255.0, "X": 1.0}, "interpolation": 0}]}, "red": {"Points": [{"handle_type": 0, "handle_right": {"Y": 0.0, "X": 0.5}, "handle_left": {"Y": 1.0, "X": 0.5}, "co": {"Y": 0.0, "X": 1.0}, "interpolation": 0}]}, "blue": {"Points": [{"handle_type": 0, "handle_right": {"Y": 0.0, "X": 0.5}, "handle_left": {"Y": 1.0, "X": 0.5}, "co": {"Y": 255.0, "X": 1.0}, "interpolation": 0}]}, "green": {"Points": [{"handle_type": 0, "handle_right": {"Y": 0.0, "X": 0.5}, "handle_left": {"Y": 1.0, "X": 0.5}, "co": {"Y": 123.0, "X": 1.0}, "interpolation": 0}]}}, "duration": 86400.0}, {"channel_filter": {"Points": [{"co": {"Y": -1, "X": 1}, "interpolation": 2}]}, "start": 0, "rotation": {"Points": [{"co": {"Y": 0, "X": 1}, "interpolation": 2}]}, "title": "02-Title Progress Cards.svg", "waveform": false, "alpha": {"Points": [{"co": {"Y": 1, "X": 1}, "interpolation": 2}, {"handle_type": 0, "handle_right": {"Y": 0, "X": 0.5}, "handle_left": {"Y": 1, "X": 0.5}, "co": {"Y": 0, "X": 1}, "interpolation": 0}, {"handle_type": 0, "handle_right": {"Y": 0, "X": 0.5}, "handle_left": {"Y": 1, "X": 0.5}, "co": {"Y": 1, "X": 73}, "interpolation": 0}, {"handle_type": 0, "handle_right": {"Y": 0, "X": 0.5}, "handle_left": {"Y": 1, "X": 0.5}, "co": {"Y": 1, "X": 49}, "interpolation": 0}, {"handle_type": 0, "handle_right": {"Y": 0, "X": 0.5}, "handle_left": {"Y": 1, "X": 0.5}, "co": {"Y": 0, "X": 121}, "interpolation": 0}]}, "crop_x": {"Points": [{"co": {"Y": 0, "X": 1}, "interpolation": 2}]}, "crop_height": {"Points": [{"co": {"Y": -1, "X": 1}, "interpolation": 2}]}, "display": 0, "perspective_c2_y": {"Points": [{"co": {"Y": -1, "X": 1}, "interpolation": 2}]}, "time": {"Points": [{"co": {"Y": 1, "X": 1}, "interpolation": 2}]}, "perspective_c2_x": {"Points": [{"co": {"Y": -1, "X": 1}, "interpolation": 2}]}, "has_video": {"Points": [{"co": {"Y": -1, "X": 1}, "interpolation": 2}]}, "perspective_c3_y": {"Points": [{"co": {"Y": -1, "X": 1}, "interpolation": 2}]}, "volume": {"Points": [{"co": {"Y": 1, "X": 1}, "interpolation": 2}]}, "shear_y": {"Points": [{"co": {"Y": 0, "X": 1}, "interpolation": 2}]}, "id": "U3TK0QU9SF", "gravity": 4, "position": 1.5, "channel_mapping": {"Points": [{"co": {"Y": -1, "X": 1}, "interpolation": 2}]}, "file_id": "5OEZCIVW6D", "location_y": {"Points": [{"co": {"Y": 0, "X": 1}, "interpolation": 2}]}, "scale_x": {"Points": [{"co": {"Y": 1, "X": 1}, "interpolation": 2}]}, "location_x": {"Points": [{"co": {"Y": 0, "X": 1}, "interpolation": 2}]}, "layer": 1, "scale": 1, "perspective_c4_y": {"Points": [{"co": {"Y": -1, "X": 1}, "interpolation": 2}]}, "image": "/home/milind/.openshot_qt/thumbnail/5OEZCIVW6D.png", "perspective_c3_x": {"Points": [{"co": {"Y": -1, "X": 1}, "interpolation": 2}]}, "wave_color": {"alpha": {"Points": [{"handle_type": 0, "handle_right": {"Y": 0, "X": 0.5}, "handle_left": {"Y": 1, "X": 0.5}, "co": {"Y": 255, "X": 1}, "interpolation": 0}]}, "red": {"Points": [{"handle_type": 0, "handle_right": {"Y": 0, "X": 0.5}, "handle_left": {"Y": 1, "X": 0.5}, "co": {"Y": 0, "X": 1}, "interpolation": 0}]}, "blue": {"Points": [{"handle_type": 0, "handle_right": {"Y": 0, "X": 0.5}, "handle_left": {"Y": 1, "X": 0.5}, "co": {"Y": 255, "X": 1}, "interpolation": 0}]}, "green": {"Points": [{"handle_type": 0, "handle_right": {"Y": 0, "X": 0.5}, "handle_left": {"Y": 1, "X": 0.5}, "co": {"Y": 123, "X": 1}, "interpolation": 0}]}}, "perspective_c1_x": {"Points": [{"co": {"Y": -1, "X": 1}, "interpolation": 2}]}, "has_audio": {"Points": [{"co": {"Y": -1, "X": 1}, "interpolation": 2}]}, "reader": {"pixel_format": -1, "pixel_ratio": {"num": 1, "den": 1}, "acodec": "", "video_bit_rate": 0, "interlaced_frame": false, "fps": {"num": 30, "den": 1}, "has_single_image": true, "sample_rate": 0, "video_stream_index": -1, "channel_layout": 4, "audio_timebase": {"num": 1, "den": 1}, "video_timebase": {"num": 1, "den": 30}, "display_ratio": {"num": 6803, "den": 3827}, "channels": 0, "has_video": true, "type": "QtImageReader", "width": 6803, "top_field_first": true, "file_size": "104140324", "vcodec": "", "path": "/home/milind/Data/Projects/ProgressCard/Images/02-Title Progress Cards.svg", "audio_stream_index": -1, "audio_bit_rate": 0, "height": 3827, "video_length": "2592000", "duration": 86400.0, "has_audio": false}, "anchor": 0, "crop_y": {"Points": [{"co": {"Y": 0, "X": 1}, "interpolation": 2}]}, "scale_y": {"Points": [{"co": {"Y": 1, "X": 1}, "interpolation": 2}]}, "shear_x": {"Points": [{"co": {"Y": 0, "X": 1}, "interpolation": 2}]}, "crop_width": {"Points": [{"co": {"Y": -1, "X": 1}, "interpolation": 2}]}, "perspective_c1_y": {"Points": [{"co": {"Y": -1, "X": 1}, "interpolation": 2}]}, "perspective_c4_x": {"Points": [{"co": {"Y": -1, "X": 1}, "interpolation": 2}]}, "effects": [], "duration": 86400.0, "end": 5}, {"channel_filter": {"Points": [{"co": {"Y": -1, "X": 1}, "interpolation": 2}]}, "start": 0, "rotation": {"Points": [{"co": {"Y": 0, "X": 1}, "interpolation": 2}]}, "title": "03-Title-In.svg", "waveform": false, "alpha": {"Points": [{"co": {"Y": 1, "X": 1}, "interpolation": 2}, {"handle_type": 0, "handle_right": {"Y": 0, "X": 0.5}, "handle_left": {"Y": 1, "X": 0.5}, "co": {"Y": 0, "X": 1}, "interpolation": 0}, {"handle_type": 0, "handle_right": {"Y": 0, "X": 0.5}, "handle_left": {"Y": 1, "X": 0.5}, "co": {"Y": 1, "X": 73}, "interpolation": 0}, {"handle_type": 0, "handle_right": {"Y": 0, "X": 0.5}, "handle_left": {"Y": 1, "X": 0.5}, "co": {"Y": 1, "X": 49}, "interpolation": 0}, {"handle_type": 0, "handle_right": {"Y": 0, "X": 0.5}, "handle_left": {"Y": 1, "X": 0.5}, "co": {"Y": 0, "X": 121}, "interpolation": 0}]}, "crop_x": {"Points": [{"co": {"Y": 0, "X": 1}, "interpolation": 2}]}, "crop_height": {"Points": [{"co": {"Y": -1, "X": 1}, "interpolation": 2}]}, "display": 0, "perspective_c2_y": {"Points": [{"co": {"Y": -1, "X": 1}, "interpolation": 2}]}, "time": {"Points": [{"co": {"Y": 1, "X": 1}, "interpolation": 2}]}, "perspective_c2_x": {"Points": [{"co": {"Y": -1, "X": 1}, "interpolation": 2}]}, "has_video": {"Points": [{"co": {"Y": -1, "X": 1}, "interpolation": 2}]}, "perspective_c3_y": {"Points": [{"co": {"Y": -1, "X": 1}, "interpolation": 2}]}, "volume": {"Points": [{"co": {"Y": 1, "X": 1}, "interpolation": 2}]}, "shear_y": {"Points": [{"co": {"Y": 0, "X": 1}, "interpolation": 2}]}, "id": "PZM9R575VK", "gravity": 4, "position": 6.5, "channel_mapping": {"Points": [{"co": {"Y": -1, "X": 1}, "interpolation": 2}]}, "file_id": "V0JTT8RBI4", "location_y": {"Points": [{"co": {"Y": 0, "X": 1}, "interpolation": 2}]}, "scale_x": {"Points": [{"co": {"Y": 1, "X": 1}, "interpolation": 2}]}, "location_x": {"Points": [{"co": {"Y": 0, "X": 1}, "interpolation": 2}]}, "layer": 1, "scale": 1, "perspective_c4_y": {"Points": [{"co": {"Y": -1, "X": 1}, "interpolation": 2}]}, "image": "/home/milind/.openshot_qt/thumbnail/V0JTT8RBI4.png", "perspective_c3_x": {"Points": [{"co": {"Y": -1, "X": 1}, "interpolation": 2}]}, "wave_color": {"alpha": {"Points": [{"handle_type": 0, "handle_right": {"Y": 0, "X": 0.5}, "handle_left": {"Y": 1, "X": 0.5}, "co": {"Y": 255, "X": 1}, "interpolation": 0}]}, "red": {"Points": [{"handle_type": 0, "handle_right": {"Y": 0, "X": 0.5}, "handle_left": {"Y": 1, "X": 0.5}, "co": {"Y": 0, "X": 1}, "interpolation": 0}]}, "blue": {"Points": [{"handle_type": 0, "handle_right": {"Y": 0, "X": 0.5}, "handle_left": {"Y": 1, "X": 0.5}, "co": {"Y": 255, "X": 1}, "interpolation": 0}]}, "green": {"Points": [{"handle_type": 0, "handle_right": {"Y": 0, "X": 0.5}, "handle_left": {"Y": 1, "X": 0.5}, "co": {"Y": 123, "X": 1}, "interpolation": 0}]}}, "perspective_c1_x": {"Points": [{"co": {"Y": -1, "X": 1}, "interpolation": 2}]}, "has_audio": {"Points": [{"co": {"Y": -1, "X": 1}, "interpolation": 2}]}, "reader": {"pixel_format": -1, "pixel_ratio": {"num": 1, "den": 1}, "acodec": "", "video_bit_rate": 0, "interlaced_frame": false, "fps": {"num": 30, "den": 1}, "has_single_image": true, "sample_rate": 0, "video_stream_index": -1, "channel_layout": 4, "audio_timebase": {"num": 1, "den": 1}, "video_timebase": {"num": 1, "den": 30}, "display_ratio": {"num": 6803, "den": 3827}, "channels": 0, "has_video": true, "type": "QtImageReader", "width": 6803, "top_field_first": true, "file_size": "104140324", "vcodec": "", "path": "/home/milind/Data/Projects/ProgressCard/Images/03-Title-In.svg", "audio_stream_index": -1, "audio_bit_rate": 0, "height": 3827, "video_length": "2592000", "duration": 86400.0, "has_audio": false}, "anchor": 0, "crop_y": {"Points": [{"co": {"Y": 0, "X": 1}, "interpolation": 2}]}, "scale_y": {"Points": [{"co": {"Y": 1, "X": 1}, "interpolation": 2}]}, "shear_x": {"Points": [{"co": {"Y": 0, "X": 1}, "interpolation": 2}]}, "crop_width": {"Points": [{"co": {"Y": -1, "X": 1}, "interpolation": 2}]}, "perspective_c1_y": {"Points": [{"co": {"Y": -1, "X": 1}, "interpolation": 2}]}, "perspective_c4_x": {"Points": [{"co": {"Y": -1, "X": 1}, "interpolation": 2}]}, "effects": [], "duration": 86400.0, "end": 5}, {"channel_filter": {"Points": [{"co": {"Y": -1, "X": 1}, "interpolation": 2}]}, "start": 0, "rotation": {"Points": [{"co": {"Y": 0, "X": 1}, "interpolation": 2}]}, "title": "04-LibreOffice_external_logo.svg", "waveform": false, "alpha": {"Points": [{"co": {"Y": 1, "X": 1}, "interpolation": 2}, {"handle_type": 0, "handle_right": {"Y": 0, "X": 0.5}, "handle_left": {"Y": 1, "X": 0.5}, "co": {"Y": 0, "X": 1}, "interpolation": 0}, {"handle_type": 0, "handle_right": {"Y": 0, "X": 0.5}, "handle_left": {"Y": 1, "X": 0.5}, "co": {"Y": 1, "X": 73}, "interpolation": 0}, {"handle_type": 0, "handle_right": {"Y": 0, "X": 0.5}, "handle_left": {"Y": 1, "X": 0.5}, "co": {"Y": 1, "X": 49}, "interpolation": 0}, {"handle_type": 0, "handle_right": {"Y": 0, "X": 0.5}, "handle_left": {"Y": 1, "X": 0.5}, "co": {"Y": 0, "X": 121}, "interpolation": 0}]}, "crop_x": {"Points": [{"co": {"Y": 0, "X": 1}, "interpolation": 2}]}, "crop_height": {"Points": [{"co": {"Y": -1, "X": 1}, "interpolation": 2}]}, "display": 0, "perspective_c2_y": {"Points": [{"co": {"Y": -1, "X": 1}, "interpolation": 2}]}, "time": {"Points": [{"co": {"Y": 1, "X": 1}, "interpolation": 2}]}, "perspective_c2_x": {"Points": [{"co": {"Y": -1, "X": 1}, "interpolation": 2}]}, "has_video": {"Points": [{"co": {"Y": -1, "X": 1}, "interpolation": 2}]}, "perspective_c3_y": {"Points": [{"co": {"Y": -1, "X": 1}, "interpolation": 2}]}, "volume": {"Points": [{"co": {"Y": 1, "X": 1}, "interpolation": 2}]}, "shear_y": {"Points": [{"co": {"Y": 0, "X": 1}, "interpolation": 2}]}, "id": "I2GRFT5O9D", "gravity": 4, "position": 11.5, "channel_mapping": {"Points": [{"co": {"Y": -1, "X": 1}, "interpolation": 2}]}, "file_id": "9LYJA9LENR", "location_y": {"Points": [{"co": {"Y": 0, "X": 1}, "interpolation": 2}]}, "scale_x": {"Points": [{"co": {"Y": 1, "X": 1}, "interpolation": 2}]}, "location_x": {"Points": [{"co": {"Y": 0, "X": 1}, "interpolation": 2}]}, "layer": 1, "scale": 1, "perspective_c4_y": {"Points": [{"co": {"Y": -1, "X": 1}, "interpolation": 2}]}, "image": "/home/milind/.openshot_qt/thumbnail/9LYJA9LENR.png", "perspective_c3_x": {"Points": [{"co": {"Y": -1, "X": 1}, "interpolation": 2}]}, "wave_color": {"alpha": {"Points": [{"handle_type": 0, "handle_right": {"Y": 0, "X": 0.5}, "handle_left": {"Y": 1, "X": 0.5}, "co": {"Y": 255, "X": 1}, "interpolation": 0}]}, "red": {"Points": [{"handle_type": 0, "handle_right": {"Y": 0, "X": 0.5}, "handle_left": {"Y": 1, "X": 0.5}, "co": {"Y": 0, "X": 1}, "interpolation": 0}]}, "blue": {"Points": [{"handle_type": 0, "handle_right": {"Y": 0, "X": 0.5}, "handle_left": {"Y": 1, "X": 0.5}, "co": {"Y": 255, "X": 1}, "interpolation": 0}]}, "green": {"Points": [{"handle_type": 0, "handle_right": {"Y": 0, "X": 0.5}, "handle_left": {"Y": 1, "X": 0.5}, "co": {"Y": 123, "X": 1}, "interpolation": 0}]}}, "perspective_c1_x": {"Points": [{"co": {"Y": -1, "X": 1}, "interpolation": 2}]}, "has_audio": {"Points": [{"co": {"Y": -1, "X": 1}, "interpolation": 2}]}, "reader": {"pixel_format": -1, "pixel_ratio": {"num": 1, "den": 1}, "acodec": "", "video_bit_rate": 0, "interlaced_frame": false, "fps": {"num": 30, "den": 1}, "has_single_image": true, "sample_rate": 0, "video_stream_index": -1, "channel_layout": 4, "audio_timebase": {"num": 1, "den": 1}, "video_timebase": {"num": 1, "den": 30}, "display_ratio": {"num": 300, "den": 89}, "channels": 0, "has_video": true, "type": "QtImageReader", "width": 600, "top_field_first": true, "file_size": "427200", "vcodec": "", "path": "/home/milind/Data/Projects/ProgressCard/Images/04-LibreOffice_external_logo.svg", "audio_stream_index": -1, "audio_bit_rate": 0, "height": 178, "video_length": "2592000", "duration": 86400.0, "has_audio": false}, "anchor": 0, "crop_y": {"Points": [{"co": {"Y": 0, "X": 1}, "interpolation": 2}]}, "scale_y": {"Points": [{"co": {"Y": 1, "X": 1}, "interpolation": 2}]}, "shear_x": {"Points": [{"co": {"Y": 0, "X": 1}, "interpolation": 2}]}, "crop_width": {"Points": [{"co": {"Y": -1, "X": 1}, "interpolation": 2}]}, "perspective_c1_y": {"Points": [{"co": {"Y": -1, "X": 1}, "interpolation": 2}]}, "perspective_c4_x": {"Points": [{"co": {"Y": -1, "X": 1}, "interpolation": 2}]}, "effects": [], "duration": 86400.0, "end": 5}, {"channel_filter": {"Points": [{"co": {"Y": -1, "X": 1}, "interpolation": 2}]}, "start": 0, "rotation": {"Points": [{"co": {"Y": 0, "X": 1}, "interpolation": 2}]}, "title": "05-Title -Open Writer.svg", "waveform": false, "alpha": {"Points": [{"co": {"Y": 1, "X": 1}, "interpolation": 2}, {"handle_type": 0, "handle_right": {"Y": 0, "X": 0.5}, "handle_left": {"Y": 1, "X": 0.5}, "co": {"Y": 0, "X": 1}, "interpolation": 0}, {"handle_type": 0, "handle_right": {"Y": 0, "X": 0.5}, "handle_left": {"Y": 1, "X": 0.5}, "co": {"Y": 1, "X": 73}, "interpolation": 0}, {"handle_type": 0, "handle_right": {"Y": 0, "X": 0.5}, "handle_left": {"Y": 1, "X": 0.5}, "co": {"Y": 1, "X": 49}, "interpolation": 0}, {"handle_type": 0, "handle_right": {"Y": 0, "X": 0.5}, "handle_left": {"Y": 1, "X": 0.5}, "co": {"Y": 0, "X": 121}, "interpolation": 0}]}, "crop_x": {"Points": [{"co": {"Y": 0, "X": 1}, "interpolation": 2}]}, "crop_height": {"Points": [{"co": {"Y": -1, "X": 1}, "interpolation": 2}]}, "display": 0, "perspective_c2_y": {"Points": [{"co": {"Y": -1, "X": 1}, "interpolation": 2}]}, "time": {"Points": [{"co": {"Y": 1, "X": 1}, "interpolation": 2}]}, "perspective_c2_x": {"Points": [{"co": {"Y": -1, "X": 1}, "interpolation": 2}]}, "has_video": {"Points": [{"co": {"Y": -1, "X": 1}, "interpolation": 2}]}, "perspective_c3_y": {"Points": [{"co": {"Y": -1, "X": 1}, "interpolation": 2}]}, "volume": {"Points": [{"co": {"Y": 1, "X": 1}, "interpolation": 2}]}, "shear_y": {"Points": [{"co": {"Y": 0, "X": 1}, "interpolation": 2}]}, "id": "PL01YVX577", "gravity": 4, "position": 16.5, "channel_mapping": {"Points": [{"co": {"Y": -1, "X": 1}, "interpolation": 2}]}, "file_id": "UXYIII238I", "location_y": {"Points": [{"co": {"Y": 0, "X": 1}, "interpolation": 2}]}, "scale_x": {"Points": [{"co": {"Y": 1, "X": 1}, "interpolation": 2}]}, "location_x": {"Points": [{"co": {"Y": 0, "X": 1}, "interpolation": 2}]}, "layer": 1, "scale": 1, "perspective_c4_y": {"Points": [{"co": {"Y": -1, "X": 1}, "interpolation": 2}]}, "image": "/home/milind/.openshot_qt/thumbnail/UXYIII238I.png", "perspective_c3_x": {"Points": [{"co": {"Y": -1, "X": 1}, "interpolation": 2}]}, "wave_color": {"alpha": {"Points": [{"handle_type": 0, "handle_right": {"Y": 0, "X": 0.5}, "handle_left": {"Y": 1, "X": 0.5}, "co": {"Y": 255, "X": 1}, "interpolation": 0}]}, "red": {"Points": [{"handle_type": 0, "handle_right": {"Y": 0, "X": 0.5}, "handle_left": {"Y": 1, "X": 0.5}, "co": {"Y": 0, "X": 1}, "interpolation": 0}]}, "blue": {"Points": [{"handle_type": 0, "handle_right": {"Y": 0, "X": 0.5}, "handle_left": {"Y": 1, "X": 0.5}, "co": {"Y": 255, "X": 1}, "interpolation": 0}]}, "green": {"Points": [{"handle_type": 0, "handle_right": {"Y": 0, "X": 0.5}, "handle_left": {"Y": 1, "X": 0.5}, "co": {"Y": 123, "X": 1}, "interpolation": 0}]}}, "perspective_c1_x": {"Points": [{"co": {"Y": -1, "X": 1}, "interpolation": 2}]}, "has_audio": {"Points": [{"co": {"Y": -1, "X": 1}, "interpolation": 2}]}, "reader": {"pixel_format": -1, "pixel_ratio": {"num": 1, "den": 1}, "acodec": "", "video_bit_rate": 0, "interlaced_frame": false, "fps": {"num": 30, "den": 1}, "has_single_image": true, "sample_rate": 0, "video_stream_index": -1, "channel_layout": 4, "audio_timebase": {"num": 1, "den": 1}, "video_timebase": {"num": 1, "den": 30}, "display_ratio": {"num": 6803, "den": 3827}, "channels": 0, "has_video": true, "type": "QtImageReader", "width": 6803, "top_field_first": true, "file_size": "104140324", "vcodec": "", "path": "/home/milind/Data/Projects/ProgressCard/Images/05-Title -Open Writer.svg", "audio_stream_index": -1, "audio_bit_rate": 0, "height": 3827, "video_length": "2592000", "duration": 86400.0, "has_audio": false}, "anchor": 0, "crop_y": {"Points": [{"co": {"Y": 0, "X": 1}, "interpolation": 2}]}, "scale_y": {"Points": [{"co": {"Y": 1, "X": 1}, "interpolation": 2}]}, "shear_x": {"Points": [{"co": {"Y": 0, "X": 1}, "interpolation": 2}]}, "crop_width": {"Points": [{"co": {"Y": -1, "X": 1}, "interpolation": 2}]}, "perspective_c1_y": {"Points": [{"co": {"Y": -1, "X": 1}, "interpolation": 2}]}, "perspective_c4_x": {"Points": [{"co": {"Y": -1, "X": 1}, "interpolation": 2}]}, "effects": [], "duration": 86400.0, "end": 5}, {"channel_filter": {"Points": [{"co": {"Y": -1, "X": 1}, "interpolation": 2}]}, "start": 0, "channel_mapping": {"Points": [{"co": {"Y": -1, "X": 1}, "interpolation": 2}]}, "rotation": {"Points": [{"co": {"Y": 0, "X": 1}, "interpolation": 2}]}, "title": "!010-Libre Writer Normal Screen.mkv", "crop_width": {"Points": [{"co": {"Y": -1, "X": 1}, "interpolation": 2}]}, "position": 21.44, "alpha": {"Points": [{"handle_type": 0, "handle_right": {"Y": 0.0, "X": 0.5}, "handle_left": {"Y": 1.0, "X": 0.5}, "co": {"Y": 1.0, "X": 1.0}, "interpolation": 0}, {"handle_type": 0, "handle_right": {"Y": 0.0, "X": 0.5}, "handle_left": {"Y": 1.0, "X": 0.5}, "co": {"Y": 0.0, "X": 1.0}, "interpolation": 0}, {"handle_type": 0, "handle_right": {"Y": 0.0, "X": 0.5}, "handle_left": {"Y": 1.0, "X": 0.5}, "co": {"Y": 1.0, "X": 73.0}, "interpolation": 0}, {"handle_type": 0, "handle_right": {"Y": 0.0, "X": 0.5}, "handle_left": {"Y": 1.0, "X": 0.5}, "co": {"Y": 1.0, "X": 169.0}, "interpolation": 0}, {"handle_type": 0, "handle_right": {"Y": 0.0, "X": 0.5}, "handle_left": {"Y": 1.0, "X": 0.5}, "co": {"Y": 0.0, "X": 241.0}, "interpolation": 0}]}, "crop_x": {"Points": [{"co": {"Y": 0, "X": 1}, "interpolation": 2}]}, "crop_height": {"Points": [{"co": {"Y": -1, "X": 1}, "interpolation": 2}]}, "location_y": {"Points": [{"co": {"Y": 0, "X": 1}, "interpolation": 2}]}, "time": {"Points": [{"co": {"Y": 1, "X": 1}, "interpolation": 2}]}, "perspective_c2_x": {"Points": [{"co": {"Y": -1, "X": 1}, "interpolation": 2}]}, "scale_x": {"Points": [{"co": {"Y": 1, "X": 1}, "interpolation": 2}]}, "perspective_c3_y": {"Points": [{"co": {"Y": -1, "X": 1}, "interpolation": 2}]}, "volume": {"Points": [{"co": {"Y": 1, "X": 1}, "interpolation": 2}]}, "shear_y": {"Points": [{"co": {"Y": 0, "X": 1}, "interpolation": 2}]}, "id": "E66PW6ABXB", "gravity": 4, "perspective_c2_y": {"Points": [{"co": {"Y": -1, "X": 1}, "interpolation": 2}]}, "waveform": false, "file_id": "JMYSBVPZGY", "display": 0, "has_video": {"Points": [{"co": {"Y": -1, "X": 1}, "interpolation": 2}]}, "layer": 1, "location_x": {"Points": [{"co": {"Y": 0, "X": 1}, "interpolation": 2}]}, "scale": 1, "crop_y": {"Points": [{"co": {"Y": 0, "X": 1}, "interpolation": 2}]}, "end": 10, "perspective_c3_x": {"Points": [{"co": {"Y": -1, "X": 1}, "interpolation": 2}]}, "wave_color": {"alpha": {"Points": [{"handle_type": 0, "handle_right": {"Y": 0, "X": 0.5}, "handle_left": {"Y": 1, "X": 0.5}, "co": {"Y": 255, "X": 1}, "interpolation": 0}]}, "red": {"Points": [{"handle_type": 0, "handle_right": {"Y": 0, "X": 0.5}, "handle_left": {"Y": 1, "X": 0.5}, "co": {"Y": 0, "X": 1}, "interpolation": 0}]}, "blue": {"Points": [{"handle_type": 0, "handle_right": {"Y": 0, "X": 0.5}, "handle_left": {"Y": 1, "X": 0.5}, "co": {"Y": 255, "X": 1}, "interpolation": 0}]}, "green": {"Points": [{"handle_type": 0, "handle_right": {"Y": 0, "X": 0.5}, "handle_left": {"Y": 1, "X": 0.5}, "co": {"Y": 123, "X": 1}, "interpolation": 0}]}}, "perspective_c1_x": {"Points": [{"co": {"Y": -1, "X": 1}, "interpolation": 2}]}, "reader": {"pixel_format": 0, "pixel_ratio": {"num": 1, "den": 1}, "acodec": "", "video_bit_rate": 23625, "interlaced_frame": false, "fps": {"num": 25, "den": 1}, "has_single_image": false, "sample_rate": 0, "video_stream_index": 0, "channel_layout": 4, "audio_timebase": {"num": 1, "den": 1}, "video_timebase": {"num": 1, "den": 1000}, "display_ratio": {"num": 325, "den": 186}, "channels": 0, "has_video": true, "type": "FFmpegReader", "width": 1300, "top_field_first": true, "file_size": "31067", "vcodec": "h264", "path": "/home/milind/Data/Projects/ProgressCard/!010-Libre Writer Normal Screen.mkv", "audio_stream_index": -1, "audio_bit_rate": 0, "height": 744, "video_length": "250", "duration": 10.0, "has_audio": false}, "anchor": 0, "has_audio": {"Points": [{"co": {"Y": -1, "X": 1}, "interpolation": 2}]}, "scale_y": {"Points": [{"co": {"Y": 1, "X": 1}, "interpolation": 2}]}, "shear_x": {"Points": [{"co": {"Y": 0, "X": 1}, "interpolation": 2}]}, "perspective_c4_y": {"Points": [{"co": {"Y": -1, "X": 1}, "interpolation": 2}]}, "perspective_c1_y": {"Points": [{"co": {"Y": -1, "X": 1}, "interpolation": 2}]}, "perspective_c4_x": {"Points": [{"co": {"Y": -1, "X": 1}, "interpolation": 2}]}, "effects": [], "image": "/home/milind/.openshot_qt/thumbnail/JMYSBVPZGY.png", "duration": 10.0}, {"channel_filter": {"Points": [{"co": {"Y": -1, "X": 1}, "interpolation": 2}]}, "start": 0, "channel_mapping": {"Points": [{"co": {"Y": -1, "X": 1}, "interpolation": 2}]}, "rotation": {"Points": [{"co": {"Y": 0, "X": 1}, "interpolation": 2}]}, "title": "!040-Slide -Open Libre Calc.svg", "perspective_c4_x": {"Points": [{"co": {"Y": -1, "X": 1}, "interpolation": 2}]}, "alpha": {"Points": [{"co": {"Y": 1, "X": 1}, "interpolation": 2}, {"handle_type": 0, "handle_right": {"Y": 0, "X": 0.5}, "handle_left": {"Y": 1, "X": 0.5}, "co": {"Y": 0, "X": 1}, "interpolation": 0}, {"handle_type": 0, "handle_right": {"Y": 0, "X": 0.5}, "handle_left": {"Y": 1, "X": 0.5}, "co": {"Y": 1, "X": 73}, "interpolation": 0}, {"handle_type": 0, "handle_right": {"Y": 0, "X": 0.5}, "handle_left": {"Y": 1, "X": 0.5}, "co": {"Y": 1, "X": 49}, "interpolation": 0}, {"handle_type": 0, "handle_right": {"Y": 0, "X": 0.5}, "handle_left": {"Y": 1, "X": 0.5}, "co": {"Y": 0, "X": 121}, "interpolation": 0}]}, "crop_x": {"Points": [{"co": {"Y": 0, "X": 1}, "interpolation": 2}]}, "crop_height": {"Points": [{"co": {"Y": -1, "X": 1}, "interpolation": 2}]}, "location_y": {"Points": [{"co": {"Y": 0, "X": 1}, "interpolation": 2}]}, "perspective_c4_y": {"Points": [{"co": {"Y": -1, "X": 1}, "interpolation": 2}]}, "time": {"Points": [{"co": {"Y": 1, "X": 1}, "interpolation": 2}]}, "perspective_c2_x": {"Points": [{"co": {"Y": -1, "X": 1}, "interpolation": 2}]}, "has_video": {"Points": [{"co": {"Y": -1, "X": 1}, "interpolation": 2}]}, "perspective_c3_y": {"Points": [{"co": {"Y": -1, "X": 1}, "interpolation": 2}]}, "volume": {"Points": [{"co": {"Y": 1, "X": 1}, "interpolation": 2}]}, "shear_y": {"Points": [{"co": {"Y": 0, "X": 1}, "interpolation": 2}]}, "id": "MTKMEUPC4W", "gravity": 4, "perspective_c2_y": {"Points": [{"co": {"Y": -1, "X": 1}, "interpolation": 2}]}, "waveform": false, "file_id": "V62OPXLIQ5", "display": 0, "scale_x": {"Points": [{"co": {"Y": 1, "X": 1}, "interpolation": 2}]}, "layer": 1, "location_x": {"Points": [{"co": {"Y": 0, "X": 1}, "interpolation": 2}]}, "reader": {"pixel_format": -1, "pixel_ratio": {"num": 1, "den": 1}, "acodec": "", "video_bit_rate": 0, "interlaced_frame": false, "fps": {"num": 30, "den": 1}, "has_single_image": true, "sample_rate": 0, "video_stream_index": -1, "channel_layout": 4, "audio_timebase": {"num": 1, "den": 1}, "video_timebase": {"num": 1, "den": 30}, "display_ratio": {"num": 6803, "den": 3827}, "channels": 0, "has_video": true, "type": "QtImageReader", "width": 6803, "top_field_first": true, "file_size": "104140324", "vcodec": "", "path": "/home/milind/Data/Projects/ProgressCard/!040-Slide -Open Libre Calc.svg", "audio_stream_index": -1, "audio_bit_rate": 0, "height": 3827, "video_length": "2592000", "duration": 86400.0, "has_audio": false}, "crop_y": {"Points": [{"co": {"Y": 0, "X": 1}, "interpolation": 2}]}, "end": 5, "wave_color": {"alpha": {"Points": [{"handle_type": 0, "handle_right": {"Y": 0, "X": 0.5}, "handle_left": {"Y": 1, "X": 0.5}, "co": {"Y": 255, "X": 1}, "interpolation": 0}]}, "red": {"Points": [{"handle_type": 0, "handle_right": {"Y": 0, "X": 0.5}, "handle_left": {"Y": 1, "X": 0.5}, "co": {"Y": 0, "X": 1}, "interpolation": 0}]}, "blue": {"Points": [{"handle_type": 0, "handle_right": {"Y": 0, "X": 0.5}, "handle_left": {"Y": 1, "X": 0.5}, "co": {"Y": 255, "X": 1}, "interpolation": 0}]}, "green": {"Points": [{"handle_type": 0, "handle_right": {"Y": 0, "X": 0.5}, "handle_left": {"Y": 1, "X": 0.5}, "co": {"Y": 123, "X": 1}, "interpolation": 0}]}}, "perspective_c1_x": {"Points": [{"co": {"Y": -1, "X": 1}, "interpolation": 2}]}, "has_audio": {"Points": [{"co": {"Y": -1, "X": 1}, "interpolation": 2}]}, "scale": 1, "anchor": 0, "effects": [], "scale_y": {"Points": [{"co": {"Y": 1, "X": 1}, "interpolation": 2}]}, "shear_x": {"Points": [{"co": {"Y": 0, "X": 1}, "interpolation": 2}]}, "crop_width": {"Points": [{"co": {"Y": -1, "X": 1}, "interpolation": 2}]}, "perspective_c1_y": {"Points": [{"co": {"Y": -1, "X": 1}, "interpolation": 2}]}, "perspective_c3_x": {"Points": [{"co": {"Y": -1, "X": 1}, "interpolation": 2}]}, "position": 90.665, "image": "/home/milind/.openshot_qt/thumbnail/V62OPXLIQ5.png", "duration": 86400.0}, {"channel_filter": {"Points": [{"co": {"Y": -1, "X": 1}, "interpolation": 2}]}, "start": 0, "channel_mapping": {"Points": [{"co": {"Y": -1, "X": 1}, "interpolation": 2}]}, "rotation": {"Points": [{"co": {"Y": 0, "X": 1}, "interpolation": 2}]}, "title": "!065-Calculate Grace Marks.svg", "crop_width": {"Points": [{"co": {"Y": -1, "X": 1}, "interpolation": 2}]}, "alpha": {"Points": [{"co": {"Y": 1, "X": 1}, "interpolation": 2}, {"handle_type": 0, "handle_right": {"Y": 0, "X": 0.5}, "handle_left": {"Y": 1, "X": 0.5}, "co": {"Y": 0, "X": 1}, "interpolation": 0}, {"handle_type": 0, "handle_right": {"Y": 0, "X": 0.5}, "handle_left": {"Y": 1, "X": 0.5}, "co": {"Y": 1, "X": 73}, "interpolation": 0}, {"handle_type": 0, "handle_right": {"Y": 0, "X": 0.5}, "handle_left": {"Y": 1, "X": 0.5}, "co": {"Y": 1, "X": 122}, "interpolation": 0}, {"handle_type": 0, "handle_right": {"Y": 0, "X": 0.5}, "handle_left": {"Y": 1, "X": 0.5}, "co": {"Y": 0, "X": 194}, "interpolation": 0}]}, "crop_x": {"Points": [{"co": {"Y": 0, "X": 1}, "interpolation": 2}]}, "crop_height": {"Points": [{"co": {"Y": -1, "X": 1}, "interpolation": 2}]}, "display": 0, "time": {"Points": [{"co": {"Y": 1, "X": 1}, "interpolation": 2}]}, "perspective_c4_x": {"Points": [{"co": {"Y": -1, "X": 1}, "interpolation": 2}]}, "has_video": {"Points": [{"co": {"Y": -1, "X": 1}, "interpolation": 2}]}, "perspective_c3_y": {"Points": [{"co": {"Y": -1, "X": 1}, "interpolation": 2}]}, "volume": {"Points": [{"co": {"Y": 1, "X": 1}, "interpolation": 2}]}, "shear_y": {"Points": [{"co": {"Y": 0, "X": 1}, "interpolation": 2}]}, "id": "NJGNQW33I6", "gravity": 4, "position": 189.49, "waveform": false, "file_id": "EWJO5LAFDV", "location_y": {"Points": [{"co": {"Y": 0, "X": 1}, "interpolation": 2}]}, "scale_x": {"Points": [{"co": {"Y": 1, "X": 1}, "interpolation": 2}]}, "location_x": {"Points": [{"co": {"Y": 0, "X": 1}, "interpolation": 2}]}, "layer": 2, "reader": {"pixel_format": -1, "pixel_ratio": {"num": 1, "den": 1}, "acodec": "", "video_bit_rate": 0, "interlaced_frame": false, "fps": {"num": 30, "den": 1}, "has_single_image": true, "sample_rate": 0, "video_stream_index": -1, "channel_layout": 4, "audio_timebase": {"num": 1, "den": 1}, "video_timebase": {"num": 1, "den": 30}, "display_ratio": {"num": 6803, "den": 3827}, "channels": 0, "has_video": true, "type": "QtImageReader", "width": 6803, "top_field_first": true, "file_size": "104140324", "vcodec": "", "path": "/home/milind/Data/Projects/ProgressCard/!065-Calculate Grace Marks.svg", "audio_stream_index": -1, "audio_bit_rate": 0, "height": 3827, "video_length": "2592000", "duration": 86400.0, "has_audio": false}, "crop_y": {"Points": [{"co": {"Y": 0, "X": 1}, "interpolation": 2}]}, "end": 8.04, "wave_color": {"alpha": {"Points": [{"handle_type": 0, "handle_right": {"Y": 0, "X": 0.5}, "handle_left": {"Y": 1, "X": 0.5}, "co": {"Y": 255, "X": 1}, "interpolation": 0}]}, "red": {"Points": [{"handle_type": 0, "handle_right": {"Y": 0, "X": 0.5}, "handle_left": {"Y": 1, "X": 0.5}, "co": {"Y": 0, "X": 1}, "interpolation": 0}]}, "blue": {"Points": [{"handle_type": 0, "handle_right": {"Y": 0, "X": 0.5}, "handle_left": {"Y": 1, "X": 0.5}, "co": {"Y": 255, "X": 1}, "interpolation": 0}]}, "green": {"Points": [{"handle_type": 0, "handle_right": {"Y": 0, "X": 0.5}, "handle_left": {"Y": 1, "X": 0.5}, "co": {"Y": 123, "X": 1}, "interpolation": 0}]}}, "perspective_c1_x": {"Points": [{"co": {"Y": -1, "X": 1}, "interpolation": 2}]}, "has_audio": {"Points": [{"co": {"Y": -1, "X": 1}, "interpolation": 2}]}, "scale": 1, "anchor": 0, "effects": [], "scale_y": {"Points": [{"co": {"Y": 1, "X": 1}, "interpolation": 2}]}, "shear_x": {"Points": [{"co": {"Y": 0, "X": 1}, "interpolation": 2}]}, "perspective_c4_y": {"Points": [{"co": {"Y": -1, "X": 1}, "interpolation": 2}]}, "perspective_c1_y": {"Points": [{"co": {"Y": -1, "X": 1}, "interpolation": 2}]}, "perspective_c3_x": {"Points": [{"co": {"Y": -1, "X": 1}, "interpolation": 2}]}, "perspective_c2_y": {"Points": [{"co": {"Y": -1, "X": 1}, "interpolation": 2}]}, "image": "/home/milind/.openshot_qt/thumbnail/EWJO5LAFDV.png", "duration": 86400.0, "perspective_c2_x": {"Points": [{"co": {"Y": -1, "X": 1}, "interpolation": 2}]}}, {"channel_filter": {"Points": [{"co": {"Y": -1, "X": 1}, "interpolation": 2}]}, "start": 0, "channel_mapping": {"Points": [{"co": {"Y": -1, "X": 1}, "interpolation": 2}]}, "rotation": {"Points": [{"co": {"Y": 0, "X": 1}, "interpolation": 2}]}, "title": "01-White-Background.svg", "crop_width": {"Points": [{"co": {"Y": -1, "X": 1}, "interpolation": 2}]}, "alpha": {"Points": [{"co": {"Y": 1, "X": 1}, "interpolation": 2}]}, "crop_x": {"Points": [{"co": {"Y": 0, "X": 1}, "interpolation": 2}]}, "crop_height": {"Points": [{"co": {"Y": -1, "X": 1}, "interpolation": 2}]}, "display": 0, "time": {"Points": [{"co": {"Y": 1, "X": 1}, "interpolation": 2}]}, "perspective_c4_x": {"Points": [{"co": {"Y": -1, "X": 1}, "interpolation": 2}]}, "has_video": {"Points": [{"co": {"Y": -1, "X": 1}, "interpolation": 2}]}, "perspective_c3_y": {"Points": [{"co": {"Y": -1, "X": 1}, "interpolation": 2}]}, "volume": {"Points": [{"co": {"Y": 1, "X": 1}, "interpolation": 2}]}, "shear_y": {"Points": [{"co": {"Y": 0, "X": 1}, "interpolation": 2}]}, "id": "IV5M2GGPCZ", "gravity": 4, "position": 234.3275, "waveform": false, "file_id": "TDIZ1HFAHG", "location_y": {"Points": [{"co": {"Y": 0, "X": 1}, "interpolation": 2}]}, "scale_x": {"Points": [{"co": {"Y": 1, "X": 1}, "interpolation": 2}]}, "location_x": {"Points": [{"co": {"Y": 0, "X": 1}, "interpolation": 2}]}, "layer": 0, "reader": {"pixel_format": -1, "pixel_ratio": {"num": 1, "den": 1}, "acodec": "", "video_bit_rate": 0, "interlaced_frame": false, "fps": {"num": 30, "den": 1}, "has_single_image": true, "sample_rate": 0, "video_stream_index": -1, "channel_layout": 4, "audio_timebase": {"num": 1, "den": 1}, "video_timebase": {"num": 1, "den": 30}, "display_ratio": {"num": 16, "den": 9}, "channels": 0, "has_video": true, "type": "QtImageReader", "width": 1920, "top_field_first": true, "file_size": "8294400", "vcodec": "", "path": "/home/milind/Data/Projects/ProgressCard/Images/01-White-Background.svg", "audio_stream_index": -1, "audio_bit_rate": 0, "height": 1080, "video_length": "2592000", "duration": 86400.0, "has_audio": false}, "crop_y": {"Points": [{"co": {"Y": 0, "X": 1}, "interpolation": 2}]}, "end": 9.16, "wave_color": {"alpha": {"Points": [{"handle_type": 0, "handle_right": {"Y": 0, "X": 0.5}, "handle_left": {"Y": 1, "X": 0.5}, "co": {"Y": 255, "X": 1}, "interpolation": 0}]}, "red": {"Points": [{"handle_type": 0, "handle_right": {"Y": 0, "X": 0.5}, "handle_left": {"Y": 1, "X": 0.5}, "co": {"Y": 0, "X": 1}, "interpolation": 0}]}, "blue": {"Points": [{"handle_type": 0, "handle_right": {"Y": 0, "X": 0.5}, "handle_left": {"Y": 1, "X": 0.5}, "co": {"Y": 255, "X": 1}, "interpolation": 0}]}, "green": {"Points": [{"handle_type": 0, "handle_right": {"Y": 0, "X": 0.5}, "handle_left": {"Y": 1, "X": 0.5}, "co": {"Y": 123, "X": 1}, "interpolation": 0}]}}, "perspective_c1_x": {"Points": [{"co": {"Y": -1, "X": 1}, "interpolation": 2}]}, "has_audio": {"Points": [{"co": {"Y": -1, "X": 1}, "interpolation": 2}]}, "scale": 1, "anchor": 0, "effects": [], "scale_y": {"Points": [{"co": {"Y": 1, "X": 1}, "interpolation": 2}]}, "shear_x": {"Points": [{"co": {"Y": 0, "X": 1}, "interpolation": 2}]}, "perspective_c4_y": {"Points": [{"co": {"Y": -1, "X": 1}, "interpolation": 2}]}, "perspective_c1_y": {"Points": [{"co": {"Y": -1, "X": 1}, "interpolation": 2}]}, "perspective_c3_x": {"Points": [{"co": {"Y": -1, "X": 1}, "interpolation": 2}]}, "perspective_c2_y": {"Points": [{"co": {"Y": -1, "X": 1}, "interpolation": 2}]}, "image": "/home/milind/.openshot_qt/thumbnail/TDIZ1HFAHG.png", "duration": 86400.0, "perspective_c2_x": {"Points": [{"co": {"Y": -1, "X": 1}, "interpolation": 2}]}}, {"channel_filter": {"Points": [{"co": {"Y": -1.0, "X": 1.0}, "interpolation": 2}]}, "start": 0, "channel_mapping": {"Points": [{"co": {"Y": -1.0, "X": 1.0}, "interpolation": 2}]}, "rotation": {"Points": [{"co": {"Y": 0.0, "X": 1.0}, "interpolation": 2}]}, "title": "!011-Slide-We need only half page.svg", "crop_width": {"Points": [{"co": {"Y": -1.0, "X": 1.0}, "interpolation": 2}]}, "position": 22.56, "alpha": {"Points": [{"co": {"Y": 1.0, "X": 1.0}, "interpolation": 2}, {"handle_type": 0, "handle_right": {"Y": 0.0, "X": 0.5}, "handle_left": {"Y": 1.0, "X": 0.5}, "co": {"Y": 0.0, "X": 1.0}, "interpolation": 0}, {"handle_type": 0, "handle_right": {"Y": 0.0, "X": 0.5}, "handle_left": {"Y": 1.0, "X": 0.5}, "co": {"Y": 1.0, "X": 73.0}, "interpolation": 0}, {"handle_type": 0, "handle_right": {"Y": 0.0, "X": 0.5}, "handle_left": {"Y": 1.0, "X": 0.5}, "co": {"Y": 1.0, "X": 49.0}, "interpolation": 0}, {"handle_type": 0, "handle_right": {"Y": 0.0, "X": 0.5}, "handle_left": {"Y": 1.0, "X": 0.5}, "co": {"Y": 0.0, "X": 121.0}, "interpolation": 0}]}, "crop_x": {"Points": [{"co": {"Y": 0.0, "X": 1.0}, "interpolation": 2}]}, "crop_height": {"Points": [{"co": {"Y": -1.0, "X": 1.0}, "interpolation": 2}]}, "location_y": {"Points": [{"co": {"Y": 0.0, "X": 1.0}, "interpolation": 2}]}, "time": {"Points": [{"co": {"Y": 1.0, "X": 1.0}, "interpolation": 2}]}, "perspective_c2_x": {"Points": [{"co": {"Y": -1.0, "X": 1.0}, "interpolation": 2}]}, "scale_x": {"Points": [{"co": {"Y": 1.0, "X": 1.0}, "interpolation": 2}]}, "perspective_c3_y": {"Points": [{"co": {"Y": -1.0, "X": 1.0}, "interpolation": 2}]}, "volume": {"Points": [{"co": {"Y": 1.0, "X": 1.0}, "interpolation": 2}]}, "shear_y": {"Points": [{"co": {"Y": 0.0, "X": 1.0}, "interpolation": 2}]}, "id": "1PAPVWKA7U", "gravity": 4, "perspective_c2_y": {"Points": [{"co": {"Y": -1.0, "X": 1.0}, "interpolation": 2}]}, "waveform": false, "file_id": "7VACJ3VWTI", "display": 0, "has_video": {"Points": [{"co": {"Y": -1.0, "X": 1.0}, "interpolation": 2}]}, "layer": 2, "location_x": {"Points": [{"co": {"Y": 0.0, "X": 1.0}, "interpolation": 2}]}, "scale": 1, "crop_y": {"Points": [{"co": {"Y": 0.0, "X": 1.0}, "interpolation": 2}]}, "end": 5, "perspective_c3_x": {"Points": [{"co": {"Y": -1.0, "X": 1.0}, "interpolation": 2}]}, "wave_color": {"alpha": {"Points": [{"handle_type": 0, "handle_right": {"Y": 0.0, "X": 0.5}, "handle_left": {"Y": 1.0, "X": 0.5}, "co": {"Y": 255.0, "X": 1.0}, "interpolation": 0}]}, "red": {"Points": [{"handle_type": 0, "handle_right": {"Y": 0.0, "X": 0.5}, "handle_left": {"Y": 1.0, "X": 0.5}, "co": {"Y": 0.0, "X": 1.0}, "interpolation": 0}]}, "blue": {"Points": [{"handle_type": 0, "handle_right": {"Y": 0.0, "X": 0.5}, "handle_left": {"Y": 1.0, "X": 0.5}, "co": {"Y": 255.0, "X": 1.0}, "interpolation": 0}]}, "green": {"Points": [{"handle_type": 0, "handle_right": {"Y": 0.0, "X": 0.5}, "handle_left": {"Y": 1.0, "X": 0.5}, "co": {"Y": 123.0, "X": 1.0}, "interpolation": 0}]}}, "perspective_c1_x": {"Points": [{"co": {"Y": -1.0, "X": 1.0}, "interpolation": 2}]}, "reader": {"pixel_format": -1, "acodec": "", "audio_stream_index": -1, "interlaced_frame": false, "fps": {"num": 30, "den": 1}, "has_single_image": true, "sample_rate": 0, "video_stream_index": -1, "channel_layout": 4, "audio_timebase": {"num": 1, "den": 1}, "video_timebase": {"num": 1, "den": 30}, "display_ratio": {"num": 6803, "den": 3827}, "channels": 0, "has_video": true, "width": 6803, "type": "QtImageReader", "pixel_ratio": {"num": 1, "den": 1}, "top_field_first": true, "file_size": "104140324", "vcodec": "", "path": "/home/milind/Data/Projects/ProgressCard/!011-Slide-We need only half page.svg", "video_bit_rate": 0, "audio_bit_rate": 0, "height": 3827, "video_length": "2592000", "duration": 86400.0, "has_audio": false}, "anchor": 0, "has_audio": {"Points": [{"co": {"Y": -1.0, "X": 1.0}, "interpolation": 2}]}, "scale_y": {"Points": [{"co": {"Y": 1.0, "X": 1.0}, "interpolation": 2}]}, "shear_x": {"Points": [{"co": {"Y": 0.0, "X": 1.0}, "interpolation": 2}]}, "perspective_c4_y": {"Points": [{"co": {"Y": -1.0, "X": 1.0}, "interpolation": 2}]}, "perspective_c1_y": {"Points": [{"co": {"Y": -1.0, "X": 1.0}, "interpolation": 2}]}, "perspective_c4_x": {"Points": [{"co": {"Y": -1.0, "X": 1.0}, "interpolation": 2}]}, "effects": [], "image": "/home/milind/.openshot_qt/thumbnail/7VACJ3VWTI.png", "duration": 86400.0}, {"channel_filter": {"Points": [{"co": {"Y": -1, "X": 1}, "interpolation": 2}]}, "start": 0, "channel_mapping": {"Points": [{"co": {"Y": -1, "X": 1}, "interpolation": 2}]}, "rotation": {"Points": [{"co": {"Y": 0, "X": 1}, "interpolation": 2}]}, "title": "!025-Create Progress Card Template.svg", "perspective_c4_x": {"Points": [{"co": {"Y": -1, "X": 1}, "interpolation": 2}]}, "alpha": {"Points": [{"co": {"Y": 1, "X": 1}, "interpolation": 2}, {"handle_type": 0, "handle_left": {"Y": 1, "X": 0.5}, "handle_right": {"Y": 0, "X": 0.5}, "co": {"Y": 0, "X": 1}, "interpolation": 0}, {"handle_type": 0, "handle_left": {"Y": 1, "X": 0.5}, "handle_right": {"Y": 0, "X": 0.5}, "co": {"Y": 1, "X": 73}, "interpolation": 0}, {"handle_type": 0, "handle_left": {"Y": 1, "X": 0.5}, "interpolation": 0, "co": {"Y": 1, "X": 49}, "handle_right": {"Y": 0, "X": 0.5}}, {"handle_type": 0, "handle_left": {"Y": 1, "X": 0.5}, "interpolation": 0, "co": {"Y": 0, "X": 121}, "handle_right": {"Y": 0, "X": 0.5}}]}, "crop_x": {"Points": [{"co": {"Y": 0, "X": 1}, "interpolation": 2}]}, "crop_height": {"Points": [{"co": {"Y": -1, "X": 1}, "interpolation": 2}]}, "location_y": {"Points": [{"co": {"Y": 0, "X": 1}, "interpolation": 2}]}, "perspective_c2_y": {"Points": [{"co": {"Y": -1, "X": 1}, "interpolation": 2}]}, "time": {"Points": [{"co": {"Y": 1, "X": 1}, "interpolation": 2}]}, "scale": 1, "has_video": {"Points": [{"co": {"Y": -1, "X": 1}, "interpolation": 2}]}, "perspective_c3_y": {"Points": [{"co": {"Y": -1, "X": 1}, "interpolation": 2}]}, "volume": {"Points": [{"co": {"Y": 1, "X": 1}, "interpolation": 2}]}, "shear_y": {"Points": [{"co": {"Y": 0, "X": 1}, "interpolation": 2}]}, "id": "WF13AK4DKD", "gravity": 4, "position": 54.55, "waveform": false, "file_id": "CQ9HLHMG6Y", "display": 0, "scale_x": {"Points": [{"co": {"Y": 1, "X": 1}, "interpolation": 2}]}, "layer": 3, "location_x": {"Points": [{"co": {"Y": 0, "X": 1}, "interpolation": 2}]}, "reader": {"pixel_format": -1, "acodec": "", "audio_stream_index": -1, "interlaced_frame": false, "fps": {"num": 30, "den": 1}, "has_single_image": true, "sample_rate": 0, "video_stream_index": -1, "channel_layout": 4, "audio_timebase": {"num": 1, "den": 1}, "video_timebase": {"num": 1, "den": 30}, "file_size": "104140324", "channels": 0, "has_video": true, "type": "QtImageReader", "video_bit_rate": 0, "width": 6803, "top_field_first": true, "display_ratio": {"num": 6803, "den": 3827}, "vcodec": "", "path": "/home/milind/Data/Projects/ProgressCard/!025-Create Progress Card Template.svg", "pixel_ratio": {"num": 1, "den": 1}, "audio_bit_rate": 0, "height": 3827, "video_length": "2592000", "duration": 86400.0, "has_audio": false}, "crop_y": {"Points": [{"co": {"Y": 0, "X": 1}, "interpolation": 2}]}, "end": 5, "wave_color": {"alpha": {"Points": [{"handle_type": 0, "handle_left": {"Y": 1, "X": 0.5}, "handle_right": {"Y": 0, "X": 0.5}, "co": {"Y": 255, "X": 1}, "interpolation": 0}]}, "red": {"Points": [{"handle_type": 0, "handle_left": {"Y": 1, "X": 0.5}, "handle_right": {"Y": 0, "X": 0.5}, "co": {"Y": 0, "X": 1}, "interpolation": 0}]}, "blue": {"Points": [{"handle_type": 0, "handle_left": {"Y": 1, "X": 0.5}, "handle_right": {"Y": 0, "X": 0.5}, "co": {"Y": 255, "X": 1}, "interpolation": 0}]}, "green": {"Points": [{"handle_type": 0, "handle_left": {"Y": 1, "X": 0.5}, "handle_right": {"Y": 0, "X": 0.5}, "co": {"Y": 123, "X": 1}, "interpolation": 0}]}}, "perspective_c1_x": {"Points": [{"co": {"Y": -1, "X": 1}, "interpolation": 2}]}, "crop_width": {"Points": [{"co": {"Y": -1, "X": 1}, "interpolation": 2}]}, "anchor": 0, "has_audio": {"Points": [{"co": {"Y": -1, "X": 1}, "interpolation": 2}]}, "scale_y": {"Points": [{"co": {"Y": 1, "X": 1}, "interpolation": 2}]}, "shear_x": {"Points": [{"co": {"Y": 0, "X": 1}, "interpolation": 2}]}, "perspective_c4_y": {"Points": [{"co": {"Y": -1, "X": 1}, "interpolation": 2}]}, "perspective_c1_y": {"Points": [{"co": {"Y": -1, "X": 1}, "interpolation": 2}]}, "perspective_c3_x": {"Points": [{"co": {"Y": -1, "X": 1}, "interpolation": 2}]}, "effects": [], "image": "/home/milind/.openshot_qt/thumbnail/CQ9HLHMG6Y.png", "duration": 86400.0, "perspective_c2_x": {"Points": [{"co": {"Y": -1, "X": 1}, "interpolation": 2}]}}], "type": "insert", "value": {"channel_filter": {"Points": [{"co": {"Y": -1, "X": 1}, "interpolation": 2}]}, "start": 0, "channel_mapping": {"Points": [{"co": {"Y": -1, "X": 1}, "interpolation": 2}]}, "rotation": {"Points": [{"co": {"Y": 0, "X": 1}, "interpolation": 2}]}, "title": "!045-Slide-Sample Students Data.svg", "scale_x": {"Points": [{"co": {"Y": 1, "X": 1}, "interpolation": 2}]}, "alpha": {"Points": [{"co": {"Y": 1, "X": 1}, "interpolation": 2}, {"handle_type": 0, "handle_left": {"Y": 1, "X": 0.5}, "interpolation": 0, "co": {"Y": 0, "X": 1}, "handle_right": {"Y": 0, "X": 0.5}}, {"handle_type": 0, "handle_left": {"Y": 1, "X": 0.5}, "interpolation": 0, "co": {"Y": 1, "X": 73}, "handle_right": {"Y": 0, "X": 0.5}}, {"handle_type": 0, "handle_left": {"Y": 1, "X": 0.5}, "handle_right": {"Y": 0, "X": 0.5}, "co": {"Y": 1, "X": 49}, "interpolation": 0}, {"handle_type": 0, "handle_left": {"Y": 1, "X": 0.5}, "handle_right": {"Y": 0, "X": 0.5}, "co": {"Y": 0, "X": 121}, "interpolation": 0}]}, "crop_x": {"Points": [{"co": {"Y": 0, "X": 1}, "interpolation": 2}]}, "crop_height": {"Points": [{"co": {"Y": -1, "X": 1}, "interpolation": 2}]}, "display": 0, "time": {"Points": [{"co": {"Y": 1, "X": 1}, "interpolation": 2}]}, "crop_y": {"Points": [{"co": {"Y": 0, "X": 1}, "interpolation": 2}]}, "crop_width": {"Points": [{"co": {"Y": -1, "X": 1}, "interpolation": 2}]}, "perspective_c3_y": {"Points": [{"co": {"Y": -1, "X": 1}, "interpolation": 2}]}, "volume": {"Points": [{"co": {"Y": 1, "X": 1}, "interpolation": 2}]}, "shear_y": {"Points": [{"co": {"Y": 0, "X": 1}, "interpolation": 2}]}, "id": "2RP69Q8ZW7", "effects": [], "position": 98.455, "waveform": false, "file_id": "GOJEXTAQVD", "location_y": {"Points": [{"co": {"Y": 0, "X": 1}, "interpolation": 2}]}, "has_video": {"Points": [{"co": {"Y": -1, "X": 1}, "interpolation": 2}]}, "location_x": {"Points": [{"co": {"Y": 0, "X": 1}, "interpolation": 2}]}, "layer": 2, "reader": {"pixel_format": -1, "pixel_ratio": {"num": 1, "den": 1}, "acodec": "", "video_bit_rate": 0, "interlaced_frame": false, "fps": {"num": 30, "den": 1}, "has_single_image": true, "sample_rate": 0, "video_stream_index": -1, "channel_layout": 4, "audio_timebase": {"num": 1, "den": 1}, "display_ratio": {"num": 6803, "den": 3827}, "channels": 0, "has_video": true, "has_audio": false, "type": "QtImageReader", "width": 6803, "top_field_first": true, "file_size": "104140324", "vcodec": "", "path": "/home/milind/Data/Projects/ProgressCard/!045-Slide-Sample Students Data.svg", "audio_stream_index": -1, "audio_bit_rate": 0, "height": 3827, "video_length": "2592000", "duration": 86400.0, "video_timebase": {"num": 1, "den": 30}}, "perspective_c4_y": {"Points": [{"co": {"Y": -1, "X": 1}, "interpolation": 2}]}, "gravity": 4, "perspective_c3_x": {"Points": [{"co": {"Y": -1, "X": 1}, "interpolation": 2}]}, "end": 5, "perspective_c1_x": {"Points": [{"co": {"Y": -1, "X": 1}, "interpolation": 2}]}, "scale": 1, "anchor": 0, "has_audio": {"Points": [{"co": {"Y": -1, "X": 1}, "interpolation": 2}]}, "scale_y": {"Points": [{"co": {"Y": 1, "X": 1}, "interpolation": 2}]}, "image": "/home/milind/.openshot_qt/thumbnail/GOJEXTAQVD.png", "shear_x": {"Points": [{"co": {"Y": 0, "X": 1}, "interpolation": 2}]}, "perspective_c2_x": {"Points": [{"co": {"Y": -1, "X": 1}, "interpolation": 2}]}, "perspective_c1_y": {"Points": [{"co": {"Y": -1, "X": 1}, "interpolation": 2}]}, "perspective_c4_x": {"Points": [{"co": {"Y": -1, "X": 1}, "interpolation": 2}]}, "perspective_c2_y": {"Points": [{"co": {"Y": -1, "X": 1}, "interpolation": 2}]}, "wave_color": {"alpha": {"Points": [{"handle_type": 0, "handle_left": {"Y": 1, "X": 0.5}, "interpolation": 0, "co": {"Y": 255, "X": 1}, "handle_right": {"Y": 0, "X": 0.5}}]}, "red": {"Points": [{"handle_type": 0, "handle_left": {"Y": 1, "X": 0.5}, "interpolation": 0, "co": {"Y": 0, "X": 1}, "handle_right": {"Y": 0, "X": 0.5}}]}, "blue": {"Points": [{"handle_type": 0, "handle_left": {"Y": 1, "X": 0.5}, "interpolation": 0, "co": {"Y": 255, "X": 1}, "handle_right": {"Y": 0, "X": 0.5}}]}, "green": {"Points": [{"handle_type": 0, "handle_left": {"Y": 1, "X": 0.5}, "interpolation": 0, "co": {"Y": 123, "X": 1}, "handle_right": {"Y": 0, "X": 0.5}}]}}, "duration": 86400.0}}, {"partial": false, "key": ["clips", {"id": "2RP69Q8ZW7"}], "old_values": {"channel_filter": {"Points": [{"co": {"Y": -1, "X": 1}, "interpolation": 2}]}, "start": 0, "channel_mapping": {"Points": [{"co": {"Y": -1, "X": 1}, "interpolation": 2}]}, "rotation": {"Points": [{"co": {"Y": 0, "X": 1}, "interpolation": 2}]}, "title": "!045-Slide-Sample Students Data.svg", "alpha": {"Points": [{"co": {"Y": 1, "X": 1}, "interpolation": 2}]}, "crop_x": {"Points": [{"co": {"Y": 0, "X": 1}, "interpolation": 2}]}, "crop_height": {"Points": [{"co": {"Y": -1, "X": 1}, "interpolation": 2}]}, "display": 0, "time": {"Points": [{"co": {"Y": 1, "X": 1}, "interpolation": 2}]}, "scale": 1, "has_video": {"Points": [{"co": {"Y": -1, "X": 1}, "interpolation": 2}]}, "perspective_c3_y": {"Points": [{"co": {"Y": -1, "X": 1}, "interpolation": 2}]}, "volume": {"Points": [{"co": {"Y": 1, "X": 1}, "interpolation": 2}]}, "shear_y": {"Points": [{"co": {"Y": 0, "X": 1}, "interpolation": 2}]}, "effects": [], "id": "2RP69Q8ZW7", "gravity": 4, "perspective_c2_y": {"Points": [{"co": {"Y": -1, "X": 1}, "interpolation": 2}]}, "waveform": false, "file_id": "GOJEXTAQVD", "location_y": {"Points": [{"co": {"Y": 0, "X": 1}, "interpolation": 2}]}, "scale_x": {"Points": [{"co": {"Y": 1, "X": 1}, "interpolation": 2}]}, "location_x": {"Points": [{"co": {"Y": 0, "X": 1}, "interpolation": 2}]}, "layer": 2, "reader": {"pixel_format": -1, "acodec": "", "video_bit_rate": 0, "interlaced_frame": false, "fps": {"num": 30, "den": 1}, "has_single_image": true, "sample_rate": 0, "video_stream_index": -1, "channel_layout": 4, "audio_timebase": {"num": 1, "den": 1}, "file_size": "104140324", "audio_stream_index": -1, "channels": 0, "has_video": true, "path": "/home/milind/Data/Projects/ProgressCard/!045-Slide-Sample Students Data.svg", "type": "QtImageReader", "width": 6803, "top_field_first": true, "display_ratio": {"num": 6803, "den": 3827}, "vcodec": "", "has_audio": false, "pixel_ratio": {"num": 1, "den": 1}, "audio_bit_rate": 0, "height": 3827, "video_length": "2592000", "duration": 86400.0, "video_timebase": {"num": 1, "den": 30}}, "crop_y": {"Points": [{"co": {"Y": 0, "X": 1}, "interpolation": 2}]}, "end": 5.0, "perspective_c3_x": {"Points": [{"co": {"Y": -1, "X": 1}, "interpolation": 2}]}, "perspective_c1_x": {"Points": [{"co": {"Y": -1, "X": 1}, "interpolation": 2}]}, "has_audio": {"Points": [{"co": {"Y": -1, "X": 1}, "interpolation": 2}]}, "crop_width": {"Points": [{"co": {"Y": -1, "X": 1}, "interpolation": 2}]}, "anchor": 0, "wave_color": {"alpha": {"Points": [{"handle_type": 0, "handle_left": {"Y": 1, "X": 0.5}, "handle_right": {"Y": 0, "X": 0.5}, "co": {"Y": 255, "X": 1}, "interpolation": 0}]}, "red": {"Points": [{"handle_type": 0, "handle_left": {"Y": 1, "X": 0.5}, "handle_right": {"Y": 0, "X": 0.5}, "co": {"Y": 0, "X": 1}, "interpolation": 0}]}, "blue": {"Points": [{"handle_type": 0, "handle_left": {"Y": 1, "X": 0.5}, "handle_right": {"Y": 0, "X": 0.5}, "co": {"Y": 255, "X": 1}, "interpolation": 0}]}, "green": {"Points": [{"handle_type": 0, "handle_left": {"Y": 1, "X": 0.5}, "handle_right": {"Y": 0, "X": 0.5}, "co": {"Y": 123, "X": 1}, "interpolation": 0}]}}, "scale_y": {"Points": [{"co": {"Y": 1, "X": 1}, "interpolation": 2}]}, "shear_x": {"Points": [{"co": {"Y": 0, "X": 1}, "interpolation": 2}]}, "perspective_c4_y": {"Points": [{"co": {"Y": -1, "X": 1}, "interpolation": 2}]}, "perspective_c1_y": {"Points": [{"co": {"Y": -1, "X": 1}, "interpolation": 2}]}, "perspective_c4_x": {"Points": [{"co": {"Y": -1, "X": 1}, "interpolation": 2}]}, "position": 44.0, "image": "/home/milind/.openshot_qt/thumbnail/GOJEXTAQVD.png", "duration": 86400.0, "perspective_c2_x": {"Points": [{"co": {"Y": -1, "X": 1}, "interpolation": 2}]}}, "type": "update", "value": {"start": 0, "layer": 2, "end": 5, "image": "/home/milind/.openshot_qt/thumbnail/GOJEXTAQVD.png", "position": 98.455, "id": "2RP69Q8ZW7"}}, {"partial": false, "key": ["clips", {"id": "2RP69Q8ZW7"}], "old_values": {"channel_filter": {"Points": [{"co": {"Y": -1, "X": 1}, "interpolation": 2}]}, "start": 0, "channel_mapping": {"Points": [{"co": {"Y": -1, "X": 1}, "interpolation": 2}]}, "rotation": {"Points": [{"co": {"Y": 0, "X": 1}, "interpolation": 2}]}, "title": "!045-Slide-Sample Students Data.svg", "perspective_c4_x": {"Points": [{"co": {"Y": -1, "X": 1}, "interpolation": 2}]}, "alpha": {"Points": [{"co": {"Y": 1, "X": 1}, "interpolation": 2}]}, "crop_x": {"Points": [{"co": {"Y": 0, "X": 1}, "interpolation": 2}]}, "crop_height": {"Points": [{"co": {"Y": -1, "X": 1}, "interpolation": 2}]}, "location_y": {"Points": [{"co": {"Y": 0, "X": 1}, "interpolation": 2}]}, "perspective_c2_y": {"Points": [{"co": {"Y": -1, "X": 1}, "interpolation": 2}]}, "time": {"Points": [{"co": {"Y": 1, "X": 1}, "interpolation": 2}]}, "scale": 1, "has_video": {"Points": [{"co": {"Y": -1, "X": 1}, "interpolation": 2}]}, "perspective_c3_y": {"Points": [{"co": {"Y": -1, "X": 1}, "interpolation": 2}]}, "volume": {"Points": [{"co": {"Y": 1, "X": 1}, "interpolation": 2}]}, "shear_y": {"Points": [{"co": {"Y": 0, "X": 1}, "interpolation": 2}]}, "id": "2RP69Q8ZW7", "gravity": 4, "position": 98.455, "waveform": false, "file_id": "GOJEXTAQVD", "display": 0, "scale_x": {"Points": [{"co": {"Y": 1, "X": 1}, "interpolation": 2}]}, "layer": 2, "location_x": {"Points": [{"co": {"Y": 0, "X": 1}, "interpolation": 2}]}, "reader": {"pixel_format": -1, "acodec": "", "video_bit_rate": 0, "interlaced_frame": false, "fps": {"num": 30, "den": 1}, "has_single_image": true, "sample_rate": 0, "video_stream_index": -1, "channel_layout": 4, "audio_timebase": {"num": 1, "den": 1}, "file_size": "104140324", "audio_stream_index": -1, "channels": 0, "has_video": true, "path": "/home/milind/Data/Projects/ProgressCard/!045-Slide-Sample Students Data.svg", "type": "QtImageReader", "width": 6803, "top_field_first": true, "display_ratio": {"num": 6803, "den": 3827}, "vcodec": "", "has_audio": false, "pixel_ratio": {"num": 1, "den": 1}, "audio_bit_rate": 0, "height": 3827, "video_length": "2592000", "duration": 86400.0, "video_timebase": {"num": 1, "den": 30}}, "crop_y": {"Points": [{"co": {"Y": 0, "X": 1}, "interpolation": 2}]}, "end": 5, "wave_color": {"alpha": {"Points": [{"handle_type": 0, "handle_left": {"Y": 1, "X": 0.5}, "handle_right": {"Y": 0, "X": 0.5}, "co": {"Y": 255, "X": 1}, "interpolation": 0}]}, "red": {"Points": [{"handle_type": 0, "handle_left": {"Y": 1, "X": 0.5}, "handle_right": {"Y": 0, "X": 0.5}, "co": {"Y": 0, "X": 1}, "interpolation": 0}]}, "blue": {"Points": [{"handle_type": 0, "handle_left": {"Y": 1, "X": 0.5}, "handle_right": {"Y": 0, "X": 0.5}, "co": {"Y": 255, "X": 1}, "interpolation": 0}]}, "green": {"Points": [{"handle_type": 0, "handle_left": {"Y": 1, "X": 0.5}, "handle_right": {"Y": 0, "X": 0.5}, "co": {"Y": 123, "X": 1}, "interpolation": 0}]}}, "perspective_c1_x": {"Points": [{"co": {"Y": -1, "X": 1}, "interpolation": 2}]}, "crop_width": {"Points": [{"co": {"Y": -1, "X": 1}, "interpolation": 2}]}, "anchor": 0, "has_audio": {"Points": [{"co": {"Y": -1, "X": 1}, "interpolation": 2}]}, "scale_y": {"Points": [{"co": {"Y": 1, "X": 1}, "interpolation": 2}]}, "shear_x": {"Points": [{"co": {"Y": 0, "X": 1}, "interpolation": 2}]}, "perspective_c4_y": {"Points": [{"co": {"Y": -1, "X": 1}, "interpolation": 2}]}, "perspective_c1_y": {"Points": [{"co": {"Y": -1, "X": 1}, "interpolation": 2}]}, "perspective_c3_x": {"Points": [{"co": {"Y": -1, "X": 1}, "interpolation": 2}]}, "effects": [], "image": "/home/milind/.openshot_qt/thumbnail/GOJEXTAQVD.png", "duration": 86400.0, "perspective_c2_x": {"Points": [{"co": {"Y": -1, "X": 1}, "interpolation": 2}]}}, "type": "update", "value": {"channel_filter": {"Points": [{"co": {"Y": -1, "X": 1}, "interpolation": 2}]}, "start": 0, "channel_mapping": {"Points": [{"co": {"Y": -1, "X": 1}, "interpolation": 2}]}, "rotation": {"Points": [{"co": {"Y": 0, "X": 1}, "interpolation": 2}]}, "title": "!045-Slide-Sample Students Data.svg", "perspective_c4_x": {"Points": [{"co": {"Y": -1, "X": 1}, "interpolation": 2}]}, "alpha": {"Points": [{"co": {"Y": 1, "X": 1}, "interpolation": 2}, {"handle_type": 0, "handle_left": {"Y": 1, "X": 0.5}, "handle_right": {"Y": 0, "X": 0.5}, "co": {"Y": 0, "X": 1}, "interpolation": 0}, {"handle_type": 0, "handle_left": {"Y": 1, "X": 0.5}, "handle_right": {"Y": 0, "X": 0.5}, "co": {"Y": 1, "X": 73}, "interpolation": 0}]}, "crop_x": {"Points": [{"co": {"Y": 0, "X": 1}, "interpolation": 2}]}, "crop_height": {"Points": [{"co": {"Y": -1, "X": 1}, "interpolation": 2}]}, "location_y": {"Points": [{"co": {"Y": 0, "X": 1}, "interpolation": 2}]}, "perspective_c2_y": {"Points": [{"co": {"Y": -1, "X": 1}, "interpolation": 2}]}, "time": {"Points": [{"co": {"Y": 1, "X": 1}, "interpolation": 2}]}, "perspective_c2_x": {"Points": [{"co": {"Y": -1, "X": 1}, "interpolation": 2}]}, "has_video": {"Points": [{"co": {"Y": -1, "X": 1}, "interpolation": 2}]}, "perspective_c3_y": {"Points": [{"co": {"Y": -1, "X": 1}, "interpolation": 2}]}, "volume": {"Points": [{"co": {"Y": 1, "X": 1}, "interpolation": 2}]}, "shear_y": {"Points": [{"co": {"Y": 0, "X": 1}, "interpolation": 2}]}, "id": "2RP69Q8ZW7", "gravity": 4, "position": 98.455, "waveform": false, "file_id": "GOJEXTAQVD", "display": 0, "scale_x": {"Points": [{"co": {"Y": 1, "X": 1}, "interpolation": 2}]}, "layer": 2, "location_x": {"Points": [{"co": {"Y": 0, "X": 1}, "interpolation": 2}]}, "scale": 1, "crop_y": {"Points": [{"co": {"Y": 0, "X": 1}, "interpolation": 2}]}, "end": 5, "wave_color": {"alpha": {"Points": [{"handle_type": 0, "handle_left": {"Y": 1, "X": 0.5}, "handle_right": {"Y": 0, "X": 0.5}, "co": {"Y": 255, "X": 1}, "interpolation": 0}]}, "red": {"Points": [{"handle_type": 0, "handle_left": {"Y": 1, "X": 0.5}, "handle_right": {"Y": 0, "X": 0.5}, "co": {"Y": 0, "X": 1}, "interpolation": 0}]}, "blue": {"Points": [{"handle_type": 0, "handle_left": {"Y": 1, "X": 0.5}, "handle_right": {"Y": 0, "X": 0.5}, "co": {"Y": 255, "X": 1}, "interpolation": 0}]}, "green": {"Points": [{"handle_type": 0, "handle_left": {"Y": 1, "X": 0.5}, "handle_right": {"Y": 0, "X": 0.5}, "co": {"Y": 123, "X": 1}, "interpolation": 0}]}}, "perspective_c1_x": {"Points": [{"co": {"Y": -1, "X": 1}, "interpolation": 2}]}, "crop_width": {"Points": [{"co": {"Y": -1, "X": 1}, "interpolation": 2}]}, "anchor": 0, "has_audio": {"Points": [{"co": {"Y": -1, "X": 1}, "interpolation": 2}]}, "scale_y": {"Points": [{"co": {"Y": 1, "X": 1}, "interpolation": 2}]}, "shear_x": {"Points": [{"co": {"Y": 0, "X": 1}, "interpolation": 2}]}, "perspective_c4_y": {"Points": [{"co": {"Y": -1, "X": 1}, "interpolation": 2}]}, "perspective_c1_y": {"Points": [{"co": {"Y": -1, "X": 1}, "interpolation": 2}]}, "perspective_c3_x": {"Points": [{"co": {"Y": -1, "X": 1}, "interpolation": 2}]}, "effects": [], "image": "/home/milind/.openshot_qt/thumbnail/GOJEXTAQVD.png", "duration": 86400.0}}, {"partial": false, "key": ["clips", {"id": "2RP69Q8ZW7"}], "old_values": {"channel_filter": {"Points": [{"co": {"Y": -1, "X": 1}, "interpolation": 2}]}, "start": 0, "channel_mapping": {"Points": [{"co": {"Y": -1, "X": 1}, "interpolation": 2}]}, "rotation": {"Points": [{"co": {"Y": 0, "X": 1}, "interpolation": 2}]}, "title": "!045-Slide-Sample Students Data.svg", "perspective_c4_x": {"Points": [{"co": {"Y": -1, "X": 1}, "interpolation": 2}]}, "alpha": {"Points": [{"co": {"Y": 1, "X": 1}, "interpolation": 2}, {"handle_type": 0, "handle_left": {"Y": 1, "X": 0.5}, "interpolation": 0, "co": {"Y": 0, "X": 1}, "handle_right": {"Y": 0, "X": 0.5}}, {"handle_type": 0, "handle_left": {"Y": 1, "X": 0.5}, "interpolation": 0, "co": {"Y": 1, "X": 73}, "handle_right": {"Y": 0, "X": 0.5}}]}, "crop_x": {"Points": [{"co": {"Y": 0, "X": 1}, "interpolation": 2}]}, "crop_height": {"Points": [{"co": {"Y": -1, "X": 1}, "interpolation": 2}]}, "location_y": {"Points": [{"co": {"Y": 0, "X": 1}, "interpolation": 2}]}, "perspective_c2_y": {"Points": [{"co": {"Y": -1, "X": 1}, "interpolation": 2}]}, "time": {"Points": [{"co": {"Y": 1, "X": 1}, "interpolation": 2}]}, "scale": 1, "has_video": {"Points": [{"co": {"Y": -1, "X": 1}, "interpolation": 2}]}, "perspective_c3_y": {"Points": [{"co": {"Y": -1, "X": 1}, "interpolation": 2}]}, "volume": {"Points": [{"co": {"Y": 1, "X": 1}, "interpolation": 2}]}, "shear_y": {"Points": [{"co": {"Y": 0, "X": 1}, "interpolation": 2}]}, "id": "2RP69Q8ZW7", "gravity": 4, "position": 98.455, "waveform": false, "file_id": "GOJEXTAQVD", "display": 0, "scale_x": {"Points": [{"co": {"Y": 1, "X": 1}, "interpolation": 2}]}, "layer": 2, "location_x": {"Points": [{"co": {"Y": 0, "X": 1}, "interpolation": 2}]}, "reader": {"pixel_format": -1, "acodec": "", "video_bit_rate": 0, "interlaced_frame": false, "fps": {"num": 30, "den": 1}, "has_single_image": true, "sample_rate": 0, "video_stream_index": -1, "channel_layout": 4, "audio_timebase": {"num": 1, "den": 1}, "file_size": "104140324", "audio_stream_index": -1, "channels": 0, "has_video": true, "path": "/home/milind/Data/Projects/ProgressCard/!045-Slide-Sample Students Data.svg", "type": "QtImageReader", "width": 6803, "top_field_first": true, "display_ratio": {"num": 6803, "den": 3827}, "vcodec": "", "has_audio": false, "pixel_ratio": {"num": 1, "den": 1}, "audio_bit_rate": 0, "height": 3827, "video_length": "2592000", "duration": 86400.0, "video_timebase": {"num": 1, "den": 30}}, "crop_y": {"Points": [{"co": {"Y": 0, "X": 1}, "interpolation": 2}]}, "end": 5, "wave_color": {"alpha": {"Points": [{"handle_type": 0, "handle_left": {"Y": 1, "X": 0.5}, "interpolation": 0, "co": {"Y": 255, "X": 1}, "handle_right": {"Y": 0, "X": 0.5}}]}, "red": {"Points": [{"handle_type": 0, "handle_left": {"Y": 1, "X": 0.5}, "interpolation": 0, "co": {"Y": 0, "X": 1}, "handle_right": {"Y": 0, "X": 0.5}}]}, "blue": {"Points": [{"handle_type": 0, "handle_left": {"Y": 1, "X": 0.5}, "interpolation": 0, "co": {"Y": 255, "X": 1}, "handle_right": {"Y": 0, "X": 0.5}}]}, "green": {"Points": [{"handle_type": 0, "handle_left": {"Y": 1, "X": 0.5}, "interpolation": 0, "co": {"Y": 123, "X": 1}, "handle_right": {"Y": 0, "X": 0.5}}]}}, "perspective_c1_x": {"Points": [{"co": {"Y": -1, "X": 1}, "interpolation": 2}]}, "crop_width": {"Points": [{"co": {"Y": -1, "X": 1}, "interpolation": 2}]}, "anchor": 0, "has_audio": {"Points": [{"co": {"Y": -1, "X": 1}, "interpolation": 2}]}, "scale_y": {"Points": [{"co": {"Y": 1, "X": 1}, "interpolation": 2}]}, "shear_x": {"Points": [{"co": {"Y": 0, "X": 1}, "interpolation": 2}]}, "perspective_c4_y": {"Points": [{"co": {"Y": -1, "X": 1}, "interpolation": 2}]}, "perspective_c1_y": {"Points": [{"co": {"Y": -1, "X": 1}, "interpolation": 2}]}, "perspective_c3_x": {"Points": [{"co": {"Y": -1, "X": 1}, "interpolation": 2}]}, "effects": [], "image": "/home/milind/.openshot_qt/thumbnail/GOJEXTAQVD.png", "duration": 86400.0, "perspective_c2_x": {"Points": [{"co": {"Y": -1, "X": 1}, "interpolation": 2}]}}, "type": "update", "value": {"channel_filter": {"Points": [{"co": {"Y": -1, "X": 1}, "interpolation": 2}]}, "start": 0, "channel_mapping": {"Points": [{"co": {"Y": -1, "X": 1}, "interpolation": 2}]}, "rotation": {"Points": [{"co": {"Y": 0, "X": 1}, "interpolation": 2}]}, "title": "!045-Slide-Sample Students Data.svg", "perspective_c4_x": {"Points": [{"co": {"Y": -1, "X": 1}, "interpolation": 2}]}, "alpha": {"Points": [{"co": {"Y": 1, "X": 1}, "interpolation": 2}, {"handle_type": 0, "handle_left": {"Y": 1, "X": 0.5}, "interpolation": 0, "co": {"Y": 0, "X": 1}, "handle_right": {"Y": 0, "X": 0.5}}, {"handle_type": 0, "handle_left": {"Y": 1, "X": 0.5}, "interpolation": 0, "co": {"Y": 1, "X": 73}, "handle_right": {"Y": 0, "X": 0.5}}, {"handle_type": 0, "handle_left": {"Y": 1, "X": 0.5}, "handle_right": {"Y": 0, "X": 0.5}, "co": {"Y": 1, "X": 49}, "interpolation": 0}, {"handle_type": 0, "handle_left": {"Y": 1, "X": 0.5}, "handle_right": {"Y": 0, "X": 0.5}, "co": {"Y": 0, "X": 121}, "interpolation": 0}]}, "crop_x": {"Points": [{"co": {"Y": 0, "X": 1}, "interpolation": 2}]}, "crop_height": {"Points": [{"co": {"Y": -1, "X": 1}, "interpolation": 2}]}, "location_y": {"Points": [{"co": {"Y": 0, "X": 1}, "interpolation": 2}]}, "perspective_c2_y": {"Points": [{"co": {"Y": -1, "X": 1}, "interpolation": 2}]}, "time": {"Points": [{"co": {"Y": 1, "X": 1}, "interpolation": 2}]}, "perspective_c2_x": {"Points": [{"co": {"Y": -1, "X": 1}, "interpolation": 2}]}, "has_video": {"Points": [{"co": {"Y": -1, "X": 1}, "interpolation": 2}]}, "perspective_c3_y": {"Points": [{"co": {"Y": -1, "X": 1}, "interpolation": 2}]}, "volume": {"Points": [{"co": {"Y": 1, "X": 1}, "interpolation": 2}]}, "shear_y": {"Points": [{"co": {"Y": 0, "X": 1}, "interpolation": 2}]}, "id": "2RP69Q8ZW7", "gravity": 4, "position": 98.455, "waveform": false, "file_id": "GOJEXTAQVD", "display": 0, "scale_x": {"Points": [{"co": {"Y": 1, "X": 1}, "interpolation": 2}]}, "layer": 2, "location_x": {"Points": [{"co": {"Y": 0, "X": 1}, "interpolation": 2}]}, "scale": 1, "crop_y": {"Points": [{"co": {"Y": 0, "X": 1}, "interpolation": 2}]}, "end": 5, "wave_color": {"alpha": {"Points": [{"handle_type": 0, "handle_left": {"Y": 1, "X": 0.5}, "interpolation": 0, "co": {"Y": 255, "X": 1}, "handle_right": {"Y": 0, "X": 0.5}}]}, "red": {"Points": [{"handle_type": 0, "handle_left": {"Y": 1, "X": 0.5}, "interpolation": 0, "co": {"Y": 0, "X": 1}, "handle_right": {"Y": 0, "X": 0.5}}]}, "blue": {"Points": [{"handle_type": 0, "handle_left": {"Y": 1, "X": 0.5}, "interpolation": 0, "co": {"Y": 255, "X": 1}, "handle_right": {"Y": 0, "X": 0.5}}]}, "green": {"Points": [{"handle_type": 0, "handle_left": {"Y": 1, "X": 0.5}, "interpolation": 0, "co": {"Y": 123, "X": 1}, "handle_right": {"Y": 0, "X": 0.5}}]}}, "perspective_c1_x": {"Points": [{"co": {"Y": -1, "X": 1}, "interpolation": 2}]}, "crop_width": {"Points": [{"co": {"Y": -1, "X": 1}, "interpolation": 2}]}, "anchor": 0, "has_audio": {"Points": [{"co": {"Y": -1, "X": 1}, "interpolation": 2}]}, "scale_y": {"Points": [{"co": {"Y": 1, "X": 1}, "interpolation": 2}]}, "shear_x": {"Points": [{"co": {"Y": 0, "X": 1}, "interpolation": 2}]}, "perspective_c4_y": {"Points": [{"co": {"Y": -1, "X": 1}, "interpolation": 2}]}, "perspective_c1_y": {"Points": [{"co": {"Y": -1, "X": 1}, "interpolation": 2}]}, "perspective_c3_x": {"Points": [{"co": {"Y": -1, "X": 1}, "interpolation": 2}]}, "effects": [], "image": "/home/milind/.openshot_qt/thumbnail/GOJEXTAQVD.png", "duration": 86400.0}}, {"partial": false, "key": ["files"], "old_values": [{"pixel_format": -1, "media_type": "image", "acodec": "", "audio_stream_index": -1, "interlaced_frame": false, "fps": {"num": 30, "den": 1}, "has_single_image": true, "sample_rate": 0, "video_stream_index": -1, "channel_layout": 4, "audio_timebase": {"num": 1, "den": 1}, "id": "5OEZCIVW6D", "display_ratio": {"num": 6803, "den": 3827}, "channels": 0, "has_video": true, "width": 6803, "type": "QtImageReader", "video_timebase": {"num": 1, "den": 30}, "pixel_ratio": {"num": 1, "den": 1}, "top_field_first": true, "file_size": "104140324", "vcodec": "", "path": "/home/milind/Data/Projects/ProgressCard/Images/02-Title Progress Cards.svg", "video_bit_rate": 0, "audio_bit_rate": 0, "height": 3827, "video_length": "2592000", "duration": 86400.0, "has_audio": false}, {"pixel_format": -1, "media_type": "image", "acodec": "", "audio_stream_index": -1, "interlaced_frame": false, "fps": {"num": 30, "den": 1}, "has_single_image": true, "sample_rate": 0, "video_stream_index": -1, "channel_layout": 4, "audio_timebase": {"num": 1, "den": 1}, "id": "TDIZ1HFAHG", "display_ratio": {"num": 16, "den": 9}, "channels": 0, "has_video": true, "width": 1920, "type": "QtImageReader", "video_timebase": {"num": 1, "den": 30}, "pixel_ratio": {"num": 1, "den": 1}, "top_field_first": true, "file_size": "8294400", "vcodec": "", "path": "/home/milind/Data/Projects/ProgressCard/Images/01-White-Background.svg", "video_bit_rate": 0, "audio_bit_rate": 0, "height": 1080, "video_length": "2592000", "duration": 86400.0, "has_audio": false}, {"pixel_format": -1, "media_type": "image", "acodec": "", "audio_stream_index": -1, "interlaced_frame": false, "fps": {"num": 30, "den": 1}, "has_single_image": true, "sample_rate": 0, "video_stream_index": -1, "channel_layout": 4, "audio_timebase": {"num": 1, "den": 1}, "id": "9LYJA9LENR", "display_ratio": {"num": 300, "den": 89}, "channels": 0, "has_video": true, "width": 600, "type": "QtImageReader", "video_timebase": {"num": 1, "den": 30}, "pixel_ratio": {"num": 1, "den": 1}, "top_field_first": true, "file_size": "427200", "vcodec": "", "path": "/home/milind/Data/Projects/ProgressCard/Images/04-LibreOffice_external_logo.svg", "video_bit_rate": 0, "audio_bit_rate": 0, "height": 178, "video_length": "2592000", "duration": 86400.0, "has_audio": false}, {"pixel_format": -1, "media_type": "image", "acodec": "", "audio_stream_index": -1, "interlaced_frame": false, "fps": {"num": 30, "den": 1}, "has_single_image": true, "sample_rate": 0, "video_stream_index": -1, "channel_layout": 4, "audio_timebase": {"num": 1, "den": 1}, "id": "V0JTT8RBI4", "display_ratio": {"num": 6803, "den": 3827}, "channels": 0, "has_video": true, "width": 6803, "type": "QtImageReader", "video_timebase": {"num": 1, "den": 30}, "pixel_ratio": {"num": 1, "den": 1}, "top_field_first": true, "file_size": "104140324", "vcodec": "", "path": "/home/milind/Data/Projects/ProgressCard/Images/03-Title-In.svg", "video_bit_rate": 0, "audio_bit_rate": 0, "height": 3827, "video_length": "2592000", "duration": 86400.0, "has_audio": false}, {"pixel_format": -1, "media_type": "image", "acodec": "", "audio_stream_index": -1, "interlaced_frame": false, "fps": {"num": 30, "den": 1}, "has_single_image": true, "sample_rate": 0, "video_stream_index": -1, "channel_layout": 4, "audio_timebase": {"num": 1, "den": 1}, "id": "UXYIII238I", "display_ratio": {"num": 6803, "den": 3827}, "channels": 0, "has_video": true, "width": 6803, "type": "QtImageReader", "video_timebase": {"num": 1, "den": 30}, "pixel_ratio": {"num": 1, "den": 1}, "top_field_first": true, "file_size": "104140324", "vcodec": "", "path": "/home/milind/Data/Projects/ProgressCard/Images/05-Title -Open Writer.svg", "video_bit_rate": 0, "audio_bit_rate": 0, "height": 3827, "video_length": "2592000", "duration": 86400.0, "has_audio": false}, {"pixel_format": 0, "media_type": "video", "acodec": "", "audio_stream_index": -1, "interlaced_frame": false, "fps": {"num": 25, "den": 1}, "has_single_image": false, "sample_rate": 0, "video_stream_index": 0, "channel_layout": 4, "audio_timebase": {"num": 1, "den": 1}, "id": "LH1LTFW4JK", "display_ratio": {"num": 683, "den": 384}, "channels": 0, "has_video": true, "width": 1366, "type": "FFmpegReader", "video_timebase": {"num": 1, "den": 1000}, "pixel_ratio": {"num": 1, "den": 1}, "top_field_first": true, "file_size": "263859", "vcodec": "h264", "path": "/home/milind/Data/Projects/ProgressCard/!020-Redice Page Height 21x13 to Save Paper.mkv", "video_bit_rate": 0, "audio_bit_rate": 0, "height": 768, "video_length": "900", "duration": 36.0, "has_audio": false}, {"pixel_format": 0, "media_type": "video", "acodec": "", "audio_stream_index": -1, "interlaced_frame": false, "fps": {"num": 25, "den": 1}, "has_single_image": false, "sample_rate": 0, "video_stream_index": 0, "channel_layout": 4, "audio_timebase": {"num": 1, "den": 1}, "id": "0CRU9IJ6JU", "display_ratio": {"num": 683, "den": 384}, "channels": 0, "has_video": true, "width": 1366, "type": "FFmpegReader", "video_timebase": {"num": 1, "den": 1000}, "pixel_ratio": {"num": 1, "den": 1}, "top_field_first": true, "file_size": "345131", "vcodec": "h264", "path": "/home/milind/Data/Projects/ProgressCard/!030-Create Progress Card Template.mkv", "video_bit_rate": 0, "audio_bit_rate": 0, "height": 768, "video_length": "1025", "duration": 41.0, "has_audio": false}, {"pixel_format": -1, "media_type": "image", "acodec": "", "audio_stream_index": -1, "interlaced_frame": false, "fps": {"num": 30, "den": 1}, "has_single_image": true, "sample_rate": 0, "video_stream_index": -1, "channel_layout": 4, "audio_timebase": {"num": 1, "den": 1}, "id": "V62OPXLIQ5", "display_ratio": {"num": 6803, "den": 3827}, "channels": 0, "has_video": true, "width": 6803, "type": "QtImageReader", "video_timebase": {"num": 1, "den": 30}, "pixel_ratio": {"num": 1, "den": 1}, "top_field_first": true, "file_size": "104140324", "vcodec": "", "path": "/home/milind/Data/Projects/ProgressCard/!040-Slide -Open Libre Calc.svg", "video_bit_rate": 0, "audio_bit_rate": 0, "height": 3827, "video_length": "2592000", "duration": 86400.0, "has_audio": false}, {"pixel_format": 0, "media_type": "video", "acodec": "", "audio_stream_index": -1, "interlaced_frame": false, "fps": {"num": 25, "den": 1}, "has_single_image": false, "sample_rate": 0, "video_stream_index": 0, "channel_layout": 4, "audio_timebase": {"num": 1, "den": 1}, "id": "6Q4ECI0JKX", "display_ratio": {"num": 325, "den": 186}, "channels": 0, "has_video": true, "width": 1300, "type": "FFmpegReader", "video_timebase": {"num": 1, "den": 1000}, "pixel_ratio": {"num": 1, "den": 1}, "top_field_first": true, "file_size": "447833", "vcodec": "h264", "path": "/home/milind/Data/Projects/ProgressCard/!050-Sample Students Data.mkv", "video_bit_rate": 0, "audio_bit_rate": 0, "height": 744, "video_length": "1325", "duration": 53.0, "has_audio": false}, {"pixel_format": 0, "media_type": "video", "acodec": "", "audio_stream_index": -1, "interlaced_frame": false, "fps": {"num": 25, "den": 1}, "has_single_image": false, "sample_rate": 0, "video_stream_index": 0, "channel_layout": 4, "audio_timebase": {"num": 1, "den": 1}, "id": "VQPCDZYTHO", "display_ratio": {"num": 325, "den": 186}, "channels": 0, "has_video": true, "width": 1300, "type": "FFmpegReader", "video_timebase": {"num": 1, "den": 1000}, "pixel_ratio": {"num": 1, "den": 1}, "top_field_first": true, "file_size": "638294", "vcodec": "h264", "path": "/home/milind/Data/Projects/ProgressCard/!060-Total of All Subjects.mkv", "video_bit_rate": 0, "audio_bit_rate": 0, "height": 744, "video_length": "2050", "duration": 82.0, "has_audio": false}, {"pixel_format": 0, "media_type": "video", "acodec": "", "audio_stream_index": -1, "interlaced_frame": false, "fps": {"num": 25, "den": 1}, "has_single_image": false, "sample_rate": 0, "video_stream_index": 0, "channel_layout": 4, "audio_timebase": {"num": 1, "den": 1}, "id": "5CQQB4EVIM", "display_ratio": {"num": 325, "den": 186}, "channels": 0, "has_video": true, "width": 1300, "type": "FFmpegReader", "video_timebase": {"num": 1, "den": 1000}, "pixel_ratio": {"num": 1, "den": 1}, "top_field_first": true, "file_size": "754457", "vcodec": "h264", "path": "/home/milind/Data/Projects/ProgressCard/!070-Calculate Grace Marks.mkv", "video_bit_rate": 0, "audio_bit_rate": 0, "height": 744, "video_length": "2375", "duration": 95.0, "has_audio": false}, {"pixel_format": -1, "media_type": "image", "acodec": "", "audio_stream_index": -1, "interlaced_frame": false, "fps": {"num": 30, "den": 1}, "has_single_image": true, "sample_rate": 0, "video_stream_index": -1, "channel_layout": 4, "audio_timebase": {"num": 1, "den": 1}, "id": "GIMS8XDQW5", "display_ratio": {"num": 6803, "den": 3827}, "channels": 0, "has_video": true, "width": 6803, "type": "QtImageReader", "video_timebase": {"num": 1, "den": 30}, "pixel_ratio": {"num": 1, "den": 1}, "top_field_first": true, "file_size": "104140324", "vcodec": "", "path": "/home/milind/Data/Projects/ProgressCard/!013-Format-Page-Dialog.svg", "video_bit_rate": 0, "audio_bit_rate": 0, "height": 3827, "video_length": "2592000", "duration": 86400.0, "has_audio": false}, {"pixel_format": 0, "media_type": "video", "acodec": "", "audio_stream_index": -1, "interlaced_frame": false, "fps": {"num": 25, "den": 1}, "has_single_image": false, "sample_rate": 0, "video_stream_index": 0, "channel_layout": 4, "audio_timebase": {"num": 1, "den": 1}, "id": "JMYSBVPZGY", "display_ratio": {"num": 325, "den": 186}, "channels": 0, "has_video": true, "width": 1300, "type": "FFmpegReader", "video_timebase": {"num": 1, "den": 1000}, "pixel_ratio": {"num": 1, "den": 1}, "top_field_first": true, "file_size": "31067", "vcodec": "h264", "path": "/home/milind/Data/Projects/ProgressCard/!010-Libre Writer Normal Screen.mkv", "video_bit_rate": 23625, "audio_bit_rate": 0, "height": 744, "video_length": "250", "duration": 10, "has_audio": false}, {"pixel_format": -1, "media_type": "image", "acodec": "", "audio_stream_index": -1, "interlaced_frame": false, "fps": {"num": 30, "den": 1}, "has_single_image": true, "sample_rate": 0, "video_stream_index": -1, "channel_layout": 4, "audio_timebase": {"num": 1, "den": 1}, "id": "EWJO5LAFDV", "display_ratio": {"num": 6803, "den": 3827}, "channels": 0, "has_video": true, "width": 6803, "type": "QtImageReader", "video_timebase": {"num": 1, "den": 30}, "pixel_ratio": {"num": 1, "den": 1}, "top_field_first": true, "file_size": "104140324", "vcodec": "", "path": "/home/milind/Data/Projects/ProgressCard/!065-Calculate Grace Marks.svg", "video_bit_rate": 0, "audio_bit_rate": 0, "height": 3827, "video_length": "2592000", "duration": 86400, "has_audio": false}, {"pixel_format": -1, "media_type": "image", "acodec": "", "audio_stream_index": -1, "interlaced_frame": false, "fps": {"num": 30, "den": 1}, "has_single_image": true, "sample_rate": 0, "video_stream_index": -1, "channel_layout": 4, "audio_timebase": {"num": 1, "den": 1}, "id": "7VACJ3VWTI", "file_size": "104140324", "channels": 0, "has_video": true, "width": 6803, "type": "QtImageReader", "video_timebase": {"num": 1, "den": 30}, "pixel_ratio": {"num": 1, "den": 1}, "top_field_first": true, "display_ratio": {"num": 6803, "den": 3827}, "vcodec": "", "path": "/home/milind/Data/Projects/ProgressCard/!011-Slide-We need only half page.svg", "video_bit_rate": 0, "audio_bit_rate": 0, "height": 3827, "video_length": "2592000", "duration": 86400.0, "has_audio": false}, {"pixel_format": -1, "media_type": "image", "acodec": "", "audio_stream_index": -1, "interlaced_frame": false, "fps": {"num": 30, "den": 1}, "has_single_image": true, "sample_rate": 0, "video_stream_index": -1, "channel_layout": 4, "audio_timebase": {"num": 1, "den": 1}, "id": "CQ9HLHMG6Y", "file_size": "104140324", "channels": 0, "has_video": true, "has_audio": false, "type": "QtImageReader", "video_bit_rate": 0, "width": 6803, "top_field_first": true, "display_ratio": {"num": 6803, "den": 3827}, "vcodec": "", "path": "/home/milind/Data/Projects/ProgressCard/!025-Create Progress Card Template.svg", "pixel_ratio": {"num": 1, "den": 1}, "audio_bit_rate": 0, "height": 3827, "video_length": "2592000", "duration": 86400, "video_timebase": {"num": 1, "den": 30}}, {"pixel_format": -1, "media_type": "image", "acodec": "", "audio_stream_index": -1, "interlaced_frame": false, "fps": {"num": 30, "den": 1}, "has_single_image": true, "sample_rate": 0, "video_stream_index": -1, "channel_layout": 4, "audio_timebase": {"num": 1, "den": 1}, "id": "GOJEXTAQVD", "file_size": "104140324", "channels": 0, "has_video": true, "has_audio": false, "type": "QtImageReader", "video_bit_rate": 0, "width": 6803, "top_field_first": true, "display_ratio": {"num": 6803, "den": 3827}, "vcodec": "", "path": "/home/milind/Data/Projects/ProgressCard/!045-Slide-Sample Students Data.svg", "pixel_ratio": {"num": 1, "den": 1}, "audio_bit_rate": 0, "height": 3827, "video_length": "2592000", "duration": 86400, "video_timebase": {"num": 1, "den": 30}}], "type": "insert", "value": {"pixel_format": -1, "media_type": "image", "video_timebase": {"num": 1, "den": 30}, "acodec": "", "audio_stream_index": -1, "interlaced_frame": false, "fps": {"num": 30, "den": 1}, "has_single_image": true, "sample_rate": 0, "video_stream_index": -1, "channel_layout": 4, "audio_timebase": {"num": 1, "den": 1}, "id": "4N4GFJVUAX", "display_ratio": {"num": 6803, "den": 3827}, "channels": 0, "has_video": true, "type": "QtImageReader", "pixel_ratio": {"num": 1, "den": 1}, "width": 6803, "top_field_first": true, "file_size": "104140324", "vcodec": "", "path": "/home/milind/Data/Projects/ProgressCard/!055-Calculate Total Marks.svg", "video_bit_rate": 0, "audio_bit_rate": 0, "height": 3827, "video_length": "2592000", "duration": 86400, "has_audio": false}}, {"partial": false, "key": ["clips", {"id": "XIG1DXTS01"}], "old_values": {"channel_filter": {"Points": [{"co": {"Y": -1.0, "X": 1.0}, "interpolation": 2}]}, "start": 0, "channel_mapping": {"Points": [{"co": {"Y": -1.0, "X": 1.0}, "interpolation": 2}]}, "rotation": {"Points": [{"co": {"Y": 0.0, "X": 1.0}, "interpolation": 2}]}, "title": "!060-Total of All Subjects.mkv", "crop_width": {"Points": [{"co": {"Y": -1.0, "X": 1.0}, "interpolation": 2}]}, "perspective_c4_x": {"Points": [{"co": {"Y": -1.0, "X": 1.0}, "interpolation": 2}]}, "alpha": {"Points": [{"handle_type": 0, "handle_right": {"Y": 0, "X": 0.5}, "handle_left": {"Y": 1, "X": 0.5}, "co": {"Y": 1, "X": 1}, "interpolation": 0}, {"handle_type": 0, "handle_right": {"Y": 0, "X": 0.5}, "handle_left": {"Y": 1, "X": 0.5}, "co": {"Y": 0, "X": 1}, "interpolation": 0}, {"handle_type": 0, "handle_right": {"Y": 0, "X": 0.5}, "handle_left": {"Y": 1, "X": 0.5}, "co": {"Y": 1, "X": 73}, "interpolation": 0}, {"handle_type": 0, "handle_right": {"Y": 0, "X": 0.5}, "handle_left": {"Y": 1, "X": 0.5}, "co": {"Y": 1, "X": 892}, "interpolation": 0}, {"handle_type": 0, "handle_right": {"Y": 0, "X": 0.5}, "handle_left": {"Y": 1, "X": 0.5}, "co": {"Y": 0, "X": 964}, "interpolation": 0}]}, "crop_x": {"Points": [{"co": {"Y": 0.0, "X": 1.0}, "interpolation": 2}]}, "crop_height": {"Points": [{"co": {"Y": -1.0, "X": 1.0}, "interpolation": 2}]}, "display": 0, "time": {"Points": [{"co": {"Y": 1, "X": 1}, "interpolation": 1}, {"co": {"Y": 1925, "X": 963}, "interpolation": 1}]}, "crop_y": {"Points": [{"co": {"Y": 0.0, "X": 1.0}, "interpolation": 2}]}, "has_video": {"Points": [{"co": {"Y": -1.0, "X": 1.0}, "interpolation": 2}]}, "perspective_c3_y": {"Points": [{"co": {"Y": -1.0, "X": 1.0}, "interpolation": 2}]}, "volume": {"Points": [{"co": {"Y": 1.0, "X": 1.0}, "interpolation": 2}]}, "shear_y": {"Points": [{"co": {"Y": 0.0, "X": 1.0}, "interpolation": 2}]}, "id": "XIG1DXTS01", "gravity": 4, "position": 149.365, "waveform": false, "file_id": "VQPCDZYTHO", "location_y": {"Points": [{"co": {"Y": 0.5199999809265137, "X": 1.0}, "interpolation": 2}]}, "scale_x": {"Points": [{"co": {"Y": 2.299999952316284, "X": 1.0}, "interpolation": 2}]}, "location_x": {"Points": [{"co": {"Y": 0.6200000047683716, "X": 1.0}, "interpolation": 2}, {"co": {"Y": 0.41999998688697815, "X": 265}, "interpolation": 1}]}, "layer": 1, "reader": {"pixel_format": 0, "pixel_ratio": {"num": 1, "den": 1}, "acodec": "", "video_bit_rate": 0, "interlaced_frame": false, "fps": {"num": 25, "den": 1}, "has_single_image": false, "sample_rate": 0, "video_stream_index": 0, "channel_layout": 4, "audio_timebase": {"num": 1, "den": 1}, "video_timebase": {"num": 1, "den": 1000}, "display_ratio": {"num": 325, "den": 186}, "channels": 0, "has_video": true, "type": "FFmpegReader", "width": 1300, "top_field_first": true, "file_size": "638294", "vcodec": "h264", "path": "/home/milind/Data/Projects/ProgressCard/!060-Total of All Subjects.mkv", "audio_stream_index": -1, "audio_bit_rate": 0, "height": 744, "video_length": "2050", "duration": 82.0, "has_audio": false}, "perspective_c4_y": {"Points": [{"co": {"Y": -1.0, "X": 1.0}, "interpolation": 2}]}, "end": 40.125, "wave_color": {"alpha": {"Points": [{"handle_type": 0, "handle_right": {"Y": 0.0, "X": 0.5}, "handle_left": {"Y": 1.0, "X": 0.5}, "co": {"Y": 255.0, "X": 1.0}, "interpolation": 0}]}, "red": {"Points": [{"handle_type": 0, "handle_right": {"Y": 0.0, "X": 0.5}, "handle_left": {"Y": 1.0, "X": 0.5}, "co": {"Y": 0.0, "X": 1.0}, "interpolation": 0}]}, "blue": {"Points": [{"handle_type": 0, "handle_right": {"Y": 0.0, "X": 0.5}, "handle_left": {"Y": 1.0, "X": 0.5}, "co": {"Y": 255.0, "X": 1.0}, "interpolation": 0}]}, "green": {"Points": [{"handle_type": 0, "handle_right": {"Y": 0.0, "X": 0.5}, "handle_left": {"Y": 1.0, "X": 0.5}, "co": {"Y": 123.0, "X": 1.0}, "interpolation": 0}]}}, "perspective_c1_x": {"Points": [{"co": {"Y": -1.0, "X": 1.0}, "interpolation": 2}]}, "has_audio": {"Points": [{"co": {"Y": -1.0, "X": 1.0}, "interpolation": 2}]}, "scale": 1, "anchor": 0, "effects": [], "scale_y": {"Points": [{"co": {"Y": 2.299999952316284, "X": 1.0}, "interpolation": 2}]}, "shear_x": {"Points": [{"co": {"Y": 0.0, "X": 1.0}, "interpolation": 2}]}, "perspective_c2_x": {"Points": [{"co": {"Y": -1.0, "X": 1.0}, "interpolation": 2}]}, "perspective_c1_y": {"Points": [{"co": {"Y": -1.0, "X": 1.0}, "interpolation": 2}]}, "perspective_c3_x": {"Points": [{"co": {"Y": -1.0, "X": 1.0}, "interpolation": 2}]}, "perspective_c2_y": {"Points": [{"co": {"Y": -1.0, "X": 1.0}, "interpolation": 2}]}, "image": "/home/milind/.openshot_qt/thumbnail/VQPCDZYTHO.png", "duration": 40.0}, "type": "update", "value": {"start": 0, "layer": 1, "end": 40.125, "image": "/home/milind/.openshot_qt/thumbnail/VQPCDZYTHO.png", "position": 145.915, "id": "XIG1DXTS01"}}, {"partial": false, "key": ["clips"], "old_values": [{"channel_filter": {"Points": [{"co": {"Y": -1.0, "X": 1.0}, "interpolation": 2}]}, "start": 0, "channel_mapping": {"Points": [{"co": {"Y": -1.0, "X": 1.0}, "interpolation": 2}]}, "rotation": {"Points": [{"co": {"Y": 0.0, "X": 1.0}, "interpolation": 2}]}, "title": "!020-Redice Page Height 21x13 to Save Paper.mkv", "crop_width": {"Points": [{"co": {"Y": -1.0, "X": 1.0}, "interpolation": 2}]}, "position": 28.96, "alpha": {"Points": [{"handle_type": 0, "handle_right": {"Y": 0, "X": 0.5}, "handle_left": {"Y": 1, "X": 0.5}, "co": {"Y": 1, "X": 1}, "interpolation": 0}, {"handle_type": 0, "handle_right": {"Y": 0, "X": 0.5}, "handle_left": {"Y": 1, "X": 0.5}, "co": {"Y": 0, "X": 1}, "interpolation": 0}, {"handle_type": 0, "handle_right": {"Y": 0, "X": 0.5}, "handle_left": {"Y": 1, "X": 0.5}, "co": {"Y": 1, "X": 73}, "interpolation": 0}, {"handle_type": 0, "handle_right": {"Y": 0, "X": 0.5}, "handle_left": {"Y": 1, "X": 0.5}, "co": {"Y": 1, "X": 543}, "interpolation": 0}, {"handle_type": 0, "handle_right": {"Y": 0, "X": 0.5}, "handle_left": {"Y": 1, "X": 0.5}, "co": {"Y": 0, "X": 615}, "interpolation": 0}]}, "crop_x": {"Points": [{"co": {"Y": 0.0, "X": 1.0}, "interpolation": 2}]}, "crop_height": {"Points": [{"co": {"Y": -1.0, "X": 1.0}, "interpolation": 2}]}, "location_y": {"Points": [{"handle_type": 0, "handle_right": {"Y": 0, "X": 0.5}, "handle_left": {"Y": 1, "X": 0.5}, "co": {"Y": 0, "X": 1}, "interpolation": 0}, {"co": {"Y": 0.1599999964237213, "X": 183}, "interpolation": 1}, {"co": {"Y": 0.0, "X": 104}, "interpolation": 1}, {"co": {"Y": 0.0, "X": 615}, "interpolation": 1}, {"co": {"Y": 0.1599999964237213, "X": 498}, "interpolation": 1}]}, "time": {"Points": [{"co": {"Y": 1.0, "X": 1.0}, "interpolation": 2}]}, "perspective_c2_x": {"Points": [{"co": {"Y": -1.0, "X": 1.0}, "interpolation": 2}]}, "has_video": {"Points": [{"co": {"Y": -1.0, "X": 1.0}, "interpolation": 2}]}, "perspective_c3_y": {"Points": [{"co": {"Y": -1.0, "X": 1.0}, "interpolation": 2}]}, "volume": {"Points": [{"co": {"Y": 1.0, "X": 1.0}, "interpolation": 2}]}, "shear_y": {"Points": [{"co": {"Y": 0.0, "X": 1.0}, "interpolation": 2}]}, "id": "O2YU232VRL", "gravity": 4, "perspective_c2_y": {"Points": [{"co": {"Y": -1.0, "X": 1.0}, "interpolation": 2}]}, "waveform": false, "file_id": "LH1LTFW4JK", "display": 0, "scale_x": {"Points": [{"handle_type": 0, "handle_right": {"Y": 0, "X": 0.5}, "handle_left": {"Y": 1, "X": 0.5}, "co": {"Y": 1.2000000476837158, "X": 1}, "interpolation": 0}, {"co": {"Y": 2.0, "X": 183}, "interpolation": 1}, {"co": {"Y": 1.2000000476837158, "X": 104}, "interpolation": 1}, {"co": {"Y": 1.2000000476837158, "X": 615}, "interpolation": 1}, {"co": {"Y": 2.0, "X": 498}, "interpolation": 1}]}, "layer": 2, "location_x": {"Points": [{"handle_type": 0, "handle_right": {"Y": 0, "X": 0.5}, "handle_left": {"Y": 1, "X": 0.5}, "co": {"Y": 0, "X": 1}, "interpolation": 0}, {"co": {"Y": 0.05999999865889549, "X": 183}, "interpolation": 1}, {"co": {"Y": 0.0, "X": 104}, "interpolation": 1}, {"co": {"Y": 0.0, "X": 615}, "interpolation": 1}, {"co": {"Y": 0.05999999865889549, "X": 498}, "interpolation": 1}]}, "scale": 1, "crop_y": {"Points": [{"co": {"Y": 0.0, "X": 1.0}, "interpolation": 2}]}, "image": "/home/milind/.openshot_qt/thumbnail/LH1LTFW4JK.png", "perspective_c3_x": {"Points": [{"co": {"Y": -1.0, "X": 1.0}, "interpolation": 2}]}, "end": 25.59166666666666, "perspective_c1_x": {"Points": [{"co": {"Y": -1.0, "X": 1.0}, "interpolation": 2}]}, "reader": {"pixel_format": 0, "pixel_ratio": {"num": 1, "den": 1}, "acodec": "", "video_bit_rate": 0, "interlaced_frame": false, "fps": {"num": 25, "den": 1}, "has_single_image": false, "sample_rate": 0, "video_stream_index": 0, "channel_layout": 4, "audio_timebase": {"num": 1, "den": 1}, "video_timebase": {"num": 1, "den": 1000}, "display_ratio": {"num": 683, "den": 384}, "channels": 0, "has_video": true, "type": "FFmpegReader", "width": 1366, "top_field_first": true, "file_size": "263859", "vcodec": "h264", "path": "/home/milind/Data/Projects/ProgressCard/!020-Redice Page Height 21x13 to Save Paper.mkv", "audio_stream_index": -1, "audio_bit_rate": 0, "height": 768, "video_length": "900", "duration": 36.0, "has_audio": false}, "anchor": 0, "has_audio": {"Points": [{"co": {"Y": -1.0, "X": 1.0}, "interpolation": 2}]}, "scale_y": {"Points": [{"handle_type": 0, "handle_right": {"Y": 0, "X": 0.5}, "handle_left": {"Y": 1, "X": 0.5}, "co": {"Y": 1.2000000476837158, "X": 1}, "interpolation": 0}, {"co": {"Y": 2.0, "X": 183}, "interpolation": 1}, {"co": {"Y": 1.2000000476837158, "X": 104}, "interpolation": 1}, {"co": {"Y": 1.2000000476837158, "X": 615}, "interpolation": 1}, {"co": {"Y": 2.0, "X": 498}, "interpolation": 1}]}, "shear_x": {"Points": [{"co": {"Y": 0.0, "X": 1.0}, "interpolation": 2}]}, "perspective_c4_y": {"Points": [{"co": {"Y": -1.0, "X": 1.0}, "interpolation": 2}]}, "perspective_c1_y": {"Points": [{"co": {"Y": -1.0, "X": 1.0}, "interpolation": 2}]}, "perspective_c4_x": {"Points": [{"co": {"Y": -1.0, "X": 1.0}, "interpolation": 2}]}, "effects": [], "wave_color": {"alpha": {"Points": [{"handle_type": 0, "handle_right": {"Y": 0.0, "X": 0.5}, "handle_left": {"Y": 1.0, "X": 0.5}, "co": {"Y": 255.0, "X": 1.0}, "interpolation": 0}]}, "red": {"Points": [{"handle_type": 0, "handle_right": {"Y": 0.0, "X": 0.5}, "handle_left": {"Y": 1.0, "X": 0.5}, "co": {"Y": 0.0, "X": 1.0}, "interpolation": 0}]}, "blue": {"Points": [{"handle_type": 0, "handle_right": {"Y": 0.0, "X": 0.5}, "handle_left": {"Y": 1.0, "X": 0.5}, "co": {"Y": 255.0, "X": 1.0}, "interpolation": 0}]}, "green": {"Points": [{"handle_type": 0, "handle_right": {"Y": 0.0, "X": 0.5}, "handle_left": {"Y": 1.0, "X": 0.5}, "co": {"Y": 123.0, "X": 1.0}, "interpolation": 0}]}}, "duration": 36.0}, {"channel_filter": {"Points": [{"co": {"Y": -1.0, "X": 1.0}, "interpolation": 2}]}, "start": 0.13666666666667027, "channel_mapping": {"Points": [{"co": {"Y": -1.0, "X": 1.0}, "interpolation": 2}]}, "rotation": {"Points": [{"co": {"Y": 0.0, "X": 1.0}, "interpolation": 2}]}, "title": "!030-Create Progress Card Template.mkv", "perspective_c4_x": {"Points": [{"co": {"Y": -1.0, "X": 1.0}, "interpolation": 2}]}, "alpha": {"Points": [{"handle_type": 0, "handle_left": {"Y": 1, "X": 0.5}, "handle_right": {"Y": 0, "X": 0.5}, "co": {"Y": 1, "X": 1}, "interpolation": 0}, {"handle_type": 0, "handle_left": {"Y": 1, "X": 0.5}, "handle_right": {"Y": 0, "X": 0.5}, "co": {"Y": 0, "X": 4}, "interpolation": 0}, {"handle_type": 0, "handle_left": {"Y": 1, "X": 0.5}, "handle_right": {"Y": 0, "X": 0.5}, "co": {"Y": 1, "X": 76}, "interpolation": 0}, {"handle_type": 0, "handle_left": {"Y": 1, "X": 0.5}, "interpolation": 0, "co": {"Y": 1, "X": 803}, "handle_right": {"Y": 0, "X": 0.5}}, {"handle_type": 0, "handle_left": {"Y": 1, "X": 0.5}, "interpolation": 0, "co": {"Y": 0, "X": 875}, "handle_right": {"Y": 0, "X": 0.5}}]}, "crop_x": {"Points": [{"co": {"Y": 0.0, "X": 1.0}, "interpolation": 2}]}, "crop_height": {"Points": [{"co": {"Y": -1.0, "X": 1.0}, "interpolation": 2}]}, "location_y": {"Points": [{"handle_type": 0, "handle_right": {"Y": 0, "X": 0.5}, "handle_left": {"Y": 1, "X": 0.5}, "co": {"Y": 0, "X": 1}, "interpolation": 0}]}, "time": {"Points": [{"co": {"Y": 1.0, "X": 1.0}, "interpolation": 2}]}, "has_video": {"Points": [{"co": {"Y": -1.0, "X": 1.0}, "interpolation": 2}]}, "scale_x": {"Points": [{"handle_type": 0, "handle_right": {"Y": 0, "X": 0.5}, "handle_left": {"Y": 1, "X": 0.5}, "co": {"Y": 1, "X": 1}, "interpolation": 0}, {"co": {"Y": 1.2000000476837158, "X": 4}, "interpolation": 1}, {"co": {"Y": 2.0, "X": 648}, "interpolation": 1}, {"co": {"Y": 2.0, "X": 522}, "interpolation": 1}, {"co": {"Y": 1.2000000476837158, "X": 768}, "interpolation": 1}]}, "perspective_c3_y": {"Points": [{"co": {"Y": -1.0, "X": 1.0}, "interpolation": 2}]}, "volume": {"Points": [{"co": {"Y": 1.0, "X": 1.0}, "interpolation": 2}]}, "shear_y": {"Points": [{"co": {"Y": 0.0, "X": 1.0}, "interpolation": 2}]}, "id": "TTIRD7551Y", "gravity": 4, "perspective_c2_y": {"Points": [{"co": {"Y": -1.0, "X": 1.0}, "interpolation": 2}]}, "waveform": false, "file_id": "0CRU9IJ6JU", "display": 0, "effects": [], "location_x": {"Points": [{"handle_type": 0, "handle_right": {"Y": 0, "X": 0.5}, "handle_left": {"Y": 1, "X": 0.5}, "co": {"Y": 0, "X": 1}, "interpolation": 0}, {"co": {"Y": -0.014999999664723873, "X": 648}, "interpolation": 1}, {"co": {"Y": -0.014999999664723873, "X": 522}, "interpolation": 1}, {"co": {"Y": 0.0, "X": 768}, "interpolation": 1}]}, "layer": 1, "anchor": 0, "crop_y": {"Points": [{"co": {"Y": 0.0, "X": 1.0}, "interpolation": 2}]}, "image": "/home/milind/.openshot_qt/thumbnail/TTIRD7551Y-4.png", "wave_color": {"alpha": {"Points": [{"handle_type": 0, "handle_right": {"Y": 0.0, "X": 0.5}, "handle_left": {"Y": 1.0, "X": 0.5}, "co": {"Y": 255.0, "X": 1.0}, "interpolation": 0}]}, "red": {"Points": [{"handle_type": 0, "handle_right": {"Y": 0.0, "X": 0.5}, "handle_left": {"Y": 1.0, "X": 0.5}, "co": {"Y": 0.0, "X": 1.0}, "interpolation": 0}]}, "blue": {"Points": [{"handle_type": 0, "handle_right": {"Y": 0.0, "X": 0.5}, "handle_left": {"Y": 1.0, "X": 0.5}, "co": {"Y": 255.0, "X": 1.0}, "interpolation": 0}]}, "green": {"Points": [{"handle_type": 0, "handle_right": {"Y": 0.0, "X": 0.5}, "handle_left": {"Y": 1.0, "X": 0.5}, "co": {"Y": 123.0, "X": 1.0}, "interpolation": 0}]}}, "perspective_c1_x": {"Points": [{"co": {"Y": -1.0, "X": 1.0}, "interpolation": 2}]}, "duration": 41.0, "scale": 1, "crop_width": {"Points": [{"co": {"Y": -1.0, "X": 1.0}, "interpolation": 2}]}, "has_audio": {"Points": [{"co": {"Y": -1.0, "X": 1.0}, "interpolation": 2}]}, "scale_y": {"Points": [{"handle_type": 0, "handle_right": {"Y": 0, "X": 0.5}, "handle_left": {"Y": 1, "X": 0.5}, "co": {"Y": 1, "X": 1}, "interpolation": 0}, {"co": {"Y": 1.2000000476837158, "X": 4}, "interpolation": 1}, {"co": {"Y": 2.0, "X": 648}, "interpolation": 1}, {"co": {"Y": 2.0, "X": 522}, "interpolation": 1}, {"co": {"Y": 1.2000000476837158, "X": 768}, "interpolation": 1}]}, "shear_x": {"Points": [{"co": {"Y": 0.0, "X": 1.0}, "interpolation": 2}]}, "perspective_c4_y": {"Points": [{"co": {"Y": -1.0, "X": 1.0}, "interpolation": 2}]}, "perspective_c1_y": {"Points": [{"co": {"Y": -1.0, "X": 1.0}, "interpolation": 2}]}, "perspective_c3_x": {"Points": [{"co": {"Y": -1.0, "X": 1.0}, "interpolation": 2}]}, "position": 54.37, "reader": {"pixel_format": 0, "pixel_ratio": {"num": 1, "den": 1}, "acodec": "", "video_bit_rate": 0, "interlaced_frame": false, "fps": {"num": 25, "den": 1}, "has_single_image": false, "sample_rate": 0, "video_stream_index": 0, "channel_layout": 4, "audio_timebase": {"num": 1, "den": 1}, "video_timebase": {"num": 1, "den": 1000}, "display_ratio": {"num": 683, "den": 384}, "channels": 0, "has_video": true, "type": "FFmpegReader", "width": 1366, "top_field_first": true, "file_size": "345131", "vcodec": "h264", "path": "/home/milind/Data/Projects/ProgressCard/!030-Create Progress Card Template.mkv", "audio_stream_index": -1, "audio_bit_rate": 0, "height": 768, "video_length": "1025", "duration": 41.0, "has_audio": false}, "perspective_c2_x": {"Points": [{"co": {"Y": -1.0, "X": 1.0}, "interpolation": 2}]}, "end": 36.433333333333344}, {"channel_filter": {"Points": [{"co": {"Y": -1.0, "X": 1.0}, "interpolation": 2}]}, "start": 0, "channel_mapping": {"Points": [{"co": {"Y": -1.0, "X": 1.0}, "interpolation": 2}]}, "rotation": {"Points": [{"co": {"Y": 0.0, "X": 1.0}, "interpolation": 2}]}, "title": "01-White-Background.svg", "alpha": {"Points": [{"co": {"Y": 1.0, "X": 1.0}, "interpolation": 2}]}, "crop_x": {"Points": [{"co": {"Y": 0.0, "X": 1.0}, "interpolation": 2}]}, "crop_height": {"Points": [{"co": {"Y": -1.0, "X": 1.0}, "interpolation": 2}]}, "display": 0, "perspective_c4_y": {"Points": [{"co": {"Y": -1.0, "X": 1.0}, "interpolation": 2}]}, "time": {"Points": [{"co": {"Y": 1.0, "X": 1.0}, "interpolation": 2}]}, "has_video": {"Points": [{"co": {"Y": -1.0, "X": 1.0}, "interpolation": 2}]}, "perspective_c3_y": {"Points": [{"co": {"Y": -1.0, "X": 1.0}, "interpolation": 2}]}, "volume": {"Points": [{"co": {"Y": 1.0, "X": 1.0}, "interpolation": 2}]}, "shear_y": {"Points": [{"co": {"Y": 0.0, "X": 1.0}, "interpolation": 2}]}, "effects": [], "id": "3IJL49SBNP", "gravity": 4, "perspective_c2_y": {"Points": [{"co": {"Y": -1.0, "X": 1.0}, "interpolation": 2}]}, "waveform": false, "file_id": "TDIZ1HFAHG", "location_y": {"Points": [{"co": {"Y": 0.0, "X": 1.0}, "interpolation": 2}]}, "scale_x": {"Points": [{"co": {"Y": 1.0, "X": 1.0}, "interpolation": 2}, {"co": {"Y": 2.0, "X": 1567}, "interpolation": 1}]}, "location_x": {"Points": [{"co": {"Y": 0.0, "X": 1.0}, "interpolation": 2}]}, "layer": 0, "crop_width": {"Points": [{"co": {"Y": -1.0, "X": 1.0}, "interpolation": 2}]}, "crop_y": {"Points": [{"co": {"Y": 0.0, "X": 1.0}, "interpolation": 2}]}, "end": 62.319999999999986, "perspective_c3_x": {"Points": [{"co": {"Y": -1.0, "X": 1.0}, "interpolation": 2}]}, "duration": 86400.0, "perspective_c1_x": {"Points": [{"co": {"Y": -1.0, "X": 1.0}, "interpolation": 2}]}, "has_audio": {"Points": [{"co": {"Y": -1.0, "X": 1.0}, "interpolation": 2}]}, "scale": 1, "anchor": 0, "wave_color": {"alpha": {"Points": [{"handle_type": 0, "handle_right": {"Y": 0.0, "X": 0.5}, "handle_left": {"Y": 1.0, "X": 0.5}, "co": {"Y": 255.0, "X": 1.0}, "interpolation": 0}]}, "red": {"Points": [{"handle_type": 0, "handle_right": {"Y": 0.0, "X": 0.5}, "handle_left": {"Y": 1.0, "X": 0.5}, "co": {"Y": 0.0, "X": 1.0}, "interpolation": 0}]}, "blue": {"Points": [{"handle_type": 0, "handle_right": {"Y": 0.0, "X": 0.5}, "handle_left": {"Y": 1.0, "X": 0.5}, "co": {"Y": 255.0, "X": 1.0}, "interpolation": 0}]}, "green": {"Points": [{"handle_type": 0, "handle_right": {"Y": 0.0, "X": 0.5}, "handle_left": {"Y": 1.0, "X": 0.5}, "co": {"Y": 123.0, "X": 1.0}, "interpolation": 0}]}}, "scale_y": {"Points": [{"co": {"Y": 1.0, "X": 1.0}, "interpolation": 2}, {"co": {"Y": 2.0, "X": 1567}, "interpolation": 1}]}, "shear_x": {"Points": [{"co": {"Y": 0.0, "X": 1.0}, "interpolation": 2}]}, "perspective_c2_x": {"Points": [{"co": {"Y": -1.0, "X": 1.0}, "interpolation": 2}]}, "perspective_c1_y": {"Points": [{"co": {"Y": -1.0, "X": 1.0}, "interpolation": 2}]}, "perspective_c4_x": {"Points": [{"co": {"Y": -1.0, "X": 1.0}, "interpolation": 2}]}, "position": 0, "image": "/home/milind/.openshot_qt/thumbnail/TDIZ1HFAHG.png", "reader": {"pixel_format": -1, "pixel_ratio": {"num": 1, "den": 1}, "acodec": "", "video_bit_rate": 0, "interlaced_frame": false, "fps": {"num": 30, "den": 1}, "has_single_image": true, "sample_rate": 0, "video_stream_index": -1, "channel_layout": 4, "audio_timebase": {"num": 1, "den": 1}, "video_timebase": {"num": 1, "den": 30}, "display_ratio": {"num": 16, "den": 9}, "channels": 0, "has_video": true, "type": "QtImageReader", "width": 1920, "top_field_first": true, "file_size": "8294400", "vcodec": "", "path": "/home/milind/Data/Projects/ProgressCard/Images/01-White-Background.svg", "audio_stream_index": -1, "audio_bit_rate": 0, "height": 1080, "video_length": "2592000", "duration": 86400.0, "has_audio": false}}, {"channel_filter": {"Points": [{"co": {"Y": -1.0, "X": 1.0}, "interpolation": 2}]}, "start": 0, "channel_mapping": {"Points": [{"co": {"Y": -1.0, "X": 1.0}, "interpolation": 2}]}, "rotation": {"Points": [{"co": {"Y": 0.0, "X": 1.0}, "interpolation": 2}]}, "title": "01-White-Background.svg", "perspective_c4_x": {"Points": [{"co": {"Y": -1.0, "X": 1.0}, "interpolation": 2}]}, "alpha": {"Points": [{"co": {"Y": 1.0, "X": 1.0}, "interpolation": 2}]}, "crop_x": {"Points": [{"co": {"Y": 0.0, "X": 1.0}, "interpolation": 2}]}, "crop_height": {"Points": [{"co": {"Y": -1.0, "X": 1.0}, "interpolation": 2}]}, "location_y": {"Points": [{"co": {"Y": 0.0, "X": 1.0}, "interpolation": 2}]}, "perspective_c4_y": {"Points": [{"co": {"Y": -1.0, "X": 1.0}, "interpolation": 2}]}, "time": {"Points": [{"co": {"Y": 1.0, "X": 1.0}, "interpolation": 2}]}, "perspective_c2_x": {"Points": [{"co": {"Y": -1.0, "X": 1.0}, "interpolation": 2}]}, "scale_x": {"Points": [{"co": {"Y": 1.0, "X": 1.0}, "interpolation": 2}]}, "perspective_c3_y": {"Points": [{"co": {"Y": -1.0, "X": 1.0}, "interpolation": 2}]}, "volume": {"Points": [{"co": {"Y": 1.0, "X": 1.0}, "interpolation": 2}]}, "shear_y": {"Points": [{"co": {"Y": 0.0, "X": 1.0}, "interpolation": 2}]}, "id": "WALX2TP5RQ", "gravity": 4, "position": 86.375, "waveform": false, "file_id": "TDIZ1HFAHG", "display": 0, "has_video": {"Points": [{"co": {"Y": -1.0, "X": 1.0}, "interpolation": 2}]}, "layer": 0, "location_x": {"Points": [{"co": {"Y": 0.0, "X": 1.0}, "interpolation": 2}]}, "scale": 1, "crop_y": {"Points": [{"co": {"Y": 0.0, "X": 1.0}, "interpolation": 2}]}, "image": "/home/milind/.openshot_qt/thumbnail/TDIZ1HFAHG.png", "wave_color": {"alpha": {"Points": [{"handle_type": 0, "handle_right": {"Y": 0.0, "X": 0.5}, "handle_left": {"Y": 1.0, "X": 0.5}, "co": {"Y": 255.0, "X": 1.0}, "interpolation": 0}]}, "red": {"Points": [{"handle_type": 0, "handle_right": {"Y": 0.0, "X": 0.5}, "handle_left": {"Y": 1.0, "X": 0.5}, "co": {"Y": 0.0, "X": 1.0}, "interpolation": 0}]}, "blue": {"Points": [{"handle_type": 0, "handle_right": {"Y": 0.0, "X": 0.5}, "handle_left": {"Y": 1.0, "X": 0.5}, "co": {"Y": 255.0, "X": 1.0}, "interpolation": 0}]}, "green": {"Points": [{"handle_type": 0, "handle_right": {"Y": 0.0, "X": 0.5}, "handle_left": {"Y": 1.0, "X": 0.5}, "co": {"Y": 123.0, "X": 1.0}, "interpolation": 0}]}}, "duration": 86400.0, "perspective_c1_x": {"Points": [{"co": {"Y": -1.0, "X": 1.0}, "interpolation": 2}]}, "has_audio": {"Points": [{"co": {"Y": -1.0, "X": 1.0}, "interpolation": 2}]}, "crop_width": {"Points": [{"co": {"Y": -1.0, "X": 1.0}, "interpolation": 2}]}, "anchor": 0, "effects": [], "scale_y": {"Points": [{"co": {"Y": 1.0, "X": 1.0}, "interpolation": 2}]}, "shear_x": {"Points": [{"co": {"Y": 0.0, "X": 1.0}, "interpolation": 2}]}, "end": 16.88, "perspective_c1_y": {"Points": [{"co": {"Y": -1.0, "X": 1.0}, "interpolation": 2}]}, "perspective_c3_x": {"Points": [{"co": {"Y": -1.0, "X": 1.0}, "interpolation": 2}]}, "perspective_c2_y": {"Points": [{"co": {"Y": -1.0, "X": 1.0}, "interpolation": 2}]}, "reader": {"pixel_format": -1, "pixel_ratio": {"num": 1, "den": 1}, "acodec": "", "video_bit_rate": 0, "interlaced_frame": false, "fps": {"num": 30, "den": 1}, "has_single_image": true, "sample_rate": 0, "video_stream_index": -1, "channel_layout": 4, "audio_timebase": {"num": 1, "den": 1}, "video_timebase": {"num": 1, "den": 30}, "display_ratio": {"num": 16, "den": 9}, "channels": 0, "has_video": true, "type": "QtImageReader", "width": 1920, "top_field_first": true, "file_size": "8294400", "vcodec": "", "path": "/home/milind/Data/Projects/ProgressCard/Images/01-White-Background.svg", "audio_stream_index": -1, "audio_bit_rate": 0, "height": 1080, "video_length": "2592000", "duration": 86400.0, "has_audio": false}}, {"channel_filter": {"Points": [{"co": {"Y": -1.0, "X": 1.0}, "interpolation": 2}]}, "start": 0, "channel_mapping": {"Points": [{"co": {"Y": -1.0, "X": 1.0}, "interpolation": 2}]}, "rotation": {"Points": [{"co": {"Y": 0.0, "X": 1.0}, "interpolation": 2}]}, "title": "!050-Sample Students Data.mkv", "perspective_c4_x": {"Points": [{"co": {"Y": -1.0, "X": 1.0}, "interpolation": 2}]}, "alpha": {"Points": [{"handle_type": 0, "handle_right": {"Y": 0.0, "X": 0.5}, "handle_left": {"Y": 1.0, "X": 0.5}, "co": {"Y": 1.0, "X": 1.0}, "interpolation": 0}, {"handle_type": 0, "handle_right": {"Y": 0.0, "X": 0.5}, "handle_left": {"Y": 1.0, "X": 0.5}, "co": {"Y": 0.0, "X": 1.0}, "interpolation": 0}, {"handle_type": 0, "handle_right": {"Y": 0.0, "X": 0.5}, "handle_left": {"Y": 1.0, "X": 0.5}, "co": {"Y": 1.0, "X": 73.0}, "interpolation": 0}, {"handle_type": 0, "handle_right": {"Y": 0.0, "X": 0.5}, "handle_left": {"Y": 1.0, "X": 0.5}, "co": {"Y": 1.0, "X": 1135.0}, "interpolation": 0}, {"handle_type": 0, "handle_right": {"Y": 0.0, "X": 0.5}, "handle_left": {"Y": 1.0, "X": 0.5}, "co": {"Y": 0.0, "X": 1207.0}, "interpolation": 0}]}, "crop_x": {"Points": [{"co": {"Y": 0.0, "X": 1.0}, "interpolation": 2}]}, "crop_height": {"Points": [{"co": {"Y": -1.0, "X": 1.0}, "interpolation": 2}]}, "location_y": {"Points": [{"co": {"Y": 0.0, "X": 1.0}, "interpolation": 2}, {"co": {"Y": 0.5199999809265137, "X": 279}, "interpolation": 1}]}, "perspective_c4_y": {"Points": [{"co": {"Y": -1.0, "X": 1.0}, "interpolation": 2}]}, "time": {"Points": [{"co": {"Y": 1.0, "X": 1.0}, "interpolation": 2}]}, "perspective_c2_x": {"Points": [{"co": {"Y": -1.0, "X": 1.0}, "interpolation": 2}]}, "scale_x": {"Points": [{"co": {"Y": 1.0, "X": 1.0}, "interpolation": 2}, {"co": {"Y": 2.299999952316284, "X": 279}, "interpolation": 1}]}, "perspective_c3_y": {"Points": [{"co": {"Y": -1.0, "X": 1.0}, "interpolation": 2}]}, "volume": {"Points": [{"co": {"Y": 1.0, "X": 1.0}, "interpolation": 2}]}, "shear_y": {"Points": [{"co": {"Y": 0.0, "X": 1.0}, "interpolation": 2}]}, "id": "XXQSWHAJ46", "gravity": 4, "position": 95.665, "waveform": false, "file_id": "6Q4ECI0JKX", "display": 0, "has_video": {"Points": [{"co": {"Y": -1.0, "X": 1.0}, "interpolation": 2}]}, "layer": 1, "location_x": {"Points": [{"co": {"Y": 0.0, "X": 1.0}, "interpolation": 2}, {"co": {"Y": 0.6200000047683716, "X": 279}, "interpolation": 1}]}, "scale": 1, "crop_y": {"Points": [{"co": {"Y": 0.0, "X": 1.0}, "interpolation": 2}]}, "image": "/home/milind/.openshot_qt/thumbnail/6Q4ECI0JKX.png", "wave_color": {"alpha": {"Points": [{"handle_type": 0, "handle_right": {"Y": 0.0, "X": 0.5}, "handle_left": {"Y": 1.0, "X": 0.5}, "co": {"Y": 255.0, "X": 1.0}, "interpolation": 0}]}, "red": {"Points": [{"handle_type": 0, "handle_right": {"Y": 0.0, "X": 0.5}, "handle_left": {"Y": 1.0, "X": 0.5}, "co": {"Y": 0.0, "X": 1.0}, "interpolation": 0}]}, "blue": {"Points": [{"handle_type": 0, "handle_right": {"Y": 0.0, "X": 0.5}, "handle_left": {"Y": 1.0, "X": 0.5}, "co": {"Y": 255.0, "X": 1.0}, "interpolation": 0}]}, "green": {"Points": [{"handle_type": 0, "handle_right": {"Y": 0.0, "X": 0.5}, "handle_left": {"Y": 1.0, "X": 0.5}, "co": {"Y": 123.0, "X": 1.0}, "interpolation": 0}]}}, "duration": 53.0, "perspective_c1_x": {"Points": [{"co": {"Y": -1.0, "X": 1.0}, "interpolation": 2}]}, "has_audio": {"Points": [{"co": {"Y": -1.0, "X": 1.0}, "interpolation": 2}]}, "crop_width": {"Points": [{"co": {"Y": -1.0, "X": 1.0}, "interpolation": 2}]}, "anchor": 0, "effects": [], "scale_y": {"Points": [{"co": {"Y": 1.0, "X": 1.0}, "interpolation": 2}, {"co": {"Y": 2.299999952316284, "X": 279}, "interpolation": 1}]}, "shear_x": {"Points": [{"co": {"Y": 0.0, "X": 1.0}, "interpolation": 2}]}, "end": 50.25000000000003, "perspective_c1_y": {"Points": [{"co": {"Y": -1.0, "X": 1.0}, "interpolation": 2}]}, "perspective_c3_x": {"Points": [{"co": {"Y": -1.0, "X": 1.0}, "interpolation": 2}]}, "perspective_c2_y": {"Points": [{"co": {"Y": -1.0, "X": 1.0}, "interpolation": 2}]}, "reader": {"pixel_format": 0, "pixel_ratio": {"num": 1, "den": 1}, "acodec": "", "video_bit_rate": 0, "interlaced_frame": false, "fps": {"num": 25, "den": 1}, "has_single_image": false, "sample_rate": 0, "video_stream_index": 0, "channel_layout": 4, "audio_timebase": {"num": 1, "den": 1}, "video_timebase": {"num": 1, "den": 1000}, "display_ratio": {"num": 325, "den": 186}, "channels": 0, "has_video": true, "type": "FFmpegReader", "width": 1300, "top_field_first": true, "file_size": "447833", "vcodec": "h264", "path": "/home/milind/Data/Projects/ProgressCard/!050-Sample Students Data.mkv", "audio_stream_index": -1, "audio_bit_rate": 0, "height": 744, "video_length": "1325", "duration": 53.0, "has_audio": false}}, {"channel_filter": {"Points": [{"co": {"Y": -1.0, "X": 1.0}, "interpolation": 2}]}, "start": 0, "channel_mapping": {"Points": [{"co": {"Y": -1.0, "X": 1.0}, "interpolation": 2}]}, "rotation": {"Points": [{"co": {"Y": 0.0, "X": 1.0}, "interpolation": 2}]}, "title": "!060-Total of All Subjects.mkv", "perspective_c4_x": {"Points": [{"co": {"Y": -1.0, "X": 1.0}, "interpolation": 2}]}, "alpha": {"Points": [{"handle_type": 0, "handle_right": {"Y": 0, "X": 0.5}, "handle_left": {"Y": 1, "X": 0.5}, "co": {"Y": 1, "X": 1}, "interpolation": 0}, {"handle_type": 0, "handle_right": {"Y": 0, "X": 0.5}, "handle_left": {"Y": 1, "X": 0.5}, "co": {"Y": 0, "X": 1}, "interpolation": 0}, {"handle_type": 0, "handle_right": {"Y": 0, "X": 0.5}, "handle_left": {"Y": 1, "X": 0.5}, "co": {"Y": 1, "X": 73}, "interpolation": 0}, {"handle_type": 0, "handle_right": {"Y": 0, "X": 0.5}, "handle_left": {"Y": 1, "X": 0.5}, "co": {"Y": 1, "X": 892}, "interpolation": 0}, {"handle_type": 0, "handle_right": {"Y": 0, "X": 0.5}, "handle_left": {"Y": 1, "X": 0.5}, "co": {"Y": 0, "X": 964}, "interpolation": 0}]}, "crop_x": {"Points": [{"co": {"Y": 0.0, "X": 1.0}, "interpolation": 2}]}, "crop_height": {"Points": [{"co": {"Y": -1.0, "X": 1.0}, "interpolation": 2}]}, "location_y": {"Points": [{"co": {"Y": 0.5199999809265137, "X": 1.0}, "interpolation": 2}]}, "perspective_c4_y": {"Points": [{"co": {"Y": -1.0, "X": 1.0}, "interpolation": 2}]}, "time": {"Points": [{"co": {"Y": 1, "X": 1}, "interpolation": 1}, {"co": {"Y": 1925, "X": 963}, "interpolation": 1}]}, "perspective_c2_x": {"Points": [{"co": {"Y": -1.0, "X": 1.0}, "interpolation": 2}]}, "has_video": {"Points": [{"co": {"Y": -1.0, "X": 1.0}, "interpolation": 2}]}, "perspective_c3_y": {"Points": [{"co": {"Y": -1.0, "X": 1.0}, "interpolation": 2}]}, "volume": {"Points": [{"co": {"Y": 1.0, "X": 1.0}, "interpolation": 2}]}, "shear_y": {"Points": [{"co": {"Y": 0.0, "X": 1.0}, "interpolation": 2}]}, "id": "XIG1DXTS01", "gravity": 4, "position": 145.915, "waveform": false, "file_id": "VQPCDZYTHO", "display": 0, "scale_x": {"Points": [{"co": {"Y": 2.299999952316284, "X": 1.0}, "interpolation": 2}]}, "layer": 1, "location_x": {"Points": [{"co": {"Y": 0.6200000047683716, "X": 1.0}, "interpolation": 2}, {"co": {"Y": 0.41999998688697815, "X": 265}, "interpolation": 1}]}, "scale": 1, "crop_y": {"Points": [{"co": {"Y": 0.0, "X": 1.0}, "interpolation": 2}]}, "image": "/home/milind/.openshot_qt/thumbnail/VQPCDZYTHO.png", "wave_color": {"alpha": {"Points": [{"handle_type": 0, "handle_right": {"Y": 0.0, "X": 0.5}, "handle_left": {"Y": 1.0, "X": 0.5}, "co": {"Y": 255.0, "X": 1.0}, "interpolation": 0}]}, "red": {"Points": [{"handle_type": 0, "handle_right": {"Y": 0.0, "X": 0.5}, "handle_left": {"Y": 1.0, "X": 0.5}, "co": {"Y": 0.0, "X": 1.0}, "interpolation": 0}]}, "blue": {"Points": [{"handle_type": 0, "handle_right": {"Y": 0.0, "X": 0.5}, "handle_left": {"Y": 1.0, "X": 0.5}, "co": {"Y": 255.0, "X": 1.0}, "interpolation": 0}]}, "green": {"Points": [{"handle_type": 0, "handle_right": {"Y": 0.0, "X": 0.5}, "handle_left": {"Y": 1.0, "X": 0.5}, "co": {"Y": 123.0, "X": 1.0}, "interpolation": 0}]}}, "duration": 40.0, "perspective_c1_x": {"Points": [{"co": {"Y": -1.0, "X": 1.0}, "interpolation": 2}]}, "has_audio": {"Points": [{"co": {"Y": -1.0, "X": 1.0}, "interpolation": 2}]}, "crop_width": {"Points": [{"co": {"Y": -1.0, "X": 1.0}, "interpolation": 2}]}, "anchor": 0, "effects": [], "scale_y": {"Points": [{"co": {"Y": 2.299999952316284, "X": 1.0}, "interpolation": 2}]}, "shear_x": {"Points": [{"co": {"Y": 0.0, "X": 1.0}, "interpolation": 2}]}, "end": 40.125, "perspective_c1_y": {"Points": [{"co": {"Y": -1.0, "X": 1.0}, "interpolation": 2}]}, "perspective_c3_x": {"Points": [{"co": {"Y": -1.0, "X": 1.0}, "interpolation": 2}]}, "perspective_c2_y": {"Points": [{"co": {"Y": -1.0, "X": 1.0}, "interpolation": 2}]}, "reader": {"pixel_format": 0, "pixel_ratio": {"num": 1, "den": 1}, "acodec": "", "video_bit_rate": 0, "interlaced_frame": false, "fps": {"num": 25, "den": 1}, "has_single_image": false, "sample_rate": 0, "video_stream_index": 0, "channel_layout": 4, "audio_timebase": {"num": 1, "den": 1}, "video_timebase": {"num": 1, "den": 1000}, "display_ratio": {"num": 325, "den": 186}, "channels": 0, "has_video": true, "type": "FFmpegReader", "width": 1300, "top_field_first": true, "file_size": "638294", "vcodec": "h264", "path": "/home/milind/Data/Projects/ProgressCard/!060-Total of All Subjects.mkv", "audio_stream_index": -1, "audio_bit_rate": 0, "height": 744, "video_length": "2050", "duration": 82.0, "has_audio": false}}, {"channel_filter": {"Points": [{"co": {"Y": -1.0, "X": 1.0}, "interpolation": 2}]}, "start": 0, "channel_mapping": {"Points": [{"co": {"Y": -1.0, "X": 1.0}, "interpolation": 2}]}, "rotation": {"Points": [{"co": {"Y": 0.0, "X": 1.0}, "interpolation": 2}]}, "title": "01-White-Background.svg", "crop_width": {"Points": [{"co": {"Y": -1.0, "X": 1.0}, "interpolation": 2}]}, "alpha": {"Points": [{"co": {"Y": 1.0, "X": 1.0}, "interpolation": 2}]}, "crop_x": {"Points": [{"co": {"Y": 0.0, "X": 1.0}, "interpolation": 2}]}, "crop_height": {"Points": [{"co": {"Y": -1.0, "X": 1.0}, "interpolation": 2}]}, "display": 0, "time": {"Points": [{"co": {"Y": 1.0, "X": 1.0}, "interpolation": 2}]}, "perspective_c4_x": {"Points": [{"co": {"Y": -1.0, "X": 1.0}, "interpolation": 2}]}, "scale_x": {"Points": [{"co": {"Y": 1.0, "X": 1.0}, "interpolation": 2}]}, "perspective_c3_y": {"Points": [{"co": {"Y": -1.0, "X": 1.0}, "interpolation": 2}]}, "volume": {"Points": [{"co": {"Y": 1.0, "X": 1.0}, "interpolation": 2}]}, "shear_y": {"Points": [{"co": {"Y": 0.0, "X": 1.0}, "interpolation": 2}]}, "id": "ZSCEWQGJ8G", "gravity": 4, "position": 143.68, "waveform": false, "file_id": "TDIZ1HFAHG", "location_y": {"Points": [{"co": {"Y": 0.0, "X": 1.0}, "interpolation": 2}]}, "has_video": {"Points": [{"co": {"Y": -1.0, "X": 1.0}, "interpolation": 2}]}, "location_x": {"Points": [{"co": {"Y": 0.0, "X": 1.0}, "interpolation": 2}]}, "layer": 0, "reader": {"pixel_format": -1, "pixel_ratio": {"num": 1, "den": 1}, "acodec": "", "video_bit_rate": 0, "interlaced_frame": false, "fps": {"num": 30, "den": 1}, "has_single_image": true, "sample_rate": 0, "video_stream_index": -1, "channel_layout": 4, "audio_timebase": {"num": 1, "den": 1}, "video_timebase": {"num": 1, "den": 30}, "display_ratio": {"num": 16, "den": 9}, "channels": 0, "has_video": true, "type": "QtImageReader", "width": 1920, "top_field_first": true, "file_size": "8294400", "vcodec": "", "path": "/home/milind/Data/Projects/ProgressCard/Images/01-White-Background.svg", "audio_stream_index": -1, "audio_bit_rate": 0, "height": 1080, "video_length": "2592000", "duration": 86400.0, "has_audio": false}, "crop_y": {"Points": [{"co": {"Y": 0.0, "X": 1.0}, "interpolation": 2}]}, "end": 10, "wave_color": {"alpha": {"Points": [{"handle_type": 0, "handle_right": {"Y": 0.0, "X": 0.5}, "handle_left": {"Y": 1.0, "X": 0.5}, "co": {"Y": 255.0, "X": 1.0}, "interpolation": 0}]}, "red": {"Points": [{"handle_type": 0, "handle_right": {"Y": 0.0, "X": 0.5}, "handle_left": {"Y": 1.0, "X": 0.5}, "co": {"Y": 0.0, "X": 1.0}, "interpolation": 0}]}, "blue": {"Points": [{"handle_type": 0, "handle_right": {"Y": 0.0, "X": 0.5}, "handle_left": {"Y": 1.0, "X": 0.5}, "co": {"Y": 255.0, "X": 1.0}, "interpolation": 0}]}, "green": {"Points": [{"handle_type": 0, "handle_right": {"Y": 0.0, "X": 0.5}, "handle_left": {"Y": 1.0, "X": 0.5}, "co": {"Y": 123.0, "X": 1.0}, "interpolation": 0}]}}, "perspective_c1_x": {"Points": [{"co": {"Y": -1.0, "X": 1.0}, "interpolation": 2}]}, "has_audio": {"Points": [{"co": {"Y": -1.0, "X": 1.0}, "interpolation": 2}]}, "scale": 1, "anchor": 0, "effects": [], "scale_y": {"Points": [{"co": {"Y": 1.0, "X": 1.0}, "interpolation": 2}]}, "shear_x": {"Points": [{"co": {"Y": 0.0, "X": 1.0}, "interpolation": 2}]}, "perspective_c4_y": {"Points": [{"co": {"Y": -1.0, "X": 1.0}, "interpolation": 2}]}, "perspective_c1_y": {"Points": [{"co": {"Y": -1.0, "X": 1.0}, "interpolation": 2}]}, "perspective_c3_x": {"Points": [{"co": {"Y": -1.0, "X": 1.0}, "interpolation": 2}]}, "perspective_c2_y": {"Points": [{"co": {"Y": -1.0, "X": 1.0}, "interpolation": 2}]}, "image": "/home/milind/.openshot_qt/thumbnail/TDIZ1HFAHG.png", "duration": 86400.0, "perspective_c2_x": {"Points": [{"co": {"Y": -1.0, "X": 1.0}, "interpolation": 2}]}}, {"channel_filter": {"Points": [{"co": {"Y": -1.0, "X": 1.0}, "interpolation": 2}]}, "start": 0, "channel_mapping": {"Points": [{"co": {"Y": -1.0, "X": 1.0}, "interpolation": 2}]}, "rotation": {"Points": [{"co": {"Y": 0.0, "X": 1.0}, "interpolation": 2}]}, "title": "!070-Calculate Grace Marks.mkv", "alpha": {"Points": [{"handle_type": 0, "handle_right": {"Y": 0, "X": 0.5}, "handle_left": {"Y": 1, "X": 0.5}, "co": {"Y": 1, "X": 1}, "interpolation": 0}, {"handle_type": 0, "handle_right": {"Y": 0, "X": 0.5}, "handle_left": {"Y": 1, "X": 0.5}, "co": {"Y": 0, "X": 1}, "interpolation": 0}, {"handle_type": 0, "handle_right": {"Y": 0, "X": 0.5}, "handle_left": {"Y": 1, "X": 0.5}, "co": {"Y": 1, "X": 73}, "interpolation": 0}, {"handle_type": 0, "handle_right": {"Y": 0, "X": 0.5}, "handle_left": {"Y": 1, "X": 0.5}, "co": {"Y": 1, "X": 1042}, "interpolation": 0}, {"handle_type": 0, "handle_right": {"Y": 0, "X": 0.5}, "handle_left": {"Y": 1, "X": 0.5}, "co": {"Y": 0, "X": 1114}, "interpolation": 0}]}, "crop_x": {"Points": [{"co": {"Y": 0.0, "X": 1.0}, "interpolation": 2}]}, "crop_height": {"Points": [{"co": {"Y": -1.0, "X": 1.0}, "interpolation": 2}]}, "display": 0, "perspective_c4_y": {"Points": [{"co": {"Y": -1.0, "X": 1.0}, "interpolation": 2}]}, "time": {"Points": [{"co": {"Y": 1, "X": 1}, "interpolation": 1}, {"co": {"Y": 2225, "X": 1113}, "interpolation": 1}]}, "scale_x": {"Points": [{"co": {"Y": 2.299999952316284, "X": 1.0}, "interpolation": 2}, {"co": {"Y": 2.200000047683716, "X": 447}, "interpolation": 1}]}, "perspective_c3_y": {"Points": [{"co": {"Y": -1.0, "X": 1.0}, "interpolation": 2}]}, "volume": {"Points": [{"co": {"Y": 1.0, "X": 1.0}, "interpolation": 2}]}, "shear_y": {"Points": [{"co": {"Y": 0.0, "X": 1.0}, "interpolation": 2}]}, "effects": [], "id": "WW1TERPBZB", "gravity": 4, "position": 192.69, "waveform": false, "file_id": "5CQQB4EVIM", "location_y": {"Points": [{"co": {"Y": 0.5199999809265137, "X": 1.0}, "interpolation": 2}]}, "has_video": {"Points": [{"co": {"Y": -1.0, "X": 1.0}, "interpolation": 2}]}, "layer": 1, "location_x": {"Points": [{"co": {"Y": 0.41999998688697815, "X": 1.0}, "interpolation": 2}, {"co": {"Y": 0.33000001311302185, "X": 447}, "interpolation": 1}, {"co": {"Y": 0.33000001311302185, "X": 230}, "interpolation": 1}]}, "scale": 1, "crop_y": {"Points": [{"co": {"Y": 0.0, "X": 1.0}, "interpolation": 2}]}, "end": 46.375, "perspective_c3_x": {"Points": [{"co": {"Y": -1.0, "X": 1.0}, "interpolation": 2}]}, "duration": 46.0, "perspective_c1_x": {"Points": [{"co": {"Y": -1.0, "X": 1.0}, "interpolation": 2}]}, "has_audio": {"Points": [{"co": {"Y": -1.0, "X": 1.0}, "interpolation": 2}]}, "crop_width": {"Points": [{"co": {"Y": -1.0, "X": 1.0}, "interpolation": 2}]}, "anchor": 0, "wave_color": {"alpha": {"Points": [{"handle_type": 0, "handle_right": {"Y": 0.0, "X": 0.5}, "handle_left": {"Y": 1.0, "X": 0.5}, "co": {"Y": 255.0, "X": 1.0}, "interpolation": 0}]}, "red": {"Points": [{"handle_type": 0, "handle_right": {"Y": 0.0, "X": 0.5}, "handle_left": {"Y": 1.0, "X": 0.5}, "co": {"Y": 0.0, "X": 1.0}, "interpolation": 0}]}, "blue": {"Points": [{"handle_type": 0, "handle_right": {"Y": 0.0, "X": 0.5}, "handle_left": {"Y": 1.0, "X": 0.5}, "co": {"Y": 255.0, "X": 1.0}, "interpolation": 0}]}, "green": {"Points": [{"handle_type": 0, "handle_right": {"Y": 0.0, "X": 0.5}, "handle_left": {"Y": 1.0, "X": 0.5}, "co": {"Y": 123.0, "X": 1.0}, "interpolation": 0}]}}, "scale_y": {"Points": [{"co": {"Y": 2.299999952316284, "X": 1.0}, "interpolation": 2}, {"co": {"Y": 2.200000047683716, "X": 447}, "interpolation": 1}]}, "shear_x": {"Points": [{"co": {"Y": 0.0, "X": 1.0}, "interpolation": 2}]}, "perspective_c2_x": {"Points": [{"co": {"Y": -1.0, "X": 1.0}, "interpolation": 2}]}, "perspective_c1_y": {"Points": [{"co": {"Y": -1.0, "X": 1.0}, "interpolation": 2}]}, "perspective_c4_x": {"Points": [{"co": {"Y": -1.0, "X": 1.0}, "interpolation": 2}]}, "perspective_c2_y": {"Points": [{"co": {"Y": -1.0, "X": 1.0}, "interpolation": 2}]}, "image": "/home/milind/.openshot_qt/thumbnail/5CQQB4EVIM.png", "reader": {"pixel_format": 0, "pixel_ratio": {"num": 1, "den": 1}, "acodec": "", "video_bit_rate": 0, "interlaced_frame": false, "fps": {"num": 25, "den": 1}, "has_single_image": false, "sample_rate": 0, "video_stream_index": 0, "channel_layout": 4, "audio_timebase": {"num": 1, "den": 1}, "video_timebase": {"num": 1, "den": 1000}, "display_ratio": {"num": 325, "den": 186}, "channels": 0, "has_video": true, "type": "FFmpegReader", "width": 1300, "top_field_first": true, "file_size": "754457", "vcodec": "h264", "path": "/home/milind/Data/Projects/ProgressCard/!070-Calculate Grace Marks.mkv", "audio_stream_index": -1, "audio_bit_rate": 0, "height": 744, "video_length": "2375", "duration": 95.0, "has_audio": false}}, {"channel_filter": {"Points": [{"co": {"Y": -1.0, "X": 1.0}, "interpolation": 2}]}, "start": 0, "channel_mapping": {"Points": [{"co": {"Y": -1.0, "X": 1.0}, "interpolation": 2}]}, "rotation": {"Points": [{"co": {"Y": 0.0, "X": 1.0}, "interpolation": 2}]}, "title": "01-White-Background.svg", "crop_width": {"Points": [{"co": {"Y": -1.0, "X": 1.0}, "interpolation": 2}]}, "perspective_c4_x": {"Points": [{"co": {"Y": -1.0, "X": 1.0}, "interpolation": 2}]}, "alpha": {"Points": [{"co": {"Y": 1.0, "X": 1.0}, "interpolation": 2}]}, "crop_x": {"Points": [{"co": {"Y": 0.0, "X": 1.0}, "interpolation": 2}]}, "crop_height": {"Points": [{"co": {"Y": -1.0, "X": 1.0}, "interpolation": 2}]}, "display": 0, "time": {"Points": [{"co": {"Y": 1.0, "X": 1.0}, "interpolation": 2}]}, "crop_y": {"Points": [{"co": {"Y": 0.0, "X": 1.0}, "interpolation": 2}]}, "has_video": {"Points": [{"co": {"Y": -1.0, "X": 1.0}, "interpolation": 2}]}, "perspective_c3_y": {"Points": [{"co": {"Y": -1.0, "X": 1.0}, "interpolation": 2}]}, "volume": {"Points": [{"co": {"Y": 1.0, "X": 1.0}, "interpolation": 2}]}, "shear_y": {"Points": [{"co": {"Y": 0.0, "X": 1.0}, "interpolation": 2}]}, "id": "A97KLODAGG", "gravity": 4, "position": 186.65, "waveform": false, "file_id": "TDIZ1HFAHG", "location_y": {"Points": [{"co": {"Y": 0.0, "X": 1.0}, "interpolation": 2}]}, "scale_x": {"Points": [{"co": {"Y": 1.0, "X": 1.0}, "interpolation": 2}]}, "location_x": {"Points": [{"co": {"Y": 0.0, "X": 1.0}, "interpolation": 2}]}, "layer": 0, "reader": {"pixel_format": -1, "pixel_ratio": {"num": 1, "den": 1}, "acodec": "", "video_bit_rate": 0, "interlaced_frame": false, "fps": {"num": 30, "den": 1}, "has_single_image": true, "sample_rate": 0, "video_stream_index": -1, "channel_layout": 4, "audio_timebase": {"num": 1, "den": 1}, "video_timebase": {"num": 1, "den": 30}, "display_ratio": {"num": 16, "den": 9}, "channels": 0, "has_video": true, "type": "QtImageReader", "width": 1920, "top_field_first": true, "file_size": "8294400", "vcodec": "", "path": "/home/milind/Data/Projects/ProgressCard/Images/01-White-Background.svg", "audio_stream_index": -1, "audio_bit_rate": 0, "height": 1080, "video_length": "2592000", "duration": 86400.0, "has_audio": false}, "perspective_c4_y": {"Points": [{"co": {"Y": -1.0, "X": 1.0}, "interpolation": 2}]}, "end": 10, "wave_color": {"alpha": {"Points": [{"handle_type": 0, "handle_right": {"Y": 0.0, "X": 0.5}, "handle_left": {"Y": 1.0, "X": 0.5}, "co": {"Y": 255.0, "X": 1.0}, "interpolation": 0}]}, "red": {"Points": [{"handle_type": 0, "handle_right": {"Y": 0.0, "X": 0.5}, "handle_left": {"Y": 1.0, "X": 0.5}, "co": {"Y": 0.0, "X": 1.0}, "interpolation": 0}]}, "blue": {"Points": [{"handle_type": 0, "handle_right": {"Y": 0.0, "X": 0.5}, "handle_left": {"Y": 1.0, "X": 0.5}, "co": {"Y": 255.0, "X": 1.0}, "interpolation": 0}]}, "green": {"Points": [{"handle_type": 0, "handle_right": {"Y": 0.0, "X": 0.5}, "handle_left": {"Y": 1.0, "X": 0.5}, "co": {"Y": 123.0, "X": 1.0}, "interpolation": 0}]}}, "perspective_c1_x": {"Points": [{"co": {"Y": -1.0, "X": 1.0}, "interpolation": 2}]}, "has_audio": {"Points": [{"co": {"Y": -1.0, "X": 1.0}, "interpolation": 2}]}, "scale": 1, "anchor": 0, "effects": [], "scale_y": {"Points": [{"co": {"Y": 1.0, "X": 1.0}, "interpolation": 2}]}, "shear_x": {"Points": [{"co": {"Y": 0.0, "X": 1.0}, "interpolation": 2}]}, "perspective_c2_x": {"Points": [{"co": {"Y": -1.0, "X": 1.0}, "interpolation": 2}]}, "perspective_c1_y": {"Points": [{"co": {"Y": -1.0, "X": 1.0}, "interpolation": 2}]}, "perspective_c3_x": {"Points": [{"co": {"Y": -1.0, "X": 1.0}, "interpolation": 2}]}, "perspective_c2_y": {"Points": [{"co": {"Y": -1.0, "X": 1.0}, "interpolation": 2}]}, "image": "/home/milind/.openshot_qt/thumbnail/TDIZ1HFAHG.png", "duration": 86400.0}, {"channel_filter": {"Points": [{"co": {"Y": -1.0, "X": 1.0}, "interpolation": 2}]}, "start": 0, "channel_mapping": {"Points": [{"co": {"Y": -1.0, "X": 1.0}, "interpolation": 2}]}, "rotation": {"Points": [{"co": {"Y": 0.0, "X": 1.0}, "interpolation": 2}]}, "title": "!013-Format-Page-Dialog.svg", "crop_width": {"Points": [{"co": {"Y": -1.0, "X": 1.0}, "interpolation": 2}]}, "position": 28.96, "alpha": {"Points": [{"co": {"Y": 1.0, "X": 1.0}, "interpolation": 2}, {"handle_type": 0, "handle_right": {"Y": 0.0, "X": 0.5}, "handle_left": {"Y": 1.0, "X": 0.5}, "co": {"Y": 0.0, "X": 1.0}, "interpolation": 0}, {"handle_type": 0, "handle_right": {"Y": 0.0, "X": 0.5}, "handle_left": {"Y": 1.0, "X": 0.5}, "co": {"Y": 1.0, "X": 73.0}, "interpolation": 0}, {"handle_type": 0, "handle_right": {"Y": 0.0, "X": 0.5}, "handle_left": {"Y": 1.0, "X": 0.5}, "co": {"Y": 1.0, "X": 169.0}, "interpolation": 0}, {"handle_type": 0, "handle_right": {"Y": 0.0, "X": 0.5}, "handle_left": {"Y": 1.0, "X": 0.5}, "co": {"Y": 0.0, "X": 241.0}, "interpolation": 0}]}, "crop_x": {"Points": [{"co": {"Y": 0.0, "X": 1.0}, "interpolation": 2}]}, "crop_height": {"Points": [{"co": {"Y": -1.0, "X": 1.0}, "interpolation": 2}]}, "location_y": {"Points": [{"co": {"Y": 0.0, "X": 1.0}, "interpolation": 2}]}, "time": {"Points": [{"co": {"Y": 1.0, "X": 1.0}, "interpolation": 2}]}, "perspective_c2_x": {"Points": [{"co": {"Y": -1.0, "X": 1.0}, "interpolation": 2}]}, "has_video": {"Points": [{"co": {"Y": -1.0, "X": 1.0}, "interpolation": 2}]}, "perspective_c3_y": {"Points": [{"co": {"Y": -1.0, "X": 1.0}, "interpolation": 2}]}, "volume": {"Points": [{"co": {"Y": 1.0, "X": 1.0}, "interpolation": 2}]}, "shear_y": {"Points": [{"co": {"Y": 0.0, "X": 1.0}, "interpolation": 2}]}, "id": "1YCRB7905M", "gravity": 4, "perspective_c2_y": {"Points": [{"co": {"Y": -1.0, "X": 1.0}, "interpolation": 2}]}, "waveform": false, "file_id": "GIMS8XDQW5", "display": 0, "scale_x": {"Points": [{"co": {"Y": 1.0, "X": 1.0}, "interpolation": 2}]}, "layer": 3, "location_x": {"Points": [{"co": {"Y": 0.0, "X": 1.0}, "interpolation": 2}]}, "scale": 1, "crop_y": {"Points": [{"co": {"Y": 0.0, "X": 1.0}, "interpolation": 2}]}, "image": "/home/milind/.openshot_qt/thumbnail/GIMS8XDQW5.png", "perspective_c3_x": {"Points": [{"co": {"Y": -1.0, "X": 1.0}, "interpolation": 2}]}, "end": 10, "perspective_c1_x": {"Points": [{"co": {"Y": -1.0, "X": 1.0}, "interpolation": 2}]}, "reader": {"pixel_format": -1, "pixel_ratio": {"num": 1, "den": 1}, "acodec": "", "video_bit_rate": 0, "interlaced_frame": false, "fps": {"num": 30, "den": 1}, "has_single_image": true, "sample_rate": 0, "video_stream_index": -1, "channel_layout": 4, "audio_timebase": {"num": 1, "den": 1}, "video_timebase": {"num": 1, "den": 30}, "display_ratio": {"num": 6803, "den": 3827}, "channels": 0, "has_video": true, "type": "QtImageReader", "width": 6803, "top_field_first": true, "file_size": "104140324", "vcodec": "", "path": "/home/milind/Data/Projects/ProgressCard/!013-Format-Page-Dialog.svg", "audio_stream_index": -1, "audio_bit_rate": 0, "height": 3827, "video_length": "2592000", "duration": 86400.0, "has_audio": false}, "anchor": 0, "has_audio": {"Points": [{"co": {"Y": -1.0, "X": 1.0}, "interpolation": 2}]}, "scale_y": {"Points": [{"co": {"Y": 1.0, "X": 1.0}, "interpolation": 2}]}, "shear_x": {"Points": [{"co": {"Y": 0.0, "X": 1.0}, "interpolation": 2}]}, "perspective_c4_y": {"Points": [{"co": {"Y": -1.0, "X": 1.0}, "interpolation": 2}]}, "perspective_c1_y": {"Points": [{"co": {"Y": -1.0, "X": 1.0}, "interpolation": 2}]}, "perspective_c4_x": {"Points": [{"co": {"Y": -1.0, "X": 1.0}, "interpolation": 2}]}, "effects": [], "wave_color": {"alpha": {"Points": [{"handle_type": 0, "handle_right": {"Y": 0.0, "X": 0.5}, "handle_left": {"Y": 1.0, "X": 0.5}, "co": {"Y": 255.0, "X": 1.0}, "interpolation": 0}]}, "red": {"Points": [{"handle_type": 0, "handle_right": {"Y": 0.0, "X": 0.5}, "handle_left": {"Y": 1.0, "X": 0.5}, "co": {"Y": 0.0, "X": 1.0}, "interpolation": 0}]}, "blue": {"Points": [{"handle_type": 0, "handle_right": {"Y": 0.0, "X": 0.5}, "handle_left": {"Y": 1.0, "X": 0.5}, "co": {"Y": 255.0, "X": 1.0}, "interpolation": 0}]}, "green": {"Points": [{"handle_type": 0, "handle_right": {"Y": 0.0, "X": 0.5}, "handle_left": {"Y": 1.0, "X": 0.5}, "co": {"Y": 123.0, "X": 1.0}, "interpolation": 0}]}}, "duration": 86400.0}, {"channel_filter": {"Points": [{"co": {"Y": -1, "X": 1}, "interpolation": 2}]}, "start": 0, "rotation": {"Points": [{"co": {"Y": 0, "X": 1}, "interpolation": 2}]}, "title": "02-Title Progress Cards.svg", "waveform": false, "alpha": {"Points": [{"co": {"Y": 1, "X": 1}, "interpolation": 2}, {"handle_type": 0, "handle_right": {"Y": 0, "X": 0.5}, "handle_left": {"Y": 1, "X": 0.5}, "co": {"Y": 0, "X": 1}, "interpolation": 0}, {"handle_type": 0, "handle_right": {"Y": 0, "X": 0.5}, "handle_left": {"Y": 1, "X": 0.5}, "co": {"Y": 1, "X": 73}, "interpolation": 0}, {"handle_type": 0, "handle_right": {"Y": 0, "X": 0.5}, "handle_left": {"Y": 1, "X": 0.5}, "co": {"Y": 1, "X": 49}, "interpolation": 0}, {"handle_type": 0, "handle_right": {"Y": 0, "X": 0.5}, "handle_left": {"Y": 1, "X": 0.5}, "co": {"Y": 0, "X": 121}, "interpolation": 0}]}, "crop_x": {"Points": [{"co": {"Y": 0, "X": 1}, "interpolation": 2}]}, "crop_height": {"Points": [{"co": {"Y": -1, "X": 1}, "interpolation": 2}]}, "display": 0, "perspective_c2_y": {"Points": [{"co": {"Y": -1, "X": 1}, "interpolation": 2}]}, "time": {"Points": [{"co": {"Y": 1, "X": 1}, "interpolation": 2}]}, "perspective_c2_x": {"Points": [{"co": {"Y": -1, "X": 1}, "interpolation": 2}]}, "has_video": {"Points": [{"co": {"Y": -1, "X": 1}, "interpolation": 2}]}, "perspective_c3_y": {"Points": [{"co": {"Y": -1, "X": 1}, "interpolation": 2}]}, "volume": {"Points": [{"co": {"Y": 1, "X": 1}, "interpolation": 2}]}, "shear_y": {"Points": [{"co": {"Y": 0, "X": 1}, "interpolation": 2}]}, "id": "U3TK0QU9SF", "gravity": 4, "position": 1.5, "channel_mapping": {"Points": [{"co": {"Y": -1, "X": 1}, "interpolation": 2}]}, "file_id": "5OEZCIVW6D", "location_y": {"Points": [{"co": {"Y": 0, "X": 1}, "interpolation": 2}]}, "scale_x": {"Points": [{"co": {"Y": 1, "X": 1}, "interpolation": 2}]}, "location_x": {"Points": [{"co": {"Y": 0, "X": 1}, "interpolation": 2}]}, "layer": 1, "scale": 1, "perspective_c4_y": {"Points": [{"co": {"Y": -1, "X": 1}, "interpolation": 2}]}, "image": "/home/milind/.openshot_qt/thumbnail/5OEZCIVW6D.png", "perspective_c3_x": {"Points": [{"co": {"Y": -1, "X": 1}, "interpolation": 2}]}, "wave_color": {"alpha": {"Points": [{"handle_type": 0, "handle_right": {"Y": 0, "X": 0.5}, "handle_left": {"Y": 1, "X": 0.5}, "co": {"Y": 255, "X": 1}, "interpolation": 0}]}, "red": {"Points": [{"handle_type": 0, "handle_right": {"Y": 0, "X": 0.5}, "handle_left": {"Y": 1, "X": 0.5}, "co": {"Y": 0, "X": 1}, "interpolation": 0}]}, "blue": {"Points": [{"handle_type": 0, "handle_right": {"Y": 0, "X": 0.5}, "handle_left": {"Y": 1, "X": 0.5}, "co": {"Y": 255, "X": 1}, "interpolation": 0}]}, "green": {"Points": [{"handle_type": 0, "handle_right": {"Y": 0, "X": 0.5}, "handle_left": {"Y": 1, "X": 0.5}, "co": {"Y": 123, "X": 1}, "interpolation": 0}]}}, "perspective_c1_x": {"Points": [{"co": {"Y": -1, "X": 1}, "interpolation": 2}]}, "has_audio": {"Points": [{"co": {"Y": -1, "X": 1}, "interpolation": 2}]}, "reader": {"pixel_format": -1, "pixel_ratio": {"num": 1, "den": 1}, "acodec": "", "video_bit_rate": 0, "interlaced_frame": false, "fps": {"num": 30, "den": 1}, "has_single_image": true, "sample_rate": 0, "video_stream_index": -1, "channel_layout": 4, "audio_timebase": {"num": 1, "den": 1}, "video_timebase": {"num": 1, "den": 30}, "display_ratio": {"num": 6803, "den": 3827}, "channels": 0, "has_video": true, "type": "QtImageReader", "width": 6803, "top_field_first": true, "file_size": "104140324", "vcodec": "", "path": "/home/milind/Data/Projects/ProgressCard/Images/02-Title Progress Cards.svg", "audio_stream_index": -1, "audio_bit_rate": 0, "height": 3827, "video_length": "2592000", "duration": 86400.0, "has_audio": false}, "anchor": 0, "crop_y": {"Points": [{"co": {"Y": 0, "X": 1}, "interpolation": 2}]}, "scale_y": {"Points": [{"co": {"Y": 1, "X": 1}, "interpolation": 2}]}, "shear_x": {"Points": [{"co": {"Y": 0, "X": 1}, "interpolation": 2}]}, "crop_width": {"Points": [{"co": {"Y": -1, "X": 1}, "interpolation": 2}]}, "perspective_c1_y": {"Points": [{"co": {"Y": -1, "X": 1}, "interpolation": 2}]}, "perspective_c4_x": {"Points": [{"co": {"Y": -1, "X": 1}, "interpolation": 2}]}, "effects": [], "duration": 86400.0, "end": 5}, {"channel_filter": {"Points": [{"co": {"Y": -1, "X": 1}, "interpolation": 2}]}, "start": 0, "rotation": {"Points": [{"co": {"Y": 0, "X": 1}, "interpolation": 2}]}, "title": "03-Title-In.svg", "waveform": false, "alpha": {"Points": [{"co": {"Y": 1, "X": 1}, "interpolation": 2}, {"handle_type": 0, "handle_right": {"Y": 0, "X": 0.5}, "handle_left": {"Y": 1, "X": 0.5}, "co": {"Y": 0, "X": 1}, "interpolation": 0}, {"handle_type": 0, "handle_right": {"Y": 0, "X": 0.5}, "handle_left": {"Y": 1, "X": 0.5}, "co": {"Y": 1, "X": 73}, "interpolation": 0}, {"handle_type": 0, "handle_right": {"Y": 0, "X": 0.5}, "handle_left": {"Y": 1, "X": 0.5}, "co": {"Y": 1, "X": 49}, "interpolation": 0}, {"handle_type": 0, "handle_right": {"Y": 0, "X": 0.5}, "handle_left": {"Y": 1, "X": 0.5}, "co": {"Y": 0, "X": 121}, "interpolation": 0}]}, "crop_x": {"Points": [{"co": {"Y": 0, "X": 1}, "interpolation": 2}]}, "crop_height": {"Points": [{"co": {"Y": -1, "X": 1}, "interpolation": 2}]}, "display": 0, "perspective_c2_y": {"Points": [{"co": {"Y": -1, "X": 1}, "interpolation": 2}]}, "time": {"Points": [{"co": {"Y": 1, "X": 1}, "interpolation": 2}]}, "perspective_c2_x": {"Points": [{"co": {"Y": -1, "X": 1}, "interpolation": 2}]}, "has_video": {"Points": [{"co": {"Y": -1, "X": 1}, "interpolation": 2}]}, "perspective_c3_y": {"Points": [{"co": {"Y": -1, "X": 1}, "interpolation": 2}]}, "volume": {"Points": [{"co": {"Y": 1, "X": 1}, "interpolation": 2}]}, "shear_y": {"Points": [{"co": {"Y": 0, "X": 1}, "interpolation": 2}]}, "id": "PZM9R575VK", "gravity": 4, "position": 6.5, "channel_mapping": {"Points": [{"co": {"Y": -1, "X": 1}, "interpolation": 2}]}, "file_id": "V0JTT8RBI4", "location_y": {"Points": [{"co": {"Y": 0, "X": 1}, "interpolation": 2}]}, "scale_x": {"Points": [{"co": {"Y": 1, "X": 1}, "interpolation": 2}]}, "location_x": {"Points": [{"co": {"Y": 0, "X": 1}, "interpolation": 2}]}, "layer": 1, "scale": 1, "perspective_c4_y": {"Points": [{"co": {"Y": -1, "X": 1}, "interpolation": 2}]}, "image": "/home/milind/.openshot_qt/thumbnail/V0JTT8RBI4.png", "perspective_c3_x": {"Points": [{"co": {"Y": -1, "X": 1}, "interpolation": 2}]}, "wave_color": {"alpha": {"Points": [{"handle_type": 0, "handle_right": {"Y": 0, "X": 0.5}, "handle_left": {"Y": 1, "X": 0.5}, "co": {"Y": 255, "X": 1}, "interpolation": 0}]}, "red": {"Points": [{"handle_type": 0, "handle_right": {"Y": 0, "X": 0.5}, "handle_left": {"Y": 1, "X": 0.5}, "co": {"Y": 0, "X": 1}, "interpolation": 0}]}, "blue": {"Points": [{"handle_type": 0, "handle_right": {"Y": 0, "X": 0.5}, "handle_left": {"Y": 1, "X": 0.5}, "co": {"Y": 255, "X": 1}, "interpolation": 0}]}, "green": {"Points": [{"handle_type": 0, "handle_right": {"Y": 0, "X": 0.5}, "handle_left": {"Y": 1, "X": 0.5}, "co": {"Y": 123, "X": 1}, "interpolation": 0}]}}, "perspective_c1_x": {"Points": [{"co": {"Y": -1, "X": 1}, "interpolation": 2}]}, "has_audio": {"Points": [{"co": {"Y": -1, "X": 1}, "interpolation": 2}]}, "reader": {"pixel_format": -1, "pixel_ratio": {"num": 1, "den": 1}, "acodec": "", "video_bit_rate": 0, "interlaced_frame": false, "fps": {"num": 30, "den": 1}, "has_single_image": true, "sample_rate": 0, "video_stream_index": -1, "channel_layout": 4, "audio_timebase": {"num": 1, "den": 1}, "video_timebase": {"num": 1, "den": 30}, "display_ratio": {"num": 6803, "den": 3827}, "channels": 0, "has_video": true, "type": "QtImageReader", "width": 6803, "top_field_first": true, "file_size": "104140324", "vcodec": "", "path": "/home/milind/Data/Projects/ProgressCard/Images/03-Title-In.svg", "audio_stream_index": -1, "audio_bit_rate": 0, "height": 3827, "video_length": "2592000", "duration": 86400.0, "has_audio": false}, "anchor": 0, "crop_y": {"Points": [{"co": {"Y": 0, "X": 1}, "interpolation": 2}]}, "scale_y": {"Points": [{"co": {"Y": 1, "X": 1}, "interpolation": 2}]}, "shear_x": {"Points": [{"co": {"Y": 0, "X": 1}, "interpolation": 2}]}, "crop_width": {"Points": [{"co": {"Y": -1, "X": 1}, "interpolation": 2}]}, "perspective_c1_y": {"Points": [{"co": {"Y": -1, "X": 1}, "interpolation": 2}]}, "perspective_c4_x": {"Points": [{"co": {"Y": -1, "X": 1}, "interpolation": 2}]}, "effects": [], "duration": 86400.0, "end": 5}, {"channel_filter": {"Points": [{"co": {"Y": -1, "X": 1}, "interpolation": 2}]}, "start": 0, "rotation": {"Points": [{"co": {"Y": 0, "X": 1}, "interpolation": 2}]}, "title": "04-LibreOffice_external_logo.svg", "waveform": false, "alpha": {"Points": [{"co": {"Y": 1, "X": 1}, "interpolation": 2}, {"handle_type": 0, "handle_right": {"Y": 0, "X": 0.5}, "handle_left": {"Y": 1, "X": 0.5}, "co": {"Y": 0, "X": 1}, "interpolation": 0}, {"handle_type": 0, "handle_right": {"Y": 0, "X": 0.5}, "handle_left": {"Y": 1, "X": 0.5}, "co": {"Y": 1, "X": 73}, "interpolation": 0}, {"handle_type": 0, "handle_right": {"Y": 0, "X": 0.5}, "handle_left": {"Y": 1, "X": 0.5}, "co": {"Y": 1, "X": 49}, "interpolation": 0}, {"handle_type": 0, "handle_right": {"Y": 0, "X": 0.5}, "handle_left": {"Y": 1, "X": 0.5}, "co": {"Y": 0, "X": 121}, "interpolation": 0}]}, "crop_x": {"Points": [{"co": {"Y": 0, "X": 1}, "interpolation": 2}]}, "crop_height": {"Points": [{"co": {"Y": -1, "X": 1}, "interpolation": 2}]}, "display": 0, "perspective_c2_y": {"Points": [{"co": {"Y": -1, "X": 1}, "interpolation": 2}]}, "time": {"Points": [{"co": {"Y": 1, "X": 1}, "interpolation": 2}]}, "perspective_c2_x": {"Points": [{"co": {"Y": -1, "X": 1}, "interpolation": 2}]}, "has_video": {"Points": [{"co": {"Y": -1, "X": 1}, "interpolation": 2}]}, "perspective_c3_y": {"Points": [{"co": {"Y": -1, "X": 1}, "interpolation": 2}]}, "volume": {"Points": [{"co": {"Y": 1, "X": 1}, "interpolation": 2}]}, "shear_y": {"Points": [{"co": {"Y": 0, "X": 1}, "interpolation": 2}]}, "id": "I2GRFT5O9D", "gravity": 4, "position": 11.5, "channel_mapping": {"Points": [{"co": {"Y": -1, "X": 1}, "interpolation": 2}]}, "file_id": "9LYJA9LENR", "location_y": {"Points": [{"co": {"Y": 0, "X": 1}, "interpolation": 2}]}, "scale_x": {"Points": [{"co": {"Y": 1, "X": 1}, "interpolation": 2}]}, "location_x": {"Points": [{"co": {"Y": 0, "X": 1}, "interpolation": 2}]}, "layer": 1, "scale": 1, "perspective_c4_y": {"Points": [{"co": {"Y": -1, "X": 1}, "interpolation": 2}]}, "image": "/home/milind/.openshot_qt/thumbnail/9LYJA9LENR.png", "perspective_c3_x": {"Points": [{"co": {"Y": -1, "X": 1}, "interpolation": 2}]}, "wave_color": {"alpha": {"Points": [{"handle_type": 0, "handle_right": {"Y": 0, "X": 0.5}, "handle_left": {"Y": 1, "X": 0.5}, "co": {"Y": 255, "X": 1}, "interpolation": 0}]}, "red": {"Points": [{"handle_type": 0, "handle_right": {"Y": 0, "X": 0.5}, "handle_left": {"Y": 1, "X": 0.5}, "co": {"Y": 0, "X": 1}, "interpolation": 0}]}, "blue": {"Points": [{"handle_type": 0, "handle_right": {"Y": 0, "X": 0.5}, "handle_left": {"Y": 1, "X": 0.5}, "co": {"Y": 255, "X": 1}, "interpolation": 0}]}, "green": {"Points": [{"handle_type": 0, "handle_right": {"Y": 0, "X": 0.5}, "handle_left": {"Y": 1, "X": 0.5}, "co": {"Y": 123, "X": 1}, "interpolation": 0}]}}, "perspective_c1_x": {"Points": [{"co": {"Y": -1, "X": 1}, "interpolation": 2}]}, "has_audio": {"Points": [{"co": {"Y": -1, "X": 1}, "interpolation": 2}]}, "reader": {"pixel_format": -1, "pixel_ratio": {"num": 1, "den": 1}, "acodec": "", "video_bit_rate": 0, "interlaced_frame": false, "fps": {"num": 30, "den": 1}, "has_single_image": true, "sample_rate": 0, "video_stream_index": -1, "channel_layout": 4, "audio_timebase": {"num": 1, "den": 1}, "video_timebase": {"num": 1, "den": 30}, "display_ratio": {"num": 300, "den": 89}, "channels": 0, "has_video": true, "type": "QtImageReader", "width": 600, "top_field_first": true, "file_size": "427200", "vcodec": "", "path": "/home/milind/Data/Projects/ProgressCard/Images/04-LibreOffice_external_logo.svg", "audio_stream_index": -1, "audio_bit_rate": 0, "height": 178, "video_length": "2592000", "duration": 86400.0, "has_audio": false}, "anchor": 0, "crop_y": {"Points": [{"co": {"Y": 0, "X": 1}, "interpolation": 2}]}, "scale_y": {"Points": [{"co": {"Y": 1, "X": 1}, "interpolation": 2}]}, "shear_x": {"Points": [{"co": {"Y": 0, "X": 1}, "interpolation": 2}]}, "crop_width": {"Points": [{"co": {"Y": -1, "X": 1}, "interpolation": 2}]}, "perspective_c1_y": {"Points": [{"co": {"Y": -1, "X": 1}, "interpolation": 2}]}, "perspective_c4_x": {"Points": [{"co": {"Y": -1, "X": 1}, "interpolation": 2}]}, "effects": [], "duration": 86400.0, "end": 5}, {"channel_filter": {"Points": [{"co": {"Y": -1, "X": 1}, "interpolation": 2}]}, "start": 0, "rotation": {"Points": [{"co": {"Y": 0, "X": 1}, "interpolation": 2}]}, "title": "05-Title -Open Writer.svg", "waveform": false, "alpha": {"Points": [{"co": {"Y": 1, "X": 1}, "interpolation": 2}, {"handle_type": 0, "handle_right": {"Y": 0, "X": 0.5}, "handle_left": {"Y": 1, "X": 0.5}, "co": {"Y": 0, "X": 1}, "interpolation": 0}, {"handle_type": 0, "handle_right": {"Y": 0, "X": 0.5}, "handle_left": {"Y": 1, "X": 0.5}, "co": {"Y": 1, "X": 73}, "interpolation": 0}, {"handle_type": 0, "handle_right": {"Y": 0, "X": 0.5}, "handle_left": {"Y": 1, "X": 0.5}, "co": {"Y": 1, "X": 49}, "interpolation": 0}, {"handle_type": 0, "handle_right": {"Y": 0, "X": 0.5}, "handle_left": {"Y": 1, "X": 0.5}, "co": {"Y": 0, "X": 121}, "interpolation": 0}]}, "crop_x": {"Points": [{"co": {"Y": 0, "X": 1}, "interpolation": 2}]}, "crop_height": {"Points": [{"co": {"Y": -1, "X": 1}, "interpolation": 2}]}, "display": 0, "perspective_c2_y": {"Points": [{"co": {"Y": -1, "X": 1}, "interpolation": 2}]}, "time": {"Points": [{"co": {"Y": 1, "X": 1}, "interpolation": 2}]}, "perspective_c2_x": {"Points": [{"co": {"Y": -1, "X": 1}, "interpolation": 2}]}, "has_video": {"Points": [{"co": {"Y": -1, "X": 1}, "interpolation": 2}]}, "perspective_c3_y": {"Points": [{"co": {"Y": -1, "X": 1}, "interpolation": 2}]}, "volume": {"Points": [{"co": {"Y": 1, "X": 1}, "interpolation": 2}]}, "shear_y": {"Points": [{"co": {"Y": 0, "X": 1}, "interpolation": 2}]}, "id": "PL01YVX577", "gravity": 4, "position": 16.5, "channel_mapping": {"Points": [{"co": {"Y": -1, "X": 1}, "interpolation": 2}]}, "file_id": "UXYIII238I", "location_y": {"Points": [{"co": {"Y": 0, "X": 1}, "interpolation": 2}]}, "scale_x": {"Points": [{"co": {"Y": 1, "X": 1}, "interpolation": 2}]}, "location_x": {"Points": [{"co": {"Y": 0, "X": 1}, "interpolation": 2}]}, "layer": 1, "scale": 1, "perspective_c4_y": {"Points": [{"co": {"Y": -1, "X": 1}, "interpolation": 2}]}, "image": "/home/milind/.openshot_qt/thumbnail/UXYIII238I.png", "perspective_c3_x": {"Points": [{"co": {"Y": -1, "X": 1}, "interpolation": 2}]}, "wave_color": {"alpha": {"Points": [{"handle_type": 0, "handle_right": {"Y": 0, "X": 0.5}, "handle_left": {"Y": 1, "X": 0.5}, "co": {"Y": 255, "X": 1}, "interpolation": 0}]}, "red": {"Points": [{"handle_type": 0, "handle_right": {"Y": 0, "X": 0.5}, "handle_left": {"Y": 1, "X": 0.5}, "co": {"Y": 0, "X": 1}, "interpolation": 0}]}, "blue": {"Points": [{"handle_type": 0, "handle_right": {"Y": 0, "X": 0.5}, "handle_left": {"Y": 1, "X": 0.5}, "co": {"Y": 255, "X": 1}, "interpolation": 0}]}, "green": {"Points": [{"handle_type": 0, "handle_right": {"Y": 0, "X": 0.5}, "handle_left": {"Y": 1, "X": 0.5}, "co": {"Y": 123, "X": 1}, "interpolation": 0}]}}, "perspective_c1_x": {"Points": [{"co": {"Y": -1, "X": 1}, "interpolation": 2}]}, "has_audio": {"Points": [{"co": {"Y": -1, "X": 1}, "interpolation": 2}]}, "reader": {"pixel_format": -1, "pixel_ratio": {"num": 1, "den": 1}, "acodec": "", "video_bit_rate": 0, "interlaced_frame": false, "fps": {"num": 30, "den": 1}, "has_single_image": true, "sample_rate": 0, "video_stream_index": -1, "channel_layout": 4, "audio_timebase": {"num": 1, "den": 1}, "video_timebase": {"num": 1, "den": 30}, "display_ratio": {"num": 6803, "den": 3827}, "channels": 0, "has_video": true, "type": "QtImageReader", "width": 6803, "top_field_first": true, "file_size": "104140324", "vcodec": "", "path": "/home/milind/Data/Projects/ProgressCard/Images/05-Title -Open Writer.svg", "audio_stream_index": -1, "audio_bit_rate": 0, "height": 3827, "video_length": "2592000", "duration": 86400.0, "has_audio": false}, "anchor": 0, "crop_y": {"Points": [{"co": {"Y": 0, "X": 1}, "interpolation": 2}]}, "scale_y": {"Points": [{"co": {"Y": 1, "X": 1}, "interpolation": 2}]}, "shear_x": {"Points": [{"co": {"Y": 0, "X": 1}, "interpolation": 2}]}, "crop_width": {"Points": [{"co": {"Y": -1, "X": 1}, "interpolation": 2}]}, "perspective_c1_y": {"Points": [{"co": {"Y": -1, "X": 1}, "interpolation": 2}]}, "perspective_c4_x": {"Points": [{"co": {"Y": -1, "X": 1}, "interpolation": 2}]}, "effects": [], "duration": 86400.0, "end": 5}, {"channel_filter": {"Points": [{"co": {"Y": -1, "X": 1}, "interpolation": 2}]}, "start": 0, "channel_mapping": {"Points": [{"co": {"Y": -1, "X": 1}, "interpolation": 2}]}, "rotation": {"Points": [{"co": {"Y": 0, "X": 1}, "interpolation": 2}]}, "title": "!010-Libre Writer Normal Screen.mkv", "crop_width": {"Points": [{"co": {"Y": -1, "X": 1}, "interpolation": 2}]}, "position": 21.44, "alpha": {"Points": [{"handle_type": 0, "handle_right": {"Y": 0.0, "X": 0.5}, "handle_left": {"Y": 1.0, "X": 0.5}, "co": {"Y": 1.0, "X": 1.0}, "interpolation": 0}, {"handle_type": 0, "handle_right": {"Y": 0.0, "X": 0.5}, "handle_left": {"Y": 1.0, "X": 0.5}, "co": {"Y": 0.0, "X": 1.0}, "interpolation": 0}, {"handle_type": 0, "handle_right": {"Y": 0.0, "X": 0.5}, "handle_left": {"Y": 1.0, "X": 0.5}, "co": {"Y": 1.0, "X": 73.0}, "interpolation": 0}, {"handle_type": 0, "handle_right": {"Y": 0.0, "X": 0.5}, "handle_left": {"Y": 1.0, "X": 0.5}, "co": {"Y": 1.0, "X": 169.0}, "interpolation": 0}, {"handle_type": 0, "handle_right": {"Y": 0.0, "X": 0.5}, "handle_left": {"Y": 1.0, "X": 0.5}, "co": {"Y": 0.0, "X": 241.0}, "interpolation": 0}]}, "crop_x": {"Points": [{"co": {"Y": 0, "X": 1}, "interpolation": 2}]}, "crop_height": {"Points": [{"co": {"Y": -1, "X": 1}, "interpolation": 2}]}, "location_y": {"Points": [{"co": {"Y": 0, "X": 1}, "interpolation": 2}]}, "time": {"Points": [{"co": {"Y": 1, "X": 1}, "interpolation": 2}]}, "perspective_c2_x": {"Points": [{"co": {"Y": -1, "X": 1}, "interpolation": 2}]}, "scale_x": {"Points": [{"co": {"Y": 1, "X": 1}, "interpolation": 2}]}, "perspective_c3_y": {"Points": [{"co": {"Y": -1, "X": 1}, "interpolation": 2}]}, "volume": {"Points": [{"co": {"Y": 1, "X": 1}, "interpolation": 2}]}, "shear_y": {"Points": [{"co": {"Y": 0, "X": 1}, "interpolation": 2}]}, "id": "E66PW6ABXB", "gravity": 4, "perspective_c2_y": {"Points": [{"co": {"Y": -1, "X": 1}, "interpolation": 2}]}, "waveform": false, "file_id": "JMYSBVPZGY", "display": 0, "has_video": {"Points": [{"co": {"Y": -1, "X": 1}, "interpolation": 2}]}, "layer": 1, "location_x": {"Points": [{"co": {"Y": 0, "X": 1}, "interpolation": 2}]}, "scale": 1, "crop_y": {"Points": [{"co": {"Y": 0, "X": 1}, "interpolation": 2}]}, "end": 10, "perspective_c3_x": {"Points": [{"co": {"Y": -1, "X": 1}, "interpolation": 2}]}, "wave_color": {"alpha": {"Points": [{"handle_type": 0, "handle_right": {"Y": 0, "X": 0.5}, "handle_left": {"Y": 1, "X": 0.5}, "co": {"Y": 255, "X": 1}, "interpolation": 0}]}, "red": {"Points": [{"handle_type": 0, "handle_right": {"Y": 0, "X": 0.5}, "handle_left": {"Y": 1, "X": 0.5}, "co": {"Y": 0, "X": 1}, "interpolation": 0}]}, "blue": {"Points": [{"handle_type": 0, "handle_right": {"Y": 0, "X": 0.5}, "handle_left": {"Y": 1, "X": 0.5}, "co": {"Y": 255, "X": 1}, "interpolation": 0}]}, "green": {"Points": [{"handle_type": 0, "handle_right": {"Y": 0, "X": 0.5}, "handle_left": {"Y": 1, "X": 0.5}, "co": {"Y": 123, "X": 1}, "interpolation": 0}]}}, "perspective_c1_x": {"Points": [{"co": {"Y": -1, "X": 1}, "interpolation": 2}]}, "reader": {"pixel_format": 0, "pixel_ratio": {"num": 1, "den": 1}, "acodec": "", "video_bit_rate": 23625, "interlaced_frame": false, "fps": {"num": 25, "den": 1}, "has_single_image": false, "sample_rate": 0, "video_stream_index": 0, "channel_layout": 4, "audio_timebase": {"num": 1, "den": 1}, "video_timebase": {"num": 1, "den": 1000}, "display_ratio": {"num": 325, "den": 186}, "channels": 0, "has_video": true, "type": "FFmpegReader", "width": 1300, "top_field_first": true, "file_size": "31067", "vcodec": "h264", "path": "/home/milind/Data/Projects/ProgressCard/!010-Libre Writer Normal Screen.mkv", "audio_stream_index": -1, "audio_bit_rate": 0, "height": 744, "video_length": "250", "duration": 10.0, "has_audio": false}, "anchor": 0, "has_audio": {"Points": [{"co": {"Y": -1, "X": 1}, "interpolation": 2}]}, "scale_y": {"Points": [{"co": {"Y": 1, "X": 1}, "interpolation": 2}]}, "shear_x": {"Points": [{"co": {"Y": 0, "X": 1}, "interpolation": 2}]}, "perspective_c4_y": {"Points": [{"co": {"Y": -1, "X": 1}, "interpolation": 2}]}, "perspective_c1_y": {"Points": [{"co": {"Y": -1, "X": 1}, "interpolation": 2}]}, "perspective_c4_x": {"Points": [{"co": {"Y": -1, "X": 1}, "interpolation": 2}]}, "effects": [], "image": "/home/milind/.openshot_qt/thumbnail/JMYSBVPZGY.png", "duration": 10.0}, {"channel_filter": {"Points": [{"co": {"Y": -1, "X": 1}, "interpolation": 2}]}, "start": 0, "channel_mapping": {"Points": [{"co": {"Y": -1, "X": 1}, "interpolation": 2}]}, "rotation": {"Points": [{"co": {"Y": 0, "X": 1}, "interpolation": 2}]}, "title": "!040-Slide -Open Libre Calc.svg", "perspective_c4_x": {"Points": [{"co": {"Y": -1, "X": 1}, "interpolation": 2}]}, "alpha": {"Points": [{"co": {"Y": 1, "X": 1}, "interpolation": 2}, {"handle_type": 0, "handle_right": {"Y": 0, "X": 0.5}, "handle_left": {"Y": 1, "X": 0.5}, "co": {"Y": 0, "X": 1}, "interpolation": 0}, {"handle_type": 0, "handle_right": {"Y": 0, "X": 0.5}, "handle_left": {"Y": 1, "X": 0.5}, "co": {"Y": 1, "X": 73}, "interpolation": 0}, {"handle_type": 0, "handle_right": {"Y": 0, "X": 0.5}, "handle_left": {"Y": 1, "X": 0.5}, "co": {"Y": 1, "X": 49}, "interpolation": 0}, {"handle_type": 0, "handle_right": {"Y": 0, "X": 0.5}, "handle_left": {"Y": 1, "X": 0.5}, "co": {"Y": 0, "X": 121}, "interpolation": 0}]}, "crop_x": {"Points": [{"co": {"Y": 0, "X": 1}, "interpolation": 2}]}, "crop_height": {"Points": [{"co": {"Y": -1, "X": 1}, "interpolation": 2}]}, "location_y": {"Points": [{"co": {"Y": 0, "X": 1}, "interpolation": 2}]}, "perspective_c4_y": {"Points": [{"co": {"Y": -1, "X": 1}, "interpolation": 2}]}, "time": {"Points": [{"co": {"Y": 1, "X": 1}, "interpolation": 2}]}, "perspective_c2_x": {"Points": [{"co": {"Y": -1, "X": 1}, "interpolation": 2}]}, "has_video": {"Points": [{"co": {"Y": -1, "X": 1}, "interpolation": 2}]}, "perspective_c3_y": {"Points": [{"co": {"Y": -1, "X": 1}, "interpolation": 2}]}, "volume": {"Points": [{"co": {"Y": 1, "X": 1}, "interpolation": 2}]}, "shear_y": {"Points": [{"co": {"Y": 0, "X": 1}, "interpolation": 2}]}, "id": "MTKMEUPC4W", "gravity": 4, "perspective_c2_y": {"Points": [{"co": {"Y": -1, "X": 1}, "interpolation": 2}]}, "waveform": false, "file_id": "V62OPXLIQ5", "display": 0, "scale_x": {"Points": [{"co": {"Y": 1, "X": 1}, "interpolation": 2}]}, "layer": 1, "location_x": {"Points": [{"co": {"Y": 0, "X": 1}, "interpolation": 2}]}, "reader": {"pixel_format": -1, "pixel_ratio": {"num": 1, "den": 1}, "acodec": "", "video_bit_rate": 0, "interlaced_frame": false, "fps": {"num": 30, "den": 1}, "has_single_image": true, "sample_rate": 0, "video_stream_index": -1, "channel_layout": 4, "audio_timebase": {"num": 1, "den": 1}, "video_timebase": {"num": 1, "den": 30}, "display_ratio": {"num": 6803, "den": 3827}, "channels": 0, "has_video": true, "type": "QtImageReader", "width": 6803, "top_field_first": true, "file_size": "104140324", "vcodec": "", "path": "/home/milind/Data/Projects/ProgressCard/!040-Slide -Open Libre Calc.svg", "audio_stream_index": -1, "audio_bit_rate": 0, "height": 3827, "video_length": "2592000", "duration": 86400.0, "has_audio": false}, "crop_y": {"Points": [{"co": {"Y": 0, "X": 1}, "interpolation": 2}]}, "end": 5, "wave_color": {"alpha": {"Points": [{"handle_type": 0, "handle_right": {"Y": 0, "X": 0.5}, "handle_left": {"Y": 1, "X": 0.5}, "co": {"Y": 255, "X": 1}, "interpolation": 0}]}, "red": {"Points": [{"handle_type": 0, "handle_right": {"Y": 0, "X": 0.5}, "handle_left": {"Y": 1, "X": 0.5}, "co": {"Y": 0, "X": 1}, "interpolation": 0}]}, "blue": {"Points": [{"handle_type": 0, "handle_right": {"Y": 0, "X": 0.5}, "handle_left": {"Y": 1, "X": 0.5}, "co": {"Y": 255, "X": 1}, "interpolation": 0}]}, "green": {"Points": [{"handle_type": 0, "handle_right": {"Y": 0, "X": 0.5}, "handle_left": {"Y": 1, "X": 0.5}, "co": {"Y": 123, "X": 1}, "interpolation": 0}]}}, "perspective_c1_x": {"Points": [{"co": {"Y": -1, "X": 1}, "interpolation": 2}]}, "has_audio": {"Points": [{"co": {"Y": -1, "X": 1}, "interpolation": 2}]}, "scale": 1, "anchor": 0, "effects": [], "scale_y": {"Points": [{"co": {"Y": 1, "X": 1}, "interpolation": 2}]}, "shear_x": {"Points": [{"co": {"Y": 0, "X": 1}, "interpolation": 2}]}, "crop_width": {"Points": [{"co": {"Y": -1, "X": 1}, "interpolation": 2}]}, "perspective_c1_y": {"Points": [{"co": {"Y": -1, "X": 1}, "interpolation": 2}]}, "perspective_c3_x": {"Points": [{"co": {"Y": -1, "X": 1}, "interpolation": 2}]}, "position": 90.665, "image": "/home/milind/.openshot_qt/thumbnail/V62OPXLIQ5.png", "duration": 86400.0}, {"channel_filter": {"Points": [{"co": {"Y": -1, "X": 1}, "interpolation": 2}]}, "start": 0, "channel_mapping": {"Points": [{"co": {"Y": -1, "X": 1}, "interpolation": 2}]}, "rotation": {"Points": [{"co": {"Y": 0, "X": 1}, "interpolation": 2}]}, "title": "!065-Calculate Grace Marks.svg", "crop_width": {"Points": [{"co": {"Y": -1, "X": 1}, "interpolation": 2}]}, "alpha": {"Points": [{"co": {"Y": 1, "X": 1}, "interpolation": 2}, {"handle_type": 0, "handle_right": {"Y": 0, "X": 0.5}, "handle_left": {"Y": 1, "X": 0.5}, "co": {"Y": 0, "X": 1}, "interpolation": 0}, {"handle_type": 0, "handle_right": {"Y": 0, "X": 0.5}, "handle_left": {"Y": 1, "X": 0.5}, "co": {"Y": 1, "X": 73}, "interpolation": 0}, {"handle_type": 0, "handle_right": {"Y": 0, "X": 0.5}, "handle_left": {"Y": 1, "X": 0.5}, "co": {"Y": 1, "X": 122}, "interpolation": 0}, {"handle_type": 0, "handle_right": {"Y": 0, "X": 0.5}, "handle_left": {"Y": 1, "X": 0.5}, "co": {"Y": 0, "X": 194}, "interpolation": 0}]}, "crop_x": {"Points": [{"co": {"Y": 0, "X": 1}, "interpolation": 2}]}, "crop_height": {"Points": [{"co": {"Y": -1, "X": 1}, "interpolation": 2}]}, "display": 0, "time": {"Points": [{"co": {"Y": 1, "X": 1}, "interpolation": 2}]}, "perspective_c4_x": {"Points": [{"co": {"Y": -1, "X": 1}, "interpolation": 2}]}, "has_video": {"Points": [{"co": {"Y": -1, "X": 1}, "interpolation": 2}]}, "perspective_c3_y": {"Points": [{"co": {"Y": -1, "X": 1}, "interpolation": 2}]}, "volume": {"Points": [{"co": {"Y": 1, "X": 1}, "interpolation": 2}]}, "shear_y": {"Points": [{"co": {"Y": 0, "X": 1}, "interpolation": 2}]}, "id": "NJGNQW33I6", "gravity": 4, "position": 189.49, "waveform": false, "file_id": "EWJO5LAFDV", "location_y": {"Points": [{"co": {"Y": 0, "X": 1}, "interpolation": 2}]}, "scale_x": {"Points": [{"co": {"Y": 1, "X": 1}, "interpolation": 2}]}, "location_x": {"Points": [{"co": {"Y": 0, "X": 1}, "interpolation": 2}]}, "layer": 2, "reader": {"pixel_format": -1, "pixel_ratio": {"num": 1, "den": 1}, "acodec": "", "video_bit_rate": 0, "interlaced_frame": false, "fps": {"num": 30, "den": 1}, "has_single_image": true, "sample_rate": 0, "video_stream_index": -1, "channel_layout": 4, "audio_timebase": {"num": 1, "den": 1}, "video_timebase": {"num": 1, "den": 30}, "display_ratio": {"num": 6803, "den": 3827}, "channels": 0, "has_video": true, "type": "QtImageReader", "width": 6803, "top_field_first": true, "file_size": "104140324", "vcodec": "", "path": "/home/milind/Data/Projects/ProgressCard/!065-Calculate Grace Marks.svg", "audio_stream_index": -1, "audio_bit_rate": 0, "height": 3827, "video_length": "2592000", "duration": 86400.0, "has_audio": false}, "crop_y": {"Points": [{"co": {"Y": 0, "X": 1}, "interpolation": 2}]}, "end": 8.04, "wave_color": {"alpha": {"Points": [{"handle_type": 0, "handle_right": {"Y": 0, "X": 0.5}, "handle_left": {"Y": 1, "X": 0.5}, "co": {"Y": 255, "X": 1}, "interpolation": 0}]}, "red": {"Points": [{"handle_type": 0, "handle_right": {"Y": 0, "X": 0.5}, "handle_left": {"Y": 1, "X": 0.5}, "co": {"Y": 0, "X": 1}, "interpolation": 0}]}, "blue": {"Points": [{"handle_type": 0, "handle_right": {"Y": 0, "X": 0.5}, "handle_left": {"Y": 1, "X": 0.5}, "co": {"Y": 255, "X": 1}, "interpolation": 0}]}, "green": {"Points": [{"handle_type": 0, "handle_right": {"Y": 0, "X": 0.5}, "handle_left": {"Y": 1, "X": 0.5}, "co": {"Y": 123, "X": 1}, "interpolation": 0}]}}, "perspective_c1_x": {"Points": [{"co": {"Y": -1, "X": 1}, "interpolation": 2}]}, "has_audio": {"Points": [{"co": {"Y": -1, "X": 1}, "interpolation": 2}]}, "scale": 1, "anchor": 0, "effects": [], "scale_y": {"Points": [{"co": {"Y": 1, "X": 1}, "interpolation": 2}]}, "shear_x": {"Points": [{"co": {"Y": 0, "X": 1}, "interpolation": 2}]}, "perspective_c4_y": {"Points": [{"co": {"Y": -1, "X": 1}, "interpolation": 2}]}, "perspective_c1_y": {"Points": [{"co": {"Y": -1, "X": 1}, "interpolation": 2}]}, "perspective_c3_x": {"Points": [{"co": {"Y": -1, "X": 1}, "interpolation": 2}]}, "perspective_c2_y": {"Points": [{"co": {"Y": -1, "X": 1}, "interpolation": 2}]}, "image": "/home/milind/.openshot_qt/thumbnail/EWJO5LAFDV.png", "duration": 86400.0, "perspective_c2_x": {"Points": [{"co": {"Y": -1, "X": 1}, "interpolation": 2}]}}, {"channel_filter": {"Points": [{"co": {"Y": -1, "X": 1}, "interpolation": 2}]}, "start": 0, "channel_mapping": {"Points": [{"co": {"Y": -1, "X": 1}, "interpolation": 2}]}, "rotation": {"Points": [{"co": {"Y": 0, "X": 1}, "interpolation": 2}]}, "title": "01-White-Background.svg", "crop_width": {"Points": [{"co": {"Y": -1, "X": 1}, "interpolation": 2}]}, "alpha": {"Points": [{"co": {"Y": 1, "X": 1}, "interpolation": 2}]}, "crop_x": {"Points": [{"co": {"Y": 0, "X": 1}, "interpolation": 2}]}, "crop_height": {"Points": [{"co": {"Y": -1, "X": 1}, "interpolation": 2}]}, "display": 0, "time": {"Points": [{"co": {"Y": 1, "X": 1}, "interpolation": 2}]}, "perspective_c4_x": {"Points": [{"co": {"Y": -1, "X": 1}, "interpolation": 2}]}, "has_video": {"Points": [{"co": {"Y": -1, "X": 1}, "interpolation": 2}]}, "perspective_c3_y": {"Points": [{"co": {"Y": -1, "X": 1}, "interpolation": 2}]}, "volume": {"Points": [{"co": {"Y": 1, "X": 1}, "interpolation": 2}]}, "shear_y": {"Points": [{"co": {"Y": 0, "X": 1}, "interpolation": 2}]}, "id": "IV5M2GGPCZ", "gravity": 4, "position": 234.3275, "waveform": false, "file_id": "TDIZ1HFAHG", "location_y": {"Points": [{"co": {"Y": 0, "X": 1}, "interpolation": 2}]}, "scale_x": {"Points": [{"co": {"Y": 1, "X": 1}, "interpolation": 2}]}, "location_x": {"Points": [{"co": {"Y": 0, "X": 1}, "interpolation": 2}]}, "layer": 0, "reader": {"pixel_format": -1, "pixel_ratio": {"num": 1, "den": 1}, "acodec": "", "video_bit_rate": 0, "interlaced_frame": false, "fps": {"num": 30, "den": 1}, "has_single_image": true, "sample_rate": 0, "video_stream_index": -1, "channel_layout": 4, "audio_timebase": {"num": 1, "den": 1}, "video_timebase": {"num": 1, "den": 30}, "display_ratio": {"num": 16, "den": 9}, "channels": 0, "has_video": true, "type": "QtImageReader", "width": 1920, "top_field_first": true, "file_size": "8294400", "vcodec": "", "path": "/home/milind/Data/Projects/ProgressCard/Images/01-White-Background.svg", "audio_stream_index": -1, "audio_bit_rate": 0, "height": 1080, "video_length": "2592000", "duration": 86400.0, "has_audio": false}, "crop_y": {"Points": [{"co": {"Y": 0, "X": 1}, "interpolation": 2}]}, "end": 9.16, "wave_color": {"alpha": {"Points": [{"handle_type": 0, "handle_right": {"Y": 0, "X": 0.5}, "handle_left": {"Y": 1, "X": 0.5}, "co": {"Y": 255, "X": 1}, "interpolation": 0}]}, "red": {"Points": [{"handle_type": 0, "handle_right": {"Y": 0, "X": 0.5}, "handle_left": {"Y": 1, "X": 0.5}, "co": {"Y": 0, "X": 1}, "interpolation": 0}]}, "blue": {"Points": [{"handle_type": 0, "handle_right": {"Y": 0, "X": 0.5}, "handle_left": {"Y": 1, "X": 0.5}, "co": {"Y": 255, "X": 1}, "interpolation": 0}]}, "green": {"Points": [{"handle_type": 0, "handle_right": {"Y": 0, "X": 0.5}, "handle_left": {"Y": 1, "X": 0.5}, "co": {"Y": 123, "X": 1}, "interpolation": 0}]}}, "perspective_c1_x": {"Points": [{"co": {"Y": -1, "X": 1}, "interpolation": 2}]}, "has_audio": {"Points": [{"co": {"Y": -1, "X": 1}, "interpolation": 2}]}, "scale": 1, "anchor": 0, "effects": [], "scale_y": {"Points": [{"co": {"Y": 1, "X": 1}, "interpolation": 2}]}, "shear_x": {"Points": [{"co": {"Y": 0, "X": 1}, "interpolation": 2}]}, "perspective_c4_y": {"Points": [{"co": {"Y": -1, "X": 1}, "interpolation": 2}]}, "perspective_c1_y": {"Points": [{"co": {"Y": -1, "X": 1}, "interpolation": 2}]}, "perspective_c3_x": {"Points": [{"co": {"Y": -1, "X": 1}, "interpolation": 2}]}, "perspective_c2_y": {"Points": [{"co": {"Y": -1, "X": 1}, "interpolation": 2}]}, "image": "/home/milind/.openshot_qt/thumbnail/TDIZ1HFAHG.png", "duration": 86400.0, "perspective_c2_x": {"Points": [{"co": {"Y": -1, "X": 1}, "interpolation": 2}]}}, {"channel_filter": {"Points": [{"co": {"Y": -1.0, "X": 1.0}, "interpolation": 2}]}, "start": 0, "channel_mapping": {"Points": [{"co": {"Y": -1.0, "X": 1.0}, "interpolation": 2}]}, "rotation": {"Points": [{"co": {"Y": 0.0, "X": 1.0}, "interpolation": 2}]}, "title": "!011-Slide-We need only half page.svg", "crop_width": {"Points": [{"co": {"Y": -1.0, "X": 1.0}, "interpolation": 2}]}, "position": 22.56, "alpha": {"Points": [{"co": {"Y": 1.0, "X": 1.0}, "interpolation": 2}, {"handle_type": 0, "handle_right": {"Y": 0.0, "X": 0.5}, "handle_left": {"Y": 1.0, "X": 0.5}, "co": {"Y": 0.0, "X": 1.0}, "interpolation": 0}, {"handle_type": 0, "handle_right": {"Y": 0.0, "X": 0.5}, "handle_left": {"Y": 1.0, "X": 0.5}, "co": {"Y": 1.0, "X": 73.0}, "interpolation": 0}, {"handle_type": 0, "handle_right": {"Y": 0.0, "X": 0.5}, "handle_left": {"Y": 1.0, "X": 0.5}, "co": {"Y": 1.0, "X": 49.0}, "interpolation": 0}, {"handle_type": 0, "handle_right": {"Y": 0.0, "X": 0.5}, "handle_left": {"Y": 1.0, "X": 0.5}, "co": {"Y": 0.0, "X": 121.0}, "interpolation": 0}]}, "crop_x": {"Points": [{"co": {"Y": 0.0, "X": 1.0}, "interpolation": 2}]}, "crop_height": {"Points": [{"co": {"Y": -1.0, "X": 1.0}, "interpolation": 2}]}, "location_y": {"Points": [{"co": {"Y": 0.0, "X": 1.0}, "interpolation": 2}]}, "time": {"Points": [{"co": {"Y": 1.0, "X": 1.0}, "interpolation": 2}]}, "perspective_c2_x": {"Points": [{"co": {"Y": -1.0, "X": 1.0}, "interpolation": 2}]}, "scale_x": {"Points": [{"co": {"Y": 1.0, "X": 1.0}, "interpolation": 2}]}, "perspective_c3_y": {"Points": [{"co": {"Y": -1.0, "X": 1.0}, "interpolation": 2}]}, "volume": {"Points": [{"co": {"Y": 1.0, "X": 1.0}, "interpolation": 2}]}, "shear_y": {"Points": [{"co": {"Y": 0.0, "X": 1.0}, "interpolation": 2}]}, "id": "1PAPVWKA7U", "gravity": 4, "perspective_c2_y": {"Points": [{"co": {"Y": -1.0, "X": 1.0}, "interpolation": 2}]}, "waveform": false, "file_id": "7VACJ3VWTI", "display": 0, "has_video": {"Points": [{"co": {"Y": -1.0, "X": 1.0}, "interpolation": 2}]}, "layer": 2, "location_x": {"Points": [{"co": {"Y": 0.0, "X": 1.0}, "interpolation": 2}]}, "scale": 1, "crop_y": {"Points": [{"co": {"Y": 0.0, "X": 1.0}, "interpolation": 2}]}, "end": 5, "perspective_c3_x": {"Points": [{"co": {"Y": -1.0, "X": 1.0}, "interpolation": 2}]}, "wave_color": {"alpha": {"Points": [{"handle_type": 0, "handle_right": {"Y": 0.0, "X": 0.5}, "handle_left": {"Y": 1.0, "X": 0.5}, "co": {"Y": 255.0, "X": 1.0}, "interpolation": 0}]}, "red": {"Points": [{"handle_type": 0, "handle_right": {"Y": 0.0, "X": 0.5}, "handle_left": {"Y": 1.0, "X": 0.5}, "co": {"Y": 0.0, "X": 1.0}, "interpolation": 0}]}, "blue": {"Points": [{"handle_type": 0, "handle_right": {"Y": 0.0, "X": 0.5}, "handle_left": {"Y": 1.0, "X": 0.5}, "co": {"Y": 255.0, "X": 1.0}, "interpolation": 0}]}, "green": {"Points": [{"handle_type": 0, "handle_right": {"Y": 0.0, "X": 0.5}, "handle_left": {"Y": 1.0, "X": 0.5}, "co": {"Y": 123.0, "X": 1.0}, "interpolation": 0}]}}, "perspective_c1_x": {"Points": [{"co": {"Y": -1.0, "X": 1.0}, "interpolation": 2}]}, "reader": {"pixel_format": -1, "acodec": "", "audio_stream_index": -1, "interlaced_frame": false, "fps": {"num": 30, "den": 1}, "has_single_image": true, "sample_rate": 0, "video_stream_index": -1, "channel_layout": 4, "audio_timebase": {"num": 1, "den": 1}, "video_timebase": {"num": 1, "den": 30}, "display_ratio": {"num": 6803, "den": 3827}, "channels": 0, "has_video": true, "width": 6803, "type": "QtImageReader", "pixel_ratio": {"num": 1, "den": 1}, "top_field_first": true, "file_size": "104140324", "vcodec": "", "path": "/home/milind/Data/Projects/ProgressCard/!011-Slide-We need only half page.svg", "video_bit_rate": 0, "audio_bit_rate": 0, "height": 3827, "video_length": "2592000", "duration": 86400.0, "has_audio": false}, "anchor": 0, "has_audio": {"Points": [{"co": {"Y": -1.0, "X": 1.0}, "interpolation": 2}]}, "scale_y": {"Points": [{"co": {"Y": 1.0, "X": 1.0}, "interpolation": 2}]}, "shear_x": {"Points": [{"co": {"Y": 0.0, "X": 1.0}, "interpolation": 2}]}, "perspective_c4_y": {"Points": [{"co": {"Y": -1.0, "X": 1.0}, "interpolation": 2}]}, "perspective_c1_y": {"Points": [{"co": {"Y": -1.0, "X": 1.0}, "interpolation": 2}]}, "perspective_c4_x": {"Points": [{"co": {"Y": -1.0, "X": 1.0}, "interpolation": 2}]}, "effects": [], "image": "/home/milind/.openshot_qt/thumbnail/7VACJ3VWTI.png", "duration": 86400.0}, {"channel_filter": {"Points": [{"co": {"Y": -1, "X": 1}, "interpolation": 2}]}, "start": 0, "channel_mapping": {"Points": [{"co": {"Y": -1, "X": 1}, "interpolation": 2}]}, "rotation": {"Points": [{"co": {"Y": 0, "X": 1}, "interpolation": 2}]}, "title": "!025-Create Progress Card Template.svg", "perspective_c4_x": {"Points": [{"co": {"Y": -1, "X": 1}, "interpolation": 2}]}, "alpha": {"Points": [{"co": {"Y": 1, "X": 1}, "interpolation": 2}, {"handle_type": 0, "handle_left": {"Y": 1, "X": 0.5}, "handle_right": {"Y": 0, "X": 0.5}, "co": {"Y": 0, "X": 1}, "interpolation": 0}, {"handle_type": 0, "handle_left": {"Y": 1, "X": 0.5}, "handle_right": {"Y": 0, "X": 0.5}, "co": {"Y": 1, "X": 73}, "interpolation": 0}, {"handle_type": 0, "handle_left": {"Y": 1, "X": 0.5}, "interpolation": 0, "co": {"Y": 1, "X": 49}, "handle_right": {"Y": 0, "X": 0.5}}, {"handle_type": 0, "handle_left": {"Y": 1, "X": 0.5}, "interpolation": 0, "co": {"Y": 0, "X": 121}, "handle_right": {"Y": 0, "X": 0.5}}]}, "crop_x": {"Points": [{"co": {"Y": 0, "X": 1}, "interpolation": 2}]}, "crop_height": {"Points": [{"co": {"Y": -1, "X": 1}, "interpolation": 2}]}, "location_y": {"Points": [{"co": {"Y": 0, "X": 1}, "interpolation": 2}]}, "perspective_c2_y": {"Points": [{"co": {"Y": -1, "X": 1}, "interpolation": 2}]}, "time": {"Points": [{"co": {"Y": 1, "X": 1}, "interpolation": 2}]}, "scale": 1, "has_video": {"Points": [{"co": {"Y": -1, "X": 1}, "interpolation": 2}]}, "perspective_c3_y": {"Points": [{"co": {"Y": -1, "X": 1}, "interpolation": 2}]}, "volume": {"Points": [{"co": {"Y": 1, "X": 1}, "interpolation": 2}]}, "shear_y": {"Points": [{"co": {"Y": 0, "X": 1}, "interpolation": 2}]}, "id": "WF13AK4DKD", "gravity": 4, "position": 54.55, "waveform": false, "file_id": "CQ9HLHMG6Y", "display": 0, "scale_x": {"Points": [{"co": {"Y": 1, "X": 1}, "interpolation": 2}]}, "layer": 3, "location_x": {"Points": [{"co": {"Y": 0, "X": 1}, "interpolation": 2}]}, "reader": {"pixel_format": -1, "acodec": "", "audio_stream_index": -1, "interlaced_frame": false, "fps": {"num": 30, "den": 1}, "has_single_image": true, "sample_rate": 0, "video_stream_index": -1, "channel_layout": 4, "audio_timebase": {"num": 1, "den": 1}, "video_timebase": {"num": 1, "den": 30}, "file_size": "104140324", "channels": 0, "has_video": true, "type": "QtImageReader", "video_bit_rate": 0, "width": 6803, "top_field_first": true, "display_ratio": {"num": 6803, "den": 3827}, "vcodec": "", "path": "/home/milind/Data/Projects/ProgressCard/!025-Create Progress Card Template.svg", "pixel_ratio": {"num": 1, "den": 1}, "audio_bit_rate": 0, "height": 3827, "video_length": "2592000", "duration": 86400.0, "has_audio": false}, "crop_y": {"Points": [{"co": {"Y": 0, "X": 1}, "interpolation": 2}]}, "end": 5, "wave_color": {"alpha": {"Points": [{"handle_type": 0, "handle_left": {"Y": 1, "X": 0.5}, "handle_right": {"Y": 0, "X": 0.5}, "co": {"Y": 255, "X": 1}, "interpolation": 0}]}, "red": {"Points": [{"handle_type": 0, "handle_left": {"Y": 1, "X": 0.5}, "handle_right": {"Y": 0, "X": 0.5}, "co": {"Y": 0, "X": 1}, "interpolation": 0}]}, "blue": {"Points": [{"handle_type": 0, "handle_left": {"Y": 1, "X": 0.5}, "handle_right": {"Y": 0, "X": 0.5}, "co": {"Y": 255, "X": 1}, "interpolation": 0}]}, "green": {"Points": [{"handle_type": 0, "handle_left": {"Y": 1, "X": 0.5}, "handle_right": {"Y": 0, "X": 0.5}, "co": {"Y": 123, "X": 1}, "interpolation": 0}]}}, "perspective_c1_x": {"Points": [{"co": {"Y": -1, "X": 1}, "interpolation": 2}]}, "crop_width": {"Points": [{"co": {"Y": -1, "X": 1}, "interpolation": 2}]}, "anchor": 0, "has_audio": {"Points": [{"co": {"Y": -1, "X": 1}, "interpolation": 2}]}, "scale_y": {"Points": [{"co": {"Y": 1, "X": 1}, "interpolation": 2}]}, "shear_x": {"Points": [{"co": {"Y": 0, "X": 1}, "interpolation": 2}]}, "perspective_c4_y": {"Points": [{"co": {"Y": -1, "X": 1}, "interpolation": 2}]}, "perspective_c1_y": {"Points": [{"co": {"Y": -1, "X": 1}, "interpolation": 2}]}, "perspective_c3_x": {"Points": [{"co": {"Y": -1, "X": 1}, "interpolation": 2}]}, "effects": [], "image": "/home/milind/.openshot_qt/thumbnail/CQ9HLHMG6Y.png", "duration": 86400.0, "perspective_c2_x": {"Points": [{"co": {"Y": -1, "X": 1}, "interpolation": 2}]}}, {"channel_filter": {"Points": [{"co": {"Y": -1, "X": 1}, "interpolation": 2}]}, "start": 0, "channel_mapping": {"Points": [{"co": {"Y": -1, "X": 1}, "interpolation": 2}]}, "rotation": {"Points": [{"co": {"Y": 0, "X": 1}, "interpolation": 2}]}, "title": "!045-Slide-Sample Students Data.svg", "perspective_c4_x": {"Points": [{"co": {"Y": -1, "X": 1}, "interpolation": 2}]}, "alpha": {"Points": [{"co": {"Y": 1, "X": 1}, "interpolation": 2}, {"handle_type": 0, "handle_left": {"Y": 1, "X": 0.5}, "handle_right": {"Y": 0, "X": 0.5}, "co": {"Y": 0, "X": 1}, "interpolation": 0}, {"handle_type": 0, "handle_left": {"Y": 1, "X": 0.5}, "handle_right": {"Y": 0, "X": 0.5}, "co": {"Y": 1, "X": 73}, "interpolation": 0}, {"handle_type": 0, "handle_left": {"Y": 1, "X": 0.5}, "interpolation": 0, "co": {"Y": 1, "X": 49}, "handle_right": {"Y": 0, "X": 0.5}}, {"handle_type": 0, "handle_left": {"Y": 1, "X": 0.5}, "interpolation": 0, "co": {"Y": 0, "X": 121}, "handle_right": {"Y": 0, "X": 0.5}}]}, "crop_x": {"Points": [{"co": {"Y": 0, "X": 1}, "interpolation": 2}]}, "crop_height": {"Points": [{"co": {"Y": -1, "X": 1}, "interpolation": 2}]}, "location_y": {"Points": [{"co": {"Y": 0, "X": 1}, "interpolation": 2}]}, "perspective_c2_y": {"Points": [{"co": {"Y": -1, "X": 1}, "interpolation": 2}]}, "time": {"Points": [{"co": {"Y": 1, "X": 1}, "interpolation": 2}]}, "scale": 1, "has_video": {"Points": [{"co": {"Y": -1, "X": 1}, "interpolation": 2}]}, "perspective_c3_y": {"Points": [{"co": {"Y": -1, "X": 1}, "interpolation": 2}]}, "volume": {"Points": [{"co": {"Y": 1, "X": 1}, "interpolation": 2}]}, "shear_y": {"Points": [{"co": {"Y": 0, "X": 1}, "interpolation": 2}]}, "id": "2RP69Q8ZW7", "gravity": 4, "position": 98.455, "waveform": false, "file_id": "GOJEXTAQVD", "display": 0, "scale_x": {"Points": [{"co": {"Y": 1, "X": 1}, "interpolation": 2}]}, "layer": 2, "location_x": {"Points": [{"co": {"Y": 0, "X": 1}, "interpolation": 2}]}, "reader": {"pixel_format": -1, "acodec": "", "video_bit_rate": 0, "interlaced_frame": false, "fps": {"num": 30, "den": 1}, "has_single_image": true, "sample_rate": 0, "video_stream_index": -1, "channel_layout": 4, "audio_timebase": {"num": 1, "den": 1}, "file_size": "104140324", "audio_stream_index": -1, "channels": 0, "has_video": true, "path": "/home/milind/Data/Projects/ProgressCard/!045-Slide-Sample Students Data.svg", "type": "QtImageReader", "width": 6803, "top_field_first": true, "display_ratio": {"num": 6803, "den": 3827}, "vcodec": "", "has_audio": false, "pixel_ratio": {"num": 1, "den": 1}, "audio_bit_rate": 0, "height": 3827, "video_length": "2592000", "duration": 86400.0, "video_timebase": {"num": 1, "den": 30}}, "crop_y": {"Points": [{"co": {"Y": 0, "X": 1}, "interpolation": 2}]}, "end": 5, "wave_color": {"alpha": {"Points": [{"handle_type": 0, "handle_left": {"Y": 1, "X": 0.5}, "handle_right": {"Y": 0, "X": 0.5}, "co": {"Y": 255, "X": 1}, "interpolation": 0}]}, "red": {"Points": [{"handle_type": 0, "handle_left": {"Y": 1, "X": 0.5}, "handle_right": {"Y": 0, "X": 0.5}, "co": {"Y": 0, "X": 1}, "interpolation": 0}]}, "blue": {"Points": [{"handle_type": 0, "handle_left": {"Y": 1, "X": 0.5}, "handle_right": {"Y": 0, "X": 0.5}, "co": {"Y": 255, "X": 1}, "interpolation": 0}]}, "green": {"Points": [{"handle_type": 0, "handle_left": {"Y": 1, "X": 0.5}, "handle_right": {"Y": 0, "X": 0.5}, "co": {"Y": 123, "X": 1}, "interpolation": 0}]}}, "perspective_c1_x": {"Points": [{"co": {"Y": -1, "X": 1}, "interpolation": 2}]}, "crop_width": {"Points": [{"co": {"Y": -1, "X": 1}, "interpolation": 2}]}, "anchor": 0, "has_audio": {"Points": [{"co": {"Y": -1, "X": 1}, "interpolation": 2}]}, "scale_y": {"Points": [{"co": {"Y": 1, "X": 1}, "interpolation": 2}]}, "shear_x": {"Points": [{"co": {"Y": 0, "X": 1}, "interpolation": 2}]}, "perspective_c4_y": {"Points": [{"co": {"Y": -1, "X": 1}, "interpolation": 2}]}, "perspective_c1_y": {"Points": [{"co": {"Y": -1, "X": 1}, "interpolation": 2}]}, "perspective_c3_x": {"Points": [{"co": {"Y": -1, "X": 1}, "interpolation": 2}]}, "effects": [], "image": "/home/milind/.openshot_qt/thumbnail/GOJEXTAQVD.png", "duration": 86400.0, "perspective_c2_x": {"Points": [{"co": {"Y": -1, "X": 1}, "interpolation": 2}]}}], "type": "insert", "value": {"channel_filter": {"Points": [{"co": {"Y": -1, "X": 1}, "interpolation": 2}]}, "start": 0, "channel_mapping": {"Points": [{"co": {"Y": -1, "X": 1}, "interpolation": 2}]}, "rotation": {"Points": [{"co": {"Y": 0, "X": 1}, "interpolation": 2}]}, "title": "!055-Calculate Total Marks.svg", "scale_x": {"Points": [{"co": {"Y": 1, "X": 1}, "interpolation": 2}]}, "alpha": {"Points": [{"co": {"Y": 1, "X": 1}, "interpolation": 2}, {"handle_type": 0, "handle_left": {"Y": 1, "X": 0.5}, "interpolation": 0, "co": {"Y": 0, "X": 1}, "handle_right": {"Y": 0, "X": 0.5}}, {"handle_type": 0, "handle_left": {"Y": 1, "X": 0.5}, "interpolation": 0, "co": {"Y": 1, "X": 73}, "handle_right": {"Y": 0, "X": 0.5}}, {"handle_type": 0, "handle_left": {"Y": 1, "X": 0.5}, "handle_right": {"Y": 0, "X": 0.5}, "co": {"Y": 1, "X": 49}, "interpolation": 0}, {"handle_type": 0, "handle_left": {"Y": 1, "X": 0.5}, "handle_right": {"Y": 0, "X": 0.5}, "co": {"Y": 0, "X": 121}, "interpolation": 0}]}, "crop_x": {"Points": [{"co": {"Y": 0, "X": 1}, "interpolation": 2}]}, "crop_height": {"Points": [{"co": {"Y": -1, "X": 1}, "interpolation": 2}]}, "display": 0, "time": {"Points": [{"co": {"Y": 1, "X": 1}, "interpolation": 2}]}, "crop_y": {"Points": [{"co": {"Y": 0, "X": 1}, "interpolation": 2}]}, "crop_width": {"Points": [{"co": {"Y": -1, "X": 1}, "interpolation": 2}]}, "perspective_c3_y": {"Points": [{"co": {"Y": -1, "X": 1}, "interpolation": 2}]}, "volume": {"Points": [{"co": {"Y": 1, "X": 1}, "interpolation": 2}]}, "shear_y": {"Points": [{"co": {"Y": 0, "X": 1}, "interpolation": 2}]}, "id": "6JUS8WD9VI", "effects": [], "position": 144.155, "waveform": false, "file_id": "4N4GFJVUAX", "location_y": {"Points": [{"co": {"Y": 0, "X": 1}, "interpolation": 2}]}, "has_video": {"Points": [{"co": {"Y": -1, "X": 1}, "interpolation": 2}]}, "location_x": {"Points": [{"co": {"Y": 0, "X": 1}, "interpolation": 2}]}, "layer": 2, "reader": {"pixel_format": -1, "pixel_ratio": {"num": 1, "den": 1}, "acodec": "", "video_bit_rate": 0, "interlaced_frame": false, "fps": {"num": 30, "den": 1}, "has_single_image": true, "sample_rate": 0, "video_stream_index": -1, "channel_layout": 4, "audio_timebase": {"num": 1, "den": 1}, "display_ratio": {"num": 6803, "den": 3827}, "channels": 0, "has_video": true, "has_audio": false, "type": "QtImageReader", "width": 6803, "top_field_first": true, "file_size": "104140324", "vcodec": "", "path": "/home/milind/Data/Projects/ProgressCard/!055-Calculate Total Marks.svg", "audio_stream_index": -1, "audio_bit_rate": 0, "height": 3827, "video_length": "2592000", "duration": 86400.0, "video_timebase": {"num": 1, "den": 30}}, "perspective_c4_y": {"Points": [{"co": {"Y": -1, "X": 1}, "interpolation": 2}]}, "gravity": 4, "perspective_c3_x": {"Points": [{"co": {"Y": -1, "X": 1}, "interpolation": 2}]}, "end": 5, "perspective_c1_x": {"Points": [{"co": {"Y": -1, "X": 1}, "interpolation": 2}]}, "scale": 1, "anchor": 0, "has_audio": {"Points": [{"co": {"Y": -1, "X": 1}, "interpolation": 2}]}, "scale_y": {"Points": [{"co": {"Y": 1, "X": 1}, "interpolation": 2}]}, "image": "/home/milind/.openshot_qt/thumbnail/4N4GFJVUAX.png", "shear_x": {"Points": [{"co": {"Y": 0, "X": 1}, "interpolation": 2}]}, "perspective_c2_x": {"Points": [{"co": {"Y": -1, "X": 1}, "interpolation": 2}]}, "perspective_c1_y": {"Points": [{"co": {"Y": -1, "X": 1}, "interpolation": 2}]}, "perspective_c4_x": {"Points": [{"co": {"Y": -1, "X": 1}, "interpolation": 2}]}, "perspective_c2_y": {"Points": [{"co": {"Y": -1, "X": 1}, "interpolation": 2}]}, "wave_color": {"alpha": {"Points": [{"handle_type": 0, "handle_left": {"Y": 1, "X": 0.5}, "interpolation": 0, "co": {"Y": 255, "X": 1}, "handle_right": {"Y": 0, "X": 0.5}}]}, "red": {"Points": [{"handle_type": 0, "handle_left": {"Y": 1, "X": 0.5}, "interpolation": 0, "co": {"Y": 0, "X": 1}, "handle_right": {"Y": 0, "X": 0.5}}]}, "blue": {"Points": [{"handle_type": 0, "handle_left": {"Y": 1, "X": 0.5}, "interpolation": 0, "co": {"Y": 255, "X": 1}, "handle_right": {"Y": 0, "X": 0.5}}]}, "green": {"Points": [{"handle_type": 0, "handle_left": {"Y": 1, "X": 0.5}, "interpolation": 0, "co": {"Y": 123, "X": 1}, "handle_right": {"Y": 0, "X": 0.5}}]}}, "duration": 86400.0}}, {"partial": false, "key": ["clips", {"id": "6JUS8WD9VI"}], "old_values": {"channel_filter": {"Points": [{"co": {"Y": -1, "X": 1}, "interpolation": 2}]}, "start": 0, "channel_mapping": {"Points": [{"co": {"Y": -1, "X": 1}, "interpolation": 2}]}, "rotation": {"Points": [{"co": {"Y": 0, "X": 1}, "interpolation": 2}]}, "title": "!055-Calculate Total Marks.svg", "alpha": {"Points": [{"co": {"Y": 1, "X": 1}, "interpolation": 2}]}, "crop_x": {"Points": [{"co": {"Y": 0, "X": 1}, "interpolation": 2}]}, "crop_height": {"Points": [{"co": {"Y": -1, "X": 1}, "interpolation": 2}]}, "display": 0, "time": {"Points": [{"co": {"Y": 1, "X": 1}, "interpolation": 2}]}, "scale": 1, "has_video": {"Points": [{"co": {"Y": -1, "X": 1}, "interpolation": 2}]}, "perspective_c3_y": {"Points": [{"co": {"Y": -1, "X": 1}, "interpolation": 2}]}, "volume": {"Points": [{"co": {"Y": 1, "X": 1}, "interpolation": 2}]}, "shear_y": {"Points": [{"co": {"Y": 0, "X": 1}, "interpolation": 2}]}, "effects": [], "id": "6JUS8WD9VI", "gravity": 4, "perspective_c2_y": {"Points": [{"co": {"Y": -1, "X": 1}, "interpolation": 2}]}, "waveform": false, "file_id": "4N4GFJVUAX", "location_y": {"Points": [{"co": {"Y": 0, "X": 1}, "interpolation": 2}]}, "scale_x": {"Points": [{"co": {"Y": 1, "X": 1}, "interpolation": 2}]}, "location_x": {"Points": [{"co": {"Y": 0, "X": 1}, "interpolation": 2}]}, "layer": 3, "reader": {"pixel_format": -1, "acodec": "", "video_bit_rate": 0, "interlaced_frame": false, "fps": {"num": 30, "den": 1}, "has_single_image": true, "sample_rate": 0, "video_stream_index": -1, "channel_layout": 4, "audio_timebase": {"num": 1, "den": 1}, "file_size": "104140324", "audio_stream_index": -1, "channels": 0, "has_video": true, "path": "/home/milind/Data/Projects/ProgressCard/!055-Calculate Total Marks.svg", "type": "QtImageReader", "width": 6803, "top_field_first": true, "display_ratio": {"num": 6803, "den": 3827}, "vcodec": "", "has_audio": false, "pixel_ratio": {"num": 1, "den": 1}, "audio_bit_rate": 0, "height": 3827, "video_length": "2592000", "duration": 86400.0, "video_timebase": {"num": 1, "den": 30}}, "crop_y": {"Points": [{"co": {"Y": 0, "X": 1}, "interpolation": 2}]}, "end": 5.0, "perspective_c3_x": {"Points": [{"co": {"Y": -1, "X": 1}, "interpolation": 2}]}, "perspective_c1_x": {"Points": [{"co": {"Y": -1, "X": 1}, "interpolation": 2}]}, "has_audio": {"Points": [{"co": {"Y": -1, "X": 1}, "interpolation": 2}]}, "crop_width": {"Points": [{"co": {"Y": -1, "X": 1}, "interpolation": 2}]}, "anchor": 0, "wave_color": {"alpha": {"Points": [{"handle_type": 0, "handle_left": {"Y": 1, "X": 0.5}, "handle_right": {"Y": 0, "X": 0.5}, "co": {"Y": 255, "X": 1}, "interpolation": 0}]}, "red": {"Points": [{"handle_type": 0, "handle_left": {"Y": 1, "X": 0.5}, "handle_right": {"Y": 0, "X": 0.5}, "co": {"Y": 0, "X": 1}, "interpolation": 0}]}, "blue": {"Points": [{"handle_type": 0, "handle_left": {"Y": 1, "X": 0.5}, "handle_right": {"Y": 0, "X": 0.5}, "co": {"Y": 255, "X": 1}, "interpolation": 0}]}, "green": {"Points": [{"handle_type": 0, "handle_left": {"Y": 1, "X": 0.5}, "handle_right": {"Y": 0, "X": 0.5}, "co": {"Y": 123, "X": 1}, "interpolation": 0}]}}, "scale_y": {"Points": [{"co": {"Y": 1, "X": 1}, "interpolation": 2}]}, "shear_x": {"Points": [{"co": {"Y": 0, "X": 1}, "interpolation": 2}]}, "perspective_c4_y": {"Points": [{"co": {"Y": -1, "X": 1}, "interpolation": 2}]}, "perspective_c1_y": {"Points": [{"co": {"Y": -1, "X": 1}, "interpolation": 2}]}, "perspective_c4_x": {"Points": [{"co": {"Y": -1, "X": 1}, "interpolation": 2}]}, "position": 78.24, "image": "/home/milind/.openshot_qt/thumbnail/4N4GFJVUAX.png", "duration": 86400.0, "perspective_c2_x": {"Points": [{"co": {"Y": -1, "X": 1}, "interpolation": 2}]}}, "type": "update", "value": {"start": 0, "layer": 2, "end": 5, "image": "/home/milind/.openshot_qt/thumbnail/4N4GFJVUAX.png", "position": 148.86666666666667, "id": "6JUS8WD9VI"}}, {"partial": false, "key": ["clips", {"id": "6JUS8WD9VI"}], "old_values": {"channel_filter": {"Points": [{"co": {"Y": -1, "X": 1}, "interpolation": 2}]}, "start": 0, "channel_mapping": {"Points": [{"co": {"Y": -1, "X": 1}, "interpolation": 2}]}, "rotation": {"Points": [{"co": {"Y": 0, "X": 1}, "interpolation": 2}]}, "title": "!055-Calculate Total Marks.svg", "perspective_c4_x": {"Points": [{"co": {"Y": -1, "X": 1}, "interpolation": 2}]}, "alpha": {"Points": [{"co": {"Y": 1, "X": 1}, "interpolation": 2}]}, "crop_x": {"Points": [{"co": {"Y": 0, "X": 1}, "interpolation": 2}]}, "crop_height": {"Points": [{"co": {"Y": -1, "X": 1}, "interpolation": 2}]}, "location_y": {"Points": [{"co": {"Y": 0, "X": 1}, "interpolation": 2}]}, "perspective_c2_y": {"Points": [{"co": {"Y": -1, "X": 1}, "interpolation": 2}]}, "time": {"Points": [{"co": {"Y": 1, "X": 1}, "interpolation": 2}]}, "scale": 1, "has_video": {"Points": [{"co": {"Y": -1, "X": 1}, "interpolation": 2}]}, "perspective_c3_y": {"Points": [{"co": {"Y": -1, "X": 1}, "interpolation": 2}]}, "volume": {"Points": [{"co": {"Y": 1, "X": 1}, "interpolation": 2}]}, "shear_y": {"Points": [{"co": {"Y": 0, "X": 1}, "interpolation": 2}]}, "id": "6JUS8WD9VI", "gravity": 4, "position": 148.86666666666667, "waveform": false, "file_id": "4N4GFJVUAX", "display": 0, "scale_x": {"Points": [{"co": {"Y": 1, "X": 1}, "interpolation": 2}]}, "layer": 2, "location_x": {"Points": [{"co": {"Y": 0, "X": 1}, "interpolation": 2}]}, "reader": {"pixel_format": -1, "acodec": "", "video_bit_rate": 0, "interlaced_frame": false, "fps": {"num": 30, "den": 1}, "has_single_image": true, "sample_rate": 0, "video_stream_index": -1, "channel_layout": 4, "audio_timebase": {"num": 1, "den": 1}, "file_size": "104140324", "audio_stream_index": -1, "channels": 0, "has_video": true, "path": "/home/milind/Data/Projects/ProgressCard/!055-Calculate Total Marks.svg", "type": "QtImageReader", "width": 6803, "top_field_first": true, "display_ratio": {"num": 6803, "den": 3827}, "vcodec": "", "has_audio": false, "pixel_ratio": {"num": 1, "den": 1}, "audio_bit_rate": 0, "height": 3827, "video_length": "2592000", "duration": 86400.0, "video_timebase": {"num": 1, "den": 30}}, "crop_y": {"Points": [{"co": {"Y": 0, "X": 1}, "interpolation": 2}]}, "end": 5, "wave_color": {"alpha": {"Points": [{"handle_type": 0, "handle_left": {"Y": 1, "X": 0.5}, "handle_right": {"Y": 0, "X": 0.5}, "co": {"Y": 255, "X": 1}, "interpolation": 0}]}, "red": {"Points": [{"handle_type": 0, "handle_left": {"Y": 1, "X": 0.5}, "handle_right": {"Y": 0, "X": 0.5}, "co": {"Y": 0, "X": 1}, "interpolation": 0}]}, "blue": {"Points": [{"handle_type": 0, "handle_left": {"Y": 1, "X": 0.5}, "handle_right": {"Y": 0, "X": 0.5}, "co": {"Y": 255, "X": 1}, "interpolation": 0}]}, "green": {"Points": [{"handle_type": 0, "handle_left": {"Y": 1, "X": 0.5}, "handle_right": {"Y": 0, "X": 0.5}, "co": {"Y": 123, "X": 1}, "interpolation": 0}]}}, "perspective_c1_x": {"Points": [{"co": {"Y": -1, "X": 1}, "interpolation": 2}]}, "crop_width": {"Points": [{"co": {"Y": -1, "X": 1}, "interpolation": 2}]}, "anchor": 0, "has_audio": {"Points": [{"co": {"Y": -1, "X": 1}, "interpolation": 2}]}, "scale_y": {"Points": [{"co": {"Y": 1, "X": 1}, "interpolation": 2}]}, "shear_x": {"Points": [{"co": {"Y": 0, "X": 1}, "interpolation": 2}]}, "perspective_c4_y": {"Points": [{"co": {"Y": -1, "X": 1}, "interpolation": 2}]}, "perspective_c1_y": {"Points": [{"co": {"Y": -1, "X": 1}, "interpolation": 2}]}, "perspective_c3_x": {"Points": [{"co": {"Y": -1, "X": 1}, "interpolation": 2}]}, "effects": [], "image": "/home/milind/.openshot_qt/thumbnail/4N4GFJVUAX.png", "duration": 86400.0, "perspective_c2_x": {"Points": [{"co": {"Y": -1, "X": 1}, "interpolation": 2}]}}, "type": "update", "value": {"start": 0, "layer": 2, "end": 5, "image": "/home/milind/.openshot_qt/thumbnail/4N4GFJVUAX.png", "position": 145.915, "id": "6JUS8WD9VI"}}, {"partial": false, "key": ["clips", {"id": "WALX2TP5RQ"}], "old_values": {"channel_filter": {"Points": [{"co": {"Y": -1.0, "X": 1.0}, "interpolation": 2}]}, "start": 0, "channel_mapping": {"Points": [{"co": {"Y": -1.0, "X": 1.0}, "interpolation": 2}]}, "rotation": {"Points": [{"co": {"Y": 0.0, "X": 1.0}, "interpolation": 2}]}, "title": "01-White-Background.svg", "perspective_c4_x": {"Points": [{"co": {"Y": -1.0, "X": 1.0}, "interpolation": 2}]}, "alpha": {"Points": [{"co": {"Y": 1.0, "X": 1.0}, "interpolation": 2}]}, "crop_x": {"Points": [{"co": {"Y": 0.0, "X": 1.0}, "interpolation": 2}]}, "crop_height": {"Points": [{"co": {"Y": -1.0, "X": 1.0}, "interpolation": 2}]}, "location_y": {"Points": [{"co": {"Y": 0.0, "X": 1.0}, "interpolation": 2}]}, "perspective_c4_y": {"Points": [{"co": {"Y": -1.0, "X": 1.0}, "interpolation": 2}]}, "time": {"Points": [{"co": {"Y": 1.0, "X": 1.0}, "interpolation": 2}]}, "perspective_c2_x": {"Points": [{"co": {"Y": -1.0, "X": 1.0}, "interpolation": 2}]}, "scale_x": {"Points": [{"co": {"Y": 1.0, "X": 1.0}, "interpolation": 2}]}, "perspective_c3_y": {"Points": [{"co": {"Y": -1.0, "X": 1.0}, "interpolation": 2}]}, "volume": {"Points": [{"co": {"Y": 1.0, "X": 1.0}, "interpolation": 2}]}, "shear_y": {"Points": [{"co": {"Y": 0.0, "X": 1.0}, "interpolation": 2}]}, "id": "WALX2TP5RQ", "gravity": 4, "position": 86.375, "waveform": false, "file_id": "TDIZ1HFAHG", "display": 0, "has_video": {"Points": [{"co": {"Y": -1.0, "X": 1.0}, "interpolation": 2}]}, "layer": 0, "location_x": {"Points": [{"co": {"Y": 0.0, "X": 1.0}, "interpolation": 2}]}, "scale": 1, "crop_y": {"Points": [{"co": {"Y": 0.0, "X": 1.0}, "interpolation": 2}]}, "image": "/home/milind/.openshot_qt/thumbnail/TDIZ1HFAHG.png", "wave_color": {"alpha": {"Points": [{"handle_type": 0, "handle_right": {"Y": 0.0, "X": 0.5}, "handle_left": {"Y": 1.0, "X": 0.5}, "co": {"Y": 255.0, "X": 1.0}, "interpolation": 0}]}, "red": {"Points": [{"handle_type": 0, "handle_right": {"Y": 0.0, "X": 0.5}, "handle_left": {"Y": 1.0, "X": 0.5}, "co": {"Y": 0.0, "X": 1.0}, "interpolation": 0}]}, "blue": {"Points": [{"handle_type": 0, "handle_right": {"Y": 0.0, "X": 0.5}, "handle_left": {"Y": 1.0, "X": 0.5}, "co": {"Y": 255.0, "X": 1.0}, "interpolation": 0}]}, "green": {"Points": [{"handle_type": 0, "handle_right": {"Y": 0.0, "X": 0.5}, "handle_left": {"Y": 1.0, "X": 0.5}, "co": {"Y": 123.0, "X": 1.0}, "interpolation": 0}]}}, "duration": 86400.0, "perspective_c1_x": {"Points": [{"co": {"Y": -1.0, "X": 1.0}, "interpolation": 2}]}, "has_audio": {"Points": [{"co": {"Y": -1.0, "X": 1.0}, "interpolation": 2}]}, "crop_width": {"Points": [{"co": {"Y": -1.0, "X": 1.0}, "interpolation": 2}]}, "anchor": 0, "effects": [], "scale_y": {"Points": [{"co": {"Y": 1.0, "X": 1.0}, "interpolation": 2}]}, "shear_x": {"Points": [{"co": {"Y": 0.0, "X": 1.0}, "interpolation": 2}]}, "end": 16.88, "perspective_c1_y": {"Points": [{"co": {"Y": -1.0, "X": 1.0}, "interpolation": 2}]}, "perspective_c3_x": {"Points": [{"co": {"Y": -1.0, "X": 1.0}, "interpolation": 2}]}, "perspective_c2_y": {"Points": [{"co": {"Y": -1.0, "X": 1.0}, "interpolation": 2}]}, "reader": {"pixel_format": -1, "pixel_ratio": {"num": 1, "den": 1}, "acodec": "", "video_bit_rate": 0, "interlaced_frame": false, "fps": {"num": 30, "den": 1}, "has_single_image": true, "sample_rate": 0, "video_stream_index": -1, "channel_layout": 4, "audio_timebase": {"num": 1, "den": 1}, "video_timebase": {"num": 1, "den": 30}, "display_ratio": {"num": 16, "den": 9}, "channels": 0, "has_video": true, "type": "QtImageReader", "width": 1920, "top_field_first": true, "file_size": "8294400", "vcodec": "", "path": "/home/milind/Data/Projects/ProgressCard/Images/01-White-Background.svg", "audio_stream_index": -1, "audio_bit_rate": 0, "height": 1080, "video_length": "2592000", "duration": 86400.0, "has_audio": false}}, "type": "update", "value": {"start": 0, "layer": 0, "end": 16.88, "image": "/home/milind/.openshot_qt/thumbnail/TDIZ1HFAHG.png", "position": 86.375, "id": "WALX2TP5RQ"}}, {"partial": false, "key": ["clips", {"id": "A97KLODAGG"}], "old_values": {"channel_filter": {"Points": [{"co": {"Y": -1.0, "X": 1.0}, "interpolation": 2}]}, "start": 0, "channel_mapping": {"Points": [{"co": {"Y": -1.0, "X": 1.0}, "interpolation": 2}]}, "rotation": {"Points": [{"co": {"Y": 0.0, "X": 1.0}, "interpolation": 2}]}, "title": "01-White-Background.svg", "crop_width": {"Points": [{"co": {"Y": -1.0, "X": 1.0}, "interpolation": 2}]}, "perspective_c4_x": {"Points": [{"co": {"Y": -1.0, "X": 1.0}, "interpolation": 2}]}, "alpha": {"Points": [{"co": {"Y": 1.0, "X": 1.0}, "interpolation": 2}]}, "crop_x": {"Points": [{"co": {"Y": 0.0, "X": 1.0}, "interpolation": 2}]}, "crop_height": {"Points": [{"co": {"Y": -1.0, "X": 1.0}, "interpolation": 2}]}, "display": 0, "time": {"Points": [{"co": {"Y": 1.0, "X": 1.0}, "interpolation": 2}]}, "crop_y": {"Points": [{"co": {"Y": 0.0, "X": 1.0}, "interpolation": 2}]}, "has_video": {"Points": [{"co": {"Y": -1.0, "X": 1.0}, "interpolation": 2}]}, "perspective_c3_y": {"Points": [{"co": {"Y": -1.0, "X": 1.0}, "interpolation": 2}]}, "volume": {"Points": [{"co": {"Y": 1.0, "X": 1.0}, "interpolation": 2}]}, "shear_y": {"Points": [{"co": {"Y": 0.0, "X": 1.0}, "interpolation": 2}]}, "id": "A97KLODAGG", "gravity": 4, "position": 186.65, "waveform": false, "file_id": "TDIZ1HFAHG", "location_y": {"Points": [{"co": {"Y": 0.0, "X": 1.0}, "interpolation": 2}]}, "scale_x": {"Points": [{"co": {"Y": 1.0, "X": 1.0}, "interpolation": 2}]}, "location_x": {"Points": [{"co": {"Y": 0.0, "X": 1.0}, "interpolation": 2}]}, "layer": 0, "reader": {"pixel_format": -1, "pixel_ratio": {"num": 1, "den": 1}, "acodec": "", "video_bit_rate": 0, "interlaced_frame": false, "fps": {"num": 30, "den": 1}, "has_single_image": true, "sample_rate": 0, "video_stream_index": -1, "channel_layout": 4, "audio_timebase": {"num": 1, "den": 1}, "video_timebase": {"num": 1, "den": 30}, "display_ratio": {"num": 16, "den": 9}, "channels": 0, "has_video": true, "type": "QtImageReader", "width": 1920, "top_field_first": true, "file_size": "8294400", "vcodec": "", "path": "/home/milind/Data/Projects/ProgressCard/Images/01-White-Background.svg", "audio_stream_index": -1, "audio_bit_rate": 0, "height": 1080, "video_length": "2592000", "duration": 86400.0, "has_audio": false}, "perspective_c4_y": {"Points": [{"co": {"Y": -1.0, "X": 1.0}, "interpolation": 2}]}, "end": 10, "wave_color": {"alpha": {"Points": [{"handle_type": 0, "handle_right": {"Y": 0.0, "X": 0.5}, "handle_left": {"Y": 1.0, "X": 0.5}, "co": {"Y": 255.0, "X": 1.0}, "interpolation": 0}]}, "red": {"Points": [{"handle_type": 0, "handle_right": {"Y": 0.0, "X": 0.5}, "handle_left": {"Y": 1.0, "X": 0.5}, "co": {"Y": 0.0, "X": 1.0}, "interpolation": 0}]}, "blue": {"Points": [{"handle_type": 0, "handle_right": {"Y": 0.0, "X": 0.5}, "handle_left": {"Y": 1.0, "X": 0.5}, "co": {"Y": 255.0, "X": 1.0}, "interpolation": 0}]}, "green": {"Points": [{"handle_type": 0, "handle_right": {"Y": 0.0, "X": 0.5}, "handle_left": {"Y": 1.0, "X": 0.5}, "co": {"Y": 123.0, "X": 1.0}, "interpolation": 0}]}}, "perspective_c1_x": {"Points": [{"co": {"Y": -1.0, "X": 1.0}, "interpolation": 2}]}, "has_audio": {"Points": [{"co": {"Y": -1.0, "X": 1.0}, "interpolation": 2}]}, "scale": 1, "anchor": 0, "effects": [], "scale_y": {"Points": [{"co": {"Y": 1.0, "X": 1.0}, "interpolation": 2}]}, "shear_x": {"Points": [{"co": {"Y": 0.0, "X": 1.0}, "interpolation": 2}]}, "perspective_c2_x": {"Points": [{"co": {"Y": -1.0, "X": 1.0}, "interpolation": 2}]}, "perspective_c1_y": {"Points": [{"co": {"Y": -1.0, "X": 1.0}, "interpolation": 2}]}, "perspective_c3_x": {"Points": [{"co": {"Y": -1.0, "X": 1.0}, "interpolation": 2}]}, "perspective_c2_y": {"Points": [{"co": {"Y": -1.0, "X": 1.0}, "interpolation": 2}]}, "image": "/home/milind/.openshot_qt/thumbnail/TDIZ1HFAHG.png", "duration": 86400.0}, "type": "update", "value": {"start": 0, "layer": 0, "end": 10, "image": "/home/milind/.openshot_qt/thumbnail/TDIZ1HFAHG.png", "position": 182.93, "id": "A97KLODAGG"}}, {"partial": false, "key": ["clips", {"id": "A97KLODAGG"}], "old_values": {"channel_filter": {"Points": [{"co": {"Y": -1.0, "X": 1.0}, "interpolation": 2}]}, "start": 0, "channel_mapping": {"Points": [{"co": {"Y": -1.0, "X": 1.0}, "interpolation": 2}]}, "rotation": {"Points": [{"co": {"Y": 0.0, "X": 1.0}, "interpolation": 2}]}, "title": "01-White-Background.svg", "perspective_c4_x": {"Points": [{"co": {"Y": -1.0, "X": 1.0}, "interpolation": 2}]}, "alpha": {"Points": [{"co": {"Y": 1.0, "X": 1.0}, "interpolation": 2}]}, "crop_x": {"Points": [{"co": {"Y": 0.0, "X": 1.0}, "interpolation": 2}]}, "crop_height": {"Points": [{"co": {"Y": -1.0, "X": 1.0}, "interpolation": 2}]}, "location_y": {"Points": [{"co": {"Y": 0.0, "X": 1.0}, "interpolation": 2}]}, "perspective_c4_y": {"Points": [{"co": {"Y": -1.0, "X": 1.0}, "interpolation": 2}]}, "time": {"Points": [{"co": {"Y": 1.0, "X": 1.0}, "interpolation": 2}]}, "perspective_c2_x": {"Points": [{"co": {"Y": -1.0, "X": 1.0}, "interpolation": 2}]}, "has_video": {"Points": [{"co": {"Y": -1.0, "X": 1.0}, "interpolation": 2}]}, "perspective_c3_y": {"Points": [{"co": {"Y": -1.0, "X": 1.0}, "interpolation": 2}]}, "volume": {"Points": [{"co": {"Y": 1.0, "X": 1.0}, "interpolation": 2}]}, "shear_y": {"Points": [{"co": {"Y": 0.0, "X": 1.0}, "interpolation": 2}]}, "id": "A97KLODAGG", "gravity": 4, "position": 182.93, "waveform": false, "file_id": "TDIZ1HFAHG", "display": 0, "scale_x": {"Points": [{"co": {"Y": 1.0, "X": 1.0}, "interpolation": 2}]}, "layer": 0, "location_x": {"Points": [{"co": {"Y": 0.0, "X": 1.0}, "interpolation": 2}]}, "scale": 1, "crop_y": {"Points": [{"co": {"Y": 0.0, "X": 1.0}, "interpolation": 2}]}, "image": "/home/milind/.openshot_qt/thumbnail/TDIZ1HFAHG.png", "wave_color": {"alpha": {"Points": [{"handle_type": 0, "handle_right": {"Y": 0.0, "X": 0.5}, "handle_left": {"Y": 1.0, "X": 0.5}, "co": {"Y": 255.0, "X": 1.0}, "interpolation": 0}]}, "red": {"Points": [{"handle_type": 0, "handle_right": {"Y": 0.0, "X": 0.5}, "handle_left": {"Y": 1.0, "X": 0.5}, "co": {"Y": 0.0, "X": 1.0}, "interpolation": 0}]}, "blue": {"Points": [{"handle_type": 0, "handle_right": {"Y": 0.0, "X": 0.5}, "handle_left": {"Y": 1.0, "X": 0.5}, "co": {"Y": 255.0, "X": 1.0}, "interpolation": 0}]}, "green": {"Points": [{"handle_type": 0, "handle_right": {"Y": 0.0, "X": 0.5}, "handle_left": {"Y": 1.0, "X": 0.5}, "co": {"Y": 123.0, "X": 1.0}, "interpolation": 0}]}}, "duration": 86400.0, "perspective_c1_x": {"Points": [{"co": {"Y": -1.0, "X": 1.0}, "interpolation": 2}]}, "has_audio": {"Points": [{"co": {"Y": -1.0, "X": 1.0}, "interpolation": 2}]}, "crop_width": {"Points": [{"co": {"Y": -1.0, "X": 1.0}, "interpolation": 2}]}, "anchor": 0, "effects": [], "scale_y": {"Points": [{"co": {"Y": 1.0, "X": 1.0}, "interpolation": 2}]}, "shear_x": {"Points": [{"co": {"Y": 0.0, "X": 1.0}, "interpolation": 2}]}, "end": 10, "perspective_c1_y": {"Points": [{"co": {"Y": -1.0, "X": 1.0}, "interpolation": 2}]}, "perspective_c3_x": {"Points": [{"co": {"Y": -1.0, "X": 1.0}, "interpolation": 2}]}, "perspective_c2_y": {"Points": [{"co": {"Y": -1.0, "X": 1.0}, "interpolation": 2}]}, "reader": {"pixel_format": -1, "pixel_ratio": {"num": 1, "den": 1}, "acodec": "", "video_bit_rate": 0, "interlaced_frame": false, "fps": {"num": 30, "den": 1}, "has_single_image": true, "sample_rate": 0, "video_stream_index": -1, "channel_layout": 4, "audio_timebase": {"num": 1, "den": 1}, "video_timebase": {"num": 1, "den": 30}, "display_ratio": {"num": 16, "den": 9}, "channels": 0, "has_video": true, "type": "QtImageReader", "width": 1920, "top_field_first": true, "file_size": "8294400", "vcodec": "", "path": "/home/milind/Data/Projects/ProgressCard/Images/01-White-Background.svg", "audio_stream_index": -1, "audio_bit_rate": 0, "height": 1080, "video_length": "2592000", "duration": 86400.0, "has_audio": false}}, "type": "update", "value": {"start": 0, "layer": 0, "end": 14.16, "image": "/home/milind/.openshot_qt/thumbnail/TDIZ1HFAHG.png", "position": 182.93, "id": "A97KLODAGG"}}, {"partial": false, "key": ["clips", {"id": "ZSCEWQGJ8G"}], "old_values": {"channel_filter": {"Points": [{"co": {"Y": -1.0, "X": 1.0}, "interpolation": 2}]}, "start": 0, "channel_mapping": {"Points": [{"co": {"Y": -1.0, "X": 1.0}, "interpolation": 2}]}, "rotation": {"Points": [{"co": {"Y": 0.0, "X": 1.0}, "interpolation": 2}]}, "title": "01-White-Background.svg", "crop_width": {"Points": [{"co": {"Y": -1.0, "X": 1.0}, "interpolation": 2}]}, "alpha": {"Points": [{"co": {"Y": 1.0, "X": 1.0}, "interpolation": 2}]}, "crop_x": {"Points": [{"co": {"Y": 0.0, "X": 1.0}, "interpolation": 2}]}, "crop_height": {"Points": [{"co": {"Y": -1.0, "X": 1.0}, "interpolation": 2}]}, "display": 0, "time": {"Points": [{"co": {"Y": 1.0, "X": 1.0}, "interpolation": 2}]}, "perspective_c4_x": {"Points": [{"co": {"Y": -1.0, "X": 1.0}, "interpolation": 2}]}, "scale_x": {"Points": [{"co": {"Y": 1.0, "X": 1.0}, "interpolation": 2}]}, "perspective_c3_y": {"Points": [{"co": {"Y": -1.0, "X": 1.0}, "interpolation": 2}]}, "volume": {"Points": [{"co": {"Y": 1.0, "X": 1.0}, "interpolation": 2}]}, "shear_y": {"Points": [{"co": {"Y": 0.0, "X": 1.0}, "interpolation": 2}]}, "id": "ZSCEWQGJ8G", "gravity": 4, "position": 143.68, "waveform": false, "file_id": "TDIZ1HFAHG", "location_y": {"Points": [{"co": {"Y": 0.0, "X": 1.0}, "interpolation": 2}]}, "has_video": {"Points": [{"co": {"Y": -1.0, "X": 1.0}, "interpolation": 2}]}, "location_x": {"Points": [{"co": {"Y": 0.0, "X": 1.0}, "interpolation": 2}]}, "layer": 0, "reader": {"pixel_format": -1, "pixel_ratio": {"num": 1, "den": 1}, "acodec": "", "video_bit_rate": 0, "interlaced_frame": false, "fps": {"num": 30, "den": 1}, "has_single_image": true, "sample_rate": 0, "video_stream_index": -1, "channel_layout": 4, "audio_timebase": {"num": 1, "den": 1}, "video_timebase": {"num": 1, "den": 30}, "display_ratio": {"num": 16, "den": 9}, "channels": 0, "has_video": true, "type": "QtImageReader", "width": 1920, "top_field_first": true, "file_size": "8294400", "vcodec": "", "path": "/home/milind/Data/Projects/ProgressCard/Images/01-White-Background.svg", "audio_stream_index": -1, "audio_bit_rate": 0, "height": 1080, "video_length": "2592000", "duration": 86400.0, "has_audio": false}, "crop_y": {"Points": [{"co": {"Y": 0.0, "X": 1.0}, "interpolation": 2}]}, "end": 10, "wave_color": {"alpha": {"Points": [{"handle_type": 0, "handle_right": {"Y": 0.0, "X": 0.5}, "handle_left": {"Y": 1.0, "X": 0.5}, "co": {"Y": 255.0, "X": 1.0}, "interpolation": 0}]}, "red": {"Points": [{"handle_type": 0, "handle_right": {"Y": 0.0, "X": 0.5}, "handle_left": {"Y": 1.0, "X": 0.5}, "co": {"Y": 0.0, "X": 1.0}, "interpolation": 0}]}, "blue": {"Points": [{"handle_type": 0, "handle_right": {"Y": 0.0, "X": 0.5}, "handle_left": {"Y": 1.0, "X": 0.5}, "co": {"Y": 255.0, "X": 1.0}, "interpolation": 0}]}, "green": {"Points": [{"handle_type": 0, "handle_right": {"Y": 0.0, "X": 0.5}, "handle_left": {"Y": 1.0, "X": 0.5}, "co": {"Y": 123.0, "X": 1.0}, "interpolation": 0}]}}, "perspective_c1_x": {"Points": [{"co": {"Y": -1.0, "X": 1.0}, "interpolation": 2}]}, "has_audio": {"Points": [{"co": {"Y": -1.0, "X": 1.0}, "interpolation": 2}]}, "scale": 1, "anchor": 0, "effects": [], "scale_y": {"Points": [{"co": {"Y": 1.0, "X": 1.0}, "interpolation": 2}]}, "shear_x": {"Points": [{"co": {"Y": 0.0, "X": 1.0}, "interpolation": 2}]}, "perspective_c4_y": {"Points": [{"co": {"Y": -1.0, "X": 1.0}, "interpolation": 2}]}, "perspective_c1_y": {"Points": [{"co": {"Y": -1.0, "X": 1.0}, "interpolation": 2}]}, "perspective_c3_x": {"Points": [{"co": {"Y": -1.0, "X": 1.0}, "interpolation": 2}]}, "perspective_c2_y": {"Points": [{"co": {"Y": -1.0, "X": 1.0}, "interpolation": 2}]}, "image": "/home/milind/.openshot_qt/thumbnail/TDIZ1HFAHG.png", "duration": 86400.0, "perspective_c2_x": {"Points": [{"co": {"Y": -1.0, "X": 1.0}, "interpolation": 2}]}}, "type": "update", "value": {"start": 0, "layer": 0, "end": 10, "image": "/home/milind/.openshot_qt/thumbnail/TDIZ1HFAHG.png", "position": 140.995, "id": "ZSCEWQGJ8G"}}, {"partial": false, "key": ["clips", {"id": "6JUS8WD9VI"}], "old_values": {"channel_filter": {"Points": [{"co": {"Y": -1, "X": 1}, "interpolation": 2}]}, "start": 0, "channel_mapping": {"Points": [{"co": {"Y": -1, "X": 1}, "interpolation": 2}]}, "rotation": {"Points": [{"co": {"Y": 0, "X": 1}, "interpolation": 2}]}, "title": "!055-Calculate Total Marks.svg", "perspective_c4_x": {"Points": [{"co": {"Y": -1, "X": 1}, "interpolation": 2}]}, "alpha": {"Points": [{"co": {"Y": 1, "X": 1}, "interpolation": 2}]}, "crop_x": {"Points": [{"co": {"Y": 0, "X": 1}, "interpolation": 2}]}, "crop_height": {"Points": [{"co": {"Y": -1, "X": 1}, "interpolation": 2}]}, "location_y": {"Points": [{"co": {"Y": 0, "X": 1}, "interpolation": 2}]}, "perspective_c2_y": {"Points": [{"co": {"Y": -1, "X": 1}, "interpolation": 2}]}, "time": {"Points": [{"co": {"Y": 1, "X": 1}, "interpolation": 2}]}, "scale": 1, "has_video": {"Points": [{"co": {"Y": -1, "X": 1}, "interpolation": 2}]}, "perspective_c3_y": {"Points": [{"co": {"Y": -1, "X": 1}, "interpolation": 2}]}, "volume": {"Points": [{"co": {"Y": 1, "X": 1}, "interpolation": 2}]}, "shear_y": {"Points": [{"co": {"Y": 0, "X": 1}, "interpolation": 2}]}, "id": "6JUS8WD9VI", "gravity": 4, "position": 145.915, "waveform": false, "file_id": "4N4GFJVUAX", "display": 0, "scale_x": {"Points": [{"co": {"Y": 1, "X": 1}, "interpolation": 2}]}, "layer": 2, "location_x": {"Points": [{"co": {"Y": 0, "X": 1}, "interpolation": 2}]}, "reader": {"pixel_format": -1, "acodec": "", "video_bit_rate": 0, "interlaced_frame": false, "fps": {"num": 30, "den": 1}, "has_single_image": true, "sample_rate": 0, "video_stream_index": -1, "channel_layout": 4, "audio_timebase": {"num": 1, "den": 1}, "file_size": "104140324", "audio_stream_index": -1, "channels": 0, "has_video": true, "path": "/home/milind/Data/Projects/ProgressCard/!055-Calculate Total Marks.svg", "type": "QtImageReader", "width": 6803, "top_field_first": true, "display_ratio": {"num": 6803, "den": 3827}, "vcodec": "", "has_audio": false, "pixel_ratio": {"num": 1, "den": 1}, "audio_bit_rate": 0, "height": 3827, "video_length": "2592000", "duration": 86400.0, "video_timebase": {"num": 1, "den": 30}}, "crop_y": {"Points": [{"co": {"Y": 0, "X": 1}, "interpolation": 2}]}, "end": 5, "wave_color": {"alpha": {"Points": [{"handle_type": 0, "handle_left": {"Y": 1, "X": 0.5}, "handle_right": {"Y": 0, "X": 0.5}, "co": {"Y": 255, "X": 1}, "interpolation": 0}]}, "red": {"Points": [{"handle_type": 0, "handle_left": {"Y": 1, "X": 0.5}, "handle_right": {"Y": 0, "X": 0.5}, "co": {"Y": 0, "X": 1}, "interpolation": 0}]}, "blue": {"Points": [{"handle_type": 0, "handle_left": {"Y": 1, "X": 0.5}, "handle_right": {"Y": 0, "X": 0.5}, "co": {"Y": 255, "X": 1}, "interpolation": 0}]}, "green": {"Points": [{"handle_type": 0, "handle_left": {"Y": 1, "X": 0.5}, "handle_right": {"Y": 0, "X": 0.5}, "co": {"Y": 123, "X": 1}, "interpolation": 0}]}}, "perspective_c1_x": {"Points": [{"co": {"Y": -1, "X": 1}, "interpolation": 2}]}, "crop_width": {"Points": [{"co": {"Y": -1, "X": 1}, "interpolation": 2}]}, "anchor": 0, "has_audio": {"Points": [{"co": {"Y": -1, "X": 1}, "interpolation": 2}]}, "scale_y": {"Points": [{"co": {"Y": 1, "X": 1}, "interpolation": 2}]}, "shear_x": {"Points": [{"co": {"Y": 0, "X": 1}, "interpolation": 2}]}, "perspective_c4_y": {"Points": [{"co": {"Y": -1, "X": 1}, "interpolation": 2}]}, "perspective_c1_y": {"Points": [{"co": {"Y": -1, "X": 1}, "interpolation": 2}]}, "perspective_c3_x": {"Points": [{"co": {"Y": -1, "X": 1}, "interpolation": 2}]}, "effects": [], "image": "/home/milind/.openshot_qt/thumbnail/4N4GFJVUAX.png", "duration": 86400.0, "perspective_c2_x": {"Points": [{"co": {"Y": -1, "X": 1}, "interpolation": 2}]}}, "type": "update", "value": {"channel_filter": {"Points": [{"co": {"Y": -1, "X": 1}, "interpolation": 2}]}, "start": 0, "channel_mapping": {"Points": [{"co": {"Y": -1, "X": 1}, "interpolation": 2}]}, "rotation": {"Points": [{"co": {"Y": 0, "X": 1}, "interpolation": 2}]}, "title": "!055-Calculate Total Marks.svg", "perspective_c4_x": {"Points": [{"co": {"Y": -1, "X": 1}, "interpolation": 2}]}, "alpha": {"Points": [{"co": {"Y": 1, "X": 1}, "interpolation": 2}, {"handle_type": 0, "handle_left": {"Y": 1, "X": 0.5}, "handle_right": {"Y": 0, "X": 0.5}, "co": {"Y": 0, "X": 1}, "interpolation": 0}, {"handle_type": 0, "handle_left": {"Y": 1, "X": 0.5}, "handle_right": {"Y": 0, "X": 0.5}, "co": {"Y": 1, "X": 73}, "interpolation": 0}]}, "crop_x": {"Points": [{"co": {"Y": 0, "X": 1}, "interpolation": 2}]}, "crop_height": {"Points": [{"co": {"Y": -1, "X": 1}, "interpolation": 2}]}, "location_y": {"Points": [{"co": {"Y": 0, "X": 1}, "interpolation": 2}]}, "perspective_c2_y": {"Points": [{"co": {"Y": -1, "X": 1}, "interpolation": 2}]}, "time": {"Points": [{"co": {"Y": 1, "X": 1}, "interpolation": 2}]}, "perspective_c2_x": {"Points": [{"co": {"Y": -1, "X": 1}, "interpolation": 2}]}, "has_video": {"Points": [{"co": {"Y": -1, "X": 1}, "interpolation": 2}]}, "perspective_c3_y": {"Points": [{"co": {"Y": -1, "X": 1}, "interpolation": 2}]}, "volume": {"Points": [{"co": {"Y": 1, "X": 1}, "interpolation": 2}]}, "shear_y": {"Points": [{"co": {"Y": 0, "X": 1}, "interpolation": 2}]}, "id": "6JUS8WD9VI", "gravity": 4, "position": 145.915, "waveform": false, "file_id": "4N4GFJVUAX", "display": 0, "scale_x": {"Points": [{"co": {"Y": 1, "X": 1}, "interpolation": 2}]}, "layer": 2, "location_x": {"Points": [{"co": {"Y": 0, "X": 1}, "interpolation": 2}]}, "scale": 1, "crop_y": {"Points": [{"co": {"Y": 0, "X": 1}, "interpolation": 2}]}, "end": 5, "wave_color": {"alpha": {"Points": [{"handle_type": 0, "handle_left": {"Y": 1, "X": 0.5}, "handle_right": {"Y": 0, "X": 0.5}, "co": {"Y": 255, "X": 1}, "interpolation": 0}]}, "red": {"Points": [{"handle_type": 0, "handle_left": {"Y": 1, "X": 0.5}, "handle_right": {"Y": 0, "X": 0.5}, "co": {"Y": 0, "X": 1}, "interpolation": 0}]}, "blue": {"Points": [{"handle_type": 0, "handle_left": {"Y": 1, "X": 0.5}, "handle_right": {"Y": 0, "X": 0.5}, "co": {"Y": 255, "X": 1}, "interpolation": 0}]}, "green": {"Points": [{"handle_type": 0, "handle_left": {"Y": 1, "X": 0.5}, "handle_right": {"Y": 0, "X": 0.5}, "co": {"Y": 123, "X": 1}, "interpolation": 0}]}}, "perspective_c1_x": {"Points": [{"co": {"Y": -1, "X": 1}, "interpolation": 2}]}, "crop_width": {"Points": [{"co": {"Y": -1, "X": 1}, "interpolation": 2}]}, "anchor": 0, "has_audio": {"Points": [{"co": {"Y": -1, "X": 1}, "interpolation": 2}]}, "scale_y": {"Points": [{"co": {"Y": 1, "X": 1}, "interpolation": 2}]}, "shear_x": {"Points": [{"co": {"Y": 0, "X": 1}, "interpolation": 2}]}, "perspective_c4_y": {"Points": [{"co": {"Y": -1, "X": 1}, "interpolation": 2}]}, "perspective_c1_y": {"Points": [{"co": {"Y": -1, "X": 1}, "interpolation": 2}]}, "perspective_c3_x": {"Points": [{"co": {"Y": -1, "X": 1}, "interpolation": 2}]}, "effects": [], "image": "/home/milind/.openshot_qt/thumbnail/4N4GFJVUAX.png", "duration": 86400.0}}, {"partial": false, "key": ["clips", {"id": "6JUS8WD9VI"}], "old_values": {"channel_filter": {"Points": [{"co": {"Y": -1, "X": 1}, "interpolation": 2}]}, "start": 0, "channel_mapping": {"Points": [{"co": {"Y": -1, "X": 1}, "interpolation": 2}]}, "rotation": {"Points": [{"co": {"Y": 0, "X": 1}, "interpolation": 2}]}, "title": "!055-Calculate Total Marks.svg", "perspective_c4_x": {"Points": [{"co": {"Y": -1, "X": 1}, "interpolation": 2}]}, "alpha": {"Points": [{"co": {"Y": 1, "X": 1}, "interpolation": 2}, {"handle_type": 0, "handle_left": {"Y": 1, "X": 0.5}, "interpolation": 0, "co": {"Y": 0, "X": 1}, "handle_right": {"Y": 0, "X": 0.5}}, {"handle_type": 0, "handle_left": {"Y": 1, "X": 0.5}, "interpolation": 0, "co": {"Y": 1, "X": 73}, "handle_right": {"Y": 0, "X": 0.5}}]}, "crop_x": {"Points": [{"co": {"Y": 0, "X": 1}, "interpolation": 2}]}, "crop_height": {"Points": [{"co": {"Y": -1, "X": 1}, "interpolation": 2}]}, "location_y": {"Points": [{"co": {"Y": 0, "X": 1}, "interpolation": 2}]}, "perspective_c2_y": {"Points": [{"co": {"Y": -1, "X": 1}, "interpolation": 2}]}, "time": {"Points": [{"co": {"Y": 1, "X": 1}, "interpolation": 2}]}, "scale": 1, "has_video": {"Points": [{"co": {"Y": -1, "X": 1}, "interpolation": 2}]}, "perspective_c3_y": {"Points": [{"co": {"Y": -1, "X": 1}, "interpolation": 2}]}, "volume": {"Points": [{"co": {"Y": 1, "X": 1}, "interpolation": 2}]}, "shear_y": {"Points": [{"co": {"Y": 0, "X": 1}, "interpolation": 2}]}, "id": "6JUS8WD9VI", "gravity": 4, "position": 145.915, "waveform": false, "file_id": "4N4GFJVUAX", "display": 0, "scale_x": {"Points": [{"co": {"Y": 1, "X": 1}, "interpolation": 2}]}, "layer": 2, "location_x": {"Points": [{"co": {"Y": 0, "X": 1}, "interpolation": 2}]}, "reader": {"pixel_format": -1, "acodec": "", "video_bit_rate": 0, "interlaced_frame": false, "fps": {"num": 30, "den": 1}, "has_single_image": true, "sample_rate": 0, "video_stream_index": -1, "channel_layout": 4, "audio_timebase": {"num": 1, "den": 1}, "file_size": "104140324", "audio_stream_index": -1, "channels": 0, "has_video": true, "path": "/home/milind/Data/Projects/ProgressCard/!055-Calculate Total Marks.svg", "type": "QtImageReader", "width": 6803, "top_field_first": true, "display_ratio": {"num": 6803, "den": 3827}, "vcodec": "", "has_audio": false, "pixel_ratio": {"num": 1, "den": 1}, "audio_bit_rate": 0, "height": 3827, "video_length": "2592000", "duration": 86400.0, "video_timebase": {"num": 1, "den": 30}}, "crop_y": {"Points": [{"co": {"Y": 0, "X": 1}, "interpolation": 2}]}, "end": 5, "wave_color": {"alpha": {"Points": [{"handle_type": 0, "handle_left": {"Y": 1, "X": 0.5}, "interpolation": 0, "co": {"Y": 255, "X": 1}, "handle_right": {"Y": 0, "X": 0.5}}]}, "red": {"Points": [{"handle_type": 0, "handle_left": {"Y": 1, "X": 0.5}, "interpolation": 0, "co": {"Y": 0, "X": 1}, "handle_right": {"Y": 0, "X": 0.5}}]}, "blue": {"Points": [{"handle_type": 0, "handle_left": {"Y": 1, "X": 0.5}, "interpolation": 0, "co": {"Y": 255, "X": 1}, "handle_right": {"Y": 0, "X": 0.5}}]}, "green": {"Points": [{"handle_type": 0, "handle_left": {"Y": 1, "X": 0.5}, "interpolation": 0, "co": {"Y": 123, "X": 1}, "handle_right": {"Y": 0, "X": 0.5}}]}}, "perspective_c1_x": {"Points": [{"co": {"Y": -1, "X": 1}, "interpolation": 2}]}, "crop_width": {"Points": [{"co": {"Y": -1, "X": 1}, "interpolation": 2}]}, "anchor": 0, "has_audio": {"Points": [{"co": {"Y": -1, "X": 1}, "interpolation": 2}]}, "scale_y": {"Points": [{"co": {"Y": 1, "X": 1}, "interpolation": 2}]}, "shear_x": {"Points": [{"co": {"Y": 0, "X": 1}, "interpolation": 2}]}, "perspective_c4_y": {"Points": [{"co": {"Y": -1, "X": 1}, "interpolation": 2}]}, "perspective_c1_y": {"Points": [{"co": {"Y": -1, "X": 1}, "interpolation": 2}]}, "perspective_c3_x": {"Points": [{"co": {"Y": -1, "X": 1}, "interpolation": 2}]}, "effects": [], "image": "/home/milind/.openshot_qt/thumbnail/4N4GFJVUAX.png", "duration": 86400.0, "perspective_c2_x": {"Points": [{"co": {"Y": -1, "X": 1}, "interpolation": 2}]}}, "type": "update", "value": {"channel_filter": {"Points": [{"co": {"Y": -1, "X": 1}, "interpolation": 2}]}, "start": 0, "channel_mapping": {"Points": [{"co": {"Y": -1, "X": 1}, "interpolation": 2}]}, "rotation": {"Points": [{"co": {"Y": 0, "X": 1}, "interpolation": 2}]}, "title": "!055-Calculate Total Marks.svg", "perspective_c4_x": {"Points": [{"co": {"Y": -1, "X": 1}, "interpolation": 2}]}, "alpha": {"Points": [{"co": {"Y": 1, "X": 1}, "interpolation": 2}, {"handle_type": 0, "handle_left": {"Y": 1, "X": 0.5}, "interpolation": 0, "co": {"Y": 0, "X": 1}, "handle_right": {"Y": 0, "X": 0.5}}, {"handle_type": 0, "handle_left": {"Y": 1, "X": 0.5}, "interpolation": 0, "co": {"Y": 1, "X": 73}, "handle_right": {"Y": 0, "X": 0.5}}, {"handle_type": 0, "handle_left": {"Y": 1, "X": 0.5}, "handle_right": {"Y": 0, "X": 0.5}, "co": {"Y": 1, "X": 49}, "interpolation": 0}, {"handle_type": 0, "handle_left": {"Y": 1, "X": 0.5}, "handle_right": {"Y": 0, "X": 0.5}, "co": {"Y": 0, "X": 121}, "interpolation": 0}]}, "crop_x": {"Points": [{"co": {"Y": 0, "X": 1}, "interpolation": 2}]}, "crop_height": {"Points": [{"co": {"Y": -1, "X": 1}, "interpolation": 2}]}, "location_y": {"Points": [{"co": {"Y": 0, "X": 1}, "interpolation": 2}]}, "perspective_c2_y": {"Points": [{"co": {"Y": -1, "X": 1}, "interpolation": 2}]}, "time": {"Points": [{"co": {"Y": 1, "X": 1}, "interpolation": 2}]}, "perspective_c2_x": {"Points": [{"co": {"Y": -1, "X": 1}, "interpolation": 2}]}, "has_video": {"Points": [{"co": {"Y": -1, "X": 1}, "interpolation": 2}]}, "perspective_c3_y": {"Points": [{"co": {"Y": -1, "X": 1}, "interpolation": 2}]}, "volume": {"Points": [{"co": {"Y": 1, "X": 1}, "interpolation": 2}]}, "shear_y": {"Points": [{"co": {"Y": 0, "X": 1}, "interpolation": 2}]}, "id": "6JUS8WD9VI", "gravity": 4, "position": 145.915, "waveform": false, "file_id": "4N4GFJVUAX", "display": 0, "scale_x": {"Points": [{"co": {"Y": 1, "X": 1}, "interpolation": 2}]}, "layer": 2, "location_x": {"Points": [{"co": {"Y": 0, "X": 1}, "interpolation": 2}]}, "scale": 1, "crop_y": {"Points": [{"co": {"Y": 0, "X": 1}, "interpolation": 2}]}, "end": 5, "wave_color": {"alpha": {"Points": [{"handle_type": 0, "handle_left": {"Y": 1, "X": 0.5}, "interpolation": 0, "co": {"Y": 255, "X": 1}, "handle_right": {"Y": 0, "X": 0.5}}]}, "red": {"Points": [{"handle_type": 0, "handle_left": {"Y": 1, "X": 0.5}, "interpolation": 0, "co": {"Y": 0, "X": 1}, "handle_right": {"Y": 0, "X": 0.5}}]}, "blue": {"Points": [{"handle_type": 0, "handle_left": {"Y": 1, "X": 0.5}, "interpolation": 0, "co": {"Y": 255, "X": 1}, "handle_right": {"Y": 0, "X": 0.5}}]}, "green": {"Points": [{"handle_type": 0, "handle_left": {"Y": 1, "X": 0.5}, "interpolation": 0, "co": {"Y": 123, "X": 1}, "handle_right": {"Y": 0, "X": 0.5}}]}}, "perspective_c1_x": {"Points": [{"co": {"Y": -1, "X": 1}, "interpolation": 2}]}, "crop_width": {"Points": [{"co": {"Y": -1, "X": 1}, "interpolation": 2}]}, "anchor": 0, "has_audio": {"Points": [{"co": {"Y": -1, "X": 1}, "interpolation": 2}]}, "scale_y": {"Points": [{"co": {"Y": 1, "X": 1}, "interpolation": 2}]}, "shear_x": {"Points": [{"co": {"Y": 0, "X": 1}, "interpolation": 2}]}, "perspective_c4_y": {"Points": [{"co": {"Y": -1, "X": 1}, "interpolation": 2}]}, "perspective_c1_y": {"Points": [{"co": {"Y": -1, "X": 1}, "interpolation": 2}]}, "perspective_c3_x": {"Points": [{"co": {"Y": -1, "X": 1}, "interpolation": 2}]}, "effects": [], "image": "/home/milind/.openshot_qt/thumbnail/4N4GFJVUAX.png", "duration": 86400.0}}, {"partial": false, "key": ["clips", {"id": "6JUS8WD9VI"}], "old_values": {"channel_filter": {"Points": [{"co": {"Y": -1, "X": 1}, "interpolation": 2}]}, "start": 0, "channel_mapping": {"Points": [{"co": {"Y": -1, "X": 1}, "interpolation": 2}]}, "rotation": {"Points": [{"co": {"Y": 0, "X": 1}, "interpolation": 2}]}, "title": "!055-Calculate Total Marks.svg", "perspective_c4_x": {"Points": [{"co": {"Y": -1, "X": 1}, "interpolation": 2}]}, "alpha": {"Points": [{"co": {"Y": 1, "X": 1}, "interpolation": 2}, {"handle_type": 0, "handle_left": {"Y": 1, "X": 0.5}, "handle_right": {"Y": 0, "X": 0.5}, "co": {"Y": 0, "X": 1}, "interpolation": 0}, {"handle_type": 0, "handle_left": {"Y": 1, "X": 0.5}, "handle_right": {"Y": 0, "X": 0.5}, "co": {"Y": 1, "X": 73}, "interpolation": 0}, {"handle_type": 0, "handle_left": {"Y": 1, "X": 0.5}, "interpolation": 0, "co": {"Y": 1, "X": 49}, "handle_right": {"Y": 0, "X": 0.5}}, {"handle_type": 0, "handle_left": {"Y": 1, "X": 0.5}, "interpolation": 0, "co": {"Y": 0, "X": 121}, "handle_right": {"Y": 0, "X": 0.5}}]}, "crop_x": {"Points": [{"co": {"Y": 0, "X": 1}, "interpolation": 2}]}, "crop_height": {"Points": [{"co": {"Y": -1, "X": 1}, "interpolation": 2}]}, "location_y": {"Points": [{"co": {"Y": 0, "X": 1}, "interpolation": 2}]}, "perspective_c2_y": {"Points": [{"co": {"Y": -1, "X": 1}, "interpolation": 2}]}, "time": {"Points": [{"co": {"Y": 1, "X": 1}, "interpolation": 2}]}, "scale": 1, "has_video": {"Points": [{"co": {"Y": -1, "X": 1}, "interpolation": 2}]}, "perspective_c3_y": {"Points": [{"co": {"Y": -1, "X": 1}, "interpolation": 2}]}, "volume": {"Points": [{"co": {"Y": 1, "X": 1}, "interpolation": 2}]}, "shear_y": {"Points": [{"co": {"Y": 0, "X": 1}, "interpolation": 2}]}, "id": "6JUS8WD9VI", "gravity": 4, "position": 145.915, "waveform": false, "file_id": "4N4GFJVUAX", "display": 0, "scale_x": {"Points": [{"co": {"Y": 1, "X": 1}, "interpolation": 2}]}, "layer": 2, "location_x": {"Points": [{"co": {"Y": 0, "X": 1}, "interpolation": 2}]}, "reader": {"pixel_format": -1, "acodec": "", "video_bit_rate": 0, "interlaced_frame": false, "fps": {"num": 30, "den": 1}, "has_single_image": true, "sample_rate": 0, "video_stream_index": -1, "channel_layout": 4, "audio_timebase": {"num": 1, "den": 1}, "file_size": "104140324", "audio_stream_index": -1, "channels": 0, "has_video": true, "path": "/home/milind/Data/Projects/ProgressCard/!055-Calculate Total Marks.svg", "type": "QtImageReader", "width": 6803, "top_field_first": true, "display_ratio": {"num": 6803, "den": 3827}, "vcodec": "", "has_audio": false, "pixel_ratio": {"num": 1, "den": 1}, "audio_bit_rate": 0, "height": 3827, "video_length": "2592000", "duration": 86400.0, "video_timebase": {"num": 1, "den": 30}}, "crop_y": {"Points": [{"co": {"Y": 0, "X": 1}, "interpolation": 2}]}, "end": 5, "wave_color": {"alpha": {"Points": [{"handle_type": 0, "handle_left": {"Y": 1, "X": 0.5}, "handle_right": {"Y": 0, "X": 0.5}, "co": {"Y": 255, "X": 1}, "interpolation": 0}]}, "red": {"Points": [{"handle_type": 0, "handle_left": {"Y": 1, "X": 0.5}, "handle_right": {"Y": 0, "X": 0.5}, "co": {"Y": 0, "X": 1}, "interpolation": 0}]}, "blue": {"Points": [{"handle_type": 0, "handle_left": {"Y": 1, "X": 0.5}, "handle_right": {"Y": 0, "X": 0.5}, "co": {"Y": 255, "X": 1}, "interpolation": 0}]}, "green": {"Points": [{"handle_type": 0, "handle_left": {"Y": 1, "X": 0.5}, "handle_right": {"Y": 0, "X": 0.5}, "co": {"Y": 123, "X": 1}, "interpolation": 0}]}}, "perspective_c1_x": {"Points": [{"co": {"Y": -1, "X": 1}, "interpolation": 2}]}, "crop_width": {"Points": [{"co": {"Y": -1, "X": 1}, "interpolation": 2}]}, "anchor": 0, "has_audio": {"Points": [{"co": {"Y": -1, "X": 1}, "interpolation": 2}]}, "scale_y": {"Points": [{"co": {"Y": 1, "X": 1}, "interpolation": 2}]}, "shear_x": {"Points": [{"co": {"Y": 0, "X": 1}, "interpolation": 2}]}, "perspective_c4_y": {"Points": [{"co": {"Y": -1, "X": 1}, "interpolation": 2}]}, "perspective_c1_y": {"Points": [{"co": {"Y": -1, "X": 1}, "interpolation": 2}]}, "perspective_c3_x": {"Points": [{"co": {"Y": -1, "X": 1}, "interpolation": 2}]}, "effects": [], "image": "/home/milind/.openshot_qt/thumbnail/4N4GFJVUAX.png", "duration": 86400.0, "perspective_c2_x": {"Points": [{"co": {"Y": -1, "X": 1}, "interpolation": 2}]}}, "type": "update", "value": {"start": 0, "layer": 2, "end": 5, "image": "/home/milind/.openshot_qt/thumbnail/4N4GFJVUAX.png", "position": 144.155, "id": "6JUS8WD9VI"}}], "redo": []}, "fps": {"num": 24, "den": 1}, "progress": [], "channel_layout": 3, "effects": [], "height": 720, "profile": "HDV 720 24p", "settings": {}, "version": {"libopenshot": "0.1.9", "openshot-qt": "2.4.1-dev1"}, "id": "T0", "2": null, "files": [{"pixel_format": -1, "media_type": "image", "acodec": "", "video_bit_rate": 0, "interlaced_frame": false, "fps": {"num": 30, "den": 1}, "has_single_image": true, "width": 6803, "video_stream_index": -1, "channel_layout": 4, "audio_timebase": {"num": 1, "den": 1}, "id": "5OEZCIVW6D", "display_ratio": {"num": 6803, "den": 3827}, "channels": 0, "has_video": true, "has_audio": false, "type": "QtImageReader", "pixel_ratio": {"num": 1, "den": 1}, "top_field_first": true, "file_size": "104140324", "vcodec": "", "sample_rate": 0, "path": "Images/02-Title Progress Cards.svg", "audio_stream_index": -1, "audio_bit_rate": 0, "height": 3827, "video_length": "2592000", "duration": 86400.0, "video_timebase": {"num": 1, "den": 30}}, {"pixel_format": -1, "media_type": "image", "acodec": "", "video_bit_rate": 0, "interlaced_frame": false, "fps": {"num": 30, "den": 1}, "has_single_image": true, "width": 1920, "video_stream_index": -1, "channel_layout": 4, "audio_timebase": {"num": 1, "den": 1}, "id": "TDIZ1HFAHG", "display_ratio": {"num": 16, "den": 9}, "channels": 0, "has_video": true, "has_audio": false, "type": "QtImageReader", "pixel_ratio": {"num": 1, "den": 1}, "top_field_first": true, "file_size": "8294400", "vcodec": "", "sample_rate": 0, "path": "Images/01-White-Background.svg", "audio_stream_index": -1, "audio_bit_rate": 0, "height": 1080, "video_length": "2592000", "duration": 86400.0, "video_timebase": {"num": 1, "den": 30}}, {"pixel_format": -1, "media_type": "image", "acodec": "", "video_bit_rate": 0, "interlaced_frame": false, "fps": {"num": 30, "den": 1}, "has_single_image": true, "width": 600, "video_stream_index": -1, "channel_layout": 4, "audio_timebase": {"num": 1, "den": 1}, "id": "9LYJA9LENR", "display_ratio": {"num": 300, "den": 89}, "channels": 0, "has_video": true, "has_audio": false, "type": "QtImageReader", "pixel_ratio": {"num": 1, "den": 1}, "top_field_first": true, "file_size": "427200", "vcodec": "", "sample_rate": 0, "path": "Images/04-LibreOffice_external_logo.svg", "audio_stream_index": -1, "audio_bit_rate": 0, "height": 178, "video_length": "2592000", "duration": 86400.0, "video_timebase": {"num": 1, "den": 30}}, {"pixel_format": -1, "media_type": "image", "acodec": "", "video_bit_rate": 0, "interlaced_frame": false, "fps": {"num": 30, "den": 1}, "has_single_image": true, "width": 6803, "video_stream_index": -1, "channel_layout": 4, "audio_timebase": {"num": 1, "den": 1}, "id": "V0JTT8RBI4", "display_ratio": {"num": 6803, "den": 3827}, "channels": 0, "has_video": true, "has_audio": false, "type": "QtImageReader", "pixel_ratio": {"num": 1, "den": 1}, "top_field_first": true, "file_size": "104140324", "vcodec": "", "sample_rate": 0, "path": "Images/03-Title-In.svg", "audio_stream_index": -1, "audio_bit_rate": 0, "height": 3827, "video_length": "2592000", "duration": 86400.0, "video_timebase": {"num": 1, "den": 30}}, {"pixel_format": -1, "media_type": "image", "acodec": "", "video_bit_rate": 0, "interlaced_frame": false, "fps": {"num": 30, "den": 1}, "has_single_image": true, "width": 6803, "video_stream_index": -1, "channel_layout": 4, "audio_timebase": {"num": 1, "den": 1}, "id": "UXYIII238I", "display_ratio": {"num": 6803, "den": 3827}, "channels": 0, "has_video": true, "has_audio": false, "type": "QtImageReader", "pixel_ratio": {"num": 1, "den": 1}, "top_field_first": true, "file_size": "104140324", "vcodec": "", "sample_rate": 0, "path": "Images/05-Title -Open Writer.svg", "audio_stream_index": -1, "audio_bit_rate": 0, "height": 3827, "video_length": "2592000", "duration": 86400.0, "video_timebase": {"num": 1, "den": 30}}, {"pixel_format": 0, "media_type": "video", "acodec": "", "video_bit_rate": 0, "interlaced_frame": false, "fps": {"num": 25, "den": 1}, "has_single_image": false, "width": 1366, "video_stream_index": 0, "channel_layout": 4, "audio_timebase": {"num": 1, "den": 1}, "id": "LH1LTFW4JK", "display_ratio": {"num": 683, "den": 384}, "channels": 0, "has_video": true, "has_audio": false, "type": "FFmpegReader", "pixel_ratio": {"num": 1, "den": 1}, "top_field_first": true, "file_size": "263859", "vcodec": "h264", "sample_rate": 0, "path": "!020-Redice Page Height 21x13 to Save Paper.mkv", "audio_stream_index": -1, "audio_bit_rate": 0, "height": 768, "video_length": "900", "duration": 36.0, "video_timebase": {"num": 1, "den": 1000}}, {"pixel_format": 0, "media_type": "video", "acodec": "", "video_bit_rate": 0, "interlaced_frame": false, "fps": {"num": 25, "den": 1}, "has_single_image": false, "width": 1366, "video_stream_index": 0, "channel_layout": 4, "audio_timebase": {"num": 1, "den": 1}, "id": "0CRU9IJ6JU", "display_ratio": {"num": 683, "den": 384}, "channels": 0, "has_video": true, "has_audio": false, "type": "FFmpegReader", "pixel_ratio": {"num": 1, "den": 1}, "top_field_first": true, "file_size": "345131", "vcodec": "h264", "sample_rate": 0, "path": "!030-Create Progress Card Template.mkv", "audio_stream_index": -1, "audio_bit_rate": 0, "height": 768, "video_length": "1025", "duration": 41.0, "video_timebase": {"num": 1, "den": 1000}}, {"pixel_format": -1, "media_type": "image", "acodec": "", "video_bit_rate": 0, "interlaced_frame": false, "fps": {"num": 30, "den": 1}, "has_single_image": true, "width": 6803, "video_stream_index": -1, "channel_layout": 4, "audio_timebase": {"num": 1, "den": 1}, "id": "V62OPXLIQ5", "display_ratio": {"num": 6803, "den": 3827}, "channels": 0, "has_video": true, "has_audio": false, "type": "QtImageReader", "pixel_ratio": {"num": 1, "den": 1}, "top_field_first": true, "file_size": "104140324", "vcodec": "", "sample_rate": 0, "path": "!040-Slide -Open Libre Calc.svg", "audio_stream_index": -1, "audio_bit_rate": 0, "height": 3827, "video_length": "2592000", "duration": 86400.0, "video_timebase": {"num": 1, "den": 30}}, {"pixel_format": 0, "media_type": "video", "acodec": "", "video_bit_rate": 0, "interlaced_frame": false, "fps": {"num": 25, "den": 1}, "has_single_image": false, "width": 1300, "video_stream_index": 0, "channel_layout": 4, "audio_timebase": {"num": 1, "den": 1}, "id": "6Q4ECI0JKX", "display_ratio": {"num": 325, "den": 186}, "channels": 0, "has_video": true, "has_audio": false, "type": "FFmpegReader", "pixel_ratio": {"num": 1, "den": 1}, "top_field_first": true, "file_size": "447833", "vcodec": "h264", "sample_rate": 0, "path": "!050-Sample Students Data.mkv", "audio_stream_index": -1, "audio_bit_rate": 0, "height": 744, "video_length": "1325", "duration": 53.0, "video_timebase": {"num": 1, "den": 1000}}, {"pixel_format": 0, "media_type": "video", "acodec": "", "video_bit_rate": 0, "interlaced_frame": false, "fps": {"num": 25, "den": 1}, "has_single_image": false, "width": 1300, "video_stream_index": 0, "channel_layout": 4, "audio_timebase": {"num": 1, "den": 1}, "id": "VQPCDZYTHO", "display_ratio": {"num": 325, "den": 186}, "channels": 0, "has_video": true, "has_audio": false, "type": "FFmpegReader", "pixel_ratio": {"num": 1, "den": 1}, "top_field_first": true, "file_size": "638294", "vcodec": "h264", "sample_rate": 0, "path": "!060-Total of All Subjects.mkv", "audio_stream_index": -1, "audio_bit_rate": 0, "height": 744, "video_length": "2050", "duration": 82.0, "video_timebase": {"num": 1, "den": 1000}}, {"pixel_format": 0, "media_type": "video", "acodec": "", "video_bit_rate": 0, "interlaced_frame": false, "fps": {"num": 25, "den": 1}, "has_single_image": false, "width": 1300, "video_stream_index": 0, "channel_layout": 4, "audio_timebase": {"num": 1, "den": 1}, "id": "5CQQB4EVIM", "display_ratio": {"num": 325, "den": 186}, "channels": 0, "has_video": true, "has_audio": false, "type": "FFmpegReader", "pixel_ratio": {"num": 1, "den": 1}, "top_field_first": true, "file_size": "754457", "vcodec": "h264", "sample_rate": 0, "path": "!070-Calculate Grace Marks.mkv", "audio_stream_index": -1, "audio_bit_rate": 0, "height": 744, "video_length": "2375", "duration": 95.0, "video_timebase": {"num": 1, "den": 1000}}, {"pixel_format": -1, "media_type": "image", "acodec": "", "video_bit_rate": 0, "interlaced_frame": false, "fps": {"num": 30, "den": 1}, "has_single_image": true, "width": 6803, "video_stream_index": -1, "channel_layout": 4, "audio_timebase": {"num": 1, "den": 1}, "id": "GIMS8XDQW5", "display_ratio": {"num": 6803, "den": 3827}, "channels": 0, "has_video": true, "has_audio": false, "type": "QtImageReader", "pixel_ratio": {"num": 1, "den": 1}, "top_field_first": true, "file_size": "104140324", "vcodec": "", "sample_rate": 0, "path": "!013-Format-Page-Dialog.svg", "audio_stream_index": -1, "audio_bit_rate": 0, "height": 3827, "video_length": "2592000", "duration": 86400.0, "video_timebase": {"num": 1, "den": 30}}, {"pixel_format": 0, "media_type": "video", "acodec": "", "video_bit_rate": 23625, "interlaced_frame": false, "fps": {"num": 25, "den": 1}, "has_single_image": false, "width": 1300, "video_stream_index": 0, "channel_layout": 4, "audio_timebase": {"num": 1, "den": 1}, "id": "JMYSBVPZGY", "display_ratio": {"num": 325, "den": 186}, "channels": 0, "has_video": true, "has_audio": false, "type": "FFmpegReader", "pixel_ratio": {"num": 1, "den": 1}, "top_field_first": true, "file_size": "31067", "vcodec": "h264", "sample_rate": 0, "path": "!010-Libre Writer Normal Screen.mkv", "audio_stream_index": -1, "audio_bit_rate": 0, "height": 744, "video_length": "250", "duration": 10, "video_timebase": {"num": 1, "den": 1000}}, {"pixel_format": -1, "media_type": "image", "acodec": "", "video_bit_rate": 0, "interlaced_frame": false, "fps": {"num": 30, "den": 1}, "has_single_image": true, "width": 6803, "video_stream_index": -1, "channel_layout": 4, "audio_timebase": {"num": 1, "den": 1}, "id": "EWJO5LAFDV", "display_ratio": {"num": 6803, "den": 3827}, "channels": 0, "has_video": true, "has_audio": false, "type": "QtImageReader", "pixel_ratio": {"num": 1, "den": 1}, "top_field_first": true, "file_size": "104140324", "vcodec": "", "sample_rate": 0, "path": "!065-Calculate Grace Marks.svg", "audio_stream_index": -1, "audio_bit_rate": 0, "height": 3827, "video_length": "2592000", "duration": 86400, "video_timebase": {"num": 1, "den": 30}}, {"pixel_format": -1, "media_type": "image", "acodec": "", "audio_stream_index": -1, "interlaced_frame": false, "fps": {"num": 30, "den": 1}, "has_single_image": true, "width": 6803, "video_stream_index": -1, "channel_layout": 4, "audio_timebase": {"num": 1, "den": 1}, "id": "7VACJ3VWTI", "file_size": "104140324", "channels": 0, "has_video": true, "has_audio": false, "type": "QtImageReader", "pixel_ratio": {"num": 1, "den": 1}, "top_field_first": true, "display_ratio": {"num": 6803, "den": 3827}, "vcodec": "", "sample_rate": 0, "path": "!011-Slide-We need only half page.svg", "video_bit_rate": 0, "audio_bit_rate": 0, "height": 3827, "video_length": "2592000", "duration": 86400.0, "video_timebase": {"num": 1, "den": 30}}, {"pixel_format": -1, "media_type": "image", "acodec": "", "video_bit_rate": 0, "interlaced_frame": false, "fps": {"num": 30, "den": 1}, "has_single_image": true, "sample_rate": 0, "video_stream_index": -1, "channel_layout": 4, "audio_timebase": {"num": 1, "den": 1}, "id": "CQ9HLHMG6Y", "file_size": "104140324", "audio_stream_index": -1, "channels": 0, "has_video": true, "path": "!025-Create Progress Card Template.svg", "type": "QtImageReader", "width": 6803, "top_field_first": true, "display_ratio": {"num": 6803, "den": 3827}, "vcodec": "", "has_audio": false, "pixel_ratio": {"num": 1, "den": 1}, "audio_bit_rate": 0, "height": 3827, "video_length": "2592000", "duration": 86400, "video_timebase": {"num": 1, "den": 30}}, {"pixel_format": -1, "media_type": "image", "acodec": "", "video_bit_rate": 0, "interlaced_frame": false, "fps": {"num": 30, "den": 1}, "has_single_image": true, "sample_rate": 0, "video_stream_index": -1, "channel_layout": 4, "audio_timebase": {"num": 1, "den": 1}, "id": "GOJEXTAQVD", "file_size": "104140324", "audio_stream_index": -1, "channels": 0, "has_video": true, "path": "!045-Slide-Sample Students Data.svg", "type": "QtImageReader", "width": 6803, "top_field_first": true, "display_ratio": {"num": 6803, "den": 3827}, "vcodec": "", "has_audio": false, "pixel_ratio": {"num": 1, "den": 1}, "audio_bit_rate": 0, "height": 3827, "video_length": "2592000", "duration": 86400, "video_timebase": {"num": 1, "den": 30}}, {"pixel_format": -1, "media_type": "image", "acodec": "", "video_bit_rate": 0, "interlaced_frame": false, "fps": {"num": 30, "den": 1}, "has_single_image": true, "sample_rate": 0, "video_stream_index": -1, "channel_layout": 4, "audio_timebase": {"num": 1, "den": 1}, "id": "4N4GFJVUAX", "file_size": "104140324", "audio_stream_index": -1, "channels": 0, "has_video": true, "path": "!055-Calculate Total Marks.svg", "type": "QtImageReader", "width": 6803, "top_field_first": true, "display_ratio": {"num": 6803, "den": 3827}, "vcodec": "", "has_audio": false, "pixel_ratio": {"num": 1, "den": 1}, "audio_bit_rate": 0, "height": 3827, "video_length": "2592000", "duration": 86400, "video_timebase": {"num": 1, "den": 30}}], "width": 1280, "playhead_position": 0, "scale": 16, "clips": [{"channel_filter": {"Points": [{"co": {"Y": -1.0, "X": 1.0}, "interpolation": 2}]}, "start": 0, "rotation": {"Points": [{"co": {"Y": 0.0, "X": 1.0}, "interpolation": 2}]}, "title": "!020-Redice Page Height 21x13 to Save Paper.mkv", "waveform": false, "alpha": {"Points": [{"handle_type": 0, "handle_right": {"Y": 0, "X": 0.5}, "handle_left": {"Y": 1, "X": 0.5}, "co": {"Y": 1, "X": 1}, "interpolation": 0}, {"handle_type": 0, "handle_right": {"Y": 0, "X": 0.5}, "handle_left": {"Y": 1, "X": 0.5}, "co": {"Y": 0, "X": 1}, "interpolation": 0}, {"handle_type": 0, "handle_right": {"Y": 0, "X": 0.5}, "handle_left": {"Y": 1, "X": 0.5}, "co": {"Y": 1, "X": 73}, "interpolation": 0}, {"handle_type": 0, "handle_right": {"Y": 0, "X": 0.5}, "handle_left": {"Y": 1, "X": 0.5}, "co": {"Y": 1, "X": 543}, "interpolation": 0}, {"handle_type": 0, "handle_right": {"Y": 0, "X": 0.5}, "handle_left": {"Y": 1, "X": 0.5}, "co": {"Y": 0, "X": 615}, "interpolation": 0}]}, "crop_x": {"Points": [{"co": {"Y": 0.0, "X": 1.0}, "interpolation": 2}]}, "crop_height": {"Points": [{"co": {"Y": -1.0, "X": 1.0}, "interpolation": 2}]}, "location_y": {"Points": [{"handle_type": 0, "handle_right": {"Y": 0, "X": 0.5}, "handle_left": {"Y": 1, "X": 0.5}, "co": {"Y": 0, "X": 1}, "interpolation": 0}, {"co": {"Y": 0.1599999964237213, "X": 183}, "interpolation": 1}, {"co": {"Y": 0.0, "X": 104}, "interpolation": 1}, {"co": {"Y": 0.0, "X": 615}, "interpolation": 1}, {"co": {"Y": 0.1599999964237213, "X": 498}, "interpolation": 1}]}, "time": {"Points": [{"co": {"Y": 1.0, "X": 1.0}, "interpolation": 2}]}, "scale": 1, "has_video": {"Points": [{"co": {"Y": -1.0, "X": 1.0}, "interpolation": 2}]}, "perspective_c3_y": {"Points": [{"co": {"Y": -1.0, "X": 1.0}, "interpolation": 2}]}, "id": "O2YU232VRL", "volume": {"Points": [{"co": {"Y": 1.0, "X": 1.0}, "interpolation": 2}]}, "shear_y": {"Points": [{"co": {"Y": 0.0, "X": 1.0}, "interpolation": 2}]}, "effects": [], "gravity": 4, "position": 28.96, "channel_mapping": {"Points": [{"co": {"Y": -1.0, "X": 1.0}, "interpolation": 2}]}, "file_id": "LH1LTFW4JK", "display": 0, "scale_x": {"Points": [{"handle_type": 0, "handle_right": {"Y": 0, "X": 0.5}, "handle_left": {"Y": 1, "X": 0.5}, "co": {"Y": 1.2000000476837158, "X": 1}, "interpolation": 0}, {"co": {"Y": 2.0, "X": 183}, "interpolation": 1}, {"co": {"Y": 1.2000000476837158, "X": 104}, "interpolation": 1}, {"co": {"Y": 1.2000000476837158, "X": 615}, "interpolation": 1}, {"co": {"Y": 2.0, "X": 498}, "interpolation": 1}]}, "reader": {"pixel_format": 0, "acodec": "", "video_bit_rate": 0, "interlaced_frame": false, "fps": {"num": 25, "den": 1}, "has_single_image": false, "sample_rate": 0, "video_stream_index": 0, "channel_layout": 4, "audio_timebase": {"num": 1, "den": 1}, "display_ratio": {"num": 683, "den": 384}, "audio_stream_index": -1, "channels": 0, "has_video": true, "has_audio": false, "type": "FFmpegReader", "pixel_ratio": {"num": 1, "den": 1}, "top_field_first": true, "file_size": "263859", "vcodec": "h264", "path": "!020-Redice Page Height 21x13 to Save Paper.mkv", "width": 1366, "audio_bit_rate": 0, "height": 768, "video_length": "900", "duration": 36.0, "video_timebase": {"num": 1, "den": 1000}}, "layer": 2, "anchor": 0, "perspective_c4_y": {"Points": [{"co": {"Y": -1.0, "X": 1.0}, "interpolation": 2}]}, "perspective_c3_x": {"Points": [{"co": {"Y": -1.0, "X": 1.0}, "interpolation": 2}]}, "wave_color": {"alpha": {"Points": [{"handle_type": 0, "handle_right": {"Y": 0.0, "X": 0.5}, "handle_left": {"Y": 1.0, "X": 0.5}, "co": {"Y": 255.0, "X": 1.0}, "interpolation": 0}]}, "red": {"Points": [{"handle_type": 0, "handle_right": {"Y": 0.0, "X": 0.5}, "handle_left": {"Y": 1.0, "X": 0.5}, "co": {"Y": 0.0, "X": 1.0}, "interpolation": 0}]}, "blue": {"Points": [{"handle_type": 0, "handle_right": {"Y": 0.0, "X": 0.5}, "handle_left": {"Y": 1.0, "X": 0.5}, "co": {"Y": 255.0, "X": 1.0}, "interpolation": 0}]}, "green": {"Points": [{"handle_type": 0, "handle_right": {"Y": 0.0, "X": 0.5}, "handle_left": {"Y": 1.0, "X": 0.5}, "co": {"Y": 123.0, "X": 1.0}, "interpolation": 0}]}}, "perspective_c1_x": {"Points": [{"co": {"Y": -1.0, "X": 1.0}, "interpolation": 2}]}, "has_audio": {"Points": [{"co": {"Y": -1.0, "X": 1.0}, "interpolation": 2}]}, "crop_width": {"Points": [{"co": {"Y": -1.0, "X": 1.0}, "interpolation": 2}]}, "crop_y": {"Points": [{"co": {"Y": 0.0, "X": 1.0}, "interpolation": 2}]}, "scale_y": {"Points": [{"handle_type": 0, "handle_right": {"Y": 0, "X": 0.5}, "handle_left": {"Y": 1, "X": 0.5}, "co": {"Y": 1.2000000476837158, "X": 1}, "interpolation": 0}, {"co": {"Y": 2.0, "X": 183}, "interpolation": 1}, {"co": {"Y": 1.2000000476837158, "X": 104}, "interpolation": 1}, {"co": {"Y": 1.2000000476837158, "X": 615}, "interpolation": 1}, {"co": {"Y": 2.0, "X": 498}, "interpolation": 1}]}, "location_x": {"Points": [{"handle_type": 0, "handle_right": {"Y": 0, "X": 0.5}, "handle_left": {"Y": 1, "X": 0.5}, "co": {"Y": 0, "X": 1}, "interpolation": 0}, {"co": {"Y": 0.05999999865889549, "X": 183}, "interpolation": 1}, {"co": {"Y": 0.0, "X": 104}, "interpolation": 1}, {"co": {"Y": 0.0, "X": 615}, "interpolation": 1}, {"co": {"Y": 0.05999999865889549, "X": 498}, "interpolation": 1}]}, "shear_x": {"Points": [{"co": {"Y": 0.0, "X": 1.0}, "interpolation": 2}]}, "perspective_c2_x": {"Points": [{"co": {"Y": -1.0, "X": 1.0}, "interpolation": 2}]}, "perspective_c1_y": {"Points": [{"co": {"Y": -1.0, "X": 1.0}, "interpolation": 2}]}, "perspective_c4_x": {"Points": [{"co": {"Y": -1.0, "X": 1.0}, "interpolation": 2}]}, "perspective_c2_y": {"Points": [{"co": {"Y": -1.0, "X": 1.0}, "interpolation": 2}]}, "image": "../../../.openshot_qt/thumbnail/LH1LTFW4JK.png", "duration": 36.0, "end": 25.59166666666666}, {"start": 0.13666666666667027, "volume": {"Points": [{"co": {"Y": 1.0, "X": 1.0}, "interpolation": 2}]}, "shear_y": {"Points": [{"co": {"Y": 0.0, "X": 1.0}, "interpolation": 2}]}, "waveform": false, "scale_x": {"Points": [{"handle_type": 0, "handle_right": {"Y": 0, "X": 0.5}, "handle_left": {"Y": 1, "X": 0.5}, "co": {"Y": 1, "X": 1}, "interpolation": 0}, {"co": {"Y": 1.2000000476837158, "X": 4}, "interpolation": 1}, {"co": {"Y": 2.0, "X": 648}, "interpolation": 1}, {"co": {"Y": 2.0, "X": 522}, "interpolation": 1}, {"co": {"Y": 1.2000000476837158, "X": 768}, "interpolation": 1}]}, "layer": 1, "anchor": 0, "perspective_c4_y": {"Points": [{"co": {"Y": -1.0, "X": 1.0}, "interpolation": 2}]}, "reader": {"pixel_format": 0, "acodec": "", "video_bit_rate": 0, "interlaced_frame": false, "fps": {"num": 25, "den": 1}, "has_single_image": false, "sample_rate": 0, "video_stream_index": 0, "channel_layout": 4, "audio_timebase": {"num": 1, "den": 1}, "display_ratio": {"num": 683, "den": 384}, "audio_stream_index": -1, "channels": 0, "has_video": true, "has_audio": false, "type": "FFmpegReader", "pixel_ratio": {"num": 1, "den": 1}, "top_field_first": true, "file_size": "345131", "vcodec": "h264", "path": "!030-Create Progress Card Template.mkv", "width": 1366, "audio_bit_rate": 0, "height": 768, "video_length": "1025", "duration": 41.0, "video_timebase": {"num": 1, "den": 1000}}, "perspective_c2_x": {"Points": [{"co": {"Y": -1.0, "X": 1.0}, "interpolation": 2}]}, "duration": 41.0, "channel_filter": {"Points": [{"co": {"Y": -1.0, "X": 1.0}, "interpolation": 2}]}, "location_y": {"Points": [{"handle_type": 0, "handle_right": {"Y": 0, "X": 0.5}, "handle_left": {"Y": 1, "X": 0.5}, "co": {"Y": 0, "X": 1}, "interpolation": 0}]}, "effects": [], "gravity": 4, "perspective_c2_y": {"Points": [{"co": {"Y": -1.0, "X": 1.0}, "interpolation": 2}]}, "file_id": "0CRU9IJ6JU", "display": 0, "location_x": {"Points": [{"handle_type": 0, "handle_right": {"Y": 0, "X": 0.5}, "handle_left": {"Y": 1, "X": 0.5}, "co": {"Y": 0, "X": 1}, "interpolation": 0}, {"co": {"Y": -0.014999999664723873, "X": 648}, "interpolation": 1}, {"co": {"Y": -0.014999999664723873, "X": 522}, "interpolation": 1}, {"co": {"Y": 0.0, "X": 768}, "interpolation": 1}]}, "crop_width": {"Points": [{"co": {"Y": -1.0, "X": 1.0}, "interpolation": 2}]}, "wave_color": {"alpha": {"Points": [{"handle_type": 0, "handle_right": {"Y": 0.0, "X": 0.5}, "handle_left": {"Y": 1.0, "X": 0.5}, "co": {"Y": 255.0, "X": 1.0}, "interpolation": 0}]}, "red": {"Points": [{"handle_type": 0, "handle_right": {"Y": 0.0, "X": 0.5}, "handle_left": {"Y": 1.0, "X": 0.5}, "co": {"Y": 0.0, "X": 1.0}, "interpolation": 0}]}, "blue": {"Points": [{"handle_type": 0, "handle_right": {"Y": 0.0, "X": 0.5}, "handle_left": {"Y": 1.0, "X": 0.5}, "co": {"Y": 255.0, "X": 1.0}, "interpolation": 0}]}, "green": {"Points": [{"handle_type": 0, "handle_right": {"Y": 0.0, "X": 0.5}, "handle_left": {"Y": 1.0, "X": 0.5}, "co": {"Y": 123.0, "X": 1.0}, "interpolation": 0}]}}, "scale_y": {"Points": [{"handle_type": 0, "handle_right": {"Y": 0, "X": 0.5}, "handle_left": {"Y": 1, "X": 0.5}, "co": {"Y": 1, "X": 1}, "interpolation": 0}, {"co": {"Y": 1.2000000476837158, "X": 4}, "interpolation": 1}, {"co": {"Y": 2.0, "X": 648}, "interpolation": 1}, {"co": {"Y": 2.0, "X": 522}, "interpolation": 1}, {"co": {"Y": 1.2000000476837158, "X": 768}, "interpolation": 1}]}, "shear_x": {"Points": [{"co": {"Y": 0.0, "X": 1.0}, "interpolation": 2}]}, "image": "../../../.openshot_qt/thumbnail/TTIRD7551Y-4.png", "rotation": {"Points": [{"co": {"Y": 0.0, "X": 1.0}, "interpolation": 2}]}, "title": "!030-Create Progress Card Template.mkv", "crop_x": {"Points": [{"co": {"Y": 0.0, "X": 1.0}, "interpolation": 2}]}, "time": {"Points": [{"co": {"Y": 1.0, "X": 1.0}, "interpolation": 2}]}, "perspective_c3_y": {"Points": [{"co": {"Y": -1.0, "X": 1.0}, "interpolation": 2}]}, "channel_mapping": {"Points": [{"co": {"Y": -1.0, "X": 1.0}, "interpolation": 2}]}, "crop_y": {"Points": [{"co": {"Y": 0.0, "X": 1.0}, "interpolation": 2}]}, "perspective_c1_x": {"Points": [{"co": {"Y": -1.0, "X": 1.0}, "interpolation": 2}]}, "scale": 1, "perspective_c4_x": {"Points": [{"co": {"Y": -1.0, "X": 1.0}, "interpolation": 2}]}, "position": 54.37, "alpha": {"Points": [{"handle_type": 0, "handle_left": {"Y": 1, "X": 0.5}, "handle_right": {"Y": 0, "X": 0.5}, "co": {"Y": 1, "X": 1}, "interpolation": 0}, {"handle_type": 0, "handle_left": {"Y": 1, "X": 0.5}, "handle_right": {"Y": 0, "X": 0.5}, "co": {"Y": 0, "X": 4}, "interpolation": 0}, {"handle_type": 0, "handle_left": {"Y": 1, "X": 0.5}, "handle_right": {"Y": 0, "X": 0.5}, "co": {"Y": 1, "X": 76}, "interpolation": 0}, {"handle_type": 0, "handle_left": {"Y": 1, "X": 0.5}, "interpolation": 0, "co": {"Y": 1, "X": 803}, "handle_right": {"Y": 0, "X": 0.5}}, {"handle_type": 0, "handle_left": {"Y": 1, "X": 0.5}, "interpolation": 0, "co": {"Y": 0, "X": 875}, "handle_right": {"Y": 0, "X": 0.5}}]}, "crop_height": {"Points": [{"co": {"Y": -1.0, "X": 1.0}, "interpolation": 2}]}, "has_video": {"Points": [{"co": {"Y": -1.0, "X": 1.0}, "interpolation": 2}]}, "id": "TTIRD7551Y", "end": 36.433333333333344, "has_audio": {"Points": [{"co": {"Y": -1.0, "X": 1.0}, "interpolation": 2}]}, "perspective_c1_y": {"Points": [{"co": {"Y": -1.0, "X": 1.0}, "interpolation": 2}]}, "perspective_c3_x": {"Points": [{"co": {"Y": -1.0, "X": 1.0}, "interpolation": 2}]}}, {"channel_filter": {"Points": [{"co": {"Y": -1.0, "X": 1.0}, "interpolation": 2}]}, "start": 0, "has_video": {"Points": [{"co": {"Y": -1.0, "X": 1.0}, "interpolation": 2}]}, "rotation": {"Points": [{"co": {"Y": 0.0, "X": 1.0}, "interpolation": 2}]}, "title": "01-White-Background.svg", "reader": {"pixel_format": -1, "acodec": "", "video_bit_rate": 0, "interlaced_frame": false, "fps": {"num": 30, "den": 1}, "has_single_image": true, "sample_rate": 0, "video_stream_index": -1, "channel_layout": 4, "audio_timebase": {"num": 1, "den": 1}, "display_ratio": {"num": 16, "den": 9}, "audio_stream_index": -1, "channels": 0, "has_video": true, "has_audio": false, "type": "QtImageReader", "pixel_ratio": {"num": 1, "den": 1}, "top_field_first": true, "file_size": "8294400", "vcodec": "", "path": "Images/01-White-Background.svg", "width": 1920, "audio_bit_rate": 0, "height": 1080, "video_length": "2592000", "duration": 86400.0, "video_timebase": {"num": 1, "den": 30}}, "alpha": {"Points": [{"co": {"Y": 1.0, "X": 1.0}, "interpolation": 2}]}, "crop_x": {"Points": [{"co": {"Y": 0.0, "X": 1.0}, "interpolation": 2}]}, "crop_height": {"Points": [{"co": {"Y": -1.0, "X": 1.0}, "interpolation": 2}]}, "display": 0, "perspective_c2_y": {"Points": [{"co": {"Y": -1.0, "X": 1.0}, "interpolation": 2}]}, "time": {"Points": [{"co": {"Y": 1.0, "X": 1.0}, "interpolation": 2}]}, "crop_y": {"Points": [{"co": {"Y": 0.0, "X": 1.0}, "interpolation": 2}]}, "perspective_c3_x": {"Points": [{"co": {"Y": -1.0, "X": 1.0}, "interpolation": 2}]}, "perspective_c3_y": {"Points": [{"co": {"Y": -1.0, "X": 1.0}, "interpolation": 2}]}, "volume": {"Points": [{"co": {"Y": 1.0, "X": 1.0}, "interpolation": 2}]}, "shear_y": {"Points": [{"co": {"Y": 0.0, "X": 1.0}, "interpolation": 2}]}, "effects": [], "id": "3IJL49SBNP", "gravity": 4, "position": 0, "channel_mapping": {"Points": [{"co": {"Y": -1.0, "X": 1.0}, "interpolation": 2}]}, "file_id": "TDIZ1HFAHG", "location_y": {"Points": [{"co": {"Y": 0.0, "X": 1.0}, "interpolation": 2}]}, "scale_x": {"Points": [{"co": {"Y": 1.0, "X": 1.0}, "interpolation": 2}, {"co": {"Y": 2.0, "X": 1567}, "interpolation": 1}]}, "location_x": {"Points": [{"co": {"Y": 0.0, "X": 1.0}, "interpolation": 2}]}, "layer": 0, "crop_width": {"Points": [{"co": {"Y": -1.0, "X": 1.0}, "interpolation": 2}]}, "perspective_c4_y": {"Points": [{"co": {"Y": -1.0, "X": 1.0}, "interpolation": 2}]}, "end": 62.319999999999986, "perspective_c1_x": {"Points": [{"co": {"Y": -1.0, "X": 1.0}, "interpolation": 2}]}, "has_audio": {"Points": [{"co": {"Y": -1.0, "X": 1.0}, "interpolation": 2}]}, "anchor": 0, "waveform": false, "wave_color": {"alpha": {"Points": [{"handle_type": 0, "handle_right": {"Y": 0.0, "X": 0.5}, "handle_left": {"Y": 1.0, "X": 0.5}, "co": {"Y": 255.0, "X": 1.0}, "interpolation": 0}]}, "red": {"Points": [{"handle_type": 0, "handle_right": {"Y": 0.0, "X": 0.5}, "handle_left": {"Y": 1.0, "X": 0.5}, "co": {"Y": 0.0, "X": 1.0}, "interpolation": 0}]}, "blue": {"Points": [{"handle_type": 0, "handle_right": {"Y": 0.0, "X": 0.5}, "handle_left": {"Y": 1.0, "X": 0.5}, "co": {"Y": 255.0, "X": 1.0}, "interpolation": 0}]}, "green": {"Points": [{"handle_type": 0, "handle_right": {"Y": 0.0, "X": 0.5}, "handle_left": {"Y": 1.0, "X": 0.5}, "co": {"Y": 123.0, "X": 1.0}, "interpolation": 0}]}}, "scale_y": {"Points": [{"co": {"Y": 1.0, "X": 1.0}, "interpolation": 2}, {"co": {"Y": 2.0, "X": 1567}, "interpolation": 1}]}, "shear_x": {"Points": [{"co": {"Y": 0.0, "X": 1.0}, "interpolation": 2}]}, "perspective_c2_x": {"Points": [{"co": {"Y": -1.0, "X": 1.0}, "interpolation": 2}]}, "perspective_c1_y": {"Points": [{"co": {"Y": -1.0, "X": 1.0}, "interpolation": 2}]}, "perspective_c4_x": {"Points": [{"co": {"Y": -1.0, "X": 1.0}, "interpolation": 2}]}, "scale": 1, "image": "../../../.openshot_qt/thumbnail/TDIZ1HFAHG.png", "duration": 86400.0}, {"start": 0, "rotation": {"Points": [{"co": {"Y": 0.0, "X": 1.0}, "interpolation": 2}]}, "title": "01-White-Background.svg", "crop_x": {"Points": [{"co": {"Y": 0.0, "X": 1.0}, "interpolation": 2}]}, "time": {"Points": [{"co": {"Y": 1.0, "X": 1.0}, "interpolation": 2}]}, "crop_y": {"Points": [{"co": {"Y": 0.0, "X": 1.0}, "interpolation": 2}]}, "perspective_c3_y": {"Points": [{"co": {"Y": -1.0, "X": 1.0}, "interpolation": 2}]}, "volume": {"Points": [{"co": {"Y": 1.0, "X": 1.0}, "interpolation": 2}]}, "shear_y": {"Points": [{"co": {"Y": 0.0, "X": 1.0}, "interpolation": 2}]}, "channel_mapping": {"Points": [{"co": {"Y": -1.0, "X": 1.0}, "interpolation": 2}]}, "scale_x": {"Points": [{"co": {"Y": 1.0, "X": 1.0}, "interpolation": 2}]}, "layer": 0, "scale": 1, "perspective_c4_y": {"Points": [{"co": {"Y": -1.0, "X": 1.0}, "interpolation": 2}]}, "perspective_c1_x": {"Points": [{"co": {"Y": -1.0, "X": 1.0}, "interpolation": 2}]}, "reader": {"pixel_format": -1, "acodec": "", "video_bit_rate": 0, "interlaced_frame": false, "fps": {"num": 30, "den": 1}, "has_single_image": true, "sample_rate": 0, "video_stream_index": -1, "channel_layout": 4, "audio_timebase": {"num": 1, "den": 1}, "display_ratio": {"num": 16, "den": 9}, "audio_stream_index": -1, "channels": 0, "has_video": true, "has_audio": false, "type": "QtImageReader", "pixel_ratio": {"num": 1, "den": 1}, "top_field_first": true, "file_size": "8294400", "vcodec": "", "path": "Images/01-White-Background.svg", "width": 1920, "audio_bit_rate": 0, "height": 1080, "video_length": "2592000", "duration": 86400.0, "video_timebase": {"num": 1, "den": 30}}, "has_audio": {"Points": [{"co": {"Y": -1.0, "X": 1.0}, "interpolation": 2}]}, "perspective_c2_x": {"Points": [{"co": {"Y": -1.0, "X": 1.0}, "interpolation": 2}]}, "perspective_c4_x": {"Points": [{"co": {"Y": -1.0, "X": 1.0}, "interpolation": 2}]}, "position": 86.375, "duration": 86400.0, "channel_filter": {"Points": [{"co": {"Y": -1.0, "X": 1.0}, "interpolation": 2}]}, "waveform": false, "alpha": {"Points": [{"co": {"Y": 1.0, "X": 1.0}, "interpolation": 2}]}, "crop_height": {"Points": [{"co": {"Y": -1.0, "X": 1.0}, "interpolation": 2}]}, "location_y": {"Points": [{"co": {"Y": 0.0, "X": 1.0}, "interpolation": 2}]}, "has_video": {"Points": [{"co": {"Y": -1.0, "X": 1.0}, "interpolation": 2}]}, "id": "WALX2TP5RQ", "gravity": 4, "perspective_c2_y": {"Points": [{"co": {"Y": -1.0, "X": 1.0}, "interpolation": 2}]}, "file_id": "TDIZ1HFAHG", "display": 0, "location_x": {"Points": [{"co": {"Y": 0.0, "X": 1.0}, "interpolation": 2}]}, "effects": [], "end": 16.88, "crop_width": {"Points": [{"co": {"Y": -1.0, "X": 1.0}, "interpolation": 2}]}, "anchor": 0, "wave_color": {"alpha": {"Points": [{"handle_type": 0, "handle_right": {"Y": 0.0, "X": 0.5}, "handle_left": {"Y": 1.0, "X": 0.5}, "co": {"Y": 255.0, "X": 1.0}, "interpolation": 0}]}, "red": {"Points": [{"handle_type": 0, "handle_right": {"Y": 0.0, "X": 0.5}, "handle_left": {"Y": 1.0, "X": 0.5}, "co": {"Y": 0.0, "X": 1.0}, "interpolation": 0}]}, "blue": {"Points": [{"handle_type": 0, "handle_right": {"Y": 0.0, "X": 0.5}, "handle_left": {"Y": 1.0, "X": 0.5}, "co": {"Y": 255.0, "X": 1.0}, "interpolation": 0}]}, "green": {"Points": [{"handle_type": 0, "handle_right": {"Y": 0.0, "X": 0.5}, "handle_left": {"Y": 1.0, "X": 0.5}, "co": {"Y": 123.0, "X": 1.0}, "interpolation": 0}]}}, "scale_y": {"Points": [{"co": {"Y": 1.0, "X": 1.0}, "interpolation": 2}]}, "shear_x": {"Points": [{"co": {"Y": 0.0, "X": 1.0}, "interpolation": 2}]}, "image": "../../../.openshot_qt/thumbnail/TDIZ1HFAHG.png", "perspective_c1_y": {"Points": [{"co": {"Y": -1.0, "X": 1.0}, "interpolation": 2}]}, "perspective_c3_x": {"Points": [{"co": {"Y": -1.0, "X": 1.0}, "interpolation": 2}]}}, {"start": 0, "rotation": {"Points": [{"co": {"Y": 0.0, "X": 1.0}, "interpolation": 2}]}, "title": "!050-Sample Students Data.mkv", "crop_x": {"Points": [{"co": {"Y": 0.0, "X": 1.0}, "interpolation": 2}]}, "time": {"Points": [{"co": {"Y": 1.0, "X": 1.0}, "interpolation": 2}]}, "crop_y": {"Points": [{"co": {"Y": 0.0, "X": 1.0}, "interpolation": 2}]}, "perspective_c3_y": {"Points": [{"co": {"Y": -1.0, "X": 1.0}, "interpolation": 2}]}, "volume": {"Points": [{"co": {"Y": 1.0, "X": 1.0}, "interpolation": 2}]}, "shear_y": {"Points": [{"co": {"Y": 0.0, "X": 1.0}, "interpolation": 2}]}, "channel_mapping": {"Points": [{"co": {"Y": -1.0, "X": 1.0}, "interpolation": 2}]}, "scale_x": {"Points": [{"co": {"Y": 1.0, "X": 1.0}, "interpolation": 2}, {"co": {"Y": 2.299999952316284, "X": 279}, "interpolation": 1}]}, "layer": 1, "scale": 1, "perspective_c4_y": {"Points": [{"co": {"Y": -1.0, "X": 1.0}, "interpolation": 2}]}, "perspective_c1_x": {"Points": [{"co": {"Y": -1.0, "X": 1.0}, "interpolation": 2}]}, "reader": {"pixel_format": 0, "acodec": "", "video_bit_rate": 0, "interlaced_frame": false, "fps": {"num": 25, "den": 1}, "has_single_image": false, "sample_rate": 0, "video_stream_index": 0, "channel_layout": 4, "audio_timebase": {"num": 1, "den": 1}, "display_ratio": {"num": 325, "den": 186}, "audio_stream_index": -1, "channels": 0, "has_video": true, "has_audio": false, "type": "FFmpegReader", "pixel_ratio": {"num": 1, "den": 1}, "top_field_first": true, "file_size": "447833", "vcodec": "h264", "path": "!050-Sample Students Data.mkv", "width": 1300, "audio_bit_rate": 0, "height": 744, "video_length": "1325", "duration": 53.0, "video_timebase": {"num": 1, "den": 1000}}, "has_audio": {"Points": [{"co": {"Y": -1.0, "X": 1.0}, "interpolation": 2}]}, "perspective_c2_x": {"Points": [{"co": {"Y": -1.0, "X": 1.0}, "interpolation": 2}]}, "perspective_c4_x": {"Points": [{"co": {"Y": -1.0, "X": 1.0}, "interpolation": 2}]}, "position": 95.665, "duration": 53.0, "channel_filter": {"Points": [{"co": {"Y": -1.0, "X": 1.0}, "interpolation": 2}]}, "waveform": false, "alpha": {"Points": [{"handle_type": 0, "handle_right": {"Y": 0.0, "X": 0.5}, "handle_left": {"Y": 1.0, "X": 0.5}, "co": {"Y": 1.0, "X": 1.0}, "interpolation": 0}, {"handle_type": 0, "handle_right": {"Y": 0.0, "X": 0.5}, "handle_left": {"Y": 1.0, "X": 0.5}, "co": {"Y": 0.0, "X": 1.0}, "interpolation": 0}, {"handle_type": 0, "handle_right": {"Y": 0.0, "X": 0.5}, "handle_left": {"Y": 1.0, "X": 0.5}, "co": {"Y": 1.0, "X": 73.0}, "interpolation": 0}, {"handle_type": 0, "handle_right": {"Y": 0.0, "X": 0.5}, "handle_left": {"Y": 1.0, "X": 0.5}, "co": {"Y": 1.0, "X": 1135.0}, "interpolation": 0}, {"handle_type": 0, "handle_right": {"Y": 0.0, "X": 0.5}, "handle_left": {"Y": 1.0, "X": 0.5}, "co": {"Y": 0.0, "X": 1207.0}, "interpolation": 0}]}, "crop_height": {"Points": [{"co": {"Y": -1.0, "X": 1.0}, "interpolation": 2}]}, "location_y": {"Points": [{"co": {"Y": 0.0, "X": 1.0}, "interpolation": 2}, {"co": {"Y": 0.5199999809265137, "X": 279}, "interpolation": 1}]}, "has_video": {"Points": [{"co": {"Y": -1.0, "X": 1.0}, "interpolation": 2}]}, "id": "XXQSWHAJ46", "gravity": 4, "perspective_c2_y": {"Points": [{"co": {"Y": -1.0, "X": 1.0}, "interpolation": 2}]}, "file_id": "6Q4ECI0JKX", "display": 0, "location_x": {"Points": [{"co": {"Y": 0.0, "X": 1.0}, "interpolation": 2}, {"co": {"Y": 0.6200000047683716, "X": 279}, "interpolation": 1}]}, "effects": [], "end": 50.25000000000003, "crop_width": {"Points": [{"co": {"Y": -1.0, "X": 1.0}, "interpolation": 2}]}, "anchor": 0, "wave_color": {"alpha": {"Points": [{"handle_type": 0, "handle_right": {"Y": 0.0, "X": 0.5}, "handle_left": {"Y": 1.0, "X": 0.5}, "co": {"Y": 255.0, "X": 1.0}, "interpolation": 0}]}, "red": {"Points": [{"handle_type": 0, "handle_right": {"Y": 0.0, "X": 0.5}, "handle_left": {"Y": 1.0, "X": 0.5}, "co": {"Y": 0.0, "X": 1.0}, "interpolation": 0}]}, "blue": {"Points": [{"handle_type": 0, "handle_right": {"Y": 0.0, "X": 0.5}, "handle_left": {"Y": 1.0, "X": 0.5}, "co": {"Y": 255.0, "X": 1.0}, "interpolation": 0}]}, "green": {"Points": [{"handle_type": 0, "handle_right": {"Y": 0.0, "X": 0.5}, "handle_left": {"Y": 1.0, "X": 0.5}, "co": {"Y": 123.0, "X": 1.0}, "interpolation": 0}]}}, "scale_y": {"Points": [{"co": {"Y": 1.0, "X": 1.0}, "interpolation": 2}, {"co": {"Y": 2.299999952316284, "X": 279}, "interpolation": 1}]}, "shear_x": {"Points": [{"co": {"Y": 0.0, "X": 1.0}, "interpolation": 2}]}, "image": "../../../.openshot_qt/thumbnail/6Q4ECI0JKX.png", "perspective_c1_y": {"Points": [{"co": {"Y": -1.0, "X": 1.0}, "interpolation": 2}]}, "perspective_c3_x": {"Points": [{"co": {"Y": -1.0, "X": 1.0}, "interpolation": 2}]}}, {"start": 0, "rotation": {"Points": [{"co": {"Y": 0.0, "X": 1.0}, "interpolation": 2}]}, "title": "!060-Total of All Subjects.mkv", "crop_x": {"Points": [{"co": {"Y": 0.0, "X": 1.0}, "interpolation": 2}]}, "time": {"Points": [{"co": {"Y": 1, "X": 1}, "interpolation": 1}, {"co": {"Y": 1925, "X": 963}, "interpolation": 1}]}, "perspective_c3_y": {"Points": [{"co": {"Y": -1.0, "X": 1.0}, "interpolation": 2}]}, "volume": {"Points": [{"co": {"Y": 1.0, "X": 1.0}, "interpolation": 2}]}, "shear_y": {"Points": [{"co": {"Y": 0.0, "X": 1.0}, "interpolation": 2}]}, "channel_mapping": {"Points": [{"co": {"Y": -1.0, "X": 1.0}, "interpolation": 2}]}, "has_video": {"Points": [{"co": {"Y": -1.0, "X": 1.0}, "interpolation": 2}]}, "layer": 1, "scale": 1, "crop_y": {"Points": [{"co": {"Y": 0.0, "X": 1.0}, "interpolation": 2}]}, "perspective_c1_x": {"Points": [{"co": {"Y": -1.0, "X": 1.0}, "interpolation": 2}]}, "reader": {"pixel_format": 0, "acodec": "", "video_bit_rate": 0, "interlaced_frame": false, "fps": {"num": 25, "den": 1}, "has_single_image": false, "sample_rate": 0, "video_stream_index": 0, "channel_layout": 4, "audio_timebase": {"num": 1, "den": 1}, "display_ratio": {"num": 325, "den": 186}, "audio_stream_index": -1, "channels": 0, "has_video": true, "has_audio": false, "type": "FFmpegReader", "pixel_ratio": {"num": 1, "den": 1}, "top_field_first": true, "file_size": "638294", "vcodec": "h264", "path": "!060-Total of All Subjects.mkv", "width": 1300, "audio_bit_rate": 0, "height": 744, "video_length": "2050", "duration": 82.0, "video_timebase": {"num": 1, "den": 1000}}, "has_audio": {"Points": [{"co": {"Y": -1.0, "X": 1.0}, "interpolation": 2}]}, "perspective_c2_x": {"Points": [{"co": {"Y": -1.0, "X": 1.0}, "interpolation": 2}]}, "perspective_c4_x": {"Points": [{"co": {"Y": -1.0, "X": 1.0}, "interpolation": 2}]}, "position": 145.915, "duration": 40.0, "channel_filter": {"Points": [{"co": {"Y": -1.0, "X": 1.0}, "interpolation": 2}]}, "waveform": false, "alpha": {"Points": [{"handle_type": 0, "handle_right": {"Y": 0, "X": 0.5}, "handle_left": {"Y": 1, "X": 0.5}, "co": {"Y": 1, "X": 1}, "interpolation": 0}, {"handle_type": 0, "handle_right": {"Y": 0, "X": 0.5}, "handle_left": {"Y": 1, "X": 0.5}, "co": {"Y": 0, "X": 1}, "interpolation": 0}, {"handle_type": 0, "handle_right": {"Y": 0, "X": 0.5}, "handle_left": {"Y": 1, "X": 0.5}, "co": {"Y": 1, "X": 73}, "interpolation": 0}, {"handle_type": 0, "handle_right": {"Y": 0, "X": 0.5}, "handle_left": {"Y": 1, "X": 0.5}, "co": {"Y": 1, "X": 892}, "interpolation": 0}, {"handle_type": 0, "handle_right": {"Y": 0, "X": 0.5}, "handle_left": {"Y": 1, "X": 0.5}, "co": {"Y": 0, "X": 964}, "interpolation": 0}]}, "crop_height": {"Points": [{"co": {"Y": -1.0, "X": 1.0}, "interpolation": 2}]}, "location_y": {"Points": [{"co": {"Y": 0.5199999809265137, "X": 1.0}, "interpolation": 2}]}, "perspective_c4_y": {"Points": [{"co": {"Y": -1.0, "X": 1.0}, "interpolation": 2}]}, "scale_x": {"Points": [{"co": {"Y": 2.299999952316284, "X": 1.0}, "interpolation": 2}]}, "id": "XIG1DXTS01", "gravity": 4, "perspective_c2_y": {"Points": [{"co": {"Y": -1.0, "X": 1.0}, "interpolation": 2}]}, "file_id": "VQPCDZYTHO", "display": 0, "location_x": {"Points": [{"co": {"Y": 0.6200000047683716, "X": 1.0}, "interpolation": 2}, {"co": {"Y": 0.41999998688697815, "X": 265}, "interpolation": 1}]}, "effects": [], "end": 40.125, "crop_width": {"Points": [{"co": {"Y": -1.0, "X": 1.0}, "interpolation": 2}]}, "anchor": 0, "wave_color": {"alpha": {"Points": [{"handle_type": 0, "handle_right": {"Y": 0.0, "X": 0.5}, "handle_left": {"Y": 1.0, "X": 0.5}, "co": {"Y": 255.0, "X": 1.0}, "interpolation": 0}]}, "red": {"Points": [{"handle_type": 0, "handle_right": {"Y": 0.0, "X": 0.5}, "handle_left": {"Y": 1.0, "X": 0.5}, "co": {"Y": 0.0, "X": 1.0}, "interpolation": 0}]}, "blue": {"Points": [{"handle_type": 0, "handle_right": {"Y": 0.0, "X": 0.5}, "handle_left": {"Y": 1.0, "X": 0.5}, "co": {"Y": 255.0, "X": 1.0}, "interpolation": 0}]}, "green": {"Points": [{"handle_type": 0, "handle_right": {"Y": 0.0, "X": 0.5}, "handle_left": {"Y": 1.0, "X": 0.5}, "co": {"Y": 123.0, "X": 1.0}, "interpolation": 0}]}}, "scale_y": {"Points": [{"co": {"Y": 2.299999952316284, "X": 1.0}, "interpolation": 2}]}, "shear_x": {"Points": [{"co": {"Y": 0.0, "X": 1.0}, "interpolation": 2}]}, "image": "../../../.openshot_qt/thumbnail/VQPCDZYTHO.png", "perspective_c1_y": {"Points": [{"co": {"Y": -1.0, "X": 1.0}, "interpolation": 2}]}, "perspective_c3_x": {"Points": [{"co": {"Y": -1.0, "X": 1.0}, "interpolation": 2}]}}, {"start": 0, "rotation": {"Points": [{"co": {"Y": 0.0, "X": 1.0}, "interpolation": 2}]}, "title": "01-White-Background.svg", "crop_x": {"Points": [{"co": {"Y": 0.0, "X": 1.0}, "interpolation": 2}]}, "time": {"Points": [{"co": {"Y": 1.0, "X": 1.0}, "interpolation": 2}]}, "crop_y": {"Points": [{"co": {"Y": 0.0, "X": 1.0}, "interpolation": 2}]}, "perspective_c3_y": {"Points": [{"co": {"Y": -1.0, "X": 1.0}, "interpolation": 2}]}, "volume": {"Points": [{"co": {"Y": 1.0, "X": 1.0}, "interpolation": 2}]}, "shear_y": {"Points": [{"co": {"Y": 0.0, "X": 1.0}, "interpolation": 2}]}, "channel_mapping": {"Points": [{"co": {"Y": -1.0, "X": 1.0}, "interpolation": 2}]}, "scale_x": {"Points": [{"co": {"Y": 1.0, "X": 1.0}, "interpolation": 2}]}, "layer": 0, "scale": 1, "perspective_c4_y": {"Points": [{"co": {"Y": -1.0, "X": 1.0}, "interpolation": 2}]}, "perspective_c1_x": {"Points": [{"co": {"Y": -1.0, "X": 1.0}, "interpolation": 2}]}, "reader": {"pixel_format": -1, "acodec": "", "video_bit_rate": 0, "interlaced_frame": false, "fps": {"num": 30, "den": 1}, "has_single_image": true, "sample_rate": 0, "video_stream_index": -1, "channel_layout": 4, "audio_timebase": {"num": 1, "den": 1}, "display_ratio": {"num": 16, "den": 9}, "audio_stream_index": -1, "channels": 0, "has_video": true, "has_audio": false, "type": "QtImageReader", "pixel_ratio": {"num": 1, "den": 1}, "top_field_first": true, "file_size": "8294400", "vcodec": "", "path": "Images/01-White-Background.svg", "width": 1920, "audio_bit_rate": 0, "height": 1080, "video_length": "2592000", "duration": 86400.0, "video_timebase": {"num": 1, "den": 30}}, "has_audio": {"Points": [{"co": {"Y": -1.0, "X": 1.0}, "interpolation": 2}]}, "perspective_c2_x": {"Points": [{"co": {"Y": -1.0, "X": 1.0}, "interpolation": 2}]}, "perspective_c4_x": {"Points": [{"co": {"Y": -1.0, "X": 1.0}, "interpolation": 2}]}, "position": 140.995, "duration": 86400.0, "channel_filter": {"Points": [{"co": {"Y": -1.0, "X": 1.0}, "interpolation": 2}]}, "waveform": false, "alpha": {"Points": [{"co": {"Y": 1.0, "X": 1.0}, "interpolation": 2}]}, "crop_height": {"Points": [{"co": {"Y": -1.0, "X": 1.0}, "interpolation": 2}]}, "location_y": {"Points": [{"co": {"Y": 0.0, "X": 1.0}, "interpolation": 2}]}, "has_video": {"Points": [{"co": {"Y": -1.0, "X": 1.0}, "interpolation": 2}]}, "id": "ZSCEWQGJ8G", "gravity": 4, "perspective_c2_y": {"Points": [{"co": {"Y": -1.0, "X": 1.0}, "interpolation": 2}]}, "file_id": "TDIZ1HFAHG", "display": 0, "location_x": {"Points": [{"co": {"Y": 0.0, "X": 1.0}, "interpolation": 2}]}, "effects": [], "end": 10, "crop_width": {"Points": [{"co": {"Y": -1.0, "X": 1.0}, "interpolation": 2}]}, "anchor": 0, "wave_color": {"alpha": {"Points": [{"handle_type": 0, "handle_right": {"Y": 0.0, "X": 0.5}, "handle_left": {"Y": 1.0, "X": 0.5}, "co": {"Y": 255.0, "X": 1.0}, "interpolation": 0}]}, "red": {"Points": [{"handle_type": 0, "handle_right": {"Y": 0.0, "X": 0.5}, "handle_left": {"Y": 1.0, "X": 0.5}, "co": {"Y": 0.0, "X": 1.0}, "interpolation": 0}]}, "blue": {"Points": [{"handle_type": 0, "handle_right": {"Y": 0.0, "X": 0.5}, "handle_left": {"Y": 1.0, "X": 0.5}, "co": {"Y": 255.0, "X": 1.0}, "interpolation": 0}]}, "green": {"Points": [{"handle_type": 0, "handle_right": {"Y": 0.0, "X": 0.5}, "handle_left": {"Y": 1.0, "X": 0.5}, "co": {"Y": 123.0, "X": 1.0}, "interpolation": 0}]}}, "scale_y": {"Points": [{"co": {"Y": 1.0, "X": 1.0}, "interpolation": 2}]}, "shear_x": {"Points": [{"co": {"Y": 0.0, "X": 1.0}, "interpolation": 2}]}, "image": "../../../.openshot_qt/thumbnail/TDIZ1HFAHG.png", "perspective_c1_y": {"Points": [{"co": {"Y": -1.0, "X": 1.0}, "interpolation": 2}]}, "perspective_c3_x": {"Points": [{"co": {"Y": -1.0, "X": 1.0}, "interpolation": 2}]}}, {"channel_filter": {"Points": [{"co": {"Y": -1.0, "X": 1.0}, "interpolation": 2}]}, "start": 0, "rotation": {"Points": [{"co": {"Y": 0.0, "X": 1.0}, "interpolation": 2}]}, "title": "!070-Calculate Grace Marks.mkv", "reader": {"pixel_format": 0, "acodec": "", "video_bit_rate": 0, "interlaced_frame": false, "fps": {"num": 25, "den": 1}, "has_single_image": false, "sample_rate": 0, "video_stream_index": 0, "channel_layout": 4, "audio_timebase": {"num": 1, "den": 1}, "display_ratio": {"num": 325, "den": 186}, "audio_stream_index": -1, "channels": 0, "has_video": true, "has_audio": false, "type": "FFmpegReader", "pixel_ratio": {"num": 1, "den": 1}, "top_field_first": true, "file_size": "754457", "vcodec": "h264", "path": "!070-Calculate Grace Marks.mkv", "width": 1300, "audio_bit_rate": 0, "height": 744, "video_length": "2375", "duration": 95.0, "video_timebase": {"num": 1, "den": 1000}}, "alpha": {"Points": [{"handle_type": 0, "handle_right": {"Y": 0, "X": 0.5}, "handle_left": {"Y": 1, "X": 0.5}, "co": {"Y": 1, "X": 1}, "interpolation": 0}, {"handle_type": 0, "handle_right": {"Y": 0, "X": 0.5}, "handle_left": {"Y": 1, "X": 0.5}, "co": {"Y": 0, "X": 1}, "interpolation": 0}, {"handle_type": 0, "handle_right": {"Y": 0, "X": 0.5}, "handle_left": {"Y": 1, "X": 0.5}, "co": {"Y": 1, "X": 73}, "interpolation": 0}, {"handle_type": 0, "handle_right": {"Y": 0, "X": 0.5}, "handle_left": {"Y": 1, "X": 0.5}, "co": {"Y": 1, "X": 1042}, "interpolation": 0}, {"handle_type": 0, "handle_right": {"Y": 0, "X": 0.5}, "handle_left": {"Y": 1, "X": 0.5}, "co": {"Y": 0, "X": 1114}, "interpolation": 0}]}, "crop_x": {"Points": [{"co": {"Y": 0.0, "X": 1.0}, "interpolation": 2}]}, "crop_height": {"Points": [{"co": {"Y": -1.0, "X": 1.0}, "interpolation": 2}]}, "display": 0, "time": {"Points": [{"co": {"Y": 1, "X": 1}, "interpolation": 1}, {"co": {"Y": 2225, "X": 1113}, "interpolation": 1}]}, "crop_y": {"Points": [{"co": {"Y": 0.0, "X": 1.0}, "interpolation": 2}]}, "scale_x": {"Points": [{"co": {"Y": 2.299999952316284, "X": 1.0}, "interpolation": 2}, {"co": {"Y": 2.200000047683716, "X": 447}, "interpolation": 1}]}, "perspective_c3_y": {"Points": [{"co": {"Y": -1.0, "X": 1.0}, "interpolation": 2}]}, "volume": {"Points": [{"co": {"Y": 1.0, "X": 1.0}, "interpolation": 2}]}, "shear_y": {"Points": [{"co": {"Y": 0.0, "X": 1.0}, "interpolation": 2}]}, "effects": [], "id": "WW1TERPBZB", "gravity": 4, "position": 192.69, "channel_mapping": {"Points": [{"co": {"Y": -1.0, "X": 1.0}, "interpolation": 2}]}, "file_id": "5CQQB4EVIM", "location_y": {"Points": [{"co": {"Y": 0.5199999809265137, "X": 1.0}, "interpolation": 2}]}, "has_video": {"Points": [{"co": {"Y": -1.0, "X": 1.0}, "interpolation": 2}]}, "waveform": false, "layer": 1, "scale": 1, "perspective_c4_y": {"Points": [{"co": {"Y": -1.0, "X": 1.0}, "interpolation": 2}]}, "end": 46.375, "perspective_c3_x": {"Points": [{"co": {"Y": -1.0, "X": 1.0}, "interpolation": 2}]}, "perspective_c1_x": {"Points": [{"co": {"Y": -1.0, "X": 1.0}, "interpolation": 2}]}, "has_audio": {"Points": [{"co": {"Y": -1.0, "X": 1.0}, "interpolation": 2}]}, "crop_width": {"Points": [{"co": {"Y": -1.0, "X": 1.0}, "interpolation": 2}]}, "anchor": 0, "wave_color": {"alpha": {"Points": [{"handle_type": 0, "handle_right": {"Y": 0.0, "X": 0.5}, "handle_left": {"Y": 1.0, "X": 0.5}, "co": {"Y": 255.0, "X": 1.0}, "interpolation": 0}]}, "red": {"Points": [{"handle_type": 0, "handle_right": {"Y": 0.0, "X": 0.5}, "handle_left": {"Y": 1.0, "X": 0.5}, "co": {"Y": 0.0, "X": 1.0}, "interpolation": 0}]}, "blue": {"Points": [{"handle_type": 0, "handle_right": {"Y": 0.0, "X": 0.5}, "handle_left": {"Y": 1.0, "X": 0.5}, "co": {"Y": 255.0, "X": 1.0}, "interpolation": 0}]}, "green": {"Points": [{"handle_type": 0, "handle_right": {"Y": 0.0, "X": 0.5}, "handle_left": {"Y": 1.0, "X": 0.5}, "co": {"Y": 123.0, "X": 1.0}, "interpolation": 0}]}}, "scale_y": {"Points": [{"co": {"Y": 2.299999952316284, "X": 1.0}, "interpolation": 2}, {"co": {"Y": 2.200000047683716, "X": 447}, "interpolation": 1}]}, "location_x": {"Points": [{"co": {"Y": 0.41999998688697815, "X": 1.0}, "interpolation": 2}, {"co": {"Y": 0.33000001311302185, "X": 447}, "interpolation": 1}, {"co": {"Y": 0.33000001311302185, "X": 230}, "interpolation": 1}]}, "shear_x": {"Points": [{"co": {"Y": 0.0, "X": 1.0}, "interpolation": 2}]}, "perspective_c2_x": {"Points": [{"co": {"Y": -1.0, "X": 1.0}, "interpolation": 2}]}, "perspective_c1_y": {"Points": [{"co": {"Y": -1.0, "X": 1.0}, "interpolation": 2}]}, "perspective_c4_x": {"Points": [{"co": {"Y": -1.0, "X": 1.0}, "interpolation": 2}]}, "perspective_c2_y": {"Points": [{"co": {"Y": -1.0, "X": 1.0}, "interpolation": 2}]}, "image": "../../../.openshot_qt/thumbnail/5CQQB4EVIM.png", "duration": 46.0}, {"start": 0, "rotation": {"Points": [{"co": {"Y": 0.0, "X": 1.0}, "interpolation": 2}]}, "title": "01-White-Background.svg", "crop_x": {"Points": [{"co": {"Y": 0.0, "X": 1.0}, "interpolation": 2}]}, "time": {"Points": [{"co": {"Y": 1.0, "X": 1.0}, "interpolation": 2}]}, "perspective_c3_y": {"Points": [{"co": {"Y": -1.0, "X": 1.0}, "interpolation": 2}]}, "volume": {"Points": [{"co": {"Y": 1.0, "X": 1.0}, "interpolation": 2}]}, "shear_y": {"Points": [{"co": {"Y": 0.0, "X": 1.0}, "interpolation": 2}]}, "channel_mapping": {"Points": [{"co": {"Y": -1.0, "X": 1.0}, "interpolation": 2}]}, "has_video": {"Points": [{"co": {"Y": -1.0, "X": 1.0}, "interpolation": 2}]}, "layer": 0, "scale": 1, "crop_y": {"Points": [{"co": {"Y": 0.0, "X": 1.0}, "interpolation": 2}]}, "perspective_c1_x": {"Points": [{"co": {"Y": -1.0, "X": 1.0}, "interpolation": 2}]}, "reader": {"pixel_format": -1, "acodec": "", "video_bit_rate": 0, "interlaced_frame": false, "fps": {"num": 30, "den": 1}, "has_single_image": true, "sample_rate": 0, "video_stream_index": -1, "channel_layout": 4, "audio_timebase": {"num": 1, "den": 1}, "display_ratio": {"num": 16, "den": 9}, "audio_stream_index": -1, "channels": 0, "has_video": true, "has_audio": false, "type": "QtImageReader", "pixel_ratio": {"num": 1, "den": 1}, "top_field_first": true, "file_size": "8294400", "vcodec": "", "path": "Images/01-White-Background.svg", "width": 1920, "audio_bit_rate": 0, "height": 1080, "video_length": "2592000", "duration": 86400.0, "video_timebase": {"num": 1, "den": 30}}, "has_audio": {"Points": [{"co": {"Y": -1.0, "X": 1.0}, "interpolation": 2}]}, "perspective_c2_x": {"Points": [{"co": {"Y": -1.0, "X": 1.0}, "interpolation": 2}]}, "perspective_c4_x": {"Points": [{"co": {"Y": -1.0, "X": 1.0}, "interpolation": 2}]}, "position": 182.93, "duration": 86400.0, "channel_filter": {"Points": [{"co": {"Y": -1.0, "X": 1.0}, "interpolation": 2}]}, "waveform": false, "alpha": {"Points": [{"co": {"Y": 1.0, "X": 1.0}, "interpolation": 2}]}, "crop_height": {"Points": [{"co": {"Y": -1.0, "X": 1.0}, "interpolation": 2}]}, "location_y": {"Points": [{"co": {"Y": 0.0, "X": 1.0}, "interpolation": 2}]}, "perspective_c4_y": {"Points": [{"co": {"Y": -1.0, "X": 1.0}, "interpolation": 2}]}, "scale_x": {"Points": [{"co": {"Y": 1.0, "X": 1.0}, "interpolation": 2}]}, "id": "A97KLODAGG", "gravity": 4, "perspective_c2_y": {"Points": [{"co": {"Y": -1.0, "X": 1.0}, "interpolation": 2}]}, "file_id": "TDIZ1HFAHG", "display": 0, "location_x": {"Points": [{"co": {"Y": 0.0, "X": 1.0}, "interpolation": 2}]}, "effects": [], "end": 14.16, "crop_width": {"Points": [{"co": {"Y": -1.0, "X": 1.0}, "interpolation": 2}]}, "anchor": 0, "wave_color": {"alpha": {"Points": [{"handle_type": 0, "handle_right": {"Y": 0.0, "X": 0.5}, "handle_left": {"Y": 1.0, "X": 0.5}, "co": {"Y": 255.0, "X": 1.0}, "interpolation": 0}]}, "red": {"Points": [{"handle_type": 0, "handle_right": {"Y": 0.0, "X": 0.5}, "handle_left": {"Y": 1.0, "X": 0.5}, "co": {"Y": 0.0, "X": 1.0}, "interpolation": 0}]}, "blue": {"Points": [{"handle_type": 0, "handle_right": {"Y": 0.0, "X": 0.5}, "handle_left": {"Y": 1.0, "X": 0.5}, "co": {"Y": 255.0, "X": 1.0}, "interpolation": 0}]}, "green": {"Points": [{"handle_type": 0, "handle_right": {"Y": 0.0, "X": 0.5}, "handle_left": {"Y": 1.0, "X": 0.5}, "co": {"Y": 123.0, "X": 1.0}, "interpolation": 0}]}}, "scale_y": {"Points": [{"co": {"Y": 1.0, "X": 1.0}, "interpolation": 2}]}, "shear_x": {"Points": [{"co": {"Y": 0.0, "X": 1.0}, "interpolation": 2}]}, "image": "../../../.openshot_qt/thumbnail/TDIZ1HFAHG.png", "perspective_c1_y": {"Points": [{"co": {"Y": -1.0, "X": 1.0}, "interpolation": 2}]}, "perspective_c3_x": {"Points": [{"co": {"Y": -1.0, "X": 1.0}, "interpolation": 2}]}}, {"channel_filter": {"Points": [{"co": {"Y": -1.0, "X": 1.0}, "interpolation": 2}]}, "start": 0, "rotation": {"Points": [{"co": {"Y": 0.0, "X": 1.0}, "interpolation": 2}]}, "title": "!013-Format-Page-Dialog.svg", "waveform": false, "alpha": {"Points": [{"co": {"Y": 1.0, "X": 1.0}, "interpolation": 2}, {"handle_type": 0, "handle_right": {"Y": 0.0, "X": 0.5}, "handle_left": {"Y": 1.0, "X": 0.5}, "co": {"Y": 0.0, "X": 1.0}, "interpolation": 0}, {"handle_type": 0, "handle_right": {"Y": 0.0, "X": 0.5}, "handle_left": {"Y": 1.0, "X": 0.5}, "co": {"Y": 1.0, "X": 73.0}, "interpolation": 0}, {"handle_type": 0, "handle_right": {"Y": 0.0, "X": 0.5}, "handle_left": {"Y": 1.0, "X": 0.5}, "co": {"Y": 1.0, "X": 169.0}, "interpolation": 0}, {"handle_type": 0, "handle_right": {"Y": 0.0, "X": 0.5}, "handle_left": {"Y": 1.0, "X": 0.5}, "co": {"Y": 0.0, "X": 241.0}, "interpolation": 0}]}, "crop_x": {"Points": [{"co": {"Y": 0.0, "X": 1.0}, "interpolation": 2}]}, "crop_height": {"Points": [{"co": {"Y": -1.0, "X": 1.0}, "interpolation": 2}]}, "location_y": {"Points": [{"co": {"Y": 0.0, "X": 1.0}, "interpolation": 2}]}, "time": {"Points": [{"co": {"Y": 1.0, "X": 1.0}, "interpolation": 2}]}, "scale": 1, "has_video": {"Points": [{"co": {"Y": -1.0, "X": 1.0}, "interpolation": 2}]}, "perspective_c3_y": {"Points": [{"co": {"Y": -1.0, "X": 1.0}, "interpolation": 2}]}, "id": "1YCRB7905M", "volume": {"Points": [{"co": {"Y": 1.0, "X": 1.0}, "interpolation": 2}]}, "shear_y": {"Points": [{"co": {"Y": 0.0, "X": 1.0}, "interpolation": 2}]}, "effects": [], "gravity": 4, "position": 28.96, "channel_mapping": {"Points": [{"co": {"Y": -1.0, "X": 1.0}, "interpolation": 2}]}, "file_id": "GIMS8XDQW5", "display": 0, "scale_x": {"Points": [{"co": {"Y": 1.0, "X": 1.0}, "interpolation": 2}]}, "reader": {"pixel_format": -1, "acodec": "", "video_bit_rate": 0, "interlaced_frame": false, "fps": {"num": 30, "den": 1}, "has_single_image": true, "sample_rate": 0, "video_stream_index": -1, "channel_layout": 4, "audio_timebase": {"num": 1, "den": 1}, "display_ratio": {"num": 6803, "den": 3827}, "audio_stream_index": -1, "channels": 0, "has_video": true, "has_audio": false, "type": "QtImageReader", "pixel_ratio": {"num": 1, "den": 1}, "top_field_first": true, "file_size": "104140324", "vcodec": "", "path": "!013-Format-Page-Dialog.svg", "width": 6803, "audio_bit_rate": 0, "height": 3827, "video_length": "2592000", "duration": 86400.0, "video_timebase": {"num": 1, "den": 30}}, "layer": 3, "anchor": 0, "perspective_c4_y": {"Points": [{"co": {"Y": -1.0, "X": 1.0}, "interpolation": 2}]}, "perspective_c3_x": {"Points": [{"co": {"Y": -1.0, "X": 1.0}, "interpolation": 2}]}, "wave_color": {"alpha": {"Points": [{"handle_type": 0, "handle_right": {"Y": 0.0, "X": 0.5}, "handle_left": {"Y": 1.0, "X": 0.5}, "co": {"Y": 255.0, "X": 1.0}, "interpolation": 0}]}, "red": {"Points": [{"handle_type": 0, "handle_right": {"Y": 0.0, "X": 0.5}, "handle_left": {"Y": 1.0, "X": 0.5}, "co": {"Y": 0.0, "X": 1.0}, "interpolation": 0}]}, "blue": {"Points": [{"handle_type": 0, "handle_right": {"Y": 0.0, "X": 0.5}, "handle_left": {"Y": 1.0, "X": 0.5}, "co": {"Y": 255.0, "X": 1.0}, "interpolation": 0}]}, "green": {"Points": [{"handle_type": 0, "handle_right": {"Y": 0.0, "X": 0.5}, "handle_left": {"Y": 1.0, "X": 0.5}, "co": {"Y": 123.0, "X": 1.0}, "interpolation": 0}]}}, "perspective_c1_x": {"Points": [{"co": {"Y": -1.0, "X": 1.0}, "interpolation": 2}]}, "has_audio": {"Points": [{"co": {"Y": -1.0, "X": 1.0}, "interpolation": 2}]}, "crop_width": {"Points": [{"co": {"Y": -1.0, "X": 1.0}, "interpolation": 2}]}, "crop_y": {"Points": [{"co": {"Y": 0.0, "X": 1.0}, "interpolation": 2}]}, "scale_y": {"Points": [{"co": {"Y": 1.0, "X": 1.0}, "interpolation": 2}]}, "location_x": {"Points": [{"co": {"Y": 0.0, "X": 1.0}, "interpolation": 2}]}, "shear_x": {"Points": [{"co": {"Y": 0.0, "X": 1.0}, "interpolation": 2}]}, "perspective_c2_x": {"Points": [{"co": {"Y": -1.0, "X": 1.0}, "interpolation": 2}]}, "perspective_c1_y": {"Points": [{"co": {"Y": -1.0, "X": 1.0}, "interpolation": 2}]}, "perspective_c4_x": {"Points": [{"co": {"Y": -1.0, "X": 1.0}, "interpolation": 2}]}, "perspective_c2_y": {"Points": [{"co": {"Y": -1.0, "X": 1.0}, "interpolation": 2}]}, "image": "../../../.openshot_qt/thumbnail/GIMS8XDQW5.png", "duration": 86400.0, "end": 10}, {"channel_filter": {"Points": [{"co": {"Y": -1, "X": 1}, "interpolation": 2}]}, "start": 0, "rotation": {"Points": [{"co": {"Y": 0, "X": 1}, "interpolation": 2}]}, "title": "02-Title Progress Cards.svg", "shear_x": {"Points": [{"co": {"Y": 0, "X": 1}, "interpolation": 2}]}, "waveform": false, "anchor": 0, "crop_x": {"Points": [{"co": {"Y": 0, "X": 1}, "interpolation": 2}]}, "crop_height": {"Points": [{"co": {"Y": -1, "X": 1}, "interpolation": 2}]}, "display": 0, "perspective_c2_y": {"Points": [{"co": {"Y": -1, "X": 1}, "interpolation": 2}]}, "time": {"Points": [{"co": {"Y": 1, "X": 1}, "interpolation": 2}]}, "has_video": {"Points": [{"co": {"Y": -1, "X": 1}, "interpolation": 2}]}, "perspective_c3_x": {"Points": [{"co": {"Y": -1, "X": 1}, "interpolation": 2}]}, "perspective_c3_y": {"Points": [{"co": {"Y": -1, "X": 1}, "interpolation": 2}]}, "volume": {"Points": [{"co": {"Y": 1, "X": 1}, "interpolation": 2}]}, "shear_y": {"Points": [{"co": {"Y": 0, "X": 1}, "interpolation": 2}]}, "id": "U3TK0QU9SF", "gravity": 4, "position": 1.5, "channel_mapping": {"Points": [{"co": {"Y": -1, "X": 1}, "interpolation": 2}]}, "file_id": "5OEZCIVW6D", "location_y": {"Points": [{"co": {"Y": 0, "X": 1}, "interpolation": 2}]}, "scale_x": {"Points": [{"co": {"Y": 1, "X": 1}, "interpolation": 2}]}, "location_x": {"Points": [{"co": {"Y": 0, "X": 1}, "interpolation": 2}]}, "layer": 1, "scale": 1, "crop_y": {"Points": [{"co": {"Y": 0, "X": 1}, "interpolation": 2}]}, "image": "../../../.openshot_qt/thumbnail/5OEZCIVW6D.png", "duration": 86400.0, "perspective_c1_x": {"Points": [{"co": {"Y": -1, "X": 1}, "interpolation": 2}]}, "has_audio": {"Points": [{"co": {"Y": -1, "X": 1}, "interpolation": 2}]}, "crop_width": {"Points": [{"co": {"Y": -1, "X": 1}, "interpolation": 2}]}, "alpha": {"Points": [{"co": {"Y": 1, "X": 1}, "interpolation": 2}, {"handle_type": 0, "handle_right": {"Y": 0, "X": 0.5}, "handle_left": {"Y": 1, "X": 0.5}, "co": {"Y": 0, "X": 1}, "interpolation": 0}, {"handle_type": 0, "handle_right": {"Y": 0, "X": 0.5}, "handle_left": {"Y": 1, "X": 0.5}, "co": {"Y": 1, "X": 73}, "interpolation": 0}, {"handle_type": 0, "handle_right": {"Y": 0, "X": 0.5}, "handle_left": {"Y": 1, "X": 0.5}, "co": {"Y": 1, "X": 49}, "interpolation": 0}, {"handle_type": 0, "handle_right": {"Y": 0, "X": 0.5}, "handle_left": {"Y": 1, "X": 0.5}, "co": {"Y": 0, "X": 121}, "interpolation": 0}]}, "wave_color": {"alpha": {"Points": [{"handle_type": 0, "handle_right": {"Y": 0, "X": 0.5}, "handle_left": {"Y": 1, "X": 0.5}, "co": {"Y": 255, "X": 1}, "interpolation": 0}]}, "red": {"Points": [{"handle_type": 0, "handle_right": {"Y": 0, "X": 0.5}, "handle_left": {"Y": 1, "X": 0.5}, "co": {"Y": 0, "X": 1}, "interpolation": 0}]}, "blue": {"Points": [{"handle_type": 0, "handle_right": {"Y": 0, "X": 0.5}, "handle_left": {"Y": 1, "X": 0.5}, "co": {"Y": 255, "X": 1}, "interpolation": 0}]}, "green": {"Points": [{"handle_type": 0, "handle_right": {"Y": 0, "X": 0.5}, "handle_left": {"Y": 1, "X": 0.5}, "co": {"Y": 123, "X": 1}, "interpolation": 0}]}}, "scale_y": {"Points": [{"co": {"Y": 1, "X": 1}, "interpolation": 2}]}, "perspective_c4_y": {"Points": [{"co": {"Y": -1, "X": 1}, "interpolation": 2}]}, "end": 5, "perspective_c1_y": {"Points": [{"co": {"Y": -1, "X": 1}, "interpolation": 2}]}, "perspective_c4_x": {"Points": [{"co": {"Y": -1, "X": 1}, "interpolation": 2}]}, "effects": [], "reader": {"pixel_format": -1, "acodec": "", "video_bit_rate": 0, "interlaced_frame": false, "fps": {"num": 30, "den": 1}, "has_single_image": true, "sample_rate": 0, "video_stream_index": -1, "channel_layout": 4, "audio_timebase": {"num": 1, "den": 1}, "display_ratio": {"num": 6803, "den": 3827}, "audio_stream_index": -1, "channels": 0, "has_video": true, "has_audio": false, "type": "QtImageReader", "pixel_ratio": {"num": 1, "den": 1}, "top_field_first": true, "file_size": "104140324", "vcodec": "", "path": "Images/02-Title Progress Cards.svg", "width": 6803, "audio_bit_rate": 0, "height": 3827, "video_length": "2592000", "duration": 86400.0, "video_timebase": {"num": 1, "den": 30}}, "perspective_c2_x": {"Points": [{"co": {"Y": -1, "X": 1}, "interpolation": 2}]}}, {"channel_filter": {"Points": [{"co": {"Y": -1, "X": 1}, "interpolation": 2}]}, "start": 0, "rotation": {"Points": [{"co": {"Y": 0, "X": 1}, "interpolation": 2}]}, "title": "03-Title-In.svg", "shear_x": {"Points": [{"co": {"Y": 0, "X": 1}, "interpolation": 2}]}, "waveform": false, "anchor": 0, "crop_x": {"Points": [{"co": {"Y": 0, "X": 1}, "interpolation": 2}]}, "crop_height": {"Points": [{"co": {"Y": -1, "X": 1}, "interpolation": 2}]}, "display": 0, "perspective_c2_y": {"Points": [{"co": {"Y": -1, "X": 1}, "interpolation": 2}]}, "time": {"Points": [{"co": {"Y": 1, "X": 1}, "interpolation": 2}]}, "has_video": {"Points": [{"co": {"Y": -1, "X": 1}, "interpolation": 2}]}, "perspective_c3_x": {"Points": [{"co": {"Y": -1, "X": 1}, "interpolation": 2}]}, "perspective_c3_y": {"Points": [{"co": {"Y": -1, "X": 1}, "interpolation": 2}]}, "volume": {"Points": [{"co": {"Y": 1, "X": 1}, "interpolation": 2}]}, "shear_y": {"Points": [{"co": {"Y": 0, "X": 1}, "interpolation": 2}]}, "id": "PZM9R575VK", "gravity": 4, "position": 6.5, "channel_mapping": {"Points": [{"co": {"Y": -1, "X": 1}, "interpolation": 2}]}, "file_id": "V0JTT8RBI4", "location_y": {"Points": [{"co": {"Y": 0, "X": 1}, "interpolation": 2}]}, "scale_x": {"Points": [{"co": {"Y": 1, "X": 1}, "interpolation": 2}]}, "location_x": {"Points": [{"co": {"Y": 0, "X": 1}, "interpolation": 2}]}, "layer": 1, "scale": 1, "crop_y": {"Points": [{"co": {"Y": 0, "X": 1}, "interpolation": 2}]}, "image": "../../../.openshot_qt/thumbnail/V0JTT8RBI4.png", "duration": 86400.0, "perspective_c1_x": {"Points": [{"co": {"Y": -1, "X": 1}, "interpolation": 2}]}, "has_audio": {"Points": [{"co": {"Y": -1, "X": 1}, "interpolation": 2}]}, "crop_width": {"Points": [{"co": {"Y": -1, "X": 1}, "interpolation": 2}]}, "alpha": {"Points": [{"co": {"Y": 1, "X": 1}, "interpolation": 2}, {"handle_type": 0, "handle_right": {"Y": 0, "X": 0.5}, "handle_left": {"Y": 1, "X": 0.5}, "co": {"Y": 0, "X": 1}, "interpolation": 0}, {"handle_type": 0, "handle_right": {"Y": 0, "X": 0.5}, "handle_left": {"Y": 1, "X": 0.5}, "co": {"Y": 1, "X": 73}, "interpolation": 0}, {"handle_type": 0, "handle_right": {"Y": 0, "X": 0.5}, "handle_left": {"Y": 1, "X": 0.5}, "co": {"Y": 1, "X": 49}, "interpolation": 0}, {"handle_type": 0, "handle_right": {"Y": 0, "X": 0.5}, "handle_left": {"Y": 1, "X": 0.5}, "co": {"Y": 0, "X": 121}, "interpolation": 0}]}, "wave_color": {"alpha": {"Points": [{"handle_type": 0, "handle_right": {"Y": 0, "X": 0.5}, "handle_left": {"Y": 1, "X": 0.5}, "co": {"Y": 255, "X": 1}, "interpolation": 0}]}, "red": {"Points": [{"handle_type": 0, "handle_right": {"Y": 0, "X": 0.5}, "handle_left": {"Y": 1, "X": 0.5}, "co": {"Y": 0, "X": 1}, "interpolation": 0}]}, "blue": {"Points": [{"handle_type": 0, "handle_right": {"Y": 0, "X": 0.5}, "handle_left": {"Y": 1, "X": 0.5}, "co": {"Y": 255, "X": 1}, "interpolation": 0}]}, "green": {"Points": [{"handle_type": 0, "handle_right": {"Y": 0, "X": 0.5}, "handle_left": {"Y": 1, "X": 0.5}, "co": {"Y": 123, "X": 1}, "interpolation": 0}]}}, "scale_y": {"Points": [{"co": {"Y": 1, "X": 1}, "interpolation": 2}]}, "perspective_c4_y": {"Points": [{"co": {"Y": -1, "X": 1}, "interpolation": 2}]}, "end": 5, "perspective_c1_y": {"Points": [{"co": {"Y": -1, "X": 1}, "interpolation": 2}]}, "perspective_c4_x": {"Points": [{"co": {"Y": -1, "X": 1}, "interpolation": 2}]}, "effects": [], "reader": {"pixel_format": -1, "acodec": "", "video_bit_rate": 0, "interlaced_frame": false, "fps": {"num": 30, "den": 1}, "has_single_image": true, "sample_rate": 0, "video_stream_index": -1, "channel_layout": 4, "audio_timebase": {"num": 1, "den": 1}, "display_ratio": {"num": 6803, "den": 3827}, "audio_stream_index": -1, "channels": 0, "has_video": true, "has_audio": false, "type": "QtImageReader", "pixel_ratio": {"num": 1, "den": 1}, "top_field_first": true, "file_size": "104140324", "vcodec": "", "path": "Images/03-Title-In.svg", "width": 6803, "audio_bit_rate": 0, "height": 3827, "video_length": "2592000", "duration": 86400.0, "video_timebase": {"num": 1, "den": 30}}, "perspective_c2_x": {"Points": [{"co": {"Y": -1, "X": 1}, "interpolation": 2}]}}, {"channel_filter": {"Points": [{"co": {"Y": -1, "X": 1}, "interpolation": 2}]}, "start": 0, "rotation": {"Points": [{"co": {"Y": 0, "X": 1}, "interpolation": 2}]}, "title": "04-LibreOffice_external_logo.svg", "shear_x": {"Points": [{"co": {"Y": 0, "X": 1}, "interpolation": 2}]}, "waveform": false, "anchor": 0, "crop_x": {"Points": [{"co": {"Y": 0, "X": 1}, "interpolation": 2}]}, "crop_height": {"Points": [{"co": {"Y": -1, "X": 1}, "interpolation": 2}]}, "display": 0, "perspective_c2_y": {"Points": [{"co": {"Y": -1, "X": 1}, "interpolation": 2}]}, "time": {"Points": [{"co": {"Y": 1, "X": 1}, "interpolation": 2}]}, "has_video": {"Points": [{"co": {"Y": -1, "X": 1}, "interpolation": 2}]}, "perspective_c3_x": {"Points": [{"co": {"Y": -1, "X": 1}, "interpolation": 2}]}, "perspective_c3_y": {"Points": [{"co": {"Y": -1, "X": 1}, "interpolation": 2}]}, "volume": {"Points": [{"co": {"Y": 1, "X": 1}, "interpolation": 2}]}, "shear_y": {"Points": [{"co": {"Y": 0, "X": 1}, "interpolation": 2}]}, "id": "I2GRFT5O9D", "gravity": 4, "position": 11.5, "channel_mapping": {"Points": [{"co": {"Y": -1, "X": 1}, "interpolation": 2}]}, "file_id": "9LYJA9LENR", "location_y": {"Points": [{"co": {"Y": 0, "X": 1}, "interpolation": 2}]}, "scale_x": {"Points": [{"co": {"Y": 1, "X": 1}, "interpolation": 2}]}, "location_x": {"Points": [{"co": {"Y": 0, "X": 1}, "interpolation": 2}]}, "layer": 1, "scale": 1, "crop_y": {"Points": [{"co": {"Y": 0, "X": 1}, "interpolation": 2}]}, "image": "../../../.openshot_qt/thumbnail/9LYJA9LENR.png", "duration": 86400.0, "perspective_c1_x": {"Points": [{"co": {"Y": -1, "X": 1}, "interpolation": 2}]}, "has_audio": {"Points": [{"co": {"Y": -1, "X": 1}, "interpolation": 2}]}, "crop_width": {"Points": [{"co": {"Y": -1, "X": 1}, "interpolation": 2}]}, "alpha": {"Points": [{"co": {"Y": 1, "X": 1}, "interpolation": 2}, {"handle_type": 0, "handle_right": {"Y": 0, "X": 0.5}, "handle_left": {"Y": 1, "X": 0.5}, "co": {"Y": 0, "X": 1}, "interpolation": 0}, {"handle_type": 0, "handle_right": {"Y": 0, "X": 0.5}, "handle_left": {"Y": 1, "X": 0.5}, "co": {"Y": 1, "X": 73}, "interpolation": 0}, {"handle_type": 0, "handle_right": {"Y": 0, "X": 0.5}, "handle_left": {"Y": 1, "X": 0.5}, "co": {"Y": 1, "X": 49}, "interpolation": 0}, {"handle_type": 0, "handle_right": {"Y": 0, "X": 0.5}, "handle_left": {"Y": 1, "X": 0.5}, "co": {"Y": 0, "X": 121}, "interpolation": 0}]}, "wave_color": {"alpha": {"Points": [{"handle_type": 0, "handle_right": {"Y": 0, "X": 0.5}, "handle_left": {"Y": 1, "X": 0.5}, "co": {"Y": 255, "X": 1}, "interpolation": 0}]}, "red": {"Points": [{"handle_type": 0, "handle_right": {"Y": 0, "X": 0.5}, "handle_left": {"Y": 1, "X": 0.5}, "co": {"Y": 0, "X": 1}, "interpolation": 0}]}, "blue": {"Points": [{"handle_type": 0, "handle_right": {"Y": 0, "X": 0.5}, "handle_left": {"Y": 1, "X": 0.5}, "co": {"Y": 255, "X": 1}, "interpolation": 0}]}, "green": {"Points": [{"handle_type": 0, "handle_right": {"Y": 0, "X": 0.5}, "handle_left": {"Y": 1, "X": 0.5}, "co": {"Y": 123, "X": 1}, "interpolation": 0}]}}, "scale_y": {"Points": [{"co": {"Y": 1, "X": 1}, "interpolation": 2}]}, "perspective_c4_y": {"Points": [{"co": {"Y": -1, "X": 1}, "interpolation": 2}]}, "end": 5, "perspective_c1_y": {"Points": [{"co": {"Y": -1, "X": 1}, "interpolation": 2}]}, "perspective_c4_x": {"Points": [{"co": {"Y": -1, "X": 1}, "interpolation": 2}]}, "effects": [], "reader": {"pixel_format": -1, "acodec": "", "video_bit_rate": 0, "interlaced_frame": false, "fps": {"num": 30, "den": 1}, "has_single_image": true, "sample_rate": 0, "video_stream_index": -1, "channel_layout": 4, "audio_timebase": {"num": 1, "den": 1}, "display_ratio": {"num": 300, "den": 89}, "audio_stream_index": -1, "channels": 0, "has_video": true, "has_audio": false, "type": "QtImageReader", "pixel_ratio": {"num": 1, "den": 1}, "top_field_first": true, "file_size": "427200", "vcodec": "", "path": "Images/04-LibreOffice_external_logo.svg", "width": 600, "audio_bit_rate": 0, "height": 178, "video_length": "2592000", "duration": 86400.0, "video_timebase": {"num": 1, "den": 30}}, "perspective_c2_x": {"Points": [{"co": {"Y": -1, "X": 1}, "interpolation": 2}]}}, {"channel_filter": {"Points": [{"co": {"Y": -1, "X": 1}, "interpolation": 2}]}, "start": 0, "rotation": {"Points": [{"co": {"Y": 0, "X": 1}, "interpolation": 2}]}, "title": "05-Title -Open Writer.svg", "shear_x": {"Points": [{"co": {"Y": 0, "X": 1}, "interpolation": 2}]}, "waveform": false, "anchor": 0, "crop_x": {"Points": [{"co": {"Y": 0, "X": 1}, "interpolation": 2}]}, "crop_height": {"Points": [{"co": {"Y": -1, "X": 1}, "interpolation": 2}]}, "display": 0, "perspective_c2_y": {"Points": [{"co": {"Y": -1, "X": 1}, "interpolation": 2}]}, "time": {"Points": [{"co": {"Y": 1, "X": 1}, "interpolation": 2}]}, "has_video": {"Points": [{"co": {"Y": -1, "X": 1}, "interpolation": 2}]}, "perspective_c3_x": {"Points": [{"co": {"Y": -1, "X": 1}, "interpolation": 2}]}, "perspective_c3_y": {"Points": [{"co": {"Y": -1, "X": 1}, "interpolation": 2}]}, "volume": {"Points": [{"co": {"Y": 1, "X": 1}, "interpolation": 2}]}, "shear_y": {"Points": [{"co": {"Y": 0, "X": 1}, "interpolation": 2}]}, "id": "PL01YVX577", "gravity": 4, "position": 16.5, "channel_mapping": {"Points": [{"co": {"Y": -1, "X": 1}, "interpolation": 2}]}, "file_id": "UXYIII238I", "location_y": {"Points": [{"co": {"Y": 0, "X": 1}, "interpolation": 2}]}, "scale_x": {"Points": [{"co": {"Y": 1, "X": 1}, "interpolation": 2}]}, "location_x": {"Points": [{"co": {"Y": 0, "X": 1}, "interpolation": 2}]}, "layer": 1, "scale": 1, "crop_y": {"Points": [{"co": {"Y": 0, "X": 1}, "interpolation": 2}]}, "image": "../../../.openshot_qt/thumbnail/UXYIII238I.png", "duration": 86400.0, "perspective_c1_x": {"Points": [{"co": {"Y": -1, "X": 1}, "interpolation": 2}]}, "has_audio": {"Points": [{"co": {"Y": -1, "X": 1}, "interpolation": 2}]}, "crop_width": {"Points": [{"co": {"Y": -1, "X": 1}, "interpolation": 2}]}, "alpha": {"Points": [{"co": {"Y": 1, "X": 1}, "interpolation": 2}, {"handle_type": 0, "handle_right": {"Y": 0, "X": 0.5}, "handle_left": {"Y": 1, "X": 0.5}, "co": {"Y": 0, "X": 1}, "interpolation": 0}, {"handle_type": 0, "handle_right": {"Y": 0, "X": 0.5}, "handle_left": {"Y": 1, "X": 0.5}, "co": {"Y": 1, "X": 73}, "interpolation": 0}, {"handle_type": 0, "handle_right": {"Y": 0, "X": 0.5}, "handle_left": {"Y": 1, "X": 0.5}, "co": {"Y": 1, "X": 49}, "interpolation": 0}, {"handle_type": 0, "handle_right": {"Y": 0, "X": 0.5}, "handle_left": {"Y": 1, "X": 0.5}, "co": {"Y": 0, "X": 121}, "interpolation": 0}]}, "wave_color": {"alpha": {"Points": [{"handle_type": 0, "handle_right": {"Y": 0, "X": 0.5}, "handle_left": {"Y": 1, "X": 0.5}, "co": {"Y": 255, "X": 1}, "interpolation": 0}]}, "red": {"Points": [{"handle_type": 0, "handle_right": {"Y": 0, "X": 0.5}, "handle_left": {"Y": 1, "X": 0.5}, "co": {"Y": 0, "X": 1}, "interpolation": 0}]}, "blue": {"Points": [{"handle_type": 0, "handle_right": {"Y": 0, "X": 0.5}, "handle_left": {"Y": 1, "X": 0.5}, "co": {"Y": 255, "X": 1}, "interpolation": 0}]}, "green": {"Points": [{"handle_type": 0, "handle_right": {"Y": 0, "X": 0.5}, "handle_left": {"Y": 1, "X": 0.5}, "co": {"Y": 123, "X": 1}, "interpolation": 0}]}}, "scale_y": {"Points": [{"co": {"Y": 1, "X": 1}, "interpolation": 2}]}, "perspective_c4_y": {"Points": [{"co": {"Y": -1, "X": 1}, "interpolation": 2}]}, "end": 5, "perspective_c1_y": {"Points": [{"co": {"Y": -1, "X": 1}, "interpolation": 2}]}, "perspective_c4_x": {"Points": [{"co": {"Y": -1, "X": 1}, "interpolation": 2}]}, "effects": [], "reader": {"pixel_format": -1, "acodec": "", "video_bit_rate": 0, "interlaced_frame": false, "fps": {"num": 30, "den": 1}, "has_single_image": true, "sample_rate": 0, "video_stream_index": -1, "channel_layout": 4, "audio_timebase": {"num": 1, "den": 1}, "display_ratio": {"num": 6803, "den": 3827}, "audio_stream_index": -1, "channels": 0, "has_video": true, "has_audio": false, "type": "QtImageReader", "pixel_ratio": {"num": 1, "den": 1}, "top_field_first": true, "file_size": "104140324", "vcodec": "", "path": "Images/05-Title -Open Writer.svg", "width": 6803, "audio_bit_rate": 0, "height": 3827, "video_length": "2592000", "duration": 86400.0, "video_timebase": {"num": 1, "den": 30}}, "perspective_c2_x": {"Points": [{"co": {"Y": -1, "X": 1}, "interpolation": 2}]}}, {"channel_filter": {"Points": [{"co": {"Y": -1, "X": 1}, "interpolation": 2}]}, "start": 0, "rotation": {"Points": [{"co": {"Y": 0, "X": 1}, "interpolation": 2}]}, "title": "!010-Libre Writer Normal Screen.mkv", "perspective_c1_y": {"Points": [{"co": {"Y": -1, "X": 1}, "interpolation": 2}]}, "waveform": false, "alpha": {"Points": [{"handle_type": 0, "handle_right": {"Y": 0.0, "X": 0.5}, "handle_left": {"Y": 1.0, "X": 0.5}, "co": {"Y": 1.0, "X": 1.0}, "interpolation": 0}, {"handle_type": 0, "handle_right": {"Y": 0.0, "X": 0.5}, "handle_left": {"Y": 1.0, "X": 0.5}, "co": {"Y": 0.0, "X": 1.0}, "interpolation": 0}, {"handle_type": 0, "handle_right": {"Y": 0.0, "X": 0.5}, "handle_left": {"Y": 1.0, "X": 0.5}, "co": {"Y": 1.0, "X": 73.0}, "interpolation": 0}, {"handle_type": 0, "handle_right": {"Y": 0.0, "X": 0.5}, "handle_left": {"Y": 1.0, "X": 0.5}, "co": {"Y": 1.0, "X": 169.0}, "interpolation": 0}, {"handle_type": 0, "handle_right": {"Y": 0.0, "X": 0.5}, "handle_left": {"Y": 1.0, "X": 0.5}, "co": {"Y": 0.0, "X": 241.0}, "interpolation": 0}]}, "crop_x": {"Points": [{"co": {"Y": 0, "X": 1}, "interpolation": 2}]}, "crop_height": {"Points": [{"co": {"Y": -1, "X": 1}, "interpolation": 2}]}, "location_y": {"Points": [{"co": {"Y": 0, "X": 1}, "interpolation": 2}]}, "time": {"Points": [{"co": {"Y": 1, "X": 1}, "interpolation": 2}]}, "scale": 1, "scale_x": {"Points": [{"co": {"Y": 1, "X": 1}, "interpolation": 2}]}, "perspective_c3_y": {"Points": [{"co": {"Y": -1, "X": 1}, "interpolation": 2}]}, "id": "E66PW6ABXB", "volume": {"Points": [{"co": {"Y": 1, "X": 1}, "interpolation": 2}]}, "shear_y": {"Points": [{"co": {"Y": 0, "X": 1}, "interpolation": 2}]}, "effects": [], "gravity": 4, "position": 21.44, "channel_mapping": {"Points": [{"co": {"Y": -1, "X": 1}, "interpolation": 2}]}, "file_id": "JMYSBVPZGY", "display": 0, "has_video": {"Points": [{"co": {"Y": -1, "X": 1}, "interpolation": 2}]}, "reader": {"pixel_format": 0, "acodec": "", "video_bit_rate": 23625, "interlaced_frame": false, "fps": {"num": 25, "den": 1}, "has_single_image": false, "sample_rate": 0, "video_stream_index": 0, "channel_layout": 4, "audio_timebase": {"num": 1, "den": 1}, "display_ratio": {"num": 325, "den": 186}, "audio_stream_index": -1, "channels": 0, "has_video": true, "has_audio": false, "type": "FFmpegReader", "pixel_ratio": {"num": 1, "den": 1}, "top_field_first": true, "file_size": "31067", "vcodec": "h264", "path": "!010-Libre Writer Normal Screen.mkv", "width": 1300, "audio_bit_rate": 0, "height": 744, "video_length": "250", "duration": 10.0, "video_timebase": {"num": 1, "den": 1000}}, "layer": 1, "anchor": 0, "perspective_c4_y": {"Points": [{"co": {"Y": -1, "X": 1}, "interpolation": 2}]}, "end": 10, "wave_color": {"alpha": {"Points": [{"handle_type": 0, "handle_right": {"Y": 0, "X": 0.5}, "handle_left": {"Y": 1, "X": 0.5}, "co": {"Y": 255, "X": 1}, "interpolation": 0}]}, "red": {"Points": [{"handle_type": 0, "handle_right": {"Y": 0, "X": 0.5}, "handle_left": {"Y": 1, "X": 0.5}, "co": {"Y": 0, "X": 1}, "interpolation": 0}]}, "blue": {"Points": [{"handle_type": 0, "handle_right": {"Y": 0, "X": 0.5}, "handle_left": {"Y": 1, "X": 0.5}, "co": {"Y": 255, "X": 1}, "interpolation": 0}]}, "green": {"Points": [{"handle_type": 0, "handle_right": {"Y": 0, "X": 0.5}, "handle_left": {"Y": 1, "X": 0.5}, "co": {"Y": 123, "X": 1}, "interpolation": 0}]}}, "perspective_c1_x": {"Points": [{"co": {"Y": -1, "X": 1}, "interpolation": 2}]}, "has_audio": {"Points": [{"co": {"Y": -1, "X": 1}, "interpolation": 2}]}, "crop_width": {"Points": [{"co": {"Y": -1, "X": 1}, "interpolation": 2}]}, "crop_y": {"Points": [{"co": {"Y": 0, "X": 1}, "interpolation": 2}]}, "scale_y": {"Points": [{"co": {"Y": 1, "X": 1}, "interpolation": 2}]}, "location_x": {"Points": [{"co": {"Y": 0, "X": 1}, "interpolation": 2}]}, "shear_x": {"Points": [{"co": {"Y": 0, "X": 1}, "interpolation": 2}]}, "perspective_c2_x": {"Points": [{"co": {"Y": -1, "X": 1}, "interpolation": 2}]}, "perspective_c3_x": {"Points": [{"co": {"Y": -1, "X": 1}, "interpolation": 2}]}, "perspective_c4_x": {"Points": [{"co": {"Y": -1, "X": 1}, "interpolation": 2}]}, "perspective_c2_y": {"Points": [{"co": {"Y": -1, "X": 1}, "interpolation": 2}]}, "image": "../../../.openshot_qt/thumbnail/JMYSBVPZGY.png", "duration": 10.0}, {"start": 0, "rotation": {"Points": [{"co": {"Y": 0, "X": 1}, "interpolation": 2}]}, "title": "!040-Slide -Open Libre Calc.svg", "crop_x": {"Points": [{"co": {"Y": 0, "X": 1}, "interpolation": 2}]}, "time": {"Points": [{"co": {"Y": 1, "X": 1}, "interpolation": 2}]}, "perspective_c2_x": {"Points": [{"co": {"Y": -1, "X": 1}, "interpolation": 2}]}, "perspective_c3_y": {"Points": [{"co": {"Y": -1, "X": 1}, "interpolation": 2}]}, "volume": {"Points": [{"co": {"Y": 1, "X": 1}, "interpolation": 2}]}, "shear_y": {"Points": [{"co": {"Y": 0, "X": 1}, "interpolation": 2}]}, "channel_mapping": {"Points": [{"co": {"Y": -1, "X": 1}, "interpolation": 2}]}, "has_video": {"Points": [{"co": {"Y": -1, "X": 1}, "interpolation": 2}]}, "layer": 1, "scale": 1, "crop_y": {"Points": [{"co": {"Y": 0, "X": 1}, "interpolation": 2}]}, "perspective_c1_x": {"Points": [{"co": {"Y": -1, "X": 1}, "interpolation": 2}]}, "reader": {"pixel_format": -1, "acodec": "", "video_bit_rate": 0, "interlaced_frame": false, "fps": {"num": 30, "den": 1}, "has_single_image": true, "sample_rate": 0, "video_stream_index": -1, "channel_layout": 4, "audio_timebase": {"num": 1, "den": 1}, "display_ratio": {"num": 6803, "den": 3827}, "audio_stream_index": -1, "channels": 0, "has_video": true, "has_audio": false, "type": "QtImageReader", "pixel_ratio": {"num": 1, "den": 1}, "top_field_first": true, "file_size": "104140324", "vcodec": "", "path": "!040-Slide -Open Libre Calc.svg", "width": 6803, "audio_bit_rate": 0, "height": 3827, "video_length": "2592000", "duration": 86400.0, "video_timebase": {"num": 1, "den": 30}}, "wave_color": {"alpha": {"Points": [{"handle_type": 0, "handle_right": {"Y": 0, "X": 0.5}, "handle_left": {"Y": 1, "X": 0.5}, "co": {"Y": 255, "X": 1}, "interpolation": 0}]}, "red": {"Points": [{"handle_type": 0, "handle_right": {"Y": 0, "X": 0.5}, "handle_left": {"Y": 1, "X": 0.5}, "co": {"Y": 0, "X": 1}, "interpolation": 0}]}, "blue": {"Points": [{"handle_type": 0, "handle_right": {"Y": 0, "X": 0.5}, "handle_left": {"Y": 1, "X": 0.5}, "co": {"Y": 255, "X": 1}, "interpolation": 0}]}, "green": {"Points": [{"handle_type": 0, "handle_right": {"Y": 0, "X": 0.5}, "handle_left": {"Y": 1, "X": 0.5}, "co": {"Y": 123, "X": 1}, "interpolation": 0}]}}, "crop_width": {"Points": [{"co": {"Y": -1, "X": 1}, "interpolation": 2}]}, "perspective_c4_x": {"Points": [{"co": {"Y": -1, "X": 1}, "interpolation": 2}]}, "perspective_c2_y": {"Points": [{"co": {"Y": -1, "X": 1}, "interpolation": 2}]}, "duration": 86400.0, "channel_filter": {"Points": [{"co": {"Y": -1, "X": 1}, "interpolation": 2}]}, "waveform": false, "alpha": {"Points": [{"co": {"Y": 1, "X": 1}, "interpolation": 2}, {"handle_type": 0, "handle_right": {"Y": 0, "X": 0.5}, "handle_left": {"Y": 1, "X": 0.5}, "co": {"Y": 0, "X": 1}, "interpolation": 0}, {"handle_type": 0, "handle_right": {"Y": 0, "X": 0.5}, "handle_left": {"Y": 1, "X": 0.5}, "co": {"Y": 1, "X": 73}, "interpolation": 0}, {"handle_type": 0, "handle_right": {"Y": 0, "X": 0.5}, "handle_left": {"Y": 1, "X": 0.5}, "co": {"Y": 1, "X": 49}, "interpolation": 0}, {"handle_type": 0, "handle_right": {"Y": 0, "X": 0.5}, "handle_left": {"Y": 1, "X": 0.5}, "co": {"Y": 0, "X": 121}, "interpolation": 0}]}, "crop_height": {"Points": [{"co": {"Y": -1, "X": 1}, "interpolation": 2}]}, "location_y": {"Points": [{"co": {"Y": 0, "X": 1}, "interpolation": 2}]}, "scale_x": {"Points": [{"co": {"Y": 1, "X": 1}, "interpolation": 2}]}, "id": "MTKMEUPC4W", "gravity": 4, "position": 90.665, "file_id": "V62OPXLIQ5", "display": 0, "location_x": {"Points": [{"co": {"Y": 0, "X": 1}, "interpolation": 2}]}, "effects": [], "end": 5, "perspective_c4_y": {"Points": [{"co": {"Y": -1, "X": 1}, "interpolation": 2}]}, "anchor": 0, "has_audio": {"Points": [{"co": {"Y": -1, "X": 1}, "interpolation": 2}]}, "scale_y": {"Points": [{"co": {"Y": 1, "X": 1}, "interpolation": 2}]}, "shear_x": {"Points": [{"co": {"Y": 0, "X": 1}, "interpolation": 2}]}, "image": "../../../.openshot_qt/thumbnail/V62OPXLIQ5.png", "perspective_c1_y": {"Points": [{"co": {"Y": -1, "X": 1}, "interpolation": 2}]}, "perspective_c3_x": {"Points": [{"co": {"Y": -1, "X": 1}, "interpolation": 2}]}}, {"channel_filter": {"Points": [{"co": {"Y": -1, "X": 1}, "interpolation": 2}]}, "start": 0, "rotation": {"Points": [{"co": {"Y": 0, "X": 1}, "interpolation": 2}]}, "title": "!065-Calculate Grace Marks.svg", "reader": {"pixel_format": -1, "acodec": "", "video_bit_rate": 0, "interlaced_frame": false, "fps": {"num": 30, "den": 1}, "has_single_image": true, "sample_rate": 0, "video_stream_index": -1, "channel_layout": 4, "audio_timebase": {"num": 1, "den": 1}, "display_ratio": {"num": 6803, "den": 3827}, "audio_stream_index": -1, "channels": 0, "has_video": true, "has_audio": false, "type": "QtImageReader", "pixel_ratio": {"num": 1, "den": 1}, "top_field_first": true, "file_size": "104140324", "vcodec": "", "path": "!065-Calculate Grace Marks.svg", "width": 6803, "audio_bit_rate": 0, "height": 3827, "video_length": "2592000", "duration": 86400.0, "video_timebase": {"num": 1, "den": 30}}, "alpha": {"Points": [{"co": {"Y": 1, "X": 1}, "interpolation": 2}, {"handle_type": 0, "handle_right": {"Y": 0, "X": 0.5}, "handle_left": {"Y": 1, "X": 0.5}, "co": {"Y": 0, "X": 1}, "interpolation": 0}, {"handle_type": 0, "handle_right": {"Y": 0, "X": 0.5}, "handle_left": {"Y": 1, "X": 0.5}, "co": {"Y": 1, "X": 73}, "interpolation": 0}, {"handle_type": 0, "handle_right": {"Y": 0, "X": 0.5}, "handle_left": {"Y": 1, "X": 0.5}, "co": {"Y": 1, "X": 122}, "interpolation": 0}, {"handle_type": 0, "handle_right": {"Y": 0, "X": 0.5}, "handle_left": {"Y": 1, "X": 0.5}, "co": {"Y": 0, "X": 194}, "interpolation": 0}]}, "crop_x": {"Points": [{"co": {"Y": 0, "X": 1}, "interpolation": 2}]}, "crop_height": {"Points": [{"co": {"Y": -1, "X": 1}, "interpolation": 2}]}, "display": 0, "file_id": "EWJO5LAFDV", "time": {"Points": [{"co": {"Y": 1, "X": 1}, "interpolation": 2}]}, "scale": 1, "has_video": {"Points": [{"co": {"Y": -1, "X": 1}, "interpolation": 2}]}, "perspective_c3_y": {"Points": [{"co": {"Y": -1, "X": 1}, "interpolation": 2}]}, "volume": {"Points": [{"co": {"Y": 1, "X": 1}, "interpolation": 2}]}, "shear_y": {"Points": [{"co": {"Y": 0, "X": 1}, "interpolation": 2}]}, "id": "NJGNQW33I6", "gravity": 4, "position": 189.49, "channel_mapping": {"Points": [{"co": {"Y": -1, "X": 1}, "interpolation": 2}]}, "perspective_c4_x": {"Points": [{"co": {"Y": -1, "X": 1}, "interpolation": 2}]}, "location_y": {"Points": [{"co": {"Y": 0, "X": 1}, "interpolation": 2}]}, "scale_x": {"Points": [{"co": {"Y": 1, "X": 1}, "interpolation": 2}]}, "location_x": {"Points": [{"co": {"Y": 0, "X": 1}, "interpolation": 2}]}, "layer": 2, "crop_width": {"Points": [{"co": {"Y": -1, "X": 1}, "interpolation": 2}]}, "perspective_c4_y": {"Points": [{"co": {"Y": -1, "X": 1}, "interpolation": 2}]}, "end": 8.04, "wave_color": {"alpha": {"Points": [{"handle_type": 0, "handle_right": {"Y": 0, "X": 0.5}, "handle_left": {"Y": 1, "X": 0.5}, "co": {"Y": 255, "X": 1}, "interpolation": 0}]}, "red": {"Points": [{"handle_type": 0, "handle_right": {"Y": 0, "X": 0.5}, "handle_left": {"Y": 1, "X": 0.5}, "co": {"Y": 0, "X": 1}, "interpolation": 0}]}, "blue": {"Points": [{"handle_type": 0, "handle_right": {"Y": 0, "X": 0.5}, "handle_left": {"Y": 1, "X": 0.5}, "co": {"Y": 255, "X": 1}, "interpolation": 0}]}, "green": {"Points": [{"handle_type": 0, "handle_right": {"Y": 0, "X": 0.5}, "handle_left": {"Y": 1, "X": 0.5}, "co": {"Y": 123, "X": 1}, "interpolation": 0}]}}, "perspective_c1_x": {"Points": [{"co": {"Y": -1, "X": 1}, "interpolation": 2}]}, "has_audio": {"Points": [{"co": {"Y": -1, "X": 1}, "interpolation": 2}]}, "anchor": 0, "waveform": false, "crop_y": {"Points": [{"co": {"Y": 0, "X": 1}, "interpolation": 2}]}, "scale_y": {"Points": [{"co": {"Y": 1, "X": 1}, "interpolation": 2}]}, "image": "../../../.openshot_qt/thumbnail/EWJO5LAFDV.png", "shear_x": {"Points": [{"co": {"Y": 0, "X": 1}, "interpolation": 2}]}, "perspective_c2_x": {"Points": [{"co": {"Y": -1, "X": 1}, "interpolation": 2}]}, "perspective_c1_y": {"Points": [{"co": {"Y": -1, "X": 1}, "interpolation": 2}]}, "perspective_c3_x": {"Points": [{"co": {"Y": -1, "X": 1}, "interpolation": 2}]}, "effects": [], "perspective_c2_y": {"Points": [{"co": {"Y": -1, "X": 1}, "interpolation": 2}]}, "duration": 86400.0}, {"channel_filter": {"Points": [{"co": {"Y": -1, "X": 1}, "interpolation": 2}]}, "start": 0, "rotation": {"Points": [{"co": {"Y": 0, "X": 1}, "interpolation": 2}]}, "title": "01-White-Background.svg", "reader": {"pixel_format": -1, "acodec": "", "video_bit_rate": 0, "interlaced_frame": false, "fps": {"num": 30, "den": 1}, "has_single_image": true, "sample_rate": 0, "video_stream_index": -1, "channel_layout": 4, "audio_timebase": {"num": 1, "den": 1}, "display_ratio": {"num": 16, "den": 9}, "audio_stream_index": -1, "channels": 0, "has_video": true, "has_audio": false, "type": "QtImageReader", "pixel_ratio": {"num": 1, "den": 1}, "top_field_first": true, "file_size": "8294400", "vcodec": "", "path": "Images/01-White-Background.svg", "width": 1920, "audio_bit_rate": 0, "height": 1080, "video_length": "2592000", "duration": 86400.0, "video_timebase": {"num": 1, "den": 30}}, "alpha": {"Points": [{"co": {"Y": 1, "X": 1}, "interpolation": 2}]}, "crop_x": {"Points": [{"co": {"Y": 0, "X": 1}, "interpolation": 2}]}, "crop_height": {"Points": [{"co": {"Y": -1, "X": 1}, "interpolation": 2}]}, "display": 0, "file_id": "TDIZ1HFAHG", "time": {"Points": [{"co": {"Y": 1, "X": 1}, "interpolation": 2}]}, "scale": 1, "has_video": {"Points": [{"co": {"Y": -1, "X": 1}, "interpolation": 2}]}, "perspective_c3_y": {"Points": [{"co": {"Y": -1, "X": 1}, "interpolation": 2}]}, "volume": {"Points": [{"co": {"Y": 1, "X": 1}, "interpolation": 2}]}, "shear_y": {"Points": [{"co": {"Y": 0, "X": 1}, "interpolation": 2}]}, "id": "IV5M2GGPCZ", "gravity": 4, "position": 234.3275, "channel_mapping": {"Points": [{"co": {"Y": -1, "X": 1}, "interpolation": 2}]}, "perspective_c4_x": {"Points": [{"co": {"Y": -1, "X": 1}, "interpolation": 2}]}, "location_y": {"Points": [{"co": {"Y": 0, "X": 1}, "interpolation": 2}]}, "scale_x": {"Points": [{"co": {"Y": 1, "X": 1}, "interpolation": 2}]}, "location_x": {"Points": [{"co": {"Y": 0, "X": 1}, "interpolation": 2}]}, "layer": 0, "crop_width": {"Points": [{"co": {"Y": -1, "X": 1}, "interpolation": 2}]}, "perspective_c4_y": {"Points": [{"co": {"Y": -1, "X": 1}, "interpolation": 2}]}, "end": 9.16, "wave_color": {"alpha": {"Points": [{"handle_type": 0, "handle_right": {"Y": 0, "X": 0.5}, "handle_left": {"Y": 1, "X": 0.5}, "co": {"Y": 255, "X": 1}, "interpolation": 0}]}, "red": {"Points": [{"handle_type": 0, "handle_right": {"Y": 0, "X": 0.5}, "handle_left": {"Y": 1, "X": 0.5}, "co": {"Y": 0, "X": 1}, "interpolation": 0}]}, "blue": {"Points": [{"handle_type": 0, "handle_right": {"Y": 0, "X": 0.5}, "handle_left": {"Y": 1, "X": 0.5}, "co": {"Y": 255, "X": 1}, "interpolation": 0}]}, "green": {"Points": [{"handle_type": 0, "handle_right": {"Y": 0, "X": 0.5}, "handle_left": {"Y": 1, "X": 0.5}, "co": {"Y": 123, "X": 1}, "interpolation": 0}]}}, "perspective_c1_x": {"Points": [{"co": {"Y": -1, "X": 1}, "interpolation": 2}]}, "has_audio": {"Points": [{"co": {"Y": -1, "X": 1}, "interpolation": 2}]}, "anchor": 0, "waveform": false, "crop_y": {"Points": [{"co": {"Y": 0, "X": 1}, "interpolation": 2}]}, "scale_y": {"Points": [{"co": {"Y": 1, "X": 1}, "interpolation": 2}]}, "image": "../../../.openshot_qt/thumbnail/TDIZ1HFAHG.png", "shear_x": {"Points": [{"co": {"Y": 0, "X": 1}, "interpolation": 2}]}, "perspective_c2_x": {"Points": [{"co": {"Y": -1, "X": 1}, "interpolation": 2}]}, "perspective_c1_y": {"Points": [{"co": {"Y": -1, "X": 1}, "interpolation": 2}]}, "perspective_c3_x": {"Points": [{"co": {"Y": -1, "X": 1}, "interpolation": 2}]}, "effects": [], "perspective_c2_y": {"Points": [{"co": {"Y": -1, "X": 1}, "interpolation": 2}]}, "duration": 86400.0}, {"channel_filter": {"Points": [{"co": {"Y": -1.0, "X": 1.0}, "interpolation": 2}]}, "start": 0, "rotation": {"Points": [{"co": {"Y": 0.0, "X": 1.0}, "interpolation": 2}]}, "title": "!011-Slide-We need only half page.svg", "perspective_c1_y": {"Points": [{"co": {"Y": -1.0, "X": 1.0}, "interpolation": 2}]}, "waveform": false, "alpha": {"Points": [{"co": {"Y": 1.0, "X": 1.0}, "interpolation": 2}, {"handle_type": 0, "handle_right": {"Y": 0.0, "X": 0.5}, "handle_left": {"Y": 1.0, "X": 0.5}, "co": {"Y": 0.0, "X": 1.0}, "interpolation": 0}, {"handle_type": 0, "handle_right": {"Y": 0.0, "X": 0.5}, "handle_left": {"Y": 1.0, "X": 0.5}, "co": {"Y": 1.0, "X": 73.0}, "interpolation": 0}, {"handle_type": 0, "handle_right": {"Y": 0.0, "X": 0.5}, "handle_left": {"Y": 1.0, "X": 0.5}, "co": {"Y": 1.0, "X": 49.0}, "interpolation": 0}, {"handle_type": 0, "handle_right": {"Y": 0.0, "X": 0.5}, "handle_left": {"Y": 1.0, "X": 0.5}, "co": {"Y": 0.0, "X": 121.0}, "interpolation": 0}]}, "crop_x": {"Points": [{"co": {"Y": 0.0, "X": 1.0}, "interpolation": 2}]}, "crop_height": {"Points": [{"co": {"Y": -1.0, "X": 1.0}, "interpolation": 2}]}, "location_y": {"Points": [{"co": {"Y": 0.0, "X": 1.0}, "interpolation": 2}]}, "time": {"Points": [{"co": {"Y": 1.0, "X": 1.0}, "interpolation": 2}]}, "scale": 1, "scale_x": {"Points": [{"co": {"Y": 1.0, "X": 1.0}, "interpolation": 2}]}, "perspective_c3_y": {"Points": [{"co": {"Y": -1.0, "X": 1.0}, "interpolation": 2}]}, "id": "1PAPVWKA7U", "volume": {"Points": [{"co": {"Y": 1.0, "X": 1.0}, "interpolation": 2}]}, "shear_y": {"Points": [{"co": {"Y": 0.0, "X": 1.0}, "interpolation": 2}]}, "effects": [], "gravity": 4, "position": 22.56, "channel_mapping": {"Points": [{"co": {"Y": -1.0, "X": 1.0}, "interpolation": 2}]}, "file_id": "7VACJ3VWTI", "display": 0, "has_video": {"Points": [{"co": {"Y": -1.0, "X": 1.0}, "interpolation": 2}]}, "reader": {"pixel_format": -1, "acodec": "", "audio_stream_index": -1, "interlaced_frame": false, "fps": {"num": 30, "den": 1}, "has_single_image": true, "width": 6803, "video_stream_index": -1, "channel_layout": 4, "audio_timebase": {"num": 1, "den": 1}, "display_ratio": {"num": 6803, "den": 3827}, "channels": 0, "has_video": true, "has_audio": false, "type": "QtImageReader", "pixel_ratio": {"num": 1, "den": 1}, "top_field_first": true, "file_size": "104140324", "vcodec": "", "sample_rate": 0, "path": "!011-Slide-We need only half page.svg", "video_bit_rate": 0, "audio_bit_rate": 0, "height": 3827, "video_length": "2592000", "duration": 86400.0, "video_timebase": {"num": 1, "den": 30}}, "layer": 2, "anchor": 0, "perspective_c4_y": {"Points": [{"co": {"Y": -1.0, "X": 1.0}, "interpolation": 2}]}, "end": 5, "wave_color": {"alpha": {"Points": [{"handle_type": 0, "handle_right": {"Y": 0.0, "X": 0.5}, "handle_left": {"Y": 1.0, "X": 0.5}, "co": {"Y": 255.0, "X": 1.0}, "interpolation": 0}]}, "red": {"Points": [{"handle_type": 0, "handle_right": {"Y": 0.0, "X": 0.5}, "handle_left": {"Y": 1.0, "X": 0.5}, "co": {"Y": 0.0, "X": 1.0}, "interpolation": 0}]}, "blue": {"Points": [{"handle_type": 0, "handle_right": {"Y": 0.0, "X": 0.5}, "handle_left": {"Y": 1.0, "X": 0.5}, "co": {"Y": 255.0, "X": 1.0}, "interpolation": 0}]}, "green": {"Points": [{"handle_type": 0, "handle_right": {"Y": 0.0, "X": 0.5}, "handle_left": {"Y": 1.0, "X": 0.5}, "co": {"Y": 123.0, "X": 1.0}, "interpolation": 0}]}}, "perspective_c1_x": {"Points": [{"co": {"Y": -1.0, "X": 1.0}, "interpolation": 2}]}, "has_audio": {"Points": [{"co": {"Y": -1.0, "X": 1.0}, "interpolation": 2}]}, "crop_width": {"Points": [{"co": {"Y": -1.0, "X": 1.0}, "interpolation": 2}]}, "crop_y": {"Points": [{"co": {"Y": 0.0, "X": 1.0}, "interpolation": 2}]}, "scale_y": {"Points": [{"co": {"Y": 1.0, "X": 1.0}, "interpolation": 2}]}, "location_x": {"Points": [{"co": {"Y": 0.0, "X": 1.0}, "interpolation": 2}]}, "shear_x": {"Points": [{"co": {"Y": 0.0, "X": 1.0}, "interpolation": 2}]}, "perspective_c2_x": {"Points": [{"co": {"Y": -1.0, "X": 1.0}, "interpolation": 2}]}, "perspective_c3_x": {"Points": [{"co": {"Y": -1.0, "X": 1.0}, "interpolation": 2}]}, "perspective_c4_x": {"Points": [{"co": {"Y": -1.0, "X": 1.0}, "interpolation": 2}]}, "perspective_c2_y": {"Points": [{"co": {"Y": -1.0, "X": 1.0}, "interpolation": 2}]}, "image": "../../../.openshot_qt/thumbnail/7VACJ3VWTI.png", "duration": 86400.0}, {"start": 0, "rotation": {"Points": [{"co": {"Y": 0, "X": 1}, "interpolation": 2}]}, "title": "!025-Create Progress Card Template.svg", "crop_x": {"Points": [{"co": {"Y": 0, "X": 1}, "interpolation": 2}]}, "time": {"Points": [{"co": {"Y": 1, "X": 1}, "interpolation": 2}]}, "perspective_c3_y": {"Points": [{"co": {"Y": -1, "X": 1}, "interpolation": 2}]}, "id": "WF13AK4DKD", "volume": {"Points": [{"co": {"Y": 1, "X": 1}, "interpolation": 2}]}, "shear_y": {"Points": [{"co": {"Y": 0, "X": 1}, "interpolation": 2}]}, "waveform": false, "has_video": {"Points": [{"co": {"Y": -1, "X": 1}, "interpolation": 2}]}, "layer": 3, "reader": {"pixel_format": -1, "acodec": "", "video_bit_rate": 0, "interlaced_frame": false, "fps": {"num": 30, "den": 1}, "has_single_image": true, "sample_rate": 0, "video_stream_index": -1, "channel_layout": 4, "audio_timebase": {"num": 1, "den": 1}, "file_size": "104140324", "audio_stream_index": -1, "channels": 0, "has_video": true, "path": "!025-Create Progress Card Template.svg", "type": "QtImageReader", "width": 6803, "top_field_first": true, "display_ratio": {"num": 6803, "den": 3827}, "vcodec": "", "has_audio": false, "pixel_ratio": {"num": 1, "den": 1}, "audio_bit_rate": 0, "height": 3827, "video_length": "2592000", "duration": 86400.0, "video_timebase": {"num": 1, "den": 30}}, "perspective_c4_y": {"Points": [{"co": {"Y": -1, "X": 1}, "interpolation": 2}]}, "perspective_c1_x": {"Points": [{"co": {"Y": -1, "X": 1}, "interpolation": 2}]}, "scale": 1, "has_audio": {"Points": [{"co": {"Y": -1, "X": 1}, "interpolation": 2}]}, "perspective_c2_x": {"Points": [{"co": {"Y": -1, "X": 1}, "interpolation": 2}]}, "perspective_c4_x": {"Points": [{"co": {"Y": -1, "X": 1}, "interpolation": 2}]}, "perspective_c2_y": {"Points": [{"co": {"Y": -1, "X": 1}, "interpolation": 2}]}, "duration": 86400.0, "channel_filter": {"Points": [{"co": {"Y": -1, "X": 1}, "interpolation": 2}]}, "channel_mapping": {"Points": [{"co": {"Y": -1, "X": 1}, "interpolation": 2}]}, "crop_width": {"Points": [{"co": {"Y": -1, "X": 1}, "interpolation": 2}]}, "alpha": {"Points": [{"co": {"Y": 1, "X": 1}, "interpolation": 2}, {"handle_type": 0, "handle_left": {"Y": 1, "X": 0.5}, "handle_right": {"Y": 0, "X": 0.5}, "co": {"Y": 0, "X": 1}, "interpolation": 0}, {"handle_type": 0, "handle_left": {"Y": 1, "X": 0.5}, "handle_right": {"Y": 0, "X": 0.5}, "co": {"Y": 1, "X": 73}, "interpolation": 0}, {"handle_type": 0, "handle_left": {"Y": 1, "X": 0.5}, "interpolation": 0, "co": {"Y": 1, "X": 49}, "handle_right": {"Y": 0, "X": 0.5}}, {"handle_type": 0, "handle_left": {"Y": 1, "X": 0.5}, "interpolation": 0, "co": {"Y": 0, "X": 121}, "handle_right": {"Y": 0, "X": 0.5}}]}, "crop_height": {"Points": [{"co": {"Y": -1, "X": 1}, "interpolation": 2}]}, "location_y": {"Points": [{"co": {"Y": 0, "X": 1}, "interpolation": 2}]}, "scale_x": {"Points": [{"co": {"Y": 1, "X": 1}, "interpolation": 2}]}, "effects": [], "gravity": 4, "position": 54.55, "file_id": "CQ9HLHMG6Y", "display": 0, "location_x": {"Points": [{"co": {"Y": 0, "X": 1}, "interpolation": 2}]}, "end": 5, "crop_y": {"Points": [{"co": {"Y": 0, "X": 1}, "interpolation": 2}]}, "anchor": 0, "wave_color": {"alpha": {"Points": [{"handle_type": 0, "handle_left": {"Y": 1, "X": 0.5}, "handle_right": {"Y": 0, "X": 0.5}, "co": {"Y": 255, "X": 1}, "interpolation": 0}]}, "red": {"Points": [{"handle_type": 0, "handle_left": {"Y": 1, "X": 0.5}, "handle_right": {"Y": 0, "X": 0.5}, "co": {"Y": 0, "X": 1}, "interpolation": 0}]}, "blue": {"Points": [{"handle_type": 0, "handle_left": {"Y": 1, "X": 0.5}, "handle_right": {"Y": 0, "X": 0.5}, "co": {"Y": 255, "X": 1}, "interpolation": 0}]}, "green": {"Points": [{"handle_type": 0, "handle_left": {"Y": 1, "X": 0.5}, "handle_right": {"Y": 0, "X": 0.5}, "co": {"Y": 123, "X": 1}, "interpolation": 0}]}}, "scale_y": {"Points": [{"co": {"Y": 1, "X": 1}, "interpolation": 2}]}, "shear_x": {"Points": [{"co": {"Y": 0, "X": 1}, "interpolation": 2}]}, "image": "../../../.openshot_qt/thumbnail/CQ9HLHMG6Y.png", "perspective_c1_y": {"Points": [{"co": {"Y": -1, "X": 1}, "interpolation": 2}]}, "perspective_c3_x": {"Points": [{"co": {"Y": -1, "X": 1}, "interpolation": 2}]}}, {"start": 0, "rotation": {"Points": [{"co": {"Y": 0, "X": 1}, "interpolation": 2}]}, "title": "!045-Slide-Sample Students Data.svg", "crop_x": {"Points": [{"co": {"Y": 0, "X": 1}, "interpolation": 2}]}, "time": {"Points": [{"co": {"Y": 1, "X": 1}, "interpolation": 2}]}, "perspective_c3_y": {"Points": [{"co": {"Y": -1, "X": 1}, "interpolation": 2}]}, "id": "2RP69Q8ZW7", "volume": {"Points": [{"co": {"Y": 1, "X": 1}, "interpolation": 2}]}, "shear_y": {"Points": [{"co": {"Y": 0, "X": 1}, "interpolation": 2}]}, "waveform": false, "has_video": {"Points": [{"co": {"Y": -1, "X": 1}, "interpolation": 2}]}, "layer": 2, "reader": {"pixel_format": -1, "acodec": "", "video_bit_rate": 0, "interlaced_frame": false, "fps": {"num": 30, "den": 1}, "has_single_image": true, "sample_rate": 0, "video_stream_index": -1, "channel_layout": 4, "audio_timebase": {"num": 1, "den": 1}, "video_timebase": {"num": 1, "den": 30}, "file_size": "104140324", "audio_stream_index": -1, "channels": 0, "has_video": true, "type": "QtImageReader", "width": 6803, "top_field_first": true, "display_ratio": {"num": 6803, "den": 3827}, "vcodec": "", "path": "!045-Slide-Sample Students Data.svg", "pixel_ratio": {"num": 1, "den": 1}, "audio_bit_rate": 0, "height": 3827, "video_length": "2592000", "duration": 86400.0, "has_audio": false}, "perspective_c4_y": {"Points": [{"co": {"Y": -1, "X": 1}, "interpolation": 2}]}, "perspective_c1_x": {"Points": [{"co": {"Y": -1, "X": 1}, "interpolation": 2}]}, "scale": 1, "has_audio": {"Points": [{"co": {"Y": -1, "X": 1}, "interpolation": 2}]}, "perspective_c2_x": {"Points": [{"co": {"Y": -1, "X": 1}, "interpolation": 2}]}, "perspective_c4_x": {"Points": [{"co": {"Y": -1, "X": 1}, "interpolation": 2}]}, "perspective_c2_y": {"Points": [{"co": {"Y": -1, "X": 1}, "interpolation": 2}]}, "duration": 86400.0, "channel_filter": {"Points": [{"co": {"Y": -1, "X": 1}, "interpolation": 2}]}, "channel_mapping": {"Points": [{"co": {"Y": -1, "X": 1}, "interpolation": 2}]}, "crop_width": {"Points": [{"co": {"Y": -1, "X": 1}, "interpolation": 2}]}, "alpha": {"Points": [{"co": {"Y": 1, "X": 1}, "interpolation": 2}, {"handle_type": 0, "handle_left": {"Y": 1, "X": 0.5}, "handle_right": {"Y": 0, "X": 0.5}, "co": {"Y": 0, "X": 1}, "interpolation": 0}, {"handle_type": 0, "handle_left": {"Y": 1, "X": 0.5}, "handle_right": {"Y": 0, "X": 0.5}, "co": {"Y": 1, "X": 73}, "interpolation": 0}, {"handle_type": 0, "handle_left": {"Y": 1, "X": 0.5}, "interpolation": 0, "co": {"Y": 1, "X": 49}, "handle_right": {"Y": 0, "X": 0.5}}, {"handle_type": 0, "handle_left": {"Y": 1, "X": 0.5}, "interpolation": 0, "co": {"Y": 0, "X": 121}, "handle_right": {"Y": 0, "X": 0.5}}]}, "crop_height": {"Points": [{"co": {"Y": -1, "X": 1}, "interpolation": 2}]}, "location_y": {"Points": [{"co": {"Y": 0, "X": 1}, "interpolation": 2}]}, "scale_x": {"Points": [{"co": {"Y": 1, "X": 1}, "interpolation": 2}]}, "effects": [], "gravity": 4, "position": 98.455, "file_id": "GOJEXTAQVD", "display": 0, "location_x": {"Points": [{"co": {"Y": 0, "X": 1}, "interpolation": 2}]}, "end": 5, "crop_y": {"Points": [{"co": {"Y": 0, "X": 1}, "interpolation": 2}]}, "anchor": 0, "wave_color": {"alpha": {"Points": [{"handle_type": 0, "handle_left": {"Y": 1, "X": 0.5}, "handle_right": {"Y": 0, "X": 0.5}, "co": {"Y": 255, "X": 1}, "interpolation": 0}]}, "red": {"Points": [{"handle_type": 0, "handle_left": {"Y": 1, "X": 0.5}, "handle_right": {"Y": 0, "X": 0.5}, "co": {"Y": 0, "X": 1}, "interpolation": 0}]}, "blue": {"Points": [{"handle_type": 0, "handle_left": {"Y": 1, "X": 0.5}, "handle_right": {"Y": 0, "X": 0.5}, "co": {"Y": 255, "X": 1}, "interpolation": 0}]}, "green": {"Points": [{"handle_type": 0, "handle_left": {"Y": 1, "X": 0.5}, "handle_right": {"Y": 0, "X": 0.5}, "co": {"Y": 123, "X": 1}, "interpolation": 0}]}}, "scale_y": {"Points": [{"co": {"Y": 1, "X": 1}, "interpolation": 2}]}, "shear_x": {"Points": [{"co": {"Y": 0, "X": 1}, "interpolation": 2}]}, "image": "../../../.openshot_qt/thumbnail/GOJEXTAQVD.png", "perspective_c1_y": {"Points": [{"co": {"Y": -1, "X": 1}, "interpolation": 2}]}, "perspective_c3_x": {"Points": [{"co": {"Y": -1, "X": 1}, "interpolation": 2}]}}, {"start": 0, "rotation": {"Points": [{"co": {"Y": 0, "X": 1}, "interpolation": 2}]}, "title": "!055-Calculate Total Marks.svg", "crop_x": {"Points": [{"co": {"Y": 0, "X": 1}, "interpolation": 2}]}, "time": {"Points": [{"co": {"Y": 1, "X": 1}, "interpolation": 2}]}, "perspective_c3_y": {"Points": [{"co": {"Y": -1, "X": 1}, "interpolation": 2}]}, "id": "6JUS8WD9VI", "volume": {"Points": [{"co": {"Y": 1, "X": 1}, "interpolation": 2}]}, "shear_y": {"Points": [{"co": {"Y": 0, "X": 1}, "interpolation": 2}]}, "waveform": false, "has_video": {"Points": [{"co": {"Y": -1, "X": 1}, "interpolation": 2}]}, "layer": 2, "reader": {"pixel_format": -1, "acodec": "", "video_bit_rate": 0, "interlaced_frame": false, "fps": {"num": 30, "den": 1}, "has_single_image": true, "sample_rate": 0, "video_stream_index": -1, "channel_layout": 4, "audio_timebase": {"num": 1, "den": 1}, "video_timebase": {"num": 1, "den": 30}, "file_size": "104140324", "audio_stream_index": -1, "channels": 0, "has_video": true, "type": "QtImageReader", "width": 6803, "top_field_first": true, "display_ratio": {"num": 6803, "den": 3827}, "vcodec": "", "path": "!055-Calculate Total Marks.svg", "pixel_ratio": {"num": 1, "den": 1}, "audio_bit_rate": 0, "height": 3827, "video_length": "2592000", "duration": 86400.0, "has_audio": false}, "perspective_c4_y": {"Points": [{"co": {"Y": -1, "X": 1}, "interpolation": 2}]}, "perspective_c1_x": {"Points": [{"co": {"Y": -1, "X": 1}, "interpolation": 2}]}, "scale": 1, "has_audio": {"Points": [{"co": {"Y": -1, "X": 1}, "interpolation": 2}]}, "perspective_c2_x": {"Points": [{"co": {"Y": -1, "X": 1}, "interpolation": 2}]}, "perspective_c4_x": {"Points": [{"co": {"Y": -1, "X": 1}, "interpolation": 2}]}, "perspective_c2_y": {"Points": [{"co": {"Y": -1, "X": 1}, "interpolation": 2}]}, "duration": 86400.0, "channel_filter": {"Points": [{"co": {"Y": -1, "X": 1}, "interpolation": 2}]}, "channel_mapping": {"Points": [{"co": {"Y": -1, "X": 1}, "interpolation": 2}]}, "crop_width": {"Points": [{"co": {"Y": -1, "X": 1}, "interpolation": 2}]}, "alpha": {"Points": [{"co": {"Y": 1, "X": 1}, "interpolation": 2}, {"handle_type": 0, "handle_left": {"Y": 1, "X": 0.5}, "handle_right": {"Y": 0, "X": 0.5}, "co": {"Y": 0, "X": 1}, "interpolation": 0}, {"handle_type": 0, "handle_left": {"Y": 1, "X": 0.5}, "handle_right": {"Y": 0, "X": 0.5}, "co": {"Y": 1, "X": 73}, "interpolation": 0}, {"handle_type": 0, "handle_left": {"Y": 1, "X": 0.5}, "interpolation": 0, "co": {"Y": 1, "X": 49}, "handle_right": {"Y": 0, "X": 0.5}}, {"handle_type": 0, "handle_left": {"Y": 1, "X": 0.5}, "interpolation": 0, "co": {"Y": 0, "X": 121}, "handle_right": {"Y": 0, "X": 0.5}}]}, "crop_height": {"Points": [{"co": {"Y": -1, "X": 1}, "interpolation": 2}]}, "location_y": {"Points": [{"co": {"Y": 0, "X": 1}, "interpolation": 2}]}, "scale_x": {"Points": [{"co": {"Y": 1, "X": 1}, "interpolation": 2}]}, "effects": [], "gravity": 4, "position": 144.155, "file_id": "4N4GFJVUAX", "display": 0, "location_x": {"Points": [{"co": {"Y": 0, "X": 1}, "interpolation": 2}]}, "end": 5, "crop_y": {"Points": [{"co": {"Y": 0, "X": 1}, "interpolation": 2}]}, "anchor": 0, "wave_color": {"alpha": {"Points": [{"handle_type": 0, "handle_left": {"Y": 1, "X": 0.5}, "handle_right": {"Y": 0, "X": 0.5}, "co": {"Y": 255, "X": 1}, "interpolation": 0}]}, "red": {"Points": [{"handle_type": 0, "handle_left": {"Y": 1, "X": 0.5}, "handle_right": {"Y": 0, "X": 0.5}, "co": {"Y": 0, "X": 1}, "interpolation": 0}]}, "blue": {"Points": [{"handle_type": 0, "handle_left": {"Y": 1, "X": 0.5}, "handle_right": {"Y": 0, "X": 0.5}, "co": {"Y": 255, "X": 1}, "interpolation": 0}]}, "green": {"Points": [{"handle_type": 0, "handle_left": {"Y": 1, "X": 0.5}, "handle_right": {"Y": 0, "X": 0.5}, "co": {"Y": 123, "X": 1}, "interpolation": 0}]}}, "scale_y": {"Points": [{"co": {"Y": 1, "X": 1}, "interpolation": 2}]}, "shear_x": {"Points": [{"co": {"Y": 0, "X": 1}, "interpolation": 2}]}, "image": "../../../.openshot_qt/thumbnail/4N4GFJVUAX.png", "perspective_c1_y": {"Points": [{"co": {"Y": -1, "X": 1}, "interpolation": 2}]}, "perspective_c3_x": {"Points": [{"co": {"Y": -1, "X": 1}, "interpolation": 2}]}}], "sample_rate": 44100, "markers": [{"icon": "blue.png", "position": 98.91666666666667, "id": "7NJNQLUH6G"}, {"icon": "blue.png", "position": 107.70833333333333, "id": "Z18VX4XRKZ"}, {"icon": "blue.png", "position": 107.70833333333333, "id": "I6WACFQFKV"}, {"icon": "blue.png", "position": 65.25, "id": "UKJ90ZSG4X"}, {"icon": "blue.png", "position": 61.666666666666664, "id": "LRW062HAU8"}, {"icon": "blue.png", "position": 69.20833333333333, "id": "D7UE38F00Z"}, {"icon": "blue.png", "position": 67.5, "id": "9HHPMXIK78"}, {"icon": "blue.png", "position": 130.33333333333334, "id": "52W5C4KKJN"}, {"icon": "blue.png", "position": 173.91666666666666, "id": "RMY22S3D3Q"}, {"icon": "blue.png", "position": 179.79166666666666, "id": "JTDT0NL168"}, {"icon": "blue.png", "position": 267.5416666666667, "id": "J2CJ0HIUQN"}, {"icon": "blue.png", "position": 36.375, "id": "ERRLX25C24"}, {"icon": "blue.png", "position": 33.125, "id": "ATMZ1JLPSV"}, {"icon": "blue.png", "position": 49.5, "id": "OSAUKY9526"}, {"icon": "blue.png", "position": 86.375, "id": "IYHSFULCTL"}, {"icon": "blue.png", "position": 93.33333333333333, "id": "DIYTQIRDJT"}, {"icon": "blue.png", "position": 81.16666666666667, "id": "Y6LG4WDQQ0"}, {"icon": "blue.png", "position": 91.41666666666667, "id": "ELAXCXGVS2"}, {"icon": "blue.png", "position": 199.04166666666666, "id": "B4O5J1QW7J"}], "tick_pixels": 100, "layers": [{"label": "", "y": 0, "lock": false, "id": "L0", "number": 0}, {"label": "", "y": 0, "lock": false, "id": "L1", "number": 1}, {"label": "", "y": 0, "lock": false, "id": "L2", "number": 2}, {"label": "", "y": 0, "lock": false, "id": "L3", "number": 3}, {"label": "", "y": 0, "lock": false, "id": "L4", "number": 4}], "duration": 395.8, "export_path": ""}