{"playhead_position": 0, "duration": 574.625, "history": {"redo": [], "undo": [{"partial": false, "type": "insert", "value": {"video_stream_index": -1, "video_length": "2592000", "interlaced_frame": false, "audio_bit_rate": 0, "audio_timebase": {"den": 1, "num": 1}, "duration": 86400, "channels": 0, "video_bit_rate": 0, "id": "U4HEYX76VH", "channel_layout": 4, "path": "/home/milind/Data/Projects/ProgressCard/!145-PROMOTED.svg", "has_audio": false, "video_timebase": {"den": 30, "num": 1}, "has_single_image": true, "acodec": "", "media_type": "image", "has_video": true, "display_ratio": {"den": 3827, "num": 6803}, "audio_stream_index": -1, "type": "QtImageReader", "top_field_first": true, "width": 6803, "pixel_ratio": {"den": 1, "num": 1}, "height": 3827, "vcodec": "", "file_size": "104140324", "sample_rate": 0, "fps": {"den": 1, "num": 30}, "pixel_format": -1}, "old_values": [{"video_stream_index": -1, "video_length": "2592000", "interlaced_frame": false, "audio_bit_rate": 0, "audio_timebase": {"den": 1, "num": 1}, "vcodec": "", "channels": 0, "has_video": true, "id": "0F0RWXSQM9", "channel_layout": 4, "has_audio": false, "video_timebase": {"den": 30, "num": 1}, "has_single_image": true, "acodec": "", "width": 1920, "video_bit_rate": 0, "display_ratio": {"den": 9, "num": 16}, "audio_stream_index": -1, "type": "QtImageReader", "top_field_first": true, "media_type": "image", "pixel_ratio": {"den": 1, "num": 1}, "height": 1080, "duration": 86400.0, "file_size": "8294400", "path": "/home/milind/Data/Projects/ProgressCard/!000-White-Background.svg", "fps": {"den": 1, "num": 30}, "pixel_format": -1, "sample_rate": 0}, {"video_stream_index": 0, "video_length": "3650", "interlaced_frame": false, "audio_bit_rate": 0, "audio_timebase": {"den": 1, "num": 1}, "vcodec": "h264", "channels": 0, "has_video": true, "id": "O1AEGRKDWZ", "channel_layout": 4, "has_audio": false, "video_timebase": {"den": 1000, "num": 1}, "has_single_image": false, "acodec": "", "width": 1300, "video_bit_rate": 0, "display_ratio": {"den": 186, "num": 325}, "audio_stream_index": -1, "type": "FFmpegReader", "top_field_first": true, "media_type": "video", "pixel_ratio": {"den": 1, "num": 1}, "height": 744, "duration": 146.0, "file_size": "1130835", "path": "/home/milind/Data/Projects/ProgressCard/!080-GT,GC,TC.mkv", "fps": {"den": 1, "num": 25}, "pixel_format": 0, "sample_rate": 0}, {"video_stream_index": 0, "video_length": "2575", "interlaced_frame": false, "audio_bit_rate": 0, "audio_timebase": {"den": 1, "num": 1}, "vcodec": "h264", "channels": 0, "has_video": true, "id": "XBE2IATTEN", "channel_layout": 4, "has_audio": false, "video_timebase": {"den": 1000, "num": 1}, "has_single_image": false, "acodec": "", "width": 1300, "video_bit_rate": 0, "display_ratio": {"den": 186, "num": 325}, "audio_stream_index": -1, "type": "FFmpegReader", "top_field_first": true, "media_type": "video", "pixel_ratio": {"den": 1, "num": 1}, "height": 744, "duration": 103.0, "file_size": "822519", "path": "/home/milind/Data/Projects/ProgressCard/!090-Remark - PASS or FAIL.mkv", "fps": {"den": 1, "num": 25}, "pixel_format": 0, "sample_rate": 0}, {"video_stream_index": 0, "video_length": "925", "interlaced_frame": false, "audio_bit_rate": 0, "audio_timebase": {"den": 1, "num": 1}, "vcodec": "h264", "channels": 0, "has_video": true, "id": "Z4YCYRY34O", "channel_layout": 4, "has_audio": false, "video_timebase": {"den": 1000, "num": 1}, "has_single_image": false, "acodec": "", "width": 1300, "video_bit_rate": 0, "display_ratio": {"den": 186, "num": 325}, "audio_stream_index": -1, "type": "FFmpegReader", "top_field_first": true, "media_type": "video", "pixel_ratio": {"den": 1, "num": 1}, "height": 744, "duration": 37.0, "file_size": "281401", "path": "/home/milind/Data/Projects/ProgressCard/!100-Average Marks.mkv", "fps": {"den": 1, "num": 25}, "pixel_format": 0, "sample_rate": 0}, {"video_stream_index": 0, "video_length": "500", "interlaced_frame": false, "audio_bit_rate": 0, "audio_timebase": {"den": 1, "num": 1}, "vcodec": "h264", "channels": 0, "has_video": true, "id": "A5ENU0DW4J", "channel_layout": 4, "has_audio": false, "video_timebase": {"den": 1000, "num": 1}, "has_single_image": false, "acodec": "", "width": 1300, "video_bit_rate": 0, "display_ratio": {"den": 186, "num": 325}, "audio_stream_index": -1, "type": "FFmpegReader", "top_field_first": true, "media_type": "video", "pixel_ratio": {"den": 1, "num": 1}, "height": 744, "duration": 20.0, "file_size": "204468", "path": "/home/milind/Data/Projects/ProgressCard/!110-Float Format Dialog.mkv", "fps": {"den": 1, "num": 25}, "pixel_format": 0, "sample_rate": 0}, {"video_stream_index": 0, "video_length": "375", "interlaced_frame": false, "audio_bit_rate": 0, "audio_timebase": {"den": 1, "num": 1}, "vcodec": "h264", "channels": 0, "has_video": true, "id": "UGJYEMW42F", "channel_layout": 4, "has_audio": false, "video_timebase": {"den": 1000, "num": 1}, "has_single_image": false, "acodec": "", "width": 1300, "video_bit_rate": 0, "display_ratio": {"den": 186, "num": 325}, "audio_stream_index": -1, "type": "FFmpegReader", "top_field_first": true, "media_type": "video", "pixel_ratio": {"den": 1, "num": 1}, "height": 744, "duration": 15.0, "file_size": "187523", "path": "/home/milind/Data/Projects/ProgressCard/!120-Two Decimal Format.mkv", "fps": {"den": 1, "num": 25}, "pixel_format": 0, "sample_rate": 0}, {"video_stream_index": 0, "video_length": "4525", "interlaced_frame": false, "audio_bit_rate": 0, "audio_timebase": {"den": 1, "num": 1}, "vcodec": "h264", "channels": 0, "has_video": true, "id": "616P05WPS9", "channel_layout": 4, "has_audio": false, "video_timebase": {"den": 1000, "num": 1}, "has_single_image": false, "acodec": "", "width": 1300, "video_bit_rate": 0, "display_ratio": {"den": 186, "num": 325}, "audio_stream_index": -1, "type": "FFmpegReader", "top_field_first": true, "media_type": "video", "pixel_ratio": {"den": 1, "num": 1}, "height": 744, "duration": 181.0, "file_size": "1502027", "path": "/home/milind/Data/Projects/ProgressCard/!140-Grade Formula.mkv", "fps": {"den": 1, "num": 25}, "pixel_format": 0, "sample_rate": 0}, {"video_stream_index": 0, "video_length": "725", "interlaced_frame": false, "audio_bit_rate": 0, "audio_timebase": {"den": 1, "num": 1}, "vcodec": "h264", "channels": 0, "has_video": true, "id": "2202V21TTZ", "channel_layout": 4, "has_audio": false, "video_timebase": {"den": 1000, "num": 1}, "has_single_image": false, "acodec": "", "width": 1300, "video_bit_rate": 0, "display_ratio": {"den": 186, "num": 325}, "audio_stream_index": -1, "type": "FFmpegReader", "top_field_first": true, "media_type": "video", "pixel_ratio": {"den": 1, "num": 1}, "height": 744, "duration": 29.0, "file_size": "293155", "path": "/home/milind/Data/Projects/ProgressCard/!130-Copy Average.mkv", "fps": {"den": 1, "num": 25}, "pixel_format": 0, "sample_rate": 0}, {"video_stream_index": 0, "video_length": "1575", "interlaced_frame": false, "audio_bit_rate": 0, "audio_timebase": {"den": 1, "num": 1}, "vcodec": "h264", "channels": 0, "has_video": true, "id": "MJ87OKNJXE", "channel_layout": 4, "has_audio": false, "video_timebase": {"den": 1000, "num": 1}, "has_single_image": false, "acodec": "", "width": 1300, "video_bit_rate": 62654, "display_ratio": {"den": 186, "num": 325}, "audio_stream_index": -1, "type": "FFmpegReader", "top_field_first": true, "media_type": "video", "pixel_ratio": {"den": 1, "num": 1}, "height": 744, "duration": 63, "file_size": "499047", "path": "/home/milind/Data/Projects/ProgressCard/!150-Inserted GRADE in REMARK.mkv", "fps": {"den": 1, "num": 25}, "pixel_format": 0, "sample_rate": 0}, {"video_stream_index": -1, "video_length": "2592000", "interlaced_frame": false, "audio_bit_rate": 0, "audio_timebase": {"den": 1, "num": 1}, "vcodec": "", "channels": 0, "has_video": true, "id": "O28Z229VIU", "channel_layout": 4, "has_audio": false, "video_timebase": {"den": 30, "num": 1}, "has_single_image": true, "acodec": "", "width": 6803, "video_bit_rate": 0, "display_ratio": {"den": 3827, "num": 6803}, "audio_stream_index": -1, "type": "QtImageReader", "top_field_first": true, "media_type": "image", "pixel_ratio": {"den": 1, "num": 1}, "height": 3827, "duration": 86400, "file_size": "104140324", "path": "/home/milind/Data/Projects/ProgressCard/!072-Grace Total.svg", "fps": {"den": 1, "num": 30}, "pixel_format": -1, "sample_rate": 0}, {"video_stream_index": -1, "video_length": "2592000", "interlaced_frame": false, "audio_bit_rate": 0, "audio_timebase": {"den": 1, "num": 1}, "vcodec": "", "channels": 0, "has_video": true, "id": "BUXZX40N2J", "channel_layout": 4, "has_audio": false, "video_timebase": {"den": 30, "num": 1}, "has_single_image": true, "acodec": "", "width": 6803, "video_bit_rate": 0, "display_ratio": {"den": 3827, "num": 6803}, "audio_stream_index": -1, "type": "QtImageReader", "top_field_first": true, "media_type": "image", "pixel_ratio": {"den": 1, "num": 1}, "height": 3827, "duration": 86400, "file_size": "104140324", "path": "/home/milind/Data/Projects/ProgressCard/!073-Graced Subject Count.svg", "fps": {"den": 1, "num": 30}, "pixel_format": -1, "sample_rate": 0}, {"video_stream_index": -1, "video_length": "2592000", "interlaced_frame": false, "audio_bit_rate": 0, "audio_timebase": {"den": 1, "num": 1}, "vcodec": "", "channels": 0, "has_video": true, "id": "MZ4ILBST6I", "channel_layout": 4, "has_audio": false, "video_timebase": {"den": 30, "num": 1}, "has_single_image": true, "acodec": "", "width": 6803, "video_bit_rate": 0, "display_ratio": {"den": 3827, "num": 6803}, "audio_stream_index": -1, "type": "QtImageReader", "top_field_first": true, "media_type": "image", "pixel_ratio": {"den": 1, "num": 1}, "height": 3827, "duration": 86400, "file_size": "104140324", "path": "/home/milind/Data/Projects/ProgressCard/!074-Grace Greater Than 10.svg", "fps": {"den": 1, "num": 30}, "pixel_format": -1, "sample_rate": 0}, {"video_stream_index": -1, "video_length": "2592000", "interlaced_frame": false, "audio_bit_rate": 0, "audio_timebase": {"den": 1, "num": 1}, "vcodec": "", "channels": 0, "has_video": true, "id": "55LKUBO9MG", "channel_layout": 4, "has_audio": false, "video_timebase": {"den": 30, "num": 1}, "has_single_image": true, "acodec": "", "width": 6803, "video_bit_rate": 0, "display_ratio": {"den": 3827, "num": 6803}, "audio_stream_index": -1, "type": "QtImageReader", "top_field_first": true, "media_type": "image", "pixel_ratio": {"den": 1, "num": 1}, "height": 3827, "duration": 86400, "file_size": "104140324", "path": "/home/milind/Data/Projects/ProgressCard/!001-Copy (Ctrl-C).svg", "fps": {"den": 1, "num": 30}, "pixel_format": -1, "sample_rate": 0}, {"video_stream_index": -1, "video_length": "2592000", "interlaced_frame": false, "audio_bit_rate": 0, "audio_timebase": {"den": 1, "num": 1}, "vcodec": "", "channels": 0, "has_video": true, "id": "JP5L750RMR", "channel_layout": 4, "has_audio": false, "video_timebase": {"den": 30, "num": 1}, "has_single_image": true, "acodec": "", "width": 6803, "video_bit_rate": 0, "display_ratio": {"den": 3827, "num": 6803}, "audio_stream_index": -1, "type": "QtImageReader", "top_field_first": true, "media_type": "image", "pixel_ratio": {"den": 1, "num": 1}, "height": 3827, "duration": 86400, "file_size": "104140324", "path": "/home/milind/Data/Projects/ProgressCard/!002-Paste (Ctrl-V).svg", "fps": {"den": 1, "num": 30}, "pixel_format": -1, "sample_rate": 0}, {"video_stream_index": -1, "video_length": "2592000", "interlaced_frame": false, "audio_bit_rate": 0, "audio_timebase": {"den": 1, "num": 1}, "vcodec": "", "channels": 0, "has_video": true, "id": "9MDVH2JM9J", "channel_layout": 4, "has_audio": false, "video_timebase": {"den": 30, "num": 1}, "has_single_image": true, "acodec": "", "width": 6803, "video_bit_rate": 0, "display_ratio": {"den": 3827, "num": 6803}, "audio_stream_index": -1, "type": "QtImageReader", "top_field_first": true, "media_type": "image", "pixel_ratio": {"den": 1, "num": 1}, "height": 3827, "duration": 86400, "file_size": "104140324", "path": "/home/milind/Data/Projects/ProgressCard/!085-Pass or Fail.svg", "fps": {"den": 1, "num": 30}, "pixel_format": -1, "sample_rate": 0}, {"video_stream_index": -1, "video_length": "2592000", "interlaced_frame": false, "audio_bit_rate": 0, "audio_timebase": {"den": 1, "num": 1}, "vcodec": "", "channels": 0, "has_video": true, "id": "DIHETX3WQ7", "channel_layout": 4, "has_audio": false, "video_timebase": {"den": 30, "num": 1}, "has_single_image": true, "acodec": "", "width": 6803, "video_bit_rate": 0, "display_ratio": {"den": 3827, "num": 6803}, "audio_stream_index": -1, "type": "QtImageReader", "top_field_first": true, "media_type": "image", "pixel_ratio": {"den": 1, "num": 1}, "height": 3827, "duration": 86400, "file_size": "104140324", "path": "/home/milind/Data/Projects/ProgressCard/!086-IF GT,GC,TC.svg", "fps": {"den": 1, "num": 30}, "pixel_format": -1, "sample_rate": 0}, {"video_stream_index": -1, "video_length": "2592000", "interlaced_frame": false, "audio_bit_rate": 0, "audio_timebase": {"den": 1, "num": 1}, "vcodec": "", "channels": 0, "has_video": true, "id": "1QJRY2QLTK", "channel_layout": 4, "has_audio": false, "video_timebase": {"den": 30, "num": 1}, "has_single_image": true, "acodec": "", "width": 6803, "video_bit_rate": 0, "display_ratio": {"den": 3827, "num": 6803}, "audio_stream_index": -1, "type": "QtImageReader", "top_field_first": true, "media_type": "image", "pixel_ratio": {"den": 1, "num": 1}, "height": 3827, "duration": 86400, "file_size": "104140324", "path": "/home/milind/Data/Projects/ProgressCard/!105-Average.svg", "fps": {"den": 1, "num": 30}, "pixel_format": -1, "sample_rate": 0}, {"video_stream_index": -1, "video_length": "2592000", "interlaced_frame": false, "audio_bit_rate": 0, "audio_timebase": {"den": 1, "num": 1}, "vcodec": "", "channels": 0, "has_video": true, "id": "LKFVWV6XVE", "channel_layout": 4, "has_audio": false, "video_timebase": {"den": 30, "num": 1}, "has_single_image": true, "acodec": "", "width": 6803, "video_bit_rate": 0, "display_ratio": {"den": 3827, "num": 6803}, "audio_stream_index": -1, "type": "QtImageReader", "top_field_first": true, "media_type": "image", "pixel_ratio": {"den": 1, "num": 1}, "height": 3827, "duration": 86400, "file_size": "104140324", "path": "/home/milind/Data/Projects/ProgressCard/!113-Menu-Format-Cells.svg", "fps": {"den": 1, "num": 30}, "pixel_format": -1, "sample_rate": 0}, {"video_stream_index": -1, "video_length": "2592000", "interlaced_frame": false, "audio_bit_rate": 0, "audio_timebase": {"den": 1, "num": 1}, "vcodec": "", "channels": 0, "has_video": true, "id": "GS94V0HQUR", "channel_layout": 4, "has_audio": false, "video_timebase": {"den": 30, "num": 1}, "has_single_image": true, "acodec": "", "width": 6803, "video_bit_rate": 0, "display_ratio": {"den": 3827, "num": 6803}, "audio_stream_index": -1, "type": "QtImageReader", "top_field_first": true, "media_type": "image", "pixel_ratio": {"den": 1, "num": 1}, "height": 3827, "duration": 86400, "file_size": "104140324", "path": "/home/milind/Data/Projects/ProgressCard/!114-We need only 2 decimal places.svg", "fps": {"den": 1, "num": 30}, "pixel_format": -1, "sample_rate": 0}, {"video_stream_index": -1, "top_field_first": true, "interlaced_frame": false, "audio_bit_rate": 0, "audio_timebase": {"den": 1, "num": 1}, "duration": 86400, "channels": 0, "has_video": true, "id": "BS7QREURZM", "channel_layout": 4, "has_audio": false, "video_timebase": {"den": 30, "num": 1}, "has_single_image": true, "acodec": "", "width": 6803, "video_bit_rate": 0, "display_ratio": {"den": 3827, "num": 6803}, "audio_stream_index": -1, "type": "QtImageReader", "video_length": "2592000", "media_type": "image", "pixel_ratio": {"den": 1, "num": 1}, "height": 3827, "vcodec": "", "file_size": "104140324", "path": "/home/milind/Data/Projects/ProgressCard/!086-Then Fail Else Pass.svg", "fps": {"den": 1, "num": 30}, "pixel_format": -1, "sample_rate": 0}, {"video_stream_index": -1, "top_field_first": true, "interlaced_frame": false, "audio_bit_rate": 0, "audio_timebase": {"den": 1, "num": 1}, "duration": 86400, "channels": 0, "has_video": true, "id": "AA811BEMSM", "channel_layout": 4, "has_audio": false, "video_timebase": {"den": 30, "num": 1}, "has_single_image": true, "acodec": "", "width": 6803, "video_bit_rate": 0, "display_ratio": {"den": 3827, "num": 6803}, "audio_stream_index": -1, "type": "QtImageReader", "video_length": "2592000", "media_type": "image", "pixel_ratio": {"den": 1, "num": 1}, "height": 3827, "vcodec": "", "file_size": "104140324", "path": "/home/milind/Data/Projects/ProgressCard/!135-Grade.svg", "fps": {"den": 1, "num": 30}, "pixel_format": -1, "sample_rate": 0}, {"video_stream_index": -1, "top_field_first": true, "interlaced_frame": false, "audio_bit_rate": 0, "audio_timebase": {"den": 1, "num": 1}, "duration": 86400, "channels": 0, "has_video": true, "id": "M6T9ROM582", "channel_layout": 4, "has_audio": false, "video_timebase": {"den": 30, "num": 1}, "has_single_image": true, "acodec": "", "width": 6803, "video_bit_rate": 0, "display_ratio": {"den": 3827, "num": 6803}, "audio_stream_index": -1, "type": "QtImageReader", "video_length": "2592000", "media_type": "image", "pixel_ratio": {"den": 1, "num": 1}, "height": 3827, "vcodec": "", "file_size": "104140324", "path": "/home/milind/Data/Projects/ProgressCard/!145-4 If's - 4 Braces.svg", "fps": {"den": 1, "num": 30}, "pixel_format": -1, "sample_rate": 0}, {"video_stream_index": -1, "top_field_first": true, "interlaced_frame": false, "audio_bit_rate": 0, "audio_timebase": {"den": 1, "num": 1}, "duration": 86400, "channels": 0, "has_video": true, "id": "BWOLHCX3NY", "channel_layout": 4, "has_audio": false, "video_timebase": {"den": 30, "num": 1}, "has_single_image": true, "acodec": "", "width": 6803, "video_bit_rate": 0, "display_ratio": {"den": 3827, "num": 6803}, "audio_stream_index": -1, "type": "QtImageReader", "video_length": "2592000", "media_type": "image", "pixel_ratio": {"den": 1, "num": 1}, "height": 3827, "vcodec": "", "file_size": "104140324", "path": "/home/milind/Data/Projects/ProgressCard/!145-DISTINCTION.svg", "fps": {"den": 1, "num": 30}, "pixel_format": -1, "sample_rate": 0}, {"video_stream_index": -1, "top_field_first": true, "interlaced_frame": false, "audio_bit_rate": 0, "audio_timebase": {"den": 1, "num": 1}, "duration": 86400, "channels": 0, "has_video": true, "id": "QURFA8ZYYH", "channel_layout": 4, "has_audio": false, "video_timebase": {"den": 30, "num": 1}, "has_single_image": true, "acodec": "", "width": 6803, "video_bit_rate": 0, "display_ratio": {"den": 3827, "num": 6803}, "audio_stream_index": -1, "type": "QtImageReader", "video_length": "2592000", "media_type": "image", "pixel_ratio": {"den": 1, "num": 1}, "height": 3827, "vcodec": "", "file_size": "104140324", "path": "/home/milind/Data/Projects/ProgressCard/!145-FIRST CLASS.svg", "fps": {"den": 1, "num": 30}, "pixel_format": -1, "sample_rate": 0}, {"video_stream_index": -1, "top_field_first": true, "interlaced_frame": false, "audio_bit_rate": 0, "audio_timebase": {"den": 1, "num": 1}, "duration": 86400, "channels": 0, "has_video": true, "id": "QKE4L0GUDK", "channel_layout": 4, "has_audio": false, "video_timebase": {"den": 30, "num": 1}, "has_single_image": true, "acodec": "", "width": 6803, "video_bit_rate": 0, "display_ratio": {"den": 3827, "num": 6803}, "audio_stream_index": -1, "type": "QtImageReader", "video_length": "2592000", "media_type": "image", "pixel_ratio": {"den": 1, "num": 1}, "height": 3827, "vcodec": "", "file_size": "104140324", "path": "/home/milind/Data/Projects/ProgressCard/!145-PASS CLASS.svg", "fps": {"den": 1, "num": 30}, "pixel_format": -1, "sample_rate": 0}], "key": ["files"]}, {"partial": false, "type": "insert", "value": {"video_stream_index": -1, "video_length": "2592000", "interlaced_frame": false, "audio_bit_rate": 0, "audio_timebase": {"den": 1, "num": 1}, "duration": 86400, "channels": 0, "video_bit_rate": 0, "id": "B8NAT6SOHT", "channel_layout": 4, "path": "/home/milind/Data/Projects/ProgressCard/!145-SECOND CLASS.svg", "has_audio": false, "video_timebase": {"den": 30, "num": 1}, "has_single_image": true, "acodec": "", "media_type": "image", "has_video": true, "display_ratio": {"den": 3827, "num": 6803}, "audio_stream_index": -1, "type": "QtImageReader", "top_field_first": true, "width": 6803, "pixel_ratio": {"den": 1, "num": 1}, "height": 3827, "vcodec": "", "file_size": "104140324", "sample_rate": 0, "fps": {"den": 1, "num": 30}, "pixel_format": -1}, "old_values": [{"video_stream_index": -1, "video_length": "2592000", "interlaced_frame": false, "audio_bit_rate": 0, "audio_timebase": {"den": 1, "num": 1}, "vcodec": "", "channels": 0, "has_video": true, "id": "0F0RWXSQM9", "channel_layout": 4, "has_audio": false, "video_timebase": {"den": 30, "num": 1}, "has_single_image": true, "acodec": "", "width": 1920, "video_bit_rate": 0, "display_ratio": {"den": 9, "num": 16}, "audio_stream_index": -1, "type": "QtImageReader", "top_field_first": true, "media_type": "image", "pixel_ratio": {"den": 1, "num": 1}, "height": 1080, "duration": 86400.0, "file_size": "8294400", "path": "/home/milind/Data/Projects/ProgressCard/!000-White-Background.svg", "fps": {"den": 1, "num": 30}, "pixel_format": -1, "sample_rate": 0}, {"video_stream_index": 0, "video_length": "3650", "interlaced_frame": false, "audio_bit_rate": 0, "audio_timebase": {"den": 1, "num": 1}, "vcodec": "h264", "channels": 0, "has_video": true, "id": "O1AEGRKDWZ", "channel_layout": 4, "has_audio": false, "video_timebase": {"den": 1000, "num": 1}, "has_single_image": false, "acodec": "", "width": 1300, "video_bit_rate": 0, "display_ratio": {"den": 186, "num": 325}, "audio_stream_index": -1, "type": "FFmpegReader", "top_field_first": true, "media_type": "video", "pixel_ratio": {"den": 1, "num": 1}, "height": 744, "duration": 146.0, "file_size": "1130835", "path": "/home/milind/Data/Projects/ProgressCard/!080-GT,GC,TC.mkv", "fps": {"den": 1, "num": 25}, "pixel_format": 0, "sample_rate": 0}, {"video_stream_index": 0, "video_length": "2575", "interlaced_frame": false, "audio_bit_rate": 0, "audio_timebase": {"den": 1, "num": 1}, "vcodec": "h264", "channels": 0, "has_video": true, "id": "XBE2IATTEN", "channel_layout": 4, "has_audio": false, "video_timebase": {"den": 1000, "num": 1}, "has_single_image": false, "acodec": "", "width": 1300, "video_bit_rate": 0, "display_ratio": {"den": 186, "num": 325}, "audio_stream_index": -1, "type": "FFmpegReader", "top_field_first": true, "media_type": "video", "pixel_ratio": {"den": 1, "num": 1}, "height": 744, "duration": 103.0, "file_size": "822519", "path": "/home/milind/Data/Projects/ProgressCard/!090-Remark - PASS or FAIL.mkv", "fps": {"den": 1, "num": 25}, "pixel_format": 0, "sample_rate": 0}, {"video_stream_index": 0, "video_length": "925", "interlaced_frame": false, "audio_bit_rate": 0, "audio_timebase": {"den": 1, "num": 1}, "vcodec": "h264", "channels": 0, "has_video": true, "id": "Z4YCYRY34O", "channel_layout": 4, "has_audio": false, "video_timebase": {"den": 1000, "num": 1}, "has_single_image": false, "acodec": "", "width": 1300, "video_bit_rate": 0, "display_ratio": {"den": 186, "num": 325}, "audio_stream_index": -1, "type": "FFmpegReader", "top_field_first": true, "media_type": "video", "pixel_ratio": {"den": 1, "num": 1}, "height": 744, "duration": 37.0, "file_size": "281401", "path": "/home/milind/Data/Projects/ProgressCard/!100-Average Marks.mkv", "fps": {"den": 1, "num": 25}, "pixel_format": 0, "sample_rate": 0}, {"video_stream_index": 0, "video_length": "500", "interlaced_frame": false, "audio_bit_rate": 0, "audio_timebase": {"den": 1, "num": 1}, "vcodec": "h264", "channels": 0, "has_video": true, "id": "A5ENU0DW4J", "channel_layout": 4, "has_audio": false, "video_timebase": {"den": 1000, "num": 1}, "has_single_image": false, "acodec": "", "width": 1300, "video_bit_rate": 0, "display_ratio": {"den": 186, "num": 325}, "audio_stream_index": -1, "type": "FFmpegReader", "top_field_first": true, "media_type": "video", "pixel_ratio": {"den": 1, "num": 1}, "height": 744, "duration": 20.0, "file_size": "204468", "path": "/home/milind/Data/Projects/ProgressCard/!110-Float Format Dialog.mkv", "fps": {"den": 1, "num": 25}, "pixel_format": 0, "sample_rate": 0}, {"video_stream_index": 0, "video_length": "375", "interlaced_frame": false, "audio_bit_rate": 0, "audio_timebase": {"den": 1, "num": 1}, "vcodec": "h264", "channels": 0, "has_video": true, "id": "UGJYEMW42F", "channel_layout": 4, "has_audio": false, "video_timebase": {"den": 1000, "num": 1}, "has_single_image": false, "acodec": "", "width": 1300, "video_bit_rate": 0, "display_ratio": {"den": 186, "num": 325}, "audio_stream_index": -1, "type": "FFmpegReader", "top_field_first": true, "media_type": "video", "pixel_ratio": {"den": 1, "num": 1}, "height": 744, "duration": 15.0, "file_size": "187523", "path": "/home/milind/Data/Projects/ProgressCard/!120-Two Decimal Format.mkv", "fps": {"den": 1, "num": 25}, "pixel_format": 0, "sample_rate": 0}, {"video_stream_index": 0, "video_length": "4525", "interlaced_frame": false, "audio_bit_rate": 0, "audio_timebase": {"den": 1, "num": 1}, "vcodec": "h264", "channels": 0, "has_video": true, "id": "616P05WPS9", "channel_layout": 4, "has_audio": false, "video_timebase": {"den": 1000, "num": 1}, "has_single_image": false, "acodec": "", "width": 1300, "video_bit_rate": 0, "display_ratio": {"den": 186, "num": 325}, "audio_stream_index": -1, "type": "FFmpegReader", "top_field_first": true, "media_type": "video", "pixel_ratio": {"den": 1, "num": 1}, "height": 744, "duration": 181.0, "file_size": "1502027", "path": "/home/milind/Data/Projects/ProgressCard/!140-Grade Formula.mkv", "fps": {"den": 1, "num": 25}, "pixel_format": 0, "sample_rate": 0}, {"video_stream_index": 0, "video_length": "725", "interlaced_frame": false, "audio_bit_rate": 0, "audio_timebase": {"den": 1, "num": 1}, "vcodec": "h264", "channels": 0, "has_video": true, "id": "2202V21TTZ", "channel_layout": 4, "has_audio": false, "video_timebase": {"den": 1000, "num": 1}, "has_single_image": false, "acodec": "", "width": 1300, "video_bit_rate": 0, "display_ratio": {"den": 186, "num": 325}, "audio_stream_index": -1, "type": "FFmpegReader", "top_field_first": true, "media_type": "video", "pixel_ratio": {"den": 1, "num": 1}, "height": 744, "duration": 29.0, "file_size": "293155", "path": "/home/milind/Data/Projects/ProgressCard/!130-Copy Average.mkv", "fps": {"den": 1, "num": 25}, "pixel_format": 0, "sample_rate": 0}, {"video_stream_index": 0, "video_length": "1575", "interlaced_frame": false, "audio_bit_rate": 0, "audio_timebase": {"den": 1, "num": 1}, "vcodec": "h264", "channels": 0, "has_video": true, "id": "MJ87OKNJXE", "channel_layout": 4, "has_audio": false, "video_timebase": {"den": 1000, "num": 1}, "has_single_image": false, "acodec": "", "width": 1300, "video_bit_rate": 62654, "display_ratio": {"den": 186, "num": 325}, "audio_stream_index": -1, "type": "FFmpegReader", "top_field_first": true, "media_type": "video", "pixel_ratio": {"den": 1, "num": 1}, "height": 744, "duration": 63, "file_size": "499047", "path": "/home/milind/Data/Projects/ProgressCard/!150-Inserted GRADE in REMARK.mkv", "fps": {"den": 1, "num": 25}, "pixel_format": 0, "sample_rate": 0}, {"video_stream_index": -1, "video_length": "2592000", "interlaced_frame": false, "audio_bit_rate": 0, "audio_timebase": {"den": 1, "num": 1}, "vcodec": "", "channels": 0, "has_video": true, "id": "O28Z229VIU", "channel_layout": 4, "has_audio": false, "video_timebase": {"den": 30, "num": 1}, "has_single_image": true, "acodec": "", "width": 6803, "video_bit_rate": 0, "display_ratio": {"den": 3827, "num": 6803}, "audio_stream_index": -1, "type": "QtImageReader", "top_field_first": true, "media_type": "image", "pixel_ratio": {"den": 1, "num": 1}, "height": 3827, "duration": 86400, "file_size": "104140324", "path": "/home/milind/Data/Projects/ProgressCard/!072-Grace Total.svg", "fps": {"den": 1, "num": 30}, "pixel_format": -1, "sample_rate": 0}, {"video_stream_index": -1, "video_length": "2592000", "interlaced_frame": false, "audio_bit_rate": 0, "audio_timebase": {"den": 1, "num": 1}, "vcodec": "", "channels": 0, "has_video": true, "id": "BUXZX40N2J", "channel_layout": 4, "has_audio": false, "video_timebase": {"den": 30, "num": 1}, "has_single_image": true, "acodec": "", "width": 6803, "video_bit_rate": 0, "display_ratio": {"den": 3827, "num": 6803}, "audio_stream_index": -1, "type": "QtImageReader", "top_field_first": true, "media_type": "image", "pixel_ratio": {"den": 1, "num": 1}, "height": 3827, "duration": 86400, "file_size": "104140324", "path": "/home/milind/Data/Projects/ProgressCard/!073-Graced Subject Count.svg", "fps": {"den": 1, "num": 30}, "pixel_format": -1, "sample_rate": 0}, {"video_stream_index": -1, "video_length": "2592000", "interlaced_frame": false, "audio_bit_rate": 0, "audio_timebase": {"den": 1, "num": 1}, "vcodec": "", "channels": 0, "has_video": true, "id": "MZ4ILBST6I", "channel_layout": 4, "has_audio": false, "video_timebase": {"den": 30, "num": 1}, "has_single_image": true, "acodec": "", "width": 6803, "video_bit_rate": 0, "display_ratio": {"den": 3827, "num": 6803}, "audio_stream_index": -1, "type": "QtImageReader", "top_field_first": true, "media_type": "image", "pixel_ratio": {"den": 1, "num": 1}, "height": 3827, "duration": 86400, "file_size": "104140324", "path": "/home/milind/Data/Projects/ProgressCard/!074-Grace Greater Than 10.svg", "fps": {"den": 1, "num": 30}, "pixel_format": -1, "sample_rate": 0}, {"video_stream_index": -1, "video_length": "2592000", "interlaced_frame": false, "audio_bit_rate": 0, "audio_timebase": {"den": 1, "num": 1}, "vcodec": "", "channels": 0, "has_video": true, "id": "55LKUBO9MG", "channel_layout": 4, "has_audio": false, "video_timebase": {"den": 30, "num": 1}, "has_single_image": true, "acodec": "", "width": 6803, "video_bit_rate": 0, "display_ratio": {"den": 3827, "num": 6803}, "audio_stream_index": -1, "type": "QtImageReader", "top_field_first": true, "media_type": "image", "pixel_ratio": {"den": 1, "num": 1}, "height": 3827, "duration": 86400, "file_size": "104140324", "path": "/home/milind/Data/Projects/ProgressCard/!001-Copy (Ctrl-C).svg", "fps": {"den": 1, "num": 30}, "pixel_format": -1, "sample_rate": 0}, {"video_stream_index": -1, "video_length": "2592000", "interlaced_frame": false, "audio_bit_rate": 0, "audio_timebase": {"den": 1, "num": 1}, "vcodec": "", "channels": 0, "has_video": true, "id": "JP5L750RMR", "channel_layout": 4, "has_audio": false, "video_timebase": {"den": 30, "num": 1}, "has_single_image": true, "acodec": "", "width": 6803, "video_bit_rate": 0, "display_ratio": {"den": 3827, "num": 6803}, "audio_stream_index": -1, "type": "QtImageReader", "top_field_first": true, "media_type": "image", "pixel_ratio": {"den": 1, "num": 1}, "height": 3827, "duration": 86400, "file_size": "104140324", "path": "/home/milind/Data/Projects/ProgressCard/!002-Paste (Ctrl-V).svg", "fps": {"den": 1, "num": 30}, "pixel_format": -1, "sample_rate": 0}, {"video_stream_index": -1, "video_length": "2592000", "interlaced_frame": false, "audio_bit_rate": 0, "audio_timebase": {"den": 1, "num": 1}, "vcodec": "", "channels": 0, "has_video": true, "id": "9MDVH2JM9J", "channel_layout": 4, "has_audio": false, "video_timebase": {"den": 30, "num": 1}, "has_single_image": true, "acodec": "", "width": 6803, "video_bit_rate": 0, "display_ratio": {"den": 3827, "num": 6803}, "audio_stream_index": -1, "type": "QtImageReader", "top_field_first": true, "media_type": "image", "pixel_ratio": {"den": 1, "num": 1}, "height": 3827, "duration": 86400, "file_size": "104140324", "path": "/home/milind/Data/Projects/ProgressCard/!085-Pass or Fail.svg", "fps": {"den": 1, "num": 30}, "pixel_format": -1, "sample_rate": 0}, {"video_stream_index": -1, "video_length": "2592000", "interlaced_frame": false, "audio_bit_rate": 0, "audio_timebase": {"den": 1, "num": 1}, "vcodec": "", "channels": 0, "has_video": true, "id": "DIHETX3WQ7", "channel_layout": 4, "has_audio": false, "video_timebase": {"den": 30, "num": 1}, "has_single_image": true, "acodec": "", "width": 6803, "video_bit_rate": 0, "display_ratio": {"den": 3827, "num": 6803}, "audio_stream_index": -1, "type": "QtImageReader", "top_field_first": true, "media_type": "image", "pixel_ratio": {"den": 1, "num": 1}, "height": 3827, "duration": 86400, "file_size": "104140324", "path": "/home/milind/Data/Projects/ProgressCard/!086-IF GT,GC,TC.svg", "fps": {"den": 1, "num": 30}, "pixel_format": -1, "sample_rate": 0}, {"video_stream_index": -1, "video_length": "2592000", "interlaced_frame": false, "audio_bit_rate": 0, "audio_timebase": {"den": 1, "num": 1}, "vcodec": "", "channels": 0, "has_video": true, "id": "1QJRY2QLTK", "channel_layout": 4, "has_audio": false, "video_timebase": {"den": 30, "num": 1}, "has_single_image": true, "acodec": "", "width": 6803, "video_bit_rate": 0, "display_ratio": {"den": 3827, "num": 6803}, "audio_stream_index": -1, "type": "QtImageReader", "top_field_first": true, "media_type": "image", "pixel_ratio": {"den": 1, "num": 1}, "height": 3827, "duration": 86400, "file_size": "104140324", "path": "/home/milind/Data/Projects/ProgressCard/!105-Average.svg", "fps": {"den": 1, "num": 30}, "pixel_format": -1, "sample_rate": 0}, {"video_stream_index": -1, "video_length": "2592000", "interlaced_frame": false, "audio_bit_rate": 0, "audio_timebase": {"den": 1, "num": 1}, "vcodec": "", "channels": 0, "has_video": true, "id": "LKFVWV6XVE", "channel_layout": 4, "has_audio": false, "video_timebase": {"den": 30, "num": 1}, "has_single_image": true, "acodec": "", "width": 6803, "video_bit_rate": 0, "display_ratio": {"den": 3827, "num": 6803}, "audio_stream_index": -1, "type": "QtImageReader", "top_field_first": true, "media_type": "image", "pixel_ratio": {"den": 1, "num": 1}, "height": 3827, "duration": 86400, "file_size": "104140324", "path": "/home/milind/Data/Projects/ProgressCard/!113-Menu-Format-Cells.svg", "fps": {"den": 1, "num": 30}, "pixel_format": -1, "sample_rate": 0}, {"video_stream_index": -1, "video_length": "2592000", "interlaced_frame": false, "audio_bit_rate": 0, "audio_timebase": {"den": 1, "num": 1}, "vcodec": "", "channels": 0, "has_video": true, "id": "GS94V0HQUR", "channel_layout": 4, "has_audio": false, "video_timebase": {"den": 30, "num": 1}, "has_single_image": true, "acodec": "", "width": 6803, "video_bit_rate": 0, "display_ratio": {"den": 3827, "num": 6803}, "audio_stream_index": -1, "type": "QtImageReader", "top_field_first": true, "media_type": "image", "pixel_ratio": {"den": 1, "num": 1}, "height": 3827, "duration": 86400, "file_size": "104140324", "path": "/home/milind/Data/Projects/ProgressCard/!114-We need only 2 decimal places.svg", "fps": {"den": 1, "num": 30}, "pixel_format": -1, "sample_rate": 0}, {"video_stream_index": -1, "top_field_first": true, "interlaced_frame": false, "audio_bit_rate": 0, "audio_timebase": {"den": 1, "num": 1}, "duration": 86400, "channels": 0, "has_video": true, "id": "BS7QREURZM", "channel_layout": 4, "has_audio": false, "video_timebase": {"den": 30, "num": 1}, "has_single_image": true, "acodec": "", "width": 6803, "video_bit_rate": 0, "display_ratio": {"den": 3827, "num": 6803}, "audio_stream_index": -1, "type": "QtImageReader", "video_length": "2592000", "media_type": "image", "pixel_ratio": {"den": 1, "num": 1}, "height": 3827, "vcodec": "", "file_size": "104140324", "path": "/home/milind/Data/Projects/ProgressCard/!086-Then Fail Else Pass.svg", "fps": {"den": 1, "num": 30}, "pixel_format": -1, "sample_rate": 0}, {"video_stream_index": -1, "top_field_first": true, "interlaced_frame": false, "audio_bit_rate": 0, "audio_timebase": {"den": 1, "num": 1}, "duration": 86400, "channels": 0, "has_video": true, "id": "AA811BEMSM", "channel_layout": 4, "has_audio": false, "video_timebase": {"den": 30, "num": 1}, "has_single_image": true, "acodec": "", "width": 6803, "video_bit_rate": 0, "display_ratio": {"den": 3827, "num": 6803}, "audio_stream_index": -1, "type": "QtImageReader", "video_length": "2592000", "media_type": "image", "pixel_ratio": {"den": 1, "num": 1}, "height": 3827, "vcodec": "", "file_size": "104140324", "path": "/home/milind/Data/Projects/ProgressCard/!135-Grade.svg", "fps": {"den": 1, "num": 30}, "pixel_format": -1, "sample_rate": 0}, {"video_stream_index": -1, "top_field_first": true, "interlaced_frame": false, "audio_bit_rate": 0, "audio_timebase": {"den": 1, "num": 1}, "duration": 86400, "channels": 0, "has_video": true, "id": "M6T9ROM582", "channel_layout": 4, "has_audio": false, "video_timebase": {"den": 30, "num": 1}, "has_single_image": true, "acodec": "", "width": 6803, "video_bit_rate": 0, "display_ratio": {"den": 3827, "num": 6803}, "audio_stream_index": -1, "type": "QtImageReader", "video_length": "2592000", "media_type": "image", "pixel_ratio": {"den": 1, "num": 1}, "height": 3827, "vcodec": "", "file_size": "104140324", "path": "/home/milind/Data/Projects/ProgressCard/!145-4 If's - 4 Braces.svg", "fps": {"den": 1, "num": 30}, "pixel_format": -1, "sample_rate": 0}, {"video_stream_index": -1, "top_field_first": true, "interlaced_frame": false, "audio_bit_rate": 0, "audio_timebase": {"den": 1, "num": 1}, "duration": 86400, "channels": 0, "has_video": true, "id": "BWOLHCX3NY", "channel_layout": 4, "has_audio": false, "video_timebase": {"den": 30, "num": 1}, "has_single_image": true, "acodec": "", "width": 6803, "video_bit_rate": 0, "display_ratio": {"den": 3827, "num": 6803}, "audio_stream_index": -1, "type": "QtImageReader", "video_length": "2592000", "media_type": "image", "pixel_ratio": {"den": 1, "num": 1}, "height": 3827, "vcodec": "", "file_size": "104140324", "path": "/home/milind/Data/Projects/ProgressCard/!145-DISTINCTION.svg", "fps": {"den": 1, "num": 30}, "pixel_format": -1, "sample_rate": 0}, {"video_stream_index": -1, "top_field_first": true, "interlaced_frame": false, "audio_bit_rate": 0, "audio_timebase": {"den": 1, "num": 1}, "duration": 86400, "channels": 0, "has_video": true, "id": "QURFA8ZYYH", "channel_layout": 4, "has_audio": false, "video_timebase": {"den": 30, "num": 1}, "has_single_image": true, "acodec": "", "width": 6803, "video_bit_rate": 0, "display_ratio": {"den": 3827, "num": 6803}, "audio_stream_index": -1, "type": "QtImageReader", "video_length": "2592000", "media_type": "image", "pixel_ratio": {"den": 1, "num": 1}, "height": 3827, "vcodec": "", "file_size": "104140324", "path": "/home/milind/Data/Projects/ProgressCard/!145-FIRST CLASS.svg", "fps": {"den": 1, "num": 30}, "pixel_format": -1, "sample_rate": 0}, {"video_stream_index": -1, "top_field_first": true, "interlaced_frame": false, "audio_bit_rate": 0, "audio_timebase": {"den": 1, "num": 1}, "duration": 86400, "channels": 0, "has_video": true, "id": "QKE4L0GUDK", "channel_layout": 4, "has_audio": false, "video_timebase": {"den": 30, "num": 1}, "has_single_image": true, "acodec": "", "width": 6803, "video_bit_rate": 0, "display_ratio": {"den": 3827, "num": 6803}, "audio_stream_index": -1, "type": "QtImageReader", "video_length": "2592000", "media_type": "image", "pixel_ratio": {"den": 1, "num": 1}, "height": 3827, "vcodec": "", "file_size": "104140324", "path": "/home/milind/Data/Projects/ProgressCard/!145-PASS CLASS.svg", "fps": {"den": 1, "num": 30}, "pixel_format": -1, "sample_rate": 0}, {"video_stream_index": -1, "top_field_first": true, "interlaced_frame": false, "audio_bit_rate": 0, "audio_timebase": {"den": 1, "num": 1}, "duration": 86400, "channels": 0, "has_video": true, "id": "U4HEYX76VH", "channel_layout": 4, "has_audio": false, "video_timebase": {"den": 30, "num": 1}, "has_single_image": true, "acodec": "", "width": 6803, "video_bit_rate": 0, "display_ratio": {"den": 3827, "num": 6803}, "audio_stream_index": -1, "type": "QtImageReader", "video_length": "2592000", "media_type": "image", "pixel_ratio": {"den": 1, "num": 1}, "height": 3827, "vcodec": "", "file_size": "104140324", "path": "/home/milind/Data/Projects/ProgressCard/!145-PROMOTED.svg", "fps": {"den": 1, "num": 30}, "pixel_format": -1, "sample_rate": 0}], "key": ["files"]}, {"partial": false, "type": "insert", "value": {"perspective_c2_x": {"Points": [{"co": {"Y": -1, "X": 1}, "interpolation": 2}]}, "perspective_c3_x": {"Points": [{"co": {"Y": -1, "X": 1}, "interpolation": 2}]}, "shear_x": {"Points": [{"co": {"Y": 0, "X": 1}, "interpolation": 2}]}, "channel_filter": {"Points": [{"co": {"Y": -1, "X": 1}, "interpolation": 2}]}, "crop_height": {"Points": [{"co": {"Y": -1, "X": 1}, "interpolation": 2}]}, "duration": 86400.0, "perspective_c1_x": {"Points": [{"co": {"Y": -1, "X": 1}, "interpolation": 2}]}, "anchor": 0, "alpha": {"Points": [{"co": {"Y": 1, "X": 1}, "interpolation": 2}]}, "id": "DVT7KHN9HZ", "layer": 2, "display": 0, "scale": 1, "gravity": 4, "crop_width": {"Points": [{"co": {"Y": -1, "X": 1}, "interpolation": 2}]}, "crop_x": {"Points": [{"co": {"Y": 0, "X": 1}, "interpolation": 2}]}, "perspective_c4_x": {"Points": [{"co": {"Y": -1, "X": 1}, "interpolation": 2}]}, "volume": {"Points": [{"co": {"Y": 1, "X": 1}, "interpolation": 2}]}, "start": 0, "has_video": {"Points": [{"co": {"Y": -1, "X": 1}, "interpolation": 2}]}, "rotation": {"Points": [{"co": {"Y": 0, "X": 1}, "interpolation": 2}]}, "reader": {"video_stream_index": -1, "video_length": "2592000", "interlaced_frame": false, "audio_bit_rate": 0, "audio_timebase": {"den": 1, "num": 1}, "duration": 86400.0, "channels": 0, "video_bit_rate": 0, "channel_layout": 4, "path": "/home/milind/Data/Projects/ProgressCard/!145-PROMOTED.svg", "has_audio": false, "video_timebase": {"den": 30, "num": 1}, "has_single_image": true, "acodec": "", "has_video": true, "display_ratio": {"den": 3827, "num": 6803}, "audio_stream_index": -1, "type": "QtImageReader", "top_field_first": true, "width": 6803, "pixel_ratio": {"den": 1, "num": 1}, "height": 3827, "vcodec": "", "file_size": "104140324", "sample_rate": 0, "fps": {"den": 1, "num": 30}, "pixel_format": -1}, "position": 187.62421874999998, "image": "/home/milind/.openshot_qt/thumbnail/U4HEYX76VH.png", "has_audio": {"Points": [{"co": {"Y": -1, "X": 1}, "interpolation": 2}]}, "channel_mapping": {"Points": [{"co": {"Y": -1, "X": 1}, "interpolation": 2}]}, "shear_y": {"Points": [{"co": {"Y": 0, "X": 1}, "interpolation": 2}]}, "end": 5, "waveform": false, "perspective_c3_y": {"Points": [{"co": {"Y": -1, "X": 1}, "interpolation": 2}]}, "scale_x": {"Points": [{"co": {"Y": 1, "X": 1}, "interpolation": 2}]}, "location_x": {"Points": [{"co": {"Y": 0, "X": 1}, "interpolation": 2}]}, "location_y": {"Points": [{"co": {"Y": 0, "X": 1}, "interpolation": 2}]}, "file_id": "U4HEYX76VH", "perspective_c2_y": {"Points": [{"co": {"Y": -1, "X": 1}, "interpolation": 2}]}, "perspective_c1_y": {"Points": [{"co": {"Y": -1, "X": 1}, "interpolation": 2}]}, "title": "!145-PROMOTED.svg", "perspective_c4_y": {"Points": [{"co": {"Y": -1, "X": 1}, "interpolation": 2}]}, "wave_color": {"red": {"Points": [{"handle_right": {"Y": 0, "X": 0.5}, "handle_type": 0, "handle_left": {"Y": 1, "X": 0.5}, "co": {"Y": 0, "X": 1}, "interpolation": 0}]}, "green": {"Points": [{"handle_right": {"Y": 0, "X": 0.5}, "handle_type": 0, "handle_left": {"Y": 1, "X": 0.5}, "co": {"Y": 123, "X": 1}, "interpolation": 0}]}, "blue": {"Points": [{"handle_right": {"Y": 0, "X": 0.5}, "handle_type": 0, "handle_left": {"Y": 1, "X": 0.5}, "co": {"Y": 255, "X": 1}, "interpolation": 0}]}, "alpha": {"Points": [{"handle_right": {"Y": 0, "X": 0.5}, "handle_type": 0, "handle_left": {"Y": 1, "X": 0.5}, "co": {"Y": 255, "X": 1}, "interpolation": 0}]}}, "time": {"Points": [{"co": {"Y": 1, "X": 1}, "interpolation": 2}]}, "crop_y": {"Points": [{"co": {"Y": 0, "X": 1}, "interpolation": 2}]}, "scale_y": {"Points": [{"co": {"Y": 1, "X": 1}, "interpolation": 2}]}, "effects": []}, "old_values": [{"location_x": {"Points": [{"co": {"Y": 0.0, "X": 1.0}, "interpolation": 2}]}, "perspective_c3_x": {"Points": [{"co": {"Y": -1.0, "X": 1.0}, "interpolation": 2}]}, "perspective_c4_x": {"Points": [{"co": {"Y": -1.0, "X": 1.0}, "interpolation": 2}]}, "channel_filter": {"Points": [{"co": {"Y": -1.0, "X": 1.0}, "interpolation": 2}]}, "anchor": 0, "perspective_c1_x": {"Points": [{"co": {"Y": -1.0, "X": 1.0}, "interpolation": 2}]}, "perspective_c2_x": {"Points": [{"co": {"Y": -1.0, "X": 1.0}, "interpolation": 2}]}, "alpha": {"Points": [{"co": {"Y": 1.0, "X": 1.0}, "interpolation": 2}, {"handle_right": {"Y": 0.0, "X": 0.5}, "handle_type": 0, "handle_left": {"Y": 1.0, "X": 0.5}, "co": {"Y": 0.0, "X": 1.0}, "interpolation": 0}, {"handle_right": {"Y": 0.0, "X": 0.5}, "handle_type": 0, "handle_left": {"Y": 1.0, "X": 0.5}, "co": {"Y": 1.0, "X": 73.0}, "interpolation": 0}]}, "id": "IUE2QUN59C", "layer": 0, "file_id": "0F0RWXSQM9", "display": 0, "scale": 1, "gravity": 4, "crop_width": {"Points": [{"co": {"Y": -1.0, "X": 1.0}, "interpolation": 2}]}, "crop_x": {"Points": [{"co": {"Y": 0.0, "X": 1.0}, "interpolation": 2}]}, "shear_x": {"Points": [{"co": {"Y": 0.0, "X": 1.0}, "interpolation": 2}]}, "volume": {"Points": [{"co": {"Y": 1.0, "X": 1.0}, "interpolation": 2}]}, "start": 0, "rotation": {"Points": [{"co": {"Y": 0.0, "X": 1.0}, "interpolation": 2}]}, "reader": {"video_stream_index": -1, "video_length": "2592000", "interlaced_frame": false, "audio_bit_rate": 0, "audio_timebase": {"den": 1, "num": 1}, "vcodec": "", "channels": 0, "has_video": true, "channel_layout": 4, "has_audio": false, "video_timebase": {"den": 30, "num": 1}, "has_single_image": true, "acodec": "", "video_bit_rate": 0, "display_ratio": {"den": 9, "num": 16}, "audio_stream_index": -1, "type": "QtImageReader", "top_field_first": true, "width": 1920, "pixel_ratio": {"den": 1, "num": 1}, "height": 1080, "duration": 86400.0, "file_size": "8294400", "path": "/home/milind/Data/Projects/ProgressCard/!000-White-Background.svg", "fps": {"den": 1, "num": 30}, "pixel_format": -1, "sample_rate": 0}, "position": 0, "has_video": {"Points": [{"co": {"Y": -1.0, "X": 1.0}, "interpolation": 2}]}, "has_audio": {"Points": [{"co": {"Y": -1.0, "X": 1.0}, "interpolation": 2}]}, "channel_mapping": {"Points": [{"co": {"Y": -1.0, "X": 1.0}, "interpolation": 2}]}, "shear_y": {"Points": [{"co": {"Y": 0.0, "X": 1.0}, "interpolation": 2}]}, "perspective_c3_y": {"Points": [{"co": {"Y": -1.0, "X": 1.0}, "interpolation": 2}]}, "waveform": false, "end": 10, "scale_x": {"Points": [{"co": {"Y": 1.0, "X": 1.0}, "interpolation": 2}]}, "image": "/home/milind/.openshot_qt/thumbnail/0F0RWXSQM9.png", "location_y": {"Points": [{"co": {"Y": 0.0, "X": 1.0}, "interpolation": 2}]}, "crop_y": {"Points": [{"co": {"Y": 0.0, "X": 1.0}, "interpolation": 2}]}, "perspective_c2_y": {"Points": [{"co": {"Y": -1.0, "X": 1.0}, "interpolation": 2}]}, "perspective_c1_y": {"Points": [{"co": {"Y": -1.0, "X": 1.0}, "interpolation": 2}]}, "title": "!000-White-Background.svg", "perspective_c4_y": {"Points": [{"co": {"Y": -1.0, "X": 1.0}, "interpolation": 2}]}, "duration": 86400.0, "wave_color": {"red": {"Points": [{"handle_right": {"Y": 0.0, "X": 0.5}, "handle_type": 0, "handle_left": {"Y": 1.0, "X": 0.5}, "co": {"Y": 0.0, "X": 1.0}, "interpolation": 0}]}, "green": {"Points": [{"handle_right": {"Y": 0.0, "X": 0.5}, "handle_type": 0, "handle_left": {"Y": 1.0, "X": 0.5}, "co": {"Y": 123.0, "X": 1.0}, "interpolation": 0}]}, "blue": {"Points": [{"handle_right": {"Y": 0.0, "X": 0.5}, "handle_type": 0, "handle_left": {"Y": 1.0, "X": 0.5}, "co": {"Y": 255.0, "X": 1.0}, "interpolation": 0}]}, "alpha": {"Points": [{"handle_right": {"Y": 0.0, "X": 0.5}, "handle_type": 0, "handle_left": {"Y": 1.0, "X": 0.5}, "co": {"Y": 255.0, "X": 1.0}, "interpolation": 0}]}}, "time": {"Points": [{"co": {"Y": 1.0, "X": 1.0}, "interpolation": 2}]}, "crop_height": {"Points": [{"co": {"Y": -1.0, "X": 1.0}, "interpolation": 2}]}, "scale_y": {"Points": [{"co": {"Y": 1.0, "X": 1.0}, "interpolation": 2}]}, "effects": []}, {"location_x": {"Points": [{"handle_right": {"Y": 0.0, "X": 0.5}, "handle_type": 0, "handle_left": {"Y": 1.0, "X": 0.5}, "co": {"Y": 0.33000001311302185, "X": 1.0}, "interpolation": 0}, {"co": {"Y": -0.07999999821186066, "X": 178}, "interpolation": 1}, {"co": {"Y": -0.07999999821186066, "X": 117}, "interpolation": 1}]}, "perspective_c3_x": {"Points": [{"co": {"Y": -1.0, "X": 1.0}, "interpolation": 2}]}, "perspective_c4_x": {"Points": [{"co": {"Y": -1.0, "X": 1.0}, "interpolation": 2}]}, "channel_filter": {"Points": [{"co": {"Y": -1.0, "X": 1.0}, "interpolation": 2}]}, "perspective_c2_x": {"Points": [{"co": {"Y": -1.0, "X": 1.0}, "interpolation": 2}]}, "perspective_c1_x": {"Points": [{"co": {"Y": -1.0, "X": 1.0}, "interpolation": 2}]}, "anchor": 0, "alpha": {"Points": [{"handle_right": {"Y": 0, "X": 0.5}, "handle_type": 0, "handle_left": {"Y": 1, "X": 0.5}, "co": {"Y": 1, "X": 1}, "interpolation": 0}, {"handle_right": {"Y": 0, "X": 0.5}, "handle_type": 0, "handle_left": {"Y": 1, "X": 0.5}, "co": {"Y": 0, "X": 117}, "interpolation": 0}, {"handle_right": {"Y": 0, "X": 0.5}, "handle_type": 0, "handle_left": {"Y": 1, "X": 0.5}, "co": {"Y": 1, "X": 189}, "interpolation": 0}, {"handle_right": {"Y": 0, "X": 0.5}, "handle_type": 0, "handle_left": {"Y": 1, "X": 0.5}, "co": {"Y": 1, "X": 1687}, "interpolation": 0}, {"handle_right": {"Y": 0, "X": 0.5}, "handle_type": 0, "handle_left": {"Y": 1, "X": 0.5}, "co": {"Y": 0, "X": 1759}, "interpolation": 0}]}, "id": "6XU1ZMQNAO", "position": 1.0, "file_id": "O1AEGRKDWZ", "display": 0, "scale": 1, "gravity": 4, "crop_width": {"Points": [{"co": {"Y": -1.0, "X": 1.0}, "interpolation": 2}]}, "crop_x": {"Points": [{"co": {"Y": 0.0, "X": 1.0}, "interpolation": 2}]}, "shear_x": {"Points": [{"co": {"Y": 0.0, "X": 1.0}, "interpolation": 2}]}, "volume": {"Points": [{"co": {"Y": 1.0, "X": 1.0}, "interpolation": 2}]}, "start": 4.8483333333333345, "title": "!080-GT,GC,TC.mkv", "reader": {"video_stream_index": 0, "video_length": "3650", "interlaced_frame": false, "audio_bit_rate": 0, "audio_timebase": {"den": 1, "num": 1}, "vcodec": "h264", "channels": 0, "has_video": true, "channel_layout": 4, "has_audio": false, "video_timebase": {"den": 1000, "num": 1}, "has_single_image": false, "acodec": "", "video_bit_rate": 0, "display_ratio": {"den": 186, "num": 325}, "audio_stream_index": -1, "type": "FFmpegReader", "top_field_first": true, "width": 1300, "pixel_ratio": {"den": 1, "num": 1}, "height": 744, "duration": 146.0, "file_size": "1130835", "path": "/home/milind/Data/Projects/ProgressCard/!080-GT,GC,TC.mkv", "fps": {"den": 1, "num": 25}, "pixel_format": 0, "sample_rate": 0}, "layer": 1, "has_video": {"Points": [{"co": {"Y": -1.0, "X": 1.0}, "interpolation": 2}]}, "has_audio": {"Points": [{"co": {"Y": -1.0, "X": 1.0}, "interpolation": 2}]}, "channel_mapping": {"Points": [{"co": {"Y": -1.0, "X": 1.0}, "interpolation": 2}]}, "shear_y": {"Points": [{"co": {"Y": 0.0, "X": 1.0}, "interpolation": 2}]}, "perspective_c3_y": {"Points": [{"co": {"Y": -1.0, "X": 1.0}, "interpolation": 2}]}, "waveform": false, "end": 73.25, "scale_x": {"Points": [{"handle_right": {"Y": 0.0, "X": 0.5}, "handle_type": 0, "handle_left": {"Y": 1.0, "X": 0.5}, "co": {"Y": 2.200000047683716, "X": 1.0}, "interpolation": 0}, {"co": {"Y": 2.299999952316284, "X": 178}, "interpolation": 1}]}, "image": "/home/milind/.openshot_qt/thumbnail/6XU1ZMQNAO-122.png", "location_y": {"Points": [{"handle_right": {"Y": 0.0, "X": 0.5}, "handle_type": 0, "handle_left": {"Y": 1.0, "X": 0.5}, "co": {"Y": 0.5199999809265137, "X": 1.0}, "interpolation": 0}, {"co": {"Y": 0.5199999809265137, "X": 178}, "interpolation": 1}]}, "crop_y": {"Points": [{"co": {"Y": 0.0, "X": 1.0}, "interpolation": 2}]}, "perspective_c2_y": {"Points": [{"co": {"Y": -1.0, "X": 1.0}, "interpolation": 2}]}, "perspective_c1_y": {"Points": [{"co": {"Y": -1.0, "X": 1.0}, "interpolation": 2}]}, "rotation": {"Points": [{"co": {"Y": 0.0, "X": 1.0}, "interpolation": 2}]}, "perspective_c4_y": {"Points": [{"co": {"Y": -1.0, "X": 1.0}, "interpolation": 2}]}, "duration": 72.0, "wave_color": {"red": {"Points": [{"handle_right": {"Y": 0.0, "X": 0.5}, "handle_type": 0, "handle_left": {"Y": 1.0, "X": 0.5}, "co": {"Y": 0.0, "X": 1.0}, "interpolation": 0}]}, "green": {"Points": [{"handle_right": {"Y": 0.0, "X": 0.5}, "handle_type": 0, "handle_left": {"Y": 1.0, "X": 0.5}, "co": {"Y": 123.0, "X": 1.0}, "interpolation": 0}]}, "blue": {"Points": [{"handle_right": {"Y": 0.0, "X": 0.5}, "handle_type": 0, "handle_left": {"Y": 1.0, "X": 0.5}, "co": {"Y": 255.0, "X": 1.0}, "interpolation": 0}]}, "alpha": {"Points": [{"handle_right": {"Y": 0.0, "X": 0.5}, "handle_type": 0, "handle_left": {"Y": 1.0, "X": 0.5}, "co": {"Y": 255.0, "X": 1.0}, "interpolation": 0}]}}, "time": {"Points": [{"co": {"Y": 117, "X": 117}, "interpolation": 1}, {"co": {"Y": 3399, "X": 1758}, "interpolation": 1}]}, "crop_height": {"Points": [{"co": {"Y": -1.0, "X": 1.0}, "interpolation": 2}]}, "scale_y": {"Points": [{"handle_right": {"Y": 0.0, "X": 0.5}, "handle_type": 0, "handle_left": {"Y": 1.0, "X": 0.5}, "co": {"Y": 2.200000047683716, "X": 1.0}, "interpolation": 0}, {"co": {"Y": 2.299999952316284, "X": 178}, "interpolation": 1}]}, "effects": []}, {"location_x": {"Points": [{"handle_right": {"Y": 0.0, "X": 0.5}, "handle_type": 0, "handle_left": {"Y": 1.0, "X": 0.5}, "co": {"Y": -0.07999999821186066, "X": 1.0}, "interpolation": 0}]}, "perspective_c3_x": {"Points": [{"co": {"Y": -1.0, "X": 1.0}, "interpolation": 2}]}, "perspective_c4_x": {"Points": [{"co": {"Y": -1.0, "X": 1.0}, "interpolation": 2}]}, "channel_filter": {"Points": [{"co": {"Y": -1.0, "X": 1.0}, "interpolation": 2}]}, "perspective_c2_x": {"Points": [{"co": {"Y": -1.0, "X": 1.0}, "interpolation": 2}]}, "perspective_c1_x": {"Points": [{"co": {"Y": -1.0, "X": 1.0}, "interpolation": 2}]}, "anchor": 0, "alpha": {"Points": [{"handle_right": {"Y": 0, "X": 0.5}, "handle_type": 0, "handle_left": {"Y": 1, "X": 0.5}, "co": {"Y": 1, "X": 1}, "interpolation": 0}, {"handle_right": {"Y": 0, "X": 0.5}, "handle_type": 0, "handle_left": {"Y": 1, "X": 0.5}, "co": {"Y": 0, "X": 1}, "interpolation": 0}, {"handle_right": {"Y": 0, "X": 0.5}, "handle_type": 0, "handle_left": {"Y": 1, "X": 0.5}, "co": {"Y": 1, "X": 73}, "interpolation": 0}, {"handle_right": {"Y": 0, "X": 0.5}, "handle_type": 0, "handle_left": {"Y": 1, "X": 0.5}, "co": {"Y": 1, "X": 1153}, "interpolation": 0}, {"handle_right": {"Y": 0, "X": 0.5}, "handle_type": 0, "handle_left": {"Y": 1, "X": 0.5}, "co": {"Y": 0, "X": 1225}, "interpolation": 0}]}, "id": "A2EZ4WBLRE", "layer": 1, "file_id": "XBE2IATTEN", "display": 0, "scale": 1, "gravity": 4, "crop_width": {"Points": [{"co": {"Y": -1.0, "X": 1.0}, "interpolation": 2}]}, "crop_x": {"Points": [{"co": {"Y": 0.0, "X": 1.0}, "interpolation": 2}]}, "shear_x": {"Points": [{"co": {"Y": 0.0, "X": 1.0}, "interpolation": 2}]}, "volume": {"Points": [{"co": {"Y": 1.0, "X": 1.0}, "interpolation": 2}]}, "start": 0, "rotation": {"Points": [{"co": {"Y": 0.0, "X": 1.0}, "interpolation": 2}]}, "reader": {"video_stream_index": 0, "video_length": "2575", "interlaced_frame": false, "audio_bit_rate": 0, "audio_timebase": {"den": 1, "num": 1}, "vcodec": "h264", "channels": 0, "has_video": true, "channel_layout": 4, "has_audio": false, "video_timebase": {"den": 1000, "num": 1}, "has_single_image": false, "acodec": "", "video_bit_rate": 0, "display_ratio": {"den": 186, "num": 325}, "audio_stream_index": -1, "type": "FFmpegReader", "top_field_first": true, "width": 1300, "pixel_ratio": {"den": 1, "num": 1}, "height": 744, "duration": 103.0, "file_size": "822519", "path": "/home/milind/Data/Projects/ProgressCard/!090-Remark - PASS or FAIL.mkv", "fps": {"den": 1, "num": 25}, "pixel_format": 0, "sample_rate": 0}, "position": 74.768125, "has_video": {"Points": [{"co": {"Y": -1.0, "X": 1.0}, "interpolation": 2}]}, "has_audio": {"Points": [{"co": {"Y": -1.0, "X": 1.0}, "interpolation": 2}]}, "channel_mapping": {"Points": [{"co": {"Y": -1.0, "X": 1.0}, "interpolation": 2}]}, "shear_y": {"Points": [{"co": {"Y": 0.0, "X": 1.0}, "interpolation": 2}]}, "perspective_c3_y": {"Points": [{"co": {"Y": -1.0, "X": 1.0}, "interpolation": 2}]}, "waveform": false, "end": 51, "scale_x": {"Points": [{"handle_right": {"Y": 0.0, "X": 0.5}, "handle_type": 0, "handle_left": {"Y": 1.0, "X": 0.5}, "co": {"Y": 2.299999952316284, "X": 1.0}, "interpolation": 0}]}, "image": "/home/milind/.openshot_qt/thumbnail/XBE2IATTEN.png", "location_y": {"Points": [{"handle_right": {"Y": 0.0, "X": 0.5}, "handle_type": 0, "handle_left": {"Y": 1.0, "X": 0.5}, "co": {"Y": 0.5199999809265137, "X": 1.0}, "interpolation": 0}]}, "crop_y": {"Points": [{"co": {"Y": 0.0, "X": 1.0}, "interpolation": 2}]}, "perspective_c2_y": {"Points": [{"co": {"Y": -1.0, "X": 1.0}, "interpolation": 2}]}, "perspective_c1_y": {"Points": [{"co": {"Y": -1.0, "X": 1.0}, "interpolation": 2}]}, "title": "!090-Remark - PASS or FAIL.mkv", "perspective_c4_y": {"Points": [{"co": {"Y": -1.0, "X": 1.0}, "interpolation": 2}]}, "duration": 50.0, "wave_color": {"red": {"Points": [{"handle_right": {"Y": 0.0, "X": 0.5}, "handle_type": 0, "handle_left": {"Y": 1.0, "X": 0.5}, "co": {"Y": 0.0, "X": 1.0}, "interpolation": 0}]}, "green": {"Points": [{"handle_right": {"Y": 0.0, "X": 0.5}, "handle_type": 0, "handle_left": {"Y": 1.0, "X": 0.5}, "co": {"Y": 123.0, "X": 1.0}, "interpolation": 0}]}, "blue": {"Points": [{"handle_right": {"Y": 0.0, "X": 0.5}, "handle_type": 0, "handle_left": {"Y": 1.0, "X": 0.5}, "co": {"Y": 255.0, "X": 1.0}, "interpolation": 0}]}, "alpha": {"Points": [{"handle_right": {"Y": 0.0, "X": 0.5}, "handle_type": 0, "handle_left": {"Y": 1.0, "X": 0.5}, "co": {"Y": 255.0, "X": 1.0}, "interpolation": 0}]}}, "time": {"Points": [{"co": {"Y": 1, "X": 1}, "interpolation": 1}, {"co": {"Y": 2447, "X": 1224}, "interpolation": 1}]}, "crop_height": {"Points": [{"co": {"Y": -1.0, "X": 1.0}, "interpolation": 2}]}, "scale_y": {"Points": [{"handle_right": {"Y": 0.0, "X": 0.5}, "handle_type": 0, "handle_left": {"Y": 1.0, "X": 0.5}, "co": {"Y": 2.299999952316284, "X": 1.0}, "interpolation": 0}]}, "effects": []}, {"location_x": {"Points": [{"co": {"Y": 0.0, "X": 1.0}, "interpolation": 2}]}, "perspective_c3_x": {"Points": [{"co": {"Y": -1.0, "X": 1.0}, "interpolation": 2}]}, "perspective_c4_x": {"Points": [{"co": {"Y": -1.0, "X": 1.0}, "interpolation": 2}]}, "channel_filter": {"Points": [{"co": {"Y": -1.0, "X": 1.0}, "interpolation": 2}]}, "perspective_c2_x": {"Points": [{"co": {"Y": -1.0, "X": 1.0}, "interpolation": 2}]}, "perspective_c1_x": {"Points": [{"co": {"Y": -1.0, "X": 1.0}, "interpolation": 2}]}, "anchor": 0, "alpha": {"Points": [{"co": {"Y": 1.0, "X": 1.0}, "interpolation": 2}]}, "id": "3GZPXZWGC6", "layer": 0, "file_id": "0F0RWXSQM9", "display": 0, "scale": 1, "gravity": 4, "crop_width": {"Points": [{"co": {"Y": -1.0, "X": 1.0}, "interpolation": 2}]}, "crop_x": {"Points": [{"co": {"Y": 0.0, "X": 1.0}, "interpolation": 2}]}, "shear_x": {"Points": [{"co": {"Y": 0.0, "X": 1.0}, "interpolation": 2}]}, "volume": {"Points": [{"co": {"Y": 1.0, "X": 1.0}, "interpolation": 2}]}, "start": 0, "rotation": {"Points": [{"co": {"Y": 0.0, "X": 1.0}, "interpolation": 2}]}, "reader": {"video_stream_index": -1, "video_length": "2592000", "interlaced_frame": false, "audio_bit_rate": 0, "audio_timebase": {"den": 1, "num": 1}, "vcodec": "", "channels": 0, "has_video": true, "channel_layout": 4, "has_audio": false, "video_timebase": {"den": 30, "num": 1}, "has_single_image": true, "acodec": "", "video_bit_rate": 0, "display_ratio": {"den": 9, "num": 16}, "audio_stream_index": -1, "type": "QtImageReader", "top_field_first": true, "width": 1920, "pixel_ratio": {"den": 1, "num": 1}, "height": 1080, "duration": 86400.0, "file_size": "8294400", "path": "/home/milind/Data/Projects/ProgressCard/!000-White-Background.svg", "fps": {"den": 1, "num": 30}, "pixel_format": -1, "sample_rate": 0}, "position": 121.30031249999999, "has_video": {"Points": [{"co": {"Y": -1.0, "X": 1.0}, "interpolation": 2}]}, "has_audio": {"Points": [{"co": {"Y": -1.0, "X": 1.0}, "interpolation": 2}]}, "channel_mapping": {"Points": [{"co": {"Y": -1.0, "X": 1.0}, "interpolation": 2}]}, "shear_y": {"Points": [{"co": {"Y": 0.0, "X": 1.0}, "interpolation": 2}]}, "perspective_c3_y": {"Points": [{"co": {"Y": -1.0, "X": 1.0}, "interpolation": 2}]}, "waveform": false, "end": 10, "scale_x": {"Points": [{"co": {"Y": 1.0, "X": 1.0}, "interpolation": 2}]}, "image": "/home/milind/.openshot_qt/thumbnail/0F0RWXSQM9.png", "location_y": {"Points": [{"co": {"Y": 0.0, "X": 1.0}, "interpolation": 2}]}, "crop_y": {"Points": [{"co": {"Y": 0.0, "X": 1.0}, "interpolation": 2}]}, "perspective_c2_y": {"Points": [{"co": {"Y": -1.0, "X": 1.0}, "interpolation": 2}]}, "perspective_c1_y": {"Points": [{"co": {"Y": -1.0, "X": 1.0}, "interpolation": 2}]}, "title": "!000-White-Background.svg", "perspective_c4_y": {"Points": [{"co": {"Y": -1.0, "X": 1.0}, "interpolation": 2}]}, "duration": 86400.0, "wave_color": {"red": {"Points": [{"handle_right": {"Y": 0.0, "X": 0.5}, "handle_type": 0, "handle_left": {"Y": 1.0, "X": 0.5}, "co": {"Y": 0.0, "X": 1.0}, "interpolation": 0}]}, "green": {"Points": [{"handle_right": {"Y": 0.0, "X": 0.5}, "handle_type": 0, "handle_left": {"Y": 1.0, "X": 0.5}, "co": {"Y": 123.0, "X": 1.0}, "interpolation": 0}]}, "blue": {"Points": [{"handle_right": {"Y": 0.0, "X": 0.5}, "handle_type": 0, "handle_left": {"Y": 1.0, "X": 0.5}, "co": {"Y": 255.0, "X": 1.0}, "interpolation": 0}]}, "alpha": {"Points": [{"handle_right": {"Y": 0.0, "X": 0.5}, "handle_type": 0, "handle_left": {"Y": 1.0, "X": 0.5}, "co": {"Y": 255.0, "X": 1.0}, "interpolation": 0}]}}, "time": {"Points": [{"co": {"Y": 1.0, "X": 1.0}, "interpolation": 2}]}, "crop_height": {"Points": [{"co": {"Y": -1.0, "X": 1.0}, "interpolation": 2}]}, "scale_y": {"Points": [{"co": {"Y": 1.0, "X": 1.0}, "interpolation": 2}]}, "effects": []}, {"perspective_c4_x": {"Points": [{"co": {"Y": -1.0, "X": 1.0}, "interpolation": 2}]}, "channel_filter": {"Points": [{"co": {"Y": -1.0, "X": 1.0}, "interpolation": 2}]}, "image": "/home/milind/.openshot_qt/thumbnail/Z4YCYRY34O.png", "perspective_c2_x": {"Points": [{"co": {"Y": -1.0, "X": 1.0}, "interpolation": 2}]}, "perspective_c1_x": {"Points": [{"co": {"Y": -1.0, "X": 1.0}, "interpolation": 2}]}, "anchor": 0, "alpha": {"Points": [{"handle_right": {"Y": 0, "X": 0.5}, "handle_type": 0, "handle_left": {"Y": 1, "X": 0.5}, "co": {"Y": 1, "X": 1}, "interpolation": 0}, {"handle_right": {"Y": 0, "X": 0.5}, "handle_type": 0, "handle_left": {"Y": 1, "X": 0.5}, "co": {"Y": 0, "X": 1}, "interpolation": 0}, {"handle_right": {"Y": 0, "X": 0.5}, "handle_type": 0, "handle_left": {"Y": 1, "X": 0.5}, "co": {"Y": 1, "X": 73}, "interpolation": 0}]}, "id": "QZM4UXHK9C", "position": 125.768125, "file_id": "Z4YCYRY34O", "display": 0, "scale": 1, "gravity": 4, "crop_width": {"Points": [{"co": {"Y": -1.0, "X": 1.0}, "interpolation": 2}]}, "crop_x": {"Points": [{"co": {"Y": 0.0, "X": 1.0}, "interpolation": 2}]}, "shear_x": {"Points": [{"co": {"Y": 0.0, "X": 1.0}, "interpolation": 2}]}, "volume": {"Points": [{"co": {"Y": 1.0, "X": 1.0}, "interpolation": 2}]}, "start": 0, "end": 17.416666666666668, "title": "!100-Average Marks.mkv", "crop_y": {"Points": [{"co": {"Y": 0.0, "X": 1.0}, "interpolation": 2}]}, "reader": {"video_stream_index": 0, "video_length": "925", "interlaced_frame": false, "audio_bit_rate": 0, "audio_timebase": {"den": 1, "num": 1}, "vcodec": "h264", "channels": 0, "has_video": true, "channel_layout": 4, "has_audio": false, "video_timebase": {"den": 1000, "num": 1}, "has_single_image": false, "acodec": "", "video_bit_rate": 0, "display_ratio": {"den": 186, "num": 325}, "audio_stream_index": -1, "type": "FFmpegReader", "top_field_first": true, "width": 1300, "pixel_ratio": {"den": 1, "num": 1}, "height": 744, "duration": 37.0, "file_size": "281401", "path": "/home/milind/Data/Projects/ProgressCard/!100-Average Marks.mkv", "fps": {"den": 1, "num": 25}, "pixel_format": 0, "sample_rate": 0}, "layer": 1, "has_video": {"Points": [{"co": {"Y": -1.0, "X": 1.0}, "interpolation": 2}]}, "has_audio": {"Points": [{"co": {"Y": -1.0, "X": 1.0}, "interpolation": 2}]}, "channel_mapping": {"Points": [{"co": {"Y": -1.0, "X": 1.0}, "interpolation": 2}]}, "perspective_c3_y": {"Points": [{"co": {"Y": -1.0, "X": 1.0}, "interpolation": 2}]}, "waveform": false, "perspective_c3_x": {"Points": [{"co": {"Y": -1.0, "X": 1.0}, "interpolation": 2}]}, "scale_x": {"Points": [{"co": {"Y": 2.299999952316284, "X": 1.0}, "interpolation": 2}]}, "location_x": {"Points": [{"co": {"Y": -0.07999999821186066, "X": 1.0}, "interpolation": 2}]}, "location_y": {"Points": [{"co": {"Y": 0.5199999809265137, "X": 1.0}, "interpolation": 2}]}, "shear_y": {"Points": [{"co": {"Y": 0.0, "X": 1.0}, "interpolation": 2}]}, "perspective_c2_y": {"Points": [{"co": {"Y": -1.0, "X": 1.0}, "interpolation": 2}]}, "perspective_c1_y": {"Points": [{"co": {"Y": -1.0, "X": 1.0}, "interpolation": 2}]}, "rotation": {"Points": [{"co": {"Y": 0.0, "X": 1.0}, "interpolation": 2}]}, "perspective_c4_y": {"Points": [{"co": {"Y": -1.0, "X": 1.0}, "interpolation": 2}]}, "duration": 18.0, "wave_color": {"red": {"Points": [{"handle_right": {"Y": 0.0, "X": 0.5}, "handle_type": 0, "handle_left": {"Y": 1.0, "X": 0.5}, "co": {"Y": 0.0, "X": 1.0}, "interpolation": 0}]}, "green": {"Points": [{"handle_right": {"Y": 0.0, "X": 0.5}, "handle_type": 0, "handle_left": {"Y": 1.0, "X": 0.5}, "co": {"Y": 123.0, "X": 1.0}, "interpolation": 0}]}, "blue": {"Points": [{"handle_right": {"Y": 0.0, "X": 0.5}, "handle_type": 0, "handle_left": {"Y": 1.0, "X": 0.5}, "co": {"Y": 255.0, "X": 1.0}, "interpolation": 0}]}, "alpha": {"Points": [{"handle_right": {"Y": 0.0, "X": 0.5}, "handle_type": 0, "handle_left": {"Y": 1.0, "X": 0.5}, "co": {"Y": 255.0, "X": 1.0}, "interpolation": 0}]}}, "time": {"Points": [{"co": {"Y": 1, "X": 1}, "interpolation": 1}, {"co": {"Y": 835, "X": 418}, "interpolation": 1}]}, "crop_height": {"Points": [{"co": {"Y": -1.0, "X": 1.0}, "interpolation": 2}]}, "scale_y": {"Points": [{"co": {"Y": 2.299999952316284, "X": 1.0}, "interpolation": 2}]}, "effects": []}, {"location_x": {"Points": [{"co": {"Y": 0.0, "X": 1.0}, "interpolation": 2}]}, "perspective_c3_x": {"Points": [{"co": {"Y": -1.0, "X": 1.0}, "interpolation": 2}]}, "perspective_c4_x": {"Points": [{"co": {"Y": -1.0, "X": 1.0}, "interpolation": 2}]}, "channel_filter": {"Points": [{"co": {"Y": -1.0, "X": 1.0}, "interpolation": 2}]}, "perspective_c2_x": {"Points": [{"co": {"Y": -1.0, "X": 1.0}, "interpolation": 2}]}, "perspective_c1_x": {"Points": [{"co": {"Y": -1.0, "X": 1.0}, "interpolation": 2}]}, "anchor": 0, "alpha": {"Points": [{"co": {"Y": 1.0, "X": 1.0}, "interpolation": 2}]}, "id": "XUROHR8TBC", "layer": 0, "file_id": "0F0RWXSQM9", "display": 0, "scale": 1, "gravity": 4, "crop_width": {"Points": [{"co": {"Y": -1.0, "X": 1.0}, "interpolation": 2}]}, "crop_x": {"Points": [{"co": {"Y": 0.0, "X": 1.0}, "interpolation": 2}]}, "shear_x": {"Points": [{"co": {"Y": 0.0, "X": 1.0}, "interpolation": 2}]}, "volume": {"Points": [{"co": {"Y": 1.0, "X": 1.0}, "interpolation": 2}]}, "start": 0, "rotation": {"Points": [{"co": {"Y": 0.0, "X": 1.0}, "interpolation": 2}]}, "reader": {"video_stream_index": -1, "video_length": "2592000", "interlaced_frame": false, "audio_bit_rate": 0, "audio_timebase": {"den": 1, "num": 1}, "vcodec": "", "channels": 0, "has_video": true, "channel_layout": 4, "has_audio": false, "video_timebase": {"den": 30, "num": 1}, "has_single_image": true, "acodec": "", "video_bit_rate": 0, "display_ratio": {"den": 9, "num": 16}, "audio_stream_index": -1, "type": "QtImageReader", "top_field_first": true, "width": 1920, "pixel_ratio": {"den": 1, "num": 1}, "height": 1080, "duration": 86400.0, "file_size": "8294400", "path": "/home/milind/Data/Projects/ProgressCard/!000-White-Background.svg", "fps": {"den": 1, "num": 30}, "pixel_format": -1, "sample_rate": 0}, "position": 173.20078124999998, "has_video": {"Points": [{"co": {"Y": -1.0, "X": 1.0}, "interpolation": 2}]}, "has_audio": {"Points": [{"co": {"Y": -1.0, "X": 1.0}, "interpolation": 2}]}, "channel_mapping": {"Points": [{"co": {"Y": -1.0, "X": 1.0}, "interpolation": 2}]}, "shear_y": {"Points": [{"co": {"Y": 0.0, "X": 1.0}, "interpolation": 2}]}, "perspective_c3_y": {"Points": [{"co": {"Y": -1.0, "X": 1.0}, "interpolation": 2}]}, "waveform": false, "end": 10, "scale_x": {"Points": [{"co": {"Y": 1.0, "X": 1.0}, "interpolation": 2}]}, "image": "/home/milind/.openshot_qt/thumbnail/0F0RWXSQM9.png", "location_y": {"Points": [{"co": {"Y": 0.0, "X": 1.0}, "interpolation": 2}]}, "crop_y": {"Points": [{"co": {"Y": 0.0, "X": 1.0}, "interpolation": 2}]}, "perspective_c2_y": {"Points": [{"co": {"Y": -1.0, "X": 1.0}, "interpolation": 2}]}, "perspective_c1_y": {"Points": [{"co": {"Y": -1.0, "X": 1.0}, "interpolation": 2}]}, "title": "!000-White-Background.svg", "perspective_c4_y": {"Points": [{"co": {"Y": -1.0, "X": 1.0}, "interpolation": 2}]}, "duration": 86400.0, "wave_color": {"red": {"Points": [{"handle_right": {"Y": 0.0, "X": 0.5}, "handle_type": 0, "handle_left": {"Y": 1.0, "X": 0.5}, "co": {"Y": 0.0, "X": 1.0}, "interpolation": 0}]}, "green": {"Points": [{"handle_right": {"Y": 0.0, "X": 0.5}, "handle_type": 0, "handle_left": {"Y": 1.0, "X": 0.5}, "co": {"Y": 123.0, "X": 1.0}, "interpolation": 0}]}, "blue": {"Points": [{"handle_right": {"Y": 0.0, "X": 0.5}, "handle_type": 0, "handle_left": {"Y": 1.0, "X": 0.5}, "co": {"Y": 255.0, "X": 1.0}, "interpolation": 0}]}, "alpha": {"Points": [{"handle_right": {"Y": 0.0, "X": 0.5}, "handle_type": 0, "handle_left": {"Y": 1.0, "X": 0.5}, "co": {"Y": 255.0, "X": 1.0}, "interpolation": 0}]}}, "time": {"Points": [{"co": {"Y": 1.0, "X": 1.0}, "interpolation": 2}]}, "crop_height": {"Points": [{"co": {"Y": -1.0, "X": 1.0}, "interpolation": 2}]}, "scale_y": {"Points": [{"co": {"Y": 1.0, "X": 1.0}, "interpolation": 2}]}, "effects": []}, {"location_x": {"Points": [{"handle_right": {"Y": 0.0, "X": 0.5}, "handle_type": 0, "handle_left": {"Y": 1.0, "X": 0.5}, "co": {"Y": 0.0, "X": 1.0}, "interpolation": 0}]}, "perspective_c3_x": {"Points": [{"co": {"Y": -1.0, "X": 1.0}, "interpolation": 2}]}, "perspective_c4_x": {"Points": [{"co": {"Y": -1.0, "X": 1.0}, "interpolation": 2}]}, "channel_filter": {"Points": [{"co": {"Y": -1.0, "X": 1.0}, "interpolation": 2}]}, "perspective_c2_x": {"Points": [{"co": {"Y": -1.0, "X": 1.0}, "interpolation": 2}]}, "perspective_c1_x": {"Points": [{"co": {"Y": -1.0, "X": 1.0}, "interpolation": 2}]}, "anchor": 0, "alpha": {"Points": [{"co": {"Y": 1.0, "X": 1.0}, "interpolation": 2}, {"handle_right": {"Y": 0.0, "X": 0.5}, "handle_type": 0, "handle_left": {"Y": 1.0, "X": 0.5}, "co": {"Y": 0.0, "X": 1.0}, "interpolation": 0}, {"handle_right": {"Y": 0.0, "X": 0.5}, "handle_type": 0, "handle_left": {"Y": 1.0, "X": 0.5}, "co": {"Y": 1.0, "X": 73.0}, "interpolation": 0}]}, "id": "UUTCPBA7W2", "layer": 2, "file_id": "A5ENU0DW4J", "display": 0, "scale": 1, "gravity": 4, "crop_width": {"Points": [{"co": {"Y": -1.0, "X": 1.0}, "interpolation": 2}]}, "crop_x": {"Points": [{"co": {"Y": 0.0, "X": 1.0}, "interpolation": 2}]}, "shear_x": {"Points": [{"co": {"Y": 0.0, "X": 1.0}, "interpolation": 2}]}, "volume": {"Points": [{"co": {"Y": 1.0, "X": 1.0}, "interpolation": 2}]}, "start": 0, "rotation": {"Points": [{"co": {"Y": 0.0, "X": 1.0}, "interpolation": 2}]}, "reader": {"video_stream_index": 0, "video_length": "500", "interlaced_frame": false, "audio_bit_rate": 0, "audio_timebase": {"den": 1, "num": 1}, "vcodec": "h264", "channels": 0, "has_video": true, "channel_layout": 4, "has_audio": false, "video_timebase": {"den": 1000, "num": 1}, "has_single_image": false, "acodec": "", "video_bit_rate": 0, "display_ratio": {"den": 186, "num": 325}, "audio_stream_index": -1, "type": "FFmpegReader", "top_field_first": true, "width": 1300, "pixel_ratio": {"den": 1, "num": 1}, "height": 744, "duration": 20.0, "file_size": "204468", "path": "/home/milind/Data/Projects/ProgressCard/!110-Float Format Dialog.mkv", "fps": {"den": 1, "num": 25}, "pixel_format": 0, "sample_rate": 0}, "position": 140.15171875, "has_video": {"Points": [{"co": {"Y": -1.0, "X": 1.0}, "interpolation": 2}]}, "has_audio": {"Points": [{"co": {"Y": -1.0, "X": 1.0}, "interpolation": 2}]}, "channel_mapping": {"Points": [{"co": {"Y": -1.0, "X": 1.0}, "interpolation": 2}]}, "shear_y": {"Points": [{"co": {"Y": 0.0, "X": 1.0}, "interpolation": 2}]}, "perspective_c3_y": {"Points": [{"co": {"Y": -1.0, "X": 1.0}, "interpolation": 2}]}, "waveform": false, "end": 13.523333333333312, "scale_x": {"Points": [{"handle_right": {"Y": 0.0, "X": 0.5}, "handle_type": 0, "handle_left": {"Y": 1.0, "X": 0.5}, "co": {"Y": 1.5, "X": 1.0}, "interpolation": 0}]}, "image": "/home/milind/.openshot_qt/thumbnail/A5ENU0DW4J.png", "location_y": {"Points": [{"handle_right": {"Y": 0.0, "X": 0.5}, "handle_type": 0, "handle_left": {"Y": 1.0, "X": 0.5}, "co": {"Y": 0.0, "X": 1.0}, "interpolation": 0}]}, "crop_y": {"Points": [{"co": {"Y": 0.0, "X": 1.0}, "interpolation": 2}]}, "perspective_c2_y": {"Points": [{"co": {"Y": -1.0, "X": 1.0}, "interpolation": 2}]}, "perspective_c1_y": {"Points": [{"co": {"Y": -1.0, "X": 1.0}, "interpolation": 2}]}, "title": "!110-Float Format Dialog.mkv", "perspective_c4_y": {"Points": [{"co": {"Y": -1.0, "X": 1.0}, "interpolation": 2}]}, "duration": 20.0, "wave_color": {"red": {"Points": [{"handle_right": {"Y": 0.0, "X": 0.5}, "handle_type": 0, "handle_left": {"Y": 1.0, "X": 0.5}, "co": {"Y": 0.0, "X": 1.0}, "interpolation": 0}]}, "green": {"Points": [{"handle_right": {"Y": 0.0, "X": 0.5}, "handle_type": 0, "handle_left": {"Y": 1.0, "X": 0.5}, "co": {"Y": 123.0, "X": 1.0}, "interpolation": 0}]}, "blue": {"Points": [{"handle_right": {"Y": 0.0, "X": 0.5}, "handle_type": 0, "handle_left": {"Y": 1.0, "X": 0.5}, "co": {"Y": 255.0, "X": 1.0}, "interpolation": 0}]}, "alpha": {"Points": [{"handle_right": {"Y": 0.0, "X": 0.5}, "handle_type": 0, "handle_left": {"Y": 1.0, "X": 0.5}, "co": {"Y": 255.0, "X": 1.0}, "interpolation": 0}]}}, "time": {"Points": [{"co": {"Y": 1.0, "X": 1.0}, "interpolation": 2}]}, "crop_height": {"Points": [{"co": {"Y": -1.0, "X": 1.0}, "interpolation": 2}]}, "scale_y": {"Points": [{"handle_right": {"Y": 0.0, "X": 0.5}, "handle_type": 0, "handle_left": {"Y": 1.0, "X": 0.5}, "co": {"Y": 1.5, "X": 1.0}, "interpolation": 0}]}, "effects": []}, {"location_x": {"Points": [{"co": {"Y": 0.0, "X": 1.0}, "interpolation": 2}]}, "perspective_c3_x": {"Points": [{"co": {"Y": -1.0, "X": 1.0}, "interpolation": 2}]}, "perspective_c4_x": {"Points": [{"co": {"Y": -1.0, "X": 1.0}, "interpolation": 2}]}, "channel_filter": {"Points": [{"co": {"Y": -1.0, "X": 1.0}, "interpolation": 2}]}, "perspective_c2_x": {"Points": [{"co": {"Y": -1.0, "X": 1.0}, "interpolation": 2}]}, "perspective_c1_x": {"Points": [{"co": {"Y": -1.0, "X": 1.0}, "interpolation": 2}]}, "anchor": 0, "alpha": {"Points": [{"co": {"Y": 1.0, "X": 1.0}, "interpolation": 2}]}, "id": "HGE2JUKOAI", "layer": 0, "file_id": "0F0RWXSQM9", "display": 0, "scale": 1, "gravity": 4, "crop_width": {"Points": [{"co": {"Y": -1.0, "X": 1.0}, "interpolation": 2}]}, "crop_x": {"Points": [{"co": {"Y": 0.0, "X": 1.0}, "interpolation": 2}]}, "shear_x": {"Points": [{"co": {"Y": 0.0, "X": 1.0}, "interpolation": 2}]}, "volume": {"Points": [{"co": {"Y": 1.0, "X": 1.0}, "interpolation": 2}]}, "start": 0, "rotation": {"Points": [{"co": {"Y": 0.0, "X": 1.0}, "interpolation": 2}]}, "reader": {"video_stream_index": -1, "video_length": "2592000", "interlaced_frame": false, "audio_bit_rate": 0, "audio_timebase": {"den": 1, "num": 1}, "vcodec": "", "channels": 0, "has_video": true, "channel_layout": 4, "has_audio": false, "video_timebase": {"den": 30, "num": 1}, "has_single_image": true, "acodec": "", "video_bit_rate": 0, "display_ratio": {"den": 9, "num": 16}, "audio_stream_index": -1, "type": "QtImageReader", "top_field_first": true, "width": 1920, "pixel_ratio": {"den": 1, "num": 1}, "height": 1080, "duration": 86400.0, "file_size": "8294400", "path": "/home/milind/Data/Projects/ProgressCard/!000-White-Background.svg", "fps": {"den": 1, "num": 30}, "pixel_format": -1, "sample_rate": 0}, "position": 262.15859374999997, "has_video": {"Points": [{"co": {"Y": -1.0, "X": 1.0}, "interpolation": 2}]}, "has_audio": {"Points": [{"co": {"Y": -1.0, "X": 1.0}, "interpolation": 2}]}, "channel_mapping": {"Points": [{"co": {"Y": -1.0, "X": 1.0}, "interpolation": 2}]}, "shear_y": {"Points": [{"co": {"Y": 0.0, "X": 1.0}, "interpolation": 2}]}, "perspective_c3_y": {"Points": [{"co": {"Y": -1.0, "X": 1.0}, "interpolation": 2}]}, "waveform": false, "end": 10, "scale_x": {"Points": [{"co": {"Y": 1.0, "X": 1.0}, "interpolation": 2}]}, "image": "/home/milind/.openshot_qt/thumbnail/0F0RWXSQM9.png", "location_y": {"Points": [{"co": {"Y": 0.0, "X": 1.0}, "interpolation": 2}]}, "crop_y": {"Points": [{"co": {"Y": 0.0, "X": 1.0}, "interpolation": 2}]}, "perspective_c2_y": {"Points": [{"co": {"Y": -1.0, "X": 1.0}, "interpolation": 2}]}, "perspective_c1_y": {"Points": [{"co": {"Y": -1.0, "X": 1.0}, "interpolation": 2}]}, "title": "!000-White-Background.svg", "perspective_c4_y": {"Points": [{"co": {"Y": -1.0, "X": 1.0}, "interpolation": 2}]}, "duration": 86400.0, "wave_color": {"red": {"Points": [{"handle_right": {"Y": 0.0, "X": 0.5}, "handle_type": 0, "handle_left": {"Y": 1.0, "X": 0.5}, "co": {"Y": 0.0, "X": 1.0}, "interpolation": 0}]}, "green": {"Points": [{"handle_right": {"Y": 0.0, "X": 0.5}, "handle_type": 0, "handle_left": {"Y": 1.0, "X": 0.5}, "co": {"Y": 123.0, "X": 1.0}, "interpolation": 0}]}, "blue": {"Points": [{"handle_right": {"Y": 0.0, "X": 0.5}, "handle_type": 0, "handle_left": {"Y": 1.0, "X": 0.5}, "co": {"Y": 255.0, "X": 1.0}, "interpolation": 0}]}, "alpha": {"Points": [{"handle_right": {"Y": 0.0, "X": 0.5}, "handle_type": 0, "handle_left": {"Y": 1.0, "X": 0.5}, "co": {"Y": 255.0, "X": 1.0}, "interpolation": 0}]}}, "time": {"Points": [{"co": {"Y": 1.0, "X": 1.0}, "interpolation": 2}]}, "crop_height": {"Points": [{"co": {"Y": -1.0, "X": 1.0}, "interpolation": 2}]}, "scale_y": {"Points": [{"co": {"Y": 1.0, "X": 1.0}, "interpolation": 2}]}, "effects": []}, {"location_x": {"Points": [{"co": {"Y": 0.0, "X": 1.0}, "interpolation": 2}]}, "perspective_c4_x": {"Points": [{"co": {"Y": -1.0, "X": 1.0}, "interpolation": 2}]}, "channel_filter": {"Points": [{"co": {"Y": -1.0, "X": 1.0}, "interpolation": 2}]}, "duration": 15.0, "perspective_c1_x": {"Points": [{"co": {"Y": -1.0, "X": 1.0}, "interpolation": 2}]}, "perspective_c2_x": {"Points": [{"co": {"Y": -1.0, "X": 1.0}, "interpolation": 2}]}, "alpha": {"Points": [{"handle_right": {"Y": 0.0, "X": 0.5}, "handle_type": 0, "handle_left": {"Y": 1.0, "X": 0.5}, "co": {"Y": 1.0, "X": 1.0}, "interpolation": 0}, {"handle_right": {"Y": 0.0, "X": 0.5}, "handle_type": 0, "handle_left": {"Y": 1.0, "X": 0.5}, "co": {"Y": 0.0, "X": 1.0}, "interpolation": 0}, {"handle_right": {"Y": 0.0, "X": 0.5}, "handle_type": 0, "handle_left": {"Y": 1.0, "X": 0.5}, "co": {"Y": 1.0, "X": 73.0}, "interpolation": 0}, {"handle_right": {"Y": 0.0, "X": 0.5}, "handle_type": 0, "handle_left": {"Y": 1.0, "X": 0.5}, "co": {"Y": 1.0, "X": 183.0}, "interpolation": 0}, {"handle_right": {"Y": 0.0, "X": 0.5}, "handle_type": 0, "handle_left": {"Y": 1.0, "X": 0.5}, "co": {"Y": 0.0, "X": 255.0}, "interpolation": 0}]}, "id": "O0H3RPMELI", "layer": 3, "display": 0, "scale": 1, "gravity": 4, "crop_width": {"Points": [{"co": {"Y": -1.0, "X": 1.0}, "interpolation": 2}]}, "crop_x": {"Points": [{"co": {"Y": 0.0, "X": 1.0}, "interpolation": 2}]}, "shear_x": {"Points": [{"co": {"Y": 0.0, "X": 1.0}, "interpolation": 2}]}, "volume": {"Points": [{"co": {"Y": 1.0, "X": 1.0}, "interpolation": 2}]}, "has_audio": {"Points": [{"co": {"Y": -1.0, "X": 1.0}, "interpolation": 2}]}, "end": 10.595000000000027, "title": "!120-Two Decimal Format.mkv", "crop_y": {"Points": [{"co": {"Y": 0.0, "X": 1.0}, "interpolation": 2}]}, "reader": {"video_stream_index": 0, "video_length": "375", "interlaced_frame": false, "audio_bit_rate": 0, "audio_timebase": {"den": 1, "num": 1}, "vcodec": "h264", "channels": 0, "has_video": true, "channel_layout": 4, "has_audio": false, "video_timebase": {"den": 1000, "num": 1}, "has_single_image": false, "acodec": "", "video_bit_rate": 0, "display_ratio": {"den": 186, "num": 325}, "audio_stream_index": -1, "type": "FFmpegReader", "top_field_first": true, "width": 1300, "pixel_ratio": {"den": 1, "num": 1}, "height": 744, "duration": 15.0, "file_size": "187523", "path": "/home/milind/Data/Projects/ProgressCard/!120-Two Decimal Format.mkv", "fps": {"den": 1, "num": 25}, "pixel_format": 0, "sample_rate": 0}, "position": 152.00921875, "has_video": {"Points": [{"co": {"Y": -1.0, "X": 1.0}, "interpolation": 2}]}, "start": 0, "channel_mapping": {"Points": [{"co": {"Y": -1.0, "X": 1.0}, "interpolation": 2}]}, "shear_y": {"Points": [{"co": {"Y": 0.0, "X": 1.0}, "interpolation": 2}]}, "perspective_c3_y": {"Points": [{"co": {"Y": -1.0, "X": 1.0}, "interpolation": 2}]}, "waveform": false, "perspective_c3_x": {"Points": [{"co": {"Y": -1.0, "X": 1.0}, "interpolation": 2}]}, "scale_x": {"Points": [{"co": {"Y": 1.5, "X": 1.0}, "interpolation": 2}]}, "image": "/home/milind/.openshot_qt/thumbnail/UGJYEMW42F.png", "location_y": {"Points": [{"co": {"Y": 0.0, "X": 1.0}, "interpolation": 2}]}, "file_id": "UGJYEMW42F", "perspective_c2_y": {"Points": [{"co": {"Y": -1.0, "X": 1.0}, "interpolation": 2}]}, "perspective_c1_y": {"Points": [{"co": {"Y": -1.0, "X": 1.0}, "interpolation": 2}]}, "rotation": {"Points": [{"co": {"Y": 0.0, "X": 1.0}, "interpolation": 2}]}, "perspective_c4_y": {"Points": [{"co": {"Y": -1.0, "X": 1.0}, "interpolation": 2}]}, "anchor": 0, "wave_color": {"red": {"Points": [{"handle_right": {"Y": 0.0, "X": 0.5}, "handle_type": 0, "handle_left": {"Y": 1.0, "X": 0.5}, "co": {"Y": 0.0, "X": 1.0}, "interpolation": 0}]}, "green": {"Points": [{"handle_right": {"Y": 0.0, "X": 0.5}, "handle_type": 0, "handle_left": {"Y": 1.0, "X": 0.5}, "co": {"Y": 123.0, "X": 1.0}, "interpolation": 0}]}, "blue": {"Points": [{"handle_right": {"Y": 0.0, "X": 0.5}, "handle_type": 0, "handle_left": {"Y": 1.0, "X": 0.5}, "co": {"Y": 255.0, "X": 1.0}, "interpolation": 0}]}, "alpha": {"Points": [{"handle_right": {"Y": 0.0, "X": 0.5}, "handle_type": 0, "handle_left": {"Y": 1.0, "X": 0.5}, "co": {"Y": 255.0, "X": 1.0}, "interpolation": 0}]}}, "time": {"Points": [{"co": {"Y": 1.0, "X": 1.0}, "interpolation": 2}]}, "crop_height": {"Points": [{"co": {"Y": -1.0, "X": 1.0}, "interpolation": 2}]}, "scale_y": {"Points": [{"co": {"Y": 1.5, "X": 1.0}, "interpolation": 2}]}, "effects": []}, {"location_x": {"Points": [{"handle_right": {"Y": 0.0, "X": 0.5}, "handle_type": 0, "handle_left": {"Y": 1.0, "X": 0.5}, "co": {"Y": 0.5299999713897705, "X": 1.0}, "interpolation": 0}, {"co": {"Y": -0.019999999552965164, "X": 121}, "interpolation": 1}]}, "perspective_c3_x": {"Points": [{"co": {"Y": -1.0, "X": 1.0}, "interpolation": 2}]}, "perspective_c4_x": {"Points": [{"co": {"Y": -1.0, "X": 1.0}, "interpolation": 2}]}, "channel_filter": {"Points": [{"co": {"Y": -1.0, "X": 1.0}, "interpolation": 2}]}, "perspective_c2_x": {"Points": [{"co": {"Y": -1.0, "X": 1.0}, "interpolation": 2}]}, "perspective_c1_x": {"Points": [{"co": {"Y": -1.0, "X": 1.0}, "interpolation": 2}]}, "anchor": 0, "alpha": {"Points": [{"handle_right": {"Y": 0, "X": 0.5}, "handle_type": 0, "handle_left": {"Y": 1, "X": 0.5}, "co": {"Y": 1, "X": 1}, "interpolation": 0}, {"handle_right": {"Y": 0, "X": 0.5}, "handle_type": 0, "handle_left": {"Y": 1, "X": 0.5}, "co": {"Y": 0, "X": 1}, "interpolation": 0}, {"handle_right": {"Y": 0, "X": 0.5}, "handle_type": 0, "handle_left": {"Y": 1, "X": 0.5}, "co": {"Y": 1, "X": 73}, "interpolation": 0}, {"handle_right": {"Y": 0, "X": 0.5}, "handle_type": 0, "handle_left": {"Y": 1, "X": 0.5}, "co": {"Y": 1, "X": 2057}, "interpolation": 0}, {"handle_right": {"Y": 0, "X": 0.5}, "handle_type": 0, "handle_left": {"Y": 1, "X": 0.5}, "co": {"Y": 0, "X": 2129}, "interpolation": 0}]}, "id": "1W8DREEE59", "layer": 1, "file_id": "616P05WPS9", "display": 0, "scale": 1, "gravity": 4, "crop_width": {"Points": [{"co": {"Y": -1.0, "X": 1.0}, "interpolation": 2}]}, "crop_x": {"Points": [{"co": {"Y": 0.0, "X": 1.0}, "interpolation": 2}]}, "shear_x": {"Points": [{"co": {"Y": 0.0, "X": 1.0}, "interpolation": 2}]}, "volume": {"Points": [{"co": {"Y": 1.0, "X": 1.0}, "interpolation": 2}]}, "start": 0, "rotation": {"Points": [{"co": {"Y": 0.0, "X": 1.0}, "interpolation": 2}]}, "reader": {"video_stream_index": 0, "video_length": "4525", "interlaced_frame": false, "audio_bit_rate": 0, "audio_timebase": {"den": 1, "num": 1}, "vcodec": "h264", "channels": 0, "has_video": true, "channel_layout": 4, "has_audio": false, "video_timebase": {"den": 1000, "num": 1}, "has_single_image": false, "acodec": "", "video_bit_rate": 0, "display_ratio": {"den": 186, "num": 325}, "audio_stream_index": -1, "type": "FFmpegReader", "top_field_first": true, "width": 1300, "pixel_ratio": {"den": 1, "num": 1}, "height": 744, "duration": 181.0, "file_size": "1502027", "path": "/home/milind/Data/Projects/ProgressCard/!140-Grade Formula.mkv", "fps": {"den": 1, "num": 25}, "pixel_format": 0, "sample_rate": 0}, "position": 177.65796874999998, "has_video": {"Points": [{"co": {"Y": -1.0, "X": 1.0}, "interpolation": 2}]}, "has_audio": {"Points": [{"co": {"Y": -1.0, "X": 1.0}, "interpolation": 2}]}, "channel_mapping": {"Points": [{"co": {"Y": -1.0, "X": 1.0}, "interpolation": 2}]}, "shear_y": {"Points": [{"co": {"Y": 0.0, "X": 1.0}, "interpolation": 2}]}, "perspective_c3_y": {"Points": [{"co": {"Y": -1.0, "X": 1.0}, "interpolation": 2}]}, "waveform": false, "end": 88.66666666666667, "scale_x": {"Points": [{"handle_right": {"Y": 0.0, "X": 0.5}, "handle_type": 0, "handle_left": {"Y": 1.0, "X": 0.5}, "co": {"Y": 2.299999952316284, "X": 1.0}, "interpolation": 0}, {"co": {"Y": 1.7000000476837158, "X": 121}, "interpolation": 1}]}, "image": "/home/milind/.openshot_qt/thumbnail/616P05WPS9.png", "location_y": {"Points": [{"handle_right": {"Y": 0.0, "X": 0.5}, "handle_type": 0, "handle_left": {"Y": 1.0, "X": 0.5}, "co": {"Y": 0.5199999809265137, "X": 1.0}, "interpolation": 0}, {"co": {"Y": 0.30000001192092896, "X": 121}, "interpolation": 1}]}, "crop_y": {"Points": [{"co": {"Y": 0.0, "X": 1.0}, "interpolation": 2}]}, "perspective_c2_y": {"Points": [{"co": {"Y": -1.0, "X": 1.0}, "interpolation": 2}]}, "perspective_c1_y": {"Points": [{"co": {"Y": -1.0, "X": 1.0}, "interpolation": 2}]}, "title": "!140-Grade Formula.mkv", "perspective_c4_y": {"Points": [{"co": {"Y": -1.0, "X": 1.0}, "interpolation": 2}]}, "duration": 90.0, "wave_color": {"red": {"Points": [{"handle_right": {"Y": 0.0, "X": 0.5}, "handle_type": 0, "handle_left": {"Y": 1.0, "X": 0.5}, "co": {"Y": 0.0, "X": 1.0}, "interpolation": 0}]}, "green": {"Points": [{"handle_right": {"Y": 0.0, "X": 0.5}, "handle_type": 0, "handle_left": {"Y": 1.0, "X": 0.5}, "co": {"Y": 123.0, "X": 1.0}, "interpolation": 0}]}, "blue": {"Points": [{"handle_right": {"Y": 0.0, "X": 0.5}, "handle_type": 0, "handle_left": {"Y": 1.0, "X": 0.5}, "co": {"Y": 255.0, "X": 1.0}, "interpolation": 0}]}, "alpha": {"Points": [{"handle_right": {"Y": 0.0, "X": 0.5}, "handle_type": 0, "handle_left": {"Y": 1.0, "X": 0.5}, "co": {"Y": 255.0, "X": 1.0}, "interpolation": 0}]}}, "time": {"Points": [{"co": {"Y": 1, "X": 1}, "interpolation": 1}, {"co": {"Y": 4255, "X": 2128}, "interpolation": 1}]}, "crop_height": {"Points": [{"co": {"Y": -1.0, "X": 1.0}, "interpolation": 2}]}, "scale_y": {"Points": [{"handle_right": {"Y": 0.0, "X": 0.5}, "handle_type": 0, "handle_left": {"Y": 1.0, "X": 0.5}, "co": {"Y": 2.299999952316284, "X": 1.0}, "interpolation": 0}, {"co": {"Y": 1.7000000476837158, "X": 121}, "interpolation": 1}]}, "effects": []}, {"location_x": {"Points": [{"co": {"Y": 0.0, "X": 1.0}, "interpolation": 2}, {"co": {"Y": -0.07999999821186066, "X": 373}, "interpolation": 1}, {"co": {"Y": 0.0, "X": 224}, "interpolation": 1}, {"co": {"Y": 0.0, "X": 617}, "interpolation": 1}]}, "perspective_c3_x": {"Points": [{"co": {"Y": -1.0, "X": 1.0}, "interpolation": 2}]}, "perspective_c4_x": {"Points": [{"co": {"Y": -1.0, "X": 1.0}, "interpolation": 2}]}, "channel_filter": {"Points": [{"co": {"Y": -1.0, "X": 1.0}, "interpolation": 2}]}, "perspective_c2_x": {"Points": [{"co": {"Y": -1.0, "X": 1.0}, "interpolation": 2}]}, "perspective_c1_x": {"Points": [{"co": {"Y": -1.0, "X": 1.0}, "interpolation": 2}]}, "anchor": 0, "alpha": {"Points": [{"co": {"Y": 1.0, "X": 1.0}, "interpolation": 2}, {"handle_right": {"Y": 0.0, "X": 0.5}, "handle_type": 0, "handle_left": {"Y": 1.0, "X": 0.5}, "co": {"Y": 1.0, "X": 545.0}, "interpolation": 0}, {"handle_right": {"Y": 0.0, "X": 0.5}, "handle_type": 0, "handle_left": {"Y": 1.0, "X": 0.5}, "co": {"Y": 0.0, "X": 617.0}, "interpolation": 0}]}, "id": "3KRS4J70ZV", "layer": 1, "file_id": "2202V21TTZ", "display": 0, "scale": 1, "gravity": 4, "crop_width": {"Points": [{"co": {"Y": -1.0, "X": 1.0}, "interpolation": 2}]}, "crop_x": {"Points": [{"co": {"Y": 0.0, "X": 1.0}, "interpolation": 2}]}, "shear_x": {"Points": [{"co": {"Y": 0.0, "X": 1.0}, "interpolation": 2}, {"co": {"Y": 0.0, "X": 373}, "interpolation": 1}]}, "volume": {"Points": [{"co": {"Y": 1.0, "X": 1.0}, "interpolation": 2}]}, "start": 0, "rotation": {"Points": [{"co": {"Y": 0.0, "X": 1.0}, "interpolation": 2}]}, "reader": {"video_stream_index": 0, "video_length": "725", "interlaced_frame": false, "audio_bit_rate": 0, "audio_timebase": {"den": 1, "num": 1}, "vcodec": "h264", "channels": 0, "has_video": true, "channel_layout": 4, "has_audio": false, "video_timebase": {"den": 1000, "num": 1}, "has_single_image": false, "acodec": "", "video_bit_rate": 0, "display_ratio": {"den": 186, "num": 325}, "audio_stream_index": -1, "type": "FFmpegReader", "top_field_first": true, "width": 1300, "pixel_ratio": {"den": 1, "num": 1}, "height": 744, "duration": 29.0, "file_size": "293155", "path": "/home/milind/Data/Projects/ProgressCard/!130-Copy Average.mkv", "fps": {"den": 1, "num": 25}, "pixel_format": 0, "sample_rate": 0}, "position": 152.00921875, "has_video": {"Points": [{"co": {"Y": -1.0, "X": 1.0}, "interpolation": 2}]}, "has_audio": {"Points": [{"co": {"Y": -1.0, "X": 1.0}, "interpolation": 2}]}, "channel_mapping": {"Points": [{"co": {"Y": -1.0, "X": 1.0}, "interpolation": 2}]}, "shear_y": {"Points": [{"co": {"Y": 0.0, "X": 1.0}, "interpolation": 2}]}, "perspective_c3_y": {"Points": [{"co": {"Y": -1.0, "X": 1.0}, "interpolation": 2}]}, "waveform": false, "end": 25.649999999999977, "scale_x": {"Points": [{"co": {"Y": 1.5, "X": 1.0}, "interpolation": 2}, {"co": {"Y": 2.299999952316284, "X": 373}, "interpolation": 1}, {"co": {"Y": 1.5, "X": 224}, "interpolation": 1}]}, "image": "/home/milind/.openshot_qt/thumbnail/2202V21TTZ.png", "location_y": {"Points": [{"co": {"Y": 0.0, "X": 1.0}, "interpolation": 2}, {"co": {"Y": 0.5199999809265137, "X": 373}, "interpolation": 1}, {"co": {"Y": 0.0, "X": 224}, "interpolation": 1}]}, "crop_y": {"Points": [{"co": {"Y": 0.0, "X": 1.0}, "interpolation": 2}]}, "perspective_c2_y": {"Points": [{"co": {"Y": -1.0, "X": 1.0}, "interpolation": 2}]}, "perspective_c1_y": {"Points": [{"co": {"Y": -1.0, "X": 1.0}, "interpolation": 2}]}, "title": "!130-Copy Average.mkv", "perspective_c4_y": {"Points": [{"co": {"Y": -1.0, "X": 1.0}, "interpolation": 2}]}, "duration": 29.0, "wave_color": {"red": {"Points": [{"handle_right": {"Y": 0.0, "X": 0.5}, "handle_type": 0, "handle_left": {"Y": 1.0, "X": 0.5}, "co": {"Y": 0.0, "X": 1.0}, "interpolation": 0}]}, "green": {"Points": [{"handle_right": {"Y": 0.0, "X": 0.5}, "handle_type": 0, "handle_left": {"Y": 1.0, "X": 0.5}, "co": {"Y": 123.0, "X": 1.0}, "interpolation": 0}]}, "blue": {"Points": [{"handle_right": {"Y": 0.0, "X": 0.5}, "handle_type": 0, "handle_left": {"Y": 1.0, "X": 0.5}, "co": {"Y": 255.0, "X": 1.0}, "interpolation": 0}]}, "alpha": {"Points": [{"handle_right": {"Y": 0.0, "X": 0.5}, "handle_type": 0, "handle_left": {"Y": 1.0, "X": 0.5}, "co": {"Y": 255.0, "X": 1.0}, "interpolation": 0}]}}, "time": {"Points": [{"co": {"Y": 1.0, "X": 1.0}, "interpolation": 2}]}, "crop_height": {"Points": [{"co": {"Y": -1.0, "X": 1.0}, "interpolation": 2}]}, "scale_y": {"Points": [{"co": {"Y": 1.5, "X": 1.0}, "interpolation": 2}, {"co": {"Y": 2.299999952316284, "X": 373}, "interpolation": 1}, {"co": {"Y": 1.5, "X": 224}, "interpolation": 1}]}, "effects": []}, {"location_x": {"Points": [{"co": {"Y": 0.0, "X": 1.0}, "interpolation": 2}]}, "perspective_c3_x": {"Points": [{"co": {"Y": -1.0, "X": 1.0}, "interpolation": 2}]}, "perspective_c4_x": {"Points": [{"co": {"Y": -1.0, "X": 1.0}, "interpolation": 2}]}, "channel_filter": {"Points": [{"co": {"Y": -1.0, "X": 1.0}, "interpolation": 2}]}, "perspective_c2_x": {"Points": [{"co": {"Y": -1.0, "X": 1.0}, "interpolation": 2}]}, "perspective_c1_x": {"Points": [{"co": {"Y": -1.0, "X": 1.0}, "interpolation": 2}]}, "anchor": 0, "alpha": {"Points": [{"co": {"Y": 1.0, "X": 1.0}, "interpolation": 2}]}, "id": "87020DYHA9", "layer": 0, "file_id": "0F0RWXSQM9", "display": 0, "scale": 1, "gravity": 4, "crop_width": {"Points": [{"co": {"Y": -1.0, "X": 1.0}, "interpolation": 2}]}, "crop_x": {"Points": [{"co": {"Y": 0.0, "X": 1.0}, "interpolation": 2}]}, "shear_x": {"Points": [{"co": {"Y": 0.0, "X": 1.0}, "interpolation": 2}]}, "volume": {"Points": [{"co": {"Y": 1.0, "X": 1.0}, "interpolation": 2}]}, "start": 0, "rotation": {"Points": [{"co": {"Y": 0.0, "X": 1.0}, "interpolation": 2}]}, "reader": {"video_stream_index": -1, "video_length": "2592000", "interlaced_frame": false, "audio_bit_rate": 0, "audio_timebase": {"den": 1, "num": 1}, "vcodec": "", "channels": 0, "has_video": true, "channel_layout": 4, "has_audio": false, "video_timebase": {"den": 30, "num": 1}, "has_single_image": true, "acodec": "", "video_bit_rate": 0, "display_ratio": {"den": 9, "num": 16}, "audio_stream_index": -1, "type": "QtImageReader", "top_field_first": true, "width": 1920, "pixel_ratio": {"den": 1, "num": 1}, "height": 1080, "duration": 86400.0, "file_size": "8294400", "path": "/home/milind/Data/Projects/ProgressCard/!000-White-Background.svg", "fps": {"den": 1, "num": 30}, "pixel_format": -1, "sample_rate": 0}, "position": 289.16999999999996, "has_video": {"Points": [{"co": {"Y": -1.0, "X": 1.0}, "interpolation": 2}]}, "has_audio": {"Points": [{"co": {"Y": -1.0, "X": 1.0}, "interpolation": 2}]}, "channel_mapping": {"Points": [{"co": {"Y": -1.0, "X": 1.0}, "interpolation": 2}]}, "shear_y": {"Points": [{"co": {"Y": 0.0, "X": 1.0}, "interpolation": 2}]}, "perspective_c3_y": {"Points": [{"co": {"Y": -1.0, "X": 1.0}, "interpolation": 2}]}, "waveform": false, "end": 9.49, "scale_x": {"Points": [{"co": {"Y": 1.0, "X": 1.0}, "interpolation": 2}]}, "image": "/home/milind/.openshot_qt/thumbnail/0F0RWXSQM9.png", "location_y": {"Points": [{"co": {"Y": 0.0, "X": 1.0}, "interpolation": 2}]}, "crop_y": {"Points": [{"co": {"Y": 0.0, "X": 1.0}, "interpolation": 2}]}, "perspective_c2_y": {"Points": [{"co": {"Y": -1.0, "X": 1.0}, "interpolation": 2}]}, "perspective_c1_y": {"Points": [{"co": {"Y": -1.0, "X": 1.0}, "interpolation": 2}]}, "title": "!000-White-Background.svg", "perspective_c4_y": {"Points": [{"co": {"Y": -1.0, "X": 1.0}, "interpolation": 2}]}, "duration": 86400.0, "wave_color": {"red": {"Points": [{"handle_right": {"Y": 0.0, "X": 0.5}, "handle_type": 0, "handle_left": {"Y": 1.0, "X": 0.5}, "co": {"Y": 0.0, "X": 1.0}, "interpolation": 0}]}, "green": {"Points": [{"handle_right": {"Y": 0.0, "X": 0.5}, "handle_type": 0, "handle_left": {"Y": 1.0, "X": 0.5}, "co": {"Y": 123.0, "X": 1.0}, "interpolation": 0}]}, "blue": {"Points": [{"handle_right": {"Y": 0.0, "X": 0.5}, "handle_type": 0, "handle_left": {"Y": 1.0, "X": 0.5}, "co": {"Y": 255.0, "X": 1.0}, "interpolation": 0}]}, "alpha": {"Points": [{"handle_right": {"Y": 0.0, "X": 0.5}, "handle_type": 0, "handle_left": {"Y": 1.0, "X": 0.5}, "co": {"Y": 255.0, "X": 1.0}, "interpolation": 0}]}}, "time": {"Points": [{"co": {"Y": 1.0, "X": 1.0}, "interpolation": 2}]}, "crop_height": {"Points": [{"co": {"Y": -1.0, "X": 1.0}, "interpolation": 2}]}, "scale_y": {"Points": [{"co": {"Y": 1.0, "X": 1.0}, "interpolation": 2}]}, "effects": []}, {"location_x": {"Points": [{"co": {"Y": -0.019999999552965164, "X": 1}, "interpolation": 2}]}, "perspective_c3_x": {"Points": [{"co": {"Y": -1, "X": 1}, "interpolation": 2}]}, "perspective_c4_x": {"Points": [{"co": {"Y": -1, "X": 1}, "interpolation": 2}]}, "channel_filter": {"Points": [{"co": {"Y": -1, "X": 1}, "interpolation": 2}]}, "perspective_c2_x": {"Points": [{"co": {"Y": -1, "X": 1}, "interpolation": 2}]}, "perspective_c1_x": {"Points": [{"co": {"Y": -1, "X": 1}, "interpolation": 2}]}, "anchor": 0, "alpha": {"Points": [{"handle_right": {"Y": 0, "X": 0.5}, "handle_type": 0, "handle_left": {"Y": 1, "X": 0.5}, "co": {"Y": 1, "X": 1}, "interpolation": 0}, {"handle_right": {"Y": 0, "X": 0.5}, "handle_type": 0, "handle_left": {"Y": 1, "X": 0.5}, "co": {"Y": 0, "X": 1}, "interpolation": 0}, {"handle_right": {"Y": 0, "X": 0.5}, "handle_type": 0, "handle_left": {"Y": 1, "X": 0.5}, "co": {"Y": 1, "X": 73}, "interpolation": 0}, {"handle_right": {"Y": 0, "X": 0.5}, "handle_type": 0, "handle_left": {"Y": 1, "X": 0.5}, "co": {"Y": 1, "X": 644}, "interpolation": 0}, {"handle_right": {"Y": 0, "X": 0.5}, "handle_type": 0, "handle_left": {"Y": 1, "X": 0.5}, "co": {"Y": 0, "X": 716}, "interpolation": 0}]}, "id": "F2MA5NTJGV", "layer": 1, "file_id": "MJ87OKNJXE", "display": 0, "scale": 1, "gravity": 4, "crop_width": {"Points": [{"co": {"Y": -1, "X": 1}, "interpolation": 2}]}, "crop_x": {"Points": [{"co": {"Y": 0, "X": 1}, "interpolation": 2}]}, "shear_x": {"Points": [{"co": {"Y": 0, "X": 1}, "interpolation": 2}]}, "volume": {"Points": [{"co": {"Y": 1, "X": 1}, "interpolation": 2}]}, "start": 0, "rotation": {"Points": [{"co": {"Y": 0, "X": 1}, "interpolation": 2}]}, "reader": {"video_stream_index": 0, "video_length": "1575", "interlaced_frame": false, "audio_bit_rate": 0, "audio_timebase": {"den": 1, "num": 1}, "vcodec": "h264", "channels": 0, "has_video": true, "channel_layout": 4, "has_audio": false, "video_timebase": {"den": 1000, "num": 1}, "has_single_image": false, "acodec": "", "video_bit_rate": 62654, "display_ratio": {"den": 186, "num": 325}, "audio_stream_index": -1, "type": "FFmpegReader", "top_field_first": true, "width": 1300, "pixel_ratio": {"den": 1, "num": 1}, "height": 744, "duration": 63.0, "file_size": "499047", "path": "/home/milind/Data/Projects/ProgressCard/!150-Inserted GRADE in REMARK.mkv", "fps": {"den": 1, "num": 25}, "pixel_format": 0, "sample_rate": 0}, "position": 266.32359375, "has_video": {"Points": [{"co": {"Y": -1, "X": 1}, "interpolation": 2}]}, "has_audio": {"Points": [{"co": {"Y": -1, "X": 1}, "interpolation": 2}]}, "channel_mapping": {"Points": [{"co": {"Y": -1, "X": 1}, "interpolation": 2}]}, "shear_y": {"Points": [{"co": {"Y": 0, "X": 1}, "interpolation": 2}]}, "perspective_c3_y": {"Points": [{"co": {"Y": -1, "X": 1}, "interpolation": 2}]}, "waveform": false, "end": 29.791666666666668, "scale_x": {"Points": [{"co": {"Y": 1.7000000476837158, "X": 1}, "interpolation": 2}]}, "image": "/home/milind/.openshot_qt/thumbnail/MJ87OKNJXE.png", "location_y": {"Points": [{"co": {"Y": 0.30000001192092896, "X": 1}, "interpolation": 2}]}, "crop_y": {"Points": [{"co": {"Y": 0, "X": 1}, "interpolation": 2}]}, "perspective_c2_y": {"Points": [{"co": {"Y": -1, "X": 1}, "interpolation": 2}]}, "perspective_c1_y": {"Points": [{"co": {"Y": -1, "X": 1}, "interpolation": 2}]}, "title": "!150-Inserted GRADE in REMARK.mkv", "perspective_c4_y": {"Points": [{"co": {"Y": -1, "X": 1}, "interpolation": 2}]}, "duration": 30.0, "wave_color": {"red": {"Points": [{"handle_right": {"Y": 0, "X": 0.5}, "handle_type": 0, "handle_left": {"Y": 1, "X": 0.5}, "co": {"Y": 0, "X": 1}, "interpolation": 0}]}, "green": {"Points": [{"handle_right": {"Y": 0, "X": 0.5}, "handle_type": 0, "handle_left": {"Y": 1, "X": 0.5}, "co": {"Y": 123, "X": 1}, "interpolation": 0}]}, "blue": {"Points": [{"handle_right": {"Y": 0, "X": 0.5}, "handle_type": 0, "handle_left": {"Y": 1, "X": 0.5}, "co": {"Y": 255, "X": 1}, "interpolation": 0}]}, "alpha": {"Points": [{"handle_right": {"Y": 0, "X": 0.5}, "handle_type": 0, "handle_left": {"Y": 1, "X": 0.5}, "co": {"Y": 255, "X": 1}, "interpolation": 0}]}}, "time": {"Points": [{"co": {"Y": 1, "X": 1}, "interpolation": 1}, {"co": {"Y": 1429, "X": 715}, "interpolation": 1}]}, "crop_height": {"Points": [{"co": {"Y": -1, "X": 1}, "interpolation": 2}]}, "scale_y": {"Points": [{"co": {"Y": 1.7000000476837158, "X": 1}, "interpolation": 2}]}, "effects": []}, {"location_x": {"Points": [{"co": {"Y": 0, "X": 1}, "interpolation": 2}]}, "perspective_c3_x": {"Points": [{"co": {"Y": -1, "X": 1}, "interpolation": 2}]}, "perspective_c4_x": {"Points": [{"co": {"Y": -1, "X": 1}, "interpolation": 2}]}, "channel_filter": {"Points": [{"co": {"Y": -1, "X": 1}, "interpolation": 2}]}, "perspective_c2_x": {"Points": [{"co": {"Y": -1, "X": 1}, "interpolation": 2}]}, "perspective_c1_x": {"Points": [{"co": {"Y": -1, "X": 1}, "interpolation": 2}]}, "anchor": 0, "alpha": {"Points": [{"co": {"Y": 1, "X": 1}, "interpolation": 2}]}, "id": "04TSZRCDQD", "layer": 0, "file_id": "0F0RWXSQM9", "display": 0, "scale": 1, "gravity": 4, "crop_width": {"Points": [{"co": {"Y": -1, "X": 1}, "interpolation": 2}]}, "crop_x": {"Points": [{"co": {"Y": 0, "X": 1}, "interpolation": 2}]}, "shear_x": {"Points": [{"co": {"Y": 0, "X": 1}, "interpolation": 2}]}, "volume": {"Points": [{"co": {"Y": 1, "X": 1}, "interpolation": 2}]}, "start": 0, "rotation": {"Points": [{"co": {"Y": 0, "X": 1}, "interpolation": 2}]}, "reader": {"video_stream_index": -1, "video_length": "2592000", "interlaced_frame": false, "audio_bit_rate": 0, "audio_timebase": {"den": 1, "num": 1}, "vcodec": "", "channels": 0, "has_video": true, "channel_layout": 4, "has_audio": false, "video_timebase": {"den": 30, "num": 1}, "has_single_image": true, "acodec": "", "video_bit_rate": 0, "display_ratio": {"den": 9, "num": 16}, "audio_stream_index": -1, "type": "QtImageReader", "top_field_first": true, "width": 1920, "pixel_ratio": {"den": 1, "num": 1}, "height": 1080, "duration": 86400.0, "file_size": "8294400", "path": "/home/milind/Data/Projects/ProgressCard/!000-White-Background.svg", "fps": {"den": 1, "num": 30}, "pixel_format": -1, "sample_rate": 0}, "position": 66.13, "has_video": {"Points": [{"co": {"Y": -1, "X": 1}, "interpolation": 2}]}, "has_audio": {"Points": [{"co": {"Y": -1, "X": 1}, "interpolation": 2}]}, "channel_mapping": {"Points": [{"co": {"Y": -1, "X": 1}, "interpolation": 2}]}, "shear_y": {"Points": [{"co": {"Y": 0, "X": 1}, "interpolation": 2}]}, "perspective_c3_y": {"Points": [{"co": {"Y": -1, "X": 1}, "interpolation": 2}]}, "waveform": false, "end": 12.99, "scale_x": {"Points": [{"co": {"Y": 1, "X": 1}, "interpolation": 2}]}, "image": "/home/milind/.openshot_qt/thumbnail/0F0RWXSQM9.png", "location_y": {"Points": [{"co": {"Y": 0, "X": 1}, "interpolation": 2}]}, "crop_y": {"Points": [{"co": {"Y": 0, "X": 1}, "interpolation": 2}]}, "perspective_c2_y": {"Points": [{"co": {"Y": -1, "X": 1}, "interpolation": 2}]}, "perspective_c1_y": {"Points": [{"co": {"Y": -1, "X": 1}, "interpolation": 2}]}, "title": "!000-White-Background.svg", "perspective_c4_y": {"Points": [{"co": {"Y": -1, "X": 1}, "interpolation": 2}]}, "duration": 86400.0, "wave_color": {"red": {"Points": [{"handle_right": {"Y": 0, "X": 0.5}, "handle_type": 0, "handle_left": {"Y": 1, "X": 0.5}, "co": {"Y": 0, "X": 1}, "interpolation": 0}]}, "green": {"Points": [{"handle_right": {"Y": 0, "X": 0.5}, "handle_type": 0, "handle_left": {"Y": 1, "X": 0.5}, "co": {"Y": 123, "X": 1}, "interpolation": 0}]}, "blue": {"Points": [{"handle_right": {"Y": 0, "X": 0.5}, "handle_type": 0, "handle_left": {"Y": 1, "X": 0.5}, "co": {"Y": 255, "X": 1}, "interpolation": 0}]}, "alpha": {"Points": [{"handle_right": {"Y": 0, "X": 0.5}, "handle_type": 0, "handle_left": {"Y": 1, "X": 0.5}, "co": {"Y": 255, "X": 1}, "interpolation": 0}]}}, "time": {"Points": [{"co": {"Y": 1, "X": 1}, "interpolation": 2}]}, "crop_height": {"Points": [{"co": {"Y": -1, "X": 1}, "interpolation": 2}]}, "scale_y": {"Points": [{"co": {"Y": 1, "X": 1}, "interpolation": 2}]}, "effects": []}, {"location_x": {"Points": [{"co": {"Y": 0, "X": 1}, "interpolation": 2}]}, "perspective_c3_x": {"Points": [{"co": {"Y": -1, "X": 1}, "interpolation": 2}]}, "perspective_c4_x": {"Points": [{"co": {"Y": -1, "X": 1}, "interpolation": 2}]}, "channel_filter": {"Points": [{"co": {"Y": -1, "X": 1}, "interpolation": 2}]}, "perspective_c2_x": {"Points": [{"co": {"Y": -1, "X": 1}, "interpolation": 2}]}, "perspective_c1_x": {"Points": [{"co": {"Y": -1, "X": 1}, "interpolation": 2}]}, "anchor": 0, "alpha": {"Points": [{"co": {"Y": 1, "X": 1}, "interpolation": 2}, {"handle_right": {"Y": 0, "X": 0.5}, "handle_type": 0, "handle_left": {"Y": 1, "X": 0.5}, "co": {"Y": 0, "X": 1}, "interpolation": 0}, {"handle_right": {"Y": 0, "X": 0.5}, "handle_type": 0, "handle_left": {"Y": 1, "X": 0.5}, "co": {"Y": 1, "X": 73}, "interpolation": 0}, {"handle_right": {"Y": 0, "X": 0.5}, "handle_type": 0, "handle_left": {"Y": 1, "X": 0.5}, "co": {"Y": 1, "X": 49}, "interpolation": 0}, {"handle_right": {"Y": 0, "X": 0.5}, "handle_type": 0, "handle_left": {"Y": 1, "X": 0.5}, "co": {"Y": 0, "X": 121}, "interpolation": 0}]}, "id": "YVXCHQZADD", "layer": 2, "file_id": "O28Z229VIU", "display": 0, "scale": 1, "gravity": 4, "crop_width": {"Points": [{"co": {"Y": -1, "X": 1}, "interpolation": 2}]}, "crop_x": {"Points": [{"co": {"Y": 0, "X": 1}, "interpolation": 2}]}, "shear_x": {"Points": [{"co": {"Y": 0, "X": 1}, "interpolation": 2}]}, "volume": {"Points": [{"co": {"Y": 1, "X": 1}, "interpolation": 2}]}, "start": 0, "rotation": {"Points": [{"co": {"Y": 0, "X": 1}, "interpolation": 2}]}, "reader": {"video_stream_index": -1, "video_length": "2592000", "interlaced_frame": false, "audio_bit_rate": 0, "audio_timebase": {"den": 1, "num": 1}, "vcodec": "", "channels": 0, "has_video": true, "channel_layout": 4, "has_audio": false, "video_timebase": {"den": 30, "num": 1}, "has_single_image": true, "acodec": "", "video_bit_rate": 0, "display_ratio": {"den": 3827, "num": 6803}, "audio_stream_index": -1, "type": "QtImageReader", "top_field_first": true, "width": 6803, "pixel_ratio": {"den": 1, "num": 1}, "height": 3827, "duration": 86400.0, "file_size": "104140324", "path": "/home/milind/Data/Projects/ProgressCard/!072-Grace Total.svg", "fps": {"den": 1, "num": 30}, "pixel_format": -1, "sample_rate": 0}, "position": 11.708333333333332, "has_video": {"Points": [{"co": {"Y": -1, "X": 1}, "interpolation": 2}]}, "has_audio": {"Points": [{"co": {"Y": -1, "X": 1}, "interpolation": 2}]}, "channel_mapping": {"Points": [{"co": {"Y": -1, "X": 1}, "interpolation": 2}]}, "shear_y": {"Points": [{"co": {"Y": 0, "X": 1}, "interpolation": 2}]}, "perspective_c3_y": {"Points": [{"co": {"Y": -1, "X": 1}, "interpolation": 2}]}, "waveform": false, "end": 5, "scale_x": {"Points": [{"co": {"Y": 1, "X": 1}, "interpolation": 2}]}, "image": "/home/milind/.openshot_qt/thumbnail/O28Z229VIU.png", "location_y": {"Points": [{"co": {"Y": 0, "X": 1}, "interpolation": 2}]}, "crop_y": {"Points": [{"co": {"Y": 0, "X": 1}, "interpolation": 2}]}, "perspective_c2_y": {"Points": [{"co": {"Y": -1, "X": 1}, "interpolation": 2}]}, "perspective_c1_y": {"Points": [{"co": {"Y": -1, "X": 1}, "interpolation": 2}]}, "title": "!072-Grace Total.svg", "perspective_c4_y": {"Points": [{"co": {"Y": -1, "X": 1}, "interpolation": 2}]}, "duration": 86400.0, "wave_color": {"red": {"Points": [{"handle_right": {"Y": 0, "X": 0.5}, "handle_type": 0, "handle_left": {"Y": 1, "X": 0.5}, "co": {"Y": 0, "X": 1}, "interpolation": 0}]}, "green": {"Points": [{"handle_right": {"Y": 0, "X": 0.5}, "handle_type": 0, "handle_left": {"Y": 1, "X": 0.5}, "co": {"Y": 123, "X": 1}, "interpolation": 0}]}, "blue": {"Points": [{"handle_right": {"Y": 0, "X": 0.5}, "handle_type": 0, "handle_left": {"Y": 1, "X": 0.5}, "co": {"Y": 255, "X": 1}, "interpolation": 0}]}, "alpha": {"Points": [{"handle_right": {"Y": 0, "X": 0.5}, "handle_type": 0, "handle_left": {"Y": 1, "X": 0.5}, "co": {"Y": 255, "X": 1}, "interpolation": 0}]}}, "time": {"Points": [{"co": {"Y": 1, "X": 1}, "interpolation": 2}]}, "crop_height": {"Points": [{"co": {"Y": -1, "X": 1}, "interpolation": 2}]}, "scale_y": {"Points": [{"co": {"Y": 1, "X": 1}, "interpolation": 2}]}, "effects": []}, {"location_x": {"Points": [{"co": {"Y": 0, "X": 1}, "interpolation": 2}]}, "perspective_c3_x": {"Points": [{"co": {"Y": -1, "X": 1}, "interpolation": 2}]}, "perspective_c4_x": {"Points": [{"co": {"Y": -1, "X": 1}, "interpolation": 2}]}, "channel_filter": {"Points": [{"co": {"Y": -1, "X": 1}, "interpolation": 2}]}, "perspective_c2_x": {"Points": [{"co": {"Y": -1, "X": 1}, "interpolation": 2}]}, "perspective_c1_x": {"Points": [{"co": {"Y": -1, "X": 1}, "interpolation": 2}]}, "anchor": 0, "alpha": {"Points": [{"co": {"Y": 1, "X": 1}, "interpolation": 2}, {"handle_right": {"Y": 0, "X": 0.5}, "handle_type": 0, "handle_left": {"Y": 1, "X": 0.5}, "co": {"Y": 0, "X": 1}, "interpolation": 0}, {"handle_right": {"Y": 0, "X": 0.5}, "handle_type": 0, "handle_left": {"Y": 1, "X": 0.5}, "co": {"Y": 1, "X": 73}, "interpolation": 0}, {"handle_right": {"Y": 0, "X": 0.5}, "handle_type": 0, "handle_left": {"Y": 1, "X": 0.5}, "co": {"Y": 1, "X": 49}, "interpolation": 0}, {"handle_right": {"Y": 0, "X": 0.5}, "handle_type": 0, "handle_left": {"Y": 1, "X": 0.5}, "co": {"Y": 0, "X": 121}, "interpolation": 0}]}, "id": "GPTZ9M5371", "layer": 2, "file_id": "BUXZX40N2J", "display": 0, "scale": 1, "gravity": 4, "crop_width": {"Points": [{"co": {"Y": -1, "X": 1}, "interpolation": 2}]}, "crop_x": {"Points": [{"co": {"Y": 0, "X": 1}, "interpolation": 2}]}, "shear_x": {"Points": [{"co": {"Y": 0, "X": 1}, "interpolation": 2}]}, "volume": {"Points": [{"co": {"Y": 1, "X": 1}, "interpolation": 2}]}, "start": 0, "rotation": {"Points": [{"co": {"Y": 0, "X": 1}, "interpolation": 2}]}, "reader": {"video_stream_index": -1, "video_length": "2592000", "interlaced_frame": false, "audio_bit_rate": 0, "audio_timebase": {"den": 1, "num": 1}, "vcodec": "", "channels": 0, "has_video": true, "channel_layout": 4, "has_audio": false, "video_timebase": {"den": 30, "num": 1}, "has_single_image": true, "acodec": "", "video_bit_rate": 0, "display_ratio": {"den": 3827, "num": 6803}, "audio_stream_index": -1, "type": "QtImageReader", "top_field_first": true, "width": 6803, "pixel_ratio": {"den": 1, "num": 1}, "height": 3827, "duration": 86400.0, "file_size": "104140324", "path": "/home/milind/Data/Projects/ProgressCard/!073-Graced Subject Count.svg", "fps": {"den": 1, "num": 30}, "pixel_format": -1, "sample_rate": 0}, "position": 24.125000000000004, "has_video": {"Points": [{"co": {"Y": -1, "X": 1}, "interpolation": 2}]}, "has_audio": {"Points": [{"co": {"Y": -1, "X": 1}, "interpolation": 2}]}, "channel_mapping": {"Points": [{"co": {"Y": -1, "X": 1}, "interpolation": 2}]}, "shear_y": {"Points": [{"co": {"Y": 0, "X": 1}, "interpolation": 2}]}, "perspective_c3_y": {"Points": [{"co": {"Y": -1, "X": 1}, "interpolation": 2}]}, "waveform": false, "end": 5, "scale_x": {"Points": [{"co": {"Y": 1, "X": 1}, "interpolation": 2}]}, "image": "/home/milind/.openshot_qt/thumbnail/BUXZX40N2J.png", "location_y": {"Points": [{"co": {"Y": 0, "X": 1}, "interpolation": 2}]}, "crop_y": {"Points": [{"co": {"Y": 0, "X": 1}, "interpolation": 2}]}, "perspective_c2_y": {"Points": [{"co": {"Y": -1, "X": 1}, "interpolation": 2}]}, "perspective_c1_y": {"Points": [{"co": {"Y": -1, "X": 1}, "interpolation": 2}]}, "title": "!073-Graced Subject Count.svg", "perspective_c4_y": {"Points": [{"co": {"Y": -1, "X": 1}, "interpolation": 2}]}, "duration": 86400.0, "wave_color": {"red": {"Points": [{"handle_right": {"Y": 0, "X": 0.5}, "handle_type": 0, "handle_left": {"Y": 1, "X": 0.5}, "co": {"Y": 0, "X": 1}, "interpolation": 0}]}, "green": {"Points": [{"handle_right": {"Y": 0, "X": 0.5}, "handle_type": 0, "handle_left": {"Y": 1, "X": 0.5}, "co": {"Y": 123, "X": 1}, "interpolation": 0}]}, "blue": {"Points": [{"handle_right": {"Y": 0, "X": 0.5}, "handle_type": 0, "handle_left": {"Y": 1, "X": 0.5}, "co": {"Y": 255, "X": 1}, "interpolation": 0}]}, "alpha": {"Points": [{"handle_right": {"Y": 0, "X": 0.5}, "handle_type": 0, "handle_left": {"Y": 1, "X": 0.5}, "co": {"Y": 255, "X": 1}, "interpolation": 0}]}}, "time": {"Points": [{"co": {"Y": 1, "X": 1}, "interpolation": 2}]}, "crop_height": {"Points": [{"co": {"Y": -1, "X": 1}, "interpolation": 2}]}, "scale_y": {"Points": [{"co": {"Y": 1, "X": 1}, "interpolation": 2}]}, "effects": []}, {"location_x": {"Points": [{"co": {"Y": 0, "X": 1}, "interpolation": 2}]}, "perspective_c3_x": {"Points": [{"co": {"Y": -1, "X": 1}, "interpolation": 2}]}, "perspective_c4_x": {"Points": [{"co": {"Y": -1, "X": 1}, "interpolation": 2}]}, "channel_filter": {"Points": [{"co": {"Y": -1, "X": 1}, "interpolation": 2}]}, "perspective_c2_x": {"Points": [{"co": {"Y": -1, "X": 1}, "interpolation": 2}]}, "perspective_c1_x": {"Points": [{"co": {"Y": -1, "X": 1}, "interpolation": 2}]}, "anchor": 0, "alpha": {"Points": [{"co": {"Y": 1, "X": 1}, "interpolation": 2}, {"handle_right": {"Y": 0, "X": 0.5}, "handle_type": 0, "handle_left": {"Y": 1, "X": 0.5}, "co": {"Y": 0, "X": 1}, "interpolation": 0}, {"handle_right": {"Y": 0, "X": 0.5}, "handle_type": 0, "handle_left": {"Y": 1, "X": 0.5}, "co": {"Y": 1, "X": 73}, "interpolation": 0}, {"handle_right": {"Y": 0, "X": 0.5}, "handle_type": 0, "handle_left": {"Y": 1, "X": 0.5}, "co": {"Y": 1, "X": 49}, "interpolation": 0}, {"handle_right": {"Y": 0, "X": 0.5}, "handle_type": 0, "handle_left": {"Y": 1, "X": 0.5}, "co": {"Y": 0, "X": 121}, "interpolation": 0}]}, "id": "MH73AEFXVE", "layer": 2, "file_id": "MZ4ILBST6I", "display": 0, "scale": 1, "gravity": 4, "crop_width": {"Points": [{"co": {"Y": -1, "X": 1}, "interpolation": 2}]}, "crop_x": {"Points": [{"co": {"Y": 0, "X": 1}, "interpolation": 2}]}, "shear_x": {"Points": [{"co": {"Y": 0, "X": 1}, "interpolation": 2}]}, "volume": {"Points": [{"co": {"Y": 1, "X": 1}, "interpolation": 2}]}, "start": 0, "rotation": {"Points": [{"co": {"Y": 0, "X": 1}, "interpolation": 2}]}, "reader": {"video_stream_index": -1, "video_length": "2592000", "interlaced_frame": false, "audio_bit_rate": 0, "audio_timebase": {"den": 1, "num": 1}, "vcodec": "", "channels": 0, "has_video": true, "channel_layout": 4, "has_audio": false, "video_timebase": {"den": 30, "num": 1}, "has_single_image": true, "acodec": "", "video_bit_rate": 0, "display_ratio": {"den": 3827, "num": 6803}, "audio_stream_index": -1, "type": "QtImageReader", "top_field_first": true, "width": 6803, "pixel_ratio": {"den": 1, "num": 1}, "height": 3827, "duration": 86400.0, "file_size": "104140324", "path": "/home/milind/Data/Projects/ProgressCard/!074-Grace Greater Than 10.svg", "fps": {"den": 1, "num": 30}, "pixel_format": -1, "sample_rate": 0}, "position": 39.458333333333336, "has_video": {"Points": [{"co": {"Y": -1, "X": 1}, "interpolation": 2}]}, "has_audio": {"Points": [{"co": {"Y": -1, "X": 1}, "interpolation": 2}]}, "channel_mapping": {"Points": [{"co": {"Y": -1, "X": 1}, "interpolation": 2}]}, "shear_y": {"Points": [{"co": {"Y": 0, "X": 1}, "interpolation": 2}]}, "perspective_c3_y": {"Points": [{"co": {"Y": -1, "X": 1}, "interpolation": 2}]}, "waveform": false, "end": 5, "scale_x": {"Points": [{"co": {"Y": 1, "X": 1}, "interpolation": 2}]}, "image": "/home/milind/.openshot_qt/thumbnail/MZ4ILBST6I.png", "location_y": {"Points": [{"co": {"Y": 0, "X": 1}, "interpolation": 2}]}, "crop_y": {"Points": [{"co": {"Y": 0, "X": 1}, "interpolation": 2}]}, "perspective_c2_y": {"Points": [{"co": {"Y": -1, "X": 1}, "interpolation": 2}]}, "perspective_c1_y": {"Points": [{"co": {"Y": -1, "X": 1}, "interpolation": 2}]}, "title": "!074-Grace Greater Than 10.svg", "perspective_c4_y": {"Points": [{"co": {"Y": -1, "X": 1}, "interpolation": 2}]}, "duration": 86400.0, "wave_color": {"red": {"Points": [{"handle_right": {"Y": 0, "X": 0.5}, "handle_type": 0, "handle_left": {"Y": 1, "X": 0.5}, "co": {"Y": 0, "X": 1}, "interpolation": 0}]}, "green": {"Points": [{"handle_right": {"Y": 0, "X": 0.5}, "handle_type": 0, "handle_left": {"Y": 1, "X": 0.5}, "co": {"Y": 123, "X": 1}, "interpolation": 0}]}, "blue": {"Points": [{"handle_right": {"Y": 0, "X": 0.5}, "handle_type": 0, "handle_left": {"Y": 1, "X": 0.5}, "co": {"Y": 255, "X": 1}, "interpolation": 0}]}, "alpha": {"Points": [{"handle_right": {"Y": 0, "X": 0.5}, "handle_type": 0, "handle_left": {"Y": 1, "X": 0.5}, "co": {"Y": 255, "X": 1}, "interpolation": 0}]}}, "time": {"Points": [{"co": {"Y": 1, "X": 1}, "interpolation": 2}]}, "crop_height": {"Points": [{"co": {"Y": -1, "X": 1}, "interpolation": 2}]}, "scale_y": {"Points": [{"co": {"Y": 1, "X": 1}, "interpolation": 2}]}, "effects": []}, {"location_x": {"Points": [{"co": {"Y": 0, "X": 1}, "interpolation": 2}]}, "perspective_c3_x": {"Points": [{"co": {"Y": -1, "X": 1}, "interpolation": 2}]}, "perspective_c4_x": {"Points": [{"co": {"Y": -1, "X": 1}, "interpolation": 2}]}, "channel_filter": {"Points": [{"co": {"Y": -1, "X": 1}, "interpolation": 2}]}, "perspective_c2_x": {"Points": [{"co": {"Y": -1, "X": 1}, "interpolation": 2}]}, "perspective_c1_x": {"Points": [{"co": {"Y": -1, "X": 1}, "interpolation": 2}]}, "anchor": 0, "alpha": {"Points": [{"co": {"Y": 1, "X": 1}, "interpolation": 2}, {"handle_right": {"Y": 0, "X": 0.5}, "handle_type": 0, "handle_left": {"Y": 1, "X": 0.5}, "co": {"Y": 0, "X": 1}, "interpolation": 0}, {"handle_right": {"Y": 0, "X": 0.5}, "handle_type": 0, "handle_left": {"Y": 1, "X": 0.5}, "co": {"Y": 1, "X": 73}, "interpolation": 0}, {"handle_right": {"Y": 0, "X": 0.5}, "handle_type": 0, "handle_left": {"Y": 1, "X": 0.5}, "co": {"Y": 1, "X": 49}, "interpolation": 0}, {"handle_right": {"Y": 0, "X": 0.5}, "handle_type": 0, "handle_left": {"Y": 1, "X": 0.5}, "co": {"Y": 0, "X": 121}, "interpolation": 0}]}, "id": "2D6KOKWEJY", "layer": 2, "file_id": "55LKUBO9MG", "display": 0, "scale": 1, "gravity": 4, "crop_width": {"Points": [{"co": {"Y": -1, "X": 1}, "interpolation": 2}]}, "crop_x": {"Points": [{"co": {"Y": 0, "X": 1}, "interpolation": 2}]}, "shear_x": {"Points": [{"co": {"Y": 0, "X": 1}, "interpolation": 2}]}, "volume": {"Points": [{"co": {"Y": 1, "X": 1}, "interpolation": 2}]}, "start": 0, "rotation": {"Points": [{"co": {"Y": 0, "X": 1}, "interpolation": 2}]}, "reader": {"video_stream_index": -1, "video_length": "2592000", "interlaced_frame": false, "audio_bit_rate": 0, "audio_timebase": {"den": 1, "num": 1}, "vcodec": "", "channels": 0, "has_video": true, "channel_layout": 4, "has_audio": false, "video_timebase": {"den": 30, "num": 1}, "has_single_image": true, "acodec": "", "video_bit_rate": 0, "display_ratio": {"den": 3827, "num": 6803}, "audio_stream_index": -1, "type": "QtImageReader", "top_field_first": true, "width": 6803, "pixel_ratio": {"den": 1, "num": 1}, "height": 3827, "duration": 86400.0, "file_size": "104140324", "path": "/home/milind/Data/Projects/ProgressCard/!001-Copy (Ctrl-C).svg", "fps": {"den": 1, "num": 30}, "pixel_format": -1, "sample_rate": 0}, "position": 56.791666666666664, "has_video": {"Points": [{"co": {"Y": -1, "X": 1}, "interpolation": 2}]}, "has_audio": {"Points": [{"co": {"Y": -1, "X": 1}, "interpolation": 2}]}, "channel_mapping": {"Points": [{"co": {"Y": -1, "X": 1}, "interpolation": 2}]}, "shear_y": {"Points": [{"co": {"Y": 0, "X": 1}, "interpolation": 2}]}, "perspective_c3_y": {"Points": [{"co": {"Y": -1, "X": 1}, "interpolation": 2}]}, "waveform": false, "end": 5, "scale_x": {"Points": [{"co": {"Y": 1, "X": 1}, "interpolation": 2}]}, "image": "/home/milind/.openshot_qt/thumbnail/55LKUBO9MG.png", "location_y": {"Points": [{"co": {"Y": 0, "X": 1}, "interpolation": 2}]}, "crop_y": {"Points": [{"co": {"Y": 0, "X": 1}, "interpolation": 2}]}, "perspective_c2_y": {"Points": [{"co": {"Y": -1, "X": 1}, "interpolation": 2}]}, "perspective_c1_y": {"Points": [{"co": {"Y": -1, "X": 1}, "interpolation": 2}]}, "title": "!001-Copy (Ctrl-C).svg", "perspective_c4_y": {"Points": [{"co": {"Y": -1, "X": 1}, "interpolation": 2}]}, "duration": 86400.0, "wave_color": {"red": {"Points": [{"handle_right": {"Y": 0, "X": 0.5}, "handle_type": 0, "handle_left": {"Y": 1, "X": 0.5}, "co": {"Y": 0, "X": 1}, "interpolation": 0}]}, "green": {"Points": [{"handle_right": {"Y": 0, "X": 0.5}, "handle_type": 0, "handle_left": {"Y": 1, "X": 0.5}, "co": {"Y": 123, "X": 1}, "interpolation": 0}]}, "blue": {"Points": [{"handle_right": {"Y": 0, "X": 0.5}, "handle_type": 0, "handle_left": {"Y": 1, "X": 0.5}, "co": {"Y": 255, "X": 1}, "interpolation": 0}]}, "alpha": {"Points": [{"handle_right": {"Y": 0, "X": 0.5}, "handle_type": 0, "handle_left": {"Y": 1, "X": 0.5}, "co": {"Y": 255, "X": 1}, "interpolation": 0}]}}, "time": {"Points": [{"co": {"Y": 1, "X": 1}, "interpolation": 2}]}, "crop_height": {"Points": [{"co": {"Y": -1, "X": 1}, "interpolation": 2}]}, "scale_y": {"Points": [{"co": {"Y": 1, "X": 1}, "interpolation": 2}]}, "effects": []}, {"location_x": {"Points": [{"co": {"Y": 0, "X": 1}, "interpolation": 2}]}, "perspective_c3_x": {"Points": [{"co": {"Y": -1, "X": 1}, "interpolation": 2}]}, "perspective_c4_x": {"Points": [{"co": {"Y": -1, "X": 1}, "interpolation": 2}]}, "channel_filter": {"Points": [{"co": {"Y": -1, "X": 1}, "interpolation": 2}]}, "perspective_c2_x": {"Points": [{"co": {"Y": -1, "X": 1}, "interpolation": 2}]}, "perspective_c1_x": {"Points": [{"co": {"Y": -1, "X": 1}, "interpolation": 2}]}, "anchor": 0, "alpha": {"Points": [{"co": {"Y": 1, "X": 1}, "interpolation": 2}, {"handle_right": {"Y": 0, "X": 0.5}, "handle_type": 0, "handle_left": {"Y": 1, "X": 0.5}, "co": {"Y": 0, "X": 1}, "interpolation": 0}, {"handle_right": {"Y": 0, "X": 0.5}, "handle_type": 0, "handle_left": {"Y": 1, "X": 0.5}, "co": {"Y": 1, "X": 73}, "interpolation": 0}, {"handle_right": {"Y": 0, "X": 0.5}, "handle_type": 0, "handle_left": {"Y": 1, "X": 0.5}, "co": {"Y": 1, "X": 49}, "interpolation": 0}, {"handle_right": {"Y": 0, "X": 0.5}, "handle_type": 0, "handle_left": {"Y": 1, "X": 0.5}, "co": {"Y": 0, "X": 121}, "interpolation": 0}]}, "id": "GS9HYSSMO4", "layer": 2, "file_id": "JP5L750RMR", "display": 0, "scale": 1, "gravity": 4, "crop_width": {"Points": [{"co": {"Y": -1, "X": 1}, "interpolation": 2}]}, "crop_x": {"Points": [{"co": {"Y": 0, "X": 1}, "interpolation": 2}]}, "shear_x": {"Points": [{"co": {"Y": 0, "X": 1}, "interpolation": 2}]}, "volume": {"Points": [{"co": {"Y": 1, "X": 1}, "interpolation": 2}]}, "start": 0, "rotation": {"Points": [{"co": {"Y": 0, "X": 1}, "interpolation": 2}]}, "reader": {"video_stream_index": -1, "video_length": "2592000", "interlaced_frame": false, "audio_bit_rate": 0, "audio_timebase": {"den": 1, "num": 1}, "vcodec": "", "channels": 0, "has_video": true, "channel_layout": 4, "has_audio": false, "video_timebase": {"den": 30, "num": 1}, "has_single_image": true, "acodec": "", "video_bit_rate": 0, "display_ratio": {"den": 3827, "num": 6803}, "audio_stream_index": -1, "type": "QtImageReader", "top_field_first": true, "width": 6803, "pixel_ratio": {"den": 1, "num": 1}, "height": 3827, "duration": 86400.0, "file_size": "104140324", "path": "/home/milind/Data/Projects/ProgressCard/!002-Paste (Ctrl-V).svg", "fps": {"den": 1, "num": 30}, "pixel_format": -1, "sample_rate": 0}, "position": 62.25, "has_video": {"Points": [{"co": {"Y": -1, "X": 1}, "interpolation": 2}]}, "has_audio": {"Points": [{"co": {"Y": -1, "X": 1}, "interpolation": 2}]}, "channel_mapping": {"Points": [{"co": {"Y": -1, "X": 1}, "interpolation": 2}]}, "shear_y": {"Points": [{"co": {"Y": 0, "X": 1}, "interpolation": 2}]}, "perspective_c3_y": {"Points": [{"co": {"Y": -1, "X": 1}, "interpolation": 2}]}, "waveform": false, "end": 5, "scale_x": {"Points": [{"co": {"Y": 1, "X": 1}, "interpolation": 2}]}, "image": "/home/milind/.openshot_qt/thumbnail/JP5L750RMR.png", "location_y": {"Points": [{"co": {"Y": 0, "X": 1}, "interpolation": 2}]}, "crop_y": {"Points": [{"co": {"Y": 0, "X": 1}, "interpolation": 2}]}, "perspective_c2_y": {"Points": [{"co": {"Y": -1, "X": 1}, "interpolation": 2}]}, "perspective_c1_y": {"Points": [{"co": {"Y": -1, "X": 1}, "interpolation": 2}]}, "title": "!002-Paste (Ctrl-V).svg", "perspective_c4_y": {"Points": [{"co": {"Y": -1, "X": 1}, "interpolation": 2}]}, "duration": 86400.0, "wave_color": {"red": {"Points": [{"handle_right": {"Y": 0, "X": 0.5}, "handle_type": 0, "handle_left": {"Y": 1, "X": 0.5}, "co": {"Y": 0, "X": 1}, "interpolation": 0}]}, "green": {"Points": [{"handle_right": {"Y": 0, "X": 0.5}, "handle_type": 0, "handle_left": {"Y": 1, "X": 0.5}, "co": {"Y": 123, "X": 1}, "interpolation": 0}]}, "blue": {"Points": [{"handle_right": {"Y": 0, "X": 0.5}, "handle_type": 0, "handle_left": {"Y": 1, "X": 0.5}, "co": {"Y": 255, "X": 1}, "interpolation": 0}]}, "alpha": {"Points": [{"handle_right": {"Y": 0, "X": 0.5}, "handle_type": 0, "handle_left": {"Y": 1, "X": 0.5}, "co": {"Y": 255, "X": 1}, "interpolation": 0}]}}, "time": {"Points": [{"co": {"Y": 1, "X": 1}, "interpolation": 2}]}, "crop_height": {"Points": [{"co": {"Y": -1, "X": 1}, "interpolation": 2}]}, "scale_y": {"Points": [{"co": {"Y": 1, "X": 1}, "interpolation": 2}]}, "effects": []}, {"location_x": {"Points": [{"co": {"Y": 0, "X": 1}, "interpolation": 2}]}, "perspective_c3_y": {"Points": [{"co": {"Y": -1, "X": 1}, "interpolation": 2}]}, "shear_x": {"Points": [{"co": {"Y": 0, "X": 1}, "interpolation": 2}]}, "channel_filter": {"Points": [{"co": {"Y": -1, "X": 1}, "interpolation": 2}]}, "duration": 86400.0, "perspective_c1_x": {"Points": [{"co": {"Y": -1, "X": 1}, "interpolation": 2}]}, "perspective_c2_x": {"Points": [{"co": {"Y": -1, "X": 1}, "interpolation": 2}]}, "alpha": {"Points": [{"co": {"Y": 1, "X": 1}, "interpolation": 2}, {"handle_right": {"Y": 0, "X": 0.5}, "handle_type": 0, "handle_left": {"Y": 1, "X": 0.5}, "co": {"Y": 0, "X": 1}, "interpolation": 0}, {"handle_right": {"Y": 0, "X": 0.5}, "handle_type": 0, "handle_left": {"Y": 1, "X": 0.5}, "co": {"Y": 1, "X": 73}, "interpolation": 0}, {"handle_right": {"Y": 0, "X": 0.5}, "handle_type": 0, "handle_left": {"Y": 1, "X": 0.5}, "co": {"Y": 1, "X": 49}, "interpolation": 0}, {"handle_right": {"Y": 0, "X": 0.5}, "handle_type": 0, "handle_left": {"Y": 1, "X": 0.5}, "co": {"Y": 0, "X": 121}, "interpolation": 0}]}, "id": "J2KJS854LX", "layer": 1, "display": 0, "scale": 1, "gravity": 4, "crop_width": {"Points": [{"co": {"Y": -1, "X": 1}, "interpolation": 2}]}, "crop_x": {"Points": [{"co": {"Y": 0, "X": 1}, "interpolation": 2}]}, "perspective_c4_x": {"Points": [{"co": {"Y": -1, "X": 1}, "interpolation": 2}]}, "volume": {"Points": [{"co": {"Y": 1, "X": 1}, "interpolation": 2}]}, "has_audio": {"Points": [{"co": {"Y": -1, "X": 1}, "interpolation": 2}]}, "rotation": {"Points": [{"co": {"Y": 0, "X": 1}, "interpolation": 2}]}, "crop_y": {"Points": [{"co": {"Y": 0, "X": 1}, "interpolation": 2}]}, "position": 69.76906249999999, "has_video": {"Points": [{"co": {"Y": -1, "X": 1}, "interpolation": 2}]}, "start": 0, "channel_mapping": {"Points": [{"co": {"Y": -1, "X": 1}, "interpolation": 2}]}, "shear_y": {"Points": [{"co": {"Y": 0, "X": 1}, "interpolation": 2}]}, "end": 5, "waveform": false, "perspective_c3_x": {"Points": [{"co": {"Y": -1, "X": 1}, "interpolation": 2}]}, "scale_x": {"Points": [{"co": {"Y": 1, "X": 1}, "interpolation": 2}]}, "image": "/home/milind/.openshot_qt/thumbnail/9MDVH2JM9J.png", "location_y": {"Points": [{"co": {"Y": 0, "X": 1}, "interpolation": 2}]}, "crop_height": {"Points": [{"co": {"Y": -1, "X": 1}, "interpolation": 2}]}, "perspective_c2_y": {"Points": [{"co": {"Y": -1, "X": 1}, "interpolation": 2}]}, "perspective_c1_y": {"Points": [{"co": {"Y": -1, "X": 1}, "interpolation": 2}]}, "title": "!085-Pass or Fail.svg", "perspective_c4_y": {"Points": [{"co": {"Y": -1, "X": 1}, "interpolation": 2}]}, "anchor": 0, "wave_color": {"red": {"Points": [{"handle_right": {"Y": 0, "X": 0.5}, "handle_type": 0, "handle_left": {"Y": 1, "X": 0.5}, "co": {"Y": 0, "X": 1}, "interpolation": 0}]}, "green": {"Points": [{"handle_right": {"Y": 0, "X": 0.5}, "handle_type": 0, "handle_left": {"Y": 1, "X": 0.5}, "co": {"Y": 123, "X": 1}, "interpolation": 0}]}, "blue": {"Points": [{"handle_right": {"Y": 0, "X": 0.5}, "handle_type": 0, "handle_left": {"Y": 1, "X": 0.5}, "co": {"Y": 255, "X": 1}, "interpolation": 0}]}, "alpha": {"Points": [{"handle_right": {"Y": 0, "X": 0.5}, "handle_type": 0, "handle_left": {"Y": 1, "X": 0.5}, "co": {"Y": 255, "X": 1}, "interpolation": 0}]}}, "time": {"Points": [{"co": {"Y": 1, "X": 1}, "interpolation": 2}]}, "effects": [], "file_id": "9MDVH2JM9J", "scale_y": {"Points": [{"co": {"Y": 1, "X": 1}, "interpolation": 2}]}, "reader": {"video_stream_index": -1, "video_length": "2592000", "interlaced_frame": false, "audio_bit_rate": 0, "audio_timebase": {"den": 1, "num": 1}, "vcodec": "", "channels": 0, "has_video": true, "channel_layout": 4, "has_audio": false, "video_timebase": {"den": 30, "num": 1}, "has_single_image": true, "acodec": "", "video_bit_rate": 0, "display_ratio": {"den": 3827, "num": 6803}, "audio_stream_index": -1, "type": "QtImageReader", "top_field_first": true, "width": 6803, "pixel_ratio": {"den": 1, "num": 1}, "height": 3827, "duration": 86400.0, "file_size": "104140324", "path": "/home/milind/Data/Projects/ProgressCard/!085-Pass or Fail.svg", "fps": {"den": 1, "num": 30}, "pixel_format": -1, "sample_rate": 0}}, {"location_x": {"Points": [{"co": {"Y": 0, "X": 1}, "interpolation": 2}]}, "perspective_c3_x": {"Points": [{"co": {"Y": -1, "X": 1}, "interpolation": 2}]}, "perspective_c4_x": {"Points": [{"co": {"Y": -1, "X": 1}, "interpolation": 2}]}, "channel_filter": {"Points": [{"co": {"Y": -1, "X": 1}, "interpolation": 2}]}, "crop_height": {"Points": [{"co": {"Y": -1, "X": 1}, "interpolation": 2}]}, "perspective_c2_x": {"Points": [{"co": {"Y": -1, "X": 1}, "interpolation": 2}]}, "perspective_c1_x": {"Points": [{"co": {"Y": -1, "X": 1}, "interpolation": 2}]}, "anchor": 0, "alpha": {"Points": [{"handle_right": {"Y": 0, "X": 0.5}, "handle_type": 0, "handle_left": {"Y": 1, "X": 0.5}, "co": {"Y": 1, "X": 1}, "interpolation": 0}, {"handle_right": {"Y": 0, "X": 0.5}, "handle_type": 0, "handle_left": {"Y": 1, "X": 0.5}, "co": {"Y": 0, "X": 1}, "interpolation": 0}, {"handle_right": {"Y": 0, "X": 0.5}, "handle_type": 0, "handle_left": {"Y": 1, "X": 0.5}, "co": {"Y": 1, "X": 73}, "interpolation": 0}, {"handle_right": {"Y": 0, "X": 0.5}, "handle_type": 0, "handle_left": {"Y": 1, "X": 0.5}, "co": {"Y": 1, "X": 375}, "interpolation": 0}, {"handle_right": {"Y": 0, "X": 0.5}, "handle_type": 0, "handle_left": {"Y": 1, "X": 0.5}, "co": {"Y": 0, "X": 447}, "interpolation": 0}]}, "id": "UX3VY9TAZP", "layer": 2, "display": 0, "scale": 1, "gravity": 4, "crop_width": {"Points": [{"co": {"Y": -1, "X": 1}, "interpolation": 2}]}, "crop_x": {"Points": [{"co": {"Y": 0, "X": 1}, "interpolation": 2}]}, "shear_x": {"Points": [{"co": {"Y": 0, "X": 1}, "interpolation": 2}]}, "volume": {"Points": [{"co": {"Y": 1, "X": 1}, "interpolation": 2}]}, "has_audio": {"Points": [{"co": {"Y": -1, "X": 1}, "interpolation": 2}]}, "title": "!086-IF GT,GC,TC.svg", "reader": {"video_stream_index": -1, "video_length": "2592000", "interlaced_frame": false, "audio_bit_rate": 0, "audio_timebase": {"den": 1, "num": 1}, "vcodec": "", "channels": 0, "has_video": true, "channel_layout": 4, "has_audio": false, "video_timebase": {"den": 30, "num": 1}, "has_single_image": true, "acodec": "", "video_bit_rate": 0, "display_ratio": {"den": 3827, "num": 6803}, "audio_stream_index": -1, "type": "QtImageReader", "top_field_first": true, "width": 6803, "pixel_ratio": {"den": 1, "num": 1}, "height": 3827, "duration": 86400.0, "file_size": "104140324", "path": "/home/milind/Data/Projects/ProgressCard/!086-IF GT,GC,TC.svg", "fps": {"den": 1, "num": 30}, "pixel_format": -1, "sample_rate": 0}, "position": 85.265625, "has_video": {"Points": [{"co": {"Y": -1, "X": 1}, "interpolation": 2}]}, "start": 0, "channel_mapping": {"Points": [{"co": {"Y": -1, "X": 1}, "interpolation": 2}]}, "shear_y": {"Points": [{"co": {"Y": 0, "X": 1}, "interpolation": 2}]}, "perspective_c3_y": {"Points": [{"co": {"Y": -1, "X": 1}, "interpolation": 2}]}, "waveform": false, "end": 18.599999999999994, "scale_x": {"Points": [{"co": {"Y": 1, "X": 1}, "interpolation": 2}]}, "image": "/home/milind/.openshot_qt/thumbnail/DIHETX3WQ7.png", "location_y": {"Points": [{"co": {"Y": 0, "X": 1}, "interpolation": 2}]}, "crop_y": {"Points": [{"co": {"Y": 0, "X": 1}, "interpolation": 2}]}, "perspective_c2_y": {"Points": [{"co": {"Y": -1, "X": 1}, "interpolation": 2}]}, "perspective_c1_y": {"Points": [{"co": {"Y": -1, "X": 1}, "interpolation": 2}]}, "rotation": {"Points": [{"co": {"Y": 0, "X": 1}, "interpolation": 2}]}, "perspective_c4_y": {"Points": [{"co": {"Y": -1, "X": 1}, "interpolation": 2}]}, "duration": 86400.0, "wave_color": {"red": {"Points": [{"handle_right": {"Y": 0, "X": 0.5}, "handle_type": 0, "handle_left": {"Y": 1, "X": 0.5}, "co": {"Y": 0, "X": 1}, "interpolation": 0}]}, "green": {"Points": [{"handle_right": {"Y": 0, "X": 0.5}, "handle_type": 0, "handle_left": {"Y": 1, "X": 0.5}, "co": {"Y": 123, "X": 1}, "interpolation": 0}]}, "blue": {"Points": [{"handle_right": {"Y": 0, "X": 0.5}, "handle_type": 0, "handle_left": {"Y": 1, "X": 0.5}, "co": {"Y": 255, "X": 1}, "interpolation": 0}]}, "alpha": {"Points": [{"handle_right": {"Y": 0, "X": 0.5}, "handle_type": 0, "handle_left": {"Y": 1, "X": 0.5}, "co": {"Y": 255, "X": 1}, "interpolation": 0}]}}, "time": {"Points": [{"co": {"Y": 1, "X": 1}, "interpolation": 2}]}, "file_id": "DIHETX3WQ7", "scale_y": {"Points": [{"co": {"Y": 1, "X": 1}, "interpolation": 2}]}, "effects": []}, {"location_x": {"Points": [{"co": {"Y": 0, "X": 1}, "interpolation": 2}]}, "perspective_c4_x": {"Points": [{"co": {"Y": -1, "X": 1}, "interpolation": 2}]}, "channel_filter": {"Points": [{"co": {"Y": -1, "X": 1}, "interpolation": 2}]}, "duration": 86400.0, "perspective_c1_x": {"Points": [{"co": {"Y": -1, "X": 1}, "interpolation": 2}]}, "perspective_c2_x": {"Points": [{"co": {"Y": -1, "X": 1}, "interpolation": 2}]}, "alpha": {"Points": [{"co": {"Y": 1, "X": 1}, "interpolation": 2}, {"handle_right": {"Y": 0, "X": 0.5}, "handle_type": 0, "handle_left": {"Y": 1, "X": 0.5}, "co": {"Y": 0, "X": 1}, "interpolation": 0}, {"handle_right": {"Y": 0, "X": 0.5}, "handle_type": 0, "handle_left": {"Y": 1, "X": 0.5}, "co": {"Y": 1, "X": 73}, "interpolation": 0}, {"handle_right": {"Y": 0, "X": 0.5}, "handle_type": 0, "handle_left": {"Y": 1, "X": 0.5}, "co": {"Y": 1, "X": 49}, "interpolation": 0}, {"handle_right": {"Y": 0, "X": 0.5}, "handle_type": 0, "handle_left": {"Y": 1, "X": 0.5}, "co": {"Y": 0, "X": 121}, "interpolation": 0}]}, "id": "ISJOMX8TQ1", "layer": 2, "display": 0, "scale": 1, "gravity": 4, "crop_width": {"Points": [{"co": {"Y": -1, "X": 1}, "interpolation": 2}]}, "crop_x": {"Points": [{"co": {"Y": 0, "X": 1}, "interpolation": 2}]}, "shear_x": {"Points": [{"co": {"Y": 0, "X": 1}, "interpolation": 2}]}, "volume": {"Points": [{"co": {"Y": 1, "X": 1}, "interpolation": 2}]}, "start": 0, "end": 5, "title": "!105-Average.svg", "crop_y": {"Points": [{"co": {"Y": 0, "X": 1}, "interpolation": 2}]}, "reader": {"video_stream_index": -1, "video_length": "2592000", "interlaced_frame": false, "audio_bit_rate": 0, "audio_timebase": {"den": 1, "num": 1}, "vcodec": "", "channels": 0, "has_video": true, "channel_layout": 4, "has_audio": false, "video_timebase": {"den": 30, "num": 1}, "has_single_image": true, "acodec": "", "video_bit_rate": 0, "display_ratio": {"den": 3827, "num": 6803}, "audio_stream_index": -1, "type": "QtImageReader", "top_field_first": true, "width": 6803, "pixel_ratio": {"den": 1, "num": 1}, "height": 3827, "duration": 86400.0, "file_size": "104140324", "path": "/home/milind/Data/Projects/ProgressCard/!105-Average.svg", "fps": {"den": 1, "num": 30}, "pixel_format": -1, "sample_rate": 0}, "position": 128.11499999999998, "has_video": {"Points": [{"co": {"Y": -1, "X": 1}, "interpolation": 2}]}, "has_audio": {"Points": [{"co": {"Y": -1, "X": 1}, "interpolation": 2}]}, "channel_mapping": {"Points": [{"co": {"Y": -1, "X": 1}, "interpolation": 2}]}, "shear_y": {"Points": [{"co": {"Y": 0, "X": 1}, "interpolation": 2}]}, "perspective_c3_y": {"Points": [{"co": {"Y": -1, "X": 1}, "interpolation": 2}]}, "waveform": false, "perspective_c3_x": {"Points": [{"co": {"Y": -1, "X": 1}, "interpolation": 2}]}, "scale_x": {"Points": [{"co": {"Y": 1, "X": 1}, "interpolation": 2}]}, "image": "/home/milind/.openshot_qt/thumbnail/1QJRY2QLTK.png", "location_y": {"Points": [{"co": {"Y": 0, "X": 1}, "interpolation": 2}]}, "file_id": "1QJRY2QLTK", "perspective_c2_y": {"Points": [{"co": {"Y": -1, "X": 1}, "interpolation": 2}]}, "perspective_c1_y": {"Points": [{"co": {"Y": -1, "X": 1}, "interpolation": 2}]}, "rotation": {"Points": [{"co": {"Y": 0, "X": 1}, "interpolation": 2}]}, "perspective_c4_y": {"Points": [{"co": {"Y": -1, "X": 1}, "interpolation": 2}]}, "anchor": 0, "wave_color": {"red": {"Points": [{"handle_right": {"Y": 0, "X": 0.5}, "handle_type": 0, "handle_left": {"Y": 1, "X": 0.5}, "co": {"Y": 0, "X": 1}, "interpolation": 0}]}, "green": {"Points": [{"handle_right": {"Y": 0, "X": 0.5}, "handle_type": 0, "handle_left": {"Y": 1, "X": 0.5}, "co": {"Y": 123, "X": 1}, "interpolation": 0}]}, "blue": {"Points": [{"handle_right": {"Y": 0, "X": 0.5}, "handle_type": 0, "handle_left": {"Y": 1, "X": 0.5}, "co": {"Y": 255, "X": 1}, "interpolation": 0}]}, "alpha": {"Points": [{"handle_right": {"Y": 0, "X": 0.5}, "handle_type": 0, "handle_left": {"Y": 1, "X": 0.5}, "co": {"Y": 255, "X": 1}, "interpolation": 0}]}}, "time": {"Points": [{"co": {"Y": 1, "X": 1}, "interpolation": 2}]}, "crop_height": {"Points": [{"co": {"Y": -1, "X": 1}, "interpolation": 2}]}, "scale_y": {"Points": [{"co": {"Y": 1, "X": 1}, "interpolation": 2}]}, "effects": []}, {"location_x": {"Points": [{"handle_right": {"Y": 0, "X": 0.5}, "handle_type": 0, "handle_left": {"Y": 1, "X": 0.5}, "co": {"Y": 0, "X": 1}, "interpolation": 0}]}, "perspective_c4_x": {"Points": [{"co": {"Y": -1, "X": 1}, "interpolation": 2}]}, "channel_filter": {"Points": [{"co": {"Y": -1, "X": 1}, "interpolation": 2}]}, "duration": 86400.0, "perspective_c1_x": {"Points": [{"co": {"Y": -1, "X": 1}, "interpolation": 2}]}, "perspective_c2_x": {"Points": [{"co": {"Y": -1, "X": 1}, "interpolation": 2}]}, "alpha": {"Points": [{"co": {"Y": 1, "X": 1}, "interpolation": 2}, {"handle_right": {"Y": 0, "X": 0.5}, "handle_type": 0, "handle_left": {"Y": 1, "X": 0.5}, "co": {"Y": 0, "X": 1}, "interpolation": 0}, {"handle_right": {"Y": 0, "X": 0.5}, "handle_type": 0, "handle_left": {"Y": 1, "X": 0.5}, "co": {"Y": 1, "X": 73}, "interpolation": 0}, {"handle_right": {"Y": 0, "X": 0.5}, "handle_type": 0, "handle_left": {"Y": 1, "X": 0.5}, "co": {"Y": 1, "X": 49}, "interpolation": 0}, {"handle_right": {"Y": 0, "X": 0.5}, "handle_type": 0, "handle_left": {"Y": 1, "X": 0.5}, "co": {"Y": 0, "X": 121}, "interpolation": 0}]}, "id": "98IX31JWVL", "layer": 3, "display": 0, "scale": 1, "gravity": 4, "crop_width": {"Points": [{"co": {"Y": -1, "X": 1}, "interpolation": 2}]}, "crop_x": {"Points": [{"co": {"Y": 0, "X": 1}, "interpolation": 2}]}, "shear_x": {"Points": [{"co": {"Y": 0, "X": 1}, "interpolation": 2}]}, "volume": {"Points": [{"co": {"Y": 1, "X": 1}, "interpolation": 2}]}, "start": 0, "end": 5, "title": "!113-Menu-Format-Cells.svg", "crop_y": {"Points": [{"co": {"Y": 0, "X": 1}, "interpolation": 2}]}, "reader": {"video_stream_index": -1, "video_length": "2592000", "interlaced_frame": false, "audio_bit_rate": 0, "audio_timebase": {"den": 1, "num": 1}, "vcodec": "", "channels": 0, "has_video": true, "channel_layout": 4, "has_audio": false, "video_timebase": {"den": 30, "num": 1}, "has_single_image": true, "acodec": "", "video_bit_rate": 0, "display_ratio": {"den": 3827, "num": 6803}, "audio_stream_index": -1, "type": "QtImageReader", "top_field_first": true, "width": 6803, "pixel_ratio": {"den": 1, "num": 1}, "height": 3827, "duration": 86400.0, "file_size": "104140324", "path": "/home/milind/Data/Projects/ProgressCard/!113-Menu-Format-Cells.svg", "fps": {"den": 1, "num": 30}, "pixel_format": -1, "sample_rate": 0}, "position": 140.165, "has_video": {"Points": [{"co": {"Y": -1, "X": 1}, "interpolation": 2}]}, "has_audio": {"Points": [{"co": {"Y": -1, "X": 1}, "interpolation": 2}]}, "channel_mapping": {"Points": [{"co": {"Y": -1, "X": 1}, "interpolation": 2}]}, "shear_y": {"Points": [{"co": {"Y": 0, "X": 1}, "interpolation": 2}]}, "perspective_c3_y": {"Points": [{"co": {"Y": -1, "X": 1}, "interpolation": 2}]}, "waveform": false, "perspective_c3_x": {"Points": [{"co": {"Y": -1, "X": 1}, "interpolation": 2}]}, "scale_x": {"Points": [{"handle_right": {"Y": 0, "X": 0.5}, "handle_type": 0, "handle_left": {"Y": 1, "X": 0.5}, "co": {"Y": 1, "X": 1}, "interpolation": 0}]}, "image": "/home/milind/.openshot_qt/thumbnail/LKFVWV6XVE.png", "location_y": {"Points": [{"handle_right": {"Y": 0, "X": 0.5}, "handle_type": 0, "handle_left": {"Y": 1, "X": 0.5}, "co": {"Y": -0.05999999865889549, "X": 1}, "interpolation": 0}]}, "file_id": "LKFVWV6XVE", "perspective_c2_y": {"Points": [{"co": {"Y": -1, "X": 1}, "interpolation": 2}]}, "perspective_c1_y": {"Points": [{"co": {"Y": -1, "X": 1}, "interpolation": 2}]}, "rotation": {"Points": [{"co": {"Y": 0, "X": 1}, "interpolation": 2}]}, "perspective_c4_y": {"Points": [{"co": {"Y": -1, "X": 1}, "interpolation": 2}]}, "anchor": 0, "wave_color": {"red": {"Points": [{"handle_right": {"Y": 0, "X": 0.5}, "handle_type": 0, "handle_left": {"Y": 1, "X": 0.5}, "co": {"Y": 0, "X": 1}, "interpolation": 0}]}, "green": {"Points": [{"handle_right": {"Y": 0, "X": 0.5}, "handle_type": 0, "handle_left": {"Y": 1, "X": 0.5}, "co": {"Y": 123, "X": 1}, "interpolation": 0}]}, "blue": {"Points": [{"handle_right": {"Y": 0, "X": 0.5}, "handle_type": 0, "handle_left": {"Y": 1, "X": 0.5}, "co": {"Y": 255, "X": 1}, "interpolation": 0}]}, "alpha": {"Points": [{"handle_right": {"Y": 0, "X": 0.5}, "handle_type": 0, "handle_left": {"Y": 1, "X": 0.5}, "co": {"Y": 255, "X": 1}, "interpolation": 0}]}}, "time": {"Points": [{"co": {"Y": 1, "X": 1}, "interpolation": 2}]}, "crop_height": {"Points": [{"co": {"Y": -1, "X": 1}, "interpolation": 2}]}, "scale_y": {"Points": [{"handle_right": {"Y": 0, "X": 0.5}, "handle_type": 0, "handle_left": {"Y": 1, "X": 0.5}, "co": {"Y": 1, "X": 1}, "interpolation": 0}]}, "effects": []}, {"location_x": {"Points": [{"co": {"Y": 0, "X": 1}, "interpolation": 2}]}, "perspective_c4_x": {"Points": [{"co": {"Y": -1, "X": 1}, "interpolation": 2}]}, "channel_filter": {"Points": [{"co": {"Y": -1, "X": 1}, "interpolation": 2}]}, "duration": 86400.0, "perspective_c1_x": {"Points": [{"co": {"Y": -1, "X": 1}, "interpolation": 2}]}, "perspective_c2_x": {"Points": [{"co": {"Y": -1, "X": 1}, "interpolation": 2}]}, "alpha": {"Points": [{"co": {"Y": 1, "X": 1}, "interpolation": 2}, {"handle_right": {"Y": 0, "X": 0.5}, "handle_type": 0, "handle_left": {"Y": 1, "X": 0.5}, "co": {"Y": 0, "X": 1}, "interpolation": 0}, {"handle_right": {"Y": 0, "X": 0.5}, "handle_type": 0, "handle_left": {"Y": 1, "X": 0.5}, "co": {"Y": 1, "X": 73}, "interpolation": 0}, {"handle_right": {"Y": 0, "X": 0.5}, "handle_type": 0, "handle_left": {"Y": 1, "X": 0.5}, "co": {"Y": 1, "X": 49}, "interpolation": 0}, {"handle_right": {"Y": 0, "X": 0.5}, "handle_type": 0, "handle_left": {"Y": 1, "X": 0.5}, "co": {"Y": 0, "X": 121}, "interpolation": 0}]}, "id": "TREDM9MF0N", "layer": 3, "display": 0, "scale": 1, "gravity": 4, "crop_width": {"Points": [{"co": {"Y": -1, "X": 1}, "interpolation": 2}]}, "crop_x": {"Points": [{"co": {"Y": 0, "X": 1}, "interpolation": 2}]}, "shear_x": {"Points": [{"co": {"Y": 0, "X": 1}, "interpolation": 2}]}, "volume": {"Points": [{"co": {"Y": 1, "X": 1}, "interpolation": 2}]}, "start": 0, "end": 5, "title": "!114-We need only 2 decimal places.svg", "crop_y": {"Points": [{"co": {"Y": 0, "X": 1}, "interpolation": 2}]}, "reader": {"video_stream_index": -1, "video_length": "2592000", "interlaced_frame": false, "audio_bit_rate": 0, "audio_timebase": {"den": 1, "num": 1}, "vcodec": "", "channels": 0, "has_video": true, "channel_layout": 4, "has_audio": false, "video_timebase": {"den": 30, "num": 1}, "has_single_image": true, "acodec": "", "video_bit_rate": 0, "display_ratio": {"den": 3827, "num": 6803}, "audio_stream_index": -1, "type": "QtImageReader", "top_field_first": true, "width": 6803, "pixel_ratio": {"den": 1, "num": 1}, "height": 3827, "duration": 86400.0, "file_size": "104140324", "path": "/home/milind/Data/Projects/ProgressCard/!114-We need only 2 decimal places.svg", "fps": {"den": 1, "num": 30}, "pixel_format": -1, "sample_rate": 0}, "position": 145.1640625, "has_video": {"Points": [{"co": {"Y": -1, "X": 1}, "interpolation": 2}]}, "has_audio": {"Points": [{"co": {"Y": -1, "X": 1}, "interpolation": 2}]}, "channel_mapping": {"Points": [{"co": {"Y": -1, "X": 1}, "interpolation": 2}]}, "shear_y": {"Points": [{"co": {"Y": 0, "X": 1}, "interpolation": 2}]}, "perspective_c3_y": {"Points": [{"co": {"Y": -1, "X": 1}, "interpolation": 2}]}, "waveform": false, "perspective_c3_x": {"Points": [{"co": {"Y": -1, "X": 1}, "interpolation": 2}]}, "scale_x": {"Points": [{"co": {"Y": 1, "X": 1}, "interpolation": 2}]}, "image": "/home/milind/.openshot_qt/thumbnail/GS94V0HQUR.png", "location_y": {"Points": [{"co": {"Y": 0, "X": 1}, "interpolation": 2}]}, "file_id": "GS94V0HQUR", "perspective_c2_y": {"Points": [{"co": {"Y": -1, "X": 1}, "interpolation": 2}]}, "perspective_c1_y": {"Points": [{"co": {"Y": -1, "X": 1}, "interpolation": 2}]}, "rotation": {"Points": [{"co": {"Y": 0, "X": 1}, "interpolation": 2}]}, "perspective_c4_y": {"Points": [{"co": {"Y": -1, "X": 1}, "interpolation": 2}]}, "anchor": 0, "wave_color": {"red": {"Points": [{"handle_right": {"Y": 0, "X": 0.5}, "handle_type": 0, "handle_left": {"Y": 1, "X": 0.5}, "co": {"Y": 0, "X": 1}, "interpolation": 0}]}, "green": {"Points": [{"handle_right": {"Y": 0, "X": 0.5}, "handle_type": 0, "handle_left": {"Y": 1, "X": 0.5}, "co": {"Y": 123, "X": 1}, "interpolation": 0}]}, "blue": {"Points": [{"handle_right": {"Y": 0, "X": 0.5}, "handle_type": 0, "handle_left": {"Y": 1, "X": 0.5}, "co": {"Y": 255, "X": 1}, "interpolation": 0}]}, "alpha": {"Points": [{"handle_right": {"Y": 0, "X": 0.5}, "handle_type": 0, "handle_left": {"Y": 1, "X": 0.5}, "co": {"Y": 255, "X": 1}, "interpolation": 0}]}}, "time": {"Points": [{"co": {"Y": 1, "X": 1}, "interpolation": 2}]}, "crop_height": {"Points": [{"co": {"Y": -1, "X": 1}, "interpolation": 2}]}, "scale_y": {"Points": [{"co": {"Y": 1, "X": 1}, "interpolation": 2}]}, "effects": []}, {"perspective_c3_y": {"Points": [{"co": {"Y": -1, "X": 1}, "interpolation": 2}]}, "shear_x": {"Points": [{"co": {"Y": 0, "X": 1}, "interpolation": 2}]}, "channel_filter": {"Points": [{"co": {"Y": -1, "X": 1}, "interpolation": 2}]}, "duration": 86400.0, "perspective_c1_x": {"Points": [{"co": {"Y": -1, "X": 1}, "interpolation": 2}]}, "perspective_c2_x": {"Points": [{"co": {"Y": -1, "X": 1}, "interpolation": 2}]}, "alpha": {"Points": [{"handle_right": {"Y": 0, "X": 0.5}, "handle_type": 0, "handle_left": {"Y": 1, "X": 0.5}, "co": {"Y": 1, "X": 1}, "interpolation": 0}, {"handle_right": {"Y": 0, "X": 0.5}, "handle_type": 0, "handle_left": {"Y": 1, "X": 0.5}, "co": {"Y": 0, "X": 1}, "interpolation": 0}, {"handle_right": {"Y": 0, "X": 0.5}, "handle_type": 0, "handle_left": {"Y": 1, "X": 0.5}, "co": {"Y": 1, "X": 73}, "interpolation": 0}, {"handle_right": {"Y": 0, "X": 0.5}, "handle_type": 0, "handle_left": {"Y": 1, "X": 0.5}, "co": {"Y": 1, "X": 216}, "interpolation": 0}, {"handle_right": {"Y": 0, "X": 0.5}, "handle_type": 0, "handle_left": {"Y": 1, "X": 0.5}, "co": {"Y": 0, "X": 288}, "interpolation": 0}]}, "id": "MDW7G3JTN7", "layer": 2, "file_id": "BS7QREURZM", "display": 0, "scale": 1, "gravity": 4, "crop_width": {"Points": [{"co": {"Y": -1, "X": 1}, "interpolation": 2}]}, "crop_x": {"Points": [{"co": {"Y": 0, "X": 1}, "interpolation": 2}]}, "perspective_c4_x": {"Points": [{"co": {"Y": -1, "X": 1}, "interpolation": 2}]}, "volume": {"Points": [{"co": {"Y": 1, "X": 1}, "interpolation": 2}]}, "start": 0, "rotation": {"Points": [{"co": {"Y": 0, "X": 1}, "interpolation": 2}]}, "crop_y": {"Points": [{"co": {"Y": 0, "X": 1}, "interpolation": 2}]}, "position": 103.86000061035156, "has_video": {"Points": [{"co": {"Y": -1, "X": 1}, "interpolation": 2}]}, "has_audio": {"Points": [{"co": {"Y": -1, "X": 1}, "interpolation": 2}]}, "channel_mapping": {"Points": [{"co": {"Y": -1, "X": 1}, "interpolation": 2}]}, "end": 11.97, "shear_y": {"Points": [{"co": {"Y": 0, "X": 1}, "interpolation": 2}]}, "perspective_c3_x": {"Points": [{"co": {"Y": -1, "X": 1}, "interpolation": 2}]}, "scale_x": {"Points": [{"co": {"Y": 1, "X": 1}, "interpolation": 2}]}, "location_x": {"Points": [{"co": {"Y": 0, "X": 1}, "interpolation": 2}]}, "location_y": {"Points": [{"co": {"Y": 0, "X": 1}, "interpolation": 2}]}, "image": "/home/milind/.openshot_qt/thumbnail/BS7QREURZM.png", "perspective_c2_y": {"Points": [{"co": {"Y": -1, "X": 1}, "interpolation": 2}]}, "waveform": false, "perspective_c1_y": {"Points": [{"co": {"Y": -1, "X": 1}, "interpolation": 2}]}, "title": "!086-Then Fail Else Pass.svg", "perspective_c4_y": {"Points": [{"co": {"Y": -1, "X": 1}, "interpolation": 2}]}, "anchor": 0, "wave_color": {"red": {"Points": [{"handle_right": {"Y": 0, "X": 0.5}, "handle_type": 0, "handle_left": {"Y": 1, "X": 0.5}, "co": {"Y": 0, "X": 1}, "interpolation": 0}]}, "green": {"Points": [{"handle_right": {"Y": 0, "X": 0.5}, "handle_type": 0, "handle_left": {"Y": 1, "X": 0.5}, "co": {"Y": 123, "X": 1}, "interpolation": 0}]}, "blue": {"Points": [{"handle_right": {"Y": 0, "X": 0.5}, "handle_type": 0, "handle_left": {"Y": 1, "X": 0.5}, "co": {"Y": 255, "X": 1}, "interpolation": 0}]}, "alpha": {"Points": [{"handle_right": {"Y": 0, "X": 0.5}, "handle_type": 0, "handle_left": {"Y": 1, "X": 0.5}, "co": {"Y": 255, "X": 1}, "interpolation": 0}]}}, "time": {"Points": [{"co": {"Y": 1, "X": 1}, "interpolation": 2}]}, "effects": [], "crop_height": {"Points": [{"co": {"Y": -1, "X": 1}, "interpolation": 2}]}, "scale_y": {"Points": [{"co": {"Y": 1, "X": 1}, "interpolation": 2}]}, "reader": {"video_stream_index": -1, "top_field_first": true, "interlaced_frame": false, "audio_bit_rate": 0, "audio_timebase": {"den": 1, "num": 1}, "duration": 86400.0, "channels": 0, "has_video": true, "channel_layout": 4, "has_audio": false, "video_timebase": {"den": 30, "num": 1}, "has_single_image": true, "acodec": "", "video_bit_rate": 0, "display_ratio": {"den": 3827, "num": 6803}, "audio_stream_index": -1, "type": "QtImageReader", "video_length": "2592000", "width": 6803, "pixel_ratio": {"den": 1, "num": 1}, "height": 3827, "vcodec": "", "file_size": "104140324", "path": "/home/milind/Data/Projects/ProgressCard/!086-Then Fail Else Pass.svg", "fps": {"den": 1, "num": 30}, "pixel_format": -1, "sample_rate": 0}}, {"perspective_c3_y": {"Points": [{"co": {"Y": -1, "X": 1}, "interpolation": 2}]}, "shear_x": {"Points": [{"co": {"Y": 0, "X": 1}, "interpolation": 2}]}, "channel_filter": {"Points": [{"co": {"Y": -1, "X": 1}, "interpolation": 2}]}, "duration": 86400.0, "perspective_c1_x": {"Points": [{"co": {"Y": -1, "X": 1}, "interpolation": 2}]}, "perspective_c2_x": {"Points": [{"co": {"Y": -1, "X": 1}, "interpolation": 2}]}, "alpha": {"Points": [{"co": {"Y": 1, "X": 1}, "interpolation": 2}, {"handle_right": {"Y": 0, "X": 0.5}, "handle_type": 0, "handle_left": {"Y": 1, "X": 0.5}, "co": {"Y": 0, "X": 1}, "interpolation": 0}, {"handle_right": {"Y": 0, "X": 0.5}, "handle_type": 0, "handle_left": {"Y": 1, "X": 0.5}, "co": {"Y": 1, "X": 73}, "interpolation": 0}, {"handle_right": {"Y": 0, "X": 0.5}, "handle_type": 0, "handle_left": {"Y": 1, "X": 0.5}, "co": {"Y": 1, "X": 102}, "interpolation": 0}, {"handle_right": {"Y": 0, "X": 0.5}, "handle_type": 0, "handle_left": {"Y": 1, "X": 0.5}, "co": {"Y": 0, "X": 174}, "interpolation": 0}]}, "id": "CXD9GF0U7L", "layer": 2, "file_id": "AA811BEMSM", "display": 0, "scale": 1, "gravity": 4, "crop_width": {"Points": [{"co": {"Y": -1, "X": 1}, "interpolation": 2}]}, "crop_x": {"Points": [{"co": {"Y": 0, "X": 1}, "interpolation": 2}]}, "perspective_c4_x": {"Points": [{"co": {"Y": -1, "X": 1}, "interpolation": 2}]}, "volume": {"Points": [{"co": {"Y": 1, "X": 1}, "interpolation": 2}]}, "start": 0, "rotation": {"Points": [{"co": {"Y": 0, "X": 1}, "interpolation": 2}]}, "crop_y": {"Points": [{"co": {"Y": 0, "X": 1}, "interpolation": 2}]}, "position": 177.65796874999998, "has_video": {"Points": [{"co": {"Y": -1, "X": 1}, "interpolation": 2}]}, "has_audio": {"Points": [{"co": {"Y": -1, "X": 1}, "interpolation": 2}]}, "channel_mapping": {"Points": [{"co": {"Y": -1, "X": 1}, "interpolation": 2}]}, "end": 7.21, "shear_y": {"Points": [{"co": {"Y": 0, "X": 1}, "interpolation": 2}]}, "perspective_c3_x": {"Points": [{"co": {"Y": -1, "X": 1}, "interpolation": 2}]}, "scale_x": {"Points": [{"co": {"Y": 1, "X": 1}, "interpolation": 2}]}, "location_x": {"Points": [{"co": {"Y": 0, "X": 1}, "interpolation": 2}]}, "location_y": {"Points": [{"co": {"Y": 0, "X": 1}, "interpolation": 2}]}, "image": "/home/milind/.openshot_qt/thumbnail/AA811BEMSM.png", "perspective_c2_y": {"Points": [{"co": {"Y": -1, "X": 1}, "interpolation": 2}]}, "waveform": false, "perspective_c1_y": {"Points": [{"co": {"Y": -1, "X": 1}, "interpolation": 2}]}, "title": "!135-Grade.svg", "perspective_c4_y": {"Points": [{"co": {"Y": -1, "X": 1}, "interpolation": 2}]}, "anchor": 0, "wave_color": {"blue": {"Points": [{"handle_right": {"Y": 0, "X": 0.5}, "handle_type": 0, "handle_left": {"Y": 1, "X": 0.5}, "co": {"Y": 255, "X": 1}, "interpolation": 0}]}, "green": {"Points": [{"handle_right": {"Y": 0, "X": 0.5}, "handle_type": 0, "handle_left": {"Y": 1, "X": 0.5}, "co": {"Y": 123, "X": 1}, "interpolation": 0}]}, "red": {"Points": [{"handle_right": {"Y": 0, "X": 0.5}, "handle_type": 0, "handle_left": {"Y": 1, "X": 0.5}, "co": {"Y": 0, "X": 1}, "interpolation": 0}]}, "alpha": {"Points": [{"handle_right": {"Y": 0, "X": 0.5}, "handle_type": 0, "handle_left": {"Y": 1, "X": 0.5}, "co": {"Y": 255, "X": 1}, "interpolation": 0}]}}, "time": {"Points": [{"co": {"Y": 1, "X": 1}, "interpolation": 2}]}, "effects": [], "crop_height": {"Points": [{"co": {"Y": -1, "X": 1}, "interpolation": 2}]}, "scale_y": {"Points": [{"co": {"Y": 1, "X": 1}, "interpolation": 2}]}, "reader": {"video_stream_index": -1, "top_field_first": true, "interlaced_frame": false, "audio_bit_rate": 0, "audio_timebase": {"den": 1, "num": 1}, "duration": 86400.0, "channels": 0, "has_video": true, "channel_layout": 4, "has_audio": false, "video_timebase": {"den": 30, "num": 1}, "has_single_image": true, "acodec": "", "video_bit_rate": 0, "display_ratio": {"den": 3827, "num": 6803}, "audio_stream_index": -1, "type": "QtImageReader", "video_length": "2592000", "width": 6803, "pixel_ratio": {"den": 1, "num": 1}, "height": 3827, "vcodec": "", "file_size": "104140324", "path": "/home/milind/Data/Projects/ProgressCard/!135-Grade.svg", "fps": {"den": 1, "num": 30}, "pixel_format": -1, "sample_rate": 0}}], "key": ["clips"]}, {"partial": false, "type": "update", "value": {"layer": 2, "position": 196.41666666666666, "image": "/home/milind/.openshot_qt/thumbnail/U4HEYX76VH.png", "end": 5, "start": 0, "id": "DVT7KHN9HZ"}, "old_values": {"perspective_c3_x": {"Points": [{"co": {"Y": -1, "X": 1}, "interpolation": 2}]}, "perspective_c4_x": {"Points": [{"co": {"Y": -1, "X": 1}, "interpolation": 2}]}, "channel_filter": {"Points": [{"co": {"Y": -1, "X": 1}, "interpolation": 2}]}, "image": "/home/milind/.openshot_qt/thumbnail/U4HEYX76VH.png", "crop_height": {"Points": [{"co": {"Y": -1, "X": 1}, "interpolation": 2}]}, "duration": 86400.0, "perspective_c1_x": {"Points": [{"co": {"Y": -1, "X": 1}, "interpolation": 2}]}, "perspective_c2_x": {"Points": [{"co": {"Y": -1, "X": 1}, "interpolation": 2}]}, "alpha": {"Points": [{"co": {"Y": 1, "X": 1}, "interpolation": 2}]}, "id": "DVT7KHN9HZ", "layer": 2, "display": 0, "scale": 1, "gravity": 4, "crop_width": {"Points": [{"co": {"Y": -1, "X": 1}, "interpolation": 2}]}, "crop_x": {"Points": [{"co": {"Y": 0, "X": 1}, "interpolation": 2}]}, "shear_x": {"Points": [{"co": {"Y": 0, "X": 1}, "interpolation": 2}]}, "volume": {"Points": [{"co": {"Y": 1, "X": 1}, "interpolation": 2}]}, "has_audio": {"Points": [{"co": {"Y": -1, "X": 1}, "interpolation": 2}]}, "rotation": {"Points": [{"co": {"Y": 0, "X": 1}, "interpolation": 2}]}, "crop_y": {"Points": [{"co": {"Y": 0, "X": 1}, "interpolation": 2}]}, "position": 164.89999999999998, "has_video": {"Points": [{"co": {"Y": -1, "X": 1}, "interpolation": 2}]}, "start": 0, "channel_mapping": {"Points": [{"co": {"Y": -1, "X": 1}, "interpolation": 2}]}, "end": 5.0, "waveform": false, "perspective_c3_y": {"Points": [{"co": {"Y": -1, "X": 1}, "interpolation": 2}]}, "scale_x": {"Points": [{"co": {"Y": 1, "X": 1}, "interpolation": 2}]}, "location_x": {"Points": [{"co": {"Y": 0, "X": 1}, "interpolation": 2}]}, "location_y": {"Points": [{"co": {"Y": 0, "X": 1}, "interpolation": 2}]}, "shear_y": {"Points": [{"co": {"Y": 0, "X": 1}, "interpolation": 2}]}, "perspective_c2_y": {"Points": [{"co": {"Y": -1, "X": 1}, "interpolation": 2}]}, "perspective_c1_y": {"Points": [{"co": {"Y": -1, "X": 1}, "interpolation": 2}]}, "title": "!145-PROMOTED.svg", "perspective_c4_y": {"Points": [{"co": {"Y": -1, "X": 1}, "interpolation": 2}]}, "anchor": 0, "wave_color": {"blue": {"Points": [{"handle_right": {"Y": 0, "X": 0.5}, "handle_type": 0, "handle_left": {"Y": 1, "X": 0.5}, "co": {"Y": 255, "X": 1}, "interpolation": 0}]}, "green": {"Points": [{"handle_right": {"Y": 0, "X": 0.5}, "handle_type": 0, "handle_left": {"Y": 1, "X": 0.5}, "co": {"Y": 123, "X": 1}, "interpolation": 0}]}, "red": {"Points": [{"handle_right": {"Y": 0, "X": 0.5}, "handle_type": 0, "handle_left": {"Y": 1, "X": 0.5}, "co": {"Y": 0, "X": 1}, "interpolation": 0}]}, "alpha": {"Points": [{"handle_right": {"Y": 0, "X": 0.5}, "handle_type": 0, "handle_left": {"Y": 1, "X": 0.5}, "co": {"Y": 255, "X": 1}, "interpolation": 0}]}}, "time": {"Points": [{"co": {"Y": 1, "X": 1}, "interpolation": 2}]}, "effects": [], "file_id": "U4HEYX76VH", "scale_y": {"Points": [{"co": {"Y": 1, "X": 1}, "interpolation": 2}]}, "reader": {"video_stream_index": -1, "top_field_first": true, "interlaced_frame": false, "audio_bit_rate": 0, "audio_timebase": {"den": 1, "num": 1}, "duration": 86400.0, "channels": 0, "has_video": true, "channel_layout": 4, "has_audio": false, "video_timebase": {"den": 30, "num": 1}, "has_single_image": true, "acodec": "", "video_bit_rate": 0, "display_ratio": {"den": 3827, "num": 6803}, "audio_stream_index": -1, "type": "QtImageReader", "video_length": "2592000", "width": 6803, "pixel_ratio": {"den": 1, "num": 1}, "height": 3827, "vcodec": "", "file_size": "104140324", "path": "/home/milind/Data/Projects/ProgressCard/!145-PROMOTED.svg", "fps": {"den": 1, "num": 30}, "pixel_format": -1, "sample_rate": 0}}, "key": ["clips", {"id": "DVT7KHN9HZ"}]}, {"partial": false, "type": "insert", "value": {"perspective_c2_x": {"Points": [{"co": {"Y": -1, "X": 1}, "interpolation": 2}]}, "perspective_c3_x": {"Points": [{"co": {"Y": -1, "X": 1}, "interpolation": 2}]}, "shear_x": {"Points": [{"co": {"Y": 0, "X": 1}, "interpolation": 2}]}, "channel_filter": {"Points": [{"co": {"Y": -1, "X": 1}, "interpolation": 2}]}, "crop_height": {"Points": [{"co": {"Y": -1, "X": 1}, "interpolation": 2}]}, "duration": 86400.0, "perspective_c1_x": {"Points": [{"co": {"Y": -1, "X": 1}, "interpolation": 2}]}, "anchor": 0, "alpha": {"Points": [{"co": {"Y": 1, "X": 1}, "interpolation": 2}]}, "id": "53HWYMUXFZ", "layer": 2, "display": 0, "scale": 1, "gravity": 4, "crop_width": {"Points": [{"co": {"Y": -1, "X": 1}, "interpolation": 2}]}, "crop_x": {"Points": [{"co": {"Y": 0, "X": 1}, "interpolation": 2}]}, "perspective_c4_x": {"Points": [{"co": {"Y": -1, "X": 1}, "interpolation": 2}]}, "volume": {"Points": [{"co": {"Y": 1, "X": 1}, "interpolation": 2}]}, "start": 0, "has_video": {"Points": [{"co": {"Y": -1, "X": 1}, "interpolation": 2}]}, "rotation": {"Points": [{"co": {"Y": 0, "X": 1}, "interpolation": 2}]}, "reader": {"video_stream_index": -1, "video_length": "2592000", "interlaced_frame": false, "audio_bit_rate": 0, "audio_timebase": {"den": 1, "num": 1}, "duration": 86400.0, "channels": 0, "video_bit_rate": 0, "channel_layout": 4, "path": "/home/milind/Data/Projects/ProgressCard/!145-PASS CLASS.svg", "has_audio": false, "video_timebase": {"den": 30, "num": 1}, "has_single_image": true, "acodec": "", "has_video": true, "display_ratio": {"den": 3827, "num": 6803}, "audio_stream_index": -1, "type": "QtImageReader", "top_field_first": true, "width": 6803, "pixel_ratio": {"den": 1, "num": 1}, "height": 3827, "vcodec": "", "file_size": "104140324", "sample_rate": 0, "fps": {"den": 1, "num": 30}, "pixel_format": -1}, "position": 198.58124999999998, "image": "/home/milind/.openshot_qt/thumbnail/QKE4L0GUDK.png", "has_audio": {"Points": [{"co": {"Y": -1, "X": 1}, "interpolation": 2}]}, "channel_mapping": {"Points": [{"co": {"Y": -1, "X": 1}, "interpolation": 2}]}, "shear_y": {"Points": [{"co": {"Y": 0, "X": 1}, "interpolation": 2}]}, "end": 5, "waveform": false, "perspective_c3_y": {"Points": [{"co": {"Y": -1, "X": 1}, "interpolation": 2}]}, "scale_x": {"Points": [{"co": {"Y": 1, "X": 1}, "interpolation": 2}]}, "location_x": {"Points": [{"co": {"Y": 0, "X": 1}, "interpolation": 2}]}, "location_y": {"Points": [{"co": {"Y": 0, "X": 1}, "interpolation": 2}]}, "file_id": "QKE4L0GUDK", "perspective_c2_y": {"Points": [{"co": {"Y": -1, "X": 1}, "interpolation": 2}]}, "perspective_c1_y": {"Points": [{"co": {"Y": -1, "X": 1}, "interpolation": 2}]}, "title": "!145-PASS CLASS.svg", "perspective_c4_y": {"Points": [{"co": {"Y": -1, "X": 1}, "interpolation": 2}]}, "wave_color": {"red": {"Points": [{"handle_right": {"Y": 0, "X": 0.5}, "handle_type": 0, "handle_left": {"Y": 1, "X": 0.5}, "co": {"Y": 0, "X": 1}, "interpolation": 0}]}, "green": {"Points": [{"handle_right": {"Y": 0, "X": 0.5}, "handle_type": 0, "handle_left": {"Y": 1, "X": 0.5}, "co": {"Y": 123, "X": 1}, "interpolation": 0}]}, "blue": {"Points": [{"handle_right": {"Y": 0, "X": 0.5}, "handle_type": 0, "handle_left": {"Y": 1, "X": 0.5}, "co": {"Y": 255, "X": 1}, "interpolation": 0}]}, "alpha": {"Points": [{"handle_right": {"Y": 0, "X": 0.5}, "handle_type": 0, "handle_left": {"Y": 1, "X": 0.5}, "co": {"Y": 255, "X": 1}, "interpolation": 0}]}}, "time": {"Points": [{"co": {"Y": 1, "X": 1}, "interpolation": 2}]}, "crop_y": {"Points": [{"co": {"Y": 0, "X": 1}, "interpolation": 2}]}, "scale_y": {"Points": [{"co": {"Y": 1, "X": 1}, "interpolation": 2}]}, "effects": []}, "old_values": [{"location_x": {"Points": [{"co": {"Y": 0.0, "X": 1.0}, "interpolation": 2}]}, "perspective_c3_x": {"Points": [{"co": {"Y": -1.0, "X": 1.0}, "interpolation": 2}]}, "perspective_c4_x": {"Points": [{"co": {"Y": -1.0, "X": 1.0}, "interpolation": 2}]}, "channel_filter": {"Points": [{"co": {"Y": -1.0, "X": 1.0}, "interpolation": 2}]}, "anchor": 0, "perspective_c1_x": {"Points": [{"co": {"Y": -1.0, "X": 1.0}, "interpolation": 2}]}, "perspective_c2_x": {"Points": [{"co": {"Y": -1.0, "X": 1.0}, "interpolation": 2}]}, "alpha": {"Points": [{"co": {"Y": 1.0, "X": 1.0}, "interpolation": 2}, {"handle_right": {"Y": 0.0, "X": 0.5}, "handle_type": 0, "handle_left": {"Y": 1.0, "X": 0.5}, "co": {"Y": 0.0, "X": 1.0}, "interpolation": 0}, {"handle_right": {"Y": 0.0, "X": 0.5}, "handle_type": 0, "handle_left": {"Y": 1.0, "X": 0.5}, "co": {"Y": 1.0, "X": 73.0}, "interpolation": 0}]}, "id": "IUE2QUN59C", "layer": 0, "file_id": "0F0RWXSQM9", "display": 0, "scale": 1, "gravity": 4, "crop_width": {"Points": [{"co": {"Y": -1.0, "X": 1.0}, "interpolation": 2}]}, "crop_x": {"Points": [{"co": {"Y": 0.0, "X": 1.0}, "interpolation": 2}]}, "shear_x": {"Points": [{"co": {"Y": 0.0, "X": 1.0}, "interpolation": 2}]}, "volume": {"Points": [{"co": {"Y": 1.0, "X": 1.0}, "interpolation": 2}]}, "start": 0, "rotation": {"Points": [{"co": {"Y": 0.0, "X": 1.0}, "interpolation": 2}]}, "reader": {"video_stream_index": -1, "video_length": "2592000", "interlaced_frame": false, "audio_bit_rate": 0, "audio_timebase": {"den": 1, "num": 1}, "vcodec": "", "channels": 0, "has_video": true, "channel_layout": 4, "has_audio": false, "video_timebase": {"den": 30, "num": 1}, "has_single_image": true, "acodec": "", "video_bit_rate": 0, "display_ratio": {"den": 9, "num": 16}, "audio_stream_index": -1, "type": "QtImageReader", "top_field_first": true, "width": 1920, "pixel_ratio": {"den": 1, "num": 1}, "height": 1080, "duration": 86400.0, "file_size": "8294400", "path": "/home/milind/Data/Projects/ProgressCard/!000-White-Background.svg", "fps": {"den": 1, "num": 30}, "pixel_format": -1, "sample_rate": 0}, "position": 0, "has_video": {"Points": [{"co": {"Y": -1.0, "X": 1.0}, "interpolation": 2}]}, "has_audio": {"Points": [{"co": {"Y": -1.0, "X": 1.0}, "interpolation": 2}]}, "channel_mapping": {"Points": [{"co": {"Y": -1.0, "X": 1.0}, "interpolation": 2}]}, "shear_y": {"Points": [{"co": {"Y": 0.0, "X": 1.0}, "interpolation": 2}]}, "perspective_c3_y": {"Points": [{"co": {"Y": -1.0, "X": 1.0}, "interpolation": 2}]}, "waveform": false, "end": 10, "scale_x": {"Points": [{"co": {"Y": 1.0, "X": 1.0}, "interpolation": 2}]}, "image": "/home/milind/.openshot_qt/thumbnail/0F0RWXSQM9.png", "location_y": {"Points": [{"co": {"Y": 0.0, "X": 1.0}, "interpolation": 2}]}, "crop_y": {"Points": [{"co": {"Y": 0.0, "X": 1.0}, "interpolation": 2}]}, "perspective_c2_y": {"Points": [{"co": {"Y": -1.0, "X": 1.0}, "interpolation": 2}]}, "perspective_c1_y": {"Points": [{"co": {"Y": -1.0, "X": 1.0}, "interpolation": 2}]}, "title": "!000-White-Background.svg", "perspective_c4_y": {"Points": [{"co": {"Y": -1.0, "X": 1.0}, "interpolation": 2}]}, "duration": 86400.0, "wave_color": {"red": {"Points": [{"handle_right": {"Y": 0.0, "X": 0.5}, "handle_type": 0, "handle_left": {"Y": 1.0, "X": 0.5}, "co": {"Y": 0.0, "X": 1.0}, "interpolation": 0}]}, "green": {"Points": [{"handle_right": {"Y": 0.0, "X": 0.5}, "handle_type": 0, "handle_left": {"Y": 1.0, "X": 0.5}, "co": {"Y": 123.0, "X": 1.0}, "interpolation": 0}]}, "blue": {"Points": [{"handle_right": {"Y": 0.0, "X": 0.5}, "handle_type": 0, "handle_left": {"Y": 1.0, "X": 0.5}, "co": {"Y": 255.0, "X": 1.0}, "interpolation": 0}]}, "alpha": {"Points": [{"handle_right": {"Y": 0.0, "X": 0.5}, "handle_type": 0, "handle_left": {"Y": 1.0, "X": 0.5}, "co": {"Y": 255.0, "X": 1.0}, "interpolation": 0}]}}, "time": {"Points": [{"co": {"Y": 1.0, "X": 1.0}, "interpolation": 2}]}, "crop_height": {"Points": [{"co": {"Y": -1.0, "X": 1.0}, "interpolation": 2}]}, "scale_y": {"Points": [{"co": {"Y": 1.0, "X": 1.0}, "interpolation": 2}]}, "effects": []}, {"location_x": {"Points": [{"handle_right": {"Y": 0.0, "X": 0.5}, "handle_type": 0, "handle_left": {"Y": 1.0, "X": 0.5}, "co": {"Y": 0.33000001311302185, "X": 1.0}, "interpolation": 0}, {"co": {"Y": -0.07999999821186066, "X": 178}, "interpolation": 1}, {"co": {"Y": -0.07999999821186066, "X": 117}, "interpolation": 1}]}, "perspective_c3_x": {"Points": [{"co": {"Y": -1.0, "X": 1.0}, "interpolation": 2}]}, "perspective_c4_x": {"Points": [{"co": {"Y": -1.0, "X": 1.0}, "interpolation": 2}]}, "channel_filter": {"Points": [{"co": {"Y": -1.0, "X": 1.0}, "interpolation": 2}]}, "perspective_c2_x": {"Points": [{"co": {"Y": -1.0, "X": 1.0}, "interpolation": 2}]}, "perspective_c1_x": {"Points": [{"co": {"Y": -1.0, "X": 1.0}, "interpolation": 2}]}, "anchor": 0, "alpha": {"Points": [{"handle_right": {"Y": 0, "X": 0.5}, "handle_type": 0, "handle_left": {"Y": 1, "X": 0.5}, "co": {"Y": 1, "X": 1}, "interpolation": 0}, {"handle_right": {"Y": 0, "X": 0.5}, "handle_type": 0, "handle_left": {"Y": 1, "X": 0.5}, "co": {"Y": 0, "X": 117}, "interpolation": 0}, {"handle_right": {"Y": 0, "X": 0.5}, "handle_type": 0, "handle_left": {"Y": 1, "X": 0.5}, "co": {"Y": 1, "X": 189}, "interpolation": 0}, {"handle_right": {"Y": 0, "X": 0.5}, "handle_type": 0, "handle_left": {"Y": 1, "X": 0.5}, "co": {"Y": 1, "X": 1687}, "interpolation": 0}, {"handle_right": {"Y": 0, "X": 0.5}, "handle_type": 0, "handle_left": {"Y": 1, "X": 0.5}, "co": {"Y": 0, "X": 1759}, "interpolation": 0}]}, "id": "6XU1ZMQNAO", "position": 1.0, "file_id": "O1AEGRKDWZ", "display": 0, "scale": 1, "gravity": 4, "crop_width": {"Points": [{"co": {"Y": -1.0, "X": 1.0}, "interpolation": 2}]}, "crop_x": {"Points": [{"co": {"Y": 0.0, "X": 1.0}, "interpolation": 2}]}, "shear_x": {"Points": [{"co": {"Y": 0.0, "X": 1.0}, "interpolation": 2}]}, "volume": {"Points": [{"co": {"Y": 1.0, "X": 1.0}, "interpolation": 2}]}, "start": 4.8483333333333345, "title": "!080-GT,GC,TC.mkv", "reader": {"video_stream_index": 0, "video_length": "3650", "interlaced_frame": false, "audio_bit_rate": 0, "audio_timebase": {"den": 1, "num": 1}, "vcodec": "h264", "channels": 0, "has_video": true, "channel_layout": 4, "has_audio": false, "video_timebase": {"den": 1000, "num": 1}, "has_single_image": false, "acodec": "", "video_bit_rate": 0, "display_ratio": {"den": 186, "num": 325}, "audio_stream_index": -1, "type": "FFmpegReader", "top_field_first": true, "width": 1300, "pixel_ratio": {"den": 1, "num": 1}, "height": 744, "duration": 146.0, "file_size": "1130835", "path": "/home/milind/Data/Projects/ProgressCard/!080-GT,GC,TC.mkv", "fps": {"den": 1, "num": 25}, "pixel_format": 0, "sample_rate": 0}, "layer": 1, "has_video": {"Points": [{"co": {"Y": -1.0, "X": 1.0}, "interpolation": 2}]}, "has_audio": {"Points": [{"co": {"Y": -1.0, "X": 1.0}, "interpolation": 2}]}, "channel_mapping": {"Points": [{"co": {"Y": -1.0, "X": 1.0}, "interpolation": 2}]}, "shear_y": {"Points": [{"co": {"Y": 0.0, "X": 1.0}, "interpolation": 2}]}, "perspective_c3_y": {"Points": [{"co": {"Y": -1.0, "X": 1.0}, "interpolation": 2}]}, "waveform": false, "end": 73.25, "scale_x": {"Points": [{"handle_right": {"Y": 0.0, "X": 0.5}, "handle_type": 0, "handle_left": {"Y": 1.0, "X": 0.5}, "co": {"Y": 2.200000047683716, "X": 1.0}, "interpolation": 0}, {"co": {"Y": 2.299999952316284, "X": 178}, "interpolation": 1}]}, "image": "/home/milind/.openshot_qt/thumbnail/6XU1ZMQNAO-122.png", "location_y": {"Points": [{"handle_right": {"Y": 0.0, "X": 0.5}, "handle_type": 0, "handle_left": {"Y": 1.0, "X": 0.5}, "co": {"Y": 0.5199999809265137, "X": 1.0}, "interpolation": 0}, {"co": {"Y": 0.5199999809265137, "X": 178}, "interpolation": 1}]}, "crop_y": {"Points": [{"co": {"Y": 0.0, "X": 1.0}, "interpolation": 2}]}, "perspective_c2_y": {"Points": [{"co": {"Y": -1.0, "X": 1.0}, "interpolation": 2}]}, "perspective_c1_y": {"Points": [{"co": {"Y": -1.0, "X": 1.0}, "interpolation": 2}]}, "rotation": {"Points": [{"co": {"Y": 0.0, "X": 1.0}, "interpolation": 2}]}, "perspective_c4_y": {"Points": [{"co": {"Y": -1.0, "X": 1.0}, "interpolation": 2}]}, "duration": 72.0, "wave_color": {"red": {"Points": [{"handle_right": {"Y": 0.0, "X": 0.5}, "handle_type": 0, "handle_left": {"Y": 1.0, "X": 0.5}, "co": {"Y": 0.0, "X": 1.0}, "interpolation": 0}]}, "green": {"Points": [{"handle_right": {"Y": 0.0, "X": 0.5}, "handle_type": 0, "handle_left": {"Y": 1.0, "X": 0.5}, "co": {"Y": 123.0, "X": 1.0}, "interpolation": 0}]}, "blue": {"Points": [{"handle_right": {"Y": 0.0, "X": 0.5}, "handle_type": 0, "handle_left": {"Y": 1.0, "X": 0.5}, "co": {"Y": 255.0, "X": 1.0}, "interpolation": 0}]}, "alpha": {"Points": [{"handle_right": {"Y": 0.0, "X": 0.5}, "handle_type": 0, "handle_left": {"Y": 1.0, "X": 0.5}, "co": {"Y": 255.0, "X": 1.0}, "interpolation": 0}]}}, "time": {"Points": [{"co": {"Y": 117, "X": 117}, "interpolation": 1}, {"co": {"Y": 3399, "X": 1758}, "interpolation": 1}]}, "crop_height": {"Points": [{"co": {"Y": -1.0, "X": 1.0}, "interpolation": 2}]}, "scale_y": {"Points": [{"handle_right": {"Y": 0.0, "X": 0.5}, "handle_type": 0, "handle_left": {"Y": 1.0, "X": 0.5}, "co": {"Y": 2.200000047683716, "X": 1.0}, "interpolation": 0}, {"co": {"Y": 2.299999952316284, "X": 178}, "interpolation": 1}]}, "effects": []}, {"location_x": {"Points": [{"handle_right": {"Y": 0.0, "X": 0.5}, "handle_type": 0, "handle_left": {"Y": 1.0, "X": 0.5}, "co": {"Y": -0.07999999821186066, "X": 1.0}, "interpolation": 0}]}, "perspective_c3_x": {"Points": [{"co": {"Y": -1.0, "X": 1.0}, "interpolation": 2}]}, "perspective_c4_x": {"Points": [{"co": {"Y": -1.0, "X": 1.0}, "interpolation": 2}]}, "channel_filter": {"Points": [{"co": {"Y": -1.0, "X": 1.0}, "interpolation": 2}]}, "perspective_c2_x": {"Points": [{"co": {"Y": -1.0, "X": 1.0}, "interpolation": 2}]}, "perspective_c1_x": {"Points": [{"co": {"Y": -1.0, "X": 1.0}, "interpolation": 2}]}, "anchor": 0, "alpha": {"Points": [{"handle_right": {"Y": 0, "X": 0.5}, "handle_type": 0, "handle_left": {"Y": 1, "X": 0.5}, "co": {"Y": 1, "X": 1}, "interpolation": 0}, {"handle_right": {"Y": 0, "X": 0.5}, "handle_type": 0, "handle_left": {"Y": 1, "X": 0.5}, "co": {"Y": 0, "X": 1}, "interpolation": 0}, {"handle_right": {"Y": 0, "X": 0.5}, "handle_type": 0, "handle_left": {"Y": 1, "X": 0.5}, "co": {"Y": 1, "X": 73}, "interpolation": 0}, {"handle_right": {"Y": 0, "X": 0.5}, "handle_type": 0, "handle_left": {"Y": 1, "X": 0.5}, "co": {"Y": 1, "X": 1153}, "interpolation": 0}, {"handle_right": {"Y": 0, "X": 0.5}, "handle_type": 0, "handle_left": {"Y": 1, "X": 0.5}, "co": {"Y": 0, "X": 1225}, "interpolation": 0}]}, "id": "A2EZ4WBLRE", "layer": 1, "file_id": "XBE2IATTEN", "display": 0, "scale": 1, "gravity": 4, "crop_width": {"Points": [{"co": {"Y": -1.0, "X": 1.0}, "interpolation": 2}]}, "crop_x": {"Points": [{"co": {"Y": 0.0, "X": 1.0}, "interpolation": 2}]}, "shear_x": {"Points": [{"co": {"Y": 0.0, "X": 1.0}, "interpolation": 2}]}, "volume": {"Points": [{"co": {"Y": 1.0, "X": 1.0}, "interpolation": 2}]}, "start": 0, "rotation": {"Points": [{"co": {"Y": 0.0, "X": 1.0}, "interpolation": 2}]}, "reader": {"video_stream_index": 0, "video_length": "2575", "interlaced_frame": false, "audio_bit_rate": 0, "audio_timebase": {"den": 1, "num": 1}, "vcodec": "h264", "channels": 0, "has_video": true, "channel_layout": 4, "has_audio": false, "video_timebase": {"den": 1000, "num": 1}, "has_single_image": false, "acodec": "", "video_bit_rate": 0, "display_ratio": {"den": 186, "num": 325}, "audio_stream_index": -1, "type": "FFmpegReader", "top_field_first": true, "width": 1300, "pixel_ratio": {"den": 1, "num": 1}, "height": 744, "duration": 103.0, "file_size": "822519", "path": "/home/milind/Data/Projects/ProgressCard/!090-Remark - PASS or FAIL.mkv", "fps": {"den": 1, "num": 25}, "pixel_format": 0, "sample_rate": 0}, "position": 74.768125, "has_video": {"Points": [{"co": {"Y": -1.0, "X": 1.0}, "interpolation": 2}]}, "has_audio": {"Points": [{"co": {"Y": -1.0, "X": 1.0}, "interpolation": 2}]}, "channel_mapping": {"Points": [{"co": {"Y": -1.0, "X": 1.0}, "interpolation": 2}]}, "shear_y": {"Points": [{"co": {"Y": 0.0, "X": 1.0}, "interpolation": 2}]}, "perspective_c3_y": {"Points": [{"co": {"Y": -1.0, "X": 1.0}, "interpolation": 2}]}, "waveform": false, "end": 51, "scale_x": {"Points": [{"handle_right": {"Y": 0.0, "X": 0.5}, "handle_type": 0, "handle_left": {"Y": 1.0, "X": 0.5}, "co": {"Y": 2.299999952316284, "X": 1.0}, "interpolation": 0}]}, "image": "/home/milind/.openshot_qt/thumbnail/XBE2IATTEN.png", "location_y": {"Points": [{"handle_right": {"Y": 0.0, "X": 0.5}, "handle_type": 0, "handle_left": {"Y": 1.0, "X": 0.5}, "co": {"Y": 0.5199999809265137, "X": 1.0}, "interpolation": 0}]}, "crop_y": {"Points": [{"co": {"Y": 0.0, "X": 1.0}, "interpolation": 2}]}, "perspective_c2_y": {"Points": [{"co": {"Y": -1.0, "X": 1.0}, "interpolation": 2}]}, "perspective_c1_y": {"Points": [{"co": {"Y": -1.0, "X": 1.0}, "interpolation": 2}]}, "title": "!090-Remark - PASS or FAIL.mkv", "perspective_c4_y": {"Points": [{"co": {"Y": -1.0, "X": 1.0}, "interpolation": 2}]}, "duration": 50.0, "wave_color": {"red": {"Points": [{"handle_right": {"Y": 0.0, "X": 0.5}, "handle_type": 0, "handle_left": {"Y": 1.0, "X": 0.5}, "co": {"Y": 0.0, "X": 1.0}, "interpolation": 0}]}, "green": {"Points": [{"handle_right": {"Y": 0.0, "X": 0.5}, "handle_type": 0, "handle_left": {"Y": 1.0, "X": 0.5}, "co": {"Y": 123.0, "X": 1.0}, "interpolation": 0}]}, "blue": {"Points": [{"handle_right": {"Y": 0.0, "X": 0.5}, "handle_type": 0, "handle_left": {"Y": 1.0, "X": 0.5}, "co": {"Y": 255.0, "X": 1.0}, "interpolation": 0}]}, "alpha": {"Points": [{"handle_right": {"Y": 0.0, "X": 0.5}, "handle_type": 0, "handle_left": {"Y": 1.0, "X": 0.5}, "co": {"Y": 255.0, "X": 1.0}, "interpolation": 0}]}}, "time": {"Points": [{"co": {"Y": 1, "X": 1}, "interpolation": 1}, {"co": {"Y": 2447, "X": 1224}, "interpolation": 1}]}, "crop_height": {"Points": [{"co": {"Y": -1.0, "X": 1.0}, "interpolation": 2}]}, "scale_y": {"Points": [{"handle_right": {"Y": 0.0, "X": 0.5}, "handle_type": 0, "handle_left": {"Y": 1.0, "X": 0.5}, "co": {"Y": 2.299999952316284, "X": 1.0}, "interpolation": 0}]}, "effects": []}, {"location_x": {"Points": [{"co": {"Y": 0.0, "X": 1.0}, "interpolation": 2}]}, "perspective_c3_x": {"Points": [{"co": {"Y": -1.0, "X": 1.0}, "interpolation": 2}]}, "perspective_c4_x": {"Points": [{"co": {"Y": -1.0, "X": 1.0}, "interpolation": 2}]}, "channel_filter": {"Points": [{"co": {"Y": -1.0, "X": 1.0}, "interpolation": 2}]}, "perspective_c2_x": {"Points": [{"co": {"Y": -1.0, "X": 1.0}, "interpolation": 2}]}, "perspective_c1_x": {"Points": [{"co": {"Y": -1.0, "X": 1.0}, "interpolation": 2}]}, "anchor": 0, "alpha": {"Points": [{"co": {"Y": 1.0, "X": 1.0}, "interpolation": 2}]}, "id": "3GZPXZWGC6", "layer": 0, "file_id": "0F0RWXSQM9", "display": 0, "scale": 1, "gravity": 4, "crop_width": {"Points": [{"co": {"Y": -1.0, "X": 1.0}, "interpolation": 2}]}, "crop_x": {"Points": [{"co": {"Y": 0.0, "X": 1.0}, "interpolation": 2}]}, "shear_x": {"Points": [{"co": {"Y": 0.0, "X": 1.0}, "interpolation": 2}]}, "volume": {"Points": [{"co": {"Y": 1.0, "X": 1.0}, "interpolation": 2}]}, "start": 0, "rotation": {"Points": [{"co": {"Y": 0.0, "X": 1.0}, "interpolation": 2}]}, "reader": {"video_stream_index": -1, "video_length": "2592000", "interlaced_frame": false, "audio_bit_rate": 0, "audio_timebase": {"den": 1, "num": 1}, "vcodec": "", "channels": 0, "has_video": true, "channel_layout": 4, "has_audio": false, "video_timebase": {"den": 30, "num": 1}, "has_single_image": true, "acodec": "", "video_bit_rate": 0, "display_ratio": {"den": 9, "num": 16}, "audio_stream_index": -1, "type": "QtImageReader", "top_field_first": true, "width": 1920, "pixel_ratio": {"den": 1, "num": 1}, "height": 1080, "duration": 86400.0, "file_size": "8294400", "path": "/home/milind/Data/Projects/ProgressCard/!000-White-Background.svg", "fps": {"den": 1, "num": 30}, "pixel_format": -1, "sample_rate": 0}, "position": 121.30031249999999, "has_video": {"Points": [{"co": {"Y": -1.0, "X": 1.0}, "interpolation": 2}]}, "has_audio": {"Points": [{"co": {"Y": -1.0, "X": 1.0}, "interpolation": 2}]}, "channel_mapping": {"Points": [{"co": {"Y": -1.0, "X": 1.0}, "interpolation": 2}]}, "shear_y": {"Points": [{"co": {"Y": 0.0, "X": 1.0}, "interpolation": 2}]}, "perspective_c3_y": {"Points": [{"co": {"Y": -1.0, "X": 1.0}, "interpolation": 2}]}, "waveform": false, "end": 10, "scale_x": {"Points": [{"co": {"Y": 1.0, "X": 1.0}, "interpolation": 2}]}, "image": "/home/milind/.openshot_qt/thumbnail/0F0RWXSQM9.png", "location_y": {"Points": [{"co": {"Y": 0.0, "X": 1.0}, "interpolation": 2}]}, "crop_y": {"Points": [{"co": {"Y": 0.0, "X": 1.0}, "interpolation": 2}]}, "perspective_c2_y": {"Points": [{"co": {"Y": -1.0, "X": 1.0}, "interpolation": 2}]}, "perspective_c1_y": {"Points": [{"co": {"Y": -1.0, "X": 1.0}, "interpolation": 2}]}, "title": "!000-White-Background.svg", "perspective_c4_y": {"Points": [{"co": {"Y": -1.0, "X": 1.0}, "interpolation": 2}]}, "duration": 86400.0, "wave_color": {"red": {"Points": [{"handle_right": {"Y": 0.0, "X": 0.5}, "handle_type": 0, "handle_left": {"Y": 1.0, "X": 0.5}, "co": {"Y": 0.0, "X": 1.0}, "interpolation": 0}]}, "green": {"Points": [{"handle_right": {"Y": 0.0, "X": 0.5}, "handle_type": 0, "handle_left": {"Y": 1.0, "X": 0.5}, "co": {"Y": 123.0, "X": 1.0}, "interpolation": 0}]}, "blue": {"Points": [{"handle_right": {"Y": 0.0, "X": 0.5}, "handle_type": 0, "handle_left": {"Y": 1.0, "X": 0.5}, "co": {"Y": 255.0, "X": 1.0}, "interpolation": 0}]}, "alpha": {"Points": [{"handle_right": {"Y": 0.0, "X": 0.5}, "handle_type": 0, "handle_left": {"Y": 1.0, "X": 0.5}, "co": {"Y": 255.0, "X": 1.0}, "interpolation": 0}]}}, "time": {"Points": [{"co": {"Y": 1.0, "X": 1.0}, "interpolation": 2}]}, "crop_height": {"Points": [{"co": {"Y": -1.0, "X": 1.0}, "interpolation": 2}]}, "scale_y": {"Points": [{"co": {"Y": 1.0, "X": 1.0}, "interpolation": 2}]}, "effects": []}, {"perspective_c4_x": {"Points": [{"co": {"Y": -1.0, "X": 1.0}, "interpolation": 2}]}, "channel_filter": {"Points": [{"co": {"Y": -1.0, "X": 1.0}, "interpolation": 2}]}, "image": "/home/milind/.openshot_qt/thumbnail/Z4YCYRY34O.png", "perspective_c2_x": {"Points": [{"co": {"Y": -1.0, "X": 1.0}, "interpolation": 2}]}, "perspective_c1_x": {"Points": [{"co": {"Y": -1.0, "X": 1.0}, "interpolation": 2}]}, "anchor": 0, "alpha": {"Points": [{"handle_right": {"Y": 0, "X": 0.5}, "handle_type": 0, "handle_left": {"Y": 1, "X": 0.5}, "co": {"Y": 1, "X": 1}, "interpolation": 0}, {"handle_right": {"Y": 0, "X": 0.5}, "handle_type": 0, "handle_left": {"Y": 1, "X": 0.5}, "co": {"Y": 0, "X": 1}, "interpolation": 0}, {"handle_right": {"Y": 0, "X": 0.5}, "handle_type": 0, "handle_left": {"Y": 1, "X": 0.5}, "co": {"Y": 1, "X": 73}, "interpolation": 0}]}, "id": "QZM4UXHK9C", "position": 125.768125, "file_id": "Z4YCYRY34O", "display": 0, "scale": 1, "gravity": 4, "crop_width": {"Points": [{"co": {"Y": -1.0, "X": 1.0}, "interpolation": 2}]}, "crop_x": {"Points": [{"co": {"Y": 0.0, "X": 1.0}, "interpolation": 2}]}, "shear_x": {"Points": [{"co": {"Y": 0.0, "X": 1.0}, "interpolation": 2}]}, "volume": {"Points": [{"co": {"Y": 1.0, "X": 1.0}, "interpolation": 2}]}, "start": 0, "end": 17.416666666666668, "title": "!100-Average Marks.mkv", "crop_y": {"Points": [{"co": {"Y": 0.0, "X": 1.0}, "interpolation": 2}]}, "reader": {"video_stream_index": 0, "video_length": "925", "interlaced_frame": false, "audio_bit_rate": 0, "audio_timebase": {"den": 1, "num": 1}, "vcodec": "h264", "channels": 0, "has_video": true, "channel_layout": 4, "has_audio": false, "video_timebase": {"den": 1000, "num": 1}, "has_single_image": false, "acodec": "", "video_bit_rate": 0, "display_ratio": {"den": 186, "num": 325}, "audio_stream_index": -1, "type": "FFmpegReader", "top_field_first": true, "width": 1300, "pixel_ratio": {"den": 1, "num": 1}, "height": 744, "duration": 37.0, "file_size": "281401", "path": "/home/milind/Data/Projects/ProgressCard/!100-Average Marks.mkv", "fps": {"den": 1, "num": 25}, "pixel_format": 0, "sample_rate": 0}, "layer": 1, "has_video": {"Points": [{"co": {"Y": -1.0, "X": 1.0}, "interpolation": 2}]}, "has_audio": {"Points": [{"co": {"Y": -1.0, "X": 1.0}, "interpolation": 2}]}, "channel_mapping": {"Points": [{"co": {"Y": -1.0, "X": 1.0}, "interpolation": 2}]}, "perspective_c3_y": {"Points": [{"co": {"Y": -1.0, "X": 1.0}, "interpolation": 2}]}, "waveform": false, "perspective_c3_x": {"Points": [{"co": {"Y": -1.0, "X": 1.0}, "interpolation": 2}]}, "scale_x": {"Points": [{"co": {"Y": 2.299999952316284, "X": 1.0}, "interpolation": 2}]}, "location_x": {"Points": [{"co": {"Y": -0.07999999821186066, "X": 1.0}, "interpolation": 2}]}, "location_y": {"Points": [{"co": {"Y": 0.5199999809265137, "X": 1.0}, "interpolation": 2}]}, "shear_y": {"Points": [{"co": {"Y": 0.0, "X": 1.0}, "interpolation": 2}]}, "perspective_c2_y": {"Points": [{"co": {"Y": -1.0, "X": 1.0}, "interpolation": 2}]}, "perspective_c1_y": {"Points": [{"co": {"Y": -1.0, "X": 1.0}, "interpolation": 2}]}, "rotation": {"Points": [{"co": {"Y": 0.0, "X": 1.0}, "interpolation": 2}]}, "perspective_c4_y": {"Points": [{"co": {"Y": -1.0, "X": 1.0}, "interpolation": 2}]}, "duration": 18.0, "wave_color": {"red": {"Points": [{"handle_right": {"Y": 0.0, "X": 0.5}, "handle_type": 0, "handle_left": {"Y": 1.0, "X": 0.5}, "co": {"Y": 0.0, "X": 1.0}, "interpolation": 0}]}, "green": {"Points": [{"handle_right": {"Y": 0.0, "X": 0.5}, "handle_type": 0, "handle_left": {"Y": 1.0, "X": 0.5}, "co": {"Y": 123.0, "X": 1.0}, "interpolation": 0}]}, "blue": {"Points": [{"handle_right": {"Y": 0.0, "X": 0.5}, "handle_type": 0, "handle_left": {"Y": 1.0, "X": 0.5}, "co": {"Y": 255.0, "X": 1.0}, "interpolation": 0}]}, "alpha": {"Points": [{"handle_right": {"Y": 0.0, "X": 0.5}, "handle_type": 0, "handle_left": {"Y": 1.0, "X": 0.5}, "co": {"Y": 255.0, "X": 1.0}, "interpolation": 0}]}}, "time": {"Points": [{"co": {"Y": 1, "X": 1}, "interpolation": 1}, {"co": {"Y": 835, "X": 418}, "interpolation": 1}]}, "crop_height": {"Points": [{"co": {"Y": -1.0, "X": 1.0}, "interpolation": 2}]}, "scale_y": {"Points": [{"co": {"Y": 2.299999952316284, "X": 1.0}, "interpolation": 2}]}, "effects": []}, {"location_x": {"Points": [{"co": {"Y": 0.0, "X": 1.0}, "interpolation": 2}]}, "perspective_c3_x": {"Points": [{"co": {"Y": -1.0, "X": 1.0}, "interpolation": 2}]}, "perspective_c4_x": {"Points": [{"co": {"Y": -1.0, "X": 1.0}, "interpolation": 2}]}, "channel_filter": {"Points": [{"co": {"Y": -1.0, "X": 1.0}, "interpolation": 2}]}, "perspective_c2_x": {"Points": [{"co": {"Y": -1.0, "X": 1.0}, "interpolation": 2}]}, "perspective_c1_x": {"Points": [{"co": {"Y": -1.0, "X": 1.0}, "interpolation": 2}]}, "anchor": 0, "alpha": {"Points": [{"co": {"Y": 1.0, "X": 1.0}, "interpolation": 2}]}, "id": "XUROHR8TBC", "layer": 0, "file_id": "0F0RWXSQM9", "display": 0, "scale": 1, "gravity": 4, "crop_width": {"Points": [{"co": {"Y": -1.0, "X": 1.0}, "interpolation": 2}]}, "crop_x": {"Points": [{"co": {"Y": 0.0, "X": 1.0}, "interpolation": 2}]}, "shear_x": {"Points": [{"co": {"Y": 0.0, "X": 1.0}, "interpolation": 2}]}, "volume": {"Points": [{"co": {"Y": 1.0, "X": 1.0}, "interpolation": 2}]}, "start": 0, "rotation": {"Points": [{"co": {"Y": 0.0, "X": 1.0}, "interpolation": 2}]}, "reader": {"video_stream_index": -1, "video_length": "2592000", "interlaced_frame": false, "audio_bit_rate": 0, "audio_timebase": {"den": 1, "num": 1}, "vcodec": "", "channels": 0, "has_video": true, "channel_layout": 4, "has_audio": false, "video_timebase": {"den": 30, "num": 1}, "has_single_image": true, "acodec": "", "video_bit_rate": 0, "display_ratio": {"den": 9, "num": 16}, "audio_stream_index": -1, "type": "QtImageReader", "top_field_first": true, "width": 1920, "pixel_ratio": {"den": 1, "num": 1}, "height": 1080, "duration": 86400.0, "file_size": "8294400", "path": "/home/milind/Data/Projects/ProgressCard/!000-White-Background.svg", "fps": {"den": 1, "num": 30}, "pixel_format": -1, "sample_rate": 0}, "position": 173.20078124999998, "has_video": {"Points": [{"co": {"Y": -1.0, "X": 1.0}, "interpolation": 2}]}, "has_audio": {"Points": [{"co": {"Y": -1.0, "X": 1.0}, "interpolation": 2}]}, "channel_mapping": {"Points": [{"co": {"Y": -1.0, "X": 1.0}, "interpolation": 2}]}, "shear_y": {"Points": [{"co": {"Y": 0.0, "X": 1.0}, "interpolation": 2}]}, "perspective_c3_y": {"Points": [{"co": {"Y": -1.0, "X": 1.0}, "interpolation": 2}]}, "waveform": false, "end": 10, "scale_x": {"Points": [{"co": {"Y": 1.0, "X": 1.0}, "interpolation": 2}]}, "image": "/home/milind/.openshot_qt/thumbnail/0F0RWXSQM9.png", "location_y": {"Points": [{"co": {"Y": 0.0, "X": 1.0}, "interpolation": 2}]}, "crop_y": {"Points": [{"co": {"Y": 0.0, "X": 1.0}, "interpolation": 2}]}, "perspective_c2_y": {"Points": [{"co": {"Y": -1.0, "X": 1.0}, "interpolation": 2}]}, "perspective_c1_y": {"Points": [{"co": {"Y": -1.0, "X": 1.0}, "interpolation": 2}]}, "title": "!000-White-Background.svg", "perspective_c4_y": {"Points": [{"co": {"Y": -1.0, "X": 1.0}, "interpolation": 2}]}, "duration": 86400.0, "wave_color": {"red": {"Points": [{"handle_right": {"Y": 0.0, "X": 0.5}, "handle_type": 0, "handle_left": {"Y": 1.0, "X": 0.5}, "co": {"Y": 0.0, "X": 1.0}, "interpolation": 0}]}, "green": {"Points": [{"handle_right": {"Y": 0.0, "X": 0.5}, "handle_type": 0, "handle_left": {"Y": 1.0, "X": 0.5}, "co": {"Y": 123.0, "X": 1.0}, "interpolation": 0}]}, "blue": {"Points": [{"handle_right": {"Y": 0.0, "X": 0.5}, "handle_type": 0, "handle_left": {"Y": 1.0, "X": 0.5}, "co": {"Y": 255.0, "X": 1.0}, "interpolation": 0}]}, "alpha": {"Points": [{"handle_right": {"Y": 0.0, "X": 0.5}, "handle_type": 0, "handle_left": {"Y": 1.0, "X": 0.5}, "co": {"Y": 255.0, "X": 1.0}, "interpolation": 0}]}}, "time": {"Points": [{"co": {"Y": 1.0, "X": 1.0}, "interpolation": 2}]}, "crop_height": {"Points": [{"co": {"Y": -1.0, "X": 1.0}, "interpolation": 2}]}, "scale_y": {"Points": [{"co": {"Y": 1.0, "X": 1.0}, "interpolation": 2}]}, "effects": []}, {"location_x": {"Points": [{"handle_right": {"Y": 0.0, "X": 0.5}, "handle_type": 0, "handle_left": {"Y": 1.0, "X": 0.5}, "co": {"Y": 0.0, "X": 1.0}, "interpolation": 0}]}, "perspective_c3_x": {"Points": [{"co": {"Y": -1.0, "X": 1.0}, "interpolation": 2}]}, "perspective_c4_x": {"Points": [{"co": {"Y": -1.0, "X": 1.0}, "interpolation": 2}]}, "channel_filter": {"Points": [{"co": {"Y": -1.0, "X": 1.0}, "interpolation": 2}]}, "perspective_c2_x": {"Points": [{"co": {"Y": -1.0, "X": 1.0}, "interpolation": 2}]}, "perspective_c1_x": {"Points": [{"co": {"Y": -1.0, "X": 1.0}, "interpolation": 2}]}, "anchor": 0, "alpha": {"Points": [{"co": {"Y": 1.0, "X": 1.0}, "interpolation": 2}, {"handle_right": {"Y": 0.0, "X": 0.5}, "handle_type": 0, "handle_left": {"Y": 1.0, "X": 0.5}, "co": {"Y": 0.0, "X": 1.0}, "interpolation": 0}, {"handle_right": {"Y": 0.0, "X": 0.5}, "handle_type": 0, "handle_left": {"Y": 1.0, "X": 0.5}, "co": {"Y": 1.0, "X": 73.0}, "interpolation": 0}]}, "id": "UUTCPBA7W2", "layer": 2, "file_id": "A5ENU0DW4J", "display": 0, "scale": 1, "gravity": 4, "crop_width": {"Points": [{"co": {"Y": -1.0, "X": 1.0}, "interpolation": 2}]}, "crop_x": {"Points": [{"co": {"Y": 0.0, "X": 1.0}, "interpolation": 2}]}, "shear_x": {"Points": [{"co": {"Y": 0.0, "X": 1.0}, "interpolation": 2}]}, "volume": {"Points": [{"co": {"Y": 1.0, "X": 1.0}, "interpolation": 2}]}, "start": 0, "rotation": {"Points": [{"co": {"Y": 0.0, "X": 1.0}, "interpolation": 2}]}, "reader": {"video_stream_index": 0, "video_length": "500", "interlaced_frame": false, "audio_bit_rate": 0, "audio_timebase": {"den": 1, "num": 1}, "vcodec": "h264", "channels": 0, "has_video": true, "channel_layout": 4, "has_audio": false, "video_timebase": {"den": 1000, "num": 1}, "has_single_image": false, "acodec": "", "video_bit_rate": 0, "display_ratio": {"den": 186, "num": 325}, "audio_stream_index": -1, "type": "FFmpegReader", "top_field_first": true, "width": 1300, "pixel_ratio": {"den": 1, "num": 1}, "height": 744, "duration": 20.0, "file_size": "204468", "path": "/home/milind/Data/Projects/ProgressCard/!110-Float Format Dialog.mkv", "fps": {"den": 1, "num": 25}, "pixel_format": 0, "sample_rate": 0}, "position": 140.15171875, "has_video": {"Points": [{"co": {"Y": -1.0, "X": 1.0}, "interpolation": 2}]}, "has_audio": {"Points": [{"co": {"Y": -1.0, "X": 1.0}, "interpolation": 2}]}, "channel_mapping": {"Points": [{"co": {"Y": -1.0, "X": 1.0}, "interpolation": 2}]}, "shear_y": {"Points": [{"co": {"Y": 0.0, "X": 1.0}, "interpolation": 2}]}, "perspective_c3_y": {"Points": [{"co": {"Y": -1.0, "X": 1.0}, "interpolation": 2}]}, "waveform": false, "end": 13.523333333333312, "scale_x": {"Points": [{"handle_right": {"Y": 0.0, "X": 0.5}, "handle_type": 0, "handle_left": {"Y": 1.0, "X": 0.5}, "co": {"Y": 1.5, "X": 1.0}, "interpolation": 0}]}, "image": "/home/milind/.openshot_qt/thumbnail/A5ENU0DW4J.png", "location_y": {"Points": [{"handle_right": {"Y": 0.0, "X": 0.5}, "handle_type": 0, "handle_left": {"Y": 1.0, "X": 0.5}, "co": {"Y": 0.0, "X": 1.0}, "interpolation": 0}]}, "crop_y": {"Points": [{"co": {"Y": 0.0, "X": 1.0}, "interpolation": 2}]}, "perspective_c2_y": {"Points": [{"co": {"Y": -1.0, "X": 1.0}, "interpolation": 2}]}, "perspective_c1_y": {"Points": [{"co": {"Y": -1.0, "X": 1.0}, "interpolation": 2}]}, "title": "!110-Float Format Dialog.mkv", "perspective_c4_y": {"Points": [{"co": {"Y": -1.0, "X": 1.0}, "interpolation": 2}]}, "duration": 20.0, "wave_color": {"red": {"Points": [{"handle_right": {"Y": 0.0, "X": 0.5}, "handle_type": 0, "handle_left": {"Y": 1.0, "X": 0.5}, "co": {"Y": 0.0, "X": 1.0}, "interpolation": 0}]}, "green": {"Points": [{"handle_right": {"Y": 0.0, "X": 0.5}, "handle_type": 0, "handle_left": {"Y": 1.0, "X": 0.5}, "co": {"Y": 123.0, "X": 1.0}, "interpolation": 0}]}, "blue": {"Points": [{"handle_right": {"Y": 0.0, "X": 0.5}, "handle_type": 0, "handle_left": {"Y": 1.0, "X": 0.5}, "co": {"Y": 255.0, "X": 1.0}, "interpolation": 0}]}, "alpha": {"Points": [{"handle_right": {"Y": 0.0, "X": 0.5}, "handle_type": 0, "handle_left": {"Y": 1.0, "X": 0.5}, "co": {"Y": 255.0, "X": 1.0}, "interpolation": 0}]}}, "time": {"Points": [{"co": {"Y": 1.0, "X": 1.0}, "interpolation": 2}]}, "crop_height": {"Points": [{"co": {"Y": -1.0, "X": 1.0}, "interpolation": 2}]}, "scale_y": {"Points": [{"handle_right": {"Y": 0.0, "X": 0.5}, "handle_type": 0, "handle_left": {"Y": 1.0, "X": 0.5}, "co": {"Y": 1.5, "X": 1.0}, "interpolation": 0}]}, "effects": []}, {"location_x": {"Points": [{"co": {"Y": 0.0, "X": 1.0}, "interpolation": 2}]}, "perspective_c3_x": {"Points": [{"co": {"Y": -1.0, "X": 1.0}, "interpolation": 2}]}, "perspective_c4_x": {"Points": [{"co": {"Y": -1.0, "X": 1.0}, "interpolation": 2}]}, "channel_filter": {"Points": [{"co": {"Y": -1.0, "X": 1.0}, "interpolation": 2}]}, "perspective_c2_x": {"Points": [{"co": {"Y": -1.0, "X": 1.0}, "interpolation": 2}]}, "perspective_c1_x": {"Points": [{"co": {"Y": -1.0, "X": 1.0}, "interpolation": 2}]}, "anchor": 0, "alpha": {"Points": [{"co": {"Y": 1.0, "X": 1.0}, "interpolation": 2}]}, "id": "HGE2JUKOAI", "layer": 0, "file_id": "0F0RWXSQM9", "display": 0, "scale": 1, "gravity": 4, "crop_width": {"Points": [{"co": {"Y": -1.0, "X": 1.0}, "interpolation": 2}]}, "crop_x": {"Points": [{"co": {"Y": 0.0, "X": 1.0}, "interpolation": 2}]}, "shear_x": {"Points": [{"co": {"Y": 0.0, "X": 1.0}, "interpolation": 2}]}, "volume": {"Points": [{"co": {"Y": 1.0, "X": 1.0}, "interpolation": 2}]}, "start": 0, "rotation": {"Points": [{"co": {"Y": 0.0, "X": 1.0}, "interpolation": 2}]}, "reader": {"video_stream_index": -1, "video_length": "2592000", "interlaced_frame": false, "audio_bit_rate": 0, "audio_timebase": {"den": 1, "num": 1}, "vcodec": "", "channels": 0, "has_video": true, "channel_layout": 4, "has_audio": false, "video_timebase": {"den": 30, "num": 1}, "has_single_image": true, "acodec": "", "video_bit_rate": 0, "display_ratio": {"den": 9, "num": 16}, "audio_stream_index": -1, "type": "QtImageReader", "top_field_first": true, "width": 1920, "pixel_ratio": {"den": 1, "num": 1}, "height": 1080, "duration": 86400.0, "file_size": "8294400", "path": "/home/milind/Data/Projects/ProgressCard/!000-White-Background.svg", "fps": {"den": 1, "num": 30}, "pixel_format": -1, "sample_rate": 0}, "position": 262.15859374999997, "has_video": {"Points": [{"co": {"Y": -1.0, "X": 1.0}, "interpolation": 2}]}, "has_audio": {"Points": [{"co": {"Y": -1.0, "X": 1.0}, "interpolation": 2}]}, "channel_mapping": {"Points": [{"co": {"Y": -1.0, "X": 1.0}, "interpolation": 2}]}, "shear_y": {"Points": [{"co": {"Y": 0.0, "X": 1.0}, "interpolation": 2}]}, "perspective_c3_y": {"Points": [{"co": {"Y": -1.0, "X": 1.0}, "interpolation": 2}]}, "waveform": false, "end": 10, "scale_x": {"Points": [{"co": {"Y": 1.0, "X": 1.0}, "interpolation": 2}]}, "image": "/home/milind/.openshot_qt/thumbnail/0F0RWXSQM9.png", "location_y": {"Points": [{"co": {"Y": 0.0, "X": 1.0}, "interpolation": 2}]}, "crop_y": {"Points": [{"co": {"Y": 0.0, "X": 1.0}, "interpolation": 2}]}, "perspective_c2_y": {"Points": [{"co": {"Y": -1.0, "X": 1.0}, "interpolation": 2}]}, "perspective_c1_y": {"Points": [{"co": {"Y": -1.0, "X": 1.0}, "interpolation": 2}]}, "title": "!000-White-Background.svg", "perspective_c4_y": {"Points": [{"co": {"Y": -1.0, "X": 1.0}, "interpolation": 2}]}, "duration": 86400.0, "wave_color": {"red": {"Points": [{"handle_right": {"Y": 0.0, "X": 0.5}, "handle_type": 0, "handle_left": {"Y": 1.0, "X": 0.5}, "co": {"Y": 0.0, "X": 1.0}, "interpolation": 0}]}, "green": {"Points": [{"handle_right": {"Y": 0.0, "X": 0.5}, "handle_type": 0, "handle_left": {"Y": 1.0, "X": 0.5}, "co": {"Y": 123.0, "X": 1.0}, "interpolation": 0}]}, "blue": {"Points": [{"handle_right": {"Y": 0.0, "X": 0.5}, "handle_type": 0, "handle_left": {"Y": 1.0, "X": 0.5}, "co": {"Y": 255.0, "X": 1.0}, "interpolation": 0}]}, "alpha": {"Points": [{"handle_right": {"Y": 0.0, "X": 0.5}, "handle_type": 0, "handle_left": {"Y": 1.0, "X": 0.5}, "co": {"Y": 255.0, "X": 1.0}, "interpolation": 0}]}}, "time": {"Points": [{"co": {"Y": 1.0, "X": 1.0}, "interpolation": 2}]}, "crop_height": {"Points": [{"co": {"Y": -1.0, "X": 1.0}, "interpolation": 2}]}, "scale_y": {"Points": [{"co": {"Y": 1.0, "X": 1.0}, "interpolation": 2}]}, "effects": []}, {"location_x": {"Points": [{"co": {"Y": 0.0, "X": 1.0}, "interpolation": 2}]}, "perspective_c4_x": {"Points": [{"co": {"Y": -1.0, "X": 1.0}, "interpolation": 2}]}, "channel_filter": {"Points": [{"co": {"Y": -1.0, "X": 1.0}, "interpolation": 2}]}, "duration": 15.0, "perspective_c1_x": {"Points": [{"co": {"Y": -1.0, "X": 1.0}, "interpolation": 2}]}, "perspective_c2_x": {"Points": [{"co": {"Y": -1.0, "X": 1.0}, "interpolation": 2}]}, "alpha": {"Points": [{"handle_right": {"Y": 0.0, "X": 0.5}, "handle_type": 0, "handle_left": {"Y": 1.0, "X": 0.5}, "co": {"Y": 1.0, "X": 1.0}, "interpolation": 0}, {"handle_right": {"Y": 0.0, "X": 0.5}, "handle_type": 0, "handle_left": {"Y": 1.0, "X": 0.5}, "co": {"Y": 0.0, "X": 1.0}, "interpolation": 0}, {"handle_right": {"Y": 0.0, "X": 0.5}, "handle_type": 0, "handle_left": {"Y": 1.0, "X": 0.5}, "co": {"Y": 1.0, "X": 73.0}, "interpolation": 0}, {"handle_right": {"Y": 0.0, "X": 0.5}, "handle_type": 0, "handle_left": {"Y": 1.0, "X": 0.5}, "co": {"Y": 1.0, "X": 183.0}, "interpolation": 0}, {"handle_right": {"Y": 0.0, "X": 0.5}, "handle_type": 0, "handle_left": {"Y": 1.0, "X": 0.5}, "co": {"Y": 0.0, "X": 255.0}, "interpolation": 0}]}, "id": "O0H3RPMELI", "layer": 3, "display": 0, "scale": 1, "gravity": 4, "crop_width": {"Points": [{"co": {"Y": -1.0, "X": 1.0}, "interpolation": 2}]}, "crop_x": {"Points": [{"co": {"Y": 0.0, "X": 1.0}, "interpolation": 2}]}, "shear_x": {"Points": [{"co": {"Y": 0.0, "X": 1.0}, "interpolation": 2}]}, "volume": {"Points": [{"co": {"Y": 1.0, "X": 1.0}, "interpolation": 2}]}, "has_audio": {"Points": [{"co": {"Y": -1.0, "X": 1.0}, "interpolation": 2}]}, "end": 10.595000000000027, "title": "!120-Two Decimal Format.mkv", "crop_y": {"Points": [{"co": {"Y": 0.0, "X": 1.0}, "interpolation": 2}]}, "reader": {"video_stream_index": 0, "video_length": "375", "interlaced_frame": false, "audio_bit_rate": 0, "audio_timebase": {"den": 1, "num": 1}, "vcodec": "h264", "channels": 0, "has_video": true, "channel_layout": 4, "has_audio": false, "video_timebase": {"den": 1000, "num": 1}, "has_single_image": false, "acodec": "", "video_bit_rate": 0, "display_ratio": {"den": 186, "num": 325}, "audio_stream_index": -1, "type": "FFmpegReader", "top_field_first": true, "width": 1300, "pixel_ratio": {"den": 1, "num": 1}, "height": 744, "duration": 15.0, "file_size": "187523", "path": "/home/milind/Data/Projects/ProgressCard/!120-Two Decimal Format.mkv", "fps": {"den": 1, "num": 25}, "pixel_format": 0, "sample_rate": 0}, "position": 152.00921875, "has_video": {"Points": [{"co": {"Y": -1.0, "X": 1.0}, "interpolation": 2}]}, "start": 0, "channel_mapping": {"Points": [{"co": {"Y": -1.0, "X": 1.0}, "interpolation": 2}]}, "shear_y": {"Points": [{"co": {"Y": 0.0, "X": 1.0}, "interpolation": 2}]}, "perspective_c3_y": {"Points": [{"co": {"Y": -1.0, "X": 1.0}, "interpolation": 2}]}, "waveform": false, "perspective_c3_x": {"Points": [{"co": {"Y": -1.0, "X": 1.0}, "interpolation": 2}]}, "scale_x": {"Points": [{"co": {"Y": 1.5, "X": 1.0}, "interpolation": 2}]}, "image": "/home/milind/.openshot_qt/thumbnail/UGJYEMW42F.png", "location_y": {"Points": [{"co": {"Y": 0.0, "X": 1.0}, "interpolation": 2}]}, "file_id": "UGJYEMW42F", "perspective_c2_y": {"Points": [{"co": {"Y": -1.0, "X": 1.0}, "interpolation": 2}]}, "perspective_c1_y": {"Points": [{"co": {"Y": -1.0, "X": 1.0}, "interpolation": 2}]}, "rotation": {"Points": [{"co": {"Y": 0.0, "X": 1.0}, "interpolation": 2}]}, "perspective_c4_y": {"Points": [{"co": {"Y": -1.0, "X": 1.0}, "interpolation": 2}]}, "anchor": 0, "wave_color": {"red": {"Points": [{"handle_right": {"Y": 0.0, "X": 0.5}, "handle_type": 0, "handle_left": {"Y": 1.0, "X": 0.5}, "co": {"Y": 0.0, "X": 1.0}, "interpolation": 0}]}, "green": {"Points": [{"handle_right": {"Y": 0.0, "X": 0.5}, "handle_type": 0, "handle_left": {"Y": 1.0, "X": 0.5}, "co": {"Y": 123.0, "X": 1.0}, "interpolation": 0}]}, "blue": {"Points": [{"handle_right": {"Y": 0.0, "X": 0.5}, "handle_type": 0, "handle_left": {"Y": 1.0, "X": 0.5}, "co": {"Y": 255.0, "X": 1.0}, "interpolation": 0}]}, "alpha": {"Points": [{"handle_right": {"Y": 0.0, "X": 0.5}, "handle_type": 0, "handle_left": {"Y": 1.0, "X": 0.5}, "co": {"Y": 255.0, "X": 1.0}, "interpolation": 0}]}}, "time": {"Points": [{"co": {"Y": 1.0, "X": 1.0}, "interpolation": 2}]}, "crop_height": {"Points": [{"co": {"Y": -1.0, "X": 1.0}, "interpolation": 2}]}, "scale_y": {"Points": [{"co": {"Y": 1.5, "X": 1.0}, "interpolation": 2}]}, "effects": []}, {"location_x": {"Points": [{"handle_right": {"Y": 0.0, "X": 0.5}, "handle_type": 0, "handle_left": {"Y": 1.0, "X": 0.5}, "co": {"Y": 0.5299999713897705, "X": 1.0}, "interpolation": 0}, {"co": {"Y": -0.019999999552965164, "X": 121}, "interpolation": 1}]}, "perspective_c3_x": {"Points": [{"co": {"Y": -1.0, "X": 1.0}, "interpolation": 2}]}, "perspective_c4_x": {"Points": [{"co": {"Y": -1.0, "X": 1.0}, "interpolation": 2}]}, "channel_filter": {"Points": [{"co": {"Y": -1.0, "X": 1.0}, "interpolation": 2}]}, "perspective_c2_x": {"Points": [{"co": {"Y": -1.0, "X": 1.0}, "interpolation": 2}]}, "perspective_c1_x": {"Points": [{"co": {"Y": -1.0, "X": 1.0}, "interpolation": 2}]}, "anchor": 0, "alpha": {"Points": [{"handle_right": {"Y": 0, "X": 0.5}, "handle_type": 0, "handle_left": {"Y": 1, "X": 0.5}, "co": {"Y": 1, "X": 1}, "interpolation": 0}, {"handle_right": {"Y": 0, "X": 0.5}, "handle_type": 0, "handle_left": {"Y": 1, "X": 0.5}, "co": {"Y": 0, "X": 1}, "interpolation": 0}, {"handle_right": {"Y": 0, "X": 0.5}, "handle_type": 0, "handle_left": {"Y": 1, "X": 0.5}, "co": {"Y": 1, "X": 73}, "interpolation": 0}, {"handle_right": {"Y": 0, "X": 0.5}, "handle_type": 0, "handle_left": {"Y": 1, "X": 0.5}, "co": {"Y": 1, "X": 2057}, "interpolation": 0}, {"handle_right": {"Y": 0, "X": 0.5}, "handle_type": 0, "handle_left": {"Y": 1, "X": 0.5}, "co": {"Y": 0, "X": 2129}, "interpolation": 0}]}, "id": "1W8DREEE59", "layer": 1, "file_id": "616P05WPS9", "display": 0, "scale": 1, "gravity": 4, "crop_width": {"Points": [{"co": {"Y": -1.0, "X": 1.0}, "interpolation": 2}]}, "crop_x": {"Points": [{"co": {"Y": 0.0, "X": 1.0}, "interpolation": 2}]}, "shear_x": {"Points": [{"co": {"Y": 0.0, "X": 1.0}, "interpolation": 2}]}, "volume": {"Points": [{"co": {"Y": 1.0, "X": 1.0}, "interpolation": 2}]}, "start": 0, "rotation": {"Points": [{"co": {"Y": 0.0, "X": 1.0}, "interpolation": 2}]}, "reader": {"video_stream_index": 0, "video_length": "4525", "interlaced_frame": false, "audio_bit_rate": 0, "audio_timebase": {"den": 1, "num": 1}, "vcodec": "h264", "channels": 0, "has_video": true, "channel_layout": 4, "has_audio": false, "video_timebase": {"den": 1000, "num": 1}, "has_single_image": false, "acodec": "", "video_bit_rate": 0, "display_ratio": {"den": 186, "num": 325}, "audio_stream_index": -1, "type": "FFmpegReader", "top_field_first": true, "width": 1300, "pixel_ratio": {"den": 1, "num": 1}, "height": 744, "duration": 181.0, "file_size": "1502027", "path": "/home/milind/Data/Projects/ProgressCard/!140-Grade Formula.mkv", "fps": {"den": 1, "num": 25}, "pixel_format": 0, "sample_rate": 0}, "position": 177.65796874999998, "has_video": {"Points": [{"co": {"Y": -1.0, "X": 1.0}, "interpolation": 2}]}, "has_audio": {"Points": [{"co": {"Y": -1.0, "X": 1.0}, "interpolation": 2}]}, "channel_mapping": {"Points": [{"co": {"Y": -1.0, "X": 1.0}, "interpolation": 2}]}, "shear_y": {"Points": [{"co": {"Y": 0.0, "X": 1.0}, "interpolation": 2}]}, "perspective_c3_y": {"Points": [{"co": {"Y": -1.0, "X": 1.0}, "interpolation": 2}]}, "waveform": false, "end": 88.66666666666667, "scale_x": {"Points": [{"handle_right": {"Y": 0.0, "X": 0.5}, "handle_type": 0, "handle_left": {"Y": 1.0, "X": 0.5}, "co": {"Y": 2.299999952316284, "X": 1.0}, "interpolation": 0}, {"co": {"Y": 1.7000000476837158, "X": 121}, "interpolation": 1}]}, "image": "/home/milind/.openshot_qt/thumbnail/616P05WPS9.png", "location_y": {"Points": [{"handle_right": {"Y": 0.0, "X": 0.5}, "handle_type": 0, "handle_left": {"Y": 1.0, "X": 0.5}, "co": {"Y": 0.5199999809265137, "X": 1.0}, "interpolation": 0}, {"co": {"Y": 0.30000001192092896, "X": 121}, "interpolation": 1}]}, "crop_y": {"Points": [{"co": {"Y": 0.0, "X": 1.0}, "interpolation": 2}]}, "perspective_c2_y": {"Points": [{"co": {"Y": -1.0, "X": 1.0}, "interpolation": 2}]}, "perspective_c1_y": {"Points": [{"co": {"Y": -1.0, "X": 1.0}, "interpolation": 2}]}, "title": "!140-Grade Formula.mkv", "perspective_c4_y": {"Points": [{"co": {"Y": -1.0, "X": 1.0}, "interpolation": 2}]}, "duration": 90.0, "wave_color": {"red": {"Points": [{"handle_right": {"Y": 0.0, "X": 0.5}, "handle_type": 0, "handle_left": {"Y": 1.0, "X": 0.5}, "co": {"Y": 0.0, "X": 1.0}, "interpolation": 0}]}, "green": {"Points": [{"handle_right": {"Y": 0.0, "X": 0.5}, "handle_type": 0, "handle_left": {"Y": 1.0, "X": 0.5}, "co": {"Y": 123.0, "X": 1.0}, "interpolation": 0}]}, "blue": {"Points": [{"handle_right": {"Y": 0.0, "X": 0.5}, "handle_type": 0, "handle_left": {"Y": 1.0, "X": 0.5}, "co": {"Y": 255.0, "X": 1.0}, "interpolation": 0}]}, "alpha": {"Points": [{"handle_right": {"Y": 0.0, "X": 0.5}, "handle_type": 0, "handle_left": {"Y": 1.0, "X": 0.5}, "co": {"Y": 255.0, "X": 1.0}, "interpolation": 0}]}}, "time": {"Points": [{"co": {"Y": 1, "X": 1}, "interpolation": 1}, {"co": {"Y": 4255, "X": 2128}, "interpolation": 1}]}, "crop_height": {"Points": [{"co": {"Y": -1.0, "X": 1.0}, "interpolation": 2}]}, "scale_y": {"Points": [{"handle_right": {"Y": 0.0, "X": 0.5}, "handle_type": 0, "handle_left": {"Y": 1.0, "X": 0.5}, "co": {"Y": 2.299999952316284, "X": 1.0}, "interpolation": 0}, {"co": {"Y": 1.7000000476837158, "X": 121}, "interpolation": 1}]}, "effects": []}, {"location_x": {"Points": [{"co": {"Y": 0.0, "X": 1.0}, "interpolation": 2}, {"co": {"Y": -0.07999999821186066, "X": 373}, "interpolation": 1}, {"co": {"Y": 0.0, "X": 224}, "interpolation": 1}, {"co": {"Y": 0.0, "X": 617}, "interpolation": 1}]}, "perspective_c3_x": {"Points": [{"co": {"Y": -1.0, "X": 1.0}, "interpolation": 2}]}, "perspective_c4_x": {"Points": [{"co": {"Y": -1.0, "X": 1.0}, "interpolation": 2}]}, "channel_filter": {"Points": [{"co": {"Y": -1.0, "X": 1.0}, "interpolation": 2}]}, "perspective_c2_x": {"Points": [{"co": {"Y": -1.0, "X": 1.0}, "interpolation": 2}]}, "perspective_c1_x": {"Points": [{"co": {"Y": -1.0, "X": 1.0}, "interpolation": 2}]}, "anchor": 0, "alpha": {"Points": [{"co": {"Y": 1.0, "X": 1.0}, "interpolation": 2}, {"handle_right": {"Y": 0.0, "X": 0.5}, "handle_type": 0, "handle_left": {"Y": 1.0, "X": 0.5}, "co": {"Y": 1.0, "X": 545.0}, "interpolation": 0}, {"handle_right": {"Y": 0.0, "X": 0.5}, "handle_type": 0, "handle_left": {"Y": 1.0, "X": 0.5}, "co": {"Y": 0.0, "X": 617.0}, "interpolation": 0}]}, "id": "3KRS4J70ZV", "layer": 1, "file_id": "2202V21TTZ", "display": 0, "scale": 1, "gravity": 4, "crop_width": {"Points": [{"co": {"Y": -1.0, "X": 1.0}, "interpolation": 2}]}, "crop_x": {"Points": [{"co": {"Y": 0.0, "X": 1.0}, "interpolation": 2}]}, "shear_x": {"Points": [{"co": {"Y": 0.0, "X": 1.0}, "interpolation": 2}, {"co": {"Y": 0.0, "X": 373}, "interpolation": 1}]}, "volume": {"Points": [{"co": {"Y": 1.0, "X": 1.0}, "interpolation": 2}]}, "start": 0, "rotation": {"Points": [{"co": {"Y": 0.0, "X": 1.0}, "interpolation": 2}]}, "reader": {"video_stream_index": 0, "video_length": "725", "interlaced_frame": false, "audio_bit_rate": 0, "audio_timebase": {"den": 1, "num": 1}, "vcodec": "h264", "channels": 0, "has_video": true, "channel_layout": 4, "has_audio": false, "video_timebase": {"den": 1000, "num": 1}, "has_single_image": false, "acodec": "", "video_bit_rate": 0, "display_ratio": {"den": 186, "num": 325}, "audio_stream_index": -1, "type": "FFmpegReader", "top_field_first": true, "width": 1300, "pixel_ratio": {"den": 1, "num": 1}, "height": 744, "duration": 29.0, "file_size": "293155", "path": "/home/milind/Data/Projects/ProgressCard/!130-Copy Average.mkv", "fps": {"den": 1, "num": 25}, "pixel_format": 0, "sample_rate": 0}, "position": 152.00921875, "has_video": {"Points": [{"co": {"Y": -1.0, "X": 1.0}, "interpolation": 2}]}, "has_audio": {"Points": [{"co": {"Y": -1.0, "X": 1.0}, "interpolation": 2}]}, "channel_mapping": {"Points": [{"co": {"Y": -1.0, "X": 1.0}, "interpolation": 2}]}, "shear_y": {"Points": [{"co": {"Y": 0.0, "X": 1.0}, "interpolation": 2}]}, "perspective_c3_y": {"Points": [{"co": {"Y": -1.0, "X": 1.0}, "interpolation": 2}]}, "waveform": false, "end": 25.649999999999977, "scale_x": {"Points": [{"co": {"Y": 1.5, "X": 1.0}, "interpolation": 2}, {"co": {"Y": 2.299999952316284, "X": 373}, "interpolation": 1}, {"co": {"Y": 1.5, "X": 224}, "interpolation": 1}]}, "image": "/home/milind/.openshot_qt/thumbnail/2202V21TTZ.png", "location_y": {"Points": [{"co": {"Y": 0.0, "X": 1.0}, "interpolation": 2}, {"co": {"Y": 0.5199999809265137, "X": 373}, "interpolation": 1}, {"co": {"Y": 0.0, "X": 224}, "interpolation": 1}]}, "crop_y": {"Points": [{"co": {"Y": 0.0, "X": 1.0}, "interpolation": 2}]}, "perspective_c2_y": {"Points": [{"co": {"Y": -1.0, "X": 1.0}, "interpolation": 2}]}, "perspective_c1_y": {"Points": [{"co": {"Y": -1.0, "X": 1.0}, "interpolation": 2}]}, "title": "!130-Copy Average.mkv", "perspective_c4_y": {"Points": [{"co": {"Y": -1.0, "X": 1.0}, "interpolation": 2}]}, "duration": 29.0, "wave_color": {"red": {"Points": [{"handle_right": {"Y": 0.0, "X": 0.5}, "handle_type": 0, "handle_left": {"Y": 1.0, "X": 0.5}, "co": {"Y": 0.0, "X": 1.0}, "interpolation": 0}]}, "green": {"Points": [{"handle_right": {"Y": 0.0, "X": 0.5}, "handle_type": 0, "handle_left": {"Y": 1.0, "X": 0.5}, "co": {"Y": 123.0, "X": 1.0}, "interpolation": 0}]}, "blue": {"Points": [{"handle_right": {"Y": 0.0, "X": 0.5}, "handle_type": 0, "handle_left": {"Y": 1.0, "X": 0.5}, "co": {"Y": 255.0, "X": 1.0}, "interpolation": 0}]}, "alpha": {"Points": [{"handle_right": {"Y": 0.0, "X": 0.5}, "handle_type": 0, "handle_left": {"Y": 1.0, "X": 0.5}, "co": {"Y": 255.0, "X": 1.0}, "interpolation": 0}]}}, "time": {"Points": [{"co": {"Y": 1.0, "X": 1.0}, "interpolation": 2}]}, "crop_height": {"Points": [{"co": {"Y": -1.0, "X": 1.0}, "interpolation": 2}]}, "scale_y": {"Points": [{"co": {"Y": 1.5, "X": 1.0}, "interpolation": 2}, {"co": {"Y": 2.299999952316284, "X": 373}, "interpolation": 1}, {"co": {"Y": 1.5, "X": 224}, "interpolation": 1}]}, "effects": []}, {"location_x": {"Points": [{"co": {"Y": 0.0, "X": 1.0}, "interpolation": 2}]}, "perspective_c3_x": {"Points": [{"co": {"Y": -1.0, "X": 1.0}, "interpolation": 2}]}, "perspective_c4_x": {"Points": [{"co": {"Y": -1.0, "X": 1.0}, "interpolation": 2}]}, "channel_filter": {"Points": [{"co": {"Y": -1.0, "X": 1.0}, "interpolation": 2}]}, "perspective_c2_x": {"Points": [{"co": {"Y": -1.0, "X": 1.0}, "interpolation": 2}]}, "perspective_c1_x": {"Points": [{"co": {"Y": -1.0, "X": 1.0}, "interpolation": 2}]}, "anchor": 0, "alpha": {"Points": [{"co": {"Y": 1.0, "X": 1.0}, "interpolation": 2}]}, "id": "87020DYHA9", "layer": 0, "file_id": "0F0RWXSQM9", "display": 0, "scale": 1, "gravity": 4, "crop_width": {"Points": [{"co": {"Y": -1.0, "X": 1.0}, "interpolation": 2}]}, "crop_x": {"Points": [{"co": {"Y": 0.0, "X": 1.0}, "interpolation": 2}]}, "shear_x": {"Points": [{"co": {"Y": 0.0, "X": 1.0}, "interpolation": 2}]}, "volume": {"Points": [{"co": {"Y": 1.0, "X": 1.0}, "interpolation": 2}]}, "start": 0, "rotation": {"Points": [{"co": {"Y": 0.0, "X": 1.0}, "interpolation": 2}]}, "reader": {"video_stream_index": -1, "video_length": "2592000", "interlaced_frame": false, "audio_bit_rate": 0, "audio_timebase": {"den": 1, "num": 1}, "vcodec": "", "channels": 0, "has_video": true, "channel_layout": 4, "has_audio": false, "video_timebase": {"den": 30, "num": 1}, "has_single_image": true, "acodec": "", "video_bit_rate": 0, "display_ratio": {"den": 9, "num": 16}, "audio_stream_index": -1, "type": "QtImageReader", "top_field_first": true, "width": 1920, "pixel_ratio": {"den": 1, "num": 1}, "height": 1080, "duration": 86400.0, "file_size": "8294400", "path": "/home/milind/Data/Projects/ProgressCard/!000-White-Background.svg", "fps": {"den": 1, "num": 30}, "pixel_format": -1, "sample_rate": 0}, "position": 289.16999999999996, "has_video": {"Points": [{"co": {"Y": -1.0, "X": 1.0}, "interpolation": 2}]}, "has_audio": {"Points": [{"co": {"Y": -1.0, "X": 1.0}, "interpolation": 2}]}, "channel_mapping": {"Points": [{"co": {"Y": -1.0, "X": 1.0}, "interpolation": 2}]}, "shear_y": {"Points": [{"co": {"Y": 0.0, "X": 1.0}, "interpolation": 2}]}, "perspective_c3_y": {"Points": [{"co": {"Y": -1.0, "X": 1.0}, "interpolation": 2}]}, "waveform": false, "end": 9.49, "scale_x": {"Points": [{"co": {"Y": 1.0, "X": 1.0}, "interpolation": 2}]}, "image": "/home/milind/.openshot_qt/thumbnail/0F0RWXSQM9.png", "location_y": {"Points": [{"co": {"Y": 0.0, "X": 1.0}, "interpolation": 2}]}, "crop_y": {"Points": [{"co": {"Y": 0.0, "X": 1.0}, "interpolation": 2}]}, "perspective_c2_y": {"Points": [{"co": {"Y": -1.0, "X": 1.0}, "interpolation": 2}]}, "perspective_c1_y": {"Points": [{"co": {"Y": -1.0, "X": 1.0}, "interpolation": 2}]}, "title": "!000-White-Background.svg", "perspective_c4_y": {"Points": [{"co": {"Y": -1.0, "X": 1.0}, "interpolation": 2}]}, "duration": 86400.0, "wave_color": {"red": {"Points": [{"handle_right": {"Y": 0.0, "X": 0.5}, "handle_type": 0, "handle_left": {"Y": 1.0, "X": 0.5}, "co": {"Y": 0.0, "X": 1.0}, "interpolation": 0}]}, "green": {"Points": [{"handle_right": {"Y": 0.0, "X": 0.5}, "handle_type": 0, "handle_left": {"Y": 1.0, "X": 0.5}, "co": {"Y": 123.0, "X": 1.0}, "interpolation": 0}]}, "blue": {"Points": [{"handle_right": {"Y": 0.0, "X": 0.5}, "handle_type": 0, "handle_left": {"Y": 1.0, "X": 0.5}, "co": {"Y": 255.0, "X": 1.0}, "interpolation": 0}]}, "alpha": {"Points": [{"handle_right": {"Y": 0.0, "X": 0.5}, "handle_type": 0, "handle_left": {"Y": 1.0, "X": 0.5}, "co": {"Y": 255.0, "X": 1.0}, "interpolation": 0}]}}, "time": {"Points": [{"co": {"Y": 1.0, "X": 1.0}, "interpolation": 2}]}, "crop_height": {"Points": [{"co": {"Y": -1.0, "X": 1.0}, "interpolation": 2}]}, "scale_y": {"Points": [{"co": {"Y": 1.0, "X": 1.0}, "interpolation": 2}]}, "effects": []}, {"location_x": {"Points": [{"co": {"Y": -0.019999999552965164, "X": 1}, "interpolation": 2}]}, "perspective_c3_x": {"Points": [{"co": {"Y": -1, "X": 1}, "interpolation": 2}]}, "perspective_c4_x": {"Points": [{"co": {"Y": -1, "X": 1}, "interpolation": 2}]}, "channel_filter": {"Points": [{"co": {"Y": -1, "X": 1}, "interpolation": 2}]}, "perspective_c2_x": {"Points": [{"co": {"Y": -1, "X": 1}, "interpolation": 2}]}, "perspective_c1_x": {"Points": [{"co": {"Y": -1, "X": 1}, "interpolation": 2}]}, "anchor": 0, "alpha": {"Points": [{"handle_right": {"Y": 0, "X": 0.5}, "handle_type": 0, "handle_left": {"Y": 1, "X": 0.5}, "co": {"Y": 1, "X": 1}, "interpolation": 0}, {"handle_right": {"Y": 0, "X": 0.5}, "handle_type": 0, "handle_left": {"Y": 1, "X": 0.5}, "co": {"Y": 0, "X": 1}, "interpolation": 0}, {"handle_right": {"Y": 0, "X": 0.5}, "handle_type": 0, "handle_left": {"Y": 1, "X": 0.5}, "co": {"Y": 1, "X": 73}, "interpolation": 0}, {"handle_right": {"Y": 0, "X": 0.5}, "handle_type": 0, "handle_left": {"Y": 1, "X": 0.5}, "co": {"Y": 1, "X": 644}, "interpolation": 0}, {"handle_right": {"Y": 0, "X": 0.5}, "handle_type": 0, "handle_left": {"Y": 1, "X": 0.5}, "co": {"Y": 0, "X": 716}, "interpolation": 0}]}, "id": "F2MA5NTJGV", "layer": 1, "file_id": "MJ87OKNJXE", "display": 0, "scale": 1, "gravity": 4, "crop_width": {"Points": [{"co": {"Y": -1, "X": 1}, "interpolation": 2}]}, "crop_x": {"Points": [{"co": {"Y": 0, "X": 1}, "interpolation": 2}]}, "shear_x": {"Points": [{"co": {"Y": 0, "X": 1}, "interpolation": 2}]}, "volume": {"Points": [{"co": {"Y": 1, "X": 1}, "interpolation": 2}]}, "start": 0, "rotation": {"Points": [{"co": {"Y": 0, "X": 1}, "interpolation": 2}]}, "reader": {"video_stream_index": 0, "video_length": "1575", "interlaced_frame": false, "audio_bit_rate": 0, "audio_timebase": {"den": 1, "num": 1}, "vcodec": "h264", "channels": 0, "has_video": true, "channel_layout": 4, "has_audio": false, "video_timebase": {"den": 1000, "num": 1}, "has_single_image": false, "acodec": "", "video_bit_rate": 62654, "display_ratio": {"den": 186, "num": 325}, "audio_stream_index": -1, "type": "FFmpegReader", "top_field_first": true, "width": 1300, "pixel_ratio": {"den": 1, "num": 1}, "height": 744, "duration": 63.0, "file_size": "499047", "path": "/home/milind/Data/Projects/ProgressCard/!150-Inserted GRADE in REMARK.mkv", "fps": {"den": 1, "num": 25}, "pixel_format": 0, "sample_rate": 0}, "position": 266.32359375, "has_video": {"Points": [{"co": {"Y": -1, "X": 1}, "interpolation": 2}]}, "has_audio": {"Points": [{"co": {"Y": -1, "X": 1}, "interpolation": 2}]}, "channel_mapping": {"Points": [{"co": {"Y": -1, "X": 1}, "interpolation": 2}]}, "shear_y": {"Points": [{"co": {"Y": 0, "X": 1}, "interpolation": 2}]}, "perspective_c3_y": {"Points": [{"co": {"Y": -1, "X": 1}, "interpolation": 2}]}, "waveform": false, "end": 29.791666666666668, "scale_x": {"Points": [{"co": {"Y": 1.7000000476837158, "X": 1}, "interpolation": 2}]}, "image": "/home/milind/.openshot_qt/thumbnail/MJ87OKNJXE.png", "location_y": {"Points": [{"co": {"Y": 0.30000001192092896, "X": 1}, "interpolation": 2}]}, "crop_y": {"Points": [{"co": {"Y": 0, "X": 1}, "interpolation": 2}]}, "perspective_c2_y": {"Points": [{"co": {"Y": -1, "X": 1}, "interpolation": 2}]}, "perspective_c1_y": {"Points": [{"co": {"Y": -1, "X": 1}, "interpolation": 2}]}, "title": "!150-Inserted GRADE in REMARK.mkv", "perspective_c4_y": {"Points": [{"co": {"Y": -1, "X": 1}, "interpolation": 2}]}, "duration": 30.0, "wave_color": {"red": {"Points": [{"handle_right": {"Y": 0, "X": 0.5}, "handle_type": 0, "handle_left": {"Y": 1, "X": 0.5}, "co": {"Y": 0, "X": 1}, "interpolation": 0}]}, "green": {"Points": [{"handle_right": {"Y": 0, "X": 0.5}, "handle_type": 0, "handle_left": {"Y": 1, "X": 0.5}, "co": {"Y": 123, "X": 1}, "interpolation": 0}]}, "blue": {"Points": [{"handle_right": {"Y": 0, "X": 0.5}, "handle_type": 0, "handle_left": {"Y": 1, "X": 0.5}, "co": {"Y": 255, "X": 1}, "interpolation": 0}]}, "alpha": {"Points": [{"handle_right": {"Y": 0, "X": 0.5}, "handle_type": 0, "handle_left": {"Y": 1, "X": 0.5}, "co": {"Y": 255, "X": 1}, "interpolation": 0}]}}, "time": {"Points": [{"co": {"Y": 1, "X": 1}, "interpolation": 1}, {"co": {"Y": 1429, "X": 715}, "interpolation": 1}]}, "crop_height": {"Points": [{"co": {"Y": -1, "X": 1}, "interpolation": 2}]}, "scale_y": {"Points": [{"co": {"Y": 1.7000000476837158, "X": 1}, "interpolation": 2}]}, "effects": []}, {"location_x": {"Points": [{"co": {"Y": 0, "X": 1}, "interpolation": 2}]}, "perspective_c3_x": {"Points": [{"co": {"Y": -1, "X": 1}, "interpolation": 2}]}, "perspective_c4_x": {"Points": [{"co": {"Y": -1, "X": 1}, "interpolation": 2}]}, "channel_filter": {"Points": [{"co": {"Y": -1, "X": 1}, "interpolation": 2}]}, "perspective_c2_x": {"Points": [{"co": {"Y": -1, "X": 1}, "interpolation": 2}]}, "perspective_c1_x": {"Points": [{"co": {"Y": -1, "X": 1}, "interpolation": 2}]}, "anchor": 0, "alpha": {"Points": [{"co": {"Y": 1, "X": 1}, "interpolation": 2}]}, "id": "04TSZRCDQD", "layer": 0, "file_id": "0F0RWXSQM9", "display": 0, "scale": 1, "gravity": 4, "crop_width": {"Points": [{"co": {"Y": -1, "X": 1}, "interpolation": 2}]}, "crop_x": {"Points": [{"co": {"Y": 0, "X": 1}, "interpolation": 2}]}, "shear_x": {"Points": [{"co": {"Y": 0, "X": 1}, "interpolation": 2}]}, "volume": {"Points": [{"co": {"Y": 1, "X": 1}, "interpolation": 2}]}, "start": 0, "rotation": {"Points": [{"co": {"Y": 0, "X": 1}, "interpolation": 2}]}, "reader": {"video_stream_index": -1, "video_length": "2592000", "interlaced_frame": false, "audio_bit_rate": 0, "audio_timebase": {"den": 1, "num": 1}, "vcodec": "", "channels": 0, "has_video": true, "channel_layout": 4, "has_audio": false, "video_timebase": {"den": 30, "num": 1}, "has_single_image": true, "acodec": "", "video_bit_rate": 0, "display_ratio": {"den": 9, "num": 16}, "audio_stream_index": -1, "type": "QtImageReader", "top_field_first": true, "width": 1920, "pixel_ratio": {"den": 1, "num": 1}, "height": 1080, "duration": 86400.0, "file_size": "8294400", "path": "/home/milind/Data/Projects/ProgressCard/!000-White-Background.svg", "fps": {"den": 1, "num": 30}, "pixel_format": -1, "sample_rate": 0}, "position": 66.13, "has_video": {"Points": [{"co": {"Y": -1, "X": 1}, "interpolation": 2}]}, "has_audio": {"Points": [{"co": {"Y": -1, "X": 1}, "interpolation": 2}]}, "channel_mapping": {"Points": [{"co": {"Y": -1, "X": 1}, "interpolation": 2}]}, "shear_y": {"Points": [{"co": {"Y": 0, "X": 1}, "interpolation": 2}]}, "perspective_c3_y": {"Points": [{"co": {"Y": -1, "X": 1}, "interpolation": 2}]}, "waveform": false, "end": 12.99, "scale_x": {"Points": [{"co": {"Y": 1, "X": 1}, "interpolation": 2}]}, "image": "/home/milind/.openshot_qt/thumbnail/0F0RWXSQM9.png", "location_y": {"Points": [{"co": {"Y": 0, "X": 1}, "interpolation": 2}]}, "crop_y": {"Points": [{"co": {"Y": 0, "X": 1}, "interpolation": 2}]}, "perspective_c2_y": {"Points": [{"co": {"Y": -1, "X": 1}, "interpolation": 2}]}, "perspective_c1_y": {"Points": [{"co": {"Y": -1, "X": 1}, "interpolation": 2}]}, "title": "!000-White-Background.svg", "perspective_c4_y": {"Points": [{"co": {"Y": -1, "X": 1}, "interpolation": 2}]}, "duration": 86400.0, "wave_color": {"red": {"Points": [{"handle_right": {"Y": 0, "X": 0.5}, "handle_type": 0, "handle_left": {"Y": 1, "X": 0.5}, "co": {"Y": 0, "X": 1}, "interpolation": 0}]}, "green": {"Points": [{"handle_right": {"Y": 0, "X": 0.5}, "handle_type": 0, "handle_left": {"Y": 1, "X": 0.5}, "co": {"Y": 123, "X": 1}, "interpolation": 0}]}, "blue": {"Points": [{"handle_right": {"Y": 0, "X": 0.5}, "handle_type": 0, "handle_left": {"Y": 1, "X": 0.5}, "co": {"Y": 255, "X": 1}, "interpolation": 0}]}, "alpha": {"Points": [{"handle_right": {"Y": 0, "X": 0.5}, "handle_type": 0, "handle_left": {"Y": 1, "X": 0.5}, "co": {"Y": 255, "X": 1}, "interpolation": 0}]}}, "time": {"Points": [{"co": {"Y": 1, "X": 1}, "interpolation": 2}]}, "crop_height": {"Points": [{"co": {"Y": -1, "X": 1}, "interpolation": 2}]}, "scale_y": {"Points": [{"co": {"Y": 1, "X": 1}, "interpolation": 2}]}, "effects": []}, {"location_x": {"Points": [{"co": {"Y": 0, "X": 1}, "interpolation": 2}]}, "perspective_c3_x": {"Points": [{"co": {"Y": -1, "X": 1}, "interpolation": 2}]}, "perspective_c4_x": {"Points": [{"co": {"Y": -1, "X": 1}, "interpolation": 2}]}, "channel_filter": {"Points": [{"co": {"Y": -1, "X": 1}, "interpolation": 2}]}, "perspective_c2_x": {"Points": [{"co": {"Y": -1, "X": 1}, "interpolation": 2}]}, "perspective_c1_x": {"Points": [{"co": {"Y": -1, "X": 1}, "interpolation": 2}]}, "anchor": 0, "alpha": {"Points": [{"co": {"Y": 1, "X": 1}, "interpolation": 2}, {"handle_right": {"Y": 0, "X": 0.5}, "handle_type": 0, "handle_left": {"Y": 1, "X": 0.5}, "co": {"Y": 0, "X": 1}, "interpolation": 0}, {"handle_right": {"Y": 0, "X": 0.5}, "handle_type": 0, "handle_left": {"Y": 1, "X": 0.5}, "co": {"Y": 1, "X": 73}, "interpolation": 0}, {"handle_right": {"Y": 0, "X": 0.5}, "handle_type": 0, "handle_left": {"Y": 1, "X": 0.5}, "co": {"Y": 1, "X": 49}, "interpolation": 0}, {"handle_right": {"Y": 0, "X": 0.5}, "handle_type": 0, "handle_left": {"Y": 1, "X": 0.5}, "co": {"Y": 0, "X": 121}, "interpolation": 0}]}, "id": "YVXCHQZADD", "layer": 2, "file_id": "O28Z229VIU", "display": 0, "scale": 1, "gravity": 4, "crop_width": {"Points": [{"co": {"Y": -1, "X": 1}, "interpolation": 2}]}, "crop_x": {"Points": [{"co": {"Y": 0, "X": 1}, "interpolation": 2}]}, "shear_x": {"Points": [{"co": {"Y": 0, "X": 1}, "interpolation": 2}]}, "volume": {"Points": [{"co": {"Y": 1, "X": 1}, "interpolation": 2}]}, "start": 0, "rotation": {"Points": [{"co": {"Y": 0, "X": 1}, "interpolation": 2}]}, "reader": {"video_stream_index": -1, "video_length": "2592000", "interlaced_frame": false, "audio_bit_rate": 0, "audio_timebase": {"den": 1, "num": 1}, "vcodec": "", "channels": 0, "has_video": true, "channel_layout": 4, "has_audio": false, "video_timebase": {"den": 30, "num": 1}, "has_single_image": true, "acodec": "", "video_bit_rate": 0, "display_ratio": {"den": 3827, "num": 6803}, "audio_stream_index": -1, "type": "QtImageReader", "top_field_first": true, "width": 6803, "pixel_ratio": {"den": 1, "num": 1}, "height": 3827, "duration": 86400.0, "file_size": "104140324", "path": "/home/milind/Data/Projects/ProgressCard/!072-Grace Total.svg", "fps": {"den": 1, "num": 30}, "pixel_format": -1, "sample_rate": 0}, "position": 11.708333333333332, "has_video": {"Points": [{"co": {"Y": -1, "X": 1}, "interpolation": 2}]}, "has_audio": {"Points": [{"co": {"Y": -1, "X": 1}, "interpolation": 2}]}, "channel_mapping": {"Points": [{"co": {"Y": -1, "X": 1}, "interpolation": 2}]}, "shear_y": {"Points": [{"co": {"Y": 0, "X": 1}, "interpolation": 2}]}, "perspective_c3_y": {"Points": [{"co": {"Y": -1, "X": 1}, "interpolation": 2}]}, "waveform": false, "end": 5, "scale_x": {"Points": [{"co": {"Y": 1, "X": 1}, "interpolation": 2}]}, "image": "/home/milind/.openshot_qt/thumbnail/O28Z229VIU.png", "location_y": {"Points": [{"co": {"Y": 0, "X": 1}, "interpolation": 2}]}, "crop_y": {"Points": [{"co": {"Y": 0, "X": 1}, "interpolation": 2}]}, "perspective_c2_y": {"Points": [{"co": {"Y": -1, "X": 1}, "interpolation": 2}]}, "perspective_c1_y": {"Points": [{"co": {"Y": -1, "X": 1}, "interpolation": 2}]}, "title": "!072-Grace Total.svg", "perspective_c4_y": {"Points": [{"co": {"Y": -1, "X": 1}, "interpolation": 2}]}, "duration": 86400.0, "wave_color": {"red": {"Points": [{"handle_right": {"Y": 0, "X": 0.5}, "handle_type": 0, "handle_left": {"Y": 1, "X": 0.5}, "co": {"Y": 0, "X": 1}, "interpolation": 0}]}, "green": {"Points": [{"handle_right": {"Y": 0, "X": 0.5}, "handle_type": 0, "handle_left": {"Y": 1, "X": 0.5}, "co": {"Y": 123, "X": 1}, "interpolation": 0}]}, "blue": {"Points": [{"handle_right": {"Y": 0, "X": 0.5}, "handle_type": 0, "handle_left": {"Y": 1, "X": 0.5}, "co": {"Y": 255, "X": 1}, "interpolation": 0}]}, "alpha": {"Points": [{"handle_right": {"Y": 0, "X": 0.5}, "handle_type": 0, "handle_left": {"Y": 1, "X": 0.5}, "co": {"Y": 255, "X": 1}, "interpolation": 0}]}}, "time": {"Points": [{"co": {"Y": 1, "X": 1}, "interpolation": 2}]}, "crop_height": {"Points": [{"co": {"Y": -1, "X": 1}, "interpolation": 2}]}, "scale_y": {"Points": [{"co": {"Y": 1, "X": 1}, "interpolation": 2}]}, "effects": []}, {"location_x": {"Points": [{"co": {"Y": 0, "X": 1}, "interpolation": 2}]}, "perspective_c3_x": {"Points": [{"co": {"Y": -1, "X": 1}, "interpolation": 2}]}, "perspective_c4_x": {"Points": [{"co": {"Y": -1, "X": 1}, "interpolation": 2}]}, "channel_filter": {"Points": [{"co": {"Y": -1, "X": 1}, "interpolation": 2}]}, "perspective_c2_x": {"Points": [{"co": {"Y": -1, "X": 1}, "interpolation": 2}]}, "perspective_c1_x": {"Points": [{"co": {"Y": -1, "X": 1}, "interpolation": 2}]}, "anchor": 0, "alpha": {"Points": [{"co": {"Y": 1, "X": 1}, "interpolation": 2}, {"handle_right": {"Y": 0, "X": 0.5}, "handle_type": 0, "handle_left": {"Y": 1, "X": 0.5}, "co": {"Y": 0, "X": 1}, "interpolation": 0}, {"handle_right": {"Y": 0, "X": 0.5}, "handle_type": 0, "handle_left": {"Y": 1, "X": 0.5}, "co": {"Y": 1, "X": 73}, "interpolation": 0}, {"handle_right": {"Y": 0, "X": 0.5}, "handle_type": 0, "handle_left": {"Y": 1, "X": 0.5}, "co": {"Y": 1, "X": 49}, "interpolation": 0}, {"handle_right": {"Y": 0, "X": 0.5}, "handle_type": 0, "handle_left": {"Y": 1, "X": 0.5}, "co": {"Y": 0, "X": 121}, "interpolation": 0}]}, "id": "GPTZ9M5371", "layer": 2, "file_id": "BUXZX40N2J", "display": 0, "scale": 1, "gravity": 4, "crop_width": {"Points": [{"co": {"Y": -1, "X": 1}, "interpolation": 2}]}, "crop_x": {"Points": [{"co": {"Y": 0, "X": 1}, "interpolation": 2}]}, "shear_x": {"Points": [{"co": {"Y": 0, "X": 1}, "interpolation": 2}]}, "volume": {"Points": [{"co": {"Y": 1, "X": 1}, "interpolation": 2}]}, "start": 0, "rotation": {"Points": [{"co": {"Y": 0, "X": 1}, "interpolation": 2}]}, "reader": {"video_stream_index": -1, "video_length": "2592000", "interlaced_frame": false, "audio_bit_rate": 0, "audio_timebase": {"den": 1, "num": 1}, "vcodec": "", "channels": 0, "has_video": true, "channel_layout": 4, "has_audio": false, "video_timebase": {"den": 30, "num": 1}, "has_single_image": true, "acodec": "", "video_bit_rate": 0, "display_ratio": {"den": 3827, "num": 6803}, "audio_stream_index": -1, "type": "QtImageReader", "top_field_first": true, "width": 6803, "pixel_ratio": {"den": 1, "num": 1}, "height": 3827, "duration": 86400.0, "file_size": "104140324", "path": "/home/milind/Data/Projects/ProgressCard/!073-Graced Subject Count.svg", "fps": {"den": 1, "num": 30}, "pixel_format": -1, "sample_rate": 0}, "position": 24.125000000000004, "has_video": {"Points": [{"co": {"Y": -1, "X": 1}, "interpolation": 2}]}, "has_audio": {"Points": [{"co": {"Y": -1, "X": 1}, "interpolation": 2}]}, "channel_mapping": {"Points": [{"co": {"Y": -1, "X": 1}, "interpolation": 2}]}, "shear_y": {"Points": [{"co": {"Y": 0, "X": 1}, "interpolation": 2}]}, "perspective_c3_y": {"Points": [{"co": {"Y": -1, "X": 1}, "interpolation": 2}]}, "waveform": false, "end": 5, "scale_x": {"Points": [{"co": {"Y": 1, "X": 1}, "interpolation": 2}]}, "image": "/home/milind/.openshot_qt/thumbnail/BUXZX40N2J.png", "location_y": {"Points": [{"co": {"Y": 0, "X": 1}, "interpolation": 2}]}, "crop_y": {"Points": [{"co": {"Y": 0, "X": 1}, "interpolation": 2}]}, "perspective_c2_y": {"Points": [{"co": {"Y": -1, "X": 1}, "interpolation": 2}]}, "perspective_c1_y": {"Points": [{"co": {"Y": -1, "X": 1}, "interpolation": 2}]}, "title": "!073-Graced Subject Count.svg", "perspective_c4_y": {"Points": [{"co": {"Y": -1, "X": 1}, "interpolation": 2}]}, "duration": 86400.0, "wave_color": {"red": {"Points": [{"handle_right": {"Y": 0, "X": 0.5}, "handle_type": 0, "handle_left": {"Y": 1, "X": 0.5}, "co": {"Y": 0, "X": 1}, "interpolation": 0}]}, "green": {"Points": [{"handle_right": {"Y": 0, "X": 0.5}, "handle_type": 0, "handle_left": {"Y": 1, "X": 0.5}, "co": {"Y": 123, "X": 1}, "interpolation": 0}]}, "blue": {"Points": [{"handle_right": {"Y": 0, "X": 0.5}, "handle_type": 0, "handle_left": {"Y": 1, "X": 0.5}, "co": {"Y": 255, "X": 1}, "interpolation": 0}]}, "alpha": {"Points": [{"handle_right": {"Y": 0, "X": 0.5}, "handle_type": 0, "handle_left": {"Y": 1, "X": 0.5}, "co": {"Y": 255, "X": 1}, "interpolation": 0}]}}, "time": {"Points": [{"co": {"Y": 1, "X": 1}, "interpolation": 2}]}, "crop_height": {"Points": [{"co": {"Y": -1, "X": 1}, "interpolation": 2}]}, "scale_y": {"Points": [{"co": {"Y": 1, "X": 1}, "interpolation": 2}]}, "effects": []}, {"location_x": {"Points": [{"co": {"Y": 0, "X": 1}, "interpolation": 2}]}, "perspective_c3_x": {"Points": [{"co": {"Y": -1, "X": 1}, "interpolation": 2}]}, "perspective_c4_x": {"Points": [{"co": {"Y": -1, "X": 1}, "interpolation": 2}]}, "channel_filter": {"Points": [{"co": {"Y": -1, "X": 1}, "interpolation": 2}]}, "perspective_c2_x": {"Points": [{"co": {"Y": -1, "X": 1}, "interpolation": 2}]}, "perspective_c1_x": {"Points": [{"co": {"Y": -1, "X": 1}, "interpolation": 2}]}, "anchor": 0, "alpha": {"Points": [{"co": {"Y": 1, "X": 1}, "interpolation": 2}, {"handle_right": {"Y": 0, "X": 0.5}, "handle_type": 0, "handle_left": {"Y": 1, "X": 0.5}, "co": {"Y": 0, "X": 1}, "interpolation": 0}, {"handle_right": {"Y": 0, "X": 0.5}, "handle_type": 0, "handle_left": {"Y": 1, "X": 0.5}, "co": {"Y": 1, "X": 73}, "interpolation": 0}, {"handle_right": {"Y": 0, "X": 0.5}, "handle_type": 0, "handle_left": {"Y": 1, "X": 0.5}, "co": {"Y": 1, "X": 49}, "interpolation": 0}, {"handle_right": {"Y": 0, "X": 0.5}, "handle_type": 0, "handle_left": {"Y": 1, "X": 0.5}, "co": {"Y": 0, "X": 121}, "interpolation": 0}]}, "id": "MH73AEFXVE", "layer": 2, "file_id": "MZ4ILBST6I", "display": 0, "scale": 1, "gravity": 4, "crop_width": {"Points": [{"co": {"Y": -1, "X": 1}, "interpolation": 2}]}, "crop_x": {"Points": [{"co": {"Y": 0, "X": 1}, "interpolation": 2}]}, "shear_x": {"Points": [{"co": {"Y": 0, "X": 1}, "interpolation": 2}]}, "volume": {"Points": [{"co": {"Y": 1, "X": 1}, "interpolation": 2}]}, "start": 0, "rotation": {"Points": [{"co": {"Y": 0, "X": 1}, "interpolation": 2}]}, "reader": {"video_stream_index": -1, "video_length": "2592000", "interlaced_frame": false, "audio_bit_rate": 0, "audio_timebase": {"den": 1, "num": 1}, "vcodec": "", "channels": 0, "has_video": true, "channel_layout": 4, "has_audio": false, "video_timebase": {"den": 30, "num": 1}, "has_single_image": true, "acodec": "", "video_bit_rate": 0, "display_ratio": {"den": 3827, "num": 6803}, "audio_stream_index": -1, "type": "QtImageReader", "top_field_first": true, "width": 6803, "pixel_ratio": {"den": 1, "num": 1}, "height": 3827, "duration": 86400.0, "file_size": "104140324", "path": "/home/milind/Data/Projects/ProgressCard/!074-Grace Greater Than 10.svg", "fps": {"den": 1, "num": 30}, "pixel_format": -1, "sample_rate": 0}, "position": 39.458333333333336, "has_video": {"Points": [{"co": {"Y": -1, "X": 1}, "interpolation": 2}]}, "has_audio": {"Points": [{"co": {"Y": -1, "X": 1}, "interpolation": 2}]}, "channel_mapping": {"Points": [{"co": {"Y": -1, "X": 1}, "interpolation": 2}]}, "shear_y": {"Points": [{"co": {"Y": 0, "X": 1}, "interpolation": 2}]}, "perspective_c3_y": {"Points": [{"co": {"Y": -1, "X": 1}, "interpolation": 2}]}, "waveform": false, "end": 5, "scale_x": {"Points": [{"co": {"Y": 1, "X": 1}, "interpolation": 2}]}, "image": "/home/milind/.openshot_qt/thumbnail/MZ4ILBST6I.png", "location_y": {"Points": [{"co": {"Y": 0, "X": 1}, "interpolation": 2}]}, "crop_y": {"Points": [{"co": {"Y": 0, "X": 1}, "interpolation": 2}]}, "perspective_c2_y": {"Points": [{"co": {"Y": -1, "X": 1}, "interpolation": 2}]}, "perspective_c1_y": {"Points": [{"co": {"Y": -1, "X": 1}, "interpolation": 2}]}, "title": "!074-Grace Greater Than 10.svg", "perspective_c4_y": {"Points": [{"co": {"Y": -1, "X": 1}, "interpolation": 2}]}, "duration": 86400.0, "wave_color": {"red": {"Points": [{"handle_right": {"Y": 0, "X": 0.5}, "handle_type": 0, "handle_left": {"Y": 1, "X": 0.5}, "co": {"Y": 0, "X": 1}, "interpolation": 0}]}, "green": {"Points": [{"handle_right": {"Y": 0, "X": 0.5}, "handle_type": 0, "handle_left": {"Y": 1, "X": 0.5}, "co": {"Y": 123, "X": 1}, "interpolation": 0}]}, "blue": {"Points": [{"handle_right": {"Y": 0, "X": 0.5}, "handle_type": 0, "handle_left": {"Y": 1, "X": 0.5}, "co": {"Y": 255, "X": 1}, "interpolation": 0}]}, "alpha": {"Points": [{"handle_right": {"Y": 0, "X": 0.5}, "handle_type": 0, "handle_left": {"Y": 1, "X": 0.5}, "co": {"Y": 255, "X": 1}, "interpolation": 0}]}}, "time": {"Points": [{"co": {"Y": 1, "X": 1}, "interpolation": 2}]}, "crop_height": {"Points": [{"co": {"Y": -1, "X": 1}, "interpolation": 2}]}, "scale_y": {"Points": [{"co": {"Y": 1, "X": 1}, "interpolation": 2}]}, "effects": []}, {"location_x": {"Points": [{"co": {"Y": 0, "X": 1}, "interpolation": 2}]}, "perspective_c3_x": {"Points": [{"co": {"Y": -1, "X": 1}, "interpolation": 2}]}, "perspective_c4_x": {"Points": [{"co": {"Y": -1, "X": 1}, "interpolation": 2}]}, "channel_filter": {"Points": [{"co": {"Y": -1, "X": 1}, "interpolation": 2}]}, "perspective_c2_x": {"Points": [{"co": {"Y": -1, "X": 1}, "interpolation": 2}]}, "perspective_c1_x": {"Points": [{"co": {"Y": -1, "X": 1}, "interpolation": 2}]}, "anchor": 0, "alpha": {"Points": [{"co": {"Y": 1, "X": 1}, "interpolation": 2}, {"handle_right": {"Y": 0, "X": 0.5}, "handle_type": 0, "handle_left": {"Y": 1, "X": 0.5}, "co": {"Y": 0, "X": 1}, "interpolation": 0}, {"handle_right": {"Y": 0, "X": 0.5}, "handle_type": 0, "handle_left": {"Y": 1, "X": 0.5}, "co": {"Y": 1, "X": 73}, "interpolation": 0}, {"handle_right": {"Y": 0, "X": 0.5}, "handle_type": 0, "handle_left": {"Y": 1, "X": 0.5}, "co": {"Y": 1, "X": 49}, "interpolation": 0}, {"handle_right": {"Y": 0, "X": 0.5}, "handle_type": 0, "handle_left": {"Y": 1, "X": 0.5}, "co": {"Y": 0, "X": 121}, "interpolation": 0}]}, "id": "2D6KOKWEJY", "layer": 2, "file_id": "55LKUBO9MG", "display": 0, "scale": 1, "gravity": 4, "crop_width": {"Points": [{"co": {"Y": -1, "X": 1}, "interpolation": 2}]}, "crop_x": {"Points": [{"co": {"Y": 0, "X": 1}, "interpolation": 2}]}, "shear_x": {"Points": [{"co": {"Y": 0, "X": 1}, "interpolation": 2}]}, "volume": {"Points": [{"co": {"Y": 1, "X": 1}, "interpolation": 2}]}, "start": 0, "rotation": {"Points": [{"co": {"Y": 0, "X": 1}, "interpolation": 2}]}, "reader": {"video_stream_index": -1, "video_length": "2592000", "interlaced_frame": false, "audio_bit_rate": 0, "audio_timebase": {"den": 1, "num": 1}, "vcodec": "", "channels": 0, "has_video": true, "channel_layout": 4, "has_audio": false, "video_timebase": {"den": 30, "num": 1}, "has_single_image": true, "acodec": "", "video_bit_rate": 0, "display_ratio": {"den": 3827, "num": 6803}, "audio_stream_index": -1, "type": "QtImageReader", "top_field_first": true, "width": 6803, "pixel_ratio": {"den": 1, "num": 1}, "height": 3827, "duration": 86400.0, "file_size": "104140324", "path": "/home/milind/Data/Projects/ProgressCard/!001-Copy (Ctrl-C).svg", "fps": {"den": 1, "num": 30}, "pixel_format": -1, "sample_rate": 0}, "position": 56.791666666666664, "has_video": {"Points": [{"co": {"Y": -1, "X": 1}, "interpolation": 2}]}, "has_audio": {"Points": [{"co": {"Y": -1, "X": 1}, "interpolation": 2}]}, "channel_mapping": {"Points": [{"co": {"Y": -1, "X": 1}, "interpolation": 2}]}, "shear_y": {"Points": [{"co": {"Y": 0, "X": 1}, "interpolation": 2}]}, "perspective_c3_y": {"Points": [{"co": {"Y": -1, "X": 1}, "interpolation": 2}]}, "waveform": false, "end": 5, "scale_x": {"Points": [{"co": {"Y": 1, "X": 1}, "interpolation": 2}]}, "image": "/home/milind/.openshot_qt/thumbnail/55LKUBO9MG.png", "location_y": {"Points": [{"co": {"Y": 0, "X": 1}, "interpolation": 2}]}, "crop_y": {"Points": [{"co": {"Y": 0, "X": 1}, "interpolation": 2}]}, "perspective_c2_y": {"Points": [{"co": {"Y": -1, "X": 1}, "interpolation": 2}]}, "perspective_c1_y": {"Points": [{"co": {"Y": -1, "X": 1}, "interpolation": 2}]}, "title": "!001-Copy (Ctrl-C).svg", "perspective_c4_y": {"Points": [{"co": {"Y": -1, "X": 1}, "interpolation": 2}]}, "duration": 86400.0, "wave_color": {"red": {"Points": [{"handle_right": {"Y": 0, "X": 0.5}, "handle_type": 0, "handle_left": {"Y": 1, "X": 0.5}, "co": {"Y": 0, "X": 1}, "interpolation": 0}]}, "green": {"Points": [{"handle_right": {"Y": 0, "X": 0.5}, "handle_type": 0, "handle_left": {"Y": 1, "X": 0.5}, "co": {"Y": 123, "X": 1}, "interpolation": 0}]}, "blue": {"Points": [{"handle_right": {"Y": 0, "X": 0.5}, "handle_type": 0, "handle_left": {"Y": 1, "X": 0.5}, "co": {"Y": 255, "X": 1}, "interpolation": 0}]}, "alpha": {"Points": [{"handle_right": {"Y": 0, "X": 0.5}, "handle_type": 0, "handle_left": {"Y": 1, "X": 0.5}, "co": {"Y": 255, "X": 1}, "interpolation": 0}]}}, "time": {"Points": [{"co": {"Y": 1, "X": 1}, "interpolation": 2}]}, "crop_height": {"Points": [{"co": {"Y": -1, "X": 1}, "interpolation": 2}]}, "scale_y": {"Points": [{"co": {"Y": 1, "X": 1}, "interpolation": 2}]}, "effects": []}, {"location_x": {"Points": [{"co": {"Y": 0, "X": 1}, "interpolation": 2}]}, "perspective_c3_x": {"Points": [{"co": {"Y": -1, "X": 1}, "interpolation": 2}]}, "perspective_c4_x": {"Points": [{"co": {"Y": -1, "X": 1}, "interpolation": 2}]}, "channel_filter": {"Points": [{"co": {"Y": -1, "X": 1}, "interpolation": 2}]}, "perspective_c2_x": {"Points": [{"co": {"Y": -1, "X": 1}, "interpolation": 2}]}, "perspective_c1_x": {"Points": [{"co": {"Y": -1, "X": 1}, "interpolation": 2}]}, "anchor": 0, "alpha": {"Points": [{"co": {"Y": 1, "X": 1}, "interpolation": 2}, {"handle_right": {"Y": 0, "X": 0.5}, "handle_type": 0, "handle_left": {"Y": 1, "X": 0.5}, "co": {"Y": 0, "X": 1}, "interpolation": 0}, {"handle_right": {"Y": 0, "X": 0.5}, "handle_type": 0, "handle_left": {"Y": 1, "X": 0.5}, "co": {"Y": 1, "X": 73}, "interpolation": 0}, {"handle_right": {"Y": 0, "X": 0.5}, "handle_type": 0, "handle_left": {"Y": 1, "X": 0.5}, "co": {"Y": 1, "X": 49}, "interpolation": 0}, {"handle_right": {"Y": 0, "X": 0.5}, "handle_type": 0, "handle_left": {"Y": 1, "X": 0.5}, "co": {"Y": 0, "X": 121}, "interpolation": 0}]}, "id": "GS9HYSSMO4", "layer": 2, "file_id": "JP5L750RMR", "display": 0, "scale": 1, "gravity": 4, "crop_width": {"Points": [{"co": {"Y": -1, "X": 1}, "interpolation": 2}]}, "crop_x": {"Points": [{"co": {"Y": 0, "X": 1}, "interpolation": 2}]}, "shear_x": {"Points": [{"co": {"Y": 0, "X": 1}, "interpolation": 2}]}, "volume": {"Points": [{"co": {"Y": 1, "X": 1}, "interpolation": 2}]}, "start": 0, "rotation": {"Points": [{"co": {"Y": 0, "X": 1}, "interpolation": 2}]}, "reader": {"video_stream_index": -1, "video_length": "2592000", "interlaced_frame": false, "audio_bit_rate": 0, "audio_timebase": {"den": 1, "num": 1}, "vcodec": "", "channels": 0, "has_video": true, "channel_layout": 4, "has_audio": false, "video_timebase": {"den": 30, "num": 1}, "has_single_image": true, "acodec": "", "video_bit_rate": 0, "display_ratio": {"den": 3827, "num": 6803}, "audio_stream_index": -1, "type": "QtImageReader", "top_field_first": true, "width": 6803, "pixel_ratio": {"den": 1, "num": 1}, "height": 3827, "duration": 86400.0, "file_size": "104140324", "path": "/home/milind/Data/Projects/ProgressCard/!002-Paste (Ctrl-V).svg", "fps": {"den": 1, "num": 30}, "pixel_format": -1, "sample_rate": 0}, "position": 62.25, "has_video": {"Points": [{"co": {"Y": -1, "X": 1}, "interpolation": 2}]}, "has_audio": {"Points": [{"co": {"Y": -1, "X": 1}, "interpolation": 2}]}, "channel_mapping": {"Points": [{"co": {"Y": -1, "X": 1}, "interpolation": 2}]}, "shear_y": {"Points": [{"co": {"Y": 0, "X": 1}, "interpolation": 2}]}, "perspective_c3_y": {"Points": [{"co": {"Y": -1, "X": 1}, "interpolation": 2}]}, "waveform": false, "end": 5, "scale_x": {"Points": [{"co": {"Y": 1, "X": 1}, "interpolation": 2}]}, "image": "/home/milind/.openshot_qt/thumbnail/JP5L750RMR.png", "location_y": {"Points": [{"co": {"Y": 0, "X": 1}, "interpolation": 2}]}, "crop_y": {"Points": [{"co": {"Y": 0, "X": 1}, "interpolation": 2}]}, "perspective_c2_y": {"Points": [{"co": {"Y": -1, "X": 1}, "interpolation": 2}]}, "perspective_c1_y": {"Points": [{"co": {"Y": -1, "X": 1}, "interpolation": 2}]}, "title": "!002-Paste (Ctrl-V).svg", "perspective_c4_y": {"Points": [{"co": {"Y": -1, "X": 1}, "interpolation": 2}]}, "duration": 86400.0, "wave_color": {"red": {"Points": [{"handle_right": {"Y": 0, "X": 0.5}, "handle_type": 0, "handle_left": {"Y": 1, "X": 0.5}, "co": {"Y": 0, "X": 1}, "interpolation": 0}]}, "green": {"Points": [{"handle_right": {"Y": 0, "X": 0.5}, "handle_type": 0, "handle_left": {"Y": 1, "X": 0.5}, "co": {"Y": 123, "X": 1}, "interpolation": 0}]}, "blue": {"Points": [{"handle_right": {"Y": 0, "X": 0.5}, "handle_type": 0, "handle_left": {"Y": 1, "X": 0.5}, "co": {"Y": 255, "X": 1}, "interpolation": 0}]}, "alpha": {"Points": [{"handle_right": {"Y": 0, "X": 0.5}, "handle_type": 0, "handle_left": {"Y": 1, "X": 0.5}, "co": {"Y": 255, "X": 1}, "interpolation": 0}]}}, "time": {"Points": [{"co": {"Y": 1, "X": 1}, "interpolation": 2}]}, "crop_height": {"Points": [{"co": {"Y": -1, "X": 1}, "interpolation": 2}]}, "scale_y": {"Points": [{"co": {"Y": 1, "X": 1}, "interpolation": 2}]}, "effects": []}, {"location_x": {"Points": [{"co": {"Y": 0, "X": 1}, "interpolation": 2}]}, "perspective_c3_y": {"Points": [{"co": {"Y": -1, "X": 1}, "interpolation": 2}]}, "shear_x": {"Points": [{"co": {"Y": 0, "X": 1}, "interpolation": 2}]}, "channel_filter": {"Points": [{"co": {"Y": -1, "X": 1}, "interpolation": 2}]}, "duration": 86400.0, "perspective_c1_x": {"Points": [{"co": {"Y": -1, "X": 1}, "interpolation": 2}]}, "perspective_c2_x": {"Points": [{"co": {"Y": -1, "X": 1}, "interpolation": 2}]}, "alpha": {"Points": [{"co": {"Y": 1, "X": 1}, "interpolation": 2}, {"handle_right": {"Y": 0, "X": 0.5}, "handle_type": 0, "handle_left": {"Y": 1, "X": 0.5}, "co": {"Y": 0, "X": 1}, "interpolation": 0}, {"handle_right": {"Y": 0, "X": 0.5}, "handle_type": 0, "handle_left": {"Y": 1, "X": 0.5}, "co": {"Y": 1, "X": 73}, "interpolation": 0}, {"handle_right": {"Y": 0, "X": 0.5}, "handle_type": 0, "handle_left": {"Y": 1, "X": 0.5}, "co": {"Y": 1, "X": 49}, "interpolation": 0}, {"handle_right": {"Y": 0, "X": 0.5}, "handle_type": 0, "handle_left": {"Y": 1, "X": 0.5}, "co": {"Y": 0, "X": 121}, "interpolation": 0}]}, "id": "J2KJS854LX", "layer": 1, "display": 0, "scale": 1, "gravity": 4, "crop_width": {"Points": [{"co": {"Y": -1, "X": 1}, "interpolation": 2}]}, "crop_x": {"Points": [{"co": {"Y": 0, "X": 1}, "interpolation": 2}]}, "perspective_c4_x": {"Points": [{"co": {"Y": -1, "X": 1}, "interpolation": 2}]}, "volume": {"Points": [{"co": {"Y": 1, "X": 1}, "interpolation": 2}]}, "has_audio": {"Points": [{"co": {"Y": -1, "X": 1}, "interpolation": 2}]}, "rotation": {"Points": [{"co": {"Y": 0, "X": 1}, "interpolation": 2}]}, "crop_y": {"Points": [{"co": {"Y": 0, "X": 1}, "interpolation": 2}]}, "position": 69.76906249999999, "has_video": {"Points": [{"co": {"Y": -1, "X": 1}, "interpolation": 2}]}, "start": 0, "channel_mapping": {"Points": [{"co": {"Y": -1, "X": 1}, "interpolation": 2}]}, "shear_y": {"Points": [{"co": {"Y": 0, "X": 1}, "interpolation": 2}]}, "end": 5, "waveform": false, "perspective_c3_x": {"Points": [{"co": {"Y": -1, "X": 1}, "interpolation": 2}]}, "scale_x": {"Points": [{"co": {"Y": 1, "X": 1}, "interpolation": 2}]}, "image": "/home/milind/.openshot_qt/thumbnail/9MDVH2JM9J.png", "location_y": {"Points": [{"co": {"Y": 0, "X": 1}, "interpolation": 2}]}, "crop_height": {"Points": [{"co": {"Y": -1, "X": 1}, "interpolation": 2}]}, "perspective_c2_y": {"Points": [{"co": {"Y": -1, "X": 1}, "interpolation": 2}]}, "perspective_c1_y": {"Points": [{"co": {"Y": -1, "X": 1}, "interpolation": 2}]}, "title": "!085-Pass or Fail.svg", "perspective_c4_y": {"Points": [{"co": {"Y": -1, "X": 1}, "interpolation": 2}]}, "anchor": 0, "wave_color": {"red": {"Points": [{"handle_right": {"Y": 0, "X": 0.5}, "handle_type": 0, "handle_left": {"Y": 1, "X": 0.5}, "co": {"Y": 0, "X": 1}, "interpolation": 0}]}, "green": {"Points": [{"handle_right": {"Y": 0, "X": 0.5}, "handle_type": 0, "handle_left": {"Y": 1, "X": 0.5}, "co": {"Y": 123, "X": 1}, "interpolation": 0}]}, "blue": {"Points": [{"handle_right": {"Y": 0, "X": 0.5}, "handle_type": 0, "handle_left": {"Y": 1, "X": 0.5}, "co": {"Y": 255, "X": 1}, "interpolation": 0}]}, "alpha": {"Points": [{"handle_right": {"Y": 0, "X": 0.5}, "handle_type": 0, "handle_left": {"Y": 1, "X": 0.5}, "co": {"Y": 255, "X": 1}, "interpolation": 0}]}}, "time": {"Points": [{"co": {"Y": 1, "X": 1}, "interpolation": 2}]}, "effects": [], "file_id": "9MDVH2JM9J", "scale_y": {"Points": [{"co": {"Y": 1, "X": 1}, "interpolation": 2}]}, "reader": {"video_stream_index": -1, "video_length": "2592000", "interlaced_frame": false, "audio_bit_rate": 0, "audio_timebase": {"den": 1, "num": 1}, "vcodec": "", "channels": 0, "has_video": true, "channel_layout": 4, "has_audio": false, "video_timebase": {"den": 30, "num": 1}, "has_single_image": true, "acodec": "", "video_bit_rate": 0, "display_ratio": {"den": 3827, "num": 6803}, "audio_stream_index": -1, "type": "QtImageReader", "top_field_first": true, "width": 6803, "pixel_ratio": {"den": 1, "num": 1}, "height": 3827, "duration": 86400.0, "file_size": "104140324", "path": "/home/milind/Data/Projects/ProgressCard/!085-Pass or Fail.svg", "fps": {"den": 1, "num": 30}, "pixel_format": -1, "sample_rate": 0}}, {"location_x": {"Points": [{"co": {"Y": 0, "X": 1}, "interpolation": 2}]}, "perspective_c3_x": {"Points": [{"co": {"Y": -1, "X": 1}, "interpolation": 2}]}, "perspective_c4_x": {"Points": [{"co": {"Y": -1, "X": 1}, "interpolation": 2}]}, "channel_filter": {"Points": [{"co": {"Y": -1, "X": 1}, "interpolation": 2}]}, "crop_height": {"Points": [{"co": {"Y": -1, "X": 1}, "interpolation": 2}]}, "perspective_c2_x": {"Points": [{"co": {"Y": -1, "X": 1}, "interpolation": 2}]}, "perspective_c1_x": {"Points": [{"co": {"Y": -1, "X": 1}, "interpolation": 2}]}, "anchor": 0, "alpha": {"Points": [{"handle_right": {"Y": 0, "X": 0.5}, "handle_type": 0, "handle_left": {"Y": 1, "X": 0.5}, "co": {"Y": 1, "X": 1}, "interpolation": 0}, {"handle_right": {"Y": 0, "X": 0.5}, "handle_type": 0, "handle_left": {"Y": 1, "X": 0.5}, "co": {"Y": 0, "X": 1}, "interpolation": 0}, {"handle_right": {"Y": 0, "X": 0.5}, "handle_type": 0, "handle_left": {"Y": 1, "X": 0.5}, "co": {"Y": 1, "X": 73}, "interpolation": 0}, {"handle_right": {"Y": 0, "X": 0.5}, "handle_type": 0, "handle_left": {"Y": 1, "X": 0.5}, "co": {"Y": 1, "X": 375}, "interpolation": 0}, {"handle_right": {"Y": 0, "X": 0.5}, "handle_type": 0, "handle_left": {"Y": 1, "X": 0.5}, "co": {"Y": 0, "X": 447}, "interpolation": 0}]}, "id": "UX3VY9TAZP", "layer": 2, "display": 0, "scale": 1, "gravity": 4, "crop_width": {"Points": [{"co": {"Y": -1, "X": 1}, "interpolation": 2}]}, "crop_x": {"Points": [{"co": {"Y": 0, "X": 1}, "interpolation": 2}]}, "shear_x": {"Points": [{"co": {"Y": 0, "X": 1}, "interpolation": 2}]}, "volume": {"Points": [{"co": {"Y": 1, "X": 1}, "interpolation": 2}]}, "has_audio": {"Points": [{"co": {"Y": -1, "X": 1}, "interpolation": 2}]}, "title": "!086-IF GT,GC,TC.svg", "reader": {"video_stream_index": -1, "video_length": "2592000", "interlaced_frame": false, "audio_bit_rate": 0, "audio_timebase": {"den": 1, "num": 1}, "vcodec": "", "channels": 0, "has_video": true, "channel_layout": 4, "has_audio": false, "video_timebase": {"den": 30, "num": 1}, "has_single_image": true, "acodec": "", "video_bit_rate": 0, "display_ratio": {"den": 3827, "num": 6803}, "audio_stream_index": -1, "type": "QtImageReader", "top_field_first": true, "width": 6803, "pixel_ratio": {"den": 1, "num": 1}, "height": 3827, "duration": 86400.0, "file_size": "104140324", "path": "/home/milind/Data/Projects/ProgressCard/!086-IF GT,GC,TC.svg", "fps": {"den": 1, "num": 30}, "pixel_format": -1, "sample_rate": 0}, "position": 85.265625, "has_video": {"Points": [{"co": {"Y": -1, "X": 1}, "interpolation": 2}]}, "start": 0, "channel_mapping": {"Points": [{"co": {"Y": -1, "X": 1}, "interpolation": 2}]}, "shear_y": {"Points": [{"co": {"Y": 0, "X": 1}, "interpolation": 2}]}, "perspective_c3_y": {"Points": [{"co": {"Y": -1, "X": 1}, "interpolation": 2}]}, "waveform": false, "end": 18.599999999999994, "scale_x": {"Points": [{"co": {"Y": 1, "X": 1}, "interpolation": 2}]}, "image": "/home/milind/.openshot_qt/thumbnail/DIHETX3WQ7.png", "location_y": {"Points": [{"co": {"Y": 0, "X": 1}, "interpolation": 2}]}, "crop_y": {"Points": [{"co": {"Y": 0, "X": 1}, "interpolation": 2}]}, "perspective_c2_y": {"Points": [{"co": {"Y": -1, "X": 1}, "interpolation": 2}]}, "perspective_c1_y": {"Points": [{"co": {"Y": -1, "X": 1}, "interpolation": 2}]}, "rotation": {"Points": [{"co": {"Y": 0, "X": 1}, "interpolation": 2}]}, "perspective_c4_y": {"Points": [{"co": {"Y": -1, "X": 1}, "interpolation": 2}]}, "duration": 86400.0, "wave_color": {"red": {"Points": [{"handle_right": {"Y": 0, "X": 0.5}, "handle_type": 0, "handle_left": {"Y": 1, "X": 0.5}, "co": {"Y": 0, "X": 1}, "interpolation": 0}]}, "green": {"Points": [{"handle_right": {"Y": 0, "X": 0.5}, "handle_type": 0, "handle_left": {"Y": 1, "X": 0.5}, "co": {"Y": 123, "X": 1}, "interpolation": 0}]}, "blue": {"Points": [{"handle_right": {"Y": 0, "X": 0.5}, "handle_type": 0, "handle_left": {"Y": 1, "X": 0.5}, "co": {"Y": 255, "X": 1}, "interpolation": 0}]}, "alpha": {"Points": [{"handle_right": {"Y": 0, "X": 0.5}, "handle_type": 0, "handle_left": {"Y": 1, "X": 0.5}, "co": {"Y": 255, "X": 1}, "interpolation": 0}]}}, "time": {"Points": [{"co": {"Y": 1, "X": 1}, "interpolation": 2}]}, "file_id": "DIHETX3WQ7", "scale_y": {"Points": [{"co": {"Y": 1, "X": 1}, "interpolation": 2}]}, "effects": []}, {"location_x": {"Points": [{"co": {"Y": 0, "X": 1}, "interpolation": 2}]}, "perspective_c4_x": {"Points": [{"co": {"Y": -1, "X": 1}, "interpolation": 2}]}, "channel_filter": {"Points": [{"co": {"Y": -1, "X": 1}, "interpolation": 2}]}, "duration": 86400.0, "perspective_c1_x": {"Points": [{"co": {"Y": -1, "X": 1}, "interpolation": 2}]}, "perspective_c2_x": {"Points": [{"co": {"Y": -1, "X": 1}, "interpolation": 2}]}, "alpha": {"Points": [{"co": {"Y": 1, "X": 1}, "interpolation": 2}, {"handle_right": {"Y": 0, "X": 0.5}, "handle_type": 0, "handle_left": {"Y": 1, "X": 0.5}, "co": {"Y": 0, "X": 1}, "interpolation": 0}, {"handle_right": {"Y": 0, "X": 0.5}, "handle_type": 0, "handle_left": {"Y": 1, "X": 0.5}, "co": {"Y": 1, "X": 73}, "interpolation": 0}, {"handle_right": {"Y": 0, "X": 0.5}, "handle_type": 0, "handle_left": {"Y": 1, "X": 0.5}, "co": {"Y": 1, "X": 49}, "interpolation": 0}, {"handle_right": {"Y": 0, "X": 0.5}, "handle_type": 0, "handle_left": {"Y": 1, "X": 0.5}, "co": {"Y": 0, "X": 121}, "interpolation": 0}]}, "id": "ISJOMX8TQ1", "layer": 2, "display": 0, "scale": 1, "gravity": 4, "crop_width": {"Points": [{"co": {"Y": -1, "X": 1}, "interpolation": 2}]}, "crop_x": {"Points": [{"co": {"Y": 0, "X": 1}, "interpolation": 2}]}, "shear_x": {"Points": [{"co": {"Y": 0, "X": 1}, "interpolation": 2}]}, "volume": {"Points": [{"co": {"Y": 1, "X": 1}, "interpolation": 2}]}, "start": 0, "end": 5, "title": "!105-Average.svg", "crop_y": {"Points": [{"co": {"Y": 0, "X": 1}, "interpolation": 2}]}, "reader": {"video_stream_index": -1, "video_length": "2592000", "interlaced_frame": false, "audio_bit_rate": 0, "audio_timebase": {"den": 1, "num": 1}, "vcodec": "", "channels": 0, "has_video": true, "channel_layout": 4, "has_audio": false, "video_timebase": {"den": 30, "num": 1}, "has_single_image": true, "acodec": "", "video_bit_rate": 0, "display_ratio": {"den": 3827, "num": 6803}, "audio_stream_index": -1, "type": "QtImageReader", "top_field_first": true, "width": 6803, "pixel_ratio": {"den": 1, "num": 1}, "height": 3827, "duration": 86400.0, "file_size": "104140324", "path": "/home/milind/Data/Projects/ProgressCard/!105-Average.svg", "fps": {"den": 1, "num": 30}, "pixel_format": -1, "sample_rate": 0}, "position": 128.11499999999998, "has_video": {"Points": [{"co": {"Y": -1, "X": 1}, "interpolation": 2}]}, "has_audio": {"Points": [{"co": {"Y": -1, "X": 1}, "interpolation": 2}]}, "channel_mapping": {"Points": [{"co": {"Y": -1, "X": 1}, "interpolation": 2}]}, "shear_y": {"Points": [{"co": {"Y": 0, "X": 1}, "interpolation": 2}]}, "perspective_c3_y": {"Points": [{"co": {"Y": -1, "X": 1}, "interpolation": 2}]}, "waveform": false, "perspective_c3_x": {"Points": [{"co": {"Y": -1, "X": 1}, "interpolation": 2}]}, "scale_x": {"Points": [{"co": {"Y": 1, "X": 1}, "interpolation": 2}]}, "image": "/home/milind/.openshot_qt/thumbnail/1QJRY2QLTK.png", "location_y": {"Points": [{"co": {"Y": 0, "X": 1}, "interpolation": 2}]}, "file_id": "1QJRY2QLTK", "perspective_c2_y": {"Points": [{"co": {"Y": -1, "X": 1}, "interpolation": 2}]}, "perspective_c1_y": {"Points": [{"co": {"Y": -1, "X": 1}, "interpolation": 2}]}, "rotation": {"Points": [{"co": {"Y": 0, "X": 1}, "interpolation": 2}]}, "perspective_c4_y": {"Points": [{"co": {"Y": -1, "X": 1}, "interpolation": 2}]}, "anchor": 0, "wave_color": {"red": {"Points": [{"handle_right": {"Y": 0, "X": 0.5}, "handle_type": 0, "handle_left": {"Y": 1, "X": 0.5}, "co": {"Y": 0, "X": 1}, "interpolation": 0}]}, "green": {"Points": [{"handle_right": {"Y": 0, "X": 0.5}, "handle_type": 0, "handle_left": {"Y": 1, "X": 0.5}, "co": {"Y": 123, "X": 1}, "interpolation": 0}]}, "blue": {"Points": [{"handle_right": {"Y": 0, "X": 0.5}, "handle_type": 0, "handle_left": {"Y": 1, "X": 0.5}, "co": {"Y": 255, "X": 1}, "interpolation": 0}]}, "alpha": {"Points": [{"handle_right": {"Y": 0, "X": 0.5}, "handle_type": 0, "handle_left": {"Y": 1, "X": 0.5}, "co": {"Y": 255, "X": 1}, "interpolation": 0}]}}, "time": {"Points": [{"co": {"Y": 1, "X": 1}, "interpolation": 2}]}, "crop_height": {"Points": [{"co": {"Y": -1, "X": 1}, "interpolation": 2}]}, "scale_y": {"Points": [{"co": {"Y": 1, "X": 1}, "interpolation": 2}]}, "effects": []}, {"location_x": {"Points": [{"handle_right": {"Y": 0, "X": 0.5}, "handle_type": 0, "handle_left": {"Y": 1, "X": 0.5}, "co": {"Y": 0, "X": 1}, "interpolation": 0}]}, "perspective_c4_x": {"Points": [{"co": {"Y": -1, "X": 1}, "interpolation": 2}]}, "channel_filter": {"Points": [{"co": {"Y": -1, "X": 1}, "interpolation": 2}]}, "duration": 86400.0, "perspective_c1_x": {"Points": [{"co": {"Y": -1, "X": 1}, "interpolation": 2}]}, "perspective_c2_x": {"Points": [{"co": {"Y": -1, "X": 1}, "interpolation": 2}]}, "alpha": {"Points": [{"co": {"Y": 1, "X": 1}, "interpolation": 2}, {"handle_right": {"Y": 0, "X": 0.5}, "handle_type": 0, "handle_left": {"Y": 1, "X": 0.5}, "co": {"Y": 0, "X": 1}, "interpolation": 0}, {"handle_right": {"Y": 0, "X": 0.5}, "handle_type": 0, "handle_left": {"Y": 1, "X": 0.5}, "co": {"Y": 1, "X": 73}, "interpolation": 0}, {"handle_right": {"Y": 0, "X": 0.5}, "handle_type": 0, "handle_left": {"Y": 1, "X": 0.5}, "co": {"Y": 1, "X": 49}, "interpolation": 0}, {"handle_right": {"Y": 0, "X": 0.5}, "handle_type": 0, "handle_left": {"Y": 1, "X": 0.5}, "co": {"Y": 0, "X": 121}, "interpolation": 0}]}, "id": "98IX31JWVL", "layer": 3, "display": 0, "scale": 1, "gravity": 4, "crop_width": {"Points": [{"co": {"Y": -1, "X": 1}, "interpolation": 2}]}, "crop_x": {"Points": [{"co": {"Y": 0, "X": 1}, "interpolation": 2}]}, "shear_x": {"Points": [{"co": {"Y": 0, "X": 1}, "interpolation": 2}]}, "volume": {"Points": [{"co": {"Y": 1, "X": 1}, "interpolation": 2}]}, "start": 0, "end": 5, "title": "!113-Menu-Format-Cells.svg", "crop_y": {"Points": [{"co": {"Y": 0, "X": 1}, "interpolation": 2}]}, "reader": {"video_stream_index": -1, "video_length": "2592000", "interlaced_frame": false, "audio_bit_rate": 0, "audio_timebase": {"den": 1, "num": 1}, "vcodec": "", "channels": 0, "has_video": true, "channel_layout": 4, "has_audio": false, "video_timebase": {"den": 30, "num": 1}, "has_single_image": true, "acodec": "", "video_bit_rate": 0, "display_ratio": {"den": 3827, "num": 6803}, "audio_stream_index": -1, "type": "QtImageReader", "top_field_first": true, "width": 6803, "pixel_ratio": {"den": 1, "num": 1}, "height": 3827, "duration": 86400.0, "file_size": "104140324", "path": "/home/milind/Data/Projects/ProgressCard/!113-Menu-Format-Cells.svg", "fps": {"den": 1, "num": 30}, "pixel_format": -1, "sample_rate": 0}, "position": 140.165, "has_video": {"Points": [{"co": {"Y": -1, "X": 1}, "interpolation": 2}]}, "has_audio": {"Points": [{"co": {"Y": -1, "X": 1}, "interpolation": 2}]}, "channel_mapping": {"Points": [{"co": {"Y": -1, "X": 1}, "interpolation": 2}]}, "shear_y": {"Points": [{"co": {"Y": 0, "X": 1}, "interpolation": 2}]}, "perspective_c3_y": {"Points": [{"co": {"Y": -1, "X": 1}, "interpolation": 2}]}, "waveform": false, "perspective_c3_x": {"Points": [{"co": {"Y": -1, "X": 1}, "interpolation": 2}]}, "scale_x": {"Points": [{"handle_right": {"Y": 0, "X": 0.5}, "handle_type": 0, "handle_left": {"Y": 1, "X": 0.5}, "co": {"Y": 1, "X": 1}, "interpolation": 0}]}, "image": "/home/milind/.openshot_qt/thumbnail/LKFVWV6XVE.png", "location_y": {"Points": [{"handle_right": {"Y": 0, "X": 0.5}, "handle_type": 0, "handle_left": {"Y": 1, "X": 0.5}, "co": {"Y": -0.05999999865889549, "X": 1}, "interpolation": 0}]}, "file_id": "LKFVWV6XVE", "perspective_c2_y": {"Points": [{"co": {"Y": -1, "X": 1}, "interpolation": 2}]}, "perspective_c1_y": {"Points": [{"co": {"Y": -1, "X": 1}, "interpolation": 2}]}, "rotation": {"Points": [{"co": {"Y": 0, "X": 1}, "interpolation": 2}]}, "perspective_c4_y": {"Points": [{"co": {"Y": -1, "X": 1}, "interpolation": 2}]}, "anchor": 0, "wave_color": {"red": {"Points": [{"handle_right": {"Y": 0, "X": 0.5}, "handle_type": 0, "handle_left": {"Y": 1, "X": 0.5}, "co": {"Y": 0, "X": 1}, "interpolation": 0}]}, "green": {"Points": [{"handle_right": {"Y": 0, "X": 0.5}, "handle_type": 0, "handle_left": {"Y": 1, "X": 0.5}, "co": {"Y": 123, "X": 1}, "interpolation": 0}]}, "blue": {"Points": [{"handle_right": {"Y": 0, "X": 0.5}, "handle_type": 0, "handle_left": {"Y": 1, "X": 0.5}, "co": {"Y": 255, "X": 1}, "interpolation": 0}]}, "alpha": {"Points": [{"handle_right": {"Y": 0, "X": 0.5}, "handle_type": 0, "handle_left": {"Y": 1, "X": 0.5}, "co": {"Y": 255, "X": 1}, "interpolation": 0}]}}, "time": {"Points": [{"co": {"Y": 1, "X": 1}, "interpolation": 2}]}, "crop_height": {"Points": [{"co": {"Y": -1, "X": 1}, "interpolation": 2}]}, "scale_y": {"Points": [{"handle_right": {"Y": 0, "X": 0.5}, "handle_type": 0, "handle_left": {"Y": 1, "X": 0.5}, "co": {"Y": 1, "X": 1}, "interpolation": 0}]}, "effects": []}, {"location_x": {"Points": [{"co": {"Y": 0, "X": 1}, "interpolation": 2}]}, "perspective_c4_x": {"Points": [{"co": {"Y": -1, "X": 1}, "interpolation": 2}]}, "channel_filter": {"Points": [{"co": {"Y": -1, "X": 1}, "interpolation": 2}]}, "duration": 86400.0, "perspective_c1_x": {"Points": [{"co": {"Y": -1, "X": 1}, "interpolation": 2}]}, "perspective_c2_x": {"Points": [{"co": {"Y": -1, "X": 1}, "interpolation": 2}]}, "alpha": {"Points": [{"co": {"Y": 1, "X": 1}, "interpolation": 2}, {"handle_right": {"Y": 0, "X": 0.5}, "handle_type": 0, "handle_left": {"Y": 1, "X": 0.5}, "co": {"Y": 0, "X": 1}, "interpolation": 0}, {"handle_right": {"Y": 0, "X": 0.5}, "handle_type": 0, "handle_left": {"Y": 1, "X": 0.5}, "co": {"Y": 1, "X": 73}, "interpolation": 0}, {"handle_right": {"Y": 0, "X": 0.5}, "handle_type": 0, "handle_left": {"Y": 1, "X": 0.5}, "co": {"Y": 1, "X": 49}, "interpolation": 0}, {"handle_right": {"Y": 0, "X": 0.5}, "handle_type": 0, "handle_left": {"Y": 1, "X": 0.5}, "co": {"Y": 0, "X": 121}, "interpolation": 0}]}, "id": "TREDM9MF0N", "layer": 3, "display": 0, "scale": 1, "gravity": 4, "crop_width": {"Points": [{"co": {"Y": -1, "X": 1}, "interpolation": 2}]}, "crop_x": {"Points": [{"co": {"Y": 0, "X": 1}, "interpolation": 2}]}, "shear_x": {"Points": [{"co": {"Y": 0, "X": 1}, "interpolation": 2}]}, "volume": {"Points": [{"co": {"Y": 1, "X": 1}, "interpolation": 2}]}, "start": 0, "end": 5, "title": "!114-We need only 2 decimal places.svg", "crop_y": {"Points": [{"co": {"Y": 0, "X": 1}, "interpolation": 2}]}, "reader": {"video_stream_index": -1, "video_length": "2592000", "interlaced_frame": false, "audio_bit_rate": 0, "audio_timebase": {"den": 1, "num": 1}, "vcodec": "", "channels": 0, "has_video": true, "channel_layout": 4, "has_audio": false, "video_timebase": {"den": 30, "num": 1}, "has_single_image": true, "acodec": "", "video_bit_rate": 0, "display_ratio": {"den": 3827, "num": 6803}, "audio_stream_index": -1, "type": "QtImageReader", "top_field_first": true, "width": 6803, "pixel_ratio": {"den": 1, "num": 1}, "height": 3827, "duration": 86400.0, "file_size": "104140324", "path": "/home/milind/Data/Projects/ProgressCard/!114-We need only 2 decimal places.svg", "fps": {"den": 1, "num": 30}, "pixel_format": -1, "sample_rate": 0}, "position": 145.1640625, "has_video": {"Points": [{"co": {"Y": -1, "X": 1}, "interpolation": 2}]}, "has_audio": {"Points": [{"co": {"Y": -1, "X": 1}, "interpolation": 2}]}, "channel_mapping": {"Points": [{"co": {"Y": -1, "X": 1}, "interpolation": 2}]}, "shear_y": {"Points": [{"co": {"Y": 0, "X": 1}, "interpolation": 2}]}, "perspective_c3_y": {"Points": [{"co": {"Y": -1, "X": 1}, "interpolation": 2}]}, "waveform": false, "perspective_c3_x": {"Points": [{"co": {"Y": -1, "X": 1}, "interpolation": 2}]}, "scale_x": {"Points": [{"co": {"Y": 1, "X": 1}, "interpolation": 2}]}, "image": "/home/milind/.openshot_qt/thumbnail/GS94V0HQUR.png", "location_y": {"Points": [{"co": {"Y": 0, "X": 1}, "interpolation": 2}]}, "file_id": "GS94V0HQUR", "perspective_c2_y": {"Points": [{"co": {"Y": -1, "X": 1}, "interpolation": 2}]}, "perspective_c1_y": {"Points": [{"co": {"Y": -1, "X": 1}, "interpolation": 2}]}, "rotation": {"Points": [{"co": {"Y": 0, "X": 1}, "interpolation": 2}]}, "perspective_c4_y": {"Points": [{"co": {"Y": -1, "X": 1}, "interpolation": 2}]}, "anchor": 0, "wave_color": {"red": {"Points": [{"handle_right": {"Y": 0, "X": 0.5}, "handle_type": 0, "handle_left": {"Y": 1, "X": 0.5}, "co": {"Y": 0, "X": 1}, "interpolation": 0}]}, "green": {"Points": [{"handle_right": {"Y": 0, "X": 0.5}, "handle_type": 0, "handle_left": {"Y": 1, "X": 0.5}, "co": {"Y": 123, "X": 1}, "interpolation": 0}]}, "blue": {"Points": [{"handle_right": {"Y": 0, "X": 0.5}, "handle_type": 0, "handle_left": {"Y": 1, "X": 0.5}, "co": {"Y": 255, "X": 1}, "interpolation": 0}]}, "alpha": {"Points": [{"handle_right": {"Y": 0, "X": 0.5}, "handle_type": 0, "handle_left": {"Y": 1, "X": 0.5}, "co": {"Y": 255, "X": 1}, "interpolation": 0}]}}, "time": {"Points": [{"co": {"Y": 1, "X": 1}, "interpolation": 2}]}, "crop_height": {"Points": [{"co": {"Y": -1, "X": 1}, "interpolation": 2}]}, "scale_y": {"Points": [{"co": {"Y": 1, "X": 1}, "interpolation": 2}]}, "effects": []}, {"perspective_c3_y": {"Points": [{"co": {"Y": -1, "X": 1}, "interpolation": 2}]}, "shear_x": {"Points": [{"co": {"Y": 0, "X": 1}, "interpolation": 2}]}, "channel_filter": {"Points": [{"co": {"Y": -1, "X": 1}, "interpolation": 2}]}, "duration": 86400.0, "perspective_c1_x": {"Points": [{"co": {"Y": -1, "X": 1}, "interpolation": 2}]}, "perspective_c2_x": {"Points": [{"co": {"Y": -1, "X": 1}, "interpolation": 2}]}, "alpha": {"Points": [{"handle_right": {"Y": 0, "X": 0.5}, "handle_type": 0, "handle_left": {"Y": 1, "X": 0.5}, "co": {"Y": 1, "X": 1}, "interpolation": 0}, {"handle_right": {"Y": 0, "X": 0.5}, "handle_type": 0, "handle_left": {"Y": 1, "X": 0.5}, "co": {"Y": 0, "X": 1}, "interpolation": 0}, {"handle_right": {"Y": 0, "X": 0.5}, "handle_type": 0, "handle_left": {"Y": 1, "X": 0.5}, "co": {"Y": 1, "X": 73}, "interpolation": 0}, {"handle_right": {"Y": 0, "X": 0.5}, "handle_type": 0, "handle_left": {"Y": 1, "X": 0.5}, "co": {"Y": 1, "X": 216}, "interpolation": 0}, {"handle_right": {"Y": 0, "X": 0.5}, "handle_type": 0, "handle_left": {"Y": 1, "X": 0.5}, "co": {"Y": 0, "X": 288}, "interpolation": 0}]}, "id": "MDW7G3JTN7", "layer": 2, "file_id": "BS7QREURZM", "display": 0, "scale": 1, "gravity": 4, "crop_width": {"Points": [{"co": {"Y": -1, "X": 1}, "interpolation": 2}]}, "crop_x": {"Points": [{"co": {"Y": 0, "X": 1}, "interpolation": 2}]}, "perspective_c4_x": {"Points": [{"co": {"Y": -1, "X": 1}, "interpolation": 2}]}, "volume": {"Points": [{"co": {"Y": 1, "X": 1}, "interpolation": 2}]}, "start": 0, "rotation": {"Points": [{"co": {"Y": 0, "X": 1}, "interpolation": 2}]}, "crop_y": {"Points": [{"co": {"Y": 0, "X": 1}, "interpolation": 2}]}, "position": 103.86000061035156, "has_video": {"Points": [{"co": {"Y": -1, "X": 1}, "interpolation": 2}]}, "has_audio": {"Points": [{"co": {"Y": -1, "X": 1}, "interpolation": 2}]}, "channel_mapping": {"Points": [{"co": {"Y": -1, "X": 1}, "interpolation": 2}]}, "end": 11.97, "shear_y": {"Points": [{"co": {"Y": 0, "X": 1}, "interpolation": 2}]}, "perspective_c3_x": {"Points": [{"co": {"Y": -1, "X": 1}, "interpolation": 2}]}, "scale_x": {"Points": [{"co": {"Y": 1, "X": 1}, "interpolation": 2}]}, "location_x": {"Points": [{"co": {"Y": 0, "X": 1}, "interpolation": 2}]}, "location_y": {"Points": [{"co": {"Y": 0, "X": 1}, "interpolation": 2}]}, "image": "/home/milind/.openshot_qt/thumbnail/BS7QREURZM.png", "perspective_c2_y": {"Points": [{"co": {"Y": -1, "X": 1}, "interpolation": 2}]}, "waveform": false, "perspective_c1_y": {"Points": [{"co": {"Y": -1, "X": 1}, "interpolation": 2}]}, "title": "!086-Then Fail Else Pass.svg", "perspective_c4_y": {"Points": [{"co": {"Y": -1, "X": 1}, "interpolation": 2}]}, "anchor": 0, "wave_color": {"red": {"Points": [{"handle_right": {"Y": 0, "X": 0.5}, "handle_type": 0, "handle_left": {"Y": 1, "X": 0.5}, "co": {"Y": 0, "X": 1}, "interpolation": 0}]}, "green": {"Points": [{"handle_right": {"Y": 0, "X": 0.5}, "handle_type": 0, "handle_left": {"Y": 1, "X": 0.5}, "co": {"Y": 123, "X": 1}, "interpolation": 0}]}, "blue": {"Points": [{"handle_right": {"Y": 0, "X": 0.5}, "handle_type": 0, "handle_left": {"Y": 1, "X": 0.5}, "co": {"Y": 255, "X": 1}, "interpolation": 0}]}, "alpha": {"Points": [{"handle_right": {"Y": 0, "X": 0.5}, "handle_type": 0, "handle_left": {"Y": 1, "X": 0.5}, "co": {"Y": 255, "X": 1}, "interpolation": 0}]}}, "time": {"Points": [{"co": {"Y": 1, "X": 1}, "interpolation": 2}]}, "effects": [], "crop_height": {"Points": [{"co": {"Y": -1, "X": 1}, "interpolation": 2}]}, "scale_y": {"Points": [{"co": {"Y": 1, "X": 1}, "interpolation": 2}]}, "reader": {"video_stream_index": -1, "top_field_first": true, "interlaced_frame": false, "audio_bit_rate": 0, "audio_timebase": {"den": 1, "num": 1}, "duration": 86400.0, "channels": 0, "has_video": true, "channel_layout": 4, "has_audio": false, "video_timebase": {"den": 30, "num": 1}, "has_single_image": true, "acodec": "", "video_bit_rate": 0, "display_ratio": {"den": 3827, "num": 6803}, "audio_stream_index": -1, "type": "QtImageReader", "video_length": "2592000", "width": 6803, "pixel_ratio": {"den": 1, "num": 1}, "height": 3827, "vcodec": "", "file_size": "104140324", "path": "/home/milind/Data/Projects/ProgressCard/!086-Then Fail Else Pass.svg", "fps": {"den": 1, "num": 30}, "pixel_format": -1, "sample_rate": 0}}, {"perspective_c3_y": {"Points": [{"co": {"Y": -1, "X": 1}, "interpolation": 2}]}, "shear_x": {"Points": [{"co": {"Y": 0, "X": 1}, "interpolation": 2}]}, "channel_filter": {"Points": [{"co": {"Y": -1, "X": 1}, "interpolation": 2}]}, "duration": 86400.0, "perspective_c1_x": {"Points": [{"co": {"Y": -1, "X": 1}, "interpolation": 2}]}, "perspective_c2_x": {"Points": [{"co": {"Y": -1, "X": 1}, "interpolation": 2}]}, "alpha": {"Points": [{"co": {"Y": 1, "X": 1}, "interpolation": 2}, {"handle_right": {"Y": 0, "X": 0.5}, "handle_type": 0, "handle_left": {"Y": 1, "X": 0.5}, "co": {"Y": 0, "X": 1}, "interpolation": 0}, {"handle_right": {"Y": 0, "X": 0.5}, "handle_type": 0, "handle_left": {"Y": 1, "X": 0.5}, "co": {"Y": 1, "X": 73}, "interpolation": 0}, {"handle_right": {"Y": 0, "X": 0.5}, "handle_type": 0, "handle_left": {"Y": 1, "X": 0.5}, "co": {"Y": 1, "X": 102}, "interpolation": 0}, {"handle_right": {"Y": 0, "X": 0.5}, "handle_type": 0, "handle_left": {"Y": 1, "X": 0.5}, "co": {"Y": 0, "X": 174}, "interpolation": 0}]}, "id": "CXD9GF0U7L", "layer": 2, "file_id": "AA811BEMSM", "display": 0, "scale": 1, "gravity": 4, "crop_width": {"Points": [{"co": {"Y": -1, "X": 1}, "interpolation": 2}]}, "crop_x": {"Points": [{"co": {"Y": 0, "X": 1}, "interpolation": 2}]}, "perspective_c4_x": {"Points": [{"co": {"Y": -1, "X": 1}, "interpolation": 2}]}, "volume": {"Points": [{"co": {"Y": 1, "X": 1}, "interpolation": 2}]}, "start": 0, "rotation": {"Points": [{"co": {"Y": 0, "X": 1}, "interpolation": 2}]}, "crop_y": {"Points": [{"co": {"Y": 0, "X": 1}, "interpolation": 2}]}, "position": 177.65796874999998, "has_video": {"Points": [{"co": {"Y": -1, "X": 1}, "interpolation": 2}]}, "has_audio": {"Points": [{"co": {"Y": -1, "X": 1}, "interpolation": 2}]}, "channel_mapping": {"Points": [{"co": {"Y": -1, "X": 1}, "interpolation": 2}]}, "end": 7.21, "shear_y": {"Points": [{"co": {"Y": 0, "X": 1}, "interpolation": 2}]}, "perspective_c3_x": {"Points": [{"co": {"Y": -1, "X": 1}, "interpolation": 2}]}, "scale_x": {"Points": [{"co": {"Y": 1, "X": 1}, "interpolation": 2}]}, "location_x": {"Points": [{"co": {"Y": 0, "X": 1}, "interpolation": 2}]}, "location_y": {"Points": [{"co": {"Y": 0, "X": 1}, "interpolation": 2}]}, "image": "/home/milind/.openshot_qt/thumbnail/AA811BEMSM.png", "perspective_c2_y": {"Points": [{"co": {"Y": -1, "X": 1}, "interpolation": 2}]}, "waveform": false, "perspective_c1_y": {"Points": [{"co": {"Y": -1, "X": 1}, "interpolation": 2}]}, "title": "!135-Grade.svg", "perspective_c4_y": {"Points": [{"co": {"Y": -1, "X": 1}, "interpolation": 2}]}, "anchor": 0, "wave_color": {"blue": {"Points": [{"handle_right": {"Y": 0, "X": 0.5}, "handle_type": 0, "handle_left": {"Y": 1, "X": 0.5}, "co": {"Y": 255, "X": 1}, "interpolation": 0}]}, "green": {"Points": [{"handle_right": {"Y": 0, "X": 0.5}, "handle_type": 0, "handle_left": {"Y": 1, "X": 0.5}, "co": {"Y": 123, "X": 1}, "interpolation": 0}]}, "red": {"Points": [{"handle_right": {"Y": 0, "X": 0.5}, "handle_type": 0, "handle_left": {"Y": 1, "X": 0.5}, "co": {"Y": 0, "X": 1}, "interpolation": 0}]}, "alpha": {"Points": [{"handle_right": {"Y": 0, "X": 0.5}, "handle_type": 0, "handle_left": {"Y": 1, "X": 0.5}, "co": {"Y": 255, "X": 1}, "interpolation": 0}]}}, "time": {"Points": [{"co": {"Y": 1, "X": 1}, "interpolation": 2}]}, "effects": [], "crop_height": {"Points": [{"co": {"Y": -1, "X": 1}, "interpolation": 2}]}, "scale_y": {"Points": [{"co": {"Y": 1, "X": 1}, "interpolation": 2}]}, "reader": {"video_stream_index": -1, "top_field_first": true, "interlaced_frame": false, "audio_bit_rate": 0, "audio_timebase": {"den": 1, "num": 1}, "duration": 86400.0, "channels": 0, "has_video": true, "channel_layout": 4, "has_audio": false, "video_timebase": {"den": 30, "num": 1}, "has_single_image": true, "acodec": "", "video_bit_rate": 0, "display_ratio": {"den": 3827, "num": 6803}, "audio_stream_index": -1, "type": "QtImageReader", "video_length": "2592000", "width": 6803, "pixel_ratio": {"den": 1, "num": 1}, "height": 3827, "vcodec": "", "file_size": "104140324", "path": "/home/milind/Data/Projects/ProgressCard/!135-Grade.svg", "fps": {"den": 1, "num": 30}, "pixel_format": -1, "sample_rate": 0}}, {"perspective_c3_y": {"Points": [{"co": {"Y": -1, "X": 1}, "interpolation": 2}]}, "shear_x": {"Points": [{"co": {"Y": 0, "X": 1}, "interpolation": 2}]}, "channel_filter": {"Points": [{"co": {"Y": -1, "X": 1}, "interpolation": 2}]}, "duration": 86400.0, "perspective_c1_x": {"Points": [{"co": {"Y": -1, "X": 1}, "interpolation": 2}]}, "perspective_c2_x": {"Points": [{"co": {"Y": -1, "X": 1}, "interpolation": 2}]}, "alpha": {"Points": [{"co": {"Y": 1, "X": 1}, "interpolation": 2}]}, "id": "DVT7KHN9HZ", "layer": 2, "file_id": "U4HEYX76VH", "display": 0, "scale": 1, "gravity": 4, "crop_width": {"Points": [{"co": {"Y": -1, "X": 1}, "interpolation": 2}]}, "crop_x": {"Points": [{"co": {"Y": 0, "X": 1}, "interpolation": 2}]}, "perspective_c4_x": {"Points": [{"co": {"Y": -1, "X": 1}, "interpolation": 2}]}, "volume": {"Points": [{"co": {"Y": 1, "X": 1}, "interpolation": 2}]}, "start": 0, "rotation": {"Points": [{"co": {"Y": 0, "X": 1}, "interpolation": 2}]}, "crop_y": {"Points": [{"co": {"Y": 0, "X": 1}, "interpolation": 2}]}, "position": 196.41666666666666, "has_video": {"Points": [{"co": {"Y": -1, "X": 1}, "interpolation": 2}]}, "has_audio": {"Points": [{"co": {"Y": -1, "X": 1}, "interpolation": 2}]}, "channel_mapping": {"Points": [{"co": {"Y": -1, "X": 1}, "interpolation": 2}]}, "end": 5, "shear_y": {"Points": [{"co": {"Y": 0, "X": 1}, "interpolation": 2}]}, "perspective_c3_x": {"Points": [{"co": {"Y": -1, "X": 1}, "interpolation": 2}]}, "scale_x": {"Points": [{"co": {"Y": 1, "X": 1}, "interpolation": 2}]}, "location_x": {"Points": [{"co": {"Y": 0, "X": 1}, "interpolation": 2}]}, "location_y": {"Points": [{"co": {"Y": 0, "X": 1}, "interpolation": 2}]}, "image": "/home/milind/.openshot_qt/thumbnail/U4HEYX76VH.png", "perspective_c2_y": {"Points": [{"co": {"Y": -1, "X": 1}, "interpolation": 2}]}, "waveform": false, "perspective_c1_y": {"Points": [{"co": {"Y": -1, "X": 1}, "interpolation": 2}]}, "title": "!145-PROMOTED.svg", "perspective_c4_y": {"Points": [{"co": {"Y": -1, "X": 1}, "interpolation": 2}]}, "anchor": 0, "wave_color": {"blue": {"Points": [{"handle_right": {"Y": 0, "X": 0.5}, "handle_type": 0, "handle_left": {"Y": 1, "X": 0.5}, "co": {"Y": 255, "X": 1}, "interpolation": 0}]}, "green": {"Points": [{"handle_right": {"Y": 0, "X": 0.5}, "handle_type": 0, "handle_left": {"Y": 1, "X": 0.5}, "co": {"Y": 123, "X": 1}, "interpolation": 0}]}, "red": {"Points": [{"handle_right": {"Y": 0, "X": 0.5}, "handle_type": 0, "handle_left": {"Y": 1, "X": 0.5}, "co": {"Y": 0, "X": 1}, "interpolation": 0}]}, "alpha": {"Points": [{"handle_right": {"Y": 0, "X": 0.5}, "handle_type": 0, "handle_left": {"Y": 1, "X": 0.5}, "co": {"Y": 255, "X": 1}, "interpolation": 0}]}}, "time": {"Points": [{"co": {"Y": 1, "X": 1}, "interpolation": 2}]}, "effects": [], "crop_height": {"Points": [{"co": {"Y": -1, "X": 1}, "interpolation": 2}]}, "scale_y": {"Points": [{"co": {"Y": 1, "X": 1}, "interpolation": 2}]}, "reader": {"video_stream_index": -1, "top_field_first": true, "interlaced_frame": false, "audio_bit_rate": 0, "audio_timebase": {"den": 1, "num": 1}, "duration": 86400.0, "channels": 0, "has_video": true, "channel_layout": 4, "has_audio": false, "video_timebase": {"den": 30, "num": 1}, "has_single_image": true, "acodec": "", "video_bit_rate": 0, "display_ratio": {"den": 3827, "num": 6803}, "audio_stream_index": -1, "type": "QtImageReader", "video_length": "2592000", "width": 6803, "pixel_ratio": {"den": 1, "num": 1}, "height": 3827, "vcodec": "", "file_size": "104140324", "path": "/home/milind/Data/Projects/ProgressCard/!145-PROMOTED.svg", "fps": {"den": 1, "num": 30}, "pixel_format": -1, "sample_rate": 0}}], "key": ["clips"]}, {"partial": false, "type": "update", "value": {"layer": 2, "position": 208.92999999999998, "image": "/home/milind/.openshot_qt/thumbnail/QKE4L0GUDK.png", "end": 5, "start": 0, "id": "53HWYMUXFZ"}, "old_values": {"perspective_c3_x": {"Points": [{"co": {"Y": -1, "X": 1}, "interpolation": 2}]}, "perspective_c4_x": {"Points": [{"co": {"Y": -1, "X": 1}, "interpolation": 2}]}, "channel_filter": {"Points": [{"co": {"Y": -1, "X": 1}, "interpolation": 2}]}, "image": "/home/milind/.openshot_qt/thumbnail/QKE4L0GUDK.png", "crop_height": {"Points": [{"co": {"Y": -1, "X": 1}, "interpolation": 2}]}, "duration": 86400.0, "perspective_c1_x": {"Points": [{"co": {"Y": -1, "X": 1}, "interpolation": 2}]}, "perspective_c2_x": {"Points": [{"co": {"Y": -1, "X": 1}, "interpolation": 2}]}, "alpha": {"Points": [{"co": {"Y": 1, "X": 1}, "interpolation": 2}]}, "id": "53HWYMUXFZ", "layer": 3, "display": 0, "scale": 1, "gravity": 4, "crop_width": {"Points": [{"co": {"Y": -1, "X": 1}, "interpolation": 2}]}, "crop_x": {"Points": [{"co": {"Y": 0, "X": 1}, "interpolation": 2}]}, "shear_x": {"Points": [{"co": {"Y": 0, "X": 1}, "interpolation": 2}]}, "volume": {"Points": [{"co": {"Y": 1, "X": 1}, "interpolation": 2}]}, "has_audio": {"Points": [{"co": {"Y": -1, "X": 1}, "interpolation": 2}]}, "rotation": {"Points": [{"co": {"Y": 0, "X": 1}, "interpolation": 2}]}, "crop_y": {"Points": [{"co": {"Y": 0, "X": 1}, "interpolation": 2}]}, "position": 177.82, "has_video": {"Points": [{"co": {"Y": -1, "X": 1}, "interpolation": 2}]}, "start": 0, "channel_mapping": {"Points": [{"co": {"Y": -1, "X": 1}, "interpolation": 2}]}, "end": 5.0, "waveform": false, "perspective_c3_y": {"Points": [{"co": {"Y": -1, "X": 1}, "interpolation": 2}]}, "scale_x": {"Points": [{"co": {"Y": 1, "X": 1}, "interpolation": 2}]}, "location_x": {"Points": [{"co": {"Y": 0, "X": 1}, "interpolation": 2}]}, "location_y": {"Points": [{"co": {"Y": 0, "X": 1}, "interpolation": 2}]}, "shear_y": {"Points": [{"co": {"Y": 0, "X": 1}, "interpolation": 2}]}, "perspective_c2_y": {"Points": [{"co": {"Y": -1, "X": 1}, "interpolation": 2}]}, "perspective_c1_y": {"Points": [{"co": {"Y": -1, "X": 1}, "interpolation": 2}]}, "title": "!145-PASS CLASS.svg", "perspective_c4_y": {"Points": [{"co": {"Y": -1, "X": 1}, "interpolation": 2}]}, "anchor": 0, "wave_color": {"blue": {"Points": [{"handle_right": {"Y": 0, "X": 0.5}, "handle_type": 0, "handle_left": {"Y": 1, "X": 0.5}, "co": {"Y": 255, "X": 1}, "interpolation": 0}]}, "green": {"Points": [{"handle_right": {"Y": 0, "X": 0.5}, "handle_type": 0, "handle_left": {"Y": 1, "X": 0.5}, "co": {"Y": 123, "X": 1}, "interpolation": 0}]}, "red": {"Points": [{"handle_right": {"Y": 0, "X": 0.5}, "handle_type": 0, "handle_left": {"Y": 1, "X": 0.5}, "co": {"Y": 0, "X": 1}, "interpolation": 0}]}, "alpha": {"Points": [{"handle_right": {"Y": 0, "X": 0.5}, "handle_type": 0, "handle_left": {"Y": 1, "X": 0.5}, "co": {"Y": 255, "X": 1}, "interpolation": 0}]}}, "time": {"Points": [{"co": {"Y": 1, "X": 1}, "interpolation": 2}]}, "effects": [], "file_id": "QKE4L0GUDK", "scale_y": {"Points": [{"co": {"Y": 1, "X": 1}, "interpolation": 2}]}, "reader": {"video_stream_index": -1, "top_field_first": true, "interlaced_frame": false, "audio_bit_rate": 0, "audio_timebase": {"den": 1, "num": 1}, "duration": 86400.0, "channels": 0, "has_video": true, "channel_layout": 4, "has_audio": false, "video_timebase": {"den": 30, "num": 1}, "has_single_image": true, "acodec": "", "video_bit_rate": 0, "display_ratio": {"den": 3827, "num": 6803}, "audio_stream_index": -1, "type": "QtImageReader", "video_length": "2592000", "width": 6803, "pixel_ratio": {"den": 1, "num": 1}, "height": 3827, "vcodec": "", "file_size": "104140324", "path": "/home/milind/Data/Projects/ProgressCard/!145-PASS CLASS.svg", "fps": {"den": 1, "num": 30}, "pixel_format": -1, "sample_rate": 0}}, "key": ["clips", {"id": "53HWYMUXFZ"}]}, {"partial": false, "type": "insert", "value": {"perspective_c2_x": {"Points": [{"co": {"Y": -1, "X": 1}, "interpolation": 2}]}, "perspective_c3_x": {"Points": [{"co": {"Y": -1, "X": 1}, "interpolation": 2}]}, "shear_x": {"Points": [{"co": {"Y": 0, "X": 1}, "interpolation": 2}]}, "channel_filter": {"Points": [{"co": {"Y": -1, "X": 1}, "interpolation": 2}]}, "crop_height": {"Points": [{"co": {"Y": -1, "X": 1}, "interpolation": 2}]}, "duration": 86400.0, "perspective_c1_x": {"Points": [{"co": {"Y": -1, "X": 1}, "interpolation": 2}]}, "anchor": 0, "alpha": {"Points": [{"co": {"Y": 1, "X": 1}, "interpolation": 2}]}, "id": "O4H51B63WF", "layer": 2, "display": 0, "scale": 1, "gravity": 4, "crop_width": {"Points": [{"co": {"Y": -1, "X": 1}, "interpolation": 2}]}, "crop_x": {"Points": [{"co": {"Y": 0, "X": 1}, "interpolation": 2}]}, "perspective_c4_x": {"Points": [{"co": {"Y": -1, "X": 1}, "interpolation": 2}]}, "volume": {"Points": [{"co": {"Y": 1, "X": 1}, "interpolation": 2}]}, "start": 0, "has_video": {"Points": [{"co": {"Y": -1, "X": 1}, "interpolation": 2}]}, "rotation": {"Points": [{"co": {"Y": 0, "X": 1}, "interpolation": 2}]}, "reader": {"video_stream_index": -1, "video_length": "2592000", "interlaced_frame": false, "audio_bit_rate": 0, "audio_timebase": {"den": 1, "num": 1}, "duration": 86400.0, "channels": 0, "video_bit_rate": 0, "channel_layout": 4, "path": "/home/milind/Data/Projects/ProgressCard/!145-SECOND CLASS.svg", "has_audio": false, "video_timebase": {"den": 30, "num": 1}, "has_single_image": true, "acodec": "", "has_video": true, "display_ratio": {"den": 3827, "num": 6803}, "audio_stream_index": -1, "type": "QtImageReader", "top_field_first": true, "width": 6803, "pixel_ratio": {"den": 1, "num": 1}, "height": 3827, "vcodec": "", "file_size": "104140324", "sample_rate": 0, "fps": {"den": 1, "num": 30}, "pixel_format": -1}, "position": 209.77999999999997, "image": "/home/milind/.openshot_qt/thumbnail/B8NAT6SOHT.png", "has_audio": {"Points": [{"co": {"Y": -1, "X": 1}, "interpolation": 2}]}, "channel_mapping": {"Points": [{"co": {"Y": -1, "X": 1}, "interpolation": 2}]}, "shear_y": {"Points": [{"co": {"Y": 0, "X": 1}, "interpolation": 2}]}, "end": 5, "waveform": false, "perspective_c3_y": {"Points": [{"co": {"Y": -1, "X": 1}, "interpolation": 2}]}, "scale_x": {"Points": [{"co": {"Y": 1, "X": 1}, "interpolation": 2}]}, "location_x": {"Points": [{"co": {"Y": 0, "X": 1}, "interpolation": 2}]}, "location_y": {"Points": [{"co": {"Y": 0, "X": 1}, "interpolation": 2}]}, "file_id": "B8NAT6SOHT", "perspective_c2_y": {"Points": [{"co": {"Y": -1, "X": 1}, "interpolation": 2}]}, "perspective_c1_y": {"Points": [{"co": {"Y": -1, "X": 1}, "interpolation": 2}]}, "title": "!145-SECOND CLASS.svg", "perspective_c4_y": {"Points": [{"co": {"Y": -1, "X": 1}, "interpolation": 2}]}, "wave_color": {"red": {"Points": [{"handle_right": {"Y": 0, "X": 0.5}, "handle_type": 0, "handle_left": {"Y": 1, "X": 0.5}, "co": {"Y": 0, "X": 1}, "interpolation": 0}]}, "green": {"Points": [{"handle_right": {"Y": 0, "X": 0.5}, "handle_type": 0, "handle_left": {"Y": 1, "X": 0.5}, "co": {"Y": 123, "X": 1}, "interpolation": 0}]}, "blue": {"Points": [{"handle_right": {"Y": 0, "X": 0.5}, "handle_type": 0, "handle_left": {"Y": 1, "X": 0.5}, "co": {"Y": 255, "X": 1}, "interpolation": 0}]}, "alpha": {"Points": [{"handle_right": {"Y": 0, "X": 0.5}, "handle_type": 0, "handle_left": {"Y": 1, "X": 0.5}, "co": {"Y": 255, "X": 1}, "interpolation": 0}]}}, "time": {"Points": [{"co": {"Y": 1, "X": 1}, "interpolation": 2}]}, "crop_y": {"Points": [{"co": {"Y": 0, "X": 1}, "interpolation": 2}]}, "scale_y": {"Points": [{"co": {"Y": 1, "X": 1}, "interpolation": 2}]}, "effects": []}, "old_values": [{"location_x": {"Points": [{"co": {"Y": 0.0, "X": 1.0}, "interpolation": 2}]}, "perspective_c3_x": {"Points": [{"co": {"Y": -1.0, "X": 1.0}, "interpolation": 2}]}, "perspective_c4_x": {"Points": [{"co": {"Y": -1.0, "X": 1.0}, "interpolation": 2}]}, "channel_filter": {"Points": [{"co": {"Y": -1.0, "X": 1.0}, "interpolation": 2}]}, "anchor": 0, "perspective_c1_x": {"Points": [{"co": {"Y": -1.0, "X": 1.0}, "interpolation": 2}]}, "perspective_c2_x": {"Points": [{"co": {"Y": -1.0, "X": 1.0}, "interpolation": 2}]}, "alpha": {"Points": [{"co": {"Y": 1.0, "X": 1.0}, "interpolation": 2}, {"handle_right": {"Y": 0.0, "X": 0.5}, "handle_type": 0, "handle_left": {"Y": 1.0, "X": 0.5}, "co": {"Y": 0.0, "X": 1.0}, "interpolation": 0}, {"handle_right": {"Y": 0.0, "X": 0.5}, "handle_type": 0, "handle_left": {"Y": 1.0, "X": 0.5}, "co": {"Y": 1.0, "X": 73.0}, "interpolation": 0}]}, "id": "IUE2QUN59C", "layer": 0, "file_id": "0F0RWXSQM9", "display": 0, "scale": 1, "gravity": 4, "crop_width": {"Points": [{"co": {"Y": -1.0, "X": 1.0}, "interpolation": 2}]}, "crop_x": {"Points": [{"co": {"Y": 0.0, "X": 1.0}, "interpolation": 2}]}, "shear_x": {"Points": [{"co": {"Y": 0.0, "X": 1.0}, "interpolation": 2}]}, "volume": {"Points": [{"co": {"Y": 1.0, "X": 1.0}, "interpolation": 2}]}, "start": 0, "rotation": {"Points": [{"co": {"Y": 0.0, "X": 1.0}, "interpolation": 2}]}, "reader": {"video_stream_index": -1, "video_length": "2592000", "interlaced_frame": false, "audio_bit_rate": 0, "audio_timebase": {"den": 1, "num": 1}, "vcodec": "", "channels": 0, "has_video": true, "channel_layout": 4, "has_audio": false, "video_timebase": {"den": 30, "num": 1}, "has_single_image": true, "acodec": "", "video_bit_rate": 0, "display_ratio": {"den": 9, "num": 16}, "audio_stream_index": -1, "type": "QtImageReader", "top_field_first": true, "width": 1920, "pixel_ratio": {"den": 1, "num": 1}, "height": 1080, "duration": 86400.0, "file_size": "8294400", "path": "/home/milind/Data/Projects/ProgressCard/!000-White-Background.svg", "fps": {"den": 1, "num": 30}, "pixel_format": -1, "sample_rate": 0}, "position": 0, "has_video": {"Points": [{"co": {"Y": -1.0, "X": 1.0}, "interpolation": 2}]}, "has_audio": {"Points": [{"co": {"Y": -1.0, "X": 1.0}, "interpolation": 2}]}, "channel_mapping": {"Points": [{"co": {"Y": -1.0, "X": 1.0}, "interpolation": 2}]}, "shear_y": {"Points": [{"co": {"Y": 0.0, "X": 1.0}, "interpolation": 2}]}, "perspective_c3_y": {"Points": [{"co": {"Y": -1.0, "X": 1.0}, "interpolation": 2}]}, "waveform": false, "end": 10, "scale_x": {"Points": [{"co": {"Y": 1.0, "X": 1.0}, "interpolation": 2}]}, "image": "/home/milind/.openshot_qt/thumbnail/0F0RWXSQM9.png", "location_y": {"Points": [{"co": {"Y": 0.0, "X": 1.0}, "interpolation": 2}]}, "crop_y": {"Points": [{"co": {"Y": 0.0, "X": 1.0}, "interpolation": 2}]}, "perspective_c2_y": {"Points": [{"co": {"Y": -1.0, "X": 1.0}, "interpolation": 2}]}, "perspective_c1_y": {"Points": [{"co": {"Y": -1.0, "X": 1.0}, "interpolation": 2}]}, "title": "!000-White-Background.svg", "perspective_c4_y": {"Points": [{"co": {"Y": -1.0, "X": 1.0}, "interpolation": 2}]}, "duration": 86400.0, "wave_color": {"red": {"Points": [{"handle_right": {"Y": 0.0, "X": 0.5}, "handle_type": 0, "handle_left": {"Y": 1.0, "X": 0.5}, "co": {"Y": 0.0, "X": 1.0}, "interpolation": 0}]}, "green": {"Points": [{"handle_right": {"Y": 0.0, "X": 0.5}, "handle_type": 0, "handle_left": {"Y": 1.0, "X": 0.5}, "co": {"Y": 123.0, "X": 1.0}, "interpolation": 0}]}, "blue": {"Points": [{"handle_right": {"Y": 0.0, "X": 0.5}, "handle_type": 0, "handle_left": {"Y": 1.0, "X": 0.5}, "co": {"Y": 255.0, "X": 1.0}, "interpolation": 0}]}, "alpha": {"Points": [{"handle_right": {"Y": 0.0, "X": 0.5}, "handle_type": 0, "handle_left": {"Y": 1.0, "X": 0.5}, "co": {"Y": 255.0, "X": 1.0}, "interpolation": 0}]}}, "time": {"Points": [{"co": {"Y": 1.0, "X": 1.0}, "interpolation": 2}]}, "crop_height": {"Points": [{"co": {"Y": -1.0, "X": 1.0}, "interpolation": 2}]}, "scale_y": {"Points": [{"co": {"Y": 1.0, "X": 1.0}, "interpolation": 2}]}, "effects": []}, {"location_x": {"Points": [{"handle_right": {"Y": 0.0, "X": 0.5}, "handle_type": 0, "handle_left": {"Y": 1.0, "X": 0.5}, "co": {"Y": 0.33000001311302185, "X": 1.0}, "interpolation": 0}, {"co": {"Y": -0.07999999821186066, "X": 178}, "interpolation": 1}, {"co": {"Y": -0.07999999821186066, "X": 117}, "interpolation": 1}]}, "perspective_c3_x": {"Points": [{"co": {"Y": -1.0, "X": 1.0}, "interpolation": 2}]}, "perspective_c4_x": {"Points": [{"co": {"Y": -1.0, "X": 1.0}, "interpolation": 2}]}, "channel_filter": {"Points": [{"co": {"Y": -1.0, "X": 1.0}, "interpolation": 2}]}, "perspective_c2_x": {"Points": [{"co": {"Y": -1.0, "X": 1.0}, "interpolation": 2}]}, "perspective_c1_x": {"Points": [{"co": {"Y": -1.0, "X": 1.0}, "interpolation": 2}]}, "anchor": 0, "alpha": {"Points": [{"handle_right": {"Y": 0, "X": 0.5}, "handle_type": 0, "handle_left": {"Y": 1, "X": 0.5}, "co": {"Y": 1, "X": 1}, "interpolation": 0}, {"handle_right": {"Y": 0, "X": 0.5}, "handle_type": 0, "handle_left": {"Y": 1, "X": 0.5}, "co": {"Y": 0, "X": 117}, "interpolation": 0}, {"handle_right": {"Y": 0, "X": 0.5}, "handle_type": 0, "handle_left": {"Y": 1, "X": 0.5}, "co": {"Y": 1, "X": 189}, "interpolation": 0}, {"handle_right": {"Y": 0, "X": 0.5}, "handle_type": 0, "handle_left": {"Y": 1, "X": 0.5}, "co": {"Y": 1, "X": 1687}, "interpolation": 0}, {"handle_right": {"Y": 0, "X": 0.5}, "handle_type": 0, "handle_left": {"Y": 1, "X": 0.5}, "co": {"Y": 0, "X": 1759}, "interpolation": 0}]}, "id": "6XU1ZMQNAO", "position": 1.0, "file_id": "O1AEGRKDWZ", "display": 0, "scale": 1, "gravity": 4, "crop_width": {"Points": [{"co": {"Y": -1.0, "X": 1.0}, "interpolation": 2}]}, "crop_x": {"Points": [{"co": {"Y": 0.0, "X": 1.0}, "interpolation": 2}]}, "shear_x": {"Points": [{"co": {"Y": 0.0, "X": 1.0}, "interpolation": 2}]}, "volume": {"Points": [{"co": {"Y": 1.0, "X": 1.0}, "interpolation": 2}]}, "start": 4.8483333333333345, "title": "!080-GT,GC,TC.mkv", "reader": {"video_stream_index": 0, "video_length": "3650", "interlaced_frame": false, "audio_bit_rate": 0, "audio_timebase": {"den": 1, "num": 1}, "vcodec": "h264", "channels": 0, "has_video": true, "channel_layout": 4, "has_audio": false, "video_timebase": {"den": 1000, "num": 1}, "has_single_image": false, "acodec": "", "video_bit_rate": 0, "display_ratio": {"den": 186, "num": 325}, "audio_stream_index": -1, "type": "FFmpegReader", "top_field_first": true, "width": 1300, "pixel_ratio": {"den": 1, "num": 1}, "height": 744, "duration": 146.0, "file_size": "1130835", "path": "/home/milind/Data/Projects/ProgressCard/!080-GT,GC,TC.mkv", "fps": {"den": 1, "num": 25}, "pixel_format": 0, "sample_rate": 0}, "layer": 1, "has_video": {"Points": [{"co": {"Y": -1.0, "X": 1.0}, "interpolation": 2}]}, "has_audio": {"Points": [{"co": {"Y": -1.0, "X": 1.0}, "interpolation": 2}]}, "channel_mapping": {"Points": [{"co": {"Y": -1.0, "X": 1.0}, "interpolation": 2}]}, "shear_y": {"Points": [{"co": {"Y": 0.0, "X": 1.0}, "interpolation": 2}]}, "perspective_c3_y": {"Points": [{"co": {"Y": -1.0, "X": 1.0}, "interpolation": 2}]}, "waveform": false, "end": 73.25, "scale_x": {"Points": [{"handle_right": {"Y": 0.0, "X": 0.5}, "handle_type": 0, "handle_left": {"Y": 1.0, "X": 0.5}, "co": {"Y": 2.200000047683716, "X": 1.0}, "interpolation": 0}, {"co": {"Y": 2.299999952316284, "X": 178}, "interpolation": 1}]}, "image": "/home/milind/.openshot_qt/thumbnail/6XU1ZMQNAO-122.png", "location_y": {"Points": [{"handle_right": {"Y": 0.0, "X": 0.5}, "handle_type": 0, "handle_left": {"Y": 1.0, "X": 0.5}, "co": {"Y": 0.5199999809265137, "X": 1.0}, "interpolation": 0}, {"co": {"Y": 0.5199999809265137, "X": 178}, "interpolation": 1}]}, "crop_y": {"Points": [{"co": {"Y": 0.0, "X": 1.0}, "interpolation": 2}]}, "perspective_c2_y": {"Points": [{"co": {"Y": -1.0, "X": 1.0}, "interpolation": 2}]}, "perspective_c1_y": {"Points": [{"co": {"Y": -1.0, "X": 1.0}, "interpolation": 2}]}, "rotation": {"Points": [{"co": {"Y": 0.0, "X": 1.0}, "interpolation": 2}]}, "perspective_c4_y": {"Points": [{"co": {"Y": -1.0, "X": 1.0}, "interpolation": 2}]}, "duration": 72.0, "wave_color": {"red": {"Points": [{"handle_right": {"Y": 0.0, "X": 0.5}, "handle_type": 0, "handle_left": {"Y": 1.0, "X": 0.5}, "co": {"Y": 0.0, "X": 1.0}, "interpolation": 0}]}, "green": {"Points": [{"handle_right": {"Y": 0.0, "X": 0.5}, "handle_type": 0, "handle_left": {"Y": 1.0, "X": 0.5}, "co": {"Y": 123.0, "X": 1.0}, "interpolation": 0}]}, "blue": {"Points": [{"handle_right": {"Y": 0.0, "X": 0.5}, "handle_type": 0, "handle_left": {"Y": 1.0, "X": 0.5}, "co": {"Y": 255.0, "X": 1.0}, "interpolation": 0}]}, "alpha": {"Points": [{"handle_right": {"Y": 0.0, "X": 0.5}, "handle_type": 0, "handle_left": {"Y": 1.0, "X": 0.5}, "co": {"Y": 255.0, "X": 1.0}, "interpolation": 0}]}}, "time": {"Points": [{"co": {"Y": 117, "X": 117}, "interpolation": 1}, {"co": {"Y": 3399, "X": 1758}, "interpolation": 1}]}, "crop_height": {"Points": [{"co": {"Y": -1.0, "X": 1.0}, "interpolation": 2}]}, "scale_y": {"Points": [{"handle_right": {"Y": 0.0, "X": 0.5}, "handle_type": 0, "handle_left": {"Y": 1.0, "X": 0.5}, "co": {"Y": 2.200000047683716, "X": 1.0}, "interpolation": 0}, {"co": {"Y": 2.299999952316284, "X": 178}, "interpolation": 1}]}, "effects": []}, {"location_x": {"Points": [{"handle_right": {"Y": 0.0, "X": 0.5}, "handle_type": 0, "handle_left": {"Y": 1.0, "X": 0.5}, "co": {"Y": -0.07999999821186066, "X": 1.0}, "interpolation": 0}]}, "perspective_c3_x": {"Points": [{"co": {"Y": -1.0, "X": 1.0}, "interpolation": 2}]}, "perspective_c4_x": {"Points": [{"co": {"Y": -1.0, "X": 1.0}, "interpolation": 2}]}, "channel_filter": {"Points": [{"co": {"Y": -1.0, "X": 1.0}, "interpolation": 2}]}, "perspective_c2_x": {"Points": [{"co": {"Y": -1.0, "X": 1.0}, "interpolation": 2}]}, "perspective_c1_x": {"Points": [{"co": {"Y": -1.0, "X": 1.0}, "interpolation": 2}]}, "anchor": 0, "alpha": {"Points": [{"handle_right": {"Y": 0, "X": 0.5}, "handle_type": 0, "handle_left": {"Y": 1, "X": 0.5}, "co": {"Y": 1, "X": 1}, "interpolation": 0}, {"handle_right": {"Y": 0, "X": 0.5}, "handle_type": 0, "handle_left": {"Y": 1, "X": 0.5}, "co": {"Y": 0, "X": 1}, "interpolation": 0}, {"handle_right": {"Y": 0, "X": 0.5}, "handle_type": 0, "handle_left": {"Y": 1, "X": 0.5}, "co": {"Y": 1, "X": 73}, "interpolation": 0}, {"handle_right": {"Y": 0, "X": 0.5}, "handle_type": 0, "handle_left": {"Y": 1, "X": 0.5}, "co": {"Y": 1, "X": 1153}, "interpolation": 0}, {"handle_right": {"Y": 0, "X": 0.5}, "handle_type": 0, "handle_left": {"Y": 1, "X": 0.5}, "co": {"Y": 0, "X": 1225}, "interpolation": 0}]}, "id": "A2EZ4WBLRE", "layer": 1, "file_id": "XBE2IATTEN", "display": 0, "scale": 1, "gravity": 4, "crop_width": {"Points": [{"co": {"Y": -1.0, "X": 1.0}, "interpolation": 2}]}, "crop_x": {"Points": [{"co": {"Y": 0.0, "X": 1.0}, "interpolation": 2}]}, "shear_x": {"Points": [{"co": {"Y": 0.0, "X": 1.0}, "interpolation": 2}]}, "volume": {"Points": [{"co": {"Y": 1.0, "X": 1.0}, "interpolation": 2}]}, "start": 0, "rotation": {"Points": [{"co": {"Y": 0.0, "X": 1.0}, "interpolation": 2}]}, "reader": {"video_stream_index": 0, "video_length": "2575", "interlaced_frame": false, "audio_bit_rate": 0, "audio_timebase": {"den": 1, "num": 1}, "vcodec": "h264", "channels": 0, "has_video": true, "channel_layout": 4, "has_audio": false, "video_timebase": {"den": 1000, "num": 1}, "has_single_image": false, "acodec": "", "video_bit_rate": 0, "display_ratio": {"den": 186, "num": 325}, "audio_stream_index": -1, "type": "FFmpegReader", "top_field_first": true, "width": 1300, "pixel_ratio": {"den": 1, "num": 1}, "height": 744, "duration": 103.0, "file_size": "822519", "path": "/home/milind/Data/Projects/ProgressCard/!090-Remark - PASS or FAIL.mkv", "fps": {"den": 1, "num": 25}, "pixel_format": 0, "sample_rate": 0}, "position": 74.768125, "has_video": {"Points": [{"co": {"Y": -1.0, "X": 1.0}, "interpolation": 2}]}, "has_audio": {"Points": [{"co": {"Y": -1.0, "X": 1.0}, "interpolation": 2}]}, "channel_mapping": {"Points": [{"co": {"Y": -1.0, "X": 1.0}, "interpolation": 2}]}, "shear_y": {"Points": [{"co": {"Y": 0.0, "X": 1.0}, "interpolation": 2}]}, "perspective_c3_y": {"Points": [{"co": {"Y": -1.0, "X": 1.0}, "interpolation": 2}]}, "waveform": false, "end": 51, "scale_x": {"Points": [{"handle_right": {"Y": 0.0, "X": 0.5}, "handle_type": 0, "handle_left": {"Y": 1.0, "X": 0.5}, "co": {"Y": 2.299999952316284, "X": 1.0}, "interpolation": 0}]}, "image": "/home/milind/.openshot_qt/thumbnail/XBE2IATTEN.png", "location_y": {"Points": [{"handle_right": {"Y": 0.0, "X": 0.5}, "handle_type": 0, "handle_left": {"Y": 1.0, "X": 0.5}, "co": {"Y": 0.5199999809265137, "X": 1.0}, "interpolation": 0}]}, "crop_y": {"Points": [{"co": {"Y": 0.0, "X": 1.0}, "interpolation": 2}]}, "perspective_c2_y": {"Points": [{"co": {"Y": -1.0, "X": 1.0}, "interpolation": 2}]}, "perspective_c1_y": {"Points": [{"co": {"Y": -1.0, "X": 1.0}, "interpolation": 2}]}, "title": "!090-Remark - PASS or FAIL.mkv", "perspective_c4_y": {"Points": [{"co": {"Y": -1.0, "X": 1.0}, "interpolation": 2}]}, "duration": 50.0, "wave_color": {"red": {"Points": [{"handle_right": {"Y": 0.0, "X": 0.5}, "handle_type": 0, "handle_left": {"Y": 1.0, "X": 0.5}, "co": {"Y": 0.0, "X": 1.0}, "interpolation": 0}]}, "green": {"Points": [{"handle_right": {"Y": 0.0, "X": 0.5}, "handle_type": 0, "handle_left": {"Y": 1.0, "X": 0.5}, "co": {"Y": 123.0, "X": 1.0}, "interpolation": 0}]}, "blue": {"Points": [{"handle_right": {"Y": 0.0, "X": 0.5}, "handle_type": 0, "handle_left": {"Y": 1.0, "X": 0.5}, "co": {"Y": 255.0, "X": 1.0}, "interpolation": 0}]}, "alpha": {"Points": [{"handle_right": {"Y": 0.0, "X": 0.5}, "handle_type": 0, "handle_left": {"Y": 1.0, "X": 0.5}, "co": {"Y": 255.0, "X": 1.0}, "interpolation": 0}]}}, "time": {"Points": [{"co": {"Y": 1, "X": 1}, "interpolation": 1}, {"co": {"Y": 2447, "X": 1224}, "interpolation": 1}]}, "crop_height": {"Points": [{"co": {"Y": -1.0, "X": 1.0}, "interpolation": 2}]}, "scale_y": {"Points": [{"handle_right": {"Y": 0.0, "X": 0.5}, "handle_type": 0, "handle_left": {"Y": 1.0, "X": 0.5}, "co": {"Y": 2.299999952316284, "X": 1.0}, "interpolation": 0}]}, "effects": []}, {"location_x": {"Points": [{"co": {"Y": 0.0, "X": 1.0}, "interpolation": 2}]}, "perspective_c3_x": {"Points": [{"co": {"Y": -1.0, "X": 1.0}, "interpolation": 2}]}, "perspective_c4_x": {"Points": [{"co": {"Y": -1.0, "X": 1.0}, "interpolation": 2}]}, "channel_filter": {"Points": [{"co": {"Y": -1.0, "X": 1.0}, "interpolation": 2}]}, "perspective_c2_x": {"Points": [{"co": {"Y": -1.0, "X": 1.0}, "interpolation": 2}]}, "perspective_c1_x": {"Points": [{"co": {"Y": -1.0, "X": 1.0}, "interpolation": 2}]}, "anchor": 0, "alpha": {"Points": [{"co": {"Y": 1.0, "X": 1.0}, "interpolation": 2}]}, "id": "3GZPXZWGC6", "layer": 0, "file_id": "0F0RWXSQM9", "display": 0, "scale": 1, "gravity": 4, "crop_width": {"Points": [{"co": {"Y": -1.0, "X": 1.0}, "interpolation": 2}]}, "crop_x": {"Points": [{"co": {"Y": 0.0, "X": 1.0}, "interpolation": 2}]}, "shear_x": {"Points": [{"co": {"Y": 0.0, "X": 1.0}, "interpolation": 2}]}, "volume": {"Points": [{"co": {"Y": 1.0, "X": 1.0}, "interpolation": 2}]}, "start": 0, "rotation": {"Points": [{"co": {"Y": 0.0, "X": 1.0}, "interpolation": 2}]}, "reader": {"video_stream_index": -1, "video_length": "2592000", "interlaced_frame": false, "audio_bit_rate": 0, "audio_timebase": {"den": 1, "num": 1}, "vcodec": "", "channels": 0, "has_video": true, "channel_layout": 4, "has_audio": false, "video_timebase": {"den": 30, "num": 1}, "has_single_image": true, "acodec": "", "video_bit_rate": 0, "display_ratio": {"den": 9, "num": 16}, "audio_stream_index": -1, "type": "QtImageReader", "top_field_first": true, "width": 1920, "pixel_ratio": {"den": 1, "num": 1}, "height": 1080, "duration": 86400.0, "file_size": "8294400", "path": "/home/milind/Data/Projects/ProgressCard/!000-White-Background.svg", "fps": {"den": 1, "num": 30}, "pixel_format": -1, "sample_rate": 0}, "position": 121.30031249999999, "has_video": {"Points": [{"co": {"Y": -1.0, "X": 1.0}, "interpolation": 2}]}, "has_audio": {"Points": [{"co": {"Y": -1.0, "X": 1.0}, "interpolation": 2}]}, "channel_mapping": {"Points": [{"co": {"Y": -1.0, "X": 1.0}, "interpolation": 2}]}, "shear_y": {"Points": [{"co": {"Y": 0.0, "X": 1.0}, "interpolation": 2}]}, "perspective_c3_y": {"Points": [{"co": {"Y": -1.0, "X": 1.0}, "interpolation": 2}]}, "waveform": false, "end": 10, "scale_x": {"Points": [{"co": {"Y": 1.0, "X": 1.0}, "interpolation": 2}]}, "image": "/home/milind/.openshot_qt/thumbnail/0F0RWXSQM9.png", "location_y": {"Points": [{"co": {"Y": 0.0, "X": 1.0}, "interpolation": 2}]}, "crop_y": {"Points": [{"co": {"Y": 0.0, "X": 1.0}, "interpolation": 2}]}, "perspective_c2_y": {"Points": [{"co": {"Y": -1.0, "X": 1.0}, "interpolation": 2}]}, "perspective_c1_y": {"Points": [{"co": {"Y": -1.0, "X": 1.0}, "interpolation": 2}]}, "title": "!000-White-Background.svg", "perspective_c4_y": {"Points": [{"co": {"Y": -1.0, "X": 1.0}, "interpolation": 2}]}, "duration": 86400.0, "wave_color": {"red": {"Points": [{"handle_right": {"Y": 0.0, "X": 0.5}, "handle_type": 0, "handle_left": {"Y": 1.0, "X": 0.5}, "co": {"Y": 0.0, "X": 1.0}, "interpolation": 0}]}, "green": {"Points": [{"handle_right": {"Y": 0.0, "X": 0.5}, "handle_type": 0, "handle_left": {"Y": 1.0, "X": 0.5}, "co": {"Y": 123.0, "X": 1.0}, "interpolation": 0}]}, "blue": {"Points": [{"handle_right": {"Y": 0.0, "X": 0.5}, "handle_type": 0, "handle_left": {"Y": 1.0, "X": 0.5}, "co": {"Y": 255.0, "X": 1.0}, "interpolation": 0}]}, "alpha": {"Points": [{"handle_right": {"Y": 0.0, "X": 0.5}, "handle_type": 0, "handle_left": {"Y": 1.0, "X": 0.5}, "co": {"Y": 255.0, "X": 1.0}, "interpolation": 0}]}}, "time": {"Points": [{"co": {"Y": 1.0, "X": 1.0}, "interpolation": 2}]}, "crop_height": {"Points": [{"co": {"Y": -1.0, "X": 1.0}, "interpolation": 2}]}, "scale_y": {"Points": [{"co": {"Y": 1.0, "X": 1.0}, "interpolation": 2}]}, "effects": []}, {"perspective_c4_x": {"Points": [{"co": {"Y": -1.0, "X": 1.0}, "interpolation": 2}]}, "channel_filter": {"Points": [{"co": {"Y": -1.0, "X": 1.0}, "interpolation": 2}]}, "image": "/home/milind/.openshot_qt/thumbnail/Z4YCYRY34O.png", "perspective_c2_x": {"Points": [{"co": {"Y": -1.0, "X": 1.0}, "interpolation": 2}]}, "perspective_c1_x": {"Points": [{"co": {"Y": -1.0, "X": 1.0}, "interpolation": 2}]}, "anchor": 0, "alpha": {"Points": [{"handle_right": {"Y": 0, "X": 0.5}, "handle_type": 0, "handle_left": {"Y": 1, "X": 0.5}, "co": {"Y": 1, "X": 1}, "interpolation": 0}, {"handle_right": {"Y": 0, "X": 0.5}, "handle_type": 0, "handle_left": {"Y": 1, "X": 0.5}, "co": {"Y": 0, "X": 1}, "interpolation": 0}, {"handle_right": {"Y": 0, "X": 0.5}, "handle_type": 0, "handle_left": {"Y": 1, "X": 0.5}, "co": {"Y": 1, "X": 73}, "interpolation": 0}]}, "id": "QZM4UXHK9C", "position": 125.768125, "file_id": "Z4YCYRY34O", "display": 0, "scale": 1, "gravity": 4, "crop_width": {"Points": [{"co": {"Y": -1.0, "X": 1.0}, "interpolation": 2}]}, "crop_x": {"Points": [{"co": {"Y": 0.0, "X": 1.0}, "interpolation": 2}]}, "shear_x": {"Points": [{"co": {"Y": 0.0, "X": 1.0}, "interpolation": 2}]}, "volume": {"Points": [{"co": {"Y": 1.0, "X": 1.0}, "interpolation": 2}]}, "start": 0, "end": 17.416666666666668, "title": "!100-Average Marks.mkv", "crop_y": {"Points": [{"co": {"Y": 0.0, "X": 1.0}, "interpolation": 2}]}, "reader": {"video_stream_index": 0, "video_length": "925", "interlaced_frame": false, "audio_bit_rate": 0, "audio_timebase": {"den": 1, "num": 1}, "vcodec": "h264", "channels": 0, "has_video": true, "channel_layout": 4, "has_audio": false, "video_timebase": {"den": 1000, "num": 1}, "has_single_image": false, "acodec": "", "video_bit_rate": 0, "display_ratio": {"den": 186, "num": 325}, "audio_stream_index": -1, "type": "FFmpegReader", "top_field_first": true, "width": 1300, "pixel_ratio": {"den": 1, "num": 1}, "height": 744, "duration": 37.0, "file_size": "281401", "path": "/home/milind/Data/Projects/ProgressCard/!100-Average Marks.mkv", "fps": {"den": 1, "num": 25}, "pixel_format": 0, "sample_rate": 0}, "layer": 1, "has_video": {"Points": [{"co": {"Y": -1.0, "X": 1.0}, "interpolation": 2}]}, "has_audio": {"Points": [{"co": {"Y": -1.0, "X": 1.0}, "interpolation": 2}]}, "channel_mapping": {"Points": [{"co": {"Y": -1.0, "X": 1.0}, "interpolation": 2}]}, "perspective_c3_y": {"Points": [{"co": {"Y": -1.0, "X": 1.0}, "interpolation": 2}]}, "waveform": false, "perspective_c3_x": {"Points": [{"co": {"Y": -1.0, "X": 1.0}, "interpolation": 2}]}, "scale_x": {"Points": [{"co": {"Y": 2.299999952316284, "X": 1.0}, "interpolation": 2}]}, "location_x": {"Points": [{"co": {"Y": -0.07999999821186066, "X": 1.0}, "interpolation": 2}]}, "location_y": {"Points": [{"co": {"Y": 0.5199999809265137, "X": 1.0}, "interpolation": 2}]}, "shear_y": {"Points": [{"co": {"Y": 0.0, "X": 1.0}, "interpolation": 2}]}, "perspective_c2_y": {"Points": [{"co": {"Y": -1.0, "X": 1.0}, "interpolation": 2}]}, "perspective_c1_y": {"Points": [{"co": {"Y": -1.0, "X": 1.0}, "interpolation": 2}]}, "rotation": {"Points": [{"co": {"Y": 0.0, "X": 1.0}, "interpolation": 2}]}, "perspective_c4_y": {"Points": [{"co": {"Y": -1.0, "X": 1.0}, "interpolation": 2}]}, "duration": 18.0, "wave_color": {"red": {"Points": [{"handle_right": {"Y": 0.0, "X": 0.5}, "handle_type": 0, "handle_left": {"Y": 1.0, "X": 0.5}, "co": {"Y": 0.0, "X": 1.0}, "interpolation": 0}]}, "green": {"Points": [{"handle_right": {"Y": 0.0, "X": 0.5}, "handle_type": 0, "handle_left": {"Y": 1.0, "X": 0.5}, "co": {"Y": 123.0, "X": 1.0}, "interpolation": 0}]}, "blue": {"Points": [{"handle_right": {"Y": 0.0, "X": 0.5}, "handle_type": 0, "handle_left": {"Y": 1.0, "X": 0.5}, "co": {"Y": 255.0, "X": 1.0}, "interpolation": 0}]}, "alpha": {"Points": [{"handle_right": {"Y": 0.0, "X": 0.5}, "handle_type": 0, "handle_left": {"Y": 1.0, "X": 0.5}, "co": {"Y": 255.0, "X": 1.0}, "interpolation": 0}]}}, "time": {"Points": [{"co": {"Y": 1, "X": 1}, "interpolation": 1}, {"co": {"Y": 835, "X": 418}, "interpolation": 1}]}, "crop_height": {"Points": [{"co": {"Y": -1.0, "X": 1.0}, "interpolation": 2}]}, "scale_y": {"Points": [{"co": {"Y": 2.299999952316284, "X": 1.0}, "interpolation": 2}]}, "effects": []}, {"location_x": {"Points": [{"co": {"Y": 0.0, "X": 1.0}, "interpolation": 2}]}, "perspective_c3_x": {"Points": [{"co": {"Y": -1.0, "X": 1.0}, "interpolation": 2}]}, "perspective_c4_x": {"Points": [{"co": {"Y": -1.0, "X": 1.0}, "interpolation": 2}]}, "channel_filter": {"Points": [{"co": {"Y": -1.0, "X": 1.0}, "interpolation": 2}]}, "perspective_c2_x": {"Points": [{"co": {"Y": -1.0, "X": 1.0}, "interpolation": 2}]}, "perspective_c1_x": {"Points": [{"co": {"Y": -1.0, "X": 1.0}, "interpolation": 2}]}, "anchor": 0, "alpha": {"Points": [{"co": {"Y": 1.0, "X": 1.0}, "interpolation": 2}]}, "id": "XUROHR8TBC", "layer": 0, "file_id": "0F0RWXSQM9", "display": 0, "scale": 1, "gravity": 4, "crop_width": {"Points": [{"co": {"Y": -1.0, "X": 1.0}, "interpolation": 2}]}, "crop_x": {"Points": [{"co": {"Y": 0.0, "X": 1.0}, "interpolation": 2}]}, "shear_x": {"Points": [{"co": {"Y": 0.0, "X": 1.0}, "interpolation": 2}]}, "volume": {"Points": [{"co": {"Y": 1.0, "X": 1.0}, "interpolation": 2}]}, "start": 0, "rotation": {"Points": [{"co": {"Y": 0.0, "X": 1.0}, "interpolation": 2}]}, "reader": {"video_stream_index": -1, "video_length": "2592000", "interlaced_frame": false, "audio_bit_rate": 0, "audio_timebase": {"den": 1, "num": 1}, "vcodec": "", "channels": 0, "has_video": true, "channel_layout": 4, "has_audio": false, "video_timebase": {"den": 30, "num": 1}, "has_single_image": true, "acodec": "", "video_bit_rate": 0, "display_ratio": {"den": 9, "num": 16}, "audio_stream_index": -1, "type": "QtImageReader", "top_field_first": true, "width": 1920, "pixel_ratio": {"den": 1, "num": 1}, "height": 1080, "duration": 86400.0, "file_size": "8294400", "path": "/home/milind/Data/Projects/ProgressCard/!000-White-Background.svg", "fps": {"den": 1, "num": 30}, "pixel_format": -1, "sample_rate": 0}, "position": 173.20078124999998, "has_video": {"Points": [{"co": {"Y": -1.0, "X": 1.0}, "interpolation": 2}]}, "has_audio": {"Points": [{"co": {"Y": -1.0, "X": 1.0}, "interpolation": 2}]}, "channel_mapping": {"Points": [{"co": {"Y": -1.0, "X": 1.0}, "interpolation": 2}]}, "shear_y": {"Points": [{"co": {"Y": 0.0, "X": 1.0}, "interpolation": 2}]}, "perspective_c3_y": {"Points": [{"co": {"Y": -1.0, "X": 1.0}, "interpolation": 2}]}, "waveform": false, "end": 10, "scale_x": {"Points": [{"co": {"Y": 1.0, "X": 1.0}, "interpolation": 2}]}, "image": "/home/milind/.openshot_qt/thumbnail/0F0RWXSQM9.png", "location_y": {"Points": [{"co": {"Y": 0.0, "X": 1.0}, "interpolation": 2}]}, "crop_y": {"Points": [{"co": {"Y": 0.0, "X": 1.0}, "interpolation": 2}]}, "perspective_c2_y": {"Points": [{"co": {"Y": -1.0, "X": 1.0}, "interpolation": 2}]}, "perspective_c1_y": {"Points": [{"co": {"Y": -1.0, "X": 1.0}, "interpolation": 2}]}, "title": "!000-White-Background.svg", "perspective_c4_y": {"Points": [{"co": {"Y": -1.0, "X": 1.0}, "interpolation": 2}]}, "duration": 86400.0, "wave_color": {"red": {"Points": [{"handle_right": {"Y": 0.0, "X": 0.5}, "handle_type": 0, "handle_left": {"Y": 1.0, "X": 0.5}, "co": {"Y": 0.0, "X": 1.0}, "interpolation": 0}]}, "green": {"Points": [{"handle_right": {"Y": 0.0, "X": 0.5}, "handle_type": 0, "handle_left": {"Y": 1.0, "X": 0.5}, "co": {"Y": 123.0, "X": 1.0}, "interpolation": 0}]}, "blue": {"Points": [{"handle_right": {"Y": 0.0, "X": 0.5}, "handle_type": 0, "handle_left": {"Y": 1.0, "X": 0.5}, "co": {"Y": 255.0, "X": 1.0}, "interpolation": 0}]}, "alpha": {"Points": [{"handle_right": {"Y": 0.0, "X": 0.5}, "handle_type": 0, "handle_left": {"Y": 1.0, "X": 0.5}, "co": {"Y": 255.0, "X": 1.0}, "interpolation": 0}]}}, "time": {"Points": [{"co": {"Y": 1.0, "X": 1.0}, "interpolation": 2}]}, "crop_height": {"Points": [{"co": {"Y": -1.0, "X": 1.0}, "interpolation": 2}]}, "scale_y": {"Points": [{"co": {"Y": 1.0, "X": 1.0}, "interpolation": 2}]}, "effects": []}, {"location_x": {"Points": [{"handle_right": {"Y": 0.0, "X": 0.5}, "handle_type": 0, "handle_left": {"Y": 1.0, "X": 0.5}, "co": {"Y": 0.0, "X": 1.0}, "interpolation": 0}]}, "perspective_c3_x": {"Points": [{"co": {"Y": -1.0, "X": 1.0}, "interpolation": 2}]}, "perspective_c4_x": {"Points": [{"co": {"Y": -1.0, "X": 1.0}, "interpolation": 2}]}, "channel_filter": {"Points": [{"co": {"Y": -1.0, "X": 1.0}, "interpolation": 2}]}, "perspective_c2_x": {"Points": [{"co": {"Y": -1.0, "X": 1.0}, "interpolation": 2}]}, "perspective_c1_x": {"Points": [{"co": {"Y": -1.0, "X": 1.0}, "interpolation": 2}]}, "anchor": 0, "alpha": {"Points": [{"co": {"Y": 1.0, "X": 1.0}, "interpolation": 2}, {"handle_right": {"Y": 0.0, "X": 0.5}, "handle_type": 0, "handle_left": {"Y": 1.0, "X": 0.5}, "co": {"Y": 0.0, "X": 1.0}, "interpolation": 0}, {"handle_right": {"Y": 0.0, "X": 0.5}, "handle_type": 0, "handle_left": {"Y": 1.0, "X": 0.5}, "co": {"Y": 1.0, "X": 73.0}, "interpolation": 0}]}, "id": "UUTCPBA7W2", "layer": 2, "file_id": "A5ENU0DW4J", "display": 0, "scale": 1, "gravity": 4, "crop_width": {"Points": [{"co": {"Y": -1.0, "X": 1.0}, "interpolation": 2}]}, "crop_x": {"Points": [{"co": {"Y": 0.0, "X": 1.0}, "interpolation": 2}]}, "shear_x": {"Points": [{"co": {"Y": 0.0, "X": 1.0}, "interpolation": 2}]}, "volume": {"Points": [{"co": {"Y": 1.0, "X": 1.0}, "interpolation": 2}]}, "start": 0, "rotation": {"Points": [{"co": {"Y": 0.0, "X": 1.0}, "interpolation": 2}]}, "reader": {"video_stream_index": 0, "video_length": "500", "interlaced_frame": false, "audio_bit_rate": 0, "audio_timebase": {"den": 1, "num": 1}, "vcodec": "h264", "channels": 0, "has_video": true, "channel_layout": 4, "has_audio": false, "video_timebase": {"den": 1000, "num": 1}, "has_single_image": false, "acodec": "", "video_bit_rate": 0, "display_ratio": {"den": 186, "num": 325}, "audio_stream_index": -1, "type": "FFmpegReader", "top_field_first": true, "width": 1300, "pixel_ratio": {"den": 1, "num": 1}, "height": 744, "duration": 20.0, "file_size": "204468", "path": "/home/milind/Data/Projects/ProgressCard/!110-Float Format Dialog.mkv", "fps": {"den": 1, "num": 25}, "pixel_format": 0, "sample_rate": 0}, "position": 140.15171875, "has_video": {"Points": [{"co": {"Y": -1.0, "X": 1.0}, "interpolation": 2}]}, "has_audio": {"Points": [{"co": {"Y": -1.0, "X": 1.0}, "interpolation": 2}]}, "channel_mapping": {"Points": [{"co": {"Y": -1.0, "X": 1.0}, "interpolation": 2}]}, "shear_y": {"Points": [{"co": {"Y": 0.0, "X": 1.0}, "interpolation": 2}]}, "perspective_c3_y": {"Points": [{"co": {"Y": -1.0, "X": 1.0}, "interpolation": 2}]}, "waveform": false, "end": 13.523333333333312, "scale_x": {"Points": [{"handle_right": {"Y": 0.0, "X": 0.5}, "handle_type": 0, "handle_left": {"Y": 1.0, "X": 0.5}, "co": {"Y": 1.5, "X": 1.0}, "interpolation": 0}]}, "image": "/home/milind/.openshot_qt/thumbnail/A5ENU0DW4J.png", "location_y": {"Points": [{"handle_right": {"Y": 0.0, "X": 0.5}, "handle_type": 0, "handle_left": {"Y": 1.0, "X": 0.5}, "co": {"Y": 0.0, "X": 1.0}, "interpolation": 0}]}, "crop_y": {"Points": [{"co": {"Y": 0.0, "X": 1.0}, "interpolation": 2}]}, "perspective_c2_y": {"Points": [{"co": {"Y": -1.0, "X": 1.0}, "interpolation": 2}]}, "perspective_c1_y": {"Points": [{"co": {"Y": -1.0, "X": 1.0}, "interpolation": 2}]}, "title": "!110-Float Format Dialog.mkv", "perspective_c4_y": {"Points": [{"co": {"Y": -1.0, "X": 1.0}, "interpolation": 2}]}, "duration": 20.0, "wave_color": {"red": {"Points": [{"handle_right": {"Y": 0.0, "X": 0.5}, "handle_type": 0, "handle_left": {"Y": 1.0, "X": 0.5}, "co": {"Y": 0.0, "X": 1.0}, "interpolation": 0}]}, "green": {"Points": [{"handle_right": {"Y": 0.0, "X": 0.5}, "handle_type": 0, "handle_left": {"Y": 1.0, "X": 0.5}, "co": {"Y": 123.0, "X": 1.0}, "interpolation": 0}]}, "blue": {"Points": [{"handle_right": {"Y": 0.0, "X": 0.5}, "handle_type": 0, "handle_left": {"Y": 1.0, "X": 0.5}, "co": {"Y": 255.0, "X": 1.0}, "interpolation": 0}]}, "alpha": {"Points": [{"handle_right": {"Y": 0.0, "X": 0.5}, "handle_type": 0, "handle_left": {"Y": 1.0, "X": 0.5}, "co": {"Y": 255.0, "X": 1.0}, "interpolation": 0}]}}, "time": {"Points": [{"co": {"Y": 1.0, "X": 1.0}, "interpolation": 2}]}, "crop_height": {"Points": [{"co": {"Y": -1.0, "X": 1.0}, "interpolation": 2}]}, "scale_y": {"Points": [{"handle_right": {"Y": 0.0, "X": 0.5}, "handle_type": 0, "handle_left": {"Y": 1.0, "X": 0.5}, "co": {"Y": 1.5, "X": 1.0}, "interpolation": 0}]}, "effects": []}, {"location_x": {"Points": [{"co": {"Y": 0.0, "X": 1.0}, "interpolation": 2}]}, "perspective_c3_x": {"Points": [{"co": {"Y": -1.0, "X": 1.0}, "interpolation": 2}]}, "perspective_c4_x": {"Points": [{"co": {"Y": -1.0, "X": 1.0}, "interpolation": 2}]}, "channel_filter": {"Points": [{"co": {"Y": -1.0, "X": 1.0}, "interpolation": 2}]}, "perspective_c2_x": {"Points": [{"co": {"Y": -1.0, "X": 1.0}, "interpolation": 2}]}, "perspective_c1_x": {"Points": [{"co": {"Y": -1.0, "X": 1.0}, "interpolation": 2}]}, "anchor": 0, "alpha": {"Points": [{"co": {"Y": 1.0, "X": 1.0}, "interpolation": 2}]}, "id": "HGE2JUKOAI", "layer": 0, "file_id": "0F0RWXSQM9", "display": 0, "scale": 1, "gravity": 4, "crop_width": {"Points": [{"co": {"Y": -1.0, "X": 1.0}, "interpolation": 2}]}, "crop_x": {"Points": [{"co": {"Y": 0.0, "X": 1.0}, "interpolation": 2}]}, "shear_x": {"Points": [{"co": {"Y": 0.0, "X": 1.0}, "interpolation": 2}]}, "volume": {"Points": [{"co": {"Y": 1.0, "X": 1.0}, "interpolation": 2}]}, "start": 0, "rotation": {"Points": [{"co": {"Y": 0.0, "X": 1.0}, "interpolation": 2}]}, "reader": {"video_stream_index": -1, "video_length": "2592000", "interlaced_frame": false, "audio_bit_rate": 0, "audio_timebase": {"den": 1, "num": 1}, "vcodec": "", "channels": 0, "has_video": true, "channel_layout": 4, "has_audio": false, "video_timebase": {"den": 30, "num": 1}, "has_single_image": true, "acodec": "", "video_bit_rate": 0, "display_ratio": {"den": 9, "num": 16}, "audio_stream_index": -1, "type": "QtImageReader", "top_field_first": true, "width": 1920, "pixel_ratio": {"den": 1, "num": 1}, "height": 1080, "duration": 86400.0, "file_size": "8294400", "path": "/home/milind/Data/Projects/ProgressCard/!000-White-Background.svg", "fps": {"den": 1, "num": 30}, "pixel_format": -1, "sample_rate": 0}, "position": 262.15859374999997, "has_video": {"Points": [{"co": {"Y": -1.0, "X": 1.0}, "interpolation": 2}]}, "has_audio": {"Points": [{"co": {"Y": -1.0, "X": 1.0}, "interpolation": 2}]}, "channel_mapping": {"Points": [{"co": {"Y": -1.0, "X": 1.0}, "interpolation": 2}]}, "shear_y": {"Points": [{"co": {"Y": 0.0, "X": 1.0}, "interpolation": 2}]}, "perspective_c3_y": {"Points": [{"co": {"Y": -1.0, "X": 1.0}, "interpolation": 2}]}, "waveform": false, "end": 10, "scale_x": {"Points": [{"co": {"Y": 1.0, "X": 1.0}, "interpolation": 2}]}, "image": "/home/milind/.openshot_qt/thumbnail/0F0RWXSQM9.png", "location_y": {"Points": [{"co": {"Y": 0.0, "X": 1.0}, "interpolation": 2}]}, "crop_y": {"Points": [{"co": {"Y": 0.0, "X": 1.0}, "interpolation": 2}]}, "perspective_c2_y": {"Points": [{"co": {"Y": -1.0, "X": 1.0}, "interpolation": 2}]}, "perspective_c1_y": {"Points": [{"co": {"Y": -1.0, "X": 1.0}, "interpolation": 2}]}, "title": "!000-White-Background.svg", "perspective_c4_y": {"Points": [{"co": {"Y": -1.0, "X": 1.0}, "interpolation": 2}]}, "duration": 86400.0, "wave_color": {"red": {"Points": [{"handle_right": {"Y": 0.0, "X": 0.5}, "handle_type": 0, "handle_left": {"Y": 1.0, "X": 0.5}, "co": {"Y": 0.0, "X": 1.0}, "interpolation": 0}]}, "green": {"Points": [{"handle_right": {"Y": 0.0, "X": 0.5}, "handle_type": 0, "handle_left": {"Y": 1.0, "X": 0.5}, "co": {"Y": 123.0, "X": 1.0}, "interpolation": 0}]}, "blue": {"Points": [{"handle_right": {"Y": 0.0, "X": 0.5}, "handle_type": 0, "handle_left": {"Y": 1.0, "X": 0.5}, "co": {"Y": 255.0, "X": 1.0}, "interpolation": 0}]}, "alpha": {"Points": [{"handle_right": {"Y": 0.0, "X": 0.5}, "handle_type": 0, "handle_left": {"Y": 1.0, "X": 0.5}, "co": {"Y": 255.0, "X": 1.0}, "interpolation": 0}]}}, "time": {"Points": [{"co": {"Y": 1.0, "X": 1.0}, "interpolation": 2}]}, "crop_height": {"Points": [{"co": {"Y": -1.0, "X": 1.0}, "interpolation": 2}]}, "scale_y": {"Points": [{"co": {"Y": 1.0, "X": 1.0}, "interpolation": 2}]}, "effects": []}, {"location_x": {"Points": [{"co": {"Y": 0.0, "X": 1.0}, "interpolation": 2}]}, "perspective_c4_x": {"Points": [{"co": {"Y": -1.0, "X": 1.0}, "interpolation": 2}]}, "channel_filter": {"Points": [{"co": {"Y": -1.0, "X": 1.0}, "interpolation": 2}]}, "duration": 15.0, "perspective_c1_x": {"Points": [{"co": {"Y": -1.0, "X": 1.0}, "interpolation": 2}]}, "perspective_c2_x": {"Points": [{"co": {"Y": -1.0, "X": 1.0}, "interpolation": 2}]}, "alpha": {"Points": [{"handle_right": {"Y": 0.0, "X": 0.5}, "handle_type": 0, "handle_left": {"Y": 1.0, "X": 0.5}, "co": {"Y": 1.0, "X": 1.0}, "interpolation": 0}, {"handle_right": {"Y": 0.0, "X": 0.5}, "handle_type": 0, "handle_left": {"Y": 1.0, "X": 0.5}, "co": {"Y": 0.0, "X": 1.0}, "interpolation": 0}, {"handle_right": {"Y": 0.0, "X": 0.5}, "handle_type": 0, "handle_left": {"Y": 1.0, "X": 0.5}, "co": {"Y": 1.0, "X": 73.0}, "interpolation": 0}, {"handle_right": {"Y": 0.0, "X": 0.5}, "handle_type": 0, "handle_left": {"Y": 1.0, "X": 0.5}, "co": {"Y": 1.0, "X": 183.0}, "interpolation": 0}, {"handle_right": {"Y": 0.0, "X": 0.5}, "handle_type": 0, "handle_left": {"Y": 1.0, "X": 0.5}, "co": {"Y": 0.0, "X": 255.0}, "interpolation": 0}]}, "id": "O0H3RPMELI", "layer": 3, "display": 0, "scale": 1, "gravity": 4, "crop_width": {"Points": [{"co": {"Y": -1.0, "X": 1.0}, "interpolation": 2}]}, "crop_x": {"Points": [{"co": {"Y": 0.0, "X": 1.0}, "interpolation": 2}]}, "shear_x": {"Points": [{"co": {"Y": 0.0, "X": 1.0}, "interpolation": 2}]}, "volume": {"Points": [{"co": {"Y": 1.0, "X": 1.0}, "interpolation": 2}]}, "has_audio": {"Points": [{"co": {"Y": -1.0, "X": 1.0}, "interpolation": 2}]}, "end": 10.595000000000027, "title": "!120-Two Decimal Format.mkv", "crop_y": {"Points": [{"co": {"Y": 0.0, "X": 1.0}, "interpolation": 2}]}, "reader": {"video_stream_index": 0, "video_length": "375", "interlaced_frame": false, "audio_bit_rate": 0, "audio_timebase": {"den": 1, "num": 1}, "vcodec": "h264", "channels": 0, "has_video": true, "channel_layout": 4, "has_audio": false, "video_timebase": {"den": 1000, "num": 1}, "has_single_image": false, "acodec": "", "video_bit_rate": 0, "display_ratio": {"den": 186, "num": 325}, "audio_stream_index": -1, "type": "FFmpegReader", "top_field_first": true, "width": 1300, "pixel_ratio": {"den": 1, "num": 1}, "height": 744, "duration": 15.0, "file_size": "187523", "path": "/home/milind/Data/Projects/ProgressCard/!120-Two Decimal Format.mkv", "fps": {"den": 1, "num": 25}, "pixel_format": 0, "sample_rate": 0}, "position": 152.00921875, "has_video": {"Points": [{"co": {"Y": -1.0, "X": 1.0}, "interpolation": 2}]}, "start": 0, "channel_mapping": {"Points": [{"co": {"Y": -1.0, "X": 1.0}, "interpolation": 2}]}, "shear_y": {"Points": [{"co": {"Y": 0.0, "X": 1.0}, "interpolation": 2}]}, "perspective_c3_y": {"Points": [{"co": {"Y": -1.0, "X": 1.0}, "interpolation": 2}]}, "waveform": false, "perspective_c3_x": {"Points": [{"co": {"Y": -1.0, "X": 1.0}, "interpolation": 2}]}, "scale_x": {"Points": [{"co": {"Y": 1.5, "X": 1.0}, "interpolation": 2}]}, "image": "/home/milind/.openshot_qt/thumbnail/UGJYEMW42F.png", "location_y": {"Points": [{"co": {"Y": 0.0, "X": 1.0}, "interpolation": 2}]}, "file_id": "UGJYEMW42F", "perspective_c2_y": {"Points": [{"co": {"Y": -1.0, "X": 1.0}, "interpolation": 2}]}, "perspective_c1_y": {"Points": [{"co": {"Y": -1.0, "X": 1.0}, "interpolation": 2}]}, "rotation": {"Points": [{"co": {"Y": 0.0, "X": 1.0}, "interpolation": 2}]}, "perspective_c4_y": {"Points": [{"co": {"Y": -1.0, "X": 1.0}, "interpolation": 2}]}, "anchor": 0, "wave_color": {"red": {"Points": [{"handle_right": {"Y": 0.0, "X": 0.5}, "handle_type": 0, "handle_left": {"Y": 1.0, "X": 0.5}, "co": {"Y": 0.0, "X": 1.0}, "interpolation": 0}]}, "green": {"Points": [{"handle_right": {"Y": 0.0, "X": 0.5}, "handle_type": 0, "handle_left": {"Y": 1.0, "X": 0.5}, "co": {"Y": 123.0, "X": 1.0}, "interpolation": 0}]}, "blue": {"Points": [{"handle_right": {"Y": 0.0, "X": 0.5}, "handle_type": 0, "handle_left": {"Y": 1.0, "X": 0.5}, "co": {"Y": 255.0, "X": 1.0}, "interpolation": 0}]}, "alpha": {"Points": [{"handle_right": {"Y": 0.0, "X": 0.5}, "handle_type": 0, "handle_left": {"Y": 1.0, "X": 0.5}, "co": {"Y": 255.0, "X": 1.0}, "interpolation": 0}]}}, "time": {"Points": [{"co": {"Y": 1.0, "X": 1.0}, "interpolation": 2}]}, "crop_height": {"Points": [{"co": {"Y": -1.0, "X": 1.0}, "interpolation": 2}]}, "scale_y": {"Points": [{"co": {"Y": 1.5, "X": 1.0}, "interpolation": 2}]}, "effects": []}, {"location_x": {"Points": [{"handle_right": {"Y": 0.0, "X": 0.5}, "handle_type": 0, "handle_left": {"Y": 1.0, "X": 0.5}, "co": {"Y": 0.5299999713897705, "X": 1.0}, "interpolation": 0}, {"co": {"Y": -0.019999999552965164, "X": 121}, "interpolation": 1}]}, "perspective_c3_x": {"Points": [{"co": {"Y": -1.0, "X": 1.0}, "interpolation": 2}]}, "perspective_c4_x": {"Points": [{"co": {"Y": -1.0, "X": 1.0}, "interpolation": 2}]}, "channel_filter": {"Points": [{"co": {"Y": -1.0, "X": 1.0}, "interpolation": 2}]}, "perspective_c2_x": {"Points": [{"co": {"Y": -1.0, "X": 1.0}, "interpolation": 2}]}, "perspective_c1_x": {"Points": [{"co": {"Y": -1.0, "X": 1.0}, "interpolation": 2}]}, "anchor": 0, "alpha": {"Points": [{"handle_right": {"Y": 0, "X": 0.5}, "handle_type": 0, "handle_left": {"Y": 1, "X": 0.5}, "co": {"Y": 1, "X": 1}, "interpolation": 0}, {"handle_right": {"Y": 0, "X": 0.5}, "handle_type": 0, "handle_left": {"Y": 1, "X": 0.5}, "co": {"Y": 0, "X": 1}, "interpolation": 0}, {"handle_right": {"Y": 0, "X": 0.5}, "handle_type": 0, "handle_left": {"Y": 1, "X": 0.5}, "co": {"Y": 1, "X": 73}, "interpolation": 0}, {"handle_right": {"Y": 0, "X": 0.5}, "handle_type": 0, "handle_left": {"Y": 1, "X": 0.5}, "co": {"Y": 1, "X": 2057}, "interpolation": 0}, {"handle_right": {"Y": 0, "X": 0.5}, "handle_type": 0, "handle_left": {"Y": 1, "X": 0.5}, "co": {"Y": 0, "X": 2129}, "interpolation": 0}]}, "id": "1W8DREEE59", "layer": 1, "file_id": "616P05WPS9", "display": 0, "scale": 1, "gravity": 4, "crop_width": {"Points": [{"co": {"Y": -1.0, "X": 1.0}, "interpolation": 2}]}, "crop_x": {"Points": [{"co": {"Y": 0.0, "X": 1.0}, "interpolation": 2}]}, "shear_x": {"Points": [{"co": {"Y": 0.0, "X": 1.0}, "interpolation": 2}]}, "volume": {"Points": [{"co": {"Y": 1.0, "X": 1.0}, "interpolation": 2}]}, "start": 0, "rotation": {"Points": [{"co": {"Y": 0.0, "X": 1.0}, "interpolation": 2}]}, "reader": {"video_stream_index": 0, "video_length": "4525", "interlaced_frame": false, "audio_bit_rate": 0, "audio_timebase": {"den": 1, "num": 1}, "vcodec": "h264", "channels": 0, "has_video": true, "channel_layout": 4, "has_audio": false, "video_timebase": {"den": 1000, "num": 1}, "has_single_image": false, "acodec": "", "video_bit_rate": 0, "display_ratio": {"den": 186, "num": 325}, "audio_stream_index": -1, "type": "FFmpegReader", "top_field_first": true, "width": 1300, "pixel_ratio": {"den": 1, "num": 1}, "height": 744, "duration": 181.0, "file_size": "1502027", "path": "/home/milind/Data/Projects/ProgressCard/!140-Grade Formula.mkv", "fps": {"den": 1, "num": 25}, "pixel_format": 0, "sample_rate": 0}, "position": 177.65796874999998, "has_video": {"Points": [{"co": {"Y": -1.0, "X": 1.0}, "interpolation": 2}]}, "has_audio": {"Points": [{"co": {"Y": -1.0, "X": 1.0}, "interpolation": 2}]}, "channel_mapping": {"Points": [{"co": {"Y": -1.0, "X": 1.0}, "interpolation": 2}]}, "shear_y": {"Points": [{"co": {"Y": 0.0, "X": 1.0}, "interpolation": 2}]}, "perspective_c3_y": {"Points": [{"co": {"Y": -1.0, "X": 1.0}, "interpolation": 2}]}, "waveform": false, "end": 88.66666666666667, "scale_x": {"Points": [{"handle_right": {"Y": 0.0, "X": 0.5}, "handle_type": 0, "handle_left": {"Y": 1.0, "X": 0.5}, "co": {"Y": 2.299999952316284, "X": 1.0}, "interpolation": 0}, {"co": {"Y": 1.7000000476837158, "X": 121}, "interpolation": 1}]}, "image": "/home/milind/.openshot_qt/thumbnail/616P05WPS9.png", "location_y": {"Points": [{"handle_right": {"Y": 0.0, "X": 0.5}, "handle_type": 0, "handle_left": {"Y": 1.0, "X": 0.5}, "co": {"Y": 0.5199999809265137, "X": 1.0}, "interpolation": 0}, {"co": {"Y": 0.30000001192092896, "X": 121}, "interpolation": 1}]}, "crop_y": {"Points": [{"co": {"Y": 0.0, "X": 1.0}, "interpolation": 2}]}, "perspective_c2_y": {"Points": [{"co": {"Y": -1.0, "X": 1.0}, "interpolation": 2}]}, "perspective_c1_y": {"Points": [{"co": {"Y": -1.0, "X": 1.0}, "interpolation": 2}]}, "title": "!140-Grade Formula.mkv", "perspective_c4_y": {"Points": [{"co": {"Y": -1.0, "X": 1.0}, "interpolation": 2}]}, "duration": 90.0, "wave_color": {"red": {"Points": [{"handle_right": {"Y": 0.0, "X": 0.5}, "handle_type": 0, "handle_left": {"Y": 1.0, "X": 0.5}, "co": {"Y": 0.0, "X": 1.0}, "interpolation": 0}]}, "green": {"Points": [{"handle_right": {"Y": 0.0, "X": 0.5}, "handle_type": 0, "handle_left": {"Y": 1.0, "X": 0.5}, "co": {"Y": 123.0, "X": 1.0}, "interpolation": 0}]}, "blue": {"Points": [{"handle_right": {"Y": 0.0, "X": 0.5}, "handle_type": 0, "handle_left": {"Y": 1.0, "X": 0.5}, "co": {"Y": 255.0, "X": 1.0}, "interpolation": 0}]}, "alpha": {"Points": [{"handle_right": {"Y": 0.0, "X": 0.5}, "handle_type": 0, "handle_left": {"Y": 1.0, "X": 0.5}, "co": {"Y": 255.0, "X": 1.0}, "interpolation": 0}]}}, "time": {"Points": [{"co": {"Y": 1, "X": 1}, "interpolation": 1}, {"co": {"Y": 4255, "X": 2128}, "interpolation": 1}]}, "crop_height": {"Points": [{"co": {"Y": -1.0, "X": 1.0}, "interpolation": 2}]}, "scale_y": {"Points": [{"handle_right": {"Y": 0.0, "X": 0.5}, "handle_type": 0, "handle_left": {"Y": 1.0, "X": 0.5}, "co": {"Y": 2.299999952316284, "X": 1.0}, "interpolation": 0}, {"co": {"Y": 1.7000000476837158, "X": 121}, "interpolation": 1}]}, "effects": []}, {"location_x": {"Points": [{"co": {"Y": 0.0, "X": 1.0}, "interpolation": 2}, {"co": {"Y": -0.07999999821186066, "X": 373}, "interpolation": 1}, {"co": {"Y": 0.0, "X": 224}, "interpolation": 1}, {"co": {"Y": 0.0, "X": 617}, "interpolation": 1}]}, "perspective_c3_x": {"Points": [{"co": {"Y": -1.0, "X": 1.0}, "interpolation": 2}]}, "perspective_c4_x": {"Points": [{"co": {"Y": -1.0, "X": 1.0}, "interpolation": 2}]}, "channel_filter": {"Points": [{"co": {"Y": -1.0, "X": 1.0}, "interpolation": 2}]}, "perspective_c2_x": {"Points": [{"co": {"Y": -1.0, "X": 1.0}, "interpolation": 2}]}, "perspective_c1_x": {"Points": [{"co": {"Y": -1.0, "X": 1.0}, "interpolation": 2}]}, "anchor": 0, "alpha": {"Points": [{"co": {"Y": 1.0, "X": 1.0}, "interpolation": 2}, {"handle_right": {"Y": 0.0, "X": 0.5}, "handle_type": 0, "handle_left": {"Y": 1.0, "X": 0.5}, "co": {"Y": 1.0, "X": 545.0}, "interpolation": 0}, {"handle_right": {"Y": 0.0, "X": 0.5}, "handle_type": 0, "handle_left": {"Y": 1.0, "X": 0.5}, "co": {"Y": 0.0, "X": 617.0}, "interpolation": 0}]}, "id": "3KRS4J70ZV", "layer": 1, "file_id": "2202V21TTZ", "display": 0, "scale": 1, "gravity": 4, "crop_width": {"Points": [{"co": {"Y": -1.0, "X": 1.0}, "interpolation": 2}]}, "crop_x": {"Points": [{"co": {"Y": 0.0, "X": 1.0}, "interpolation": 2}]}, "shear_x": {"Points": [{"co": {"Y": 0.0, "X": 1.0}, "interpolation": 2}, {"co": {"Y": 0.0, "X": 373}, "interpolation": 1}]}, "volume": {"Points": [{"co": {"Y": 1.0, "X": 1.0}, "interpolation": 2}]}, "start": 0, "rotation": {"Points": [{"co": {"Y": 0.0, "X": 1.0}, "interpolation": 2}]}, "reader": {"video_stream_index": 0, "video_length": "725", "interlaced_frame": false, "audio_bit_rate": 0, "audio_timebase": {"den": 1, "num": 1}, "vcodec": "h264", "channels": 0, "has_video": true, "channel_layout": 4, "has_audio": false, "video_timebase": {"den": 1000, "num": 1}, "has_single_image": false, "acodec": "", "video_bit_rate": 0, "display_ratio": {"den": 186, "num": 325}, "audio_stream_index": -1, "type": "FFmpegReader", "top_field_first": true, "width": 1300, "pixel_ratio": {"den": 1, "num": 1}, "height": 744, "duration": 29.0, "file_size": "293155", "path": "/home/milind/Data/Projects/ProgressCard/!130-Copy Average.mkv", "fps": {"den": 1, "num": 25}, "pixel_format": 0, "sample_rate": 0}, "position": 152.00921875, "has_video": {"Points": [{"co": {"Y": -1.0, "X": 1.0}, "interpolation": 2}]}, "has_audio": {"Points": [{"co": {"Y": -1.0, "X": 1.0}, "interpolation": 2}]}, "channel_mapping": {"Points": [{"co": {"Y": -1.0, "X": 1.0}, "interpolation": 2}]}, "shear_y": {"Points": [{"co": {"Y": 0.0, "X": 1.0}, "interpolation": 2}]}, "perspective_c3_y": {"Points": [{"co": {"Y": -1.0, "X": 1.0}, "interpolation": 2}]}, "waveform": false, "end": 25.649999999999977, "scale_x": {"Points": [{"co": {"Y": 1.5, "X": 1.0}, "interpolation": 2}, {"co": {"Y": 2.299999952316284, "X": 373}, "interpolation": 1}, {"co": {"Y": 1.5, "X": 224}, "interpolation": 1}]}, "image": "/home/milind/.openshot_qt/thumbnail/2202V21TTZ.png", "location_y": {"Points": [{"co": {"Y": 0.0, "X": 1.0}, "interpolation": 2}, {"co": {"Y": 0.5199999809265137, "X": 373}, "interpolation": 1}, {"co": {"Y": 0.0, "X": 224}, "interpolation": 1}]}, "crop_y": {"Points": [{"co": {"Y": 0.0, "X": 1.0}, "interpolation": 2}]}, "perspective_c2_y": {"Points": [{"co": {"Y": -1.0, "X": 1.0}, "interpolation": 2}]}, "perspective_c1_y": {"Points": [{"co": {"Y": -1.0, "X": 1.0}, "interpolation": 2}]}, "title": "!130-Copy Average.mkv", "perspective_c4_y": {"Points": [{"co": {"Y": -1.0, "X": 1.0}, "interpolation": 2}]}, "duration": 29.0, "wave_color": {"red": {"Points": [{"handle_right": {"Y": 0.0, "X": 0.5}, "handle_type": 0, "handle_left": {"Y": 1.0, "X": 0.5}, "co": {"Y": 0.0, "X": 1.0}, "interpolation": 0}]}, "green": {"Points": [{"handle_right": {"Y": 0.0, "X": 0.5}, "handle_type": 0, "handle_left": {"Y": 1.0, "X": 0.5}, "co": {"Y": 123.0, "X": 1.0}, "interpolation": 0}]}, "blue": {"Points": [{"handle_right": {"Y": 0.0, "X": 0.5}, "handle_type": 0, "handle_left": {"Y": 1.0, "X": 0.5}, "co": {"Y": 255.0, "X": 1.0}, "interpolation": 0}]}, "alpha": {"Points": [{"handle_right": {"Y": 0.0, "X": 0.5}, "handle_type": 0, "handle_left": {"Y": 1.0, "X": 0.5}, "co": {"Y": 255.0, "X": 1.0}, "interpolation": 0}]}}, "time": {"Points": [{"co": {"Y": 1.0, "X": 1.0}, "interpolation": 2}]}, "crop_height": {"Points": [{"co": {"Y": -1.0, "X": 1.0}, "interpolation": 2}]}, "scale_y": {"Points": [{"co": {"Y": 1.5, "X": 1.0}, "interpolation": 2}, {"co": {"Y": 2.299999952316284, "X": 373}, "interpolation": 1}, {"co": {"Y": 1.5, "X": 224}, "interpolation": 1}]}, "effects": []}, {"location_x": {"Points": [{"co": {"Y": 0.0, "X": 1.0}, "interpolation": 2}]}, "perspective_c3_x": {"Points": [{"co": {"Y": -1.0, "X": 1.0}, "interpolation": 2}]}, "perspective_c4_x": {"Points": [{"co": {"Y": -1.0, "X": 1.0}, "interpolation": 2}]}, "channel_filter": {"Points": [{"co": {"Y": -1.0, "X": 1.0}, "interpolation": 2}]}, "perspective_c2_x": {"Points": [{"co": {"Y": -1.0, "X": 1.0}, "interpolation": 2}]}, "perspective_c1_x": {"Points": [{"co": {"Y": -1.0, "X": 1.0}, "interpolation": 2}]}, "anchor": 0, "alpha": {"Points": [{"co": {"Y": 1.0, "X": 1.0}, "interpolation": 2}]}, "id": "87020DYHA9", "layer": 0, "file_id": "0F0RWXSQM9", "display": 0, "scale": 1, "gravity": 4, "crop_width": {"Points": [{"co": {"Y": -1.0, "X": 1.0}, "interpolation": 2}]}, "crop_x": {"Points": [{"co": {"Y": 0.0, "X": 1.0}, "interpolation": 2}]}, "shear_x": {"Points": [{"co": {"Y": 0.0, "X": 1.0}, "interpolation": 2}]}, "volume": {"Points": [{"co": {"Y": 1.0, "X": 1.0}, "interpolation": 2}]}, "start": 0, "rotation": {"Points": [{"co": {"Y": 0.0, "X": 1.0}, "interpolation": 2}]}, "reader": {"video_stream_index": -1, "video_length": "2592000", "interlaced_frame": false, "audio_bit_rate": 0, "audio_timebase": {"den": 1, "num": 1}, "vcodec": "", "channels": 0, "has_video": true, "channel_layout": 4, "has_audio": false, "video_timebase": {"den": 30, "num": 1}, "has_single_image": true, "acodec": "", "video_bit_rate": 0, "display_ratio": {"den": 9, "num": 16}, "audio_stream_index": -1, "type": "QtImageReader", "top_field_first": true, "width": 1920, "pixel_ratio": {"den": 1, "num": 1}, "height": 1080, "duration": 86400.0, "file_size": "8294400", "path": "/home/milind/Data/Projects/ProgressCard/!000-White-Background.svg", "fps": {"den": 1, "num": 30}, "pixel_format": -1, "sample_rate": 0}, "position": 289.16999999999996, "has_video": {"Points": [{"co": {"Y": -1.0, "X": 1.0}, "interpolation": 2}]}, "has_audio": {"Points": [{"co": {"Y": -1.0, "X": 1.0}, "interpolation": 2}]}, "channel_mapping": {"Points": [{"co": {"Y": -1.0, "X": 1.0}, "interpolation": 2}]}, "shear_y": {"Points": [{"co": {"Y": 0.0, "X": 1.0}, "interpolation": 2}]}, "perspective_c3_y": {"Points": [{"co": {"Y": -1.0, "X": 1.0}, "interpolation": 2}]}, "waveform": false, "end": 9.49, "scale_x": {"Points": [{"co": {"Y": 1.0, "X": 1.0}, "interpolation": 2}]}, "image": "/home/milind/.openshot_qt/thumbnail/0F0RWXSQM9.png", "location_y": {"Points": [{"co": {"Y": 0.0, "X": 1.0}, "interpolation": 2}]}, "crop_y": {"Points": [{"co": {"Y": 0.0, "X": 1.0}, "interpolation": 2}]}, "perspective_c2_y": {"Points": [{"co": {"Y": -1.0, "X": 1.0}, "interpolation": 2}]}, "perspective_c1_y": {"Points": [{"co": {"Y": -1.0, "X": 1.0}, "interpolation": 2}]}, "title": "!000-White-Background.svg", "perspective_c4_y": {"Points": [{"co": {"Y": -1.0, "X": 1.0}, "interpolation": 2}]}, "duration": 86400.0, "wave_color": {"red": {"Points": [{"handle_right": {"Y": 0.0, "X": 0.5}, "handle_type": 0, "handle_left": {"Y": 1.0, "X": 0.5}, "co": {"Y": 0.0, "X": 1.0}, "interpolation": 0}]}, "green": {"Points": [{"handle_right": {"Y": 0.0, "X": 0.5}, "handle_type": 0, "handle_left": {"Y": 1.0, "X": 0.5}, "co": {"Y": 123.0, "X": 1.0}, "interpolation": 0}]}, "blue": {"Points": [{"handle_right": {"Y": 0.0, "X": 0.5}, "handle_type": 0, "handle_left": {"Y": 1.0, "X": 0.5}, "co": {"Y": 255.0, "X": 1.0}, "interpolation": 0}]}, "alpha": {"Points": [{"handle_right": {"Y": 0.0, "X": 0.5}, "handle_type": 0, "handle_left": {"Y": 1.0, "X": 0.5}, "co": {"Y": 255.0, "X": 1.0}, "interpolation": 0}]}}, "time": {"Points": [{"co": {"Y": 1.0, "X": 1.0}, "interpolation": 2}]}, "crop_height": {"Points": [{"co": {"Y": -1.0, "X": 1.0}, "interpolation": 2}]}, "scale_y": {"Points": [{"co": {"Y": 1.0, "X": 1.0}, "interpolation": 2}]}, "effects": []}, {"location_x": {"Points": [{"co": {"Y": -0.019999999552965164, "X": 1}, "interpolation": 2}]}, "perspective_c3_x": {"Points": [{"co": {"Y": -1, "X": 1}, "interpolation": 2}]}, "perspective_c4_x": {"Points": [{"co": {"Y": -1, "X": 1}, "interpolation": 2}]}, "channel_filter": {"Points": [{"co": {"Y": -1, "X": 1}, "interpolation": 2}]}, "perspective_c2_x": {"Points": [{"co": {"Y": -1, "X": 1}, "interpolation": 2}]}, "perspective_c1_x": {"Points": [{"co": {"Y": -1, "X": 1}, "interpolation": 2}]}, "anchor": 0, "alpha": {"Points": [{"handle_right": {"Y": 0, "X": 0.5}, "handle_type": 0, "handle_left": {"Y": 1, "X": 0.5}, "co": {"Y": 1, "X": 1}, "interpolation": 0}, {"handle_right": {"Y": 0, "X": 0.5}, "handle_type": 0, "handle_left": {"Y": 1, "X": 0.5}, "co": {"Y": 0, "X": 1}, "interpolation": 0}, {"handle_right": {"Y": 0, "X": 0.5}, "handle_type": 0, "handle_left": {"Y": 1, "X": 0.5}, "co": {"Y": 1, "X": 73}, "interpolation": 0}, {"handle_right": {"Y": 0, "X": 0.5}, "handle_type": 0, "handle_left": {"Y": 1, "X": 0.5}, "co": {"Y": 1, "X": 644}, "interpolation": 0}, {"handle_right": {"Y": 0, "X": 0.5}, "handle_type": 0, "handle_left": {"Y": 1, "X": 0.5}, "co": {"Y": 0, "X": 716}, "interpolation": 0}]}, "id": "F2MA5NTJGV", "layer": 1, "file_id": "MJ87OKNJXE", "display": 0, "scale": 1, "gravity": 4, "crop_width": {"Points": [{"co": {"Y": -1, "X": 1}, "interpolation": 2}]}, "crop_x": {"Points": [{"co": {"Y": 0, "X": 1}, "interpolation": 2}]}, "shear_x": {"Points": [{"co": {"Y": 0, "X": 1}, "interpolation": 2}]}, "volume": {"Points": [{"co": {"Y": 1, "X": 1}, "interpolation": 2}]}, "start": 0, "rotation": {"Points": [{"co": {"Y": 0, "X": 1}, "interpolation": 2}]}, "reader": {"video_stream_index": 0, "video_length": "1575", "interlaced_frame": false, "audio_bit_rate": 0, "audio_timebase": {"den": 1, "num": 1}, "vcodec": "h264", "channels": 0, "has_video": true, "channel_layout": 4, "has_audio": false, "video_timebase": {"den": 1000, "num": 1}, "has_single_image": false, "acodec": "", "video_bit_rate": 62654, "display_ratio": {"den": 186, "num": 325}, "audio_stream_index": -1, "type": "FFmpegReader", "top_field_first": true, "width": 1300, "pixel_ratio": {"den": 1, "num": 1}, "height": 744, "duration": 63.0, "file_size": "499047", "path": "/home/milind/Data/Projects/ProgressCard/!150-Inserted GRADE in REMARK.mkv", "fps": {"den": 1, "num": 25}, "pixel_format": 0, "sample_rate": 0}, "position": 266.32359375, "has_video": {"Points": [{"co": {"Y": -1, "X": 1}, "interpolation": 2}]}, "has_audio": {"Points": [{"co": {"Y": -1, "X": 1}, "interpolation": 2}]}, "channel_mapping": {"Points": [{"co": {"Y": -1, "X": 1}, "interpolation": 2}]}, "shear_y": {"Points": [{"co": {"Y": 0, "X": 1}, "interpolation": 2}]}, "perspective_c3_y": {"Points": [{"co": {"Y": -1, "X": 1}, "interpolation": 2}]}, "waveform": false, "end": 29.791666666666668, "scale_x": {"Points": [{"co": {"Y": 1.7000000476837158, "X": 1}, "interpolation": 2}]}, "image": "/home/milind/.openshot_qt/thumbnail/MJ87OKNJXE.png", "location_y": {"Points": [{"co": {"Y": 0.30000001192092896, "X": 1}, "interpolation": 2}]}, "crop_y": {"Points": [{"co": {"Y": 0, "X": 1}, "interpolation": 2}]}, "perspective_c2_y": {"Points": [{"co": {"Y": -1, "X": 1}, "interpolation": 2}]}, "perspective_c1_y": {"Points": [{"co": {"Y": -1, "X": 1}, "interpolation": 2}]}, "title": "!150-Inserted GRADE in REMARK.mkv", "perspective_c4_y": {"Points": [{"co": {"Y": -1, "X": 1}, "interpolation": 2}]}, "duration": 30.0, "wave_color": {"red": {"Points": [{"handle_right": {"Y": 0, "X": 0.5}, "handle_type": 0, "handle_left": {"Y": 1, "X": 0.5}, "co": {"Y": 0, "X": 1}, "interpolation": 0}]}, "green": {"Points": [{"handle_right": {"Y": 0, "X": 0.5}, "handle_type": 0, "handle_left": {"Y": 1, "X": 0.5}, "co": {"Y": 123, "X": 1}, "interpolation": 0}]}, "blue": {"Points": [{"handle_right": {"Y": 0, "X": 0.5}, "handle_type": 0, "handle_left": {"Y": 1, "X": 0.5}, "co": {"Y": 255, "X": 1}, "interpolation": 0}]}, "alpha": {"Points": [{"handle_right": {"Y": 0, "X": 0.5}, "handle_type": 0, "handle_left": {"Y": 1, "X": 0.5}, "co": {"Y": 255, "X": 1}, "interpolation": 0}]}}, "time": {"Points": [{"co": {"Y": 1, "X": 1}, "interpolation": 1}, {"co": {"Y": 1429, "X": 715}, "interpolation": 1}]}, "crop_height": {"Points": [{"co": {"Y": -1, "X": 1}, "interpolation": 2}]}, "scale_y": {"Points": [{"co": {"Y": 1.7000000476837158, "X": 1}, "interpolation": 2}]}, "effects": []}, {"location_x": {"Points": [{"co": {"Y": 0, "X": 1}, "interpolation": 2}]}, "perspective_c3_x": {"Points": [{"co": {"Y": -1, "X": 1}, "interpolation": 2}]}, "perspective_c4_x": {"Points": [{"co": {"Y": -1, "X": 1}, "interpolation": 2}]}, "channel_filter": {"Points": [{"co": {"Y": -1, "X": 1}, "interpolation": 2}]}, "perspective_c2_x": {"Points": [{"co": {"Y": -1, "X": 1}, "interpolation": 2}]}, "perspective_c1_x": {"Points": [{"co": {"Y": -1, "X": 1}, "interpolation": 2}]}, "anchor": 0, "alpha": {"Points": [{"co": {"Y": 1, "X": 1}, "interpolation": 2}]}, "id": "04TSZRCDQD", "layer": 0, "file_id": "0F0RWXSQM9", "display": 0, "scale": 1, "gravity": 4, "crop_width": {"Points": [{"co": {"Y": -1, "X": 1}, "interpolation": 2}]}, "crop_x": {"Points": [{"co": {"Y": 0, "X": 1}, "interpolation": 2}]}, "shear_x": {"Points": [{"co": {"Y": 0, "X": 1}, "interpolation": 2}]}, "volume": {"Points": [{"co": {"Y": 1, "X": 1}, "interpolation": 2}]}, "start": 0, "rotation": {"Points": [{"co": {"Y": 0, "X": 1}, "interpolation": 2}]}, "reader": {"video_stream_index": -1, "video_length": "2592000", "interlaced_frame": false, "audio_bit_rate": 0, "audio_timebase": {"den": 1, "num": 1}, "vcodec": "", "channels": 0, "has_video": true, "channel_layout": 4, "has_audio": false, "video_timebase": {"den": 30, "num": 1}, "has_single_image": true, "acodec": "", "video_bit_rate": 0, "display_ratio": {"den": 9, "num": 16}, "audio_stream_index": -1, "type": "QtImageReader", "top_field_first": true, "width": 1920, "pixel_ratio": {"den": 1, "num": 1}, "height": 1080, "duration": 86400.0, "file_size": "8294400", "path": "/home/milind/Data/Projects/ProgressCard/!000-White-Background.svg", "fps": {"den": 1, "num": 30}, "pixel_format": -1, "sample_rate": 0}, "position": 66.13, "has_video": {"Points": [{"co": {"Y": -1, "X": 1}, "interpolation": 2}]}, "has_audio": {"Points": [{"co": {"Y": -1, "X": 1}, "interpolation": 2}]}, "channel_mapping": {"Points": [{"co": {"Y": -1, "X": 1}, "interpolation": 2}]}, "shear_y": {"Points": [{"co": {"Y": 0, "X": 1}, "interpolation": 2}]}, "perspective_c3_y": {"Points": [{"co": {"Y": -1, "X": 1}, "interpolation": 2}]}, "waveform": false, "end": 12.99, "scale_x": {"Points": [{"co": {"Y": 1, "X": 1}, "interpolation": 2}]}, "image": "/home/milind/.openshot_qt/thumbnail/0F0RWXSQM9.png", "location_y": {"Points": [{"co": {"Y": 0, "X": 1}, "interpolation": 2}]}, "crop_y": {"Points": [{"co": {"Y": 0, "X": 1}, "interpolation": 2}]}, "perspective_c2_y": {"Points": [{"co": {"Y": -1, "X": 1}, "interpolation": 2}]}, "perspective_c1_y": {"Points": [{"co": {"Y": -1, "X": 1}, "interpolation": 2}]}, "title": "!000-White-Background.svg", "perspective_c4_y": {"Points": [{"co": {"Y": -1, "X": 1}, "interpolation": 2}]}, "duration": 86400.0, "wave_color": {"red": {"Points": [{"handle_right": {"Y": 0, "X": 0.5}, "handle_type": 0, "handle_left": {"Y": 1, "X": 0.5}, "co": {"Y": 0, "X": 1}, "interpolation": 0}]}, "green": {"Points": [{"handle_right": {"Y": 0, "X": 0.5}, "handle_type": 0, "handle_left": {"Y": 1, "X": 0.5}, "co": {"Y": 123, "X": 1}, "interpolation": 0}]}, "blue": {"Points": [{"handle_right": {"Y": 0, "X": 0.5}, "handle_type": 0, "handle_left": {"Y": 1, "X": 0.5}, "co": {"Y": 255, "X": 1}, "interpolation": 0}]}, "alpha": {"Points": [{"handle_right": {"Y": 0, "X": 0.5}, "handle_type": 0, "handle_left": {"Y": 1, "X": 0.5}, "co": {"Y": 255, "X": 1}, "interpolation": 0}]}}, "time": {"Points": [{"co": {"Y": 1, "X": 1}, "interpolation": 2}]}, "crop_height": {"Points": [{"co": {"Y": -1, "X": 1}, "interpolation": 2}]}, "scale_y": {"Points": [{"co": {"Y": 1, "X": 1}, "interpolation": 2}]}, "effects": []}, {"location_x": {"Points": [{"co": {"Y": 0, "X": 1}, "interpolation": 2}]}, "perspective_c3_x": {"Points": [{"co": {"Y": -1, "X": 1}, "interpolation": 2}]}, "perspective_c4_x": {"Points": [{"co": {"Y": -1, "X": 1}, "interpolation": 2}]}, "channel_filter": {"Points": [{"co": {"Y": -1, "X": 1}, "interpolation": 2}]}, "perspective_c2_x": {"Points": [{"co": {"Y": -1, "X": 1}, "interpolation": 2}]}, "perspective_c1_x": {"Points": [{"co": {"Y": -1, "X": 1}, "interpolation": 2}]}, "anchor": 0, "alpha": {"Points": [{"co": {"Y": 1, "X": 1}, "interpolation": 2}, {"handle_right": {"Y": 0, "X": 0.5}, "handle_type": 0, "handle_left": {"Y": 1, "X": 0.5}, "co": {"Y": 0, "X": 1}, "interpolation": 0}, {"handle_right": {"Y": 0, "X": 0.5}, "handle_type": 0, "handle_left": {"Y": 1, "X": 0.5}, "co": {"Y": 1, "X": 73}, "interpolation": 0}, {"handle_right": {"Y": 0, "X": 0.5}, "handle_type": 0, "handle_left": {"Y": 1, "X": 0.5}, "co": {"Y": 1, "X": 49}, "interpolation": 0}, {"handle_right": {"Y": 0, "X": 0.5}, "handle_type": 0, "handle_left": {"Y": 1, "X": 0.5}, "co": {"Y": 0, "X": 121}, "interpolation": 0}]}, "id": "YVXCHQZADD", "layer": 2, "file_id": "O28Z229VIU", "display": 0, "scale": 1, "gravity": 4, "crop_width": {"Points": [{"co": {"Y": -1, "X": 1}, "interpolation": 2}]}, "crop_x": {"Points": [{"co": {"Y": 0, "X": 1}, "interpolation": 2}]}, "shear_x": {"Points": [{"co": {"Y": 0, "X": 1}, "interpolation": 2}]}, "volume": {"Points": [{"co": {"Y": 1, "X": 1}, "interpolation": 2}]}, "start": 0, "rotation": {"Points": [{"co": {"Y": 0, "X": 1}, "interpolation": 2}]}, "reader": {"video_stream_index": -1, "video_length": "2592000", "interlaced_frame": false, "audio_bit_rate": 0, "audio_timebase": {"den": 1, "num": 1}, "vcodec": "", "channels": 0, "has_video": true, "channel_layout": 4, "has_audio": false, "video_timebase": {"den": 30, "num": 1}, "has_single_image": true, "acodec": "", "video_bit_rate": 0, "display_ratio": {"den": 3827, "num": 6803}, "audio_stream_index": -1, "type": "QtImageReader", "top_field_first": true, "width": 6803, "pixel_ratio": {"den": 1, "num": 1}, "height": 3827, "duration": 86400.0, "file_size": "104140324", "path": "/home/milind/Data/Projects/ProgressCard/!072-Grace Total.svg", "fps": {"den": 1, "num": 30}, "pixel_format": -1, "sample_rate": 0}, "position": 11.708333333333332, "has_video": {"Points": [{"co": {"Y": -1, "X": 1}, "interpolation": 2}]}, "has_audio": {"Points": [{"co": {"Y": -1, "X": 1}, "interpolation": 2}]}, "channel_mapping": {"Points": [{"co": {"Y": -1, "X": 1}, "interpolation": 2}]}, "shear_y": {"Points": [{"co": {"Y": 0, "X": 1}, "interpolation": 2}]}, "perspective_c3_y": {"Points": [{"co": {"Y": -1, "X": 1}, "interpolation": 2}]}, "waveform": false, "end": 5, "scale_x": {"Points": [{"co": {"Y": 1, "X": 1}, "interpolation": 2}]}, "image": "/home/milind/.openshot_qt/thumbnail/O28Z229VIU.png", "location_y": {"Points": [{"co": {"Y": 0, "X": 1}, "interpolation": 2}]}, "crop_y": {"Points": [{"co": {"Y": 0, "X": 1}, "interpolation": 2}]}, "perspective_c2_y": {"Points": [{"co": {"Y": -1, "X": 1}, "interpolation": 2}]}, "perspective_c1_y": {"Points": [{"co": {"Y": -1, "X": 1}, "interpolation": 2}]}, "title": "!072-Grace Total.svg", "perspective_c4_y": {"Points": [{"co": {"Y": -1, "X": 1}, "interpolation": 2}]}, "duration": 86400.0, "wave_color": {"red": {"Points": [{"handle_right": {"Y": 0, "X": 0.5}, "handle_type": 0, "handle_left": {"Y": 1, "X": 0.5}, "co": {"Y": 0, "X": 1}, "interpolation": 0}]}, "green": {"Points": [{"handle_right": {"Y": 0, "X": 0.5}, "handle_type": 0, "handle_left": {"Y": 1, "X": 0.5}, "co": {"Y": 123, "X": 1}, "interpolation": 0}]}, "blue": {"Points": [{"handle_right": {"Y": 0, "X": 0.5}, "handle_type": 0, "handle_left": {"Y": 1, "X": 0.5}, "co": {"Y": 255, "X": 1}, "interpolation": 0}]}, "alpha": {"Points": [{"handle_right": {"Y": 0, "X": 0.5}, "handle_type": 0, "handle_left": {"Y": 1, "X": 0.5}, "co": {"Y": 255, "X": 1}, "interpolation": 0}]}}, "time": {"Points": [{"co": {"Y": 1, "X": 1}, "interpolation": 2}]}, "crop_height": {"Points": [{"co": {"Y": -1, "X": 1}, "interpolation": 2}]}, "scale_y": {"Points": [{"co": {"Y": 1, "X": 1}, "interpolation": 2}]}, "effects": []}, {"location_x": {"Points": [{"co": {"Y": 0, "X": 1}, "interpolation": 2}]}, "perspective_c3_x": {"Points": [{"co": {"Y": -1, "X": 1}, "interpolation": 2}]}, "perspective_c4_x": {"Points": [{"co": {"Y": -1, "X": 1}, "interpolation": 2}]}, "channel_filter": {"Points": [{"co": {"Y": -1, "X": 1}, "interpolation": 2}]}, "perspective_c2_x": {"Points": [{"co": {"Y": -1, "X": 1}, "interpolation": 2}]}, "perspective_c1_x": {"Points": [{"co": {"Y": -1, "X": 1}, "interpolation": 2}]}, "anchor": 0, "alpha": {"Points": [{"co": {"Y": 1, "X": 1}, "interpolation": 2}, {"handle_right": {"Y": 0, "X": 0.5}, "handle_type": 0, "handle_left": {"Y": 1, "X": 0.5}, "co": {"Y": 0, "X": 1}, "interpolation": 0}, {"handle_right": {"Y": 0, "X": 0.5}, "handle_type": 0, "handle_left": {"Y": 1, "X": 0.5}, "co": {"Y": 1, "X": 73}, "interpolation": 0}, {"handle_right": {"Y": 0, "X": 0.5}, "handle_type": 0, "handle_left": {"Y": 1, "X": 0.5}, "co": {"Y": 1, "X": 49}, "interpolation": 0}, {"handle_right": {"Y": 0, "X": 0.5}, "handle_type": 0, "handle_left": {"Y": 1, "X": 0.5}, "co": {"Y": 0, "X": 121}, "interpolation": 0}]}, "id": "GPTZ9M5371", "layer": 2, "file_id": "BUXZX40N2J", "display": 0, "scale": 1, "gravity": 4, "crop_width": {"Points": [{"co": {"Y": -1, "X": 1}, "interpolation": 2}]}, "crop_x": {"Points": [{"co": {"Y": 0, "X": 1}, "interpolation": 2}]}, "shear_x": {"Points": [{"co": {"Y": 0, "X": 1}, "interpolation": 2}]}, "volume": {"Points": [{"co": {"Y": 1, "X": 1}, "interpolation": 2}]}, "start": 0, "rotation": {"Points": [{"co": {"Y": 0, "X": 1}, "interpolation": 2}]}, "reader": {"video_stream_index": -1, "video_length": "2592000", "interlaced_frame": false, "audio_bit_rate": 0, "audio_timebase": {"den": 1, "num": 1}, "vcodec": "", "channels": 0, "has_video": true, "channel_layout": 4, "has_audio": false, "video_timebase": {"den": 30, "num": 1}, "has_single_image": true, "acodec": "", "video_bit_rate": 0, "display_ratio": {"den": 3827, "num": 6803}, "audio_stream_index": -1, "type": "QtImageReader", "top_field_first": true, "width": 6803, "pixel_ratio": {"den": 1, "num": 1}, "height": 3827, "duration": 86400.0, "file_size": "104140324", "path": "/home/milind/Data/Projects/ProgressCard/!073-Graced Subject Count.svg", "fps": {"den": 1, "num": 30}, "pixel_format": -1, "sample_rate": 0}, "position": 24.125000000000004, "has_video": {"Points": [{"co": {"Y": -1, "X": 1}, "interpolation": 2}]}, "has_audio": {"Points": [{"co": {"Y": -1, "X": 1}, "interpolation": 2}]}, "channel_mapping": {"Points": [{"co": {"Y": -1, "X": 1}, "interpolation": 2}]}, "shear_y": {"Points": [{"co": {"Y": 0, "X": 1}, "interpolation": 2}]}, "perspective_c3_y": {"Points": [{"co": {"Y": -1, "X": 1}, "interpolation": 2}]}, "waveform": false, "end": 5, "scale_x": {"Points": [{"co": {"Y": 1, "X": 1}, "interpolation": 2}]}, "image": "/home/milind/.openshot_qt/thumbnail/BUXZX40N2J.png", "location_y": {"Points": [{"co": {"Y": 0, "X": 1}, "interpolation": 2}]}, "crop_y": {"Points": [{"co": {"Y": 0, "X": 1}, "interpolation": 2}]}, "perspective_c2_y": {"Points": [{"co": {"Y": -1, "X": 1}, "interpolation": 2}]}, "perspective_c1_y": {"Points": [{"co": {"Y": -1, "X": 1}, "interpolation": 2}]}, "title": "!073-Graced Subject Count.svg", "perspective_c4_y": {"Points": [{"co": {"Y": -1, "X": 1}, "interpolation": 2}]}, "duration": 86400.0, "wave_color": {"red": {"Points": [{"handle_right": {"Y": 0, "X": 0.5}, "handle_type": 0, "handle_left": {"Y": 1, "X": 0.5}, "co": {"Y": 0, "X": 1}, "interpolation": 0}]}, "green": {"Points": [{"handle_right": {"Y": 0, "X": 0.5}, "handle_type": 0, "handle_left": {"Y": 1, "X": 0.5}, "co": {"Y": 123, "X": 1}, "interpolation": 0}]}, "blue": {"Points": [{"handle_right": {"Y": 0, "X": 0.5}, "handle_type": 0, "handle_left": {"Y": 1, "X": 0.5}, "co": {"Y": 255, "X": 1}, "interpolation": 0}]}, "alpha": {"Points": [{"handle_right": {"Y": 0, "X": 0.5}, "handle_type": 0, "handle_left": {"Y": 1, "X": 0.5}, "co": {"Y": 255, "X": 1}, "interpolation": 0}]}}, "time": {"Points": [{"co": {"Y": 1, "X": 1}, "interpolation": 2}]}, "crop_height": {"Points": [{"co": {"Y": -1, "X": 1}, "interpolation": 2}]}, "scale_y": {"Points": [{"co": {"Y": 1, "X": 1}, "interpolation": 2}]}, "effects": []}, {"location_x": {"Points": [{"co": {"Y": 0, "X": 1}, "interpolation": 2}]}, "perspective_c3_x": {"Points": [{"co": {"Y": -1, "X": 1}, "interpolation": 2}]}, "perspective_c4_x": {"Points": [{"co": {"Y": -1, "X": 1}, "interpolation": 2}]}, "channel_filter": {"Points": [{"co": {"Y": -1, "X": 1}, "interpolation": 2}]}, "perspective_c2_x": {"Points": [{"co": {"Y": -1, "X": 1}, "interpolation": 2}]}, "perspective_c1_x": {"Points": [{"co": {"Y": -1, "X": 1}, "interpolation": 2}]}, "anchor": 0, "alpha": {"Points": [{"co": {"Y": 1, "X": 1}, "interpolation": 2}, {"handle_right": {"Y": 0, "X": 0.5}, "handle_type": 0, "handle_left": {"Y": 1, "X": 0.5}, "co": {"Y": 0, "X": 1}, "interpolation": 0}, {"handle_right": {"Y": 0, "X": 0.5}, "handle_type": 0, "handle_left": {"Y": 1, "X": 0.5}, "co": {"Y": 1, "X": 73}, "interpolation": 0}, {"handle_right": {"Y": 0, "X": 0.5}, "handle_type": 0, "handle_left": {"Y": 1, "X": 0.5}, "co": {"Y": 1, "X": 49}, "interpolation": 0}, {"handle_right": {"Y": 0, "X": 0.5}, "handle_type": 0, "handle_left": {"Y": 1, "X": 0.5}, "co": {"Y": 0, "X": 121}, "interpolation": 0}]}, "id": "MH73AEFXVE", "layer": 2, "file_id": "MZ4ILBST6I", "display": 0, "scale": 1, "gravity": 4, "crop_width": {"Points": [{"co": {"Y": -1, "X": 1}, "interpolation": 2}]}, "crop_x": {"Points": [{"co": {"Y": 0, "X": 1}, "interpolation": 2}]}, "shear_x": {"Points": [{"co": {"Y": 0, "X": 1}, "interpolation": 2}]}, "volume": {"Points": [{"co": {"Y": 1, "X": 1}, "interpolation": 2}]}, "start": 0, "rotation": {"Points": [{"co": {"Y": 0, "X": 1}, "interpolation": 2}]}, "reader": {"video_stream_index": -1, "video_length": "2592000", "interlaced_frame": false, "audio_bit_rate": 0, "audio_timebase": {"den": 1, "num": 1}, "vcodec": "", "channels": 0, "has_video": true, "channel_layout": 4, "has_audio": false, "video_timebase": {"den": 30, "num": 1}, "has_single_image": true, "acodec": "", "video_bit_rate": 0, "display_ratio": {"den": 3827, "num": 6803}, "audio_stream_index": -1, "type": "QtImageReader", "top_field_first": true, "width": 6803, "pixel_ratio": {"den": 1, "num": 1}, "height": 3827, "duration": 86400.0, "file_size": "104140324", "path": "/home/milind/Data/Projects/ProgressCard/!074-Grace Greater Than 10.svg", "fps": {"den": 1, "num": 30}, "pixel_format": -1, "sample_rate": 0}, "position": 39.458333333333336, "has_video": {"Points": [{"co": {"Y": -1, "X": 1}, "interpolation": 2}]}, "has_audio": {"Points": [{"co": {"Y": -1, "X": 1}, "interpolation": 2}]}, "channel_mapping": {"Points": [{"co": {"Y": -1, "X": 1}, "interpolation": 2}]}, "shear_y": {"Points": [{"co": {"Y": 0, "X": 1}, "interpolation": 2}]}, "perspective_c3_y": {"Points": [{"co": {"Y": -1, "X": 1}, "interpolation": 2}]}, "waveform": false, "end": 5, "scale_x": {"Points": [{"co": {"Y": 1, "X": 1}, "interpolation": 2}]}, "image": "/home/milind/.openshot_qt/thumbnail/MZ4ILBST6I.png", "location_y": {"Points": [{"co": {"Y": 0, "X": 1}, "interpolation": 2}]}, "crop_y": {"Points": [{"co": {"Y": 0, "X": 1}, "interpolation": 2}]}, "perspective_c2_y": {"Points": [{"co": {"Y": -1, "X": 1}, "interpolation": 2}]}, "perspective_c1_y": {"Points": [{"co": {"Y": -1, "X": 1}, "interpolation": 2}]}, "title": "!074-Grace Greater Than 10.svg", "perspective_c4_y": {"Points": [{"co": {"Y": -1, "X": 1}, "interpolation": 2}]}, "duration": 86400.0, "wave_color": {"red": {"Points": [{"handle_right": {"Y": 0, "X": 0.5}, "handle_type": 0, "handle_left": {"Y": 1, "X": 0.5}, "co": {"Y": 0, "X": 1}, "interpolation": 0}]}, "green": {"Points": [{"handle_right": {"Y": 0, "X": 0.5}, "handle_type": 0, "handle_left": {"Y": 1, "X": 0.5}, "co": {"Y": 123, "X": 1}, "interpolation": 0}]}, "blue": {"Points": [{"handle_right": {"Y": 0, "X": 0.5}, "handle_type": 0, "handle_left": {"Y": 1, "X": 0.5}, "co": {"Y": 255, "X": 1}, "interpolation": 0}]}, "alpha": {"Points": [{"handle_right": {"Y": 0, "X": 0.5}, "handle_type": 0, "handle_left": {"Y": 1, "X": 0.5}, "co": {"Y": 255, "X": 1}, "interpolation": 0}]}}, "time": {"Points": [{"co": {"Y": 1, "X": 1}, "interpolation": 2}]}, "crop_height": {"Points": [{"co": {"Y": -1, "X": 1}, "interpolation": 2}]}, "scale_y": {"Points": [{"co": {"Y": 1, "X": 1}, "interpolation": 2}]}, "effects": []}, {"location_x": {"Points": [{"co": {"Y": 0, "X": 1}, "interpolation": 2}]}, "perspective_c3_x": {"Points": [{"co": {"Y": -1, "X": 1}, "interpolation": 2}]}, "perspective_c4_x": {"Points": [{"co": {"Y": -1, "X": 1}, "interpolation": 2}]}, "channel_filter": {"Points": [{"co": {"Y": -1, "X": 1}, "interpolation": 2}]}, "perspective_c2_x": {"Points": [{"co": {"Y": -1, "X": 1}, "interpolation": 2}]}, "perspective_c1_x": {"Points": [{"co": {"Y": -1, "X": 1}, "interpolation": 2}]}, "anchor": 0, "alpha": {"Points": [{"co": {"Y": 1, "X": 1}, "interpolation": 2}, {"handle_right": {"Y": 0, "X": 0.5}, "handle_type": 0, "handle_left": {"Y": 1, "X": 0.5}, "co": {"Y": 0, "X": 1}, "interpolation": 0}, {"handle_right": {"Y": 0, "X": 0.5}, "handle_type": 0, "handle_left": {"Y": 1, "X": 0.5}, "co": {"Y": 1, "X": 73}, "interpolation": 0}, {"handle_right": {"Y": 0, "X": 0.5}, "handle_type": 0, "handle_left": {"Y": 1, "X": 0.5}, "co": {"Y": 1, "X": 49}, "interpolation": 0}, {"handle_right": {"Y": 0, "X": 0.5}, "handle_type": 0, "handle_left": {"Y": 1, "X": 0.5}, "co": {"Y": 0, "X": 121}, "interpolation": 0}]}, "id": "2D6KOKWEJY", "layer": 2, "file_id": "55LKUBO9MG", "display": 0, "scale": 1, "gravity": 4, "crop_width": {"Points": [{"co": {"Y": -1, "X": 1}, "interpolation": 2}]}, "crop_x": {"Points": [{"co": {"Y": 0, "X": 1}, "interpolation": 2}]}, "shear_x": {"Points": [{"co": {"Y": 0, "X": 1}, "interpolation": 2}]}, "volume": {"Points": [{"co": {"Y": 1, "X": 1}, "interpolation": 2}]}, "start": 0, "rotation": {"Points": [{"co": {"Y": 0, "X": 1}, "interpolation": 2}]}, "reader": {"video_stream_index": -1, "video_length": "2592000", "interlaced_frame": false, "audio_bit_rate": 0, "audio_timebase": {"den": 1, "num": 1}, "vcodec": "", "channels": 0, "has_video": true, "channel_layout": 4, "has_audio": false, "video_timebase": {"den": 30, "num": 1}, "has_single_image": true, "acodec": "", "video_bit_rate": 0, "display_ratio": {"den": 3827, "num": 6803}, "audio_stream_index": -1, "type": "QtImageReader", "top_field_first": true, "width": 6803, "pixel_ratio": {"den": 1, "num": 1}, "height": 3827, "duration": 86400.0, "file_size": "104140324", "path": "/home/milind/Data/Projects/ProgressCard/!001-Copy (Ctrl-C).svg", "fps": {"den": 1, "num": 30}, "pixel_format": -1, "sample_rate": 0}, "position": 56.791666666666664, "has_video": {"Points": [{"co": {"Y": -1, "X": 1}, "interpolation": 2}]}, "has_audio": {"Points": [{"co": {"Y": -1, "X": 1}, "interpolation": 2}]}, "channel_mapping": {"Points": [{"co": {"Y": -1, "X": 1}, "interpolation": 2}]}, "shear_y": {"Points": [{"co": {"Y": 0, "X": 1}, "interpolation": 2}]}, "perspective_c3_y": {"Points": [{"co": {"Y": -1, "X": 1}, "interpolation": 2}]}, "waveform": false, "end": 5, "scale_x": {"Points": [{"co": {"Y": 1, "X": 1}, "interpolation": 2}]}, "image": "/home/milind/.openshot_qt/thumbnail/55LKUBO9MG.png", "location_y": {"Points": [{"co": {"Y": 0, "X": 1}, "interpolation": 2}]}, "crop_y": {"Points": [{"co": {"Y": 0, "X": 1}, "interpolation": 2}]}, "perspective_c2_y": {"Points": [{"co": {"Y": -1, "X": 1}, "interpolation": 2}]}, "perspective_c1_y": {"Points": [{"co": {"Y": -1, "X": 1}, "interpolation": 2}]}, "title": "!001-Copy (Ctrl-C).svg", "perspective_c4_y": {"Points": [{"co": {"Y": -1, "X": 1}, "interpolation": 2}]}, "duration": 86400.0, "wave_color": {"red": {"Points": [{"handle_right": {"Y": 0, "X": 0.5}, "handle_type": 0, "handle_left": {"Y": 1, "X": 0.5}, "co": {"Y": 0, "X": 1}, "interpolation": 0}]}, "green": {"Points": [{"handle_right": {"Y": 0, "X": 0.5}, "handle_type": 0, "handle_left": {"Y": 1, "X": 0.5}, "co": {"Y": 123, "X": 1}, "interpolation": 0}]}, "blue": {"Points": [{"handle_right": {"Y": 0, "X": 0.5}, "handle_type": 0, "handle_left": {"Y": 1, "X": 0.5}, "co": {"Y": 255, "X": 1}, "interpolation": 0}]}, "alpha": {"Points": [{"handle_right": {"Y": 0, "X": 0.5}, "handle_type": 0, "handle_left": {"Y": 1, "X": 0.5}, "co": {"Y": 255, "X": 1}, "interpolation": 0}]}}, "time": {"Points": [{"co": {"Y": 1, "X": 1}, "interpolation": 2}]}, "crop_height": {"Points": [{"co": {"Y": -1, "X": 1}, "interpolation": 2}]}, "scale_y": {"Points": [{"co": {"Y": 1, "X": 1}, "interpolation": 2}]}, "effects": []}, {"location_x": {"Points": [{"co": {"Y": 0, "X": 1}, "interpolation": 2}]}, "perspective_c3_x": {"Points": [{"co": {"Y": -1, "X": 1}, "interpolation": 2}]}, "perspective_c4_x": {"Points": [{"co": {"Y": -1, "X": 1}, "interpolation": 2}]}, "channel_filter": {"Points": [{"co": {"Y": -1, "X": 1}, "interpolation": 2}]}, "perspective_c2_x": {"Points": [{"co": {"Y": -1, "X": 1}, "interpolation": 2}]}, "perspective_c1_x": {"Points": [{"co": {"Y": -1, "X": 1}, "interpolation": 2}]}, "anchor": 0, "alpha": {"Points": [{"co": {"Y": 1, "X": 1}, "interpolation": 2}, {"handle_right": {"Y": 0, "X": 0.5}, "handle_type": 0, "handle_left": {"Y": 1, "X": 0.5}, "co": {"Y": 0, "X": 1}, "interpolation": 0}, {"handle_right": {"Y": 0, "X": 0.5}, "handle_type": 0, "handle_left": {"Y": 1, "X": 0.5}, "co": {"Y": 1, "X": 73}, "interpolation": 0}, {"handle_right": {"Y": 0, "X": 0.5}, "handle_type": 0, "handle_left": {"Y": 1, "X": 0.5}, "co": {"Y": 1, "X": 49}, "interpolation": 0}, {"handle_right": {"Y": 0, "X": 0.5}, "handle_type": 0, "handle_left": {"Y": 1, "X": 0.5}, "co": {"Y": 0, "X": 121}, "interpolation": 0}]}, "id": "GS9HYSSMO4", "layer": 2, "file_id": "JP5L750RMR", "display": 0, "scale": 1, "gravity": 4, "crop_width": {"Points": [{"co": {"Y": -1, "X": 1}, "interpolation": 2}]}, "crop_x": {"Points": [{"co": {"Y": 0, "X": 1}, "interpolation": 2}]}, "shear_x": {"Points": [{"co": {"Y": 0, "X": 1}, "interpolation": 2}]}, "volume": {"Points": [{"co": {"Y": 1, "X": 1}, "interpolation": 2}]}, "start": 0, "rotation": {"Points": [{"co": {"Y": 0, "X": 1}, "interpolation": 2}]}, "reader": {"video_stream_index": -1, "video_length": "2592000", "interlaced_frame": false, "audio_bit_rate": 0, "audio_timebase": {"den": 1, "num": 1}, "vcodec": "", "channels": 0, "has_video": true, "channel_layout": 4, "has_audio": false, "video_timebase": {"den": 30, "num": 1}, "has_single_image": true, "acodec": "", "video_bit_rate": 0, "display_ratio": {"den": 3827, "num": 6803}, "audio_stream_index": -1, "type": "QtImageReader", "top_field_first": true, "width": 6803, "pixel_ratio": {"den": 1, "num": 1}, "height": 3827, "duration": 86400.0, "file_size": "104140324", "path": "/home/milind/Data/Projects/ProgressCard/!002-Paste (Ctrl-V).svg", "fps": {"den": 1, "num": 30}, "pixel_format": -1, "sample_rate": 0}, "position": 62.25, "has_video": {"Points": [{"co": {"Y": -1, "X": 1}, "interpolation": 2}]}, "has_audio": {"Points": [{"co": {"Y": -1, "X": 1}, "interpolation": 2}]}, "channel_mapping": {"Points": [{"co": {"Y": -1, "X": 1}, "interpolation": 2}]}, "shear_y": {"Points": [{"co": {"Y": 0, "X": 1}, "interpolation": 2}]}, "perspective_c3_y": {"Points": [{"co": {"Y": -1, "X": 1}, "interpolation": 2}]}, "waveform": false, "end": 5, "scale_x": {"Points": [{"co": {"Y": 1, "X": 1}, "interpolation": 2}]}, "image": "/home/milind/.openshot_qt/thumbnail/JP5L750RMR.png", "location_y": {"Points": [{"co": {"Y": 0, "X": 1}, "interpolation": 2}]}, "crop_y": {"Points": [{"co": {"Y": 0, "X": 1}, "interpolation": 2}]}, "perspective_c2_y": {"Points": [{"co": {"Y": -1, "X": 1}, "interpolation": 2}]}, "perspective_c1_y": {"Points": [{"co": {"Y": -1, "X": 1}, "interpolation": 2}]}, "title": "!002-Paste (Ctrl-V).svg", "perspective_c4_y": {"Points": [{"co": {"Y": -1, "X": 1}, "interpolation": 2}]}, "duration": 86400.0, "wave_color": {"red": {"Points": [{"handle_right": {"Y": 0, "X": 0.5}, "handle_type": 0, "handle_left": {"Y": 1, "X": 0.5}, "co": {"Y": 0, "X": 1}, "interpolation": 0}]}, "green": {"Points": [{"handle_right": {"Y": 0, "X": 0.5}, "handle_type": 0, "handle_left": {"Y": 1, "X": 0.5}, "co": {"Y": 123, "X": 1}, "interpolation": 0}]}, "blue": {"Points": [{"handle_right": {"Y": 0, "X": 0.5}, "handle_type": 0, "handle_left": {"Y": 1, "X": 0.5}, "co": {"Y": 255, "X": 1}, "interpolation": 0}]}, "alpha": {"Points": [{"handle_right": {"Y": 0, "X": 0.5}, "handle_type": 0, "handle_left": {"Y": 1, "X": 0.5}, "co": {"Y": 255, "X": 1}, "interpolation": 0}]}}, "time": {"Points": [{"co": {"Y": 1, "X": 1}, "interpolation": 2}]}, "crop_height": {"Points": [{"co": {"Y": -1, "X": 1}, "interpolation": 2}]}, "scale_y": {"Points": [{"co": {"Y": 1, "X": 1}, "interpolation": 2}]}, "effects": []}, {"location_x": {"Points": [{"co": {"Y": 0, "X": 1}, "interpolation": 2}]}, "perspective_c3_y": {"Points": [{"co": {"Y": -1, "X": 1}, "interpolation": 2}]}, "shear_x": {"Points": [{"co": {"Y": 0, "X": 1}, "interpolation": 2}]}, "channel_filter": {"Points": [{"co": {"Y": -1, "X": 1}, "interpolation": 2}]}, "duration": 86400.0, "perspective_c1_x": {"Points": [{"co": {"Y": -1, "X": 1}, "interpolation": 2}]}, "perspective_c2_x": {"Points": [{"co": {"Y": -1, "X": 1}, "interpolation": 2}]}, "alpha": {"Points": [{"co": {"Y": 1, "X": 1}, "interpolation": 2}, {"handle_right": {"Y": 0, "X": 0.5}, "handle_type": 0, "handle_left": {"Y": 1, "X": 0.5}, "co": {"Y": 0, "X": 1}, "interpolation": 0}, {"handle_right": {"Y": 0, "X": 0.5}, "handle_type": 0, "handle_left": {"Y": 1, "X": 0.5}, "co": {"Y": 1, "X": 73}, "interpolation": 0}, {"handle_right": {"Y": 0, "X": 0.5}, "handle_type": 0, "handle_left": {"Y": 1, "X": 0.5}, "co": {"Y": 1, "X": 49}, "interpolation": 0}, {"handle_right": {"Y": 0, "X": 0.5}, "handle_type": 0, "handle_left": {"Y": 1, "X": 0.5}, "co": {"Y": 0, "X": 121}, "interpolation": 0}]}, "id": "J2KJS854LX", "layer": 1, "display": 0, "scale": 1, "gravity": 4, "crop_width": {"Points": [{"co": {"Y": -1, "X": 1}, "interpolation": 2}]}, "crop_x": {"Points": [{"co": {"Y": 0, "X": 1}, "interpolation": 2}]}, "perspective_c4_x": {"Points": [{"co": {"Y": -1, "X": 1}, "interpolation": 2}]}, "volume": {"Points": [{"co": {"Y": 1, "X": 1}, "interpolation": 2}]}, "has_audio": {"Points": [{"co": {"Y": -1, "X": 1}, "interpolation": 2}]}, "rotation": {"Points": [{"co": {"Y": 0, "X": 1}, "interpolation": 2}]}, "crop_y": {"Points": [{"co": {"Y": 0, "X": 1}, "interpolation": 2}]}, "position": 69.76906249999999, "has_video": {"Points": [{"co": {"Y": -1, "X": 1}, "interpolation": 2}]}, "start": 0, "channel_mapping": {"Points": [{"co": {"Y": -1, "X": 1}, "interpolation": 2}]}, "shear_y": {"Points": [{"co": {"Y": 0, "X": 1}, "interpolation": 2}]}, "end": 5, "waveform": false, "perspective_c3_x": {"Points": [{"co": {"Y": -1, "X": 1}, "interpolation": 2}]}, "scale_x": {"Points": [{"co": {"Y": 1, "X": 1}, "interpolation": 2}]}, "image": "/home/milind/.openshot_qt/thumbnail/9MDVH2JM9J.png", "location_y": {"Points": [{"co": {"Y": 0, "X": 1}, "interpolation": 2}]}, "crop_height": {"Points": [{"co": {"Y": -1, "X": 1}, "interpolation": 2}]}, "perspective_c2_y": {"Points": [{"co": {"Y": -1, "X": 1}, "interpolation": 2}]}, "perspective_c1_y": {"Points": [{"co": {"Y": -1, "X": 1}, "interpolation": 2}]}, "title": "!085-Pass or Fail.svg", "perspective_c4_y": {"Points": [{"co": {"Y": -1, "X": 1}, "interpolation": 2}]}, "anchor": 0, "wave_color": {"red": {"Points": [{"handle_right": {"Y": 0, "X": 0.5}, "handle_type": 0, "handle_left": {"Y": 1, "X": 0.5}, "co": {"Y": 0, "X": 1}, "interpolation": 0}]}, "green": {"Points": [{"handle_right": {"Y": 0, "X": 0.5}, "handle_type": 0, "handle_left": {"Y": 1, "X": 0.5}, "co": {"Y": 123, "X": 1}, "interpolation": 0}]}, "blue": {"Points": [{"handle_right": {"Y": 0, "X": 0.5}, "handle_type": 0, "handle_left": {"Y": 1, "X": 0.5}, "co": {"Y": 255, "X": 1}, "interpolation": 0}]}, "alpha": {"Points": [{"handle_right": {"Y": 0, "X": 0.5}, "handle_type": 0, "handle_left": {"Y": 1, "X": 0.5}, "co": {"Y": 255, "X": 1}, "interpolation": 0}]}}, "time": {"Points": [{"co": {"Y": 1, "X": 1}, "interpolation": 2}]}, "effects": [], "file_id": "9MDVH2JM9J", "scale_y": {"Points": [{"co": {"Y": 1, "X": 1}, "interpolation": 2}]}, "reader": {"video_stream_index": -1, "video_length": "2592000", "interlaced_frame": false, "audio_bit_rate": 0, "audio_timebase": {"den": 1, "num": 1}, "vcodec": "", "channels": 0, "has_video": true, "channel_layout": 4, "has_audio": false, "video_timebase": {"den": 30, "num": 1}, "has_single_image": true, "acodec": "", "video_bit_rate": 0, "display_ratio": {"den": 3827, "num": 6803}, "audio_stream_index": -1, "type": "QtImageReader", "top_field_first": true, "width": 6803, "pixel_ratio": {"den": 1, "num": 1}, "height": 3827, "duration": 86400.0, "file_size": "104140324", "path": "/home/milind/Data/Projects/ProgressCard/!085-Pass or Fail.svg", "fps": {"den": 1, "num": 30}, "pixel_format": -1, "sample_rate": 0}}, {"location_x": {"Points": [{"co": {"Y": 0, "X": 1}, "interpolation": 2}]}, "perspective_c3_x": {"Points": [{"co": {"Y": -1, "X": 1}, "interpolation": 2}]}, "perspective_c4_x": {"Points": [{"co": {"Y": -1, "X": 1}, "interpolation": 2}]}, "channel_filter": {"Points": [{"co": {"Y": -1, "X": 1}, "interpolation": 2}]}, "crop_height": {"Points": [{"co": {"Y": -1, "X": 1}, "interpolation": 2}]}, "perspective_c2_x": {"Points": [{"co": {"Y": -1, "X": 1}, "interpolation": 2}]}, "perspective_c1_x": {"Points": [{"co": {"Y": -1, "X": 1}, "interpolation": 2}]}, "anchor": 0, "alpha": {"Points": [{"handle_right": {"Y": 0, "X": 0.5}, "handle_type": 0, "handle_left": {"Y": 1, "X": 0.5}, "co": {"Y": 1, "X": 1}, "interpolation": 0}, {"handle_right": {"Y": 0, "X": 0.5}, "handle_type": 0, "handle_left": {"Y": 1, "X": 0.5}, "co": {"Y": 0, "X": 1}, "interpolation": 0}, {"handle_right": {"Y": 0, "X": 0.5}, "handle_type": 0, "handle_left": {"Y": 1, "X": 0.5}, "co": {"Y": 1, "X": 73}, "interpolation": 0}, {"handle_right": {"Y": 0, "X": 0.5}, "handle_type": 0, "handle_left": {"Y": 1, "X": 0.5}, "co": {"Y": 1, "X": 375}, "interpolation": 0}, {"handle_right": {"Y": 0, "X": 0.5}, "handle_type": 0, "handle_left": {"Y": 1, "X": 0.5}, "co": {"Y": 0, "X": 447}, "interpolation": 0}]}, "id": "UX3VY9TAZP", "layer": 2, "display": 0, "scale": 1, "gravity": 4, "crop_width": {"Points": [{"co": {"Y": -1, "X": 1}, "interpolation": 2}]}, "crop_x": {"Points": [{"co": {"Y": 0, "X": 1}, "interpolation": 2}]}, "shear_x": {"Points": [{"co": {"Y": 0, "X": 1}, "interpolation": 2}]}, "volume": {"Points": [{"co": {"Y": 1, "X": 1}, "interpolation": 2}]}, "has_audio": {"Points": [{"co": {"Y": -1, "X": 1}, "interpolation": 2}]}, "title": "!086-IF GT,GC,TC.svg", "reader": {"video_stream_index": -1, "video_length": "2592000", "interlaced_frame": false, "audio_bit_rate": 0, "audio_timebase": {"den": 1, "num": 1}, "vcodec": "", "channels": 0, "has_video": true, "channel_layout": 4, "has_audio": false, "video_timebase": {"den": 30, "num": 1}, "has_single_image": true, "acodec": "", "video_bit_rate": 0, "display_ratio": {"den": 3827, "num": 6803}, "audio_stream_index": -1, "type": "QtImageReader", "top_field_first": true, "width": 6803, "pixel_ratio": {"den": 1, "num": 1}, "height": 3827, "duration": 86400.0, "file_size": "104140324", "path": "/home/milind/Data/Projects/ProgressCard/!086-IF GT,GC,TC.svg", "fps": {"den": 1, "num": 30}, "pixel_format": -1, "sample_rate": 0}, "position": 85.265625, "has_video": {"Points": [{"co": {"Y": -1, "X": 1}, "interpolation": 2}]}, "start": 0, "channel_mapping": {"Points": [{"co": {"Y": -1, "X": 1}, "interpolation": 2}]}, "shear_y": {"Points": [{"co": {"Y": 0, "X": 1}, "interpolation": 2}]}, "perspective_c3_y": {"Points": [{"co": {"Y": -1, "X": 1}, "interpolation": 2}]}, "waveform": false, "end": 18.599999999999994, "scale_x": {"Points": [{"co": {"Y": 1, "X": 1}, "interpolation": 2}]}, "image": "/home/milind/.openshot_qt/thumbnail/DIHETX3WQ7.png", "location_y": {"Points": [{"co": {"Y": 0, "X": 1}, "interpolation": 2}]}, "crop_y": {"Points": [{"co": {"Y": 0, "X": 1}, "interpolation": 2}]}, "perspective_c2_y": {"Points": [{"co": {"Y": -1, "X": 1}, "interpolation": 2}]}, "perspective_c1_y": {"Points": [{"co": {"Y": -1, "X": 1}, "interpolation": 2}]}, "rotation": {"Points": [{"co": {"Y": 0, "X": 1}, "interpolation": 2}]}, "perspective_c4_y": {"Points": [{"co": {"Y": -1, "X": 1}, "interpolation": 2}]}, "duration": 86400.0, "wave_color": {"red": {"Points": [{"handle_right": {"Y": 0, "X": 0.5}, "handle_type": 0, "handle_left": {"Y": 1, "X": 0.5}, "co": {"Y": 0, "X": 1}, "interpolation": 0}]}, "green": {"Points": [{"handle_right": {"Y": 0, "X": 0.5}, "handle_type": 0, "handle_left": {"Y": 1, "X": 0.5}, "co": {"Y": 123, "X": 1}, "interpolation": 0}]}, "blue": {"Points": [{"handle_right": {"Y": 0, "X": 0.5}, "handle_type": 0, "handle_left": {"Y": 1, "X": 0.5}, "co": {"Y": 255, "X": 1}, "interpolation": 0}]}, "alpha": {"Points": [{"handle_right": {"Y": 0, "X": 0.5}, "handle_type": 0, "handle_left": {"Y": 1, "X": 0.5}, "co": {"Y": 255, "X": 1}, "interpolation": 0}]}}, "time": {"Points": [{"co": {"Y": 1, "X": 1}, "interpolation": 2}]}, "file_id": "DIHETX3WQ7", "scale_y": {"Points": [{"co": {"Y": 1, "X": 1}, "interpolation": 2}]}, "effects": []}, {"location_x": {"Points": [{"co": {"Y": 0, "X": 1}, "interpolation": 2}]}, "perspective_c4_x": {"Points": [{"co": {"Y": -1, "X": 1}, "interpolation": 2}]}, "channel_filter": {"Points": [{"co": {"Y": -1, "X": 1}, "interpolation": 2}]}, "duration": 86400.0, "perspective_c1_x": {"Points": [{"co": {"Y": -1, "X": 1}, "interpolation": 2}]}, "perspective_c2_x": {"Points": [{"co": {"Y": -1, "X": 1}, "interpolation": 2}]}, "alpha": {"Points": [{"co": {"Y": 1, "X": 1}, "interpolation": 2}, {"handle_right": {"Y": 0, "X": 0.5}, "handle_type": 0, "handle_left": {"Y": 1, "X": 0.5}, "co": {"Y": 0, "X": 1}, "interpolation": 0}, {"handle_right": {"Y": 0, "X": 0.5}, "handle_type": 0, "handle_left": {"Y": 1, "X": 0.5}, "co": {"Y": 1, "X": 73}, "interpolation": 0}, {"handle_right": {"Y": 0, "X": 0.5}, "handle_type": 0, "handle_left": {"Y": 1, "X": 0.5}, "co": {"Y": 1, "X": 49}, "interpolation": 0}, {"handle_right": {"Y": 0, "X": 0.5}, "handle_type": 0, "handle_left": {"Y": 1, "X": 0.5}, "co": {"Y": 0, "X": 121}, "interpolation": 0}]}, "id": "ISJOMX8TQ1", "layer": 2, "display": 0, "scale": 1, "gravity": 4, "crop_width": {"Points": [{"co": {"Y": -1, "X": 1}, "interpolation": 2}]}, "crop_x": {"Points": [{"co": {"Y": 0, "X": 1}, "interpolation": 2}]}, "shear_x": {"Points": [{"co": {"Y": 0, "X": 1}, "interpolation": 2}]}, "volume": {"Points": [{"co": {"Y": 1, "X": 1}, "interpolation": 2}]}, "start": 0, "end": 5, "title": "!105-Average.svg", "crop_y": {"Points": [{"co": {"Y": 0, "X": 1}, "interpolation": 2}]}, "reader": {"video_stream_index": -1, "video_length": "2592000", "interlaced_frame": false, "audio_bit_rate": 0, "audio_timebase": {"den": 1, "num": 1}, "vcodec": "", "channels": 0, "has_video": true, "channel_layout": 4, "has_audio": false, "video_timebase": {"den": 30, "num": 1}, "has_single_image": true, "acodec": "", "video_bit_rate": 0, "display_ratio": {"den": 3827, "num": 6803}, "audio_stream_index": -1, "type": "QtImageReader", "top_field_first": true, "width": 6803, "pixel_ratio": {"den": 1, "num": 1}, "height": 3827, "duration": 86400.0, "file_size": "104140324", "path": "/home/milind/Data/Projects/ProgressCard/!105-Average.svg", "fps": {"den": 1, "num": 30}, "pixel_format": -1, "sample_rate": 0}, "position": 128.11499999999998, "has_video": {"Points": [{"co": {"Y": -1, "X": 1}, "interpolation": 2}]}, "has_audio": {"Points": [{"co": {"Y": -1, "X": 1}, "interpolation": 2}]}, "channel_mapping": {"Points": [{"co": {"Y": -1, "X": 1}, "interpolation": 2}]}, "shear_y": {"Points": [{"co": {"Y": 0, "X": 1}, "interpolation": 2}]}, "perspective_c3_y": {"Points": [{"co": {"Y": -1, "X": 1}, "interpolation": 2}]}, "waveform": false, "perspective_c3_x": {"Points": [{"co": {"Y": -1, "X": 1}, "interpolation": 2}]}, "scale_x": {"Points": [{"co": {"Y": 1, "X": 1}, "interpolation": 2}]}, "image": "/home/milind/.openshot_qt/thumbnail/1QJRY2QLTK.png", "location_y": {"Points": [{"co": {"Y": 0, "X": 1}, "interpolation": 2}]}, "file_id": "1QJRY2QLTK", "perspective_c2_y": {"Points": [{"co": {"Y": -1, "X": 1}, "interpolation": 2}]}, "perspective_c1_y": {"Points": [{"co": {"Y": -1, "X": 1}, "interpolation": 2}]}, "rotation": {"Points": [{"co": {"Y": 0, "X": 1}, "interpolation": 2}]}, "perspective_c4_y": {"Points": [{"co": {"Y": -1, "X": 1}, "interpolation": 2}]}, "anchor": 0, "wave_color": {"red": {"Points": [{"handle_right": {"Y": 0, "X": 0.5}, "handle_type": 0, "handle_left": {"Y": 1, "X": 0.5}, "co": {"Y": 0, "X": 1}, "interpolation": 0}]}, "green": {"Points": [{"handle_right": {"Y": 0, "X": 0.5}, "handle_type": 0, "handle_left": {"Y": 1, "X": 0.5}, "co": {"Y": 123, "X": 1}, "interpolation": 0}]}, "blue": {"Points": [{"handle_right": {"Y": 0, "X": 0.5}, "handle_type": 0, "handle_left": {"Y": 1, "X": 0.5}, "co": {"Y": 255, "X": 1}, "interpolation": 0}]}, "alpha": {"Points": [{"handle_right": {"Y": 0, "X": 0.5}, "handle_type": 0, "handle_left": {"Y": 1, "X": 0.5}, "co": {"Y": 255, "X": 1}, "interpolation": 0}]}}, "time": {"Points": [{"co": {"Y": 1, "X": 1}, "interpolation": 2}]}, "crop_height": {"Points": [{"co": {"Y": -1, "X": 1}, "interpolation": 2}]}, "scale_y": {"Points": [{"co": {"Y": 1, "X": 1}, "interpolation": 2}]}, "effects": []}, {"location_x": {"Points": [{"handle_right": {"Y": 0, "X": 0.5}, "handle_type": 0, "handle_left": {"Y": 1, "X": 0.5}, "co": {"Y": 0, "X": 1}, "interpolation": 0}]}, "perspective_c4_x": {"Points": [{"co": {"Y": -1, "X": 1}, "interpolation": 2}]}, "channel_filter": {"Points": [{"co": {"Y": -1, "X": 1}, "interpolation": 2}]}, "duration": 86400.0, "perspective_c1_x": {"Points": [{"co": {"Y": -1, "X": 1}, "interpolation": 2}]}, "perspective_c2_x": {"Points": [{"co": {"Y": -1, "X": 1}, "interpolation": 2}]}, "alpha": {"Points": [{"co": {"Y": 1, "X": 1}, "interpolation": 2}, {"handle_right": {"Y": 0, "X": 0.5}, "handle_type": 0, "handle_left": {"Y": 1, "X": 0.5}, "co": {"Y": 0, "X": 1}, "interpolation": 0}, {"handle_right": {"Y": 0, "X": 0.5}, "handle_type": 0, "handle_left": {"Y": 1, "X": 0.5}, "co": {"Y": 1, "X": 73}, "interpolation": 0}, {"handle_right": {"Y": 0, "X": 0.5}, "handle_type": 0, "handle_left": {"Y": 1, "X": 0.5}, "co": {"Y": 1, "X": 49}, "interpolation": 0}, {"handle_right": {"Y": 0, "X": 0.5}, "handle_type": 0, "handle_left": {"Y": 1, "X": 0.5}, "co": {"Y": 0, "X": 121}, "interpolation": 0}]}, "id": "98IX31JWVL", "layer": 3, "display": 0, "scale": 1, "gravity": 4, "crop_width": {"Points": [{"co": {"Y": -1, "X": 1}, "interpolation": 2}]}, "crop_x": {"Points": [{"co": {"Y": 0, "X": 1}, "interpolation": 2}]}, "shear_x": {"Points": [{"co": {"Y": 0, "X": 1}, "interpolation": 2}]}, "volume": {"Points": [{"co": {"Y": 1, "X": 1}, "interpolation": 2}]}, "start": 0, "end": 5, "title": "!113-Menu-Format-Cells.svg", "crop_y": {"Points": [{"co": {"Y": 0, "X": 1}, "interpolation": 2}]}, "reader": {"video_stream_index": -1, "video_length": "2592000", "interlaced_frame": false, "audio_bit_rate": 0, "audio_timebase": {"den": 1, "num": 1}, "vcodec": "", "channels": 0, "has_video": true, "channel_layout": 4, "has_audio": false, "video_timebase": {"den": 30, "num": 1}, "has_single_image": true, "acodec": "", "video_bit_rate": 0, "display_ratio": {"den": 3827, "num": 6803}, "audio_stream_index": -1, "type": "QtImageReader", "top_field_first": true, "width": 6803, "pixel_ratio": {"den": 1, "num": 1}, "height": 3827, "duration": 86400.0, "file_size": "104140324", "path": "/home/milind/Data/Projects/ProgressCard/!113-Menu-Format-Cells.svg", "fps": {"den": 1, "num": 30}, "pixel_format": -1, "sample_rate": 0}, "position": 140.165, "has_video": {"Points": [{"co": {"Y": -1, "X": 1}, "interpolation": 2}]}, "has_audio": {"Points": [{"co": {"Y": -1, "X": 1}, "interpolation": 2}]}, "channel_mapping": {"Points": [{"co": {"Y": -1, "X": 1}, "interpolation": 2}]}, "shear_y": {"Points": [{"co": {"Y": 0, "X": 1}, "interpolation": 2}]}, "perspective_c3_y": {"Points": [{"co": {"Y": -1, "X": 1}, "interpolation": 2}]}, "waveform": false, "perspective_c3_x": {"Points": [{"co": {"Y": -1, "X": 1}, "interpolation": 2}]}, "scale_x": {"Points": [{"handle_right": {"Y": 0, "X": 0.5}, "handle_type": 0, "handle_left": {"Y": 1, "X": 0.5}, "co": {"Y": 1, "X": 1}, "interpolation": 0}]}, "image": "/home/milind/.openshot_qt/thumbnail/LKFVWV6XVE.png", "location_y": {"Points": [{"handle_right": {"Y": 0, "X": 0.5}, "handle_type": 0, "handle_left": {"Y": 1, "X": 0.5}, "co": {"Y": -0.05999999865889549, "X": 1}, "interpolation": 0}]}, "file_id": "LKFVWV6XVE", "perspective_c2_y": {"Points": [{"co": {"Y": -1, "X": 1}, "interpolation": 2}]}, "perspective_c1_y": {"Points": [{"co": {"Y": -1, "X": 1}, "interpolation": 2}]}, "rotation": {"Points": [{"co": {"Y": 0, "X": 1}, "interpolation": 2}]}, "perspective_c4_y": {"Points": [{"co": {"Y": -1, "X": 1}, "interpolation": 2}]}, "anchor": 0, "wave_color": {"red": {"Points": [{"handle_right": {"Y": 0, "X": 0.5}, "handle_type": 0, "handle_left": {"Y": 1, "X": 0.5}, "co": {"Y": 0, "X": 1}, "interpolation": 0}]}, "green": {"Points": [{"handle_right": {"Y": 0, "X": 0.5}, "handle_type": 0, "handle_left": {"Y": 1, "X": 0.5}, "co": {"Y": 123, "X": 1}, "interpolation": 0}]}, "blue": {"Points": [{"handle_right": {"Y": 0, "X": 0.5}, "handle_type": 0, "handle_left": {"Y": 1, "X": 0.5}, "co": {"Y": 255, "X": 1}, "interpolation": 0}]}, "alpha": {"Points": [{"handle_right": {"Y": 0, "X": 0.5}, "handle_type": 0, "handle_left": {"Y": 1, "X": 0.5}, "co": {"Y": 255, "X": 1}, "interpolation": 0}]}}, "time": {"Points": [{"co": {"Y": 1, "X": 1}, "interpolation": 2}]}, "crop_height": {"Points": [{"co": {"Y": -1, "X": 1}, "interpolation": 2}]}, "scale_y": {"Points": [{"handle_right": {"Y": 0, "X": 0.5}, "handle_type": 0, "handle_left": {"Y": 1, "X": 0.5}, "co": {"Y": 1, "X": 1}, "interpolation": 0}]}, "effects": []}, {"location_x": {"Points": [{"co": {"Y": 0, "X": 1}, "interpolation": 2}]}, "perspective_c4_x": {"Points": [{"co": {"Y": -1, "X": 1}, "interpolation": 2}]}, "channel_filter": {"Points": [{"co": {"Y": -1, "X": 1}, "interpolation": 2}]}, "duration": 86400.0, "perspective_c1_x": {"Points": [{"co": {"Y": -1, "X": 1}, "interpolation": 2}]}, "perspective_c2_x": {"Points": [{"co": {"Y": -1, "X": 1}, "interpolation": 2}]}, "alpha": {"Points": [{"co": {"Y": 1, "X": 1}, "interpolation": 2}, {"handle_right": {"Y": 0, "X": 0.5}, "handle_type": 0, "handle_left": {"Y": 1, "X": 0.5}, "co": {"Y": 0, "X": 1}, "interpolation": 0}, {"handle_right": {"Y": 0, "X": 0.5}, "handle_type": 0, "handle_left": {"Y": 1, "X": 0.5}, "co": {"Y": 1, "X": 73}, "interpolation": 0}, {"handle_right": {"Y": 0, "X": 0.5}, "handle_type": 0, "handle_left": {"Y": 1, "X": 0.5}, "co": {"Y": 1, "X": 49}, "interpolation": 0}, {"handle_right": {"Y": 0, "X": 0.5}, "handle_type": 0, "handle_left": {"Y": 1, "X": 0.5}, "co": {"Y": 0, "X": 121}, "interpolation": 0}]}, "id": "TREDM9MF0N", "layer": 3, "display": 0, "scale": 1, "gravity": 4, "crop_width": {"Points": [{"co": {"Y": -1, "X": 1}, "interpolation": 2}]}, "crop_x": {"Points": [{"co": {"Y": 0, "X": 1}, "interpolation": 2}]}, "shear_x": {"Points": [{"co": {"Y": 0, "X": 1}, "interpolation": 2}]}, "volume": {"Points": [{"co": {"Y": 1, "X": 1}, "interpolation": 2}]}, "start": 0, "end": 5, "title": "!114-We need only 2 decimal places.svg", "crop_y": {"Points": [{"co": {"Y": 0, "X": 1}, "interpolation": 2}]}, "reader": {"video_stream_index": -1, "video_length": "2592000", "interlaced_frame": false, "audio_bit_rate": 0, "audio_timebase": {"den": 1, "num": 1}, "vcodec": "", "channels": 0, "has_video": true, "channel_layout": 4, "has_audio": false, "video_timebase": {"den": 30, "num": 1}, "has_single_image": true, "acodec": "", "video_bit_rate": 0, "display_ratio": {"den": 3827, "num": 6803}, "audio_stream_index": -1, "type": "QtImageReader", "top_field_first": true, "width": 6803, "pixel_ratio": {"den": 1, "num": 1}, "height": 3827, "duration": 86400.0, "file_size": "104140324", "path": "/home/milind/Data/Projects/ProgressCard/!114-We need only 2 decimal places.svg", "fps": {"den": 1, "num": 30}, "pixel_format": -1, "sample_rate": 0}, "position": 145.1640625, "has_video": {"Points": [{"co": {"Y": -1, "X": 1}, "interpolation": 2}]}, "has_audio": {"Points": [{"co": {"Y": -1, "X": 1}, "interpolation": 2}]}, "channel_mapping": {"Points": [{"co": {"Y": -1, "X": 1}, "interpolation": 2}]}, "shear_y": {"Points": [{"co": {"Y": 0, "X": 1}, "interpolation": 2}]}, "perspective_c3_y": {"Points": [{"co": {"Y": -1, "X": 1}, "interpolation": 2}]}, "waveform": false, "perspective_c3_x": {"Points": [{"co": {"Y": -1, "X": 1}, "interpolation": 2}]}, "scale_x": {"Points": [{"co": {"Y": 1, "X": 1}, "interpolation": 2}]}, "image": "/home/milind/.openshot_qt/thumbnail/GS94V0HQUR.png", "location_y": {"Points": [{"co": {"Y": 0, "X": 1}, "interpolation": 2}]}, "file_id": "GS94V0HQUR", "perspective_c2_y": {"Points": [{"co": {"Y": -1, "X": 1}, "interpolation": 2}]}, "perspective_c1_y": {"Points": [{"co": {"Y": -1, "X": 1}, "interpolation": 2}]}, "rotation": {"Points": [{"co": {"Y": 0, "X": 1}, "interpolation": 2}]}, "perspective_c4_y": {"Points": [{"co": {"Y": -1, "X": 1}, "interpolation": 2}]}, "anchor": 0, "wave_color": {"red": {"Points": [{"handle_right": {"Y": 0, "X": 0.5}, "handle_type": 0, "handle_left": {"Y": 1, "X": 0.5}, "co": {"Y": 0, "X": 1}, "interpolation": 0}]}, "green": {"Points": [{"handle_right": {"Y": 0, "X": 0.5}, "handle_type": 0, "handle_left": {"Y": 1, "X": 0.5}, "co": {"Y": 123, "X": 1}, "interpolation": 0}]}, "blue": {"Points": [{"handle_right": {"Y": 0, "X": 0.5}, "handle_type": 0, "handle_left": {"Y": 1, "X": 0.5}, "co": {"Y": 255, "X": 1}, "interpolation": 0}]}, "alpha": {"Points": [{"handle_right": {"Y": 0, "X": 0.5}, "handle_type": 0, "handle_left": {"Y": 1, "X": 0.5}, "co": {"Y": 255, "X": 1}, "interpolation": 0}]}}, "time": {"Points": [{"co": {"Y": 1, "X": 1}, "interpolation": 2}]}, "crop_height": {"Points": [{"co": {"Y": -1, "X": 1}, "interpolation": 2}]}, "scale_y": {"Points": [{"co": {"Y": 1, "X": 1}, "interpolation": 2}]}, "effects": []}, {"perspective_c3_y": {"Points": [{"co": {"Y": -1, "X": 1}, "interpolation": 2}]}, "shear_x": {"Points": [{"co": {"Y": 0, "X": 1}, "interpolation": 2}]}, "channel_filter": {"Points": [{"co": {"Y": -1, "X": 1}, "interpolation": 2}]}, "duration": 86400.0, "perspective_c1_x": {"Points": [{"co": {"Y": -1, "X": 1}, "interpolation": 2}]}, "perspective_c2_x": {"Points": [{"co": {"Y": -1, "X": 1}, "interpolation": 2}]}, "alpha": {"Points": [{"handle_right": {"Y": 0, "X": 0.5}, "handle_type": 0, "handle_left": {"Y": 1, "X": 0.5}, "co": {"Y": 1, "X": 1}, "interpolation": 0}, {"handle_right": {"Y": 0, "X": 0.5}, "handle_type": 0, "handle_left": {"Y": 1, "X": 0.5}, "co": {"Y": 0, "X": 1}, "interpolation": 0}, {"handle_right": {"Y": 0, "X": 0.5}, "handle_type": 0, "handle_left": {"Y": 1, "X": 0.5}, "co": {"Y": 1, "X": 73}, "interpolation": 0}, {"handle_right": {"Y": 0, "X": 0.5}, "handle_type": 0, "handle_left": {"Y": 1, "X": 0.5}, "co": {"Y": 1, "X": 216}, "interpolation": 0}, {"handle_right": {"Y": 0, "X": 0.5}, "handle_type": 0, "handle_left": {"Y": 1, "X": 0.5}, "co": {"Y": 0, "X": 288}, "interpolation": 0}]}, "id": "MDW7G3JTN7", "layer": 2, "file_id": "BS7QREURZM", "display": 0, "scale": 1, "gravity": 4, "crop_width": {"Points": [{"co": {"Y": -1, "X": 1}, "interpolation": 2}]}, "crop_x": {"Points": [{"co": {"Y": 0, "X": 1}, "interpolation": 2}]}, "perspective_c4_x": {"Points": [{"co": {"Y": -1, "X": 1}, "interpolation": 2}]}, "volume": {"Points": [{"co": {"Y": 1, "X": 1}, "interpolation": 2}]}, "start": 0, "rotation": {"Points": [{"co": {"Y": 0, "X": 1}, "interpolation": 2}]}, "crop_y": {"Points": [{"co": {"Y": 0, "X": 1}, "interpolation": 2}]}, "position": 103.86000061035156, "has_video": {"Points": [{"co": {"Y": -1, "X": 1}, "interpolation": 2}]}, "has_audio": {"Points": [{"co": {"Y": -1, "X": 1}, "interpolation": 2}]}, "channel_mapping": {"Points": [{"co": {"Y": -1, "X": 1}, "interpolation": 2}]}, "end": 11.97, "shear_y": {"Points": [{"co": {"Y": 0, "X": 1}, "interpolation": 2}]}, "perspective_c3_x": {"Points": [{"co": {"Y": -1, "X": 1}, "interpolation": 2}]}, "scale_x": {"Points": [{"co": {"Y": 1, "X": 1}, "interpolation": 2}]}, "location_x": {"Points": [{"co": {"Y": 0, "X": 1}, "interpolation": 2}]}, "location_y": {"Points": [{"co": {"Y": 0, "X": 1}, "interpolation": 2}]}, "image": "/home/milind/.openshot_qt/thumbnail/BS7QREURZM.png", "perspective_c2_y": {"Points": [{"co": {"Y": -1, "X": 1}, "interpolation": 2}]}, "waveform": false, "perspective_c1_y": {"Points": [{"co": {"Y": -1, "X": 1}, "interpolation": 2}]}, "title": "!086-Then Fail Else Pass.svg", "perspective_c4_y": {"Points": [{"co": {"Y": -1, "X": 1}, "interpolation": 2}]}, "anchor": 0, "wave_color": {"red": {"Points": [{"handle_right": {"Y": 0, "X": 0.5}, "handle_type": 0, "handle_left": {"Y": 1, "X": 0.5}, "co": {"Y": 0, "X": 1}, "interpolation": 0}]}, "green": {"Points": [{"handle_right": {"Y": 0, "X": 0.5}, "handle_type": 0, "handle_left": {"Y": 1, "X": 0.5}, "co": {"Y": 123, "X": 1}, "interpolation": 0}]}, "blue": {"Points": [{"handle_right": {"Y": 0, "X": 0.5}, "handle_type": 0, "handle_left": {"Y": 1, "X": 0.5}, "co": {"Y": 255, "X": 1}, "interpolation": 0}]}, "alpha": {"Points": [{"handle_right": {"Y": 0, "X": 0.5}, "handle_type": 0, "handle_left": {"Y": 1, "X": 0.5}, "co": {"Y": 255, "X": 1}, "interpolation": 0}]}}, "time": {"Points": [{"co": {"Y": 1, "X": 1}, "interpolation": 2}]}, "effects": [], "crop_height": {"Points": [{"co": {"Y": -1, "X": 1}, "interpolation": 2}]}, "scale_y": {"Points": [{"co": {"Y": 1, "X": 1}, "interpolation": 2}]}, "reader": {"video_stream_index": -1, "top_field_first": true, "interlaced_frame": false, "audio_bit_rate": 0, "audio_timebase": {"den": 1, "num": 1}, "duration": 86400.0, "channels": 0, "has_video": true, "channel_layout": 4, "has_audio": false, "video_timebase": {"den": 30, "num": 1}, "has_single_image": true, "acodec": "", "video_bit_rate": 0, "display_ratio": {"den": 3827, "num": 6803}, "audio_stream_index": -1, "type": "QtImageReader", "video_length": "2592000", "width": 6803, "pixel_ratio": {"den": 1, "num": 1}, "height": 3827, "vcodec": "", "file_size": "104140324", "path": "/home/milind/Data/Projects/ProgressCard/!086-Then Fail Else Pass.svg", "fps": {"den": 1, "num": 30}, "pixel_format": -1, "sample_rate": 0}}, {"perspective_c3_y": {"Points": [{"co": {"Y": -1, "X": 1}, "interpolation": 2}]}, "shear_x": {"Points": [{"co": {"Y": 0, "X": 1}, "interpolation": 2}]}, "channel_filter": {"Points": [{"co": {"Y": -1, "X": 1}, "interpolation": 2}]}, "duration": 86400.0, "perspective_c1_x": {"Points": [{"co": {"Y": -1, "X": 1}, "interpolation": 2}]}, "perspective_c2_x": {"Points": [{"co": {"Y": -1, "X": 1}, "interpolation": 2}]}, "alpha": {"Points": [{"co": {"Y": 1, "X": 1}, "interpolation": 2}, {"handle_right": {"Y": 0, "X": 0.5}, "handle_type": 0, "handle_left": {"Y": 1, "X": 0.5}, "co": {"Y": 0, "X": 1}, "interpolation": 0}, {"handle_right": {"Y": 0, "X": 0.5}, "handle_type": 0, "handle_left": {"Y": 1, "X": 0.5}, "co": {"Y": 1, "X": 73}, "interpolation": 0}, {"handle_right": {"Y": 0, "X": 0.5}, "handle_type": 0, "handle_left": {"Y": 1, "X": 0.5}, "co": {"Y": 1, "X": 102}, "interpolation": 0}, {"handle_right": {"Y": 0, "X": 0.5}, "handle_type": 0, "handle_left": {"Y": 1, "X": 0.5}, "co": {"Y": 0, "X": 174}, "interpolation": 0}]}, "id": "CXD9GF0U7L", "layer": 2, "file_id": "AA811BEMSM", "display": 0, "scale": 1, "gravity": 4, "crop_width": {"Points": [{"co": {"Y": -1, "X": 1}, "interpolation": 2}]}, "crop_x": {"Points": [{"co": {"Y": 0, "X": 1}, "interpolation": 2}]}, "perspective_c4_x": {"Points": [{"co": {"Y": -1, "X": 1}, "interpolation": 2}]}, "volume": {"Points": [{"co": {"Y": 1, "X": 1}, "interpolation": 2}]}, "start": 0, "rotation": {"Points": [{"co": {"Y": 0, "X": 1}, "interpolation": 2}]}, "crop_y": {"Points": [{"co": {"Y": 0, "X": 1}, "interpolation": 2}]}, "position": 177.65796874999998, "has_video": {"Points": [{"co": {"Y": -1, "X": 1}, "interpolation": 2}]}, "has_audio": {"Points": [{"co": {"Y": -1, "X": 1}, "interpolation": 2}]}, "channel_mapping": {"Points": [{"co": {"Y": -1, "X": 1}, "interpolation": 2}]}, "end": 7.21, "shear_y": {"Points": [{"co": {"Y": 0, "X": 1}, "interpolation": 2}]}, "perspective_c3_x": {"Points": [{"co": {"Y": -1, "X": 1}, "interpolation": 2}]}, "scale_x": {"Points": [{"co": {"Y": 1, "X": 1}, "interpolation": 2}]}, "location_x": {"Points": [{"co": {"Y": 0, "X": 1}, "interpolation": 2}]}, "location_y": {"Points": [{"co": {"Y": 0, "X": 1}, "interpolation": 2}]}, "image": "/home/milind/.openshot_qt/thumbnail/AA811BEMSM.png", "perspective_c2_y": {"Points": [{"co": {"Y": -1, "X": 1}, "interpolation": 2}]}, "waveform": false, "perspective_c1_y": {"Points": [{"co": {"Y": -1, "X": 1}, "interpolation": 2}]}, "title": "!135-Grade.svg", "perspective_c4_y": {"Points": [{"co": {"Y": -1, "X": 1}, "interpolation": 2}]}, "anchor": 0, "wave_color": {"blue": {"Points": [{"handle_right": {"Y": 0, "X": 0.5}, "handle_type": 0, "handle_left": {"Y": 1, "X": 0.5}, "co": {"Y": 255, "X": 1}, "interpolation": 0}]}, "green": {"Points": [{"handle_right": {"Y": 0, "X": 0.5}, "handle_type": 0, "handle_left": {"Y": 1, "X": 0.5}, "co": {"Y": 123, "X": 1}, "interpolation": 0}]}, "red": {"Points": [{"handle_right": {"Y": 0, "X": 0.5}, "handle_type": 0, "handle_left": {"Y": 1, "X": 0.5}, "co": {"Y": 0, "X": 1}, "interpolation": 0}]}, "alpha": {"Points": [{"handle_right": {"Y": 0, "X": 0.5}, "handle_type": 0, "handle_left": {"Y": 1, "X": 0.5}, "co": {"Y": 255, "X": 1}, "interpolation": 0}]}}, "time": {"Points": [{"co": {"Y": 1, "X": 1}, "interpolation": 2}]}, "effects": [], "crop_height": {"Points": [{"co": {"Y": -1, "X": 1}, "interpolation": 2}]}, "scale_y": {"Points": [{"co": {"Y": 1, "X": 1}, "interpolation": 2}]}, "reader": {"video_stream_index": -1, "top_field_first": true, "interlaced_frame": false, "audio_bit_rate": 0, "audio_timebase": {"den": 1, "num": 1}, "duration": 86400.0, "channels": 0, "has_video": true, "channel_layout": 4, "has_audio": false, "video_timebase": {"den": 30, "num": 1}, "has_single_image": true, "acodec": "", "video_bit_rate": 0, "display_ratio": {"den": 3827, "num": 6803}, "audio_stream_index": -1, "type": "QtImageReader", "video_length": "2592000", "width": 6803, "pixel_ratio": {"den": 1, "num": 1}, "height": 3827, "vcodec": "", "file_size": "104140324", "path": "/home/milind/Data/Projects/ProgressCard/!135-Grade.svg", "fps": {"den": 1, "num": 30}, "pixel_format": -1, "sample_rate": 0}}, {"perspective_c3_y": {"Points": [{"co": {"Y": -1, "X": 1}, "interpolation": 2}]}, "shear_x": {"Points": [{"co": {"Y": 0, "X": 1}, "interpolation": 2}]}, "channel_filter": {"Points": [{"co": {"Y": -1, "X": 1}, "interpolation": 2}]}, "duration": 86400.0, "perspective_c1_x": {"Points": [{"co": {"Y": -1, "X": 1}, "interpolation": 2}]}, "perspective_c2_x": {"Points": [{"co": {"Y": -1, "X": 1}, "interpolation": 2}]}, "alpha": {"Points": [{"co": {"Y": 1, "X": 1}, "interpolation": 2}]}, "id": "DVT7KHN9HZ", "layer": 2, "file_id": "U4HEYX76VH", "display": 0, "scale": 1, "gravity": 4, "crop_width": {"Points": [{"co": {"Y": -1, "X": 1}, "interpolation": 2}]}, "crop_x": {"Points": [{"co": {"Y": 0, "X": 1}, "interpolation": 2}]}, "perspective_c4_x": {"Points": [{"co": {"Y": -1, "X": 1}, "interpolation": 2}]}, "volume": {"Points": [{"co": {"Y": 1, "X": 1}, "interpolation": 2}]}, "start": 0, "rotation": {"Points": [{"co": {"Y": 0, "X": 1}, "interpolation": 2}]}, "crop_y": {"Points": [{"co": {"Y": 0, "X": 1}, "interpolation": 2}]}, "position": 196.41666666666666, "has_video": {"Points": [{"co": {"Y": -1, "X": 1}, "interpolation": 2}]}, "has_audio": {"Points": [{"co": {"Y": -1, "X": 1}, "interpolation": 2}]}, "channel_mapping": {"Points": [{"co": {"Y": -1, "X": 1}, "interpolation": 2}]}, "end": 5, "shear_y": {"Points": [{"co": {"Y": 0, "X": 1}, "interpolation": 2}]}, "perspective_c3_x": {"Points": [{"co": {"Y": -1, "X": 1}, "interpolation": 2}]}, "scale_x": {"Points": [{"co": {"Y": 1, "X": 1}, "interpolation": 2}]}, "location_x": {"Points": [{"co": {"Y": 0, "X": 1}, "interpolation": 2}]}, "location_y": {"Points": [{"co": {"Y": 0, "X": 1}, "interpolation": 2}]}, "image": "/home/milind/.openshot_qt/thumbnail/U4HEYX76VH.png", "perspective_c2_y": {"Points": [{"co": {"Y": -1, "X": 1}, "interpolation": 2}]}, "waveform": false, "perspective_c1_y": {"Points": [{"co": {"Y": -1, "X": 1}, "interpolation": 2}]}, "title": "!145-PROMOTED.svg", "perspective_c4_y": {"Points": [{"co": {"Y": -1, "X": 1}, "interpolation": 2}]}, "anchor": 0, "wave_color": {"blue": {"Points": [{"handle_right": {"Y": 0, "X": 0.5}, "handle_type": 0, "handle_left": {"Y": 1, "X": 0.5}, "co": {"Y": 255, "X": 1}, "interpolation": 0}]}, "green": {"Points": [{"handle_right": {"Y": 0, "X": 0.5}, "handle_type": 0, "handle_left": {"Y": 1, "X": 0.5}, "co": {"Y": 123, "X": 1}, "interpolation": 0}]}, "red": {"Points": [{"handle_right": {"Y": 0, "X": 0.5}, "handle_type": 0, "handle_left": {"Y": 1, "X": 0.5}, "co": {"Y": 0, "X": 1}, "interpolation": 0}]}, "alpha": {"Points": [{"handle_right": {"Y": 0, "X": 0.5}, "handle_type": 0, "handle_left": {"Y": 1, "X": 0.5}, "co": {"Y": 255, "X": 1}, "interpolation": 0}]}}, "time": {"Points": [{"co": {"Y": 1, "X": 1}, "interpolation": 2}]}, "effects": [], "crop_height": {"Points": [{"co": {"Y": -1, "X": 1}, "interpolation": 2}]}, "scale_y": {"Points": [{"co": {"Y": 1, "X": 1}, "interpolation": 2}]}, "reader": {"video_stream_index": -1, "top_field_first": true, "interlaced_frame": false, "audio_bit_rate": 0, "audio_timebase": {"den": 1, "num": 1}, "duration": 86400.0, "channels": 0, "has_video": true, "channel_layout": 4, "has_audio": false, "video_timebase": {"den": 30, "num": 1}, "has_single_image": true, "acodec": "", "video_bit_rate": 0, "display_ratio": {"den": 3827, "num": 6803}, "audio_stream_index": -1, "type": "QtImageReader", "video_length": "2592000", "width": 6803, "pixel_ratio": {"den": 1, "num": 1}, "height": 3827, "vcodec": "", "file_size": "104140324", "path": "/home/milind/Data/Projects/ProgressCard/!145-PROMOTED.svg", "fps": {"den": 1, "num": 30}, "pixel_format": -1, "sample_rate": 0}}, {"perspective_c3_y": {"Points": [{"co": {"Y": -1, "X": 1}, "interpolation": 2}]}, "shear_x": {"Points": [{"co": {"Y": 0, "X": 1}, "interpolation": 2}]}, "channel_filter": {"Points": [{"co": {"Y": -1, "X": 1}, "interpolation": 2}]}, "duration": 86400.0, "perspective_c1_x": {"Points": [{"co": {"Y": -1, "X": 1}, "interpolation": 2}]}, "perspective_c2_x": {"Points": [{"co": {"Y": -1, "X": 1}, "interpolation": 2}]}, "alpha": {"Points": [{"co": {"Y": 1, "X": 1}, "interpolation": 2}]}, "id": "53HWYMUXFZ", "layer": 2, "file_id": "QKE4L0GUDK", "display": 0, "scale": 1, "gravity": 4, "crop_width": {"Points": [{"co": {"Y": -1, "X": 1}, "interpolation": 2}]}, "crop_x": {"Points": [{"co": {"Y": 0, "X": 1}, "interpolation": 2}]}, "perspective_c4_x": {"Points": [{"co": {"Y": -1, "X": 1}, "interpolation": 2}]}, "volume": {"Points": [{"co": {"Y": 1, "X": 1}, "interpolation": 2}]}, "start": 0, "rotation": {"Points": [{"co": {"Y": 0, "X": 1}, "interpolation": 2}]}, "crop_y": {"Points": [{"co": {"Y": 0, "X": 1}, "interpolation": 2}]}, "position": 208.92999999999998, "has_video": {"Points": [{"co": {"Y": -1, "X": 1}, "interpolation": 2}]}, "has_audio": {"Points": [{"co": {"Y": -1, "X": 1}, "interpolation": 2}]}, "channel_mapping": {"Points": [{"co": {"Y": -1, "X": 1}, "interpolation": 2}]}, "end": 5, "shear_y": {"Points": [{"co": {"Y": 0, "X": 1}, "interpolation": 2}]}, "perspective_c3_x": {"Points": [{"co": {"Y": -1, "X": 1}, "interpolation": 2}]}, "scale_x": {"Points": [{"co": {"Y": 1, "X": 1}, "interpolation": 2}]}, "location_x": {"Points": [{"co": {"Y": 0, "X": 1}, "interpolation": 2}]}, "location_y": {"Points": [{"co": {"Y": 0, "X": 1}, "interpolation": 2}]}, "image": "/home/milind/.openshot_qt/thumbnail/QKE4L0GUDK.png", "perspective_c2_y": {"Points": [{"co": {"Y": -1, "X": 1}, "interpolation": 2}]}, "waveform": false, "perspective_c1_y": {"Points": [{"co": {"Y": -1, "X": 1}, "interpolation": 2}]}, "title": "!145-PASS CLASS.svg", "perspective_c4_y": {"Points": [{"co": {"Y": -1, "X": 1}, "interpolation": 2}]}, "anchor": 0, "wave_color": {"blue": {"Points": [{"handle_right": {"Y": 0, "X": 0.5}, "handle_type": 0, "handle_left": {"Y": 1, "X": 0.5}, "co": {"Y": 255, "X": 1}, "interpolation": 0}]}, "green": {"Points": [{"handle_right": {"Y": 0, "X": 0.5}, "handle_type": 0, "handle_left": {"Y": 1, "X": 0.5}, "co": {"Y": 123, "X": 1}, "interpolation": 0}]}, "red": {"Points": [{"handle_right": {"Y": 0, "X": 0.5}, "handle_type": 0, "handle_left": {"Y": 1, "X": 0.5}, "co": {"Y": 0, "X": 1}, "interpolation": 0}]}, "alpha": {"Points": [{"handle_right": {"Y": 0, "X": 0.5}, "handle_type": 0, "handle_left": {"Y": 1, "X": 0.5}, "co": {"Y": 255, "X": 1}, "interpolation": 0}]}}, "time": {"Points": [{"co": {"Y": 1, "X": 1}, "interpolation": 2}]}, "effects": [], "crop_height": {"Points": [{"co": {"Y": -1, "X": 1}, "interpolation": 2}]}, "scale_y": {"Points": [{"co": {"Y": 1, "X": 1}, "interpolation": 2}]}, "reader": {"video_stream_index": -1, "top_field_first": true, "interlaced_frame": false, "audio_bit_rate": 0, "audio_timebase": {"den": 1, "num": 1}, "duration": 86400.0, "channels": 0, "has_video": true, "channel_layout": 4, "has_audio": false, "video_timebase": {"den": 30, "num": 1}, "has_single_image": true, "acodec": "", "video_bit_rate": 0, "display_ratio": {"den": 3827, "num": 6803}, "audio_stream_index": -1, "type": "QtImageReader", "video_length": "2592000", "width": 6803, "pixel_ratio": {"den": 1, "num": 1}, "height": 3827, "vcodec": "", "file_size": "104140324", "path": "/home/milind/Data/Projects/ProgressCard/!145-PASS CLASS.svg", "fps": {"den": 1, "num": 30}, "pixel_format": -1, "sample_rate": 0}}], "key": ["clips"]}, {"partial": false, "type": "update", "value": {"layer": 2, "position": 219.64, "image": "/home/milind/.openshot_qt/thumbnail/B8NAT6SOHT.png", "end": 5, "start": 0, "id": "O4H51B63WF"}, "old_values": {"perspective_c3_x": {"Points": [{"co": {"Y": -1, "X": 1}, "interpolation": 2}]}, "perspective_c4_x": {"Points": [{"co": {"Y": -1, "X": 1}, "interpolation": 2}]}, "channel_filter": {"Points": [{"co": {"Y": -1, "X": 1}, "interpolation": 2}]}, "image": "/home/milind/.openshot_qt/thumbnail/B8NAT6SOHT.png", "crop_height": {"Points": [{"co": {"Y": -1, "X": 1}, "interpolation": 2}]}, "duration": 86400.0, "perspective_c1_x": {"Points": [{"co": {"Y": -1, "X": 1}, "interpolation": 2}]}, "perspective_c2_x": {"Points": [{"co": {"Y": -1, "X": 1}, "interpolation": 2}]}, "alpha": {"Points": [{"co": {"Y": 1, "X": 1}, "interpolation": 2}]}, "id": "O4H51B63WF", "layer": 3, "display": 0, "scale": 1, "gravity": 4, "crop_width": {"Points": [{"co": {"Y": -1, "X": 1}, "interpolation": 2}]}, "crop_x": {"Points": [{"co": {"Y": 0, "X": 1}, "interpolation": 2}]}, "shear_x": {"Points": [{"co": {"Y": 0, "X": 1}, "interpolation": 2}]}, "volume": {"Points": [{"co": {"Y": 1, "X": 1}, "interpolation": 2}]}, "has_audio": {"Points": [{"co": {"Y": -1, "X": 1}, "interpolation": 2}]}, "rotation": {"Points": [{"co": {"Y": 0, "X": 1}, "interpolation": 2}]}, "crop_y": {"Points": [{"co": {"Y": 0, "X": 1}, "interpolation": 2}]}, "position": 174.07999999999998, "has_video": {"Points": [{"co": {"Y": -1, "X": 1}, "interpolation": 2}]}, "start": 0, "channel_mapping": {"Points": [{"co": {"Y": -1, "X": 1}, "interpolation": 2}]}, "end": 5.0, "waveform": false, "perspective_c3_y": {"Points": [{"co": {"Y": -1, "X": 1}, "interpolation": 2}]}, "scale_x": {"Points": [{"co": {"Y": 1, "X": 1}, "interpolation": 2}]}, "location_x": {"Points": [{"co": {"Y": 0, "X": 1}, "interpolation": 2}]}, "location_y": {"Points": [{"co": {"Y": 0, "X": 1}, "interpolation": 2}]}, "shear_y": {"Points": [{"co": {"Y": 0, "X": 1}, "interpolation": 2}]}, "perspective_c2_y": {"Points": [{"co": {"Y": -1, "X": 1}, "interpolation": 2}]}, "perspective_c1_y": {"Points": [{"co": {"Y": -1, "X": 1}, "interpolation": 2}]}, "title": "!145-SECOND CLASS.svg", "perspective_c4_y": {"Points": [{"co": {"Y": -1, "X": 1}, "interpolation": 2}]}, "anchor": 0, "wave_color": {"blue": {"Points": [{"handle_right": {"Y": 0, "X": 0.5}, "handle_type": 0, "handle_left": {"Y": 1, "X": 0.5}, "co": {"Y": 255, "X": 1}, "interpolation": 0}]}, "green": {"Points": [{"handle_right": {"Y": 0, "X": 0.5}, "handle_type": 0, "handle_left": {"Y": 1, "X": 0.5}, "co": {"Y": 123, "X": 1}, "interpolation": 0}]}, "red": {"Points": [{"handle_right": {"Y": 0, "X": 0.5}, "handle_type": 0, "handle_left": {"Y": 1, "X": 0.5}, "co": {"Y": 0, "X": 1}, "interpolation": 0}]}, "alpha": {"Points": [{"handle_right": {"Y": 0, "X": 0.5}, "handle_type": 0, "handle_left": {"Y": 1, "X": 0.5}, "co": {"Y": 255, "X": 1}, "interpolation": 0}]}}, "time": {"Points": [{"co": {"Y": 1, "X": 1}, "interpolation": 2}]}, "effects": [], "file_id": "B8NAT6SOHT", "scale_y": {"Points": [{"co": {"Y": 1, "X": 1}, "interpolation": 2}]}, "reader": {"video_stream_index": -1, "top_field_first": true, "interlaced_frame": false, "audio_bit_rate": 0, "audio_timebase": {"den": 1, "num": 1}, "duration": 86400.0, "channels": 0, "has_video": true, "channel_layout": 4, "has_audio": false, "video_timebase": {"den": 30, "num": 1}, "has_single_image": true, "acodec": "", "video_bit_rate": 0, "display_ratio": {"den": 3827, "num": 6803}, "audio_stream_index": -1, "type": "QtImageReader", "video_length": "2592000", "width": 6803, "pixel_ratio": {"den": 1, "num": 1}, "height": 3827, "vcodec": "", "file_size": "104140324", "path": "/home/milind/Data/Projects/ProgressCard/!145-SECOND CLASS.svg", "fps": {"den": 1, "num": 30}, "pixel_format": -1, "sample_rate": 0}}, "key": ["clips", {"id": "O4H51B63WF"}]}, {"partial": false, "type": "insert", "value": {"perspective_c2_x": {"Points": [{"co": {"Y": -1, "X": 1}, "interpolation": 2}]}, "perspective_c3_x": {"Points": [{"co": {"Y": -1, "X": 1}, "interpolation": 2}]}, "shear_x": {"Points": [{"co": {"Y": 0, "X": 1}, "interpolation": 2}]}, "channel_filter": {"Points": [{"co": {"Y": -1, "X": 1}, "interpolation": 2}]}, "crop_height": {"Points": [{"co": {"Y": -1, "X": 1}, "interpolation": 2}]}, "duration": 86400.0, "perspective_c1_x": {"Points": [{"co": {"Y": -1, "X": 1}, "interpolation": 2}]}, "anchor": 0, "alpha": {"Points": [{"co": {"Y": 1, "X": 1}, "interpolation": 2}]}, "id": "XGW80R7KP4", "layer": 2, "display": 0, "scale": 1, "gravity": 4, "crop_width": {"Points": [{"co": {"Y": -1, "X": 1}, "interpolation": 2}]}, "crop_x": {"Points": [{"co": {"Y": 0, "X": 1}, "interpolation": 2}]}, "perspective_c4_x": {"Points": [{"co": {"Y": -1, "X": 1}, "interpolation": 2}]}, "volume": {"Points": [{"co": {"Y": 1, "X": 1}, "interpolation": 2}]}, "start": 0, "has_video": {"Points": [{"co": {"Y": -1, "X": 1}, "interpolation": 2}]}, "rotation": {"Points": [{"co": {"Y": 0, "X": 1}, "interpolation": 2}]}, "reader": {"video_stream_index": -1, "video_length": "2592000", "interlaced_frame": false, "audio_bit_rate": 0, "audio_timebase": {"den": 1, "num": 1}, "duration": 86400.0, "channels": 0, "video_bit_rate": 0, "channel_layout": 4, "path": "/home/milind/Data/Projects/ProgressCard/!145-FIRST CLASS.svg", "has_audio": false, "video_timebase": {"den": 30, "num": 1}, "has_single_image": true, "acodec": "", "has_video": true, "display_ratio": {"den": 3827, "num": 6803}, "audio_stream_index": -1, "type": "QtImageReader", "top_field_first": true, "width": 6803, "pixel_ratio": {"den": 1, "num": 1}, "height": 3827, "vcodec": "", "file_size": "104140324", "sample_rate": 0, "fps": {"den": 1, "num": 30}, "pixel_format": -1}, "position": 219.46999999999997, "image": "/home/milind/.openshot_qt/thumbnail/QURFA8ZYYH.png", "has_audio": {"Points": [{"co": {"Y": -1, "X": 1}, "interpolation": 2}]}, "channel_mapping": {"Points": [{"co": {"Y": -1, "X": 1}, "interpolation": 2}]}, "shear_y": {"Points": [{"co": {"Y": 0, "X": 1}, "interpolation": 2}]}, "end": 5, "waveform": false, "perspective_c3_y": {"Points": [{"co": {"Y": -1, "X": 1}, "interpolation": 2}]}, "scale_x": {"Points": [{"co": {"Y": 1, "X": 1}, "interpolation": 2}]}, "location_x": {"Points": [{"co": {"Y": 0, "X": 1}, "interpolation": 2}]}, "location_y": {"Points": [{"co": {"Y": 0, "X": 1}, "interpolation": 2}]}, "file_id": "QURFA8ZYYH", "perspective_c2_y": {"Points": [{"co": {"Y": -1, "X": 1}, "interpolation": 2}]}, "perspective_c1_y": {"Points": [{"co": {"Y": -1, "X": 1}, "interpolation": 2}]}, "title": "!145-FIRST CLASS.svg", "perspective_c4_y": {"Points": [{"co": {"Y": -1, "X": 1}, "interpolation": 2}]}, "wave_color": {"red": {"Points": [{"handle_right": {"Y": 0, "X": 0.5}, "handle_type": 0, "handle_left": {"Y": 1, "X": 0.5}, "co": {"Y": 0, "X": 1}, "interpolation": 0}]}, "green": {"Points": [{"handle_right": {"Y": 0, "X": 0.5}, "handle_type": 0, "handle_left": {"Y": 1, "X": 0.5}, "co": {"Y": 123, "X": 1}, "interpolation": 0}]}, "blue": {"Points": [{"handle_right": {"Y": 0, "X": 0.5}, "handle_type": 0, "handle_left": {"Y": 1, "X": 0.5}, "co": {"Y": 255, "X": 1}, "interpolation": 0}]}, "alpha": {"Points": [{"handle_right": {"Y": 0, "X": 0.5}, "handle_type": 0, "handle_left": {"Y": 1, "X": 0.5}, "co": {"Y": 255, "X": 1}, "interpolation": 0}]}}, "time": {"Points": [{"co": {"Y": 1, "X": 1}, "interpolation": 2}]}, "crop_y": {"Points": [{"co": {"Y": 0, "X": 1}, "interpolation": 2}]}, "scale_y": {"Points": [{"co": {"Y": 1, "X": 1}, "interpolation": 2}]}, "effects": []}, "old_values": [{"location_x": {"Points": [{"co": {"Y": 0.0, "X": 1.0}, "interpolation": 2}]}, "perspective_c3_x": {"Points": [{"co": {"Y": -1.0, "X": 1.0}, "interpolation": 2}]}, "perspective_c4_x": {"Points": [{"co": {"Y": -1.0, "X": 1.0}, "interpolation": 2}]}, "channel_filter": {"Points": [{"co": {"Y": -1.0, "X": 1.0}, "interpolation": 2}]}, "anchor": 0, "perspective_c1_x": {"Points": [{"co": {"Y": -1.0, "X": 1.0}, "interpolation": 2}]}, "perspective_c2_x": {"Points": [{"co": {"Y": -1.0, "X": 1.0}, "interpolation": 2}]}, "alpha": {"Points": [{"co": {"Y": 1.0, "X": 1.0}, "interpolation": 2}, {"handle_right": {"Y": 0.0, "X": 0.5}, "handle_type": 0, "handle_left": {"Y": 1.0, "X": 0.5}, "co": {"Y": 0.0, "X": 1.0}, "interpolation": 0}, {"handle_right": {"Y": 0.0, "X": 0.5}, "handle_type": 0, "handle_left": {"Y": 1.0, "X": 0.5}, "co": {"Y": 1.0, "X": 73.0}, "interpolation": 0}]}, "id": "IUE2QUN59C", "layer": 0, "file_id": "0F0RWXSQM9", "display": 0, "scale": 1, "gravity": 4, "crop_width": {"Points": [{"co": {"Y": -1.0, "X": 1.0}, "interpolation": 2}]}, "crop_x": {"Points": [{"co": {"Y": 0.0, "X": 1.0}, "interpolation": 2}]}, "shear_x": {"Points": [{"co": {"Y": 0.0, "X": 1.0}, "interpolation": 2}]}, "volume": {"Points": [{"co": {"Y": 1.0, "X": 1.0}, "interpolation": 2}]}, "start": 0, "rotation": {"Points": [{"co": {"Y": 0.0, "X": 1.0}, "interpolation": 2}]}, "reader": {"video_stream_index": -1, "video_length": "2592000", "interlaced_frame": false, "audio_bit_rate": 0, "audio_timebase": {"den": 1, "num": 1}, "vcodec": "", "channels": 0, "has_video": true, "channel_layout": 4, "has_audio": false, "video_timebase": {"den": 30, "num": 1}, "has_single_image": true, "acodec": "", "video_bit_rate": 0, "display_ratio": {"den": 9, "num": 16}, "audio_stream_index": -1, "type": "QtImageReader", "top_field_first": true, "width": 1920, "pixel_ratio": {"den": 1, "num": 1}, "height": 1080, "duration": 86400.0, "file_size": "8294400", "path": "/home/milind/Data/Projects/ProgressCard/!000-White-Background.svg", "fps": {"den": 1, "num": 30}, "pixel_format": -1, "sample_rate": 0}, "position": 0, "has_video": {"Points": [{"co": {"Y": -1.0, "X": 1.0}, "interpolation": 2}]}, "has_audio": {"Points": [{"co": {"Y": -1.0, "X": 1.0}, "interpolation": 2}]}, "channel_mapping": {"Points": [{"co": {"Y": -1.0, "X": 1.0}, "interpolation": 2}]}, "shear_y": {"Points": [{"co": {"Y": 0.0, "X": 1.0}, "interpolation": 2}]}, "perspective_c3_y": {"Points": [{"co": {"Y": -1.0, "X": 1.0}, "interpolation": 2}]}, "waveform": false, "end": 10, "scale_x": {"Points": [{"co": {"Y": 1.0, "X": 1.0}, "interpolation": 2}]}, "image": "/home/milind/.openshot_qt/thumbnail/0F0RWXSQM9.png", "location_y": {"Points": [{"co": {"Y": 0.0, "X": 1.0}, "interpolation": 2}]}, "crop_y": {"Points": [{"co": {"Y": 0.0, "X": 1.0}, "interpolation": 2}]}, "perspective_c2_y": {"Points": [{"co": {"Y": -1.0, "X": 1.0}, "interpolation": 2}]}, "perspective_c1_y": {"Points": [{"co": {"Y": -1.0, "X": 1.0}, "interpolation": 2}]}, "title": "!000-White-Background.svg", "perspective_c4_y": {"Points": [{"co": {"Y": -1.0, "X": 1.0}, "interpolation": 2}]}, "duration": 86400.0, "wave_color": {"red": {"Points": [{"handle_right": {"Y": 0.0, "X": 0.5}, "handle_type": 0, "handle_left": {"Y": 1.0, "X": 0.5}, "co": {"Y": 0.0, "X": 1.0}, "interpolation": 0}]}, "green": {"Points": [{"handle_right": {"Y": 0.0, "X": 0.5}, "handle_type": 0, "handle_left": {"Y": 1.0, "X": 0.5}, "co": {"Y": 123.0, "X": 1.0}, "interpolation": 0}]}, "blue": {"Points": [{"handle_right": {"Y": 0.0, "X": 0.5}, "handle_type": 0, "handle_left": {"Y": 1.0, "X": 0.5}, "co": {"Y": 255.0, "X": 1.0}, "interpolation": 0}]}, "alpha": {"Points": [{"handle_right": {"Y": 0.0, "X": 0.5}, "handle_type": 0, "handle_left": {"Y": 1.0, "X": 0.5}, "co": {"Y": 255.0, "X": 1.0}, "interpolation": 0}]}}, "time": {"Points": [{"co": {"Y": 1.0, "X": 1.0}, "interpolation": 2}]}, "crop_height": {"Points": [{"co": {"Y": -1.0, "X": 1.0}, "interpolation": 2}]}, "scale_y": {"Points": [{"co": {"Y": 1.0, "X": 1.0}, "interpolation": 2}]}, "effects": []}, {"location_x": {"Points": [{"handle_right": {"Y": 0.0, "X": 0.5}, "handle_type": 0, "handle_left": {"Y": 1.0, "X": 0.5}, "co": {"Y": 0.33000001311302185, "X": 1.0}, "interpolation": 0}, {"co": {"Y": -0.07999999821186066, "X": 178}, "interpolation": 1}, {"co": {"Y": -0.07999999821186066, "X": 117}, "interpolation": 1}]}, "perspective_c3_x": {"Points": [{"co": {"Y": -1.0, "X": 1.0}, "interpolation": 2}]}, "perspective_c4_x": {"Points": [{"co": {"Y": -1.0, "X": 1.0}, "interpolation": 2}]}, "channel_filter": {"Points": [{"co": {"Y": -1.0, "X": 1.0}, "interpolation": 2}]}, "perspective_c2_x": {"Points": [{"co": {"Y": -1.0, "X": 1.0}, "interpolation": 2}]}, "perspective_c1_x": {"Points": [{"co": {"Y": -1.0, "X": 1.0}, "interpolation": 2}]}, "anchor": 0, "alpha": {"Points": [{"handle_right": {"Y": 0, "X": 0.5}, "handle_type": 0, "handle_left": {"Y": 1, "X": 0.5}, "co": {"Y": 1, "X": 1}, "interpolation": 0}, {"handle_right": {"Y": 0, "X": 0.5}, "handle_type": 0, "handle_left": {"Y": 1, "X": 0.5}, "co": {"Y": 0, "X": 117}, "interpolation": 0}, {"handle_right": {"Y": 0, "X": 0.5}, "handle_type": 0, "handle_left": {"Y": 1, "X": 0.5}, "co": {"Y": 1, "X": 189}, "interpolation": 0}, {"handle_right": {"Y": 0, "X": 0.5}, "handle_type": 0, "handle_left": {"Y": 1, "X": 0.5}, "co": {"Y": 1, "X": 1687}, "interpolation": 0}, {"handle_right": {"Y": 0, "X": 0.5}, "handle_type": 0, "handle_left": {"Y": 1, "X": 0.5}, "co": {"Y": 0, "X": 1759}, "interpolation": 0}]}, "id": "6XU1ZMQNAO", "position": 1.0, "file_id": "O1AEGRKDWZ", "display": 0, "scale": 1, "gravity": 4, "crop_width": {"Points": [{"co": {"Y": -1.0, "X": 1.0}, "interpolation": 2}]}, "crop_x": {"Points": [{"co": {"Y": 0.0, "X": 1.0}, "interpolation": 2}]}, "shear_x": {"Points": [{"co": {"Y": 0.0, "X": 1.0}, "interpolation": 2}]}, "volume": {"Points": [{"co": {"Y": 1.0, "X": 1.0}, "interpolation": 2}]}, "start": 4.8483333333333345, "title": "!080-GT,GC,TC.mkv", "reader": {"video_stream_index": 0, "video_length": "3650", "interlaced_frame": false, "audio_bit_rate": 0, "audio_timebase": {"den": 1, "num": 1}, "vcodec": "h264", "channels": 0, "has_video": true, "channel_layout": 4, "has_audio": false, "video_timebase": {"den": 1000, "num": 1}, "has_single_image": false, "acodec": "", "video_bit_rate": 0, "display_ratio": {"den": 186, "num": 325}, "audio_stream_index": -1, "type": "FFmpegReader", "top_field_first": true, "width": 1300, "pixel_ratio": {"den": 1, "num": 1}, "height": 744, "duration": 146.0, "file_size": "1130835", "path": "/home/milind/Data/Projects/ProgressCard/!080-GT,GC,TC.mkv", "fps": {"den": 1, "num": 25}, "pixel_format": 0, "sample_rate": 0}, "layer": 1, "has_video": {"Points": [{"co": {"Y": -1.0, "X": 1.0}, "interpolation": 2}]}, "has_audio": {"Points": [{"co": {"Y": -1.0, "X": 1.0}, "interpolation": 2}]}, "channel_mapping": {"Points": [{"co": {"Y": -1.0, "X": 1.0}, "interpolation": 2}]}, "shear_y": {"Points": [{"co": {"Y": 0.0, "X": 1.0}, "interpolation": 2}]}, "perspective_c3_y": {"Points": [{"co": {"Y": -1.0, "X": 1.0}, "interpolation": 2}]}, "waveform": false, "end": 73.25, "scale_x": {"Points": [{"handle_right": {"Y": 0.0, "X": 0.5}, "handle_type": 0, "handle_left": {"Y": 1.0, "X": 0.5}, "co": {"Y": 2.200000047683716, "X": 1.0}, "interpolation": 0}, {"co": {"Y": 2.299999952316284, "X": 178}, "interpolation": 1}]}, "image": "/home/milind/.openshot_qt/thumbnail/6XU1ZMQNAO-122.png", "location_y": {"Points": [{"handle_right": {"Y": 0.0, "X": 0.5}, "handle_type": 0, "handle_left": {"Y": 1.0, "X": 0.5}, "co": {"Y": 0.5199999809265137, "X": 1.0}, "interpolation": 0}, {"co": {"Y": 0.5199999809265137, "X": 178}, "interpolation": 1}]}, "crop_y": {"Points": [{"co": {"Y": 0.0, "X": 1.0}, "interpolation": 2}]}, "perspective_c2_y": {"Points": [{"co": {"Y": -1.0, "X": 1.0}, "interpolation": 2}]}, "perspective_c1_y": {"Points": [{"co": {"Y": -1.0, "X": 1.0}, "interpolation": 2}]}, "rotation": {"Points": [{"co": {"Y": 0.0, "X": 1.0}, "interpolation": 2}]}, "perspective_c4_y": {"Points": [{"co": {"Y": -1.0, "X": 1.0}, "interpolation": 2}]}, "duration": 72.0, "wave_color": {"red": {"Points": [{"handle_right": {"Y": 0.0, "X": 0.5}, "handle_type": 0, "handle_left": {"Y": 1.0, "X": 0.5}, "co": {"Y": 0.0, "X": 1.0}, "interpolation": 0}]}, "green": {"Points": [{"handle_right": {"Y": 0.0, "X": 0.5}, "handle_type": 0, "handle_left": {"Y": 1.0, "X": 0.5}, "co": {"Y": 123.0, "X": 1.0}, "interpolation": 0}]}, "blue": {"Points": [{"handle_right": {"Y": 0.0, "X": 0.5}, "handle_type": 0, "handle_left": {"Y": 1.0, "X": 0.5}, "co": {"Y": 255.0, "X": 1.0}, "interpolation": 0}]}, "alpha": {"Points": [{"handle_right": {"Y": 0.0, "X": 0.5}, "handle_type": 0, "handle_left": {"Y": 1.0, "X": 0.5}, "co": {"Y": 255.0, "X": 1.0}, "interpolation": 0}]}}, "time": {"Points": [{"co": {"Y": 117, "X": 117}, "interpolation": 1}, {"co": {"Y": 3399, "X": 1758}, "interpolation": 1}]}, "crop_height": {"Points": [{"co": {"Y": -1.0, "X": 1.0}, "interpolation": 2}]}, "scale_y": {"Points": [{"handle_right": {"Y": 0.0, "X": 0.5}, "handle_type": 0, "handle_left": {"Y": 1.0, "X": 0.5}, "co": {"Y": 2.200000047683716, "X": 1.0}, "interpolation": 0}, {"co": {"Y": 2.299999952316284, "X": 178}, "interpolation": 1}]}, "effects": []}, {"location_x": {"Points": [{"handle_right": {"Y": 0.0, "X": 0.5}, "handle_type": 0, "handle_left": {"Y": 1.0, "X": 0.5}, "co": {"Y": -0.07999999821186066, "X": 1.0}, "interpolation": 0}]}, "perspective_c3_x": {"Points": [{"co": {"Y": -1.0, "X": 1.0}, "interpolation": 2}]}, "perspective_c4_x": {"Points": [{"co": {"Y": -1.0, "X": 1.0}, "interpolation": 2}]}, "channel_filter": {"Points": [{"co": {"Y": -1.0, "X": 1.0}, "interpolation": 2}]}, "perspective_c2_x": {"Points": [{"co": {"Y": -1.0, "X": 1.0}, "interpolation": 2}]}, "perspective_c1_x": {"Points": [{"co": {"Y": -1.0, "X": 1.0}, "interpolation": 2}]}, "anchor": 0, "alpha": {"Points": [{"handle_right": {"Y": 0, "X": 0.5}, "handle_type": 0, "handle_left": {"Y": 1, "X": 0.5}, "co": {"Y": 1, "X": 1}, "interpolation": 0}, {"handle_right": {"Y": 0, "X": 0.5}, "handle_type": 0, "handle_left": {"Y": 1, "X": 0.5}, "co": {"Y": 0, "X": 1}, "interpolation": 0}, {"handle_right": {"Y": 0, "X": 0.5}, "handle_type": 0, "handle_left": {"Y": 1, "X": 0.5}, "co": {"Y": 1, "X": 73}, "interpolation": 0}, {"handle_right": {"Y": 0, "X": 0.5}, "handle_type": 0, "handle_left": {"Y": 1, "X": 0.5}, "co": {"Y": 1, "X": 1153}, "interpolation": 0}, {"handle_right": {"Y": 0, "X": 0.5}, "handle_type": 0, "handle_left": {"Y": 1, "X": 0.5}, "co": {"Y": 0, "X": 1225}, "interpolation": 0}]}, "id": "A2EZ4WBLRE", "layer": 1, "file_id": "XBE2IATTEN", "display": 0, "scale": 1, "gravity": 4, "crop_width": {"Points": [{"co": {"Y": -1.0, "X": 1.0}, "interpolation": 2}]}, "crop_x": {"Points": [{"co": {"Y": 0.0, "X": 1.0}, "interpolation": 2}]}, "shear_x": {"Points": [{"co": {"Y": 0.0, "X": 1.0}, "interpolation": 2}]}, "volume": {"Points": [{"co": {"Y": 1.0, "X": 1.0}, "interpolation": 2}]}, "start": 0, "rotation": {"Points": [{"co": {"Y": 0.0, "X": 1.0}, "interpolation": 2}]}, "reader": {"video_stream_index": 0, "video_length": "2575", "interlaced_frame": false, "audio_bit_rate": 0, "audio_timebase": {"den": 1, "num": 1}, "vcodec": "h264", "channels": 0, "has_video": true, "channel_layout": 4, "has_audio": false, "video_timebase": {"den": 1000, "num": 1}, "has_single_image": false, "acodec": "", "video_bit_rate": 0, "display_ratio": {"den": 186, "num": 325}, "audio_stream_index": -1, "type": "FFmpegReader", "top_field_first": true, "width": 1300, "pixel_ratio": {"den": 1, "num": 1}, "height": 744, "duration": 103.0, "file_size": "822519", "path": "/home/milind/Data/Projects/ProgressCard/!090-Remark - PASS or FAIL.mkv", "fps": {"den": 1, "num": 25}, "pixel_format": 0, "sample_rate": 0}, "position": 74.768125, "has_video": {"Points": [{"co": {"Y": -1.0, "X": 1.0}, "interpolation": 2}]}, "has_audio": {"Points": [{"co": {"Y": -1.0, "X": 1.0}, "interpolation": 2}]}, "channel_mapping": {"Points": [{"co": {"Y": -1.0, "X": 1.0}, "interpolation": 2}]}, "shear_y": {"Points": [{"co": {"Y": 0.0, "X": 1.0}, "interpolation": 2}]}, "perspective_c3_y": {"Points": [{"co": {"Y": -1.0, "X": 1.0}, "interpolation": 2}]}, "waveform": false, "end": 51, "scale_x": {"Points": [{"handle_right": {"Y": 0.0, "X": 0.5}, "handle_type": 0, "handle_left": {"Y": 1.0, "X": 0.5}, "co": {"Y": 2.299999952316284, "X": 1.0}, "interpolation": 0}]}, "image": "/home/milind/.openshot_qt/thumbnail/XBE2IATTEN.png", "location_y": {"Points": [{"handle_right": {"Y": 0.0, "X": 0.5}, "handle_type": 0, "handle_left": {"Y": 1.0, "X": 0.5}, "co": {"Y": 0.5199999809265137, "X": 1.0}, "interpolation": 0}]}, "crop_y": {"Points": [{"co": {"Y": 0.0, "X": 1.0}, "interpolation": 2}]}, "perspective_c2_y": {"Points": [{"co": {"Y": -1.0, "X": 1.0}, "interpolation": 2}]}, "perspective_c1_y": {"Points": [{"co": {"Y": -1.0, "X": 1.0}, "interpolation": 2}]}, "title": "!090-Remark - PASS or FAIL.mkv", "perspective_c4_y": {"Points": [{"co": {"Y": -1.0, "X": 1.0}, "interpolation": 2}]}, "duration": 50.0, "wave_color": {"red": {"Points": [{"handle_right": {"Y": 0.0, "X": 0.5}, "handle_type": 0, "handle_left": {"Y": 1.0, "X": 0.5}, "co": {"Y": 0.0, "X": 1.0}, "interpolation": 0}]}, "green": {"Points": [{"handle_right": {"Y": 0.0, "X": 0.5}, "handle_type": 0, "handle_left": {"Y": 1.0, "X": 0.5}, "co": {"Y": 123.0, "X": 1.0}, "interpolation": 0}]}, "blue": {"Points": [{"handle_right": {"Y": 0.0, "X": 0.5}, "handle_type": 0, "handle_left": {"Y": 1.0, "X": 0.5}, "co": {"Y": 255.0, "X": 1.0}, "interpolation": 0}]}, "alpha": {"Points": [{"handle_right": {"Y": 0.0, "X": 0.5}, "handle_type": 0, "handle_left": {"Y": 1.0, "X": 0.5}, "co": {"Y": 255.0, "X": 1.0}, "interpolation": 0}]}}, "time": {"Points": [{"co": {"Y": 1, "X": 1}, "interpolation": 1}, {"co": {"Y": 2447, "X": 1224}, "interpolation": 1}]}, "crop_height": {"Points": [{"co": {"Y": -1.0, "X": 1.0}, "interpolation": 2}]}, "scale_y": {"Points": [{"handle_right": {"Y": 0.0, "X": 0.5}, "handle_type": 0, "handle_left": {"Y": 1.0, "X": 0.5}, "co": {"Y": 2.299999952316284, "X": 1.0}, "interpolation": 0}]}, "effects": []}, {"location_x": {"Points": [{"co": {"Y": 0.0, "X": 1.0}, "interpolation": 2}]}, "perspective_c3_x": {"Points": [{"co": {"Y": -1.0, "X": 1.0}, "interpolation": 2}]}, "perspective_c4_x": {"Points": [{"co": {"Y": -1.0, "X": 1.0}, "interpolation": 2}]}, "channel_filter": {"Points": [{"co": {"Y": -1.0, "X": 1.0}, "interpolation": 2}]}, "perspective_c2_x": {"Points": [{"co": {"Y": -1.0, "X": 1.0}, "interpolation": 2}]}, "perspective_c1_x": {"Points": [{"co": {"Y": -1.0, "X": 1.0}, "interpolation": 2}]}, "anchor": 0, "alpha": {"Points": [{"co": {"Y": 1.0, "X": 1.0}, "interpolation": 2}]}, "id": "3GZPXZWGC6", "layer": 0, "file_id": "0F0RWXSQM9", "display": 0, "scale": 1, "gravity": 4, "crop_width": {"Points": [{"co": {"Y": -1.0, "X": 1.0}, "interpolation": 2}]}, "crop_x": {"Points": [{"co": {"Y": 0.0, "X": 1.0}, "interpolation": 2}]}, "shear_x": {"Points": [{"co": {"Y": 0.0, "X": 1.0}, "interpolation": 2}]}, "volume": {"Points": [{"co": {"Y": 1.0, "X": 1.0}, "interpolation": 2}]}, "start": 0, "rotation": {"Points": [{"co": {"Y": 0.0, "X": 1.0}, "interpolation": 2}]}, "reader": {"video_stream_index": -1, "video_length": "2592000", "interlaced_frame": false, "audio_bit_rate": 0, "audio_timebase": {"den": 1, "num": 1}, "vcodec": "", "channels": 0, "has_video": true, "channel_layout": 4, "has_audio": false, "video_timebase": {"den": 30, "num": 1}, "has_single_image": true, "acodec": "", "video_bit_rate": 0, "display_ratio": {"den": 9, "num": 16}, "audio_stream_index": -1, "type": "QtImageReader", "top_field_first": true, "width": 1920, "pixel_ratio": {"den": 1, "num": 1}, "height": 1080, "duration": 86400.0, "file_size": "8294400", "path": "/home/milind/Data/Projects/ProgressCard/!000-White-Background.svg", "fps": {"den": 1, "num": 30}, "pixel_format": -1, "sample_rate": 0}, "position": 121.30031249999999, "has_video": {"Points": [{"co": {"Y": -1.0, "X": 1.0}, "interpolation": 2}]}, "has_audio": {"Points": [{"co": {"Y": -1.0, "X": 1.0}, "interpolation": 2}]}, "channel_mapping": {"Points": [{"co": {"Y": -1.0, "X": 1.0}, "interpolation": 2}]}, "shear_y": {"Points": [{"co": {"Y": 0.0, "X": 1.0}, "interpolation": 2}]}, "perspective_c3_y": {"Points": [{"co": {"Y": -1.0, "X": 1.0}, "interpolation": 2}]}, "waveform": false, "end": 10, "scale_x": {"Points": [{"co": {"Y": 1.0, "X": 1.0}, "interpolation": 2}]}, "image": "/home/milind/.openshot_qt/thumbnail/0F0RWXSQM9.png", "location_y": {"Points": [{"co": {"Y": 0.0, "X": 1.0}, "interpolation": 2}]}, "crop_y": {"Points": [{"co": {"Y": 0.0, "X": 1.0}, "interpolation": 2}]}, "perspective_c2_y": {"Points": [{"co": {"Y": -1.0, "X": 1.0}, "interpolation": 2}]}, "perspective_c1_y": {"Points": [{"co": {"Y": -1.0, "X": 1.0}, "interpolation": 2}]}, "title": "!000-White-Background.svg", "perspective_c4_y": {"Points": [{"co": {"Y": -1.0, "X": 1.0}, "interpolation": 2}]}, "duration": 86400.0, "wave_color": {"red": {"Points": [{"handle_right": {"Y": 0.0, "X": 0.5}, "handle_type": 0, "handle_left": {"Y": 1.0, "X": 0.5}, "co": {"Y": 0.0, "X": 1.0}, "interpolation": 0}]}, "green": {"Points": [{"handle_right": {"Y": 0.0, "X": 0.5}, "handle_type": 0, "handle_left": {"Y": 1.0, "X": 0.5}, "co": {"Y": 123.0, "X": 1.0}, "interpolation": 0}]}, "blue": {"Points": [{"handle_right": {"Y": 0.0, "X": 0.5}, "handle_type": 0, "handle_left": {"Y": 1.0, "X": 0.5}, "co": {"Y": 255.0, "X": 1.0}, "interpolation": 0}]}, "alpha": {"Points": [{"handle_right": {"Y": 0.0, "X": 0.5}, "handle_type": 0, "handle_left": {"Y": 1.0, "X": 0.5}, "co": {"Y": 255.0, "X": 1.0}, "interpolation": 0}]}}, "time": {"Points": [{"co": {"Y": 1.0, "X": 1.0}, "interpolation": 2}]}, "crop_height": {"Points": [{"co": {"Y": -1.0, "X": 1.0}, "interpolation": 2}]}, "scale_y": {"Points": [{"co": {"Y": 1.0, "X": 1.0}, "interpolation": 2}]}, "effects": []}, {"perspective_c4_x": {"Points": [{"co": {"Y": -1.0, "X": 1.0}, "interpolation": 2}]}, "channel_filter": {"Points": [{"co": {"Y": -1.0, "X": 1.0}, "interpolation": 2}]}, "image": "/home/milind/.openshot_qt/thumbnail/Z4YCYRY34O.png", "perspective_c2_x": {"Points": [{"co": {"Y": -1.0, "X": 1.0}, "interpolation": 2}]}, "perspective_c1_x": {"Points": [{"co": {"Y": -1.0, "X": 1.0}, "interpolation": 2}]}, "anchor": 0, "alpha": {"Points": [{"handle_right": {"Y": 0, "X": 0.5}, "handle_type": 0, "handle_left": {"Y": 1, "X": 0.5}, "co": {"Y": 1, "X": 1}, "interpolation": 0}, {"handle_right": {"Y": 0, "X": 0.5}, "handle_type": 0, "handle_left": {"Y": 1, "X": 0.5}, "co": {"Y": 0, "X": 1}, "interpolation": 0}, {"handle_right": {"Y": 0, "X": 0.5}, "handle_type": 0, "handle_left": {"Y": 1, "X": 0.5}, "co": {"Y": 1, "X": 73}, "interpolation": 0}]}, "id": "QZM4UXHK9C", "position": 125.768125, "file_id": "Z4YCYRY34O", "display": 0, "scale": 1, "gravity": 4, "crop_width": {"Points": [{"co": {"Y": -1.0, "X": 1.0}, "interpolation": 2}]}, "crop_x": {"Points": [{"co": {"Y": 0.0, "X": 1.0}, "interpolation": 2}]}, "shear_x": {"Points": [{"co": {"Y": 0.0, "X": 1.0}, "interpolation": 2}]}, "volume": {"Points": [{"co": {"Y": 1.0, "X": 1.0}, "interpolation": 2}]}, "start": 0, "end": 17.416666666666668, "title": "!100-Average Marks.mkv", "crop_y": {"Points": [{"co": {"Y": 0.0, "X": 1.0}, "interpolation": 2}]}, "reader": {"video_stream_index": 0, "video_length": "925", "interlaced_frame": false, "audio_bit_rate": 0, "audio_timebase": {"den": 1, "num": 1}, "vcodec": "h264", "channels": 0, "has_video": true, "channel_layout": 4, "has_audio": false, "video_timebase": {"den": 1000, "num": 1}, "has_single_image": false, "acodec": "", "video_bit_rate": 0, "display_ratio": {"den": 186, "num": 325}, "audio_stream_index": -1, "type": "FFmpegReader", "top_field_first": true, "width": 1300, "pixel_ratio": {"den": 1, "num": 1}, "height": 744, "duration": 37.0, "file_size": "281401", "path": "/home/milind/Data/Projects/ProgressCard/!100-Average Marks.mkv", "fps": {"den": 1, "num": 25}, "pixel_format": 0, "sample_rate": 0}, "layer": 1, "has_video": {"Points": [{"co": {"Y": -1.0, "X": 1.0}, "interpolation": 2}]}, "has_audio": {"Points": [{"co": {"Y": -1.0, "X": 1.0}, "interpolation": 2}]}, "channel_mapping": {"Points": [{"co": {"Y": -1.0, "X": 1.0}, "interpolation": 2}]}, "perspective_c3_y": {"Points": [{"co": {"Y": -1.0, "X": 1.0}, "interpolation": 2}]}, "waveform": false, "perspective_c3_x": {"Points": [{"co": {"Y": -1.0, "X": 1.0}, "interpolation": 2}]}, "scale_x": {"Points": [{"co": {"Y": 2.299999952316284, "X": 1.0}, "interpolation": 2}]}, "location_x": {"Points": [{"co": {"Y": -0.07999999821186066, "X": 1.0}, "interpolation": 2}]}, "location_y": {"Points": [{"co": {"Y": 0.5199999809265137, "X": 1.0}, "interpolation": 2}]}, "shear_y": {"Points": [{"co": {"Y": 0.0, "X": 1.0}, "interpolation": 2}]}, "perspective_c2_y": {"Points": [{"co": {"Y": -1.0, "X": 1.0}, "interpolation": 2}]}, "perspective_c1_y": {"Points": [{"co": {"Y": -1.0, "X": 1.0}, "interpolation": 2}]}, "rotation": {"Points": [{"co": {"Y": 0.0, "X": 1.0}, "interpolation": 2}]}, "perspective_c4_y": {"Points": [{"co": {"Y": -1.0, "X": 1.0}, "interpolation": 2}]}, "duration": 18.0, "wave_color": {"red": {"Points": [{"handle_right": {"Y": 0.0, "X": 0.5}, "handle_type": 0, "handle_left": {"Y": 1.0, "X": 0.5}, "co": {"Y": 0.0, "X": 1.0}, "interpolation": 0}]}, "green": {"Points": [{"handle_right": {"Y": 0.0, "X": 0.5}, "handle_type": 0, "handle_left": {"Y": 1.0, "X": 0.5}, "co": {"Y": 123.0, "X": 1.0}, "interpolation": 0}]}, "blue": {"Points": [{"handle_right": {"Y": 0.0, "X": 0.5}, "handle_type": 0, "handle_left": {"Y": 1.0, "X": 0.5}, "co": {"Y": 255.0, "X": 1.0}, "interpolation": 0}]}, "alpha": {"Points": [{"handle_right": {"Y": 0.0, "X": 0.5}, "handle_type": 0, "handle_left": {"Y": 1.0, "X": 0.5}, "co": {"Y": 255.0, "X": 1.0}, "interpolation": 0}]}}, "time": {"Points": [{"co": {"Y": 1, "X": 1}, "interpolation": 1}, {"co": {"Y": 835, "X": 418}, "interpolation": 1}]}, "crop_height": {"Points": [{"co": {"Y": -1.0, "X": 1.0}, "interpolation": 2}]}, "scale_y": {"Points": [{"co": {"Y": 2.299999952316284, "X": 1.0}, "interpolation": 2}]}, "effects": []}, {"location_x": {"Points": [{"co": {"Y": 0.0, "X": 1.0}, "interpolation": 2}]}, "perspective_c3_x": {"Points": [{"co": {"Y": -1.0, "X": 1.0}, "interpolation": 2}]}, "perspective_c4_x": {"Points": [{"co": {"Y": -1.0, "X": 1.0}, "interpolation": 2}]}, "channel_filter": {"Points": [{"co": {"Y": -1.0, "X": 1.0}, "interpolation": 2}]}, "perspective_c2_x": {"Points": [{"co": {"Y": -1.0, "X": 1.0}, "interpolation": 2}]}, "perspective_c1_x": {"Points": [{"co": {"Y": -1.0, "X": 1.0}, "interpolation": 2}]}, "anchor": 0, "alpha": {"Points": [{"co": {"Y": 1.0, "X": 1.0}, "interpolation": 2}]}, "id": "XUROHR8TBC", "layer": 0, "file_id": "0F0RWXSQM9", "display": 0, "scale": 1, "gravity": 4, "crop_width": {"Points": [{"co": {"Y": -1.0, "X": 1.0}, "interpolation": 2}]}, "crop_x": {"Points": [{"co": {"Y": 0.0, "X": 1.0}, "interpolation": 2}]}, "shear_x": {"Points": [{"co": {"Y": 0.0, "X": 1.0}, "interpolation": 2}]}, "volume": {"Points": [{"co": {"Y": 1.0, "X": 1.0}, "interpolation": 2}]}, "start": 0, "rotation": {"Points": [{"co": {"Y": 0.0, "X": 1.0}, "interpolation": 2}]}, "reader": {"video_stream_index": -1, "video_length": "2592000", "interlaced_frame": false, "audio_bit_rate": 0, "audio_timebase": {"den": 1, "num": 1}, "vcodec": "", "channels": 0, "has_video": true, "channel_layout": 4, "has_audio": false, "video_timebase": {"den": 30, "num": 1}, "has_single_image": true, "acodec": "", "video_bit_rate": 0, "display_ratio": {"den": 9, "num": 16}, "audio_stream_index": -1, "type": "QtImageReader", "top_field_first": true, "width": 1920, "pixel_ratio": {"den": 1, "num": 1}, "height": 1080, "duration": 86400.0, "file_size": "8294400", "path": "/home/milind/Data/Projects/ProgressCard/!000-White-Background.svg", "fps": {"den": 1, "num": 30}, "pixel_format": -1, "sample_rate": 0}, "position": 173.20078124999998, "has_video": {"Points": [{"co": {"Y": -1.0, "X": 1.0}, "interpolation": 2}]}, "has_audio": {"Points": [{"co": {"Y": -1.0, "X": 1.0}, "interpolation": 2}]}, "channel_mapping": {"Points": [{"co": {"Y": -1.0, "X": 1.0}, "interpolation": 2}]}, "shear_y": {"Points": [{"co": {"Y": 0.0, "X": 1.0}, "interpolation": 2}]}, "perspective_c3_y": {"Points": [{"co": {"Y": -1.0, "X": 1.0}, "interpolation": 2}]}, "waveform": false, "end": 10, "scale_x": {"Points": [{"co": {"Y": 1.0, "X": 1.0}, "interpolation": 2}]}, "image": "/home/milind/.openshot_qt/thumbnail/0F0RWXSQM9.png", "location_y": {"Points": [{"co": {"Y": 0.0, "X": 1.0}, "interpolation": 2}]}, "crop_y": {"Points": [{"co": {"Y": 0.0, "X": 1.0}, "interpolation": 2}]}, "perspective_c2_y": {"Points": [{"co": {"Y": -1.0, "X": 1.0}, "interpolation": 2}]}, "perspective_c1_y": {"Points": [{"co": {"Y": -1.0, "X": 1.0}, "interpolation": 2}]}, "title": "!000-White-Background.svg", "perspective_c4_y": {"Points": [{"co": {"Y": -1.0, "X": 1.0}, "interpolation": 2}]}, "duration": 86400.0, "wave_color": {"red": {"Points": [{"handle_right": {"Y": 0.0, "X": 0.5}, "handle_type": 0, "handle_left": {"Y": 1.0, "X": 0.5}, "co": {"Y": 0.0, "X": 1.0}, "interpolation": 0}]}, "green": {"Points": [{"handle_right": {"Y": 0.0, "X": 0.5}, "handle_type": 0, "handle_left": {"Y": 1.0, "X": 0.5}, "co": {"Y": 123.0, "X": 1.0}, "interpolation": 0}]}, "blue": {"Points": [{"handle_right": {"Y": 0.0, "X": 0.5}, "handle_type": 0, "handle_left": {"Y": 1.0, "X": 0.5}, "co": {"Y": 255.0, "X": 1.0}, "interpolation": 0}]}, "alpha": {"Points": [{"handle_right": {"Y": 0.0, "X": 0.5}, "handle_type": 0, "handle_left": {"Y": 1.0, "X": 0.5}, "co": {"Y": 255.0, "X": 1.0}, "interpolation": 0}]}}, "time": {"Points": [{"co": {"Y": 1.0, "X": 1.0}, "interpolation": 2}]}, "crop_height": {"Points": [{"co": {"Y": -1.0, "X": 1.0}, "interpolation": 2}]}, "scale_y": {"Points": [{"co": {"Y": 1.0, "X": 1.0}, "interpolation": 2}]}, "effects": []}, {"location_x": {"Points": [{"handle_right": {"Y": 0.0, "X": 0.5}, "handle_type": 0, "handle_left": {"Y": 1.0, "X": 0.5}, "co": {"Y": 0.0, "X": 1.0}, "interpolation": 0}]}, "perspective_c3_x": {"Points": [{"co": {"Y": -1.0, "X": 1.0}, "interpolation": 2}]}, "perspective_c4_x": {"Points": [{"co": {"Y": -1.0, "X": 1.0}, "interpolation": 2}]}, "channel_filter": {"Points": [{"co": {"Y": -1.0, "X": 1.0}, "interpolation": 2}]}, "perspective_c2_x": {"Points": [{"co": {"Y": -1.0, "X": 1.0}, "interpolation": 2}]}, "perspective_c1_x": {"Points": [{"co": {"Y": -1.0, "X": 1.0}, "interpolation": 2}]}, "anchor": 0, "alpha": {"Points": [{"co": {"Y": 1.0, "X": 1.0}, "interpolation": 2}, {"handle_right": {"Y": 0.0, "X": 0.5}, "handle_type": 0, "handle_left": {"Y": 1.0, "X": 0.5}, "co": {"Y": 0.0, "X": 1.0}, "interpolation": 0}, {"handle_right": {"Y": 0.0, "X": 0.5}, "handle_type": 0, "handle_left": {"Y": 1.0, "X": 0.5}, "co": {"Y": 1.0, "X": 73.0}, "interpolation": 0}]}, "id": "UUTCPBA7W2", "layer": 2, "file_id": "A5ENU0DW4J", "display": 0, "scale": 1, "gravity": 4, "crop_width": {"Points": [{"co": {"Y": -1.0, "X": 1.0}, "interpolation": 2}]}, "crop_x": {"Points": [{"co": {"Y": 0.0, "X": 1.0}, "interpolation": 2}]}, "shear_x": {"Points": [{"co": {"Y": 0.0, "X": 1.0}, "interpolation": 2}]}, "volume": {"Points": [{"co": {"Y": 1.0, "X": 1.0}, "interpolation": 2}]}, "start": 0, "rotation": {"Points": [{"co": {"Y": 0.0, "X": 1.0}, "interpolation": 2}]}, "reader": {"video_stream_index": 0, "video_length": "500", "interlaced_frame": false, "audio_bit_rate": 0, "audio_timebase": {"den": 1, "num": 1}, "vcodec": "h264", "channels": 0, "has_video": true, "channel_layout": 4, "has_audio": false, "video_timebase": {"den": 1000, "num": 1}, "has_single_image": false, "acodec": "", "video_bit_rate": 0, "display_ratio": {"den": 186, "num": 325}, "audio_stream_index": -1, "type": "FFmpegReader", "top_field_first": true, "width": 1300, "pixel_ratio": {"den": 1, "num": 1}, "height": 744, "duration": 20.0, "file_size": "204468", "path": "/home/milind/Data/Projects/ProgressCard/!110-Float Format Dialog.mkv", "fps": {"den": 1, "num": 25}, "pixel_format": 0, "sample_rate": 0}, "position": 140.15171875, "has_video": {"Points": [{"co": {"Y": -1.0, "X": 1.0}, "interpolation": 2}]}, "has_audio": {"Points": [{"co": {"Y": -1.0, "X": 1.0}, "interpolation": 2}]}, "channel_mapping": {"Points": [{"co": {"Y": -1.0, "X": 1.0}, "interpolation": 2}]}, "shear_y": {"Points": [{"co": {"Y": 0.0, "X": 1.0}, "interpolation": 2}]}, "perspective_c3_y": {"Points": [{"co": {"Y": -1.0, "X": 1.0}, "interpolation": 2}]}, "waveform": false, "end": 13.523333333333312, "scale_x": {"Points": [{"handle_right": {"Y": 0.0, "X": 0.5}, "handle_type": 0, "handle_left": {"Y": 1.0, "X": 0.5}, "co": {"Y": 1.5, "X": 1.0}, "interpolation": 0}]}, "image": "/home/milind/.openshot_qt/thumbnail/A5ENU0DW4J.png", "location_y": {"Points": [{"handle_right": {"Y": 0.0, "X": 0.5}, "handle_type": 0, "handle_left": {"Y": 1.0, "X": 0.5}, "co": {"Y": 0.0, "X": 1.0}, "interpolation": 0}]}, "crop_y": {"Points": [{"co": {"Y": 0.0, "X": 1.0}, "interpolation": 2}]}, "perspective_c2_y": {"Points": [{"co": {"Y": -1.0, "X": 1.0}, "interpolation": 2}]}, "perspective_c1_y": {"Points": [{"co": {"Y": -1.0, "X": 1.0}, "interpolation": 2}]}, "title": "!110-Float Format Dialog.mkv", "perspective_c4_y": {"Points": [{"co": {"Y": -1.0, "X": 1.0}, "interpolation": 2}]}, "duration": 20.0, "wave_color": {"red": {"Points": [{"handle_right": {"Y": 0.0, "X": 0.5}, "handle_type": 0, "handle_left": {"Y": 1.0, "X": 0.5}, "co": {"Y": 0.0, "X": 1.0}, "interpolation": 0}]}, "green": {"Points": [{"handle_right": {"Y": 0.0, "X": 0.5}, "handle_type": 0, "handle_left": {"Y": 1.0, "X": 0.5}, "co": {"Y": 123.0, "X": 1.0}, "interpolation": 0}]}, "blue": {"Points": [{"handle_right": {"Y": 0.0, "X": 0.5}, "handle_type": 0, "handle_left": {"Y": 1.0, "X": 0.5}, "co": {"Y": 255.0, "X": 1.0}, "interpolation": 0}]}, "alpha": {"Points": [{"handle_right": {"Y": 0.0, "X": 0.5}, "handle_type": 0, "handle_left": {"Y": 1.0, "X": 0.5}, "co": {"Y": 255.0, "X": 1.0}, "interpolation": 0}]}}, "time": {"Points": [{"co": {"Y": 1.0, "X": 1.0}, "interpolation": 2}]}, "crop_height": {"Points": [{"co": {"Y": -1.0, "X": 1.0}, "interpolation": 2}]}, "scale_y": {"Points": [{"handle_right": {"Y": 0.0, "X": 0.5}, "handle_type": 0, "handle_left": {"Y": 1.0, "X": 0.5}, "co": {"Y": 1.5, "X": 1.0}, "interpolation": 0}]}, "effects": []}, {"location_x": {"Points": [{"co": {"Y": 0.0, "X": 1.0}, "interpolation": 2}]}, "perspective_c3_x": {"Points": [{"co": {"Y": -1.0, "X": 1.0}, "interpolation": 2}]}, "perspective_c4_x": {"Points": [{"co": {"Y": -1.0, "X": 1.0}, "interpolation": 2}]}, "channel_filter": {"Points": [{"co": {"Y": -1.0, "X": 1.0}, "interpolation": 2}]}, "perspective_c2_x": {"Points": [{"co": {"Y": -1.0, "X": 1.0}, "interpolation": 2}]}, "perspective_c1_x": {"Points": [{"co": {"Y": -1.0, "X": 1.0}, "interpolation": 2}]}, "anchor": 0, "alpha": {"Points": [{"co": {"Y": 1.0, "X": 1.0}, "interpolation": 2}]}, "id": "HGE2JUKOAI", "layer": 0, "file_id": "0F0RWXSQM9", "display": 0, "scale": 1, "gravity": 4, "crop_width": {"Points": [{"co": {"Y": -1.0, "X": 1.0}, "interpolation": 2}]}, "crop_x": {"Points": [{"co": {"Y": 0.0, "X": 1.0}, "interpolation": 2}]}, "shear_x": {"Points": [{"co": {"Y": 0.0, "X": 1.0}, "interpolation": 2}]}, "volume": {"Points": [{"co": {"Y": 1.0, "X": 1.0}, "interpolation": 2}]}, "start": 0, "rotation": {"Points": [{"co": {"Y": 0.0, "X": 1.0}, "interpolation": 2}]}, "reader": {"video_stream_index": -1, "video_length": "2592000", "interlaced_frame": false, "audio_bit_rate": 0, "audio_timebase": {"den": 1, "num": 1}, "vcodec": "", "channels": 0, "has_video": true, "channel_layout": 4, "has_audio": false, "video_timebase": {"den": 30, "num": 1}, "has_single_image": true, "acodec": "", "video_bit_rate": 0, "display_ratio": {"den": 9, "num": 16}, "audio_stream_index": -1, "type": "QtImageReader", "top_field_first": true, "width": 1920, "pixel_ratio": {"den": 1, "num": 1}, "height": 1080, "duration": 86400.0, "file_size": "8294400", "path": "/home/milind/Data/Projects/ProgressCard/!000-White-Background.svg", "fps": {"den": 1, "num": 30}, "pixel_format": -1, "sample_rate": 0}, "position": 262.15859374999997, "has_video": {"Points": [{"co": {"Y": -1.0, "X": 1.0}, "interpolation": 2}]}, "has_audio": {"Points": [{"co": {"Y": -1.0, "X": 1.0}, "interpolation": 2}]}, "channel_mapping": {"Points": [{"co": {"Y": -1.0, "X": 1.0}, "interpolation": 2}]}, "shear_y": {"Points": [{"co": {"Y": 0.0, "X": 1.0}, "interpolation": 2}]}, "perspective_c3_y": {"Points": [{"co": {"Y": -1.0, "X": 1.0}, "interpolation": 2}]}, "waveform": false, "end": 10, "scale_x": {"Points": [{"co": {"Y": 1.0, "X": 1.0}, "interpolation": 2}]}, "image": "/home/milind/.openshot_qt/thumbnail/0F0RWXSQM9.png", "location_y": {"Points": [{"co": {"Y": 0.0, "X": 1.0}, "interpolation": 2}]}, "crop_y": {"Points": [{"co": {"Y": 0.0, "X": 1.0}, "interpolation": 2}]}, "perspective_c2_y": {"Points": [{"co": {"Y": -1.0, "X": 1.0}, "interpolation": 2}]}, "perspective_c1_y": {"Points": [{"co": {"Y": -1.0, "X": 1.0}, "interpolation": 2}]}, "title": "!000-White-Background.svg", "perspective_c4_y": {"Points": [{"co": {"Y": -1.0, "X": 1.0}, "interpolation": 2}]}, "duration": 86400.0, "wave_color": {"red": {"Points": [{"handle_right": {"Y": 0.0, "X": 0.5}, "handle_type": 0, "handle_left": {"Y": 1.0, "X": 0.5}, "co": {"Y": 0.0, "X": 1.0}, "interpolation": 0}]}, "green": {"Points": [{"handle_right": {"Y": 0.0, "X": 0.5}, "handle_type": 0, "handle_left": {"Y": 1.0, "X": 0.5}, "co": {"Y": 123.0, "X": 1.0}, "interpolation": 0}]}, "blue": {"Points": [{"handle_right": {"Y": 0.0, "X": 0.5}, "handle_type": 0, "handle_left": {"Y": 1.0, "X": 0.5}, "co": {"Y": 255.0, "X": 1.0}, "interpolation": 0}]}, "alpha": {"Points": [{"handle_right": {"Y": 0.0, "X": 0.5}, "handle_type": 0, "handle_left": {"Y": 1.0, "X": 0.5}, "co": {"Y": 255.0, "X": 1.0}, "interpolation": 0}]}}, "time": {"Points": [{"co": {"Y": 1.0, "X": 1.0}, "interpolation": 2}]}, "crop_height": {"Points": [{"co": {"Y": -1.0, "X": 1.0}, "interpolation": 2}]}, "scale_y": {"Points": [{"co": {"Y": 1.0, "X": 1.0}, "interpolation": 2}]}, "effects": []}, {"location_x": {"Points": [{"co": {"Y": 0.0, "X": 1.0}, "interpolation": 2}]}, "perspective_c4_x": {"Points": [{"co": {"Y": -1.0, "X": 1.0}, "interpolation": 2}]}, "channel_filter": {"Points": [{"co": {"Y": -1.0, "X": 1.0}, "interpolation": 2}]}, "duration": 15.0, "perspective_c1_x": {"Points": [{"co": {"Y": -1.0, "X": 1.0}, "interpolation": 2}]}, "perspective_c2_x": {"Points": [{"co": {"Y": -1.0, "X": 1.0}, "interpolation": 2}]}, "alpha": {"Points": [{"handle_right": {"Y": 0.0, "X": 0.5}, "handle_type": 0, "handle_left": {"Y": 1.0, "X": 0.5}, "co": {"Y": 1.0, "X": 1.0}, "interpolation": 0}, {"handle_right": {"Y": 0.0, "X": 0.5}, "handle_type": 0, "handle_left": {"Y": 1.0, "X": 0.5}, "co": {"Y": 0.0, "X": 1.0}, "interpolation": 0}, {"handle_right": {"Y": 0.0, "X": 0.5}, "handle_type": 0, "handle_left": {"Y": 1.0, "X": 0.5}, "co": {"Y": 1.0, "X": 73.0}, "interpolation": 0}, {"handle_right": {"Y": 0.0, "X": 0.5}, "handle_type": 0, "handle_left": {"Y": 1.0, "X": 0.5}, "co": {"Y": 1.0, "X": 183.0}, "interpolation": 0}, {"handle_right": {"Y": 0.0, "X": 0.5}, "handle_type": 0, "handle_left": {"Y": 1.0, "X": 0.5}, "co": {"Y": 0.0, "X": 255.0}, "interpolation": 0}]}, "id": "O0H3RPMELI", "layer": 3, "display": 0, "scale": 1, "gravity": 4, "crop_width": {"Points": [{"co": {"Y": -1.0, "X": 1.0}, "interpolation": 2}]}, "crop_x": {"Points": [{"co": {"Y": 0.0, "X": 1.0}, "interpolation": 2}]}, "shear_x": {"Points": [{"co": {"Y": 0.0, "X": 1.0}, "interpolation": 2}]}, "volume": {"Points": [{"co": {"Y": 1.0, "X": 1.0}, "interpolation": 2}]}, "has_audio": {"Points": [{"co": {"Y": -1.0, "X": 1.0}, "interpolation": 2}]}, "end": 10.595000000000027, "title": "!120-Two Decimal Format.mkv", "crop_y": {"Points": [{"co": {"Y": 0.0, "X": 1.0}, "interpolation": 2}]}, "reader": {"video_stream_index": 0, "video_length": "375", "interlaced_frame": false, "audio_bit_rate": 0, "audio_timebase": {"den": 1, "num": 1}, "vcodec": "h264", "channels": 0, "has_video": true, "channel_layout": 4, "has_audio": false, "video_timebase": {"den": 1000, "num": 1}, "has_single_image": false, "acodec": "", "video_bit_rate": 0, "display_ratio": {"den": 186, "num": 325}, "audio_stream_index": -1, "type": "FFmpegReader", "top_field_first": true, "width": 1300, "pixel_ratio": {"den": 1, "num": 1}, "height": 744, "duration": 15.0, "file_size": "187523", "path": "/home/milind/Data/Projects/ProgressCard/!120-Two Decimal Format.mkv", "fps": {"den": 1, "num": 25}, "pixel_format": 0, "sample_rate": 0}, "position": 152.00921875, "has_video": {"Points": [{"co": {"Y": -1.0, "X": 1.0}, "interpolation": 2}]}, "start": 0, "channel_mapping": {"Points": [{"co": {"Y": -1.0, "X": 1.0}, "interpolation": 2}]}, "shear_y": {"Points": [{"co": {"Y": 0.0, "X": 1.0}, "interpolation": 2}]}, "perspective_c3_y": {"Points": [{"co": {"Y": -1.0, "X": 1.0}, "interpolation": 2}]}, "waveform": false, "perspective_c3_x": {"Points": [{"co": {"Y": -1.0, "X": 1.0}, "interpolation": 2}]}, "scale_x": {"Points": [{"co": {"Y": 1.5, "X": 1.0}, "interpolation": 2}]}, "image": "/home/milind/.openshot_qt/thumbnail/UGJYEMW42F.png", "location_y": {"Points": [{"co": {"Y": 0.0, "X": 1.0}, "interpolation": 2}]}, "file_id": "UGJYEMW42F", "perspective_c2_y": {"Points": [{"co": {"Y": -1.0, "X": 1.0}, "interpolation": 2}]}, "perspective_c1_y": {"Points": [{"co": {"Y": -1.0, "X": 1.0}, "interpolation": 2}]}, "rotation": {"Points": [{"co": {"Y": 0.0, "X": 1.0}, "interpolation": 2}]}, "perspective_c4_y": {"Points": [{"co": {"Y": -1.0, "X": 1.0}, "interpolation": 2}]}, "anchor": 0, "wave_color": {"red": {"Points": [{"handle_right": {"Y": 0.0, "X": 0.5}, "handle_type": 0, "handle_left": {"Y": 1.0, "X": 0.5}, "co": {"Y": 0.0, "X": 1.0}, "interpolation": 0}]}, "green": {"Points": [{"handle_right": {"Y": 0.0, "X": 0.5}, "handle_type": 0, "handle_left": {"Y": 1.0, "X": 0.5}, "co": {"Y": 123.0, "X": 1.0}, "interpolation": 0}]}, "blue": {"Points": [{"handle_right": {"Y": 0.0, "X": 0.5}, "handle_type": 0, "handle_left": {"Y": 1.0, "X": 0.5}, "co": {"Y": 255.0, "X": 1.0}, "interpolation": 0}]}, "alpha": {"Points": [{"handle_right": {"Y": 0.0, "X": 0.5}, "handle_type": 0, "handle_left": {"Y": 1.0, "X": 0.5}, "co": {"Y": 255.0, "X": 1.0}, "interpolation": 0}]}}, "time": {"Points": [{"co": {"Y": 1.0, "X": 1.0}, "interpolation": 2}]}, "crop_height": {"Points": [{"co": {"Y": -1.0, "X": 1.0}, "interpolation": 2}]}, "scale_y": {"Points": [{"co": {"Y": 1.5, "X": 1.0}, "interpolation": 2}]}, "effects": []}, {"location_x": {"Points": [{"handle_right": {"Y": 0.0, "X": 0.5}, "handle_type": 0, "handle_left": {"Y": 1.0, "X": 0.5}, "co": {"Y": 0.5299999713897705, "X": 1.0}, "interpolation": 0}, {"co": {"Y": -0.019999999552965164, "X": 121}, "interpolation": 1}]}, "perspective_c3_x": {"Points": [{"co": {"Y": -1.0, "X": 1.0}, "interpolation": 2}]}, "perspective_c4_x": {"Points": [{"co": {"Y": -1.0, "X": 1.0}, "interpolation": 2}]}, "channel_filter": {"Points": [{"co": {"Y": -1.0, "X": 1.0}, "interpolation": 2}]}, "perspective_c2_x": {"Points": [{"co": {"Y": -1.0, "X": 1.0}, "interpolation": 2}]}, "perspective_c1_x": {"Points": [{"co": {"Y": -1.0, "X": 1.0}, "interpolation": 2}]}, "anchor": 0, "alpha": {"Points": [{"handle_right": {"Y": 0, "X": 0.5}, "handle_type": 0, "handle_left": {"Y": 1, "X": 0.5}, "co": {"Y": 1, "X": 1}, "interpolation": 0}, {"handle_right": {"Y": 0, "X": 0.5}, "handle_type": 0, "handle_left": {"Y": 1, "X": 0.5}, "co": {"Y": 0, "X": 1}, "interpolation": 0}, {"handle_right": {"Y": 0, "X": 0.5}, "handle_type": 0, "handle_left": {"Y": 1, "X": 0.5}, "co": {"Y": 1, "X": 73}, "interpolation": 0}, {"handle_right": {"Y": 0, "X": 0.5}, "handle_type": 0, "handle_left": {"Y": 1, "X": 0.5}, "co": {"Y": 1, "X": 2057}, "interpolation": 0}, {"handle_right": {"Y": 0, "X": 0.5}, "handle_type": 0, "handle_left": {"Y": 1, "X": 0.5}, "co": {"Y": 0, "X": 2129}, "interpolation": 0}]}, "id": "1W8DREEE59", "layer": 1, "file_id": "616P05WPS9", "display": 0, "scale": 1, "gravity": 4, "crop_width": {"Points": [{"co": {"Y": -1.0, "X": 1.0}, "interpolation": 2}]}, "crop_x": {"Points": [{"co": {"Y": 0.0, "X": 1.0}, "interpolation": 2}]}, "shear_x": {"Points": [{"co": {"Y": 0.0, "X": 1.0}, "interpolation": 2}]}, "volume": {"Points": [{"co": {"Y": 1.0, "X": 1.0}, "interpolation": 2}]}, "start": 0, "rotation": {"Points": [{"co": {"Y": 0.0, "X": 1.0}, "interpolation": 2}]}, "reader": {"video_stream_index": 0, "video_length": "4525", "interlaced_frame": false, "audio_bit_rate": 0, "audio_timebase": {"den": 1, "num": 1}, "vcodec": "h264", "channels": 0, "has_video": true, "channel_layout": 4, "has_audio": false, "video_timebase": {"den": 1000, "num": 1}, "has_single_image": false, "acodec": "", "video_bit_rate": 0, "display_ratio": {"den": 186, "num": 325}, "audio_stream_index": -1, "type": "FFmpegReader", "top_field_first": true, "width": 1300, "pixel_ratio": {"den": 1, "num": 1}, "height": 744, "duration": 181.0, "file_size": "1502027", "path": "/home/milind/Data/Projects/ProgressCard/!140-Grade Formula.mkv", "fps": {"den": 1, "num": 25}, "pixel_format": 0, "sample_rate": 0}, "position": 177.65796874999998, "has_video": {"Points": [{"co": {"Y": -1.0, "X": 1.0}, "interpolation": 2}]}, "has_audio": {"Points": [{"co": {"Y": -1.0, "X": 1.0}, "interpolation": 2}]}, "channel_mapping": {"Points": [{"co": {"Y": -1.0, "X": 1.0}, "interpolation": 2}]}, "shear_y": {"Points": [{"co": {"Y": 0.0, "X": 1.0}, "interpolation": 2}]}, "perspective_c3_y": {"Points": [{"co": {"Y": -1.0, "X": 1.0}, "interpolation": 2}]}, "waveform": false, "end": 88.66666666666667, "scale_x": {"Points": [{"handle_right": {"Y": 0.0, "X": 0.5}, "handle_type": 0, "handle_left": {"Y": 1.0, "X": 0.5}, "co": {"Y": 2.299999952316284, "X": 1.0}, "interpolation": 0}, {"co": {"Y": 1.7000000476837158, "X": 121}, "interpolation": 1}]}, "image": "/home/milind/.openshot_qt/thumbnail/616P05WPS9.png", "location_y": {"Points": [{"handle_right": {"Y": 0.0, "X": 0.5}, "handle_type": 0, "handle_left": {"Y": 1.0, "X": 0.5}, "co": {"Y": 0.5199999809265137, "X": 1.0}, "interpolation": 0}, {"co": {"Y": 0.30000001192092896, "X": 121}, "interpolation": 1}]}, "crop_y": {"Points": [{"co": {"Y": 0.0, "X": 1.0}, "interpolation": 2}]}, "perspective_c2_y": {"Points": [{"co": {"Y": -1.0, "X": 1.0}, "interpolation": 2}]}, "perspective_c1_y": {"Points": [{"co": {"Y": -1.0, "X": 1.0}, "interpolation": 2}]}, "title": "!140-Grade Formula.mkv", "perspective_c4_y": {"Points": [{"co": {"Y": -1.0, "X": 1.0}, "interpolation": 2}]}, "duration": 90.0, "wave_color": {"red": {"Points": [{"handle_right": {"Y": 0.0, "X": 0.5}, "handle_type": 0, "handle_left": {"Y": 1.0, "X": 0.5}, "co": {"Y": 0.0, "X": 1.0}, "interpolation": 0}]}, "green": {"Points": [{"handle_right": {"Y": 0.0, "X": 0.5}, "handle_type": 0, "handle_left": {"Y": 1.0, "X": 0.5}, "co": {"Y": 123.0, "X": 1.0}, "interpolation": 0}]}, "blue": {"Points": [{"handle_right": {"Y": 0.0, "X": 0.5}, "handle_type": 0, "handle_left": {"Y": 1.0, "X": 0.5}, "co": {"Y": 255.0, "X": 1.0}, "interpolation": 0}]}, "alpha": {"Points": [{"handle_right": {"Y": 0.0, "X": 0.5}, "handle_type": 0, "handle_left": {"Y": 1.0, "X": 0.5}, "co": {"Y": 255.0, "X": 1.0}, "interpolation": 0}]}}, "time": {"Points": [{"co": {"Y": 1, "X": 1}, "interpolation": 1}, {"co": {"Y": 4255, "X": 2128}, "interpolation": 1}]}, "crop_height": {"Points": [{"co": {"Y": -1.0, "X": 1.0}, "interpolation": 2}]}, "scale_y": {"Points": [{"handle_right": {"Y": 0.0, "X": 0.5}, "handle_type": 0, "handle_left": {"Y": 1.0, "X": 0.5}, "co": {"Y": 2.299999952316284, "X": 1.0}, "interpolation": 0}, {"co": {"Y": 1.7000000476837158, "X": 121}, "interpolation": 1}]}, "effects": []}, {"location_x": {"Points": [{"co": {"Y": 0.0, "X": 1.0}, "interpolation": 2}, {"co": {"Y": -0.07999999821186066, "X": 373}, "interpolation": 1}, {"co": {"Y": 0.0, "X": 224}, "interpolation": 1}, {"co": {"Y": 0.0, "X": 617}, "interpolation": 1}]}, "perspective_c3_x": {"Points": [{"co": {"Y": -1.0, "X": 1.0}, "interpolation": 2}]}, "perspective_c4_x": {"Points": [{"co": {"Y": -1.0, "X": 1.0}, "interpolation": 2}]}, "channel_filter": {"Points": [{"co": {"Y": -1.0, "X": 1.0}, "interpolation": 2}]}, "perspective_c2_x": {"Points": [{"co": {"Y": -1.0, "X": 1.0}, "interpolation": 2}]}, "perspective_c1_x": {"Points": [{"co": {"Y": -1.0, "X": 1.0}, "interpolation": 2}]}, "anchor": 0, "alpha": {"Points": [{"co": {"Y": 1.0, "X": 1.0}, "interpolation": 2}, {"handle_right": {"Y": 0.0, "X": 0.5}, "handle_type": 0, "handle_left": {"Y": 1.0, "X": 0.5}, "co": {"Y": 1.0, "X": 545.0}, "interpolation": 0}, {"handle_right": {"Y": 0.0, "X": 0.5}, "handle_type": 0, "handle_left": {"Y": 1.0, "X": 0.5}, "co": {"Y": 0.0, "X": 617.0}, "interpolation": 0}]}, "id": "3KRS4J70ZV", "layer": 1, "file_id": "2202V21TTZ", "display": 0, "scale": 1, "gravity": 4, "crop_width": {"Points": [{"co": {"Y": -1.0, "X": 1.0}, "interpolation": 2}]}, "crop_x": {"Points": [{"co": {"Y": 0.0, "X": 1.0}, "interpolation": 2}]}, "shear_x": {"Points": [{"co": {"Y": 0.0, "X": 1.0}, "interpolation": 2}, {"co": {"Y": 0.0, "X": 373}, "interpolation": 1}]}, "volume": {"Points": [{"co": {"Y": 1.0, "X": 1.0}, "interpolation": 2}]}, "start": 0, "rotation": {"Points": [{"co": {"Y": 0.0, "X": 1.0}, "interpolation": 2}]}, "reader": {"video_stream_index": 0, "video_length": "725", "interlaced_frame": false, "audio_bit_rate": 0, "audio_timebase": {"den": 1, "num": 1}, "vcodec": "h264", "channels": 0, "has_video": true, "channel_layout": 4, "has_audio": false, "video_timebase": {"den": 1000, "num": 1}, "has_single_image": false, "acodec": "", "video_bit_rate": 0, "display_ratio": {"den": 186, "num": 325}, "audio_stream_index": -1, "type": "FFmpegReader", "top_field_first": true, "width": 1300, "pixel_ratio": {"den": 1, "num": 1}, "height": 744, "duration": 29.0, "file_size": "293155", "path": "/home/milind/Data/Projects/ProgressCard/!130-Copy Average.mkv", "fps": {"den": 1, "num": 25}, "pixel_format": 0, "sample_rate": 0}, "position": 152.00921875, "has_video": {"Points": [{"co": {"Y": -1.0, "X": 1.0}, "interpolation": 2}]}, "has_audio": {"Points": [{"co": {"Y": -1.0, "X": 1.0}, "interpolation": 2}]}, "channel_mapping": {"Points": [{"co": {"Y": -1.0, "X": 1.0}, "interpolation": 2}]}, "shear_y": {"Points": [{"co": {"Y": 0.0, "X": 1.0}, "interpolation": 2}]}, "perspective_c3_y": {"Points": [{"co": {"Y": -1.0, "X": 1.0}, "interpolation": 2}]}, "waveform": false, "end": 25.649999999999977, "scale_x": {"Points": [{"co": {"Y": 1.5, "X": 1.0}, "interpolation": 2}, {"co": {"Y": 2.299999952316284, "X": 373}, "interpolation": 1}, {"co": {"Y": 1.5, "X": 224}, "interpolation": 1}]}, "image": "/home/milind/.openshot_qt/thumbnail/2202V21TTZ.png", "location_y": {"Points": [{"co": {"Y": 0.0, "X": 1.0}, "interpolation": 2}, {"co": {"Y": 0.5199999809265137, "X": 373}, "interpolation": 1}, {"co": {"Y": 0.0, "X": 224}, "interpolation": 1}]}, "crop_y": {"Points": [{"co": {"Y": 0.0, "X": 1.0}, "interpolation": 2}]}, "perspective_c2_y": {"Points": [{"co": {"Y": -1.0, "X": 1.0}, "interpolation": 2}]}, "perspective_c1_y": {"Points": [{"co": {"Y": -1.0, "X": 1.0}, "interpolation": 2}]}, "title": "!130-Copy Average.mkv", "perspective_c4_y": {"Points": [{"co": {"Y": -1.0, "X": 1.0}, "interpolation": 2}]}, "duration": 29.0, "wave_color": {"red": {"Points": [{"handle_right": {"Y": 0.0, "X": 0.5}, "handle_type": 0, "handle_left": {"Y": 1.0, "X": 0.5}, "co": {"Y": 0.0, "X": 1.0}, "interpolation": 0}]}, "green": {"Points": [{"handle_right": {"Y": 0.0, "X": 0.5}, "handle_type": 0, "handle_left": {"Y": 1.0, "X": 0.5}, "co": {"Y": 123.0, "X": 1.0}, "interpolation": 0}]}, "blue": {"Points": [{"handle_right": {"Y": 0.0, "X": 0.5}, "handle_type": 0, "handle_left": {"Y": 1.0, "X": 0.5}, "co": {"Y": 255.0, "X": 1.0}, "interpolation": 0}]}, "alpha": {"Points": [{"handle_right": {"Y": 0.0, "X": 0.5}, "handle_type": 0, "handle_left": {"Y": 1.0, "X": 0.5}, "co": {"Y": 255.0, "X": 1.0}, "interpolation": 0}]}}, "time": {"Points": [{"co": {"Y": 1.0, "X": 1.0}, "interpolation": 2}]}, "crop_height": {"Points": [{"co": {"Y": -1.0, "X": 1.0}, "interpolation": 2}]}, "scale_y": {"Points": [{"co": {"Y": 1.5, "X": 1.0}, "interpolation": 2}, {"co": {"Y": 2.299999952316284, "X": 373}, "interpolation": 1}, {"co": {"Y": 1.5, "X": 224}, "interpolation": 1}]}, "effects": []}, {"location_x": {"Points": [{"co": {"Y": 0.0, "X": 1.0}, "interpolation": 2}]}, "perspective_c3_x": {"Points": [{"co": {"Y": -1.0, "X": 1.0}, "interpolation": 2}]}, "perspective_c4_x": {"Points": [{"co": {"Y": -1.0, "X": 1.0}, "interpolation": 2}]}, "channel_filter": {"Points": [{"co": {"Y": -1.0, "X": 1.0}, "interpolation": 2}]}, "perspective_c2_x": {"Points": [{"co": {"Y": -1.0, "X": 1.0}, "interpolation": 2}]}, "perspective_c1_x": {"Points": [{"co": {"Y": -1.0, "X": 1.0}, "interpolation": 2}]}, "anchor": 0, "alpha": {"Points": [{"co": {"Y": 1.0, "X": 1.0}, "interpolation": 2}]}, "id": "87020DYHA9", "layer": 0, "file_id": "0F0RWXSQM9", "display": 0, "scale": 1, "gravity": 4, "crop_width": {"Points": [{"co": {"Y": -1.0, "X": 1.0}, "interpolation": 2}]}, "crop_x": {"Points": [{"co": {"Y": 0.0, "X": 1.0}, "interpolation": 2}]}, "shear_x": {"Points": [{"co": {"Y": 0.0, "X": 1.0}, "interpolation": 2}]}, "volume": {"Points": [{"co": {"Y": 1.0, "X": 1.0}, "interpolation": 2}]}, "start": 0, "rotation": {"Points": [{"co": {"Y": 0.0, "X": 1.0}, "interpolation": 2}]}, "reader": {"video_stream_index": -1, "video_length": "2592000", "interlaced_frame": false, "audio_bit_rate": 0, "audio_timebase": {"den": 1, "num": 1}, "vcodec": "", "channels": 0, "has_video": true, "channel_layout": 4, "has_audio": false, "video_timebase": {"den": 30, "num": 1}, "has_single_image": true, "acodec": "", "video_bit_rate": 0, "display_ratio": {"den": 9, "num": 16}, "audio_stream_index": -1, "type": "QtImageReader", "top_field_first": true, "width": 1920, "pixel_ratio": {"den": 1, "num": 1}, "height": 1080, "duration": 86400.0, "file_size": "8294400", "path": "/home/milind/Data/Projects/ProgressCard/!000-White-Background.svg", "fps": {"den": 1, "num": 30}, "pixel_format": -1, "sample_rate": 0}, "position": 289.16999999999996, "has_video": {"Points": [{"co": {"Y": -1.0, "X": 1.0}, "interpolation": 2}]}, "has_audio": {"Points": [{"co": {"Y": -1.0, "X": 1.0}, "interpolation": 2}]}, "channel_mapping": {"Points": [{"co": {"Y": -1.0, "X": 1.0}, "interpolation": 2}]}, "shear_y": {"Points": [{"co": {"Y": 0.0, "X": 1.0}, "interpolation": 2}]}, "perspective_c3_y": {"Points": [{"co": {"Y": -1.0, "X": 1.0}, "interpolation": 2}]}, "waveform": false, "end": 9.49, "scale_x": {"Points": [{"co": {"Y": 1.0, "X": 1.0}, "interpolation": 2}]}, "image": "/home/milind/.openshot_qt/thumbnail/0F0RWXSQM9.png", "location_y": {"Points": [{"co": {"Y": 0.0, "X": 1.0}, "interpolation": 2}]}, "crop_y": {"Points": [{"co": {"Y": 0.0, "X": 1.0}, "interpolation": 2}]}, "perspective_c2_y": {"Points": [{"co": {"Y": -1.0, "X": 1.0}, "interpolation": 2}]}, "perspective_c1_y": {"Points": [{"co": {"Y": -1.0, "X": 1.0}, "interpolation": 2}]}, "title": "!000-White-Background.svg", "perspective_c4_y": {"Points": [{"co": {"Y": -1.0, "X": 1.0}, "interpolation": 2}]}, "duration": 86400.0, "wave_color": {"red": {"Points": [{"handle_right": {"Y": 0.0, "X": 0.5}, "handle_type": 0, "handle_left": {"Y": 1.0, "X": 0.5}, "co": {"Y": 0.0, "X": 1.0}, "interpolation": 0}]}, "green": {"Points": [{"handle_right": {"Y": 0.0, "X": 0.5}, "handle_type": 0, "handle_left": {"Y": 1.0, "X": 0.5}, "co": {"Y": 123.0, "X": 1.0}, "interpolation": 0}]}, "blue": {"Points": [{"handle_right": {"Y": 0.0, "X": 0.5}, "handle_type": 0, "handle_left": {"Y": 1.0, "X": 0.5}, "co": {"Y": 255.0, "X": 1.0}, "interpolation": 0}]}, "alpha": {"Points": [{"handle_right": {"Y": 0.0, "X": 0.5}, "handle_type": 0, "handle_left": {"Y": 1.0, "X": 0.5}, "co": {"Y": 255.0, "X": 1.0}, "interpolation": 0}]}}, "time": {"Points": [{"co": {"Y": 1.0, "X": 1.0}, "interpolation": 2}]}, "crop_height": {"Points": [{"co": {"Y": -1.0, "X": 1.0}, "interpolation": 2}]}, "scale_y": {"Points": [{"co": {"Y": 1.0, "X": 1.0}, "interpolation": 2}]}, "effects": []}, {"location_x": {"Points": [{"co": {"Y": -0.019999999552965164, "X": 1}, "interpolation": 2}]}, "perspective_c3_x": {"Points": [{"co": {"Y": -1, "X": 1}, "interpolation": 2}]}, "perspective_c4_x": {"Points": [{"co": {"Y": -1, "X": 1}, "interpolation": 2}]}, "channel_filter": {"Points": [{"co": {"Y": -1, "X": 1}, "interpolation": 2}]}, "perspective_c2_x": {"Points": [{"co": {"Y": -1, "X": 1}, "interpolation": 2}]}, "perspective_c1_x": {"Points": [{"co": {"Y": -1, "X": 1}, "interpolation": 2}]}, "anchor": 0, "alpha": {"Points": [{"handle_right": {"Y": 0, "X": 0.5}, "handle_type": 0, "handle_left": {"Y": 1, "X": 0.5}, "co": {"Y": 1, "X": 1}, "interpolation": 0}, {"handle_right": {"Y": 0, "X": 0.5}, "handle_type": 0, "handle_left": {"Y": 1, "X": 0.5}, "co": {"Y": 0, "X": 1}, "interpolation": 0}, {"handle_right": {"Y": 0, "X": 0.5}, "handle_type": 0, "handle_left": {"Y": 1, "X": 0.5}, "co": {"Y": 1, "X": 73}, "interpolation": 0}, {"handle_right": {"Y": 0, "X": 0.5}, "handle_type": 0, "handle_left": {"Y": 1, "X": 0.5}, "co": {"Y": 1, "X": 644}, "interpolation": 0}, {"handle_right": {"Y": 0, "X": 0.5}, "handle_type": 0, "handle_left": {"Y": 1, "X": 0.5}, "co": {"Y": 0, "X": 716}, "interpolation": 0}]}, "id": "F2MA5NTJGV", "layer": 1, "file_id": "MJ87OKNJXE", "display": 0, "scale": 1, "gravity": 4, "crop_width": {"Points": [{"co": {"Y": -1, "X": 1}, "interpolation": 2}]}, "crop_x": {"Points": [{"co": {"Y": 0, "X": 1}, "interpolation": 2}]}, "shear_x": {"Points": [{"co": {"Y": 0, "X": 1}, "interpolation": 2}]}, "volume": {"Points": [{"co": {"Y": 1, "X": 1}, "interpolation": 2}]}, "start": 0, "rotation": {"Points": [{"co": {"Y": 0, "X": 1}, "interpolation": 2}]}, "reader": {"video_stream_index": 0, "video_length": "1575", "interlaced_frame": false, "audio_bit_rate": 0, "audio_timebase": {"den": 1, "num": 1}, "vcodec": "h264", "channels": 0, "has_video": true, "channel_layout": 4, "has_audio": false, "video_timebase": {"den": 1000, "num": 1}, "has_single_image": false, "acodec": "", "video_bit_rate": 62654, "display_ratio": {"den": 186, "num": 325}, "audio_stream_index": -1, "type": "FFmpegReader", "top_field_first": true, "width": 1300, "pixel_ratio": {"den": 1, "num": 1}, "height": 744, "duration": 63.0, "file_size": "499047", "path": "/home/milind/Data/Projects/ProgressCard/!150-Inserted GRADE in REMARK.mkv", "fps": {"den": 1, "num": 25}, "pixel_format": 0, "sample_rate": 0}, "position": 266.32359375, "has_video": {"Points": [{"co": {"Y": -1, "X": 1}, "interpolation": 2}]}, "has_audio": {"Points": [{"co": {"Y": -1, "X": 1}, "interpolation": 2}]}, "channel_mapping": {"Points": [{"co": {"Y": -1, "X": 1}, "interpolation": 2}]}, "shear_y": {"Points": [{"co": {"Y": 0, "X": 1}, "interpolation": 2}]}, "perspective_c3_y": {"Points": [{"co": {"Y": -1, "X": 1}, "interpolation": 2}]}, "waveform": false, "end": 29.791666666666668, "scale_x": {"Points": [{"co": {"Y": 1.7000000476837158, "X": 1}, "interpolation": 2}]}, "image": "/home/milind/.openshot_qt/thumbnail/MJ87OKNJXE.png", "location_y": {"Points": [{"co": {"Y": 0.30000001192092896, "X": 1}, "interpolation": 2}]}, "crop_y": {"Points": [{"co": {"Y": 0, "X": 1}, "interpolation": 2}]}, "perspective_c2_y": {"Points": [{"co": {"Y": -1, "X": 1}, "interpolation": 2}]}, "perspective_c1_y": {"Points": [{"co": {"Y": -1, "X": 1}, "interpolation": 2}]}, "title": "!150-Inserted GRADE in REMARK.mkv", "perspective_c4_y": {"Points": [{"co": {"Y": -1, "X": 1}, "interpolation": 2}]}, "duration": 30.0, "wave_color": {"red": {"Points": [{"handle_right": {"Y": 0, "X": 0.5}, "handle_type": 0, "handle_left": {"Y": 1, "X": 0.5}, "co": {"Y": 0, "X": 1}, "interpolation": 0}]}, "green": {"Points": [{"handle_right": {"Y": 0, "X": 0.5}, "handle_type": 0, "handle_left": {"Y": 1, "X": 0.5}, "co": {"Y": 123, "X": 1}, "interpolation": 0}]}, "blue": {"Points": [{"handle_right": {"Y": 0, "X": 0.5}, "handle_type": 0, "handle_left": {"Y": 1, "X": 0.5}, "co": {"Y": 255, "X": 1}, "interpolation": 0}]}, "alpha": {"Points": [{"handle_right": {"Y": 0, "X": 0.5}, "handle_type": 0, "handle_left": {"Y": 1, "X": 0.5}, "co": {"Y": 255, "X": 1}, "interpolation": 0}]}}, "time": {"Points": [{"co": {"Y": 1, "X": 1}, "interpolation": 1}, {"co": {"Y": 1429, "X": 715}, "interpolation": 1}]}, "crop_height": {"Points": [{"co": {"Y": -1, "X": 1}, "interpolation": 2}]}, "scale_y": {"Points": [{"co": {"Y": 1.7000000476837158, "X": 1}, "interpolation": 2}]}, "effects": []}, {"location_x": {"Points": [{"co": {"Y": 0, "X": 1}, "interpolation": 2}]}, "perspective_c3_x": {"Points": [{"co": {"Y": -1, "X": 1}, "interpolation": 2}]}, "perspective_c4_x": {"Points": [{"co": {"Y": -1, "X": 1}, "interpolation": 2}]}, "channel_filter": {"Points": [{"co": {"Y": -1, "X": 1}, "interpolation": 2}]}, "perspective_c2_x": {"Points": [{"co": {"Y": -1, "X": 1}, "interpolation": 2}]}, "perspective_c1_x": {"Points": [{"co": {"Y": -1, "X": 1}, "interpolation": 2}]}, "anchor": 0, "alpha": {"Points": [{"co": {"Y": 1, "X": 1}, "interpolation": 2}]}, "id": "04TSZRCDQD", "layer": 0, "file_id": "0F0RWXSQM9", "display": 0, "scale": 1, "gravity": 4, "crop_width": {"Points": [{"co": {"Y": -1, "X": 1}, "interpolation": 2}]}, "crop_x": {"Points": [{"co": {"Y": 0, "X": 1}, "interpolation": 2}]}, "shear_x": {"Points": [{"co": {"Y": 0, "X": 1}, "interpolation": 2}]}, "volume": {"Points": [{"co": {"Y": 1, "X": 1}, "interpolation": 2}]}, "start": 0, "rotation": {"Points": [{"co": {"Y": 0, "X": 1}, "interpolation": 2}]}, "reader": {"video_stream_index": -1, "video_length": "2592000", "interlaced_frame": false, "audio_bit_rate": 0, "audio_timebase": {"den": 1, "num": 1}, "vcodec": "", "channels": 0, "has_video": true, "channel_layout": 4, "has_audio": false, "video_timebase": {"den": 30, "num": 1}, "has_single_image": true, "acodec": "", "video_bit_rate": 0, "display_ratio": {"den": 9, "num": 16}, "audio_stream_index": -1, "type": "QtImageReader", "top_field_first": true, "width": 1920, "pixel_ratio": {"den": 1, "num": 1}, "height": 1080, "duration": 86400.0, "file_size": "8294400", "path": "/home/milind/Data/Projects/ProgressCard/!000-White-Background.svg", "fps": {"den": 1, "num": 30}, "pixel_format": -1, "sample_rate": 0}, "position": 66.13, "has_video": {"Points": [{"co": {"Y": -1, "X": 1}, "interpolation": 2}]}, "has_audio": {"Points": [{"co": {"Y": -1, "X": 1}, "interpolation": 2}]}, "channel_mapping": {"Points": [{"co": {"Y": -1, "X": 1}, "interpolation": 2}]}, "shear_y": {"Points": [{"co": {"Y": 0, "X": 1}, "interpolation": 2}]}, "perspective_c3_y": {"Points": [{"co": {"Y": -1, "X": 1}, "interpolation": 2}]}, "waveform": false, "end": 12.99, "scale_x": {"Points": [{"co": {"Y": 1, "X": 1}, "interpolation": 2}]}, "image": "/home/milind/.openshot_qt/thumbnail/0F0RWXSQM9.png", "location_y": {"Points": [{"co": {"Y": 0, "X": 1}, "interpolation": 2}]}, "crop_y": {"Points": [{"co": {"Y": 0, "X": 1}, "interpolation": 2}]}, "perspective_c2_y": {"Points": [{"co": {"Y": -1, "X": 1}, "interpolation": 2}]}, "perspective_c1_y": {"Points": [{"co": {"Y": -1, "X": 1}, "interpolation": 2}]}, "title": "!000-White-Background.svg", "perspective_c4_y": {"Points": [{"co": {"Y": -1, "X": 1}, "interpolation": 2}]}, "duration": 86400.0, "wave_color": {"red": {"Points": [{"handle_right": {"Y": 0, "X": 0.5}, "handle_type": 0, "handle_left": {"Y": 1, "X": 0.5}, "co": {"Y": 0, "X": 1}, "interpolation": 0}]}, "green": {"Points": [{"handle_right": {"Y": 0, "X": 0.5}, "handle_type": 0, "handle_left": {"Y": 1, "X": 0.5}, "co": {"Y": 123, "X": 1}, "interpolation": 0}]}, "blue": {"Points": [{"handle_right": {"Y": 0, "X": 0.5}, "handle_type": 0, "handle_left": {"Y": 1, "X": 0.5}, "co": {"Y": 255, "X": 1}, "interpolation": 0}]}, "alpha": {"Points": [{"handle_right": {"Y": 0, "X": 0.5}, "handle_type": 0, "handle_left": {"Y": 1, "X": 0.5}, "co": {"Y": 255, "X": 1}, "interpolation": 0}]}}, "time": {"Points": [{"co": {"Y": 1, "X": 1}, "interpolation": 2}]}, "crop_height": {"Points": [{"co": {"Y": -1, "X": 1}, "interpolation": 2}]}, "scale_y": {"Points": [{"co": {"Y": 1, "X": 1}, "interpolation": 2}]}, "effects": []}, {"location_x": {"Points": [{"co": {"Y": 0, "X": 1}, "interpolation": 2}]}, "perspective_c3_x": {"Points": [{"co": {"Y": -1, "X": 1}, "interpolation": 2}]}, "perspective_c4_x": {"Points": [{"co": {"Y": -1, "X": 1}, "interpolation": 2}]}, "channel_filter": {"Points": [{"co": {"Y": -1, "X": 1}, "interpolation": 2}]}, "perspective_c2_x": {"Points": [{"co": {"Y": -1, "X": 1}, "interpolation": 2}]}, "perspective_c1_x": {"Points": [{"co": {"Y": -1, "X": 1}, "interpolation": 2}]}, "anchor": 0, "alpha": {"Points": [{"co": {"Y": 1, "X": 1}, "interpolation": 2}, {"handle_right": {"Y": 0, "X": 0.5}, "handle_type": 0, "handle_left": {"Y": 1, "X": 0.5}, "co": {"Y": 0, "X": 1}, "interpolation": 0}, {"handle_right": {"Y": 0, "X": 0.5}, "handle_type": 0, "handle_left": {"Y": 1, "X": 0.5}, "co": {"Y": 1, "X": 73}, "interpolation": 0}, {"handle_right": {"Y": 0, "X": 0.5}, "handle_type": 0, "handle_left": {"Y": 1, "X": 0.5}, "co": {"Y": 1, "X": 49}, "interpolation": 0}, {"handle_right": {"Y": 0, "X": 0.5}, "handle_type": 0, "handle_left": {"Y": 1, "X": 0.5}, "co": {"Y": 0, "X": 121}, "interpolation": 0}]}, "id": "YVXCHQZADD", "layer": 2, "file_id": "O28Z229VIU", "display": 0, "scale": 1, "gravity": 4, "crop_width": {"Points": [{"co": {"Y": -1, "X": 1}, "interpolation": 2}]}, "crop_x": {"Points": [{"co": {"Y": 0, "X": 1}, "interpolation": 2}]}, "shear_x": {"Points": [{"co": {"Y": 0, "X": 1}, "interpolation": 2}]}, "volume": {"Points": [{"co": {"Y": 1, "X": 1}, "interpolation": 2}]}, "start": 0, "rotation": {"Points": [{"co": {"Y": 0, "X": 1}, "interpolation": 2}]}, "reader": {"video_stream_index": -1, "video_length": "2592000", "interlaced_frame": false, "audio_bit_rate": 0, "audio_timebase": {"den": 1, "num": 1}, "vcodec": "", "channels": 0, "has_video": true, "channel_layout": 4, "has_audio": false, "video_timebase": {"den": 30, "num": 1}, "has_single_image": true, "acodec": "", "video_bit_rate": 0, "display_ratio": {"den": 3827, "num": 6803}, "audio_stream_index": -1, "type": "QtImageReader", "top_field_first": true, "width": 6803, "pixel_ratio": {"den": 1, "num": 1}, "height": 3827, "duration": 86400.0, "file_size": "104140324", "path": "/home/milind/Data/Projects/ProgressCard/!072-Grace Total.svg", "fps": {"den": 1, "num": 30}, "pixel_format": -1, "sample_rate": 0}, "position": 11.708333333333332, "has_video": {"Points": [{"co": {"Y": -1, "X": 1}, "interpolation": 2}]}, "has_audio": {"Points": [{"co": {"Y": -1, "X": 1}, "interpolation": 2}]}, "channel_mapping": {"Points": [{"co": {"Y": -1, "X": 1}, "interpolation": 2}]}, "shear_y": {"Points": [{"co": {"Y": 0, "X": 1}, "interpolation": 2}]}, "perspective_c3_y": {"Points": [{"co": {"Y": -1, "X": 1}, "interpolation": 2}]}, "waveform": false, "end": 5, "scale_x": {"Points": [{"co": {"Y": 1, "X": 1}, "interpolation": 2}]}, "image": "/home/milind/.openshot_qt/thumbnail/O28Z229VIU.png", "location_y": {"Points": [{"co": {"Y": 0, "X": 1}, "interpolation": 2}]}, "crop_y": {"Points": [{"co": {"Y": 0, "X": 1}, "interpolation": 2}]}, "perspective_c2_y": {"Points": [{"co": {"Y": -1, "X": 1}, "interpolation": 2}]}, "perspective_c1_y": {"Points": [{"co": {"Y": -1, "X": 1}, "interpolation": 2}]}, "title": "!072-Grace Total.svg", "perspective_c4_y": {"Points": [{"co": {"Y": -1, "X": 1}, "interpolation": 2}]}, "duration": 86400.0, "wave_color": {"red": {"Points": [{"handle_right": {"Y": 0, "X": 0.5}, "handle_type": 0, "handle_left": {"Y": 1, "X": 0.5}, "co": {"Y": 0, "X": 1}, "interpolation": 0}]}, "green": {"Points": [{"handle_right": {"Y": 0, "X": 0.5}, "handle_type": 0, "handle_left": {"Y": 1, "X": 0.5}, "co": {"Y": 123, "X": 1}, "interpolation": 0}]}, "blue": {"Points": [{"handle_right": {"Y": 0, "X": 0.5}, "handle_type": 0, "handle_left": {"Y": 1, "X": 0.5}, "co": {"Y": 255, "X": 1}, "interpolation": 0}]}, "alpha": {"Points": [{"handle_right": {"Y": 0, "X": 0.5}, "handle_type": 0, "handle_left": {"Y": 1, "X": 0.5}, "co": {"Y": 255, "X": 1}, "interpolation": 0}]}}, "time": {"Points": [{"co": {"Y": 1, "X": 1}, "interpolation": 2}]}, "crop_height": {"Points": [{"co": {"Y": -1, "X": 1}, "interpolation": 2}]}, "scale_y": {"Points": [{"co": {"Y": 1, "X": 1}, "interpolation": 2}]}, "effects": []}, {"location_x": {"Points": [{"co": {"Y": 0, "X": 1}, "interpolation": 2}]}, "perspective_c3_x": {"Points": [{"co": {"Y": -1, "X": 1}, "interpolation": 2}]}, "perspective_c4_x": {"Points": [{"co": {"Y": -1, "X": 1}, "interpolation": 2}]}, "channel_filter": {"Points": [{"co": {"Y": -1, "X": 1}, "interpolation": 2}]}, "perspective_c2_x": {"Points": [{"co": {"Y": -1, "X": 1}, "interpolation": 2}]}, "perspective_c1_x": {"Points": [{"co": {"Y": -1, "X": 1}, "interpolation": 2}]}, "anchor": 0, "alpha": {"Points": [{"co": {"Y": 1, "X": 1}, "interpolation": 2}, {"handle_right": {"Y": 0, "X": 0.5}, "handle_type": 0, "handle_left": {"Y": 1, "X": 0.5}, "co": {"Y": 0, "X": 1}, "interpolation": 0}, {"handle_right": {"Y": 0, "X": 0.5}, "handle_type": 0, "handle_left": {"Y": 1, "X": 0.5}, "co": {"Y": 1, "X": 73}, "interpolation": 0}, {"handle_right": {"Y": 0, "X": 0.5}, "handle_type": 0, "handle_left": {"Y": 1, "X": 0.5}, "co": {"Y": 1, "X": 49}, "interpolation": 0}, {"handle_right": {"Y": 0, "X": 0.5}, "handle_type": 0, "handle_left": {"Y": 1, "X": 0.5}, "co": {"Y": 0, "X": 121}, "interpolation": 0}]}, "id": "GPTZ9M5371", "layer": 2, "file_id": "BUXZX40N2J", "display": 0, "scale": 1, "gravity": 4, "crop_width": {"Points": [{"co": {"Y": -1, "X": 1}, "interpolation": 2}]}, "crop_x": {"Points": [{"co": {"Y": 0, "X": 1}, "interpolation": 2}]}, "shear_x": {"Points": [{"co": {"Y": 0, "X": 1}, "interpolation": 2}]}, "volume": {"Points": [{"co": {"Y": 1, "X": 1}, "interpolation": 2}]}, "start": 0, "rotation": {"Points": [{"co": {"Y": 0, "X": 1}, "interpolation": 2}]}, "reader": {"video_stream_index": -1, "video_length": "2592000", "interlaced_frame": false, "audio_bit_rate": 0, "audio_timebase": {"den": 1, "num": 1}, "vcodec": "", "channels": 0, "has_video": true, "channel_layout": 4, "has_audio": false, "video_timebase": {"den": 30, "num": 1}, "has_single_image": true, "acodec": "", "video_bit_rate": 0, "display_ratio": {"den": 3827, "num": 6803}, "audio_stream_index": -1, "type": "QtImageReader", "top_field_first": true, "width": 6803, "pixel_ratio": {"den": 1, "num": 1}, "height": 3827, "duration": 86400.0, "file_size": "104140324", "path": "/home/milind/Data/Projects/ProgressCard/!073-Graced Subject Count.svg", "fps": {"den": 1, "num": 30}, "pixel_format": -1, "sample_rate": 0}, "position": 24.125000000000004, "has_video": {"Points": [{"co": {"Y": -1, "X": 1}, "interpolation": 2}]}, "has_audio": {"Points": [{"co": {"Y": -1, "X": 1}, "interpolation": 2}]}, "channel_mapping": {"Points": [{"co": {"Y": -1, "X": 1}, "interpolation": 2}]}, "shear_y": {"Points": [{"co": {"Y": 0, "X": 1}, "interpolation": 2}]}, "perspective_c3_y": {"Points": [{"co": {"Y": -1, "X": 1}, "interpolation": 2}]}, "waveform": false, "end": 5, "scale_x": {"Points": [{"co": {"Y": 1, "X": 1}, "interpolation": 2}]}, "image": "/home/milind/.openshot_qt/thumbnail/BUXZX40N2J.png", "location_y": {"Points": [{"co": {"Y": 0, "X": 1}, "interpolation": 2}]}, "crop_y": {"Points": [{"co": {"Y": 0, "X": 1}, "interpolation": 2}]}, "perspective_c2_y": {"Points": [{"co": {"Y": -1, "X": 1}, "interpolation": 2}]}, "perspective_c1_y": {"Points": [{"co": {"Y": -1, "X": 1}, "interpolation": 2}]}, "title": "!073-Graced Subject Count.svg", "perspective_c4_y": {"Points": [{"co": {"Y": -1, "X": 1}, "interpolation": 2}]}, "duration": 86400.0, "wave_color": {"red": {"Points": [{"handle_right": {"Y": 0, "X": 0.5}, "handle_type": 0, "handle_left": {"Y": 1, "X": 0.5}, "co": {"Y": 0, "X": 1}, "interpolation": 0}]}, "green": {"Points": [{"handle_right": {"Y": 0, "X": 0.5}, "handle_type": 0, "handle_left": {"Y": 1, "X": 0.5}, "co": {"Y": 123, "X": 1}, "interpolation": 0}]}, "blue": {"Points": [{"handle_right": {"Y": 0, "X": 0.5}, "handle_type": 0, "handle_left": {"Y": 1, "X": 0.5}, "co": {"Y": 255, "X": 1}, "interpolation": 0}]}, "alpha": {"Points": [{"handle_right": {"Y": 0, "X": 0.5}, "handle_type": 0, "handle_left": {"Y": 1, "X": 0.5}, "co": {"Y": 255, "X": 1}, "interpolation": 0}]}}, "time": {"Points": [{"co": {"Y": 1, "X": 1}, "interpolation": 2}]}, "crop_height": {"Points": [{"co": {"Y": -1, "X": 1}, "interpolation": 2}]}, "scale_y": {"Points": [{"co": {"Y": 1, "X": 1}, "interpolation": 2}]}, "effects": []}, {"location_x": {"Points": [{"co": {"Y": 0, "X": 1}, "interpolation": 2}]}, "perspective_c3_x": {"Points": [{"co": {"Y": -1, "X": 1}, "interpolation": 2}]}, "perspective_c4_x": {"Points": [{"co": {"Y": -1, "X": 1}, "interpolation": 2}]}, "channel_filter": {"Points": [{"co": {"Y": -1, "X": 1}, "interpolation": 2}]}, "perspective_c2_x": {"Points": [{"co": {"Y": -1, "X": 1}, "interpolation": 2}]}, "perspective_c1_x": {"Points": [{"co": {"Y": -1, "X": 1}, "interpolation": 2}]}, "anchor": 0, "alpha": {"Points": [{"co": {"Y": 1, "X": 1}, "interpolation": 2}, {"handle_right": {"Y": 0, "X": 0.5}, "handle_type": 0, "handle_left": {"Y": 1, "X": 0.5}, "co": {"Y": 0, "X": 1}, "interpolation": 0}, {"handle_right": {"Y": 0, "X": 0.5}, "handle_type": 0, "handle_left": {"Y": 1, "X": 0.5}, "co": {"Y": 1, "X": 73}, "interpolation": 0}, {"handle_right": {"Y": 0, "X": 0.5}, "handle_type": 0, "handle_left": {"Y": 1, "X": 0.5}, "co": {"Y": 1, "X": 49}, "interpolation": 0}, {"handle_right": {"Y": 0, "X": 0.5}, "handle_type": 0, "handle_left": {"Y": 1, "X": 0.5}, "co": {"Y": 0, "X": 121}, "interpolation": 0}]}, "id": "MH73AEFXVE", "layer": 2, "file_id": "MZ4ILBST6I", "display": 0, "scale": 1, "gravity": 4, "crop_width": {"Points": [{"co": {"Y": -1, "X": 1}, "interpolation": 2}]}, "crop_x": {"Points": [{"co": {"Y": 0, "X": 1}, "interpolation": 2}]}, "shear_x": {"Points": [{"co": {"Y": 0, "X": 1}, "interpolation": 2}]}, "volume": {"Points": [{"co": {"Y": 1, "X": 1}, "interpolation": 2}]}, "start": 0, "rotation": {"Points": [{"co": {"Y": 0, "X": 1}, "interpolation": 2}]}, "reader": {"video_stream_index": -1, "video_length": "2592000", "interlaced_frame": false, "audio_bit_rate": 0, "audio_timebase": {"den": 1, "num": 1}, "vcodec": "", "channels": 0, "has_video": true, "channel_layout": 4, "has_audio": false, "video_timebase": {"den": 30, "num": 1}, "has_single_image": true, "acodec": "", "video_bit_rate": 0, "display_ratio": {"den": 3827, "num": 6803}, "audio_stream_index": -1, "type": "QtImageReader", "top_field_first": true, "width": 6803, "pixel_ratio": {"den": 1, "num": 1}, "height": 3827, "duration": 86400.0, "file_size": "104140324", "path": "/home/milind/Data/Projects/ProgressCard/!074-Grace Greater Than 10.svg", "fps": {"den": 1, "num": 30}, "pixel_format": -1, "sample_rate": 0}, "position": 39.458333333333336, "has_video": {"Points": [{"co": {"Y": -1, "X": 1}, "interpolation": 2}]}, "has_audio": {"Points": [{"co": {"Y": -1, "X": 1}, "interpolation": 2}]}, "channel_mapping": {"Points": [{"co": {"Y": -1, "X": 1}, "interpolation": 2}]}, "shear_y": {"Points": [{"co": {"Y": 0, "X": 1}, "interpolation": 2}]}, "perspective_c3_y": {"Points": [{"co": {"Y": -1, "X": 1}, "interpolation": 2}]}, "waveform": false, "end": 5, "scale_x": {"Points": [{"co": {"Y": 1, "X": 1}, "interpolation": 2}]}, "image": "/home/milind/.openshot_qt/thumbnail/MZ4ILBST6I.png", "location_y": {"Points": [{"co": {"Y": 0, "X": 1}, "interpolation": 2}]}, "crop_y": {"Points": [{"co": {"Y": 0, "X": 1}, "interpolation": 2}]}, "perspective_c2_y": {"Points": [{"co": {"Y": -1, "X": 1}, "interpolation": 2}]}, "perspective_c1_y": {"Points": [{"co": {"Y": -1, "X": 1}, "interpolation": 2}]}, "title": "!074-Grace Greater Than 10.svg", "perspective_c4_y": {"Points": [{"co": {"Y": -1, "X": 1}, "interpolation": 2}]}, "duration": 86400.0, "wave_color": {"red": {"Points": [{"handle_right": {"Y": 0, "X": 0.5}, "handle_type": 0, "handle_left": {"Y": 1, "X": 0.5}, "co": {"Y": 0, "X": 1}, "interpolation": 0}]}, "green": {"Points": [{"handle_right": {"Y": 0, "X": 0.5}, "handle_type": 0, "handle_left": {"Y": 1, "X": 0.5}, "co": {"Y": 123, "X": 1}, "interpolation": 0}]}, "blue": {"Points": [{"handle_right": {"Y": 0, "X": 0.5}, "handle_type": 0, "handle_left": {"Y": 1, "X": 0.5}, "co": {"Y": 255, "X": 1}, "interpolation": 0}]}, "alpha": {"Points": [{"handle_right": {"Y": 0, "X": 0.5}, "handle_type": 0, "handle_left": {"Y": 1, "X": 0.5}, "co": {"Y": 255, "X": 1}, "interpolation": 0}]}}, "time": {"Points": [{"co": {"Y": 1, "X": 1}, "interpolation": 2}]}, "crop_height": {"Points": [{"co": {"Y": -1, "X": 1}, "interpolation": 2}]}, "scale_y": {"Points": [{"co": {"Y": 1, "X": 1}, "interpolation": 2}]}, "effects": []}, {"location_x": {"Points": [{"co": {"Y": 0, "X": 1}, "interpolation": 2}]}, "perspective_c3_x": {"Points": [{"co": {"Y": -1, "X": 1}, "interpolation": 2}]}, "perspective_c4_x": {"Points": [{"co": {"Y": -1, "X": 1}, "interpolation": 2}]}, "channel_filter": {"Points": [{"co": {"Y": -1, "X": 1}, "interpolation": 2}]}, "perspective_c2_x": {"Points": [{"co": {"Y": -1, "X": 1}, "interpolation": 2}]}, "perspective_c1_x": {"Points": [{"co": {"Y": -1, "X": 1}, "interpolation": 2}]}, "anchor": 0, "alpha": {"Points": [{"co": {"Y": 1, "X": 1}, "interpolation": 2}, {"handle_right": {"Y": 0, "X": 0.5}, "handle_type": 0, "handle_left": {"Y": 1, "X": 0.5}, "co": {"Y": 0, "X": 1}, "interpolation": 0}, {"handle_right": {"Y": 0, "X": 0.5}, "handle_type": 0, "handle_left": {"Y": 1, "X": 0.5}, "co": {"Y": 1, "X": 73}, "interpolation": 0}, {"handle_right": {"Y": 0, "X": 0.5}, "handle_type": 0, "handle_left": {"Y": 1, "X": 0.5}, "co": {"Y": 1, "X": 49}, "interpolation": 0}, {"handle_right": {"Y": 0, "X": 0.5}, "handle_type": 0, "handle_left": {"Y": 1, "X": 0.5}, "co": {"Y": 0, "X": 121}, "interpolation": 0}]}, "id": "2D6KOKWEJY", "layer": 2, "file_id": "55LKUBO9MG", "display": 0, "scale": 1, "gravity": 4, "crop_width": {"Points": [{"co": {"Y": -1, "X": 1}, "interpolation": 2}]}, "crop_x": {"Points": [{"co": {"Y": 0, "X": 1}, "interpolation": 2}]}, "shear_x": {"Points": [{"co": {"Y": 0, "X": 1}, "interpolation": 2}]}, "volume": {"Points": [{"co": {"Y": 1, "X": 1}, "interpolation": 2}]}, "start": 0, "rotation": {"Points": [{"co": {"Y": 0, "X": 1}, "interpolation": 2}]}, "reader": {"video_stream_index": -1, "video_length": "2592000", "interlaced_frame": false, "audio_bit_rate": 0, "audio_timebase": {"den": 1, "num": 1}, "vcodec": "", "channels": 0, "has_video": true, "channel_layout": 4, "has_audio": false, "video_timebase": {"den": 30, "num": 1}, "has_single_image": true, "acodec": "", "video_bit_rate": 0, "display_ratio": {"den": 3827, "num": 6803}, "audio_stream_index": -1, "type": "QtImageReader", "top_field_first": true, "width": 6803, "pixel_ratio": {"den": 1, "num": 1}, "height": 3827, "duration": 86400.0, "file_size": "104140324", "path": "/home/milind/Data/Projects/ProgressCard/!001-Copy (Ctrl-C).svg", "fps": {"den": 1, "num": 30}, "pixel_format": -1, "sample_rate": 0}, "position": 56.791666666666664, "has_video": {"Points": [{"co": {"Y": -1, "X": 1}, "interpolation": 2}]}, "has_audio": {"Points": [{"co": {"Y": -1, "X": 1}, "interpolation": 2}]}, "channel_mapping": {"Points": [{"co": {"Y": -1, "X": 1}, "interpolation": 2}]}, "shear_y": {"Points": [{"co": {"Y": 0, "X": 1}, "interpolation": 2}]}, "perspective_c3_y": {"Points": [{"co": {"Y": -1, "X": 1}, "interpolation": 2}]}, "waveform": false, "end": 5, "scale_x": {"Points": [{"co": {"Y": 1, "X": 1}, "interpolation": 2}]}, "image": "/home/milind/.openshot_qt/thumbnail/55LKUBO9MG.png", "location_y": {"Points": [{"co": {"Y": 0, "X": 1}, "interpolation": 2}]}, "crop_y": {"Points": [{"co": {"Y": 0, "X": 1}, "interpolation": 2}]}, "perspective_c2_y": {"Points": [{"co": {"Y": -1, "X": 1}, "interpolation": 2}]}, "perspective_c1_y": {"Points": [{"co": {"Y": -1, "X": 1}, "interpolation": 2}]}, "title": "!001-Copy (Ctrl-C).svg", "perspective_c4_y": {"Points": [{"co": {"Y": -1, "X": 1}, "interpolation": 2}]}, "duration": 86400.0, "wave_color": {"red": {"Points": [{"handle_right": {"Y": 0, "X": 0.5}, "handle_type": 0, "handle_left": {"Y": 1, "X": 0.5}, "co": {"Y": 0, "X": 1}, "interpolation": 0}]}, "green": {"Points": [{"handle_right": {"Y": 0, "X": 0.5}, "handle_type": 0, "handle_left": {"Y": 1, "X": 0.5}, "co": {"Y": 123, "X": 1}, "interpolation": 0}]}, "blue": {"Points": [{"handle_right": {"Y": 0, "X": 0.5}, "handle_type": 0, "handle_left": {"Y": 1, "X": 0.5}, "co": {"Y": 255, "X": 1}, "interpolation": 0}]}, "alpha": {"Points": [{"handle_right": {"Y": 0, "X": 0.5}, "handle_type": 0, "handle_left": {"Y": 1, "X": 0.5}, "co": {"Y": 255, "X": 1}, "interpolation": 0}]}}, "time": {"Points": [{"co": {"Y": 1, "X": 1}, "interpolation": 2}]}, "crop_height": {"Points": [{"co": {"Y": -1, "X": 1}, "interpolation": 2}]}, "scale_y": {"Points": [{"co": {"Y": 1, "X": 1}, "interpolation": 2}]}, "effects": []}, {"location_x": {"Points": [{"co": {"Y": 0, "X": 1}, "interpolation": 2}]}, "perspective_c3_x": {"Points": [{"co": {"Y": -1, "X": 1}, "interpolation": 2}]}, "perspective_c4_x": {"Points": [{"co": {"Y": -1, "X": 1}, "interpolation": 2}]}, "channel_filter": {"Points": [{"co": {"Y": -1, "X": 1}, "interpolation": 2}]}, "perspective_c2_x": {"Points": [{"co": {"Y": -1, "X": 1}, "interpolation": 2}]}, "perspective_c1_x": {"Points": [{"co": {"Y": -1, "X": 1}, "interpolation": 2}]}, "anchor": 0, "alpha": {"Points": [{"co": {"Y": 1, "X": 1}, "interpolation": 2}, {"handle_right": {"Y": 0, "X": 0.5}, "handle_type": 0, "handle_left": {"Y": 1, "X": 0.5}, "co": {"Y": 0, "X": 1}, "interpolation": 0}, {"handle_right": {"Y": 0, "X": 0.5}, "handle_type": 0, "handle_left": {"Y": 1, "X": 0.5}, "co": {"Y": 1, "X": 73}, "interpolation": 0}, {"handle_right": {"Y": 0, "X": 0.5}, "handle_type": 0, "handle_left": {"Y": 1, "X": 0.5}, "co": {"Y": 1, "X": 49}, "interpolation": 0}, {"handle_right": {"Y": 0, "X": 0.5}, "handle_type": 0, "handle_left": {"Y": 1, "X": 0.5}, "co": {"Y": 0, "X": 121}, "interpolation": 0}]}, "id": "GS9HYSSMO4", "layer": 2, "file_id": "JP5L750RMR", "display": 0, "scale": 1, "gravity": 4, "crop_width": {"Points": [{"co": {"Y": -1, "X": 1}, "interpolation": 2}]}, "crop_x": {"Points": [{"co": {"Y": 0, "X": 1}, "interpolation": 2}]}, "shear_x": {"Points": [{"co": {"Y": 0, "X": 1}, "interpolation": 2}]}, "volume": {"Points": [{"co": {"Y": 1, "X": 1}, "interpolation": 2}]}, "start": 0, "rotation": {"Points": [{"co": {"Y": 0, "X": 1}, "interpolation": 2}]}, "reader": {"video_stream_index": -1, "video_length": "2592000", "interlaced_frame": false, "audio_bit_rate": 0, "audio_timebase": {"den": 1, "num": 1}, "vcodec": "", "channels": 0, "has_video": true, "channel_layout": 4, "has_audio": false, "video_timebase": {"den": 30, "num": 1}, "has_single_image": true, "acodec": "", "video_bit_rate": 0, "display_ratio": {"den": 3827, "num": 6803}, "audio_stream_index": -1, "type": "QtImageReader", "top_field_first": true, "width": 6803, "pixel_ratio": {"den": 1, "num": 1}, "height": 3827, "duration": 86400.0, "file_size": "104140324", "path": "/home/milind/Data/Projects/ProgressCard/!002-Paste (Ctrl-V).svg", "fps": {"den": 1, "num": 30}, "pixel_format": -1, "sample_rate": 0}, "position": 62.25, "has_video": {"Points": [{"co": {"Y": -1, "X": 1}, "interpolation": 2}]}, "has_audio": {"Points": [{"co": {"Y": -1, "X": 1}, "interpolation": 2}]}, "channel_mapping": {"Points": [{"co": {"Y": -1, "X": 1}, "interpolation": 2}]}, "shear_y": {"Points": [{"co": {"Y": 0, "X": 1}, "interpolation": 2}]}, "perspective_c3_y": {"Points": [{"co": {"Y": -1, "X": 1}, "interpolation": 2}]}, "waveform": false, "end": 5, "scale_x": {"Points": [{"co": {"Y": 1, "X": 1}, "interpolation": 2}]}, "image": "/home/milind/.openshot_qt/thumbnail/JP5L750RMR.png", "location_y": {"Points": [{"co": {"Y": 0, "X": 1}, "interpolation": 2}]}, "crop_y": {"Points": [{"co": {"Y": 0, "X": 1}, "interpolation": 2}]}, "perspective_c2_y": {"Points": [{"co": {"Y": -1, "X": 1}, "interpolation": 2}]}, "perspective_c1_y": {"Points": [{"co": {"Y": -1, "X": 1}, "interpolation": 2}]}, "title": "!002-Paste (Ctrl-V).svg", "perspective_c4_y": {"Points": [{"co": {"Y": -1, "X": 1}, "interpolation": 2}]}, "duration": 86400.0, "wave_color": {"red": {"Points": [{"handle_right": {"Y": 0, "X": 0.5}, "handle_type": 0, "handle_left": {"Y": 1, "X": 0.5}, "co": {"Y": 0, "X": 1}, "interpolation": 0}]}, "green": {"Points": [{"handle_right": {"Y": 0, "X": 0.5}, "handle_type": 0, "handle_left": {"Y": 1, "X": 0.5}, "co": {"Y": 123, "X": 1}, "interpolation": 0}]}, "blue": {"Points": [{"handle_right": {"Y": 0, "X": 0.5}, "handle_type": 0, "handle_left": {"Y": 1, "X": 0.5}, "co": {"Y": 255, "X": 1}, "interpolation": 0}]}, "alpha": {"Points": [{"handle_right": {"Y": 0, "X": 0.5}, "handle_type": 0, "handle_left": {"Y": 1, "X": 0.5}, "co": {"Y": 255, "X": 1}, "interpolation": 0}]}}, "time": {"Points": [{"co": {"Y": 1, "X": 1}, "interpolation": 2}]}, "crop_height": {"Points": [{"co": {"Y": -1, "X": 1}, "interpolation": 2}]}, "scale_y": {"Points": [{"co": {"Y": 1, "X": 1}, "interpolation": 2}]}, "effects": []}, {"location_x": {"Points": [{"co": {"Y": 0, "X": 1}, "interpolation": 2}]}, "perspective_c3_y": {"Points": [{"co": {"Y": -1, "X": 1}, "interpolation": 2}]}, "shear_x": {"Points": [{"co": {"Y": 0, "X": 1}, "interpolation": 2}]}, "channel_filter": {"Points": [{"co": {"Y": -1, "X": 1}, "interpolation": 2}]}, "duration": 86400.0, "perspective_c1_x": {"Points": [{"co": {"Y": -1, "X": 1}, "interpolation": 2}]}, "perspective_c2_x": {"Points": [{"co": {"Y": -1, "X": 1}, "interpolation": 2}]}, "alpha": {"Points": [{"co": {"Y": 1, "X": 1}, "interpolation": 2}, {"handle_right": {"Y": 0, "X": 0.5}, "handle_type": 0, "handle_left": {"Y": 1, "X": 0.5}, "co": {"Y": 0, "X": 1}, "interpolation": 0}, {"handle_right": {"Y": 0, "X": 0.5}, "handle_type": 0, "handle_left": {"Y": 1, "X": 0.5}, "co": {"Y": 1, "X": 73}, "interpolation": 0}, {"handle_right": {"Y": 0, "X": 0.5}, "handle_type": 0, "handle_left": {"Y": 1, "X": 0.5}, "co": {"Y": 1, "X": 49}, "interpolation": 0}, {"handle_right": {"Y": 0, "X": 0.5}, "handle_type": 0, "handle_left": {"Y": 1, "X": 0.5}, "co": {"Y": 0, "X": 121}, "interpolation": 0}]}, "id": "J2KJS854LX", "layer": 1, "display": 0, "scale": 1, "gravity": 4, "crop_width": {"Points": [{"co": {"Y": -1, "X": 1}, "interpolation": 2}]}, "crop_x": {"Points": [{"co": {"Y": 0, "X": 1}, "interpolation": 2}]}, "perspective_c4_x": {"Points": [{"co": {"Y": -1, "X": 1}, "interpolation": 2}]}, "volume": {"Points": [{"co": {"Y": 1, "X": 1}, "interpolation": 2}]}, "has_audio": {"Points": [{"co": {"Y": -1, "X": 1}, "interpolation": 2}]}, "rotation": {"Points": [{"co": {"Y": 0, "X": 1}, "interpolation": 2}]}, "crop_y": {"Points": [{"co": {"Y": 0, "X": 1}, "interpolation": 2}]}, "position": 69.76906249999999, "has_video": {"Points": [{"co": {"Y": -1, "X": 1}, "interpolation": 2}]}, "start": 0, "channel_mapping": {"Points": [{"co": {"Y": -1, "X": 1}, "interpolation": 2}]}, "shear_y": {"Points": [{"co": {"Y": 0, "X": 1}, "interpolation": 2}]}, "end": 5, "waveform": false, "perspective_c3_x": {"Points": [{"co": {"Y": -1, "X": 1}, "interpolation": 2}]}, "scale_x": {"Points": [{"co": {"Y": 1, "X": 1}, "interpolation": 2}]}, "image": "/home/milind/.openshot_qt/thumbnail/9MDVH2JM9J.png", "location_y": {"Points": [{"co": {"Y": 0, "X": 1}, "interpolation": 2}]}, "crop_height": {"Points": [{"co": {"Y": -1, "X": 1}, "interpolation": 2}]}, "perspective_c2_y": {"Points": [{"co": {"Y": -1, "X": 1}, "interpolation": 2}]}, "perspective_c1_y": {"Points": [{"co": {"Y": -1, "X": 1}, "interpolation": 2}]}, "title": "!085-Pass or Fail.svg", "perspective_c4_y": {"Points": [{"co": {"Y": -1, "X": 1}, "interpolation": 2}]}, "anchor": 0, "wave_color": {"red": {"Points": [{"handle_right": {"Y": 0, "X": 0.5}, "handle_type": 0, "handle_left": {"Y": 1, "X": 0.5}, "co": {"Y": 0, "X": 1}, "interpolation": 0}]}, "green": {"Points": [{"handle_right": {"Y": 0, "X": 0.5}, "handle_type": 0, "handle_left": {"Y": 1, "X": 0.5}, "co": {"Y": 123, "X": 1}, "interpolation": 0}]}, "blue": {"Points": [{"handle_right": {"Y": 0, "X": 0.5}, "handle_type": 0, "handle_left": {"Y": 1, "X": 0.5}, "co": {"Y": 255, "X": 1}, "interpolation": 0}]}, "alpha": {"Points": [{"handle_right": {"Y": 0, "X": 0.5}, "handle_type": 0, "handle_left": {"Y": 1, "X": 0.5}, "co": {"Y": 255, "X": 1}, "interpolation": 0}]}}, "time": {"Points": [{"co": {"Y": 1, "X": 1}, "interpolation": 2}]}, "effects": [], "file_id": "9MDVH2JM9J", "scale_y": {"Points": [{"co": {"Y": 1, "X": 1}, "interpolation": 2}]}, "reader": {"video_stream_index": -1, "video_length": "2592000", "interlaced_frame": false, "audio_bit_rate": 0, "audio_timebase": {"den": 1, "num": 1}, "vcodec": "", "channels": 0, "has_video": true, "channel_layout": 4, "has_audio": false, "video_timebase": {"den": 30, "num": 1}, "has_single_image": true, "acodec": "", "video_bit_rate": 0, "display_ratio": {"den": 3827, "num": 6803}, "audio_stream_index": -1, "type": "QtImageReader", "top_field_first": true, "width": 6803, "pixel_ratio": {"den": 1, "num": 1}, "height": 3827, "duration": 86400.0, "file_size": "104140324", "path": "/home/milind/Data/Projects/ProgressCard/!085-Pass or Fail.svg", "fps": {"den": 1, "num": 30}, "pixel_format": -1, "sample_rate": 0}}, {"location_x": {"Points": [{"co": {"Y": 0, "X": 1}, "interpolation": 2}]}, "perspective_c3_x": {"Points": [{"co": {"Y": -1, "X": 1}, "interpolation": 2}]}, "perspective_c4_x": {"Points": [{"co": {"Y": -1, "X": 1}, "interpolation": 2}]}, "channel_filter": {"Points": [{"co": {"Y": -1, "X": 1}, "interpolation": 2}]}, "crop_height": {"Points": [{"co": {"Y": -1, "X": 1}, "interpolation": 2}]}, "perspective_c2_x": {"Points": [{"co": {"Y": -1, "X": 1}, "interpolation": 2}]}, "perspective_c1_x": {"Points": [{"co": {"Y": -1, "X": 1}, "interpolation": 2}]}, "anchor": 0, "alpha": {"Points": [{"handle_right": {"Y": 0, "X": 0.5}, "handle_type": 0, "handle_left": {"Y": 1, "X": 0.5}, "co": {"Y": 1, "X": 1}, "interpolation": 0}, {"handle_right": {"Y": 0, "X": 0.5}, "handle_type": 0, "handle_left": {"Y": 1, "X": 0.5}, "co": {"Y": 0, "X": 1}, "interpolation": 0}, {"handle_right": {"Y": 0, "X": 0.5}, "handle_type": 0, "handle_left": {"Y": 1, "X": 0.5}, "co": {"Y": 1, "X": 73}, "interpolation": 0}, {"handle_right": {"Y": 0, "X": 0.5}, "handle_type": 0, "handle_left": {"Y": 1, "X": 0.5}, "co": {"Y": 1, "X": 375}, "interpolation": 0}, {"handle_right": {"Y": 0, "X": 0.5}, "handle_type": 0, "handle_left": {"Y": 1, "X": 0.5}, "co": {"Y": 0, "X": 447}, "interpolation": 0}]}, "id": "UX3VY9TAZP", "layer": 2, "display": 0, "scale": 1, "gravity": 4, "crop_width": {"Points": [{"co": {"Y": -1, "X": 1}, "interpolation": 2}]}, "crop_x": {"Points": [{"co": {"Y": 0, "X": 1}, "interpolation": 2}]}, "shear_x": {"Points": [{"co": {"Y": 0, "X": 1}, "interpolation": 2}]}, "volume": {"Points": [{"co": {"Y": 1, "X": 1}, "interpolation": 2}]}, "has_audio": {"Points": [{"co": {"Y": -1, "X": 1}, "interpolation": 2}]}, "title": "!086-IF GT,GC,TC.svg", "reader": {"video_stream_index": -1, "video_length": "2592000", "interlaced_frame": false, "audio_bit_rate": 0, "audio_timebase": {"den": 1, "num": 1}, "vcodec": "", "channels": 0, "has_video": true, "channel_layout": 4, "has_audio": false, "video_timebase": {"den": 30, "num": 1}, "has_single_image": true, "acodec": "", "video_bit_rate": 0, "display_ratio": {"den": 3827, "num": 6803}, "audio_stream_index": -1, "type": "QtImageReader", "top_field_first": true, "width": 6803, "pixel_ratio": {"den": 1, "num": 1}, "height": 3827, "duration": 86400.0, "file_size": "104140324", "path": "/home/milind/Data/Projects/ProgressCard/!086-IF GT,GC,TC.svg", "fps": {"den": 1, "num": 30}, "pixel_format": -1, "sample_rate": 0}, "position": 85.265625, "has_video": {"Points": [{"co": {"Y": -1, "X": 1}, "interpolation": 2}]}, "start": 0, "channel_mapping": {"Points": [{"co": {"Y": -1, "X": 1}, "interpolation": 2}]}, "shear_y": {"Points": [{"co": {"Y": 0, "X": 1}, "interpolation": 2}]}, "perspective_c3_y": {"Points": [{"co": {"Y": -1, "X": 1}, "interpolation": 2}]}, "waveform": false, "end": 18.599999999999994, "scale_x": {"Points": [{"co": {"Y": 1, "X": 1}, "interpolation": 2}]}, "image": "/home/milind/.openshot_qt/thumbnail/DIHETX3WQ7.png", "location_y": {"Points": [{"co": {"Y": 0, "X": 1}, "interpolation": 2}]}, "crop_y": {"Points": [{"co": {"Y": 0, "X": 1}, "interpolation": 2}]}, "perspective_c2_y": {"Points": [{"co": {"Y": -1, "X": 1}, "interpolation": 2}]}, "perspective_c1_y": {"Points": [{"co": {"Y": -1, "X": 1}, "interpolation": 2}]}, "rotation": {"Points": [{"co": {"Y": 0, "X": 1}, "interpolation": 2}]}, "perspective_c4_y": {"Points": [{"co": {"Y": -1, "X": 1}, "interpolation": 2}]}, "duration": 86400.0, "wave_color": {"red": {"Points": [{"handle_right": {"Y": 0, "X": 0.5}, "handle_type": 0, "handle_left": {"Y": 1, "X": 0.5}, "co": {"Y": 0, "X": 1}, "interpolation": 0}]}, "green": {"Points": [{"handle_right": {"Y": 0, "X": 0.5}, "handle_type": 0, "handle_left": {"Y": 1, "X": 0.5}, "co": {"Y": 123, "X": 1}, "interpolation": 0}]}, "blue": {"Points": [{"handle_right": {"Y": 0, "X": 0.5}, "handle_type": 0, "handle_left": {"Y": 1, "X": 0.5}, "co": {"Y": 255, "X": 1}, "interpolation": 0}]}, "alpha": {"Points": [{"handle_right": {"Y": 0, "X": 0.5}, "handle_type": 0, "handle_left": {"Y": 1, "X": 0.5}, "co": {"Y": 255, "X": 1}, "interpolation": 0}]}}, "time": {"Points": [{"co": {"Y": 1, "X": 1}, "interpolation": 2}]}, "file_id": "DIHETX3WQ7", "scale_y": {"Points": [{"co": {"Y": 1, "X": 1}, "interpolation": 2}]}, "effects": []}, {"location_x": {"Points": [{"co": {"Y": 0, "X": 1}, "interpolation": 2}]}, "perspective_c4_x": {"Points": [{"co": {"Y": -1, "X": 1}, "interpolation": 2}]}, "channel_filter": {"Points": [{"co": {"Y": -1, "X": 1}, "interpolation": 2}]}, "duration": 86400.0, "perspective_c1_x": {"Points": [{"co": {"Y": -1, "X": 1}, "interpolation": 2}]}, "perspective_c2_x": {"Points": [{"co": {"Y": -1, "X": 1}, "interpolation": 2}]}, "alpha": {"Points": [{"co": {"Y": 1, "X": 1}, "interpolation": 2}, {"handle_right": {"Y": 0, "X": 0.5}, "handle_type": 0, "handle_left": {"Y": 1, "X": 0.5}, "co": {"Y": 0, "X": 1}, "interpolation": 0}, {"handle_right": {"Y": 0, "X": 0.5}, "handle_type": 0, "handle_left": {"Y": 1, "X": 0.5}, "co": {"Y": 1, "X": 73}, "interpolation": 0}, {"handle_right": {"Y": 0, "X": 0.5}, "handle_type": 0, "handle_left": {"Y": 1, "X": 0.5}, "co": {"Y": 1, "X": 49}, "interpolation": 0}, {"handle_right": {"Y": 0, "X": 0.5}, "handle_type": 0, "handle_left": {"Y": 1, "X": 0.5}, "co": {"Y": 0, "X": 121}, "interpolation": 0}]}, "id": "ISJOMX8TQ1", "layer": 2, "display": 0, "scale": 1, "gravity": 4, "crop_width": {"Points": [{"co": {"Y": -1, "X": 1}, "interpolation": 2}]}, "crop_x": {"Points": [{"co": {"Y": 0, "X": 1}, "interpolation": 2}]}, "shear_x": {"Points": [{"co": {"Y": 0, "X": 1}, "interpolation": 2}]}, "volume": {"Points": [{"co": {"Y": 1, "X": 1}, "interpolation": 2}]}, "start": 0, "end": 5, "title": "!105-Average.svg", "crop_y": {"Points": [{"co": {"Y": 0, "X": 1}, "interpolation": 2}]}, "reader": {"video_stream_index": -1, "video_length": "2592000", "interlaced_frame": false, "audio_bit_rate": 0, "audio_timebase": {"den": 1, "num": 1}, "vcodec": "", "channels": 0, "has_video": true, "channel_layout": 4, "has_audio": false, "video_timebase": {"den": 30, "num": 1}, "has_single_image": true, "acodec": "", "video_bit_rate": 0, "display_ratio": {"den": 3827, "num": 6803}, "audio_stream_index": -1, "type": "QtImageReader", "top_field_first": true, "width": 6803, "pixel_ratio": {"den": 1, "num": 1}, "height": 3827, "duration": 86400.0, "file_size": "104140324", "path": "/home/milind/Data/Projects/ProgressCard/!105-Average.svg", "fps": {"den": 1, "num": 30}, "pixel_format": -1, "sample_rate": 0}, "position": 128.11499999999998, "has_video": {"Points": [{"co": {"Y": -1, "X": 1}, "interpolation": 2}]}, "has_audio": {"Points": [{"co": {"Y": -1, "X": 1}, "interpolation": 2}]}, "channel_mapping": {"Points": [{"co": {"Y": -1, "X": 1}, "interpolation": 2}]}, "shear_y": {"Points": [{"co": {"Y": 0, "X": 1}, "interpolation": 2}]}, "perspective_c3_y": {"Points": [{"co": {"Y": -1, "X": 1}, "interpolation": 2}]}, "waveform": false, "perspective_c3_x": {"Points": [{"co": {"Y": -1, "X": 1}, "interpolation": 2}]}, "scale_x": {"Points": [{"co": {"Y": 1, "X": 1}, "interpolation": 2}]}, "image": "/home/milind/.openshot_qt/thumbnail/1QJRY2QLTK.png", "location_y": {"Points": [{"co": {"Y": 0, "X": 1}, "interpolation": 2}]}, "file_id": "1QJRY2QLTK", "perspective_c2_y": {"Points": [{"co": {"Y": -1, "X": 1}, "interpolation": 2}]}, "perspective_c1_y": {"Points": [{"co": {"Y": -1, "X": 1}, "interpolation": 2}]}, "rotation": {"Points": [{"co": {"Y": 0, "X": 1}, "interpolation": 2}]}, "perspective_c4_y": {"Points": [{"co": {"Y": -1, "X": 1}, "interpolation": 2}]}, "anchor": 0, "wave_color": {"red": {"Points": [{"handle_right": {"Y": 0, "X": 0.5}, "handle_type": 0, "handle_left": {"Y": 1, "X": 0.5}, "co": {"Y": 0, "X": 1}, "interpolation": 0}]}, "green": {"Points": [{"handle_right": {"Y": 0, "X": 0.5}, "handle_type": 0, "handle_left": {"Y": 1, "X": 0.5}, "co": {"Y": 123, "X": 1}, "interpolation": 0}]}, "blue": {"Points": [{"handle_right": {"Y": 0, "X": 0.5}, "handle_type": 0, "handle_left": {"Y": 1, "X": 0.5}, "co": {"Y": 255, "X": 1}, "interpolation": 0}]}, "alpha": {"Points": [{"handle_right": {"Y": 0, "X": 0.5}, "handle_type": 0, "handle_left": {"Y": 1, "X": 0.5}, "co": {"Y": 255, "X": 1}, "interpolation": 0}]}}, "time": {"Points": [{"co": {"Y": 1, "X": 1}, "interpolation": 2}]}, "crop_height": {"Points": [{"co": {"Y": -1, "X": 1}, "interpolation": 2}]}, "scale_y": {"Points": [{"co": {"Y": 1, "X": 1}, "interpolation": 2}]}, "effects": []}, {"location_x": {"Points": [{"handle_right": {"Y": 0, "X": 0.5}, "handle_type": 0, "handle_left": {"Y": 1, "X": 0.5}, "co": {"Y": 0, "X": 1}, "interpolation": 0}]}, "perspective_c4_x": {"Points": [{"co": {"Y": -1, "X": 1}, "interpolation": 2}]}, "channel_filter": {"Points": [{"co": {"Y": -1, "X": 1}, "interpolation": 2}]}, "duration": 86400.0, "perspective_c1_x": {"Points": [{"co": {"Y": -1, "X": 1}, "interpolation": 2}]}, "perspective_c2_x": {"Points": [{"co": {"Y": -1, "X": 1}, "interpolation": 2}]}, "alpha": {"Points": [{"co": {"Y": 1, "X": 1}, "interpolation": 2}, {"handle_right": {"Y": 0, "X": 0.5}, "handle_type": 0, "handle_left": {"Y": 1, "X": 0.5}, "co": {"Y": 0, "X": 1}, "interpolation": 0}, {"handle_right": {"Y": 0, "X": 0.5}, "handle_type": 0, "handle_left": {"Y": 1, "X": 0.5}, "co": {"Y": 1, "X": 73}, "interpolation": 0}, {"handle_right": {"Y": 0, "X": 0.5}, "handle_type": 0, "handle_left": {"Y": 1, "X": 0.5}, "co": {"Y": 1, "X": 49}, "interpolation": 0}, {"handle_right": {"Y": 0, "X": 0.5}, "handle_type": 0, "handle_left": {"Y": 1, "X": 0.5}, "co": {"Y": 0, "X": 121}, "interpolation": 0}]}, "id": "98IX31JWVL", "layer": 3, "display": 0, "scale": 1, "gravity": 4, "crop_width": {"Points": [{"co": {"Y": -1, "X": 1}, "interpolation": 2}]}, "crop_x": {"Points": [{"co": {"Y": 0, "X": 1}, "interpolation": 2}]}, "shear_x": {"Points": [{"co": {"Y": 0, "X": 1}, "interpolation": 2}]}, "volume": {"Points": [{"co": {"Y": 1, "X": 1}, "interpolation": 2}]}, "start": 0, "end": 5, "title": "!113-Menu-Format-Cells.svg", "crop_y": {"Points": [{"co": {"Y": 0, "X": 1}, "interpolation": 2}]}, "reader": {"video_stream_index": -1, "video_length": "2592000", "interlaced_frame": false, "audio_bit_rate": 0, "audio_timebase": {"den": 1, "num": 1}, "vcodec": "", "channels": 0, "has_video": true, "channel_layout": 4, "has_audio": false, "video_timebase": {"den": 30, "num": 1}, "has_single_image": true, "acodec": "", "video_bit_rate": 0, "display_ratio": {"den": 3827, "num": 6803}, "audio_stream_index": -1, "type": "QtImageReader", "top_field_first": true, "width": 6803, "pixel_ratio": {"den": 1, "num": 1}, "height": 3827, "duration": 86400.0, "file_size": "104140324", "path": "/home/milind/Data/Projects/ProgressCard/!113-Menu-Format-Cells.svg", "fps": {"den": 1, "num": 30}, "pixel_format": -1, "sample_rate": 0}, "position": 140.165, "has_video": {"Points": [{"co": {"Y": -1, "X": 1}, "interpolation": 2}]}, "has_audio": {"Points": [{"co": {"Y": -1, "X": 1}, "interpolation": 2}]}, "channel_mapping": {"Points": [{"co": {"Y": -1, "X": 1}, "interpolation": 2}]}, "shear_y": {"Points": [{"co": {"Y": 0, "X": 1}, "interpolation": 2}]}, "perspective_c3_y": {"Points": [{"co": {"Y": -1, "X": 1}, "interpolation": 2}]}, "waveform": false, "perspective_c3_x": {"Points": [{"co": {"Y": -1, "X": 1}, "interpolation": 2}]}, "scale_x": {"Points": [{"handle_right": {"Y": 0, "X": 0.5}, "handle_type": 0, "handle_left": {"Y": 1, "X": 0.5}, "co": {"Y": 1, "X": 1}, "interpolation": 0}]}, "image": "/home/milind/.openshot_qt/thumbnail/LKFVWV6XVE.png", "location_y": {"Points": [{"handle_right": {"Y": 0, "X": 0.5}, "handle_type": 0, "handle_left": {"Y": 1, "X": 0.5}, "co": {"Y": -0.05999999865889549, "X": 1}, "interpolation": 0}]}, "file_id": "LKFVWV6XVE", "perspective_c2_y": {"Points": [{"co": {"Y": -1, "X": 1}, "interpolation": 2}]}, "perspective_c1_y": {"Points": [{"co": {"Y": -1, "X": 1}, "interpolation": 2}]}, "rotation": {"Points": [{"co": {"Y": 0, "X": 1}, "interpolation": 2}]}, "perspective_c4_y": {"Points": [{"co": {"Y": -1, "X": 1}, "interpolation": 2}]}, "anchor": 0, "wave_color": {"red": {"Points": [{"handle_right": {"Y": 0, "X": 0.5}, "handle_type": 0, "handle_left": {"Y": 1, "X": 0.5}, "co": {"Y": 0, "X": 1}, "interpolation": 0}]}, "green": {"Points": [{"handle_right": {"Y": 0, "X": 0.5}, "handle_type": 0, "handle_left": {"Y": 1, "X": 0.5}, "co": {"Y": 123, "X": 1}, "interpolation": 0}]}, "blue": {"Points": [{"handle_right": {"Y": 0, "X": 0.5}, "handle_type": 0, "handle_left": {"Y": 1, "X": 0.5}, "co": {"Y": 255, "X": 1}, "interpolation": 0}]}, "alpha": {"Points": [{"handle_right": {"Y": 0, "X": 0.5}, "handle_type": 0, "handle_left": {"Y": 1, "X": 0.5}, "co": {"Y": 255, "X": 1}, "interpolation": 0}]}}, "time": {"Points": [{"co": {"Y": 1, "X": 1}, "interpolation": 2}]}, "crop_height": {"Points": [{"co": {"Y": -1, "X": 1}, "interpolation": 2}]}, "scale_y": {"Points": [{"handle_right": {"Y": 0, "X": 0.5}, "handle_type": 0, "handle_left": {"Y": 1, "X": 0.5}, "co": {"Y": 1, "X": 1}, "interpolation": 0}]}, "effects": []}, {"location_x": {"Points": [{"co": {"Y": 0, "X": 1}, "interpolation": 2}]}, "perspective_c4_x": {"Points": [{"co": {"Y": -1, "X": 1}, "interpolation": 2}]}, "channel_filter": {"Points": [{"co": {"Y": -1, "X": 1}, "interpolation": 2}]}, "duration": 86400.0, "perspective_c1_x": {"Points": [{"co": {"Y": -1, "X": 1}, "interpolation": 2}]}, "perspective_c2_x": {"Points": [{"co": {"Y": -1, "X": 1}, "interpolation": 2}]}, "alpha": {"Points": [{"co": {"Y": 1, "X": 1}, "interpolation": 2}, {"handle_right": {"Y": 0, "X": 0.5}, "handle_type": 0, "handle_left": {"Y": 1, "X": 0.5}, "co": {"Y": 0, "X": 1}, "interpolation": 0}, {"handle_right": {"Y": 0, "X": 0.5}, "handle_type": 0, "handle_left": {"Y": 1, "X": 0.5}, "co": {"Y": 1, "X": 73}, "interpolation": 0}, {"handle_right": {"Y": 0, "X": 0.5}, "handle_type": 0, "handle_left": {"Y": 1, "X": 0.5}, "co": {"Y": 1, "X": 49}, "interpolation": 0}, {"handle_right": {"Y": 0, "X": 0.5}, "handle_type": 0, "handle_left": {"Y": 1, "X": 0.5}, "co": {"Y": 0, "X": 121}, "interpolation": 0}]}, "id": "TREDM9MF0N", "layer": 3, "display": 0, "scale": 1, "gravity": 4, "crop_width": {"Points": [{"co": {"Y": -1, "X": 1}, "interpolation": 2}]}, "crop_x": {"Points": [{"co": {"Y": 0, "X": 1}, "interpolation": 2}]}, "shear_x": {"Points": [{"co": {"Y": 0, "X": 1}, "interpolation": 2}]}, "volume": {"Points": [{"co": {"Y": 1, "X": 1}, "interpolation": 2}]}, "start": 0, "end": 5, "title": "!114-We need only 2 decimal places.svg", "crop_y": {"Points": [{"co": {"Y": 0, "X": 1}, "interpolation": 2}]}, "reader": {"video_stream_index": -1, "video_length": "2592000", "interlaced_frame": false, "audio_bit_rate": 0, "audio_timebase": {"den": 1, "num": 1}, "vcodec": "", "channels": 0, "has_video": true, "channel_layout": 4, "has_audio": false, "video_timebase": {"den": 30, "num": 1}, "has_single_image": true, "acodec": "", "video_bit_rate": 0, "display_ratio": {"den": 3827, "num": 6803}, "audio_stream_index": -1, "type": "QtImageReader", "top_field_first": true, "width": 6803, "pixel_ratio": {"den": 1, "num": 1}, "height": 3827, "duration": 86400.0, "file_size": "104140324", "path": "/home/milind/Data/Projects/ProgressCard/!114-We need only 2 decimal places.svg", "fps": {"den": 1, "num": 30}, "pixel_format": -1, "sample_rate": 0}, "position": 145.1640625, "has_video": {"Points": [{"co": {"Y": -1, "X": 1}, "interpolation": 2}]}, "has_audio": {"Points": [{"co": {"Y": -1, "X": 1}, "interpolation": 2}]}, "channel_mapping": {"Points": [{"co": {"Y": -1, "X": 1}, "interpolation": 2}]}, "shear_y": {"Points": [{"co": {"Y": 0, "X": 1}, "interpolation": 2}]}, "perspective_c3_y": {"Points": [{"co": {"Y": -1, "X": 1}, "interpolation": 2}]}, "waveform": false, "perspective_c3_x": {"Points": [{"co": {"Y": -1, "X": 1}, "interpolation": 2}]}, "scale_x": {"Points": [{"co": {"Y": 1, "X": 1}, "interpolation": 2}]}, "image": "/home/milind/.openshot_qt/thumbnail/GS94V0HQUR.png", "location_y": {"Points": [{"co": {"Y": 0, "X": 1}, "interpolation": 2}]}, "file_id": "GS94V0HQUR", "perspective_c2_y": {"Points": [{"co": {"Y": -1, "X": 1}, "interpolation": 2}]}, "perspective_c1_y": {"Points": [{"co": {"Y": -1, "X": 1}, "interpolation": 2}]}, "rotation": {"Points": [{"co": {"Y": 0, "X": 1}, "interpolation": 2}]}, "perspective_c4_y": {"Points": [{"co": {"Y": -1, "X": 1}, "interpolation": 2}]}, "anchor": 0, "wave_color": {"red": {"Points": [{"handle_right": {"Y": 0, "X": 0.5}, "handle_type": 0, "handle_left": {"Y": 1, "X": 0.5}, "co": {"Y": 0, "X": 1}, "interpolation": 0}]}, "green": {"Points": [{"handle_right": {"Y": 0, "X": 0.5}, "handle_type": 0, "handle_left": {"Y": 1, "X": 0.5}, "co": {"Y": 123, "X": 1}, "interpolation": 0}]}, "blue": {"Points": [{"handle_right": {"Y": 0, "X": 0.5}, "handle_type": 0, "handle_left": {"Y": 1, "X": 0.5}, "co": {"Y": 255, "X": 1}, "interpolation": 0}]}, "alpha": {"Points": [{"handle_right": {"Y": 0, "X": 0.5}, "handle_type": 0, "handle_left": {"Y": 1, "X": 0.5}, "co": {"Y": 255, "X": 1}, "interpolation": 0}]}}, "time": {"Points": [{"co": {"Y": 1, "X": 1}, "interpolation": 2}]}, "crop_height": {"Points": [{"co": {"Y": -1, "X": 1}, "interpolation": 2}]}, "scale_y": {"Points": [{"co": {"Y": 1, "X": 1}, "interpolation": 2}]}, "effects": []}, {"perspective_c3_y": {"Points": [{"co": {"Y": -1, "X": 1}, "interpolation": 2}]}, "shear_x": {"Points": [{"co": {"Y": 0, "X": 1}, "interpolation": 2}]}, "channel_filter": {"Points": [{"co": {"Y": -1, "X": 1}, "interpolation": 2}]}, "duration": 86400.0, "perspective_c1_x": {"Points": [{"co": {"Y": -1, "X": 1}, "interpolation": 2}]}, "perspective_c2_x": {"Points": [{"co": {"Y": -1, "X": 1}, "interpolation": 2}]}, "alpha": {"Points": [{"handle_right": {"Y": 0, "X": 0.5}, "handle_type": 0, "handle_left": {"Y": 1, "X": 0.5}, "co": {"Y": 1, "X": 1}, "interpolation": 0}, {"handle_right": {"Y": 0, "X": 0.5}, "handle_type": 0, "handle_left": {"Y": 1, "X": 0.5}, "co": {"Y": 0, "X": 1}, "interpolation": 0}, {"handle_right": {"Y": 0, "X": 0.5}, "handle_type": 0, "handle_left": {"Y": 1, "X": 0.5}, "co": {"Y": 1, "X": 73}, "interpolation": 0}, {"handle_right": {"Y": 0, "X": 0.5}, "handle_type": 0, "handle_left": {"Y": 1, "X": 0.5}, "co": {"Y": 1, "X": 216}, "interpolation": 0}, {"handle_right": {"Y": 0, "X": 0.5}, "handle_type": 0, "handle_left": {"Y": 1, "X": 0.5}, "co": {"Y": 0, "X": 288}, "interpolation": 0}]}, "id": "MDW7G3JTN7", "layer": 2, "file_id": "BS7QREURZM", "display": 0, "scale": 1, "gravity": 4, "crop_width": {"Points": [{"co": {"Y": -1, "X": 1}, "interpolation": 2}]}, "crop_x": {"Points": [{"co": {"Y": 0, "X": 1}, "interpolation": 2}]}, "perspective_c4_x": {"Points": [{"co": {"Y": -1, "X": 1}, "interpolation": 2}]}, "volume": {"Points": [{"co": {"Y": 1, "X": 1}, "interpolation": 2}]}, "start": 0, "rotation": {"Points": [{"co": {"Y": 0, "X": 1}, "interpolation": 2}]}, "crop_y": {"Points": [{"co": {"Y": 0, "X": 1}, "interpolation": 2}]}, "position": 103.86000061035156, "has_video": {"Points": [{"co": {"Y": -1, "X": 1}, "interpolation": 2}]}, "has_audio": {"Points": [{"co": {"Y": -1, "X": 1}, "interpolation": 2}]}, "channel_mapping": {"Points": [{"co": {"Y": -1, "X": 1}, "interpolation": 2}]}, "end": 11.97, "shear_y": {"Points": [{"co": {"Y": 0, "X": 1}, "interpolation": 2}]}, "perspective_c3_x": {"Points": [{"co": {"Y": -1, "X": 1}, "interpolation": 2}]}, "scale_x": {"Points": [{"co": {"Y": 1, "X": 1}, "interpolation": 2}]}, "location_x": {"Points": [{"co": {"Y": 0, "X": 1}, "interpolation": 2}]}, "location_y": {"Points": [{"co": {"Y": 0, "X": 1}, "interpolation": 2}]}, "image": "/home/milind/.openshot_qt/thumbnail/BS7QREURZM.png", "perspective_c2_y": {"Points": [{"co": {"Y": -1, "X": 1}, "interpolation": 2}]}, "waveform": false, "perspective_c1_y": {"Points": [{"co": {"Y": -1, "X": 1}, "interpolation": 2}]}, "title": "!086-Then Fail Else Pass.svg", "perspective_c4_y": {"Points": [{"co": {"Y": -1, "X": 1}, "interpolation": 2}]}, "anchor": 0, "wave_color": {"red": {"Points": [{"handle_right": {"Y": 0, "X": 0.5}, "handle_type": 0, "handle_left": {"Y": 1, "X": 0.5}, "co": {"Y": 0, "X": 1}, "interpolation": 0}]}, "green": {"Points": [{"handle_right": {"Y": 0, "X": 0.5}, "handle_type": 0, "handle_left": {"Y": 1, "X": 0.5}, "co": {"Y": 123, "X": 1}, "interpolation": 0}]}, "blue": {"Points": [{"handle_right": {"Y": 0, "X": 0.5}, "handle_type": 0, "handle_left": {"Y": 1, "X": 0.5}, "co": {"Y": 255, "X": 1}, "interpolation": 0}]}, "alpha": {"Points": [{"handle_right": {"Y": 0, "X": 0.5}, "handle_type": 0, "handle_left": {"Y": 1, "X": 0.5}, "co": {"Y": 255, "X": 1}, "interpolation": 0}]}}, "time": {"Points": [{"co": {"Y": 1, "X": 1}, "interpolation": 2}]}, "effects": [], "crop_height": {"Points": [{"co": {"Y": -1, "X": 1}, "interpolation": 2}]}, "scale_y": {"Points": [{"co": {"Y": 1, "X": 1}, "interpolation": 2}]}, "reader": {"video_stream_index": -1, "top_field_first": true, "interlaced_frame": false, "audio_bit_rate": 0, "audio_timebase": {"den": 1, "num": 1}, "duration": 86400.0, "channels": 0, "has_video": true, "channel_layout": 4, "has_audio": false, "video_timebase": {"den": 30, "num": 1}, "has_single_image": true, "acodec": "", "video_bit_rate": 0, "display_ratio": {"den": 3827, "num": 6803}, "audio_stream_index": -1, "type": "QtImageReader", "video_length": "2592000", "width": 6803, "pixel_ratio": {"den": 1, "num": 1}, "height": 3827, "vcodec": "", "file_size": "104140324", "path": "/home/milind/Data/Projects/ProgressCard/!086-Then Fail Else Pass.svg", "fps": {"den": 1, "num": 30}, "pixel_format": -1, "sample_rate": 0}}, {"perspective_c3_y": {"Points": [{"co": {"Y": -1, "X": 1}, "interpolation": 2}]}, "shear_x": {"Points": [{"co": {"Y": 0, "X": 1}, "interpolation": 2}]}, "channel_filter": {"Points": [{"co": {"Y": -1, "X": 1}, "interpolation": 2}]}, "duration": 86400.0, "perspective_c1_x": {"Points": [{"co": {"Y": -1, "X": 1}, "interpolation": 2}]}, "perspective_c2_x": {"Points": [{"co": {"Y": -1, "X": 1}, "interpolation": 2}]}, "alpha": {"Points": [{"co": {"Y": 1, "X": 1}, "interpolation": 2}, {"handle_right": {"Y": 0, "X": 0.5}, "handle_type": 0, "handle_left": {"Y": 1, "X": 0.5}, "co": {"Y": 0, "X": 1}, "interpolation": 0}, {"handle_right": {"Y": 0, "X": 0.5}, "handle_type": 0, "handle_left": {"Y": 1, "X": 0.5}, "co": {"Y": 1, "X": 73}, "interpolation": 0}, {"handle_right": {"Y": 0, "X": 0.5}, "handle_type": 0, "handle_left": {"Y": 1, "X": 0.5}, "co": {"Y": 1, "X": 102}, "interpolation": 0}, {"handle_right": {"Y": 0, "X": 0.5}, "handle_type": 0, "handle_left": {"Y": 1, "X": 0.5}, "co": {"Y": 0, "X": 174}, "interpolation": 0}]}, "id": "CXD9GF0U7L", "layer": 2, "file_id": "AA811BEMSM", "display": 0, "scale": 1, "gravity": 4, "crop_width": {"Points": [{"co": {"Y": -1, "X": 1}, "interpolation": 2}]}, "crop_x": {"Points": [{"co": {"Y": 0, "X": 1}, "interpolation": 2}]}, "perspective_c4_x": {"Points": [{"co": {"Y": -1, "X": 1}, "interpolation": 2}]}, "volume": {"Points": [{"co": {"Y": 1, "X": 1}, "interpolation": 2}]}, "start": 0, "rotation": {"Points": [{"co": {"Y": 0, "X": 1}, "interpolation": 2}]}, "crop_y": {"Points": [{"co": {"Y": 0, "X": 1}, "interpolation": 2}]}, "position": 177.65796874999998, "has_video": {"Points": [{"co": {"Y": -1, "X": 1}, "interpolation": 2}]}, "has_audio": {"Points": [{"co": {"Y": -1, "X": 1}, "interpolation": 2}]}, "channel_mapping": {"Points": [{"co": {"Y": -1, "X": 1}, "interpolation": 2}]}, "end": 7.21, "shear_y": {"Points": [{"co": {"Y": 0, "X": 1}, "interpolation": 2}]}, "perspective_c3_x": {"Points": [{"co": {"Y": -1, "X": 1}, "interpolation": 2}]}, "scale_x": {"Points": [{"co": {"Y": 1, "X": 1}, "interpolation": 2}]}, "location_x": {"Points": [{"co": {"Y": 0, "X": 1}, "interpolation": 2}]}, "location_y": {"Points": [{"co": {"Y": 0, "X": 1}, "interpolation": 2}]}, "image": "/home/milind/.openshot_qt/thumbnail/AA811BEMSM.png", "perspective_c2_y": {"Points": [{"co": {"Y": -1, "X": 1}, "interpolation": 2}]}, "waveform": false, "perspective_c1_y": {"Points": [{"co": {"Y": -1, "X": 1}, "interpolation": 2}]}, "title": "!135-Grade.svg", "perspective_c4_y": {"Points": [{"co": {"Y": -1, "X": 1}, "interpolation": 2}]}, "anchor": 0, "wave_color": {"blue": {"Points": [{"handle_right": {"Y": 0, "X": 0.5}, "handle_type": 0, "handle_left": {"Y": 1, "X": 0.5}, "co": {"Y": 255, "X": 1}, "interpolation": 0}]}, "green": {"Points": [{"handle_right": {"Y": 0, "X": 0.5}, "handle_type": 0, "handle_left": {"Y": 1, "X": 0.5}, "co": {"Y": 123, "X": 1}, "interpolation": 0}]}, "red": {"Points": [{"handle_right": {"Y": 0, "X": 0.5}, "handle_type": 0, "handle_left": {"Y": 1, "X": 0.5}, "co": {"Y": 0, "X": 1}, "interpolation": 0}]}, "alpha": {"Points": [{"handle_right": {"Y": 0, "X": 0.5}, "handle_type": 0, "handle_left": {"Y": 1, "X": 0.5}, "co": {"Y": 255, "X": 1}, "interpolation": 0}]}}, "time": {"Points": [{"co": {"Y": 1, "X": 1}, "interpolation": 2}]}, "effects": [], "crop_height": {"Points": [{"co": {"Y": -1, "X": 1}, "interpolation": 2}]}, "scale_y": {"Points": [{"co": {"Y": 1, "X": 1}, "interpolation": 2}]}, "reader": {"video_stream_index": -1, "top_field_first": true, "interlaced_frame": false, "audio_bit_rate": 0, "audio_timebase": {"den": 1, "num": 1}, "duration": 86400.0, "channels": 0, "has_video": true, "channel_layout": 4, "has_audio": false, "video_timebase": {"den": 30, "num": 1}, "has_single_image": true, "acodec": "", "video_bit_rate": 0, "display_ratio": {"den": 3827, "num": 6803}, "audio_stream_index": -1, "type": "QtImageReader", "video_length": "2592000", "width": 6803, "pixel_ratio": {"den": 1, "num": 1}, "height": 3827, "vcodec": "", "file_size": "104140324", "path": "/home/milind/Data/Projects/ProgressCard/!135-Grade.svg", "fps": {"den": 1, "num": 30}, "pixel_format": -1, "sample_rate": 0}}, {"perspective_c3_y": {"Points": [{"co": {"Y": -1, "X": 1}, "interpolation": 2}]}, "shear_x": {"Points": [{"co": {"Y": 0, "X": 1}, "interpolation": 2}]}, "channel_filter": {"Points": [{"co": {"Y": -1, "X": 1}, "interpolation": 2}]}, "duration": 86400.0, "perspective_c1_x": {"Points": [{"co": {"Y": -1, "X": 1}, "interpolation": 2}]}, "perspective_c2_x": {"Points": [{"co": {"Y": -1, "X": 1}, "interpolation": 2}]}, "alpha": {"Points": [{"co": {"Y": 1, "X": 1}, "interpolation": 2}]}, "id": "DVT7KHN9HZ", "layer": 2, "file_id": "U4HEYX76VH", "display": 0, "scale": 1, "gravity": 4, "crop_width": {"Points": [{"co": {"Y": -1, "X": 1}, "interpolation": 2}]}, "crop_x": {"Points": [{"co": {"Y": 0, "X": 1}, "interpolation": 2}]}, "perspective_c4_x": {"Points": [{"co": {"Y": -1, "X": 1}, "interpolation": 2}]}, "volume": {"Points": [{"co": {"Y": 1, "X": 1}, "interpolation": 2}]}, "start": 0, "rotation": {"Points": [{"co": {"Y": 0, "X": 1}, "interpolation": 2}]}, "crop_y": {"Points": [{"co": {"Y": 0, "X": 1}, "interpolation": 2}]}, "position": 196.41666666666666, "has_video": {"Points": [{"co": {"Y": -1, "X": 1}, "interpolation": 2}]}, "has_audio": {"Points": [{"co": {"Y": -1, "X": 1}, "interpolation": 2}]}, "channel_mapping": {"Points": [{"co": {"Y": -1, "X": 1}, "interpolation": 2}]}, "end": 5, "shear_y": {"Points": [{"co": {"Y": 0, "X": 1}, "interpolation": 2}]}, "perspective_c3_x": {"Points": [{"co": {"Y": -1, "X": 1}, "interpolation": 2}]}, "scale_x": {"Points": [{"co": {"Y": 1, "X": 1}, "interpolation": 2}]}, "location_x": {"Points": [{"co": {"Y": 0, "X": 1}, "interpolation": 2}]}, "location_y": {"Points": [{"co": {"Y": 0, "X": 1}, "interpolation": 2}]}, "image": "/home/milind/.openshot_qt/thumbnail/U4HEYX76VH.png", "perspective_c2_y": {"Points": [{"co": {"Y": -1, "X": 1}, "interpolation": 2}]}, "waveform": false, "perspective_c1_y": {"Points": [{"co": {"Y": -1, "X": 1}, "interpolation": 2}]}, "title": "!145-PROMOTED.svg", "perspective_c4_y": {"Points": [{"co": {"Y": -1, "X": 1}, "interpolation": 2}]}, "anchor": 0, "wave_color": {"blue": {"Points": [{"handle_right": {"Y": 0, "X": 0.5}, "handle_type": 0, "handle_left": {"Y": 1, "X": 0.5}, "co": {"Y": 255, "X": 1}, "interpolation": 0}]}, "green": {"Points": [{"handle_right": {"Y": 0, "X": 0.5}, "handle_type": 0, "handle_left": {"Y": 1, "X": 0.5}, "co": {"Y": 123, "X": 1}, "interpolation": 0}]}, "red": {"Points": [{"handle_right": {"Y": 0, "X": 0.5}, "handle_type": 0, "handle_left": {"Y": 1, "X": 0.5}, "co": {"Y": 0, "X": 1}, "interpolation": 0}]}, "alpha": {"Points": [{"handle_right": {"Y": 0, "X": 0.5}, "handle_type": 0, "handle_left": {"Y": 1, "X": 0.5}, "co": {"Y": 255, "X": 1}, "interpolation": 0}]}}, "time": {"Points": [{"co": {"Y": 1, "X": 1}, "interpolation": 2}]}, "effects": [], "crop_height": {"Points": [{"co": {"Y": -1, "X": 1}, "interpolation": 2}]}, "scale_y": {"Points": [{"co": {"Y": 1, "X": 1}, "interpolation": 2}]}, "reader": {"video_stream_index": -1, "top_field_first": true, "interlaced_frame": false, "audio_bit_rate": 0, "audio_timebase": {"den": 1, "num": 1}, "duration": 86400.0, "channels": 0, "has_video": true, "channel_layout": 4, "has_audio": false, "video_timebase": {"den": 30, "num": 1}, "has_single_image": true, "acodec": "", "video_bit_rate": 0, "display_ratio": {"den": 3827, "num": 6803}, "audio_stream_index": -1, "type": "QtImageReader", "video_length": "2592000", "width": 6803, "pixel_ratio": {"den": 1, "num": 1}, "height": 3827, "vcodec": "", "file_size": "104140324", "path": "/home/milind/Data/Projects/ProgressCard/!145-PROMOTED.svg", "fps": {"den": 1, "num": 30}, "pixel_format": -1, "sample_rate": 0}}, {"perspective_c3_y": {"Points": [{"co": {"Y": -1, "X": 1}, "interpolation": 2}]}, "shear_x": {"Points": [{"co": {"Y": 0, "X": 1}, "interpolation": 2}]}, "channel_filter": {"Points": [{"co": {"Y": -1, "X": 1}, "interpolation": 2}]}, "duration": 86400.0, "perspective_c1_x": {"Points": [{"co": {"Y": -1, "X": 1}, "interpolation": 2}]}, "perspective_c2_x": {"Points": [{"co": {"Y": -1, "X": 1}, "interpolation": 2}]}, "alpha": {"Points": [{"co": {"Y": 1, "X": 1}, "interpolation": 2}]}, "id": "53HWYMUXFZ", "layer": 2, "file_id": "QKE4L0GUDK", "display": 0, "scale": 1, "gravity": 4, "crop_width": {"Points": [{"co": {"Y": -1, "X": 1}, "interpolation": 2}]}, "crop_x": {"Points": [{"co": {"Y": 0, "X": 1}, "interpolation": 2}]}, "perspective_c4_x": {"Points": [{"co": {"Y": -1, "X": 1}, "interpolation": 2}]}, "volume": {"Points": [{"co": {"Y": 1, "X": 1}, "interpolation": 2}]}, "start": 0, "rotation": {"Points": [{"co": {"Y": 0, "X": 1}, "interpolation": 2}]}, "crop_y": {"Points": [{"co": {"Y": 0, "X": 1}, "interpolation": 2}]}, "position": 208.92999999999998, "has_video": {"Points": [{"co": {"Y": -1, "X": 1}, "interpolation": 2}]}, "has_audio": {"Points": [{"co": {"Y": -1, "X": 1}, "interpolation": 2}]}, "channel_mapping": {"Points": [{"co": {"Y": -1, "X": 1}, "interpolation": 2}]}, "end": 5, "shear_y": {"Points": [{"co": {"Y": 0, "X": 1}, "interpolation": 2}]}, "perspective_c3_x": {"Points": [{"co": {"Y": -1, "X": 1}, "interpolation": 2}]}, "scale_x": {"Points": [{"co": {"Y": 1, "X": 1}, "interpolation": 2}]}, "location_x": {"Points": [{"co": {"Y": 0, "X": 1}, "interpolation": 2}]}, "location_y": {"Points": [{"co": {"Y": 0, "X": 1}, "interpolation": 2}]}, "image": "/home/milind/.openshot_qt/thumbnail/QKE4L0GUDK.png", "perspective_c2_y": {"Points": [{"co": {"Y": -1, "X": 1}, "interpolation": 2}]}, "waveform": false, "perspective_c1_y": {"Points": [{"co": {"Y": -1, "X": 1}, "interpolation": 2}]}, "title": "!145-PASS CLASS.svg", "perspective_c4_y": {"Points": [{"co": {"Y": -1, "X": 1}, "interpolation": 2}]}, "anchor": 0, "wave_color": {"blue": {"Points": [{"handle_right": {"Y": 0, "X": 0.5}, "handle_type": 0, "handle_left": {"Y": 1, "X": 0.5}, "co": {"Y": 255, "X": 1}, "interpolation": 0}]}, "green": {"Points": [{"handle_right": {"Y": 0, "X": 0.5}, "handle_type": 0, "handle_left": {"Y": 1, "X": 0.5}, "co": {"Y": 123, "X": 1}, "interpolation": 0}]}, "red": {"Points": [{"handle_right": {"Y": 0, "X": 0.5}, "handle_type": 0, "handle_left": {"Y": 1, "X": 0.5}, "co": {"Y": 0, "X": 1}, "interpolation": 0}]}, "alpha": {"Points": [{"handle_right": {"Y": 0, "X": 0.5}, "handle_type": 0, "handle_left": {"Y": 1, "X": 0.5}, "co": {"Y": 255, "X": 1}, "interpolation": 0}]}}, "time": {"Points": [{"co": {"Y": 1, "X": 1}, "interpolation": 2}]}, "effects": [], "crop_height": {"Points": [{"co": {"Y": -1, "X": 1}, "interpolation": 2}]}, "scale_y": {"Points": [{"co": {"Y": 1, "X": 1}, "interpolation": 2}]}, "reader": {"video_stream_index": -1, "top_field_first": true, "interlaced_frame": false, "audio_bit_rate": 0, "audio_timebase": {"den": 1, "num": 1}, "duration": 86400.0, "channels": 0, "has_video": true, "channel_layout": 4, "has_audio": false, "video_timebase": {"den": 30, "num": 1}, "has_single_image": true, "acodec": "", "video_bit_rate": 0, "display_ratio": {"den": 3827, "num": 6803}, "audio_stream_index": -1, "type": "QtImageReader", "video_length": "2592000", "width": 6803, "pixel_ratio": {"den": 1, "num": 1}, "height": 3827, "vcodec": "", "file_size": "104140324", "path": "/home/milind/Data/Projects/ProgressCard/!145-PASS CLASS.svg", "fps": {"den": 1, "num": 30}, "pixel_format": -1, "sample_rate": 0}}, {"perspective_c3_y": {"Points": [{"co": {"Y": -1, "X": 1}, "interpolation": 2}]}, "shear_x": {"Points": [{"co": {"Y": 0, "X": 1}, "interpolation": 2}]}, "channel_filter": {"Points": [{"co": {"Y": -1, "X": 1}, "interpolation": 2}]}, "duration": 86400.0, "perspective_c1_x": {"Points": [{"co": {"Y": -1, "X": 1}, "interpolation": 2}]}, "perspective_c2_x": {"Points": [{"co": {"Y": -1, "X": 1}, "interpolation": 2}]}, "alpha": {"Points": [{"co": {"Y": 1, "X": 1}, "interpolation": 2}]}, "id": "O4H51B63WF", "layer": 2, "file_id": "B8NAT6SOHT", "display": 0, "scale": 1, "gravity": 4, "crop_width": {"Points": [{"co": {"Y": -1, "X": 1}, "interpolation": 2}]}, "crop_x": {"Points": [{"co": {"Y": 0, "X": 1}, "interpolation": 2}]}, "perspective_c4_x": {"Points": [{"co": {"Y": -1, "X": 1}, "interpolation": 2}]}, "volume": {"Points": [{"co": {"Y": 1, "X": 1}, "interpolation": 2}]}, "start": 0, "rotation": {"Points": [{"co": {"Y": 0, "X": 1}, "interpolation": 2}]}, "crop_y": {"Points": [{"co": {"Y": 0, "X": 1}, "interpolation": 2}]}, "position": 219.64, "has_video": {"Points": [{"co": {"Y": -1, "X": 1}, "interpolation": 2}]}, "has_audio": {"Points": [{"co": {"Y": -1, "X": 1}, "interpolation": 2}]}, "channel_mapping": {"Points": [{"co": {"Y": -1, "X": 1}, "interpolation": 2}]}, "end": 5, "shear_y": {"Points": [{"co": {"Y": 0, "X": 1}, "interpolation": 2}]}, "perspective_c3_x": {"Points": [{"co": {"Y": -1, "X": 1}, "interpolation": 2}]}, "scale_x": {"Points": [{"co": {"Y": 1, "X": 1}, "interpolation": 2}]}, "location_x": {"Points": [{"co": {"Y": 0, "X": 1}, "interpolation": 2}]}, "location_y": {"Points": [{"co": {"Y": 0, "X": 1}, "interpolation": 2}]}, "image": "/home/milind/.openshot_qt/thumbnail/B8NAT6SOHT.png", "perspective_c2_y": {"Points": [{"co": {"Y": -1, "X": 1}, "interpolation": 2}]}, "waveform": false, "perspective_c1_y": {"Points": [{"co": {"Y": -1, "X": 1}, "interpolation": 2}]}, "title": "!145-SECOND CLASS.svg", "perspective_c4_y": {"Points": [{"co": {"Y": -1, "X": 1}, "interpolation": 2}]}, "anchor": 0, "wave_color": {"blue": {"Points": [{"handle_right": {"Y": 0, "X": 0.5}, "handle_type": 0, "handle_left": {"Y": 1, "X": 0.5}, "co": {"Y": 255, "X": 1}, "interpolation": 0}]}, "green": {"Points": [{"handle_right": {"Y": 0, "X": 0.5}, "handle_type": 0, "handle_left": {"Y": 1, "X": 0.5}, "co": {"Y": 123, "X": 1}, "interpolation": 0}]}, "red": {"Points": [{"handle_right": {"Y": 0, "X": 0.5}, "handle_type": 0, "handle_left": {"Y": 1, "X": 0.5}, "co": {"Y": 0, "X": 1}, "interpolation": 0}]}, "alpha": {"Points": [{"handle_right": {"Y": 0, "X": 0.5}, "handle_type": 0, "handle_left": {"Y": 1, "X": 0.5}, "co": {"Y": 255, "X": 1}, "interpolation": 0}]}}, "time": {"Points": [{"co": {"Y": 1, "X": 1}, "interpolation": 2}]}, "effects": [], "crop_height": {"Points": [{"co": {"Y": -1, "X": 1}, "interpolation": 2}]}, "scale_y": {"Points": [{"co": {"Y": 1, "X": 1}, "interpolation": 2}]}, "reader": {"video_stream_index": -1, "top_field_first": true, "interlaced_frame": false, "audio_bit_rate": 0, "audio_timebase": {"den": 1, "num": 1}, "duration": 86400.0, "channels": 0, "has_video": true, "channel_layout": 4, "has_audio": false, "video_timebase": {"den": 30, "num": 1}, "has_single_image": true, "acodec": "", "video_bit_rate": 0, "display_ratio": {"den": 3827, "num": 6803}, "audio_stream_index": -1, "type": "QtImageReader", "video_length": "2592000", "width": 6803, "pixel_ratio": {"den": 1, "num": 1}, "height": 3827, "vcodec": "", "file_size": "104140324", "path": "/home/milind/Data/Projects/ProgressCard/!145-SECOND CLASS.svg", "fps": {"den": 1, "num": 30}, "pixel_format": -1, "sample_rate": 0}}], "key": ["clips"]}, {"partial": false, "type": "update", "value": {"layer": 2, "position": 232.04999999999998, "image": "/home/milind/.openshot_qt/thumbnail/QURFA8ZYYH.png", "end": 5, "start": 0, "id": "XGW80R7KP4"}, "old_values": {"perspective_c3_x": {"Points": [{"co": {"Y": -1, "X": 1}, "interpolation": 2}]}, "perspective_c4_x": {"Points": [{"co": {"Y": -1, "X": 1}, "interpolation": 2}]}, "channel_filter": {"Points": [{"co": {"Y": -1, "X": 1}, "interpolation": 2}]}, "image": "/home/milind/.openshot_qt/thumbnail/QURFA8ZYYH.png", "crop_height": {"Points": [{"co": {"Y": -1, "X": 1}, "interpolation": 2}]}, "duration": 86400.0, "perspective_c1_x": {"Points": [{"co": {"Y": -1, "X": 1}, "interpolation": 2}]}, "perspective_c2_x": {"Points": [{"co": {"Y": -1, "X": 1}, "interpolation": 2}]}, "alpha": {"Points": [{"co": {"Y": 1, "X": 1}, "interpolation": 2}]}, "id": "XGW80R7KP4", "layer": 3, "display": 0, "scale": 1, "gravity": 4, "crop_width": {"Points": [{"co": {"Y": -1, "X": 1}, "interpolation": 2}]}, "crop_x": {"Points": [{"co": {"Y": 0, "X": 1}, "interpolation": 2}]}, "shear_x": {"Points": [{"co": {"Y": 0, "X": 1}, "interpolation": 2}]}, "volume": {"Points": [{"co": {"Y": 1, "X": 1}, "interpolation": 2}]}, "has_audio": {"Points": [{"co": {"Y": -1, "X": 1}, "interpolation": 2}]}, "rotation": {"Points": [{"co": {"Y": 0, "X": 1}, "interpolation": 2}]}, "crop_y": {"Points": [{"co": {"Y": 0, "X": 1}, "interpolation": 2}]}, "position": 208.42, "has_video": {"Points": [{"co": {"Y": -1, "X": 1}, "interpolation": 2}]}, "start": 0, "channel_mapping": {"Points": [{"co": {"Y": -1, "X": 1}, "interpolation": 2}]}, "end": 5.0, "waveform": false, "perspective_c3_y": {"Points": [{"co": {"Y": -1, "X": 1}, "interpolation": 2}]}, "scale_x": {"Points": [{"co": {"Y": 1, "X": 1}, "interpolation": 2}]}, "location_x": {"Points": [{"co": {"Y": 0, "X": 1}, "interpolation": 2}]}, "location_y": {"Points": [{"co": {"Y": 0, "X": 1}, "interpolation": 2}]}, "shear_y": {"Points": [{"co": {"Y": 0, "X": 1}, "interpolation": 2}]}, "perspective_c2_y": {"Points": [{"co": {"Y": -1, "X": 1}, "interpolation": 2}]}, "perspective_c1_y": {"Points": [{"co": {"Y": -1, "X": 1}, "interpolation": 2}]}, "title": "!145-FIRST CLASS.svg", "perspective_c4_y": {"Points": [{"co": {"Y": -1, "X": 1}, "interpolation": 2}]}, "anchor": 0, "wave_color": {"blue": {"Points": [{"handle_right": {"Y": 0, "X": 0.5}, "handle_type": 0, "handle_left": {"Y": 1, "X": 0.5}, "co": {"Y": 255, "X": 1}, "interpolation": 0}]}, "green": {"Points": [{"handle_right": {"Y": 0, "X": 0.5}, "handle_type": 0, "handle_left": {"Y": 1, "X": 0.5}, "co": {"Y": 123, "X": 1}, "interpolation": 0}]}, "red": {"Points": [{"handle_right": {"Y": 0, "X": 0.5}, "handle_type": 0, "handle_left": {"Y": 1, "X": 0.5}, "co": {"Y": 0, "X": 1}, "interpolation": 0}]}, "alpha": {"Points": [{"handle_right": {"Y": 0, "X": 0.5}, "handle_type": 0, "handle_left": {"Y": 1, "X": 0.5}, "co": {"Y": 255, "X": 1}, "interpolation": 0}]}}, "time": {"Points": [{"co": {"Y": 1, "X": 1}, "interpolation": 2}]}, "effects": [], "file_id": "QURFA8ZYYH", "scale_y": {"Points": [{"co": {"Y": 1, "X": 1}, "interpolation": 2}]}, "reader": {"video_stream_index": -1, "top_field_first": true, "interlaced_frame": false, "audio_bit_rate": 0, "audio_timebase": {"den": 1, "num": 1}, "duration": 86400.0, "channels": 0, "has_video": true, "channel_layout": 4, "has_audio": false, "video_timebase": {"den": 30, "num": 1}, "has_single_image": true, "acodec": "", "video_bit_rate": 0, "display_ratio": {"den": 3827, "num": 6803}, "audio_stream_index": -1, "type": "QtImageReader", "video_length": "2592000", "width": 6803, "pixel_ratio": {"den": 1, "num": 1}, "height": 3827, "vcodec": "", "file_size": "104140324", "path": "/home/milind/Data/Projects/ProgressCard/!145-FIRST CLASS.svg", "fps": {"den": 1, "num": 30}, "pixel_format": -1, "sample_rate": 0}}, "key": ["clips", {"id": "XGW80R7KP4"}]}, {"partial": false, "type": "insert", "value": {"perspective_c2_x": {"Points": [{"co": {"Y": -1, "X": 1}, "interpolation": 2}]}, "perspective_c3_x": {"Points": [{"co": {"Y": -1, "X": 1}, "interpolation": 2}]}, "shear_x": {"Points": [{"co": {"Y": 0, "X": 1}, "interpolation": 2}]}, "channel_filter": {"Points": [{"co": {"Y": -1, "X": 1}, "interpolation": 2}]}, "crop_height": {"Points": [{"co": {"Y": -1, "X": 1}, "interpolation": 2}]}, "duration": 86400.0, "perspective_c1_x": {"Points": [{"co": {"Y": -1, "X": 1}, "interpolation": 2}]}, "anchor": 0, "alpha": {"Points": [{"co": {"Y": 1, "X": 1}, "interpolation": 2}]}, "id": "679CKERX79", "layer": 2, "display": 0, "scale": 1, "gravity": 4, "crop_width": {"Points": [{"co": {"Y": -1, "X": 1}, "interpolation": 2}]}, "crop_x": {"Points": [{"co": {"Y": 0, "X": 1}, "interpolation": 2}]}, "perspective_c4_x": {"Points": [{"co": {"Y": -1, "X": 1}, "interpolation": 2}]}, "volume": {"Points": [{"co": {"Y": 1, "X": 1}, "interpolation": 2}]}, "start": 0, "has_video": {"Points": [{"co": {"Y": -1, "X": 1}, "interpolation": 2}]}, "rotation": {"Points": [{"co": {"Y": 0, "X": 1}, "interpolation": 2}]}, "reader": {"video_stream_index": -1, "video_length": "2592000", "interlaced_frame": false, "audio_bit_rate": 0, "audio_timebase": {"den": 1, "num": 1}, "duration": 86400.0, "channels": 0, "video_bit_rate": 0, "channel_layout": 4, "path": "/home/milind/Data/Projects/ProgressCard/!145-DISTINCTION.svg", "has_audio": false, "video_timebase": {"den": 30, "num": 1}, "has_single_image": true, "acodec": "", "has_video": true, "display_ratio": {"den": 3827, "num": 6803}, "audio_stream_index": -1, "type": "QtImageReader", "top_field_first": true, "width": 6803, "pixel_ratio": {"den": 1, "num": 1}, "height": 3827, "vcodec": "", "file_size": "104140324", "sample_rate": 0, "fps": {"den": 1, "num": 30}, "pixel_format": -1}, "position": 228.30999999999997, "image": "/home/milind/.openshot_qt/thumbnail/BWOLHCX3NY.png", "has_audio": {"Points": [{"co": {"Y": -1, "X": 1}, "interpolation": 2}]}, "channel_mapping": {"Points": [{"co": {"Y": -1, "X": 1}, "interpolation": 2}]}, "shear_y": {"Points": [{"co": {"Y": 0, "X": 1}, "interpolation": 2}]}, "end": 5, "waveform": false, "perspective_c3_y": {"Points": [{"co": {"Y": -1, "X": 1}, "interpolation": 2}]}, "scale_x": {"Points": [{"co": {"Y": 1, "X": 1}, "interpolation": 2}]}, "location_x": {"Points": [{"co": {"Y": 0, "X": 1}, "interpolation": 2}]}, "location_y": {"Points": [{"co": {"Y": 0, "X": 1}, "interpolation": 2}]}, "file_id": "BWOLHCX3NY", "perspective_c2_y": {"Points": [{"co": {"Y": -1, "X": 1}, "interpolation": 2}]}, "perspective_c1_y": {"Points": [{"co": {"Y": -1, "X": 1}, "interpolation": 2}]}, "title": "!145-DISTINCTION.svg", "perspective_c4_y": {"Points": [{"co": {"Y": -1, "X": 1}, "interpolation": 2}]}, "wave_color": {"red": {"Points": [{"handle_right": {"Y": 0, "X": 0.5}, "handle_type": 0, "handle_left": {"Y": 1, "X": 0.5}, "co": {"Y": 0, "X": 1}, "interpolation": 0}]}, "green": {"Points": [{"handle_right": {"Y": 0, "X": 0.5}, "handle_type": 0, "handle_left": {"Y": 1, "X": 0.5}, "co": {"Y": 123, "X": 1}, "interpolation": 0}]}, "blue": {"Points": [{"handle_right": {"Y": 0, "X": 0.5}, "handle_type": 0, "handle_left": {"Y": 1, "X": 0.5}, "co": {"Y": 255, "X": 1}, "interpolation": 0}]}, "alpha": {"Points": [{"handle_right": {"Y": 0, "X": 0.5}, "handle_type": 0, "handle_left": {"Y": 1, "X": 0.5}, "co": {"Y": 255, "X": 1}, "interpolation": 0}]}}, "time": {"Points": [{"co": {"Y": 1, "X": 1}, "interpolation": 2}]}, "crop_y": {"Points": [{"co": {"Y": 0, "X": 1}, "interpolation": 2}]}, "scale_y": {"Points": [{"co": {"Y": 1, "X": 1}, "interpolation": 2}]}, "effects": []}, "old_values": [{"location_x": {"Points": [{"co": {"Y": 0.0, "X": 1.0}, "interpolation": 2}]}, "perspective_c3_x": {"Points": [{"co": {"Y": -1.0, "X": 1.0}, "interpolation": 2}]}, "perspective_c4_x": {"Points": [{"co": {"Y": -1.0, "X": 1.0}, "interpolation": 2}]}, "channel_filter": {"Points": [{"co": {"Y": -1.0, "X": 1.0}, "interpolation": 2}]}, "anchor": 0, "perspective_c1_x": {"Points": [{"co": {"Y": -1.0, "X": 1.0}, "interpolation": 2}]}, "perspective_c2_x": {"Points": [{"co": {"Y": -1.0, "X": 1.0}, "interpolation": 2}]}, "alpha": {"Points": [{"co": {"Y": 1.0, "X": 1.0}, "interpolation": 2}, {"handle_right": {"Y": 0.0, "X": 0.5}, "handle_type": 0, "handle_left": {"Y": 1.0, "X": 0.5}, "co": {"Y": 0.0, "X": 1.0}, "interpolation": 0}, {"handle_right": {"Y": 0.0, "X": 0.5}, "handle_type": 0, "handle_left": {"Y": 1.0, "X": 0.5}, "co": {"Y": 1.0, "X": 73.0}, "interpolation": 0}]}, "id": "IUE2QUN59C", "layer": 0, "file_id": "0F0RWXSQM9", "display": 0, "scale": 1, "gravity": 4, "crop_width": {"Points": [{"co": {"Y": -1.0, "X": 1.0}, "interpolation": 2}]}, "crop_x": {"Points": [{"co": {"Y": 0.0, "X": 1.0}, "interpolation": 2}]}, "shear_x": {"Points": [{"co": {"Y": 0.0, "X": 1.0}, "interpolation": 2}]}, "volume": {"Points": [{"co": {"Y": 1.0, "X": 1.0}, "interpolation": 2}]}, "start": 0, "rotation": {"Points": [{"co": {"Y": 0.0, "X": 1.0}, "interpolation": 2}]}, "reader": {"video_stream_index": -1, "video_length": "2592000", "interlaced_frame": false, "audio_bit_rate": 0, "audio_timebase": {"den": 1, "num": 1}, "vcodec": "", "channels": 0, "has_video": true, "channel_layout": 4, "has_audio": false, "video_timebase": {"den": 30, "num": 1}, "has_single_image": true, "acodec": "", "video_bit_rate": 0, "display_ratio": {"den": 9, "num": 16}, "audio_stream_index": -1, "type": "QtImageReader", "top_field_first": true, "width": 1920, "pixel_ratio": {"den": 1, "num": 1}, "height": 1080, "duration": 86400.0, "file_size": "8294400", "path": "/home/milind/Data/Projects/ProgressCard/!000-White-Background.svg", "fps": {"den": 1, "num": 30}, "pixel_format": -1, "sample_rate": 0}, "position": 0, "has_video": {"Points": [{"co": {"Y": -1.0, "X": 1.0}, "interpolation": 2}]}, "has_audio": {"Points": [{"co": {"Y": -1.0, "X": 1.0}, "interpolation": 2}]}, "channel_mapping": {"Points": [{"co": {"Y": -1.0, "X": 1.0}, "interpolation": 2}]}, "shear_y": {"Points": [{"co": {"Y": 0.0, "X": 1.0}, "interpolation": 2}]}, "perspective_c3_y": {"Points": [{"co": {"Y": -1.0, "X": 1.0}, "interpolation": 2}]}, "waveform": false, "end": 10, "scale_x": {"Points": [{"co": {"Y": 1.0, "X": 1.0}, "interpolation": 2}]}, "image": "/home/milind/.openshot_qt/thumbnail/0F0RWXSQM9.png", "location_y": {"Points": [{"co": {"Y": 0.0, "X": 1.0}, "interpolation": 2}]}, "crop_y": {"Points": [{"co": {"Y": 0.0, "X": 1.0}, "interpolation": 2}]}, "perspective_c2_y": {"Points": [{"co": {"Y": -1.0, "X": 1.0}, "interpolation": 2}]}, "perspective_c1_y": {"Points": [{"co": {"Y": -1.0, "X": 1.0}, "interpolation": 2}]}, "title": "!000-White-Background.svg", "perspective_c4_y": {"Points": [{"co": {"Y": -1.0, "X": 1.0}, "interpolation": 2}]}, "duration": 86400.0, "wave_color": {"red": {"Points": [{"handle_right": {"Y": 0.0, "X": 0.5}, "handle_type": 0, "handle_left": {"Y": 1.0, "X": 0.5}, "co": {"Y": 0.0, "X": 1.0}, "interpolation": 0}]}, "green": {"Points": [{"handle_right": {"Y": 0.0, "X": 0.5}, "handle_type": 0, "handle_left": {"Y": 1.0, "X": 0.5}, "co": {"Y": 123.0, "X": 1.0}, "interpolation": 0}]}, "blue": {"Points": [{"handle_right": {"Y": 0.0, "X": 0.5}, "handle_type": 0, "handle_left": {"Y": 1.0, "X": 0.5}, "co": {"Y": 255.0, "X": 1.0}, "interpolation": 0}]}, "alpha": {"Points": [{"handle_right": {"Y": 0.0, "X": 0.5}, "handle_type": 0, "handle_left": {"Y": 1.0, "X": 0.5}, "co": {"Y": 255.0, "X": 1.0}, "interpolation": 0}]}}, "time": {"Points": [{"co": {"Y": 1.0, "X": 1.0}, "interpolation": 2}]}, "crop_height": {"Points": [{"co": {"Y": -1.0, "X": 1.0}, "interpolation": 2}]}, "scale_y": {"Points": [{"co": {"Y": 1.0, "X": 1.0}, "interpolation": 2}]}, "effects": []}, {"location_x": {"Points": [{"handle_right": {"Y": 0.0, "X": 0.5}, "handle_type": 0, "handle_left": {"Y": 1.0, "X": 0.5}, "co": {"Y": 0.33000001311302185, "X": 1.0}, "interpolation": 0}, {"co": {"Y": -0.07999999821186066, "X": 178}, "interpolation": 1}, {"co": {"Y": -0.07999999821186066, "X": 117}, "interpolation": 1}]}, "perspective_c3_x": {"Points": [{"co": {"Y": -1.0, "X": 1.0}, "interpolation": 2}]}, "perspective_c4_x": {"Points": [{"co": {"Y": -1.0, "X": 1.0}, "interpolation": 2}]}, "channel_filter": {"Points": [{"co": {"Y": -1.0, "X": 1.0}, "interpolation": 2}]}, "perspective_c2_x": {"Points": [{"co": {"Y": -1.0, "X": 1.0}, "interpolation": 2}]}, "perspective_c1_x": {"Points": [{"co": {"Y": -1.0, "X": 1.0}, "interpolation": 2}]}, "anchor": 0, "alpha": {"Points": [{"handle_right": {"Y": 0, "X": 0.5}, "handle_type": 0, "handle_left": {"Y": 1, "X": 0.5}, "co": {"Y": 1, "X": 1}, "interpolation": 0}, {"handle_right": {"Y": 0, "X": 0.5}, "handle_type": 0, "handle_left": {"Y": 1, "X": 0.5}, "co": {"Y": 0, "X": 117}, "interpolation": 0}, {"handle_right": {"Y": 0, "X": 0.5}, "handle_type": 0, "handle_left": {"Y": 1, "X": 0.5}, "co": {"Y": 1, "X": 189}, "interpolation": 0}, {"handle_right": {"Y": 0, "X": 0.5}, "handle_type": 0, "handle_left": {"Y": 1, "X": 0.5}, "co": {"Y": 1, "X": 1687}, "interpolation": 0}, {"handle_right": {"Y": 0, "X": 0.5}, "handle_type": 0, "handle_left": {"Y": 1, "X": 0.5}, "co": {"Y": 0, "X": 1759}, "interpolation": 0}]}, "id": "6XU1ZMQNAO", "position": 1.0, "file_id": "O1AEGRKDWZ", "display": 0, "scale": 1, "gravity": 4, "crop_width": {"Points": [{"co": {"Y": -1.0, "X": 1.0}, "interpolation": 2}]}, "crop_x": {"Points": [{"co": {"Y": 0.0, "X": 1.0}, "interpolation": 2}]}, "shear_x": {"Points": [{"co": {"Y": 0.0, "X": 1.0}, "interpolation": 2}]}, "volume": {"Points": [{"co": {"Y": 1.0, "X": 1.0}, "interpolation": 2}]}, "start": 4.8483333333333345, "title": "!080-GT,GC,TC.mkv", "reader": {"video_stream_index": 0, "video_length": "3650", "interlaced_frame": false, "audio_bit_rate": 0, "audio_timebase": {"den": 1, "num": 1}, "vcodec": "h264", "channels": 0, "has_video": true, "channel_layout": 4, "has_audio": false, "video_timebase": {"den": 1000, "num": 1}, "has_single_image": false, "acodec": "", "video_bit_rate": 0, "display_ratio": {"den": 186, "num": 325}, "audio_stream_index": -1, "type": "FFmpegReader", "top_field_first": true, "width": 1300, "pixel_ratio": {"den": 1, "num": 1}, "height": 744, "duration": 146.0, "file_size": "1130835", "path": "/home/milind/Data/Projects/ProgressCard/!080-GT,GC,TC.mkv", "fps": {"den": 1, "num": 25}, "pixel_format": 0, "sample_rate": 0}, "layer": 1, "has_video": {"Points": [{"co": {"Y": -1.0, "X": 1.0}, "interpolation": 2}]}, "has_audio": {"Points": [{"co": {"Y": -1.0, "X": 1.0}, "interpolation": 2}]}, "channel_mapping": {"Points": [{"co": {"Y": -1.0, "X": 1.0}, "interpolation": 2}]}, "shear_y": {"Points": [{"co": {"Y": 0.0, "X": 1.0}, "interpolation": 2}]}, "perspective_c3_y": {"Points": [{"co": {"Y": -1.0, "X": 1.0}, "interpolation": 2}]}, "waveform": false, "end": 73.25, "scale_x": {"Points": [{"handle_right": {"Y": 0.0, "X": 0.5}, "handle_type": 0, "handle_left": {"Y": 1.0, "X": 0.5}, "co": {"Y": 2.200000047683716, "X": 1.0}, "interpolation": 0}, {"co": {"Y": 2.299999952316284, "X": 178}, "interpolation": 1}]}, "image": "/home/milind/.openshot_qt/thumbnail/6XU1ZMQNAO-122.png", "location_y": {"Points": [{"handle_right": {"Y": 0.0, "X": 0.5}, "handle_type": 0, "handle_left": {"Y": 1.0, "X": 0.5}, "co": {"Y": 0.5199999809265137, "X": 1.0}, "interpolation": 0}, {"co": {"Y": 0.5199999809265137, "X": 178}, "interpolation": 1}]}, "crop_y": {"Points": [{"co": {"Y": 0.0, "X": 1.0}, "interpolation": 2}]}, "perspective_c2_y": {"Points": [{"co": {"Y": -1.0, "X": 1.0}, "interpolation": 2}]}, "perspective_c1_y": {"Points": [{"co": {"Y": -1.0, "X": 1.0}, "interpolation": 2}]}, "rotation": {"Points": [{"co": {"Y": 0.0, "X": 1.0}, "interpolation": 2}]}, "perspective_c4_y": {"Points": [{"co": {"Y": -1.0, "X": 1.0}, "interpolation": 2}]}, "duration": 72.0, "wave_color": {"red": {"Points": [{"handle_right": {"Y": 0.0, "X": 0.5}, "handle_type": 0, "handle_left": {"Y": 1.0, "X": 0.5}, "co": {"Y": 0.0, "X": 1.0}, "interpolation": 0}]}, "green": {"Points": [{"handle_right": {"Y": 0.0, "X": 0.5}, "handle_type": 0, "handle_left": {"Y": 1.0, "X": 0.5}, "co": {"Y": 123.0, "X": 1.0}, "interpolation": 0}]}, "blue": {"Points": [{"handle_right": {"Y": 0.0, "X": 0.5}, "handle_type": 0, "handle_left": {"Y": 1.0, "X": 0.5}, "co": {"Y": 255.0, "X": 1.0}, "interpolation": 0}]}, "alpha": {"Points": [{"handle_right": {"Y": 0.0, "X": 0.5}, "handle_type": 0, "handle_left": {"Y": 1.0, "X": 0.5}, "co": {"Y": 255.0, "X": 1.0}, "interpolation": 0}]}}, "time": {"Points": [{"co": {"Y": 117, "X": 117}, "interpolation": 1}, {"co": {"Y": 3399, "X": 1758}, "interpolation": 1}]}, "crop_height": {"Points": [{"co": {"Y": -1.0, "X": 1.0}, "interpolation": 2}]}, "scale_y": {"Points": [{"handle_right": {"Y": 0.0, "X": 0.5}, "handle_type": 0, "handle_left": {"Y": 1.0, "X": 0.5}, "co": {"Y": 2.200000047683716, "X": 1.0}, "interpolation": 0}, {"co": {"Y": 2.299999952316284, "X": 178}, "interpolation": 1}]}, "effects": []}, {"location_x": {"Points": [{"handle_right": {"Y": 0.0, "X": 0.5}, "handle_type": 0, "handle_left": {"Y": 1.0, "X": 0.5}, "co": {"Y": -0.07999999821186066, "X": 1.0}, "interpolation": 0}]}, "perspective_c3_x": {"Points": [{"co": {"Y": -1.0, "X": 1.0}, "interpolation": 2}]}, "perspective_c4_x": {"Points": [{"co": {"Y": -1.0, "X": 1.0}, "interpolation": 2}]}, "channel_filter": {"Points": [{"co": {"Y": -1.0, "X": 1.0}, "interpolation": 2}]}, "perspective_c2_x": {"Points": [{"co": {"Y": -1.0, "X": 1.0}, "interpolation": 2}]}, "perspective_c1_x": {"Points": [{"co": {"Y": -1.0, "X": 1.0}, "interpolation": 2}]}, "anchor": 0, "alpha": {"Points": [{"handle_right": {"Y": 0, "X": 0.5}, "handle_type": 0, "handle_left": {"Y": 1, "X": 0.5}, "co": {"Y": 1, "X": 1}, "interpolation": 0}, {"handle_right": {"Y": 0, "X": 0.5}, "handle_type": 0, "handle_left": {"Y": 1, "X": 0.5}, "co": {"Y": 0, "X": 1}, "interpolation": 0}, {"handle_right": {"Y": 0, "X": 0.5}, "handle_type": 0, "handle_left": {"Y": 1, "X": 0.5}, "co": {"Y": 1, "X": 73}, "interpolation": 0}, {"handle_right": {"Y": 0, "X": 0.5}, "handle_type": 0, "handle_left": {"Y": 1, "X": 0.5}, "co": {"Y": 1, "X": 1153}, "interpolation": 0}, {"handle_right": {"Y": 0, "X": 0.5}, "handle_type": 0, "handle_left": {"Y": 1, "X": 0.5}, "co": {"Y": 0, "X": 1225}, "interpolation": 0}]}, "id": "A2EZ4WBLRE", "layer": 1, "file_id": "XBE2IATTEN", "display": 0, "scale": 1, "gravity": 4, "crop_width": {"Points": [{"co": {"Y": -1.0, "X": 1.0}, "interpolation": 2}]}, "crop_x": {"Points": [{"co": {"Y": 0.0, "X": 1.0}, "interpolation": 2}]}, "shear_x": {"Points": [{"co": {"Y": 0.0, "X": 1.0}, "interpolation": 2}]}, "volume": {"Points": [{"co": {"Y": 1.0, "X": 1.0}, "interpolation": 2}]}, "start": 0, "rotation": {"Points": [{"co": {"Y": 0.0, "X": 1.0}, "interpolation": 2}]}, "reader": {"video_stream_index": 0, "video_length": "2575", "interlaced_frame": false, "audio_bit_rate": 0, "audio_timebase": {"den": 1, "num": 1}, "vcodec": "h264", "channels": 0, "has_video": true, "channel_layout": 4, "has_audio": false, "video_timebase": {"den": 1000, "num": 1}, "has_single_image": false, "acodec": "", "video_bit_rate": 0, "display_ratio": {"den": 186, "num": 325}, "audio_stream_index": -1, "type": "FFmpegReader", "top_field_first": true, "width": 1300, "pixel_ratio": {"den": 1, "num": 1}, "height": 744, "duration": 103.0, "file_size": "822519", "path": "/home/milind/Data/Projects/ProgressCard/!090-Remark - PASS or FAIL.mkv", "fps": {"den": 1, "num": 25}, "pixel_format": 0, "sample_rate": 0}, "position": 74.768125, "has_video": {"Points": [{"co": {"Y": -1.0, "X": 1.0}, "interpolation": 2}]}, "has_audio": {"Points": [{"co": {"Y": -1.0, "X": 1.0}, "interpolation": 2}]}, "channel_mapping": {"Points": [{"co": {"Y": -1.0, "X": 1.0}, "interpolation": 2}]}, "shear_y": {"Points": [{"co": {"Y": 0.0, "X": 1.0}, "interpolation": 2}]}, "perspective_c3_y": {"Points": [{"co": {"Y": -1.0, "X": 1.0}, "interpolation": 2}]}, "waveform": false, "end": 51, "scale_x": {"Points": [{"handle_right": {"Y": 0.0, "X": 0.5}, "handle_type": 0, "handle_left": {"Y": 1.0, "X": 0.5}, "co": {"Y": 2.299999952316284, "X": 1.0}, "interpolation": 0}]}, "image": "/home/milind/.openshot_qt/thumbnail/XBE2IATTEN.png", "location_y": {"Points": [{"handle_right": {"Y": 0.0, "X": 0.5}, "handle_type": 0, "handle_left": {"Y": 1.0, "X": 0.5}, "co": {"Y": 0.5199999809265137, "X": 1.0}, "interpolation": 0}]}, "crop_y": {"Points": [{"co": {"Y": 0.0, "X": 1.0}, "interpolation": 2}]}, "perspective_c2_y": {"Points": [{"co": {"Y": -1.0, "X": 1.0}, "interpolation": 2}]}, "perspective_c1_y": {"Points": [{"co": {"Y": -1.0, "X": 1.0}, "interpolation": 2}]}, "title": "!090-Remark - PASS or FAIL.mkv", "perspective_c4_y": {"Points": [{"co": {"Y": -1.0, "X": 1.0}, "interpolation": 2}]}, "duration": 50.0, "wave_color": {"red": {"Points": [{"handle_right": {"Y": 0.0, "X": 0.5}, "handle_type": 0, "handle_left": {"Y": 1.0, "X": 0.5}, "co": {"Y": 0.0, "X": 1.0}, "interpolation": 0}]}, "green": {"Points": [{"handle_right": {"Y": 0.0, "X": 0.5}, "handle_type": 0, "handle_left": {"Y": 1.0, "X": 0.5}, "co": {"Y": 123.0, "X": 1.0}, "interpolation": 0}]}, "blue": {"Points": [{"handle_right": {"Y": 0.0, "X": 0.5}, "handle_type": 0, "handle_left": {"Y": 1.0, "X": 0.5}, "co": {"Y": 255.0, "X": 1.0}, "interpolation": 0}]}, "alpha": {"Points": [{"handle_right": {"Y": 0.0, "X": 0.5}, "handle_type": 0, "handle_left": {"Y": 1.0, "X": 0.5}, "co": {"Y": 255.0, "X": 1.0}, "interpolation": 0}]}}, "time": {"Points": [{"co": {"Y": 1, "X": 1}, "interpolation": 1}, {"co": {"Y": 2447, "X": 1224}, "interpolation": 1}]}, "crop_height": {"Points": [{"co": {"Y": -1.0, "X": 1.0}, "interpolation": 2}]}, "scale_y": {"Points": [{"handle_right": {"Y": 0.0, "X": 0.5}, "handle_type": 0, "handle_left": {"Y": 1.0, "X": 0.5}, "co": {"Y": 2.299999952316284, "X": 1.0}, "interpolation": 0}]}, "effects": []}, {"location_x": {"Points": [{"co": {"Y": 0.0, "X": 1.0}, "interpolation": 2}]}, "perspective_c3_x": {"Points": [{"co": {"Y": -1.0, "X": 1.0}, "interpolation": 2}]}, "perspective_c4_x": {"Points": [{"co": {"Y": -1.0, "X": 1.0}, "interpolation": 2}]}, "channel_filter": {"Points": [{"co": {"Y": -1.0, "X": 1.0}, "interpolation": 2}]}, "perspective_c2_x": {"Points": [{"co": {"Y": -1.0, "X": 1.0}, "interpolation": 2}]}, "perspective_c1_x": {"Points": [{"co": {"Y": -1.0, "X": 1.0}, "interpolation": 2}]}, "anchor": 0, "alpha": {"Points": [{"co": {"Y": 1.0, "X": 1.0}, "interpolation": 2}]}, "id": "3GZPXZWGC6", "layer": 0, "file_id": "0F0RWXSQM9", "display": 0, "scale": 1, "gravity": 4, "crop_width": {"Points": [{"co": {"Y": -1.0, "X": 1.0}, "interpolation": 2}]}, "crop_x": {"Points": [{"co": {"Y": 0.0, "X": 1.0}, "interpolation": 2}]}, "shear_x": {"Points": [{"co": {"Y": 0.0, "X": 1.0}, "interpolation": 2}]}, "volume": {"Points": [{"co": {"Y": 1.0, "X": 1.0}, "interpolation": 2}]}, "start": 0, "rotation": {"Points": [{"co": {"Y": 0.0, "X": 1.0}, "interpolation": 2}]}, "reader": {"video_stream_index": -1, "video_length": "2592000", "interlaced_frame": false, "audio_bit_rate": 0, "audio_timebase": {"den": 1, "num": 1}, "vcodec": "", "channels": 0, "has_video": true, "channel_layout": 4, "has_audio": false, "video_timebase": {"den": 30, "num": 1}, "has_single_image": true, "acodec": "", "video_bit_rate": 0, "display_ratio": {"den": 9, "num": 16}, "audio_stream_index": -1, "type": "QtImageReader", "top_field_first": true, "width": 1920, "pixel_ratio": {"den": 1, "num": 1}, "height": 1080, "duration": 86400.0, "file_size": "8294400", "path": "/home/milind/Data/Projects/ProgressCard/!000-White-Background.svg", "fps": {"den": 1, "num": 30}, "pixel_format": -1, "sample_rate": 0}, "position": 121.30031249999999, "has_video": {"Points": [{"co": {"Y": -1.0, "X": 1.0}, "interpolation": 2}]}, "has_audio": {"Points": [{"co": {"Y": -1.0, "X": 1.0}, "interpolation": 2}]}, "channel_mapping": {"Points": [{"co": {"Y": -1.0, "X": 1.0}, "interpolation": 2}]}, "shear_y": {"Points": [{"co": {"Y": 0.0, "X": 1.0}, "interpolation": 2}]}, "perspective_c3_y": {"Points": [{"co": {"Y": -1.0, "X": 1.0}, "interpolation": 2}]}, "waveform": false, "end": 10, "scale_x": {"Points": [{"co": {"Y": 1.0, "X": 1.0}, "interpolation": 2}]}, "image": "/home/milind/.openshot_qt/thumbnail/0F0RWXSQM9.png", "location_y": {"Points": [{"co": {"Y": 0.0, "X": 1.0}, "interpolation": 2}]}, "crop_y": {"Points": [{"co": {"Y": 0.0, "X": 1.0}, "interpolation": 2}]}, "perspective_c2_y": {"Points": [{"co": {"Y": -1.0, "X": 1.0}, "interpolation": 2}]}, "perspective_c1_y": {"Points": [{"co": {"Y": -1.0, "X": 1.0}, "interpolation": 2}]}, "title": "!000-White-Background.svg", "perspective_c4_y": {"Points": [{"co": {"Y": -1.0, "X": 1.0}, "interpolation": 2}]}, "duration": 86400.0, "wave_color": {"red": {"Points": [{"handle_right": {"Y": 0.0, "X": 0.5}, "handle_type": 0, "handle_left": {"Y": 1.0, "X": 0.5}, "co": {"Y": 0.0, "X": 1.0}, "interpolation": 0}]}, "green": {"Points": [{"handle_right": {"Y": 0.0, "X": 0.5}, "handle_type": 0, "handle_left": {"Y": 1.0, "X": 0.5}, "co": {"Y": 123.0, "X": 1.0}, "interpolation": 0}]}, "blue": {"Points": [{"handle_right": {"Y": 0.0, "X": 0.5}, "handle_type": 0, "handle_left": {"Y": 1.0, "X": 0.5}, "co": {"Y": 255.0, "X": 1.0}, "interpolation": 0}]}, "alpha": {"Points": [{"handle_right": {"Y": 0.0, "X": 0.5}, "handle_type": 0, "handle_left": {"Y": 1.0, "X": 0.5}, "co": {"Y": 255.0, "X": 1.0}, "interpolation": 0}]}}, "time": {"Points": [{"co": {"Y": 1.0, "X": 1.0}, "interpolation": 2}]}, "crop_height": {"Points": [{"co": {"Y": -1.0, "X": 1.0}, "interpolation": 2}]}, "scale_y": {"Points": [{"co": {"Y": 1.0, "X": 1.0}, "interpolation": 2}]}, "effects": []}, {"perspective_c4_x": {"Points": [{"co": {"Y": -1.0, "X": 1.0}, "interpolation": 2}]}, "channel_filter": {"Points": [{"co": {"Y": -1.0, "X": 1.0}, "interpolation": 2}]}, "image": "/home/milind/.openshot_qt/thumbnail/Z4YCYRY34O.png", "perspective_c2_x": {"Points": [{"co": {"Y": -1.0, "X": 1.0}, "interpolation": 2}]}, "perspective_c1_x": {"Points": [{"co": {"Y": -1.0, "X": 1.0}, "interpolation": 2}]}, "anchor": 0, "alpha": {"Points": [{"handle_right": {"Y": 0, "X": 0.5}, "handle_type": 0, "handle_left": {"Y": 1, "X": 0.5}, "co": {"Y": 1, "X": 1}, "interpolation": 0}, {"handle_right": {"Y": 0, "X": 0.5}, "handle_type": 0, "handle_left": {"Y": 1, "X": 0.5}, "co": {"Y": 0, "X": 1}, "interpolation": 0}, {"handle_right": {"Y": 0, "X": 0.5}, "handle_type": 0, "handle_left": {"Y": 1, "X": 0.5}, "co": {"Y": 1, "X": 73}, "interpolation": 0}]}, "id": "QZM4UXHK9C", "position": 125.768125, "file_id": "Z4YCYRY34O", "display": 0, "scale": 1, "gravity": 4, "crop_width": {"Points": [{"co": {"Y": -1.0, "X": 1.0}, "interpolation": 2}]}, "crop_x": {"Points": [{"co": {"Y": 0.0, "X": 1.0}, "interpolation": 2}]}, "shear_x": {"Points": [{"co": {"Y": 0.0, "X": 1.0}, "interpolation": 2}]}, "volume": {"Points": [{"co": {"Y": 1.0, "X": 1.0}, "interpolation": 2}]}, "start": 0, "end": 17.416666666666668, "title": "!100-Average Marks.mkv", "crop_y": {"Points": [{"co": {"Y": 0.0, "X": 1.0}, "interpolation": 2}]}, "reader": {"video_stream_index": 0, "video_length": "925", "interlaced_frame": false, "audio_bit_rate": 0, "audio_timebase": {"den": 1, "num": 1}, "vcodec": "h264", "channels": 0, "has_video": true, "channel_layout": 4, "has_audio": false, "video_timebase": {"den": 1000, "num": 1}, "has_single_image": false, "acodec": "", "video_bit_rate": 0, "display_ratio": {"den": 186, "num": 325}, "audio_stream_index": -1, "type": "FFmpegReader", "top_field_first": true, "width": 1300, "pixel_ratio": {"den": 1, "num": 1}, "height": 744, "duration": 37.0, "file_size": "281401", "path": "/home/milind/Data/Projects/ProgressCard/!100-Average Marks.mkv", "fps": {"den": 1, "num": 25}, "pixel_format": 0, "sample_rate": 0}, "layer": 1, "has_video": {"Points": [{"co": {"Y": -1.0, "X": 1.0}, "interpolation": 2}]}, "has_audio": {"Points": [{"co": {"Y": -1.0, "X": 1.0}, "interpolation": 2}]}, "channel_mapping": {"Points": [{"co": {"Y": -1.0, "X": 1.0}, "interpolation": 2}]}, "perspective_c3_y": {"Points": [{"co": {"Y": -1.0, "X": 1.0}, "interpolation": 2}]}, "waveform": false, "perspective_c3_x": {"Points": [{"co": {"Y": -1.0, "X": 1.0}, "interpolation": 2}]}, "scale_x": {"Points": [{"co": {"Y": 2.299999952316284, "X": 1.0}, "interpolation": 2}]}, "location_x": {"Points": [{"co": {"Y": -0.07999999821186066, "X": 1.0}, "interpolation": 2}]}, "location_y": {"Points": [{"co": {"Y": 0.5199999809265137, "X": 1.0}, "interpolation": 2}]}, "shear_y": {"Points": [{"co": {"Y": 0.0, "X": 1.0}, "interpolation": 2}]}, "perspective_c2_y": {"Points": [{"co": {"Y": -1.0, "X": 1.0}, "interpolation": 2}]}, "perspective_c1_y": {"Points": [{"co": {"Y": -1.0, "X": 1.0}, "interpolation": 2}]}, "rotation": {"Points": [{"co": {"Y": 0.0, "X": 1.0}, "interpolation": 2}]}, "perspective_c4_y": {"Points": [{"co": {"Y": -1.0, "X": 1.0}, "interpolation": 2}]}, "duration": 18.0, "wave_color": {"red": {"Points": [{"handle_right": {"Y": 0.0, "X": 0.5}, "handle_type": 0, "handle_left": {"Y": 1.0, "X": 0.5}, "co": {"Y": 0.0, "X": 1.0}, "interpolation": 0}]}, "green": {"Points": [{"handle_right": {"Y": 0.0, "X": 0.5}, "handle_type": 0, "handle_left": {"Y": 1.0, "X": 0.5}, "co": {"Y": 123.0, "X": 1.0}, "interpolation": 0}]}, "blue": {"Points": [{"handle_right": {"Y": 0.0, "X": 0.5}, "handle_type": 0, "handle_left": {"Y": 1.0, "X": 0.5}, "co": {"Y": 255.0, "X": 1.0}, "interpolation": 0}]}, "alpha": {"Points": [{"handle_right": {"Y": 0.0, "X": 0.5}, "handle_type": 0, "handle_left": {"Y": 1.0, "X": 0.5}, "co": {"Y": 255.0, "X": 1.0}, "interpolation": 0}]}}, "time": {"Points": [{"co": {"Y": 1, "X": 1}, "interpolation": 1}, {"co": {"Y": 835, "X": 418}, "interpolation": 1}]}, "crop_height": {"Points": [{"co": {"Y": -1.0, "X": 1.0}, "interpolation": 2}]}, "scale_y": {"Points": [{"co": {"Y": 2.299999952316284, "X": 1.0}, "interpolation": 2}]}, "effects": []}, {"location_x": {"Points": [{"co": {"Y": 0.0, "X": 1.0}, "interpolation": 2}]}, "perspective_c3_x": {"Points": [{"co": {"Y": -1.0, "X": 1.0}, "interpolation": 2}]}, "perspective_c4_x": {"Points": [{"co": {"Y": -1.0, "X": 1.0}, "interpolation": 2}]}, "channel_filter": {"Points": [{"co": {"Y": -1.0, "X": 1.0}, "interpolation": 2}]}, "perspective_c2_x": {"Points": [{"co": {"Y": -1.0, "X": 1.0}, "interpolation": 2}]}, "perspective_c1_x": {"Points": [{"co": {"Y": -1.0, "X": 1.0}, "interpolation": 2}]}, "anchor": 0, "alpha": {"Points": [{"co": {"Y": 1.0, "X": 1.0}, "interpolation": 2}]}, "id": "XUROHR8TBC", "layer": 0, "file_id": "0F0RWXSQM9", "display": 0, "scale": 1, "gravity": 4, "crop_width": {"Points": [{"co": {"Y": -1.0, "X": 1.0}, "interpolation": 2}]}, "crop_x": {"Points": [{"co": {"Y": 0.0, "X": 1.0}, "interpolation": 2}]}, "shear_x": {"Points": [{"co": {"Y": 0.0, "X": 1.0}, "interpolation": 2}]}, "volume": {"Points": [{"co": {"Y": 1.0, "X": 1.0}, "interpolation": 2}]}, "start": 0, "rotation": {"Points": [{"co": {"Y": 0.0, "X": 1.0}, "interpolation": 2}]}, "reader": {"video_stream_index": -1, "video_length": "2592000", "interlaced_frame": false, "audio_bit_rate": 0, "audio_timebase": {"den": 1, "num": 1}, "vcodec": "", "channels": 0, "has_video": true, "channel_layout": 4, "has_audio": false, "video_timebase": {"den": 30, "num": 1}, "has_single_image": true, "acodec": "", "video_bit_rate": 0, "display_ratio": {"den": 9, "num": 16}, "audio_stream_index": -1, "type": "QtImageReader", "top_field_first": true, "width": 1920, "pixel_ratio": {"den": 1, "num": 1}, "height": 1080, "duration": 86400.0, "file_size": "8294400", "path": "/home/milind/Data/Projects/ProgressCard/!000-White-Background.svg", "fps": {"den": 1, "num": 30}, "pixel_format": -1, "sample_rate": 0}, "position": 173.20078124999998, "has_video": {"Points": [{"co": {"Y": -1.0, "X": 1.0}, "interpolation": 2}]}, "has_audio": {"Points": [{"co": {"Y": -1.0, "X": 1.0}, "interpolation": 2}]}, "channel_mapping": {"Points": [{"co": {"Y": -1.0, "X": 1.0}, "interpolation": 2}]}, "shear_y": {"Points": [{"co": {"Y": 0.0, "X": 1.0}, "interpolation": 2}]}, "perspective_c3_y": {"Points": [{"co": {"Y": -1.0, "X": 1.0}, "interpolation": 2}]}, "waveform": false, "end": 10, "scale_x": {"Points": [{"co": {"Y": 1.0, "X": 1.0}, "interpolation": 2}]}, "image": "/home/milind/.openshot_qt/thumbnail/0F0RWXSQM9.png", "location_y": {"Points": [{"co": {"Y": 0.0, "X": 1.0}, "interpolation": 2}]}, "crop_y": {"Points": [{"co": {"Y": 0.0, "X": 1.0}, "interpolation": 2}]}, "perspective_c2_y": {"Points": [{"co": {"Y": -1.0, "X": 1.0}, "interpolation": 2}]}, "perspective_c1_y": {"Points": [{"co": {"Y": -1.0, "X": 1.0}, "interpolation": 2}]}, "title": "!000-White-Background.svg", "perspective_c4_y": {"Points": [{"co": {"Y": -1.0, "X": 1.0}, "interpolation": 2}]}, "duration": 86400.0, "wave_color": {"red": {"Points": [{"handle_right": {"Y": 0.0, "X": 0.5}, "handle_type": 0, "handle_left": {"Y": 1.0, "X": 0.5}, "co": {"Y": 0.0, "X": 1.0}, "interpolation": 0}]}, "green": {"Points": [{"handle_right": {"Y": 0.0, "X": 0.5}, "handle_type": 0, "handle_left": {"Y": 1.0, "X": 0.5}, "co": {"Y": 123.0, "X": 1.0}, "interpolation": 0}]}, "blue": {"Points": [{"handle_right": {"Y": 0.0, "X": 0.5}, "handle_type": 0, "handle_left": {"Y": 1.0, "X": 0.5}, "co": {"Y": 255.0, "X": 1.0}, "interpolation": 0}]}, "alpha": {"Points": [{"handle_right": {"Y": 0.0, "X": 0.5}, "handle_type": 0, "handle_left": {"Y": 1.0, "X": 0.5}, "co": {"Y": 255.0, "X": 1.0}, "interpolation": 0}]}}, "time": {"Points": [{"co": {"Y": 1.0, "X": 1.0}, "interpolation": 2}]}, "crop_height": {"Points": [{"co": {"Y": -1.0, "X": 1.0}, "interpolation": 2}]}, "scale_y": {"Points": [{"co": {"Y": 1.0, "X": 1.0}, "interpolation": 2}]}, "effects": []}, {"location_x": {"Points": [{"handle_right": {"Y": 0.0, "X": 0.5}, "handle_type": 0, "handle_left": {"Y": 1.0, "X": 0.5}, "co": {"Y": 0.0, "X": 1.0}, "interpolation": 0}]}, "perspective_c3_x": {"Points": [{"co": {"Y": -1.0, "X": 1.0}, "interpolation": 2}]}, "perspective_c4_x": {"Points": [{"co": {"Y": -1.0, "X": 1.0}, "interpolation": 2}]}, "channel_filter": {"Points": [{"co": {"Y": -1.0, "X": 1.0}, "interpolation": 2}]}, "perspective_c2_x": {"Points": [{"co": {"Y": -1.0, "X": 1.0}, "interpolation": 2}]}, "perspective_c1_x": {"Points": [{"co": {"Y": -1.0, "X": 1.0}, "interpolation": 2}]}, "anchor": 0, "alpha": {"Points": [{"co": {"Y": 1.0, "X": 1.0}, "interpolation": 2}, {"handle_right": {"Y": 0.0, "X": 0.5}, "handle_type": 0, "handle_left": {"Y": 1.0, "X": 0.5}, "co": {"Y": 0.0, "X": 1.0}, "interpolation": 0}, {"handle_right": {"Y": 0.0, "X": 0.5}, "handle_type": 0, "handle_left": {"Y": 1.0, "X": 0.5}, "co": {"Y": 1.0, "X": 73.0}, "interpolation": 0}]}, "id": "UUTCPBA7W2", "layer": 2, "file_id": "A5ENU0DW4J", "display": 0, "scale": 1, "gravity": 4, "crop_width": {"Points": [{"co": {"Y": -1.0, "X": 1.0}, "interpolation": 2}]}, "crop_x": {"Points": [{"co": {"Y": 0.0, "X": 1.0}, "interpolation": 2}]}, "shear_x": {"Points": [{"co": {"Y": 0.0, "X": 1.0}, "interpolation": 2}]}, "volume": {"Points": [{"co": {"Y": 1.0, "X": 1.0}, "interpolation": 2}]}, "start": 0, "rotation": {"Points": [{"co": {"Y": 0.0, "X": 1.0}, "interpolation": 2}]}, "reader": {"video_stream_index": 0, "video_length": "500", "interlaced_frame": false, "audio_bit_rate": 0, "audio_timebase": {"den": 1, "num": 1}, "vcodec": "h264", "channels": 0, "has_video": true, "channel_layout": 4, "has_audio": false, "video_timebase": {"den": 1000, "num": 1}, "has_single_image": false, "acodec": "", "video_bit_rate": 0, "display_ratio": {"den": 186, "num": 325}, "audio_stream_index": -1, "type": "FFmpegReader", "top_field_first": true, "width": 1300, "pixel_ratio": {"den": 1, "num": 1}, "height": 744, "duration": 20.0, "file_size": "204468", "path": "/home/milind/Data/Projects/ProgressCard/!110-Float Format Dialog.mkv", "fps": {"den": 1, "num": 25}, "pixel_format": 0, "sample_rate": 0}, "position": 140.15171875, "has_video": {"Points": [{"co": {"Y": -1.0, "X": 1.0}, "interpolation": 2}]}, "has_audio": {"Points": [{"co": {"Y": -1.0, "X": 1.0}, "interpolation": 2}]}, "channel_mapping": {"Points": [{"co": {"Y": -1.0, "X": 1.0}, "interpolation": 2}]}, "shear_y": {"Points": [{"co": {"Y": 0.0, "X": 1.0}, "interpolation": 2}]}, "perspective_c3_y": {"Points": [{"co": {"Y": -1.0, "X": 1.0}, "interpolation": 2}]}, "waveform": false, "end": 13.523333333333312, "scale_x": {"Points": [{"handle_right": {"Y": 0.0, "X": 0.5}, "handle_type": 0, "handle_left": {"Y": 1.0, "X": 0.5}, "co": {"Y": 1.5, "X": 1.0}, "interpolation": 0}]}, "image": "/home/milind/.openshot_qt/thumbnail/A5ENU0DW4J.png", "location_y": {"Points": [{"handle_right": {"Y": 0.0, "X": 0.5}, "handle_type": 0, "handle_left": {"Y": 1.0, "X": 0.5}, "co": {"Y": 0.0, "X": 1.0}, "interpolation": 0}]}, "crop_y": {"Points": [{"co": {"Y": 0.0, "X": 1.0}, "interpolation": 2}]}, "perspective_c2_y": {"Points": [{"co": {"Y": -1.0, "X": 1.0}, "interpolation": 2}]}, "perspective_c1_y": {"Points": [{"co": {"Y": -1.0, "X": 1.0}, "interpolation": 2}]}, "title": "!110-Float Format Dialog.mkv", "perspective_c4_y": {"Points": [{"co": {"Y": -1.0, "X": 1.0}, "interpolation": 2}]}, "duration": 20.0, "wave_color": {"red": {"Points": [{"handle_right": {"Y": 0.0, "X": 0.5}, "handle_type": 0, "handle_left": {"Y": 1.0, "X": 0.5}, "co": {"Y": 0.0, "X": 1.0}, "interpolation": 0}]}, "green": {"Points": [{"handle_right": {"Y": 0.0, "X": 0.5}, "handle_type": 0, "handle_left": {"Y": 1.0, "X": 0.5}, "co": {"Y": 123.0, "X": 1.0}, "interpolation": 0}]}, "blue": {"Points": [{"handle_right": {"Y": 0.0, "X": 0.5}, "handle_type": 0, "handle_left": {"Y": 1.0, "X": 0.5}, "co": {"Y": 255.0, "X": 1.0}, "interpolation": 0}]}, "alpha": {"Points": [{"handle_right": {"Y": 0.0, "X": 0.5}, "handle_type": 0, "handle_left": {"Y": 1.0, "X": 0.5}, "co": {"Y": 255.0, "X": 1.0}, "interpolation": 0}]}}, "time": {"Points": [{"co": {"Y": 1.0, "X": 1.0}, "interpolation": 2}]}, "crop_height": {"Points": [{"co": {"Y": -1.0, "X": 1.0}, "interpolation": 2}]}, "scale_y": {"Points": [{"handle_right": {"Y": 0.0, "X": 0.5}, "handle_type": 0, "handle_left": {"Y": 1.0, "X": 0.5}, "co": {"Y": 1.5, "X": 1.0}, "interpolation": 0}]}, "effects": []}, {"location_x": {"Points": [{"co": {"Y": 0.0, "X": 1.0}, "interpolation": 2}]}, "perspective_c3_x": {"Points": [{"co": {"Y": -1.0, "X": 1.0}, "interpolation": 2}]}, "perspective_c4_x": {"Points": [{"co": {"Y": -1.0, "X": 1.0}, "interpolation": 2}]}, "channel_filter": {"Points": [{"co": {"Y": -1.0, "X": 1.0}, "interpolation": 2}]}, "perspective_c2_x": {"Points": [{"co": {"Y": -1.0, "X": 1.0}, "interpolation": 2}]}, "perspective_c1_x": {"Points": [{"co": {"Y": -1.0, "X": 1.0}, "interpolation": 2}]}, "anchor": 0, "alpha": {"Points": [{"co": {"Y": 1.0, "X": 1.0}, "interpolation": 2}]}, "id": "HGE2JUKOAI", "layer": 0, "file_id": "0F0RWXSQM9", "display": 0, "scale": 1, "gravity": 4, "crop_width": {"Points": [{"co": {"Y": -1.0, "X": 1.0}, "interpolation": 2}]}, "crop_x": {"Points": [{"co": {"Y": 0.0, "X": 1.0}, "interpolation": 2}]}, "shear_x": {"Points": [{"co": {"Y": 0.0, "X": 1.0}, "interpolation": 2}]}, "volume": {"Points": [{"co": {"Y": 1.0, "X": 1.0}, "interpolation": 2}]}, "start": 0, "rotation": {"Points": [{"co": {"Y": 0.0, "X": 1.0}, "interpolation": 2}]}, "reader": {"video_stream_index": -1, "video_length": "2592000", "interlaced_frame": false, "audio_bit_rate": 0, "audio_timebase": {"den": 1, "num": 1}, "vcodec": "", "channels": 0, "has_video": true, "channel_layout": 4, "has_audio": false, "video_timebase": {"den": 30, "num": 1}, "has_single_image": true, "acodec": "", "video_bit_rate": 0, "display_ratio": {"den": 9, "num": 16}, "audio_stream_index": -1, "type": "QtImageReader", "top_field_first": true, "width": 1920, "pixel_ratio": {"den": 1, "num": 1}, "height": 1080, "duration": 86400.0, "file_size": "8294400", "path": "/home/milind/Data/Projects/ProgressCard/!000-White-Background.svg", "fps": {"den": 1, "num": 30}, "pixel_format": -1, "sample_rate": 0}, "position": 262.15859374999997, "has_video": {"Points": [{"co": {"Y": -1.0, "X": 1.0}, "interpolation": 2}]}, "has_audio": {"Points": [{"co": {"Y": -1.0, "X": 1.0}, "interpolation": 2}]}, "channel_mapping": {"Points": [{"co": {"Y": -1.0, "X": 1.0}, "interpolation": 2}]}, "shear_y": {"Points": [{"co": {"Y": 0.0, "X": 1.0}, "interpolation": 2}]}, "perspective_c3_y": {"Points": [{"co": {"Y": -1.0, "X": 1.0}, "interpolation": 2}]}, "waveform": false, "end": 10, "scale_x": {"Points": [{"co": {"Y": 1.0, "X": 1.0}, "interpolation": 2}]}, "image": "/home/milind/.openshot_qt/thumbnail/0F0RWXSQM9.png", "location_y": {"Points": [{"co": {"Y": 0.0, "X": 1.0}, "interpolation": 2}]}, "crop_y": {"Points": [{"co": {"Y": 0.0, "X": 1.0}, "interpolation": 2}]}, "perspective_c2_y": {"Points": [{"co": {"Y": -1.0, "X": 1.0}, "interpolation": 2}]}, "perspective_c1_y": {"Points": [{"co": {"Y": -1.0, "X": 1.0}, "interpolation": 2}]}, "title": "!000-White-Background.svg", "perspective_c4_y": {"Points": [{"co": {"Y": -1.0, "X": 1.0}, "interpolation": 2}]}, "duration": 86400.0, "wave_color": {"red": {"Points": [{"handle_right": {"Y": 0.0, "X": 0.5}, "handle_type": 0, "handle_left": {"Y": 1.0, "X": 0.5}, "co": {"Y": 0.0, "X": 1.0}, "interpolation": 0}]}, "green": {"Points": [{"handle_right": {"Y": 0.0, "X": 0.5}, "handle_type": 0, "handle_left": {"Y": 1.0, "X": 0.5}, "co": {"Y": 123.0, "X": 1.0}, "interpolation": 0}]}, "blue": {"Points": [{"handle_right": {"Y": 0.0, "X": 0.5}, "handle_type": 0, "handle_left": {"Y": 1.0, "X": 0.5}, "co": {"Y": 255.0, "X": 1.0}, "interpolation": 0}]}, "alpha": {"Points": [{"handle_right": {"Y": 0.0, "X": 0.5}, "handle_type": 0, "handle_left": {"Y": 1.0, "X": 0.5}, "co": {"Y": 255.0, "X": 1.0}, "interpolation": 0}]}}, "time": {"Points": [{"co": {"Y": 1.0, "X": 1.0}, "interpolation": 2}]}, "crop_height": {"Points": [{"co": {"Y": -1.0, "X": 1.0}, "interpolation": 2}]}, "scale_y": {"Points": [{"co": {"Y": 1.0, "X": 1.0}, "interpolation": 2}]}, "effects": []}, {"location_x": {"Points": [{"co": {"Y": 0.0, "X": 1.0}, "interpolation": 2}]}, "perspective_c4_x": {"Points": [{"co": {"Y": -1.0, "X": 1.0}, "interpolation": 2}]}, "channel_filter": {"Points": [{"co": {"Y": -1.0, "X": 1.0}, "interpolation": 2}]}, "duration": 15.0, "perspective_c1_x": {"Points": [{"co": {"Y": -1.0, "X": 1.0}, "interpolation": 2}]}, "perspective_c2_x": {"Points": [{"co": {"Y": -1.0, "X": 1.0}, "interpolation": 2}]}, "alpha": {"Points": [{"handle_right": {"Y": 0.0, "X": 0.5}, "handle_type": 0, "handle_left": {"Y": 1.0, "X": 0.5}, "co": {"Y": 1.0, "X": 1.0}, "interpolation": 0}, {"handle_right": {"Y": 0.0, "X": 0.5}, "handle_type": 0, "handle_left": {"Y": 1.0, "X": 0.5}, "co": {"Y": 0.0, "X": 1.0}, "interpolation": 0}, {"handle_right": {"Y": 0.0, "X": 0.5}, "handle_type": 0, "handle_left": {"Y": 1.0, "X": 0.5}, "co": {"Y": 1.0, "X": 73.0}, "interpolation": 0}, {"handle_right": {"Y": 0.0, "X": 0.5}, "handle_type": 0, "handle_left": {"Y": 1.0, "X": 0.5}, "co": {"Y": 1.0, "X": 183.0}, "interpolation": 0}, {"handle_right": {"Y": 0.0, "X": 0.5}, "handle_type": 0, "handle_left": {"Y": 1.0, "X": 0.5}, "co": {"Y": 0.0, "X": 255.0}, "interpolation": 0}]}, "id": "O0H3RPMELI", "layer": 3, "display": 0, "scale": 1, "gravity": 4, "crop_width": {"Points": [{"co": {"Y": -1.0, "X": 1.0}, "interpolation": 2}]}, "crop_x": {"Points": [{"co": {"Y": 0.0, "X": 1.0}, "interpolation": 2}]}, "shear_x": {"Points": [{"co": {"Y": 0.0, "X": 1.0}, "interpolation": 2}]}, "volume": {"Points": [{"co": {"Y": 1.0, "X": 1.0}, "interpolation": 2}]}, "has_audio": {"Points": [{"co": {"Y": -1.0, "X": 1.0}, "interpolation": 2}]}, "end": 10.595000000000027, "title": "!120-Two Decimal Format.mkv", "crop_y": {"Points": [{"co": {"Y": 0.0, "X": 1.0}, "interpolation": 2}]}, "reader": {"video_stream_index": 0, "video_length": "375", "interlaced_frame": false, "audio_bit_rate": 0, "audio_timebase": {"den": 1, "num": 1}, "vcodec": "h264", "channels": 0, "has_video": true, "channel_layout": 4, "has_audio": false, "video_timebase": {"den": 1000, "num": 1}, "has_single_image": false, "acodec": "", "video_bit_rate": 0, "display_ratio": {"den": 186, "num": 325}, "audio_stream_index": -1, "type": "FFmpegReader", "top_field_first": true, "width": 1300, "pixel_ratio": {"den": 1, "num": 1}, "height": 744, "duration": 15.0, "file_size": "187523", "path": "/home/milind/Data/Projects/ProgressCard/!120-Two Decimal Format.mkv", "fps": {"den": 1, "num": 25}, "pixel_format": 0, "sample_rate": 0}, "position": 152.00921875, "has_video": {"Points": [{"co": {"Y": -1.0, "X": 1.0}, "interpolation": 2}]}, "start": 0, "channel_mapping": {"Points": [{"co": {"Y": -1.0, "X": 1.0}, "interpolation": 2}]}, "shear_y": {"Points": [{"co": {"Y": 0.0, "X": 1.0}, "interpolation": 2}]}, "perspective_c3_y": {"Points": [{"co": {"Y": -1.0, "X": 1.0}, "interpolation": 2}]}, "waveform": false, "perspective_c3_x": {"Points": [{"co": {"Y": -1.0, "X": 1.0}, "interpolation": 2}]}, "scale_x": {"Points": [{"co": {"Y": 1.5, "X": 1.0}, "interpolation": 2}]}, "image": "/home/milind/.openshot_qt/thumbnail/UGJYEMW42F.png", "location_y": {"Points": [{"co": {"Y": 0.0, "X": 1.0}, "interpolation": 2}]}, "file_id": "UGJYEMW42F", "perspective_c2_y": {"Points": [{"co": {"Y": -1.0, "X": 1.0}, "interpolation": 2}]}, "perspective_c1_y": {"Points": [{"co": {"Y": -1.0, "X": 1.0}, "interpolation": 2}]}, "rotation": {"Points": [{"co": {"Y": 0.0, "X": 1.0}, "interpolation": 2}]}, "perspective_c4_y": {"Points": [{"co": {"Y": -1.0, "X": 1.0}, "interpolation": 2}]}, "anchor": 0, "wave_color": {"red": {"Points": [{"handle_right": {"Y": 0.0, "X": 0.5}, "handle_type": 0, "handle_left": {"Y": 1.0, "X": 0.5}, "co": {"Y": 0.0, "X": 1.0}, "interpolation": 0}]}, "green": {"Points": [{"handle_right": {"Y": 0.0, "X": 0.5}, "handle_type": 0, "handle_left": {"Y": 1.0, "X": 0.5}, "co": {"Y": 123.0, "X": 1.0}, "interpolation": 0}]}, "blue": {"Points": [{"handle_right": {"Y": 0.0, "X": 0.5}, "handle_type": 0, "handle_left": {"Y": 1.0, "X": 0.5}, "co": {"Y": 255.0, "X": 1.0}, "interpolation": 0}]}, "alpha": {"Points": [{"handle_right": {"Y": 0.0, "X": 0.5}, "handle_type": 0, "handle_left": {"Y": 1.0, "X": 0.5}, "co": {"Y": 255.0, "X": 1.0}, "interpolation": 0}]}}, "time": {"Points": [{"co": {"Y": 1.0, "X": 1.0}, "interpolation": 2}]}, "crop_height": {"Points": [{"co": {"Y": -1.0, "X": 1.0}, "interpolation": 2}]}, "scale_y": {"Points": [{"co": {"Y": 1.5, "X": 1.0}, "interpolation": 2}]}, "effects": []}, {"location_x": {"Points": [{"handle_right": {"Y": 0.0, "X": 0.5}, "handle_type": 0, "handle_left": {"Y": 1.0, "X": 0.5}, "co": {"Y": 0.5299999713897705, "X": 1.0}, "interpolation": 0}, {"co": {"Y": -0.019999999552965164, "X": 121}, "interpolation": 1}]}, "perspective_c3_x": {"Points": [{"co": {"Y": -1.0, "X": 1.0}, "interpolation": 2}]}, "perspective_c4_x": {"Points": [{"co": {"Y": -1.0, "X": 1.0}, "interpolation": 2}]}, "channel_filter": {"Points": [{"co": {"Y": -1.0, "X": 1.0}, "interpolation": 2}]}, "perspective_c2_x": {"Points": [{"co": {"Y": -1.0, "X": 1.0}, "interpolation": 2}]}, "perspective_c1_x": {"Points": [{"co": {"Y": -1.0, "X": 1.0}, "interpolation": 2}]}, "anchor": 0, "alpha": {"Points": [{"handle_right": {"Y": 0, "X": 0.5}, "handle_type": 0, "handle_left": {"Y": 1, "X": 0.5}, "co": {"Y": 1, "X": 1}, "interpolation": 0}, {"handle_right": {"Y": 0, "X": 0.5}, "handle_type": 0, "handle_left": {"Y": 1, "X": 0.5}, "co": {"Y": 0, "X": 1}, "interpolation": 0}, {"handle_right": {"Y": 0, "X": 0.5}, "handle_type": 0, "handle_left": {"Y": 1, "X": 0.5}, "co": {"Y": 1, "X": 73}, "interpolation": 0}, {"handle_right": {"Y": 0, "X": 0.5}, "handle_type": 0, "handle_left": {"Y": 1, "X": 0.5}, "co": {"Y": 1, "X": 2057}, "interpolation": 0}, {"handle_right": {"Y": 0, "X": 0.5}, "handle_type": 0, "handle_left": {"Y": 1, "X": 0.5}, "co": {"Y": 0, "X": 2129}, "interpolation": 0}]}, "id": "1W8DREEE59", "layer": 1, "file_id": "616P05WPS9", "display": 0, "scale": 1, "gravity": 4, "crop_width": {"Points": [{"co": {"Y": -1.0, "X": 1.0}, "interpolation": 2}]}, "crop_x": {"Points": [{"co": {"Y": 0.0, "X": 1.0}, "interpolation": 2}]}, "shear_x": {"Points": [{"co": {"Y": 0.0, "X": 1.0}, "interpolation": 2}]}, "volume": {"Points": [{"co": {"Y": 1.0, "X": 1.0}, "interpolation": 2}]}, "start": 0, "rotation": {"Points": [{"co": {"Y": 0.0, "X": 1.0}, "interpolation": 2}]}, "reader": {"video_stream_index": 0, "video_length": "4525", "interlaced_frame": false, "audio_bit_rate": 0, "audio_timebase": {"den": 1, "num": 1}, "vcodec": "h264", "channels": 0, "has_video": true, "channel_layout": 4, "has_audio": false, "video_timebase": {"den": 1000, "num": 1}, "has_single_image": false, "acodec": "", "video_bit_rate": 0, "display_ratio": {"den": 186, "num": 325}, "audio_stream_index": -1, "type": "FFmpegReader", "top_field_first": true, "width": 1300, "pixel_ratio": {"den": 1, "num": 1}, "height": 744, "duration": 181.0, "file_size": "1502027", "path": "/home/milind/Data/Projects/ProgressCard/!140-Grade Formula.mkv", "fps": {"den": 1, "num": 25}, "pixel_format": 0, "sample_rate": 0}, "position": 177.65796874999998, "has_video": {"Points": [{"co": {"Y": -1.0, "X": 1.0}, "interpolation": 2}]}, "has_audio": {"Points": [{"co": {"Y": -1.0, "X": 1.0}, "interpolation": 2}]}, "channel_mapping": {"Points": [{"co": {"Y": -1.0, "X": 1.0}, "interpolation": 2}]}, "shear_y": {"Points": [{"co": {"Y": 0.0, "X": 1.0}, "interpolation": 2}]}, "perspective_c3_y": {"Points": [{"co": {"Y": -1.0, "X": 1.0}, "interpolation": 2}]}, "waveform": false, "end": 88.66666666666667, "scale_x": {"Points": [{"handle_right": {"Y": 0.0, "X": 0.5}, "handle_type": 0, "handle_left": {"Y": 1.0, "X": 0.5}, "co": {"Y": 2.299999952316284, "X": 1.0}, "interpolation": 0}, {"co": {"Y": 1.7000000476837158, "X": 121}, "interpolation": 1}]}, "image": "/home/milind/.openshot_qt/thumbnail/616P05WPS9.png", "location_y": {"Points": [{"handle_right": {"Y": 0.0, "X": 0.5}, "handle_type": 0, "handle_left": {"Y": 1.0, "X": 0.5}, "co": {"Y": 0.5199999809265137, "X": 1.0}, "interpolation": 0}, {"co": {"Y": 0.30000001192092896, "X": 121}, "interpolation": 1}]}, "crop_y": {"Points": [{"co": {"Y": 0.0, "X": 1.0}, "interpolation": 2}]}, "perspective_c2_y": {"Points": [{"co": {"Y": -1.0, "X": 1.0}, "interpolation": 2}]}, "perspective_c1_y": {"Points": [{"co": {"Y": -1.0, "X": 1.0}, "interpolation": 2}]}, "title": "!140-Grade Formula.mkv", "perspective_c4_y": {"Points": [{"co": {"Y": -1.0, "X": 1.0}, "interpolation": 2}]}, "duration": 90.0, "wave_color": {"red": {"Points": [{"handle_right": {"Y": 0.0, "X": 0.5}, "handle_type": 0, "handle_left": {"Y": 1.0, "X": 0.5}, "co": {"Y": 0.0, "X": 1.0}, "interpolation": 0}]}, "green": {"Points": [{"handle_right": {"Y": 0.0, "X": 0.5}, "handle_type": 0, "handle_left": {"Y": 1.0, "X": 0.5}, "co": {"Y": 123.0, "X": 1.0}, "interpolation": 0}]}, "blue": {"Points": [{"handle_right": {"Y": 0.0, "X": 0.5}, "handle_type": 0, "handle_left": {"Y": 1.0, "X": 0.5}, "co": {"Y": 255.0, "X": 1.0}, "interpolation": 0}]}, "alpha": {"Points": [{"handle_right": {"Y": 0.0, "X": 0.5}, "handle_type": 0, "handle_left": {"Y": 1.0, "X": 0.5}, "co": {"Y": 255.0, "X": 1.0}, "interpolation": 0}]}}, "time": {"Points": [{"co": {"Y": 1, "X": 1}, "interpolation": 1}, {"co": {"Y": 4255, "X": 2128}, "interpolation": 1}]}, "crop_height": {"Points": [{"co": {"Y": -1.0, "X": 1.0}, "interpolation": 2}]}, "scale_y": {"Points": [{"handle_right": {"Y": 0.0, "X": 0.5}, "handle_type": 0, "handle_left": {"Y": 1.0, "X": 0.5}, "co": {"Y": 2.299999952316284, "X": 1.0}, "interpolation": 0}, {"co": {"Y": 1.7000000476837158, "X": 121}, "interpolation": 1}]}, "effects": []}, {"location_x": {"Points": [{"co": {"Y": 0.0, "X": 1.0}, "interpolation": 2}, {"co": {"Y": -0.07999999821186066, "X": 373}, "interpolation": 1}, {"co": {"Y": 0.0, "X": 224}, "interpolation": 1}, {"co": {"Y": 0.0, "X": 617}, "interpolation": 1}]}, "perspective_c3_x": {"Points": [{"co": {"Y": -1.0, "X": 1.0}, "interpolation": 2}]}, "perspective_c4_x": {"Points": [{"co": {"Y": -1.0, "X": 1.0}, "interpolation": 2}]}, "channel_filter": {"Points": [{"co": {"Y": -1.0, "X": 1.0}, "interpolation": 2}]}, "perspective_c2_x": {"Points": [{"co": {"Y": -1.0, "X": 1.0}, "interpolation": 2}]}, "perspective_c1_x": {"Points": [{"co": {"Y": -1.0, "X": 1.0}, "interpolation": 2}]}, "anchor": 0, "alpha": {"Points": [{"co": {"Y": 1.0, "X": 1.0}, "interpolation": 2}, {"handle_right": {"Y": 0.0, "X": 0.5}, "handle_type": 0, "handle_left": {"Y": 1.0, "X": 0.5}, "co": {"Y": 1.0, "X": 545.0}, "interpolation": 0}, {"handle_right": {"Y": 0.0, "X": 0.5}, "handle_type": 0, "handle_left": {"Y": 1.0, "X": 0.5}, "co": {"Y": 0.0, "X": 617.0}, "interpolation": 0}]}, "id": "3KRS4J70ZV", "layer": 1, "file_id": "2202V21TTZ", "display": 0, "scale": 1, "gravity": 4, "crop_width": {"Points": [{"co": {"Y": -1.0, "X": 1.0}, "interpolation": 2}]}, "crop_x": {"Points": [{"co": {"Y": 0.0, "X": 1.0}, "interpolation": 2}]}, "shear_x": {"Points": [{"co": {"Y": 0.0, "X": 1.0}, "interpolation": 2}, {"co": {"Y": 0.0, "X": 373}, "interpolation": 1}]}, "volume": {"Points": [{"co": {"Y": 1.0, "X": 1.0}, "interpolation": 2}]}, "start": 0, "rotation": {"Points": [{"co": {"Y": 0.0, "X": 1.0}, "interpolation": 2}]}, "reader": {"video_stream_index": 0, "video_length": "725", "interlaced_frame": false, "audio_bit_rate": 0, "audio_timebase": {"den": 1, "num": 1}, "vcodec": "h264", "channels": 0, "has_video": true, "channel_layout": 4, "has_audio": false, "video_timebase": {"den": 1000, "num": 1}, "has_single_image": false, "acodec": "", "video_bit_rate": 0, "display_ratio": {"den": 186, "num": 325}, "audio_stream_index": -1, "type": "FFmpegReader", "top_field_first": true, "width": 1300, "pixel_ratio": {"den": 1, "num": 1}, "height": 744, "duration": 29.0, "file_size": "293155", "path": "/home/milind/Data/Projects/ProgressCard/!130-Copy Average.mkv", "fps": {"den": 1, "num": 25}, "pixel_format": 0, "sample_rate": 0}, "position": 152.00921875, "has_video": {"Points": [{"co": {"Y": -1.0, "X": 1.0}, "interpolation": 2}]}, "has_audio": {"Points": [{"co": {"Y": -1.0, "X": 1.0}, "interpolation": 2}]}, "channel_mapping": {"Points": [{"co": {"Y": -1.0, "X": 1.0}, "interpolation": 2}]}, "shear_y": {"Points": [{"co": {"Y": 0.0, "X": 1.0}, "interpolation": 2}]}, "perspective_c3_y": {"Points": [{"co": {"Y": -1.0, "X": 1.0}, "interpolation": 2}]}, "waveform": false, "end": 25.649999999999977, "scale_x": {"Points": [{"co": {"Y": 1.5, "X": 1.0}, "interpolation": 2}, {"co": {"Y": 2.299999952316284, "X": 373}, "interpolation": 1}, {"co": {"Y": 1.5, "X": 224}, "interpolation": 1}]}, "image": "/home/milind/.openshot_qt/thumbnail/2202V21TTZ.png", "location_y": {"Points": [{"co": {"Y": 0.0, "X": 1.0}, "interpolation": 2}, {"co": {"Y": 0.5199999809265137, "X": 373}, "interpolation": 1}, {"co": {"Y": 0.0, "X": 224}, "interpolation": 1}]}, "crop_y": {"Points": [{"co": {"Y": 0.0, "X": 1.0}, "interpolation": 2}]}, "perspective_c2_y": {"Points": [{"co": {"Y": -1.0, "X": 1.0}, "interpolation": 2}]}, "perspective_c1_y": {"Points": [{"co": {"Y": -1.0, "X": 1.0}, "interpolation": 2}]}, "title": "!130-Copy Average.mkv", "perspective_c4_y": {"Points": [{"co": {"Y": -1.0, "X": 1.0}, "interpolation": 2}]}, "duration": 29.0, "wave_color": {"red": {"Points": [{"handle_right": {"Y": 0.0, "X": 0.5}, "handle_type": 0, "handle_left": {"Y": 1.0, "X": 0.5}, "co": {"Y": 0.0, "X": 1.0}, "interpolation": 0}]}, "green": {"Points": [{"handle_right": {"Y": 0.0, "X": 0.5}, "handle_type": 0, "handle_left": {"Y": 1.0, "X": 0.5}, "co": {"Y": 123.0, "X": 1.0}, "interpolation": 0}]}, "blue": {"Points": [{"handle_right": {"Y": 0.0, "X": 0.5}, "handle_type": 0, "handle_left": {"Y": 1.0, "X": 0.5}, "co": {"Y": 255.0, "X": 1.0}, "interpolation": 0}]}, "alpha": {"Points": [{"handle_right": {"Y": 0.0, "X": 0.5}, "handle_type": 0, "handle_left": {"Y": 1.0, "X": 0.5}, "co": {"Y": 255.0, "X": 1.0}, "interpolation": 0}]}}, "time": {"Points": [{"co": {"Y": 1.0, "X": 1.0}, "interpolation": 2}]}, "crop_height": {"Points": [{"co": {"Y": -1.0, "X": 1.0}, "interpolation": 2}]}, "scale_y": {"Points": [{"co": {"Y": 1.5, "X": 1.0}, "interpolation": 2}, {"co": {"Y": 2.299999952316284, "X": 373}, "interpolation": 1}, {"co": {"Y": 1.5, "X": 224}, "interpolation": 1}]}, "effects": []}, {"location_x": {"Points": [{"co": {"Y": 0.0, "X": 1.0}, "interpolation": 2}]}, "perspective_c3_x": {"Points": [{"co": {"Y": -1.0, "X": 1.0}, "interpolation": 2}]}, "perspective_c4_x": {"Points": [{"co": {"Y": -1.0, "X": 1.0}, "interpolation": 2}]}, "channel_filter": {"Points": [{"co": {"Y": -1.0, "X": 1.0}, "interpolation": 2}]}, "perspective_c2_x": {"Points": [{"co": {"Y": -1.0, "X": 1.0}, "interpolation": 2}]}, "perspective_c1_x": {"Points": [{"co": {"Y": -1.0, "X": 1.0}, "interpolation": 2}]}, "anchor": 0, "alpha": {"Points": [{"co": {"Y": 1.0, "X": 1.0}, "interpolation": 2}]}, "id": "87020DYHA9", "layer": 0, "file_id": "0F0RWXSQM9", "display": 0, "scale": 1, "gravity": 4, "crop_width": {"Points": [{"co": {"Y": -1.0, "X": 1.0}, "interpolation": 2}]}, "crop_x": {"Points": [{"co": {"Y": 0.0, "X": 1.0}, "interpolation": 2}]}, "shear_x": {"Points": [{"co": {"Y": 0.0, "X": 1.0}, "interpolation": 2}]}, "volume": {"Points": [{"co": {"Y": 1.0, "X": 1.0}, "interpolation": 2}]}, "start": 0, "rotation": {"Points": [{"co": {"Y": 0.0, "X": 1.0}, "interpolation": 2}]}, "reader": {"video_stream_index": -1, "video_length": "2592000", "interlaced_frame": false, "audio_bit_rate": 0, "audio_timebase": {"den": 1, "num": 1}, "vcodec": "", "channels": 0, "has_video": true, "channel_layout": 4, "has_audio": false, "video_timebase": {"den": 30, "num": 1}, "has_single_image": true, "acodec": "", "video_bit_rate": 0, "display_ratio": {"den": 9, "num": 16}, "audio_stream_index": -1, "type": "QtImageReader", "top_field_first": true, "width": 1920, "pixel_ratio": {"den": 1, "num": 1}, "height": 1080, "duration": 86400.0, "file_size": "8294400", "path": "/home/milind/Data/Projects/ProgressCard/!000-White-Background.svg", "fps": {"den": 1, "num": 30}, "pixel_format": -1, "sample_rate": 0}, "position": 289.16999999999996, "has_video": {"Points": [{"co": {"Y": -1.0, "X": 1.0}, "interpolation": 2}]}, "has_audio": {"Points": [{"co": {"Y": -1.0, "X": 1.0}, "interpolation": 2}]}, "channel_mapping": {"Points": [{"co": {"Y": -1.0, "X": 1.0}, "interpolation": 2}]}, "shear_y": {"Points": [{"co": {"Y": 0.0, "X": 1.0}, "interpolation": 2}]}, "perspective_c3_y": {"Points": [{"co": {"Y": -1.0, "X": 1.0}, "interpolation": 2}]}, "waveform": false, "end": 9.49, "scale_x": {"Points": [{"co": {"Y": 1.0, "X": 1.0}, "interpolation": 2}]}, "image": "/home/milind/.openshot_qt/thumbnail/0F0RWXSQM9.png", "location_y": {"Points": [{"co": {"Y": 0.0, "X": 1.0}, "interpolation": 2}]}, "crop_y": {"Points": [{"co": {"Y": 0.0, "X": 1.0}, "interpolation": 2}]}, "perspective_c2_y": {"Points": [{"co": {"Y": -1.0, "X": 1.0}, "interpolation": 2}]}, "perspective_c1_y": {"Points": [{"co": {"Y": -1.0, "X": 1.0}, "interpolation": 2}]}, "title": "!000-White-Background.svg", "perspective_c4_y": {"Points": [{"co": {"Y": -1.0, "X": 1.0}, "interpolation": 2}]}, "duration": 86400.0, "wave_color": {"red": {"Points": [{"handle_right": {"Y": 0.0, "X": 0.5}, "handle_type": 0, "handle_left": {"Y": 1.0, "X": 0.5}, "co": {"Y": 0.0, "X": 1.0}, "interpolation": 0}]}, "green": {"Points": [{"handle_right": {"Y": 0.0, "X": 0.5}, "handle_type": 0, "handle_left": {"Y": 1.0, "X": 0.5}, "co": {"Y": 123.0, "X": 1.0}, "interpolation": 0}]}, "blue": {"Points": [{"handle_right": {"Y": 0.0, "X": 0.5}, "handle_type": 0, "handle_left": {"Y": 1.0, "X": 0.5}, "co": {"Y": 255.0, "X": 1.0}, "interpolation": 0}]}, "alpha": {"Points": [{"handle_right": {"Y": 0.0, "X": 0.5}, "handle_type": 0, "handle_left": {"Y": 1.0, "X": 0.5}, "co": {"Y": 255.0, "X": 1.0}, "interpolation": 0}]}}, "time": {"Points": [{"co": {"Y": 1.0, "X": 1.0}, "interpolation": 2}]}, "crop_height": {"Points": [{"co": {"Y": -1.0, "X": 1.0}, "interpolation": 2}]}, "scale_y": {"Points": [{"co": {"Y": 1.0, "X": 1.0}, "interpolation": 2}]}, "effects": []}, {"location_x": {"Points": [{"co": {"Y": -0.019999999552965164, "X": 1}, "interpolation": 2}]}, "perspective_c3_x": {"Points": [{"co": {"Y": -1, "X": 1}, "interpolation": 2}]}, "perspective_c4_x": {"Points": [{"co": {"Y": -1, "X": 1}, "interpolation": 2}]}, "channel_filter": {"Points": [{"co": {"Y": -1, "X": 1}, "interpolation": 2}]}, "perspective_c2_x": {"Points": [{"co": {"Y": -1, "X": 1}, "interpolation": 2}]}, "perspective_c1_x": {"Points": [{"co": {"Y": -1, "X": 1}, "interpolation": 2}]}, "anchor": 0, "alpha": {"Points": [{"handle_right": {"Y": 0, "X": 0.5}, "handle_type": 0, "handle_left": {"Y": 1, "X": 0.5}, "co": {"Y": 1, "X": 1}, "interpolation": 0}, {"handle_right": {"Y": 0, "X": 0.5}, "handle_type": 0, "handle_left": {"Y": 1, "X": 0.5}, "co": {"Y": 0, "X": 1}, "interpolation": 0}, {"handle_right": {"Y": 0, "X": 0.5}, "handle_type": 0, "handle_left": {"Y": 1, "X": 0.5}, "co": {"Y": 1, "X": 73}, "interpolation": 0}, {"handle_right": {"Y": 0, "X": 0.5}, "handle_type": 0, "handle_left": {"Y": 1, "X": 0.5}, "co": {"Y": 1, "X": 644}, "interpolation": 0}, {"handle_right": {"Y": 0, "X": 0.5}, "handle_type": 0, "handle_left": {"Y": 1, "X": 0.5}, "co": {"Y": 0, "X": 716}, "interpolation": 0}]}, "id": "F2MA5NTJGV", "layer": 1, "file_id": "MJ87OKNJXE", "display": 0, "scale": 1, "gravity": 4, "crop_width": {"Points": [{"co": {"Y": -1, "X": 1}, "interpolation": 2}]}, "crop_x": {"Points": [{"co": {"Y": 0, "X": 1}, "interpolation": 2}]}, "shear_x": {"Points": [{"co": {"Y": 0, "X": 1}, "interpolation": 2}]}, "volume": {"Points": [{"co": {"Y": 1, "X": 1}, "interpolation": 2}]}, "start": 0, "rotation": {"Points": [{"co": {"Y": 0, "X": 1}, "interpolation": 2}]}, "reader": {"video_stream_index": 0, "video_length": "1575", "interlaced_frame": false, "audio_bit_rate": 0, "audio_timebase": {"den": 1, "num": 1}, "vcodec": "h264", "channels": 0, "has_video": true, "channel_layout": 4, "has_audio": false, "video_timebase": {"den": 1000, "num": 1}, "has_single_image": false, "acodec": "", "video_bit_rate": 62654, "display_ratio": {"den": 186, "num": 325}, "audio_stream_index": -1, "type": "FFmpegReader", "top_field_first": true, "width": 1300, "pixel_ratio": {"den": 1, "num": 1}, "height": 744, "duration": 63.0, "file_size": "499047", "path": "/home/milind/Data/Projects/ProgressCard/!150-Inserted GRADE in REMARK.mkv", "fps": {"den": 1, "num": 25}, "pixel_format": 0, "sample_rate": 0}, "position": 266.32359375, "has_video": {"Points": [{"co": {"Y": -1, "X": 1}, "interpolation": 2}]}, "has_audio": {"Points": [{"co": {"Y": -1, "X": 1}, "interpolation": 2}]}, "channel_mapping": {"Points": [{"co": {"Y": -1, "X": 1}, "interpolation": 2}]}, "shear_y": {"Points": [{"co": {"Y": 0, "X": 1}, "interpolation": 2}]}, "perspective_c3_y": {"Points": [{"co": {"Y": -1, "X": 1}, "interpolation": 2}]}, "waveform": false, "end": 29.791666666666668, "scale_x": {"Points": [{"co": {"Y": 1.7000000476837158, "X": 1}, "interpolation": 2}]}, "image": "/home/milind/.openshot_qt/thumbnail/MJ87OKNJXE.png", "location_y": {"Points": [{"co": {"Y": 0.30000001192092896, "X": 1}, "interpolation": 2}]}, "crop_y": {"Points": [{"co": {"Y": 0, "X": 1}, "interpolation": 2}]}, "perspective_c2_y": {"Points": [{"co": {"Y": -1, "X": 1}, "interpolation": 2}]}, "perspective_c1_y": {"Points": [{"co": {"Y": -1, "X": 1}, "interpolation": 2}]}, "title": "!150-Inserted GRADE in REMARK.mkv", "perspective_c4_y": {"Points": [{"co": {"Y": -1, "X": 1}, "interpolation": 2}]}, "duration": 30.0, "wave_color": {"red": {"Points": [{"handle_right": {"Y": 0, "X": 0.5}, "handle_type": 0, "handle_left": {"Y": 1, "X": 0.5}, "co": {"Y": 0, "X": 1}, "interpolation": 0}]}, "green": {"Points": [{"handle_right": {"Y": 0, "X": 0.5}, "handle_type": 0, "handle_left": {"Y": 1, "X": 0.5}, "co": {"Y": 123, "X": 1}, "interpolation": 0}]}, "blue": {"Points": [{"handle_right": {"Y": 0, "X": 0.5}, "handle_type": 0, "handle_left": {"Y": 1, "X": 0.5}, "co": {"Y": 255, "X": 1}, "interpolation": 0}]}, "alpha": {"Points": [{"handle_right": {"Y": 0, "X": 0.5}, "handle_type": 0, "handle_left": {"Y": 1, "X": 0.5}, "co": {"Y": 255, "X": 1}, "interpolation": 0}]}}, "time": {"Points": [{"co": {"Y": 1, "X": 1}, "interpolation": 1}, {"co": {"Y": 1429, "X": 715}, "interpolation": 1}]}, "crop_height": {"Points": [{"co": {"Y": -1, "X": 1}, "interpolation": 2}]}, "scale_y": {"Points": [{"co": {"Y": 1.7000000476837158, "X": 1}, "interpolation": 2}]}, "effects": []}, {"location_x": {"Points": [{"co": {"Y": 0, "X": 1}, "interpolation": 2}]}, "perspective_c3_x": {"Points": [{"co": {"Y": -1, "X": 1}, "interpolation": 2}]}, "perspective_c4_x": {"Points": [{"co": {"Y": -1, "X": 1}, "interpolation": 2}]}, "channel_filter": {"Points": [{"co": {"Y": -1, "X": 1}, "interpolation": 2}]}, "perspective_c2_x": {"Points": [{"co": {"Y": -1, "X": 1}, "interpolation": 2}]}, "perspective_c1_x": {"Points": [{"co": {"Y": -1, "X": 1}, "interpolation": 2}]}, "anchor": 0, "alpha": {"Points": [{"co": {"Y": 1, "X": 1}, "interpolation": 2}]}, "id": "04TSZRCDQD", "layer": 0, "file_id": "0F0RWXSQM9", "display": 0, "scale": 1, "gravity": 4, "crop_width": {"Points": [{"co": {"Y": -1, "X": 1}, "interpolation": 2}]}, "crop_x": {"Points": [{"co": {"Y": 0, "X": 1}, "interpolation": 2}]}, "shear_x": {"Points": [{"co": {"Y": 0, "X": 1}, "interpolation": 2}]}, "volume": {"Points": [{"co": {"Y": 1, "X": 1}, "interpolation": 2}]}, "start": 0, "rotation": {"Points": [{"co": {"Y": 0, "X": 1}, "interpolation": 2}]}, "reader": {"video_stream_index": -1, "video_length": "2592000", "interlaced_frame": false, "audio_bit_rate": 0, "audio_timebase": {"den": 1, "num": 1}, "vcodec": "", "channels": 0, "has_video": true, "channel_layout": 4, "has_audio": false, "video_timebase": {"den": 30, "num": 1}, "has_single_image": true, "acodec": "", "video_bit_rate": 0, "display_ratio": {"den": 9, "num": 16}, "audio_stream_index": -1, "type": "QtImageReader", "top_field_first": true, "width": 1920, "pixel_ratio": {"den": 1, "num": 1}, "height": 1080, "duration": 86400.0, "file_size": "8294400", "path": "/home/milind/Data/Projects/ProgressCard/!000-White-Background.svg", "fps": {"den": 1, "num": 30}, "pixel_format": -1, "sample_rate": 0}, "position": 66.13, "has_video": {"Points": [{"co": {"Y": -1, "X": 1}, "interpolation": 2}]}, "has_audio": {"Points": [{"co": {"Y": -1, "X": 1}, "interpolation": 2}]}, "channel_mapping": {"Points": [{"co": {"Y": -1, "X": 1}, "interpolation": 2}]}, "shear_y": {"Points": [{"co": {"Y": 0, "X": 1}, "interpolation": 2}]}, "perspective_c3_y": {"Points": [{"co": {"Y": -1, "X": 1}, "interpolation": 2}]}, "waveform": false, "end": 12.99, "scale_x": {"Points": [{"co": {"Y": 1, "X": 1}, "interpolation": 2}]}, "image": "/home/milind/.openshot_qt/thumbnail/0F0RWXSQM9.png", "location_y": {"Points": [{"co": {"Y": 0, "X": 1}, "interpolation": 2}]}, "crop_y": {"Points": [{"co": {"Y": 0, "X": 1}, "interpolation": 2}]}, "perspective_c2_y": {"Points": [{"co": {"Y": -1, "X": 1}, "interpolation": 2}]}, "perspective_c1_y": {"Points": [{"co": {"Y": -1, "X": 1}, "interpolation": 2}]}, "title": "!000-White-Background.svg", "perspective_c4_y": {"Points": [{"co": {"Y": -1, "X": 1}, "interpolation": 2}]}, "duration": 86400.0, "wave_color": {"red": {"Points": [{"handle_right": {"Y": 0, "X": 0.5}, "handle_type": 0, "handle_left": {"Y": 1, "X": 0.5}, "co": {"Y": 0, "X": 1}, "interpolation": 0}]}, "green": {"Points": [{"handle_right": {"Y": 0, "X": 0.5}, "handle_type": 0, "handle_left": {"Y": 1, "X": 0.5}, "co": {"Y": 123, "X": 1}, "interpolation": 0}]}, "blue": {"Points": [{"handle_right": {"Y": 0, "X": 0.5}, "handle_type": 0, "handle_left": {"Y": 1, "X": 0.5}, "co": {"Y": 255, "X": 1}, "interpolation": 0}]}, "alpha": {"Points": [{"handle_right": {"Y": 0, "X": 0.5}, "handle_type": 0, "handle_left": {"Y": 1, "X": 0.5}, "co": {"Y": 255, "X": 1}, "interpolation": 0}]}}, "time": {"Points": [{"co": {"Y": 1, "X": 1}, "interpolation": 2}]}, "crop_height": {"Points": [{"co": {"Y": -1, "X": 1}, "interpolation": 2}]}, "scale_y": {"Points": [{"co": {"Y": 1, "X": 1}, "interpolation": 2}]}, "effects": []}, {"location_x": {"Points": [{"co": {"Y": 0, "X": 1}, "interpolation": 2}]}, "perspective_c3_x": {"Points": [{"co": {"Y": -1, "X": 1}, "interpolation": 2}]}, "perspective_c4_x": {"Points": [{"co": {"Y": -1, "X": 1}, "interpolation": 2}]}, "channel_filter": {"Points": [{"co": {"Y": -1, "X": 1}, "interpolation": 2}]}, "perspective_c2_x": {"Points": [{"co": {"Y": -1, "X": 1}, "interpolation": 2}]}, "perspective_c1_x": {"Points": [{"co": {"Y": -1, "X": 1}, "interpolation": 2}]}, "anchor": 0, "alpha": {"Points": [{"co": {"Y": 1, "X": 1}, "interpolation": 2}, {"handle_right": {"Y": 0, "X": 0.5}, "handle_type": 0, "handle_left": {"Y": 1, "X": 0.5}, "co": {"Y": 0, "X": 1}, "interpolation": 0}, {"handle_right": {"Y": 0, "X": 0.5}, "handle_type": 0, "handle_left": {"Y": 1, "X": 0.5}, "co": {"Y": 1, "X": 73}, "interpolation": 0}, {"handle_right": {"Y": 0, "X": 0.5}, "handle_type": 0, "handle_left": {"Y": 1, "X": 0.5}, "co": {"Y": 1, "X": 49}, "interpolation": 0}, {"handle_right": {"Y": 0, "X": 0.5}, "handle_type": 0, "handle_left": {"Y": 1, "X": 0.5}, "co": {"Y": 0, "X": 121}, "interpolation": 0}]}, "id": "YVXCHQZADD", "layer": 2, "file_id": "O28Z229VIU", "display": 0, "scale": 1, "gravity": 4, "crop_width": {"Points": [{"co": {"Y": -1, "X": 1}, "interpolation": 2}]}, "crop_x": {"Points": [{"co": {"Y": 0, "X": 1}, "interpolation": 2}]}, "shear_x": {"Points": [{"co": {"Y": 0, "X": 1}, "interpolation": 2}]}, "volume": {"Points": [{"co": {"Y": 1, "X": 1}, "interpolation": 2}]}, "start": 0, "rotation": {"Points": [{"co": {"Y": 0, "X": 1}, "interpolation": 2}]}, "reader": {"video_stream_index": -1, "video_length": "2592000", "interlaced_frame": false, "audio_bit_rate": 0, "audio_timebase": {"den": 1, "num": 1}, "vcodec": "", "channels": 0, "has_video": true, "channel_layout": 4, "has_audio": false, "video_timebase": {"den": 30, "num": 1}, "has_single_image": true, "acodec": "", "video_bit_rate": 0, "display_ratio": {"den": 3827, "num": 6803}, "audio_stream_index": -1, "type": "QtImageReader", "top_field_first": true, "width": 6803, "pixel_ratio": {"den": 1, "num": 1}, "height": 3827, "duration": 86400.0, "file_size": "104140324", "path": "/home/milind/Data/Projects/ProgressCard/!072-Grace Total.svg", "fps": {"den": 1, "num": 30}, "pixel_format": -1, "sample_rate": 0}, "position": 11.708333333333332, "has_video": {"Points": [{"co": {"Y": -1, "X": 1}, "interpolation": 2}]}, "has_audio": {"Points": [{"co": {"Y": -1, "X": 1}, "interpolation": 2}]}, "channel_mapping": {"Points": [{"co": {"Y": -1, "X": 1}, "interpolation": 2}]}, "shear_y": {"Points": [{"co": {"Y": 0, "X": 1}, "interpolation": 2}]}, "perspective_c3_y": {"Points": [{"co": {"Y": -1, "X": 1}, "interpolation": 2}]}, "waveform": false, "end": 5, "scale_x": {"Points": [{"co": {"Y": 1, "X": 1}, "interpolation": 2}]}, "image": "/home/milind/.openshot_qt/thumbnail/O28Z229VIU.png", "location_y": {"Points": [{"co": {"Y": 0, "X": 1}, "interpolation": 2}]}, "crop_y": {"Points": [{"co": {"Y": 0, "X": 1}, "interpolation": 2}]}, "perspective_c2_y": {"Points": [{"co": {"Y": -1, "X": 1}, "interpolation": 2}]}, "perspective_c1_y": {"Points": [{"co": {"Y": -1, "X": 1}, "interpolation": 2}]}, "title": "!072-Grace Total.svg", "perspective_c4_y": {"Points": [{"co": {"Y": -1, "X": 1}, "interpolation": 2}]}, "duration": 86400.0, "wave_color": {"red": {"Points": [{"handle_right": {"Y": 0, "X": 0.5}, "handle_type": 0, "handle_left": {"Y": 1, "X": 0.5}, "co": {"Y": 0, "X": 1}, "interpolation": 0}]}, "green": {"Points": [{"handle_right": {"Y": 0, "X": 0.5}, "handle_type": 0, "handle_left": {"Y": 1, "X": 0.5}, "co": {"Y": 123, "X": 1}, "interpolation": 0}]}, "blue": {"Points": [{"handle_right": {"Y": 0, "X": 0.5}, "handle_type": 0, "handle_left": {"Y": 1, "X": 0.5}, "co": {"Y": 255, "X": 1}, "interpolation": 0}]}, "alpha": {"Points": [{"handle_right": {"Y": 0, "X": 0.5}, "handle_type": 0, "handle_left": {"Y": 1, "X": 0.5}, "co": {"Y": 255, "X": 1}, "interpolation": 0}]}}, "time": {"Points": [{"co": {"Y": 1, "X": 1}, "interpolation": 2}]}, "crop_height": {"Points": [{"co": {"Y": -1, "X": 1}, "interpolation": 2}]}, "scale_y": {"Points": [{"co": {"Y": 1, "X": 1}, "interpolation": 2}]}, "effects": []}, {"location_x": {"Points": [{"co": {"Y": 0, "X": 1}, "interpolation": 2}]}, "perspective_c3_x": {"Points": [{"co": {"Y": -1, "X": 1}, "interpolation": 2}]}, "perspective_c4_x": {"Points": [{"co": {"Y": -1, "X": 1}, "interpolation": 2}]}, "channel_filter": {"Points": [{"co": {"Y": -1, "X": 1}, "interpolation": 2}]}, "perspective_c2_x": {"Points": [{"co": {"Y": -1, "X": 1}, "interpolation": 2}]}, "perspective_c1_x": {"Points": [{"co": {"Y": -1, "X": 1}, "interpolation": 2}]}, "anchor": 0, "alpha": {"Points": [{"co": {"Y": 1, "X": 1}, "interpolation": 2}, {"handle_right": {"Y": 0, "X": 0.5}, "handle_type": 0, "handle_left": {"Y": 1, "X": 0.5}, "co": {"Y": 0, "X": 1}, "interpolation": 0}, {"handle_right": {"Y": 0, "X": 0.5}, "handle_type": 0, "handle_left": {"Y": 1, "X": 0.5}, "co": {"Y": 1, "X": 73}, "interpolation": 0}, {"handle_right": {"Y": 0, "X": 0.5}, "handle_type": 0, "handle_left": {"Y": 1, "X": 0.5}, "co": {"Y": 1, "X": 49}, "interpolation": 0}, {"handle_right": {"Y": 0, "X": 0.5}, "handle_type": 0, "handle_left": {"Y": 1, "X": 0.5}, "co": {"Y": 0, "X": 121}, "interpolation": 0}]}, "id": "GPTZ9M5371", "layer": 2, "file_id": "BUXZX40N2J", "display": 0, "scale": 1, "gravity": 4, "crop_width": {"Points": [{"co": {"Y": -1, "X": 1}, "interpolation": 2}]}, "crop_x": {"Points": [{"co": {"Y": 0, "X": 1}, "interpolation": 2}]}, "shear_x": {"Points": [{"co": {"Y": 0, "X": 1}, "interpolation": 2}]}, "volume": {"Points": [{"co": {"Y": 1, "X": 1}, "interpolation": 2}]}, "start": 0, "rotation": {"Points": [{"co": {"Y": 0, "X": 1}, "interpolation": 2}]}, "reader": {"video_stream_index": -1, "video_length": "2592000", "interlaced_frame": false, "audio_bit_rate": 0, "audio_timebase": {"den": 1, "num": 1}, "vcodec": "", "channels": 0, "has_video": true, "channel_layout": 4, "has_audio": false, "video_timebase": {"den": 30, "num": 1}, "has_single_image": true, "acodec": "", "video_bit_rate": 0, "display_ratio": {"den": 3827, "num": 6803}, "audio_stream_index": -1, "type": "QtImageReader", "top_field_first": true, "width": 6803, "pixel_ratio": {"den": 1, "num": 1}, "height": 3827, "duration": 86400.0, "file_size": "104140324", "path": "/home/milind/Data/Projects/ProgressCard/!073-Graced Subject Count.svg", "fps": {"den": 1, "num": 30}, "pixel_format": -1, "sample_rate": 0}, "position": 24.125000000000004, "has_video": {"Points": [{"co": {"Y": -1, "X": 1}, "interpolation": 2}]}, "has_audio": {"Points": [{"co": {"Y": -1, "X": 1}, "interpolation": 2}]}, "channel_mapping": {"Points": [{"co": {"Y": -1, "X": 1}, "interpolation": 2}]}, "shear_y": {"Points": [{"co": {"Y": 0, "X": 1}, "interpolation": 2}]}, "perspective_c3_y": {"Points": [{"co": {"Y": -1, "X": 1}, "interpolation": 2}]}, "waveform": false, "end": 5, "scale_x": {"Points": [{"co": {"Y": 1, "X": 1}, "interpolation": 2}]}, "image": "/home/milind/.openshot_qt/thumbnail/BUXZX40N2J.png", "location_y": {"Points": [{"co": {"Y": 0, "X": 1}, "interpolation": 2}]}, "crop_y": {"Points": [{"co": {"Y": 0, "X": 1}, "interpolation": 2}]}, "perspective_c2_y": {"Points": [{"co": {"Y": -1, "X": 1}, "interpolation": 2}]}, "perspective_c1_y": {"Points": [{"co": {"Y": -1, "X": 1}, "interpolation": 2}]}, "title": "!073-Graced Subject Count.svg", "perspective_c4_y": {"Points": [{"co": {"Y": -1, "X": 1}, "interpolation": 2}]}, "duration": 86400.0, "wave_color": {"red": {"Points": [{"handle_right": {"Y": 0, "X": 0.5}, "handle_type": 0, "handle_left": {"Y": 1, "X": 0.5}, "co": {"Y": 0, "X": 1}, "interpolation": 0}]}, "green": {"Points": [{"handle_right": {"Y": 0, "X": 0.5}, "handle_type": 0, "handle_left": {"Y": 1, "X": 0.5}, "co": {"Y": 123, "X": 1}, "interpolation": 0}]}, "blue": {"Points": [{"handle_right": {"Y": 0, "X": 0.5}, "handle_type": 0, "handle_left": {"Y": 1, "X": 0.5}, "co": {"Y": 255, "X": 1}, "interpolation": 0}]}, "alpha": {"Points": [{"handle_right": {"Y": 0, "X": 0.5}, "handle_type": 0, "handle_left": {"Y": 1, "X": 0.5}, "co": {"Y": 255, "X": 1}, "interpolation": 0}]}}, "time": {"Points": [{"co": {"Y": 1, "X": 1}, "interpolation": 2}]}, "crop_height": {"Points": [{"co": {"Y": -1, "X": 1}, "interpolation": 2}]}, "scale_y": {"Points": [{"co": {"Y": 1, "X": 1}, "interpolation": 2}]}, "effects": []}, {"location_x": {"Points": [{"co": {"Y": 0, "X": 1}, "interpolation": 2}]}, "perspective_c3_x": {"Points": [{"co": {"Y": -1, "X": 1}, "interpolation": 2}]}, "perspective_c4_x": {"Points": [{"co": {"Y": -1, "X": 1}, "interpolation": 2}]}, "channel_filter": {"Points": [{"co": {"Y": -1, "X": 1}, "interpolation": 2}]}, "perspective_c2_x": {"Points": [{"co": {"Y": -1, "X": 1}, "interpolation": 2}]}, "perspective_c1_x": {"Points": [{"co": {"Y": -1, "X": 1}, "interpolation": 2}]}, "anchor": 0, "alpha": {"Points": [{"co": {"Y": 1, "X": 1}, "interpolation": 2}, {"handle_right": {"Y": 0, "X": 0.5}, "handle_type": 0, "handle_left": {"Y": 1, "X": 0.5}, "co": {"Y": 0, "X": 1}, "interpolation": 0}, {"handle_right": {"Y": 0, "X": 0.5}, "handle_type": 0, "handle_left": {"Y": 1, "X": 0.5}, "co": {"Y": 1, "X": 73}, "interpolation": 0}, {"handle_right": {"Y": 0, "X": 0.5}, "handle_type": 0, "handle_left": {"Y": 1, "X": 0.5}, "co": {"Y": 1, "X": 49}, "interpolation": 0}, {"handle_right": {"Y": 0, "X": 0.5}, "handle_type": 0, "handle_left": {"Y": 1, "X": 0.5}, "co": {"Y": 0, "X": 121}, "interpolation": 0}]}, "id": "MH73AEFXVE", "layer": 2, "file_id": "MZ4ILBST6I", "display": 0, "scale": 1, "gravity": 4, "crop_width": {"Points": [{"co": {"Y": -1, "X": 1}, "interpolation": 2}]}, "crop_x": {"Points": [{"co": {"Y": 0, "X": 1}, "interpolation": 2}]}, "shear_x": {"Points": [{"co": {"Y": 0, "X": 1}, "interpolation": 2}]}, "volume": {"Points": [{"co": {"Y": 1, "X": 1}, "interpolation": 2}]}, "start": 0, "rotation": {"Points": [{"co": {"Y": 0, "X": 1}, "interpolation": 2}]}, "reader": {"video_stream_index": -1, "video_length": "2592000", "interlaced_frame": false, "audio_bit_rate": 0, "audio_timebase": {"den": 1, "num": 1}, "vcodec": "", "channels": 0, "has_video": true, "channel_layout": 4, "has_audio": false, "video_timebase": {"den": 30, "num": 1}, "has_single_image": true, "acodec": "", "video_bit_rate": 0, "display_ratio": {"den": 3827, "num": 6803}, "audio_stream_index": -1, "type": "QtImageReader", "top_field_first": true, "width": 6803, "pixel_ratio": {"den": 1, "num": 1}, "height": 3827, "duration": 86400.0, "file_size": "104140324", "path": "/home/milind/Data/Projects/ProgressCard/!074-Grace Greater Than 10.svg", "fps": {"den": 1, "num": 30}, "pixel_format": -1, "sample_rate": 0}, "position": 39.458333333333336, "has_video": {"Points": [{"co": {"Y": -1, "X": 1}, "interpolation": 2}]}, "has_audio": {"Points": [{"co": {"Y": -1, "X": 1}, "interpolation": 2}]}, "channel_mapping": {"Points": [{"co": {"Y": -1, "X": 1}, "interpolation": 2}]}, "shear_y": {"Points": [{"co": {"Y": 0, "X": 1}, "interpolation": 2}]}, "perspective_c3_y": {"Points": [{"co": {"Y": -1, "X": 1}, "interpolation": 2}]}, "waveform": false, "end": 5, "scale_x": {"Points": [{"co": {"Y": 1, "X": 1}, "interpolation": 2}]}, "image": "/home/milind/.openshot_qt/thumbnail/MZ4ILBST6I.png", "location_y": {"Points": [{"co": {"Y": 0, "X": 1}, "interpolation": 2}]}, "crop_y": {"Points": [{"co": {"Y": 0, "X": 1}, "interpolation": 2}]}, "perspective_c2_y": {"Points": [{"co": {"Y": -1, "X": 1}, "interpolation": 2}]}, "perspective_c1_y": {"Points": [{"co": {"Y": -1, "X": 1}, "interpolation": 2}]}, "title": "!074-Grace Greater Than 10.svg", "perspective_c4_y": {"Points": [{"co": {"Y": -1, "X": 1}, "interpolation": 2}]}, "duration": 86400.0, "wave_color": {"red": {"Points": [{"handle_right": {"Y": 0, "X": 0.5}, "handle_type": 0, "handle_left": {"Y": 1, "X": 0.5}, "co": {"Y": 0, "X": 1}, "interpolation": 0}]}, "green": {"Points": [{"handle_right": {"Y": 0, "X": 0.5}, "handle_type": 0, "handle_left": {"Y": 1, "X": 0.5}, "co": {"Y": 123, "X": 1}, "interpolation": 0}]}, "blue": {"Points": [{"handle_right": {"Y": 0, "X": 0.5}, "handle_type": 0, "handle_left": {"Y": 1, "X": 0.5}, "co": {"Y": 255, "X": 1}, "interpolation": 0}]}, "alpha": {"Points": [{"handle_right": {"Y": 0, "X": 0.5}, "handle_type": 0, "handle_left": {"Y": 1, "X": 0.5}, "co": {"Y": 255, "X": 1}, "interpolation": 0}]}}, "time": {"Points": [{"co": {"Y": 1, "X": 1}, "interpolation": 2}]}, "crop_height": {"Points": [{"co": {"Y": -1, "X": 1}, "interpolation": 2}]}, "scale_y": {"Points": [{"co": {"Y": 1, "X": 1}, "interpolation": 2}]}, "effects": []}, {"location_x": {"Points": [{"co": {"Y": 0, "X": 1}, "interpolation": 2}]}, "perspective_c3_x": {"Points": [{"co": {"Y": -1, "X": 1}, "interpolation": 2}]}, "perspective_c4_x": {"Points": [{"co": {"Y": -1, "X": 1}, "interpolation": 2}]}, "channel_filter": {"Points": [{"co": {"Y": -1, "X": 1}, "interpolation": 2}]}, "perspective_c2_x": {"Points": [{"co": {"Y": -1, "X": 1}, "interpolation": 2}]}, "perspective_c1_x": {"Points": [{"co": {"Y": -1, "X": 1}, "interpolation": 2}]}, "anchor": 0, "alpha": {"Points": [{"co": {"Y": 1, "X": 1}, "interpolation": 2}, {"handle_right": {"Y": 0, "X": 0.5}, "handle_type": 0, "handle_left": {"Y": 1, "X": 0.5}, "co": {"Y": 0, "X": 1}, "interpolation": 0}, {"handle_right": {"Y": 0, "X": 0.5}, "handle_type": 0, "handle_left": {"Y": 1, "X": 0.5}, "co": {"Y": 1, "X": 73}, "interpolation": 0}, {"handle_right": {"Y": 0, "X": 0.5}, "handle_type": 0, "handle_left": {"Y": 1, "X": 0.5}, "co": {"Y": 1, "X": 49}, "interpolation": 0}, {"handle_right": {"Y": 0, "X": 0.5}, "handle_type": 0, "handle_left": {"Y": 1, "X": 0.5}, "co": {"Y": 0, "X": 121}, "interpolation": 0}]}, "id": "2D6KOKWEJY", "layer": 2, "file_id": "55LKUBO9MG", "display": 0, "scale": 1, "gravity": 4, "crop_width": {"Points": [{"co": {"Y": -1, "X": 1}, "interpolation": 2}]}, "crop_x": {"Points": [{"co": {"Y": 0, "X": 1}, "interpolation": 2}]}, "shear_x": {"Points": [{"co": {"Y": 0, "X": 1}, "interpolation": 2}]}, "volume": {"Points": [{"co": {"Y": 1, "X": 1}, "interpolation": 2}]}, "start": 0, "rotation": {"Points": [{"co": {"Y": 0, "X": 1}, "interpolation": 2}]}, "reader": {"video_stream_index": -1, "video_length": "2592000", "interlaced_frame": false, "audio_bit_rate": 0, "audio_timebase": {"den": 1, "num": 1}, "vcodec": "", "channels": 0, "has_video": true, "channel_layout": 4, "has_audio": false, "video_timebase": {"den": 30, "num": 1}, "has_single_image": true, "acodec": "", "video_bit_rate": 0, "display_ratio": {"den": 3827, "num": 6803}, "audio_stream_index": -1, "type": "QtImageReader", "top_field_first": true, "width": 6803, "pixel_ratio": {"den": 1, "num": 1}, "height": 3827, "duration": 86400.0, "file_size": "104140324", "path": "/home/milind/Data/Projects/ProgressCard/!001-Copy (Ctrl-C).svg", "fps": {"den": 1, "num": 30}, "pixel_format": -1, "sample_rate": 0}, "position": 56.791666666666664, "has_video": {"Points": [{"co": {"Y": -1, "X": 1}, "interpolation": 2}]}, "has_audio": {"Points": [{"co": {"Y": -1, "X": 1}, "interpolation": 2}]}, "channel_mapping": {"Points": [{"co": {"Y": -1, "X": 1}, "interpolation": 2}]}, "shear_y": {"Points": [{"co": {"Y": 0, "X": 1}, "interpolation": 2}]}, "perspective_c3_y": {"Points": [{"co": {"Y": -1, "X": 1}, "interpolation": 2}]}, "waveform": false, "end": 5, "scale_x": {"Points": [{"co": {"Y": 1, "X": 1}, "interpolation": 2}]}, "image": "/home/milind/.openshot_qt/thumbnail/55LKUBO9MG.png", "location_y": {"Points": [{"co": {"Y": 0, "X": 1}, "interpolation": 2}]}, "crop_y": {"Points": [{"co": {"Y": 0, "X": 1}, "interpolation": 2}]}, "perspective_c2_y": {"Points": [{"co": {"Y": -1, "X": 1}, "interpolation": 2}]}, "perspective_c1_y": {"Points": [{"co": {"Y": -1, "X": 1}, "interpolation": 2}]}, "title": "!001-Copy (Ctrl-C).svg", "perspective_c4_y": {"Points": [{"co": {"Y": -1, "X": 1}, "interpolation": 2}]}, "duration": 86400.0, "wave_color": {"red": {"Points": [{"handle_right": {"Y": 0, "X": 0.5}, "handle_type": 0, "handle_left": {"Y": 1, "X": 0.5}, "co": {"Y": 0, "X": 1}, "interpolation": 0}]}, "green": {"Points": [{"handle_right": {"Y": 0, "X": 0.5}, "handle_type": 0, "handle_left": {"Y": 1, "X": 0.5}, "co": {"Y": 123, "X": 1}, "interpolation": 0}]}, "blue": {"Points": [{"handle_right": {"Y": 0, "X": 0.5}, "handle_type": 0, "handle_left": {"Y": 1, "X": 0.5}, "co": {"Y": 255, "X": 1}, "interpolation": 0}]}, "alpha": {"Points": [{"handle_right": {"Y": 0, "X": 0.5}, "handle_type": 0, "handle_left": {"Y": 1, "X": 0.5}, "co": {"Y": 255, "X": 1}, "interpolation": 0}]}}, "time": {"Points": [{"co": {"Y": 1, "X": 1}, "interpolation": 2}]}, "crop_height": {"Points": [{"co": {"Y": -1, "X": 1}, "interpolation": 2}]}, "scale_y": {"Points": [{"co": {"Y": 1, "X": 1}, "interpolation": 2}]}, "effects": []}, {"location_x": {"Points": [{"co": {"Y": 0, "X": 1}, "interpolation": 2}]}, "perspective_c3_x": {"Points": [{"co": {"Y": -1, "X": 1}, "interpolation": 2}]}, "perspective_c4_x": {"Points": [{"co": {"Y": -1, "X": 1}, "interpolation": 2}]}, "channel_filter": {"Points": [{"co": {"Y": -1, "X": 1}, "interpolation": 2}]}, "perspective_c2_x": {"Points": [{"co": {"Y": -1, "X": 1}, "interpolation": 2}]}, "perspective_c1_x": {"Points": [{"co": {"Y": -1, "X": 1}, "interpolation": 2}]}, "anchor": 0, "alpha": {"Points": [{"co": {"Y": 1, "X": 1}, "interpolation": 2}, {"handle_right": {"Y": 0, "X": 0.5}, "handle_type": 0, "handle_left": {"Y": 1, "X": 0.5}, "co": {"Y": 0, "X": 1}, "interpolation": 0}, {"handle_right": {"Y": 0, "X": 0.5}, "handle_type": 0, "handle_left": {"Y": 1, "X": 0.5}, "co": {"Y": 1, "X": 73}, "interpolation": 0}, {"handle_right": {"Y": 0, "X": 0.5}, "handle_type": 0, "handle_left": {"Y": 1, "X": 0.5}, "co": {"Y": 1, "X": 49}, "interpolation": 0}, {"handle_right": {"Y": 0, "X": 0.5}, "handle_type": 0, "handle_left": {"Y": 1, "X": 0.5}, "co": {"Y": 0, "X": 121}, "interpolation": 0}]}, "id": "GS9HYSSMO4", "layer": 2, "file_id": "JP5L750RMR", "display": 0, "scale": 1, "gravity": 4, "crop_width": {"Points": [{"co": {"Y": -1, "X": 1}, "interpolation": 2}]}, "crop_x": {"Points": [{"co": {"Y": 0, "X": 1}, "interpolation": 2}]}, "shear_x": {"Points": [{"co": {"Y": 0, "X": 1}, "interpolation": 2}]}, "volume": {"Points": [{"co": {"Y": 1, "X": 1}, "interpolation": 2}]}, "start": 0, "rotation": {"Points": [{"co": {"Y": 0, "X": 1}, "interpolation": 2}]}, "reader": {"video_stream_index": -1, "video_length": "2592000", "interlaced_frame": false, "audio_bit_rate": 0, "audio_timebase": {"den": 1, "num": 1}, "vcodec": "", "channels": 0, "has_video": true, "channel_layout": 4, "has_audio": false, "video_timebase": {"den": 30, "num": 1}, "has_single_image": true, "acodec": "", "video_bit_rate": 0, "display_ratio": {"den": 3827, "num": 6803}, "audio_stream_index": -1, "type": "QtImageReader", "top_field_first": true, "width": 6803, "pixel_ratio": {"den": 1, "num": 1}, "height": 3827, "duration": 86400.0, "file_size": "104140324", "path": "/home/milind/Data/Projects/ProgressCard/!002-Paste (Ctrl-V).svg", "fps": {"den": 1, "num": 30}, "pixel_format": -1, "sample_rate": 0}, "position": 62.25, "has_video": {"Points": [{"co": {"Y": -1, "X": 1}, "interpolation": 2}]}, "has_audio": {"Points": [{"co": {"Y": -1, "X": 1}, "interpolation": 2}]}, "channel_mapping": {"Points": [{"co": {"Y": -1, "X": 1}, "interpolation": 2}]}, "shear_y": {"Points": [{"co": {"Y": 0, "X": 1}, "interpolation": 2}]}, "perspective_c3_y": {"Points": [{"co": {"Y": -1, "X": 1}, "interpolation": 2}]}, "waveform": false, "end": 5, "scale_x": {"Points": [{"co": {"Y": 1, "X": 1}, "interpolation": 2}]}, "image": "/home/milind/.openshot_qt/thumbnail/JP5L750RMR.png", "location_y": {"Points": [{"co": {"Y": 0, "X": 1}, "interpolation": 2}]}, "crop_y": {"Points": [{"co": {"Y": 0, "X": 1}, "interpolation": 2}]}, "perspective_c2_y": {"Points": [{"co": {"Y": -1, "X": 1}, "interpolation": 2}]}, "perspective_c1_y": {"Points": [{"co": {"Y": -1, "X": 1}, "interpolation": 2}]}, "title": "!002-Paste (Ctrl-V).svg", "perspective_c4_y": {"Points": [{"co": {"Y": -1, "X": 1}, "interpolation": 2}]}, "duration": 86400.0, "wave_color": {"red": {"Points": [{"handle_right": {"Y": 0, "X": 0.5}, "handle_type": 0, "handle_left": {"Y": 1, "X": 0.5}, "co": {"Y": 0, "X": 1}, "interpolation": 0}]}, "green": {"Points": [{"handle_right": {"Y": 0, "X": 0.5}, "handle_type": 0, "handle_left": {"Y": 1, "X": 0.5}, "co": {"Y": 123, "X": 1}, "interpolation": 0}]}, "blue": {"Points": [{"handle_right": {"Y": 0, "X": 0.5}, "handle_type": 0, "handle_left": {"Y": 1, "X": 0.5}, "co": {"Y": 255, "X": 1}, "interpolation": 0}]}, "alpha": {"Points": [{"handle_right": {"Y": 0, "X": 0.5}, "handle_type": 0, "handle_left": {"Y": 1, "X": 0.5}, "co": {"Y": 255, "X": 1}, "interpolation": 0}]}}, "time": {"Points": [{"co": {"Y": 1, "X": 1}, "interpolation": 2}]}, "crop_height": {"Points": [{"co": {"Y": -1, "X": 1}, "interpolation": 2}]}, "scale_y": {"Points": [{"co": {"Y": 1, "X": 1}, "interpolation": 2}]}, "effects": []}, {"location_x": {"Points": [{"co": {"Y": 0, "X": 1}, "interpolation": 2}]}, "perspective_c3_y": {"Points": [{"co": {"Y": -1, "X": 1}, "interpolation": 2}]}, "shear_x": {"Points": [{"co": {"Y": 0, "X": 1}, "interpolation": 2}]}, "channel_filter": {"Points": [{"co": {"Y": -1, "X": 1}, "interpolation": 2}]}, "duration": 86400.0, "perspective_c1_x": {"Points": [{"co": {"Y": -1, "X": 1}, "interpolation": 2}]}, "perspective_c2_x": {"Points": [{"co": {"Y": -1, "X": 1}, "interpolation": 2}]}, "alpha": {"Points": [{"co": {"Y": 1, "X": 1}, "interpolation": 2}, {"handle_right": {"Y": 0, "X": 0.5}, "handle_type": 0, "handle_left": {"Y": 1, "X": 0.5}, "co": {"Y": 0, "X": 1}, "interpolation": 0}, {"handle_right": {"Y": 0, "X": 0.5}, "handle_type": 0, "handle_left": {"Y": 1, "X": 0.5}, "co": {"Y": 1, "X": 73}, "interpolation": 0}, {"handle_right": {"Y": 0, "X": 0.5}, "handle_type": 0, "handle_left": {"Y": 1, "X": 0.5}, "co": {"Y": 1, "X": 49}, "interpolation": 0}, {"handle_right": {"Y": 0, "X": 0.5}, "handle_type": 0, "handle_left": {"Y": 1, "X": 0.5}, "co": {"Y": 0, "X": 121}, "interpolation": 0}]}, "id": "J2KJS854LX", "layer": 1, "display": 0, "scale": 1, "gravity": 4, "crop_width": {"Points": [{"co": {"Y": -1, "X": 1}, "interpolation": 2}]}, "crop_x": {"Points": [{"co": {"Y": 0, "X": 1}, "interpolation": 2}]}, "perspective_c4_x": {"Points": [{"co": {"Y": -1, "X": 1}, "interpolation": 2}]}, "volume": {"Points": [{"co": {"Y": 1, "X": 1}, "interpolation": 2}]}, "has_audio": {"Points": [{"co": {"Y": -1, "X": 1}, "interpolation": 2}]}, "rotation": {"Points": [{"co": {"Y": 0, "X": 1}, "interpolation": 2}]}, "crop_y": {"Points": [{"co": {"Y": 0, "X": 1}, "interpolation": 2}]}, "position": 69.76906249999999, "has_video": {"Points": [{"co": {"Y": -1, "X": 1}, "interpolation": 2}]}, "start": 0, "channel_mapping": {"Points": [{"co": {"Y": -1, "X": 1}, "interpolation": 2}]}, "shear_y": {"Points": [{"co": {"Y": 0, "X": 1}, "interpolation": 2}]}, "end": 5, "waveform": false, "perspective_c3_x": {"Points": [{"co": {"Y": -1, "X": 1}, "interpolation": 2}]}, "scale_x": {"Points": [{"co": {"Y": 1, "X": 1}, "interpolation": 2}]}, "image": "/home/milind/.openshot_qt/thumbnail/9MDVH2JM9J.png", "location_y": {"Points": [{"co": {"Y": 0, "X": 1}, "interpolation": 2}]}, "crop_height": {"Points": [{"co": {"Y": -1, "X": 1}, "interpolation": 2}]}, "perspective_c2_y": {"Points": [{"co": {"Y": -1, "X": 1}, "interpolation": 2}]}, "perspective_c1_y": {"Points": [{"co": {"Y": -1, "X": 1}, "interpolation": 2}]}, "title": "!085-Pass or Fail.svg", "perspective_c4_y": {"Points": [{"co": {"Y": -1, "X": 1}, "interpolation": 2}]}, "anchor": 0, "wave_color": {"red": {"Points": [{"handle_right": {"Y": 0, "X": 0.5}, "handle_type": 0, "handle_left": {"Y": 1, "X": 0.5}, "co": {"Y": 0, "X": 1}, "interpolation": 0}]}, "green": {"Points": [{"handle_right": {"Y": 0, "X": 0.5}, "handle_type": 0, "handle_left": {"Y": 1, "X": 0.5}, "co": {"Y": 123, "X": 1}, "interpolation": 0}]}, "blue": {"Points": [{"handle_right": {"Y": 0, "X": 0.5}, "handle_type": 0, "handle_left": {"Y": 1, "X": 0.5}, "co": {"Y": 255, "X": 1}, "interpolation": 0}]}, "alpha": {"Points": [{"handle_right": {"Y": 0, "X": 0.5}, "handle_type": 0, "handle_left": {"Y": 1, "X": 0.5}, "co": {"Y": 255, "X": 1}, "interpolation": 0}]}}, "time": {"Points": [{"co": {"Y": 1, "X": 1}, "interpolation": 2}]}, "effects": [], "file_id": "9MDVH2JM9J", "scale_y": {"Points": [{"co": {"Y": 1, "X": 1}, "interpolation": 2}]}, "reader": {"video_stream_index": -1, "video_length": "2592000", "interlaced_frame": false, "audio_bit_rate": 0, "audio_timebase": {"den": 1, "num": 1}, "vcodec": "", "channels": 0, "has_video": true, "channel_layout": 4, "has_audio": false, "video_timebase": {"den": 30, "num": 1}, "has_single_image": true, "acodec": "", "video_bit_rate": 0, "display_ratio": {"den": 3827, "num": 6803}, "audio_stream_index": -1, "type": "QtImageReader", "top_field_first": true, "width": 6803, "pixel_ratio": {"den": 1, "num": 1}, "height": 3827, "duration": 86400.0, "file_size": "104140324", "path": "/home/milind/Data/Projects/ProgressCard/!085-Pass or Fail.svg", "fps": {"den": 1, "num": 30}, "pixel_format": -1, "sample_rate": 0}}, {"location_x": {"Points": [{"co": {"Y": 0, "X": 1}, "interpolation": 2}]}, "perspective_c3_x": {"Points": [{"co": {"Y": -1, "X": 1}, "interpolation": 2}]}, "perspective_c4_x": {"Points": [{"co": {"Y": -1, "X": 1}, "interpolation": 2}]}, "channel_filter": {"Points": [{"co": {"Y": -1, "X": 1}, "interpolation": 2}]}, "crop_height": {"Points": [{"co": {"Y": -1, "X": 1}, "interpolation": 2}]}, "perspective_c2_x": {"Points": [{"co": {"Y": -1, "X": 1}, "interpolation": 2}]}, "perspective_c1_x": {"Points": [{"co": {"Y": -1, "X": 1}, "interpolation": 2}]}, "anchor": 0, "alpha": {"Points": [{"handle_right": {"Y": 0, "X": 0.5}, "handle_type": 0, "handle_left": {"Y": 1, "X": 0.5}, "co": {"Y": 1, "X": 1}, "interpolation": 0}, {"handle_right": {"Y": 0, "X": 0.5}, "handle_type": 0, "handle_left": {"Y": 1, "X": 0.5}, "co": {"Y": 0, "X": 1}, "interpolation": 0}, {"handle_right": {"Y": 0, "X": 0.5}, "handle_type": 0, "handle_left": {"Y": 1, "X": 0.5}, "co": {"Y": 1, "X": 73}, "interpolation": 0}, {"handle_right": {"Y": 0, "X": 0.5}, "handle_type": 0, "handle_left": {"Y": 1, "X": 0.5}, "co": {"Y": 1, "X": 375}, "interpolation": 0}, {"handle_right": {"Y": 0, "X": 0.5}, "handle_type": 0, "handle_left": {"Y": 1, "X": 0.5}, "co": {"Y": 0, "X": 447}, "interpolation": 0}]}, "id": "UX3VY9TAZP", "layer": 2, "display": 0, "scale": 1, "gravity": 4, "crop_width": {"Points": [{"co": {"Y": -1, "X": 1}, "interpolation": 2}]}, "crop_x": {"Points": [{"co": {"Y": 0, "X": 1}, "interpolation": 2}]}, "shear_x": {"Points": [{"co": {"Y": 0, "X": 1}, "interpolation": 2}]}, "volume": {"Points": [{"co": {"Y": 1, "X": 1}, "interpolation": 2}]}, "has_audio": {"Points": [{"co": {"Y": -1, "X": 1}, "interpolation": 2}]}, "title": "!086-IF GT,GC,TC.svg", "reader": {"video_stream_index": -1, "video_length": "2592000", "interlaced_frame": false, "audio_bit_rate": 0, "audio_timebase": {"den": 1, "num": 1}, "vcodec": "", "channels": 0, "has_video": true, "channel_layout": 4, "has_audio": false, "video_timebase": {"den": 30, "num": 1}, "has_single_image": true, "acodec": "", "video_bit_rate": 0, "display_ratio": {"den": 3827, "num": 6803}, "audio_stream_index": -1, "type": "QtImageReader", "top_field_first": true, "width": 6803, "pixel_ratio": {"den": 1, "num": 1}, "height": 3827, "duration": 86400.0, "file_size": "104140324", "path": "/home/milind/Data/Projects/ProgressCard/!086-IF GT,GC,TC.svg", "fps": {"den": 1, "num": 30}, "pixel_format": -1, "sample_rate": 0}, "position": 85.265625, "has_video": {"Points": [{"co": {"Y": -1, "X": 1}, "interpolation": 2}]}, "start": 0, "channel_mapping": {"Points": [{"co": {"Y": -1, "X": 1}, "interpolation": 2}]}, "shear_y": {"Points": [{"co": {"Y": 0, "X": 1}, "interpolation": 2}]}, "perspective_c3_y": {"Points": [{"co": {"Y": -1, "X": 1}, "interpolation": 2}]}, "waveform": false, "end": 18.599999999999994, "scale_x": {"Points": [{"co": {"Y": 1, "X": 1}, "interpolation": 2}]}, "image": "/home/milind/.openshot_qt/thumbnail/DIHETX3WQ7.png", "location_y": {"Points": [{"co": {"Y": 0, "X": 1}, "interpolation": 2}]}, "crop_y": {"Points": [{"co": {"Y": 0, "X": 1}, "interpolation": 2}]}, "perspective_c2_y": {"Points": [{"co": {"Y": -1, "X": 1}, "interpolation": 2}]}, "perspective_c1_y": {"Points": [{"co": {"Y": -1, "X": 1}, "interpolation": 2}]}, "rotation": {"Points": [{"co": {"Y": 0, "X": 1}, "interpolation": 2}]}, "perspective_c4_y": {"Points": [{"co": {"Y": -1, "X": 1}, "interpolation": 2}]}, "duration": 86400.0, "wave_color": {"red": {"Points": [{"handle_right": {"Y": 0, "X": 0.5}, "handle_type": 0, "handle_left": {"Y": 1, "X": 0.5}, "co": {"Y": 0, "X": 1}, "interpolation": 0}]}, "green": {"Points": [{"handle_right": {"Y": 0, "X": 0.5}, "handle_type": 0, "handle_left": {"Y": 1, "X": 0.5}, "co": {"Y": 123, "X": 1}, "interpolation": 0}]}, "blue": {"Points": [{"handle_right": {"Y": 0, "X": 0.5}, "handle_type": 0, "handle_left": {"Y": 1, "X": 0.5}, "co": {"Y": 255, "X": 1}, "interpolation": 0}]}, "alpha": {"Points": [{"handle_right": {"Y": 0, "X": 0.5}, "handle_type": 0, "handle_left": {"Y": 1, "X": 0.5}, "co": {"Y": 255, "X": 1}, "interpolation": 0}]}}, "time": {"Points": [{"co": {"Y": 1, "X": 1}, "interpolation": 2}]}, "file_id": "DIHETX3WQ7", "scale_y": {"Points": [{"co": {"Y": 1, "X": 1}, "interpolation": 2}]}, "effects": []}, {"location_x": {"Points": [{"co": {"Y": 0, "X": 1}, "interpolation": 2}]}, "perspective_c4_x": {"Points": [{"co": {"Y": -1, "X": 1}, "interpolation": 2}]}, "channel_filter": {"Points": [{"co": {"Y": -1, "X": 1}, "interpolation": 2}]}, "duration": 86400.0, "perspective_c1_x": {"Points": [{"co": {"Y": -1, "X": 1}, "interpolation": 2}]}, "perspective_c2_x": {"Points": [{"co": {"Y": -1, "X": 1}, "interpolation": 2}]}, "alpha": {"Points": [{"co": {"Y": 1, "X": 1}, "interpolation": 2}, {"handle_right": {"Y": 0, "X": 0.5}, "handle_type": 0, "handle_left": {"Y": 1, "X": 0.5}, "co": {"Y": 0, "X": 1}, "interpolation": 0}, {"handle_right": {"Y": 0, "X": 0.5}, "handle_type": 0, "handle_left": {"Y": 1, "X": 0.5}, "co": {"Y": 1, "X": 73}, "interpolation": 0}, {"handle_right": {"Y": 0, "X": 0.5}, "handle_type": 0, "handle_left": {"Y": 1, "X": 0.5}, "co": {"Y": 1, "X": 49}, "interpolation": 0}, {"handle_right": {"Y": 0, "X": 0.5}, "handle_type": 0, "handle_left": {"Y": 1, "X": 0.5}, "co": {"Y": 0, "X": 121}, "interpolation": 0}]}, "id": "ISJOMX8TQ1", "layer": 2, "display": 0, "scale": 1, "gravity": 4, "crop_width": {"Points": [{"co": {"Y": -1, "X": 1}, "interpolation": 2}]}, "crop_x": {"Points": [{"co": {"Y": 0, "X": 1}, "interpolation": 2}]}, "shear_x": {"Points": [{"co": {"Y": 0, "X": 1}, "interpolation": 2}]}, "volume": {"Points": [{"co": {"Y": 1, "X": 1}, "interpolation": 2}]}, "start": 0, "end": 5, "title": "!105-Average.svg", "crop_y": {"Points": [{"co": {"Y": 0, "X": 1}, "interpolation": 2}]}, "reader": {"video_stream_index": -1, "video_length": "2592000", "interlaced_frame": false, "audio_bit_rate": 0, "audio_timebase": {"den": 1, "num": 1}, "vcodec": "", "channels": 0, "has_video": true, "channel_layout": 4, "has_audio": false, "video_timebase": {"den": 30, "num": 1}, "has_single_image": true, "acodec": "", "video_bit_rate": 0, "display_ratio": {"den": 3827, "num": 6803}, "audio_stream_index": -1, "type": "QtImageReader", "top_field_first": true, "width": 6803, "pixel_ratio": {"den": 1, "num": 1}, "height": 3827, "duration": 86400.0, "file_size": "104140324", "path": "/home/milind/Data/Projects/ProgressCard/!105-Average.svg", "fps": {"den": 1, "num": 30}, "pixel_format": -1, "sample_rate": 0}, "position": 128.11499999999998, "has_video": {"Points": [{"co": {"Y": -1, "X": 1}, "interpolation": 2}]}, "has_audio": {"Points": [{"co": {"Y": -1, "X": 1}, "interpolation": 2}]}, "channel_mapping": {"Points": [{"co": {"Y": -1, "X": 1}, "interpolation": 2}]}, "shear_y": {"Points": [{"co": {"Y": 0, "X": 1}, "interpolation": 2}]}, "perspective_c3_y": {"Points": [{"co": {"Y": -1, "X": 1}, "interpolation": 2}]}, "waveform": false, "perspective_c3_x": {"Points": [{"co": {"Y": -1, "X": 1}, "interpolation": 2}]}, "scale_x": {"Points": [{"co": {"Y": 1, "X": 1}, "interpolation": 2}]}, "image": "/home/milind/.openshot_qt/thumbnail/1QJRY2QLTK.png", "location_y": {"Points": [{"co": {"Y": 0, "X": 1}, "interpolation": 2}]}, "file_id": "1QJRY2QLTK", "perspective_c2_y": {"Points": [{"co": {"Y": -1, "X": 1}, "interpolation": 2}]}, "perspective_c1_y": {"Points": [{"co": {"Y": -1, "X": 1}, "interpolation": 2}]}, "rotation": {"Points": [{"co": {"Y": 0, "X": 1}, "interpolation": 2}]}, "perspective_c4_y": {"Points": [{"co": {"Y": -1, "X": 1}, "interpolation": 2}]}, "anchor": 0, "wave_color": {"red": {"Points": [{"handle_right": {"Y": 0, "X": 0.5}, "handle_type": 0, "handle_left": {"Y": 1, "X": 0.5}, "co": {"Y": 0, "X": 1}, "interpolation": 0}]}, "green": {"Points": [{"handle_right": {"Y": 0, "X": 0.5}, "handle_type": 0, "handle_left": {"Y": 1, "X": 0.5}, "co": {"Y": 123, "X": 1}, "interpolation": 0}]}, "blue": {"Points": [{"handle_right": {"Y": 0, "X": 0.5}, "handle_type": 0, "handle_left": {"Y": 1, "X": 0.5}, "co": {"Y": 255, "X": 1}, "interpolation": 0}]}, "alpha": {"Points": [{"handle_right": {"Y": 0, "X": 0.5}, "handle_type": 0, "handle_left": {"Y": 1, "X": 0.5}, "co": {"Y": 255, "X": 1}, "interpolation": 0}]}}, "time": {"Points": [{"co": {"Y": 1, "X": 1}, "interpolation": 2}]}, "crop_height": {"Points": [{"co": {"Y": -1, "X": 1}, "interpolation": 2}]}, "scale_y": {"Points": [{"co": {"Y": 1, "X": 1}, "interpolation": 2}]}, "effects": []}, {"location_x": {"Points": [{"handle_right": {"Y": 0, "X": 0.5}, "handle_type": 0, "handle_left": {"Y": 1, "X": 0.5}, "co": {"Y": 0, "X": 1}, "interpolation": 0}]}, "perspective_c4_x": {"Points": [{"co": {"Y": -1, "X": 1}, "interpolation": 2}]}, "channel_filter": {"Points": [{"co": {"Y": -1, "X": 1}, "interpolation": 2}]}, "duration": 86400.0, "perspective_c1_x": {"Points": [{"co": {"Y": -1, "X": 1}, "interpolation": 2}]}, "perspective_c2_x": {"Points": [{"co": {"Y": -1, "X": 1}, "interpolation": 2}]}, "alpha": {"Points": [{"co": {"Y": 1, "X": 1}, "interpolation": 2}, {"handle_right": {"Y": 0, "X": 0.5}, "handle_type": 0, "handle_left": {"Y": 1, "X": 0.5}, "co": {"Y": 0, "X": 1}, "interpolation": 0}, {"handle_right": {"Y": 0, "X": 0.5}, "handle_type": 0, "handle_left": {"Y": 1, "X": 0.5}, "co": {"Y": 1, "X": 73}, "interpolation": 0}, {"handle_right": {"Y": 0, "X": 0.5}, "handle_type": 0, "handle_left": {"Y": 1, "X": 0.5}, "co": {"Y": 1, "X": 49}, "interpolation": 0}, {"handle_right": {"Y": 0, "X": 0.5}, "handle_type": 0, "handle_left": {"Y": 1, "X": 0.5}, "co": {"Y": 0, "X": 121}, "interpolation": 0}]}, "id": "98IX31JWVL", "layer": 3, "display": 0, "scale": 1, "gravity": 4, "crop_width": {"Points": [{"co": {"Y": -1, "X": 1}, "interpolation": 2}]}, "crop_x": {"Points": [{"co": {"Y": 0, "X": 1}, "interpolation": 2}]}, "shear_x": {"Points": [{"co": {"Y": 0, "X": 1}, "interpolation": 2}]}, "volume": {"Points": [{"co": {"Y": 1, "X": 1}, "interpolation": 2}]}, "start": 0, "end": 5, "title": "!113-Menu-Format-Cells.svg", "crop_y": {"Points": [{"co": {"Y": 0, "X": 1}, "interpolation": 2}]}, "reader": {"video_stream_index": -1, "video_length": "2592000", "interlaced_frame": false, "audio_bit_rate": 0, "audio_timebase": {"den": 1, "num": 1}, "vcodec": "", "channels": 0, "has_video": true, "channel_layout": 4, "has_audio": false, "video_timebase": {"den": 30, "num": 1}, "has_single_image": true, "acodec": "", "video_bit_rate": 0, "display_ratio": {"den": 3827, "num": 6803}, "audio_stream_index": -1, "type": "QtImageReader", "top_field_first": true, "width": 6803, "pixel_ratio": {"den": 1, "num": 1}, "height": 3827, "duration": 86400.0, "file_size": "104140324", "path": "/home/milind/Data/Projects/ProgressCard/!113-Menu-Format-Cells.svg", "fps": {"den": 1, "num": 30}, "pixel_format": -1, "sample_rate": 0}, "position": 140.165, "has_video": {"Points": [{"co": {"Y": -1, "X": 1}, "interpolation": 2}]}, "has_audio": {"Points": [{"co": {"Y": -1, "X": 1}, "interpolation": 2}]}, "channel_mapping": {"Points": [{"co": {"Y": -1, "X": 1}, "interpolation": 2}]}, "shear_y": {"Points": [{"co": {"Y": 0, "X": 1}, "interpolation": 2}]}, "perspective_c3_y": {"Points": [{"co": {"Y": -1, "X": 1}, "interpolation": 2}]}, "waveform": false, "perspective_c3_x": {"Points": [{"co": {"Y": -1, "X": 1}, "interpolation": 2}]}, "scale_x": {"Points": [{"handle_right": {"Y": 0, "X": 0.5}, "handle_type": 0, "handle_left": {"Y": 1, "X": 0.5}, "co": {"Y": 1, "X": 1}, "interpolation": 0}]}, "image": "/home/milind/.openshot_qt/thumbnail/LKFVWV6XVE.png", "location_y": {"Points": [{"handle_right": {"Y": 0, "X": 0.5}, "handle_type": 0, "handle_left": {"Y": 1, "X": 0.5}, "co": {"Y": -0.05999999865889549, "X": 1}, "interpolation": 0}]}, "file_id": "LKFVWV6XVE", "perspective_c2_y": {"Points": [{"co": {"Y": -1, "X": 1}, "interpolation": 2}]}, "perspective_c1_y": {"Points": [{"co": {"Y": -1, "X": 1}, "interpolation": 2}]}, "rotation": {"Points": [{"co": {"Y": 0, "X": 1}, "interpolation": 2}]}, "perspective_c4_y": {"Points": [{"co": {"Y": -1, "X": 1}, "interpolation": 2}]}, "anchor": 0, "wave_color": {"red": {"Points": [{"handle_right": {"Y": 0, "X": 0.5}, "handle_type": 0, "handle_left": {"Y": 1, "X": 0.5}, "co": {"Y": 0, "X": 1}, "interpolation": 0}]}, "green": {"Points": [{"handle_right": {"Y": 0, "X": 0.5}, "handle_type": 0, "handle_left": {"Y": 1, "X": 0.5}, "co": {"Y": 123, "X": 1}, "interpolation": 0}]}, "blue": {"Points": [{"handle_right": {"Y": 0, "X": 0.5}, "handle_type": 0, "handle_left": {"Y": 1, "X": 0.5}, "co": {"Y": 255, "X": 1}, "interpolation": 0}]}, "alpha": {"Points": [{"handle_right": {"Y": 0, "X": 0.5}, "handle_type": 0, "handle_left": {"Y": 1, "X": 0.5}, "co": {"Y": 255, "X": 1}, "interpolation": 0}]}}, "time": {"Points": [{"co": {"Y": 1, "X": 1}, "interpolation": 2}]}, "crop_height": {"Points": [{"co": {"Y": -1, "X": 1}, "interpolation": 2}]}, "scale_y": {"Points": [{"handle_right": {"Y": 0, "X": 0.5}, "handle_type": 0, "handle_left": {"Y": 1, "X": 0.5}, "co": {"Y": 1, "X": 1}, "interpolation": 0}]}, "effects": []}, {"location_x": {"Points": [{"co": {"Y": 0, "X": 1}, "interpolation": 2}]}, "perspective_c4_x": {"Points": [{"co": {"Y": -1, "X": 1}, "interpolation": 2}]}, "channel_filter": {"Points": [{"co": {"Y": -1, "X": 1}, "interpolation": 2}]}, "duration": 86400.0, "perspective_c1_x": {"Points": [{"co": {"Y": -1, "X": 1}, "interpolation": 2}]}, "perspective_c2_x": {"Points": [{"co": {"Y": -1, "X": 1}, "interpolation": 2}]}, "alpha": {"Points": [{"co": {"Y": 1, "X": 1}, "interpolation": 2}, {"handle_right": {"Y": 0, "X": 0.5}, "handle_type": 0, "handle_left": {"Y": 1, "X": 0.5}, "co": {"Y": 0, "X": 1}, "interpolation": 0}, {"handle_right": {"Y": 0, "X": 0.5}, "handle_type": 0, "handle_left": {"Y": 1, "X": 0.5}, "co": {"Y": 1, "X": 73}, "interpolation": 0}, {"handle_right": {"Y": 0, "X": 0.5}, "handle_type": 0, "handle_left": {"Y": 1, "X": 0.5}, "co": {"Y": 1, "X": 49}, "interpolation": 0}, {"handle_right": {"Y": 0, "X": 0.5}, "handle_type": 0, "handle_left": {"Y": 1, "X": 0.5}, "co": {"Y": 0, "X": 121}, "interpolation": 0}]}, "id": "TREDM9MF0N", "layer": 3, "display": 0, "scale": 1, "gravity": 4, "crop_width": {"Points": [{"co": {"Y": -1, "X": 1}, "interpolation": 2}]}, "crop_x": {"Points": [{"co": {"Y": 0, "X": 1}, "interpolation": 2}]}, "shear_x": {"Points": [{"co": {"Y": 0, "X": 1}, "interpolation": 2}]}, "volume": {"Points": [{"co": {"Y": 1, "X": 1}, "interpolation": 2}]}, "start": 0, "end": 5, "title": "!114-We need only 2 decimal places.svg", "crop_y": {"Points": [{"co": {"Y": 0, "X": 1}, "interpolation": 2}]}, "reader": {"video_stream_index": -1, "video_length": "2592000", "interlaced_frame": false, "audio_bit_rate": 0, "audio_timebase": {"den": 1, "num": 1}, "vcodec": "", "channels": 0, "has_video": true, "channel_layout": 4, "has_audio": false, "video_timebase": {"den": 30, "num": 1}, "has_single_image": true, "acodec": "", "video_bit_rate": 0, "display_ratio": {"den": 3827, "num": 6803}, "audio_stream_index": -1, "type": "QtImageReader", "top_field_first": true, "width": 6803, "pixel_ratio": {"den": 1, "num": 1}, "height": 3827, "duration": 86400.0, "file_size": "104140324", "path": "/home/milind/Data/Projects/ProgressCard/!114-We need only 2 decimal places.svg", "fps": {"den": 1, "num": 30}, "pixel_format": -1, "sample_rate": 0}, "position": 145.1640625, "has_video": {"Points": [{"co": {"Y": -1, "X": 1}, "interpolation": 2}]}, "has_audio": {"Points": [{"co": {"Y": -1, "X": 1}, "interpolation": 2}]}, "channel_mapping": {"Points": [{"co": {"Y": -1, "X": 1}, "interpolation": 2}]}, "shear_y": {"Points": [{"co": {"Y": 0, "X": 1}, "interpolation": 2}]}, "perspective_c3_y": {"Points": [{"co": {"Y": -1, "X": 1}, "interpolation": 2}]}, "waveform": false, "perspective_c3_x": {"Points": [{"co": {"Y": -1, "X": 1}, "interpolation": 2}]}, "scale_x": {"Points": [{"co": {"Y": 1, "X": 1}, "interpolation": 2}]}, "image": "/home/milind/.openshot_qt/thumbnail/GS94V0HQUR.png", "location_y": {"Points": [{"co": {"Y": 0, "X": 1}, "interpolation": 2}]}, "file_id": "GS94V0HQUR", "perspective_c2_y": {"Points": [{"co": {"Y": -1, "X": 1}, "interpolation": 2}]}, "perspective_c1_y": {"Points": [{"co": {"Y": -1, "X": 1}, "interpolation": 2}]}, "rotation": {"Points": [{"co": {"Y": 0, "X": 1}, "interpolation": 2}]}, "perspective_c4_y": {"Points": [{"co": {"Y": -1, "X": 1}, "interpolation": 2}]}, "anchor": 0, "wave_color": {"red": {"Points": [{"handle_right": {"Y": 0, "X": 0.5}, "handle_type": 0, "handle_left": {"Y": 1, "X": 0.5}, "co": {"Y": 0, "X": 1}, "interpolation": 0}]}, "green": {"Points": [{"handle_right": {"Y": 0, "X": 0.5}, "handle_type": 0, "handle_left": {"Y": 1, "X": 0.5}, "co": {"Y": 123, "X": 1}, "interpolation": 0}]}, "blue": {"Points": [{"handle_right": {"Y": 0, "X": 0.5}, "handle_type": 0, "handle_left": {"Y": 1, "X": 0.5}, "co": {"Y": 255, "X": 1}, "interpolation": 0}]}, "alpha": {"Points": [{"handle_right": {"Y": 0, "X": 0.5}, "handle_type": 0, "handle_left": {"Y": 1, "X": 0.5}, "co": {"Y": 255, "X": 1}, "interpolation": 0}]}}, "time": {"Points": [{"co": {"Y": 1, "X": 1}, "interpolation": 2}]}, "crop_height": {"Points": [{"co": {"Y": -1, "X": 1}, "interpolation": 2}]}, "scale_y": {"Points": [{"co": {"Y": 1, "X": 1}, "interpolation": 2}]}, "effects": []}, {"perspective_c3_y": {"Points": [{"co": {"Y": -1, "X": 1}, "interpolation": 2}]}, "shear_x": {"Points": [{"co": {"Y": 0, "X": 1}, "interpolation": 2}]}, "channel_filter": {"Points": [{"co": {"Y": -1, "X": 1}, "interpolation": 2}]}, "duration": 86400.0, "perspective_c1_x": {"Points": [{"co": {"Y": -1, "X": 1}, "interpolation": 2}]}, "perspective_c2_x": {"Points": [{"co": {"Y": -1, "X": 1}, "interpolation": 2}]}, "alpha": {"Points": [{"handle_right": {"Y": 0, "X": 0.5}, "handle_type": 0, "handle_left": {"Y": 1, "X": 0.5}, "co": {"Y": 1, "X": 1}, "interpolation": 0}, {"handle_right": {"Y": 0, "X": 0.5}, "handle_type": 0, "handle_left": {"Y": 1, "X": 0.5}, "co": {"Y": 0, "X": 1}, "interpolation": 0}, {"handle_right": {"Y": 0, "X": 0.5}, "handle_type": 0, "handle_left": {"Y": 1, "X": 0.5}, "co": {"Y": 1, "X": 73}, "interpolation": 0}, {"handle_right": {"Y": 0, "X": 0.5}, "handle_type": 0, "handle_left": {"Y": 1, "X": 0.5}, "co": {"Y": 1, "X": 216}, "interpolation": 0}, {"handle_right": {"Y": 0, "X": 0.5}, "handle_type": 0, "handle_left": {"Y": 1, "X": 0.5}, "co": {"Y": 0, "X": 288}, "interpolation": 0}]}, "id": "MDW7G3JTN7", "layer": 2, "file_id": "BS7QREURZM", "display": 0, "scale": 1, "gravity": 4, "crop_width": {"Points": [{"co": {"Y": -1, "X": 1}, "interpolation": 2}]}, "crop_x": {"Points": [{"co": {"Y": 0, "X": 1}, "interpolation": 2}]}, "perspective_c4_x": {"Points": [{"co": {"Y": -1, "X": 1}, "interpolation": 2}]}, "volume": {"Points": [{"co": {"Y": 1, "X": 1}, "interpolation": 2}]}, "start": 0, "rotation": {"Points": [{"co": {"Y": 0, "X": 1}, "interpolation": 2}]}, "crop_y": {"Points": [{"co": {"Y": 0, "X": 1}, "interpolation": 2}]}, "position": 103.86000061035156, "has_video": {"Points": [{"co": {"Y": -1, "X": 1}, "interpolation": 2}]}, "has_audio": {"Points": [{"co": {"Y": -1, "X": 1}, "interpolation": 2}]}, "channel_mapping": {"Points": [{"co": {"Y": -1, "X": 1}, "interpolation": 2}]}, "end": 11.97, "shear_y": {"Points": [{"co": {"Y": 0, "X": 1}, "interpolation": 2}]}, "perspective_c3_x": {"Points": [{"co": {"Y": -1, "X": 1}, "interpolation": 2}]}, "scale_x": {"Points": [{"co": {"Y": 1, "X": 1}, "interpolation": 2}]}, "location_x": {"Points": [{"co": {"Y": 0, "X": 1}, "interpolation": 2}]}, "location_y": {"Points": [{"co": {"Y": 0, "X": 1}, "interpolation": 2}]}, "image": "/home/milind/.openshot_qt/thumbnail/BS7QREURZM.png", "perspective_c2_y": {"Points": [{"co": {"Y": -1, "X": 1}, "interpolation": 2}]}, "waveform": false, "perspective_c1_y": {"Points": [{"co": {"Y": -1, "X": 1}, "interpolation": 2}]}, "title": "!086-Then Fail Else Pass.svg", "perspective_c4_y": {"Points": [{"co": {"Y": -1, "X": 1}, "interpolation": 2}]}, "anchor": 0, "wave_color": {"red": {"Points": [{"handle_right": {"Y": 0, "X": 0.5}, "handle_type": 0, "handle_left": {"Y": 1, "X": 0.5}, "co": {"Y": 0, "X": 1}, "interpolation": 0}]}, "green": {"Points": [{"handle_right": {"Y": 0, "X": 0.5}, "handle_type": 0, "handle_left": {"Y": 1, "X": 0.5}, "co": {"Y": 123, "X": 1}, "interpolation": 0}]}, "blue": {"Points": [{"handle_right": {"Y": 0, "X": 0.5}, "handle_type": 0, "handle_left": {"Y": 1, "X": 0.5}, "co": {"Y": 255, "X": 1}, "interpolation": 0}]}, "alpha": {"Points": [{"handle_right": {"Y": 0, "X": 0.5}, "handle_type": 0, "handle_left": {"Y": 1, "X": 0.5}, "co": {"Y": 255, "X": 1}, "interpolation": 0}]}}, "time": {"Points": [{"co": {"Y": 1, "X": 1}, "interpolation": 2}]}, "effects": [], "crop_height": {"Points": [{"co": {"Y": -1, "X": 1}, "interpolation": 2}]}, "scale_y": {"Points": [{"co": {"Y": 1, "X": 1}, "interpolation": 2}]}, "reader": {"video_stream_index": -1, "top_field_first": true, "interlaced_frame": false, "audio_bit_rate": 0, "audio_timebase": {"den": 1, "num": 1}, "duration": 86400.0, "channels": 0, "has_video": true, "channel_layout": 4, "has_audio": false, "video_timebase": {"den": 30, "num": 1}, "has_single_image": true, "acodec": "", "video_bit_rate": 0, "display_ratio": {"den": 3827, "num": 6803}, "audio_stream_index": -1, "type": "QtImageReader", "video_length": "2592000", "width": 6803, "pixel_ratio": {"den": 1, "num": 1}, "height": 3827, "vcodec": "", "file_size": "104140324", "path": "/home/milind/Data/Projects/ProgressCard/!086-Then Fail Else Pass.svg", "fps": {"den": 1, "num": 30}, "pixel_format": -1, "sample_rate": 0}}, {"perspective_c3_y": {"Points": [{"co": {"Y": -1, "X": 1}, "interpolation": 2}]}, "shear_x": {"Points": [{"co": {"Y": 0, "X": 1}, "interpolation": 2}]}, "channel_filter": {"Points": [{"co": {"Y": -1, "X": 1}, "interpolation": 2}]}, "duration": 86400.0, "perspective_c1_x": {"Points": [{"co": {"Y": -1, "X": 1}, "interpolation": 2}]}, "perspective_c2_x": {"Points": [{"co": {"Y": -1, "X": 1}, "interpolation": 2}]}, "alpha": {"Points": [{"co": {"Y": 1, "X": 1}, "interpolation": 2}, {"handle_right": {"Y": 0, "X": 0.5}, "handle_type": 0, "handle_left": {"Y": 1, "X": 0.5}, "co": {"Y": 0, "X": 1}, "interpolation": 0}, {"handle_right": {"Y": 0, "X": 0.5}, "handle_type": 0, "handle_left": {"Y": 1, "X": 0.5}, "co": {"Y": 1, "X": 73}, "interpolation": 0}, {"handle_right": {"Y": 0, "X": 0.5}, "handle_type": 0, "handle_left": {"Y": 1, "X": 0.5}, "co": {"Y": 1, "X": 102}, "interpolation": 0}, {"handle_right": {"Y": 0, "X": 0.5}, "handle_type": 0, "handle_left": {"Y": 1, "X": 0.5}, "co": {"Y": 0, "X": 174}, "interpolation": 0}]}, "id": "CXD9GF0U7L", "layer": 2, "file_id": "AA811BEMSM", "display": 0, "scale": 1, "gravity": 4, "crop_width": {"Points": [{"co": {"Y": -1, "X": 1}, "interpolation": 2}]}, "crop_x": {"Points": [{"co": {"Y": 0, "X": 1}, "interpolation": 2}]}, "perspective_c4_x": {"Points": [{"co": {"Y": -1, "X": 1}, "interpolation": 2}]}, "volume": {"Points": [{"co": {"Y": 1, "X": 1}, "interpolation": 2}]}, "start": 0, "rotation": {"Points": [{"co": {"Y": 0, "X": 1}, "interpolation": 2}]}, "crop_y": {"Points": [{"co": {"Y": 0, "X": 1}, "interpolation": 2}]}, "position": 177.65796874999998, "has_video": {"Points": [{"co": {"Y": -1, "X": 1}, "interpolation": 2}]}, "has_audio": {"Points": [{"co": {"Y": -1, "X": 1}, "interpolation": 2}]}, "channel_mapping": {"Points": [{"co": {"Y": -1, "X": 1}, "interpolation": 2}]}, "end": 7.21, "shear_y": {"Points": [{"co": {"Y": 0, "X": 1}, "interpolation": 2}]}, "perspective_c3_x": {"Points": [{"co": {"Y": -1, "X": 1}, "interpolation": 2}]}, "scale_x": {"Points": [{"co": {"Y": 1, "X": 1}, "interpolation": 2}]}, "location_x": {"Points": [{"co": {"Y": 0, "X": 1}, "interpolation": 2}]}, "location_y": {"Points": [{"co": {"Y": 0, "X": 1}, "interpolation": 2}]}, "image": "/home/milind/.openshot_qt/thumbnail/AA811BEMSM.png", "perspective_c2_y": {"Points": [{"co": {"Y": -1, "X": 1}, "interpolation": 2}]}, "waveform": false, "perspective_c1_y": {"Points": [{"co": {"Y": -1, "X": 1}, "interpolation": 2}]}, "title": "!135-Grade.svg", "perspective_c4_y": {"Points": [{"co": {"Y": -1, "X": 1}, "interpolation": 2}]}, "anchor": 0, "wave_color": {"blue": {"Points": [{"handle_right": {"Y": 0, "X": 0.5}, "handle_type": 0, "handle_left": {"Y": 1, "X": 0.5}, "co": {"Y": 255, "X": 1}, "interpolation": 0}]}, "green": {"Points": [{"handle_right": {"Y": 0, "X": 0.5}, "handle_type": 0, "handle_left": {"Y": 1, "X": 0.5}, "co": {"Y": 123, "X": 1}, "interpolation": 0}]}, "red": {"Points": [{"handle_right": {"Y": 0, "X": 0.5}, "handle_type": 0, "handle_left": {"Y": 1, "X": 0.5}, "co": {"Y": 0, "X": 1}, "interpolation": 0}]}, "alpha": {"Points": [{"handle_right": {"Y": 0, "X": 0.5}, "handle_type": 0, "handle_left": {"Y": 1, "X": 0.5}, "co": {"Y": 255, "X": 1}, "interpolation": 0}]}}, "time": {"Points": [{"co": {"Y": 1, "X": 1}, "interpolation": 2}]}, "effects": [], "crop_height": {"Points": [{"co": {"Y": -1, "X": 1}, "interpolation": 2}]}, "scale_y": {"Points": [{"co": {"Y": 1, "X": 1}, "interpolation": 2}]}, "reader": {"video_stream_index": -1, "top_field_first": true, "interlaced_frame": false, "audio_bit_rate": 0, "audio_timebase": {"den": 1, "num": 1}, "duration": 86400.0, "channels": 0, "has_video": true, "channel_layout": 4, "has_audio": false, "video_timebase": {"den": 30, "num": 1}, "has_single_image": true, "acodec": "", "video_bit_rate": 0, "display_ratio": {"den": 3827, "num": 6803}, "audio_stream_index": -1, "type": "QtImageReader", "video_length": "2592000", "width": 6803, "pixel_ratio": {"den": 1, "num": 1}, "height": 3827, "vcodec": "", "file_size": "104140324", "path": "/home/milind/Data/Projects/ProgressCard/!135-Grade.svg", "fps": {"den": 1, "num": 30}, "pixel_format": -1, "sample_rate": 0}}, {"perspective_c3_y": {"Points": [{"co": {"Y": -1, "X": 1}, "interpolation": 2}]}, "shear_x": {"Points": [{"co": {"Y": 0, "X": 1}, "interpolation": 2}]}, "channel_filter": {"Points": [{"co": {"Y": -1, "X": 1}, "interpolation": 2}]}, "duration": 86400.0, "perspective_c1_x": {"Points": [{"co": {"Y": -1, "X": 1}, "interpolation": 2}]}, "perspective_c2_x": {"Points": [{"co": {"Y": -1, "X": 1}, "interpolation": 2}]}, "alpha": {"Points": [{"co": {"Y": 1, "X": 1}, "interpolation": 2}]}, "id": "DVT7KHN9HZ", "layer": 2, "file_id": "U4HEYX76VH", "display": 0, "scale": 1, "gravity": 4, "crop_width": {"Points": [{"co": {"Y": -1, "X": 1}, "interpolation": 2}]}, "crop_x": {"Points": [{"co": {"Y": 0, "X": 1}, "interpolation": 2}]}, "perspective_c4_x": {"Points": [{"co": {"Y": -1, "X": 1}, "interpolation": 2}]}, "volume": {"Points": [{"co": {"Y": 1, "X": 1}, "interpolation": 2}]}, "start": 0, "rotation": {"Points": [{"co": {"Y": 0, "X": 1}, "interpolation": 2}]}, "crop_y": {"Points": [{"co": {"Y": 0, "X": 1}, "interpolation": 2}]}, "position": 196.41666666666666, "has_video": {"Points": [{"co": {"Y": -1, "X": 1}, "interpolation": 2}]}, "has_audio": {"Points": [{"co": {"Y": -1, "X": 1}, "interpolation": 2}]}, "channel_mapping": {"Points": [{"co": {"Y": -1, "X": 1}, "interpolation": 2}]}, "end": 5, "shear_y": {"Points": [{"co": {"Y": 0, "X": 1}, "interpolation": 2}]}, "perspective_c3_x": {"Points": [{"co": {"Y": -1, "X": 1}, "interpolation": 2}]}, "scale_x": {"Points": [{"co": {"Y": 1, "X": 1}, "interpolation": 2}]}, "location_x": {"Points": [{"co": {"Y": 0, "X": 1}, "interpolation": 2}]}, "location_y": {"Points": [{"co": {"Y": 0, "X": 1}, "interpolation": 2}]}, "image": "/home/milind/.openshot_qt/thumbnail/U4HEYX76VH.png", "perspective_c2_y": {"Points": [{"co": {"Y": -1, "X": 1}, "interpolation": 2}]}, "waveform": false, "perspective_c1_y": {"Points": [{"co": {"Y": -1, "X": 1}, "interpolation": 2}]}, "title": "!145-PROMOTED.svg", "perspective_c4_y": {"Points": [{"co": {"Y": -1, "X": 1}, "interpolation": 2}]}, "anchor": 0, "wave_color": {"blue": {"Points": [{"handle_right": {"Y": 0, "X": 0.5}, "handle_type": 0, "handle_left": {"Y": 1, "X": 0.5}, "co": {"Y": 255, "X": 1}, "interpolation": 0}]}, "green": {"Points": [{"handle_right": {"Y": 0, "X": 0.5}, "handle_type": 0, "handle_left": {"Y": 1, "X": 0.5}, "co": {"Y": 123, "X": 1}, "interpolation": 0}]}, "red": {"Points": [{"handle_right": {"Y": 0, "X": 0.5}, "handle_type": 0, "handle_left": {"Y": 1, "X": 0.5}, "co": {"Y": 0, "X": 1}, "interpolation": 0}]}, "alpha": {"Points": [{"handle_right": {"Y": 0, "X": 0.5}, "handle_type": 0, "handle_left": {"Y": 1, "X": 0.5}, "co": {"Y": 255, "X": 1}, "interpolation": 0}]}}, "time": {"Points": [{"co": {"Y": 1, "X": 1}, "interpolation": 2}]}, "effects": [], "crop_height": {"Points": [{"co": {"Y": -1, "X": 1}, "interpolation": 2}]}, "scale_y": {"Points": [{"co": {"Y": 1, "X": 1}, "interpolation": 2}]}, "reader": {"video_stream_index": -1, "top_field_first": true, "interlaced_frame": false, "audio_bit_rate": 0, "audio_timebase": {"den": 1, "num": 1}, "duration": 86400.0, "channels": 0, "has_video": true, "channel_layout": 4, "has_audio": false, "video_timebase": {"den": 30, "num": 1}, "has_single_image": true, "acodec": "", "video_bit_rate": 0, "display_ratio": {"den": 3827, "num": 6803}, "audio_stream_index": -1, "type": "QtImageReader", "video_length": "2592000", "width": 6803, "pixel_ratio": {"den": 1, "num": 1}, "height": 3827, "vcodec": "", "file_size": "104140324", "path": "/home/milind/Data/Projects/ProgressCard/!145-PROMOTED.svg", "fps": {"den": 1, "num": 30}, "pixel_format": -1, "sample_rate": 0}}, {"perspective_c3_y": {"Points": [{"co": {"Y": -1, "X": 1}, "interpolation": 2}]}, "shear_x": {"Points": [{"co": {"Y": 0, "X": 1}, "interpolation": 2}]}, "channel_filter": {"Points": [{"co": {"Y": -1, "X": 1}, "interpolation": 2}]}, "duration": 86400.0, "perspective_c1_x": {"Points": [{"co": {"Y": -1, "X": 1}, "interpolation": 2}]}, "perspective_c2_x": {"Points": [{"co": {"Y": -1, "X": 1}, "interpolation": 2}]}, "alpha": {"Points": [{"co": {"Y": 1, "X": 1}, "interpolation": 2}]}, "id": "53HWYMUXFZ", "layer": 2, "file_id": "QKE4L0GUDK", "display": 0, "scale": 1, "gravity": 4, "crop_width": {"Points": [{"co": {"Y": -1, "X": 1}, "interpolation": 2}]}, "crop_x": {"Points": [{"co": {"Y": 0, "X": 1}, "interpolation": 2}]}, "perspective_c4_x": {"Points": [{"co": {"Y": -1, "X": 1}, "interpolation": 2}]}, "volume": {"Points": [{"co": {"Y": 1, "X": 1}, "interpolation": 2}]}, "start": 0, "rotation": {"Points": [{"co": {"Y": 0, "X": 1}, "interpolation": 2}]}, "crop_y": {"Points": [{"co": {"Y": 0, "X": 1}, "interpolation": 2}]}, "position": 208.92999999999998, "has_video": {"Points": [{"co": {"Y": -1, "X": 1}, "interpolation": 2}]}, "has_audio": {"Points": [{"co": {"Y": -1, "X": 1}, "interpolation": 2}]}, "channel_mapping": {"Points": [{"co": {"Y": -1, "X": 1}, "interpolation": 2}]}, "end": 5, "shear_y": {"Points": [{"co": {"Y": 0, "X": 1}, "interpolation": 2}]}, "perspective_c3_x": {"Points": [{"co": {"Y": -1, "X": 1}, "interpolation": 2}]}, "scale_x": {"Points": [{"co": {"Y": 1, "X": 1}, "interpolation": 2}]}, "location_x": {"Points": [{"co": {"Y": 0, "X": 1}, "interpolation": 2}]}, "location_y": {"Points": [{"co": {"Y": 0, "X": 1}, "interpolation": 2}]}, "image": "/home/milind/.openshot_qt/thumbnail/QKE4L0GUDK.png", "perspective_c2_y": {"Points": [{"co": {"Y": -1, "X": 1}, "interpolation": 2}]}, "waveform": false, "perspective_c1_y": {"Points": [{"co": {"Y": -1, "X": 1}, "interpolation": 2}]}, "title": "!145-PASS CLASS.svg", "perspective_c4_y": {"Points": [{"co": {"Y": -1, "X": 1}, "interpolation": 2}]}, "anchor": 0, "wave_color": {"blue": {"Points": [{"handle_right": {"Y": 0, "X": 0.5}, "handle_type": 0, "handle_left": {"Y": 1, "X": 0.5}, "co": {"Y": 255, "X": 1}, "interpolation": 0}]}, "green": {"Points": [{"handle_right": {"Y": 0, "X": 0.5}, "handle_type": 0, "handle_left": {"Y": 1, "X": 0.5}, "co": {"Y": 123, "X": 1}, "interpolation": 0}]}, "red": {"Points": [{"handle_right": {"Y": 0, "X": 0.5}, "handle_type": 0, "handle_left": {"Y": 1, "X": 0.5}, "co": {"Y": 0, "X": 1}, "interpolation": 0}]}, "alpha": {"Points": [{"handle_right": {"Y": 0, "X": 0.5}, "handle_type": 0, "handle_left": {"Y": 1, "X": 0.5}, "co": {"Y": 255, "X": 1}, "interpolation": 0}]}}, "time": {"Points": [{"co": {"Y": 1, "X": 1}, "interpolation": 2}]}, "effects": [], "crop_height": {"Points": [{"co": {"Y": -1, "X": 1}, "interpolation": 2}]}, "scale_y": {"Points": [{"co": {"Y": 1, "X": 1}, "interpolation": 2}]}, "reader": {"video_stream_index": -1, "top_field_first": true, "interlaced_frame": false, "audio_bit_rate": 0, "audio_timebase": {"den": 1, "num": 1}, "duration": 86400.0, "channels": 0, "has_video": true, "channel_layout": 4, "has_audio": false, "video_timebase": {"den": 30, "num": 1}, "has_single_image": true, "acodec": "", "video_bit_rate": 0, "display_ratio": {"den": 3827, "num": 6803}, "audio_stream_index": -1, "type": "QtImageReader", "video_length": "2592000", "width": 6803, "pixel_ratio": {"den": 1, "num": 1}, "height": 3827, "vcodec": "", "file_size": "104140324", "path": "/home/milind/Data/Projects/ProgressCard/!145-PASS CLASS.svg", "fps": {"den": 1, "num": 30}, "pixel_format": -1, "sample_rate": 0}}, {"perspective_c3_y": {"Points": [{"co": {"Y": -1, "X": 1}, "interpolation": 2}]}, "shear_x": {"Points": [{"co": {"Y": 0, "X": 1}, "interpolation": 2}]}, "channel_filter": {"Points": [{"co": {"Y": -1, "X": 1}, "interpolation": 2}]}, "duration": 86400.0, "perspective_c1_x": {"Points": [{"co": {"Y": -1, "X": 1}, "interpolation": 2}]}, "perspective_c2_x": {"Points": [{"co": {"Y": -1, "X": 1}, "interpolation": 2}]}, "alpha": {"Points": [{"co": {"Y": 1, "X": 1}, "interpolation": 2}]}, "id": "O4H51B63WF", "layer": 2, "file_id": "B8NAT6SOHT", "display": 0, "scale": 1, "gravity": 4, "crop_width": {"Points": [{"co": {"Y": -1, "X": 1}, "interpolation": 2}]}, "crop_x": {"Points": [{"co": {"Y": 0, "X": 1}, "interpolation": 2}]}, "perspective_c4_x": {"Points": [{"co": {"Y": -1, "X": 1}, "interpolation": 2}]}, "volume": {"Points": [{"co": {"Y": 1, "X": 1}, "interpolation": 2}]}, "start": 0, "rotation": {"Points": [{"co": {"Y": 0, "X": 1}, "interpolation": 2}]}, "crop_y": {"Points": [{"co": {"Y": 0, "X": 1}, "interpolation": 2}]}, "position": 219.64, "has_video": {"Points": [{"co": {"Y": -1, "X": 1}, "interpolation": 2}]}, "has_audio": {"Points": [{"co": {"Y": -1, "X": 1}, "interpolation": 2}]}, "channel_mapping": {"Points": [{"co": {"Y": -1, "X": 1}, "interpolation": 2}]}, "end": 5, "shear_y": {"Points": [{"co": {"Y": 0, "X": 1}, "interpolation": 2}]}, "perspective_c3_x": {"Points": [{"co": {"Y": -1, "X": 1}, "interpolation": 2}]}, "scale_x": {"Points": [{"co": {"Y": 1, "X": 1}, "interpolation": 2}]}, "location_x": {"Points": [{"co": {"Y": 0, "X": 1}, "interpolation": 2}]}, "location_y": {"Points": [{"co": {"Y": 0, "X": 1}, "interpolation": 2}]}, "image": "/home/milind/.openshot_qt/thumbnail/B8NAT6SOHT.png", "perspective_c2_y": {"Points": [{"co": {"Y": -1, "X": 1}, "interpolation": 2}]}, "waveform": false, "perspective_c1_y": {"Points": [{"co": {"Y": -1, "X": 1}, "interpolation": 2}]}, "title": "!145-SECOND CLASS.svg", "perspective_c4_y": {"Points": [{"co": {"Y": -1, "X": 1}, "interpolation": 2}]}, "anchor": 0, "wave_color": {"blue": {"Points": [{"handle_right": {"Y": 0, "X": 0.5}, "handle_type": 0, "handle_left": {"Y": 1, "X": 0.5}, "co": {"Y": 255, "X": 1}, "interpolation": 0}]}, "green": {"Points": [{"handle_right": {"Y": 0, "X": 0.5}, "handle_type": 0, "handle_left": {"Y": 1, "X": 0.5}, "co": {"Y": 123, "X": 1}, "interpolation": 0}]}, "red": {"Points": [{"handle_right": {"Y": 0, "X": 0.5}, "handle_type": 0, "handle_left": {"Y": 1, "X": 0.5}, "co": {"Y": 0, "X": 1}, "interpolation": 0}]}, "alpha": {"Points": [{"handle_right": {"Y": 0, "X": 0.5}, "handle_type": 0, "handle_left": {"Y": 1, "X": 0.5}, "co": {"Y": 255, "X": 1}, "interpolation": 0}]}}, "time": {"Points": [{"co": {"Y": 1, "X": 1}, "interpolation": 2}]}, "effects": [], "crop_height": {"Points": [{"co": {"Y": -1, "X": 1}, "interpolation": 2}]}, "scale_y": {"Points": [{"co": {"Y": 1, "X": 1}, "interpolation": 2}]}, "reader": {"video_stream_index": -1, "top_field_first": true, "interlaced_frame": false, "audio_bit_rate": 0, "audio_timebase": {"den": 1, "num": 1}, "duration": 86400.0, "channels": 0, "has_video": true, "channel_layout": 4, "has_audio": false, "video_timebase": {"den": 30, "num": 1}, "has_single_image": true, "acodec": "", "video_bit_rate": 0, "display_ratio": {"den": 3827, "num": 6803}, "audio_stream_index": -1, "type": "QtImageReader", "video_length": "2592000", "width": 6803, "pixel_ratio": {"den": 1, "num": 1}, "height": 3827, "vcodec": "", "file_size": "104140324", "path": "/home/milind/Data/Projects/ProgressCard/!145-SECOND CLASS.svg", "fps": {"den": 1, "num": 30}, "pixel_format": -1, "sample_rate": 0}}, {"perspective_c3_y": {"Points": [{"co": {"Y": -1, "X": 1}, "interpolation": 2}]}, "shear_x": {"Points": [{"co": {"Y": 0, "X": 1}, "interpolation": 2}]}, "channel_filter": {"Points": [{"co": {"Y": -1, "X": 1}, "interpolation": 2}]}, "duration": 86400.0, "perspective_c1_x": {"Points": [{"co": {"Y": -1, "X": 1}, "interpolation": 2}]}, "perspective_c2_x": {"Points": [{"co": {"Y": -1, "X": 1}, "interpolation": 2}]}, "alpha": {"Points": [{"co": {"Y": 1, "X": 1}, "interpolation": 2}]}, "id": "XGW80R7KP4", "layer": 2, "file_id": "QURFA8ZYYH", "display": 0, "scale": 1, "gravity": 4, "crop_width": {"Points": [{"co": {"Y": -1, "X": 1}, "interpolation": 2}]}, "crop_x": {"Points": [{"co": {"Y": 0, "X": 1}, "interpolation": 2}]}, "perspective_c4_x": {"Points": [{"co": {"Y": -1, "X": 1}, "interpolation": 2}]}, "volume": {"Points": [{"co": {"Y": 1, "X": 1}, "interpolation": 2}]}, "start": 0, "rotation": {"Points": [{"co": {"Y": 0, "X": 1}, "interpolation": 2}]}, "crop_y": {"Points": [{"co": {"Y": 0, "X": 1}, "interpolation": 2}]}, "position": 232.04999999999998, "has_video": {"Points": [{"co": {"Y": -1, "X": 1}, "interpolation": 2}]}, "has_audio": {"Points": [{"co": {"Y": -1, "X": 1}, "interpolation": 2}]}, "channel_mapping": {"Points": [{"co": {"Y": -1, "X": 1}, "interpolation": 2}]}, "end": 5, "shear_y": {"Points": [{"co": {"Y": 0, "X": 1}, "interpolation": 2}]}, "perspective_c3_x": {"Points": [{"co": {"Y": -1, "X": 1}, "interpolation": 2}]}, "scale_x": {"Points": [{"co": {"Y": 1, "X": 1}, "interpolation": 2}]}, "location_x": {"Points": [{"co": {"Y": 0, "X": 1}, "interpolation": 2}]}, "location_y": {"Points": [{"co": {"Y": 0, "X": 1}, "interpolation": 2}]}, "image": "/home/milind/.openshot_qt/thumbnail/QURFA8ZYYH.png", "perspective_c2_y": {"Points": [{"co": {"Y": -1, "X": 1}, "interpolation": 2}]}, "waveform": false, "perspective_c1_y": {"Points": [{"co": {"Y": -1, "X": 1}, "interpolation": 2}]}, "title": "!145-FIRST CLASS.svg", "perspective_c4_y": {"Points": [{"co": {"Y": -1, "X": 1}, "interpolation": 2}]}, "anchor": 0, "wave_color": {"blue": {"Points": [{"handle_right": {"Y": 0, "X": 0.5}, "handle_type": 0, "handle_left": {"Y": 1, "X": 0.5}, "co": {"Y": 255, "X": 1}, "interpolation": 0}]}, "green": {"Points": [{"handle_right": {"Y": 0, "X": 0.5}, "handle_type": 0, "handle_left": {"Y": 1, "X": 0.5}, "co": {"Y": 123, "X": 1}, "interpolation": 0}]}, "red": {"Points": [{"handle_right": {"Y": 0, "X": 0.5}, "handle_type": 0, "handle_left": {"Y": 1, "X": 0.5}, "co": {"Y": 0, "X": 1}, "interpolation": 0}]}, "alpha": {"Points": [{"handle_right": {"Y": 0, "X": 0.5}, "handle_type": 0, "handle_left": {"Y": 1, "X": 0.5}, "co": {"Y": 255, "X": 1}, "interpolation": 0}]}}, "time": {"Points": [{"co": {"Y": 1, "X": 1}, "interpolation": 2}]}, "effects": [], "crop_height": {"Points": [{"co": {"Y": -1, "X": 1}, "interpolation": 2}]}, "scale_y": {"Points": [{"co": {"Y": 1, "X": 1}, "interpolation": 2}]}, "reader": {"video_stream_index": -1, "top_field_first": true, "interlaced_frame": false, "audio_bit_rate": 0, "audio_timebase": {"den": 1, "num": 1}, "duration": 86400.0, "channels": 0, "has_video": true, "channel_layout": 4, "has_audio": false, "video_timebase": {"den": 30, "num": 1}, "has_single_image": true, "acodec": "", "video_bit_rate": 0, "display_ratio": {"den": 3827, "num": 6803}, "audio_stream_index": -1, "type": "QtImageReader", "video_length": "2592000", "width": 6803, "pixel_ratio": {"den": 1, "num": 1}, "height": 3827, "vcodec": "", "file_size": "104140324", "path": "/home/milind/Data/Projects/ProgressCard/!145-FIRST CLASS.svg", "fps": {"den": 1, "num": 30}, "pixel_format": -1, "sample_rate": 0}}], "key": ["clips"]}, {"partial": false, "type": "update", "value": {"layer": 2, "position": 241.91, "image": "/home/milind/.openshot_qt/thumbnail/BWOLHCX3NY.png", "end": 5, "start": 0, "id": "679CKERX79"}, "old_values": {"perspective_c3_x": {"Points": [{"co": {"Y": -1, "X": 1}, "interpolation": 2}]}, "perspective_c4_x": {"Points": [{"co": {"Y": -1, "X": 1}, "interpolation": 2}]}, "channel_filter": {"Points": [{"co": {"Y": -1, "X": 1}, "interpolation": 2}]}, "image": "/home/milind/.openshot_qt/thumbnail/BWOLHCX3NY.png", "crop_height": {"Points": [{"co": {"Y": -1, "X": 1}, "interpolation": 2}]}, "duration": 86400.0, "perspective_c1_x": {"Points": [{"co": {"Y": -1, "X": 1}, "interpolation": 2}]}, "perspective_c2_x": {"Points": [{"co": {"Y": -1, "X": 1}, "interpolation": 2}]}, "alpha": {"Points": [{"co": {"Y": 1, "X": 1}, "interpolation": 2}]}, "id": "679CKERX79", "layer": 3, "display": 0, "scale": 1, "gravity": 4, "crop_width": {"Points": [{"co": {"Y": -1, "X": 1}, "interpolation": 2}]}, "crop_x": {"Points": [{"co": {"Y": 0, "X": 1}, "interpolation": 2}]}, "shear_x": {"Points": [{"co": {"Y": 0, "X": 1}, "interpolation": 2}]}, "volume": {"Points": [{"co": {"Y": 1, "X": 1}, "interpolation": 2}]}, "has_audio": {"Points": [{"co": {"Y": -1, "X": 1}, "interpolation": 2}]}, "rotation": {"Points": [{"co": {"Y": 0, "X": 1}, "interpolation": 2}]}, "crop_y": {"Points": [{"co": {"Y": 0, "X": 1}, "interpolation": 2}]}, "position": 194.30999999999997, "has_video": {"Points": [{"co": {"Y": -1, "X": 1}, "interpolation": 2}]}, "start": 0, "channel_mapping": {"Points": [{"co": {"Y": -1, "X": 1}, "interpolation": 2}]}, "end": 5.0, "waveform": false, "perspective_c3_y": {"Points": [{"co": {"Y": -1, "X": 1}, "interpolation": 2}]}, "scale_x": {"Points": [{"co": {"Y": 1, "X": 1}, "interpolation": 2}]}, "location_x": {"Points": [{"co": {"Y": 0, "X": 1}, "interpolation": 2}]}, "location_y": {"Points": [{"co": {"Y": 0, "X": 1}, "interpolation": 2}]}, "shear_y": {"Points": [{"co": {"Y": 0, "X": 1}, "interpolation": 2}]}, "perspective_c2_y": {"Points": [{"co": {"Y": -1, "X": 1}, "interpolation": 2}]}, "perspective_c1_y": {"Points": [{"co": {"Y": -1, "X": 1}, "interpolation": 2}]}, "title": "!145-DISTINCTION.svg", "perspective_c4_y": {"Points": [{"co": {"Y": -1, "X": 1}, "interpolation": 2}]}, "anchor": 0, "wave_color": {"blue": {"Points": [{"handle_right": {"Y": 0, "X": 0.5}, "handle_type": 0, "handle_left": {"Y": 1, "X": 0.5}, "co": {"Y": 255, "X": 1}, "interpolation": 0}]}, "green": {"Points": [{"handle_right": {"Y": 0, "X": 0.5}, "handle_type": 0, "handle_left": {"Y": 1, "X": 0.5}, "co": {"Y": 123, "X": 1}, "interpolation": 0}]}, "red": {"Points": [{"handle_right": {"Y": 0, "X": 0.5}, "handle_type": 0, "handle_left": {"Y": 1, "X": 0.5}, "co": {"Y": 0, "X": 1}, "interpolation": 0}]}, "alpha": {"Points": [{"handle_right": {"Y": 0, "X": 0.5}, "handle_type": 0, "handle_left": {"Y": 1, "X": 0.5}, "co": {"Y": 255, "X": 1}, "interpolation": 0}]}}, "time": {"Points": [{"co": {"Y": 1, "X": 1}, "interpolation": 2}]}, "effects": [], "file_id": "BWOLHCX3NY", "scale_y": {"Points": [{"co": {"Y": 1, "X": 1}, "interpolation": 2}]}, "reader": {"video_stream_index": -1, "top_field_first": true, "interlaced_frame": false, "audio_bit_rate": 0, "audio_timebase": {"den": 1, "num": 1}, "duration": 86400.0, "channels": 0, "has_video": true, "channel_layout": 4, "has_audio": false, "video_timebase": {"den": 30, "num": 1}, "has_single_image": true, "acodec": "", "video_bit_rate": 0, "display_ratio": {"den": 3827, "num": 6803}, "audio_stream_index": -1, "type": "QtImageReader", "video_length": "2592000", "width": 6803, "pixel_ratio": {"den": 1, "num": 1}, "height": 3827, "vcodec": "", "file_size": "104140324", "path": "/home/milind/Data/Projects/ProgressCard/!145-DISTINCTION.svg", "fps": {"den": 1, "num": 30}, "pixel_format": -1, "sample_rate": 0}}, "key": ["clips", {"id": "679CKERX79"}]}, {"partial": false, "type": "insert", "value": {"perspective_c2_x": {"Points": [{"co": {"Y": -1, "X": 1}, "interpolation": 2}]}, "perspective_c3_x": {"Points": [{"co": {"Y": -1, "X": 1}, "interpolation": 2}]}, "shear_x": {"Points": [{"co": {"Y": 0, "X": 1}, "interpolation": 2}]}, "channel_filter": {"Points": [{"co": {"Y": -1, "X": 1}, "interpolation": 2}]}, "crop_height": {"Points": [{"co": {"Y": -1, "X": 1}, "interpolation": 2}]}, "duration": 86400.0, "perspective_c1_x": {"Points": [{"co": {"Y": -1, "X": 1}, "interpolation": 2}]}, "anchor": 0, "alpha": {"Points": [{"co": {"Y": 1, "X": 1}, "interpolation": 2}]}, "id": "E6X9EOGKYP", "layer": 2, "display": 0, "scale": 1, "gravity": 4, "crop_width": {"Points": [{"co": {"Y": -1, "X": 1}, "interpolation": 2}]}, "crop_x": {"Points": [{"co": {"Y": 0, "X": 1}, "interpolation": 2}]}, "perspective_c4_x": {"Points": [{"co": {"Y": -1, "X": 1}, "interpolation": 2}]}, "volume": {"Points": [{"co": {"Y": 1, "X": 1}, "interpolation": 2}]}, "start": 0, "has_video": {"Points": [{"co": {"Y": -1, "X": 1}, "interpolation": 2}]}, "rotation": {"Points": [{"co": {"Y": 0, "X": 1}, "interpolation": 2}]}, "reader": {"video_stream_index": -1, "video_length": "2592000", "interlaced_frame": false, "audio_bit_rate": 0, "audio_timebase": {"den": 1, "num": 1}, "duration": 86400.0, "channels": 0, "video_bit_rate": 0, "channel_layout": 4, "path": "/home/milind/Data/Projects/ProgressCard/!145-4 If's - 4 Braces.svg", "has_audio": false, "video_timebase": {"den": 30, "num": 1}, "has_single_image": true, "acodec": "", "has_video": true, "display_ratio": {"den": 3827, "num": 6803}, "audio_stream_index": -1, "type": "QtImageReader", "top_field_first": true, "width": 6803, "pixel_ratio": {"den": 1, "num": 1}, "height": 3827, "vcodec": "", "file_size": "104140324", "sample_rate": 0, "fps": {"den": 1, "num": 30}, "pixel_format": -1}, "position": 236.64, "image": "/home/milind/.openshot_qt/thumbnail/M6T9ROM582.png", "has_audio": {"Points": [{"co": {"Y": -1, "X": 1}, "interpolation": 2}]}, "channel_mapping": {"Points": [{"co": {"Y": -1, "X": 1}, "interpolation": 2}]}, "shear_y": {"Points": [{"co": {"Y": 0, "X": 1}, "interpolation": 2}]}, "end": 5, "waveform": false, "perspective_c3_y": {"Points": [{"co": {"Y": -1, "X": 1}, "interpolation": 2}]}, "scale_x": {"Points": [{"co": {"Y": 1, "X": 1}, "interpolation": 2}]}, "location_x": {"Points": [{"co": {"Y": 0, "X": 1}, "interpolation": 2}]}, "location_y": {"Points": [{"co": {"Y": 0, "X": 1}, "interpolation": 2}]}, "file_id": "M6T9ROM582", "perspective_c2_y": {"Points": [{"co": {"Y": -1, "X": 1}, "interpolation": 2}]}, "perspective_c1_y": {"Points": [{"co": {"Y": -1, "X": 1}, "interpolation": 2}]}, "title": "!145-4 If's - 4 Braces.svg", "perspective_c4_y": {"Points": [{"co": {"Y": -1, "X": 1}, "interpolation": 2}]}, "wave_color": {"red": {"Points": [{"handle_right": {"Y": 0, "X": 0.5}, "handle_type": 0, "handle_left": {"Y": 1, "X": 0.5}, "co": {"Y": 0, "X": 1}, "interpolation": 0}]}, "green": {"Points": [{"handle_right": {"Y": 0, "X": 0.5}, "handle_type": 0, "handle_left": {"Y": 1, "X": 0.5}, "co": {"Y": 123, "X": 1}, "interpolation": 0}]}, "blue": {"Points": [{"handle_right": {"Y": 0, "X": 0.5}, "handle_type": 0, "handle_left": {"Y": 1, "X": 0.5}, "co": {"Y": 255, "X": 1}, "interpolation": 0}]}, "alpha": {"Points": [{"handle_right": {"Y": 0, "X": 0.5}, "handle_type": 0, "handle_left": {"Y": 1, "X": 0.5}, "co": {"Y": 255, "X": 1}, "interpolation": 0}]}}, "time": {"Points": [{"co": {"Y": 1, "X": 1}, "interpolation": 2}]}, "crop_y": {"Points": [{"co": {"Y": 0, "X": 1}, "interpolation": 2}]}, "scale_y": {"Points": [{"co": {"Y": 1, "X": 1}, "interpolation": 2}]}, "effects": []}, "old_values": [{"location_x": {"Points": [{"co": {"Y": 0.0, "X": 1.0}, "interpolation": 2}]}, "perspective_c3_x": {"Points": [{"co": {"Y": -1.0, "X": 1.0}, "interpolation": 2}]}, "perspective_c4_x": {"Points": [{"co": {"Y": -1.0, "X": 1.0}, "interpolation": 2}]}, "channel_filter": {"Points": [{"co": {"Y": -1.0, "X": 1.0}, "interpolation": 2}]}, "anchor": 0, "perspective_c1_x": {"Points": [{"co": {"Y": -1.0, "X": 1.0}, "interpolation": 2}]}, "perspective_c2_x": {"Points": [{"co": {"Y": -1.0, "X": 1.0}, "interpolation": 2}]}, "alpha": {"Points": [{"co": {"Y": 1.0, "X": 1.0}, "interpolation": 2}, {"handle_right": {"Y": 0.0, "X": 0.5}, "handle_type": 0, "handle_left": {"Y": 1.0, "X": 0.5}, "co": {"Y": 0.0, "X": 1.0}, "interpolation": 0}, {"handle_right": {"Y": 0.0, "X": 0.5}, "handle_type": 0, "handle_left": {"Y": 1.0, "X": 0.5}, "co": {"Y": 1.0, "X": 73.0}, "interpolation": 0}]}, "id": "IUE2QUN59C", "layer": 0, "file_id": "0F0RWXSQM9", "display": 0, "scale": 1, "gravity": 4, "crop_width": {"Points": [{"co": {"Y": -1.0, "X": 1.0}, "interpolation": 2}]}, "crop_x": {"Points": [{"co": {"Y": 0.0, "X": 1.0}, "interpolation": 2}]}, "shear_x": {"Points": [{"co": {"Y": 0.0, "X": 1.0}, "interpolation": 2}]}, "volume": {"Points": [{"co": {"Y": 1.0, "X": 1.0}, "interpolation": 2}]}, "start": 0, "rotation": {"Points": [{"co": {"Y": 0.0, "X": 1.0}, "interpolation": 2}]}, "reader": {"video_stream_index": -1, "video_length": "2592000", "interlaced_frame": false, "audio_bit_rate": 0, "audio_timebase": {"den": 1, "num": 1}, "vcodec": "", "channels": 0, "has_video": true, "channel_layout": 4, "has_audio": false, "video_timebase": {"den": 30, "num": 1}, "has_single_image": true, "acodec": "", "video_bit_rate": 0, "display_ratio": {"den": 9, "num": 16}, "audio_stream_index": -1, "type": "QtImageReader", "top_field_first": true, "width": 1920, "pixel_ratio": {"den": 1, "num": 1}, "height": 1080, "duration": 86400.0, "file_size": "8294400", "path": "/home/milind/Data/Projects/ProgressCard/!000-White-Background.svg", "fps": {"den": 1, "num": 30}, "pixel_format": -1, "sample_rate": 0}, "position": 0, "has_video": {"Points": [{"co": {"Y": -1.0, "X": 1.0}, "interpolation": 2}]}, "has_audio": {"Points": [{"co": {"Y": -1.0, "X": 1.0}, "interpolation": 2}]}, "channel_mapping": {"Points": [{"co": {"Y": -1.0, "X": 1.0}, "interpolation": 2}]}, "shear_y": {"Points": [{"co": {"Y": 0.0, "X": 1.0}, "interpolation": 2}]}, "perspective_c3_y": {"Points": [{"co": {"Y": -1.0, "X": 1.0}, "interpolation": 2}]}, "waveform": false, "end": 10, "scale_x": {"Points": [{"co": {"Y": 1.0, "X": 1.0}, "interpolation": 2}]}, "image": "/home/milind/.openshot_qt/thumbnail/0F0RWXSQM9.png", "location_y": {"Points": [{"co": {"Y": 0.0, "X": 1.0}, "interpolation": 2}]}, "crop_y": {"Points": [{"co": {"Y": 0.0, "X": 1.0}, "interpolation": 2}]}, "perspective_c2_y": {"Points": [{"co": {"Y": -1.0, "X": 1.0}, "interpolation": 2}]}, "perspective_c1_y": {"Points": [{"co": {"Y": -1.0, "X": 1.0}, "interpolation": 2}]}, "title": "!000-White-Background.svg", "perspective_c4_y": {"Points": [{"co": {"Y": -1.0, "X": 1.0}, "interpolation": 2}]}, "duration": 86400.0, "wave_color": {"red": {"Points": [{"handle_right": {"Y": 0.0, "X": 0.5}, "handle_type": 0, "handle_left": {"Y": 1.0, "X": 0.5}, "co": {"Y": 0.0, "X": 1.0}, "interpolation": 0}]}, "green": {"Points": [{"handle_right": {"Y": 0.0, "X": 0.5}, "handle_type": 0, "handle_left": {"Y": 1.0, "X": 0.5}, "co": {"Y": 123.0, "X": 1.0}, "interpolation": 0}]}, "blue": {"Points": [{"handle_right": {"Y": 0.0, "X": 0.5}, "handle_type": 0, "handle_left": {"Y": 1.0, "X": 0.5}, "co": {"Y": 255.0, "X": 1.0}, "interpolation": 0}]}, "alpha": {"Points": [{"handle_right": {"Y": 0.0, "X": 0.5}, "handle_type": 0, "handle_left": {"Y": 1.0, "X": 0.5}, "co": {"Y": 255.0, "X": 1.0}, "interpolation": 0}]}}, "time": {"Points": [{"co": {"Y": 1.0, "X": 1.0}, "interpolation": 2}]}, "crop_height": {"Points": [{"co": {"Y": -1.0, "X": 1.0}, "interpolation": 2}]}, "scale_y": {"Points": [{"co": {"Y": 1.0, "X": 1.0}, "interpolation": 2}]}, "effects": []}, {"location_x": {"Points": [{"handle_right": {"Y": 0.0, "X": 0.5}, "handle_type": 0, "handle_left": {"Y": 1.0, "X": 0.5}, "co": {"Y": 0.33000001311302185, "X": 1.0}, "interpolation": 0}, {"co": {"Y": -0.07999999821186066, "X": 178}, "interpolation": 1}, {"co": {"Y": -0.07999999821186066, "X": 117}, "interpolation": 1}]}, "perspective_c3_x": {"Points": [{"co": {"Y": -1.0, "X": 1.0}, "interpolation": 2}]}, "perspective_c4_x": {"Points": [{"co": {"Y": -1.0, "X": 1.0}, "interpolation": 2}]}, "channel_filter": {"Points": [{"co": {"Y": -1.0, "X": 1.0}, "interpolation": 2}]}, "perspective_c2_x": {"Points": [{"co": {"Y": -1.0, "X": 1.0}, "interpolation": 2}]}, "perspective_c1_x": {"Points": [{"co": {"Y": -1.0, "X": 1.0}, "interpolation": 2}]}, "anchor": 0, "alpha": {"Points": [{"handle_right": {"Y": 0, "X": 0.5}, "handle_type": 0, "handle_left": {"Y": 1, "X": 0.5}, "co": {"Y": 1, "X": 1}, "interpolation": 0}, {"handle_right": {"Y": 0, "X": 0.5}, "handle_type": 0, "handle_left": {"Y": 1, "X": 0.5}, "co": {"Y": 0, "X": 117}, "interpolation": 0}, {"handle_right": {"Y": 0, "X": 0.5}, "handle_type": 0, "handle_left": {"Y": 1, "X": 0.5}, "co": {"Y": 1, "X": 189}, "interpolation": 0}, {"handle_right": {"Y": 0, "X": 0.5}, "handle_type": 0, "handle_left": {"Y": 1, "X": 0.5}, "co": {"Y": 1, "X": 1687}, "interpolation": 0}, {"handle_right": {"Y": 0, "X": 0.5}, "handle_type": 0, "handle_left": {"Y": 1, "X": 0.5}, "co": {"Y": 0, "X": 1759}, "interpolation": 0}]}, "id": "6XU1ZMQNAO", "position": 1.0, "file_id": "O1AEGRKDWZ", "display": 0, "scale": 1, "gravity": 4, "crop_width": {"Points": [{"co": {"Y": -1.0, "X": 1.0}, "interpolation": 2}]}, "crop_x": {"Points": [{"co": {"Y": 0.0, "X": 1.0}, "interpolation": 2}]}, "shear_x": {"Points": [{"co": {"Y": 0.0, "X": 1.0}, "interpolation": 2}]}, "volume": {"Points": [{"co": {"Y": 1.0, "X": 1.0}, "interpolation": 2}]}, "start": 4.8483333333333345, "title": "!080-GT,GC,TC.mkv", "reader": {"video_stream_index": 0, "video_length": "3650", "interlaced_frame": false, "audio_bit_rate": 0, "audio_timebase": {"den": 1, "num": 1}, "vcodec": "h264", "channels": 0, "has_video": true, "channel_layout": 4, "has_audio": false, "video_timebase": {"den": 1000, "num": 1}, "has_single_image": false, "acodec": "", "video_bit_rate": 0, "display_ratio": {"den": 186, "num": 325}, "audio_stream_index": -1, "type": "FFmpegReader", "top_field_first": true, "width": 1300, "pixel_ratio": {"den": 1, "num": 1}, "height": 744, "duration": 146.0, "file_size": "1130835", "path": "/home/milind/Data/Projects/ProgressCard/!080-GT,GC,TC.mkv", "fps": {"den": 1, "num": 25}, "pixel_format": 0, "sample_rate": 0}, "layer": 1, "has_video": {"Points": [{"co": {"Y": -1.0, "X": 1.0}, "interpolation": 2}]}, "has_audio": {"Points": [{"co": {"Y": -1.0, "X": 1.0}, "interpolation": 2}]}, "channel_mapping": {"Points": [{"co": {"Y": -1.0, "X": 1.0}, "interpolation": 2}]}, "shear_y": {"Points": [{"co": {"Y": 0.0, "X": 1.0}, "interpolation": 2}]}, "perspective_c3_y": {"Points": [{"co": {"Y": -1.0, "X": 1.0}, "interpolation": 2}]}, "waveform": false, "end": 73.25, "scale_x": {"Points": [{"handle_right": {"Y": 0.0, "X": 0.5}, "handle_type": 0, "handle_left": {"Y": 1.0, "X": 0.5}, "co": {"Y": 2.200000047683716, "X": 1.0}, "interpolation": 0}, {"co": {"Y": 2.299999952316284, "X": 178}, "interpolation": 1}]}, "image": "/home/milind/.openshot_qt/thumbnail/6XU1ZMQNAO-122.png", "location_y": {"Points": [{"handle_right": {"Y": 0.0, "X": 0.5}, "handle_type": 0, "handle_left": {"Y": 1.0, "X": 0.5}, "co": {"Y": 0.5199999809265137, "X": 1.0}, "interpolation": 0}, {"co": {"Y": 0.5199999809265137, "X": 178}, "interpolation": 1}]}, "crop_y": {"Points": [{"co": {"Y": 0.0, "X": 1.0}, "interpolation": 2}]}, "perspective_c2_y": {"Points": [{"co": {"Y": -1.0, "X": 1.0}, "interpolation": 2}]}, "perspective_c1_y": {"Points": [{"co": {"Y": -1.0, "X": 1.0}, "interpolation": 2}]}, "rotation": {"Points": [{"co": {"Y": 0.0, "X": 1.0}, "interpolation": 2}]}, "perspective_c4_y": {"Points": [{"co": {"Y": -1.0, "X": 1.0}, "interpolation": 2}]}, "duration": 72.0, "wave_color": {"red": {"Points": [{"handle_right": {"Y": 0.0, "X": 0.5}, "handle_type": 0, "handle_left": {"Y": 1.0, "X": 0.5}, "co": {"Y": 0.0, "X": 1.0}, "interpolation": 0}]}, "green": {"Points": [{"handle_right": {"Y": 0.0, "X": 0.5}, "handle_type": 0, "handle_left": {"Y": 1.0, "X": 0.5}, "co": {"Y": 123.0, "X": 1.0}, "interpolation": 0}]}, "blue": {"Points": [{"handle_right": {"Y": 0.0, "X": 0.5}, "handle_type": 0, "handle_left": {"Y": 1.0, "X": 0.5}, "co": {"Y": 255.0, "X": 1.0}, "interpolation": 0}]}, "alpha": {"Points": [{"handle_right": {"Y": 0.0, "X": 0.5}, "handle_type": 0, "handle_left": {"Y": 1.0, "X": 0.5}, "co": {"Y": 255.0, "X": 1.0}, "interpolation": 0}]}}, "time": {"Points": [{"co": {"Y": 117, "X": 117}, "interpolation": 1}, {"co": {"Y": 3399, "X": 1758}, "interpolation": 1}]}, "crop_height": {"Points": [{"co": {"Y": -1.0, "X": 1.0}, "interpolation": 2}]}, "scale_y": {"Points": [{"handle_right": {"Y": 0.0, "X": 0.5}, "handle_type": 0, "handle_left": {"Y": 1.0, "X": 0.5}, "co": {"Y": 2.200000047683716, "X": 1.0}, "interpolation": 0}, {"co": {"Y": 2.299999952316284, "X": 178}, "interpolation": 1}]}, "effects": []}, {"location_x": {"Points": [{"handle_right": {"Y": 0.0, "X": 0.5}, "handle_type": 0, "handle_left": {"Y": 1.0, "X": 0.5}, "co": {"Y": -0.07999999821186066, "X": 1.0}, "interpolation": 0}]}, "perspective_c3_x": {"Points": [{"co": {"Y": -1.0, "X": 1.0}, "interpolation": 2}]}, "perspective_c4_x": {"Points": [{"co": {"Y": -1.0, "X": 1.0}, "interpolation": 2}]}, "channel_filter": {"Points": [{"co": {"Y": -1.0, "X": 1.0}, "interpolation": 2}]}, "perspective_c2_x": {"Points": [{"co": {"Y": -1.0, "X": 1.0}, "interpolation": 2}]}, "perspective_c1_x": {"Points": [{"co": {"Y": -1.0, "X": 1.0}, "interpolation": 2}]}, "anchor": 0, "alpha": {"Points": [{"handle_right": {"Y": 0, "X": 0.5}, "handle_type": 0, "handle_left": {"Y": 1, "X": 0.5}, "co": {"Y": 1, "X": 1}, "interpolation": 0}, {"handle_right": {"Y": 0, "X": 0.5}, "handle_type": 0, "handle_left": {"Y": 1, "X": 0.5}, "co": {"Y": 0, "X": 1}, "interpolation": 0}, {"handle_right": {"Y": 0, "X": 0.5}, "handle_type": 0, "handle_left": {"Y": 1, "X": 0.5}, "co": {"Y": 1, "X": 73}, "interpolation": 0}, {"handle_right": {"Y": 0, "X": 0.5}, "handle_type": 0, "handle_left": {"Y": 1, "X": 0.5}, "co": {"Y": 1, "X": 1153}, "interpolation": 0}, {"handle_right": {"Y": 0, "X": 0.5}, "handle_type": 0, "handle_left": {"Y": 1, "X": 0.5}, "co": {"Y": 0, "X": 1225}, "interpolation": 0}]}, "id": "A2EZ4WBLRE", "layer": 1, "file_id": "XBE2IATTEN", "display": 0, "scale": 1, "gravity": 4, "crop_width": {"Points": [{"co": {"Y": -1.0, "X": 1.0}, "interpolation": 2}]}, "crop_x": {"Points": [{"co": {"Y": 0.0, "X": 1.0}, "interpolation": 2}]}, "shear_x": {"Points": [{"co": {"Y": 0.0, "X": 1.0}, "interpolation": 2}]}, "volume": {"Points": [{"co": {"Y": 1.0, "X": 1.0}, "interpolation": 2}]}, "start": 0, "rotation": {"Points": [{"co": {"Y": 0.0, "X": 1.0}, "interpolation": 2}]}, "reader": {"video_stream_index": 0, "video_length": "2575", "interlaced_frame": false, "audio_bit_rate": 0, "audio_timebase": {"den": 1, "num": 1}, "vcodec": "h264", "channels": 0, "has_video": true, "channel_layout": 4, "has_audio": false, "video_timebase": {"den": 1000, "num": 1}, "has_single_image": false, "acodec": "", "video_bit_rate": 0, "display_ratio": {"den": 186, "num": 325}, "audio_stream_index": -1, "type": "FFmpegReader", "top_field_first": true, "width": 1300, "pixel_ratio": {"den": 1, "num": 1}, "height": 744, "duration": 103.0, "file_size": "822519", "path": "/home/milind/Data/Projects/ProgressCard/!090-Remark - PASS or FAIL.mkv", "fps": {"den": 1, "num": 25}, "pixel_format": 0, "sample_rate": 0}, "position": 74.768125, "has_video": {"Points": [{"co": {"Y": -1.0, "X": 1.0}, "interpolation": 2}]}, "has_audio": {"Points": [{"co": {"Y": -1.0, "X": 1.0}, "interpolation": 2}]}, "channel_mapping": {"Points": [{"co": {"Y": -1.0, "X": 1.0}, "interpolation": 2}]}, "shear_y": {"Points": [{"co": {"Y": 0.0, "X": 1.0}, "interpolation": 2}]}, "perspective_c3_y": {"Points": [{"co": {"Y": -1.0, "X": 1.0}, "interpolation": 2}]}, "waveform": false, "end": 51, "scale_x": {"Points": [{"handle_right": {"Y": 0.0, "X": 0.5}, "handle_type": 0, "handle_left": {"Y": 1.0, "X": 0.5}, "co": {"Y": 2.299999952316284, "X": 1.0}, "interpolation": 0}]}, "image": "/home/milind/.openshot_qt/thumbnail/XBE2IATTEN.png", "location_y": {"Points": [{"handle_right": {"Y": 0.0, "X": 0.5}, "handle_type": 0, "handle_left": {"Y": 1.0, "X": 0.5}, "co": {"Y": 0.5199999809265137, "X": 1.0}, "interpolation": 0}]}, "crop_y": {"Points": [{"co": {"Y": 0.0, "X": 1.0}, "interpolation": 2}]}, "perspective_c2_y": {"Points": [{"co": {"Y": -1.0, "X": 1.0}, "interpolation": 2}]}, "perspective_c1_y": {"Points": [{"co": {"Y": -1.0, "X": 1.0}, "interpolation": 2}]}, "title": "!090-Remark - PASS or FAIL.mkv", "perspective_c4_y": {"Points": [{"co": {"Y": -1.0, "X": 1.0}, "interpolation": 2}]}, "duration": 50.0, "wave_color": {"red": {"Points": [{"handle_right": {"Y": 0.0, "X": 0.5}, "handle_type": 0, "handle_left": {"Y": 1.0, "X": 0.5}, "co": {"Y": 0.0, "X": 1.0}, "interpolation": 0}]}, "green": {"Points": [{"handle_right": {"Y": 0.0, "X": 0.5}, "handle_type": 0, "handle_left": {"Y": 1.0, "X": 0.5}, "co": {"Y": 123.0, "X": 1.0}, "interpolation": 0}]}, "blue": {"Points": [{"handle_right": {"Y": 0.0, "X": 0.5}, "handle_type": 0, "handle_left": {"Y": 1.0, "X": 0.5}, "co": {"Y": 255.0, "X": 1.0}, "interpolation": 0}]}, "alpha": {"Points": [{"handle_right": {"Y": 0.0, "X": 0.5}, "handle_type": 0, "handle_left": {"Y": 1.0, "X": 0.5}, "co": {"Y": 255.0, "X": 1.0}, "interpolation": 0}]}}, "time": {"Points": [{"co": {"Y": 1, "X": 1}, "interpolation": 1}, {"co": {"Y": 2447, "X": 1224}, "interpolation": 1}]}, "crop_height": {"Points": [{"co": {"Y": -1.0, "X": 1.0}, "interpolation": 2}]}, "scale_y": {"Points": [{"handle_right": {"Y": 0.0, "X": 0.5}, "handle_type": 0, "handle_left": {"Y": 1.0, "X": 0.5}, "co": {"Y": 2.299999952316284, "X": 1.0}, "interpolation": 0}]}, "effects": []}, {"location_x": {"Points": [{"co": {"Y": 0.0, "X": 1.0}, "interpolation": 2}]}, "perspective_c3_x": {"Points": [{"co": {"Y": -1.0, "X": 1.0}, "interpolation": 2}]}, "perspective_c4_x": {"Points": [{"co": {"Y": -1.0, "X": 1.0}, "interpolation": 2}]}, "channel_filter": {"Points": [{"co": {"Y": -1.0, "X": 1.0}, "interpolation": 2}]}, "perspective_c2_x": {"Points": [{"co": {"Y": -1.0, "X": 1.0}, "interpolation": 2}]}, "perspective_c1_x": {"Points": [{"co": {"Y": -1.0, "X": 1.0}, "interpolation": 2}]}, "anchor": 0, "alpha": {"Points": [{"co": {"Y": 1.0, "X": 1.0}, "interpolation": 2}]}, "id": "3GZPXZWGC6", "layer": 0, "file_id": "0F0RWXSQM9", "display": 0, "scale": 1, "gravity": 4, "crop_width": {"Points": [{"co": {"Y": -1.0, "X": 1.0}, "interpolation": 2}]}, "crop_x": {"Points": [{"co": {"Y": 0.0, "X": 1.0}, "interpolation": 2}]}, "shear_x": {"Points": [{"co": {"Y": 0.0, "X": 1.0}, "interpolation": 2}]}, "volume": {"Points": [{"co": {"Y": 1.0, "X": 1.0}, "interpolation": 2}]}, "start": 0, "rotation": {"Points": [{"co": {"Y": 0.0, "X": 1.0}, "interpolation": 2}]}, "reader": {"video_stream_index": -1, "video_length": "2592000", "interlaced_frame": false, "audio_bit_rate": 0, "audio_timebase": {"den": 1, "num": 1}, "vcodec": "", "channels": 0, "has_video": true, "channel_layout": 4, "has_audio": false, "video_timebase": {"den": 30, "num": 1}, "has_single_image": true, "acodec": "", "video_bit_rate": 0, "display_ratio": {"den": 9, "num": 16}, "audio_stream_index": -1, "type": "QtImageReader", "top_field_first": true, "width": 1920, "pixel_ratio": {"den": 1, "num": 1}, "height": 1080, "duration": 86400.0, "file_size": "8294400", "path": "/home/milind/Data/Projects/ProgressCard/!000-White-Background.svg", "fps": {"den": 1, "num": 30}, "pixel_format": -1, "sample_rate": 0}, "position": 121.30031249999999, "has_video": {"Points": [{"co": {"Y": -1.0, "X": 1.0}, "interpolation": 2}]}, "has_audio": {"Points": [{"co": {"Y": -1.0, "X": 1.0}, "interpolation": 2}]}, "channel_mapping": {"Points": [{"co": {"Y": -1.0, "X": 1.0}, "interpolation": 2}]}, "shear_y": {"Points": [{"co": {"Y": 0.0, "X": 1.0}, "interpolation": 2}]}, "perspective_c3_y": {"Points": [{"co": {"Y": -1.0, "X": 1.0}, "interpolation": 2}]}, "waveform": false, "end": 10, "scale_x": {"Points": [{"co": {"Y": 1.0, "X": 1.0}, "interpolation": 2}]}, "image": "/home/milind/.openshot_qt/thumbnail/0F0RWXSQM9.png", "location_y": {"Points": [{"co": {"Y": 0.0, "X": 1.0}, "interpolation": 2}]}, "crop_y": {"Points": [{"co": {"Y": 0.0, "X": 1.0}, "interpolation": 2}]}, "perspective_c2_y": {"Points": [{"co": {"Y": -1.0, "X": 1.0}, "interpolation": 2}]}, "perspective_c1_y": {"Points": [{"co": {"Y": -1.0, "X": 1.0}, "interpolation": 2}]}, "title": "!000-White-Background.svg", "perspective_c4_y": {"Points": [{"co": {"Y": -1.0, "X": 1.0}, "interpolation": 2}]}, "duration": 86400.0, "wave_color": {"red": {"Points": [{"handle_right": {"Y": 0.0, "X": 0.5}, "handle_type": 0, "handle_left": {"Y": 1.0, "X": 0.5}, "co": {"Y": 0.0, "X": 1.0}, "interpolation": 0}]}, "green": {"Points": [{"handle_right": {"Y": 0.0, "X": 0.5}, "handle_type": 0, "handle_left": {"Y": 1.0, "X": 0.5}, "co": {"Y": 123.0, "X": 1.0}, "interpolation": 0}]}, "blue": {"Points": [{"handle_right": {"Y": 0.0, "X": 0.5}, "handle_type": 0, "handle_left": {"Y": 1.0, "X": 0.5}, "co": {"Y": 255.0, "X": 1.0}, "interpolation": 0}]}, "alpha": {"Points": [{"handle_right": {"Y": 0.0, "X": 0.5}, "handle_type": 0, "handle_left": {"Y": 1.0, "X": 0.5}, "co": {"Y": 255.0, "X": 1.0}, "interpolation": 0}]}}, "time": {"Points": [{"co": {"Y": 1.0, "X": 1.0}, "interpolation": 2}]}, "crop_height": {"Points": [{"co": {"Y": -1.0, "X": 1.0}, "interpolation": 2}]}, "scale_y": {"Points": [{"co": {"Y": 1.0, "X": 1.0}, "interpolation": 2}]}, "effects": []}, {"perspective_c4_x": {"Points": [{"co": {"Y": -1.0, "X": 1.0}, "interpolation": 2}]}, "channel_filter": {"Points": [{"co": {"Y": -1.0, "X": 1.0}, "interpolation": 2}]}, "image": "/home/milind/.openshot_qt/thumbnail/Z4YCYRY34O.png", "perspective_c2_x": {"Points": [{"co": {"Y": -1.0, "X": 1.0}, "interpolation": 2}]}, "perspective_c1_x": {"Points": [{"co": {"Y": -1.0, "X": 1.0}, "interpolation": 2}]}, "anchor": 0, "alpha": {"Points": [{"handle_right": {"Y": 0, "X": 0.5}, "handle_type": 0, "handle_left": {"Y": 1, "X": 0.5}, "co": {"Y": 1, "X": 1}, "interpolation": 0}, {"handle_right": {"Y": 0, "X": 0.5}, "handle_type": 0, "handle_left": {"Y": 1, "X": 0.5}, "co": {"Y": 0, "X": 1}, "interpolation": 0}, {"handle_right": {"Y": 0, "X": 0.5}, "handle_type": 0, "handle_left": {"Y": 1, "X": 0.5}, "co": {"Y": 1, "X": 73}, "interpolation": 0}]}, "id": "QZM4UXHK9C", "position": 125.768125, "file_id": "Z4YCYRY34O", "display": 0, "scale": 1, "gravity": 4, "crop_width": {"Points": [{"co": {"Y": -1.0, "X": 1.0}, "interpolation": 2}]}, "crop_x": {"Points": [{"co": {"Y": 0.0, "X": 1.0}, "interpolation": 2}]}, "shear_x": {"Points": [{"co": {"Y": 0.0, "X": 1.0}, "interpolation": 2}]}, "volume": {"Points": [{"co": {"Y": 1.0, "X": 1.0}, "interpolation": 2}]}, "start": 0, "end": 17.416666666666668, "title": "!100-Average Marks.mkv", "crop_y": {"Points": [{"co": {"Y": 0.0, "X": 1.0}, "interpolation": 2}]}, "reader": {"video_stream_index": 0, "video_length": "925", "interlaced_frame": false, "audio_bit_rate": 0, "audio_timebase": {"den": 1, "num": 1}, "vcodec": "h264", "channels": 0, "has_video": true, "channel_layout": 4, "has_audio": false, "video_timebase": {"den": 1000, "num": 1}, "has_single_image": false, "acodec": "", "video_bit_rate": 0, "display_ratio": {"den": 186, "num": 325}, "audio_stream_index": -1, "type": "FFmpegReader", "top_field_first": true, "width": 1300, "pixel_ratio": {"den": 1, "num": 1}, "height": 744, "duration": 37.0, "file_size": "281401", "path": "/home/milind/Data/Projects/ProgressCard/!100-Average Marks.mkv", "fps": {"den": 1, "num": 25}, "pixel_format": 0, "sample_rate": 0}, "layer": 1, "has_video": {"Points": [{"co": {"Y": -1.0, "X": 1.0}, "interpolation": 2}]}, "has_audio": {"Points": [{"co": {"Y": -1.0, "X": 1.0}, "interpolation": 2}]}, "channel_mapping": {"Points": [{"co": {"Y": -1.0, "X": 1.0}, "interpolation": 2}]}, "perspective_c3_y": {"Points": [{"co": {"Y": -1.0, "X": 1.0}, "interpolation": 2}]}, "waveform": false, "perspective_c3_x": {"Points": [{"co": {"Y": -1.0, "X": 1.0}, "interpolation": 2}]}, "scale_x": {"Points": [{"co": {"Y": 2.299999952316284, "X": 1.0}, "interpolation": 2}]}, "location_x": {"Points": [{"co": {"Y": -0.07999999821186066, "X": 1.0}, "interpolation": 2}]}, "location_y": {"Points": [{"co": {"Y": 0.5199999809265137, "X": 1.0}, "interpolation": 2}]}, "shear_y": {"Points": [{"co": {"Y": 0.0, "X": 1.0}, "interpolation": 2}]}, "perspective_c2_y": {"Points": [{"co": {"Y": -1.0, "X": 1.0}, "interpolation": 2}]}, "perspective_c1_y": {"Points": [{"co": {"Y": -1.0, "X": 1.0}, "interpolation": 2}]}, "rotation": {"Points": [{"co": {"Y": 0.0, "X": 1.0}, "interpolation": 2}]}, "perspective_c4_y": {"Points": [{"co": {"Y": -1.0, "X": 1.0}, "interpolation": 2}]}, "duration": 18.0, "wave_color": {"red": {"Points": [{"handle_right": {"Y": 0.0, "X": 0.5}, "handle_type": 0, "handle_left": {"Y": 1.0, "X": 0.5}, "co": {"Y": 0.0, "X": 1.0}, "interpolation": 0}]}, "green": {"Points": [{"handle_right": {"Y": 0.0, "X": 0.5}, "handle_type": 0, "handle_left": {"Y": 1.0, "X": 0.5}, "co": {"Y": 123.0, "X": 1.0}, "interpolation": 0}]}, "blue": {"Points": [{"handle_right": {"Y": 0.0, "X": 0.5}, "handle_type": 0, "handle_left": {"Y": 1.0, "X": 0.5}, "co": {"Y": 255.0, "X": 1.0}, "interpolation": 0}]}, "alpha": {"Points": [{"handle_right": {"Y": 0.0, "X": 0.5}, "handle_type": 0, "handle_left": {"Y": 1.0, "X": 0.5}, "co": {"Y": 255.0, "X": 1.0}, "interpolation": 0}]}}, "time": {"Points": [{"co": {"Y": 1, "X": 1}, "interpolation": 1}, {"co": {"Y": 835, "X": 418}, "interpolation": 1}]}, "crop_height": {"Points": [{"co": {"Y": -1.0, "X": 1.0}, "interpolation": 2}]}, "scale_y": {"Points": [{"co": {"Y": 2.299999952316284, "X": 1.0}, "interpolation": 2}]}, "effects": []}, {"location_x": {"Points": [{"co": {"Y": 0.0, "X": 1.0}, "interpolation": 2}]}, "perspective_c3_x": {"Points": [{"co": {"Y": -1.0, "X": 1.0}, "interpolation": 2}]}, "perspective_c4_x": {"Points": [{"co": {"Y": -1.0, "X": 1.0}, "interpolation": 2}]}, "channel_filter": {"Points": [{"co": {"Y": -1.0, "X": 1.0}, "interpolation": 2}]}, "perspective_c2_x": {"Points": [{"co": {"Y": -1.0, "X": 1.0}, "interpolation": 2}]}, "perspective_c1_x": {"Points": [{"co": {"Y": -1.0, "X": 1.0}, "interpolation": 2}]}, "anchor": 0, "alpha": {"Points": [{"co": {"Y": 1.0, "X": 1.0}, "interpolation": 2}]}, "id": "XUROHR8TBC", "layer": 0, "file_id": "0F0RWXSQM9", "display": 0, "scale": 1, "gravity": 4, "crop_width": {"Points": [{"co": {"Y": -1.0, "X": 1.0}, "interpolation": 2}]}, "crop_x": {"Points": [{"co": {"Y": 0.0, "X": 1.0}, "interpolation": 2}]}, "shear_x": {"Points": [{"co": {"Y": 0.0, "X": 1.0}, "interpolation": 2}]}, "volume": {"Points": [{"co": {"Y": 1.0, "X": 1.0}, "interpolation": 2}]}, "start": 0, "rotation": {"Points": [{"co": {"Y": 0.0, "X": 1.0}, "interpolation": 2}]}, "reader": {"video_stream_index": -1, "video_length": "2592000", "interlaced_frame": false, "audio_bit_rate": 0, "audio_timebase": {"den": 1, "num": 1}, "vcodec": "", "channels": 0, "has_video": true, "channel_layout": 4, "has_audio": false, "video_timebase": {"den": 30, "num": 1}, "has_single_image": true, "acodec": "", "video_bit_rate": 0, "display_ratio": {"den": 9, "num": 16}, "audio_stream_index": -1, "type": "QtImageReader", "top_field_first": true, "width": 1920, "pixel_ratio": {"den": 1, "num": 1}, "height": 1080, "duration": 86400.0, "file_size": "8294400", "path": "/home/milind/Data/Projects/ProgressCard/!000-White-Background.svg", "fps": {"den": 1, "num": 30}, "pixel_format": -1, "sample_rate": 0}, "position": 173.20078124999998, "has_video": {"Points": [{"co": {"Y": -1.0, "X": 1.0}, "interpolation": 2}]}, "has_audio": {"Points": [{"co": {"Y": -1.0, "X": 1.0}, "interpolation": 2}]}, "channel_mapping": {"Points": [{"co": {"Y": -1.0, "X": 1.0}, "interpolation": 2}]}, "shear_y": {"Points": [{"co": {"Y": 0.0, "X": 1.0}, "interpolation": 2}]}, "perspective_c3_y": {"Points": [{"co": {"Y": -1.0, "X": 1.0}, "interpolation": 2}]}, "waveform": false, "end": 10, "scale_x": {"Points": [{"co": {"Y": 1.0, "X": 1.0}, "interpolation": 2}]}, "image": "/home/milind/.openshot_qt/thumbnail/0F0RWXSQM9.png", "location_y": {"Points": [{"co": {"Y": 0.0, "X": 1.0}, "interpolation": 2}]}, "crop_y": {"Points": [{"co": {"Y": 0.0, "X": 1.0}, "interpolation": 2}]}, "perspective_c2_y": {"Points": [{"co": {"Y": -1.0, "X": 1.0}, "interpolation": 2}]}, "perspective_c1_y": {"Points": [{"co": {"Y": -1.0, "X": 1.0}, "interpolation": 2}]}, "title": "!000-White-Background.svg", "perspective_c4_y": {"Points": [{"co": {"Y": -1.0, "X": 1.0}, "interpolation": 2}]}, "duration": 86400.0, "wave_color": {"red": {"Points": [{"handle_right": {"Y": 0.0, "X": 0.5}, "handle_type": 0, "handle_left": {"Y": 1.0, "X": 0.5}, "co": {"Y": 0.0, "X": 1.0}, "interpolation": 0}]}, "green": {"Points": [{"handle_right": {"Y": 0.0, "X": 0.5}, "handle_type": 0, "handle_left": {"Y": 1.0, "X": 0.5}, "co": {"Y": 123.0, "X": 1.0}, "interpolation": 0}]}, "blue": {"Points": [{"handle_right": {"Y": 0.0, "X": 0.5}, "handle_type": 0, "handle_left": {"Y": 1.0, "X": 0.5}, "co": {"Y": 255.0, "X": 1.0}, "interpolation": 0}]}, "alpha": {"Points": [{"handle_right": {"Y": 0.0, "X": 0.5}, "handle_type": 0, "handle_left": {"Y": 1.0, "X": 0.5}, "co": {"Y": 255.0, "X": 1.0}, "interpolation": 0}]}}, "time": {"Points": [{"co": {"Y": 1.0, "X": 1.0}, "interpolation": 2}]}, "crop_height": {"Points": [{"co": {"Y": -1.0, "X": 1.0}, "interpolation": 2}]}, "scale_y": {"Points": [{"co": {"Y": 1.0, "X": 1.0}, "interpolation": 2}]}, "effects": []}, {"location_x": {"Points": [{"handle_right": {"Y": 0.0, "X": 0.5}, "handle_type": 0, "handle_left": {"Y": 1.0, "X": 0.5}, "co": {"Y": 0.0, "X": 1.0}, "interpolation": 0}]}, "perspective_c3_x": {"Points": [{"co": {"Y": -1.0, "X": 1.0}, "interpolation": 2}]}, "perspective_c4_x": {"Points": [{"co": {"Y": -1.0, "X": 1.0}, "interpolation": 2}]}, "channel_filter": {"Points": [{"co": {"Y": -1.0, "X": 1.0}, "interpolation": 2}]}, "perspective_c2_x": {"Points": [{"co": {"Y": -1.0, "X": 1.0}, "interpolation": 2}]}, "perspective_c1_x": {"Points": [{"co": {"Y": -1.0, "X": 1.0}, "interpolation": 2}]}, "anchor": 0, "alpha": {"Points": [{"co": {"Y": 1.0, "X": 1.0}, "interpolation": 2}, {"handle_right": {"Y": 0.0, "X": 0.5}, "handle_type": 0, "handle_left": {"Y": 1.0, "X": 0.5}, "co": {"Y": 0.0, "X": 1.0}, "interpolation": 0}, {"handle_right": {"Y": 0.0, "X": 0.5}, "handle_type": 0, "handle_left": {"Y": 1.0, "X": 0.5}, "co": {"Y": 1.0, "X": 73.0}, "interpolation": 0}]}, "id": "UUTCPBA7W2", "layer": 2, "file_id": "A5ENU0DW4J", "display": 0, "scale": 1, "gravity": 4, "crop_width": {"Points": [{"co": {"Y": -1.0, "X": 1.0}, "interpolation": 2}]}, "crop_x": {"Points": [{"co": {"Y": 0.0, "X": 1.0}, "interpolation": 2}]}, "shear_x": {"Points": [{"co": {"Y": 0.0, "X": 1.0}, "interpolation": 2}]}, "volume": {"Points": [{"co": {"Y": 1.0, "X": 1.0}, "interpolation": 2}]}, "start": 0, "rotation": {"Points": [{"co": {"Y": 0.0, "X": 1.0}, "interpolation": 2}]}, "reader": {"video_stream_index": 0, "video_length": "500", "interlaced_frame": false, "audio_bit_rate": 0, "audio_timebase": {"den": 1, "num": 1}, "vcodec": "h264", "channels": 0, "has_video": true, "channel_layout": 4, "has_audio": false, "video_timebase": {"den": 1000, "num": 1}, "has_single_image": false, "acodec": "", "video_bit_rate": 0, "display_ratio": {"den": 186, "num": 325}, "audio_stream_index": -1, "type": "FFmpegReader", "top_field_first": true, "width": 1300, "pixel_ratio": {"den": 1, "num": 1}, "height": 744, "duration": 20.0, "file_size": "204468", "path": "/home/milind/Data/Projects/ProgressCard/!110-Float Format Dialog.mkv", "fps": {"den": 1, "num": 25}, "pixel_format": 0, "sample_rate": 0}, "position": 140.15171875, "has_video": {"Points": [{"co": {"Y": -1.0, "X": 1.0}, "interpolation": 2}]}, "has_audio": {"Points": [{"co": {"Y": -1.0, "X": 1.0}, "interpolation": 2}]}, "channel_mapping": {"Points": [{"co": {"Y": -1.0, "X": 1.0}, "interpolation": 2}]}, "shear_y": {"Points": [{"co": {"Y": 0.0, "X": 1.0}, "interpolation": 2}]}, "perspective_c3_y": {"Points": [{"co": {"Y": -1.0, "X": 1.0}, "interpolation": 2}]}, "waveform": false, "end": 13.523333333333312, "scale_x": {"Points": [{"handle_right": {"Y": 0.0, "X": 0.5}, "handle_type": 0, "handle_left": {"Y": 1.0, "X": 0.5}, "co": {"Y": 1.5, "X": 1.0}, "interpolation": 0}]}, "image": "/home/milind/.openshot_qt/thumbnail/A5ENU0DW4J.png", "location_y": {"Points": [{"handle_right": {"Y": 0.0, "X": 0.5}, "handle_type": 0, "handle_left": {"Y": 1.0, "X": 0.5}, "co": {"Y": 0.0, "X": 1.0}, "interpolation": 0}]}, "crop_y": {"Points": [{"co": {"Y": 0.0, "X": 1.0}, "interpolation": 2}]}, "perspective_c2_y": {"Points": [{"co": {"Y": -1.0, "X": 1.0}, "interpolation": 2}]}, "perspective_c1_y": {"Points": [{"co": {"Y": -1.0, "X": 1.0}, "interpolation": 2}]}, "title": "!110-Float Format Dialog.mkv", "perspective_c4_y": {"Points": [{"co": {"Y": -1.0, "X": 1.0}, "interpolation": 2}]}, "duration": 20.0, "wave_color": {"red": {"Points": [{"handle_right": {"Y": 0.0, "X": 0.5}, "handle_type": 0, "handle_left": {"Y": 1.0, "X": 0.5}, "co": {"Y": 0.0, "X": 1.0}, "interpolation": 0}]}, "green": {"Points": [{"handle_right": {"Y": 0.0, "X": 0.5}, "handle_type": 0, "handle_left": {"Y": 1.0, "X": 0.5}, "co": {"Y": 123.0, "X": 1.0}, "interpolation": 0}]}, "blue": {"Points": [{"handle_right": {"Y": 0.0, "X": 0.5}, "handle_type": 0, "handle_left": {"Y": 1.0, "X": 0.5}, "co": {"Y": 255.0, "X": 1.0}, "interpolation": 0}]}, "alpha": {"Points": [{"handle_right": {"Y": 0.0, "X": 0.5}, "handle_type": 0, "handle_left": {"Y": 1.0, "X": 0.5}, "co": {"Y": 255.0, "X": 1.0}, "interpolation": 0}]}}, "time": {"Points": [{"co": {"Y": 1.0, "X": 1.0}, "interpolation": 2}]}, "crop_height": {"Points": [{"co": {"Y": -1.0, "X": 1.0}, "interpolation": 2}]}, "scale_y": {"Points": [{"handle_right": {"Y": 0.0, "X": 0.5}, "handle_type": 0, "handle_left": {"Y": 1.0, "X": 0.5}, "co": {"Y": 1.5, "X": 1.0}, "interpolation": 0}]}, "effects": []}, {"location_x": {"Points": [{"co": {"Y": 0.0, "X": 1.0}, "interpolation": 2}]}, "perspective_c3_x": {"Points": [{"co": {"Y": -1.0, "X": 1.0}, "interpolation": 2}]}, "perspective_c4_x": {"Points": [{"co": {"Y": -1.0, "X": 1.0}, "interpolation": 2}]}, "channel_filter": {"Points": [{"co": {"Y": -1.0, "X": 1.0}, "interpolation": 2}]}, "perspective_c2_x": {"Points": [{"co": {"Y": -1.0, "X": 1.0}, "interpolation": 2}]}, "perspective_c1_x": {"Points": [{"co": {"Y": -1.0, "X": 1.0}, "interpolation": 2}]}, "anchor": 0, "alpha": {"Points": [{"co": {"Y": 1.0, "X": 1.0}, "interpolation": 2}]}, "id": "HGE2JUKOAI", "layer": 0, "file_id": "0F0RWXSQM9", "display": 0, "scale": 1, "gravity": 4, "crop_width": {"Points": [{"co": {"Y": -1.0, "X": 1.0}, "interpolation": 2}]}, "crop_x": {"Points": [{"co": {"Y": 0.0, "X": 1.0}, "interpolation": 2}]}, "shear_x": {"Points": [{"co": {"Y": 0.0, "X": 1.0}, "interpolation": 2}]}, "volume": {"Points": [{"co": {"Y": 1.0, "X": 1.0}, "interpolation": 2}]}, "start": 0, "rotation": {"Points": [{"co": {"Y": 0.0, "X": 1.0}, "interpolation": 2}]}, "reader": {"video_stream_index": -1, "video_length": "2592000", "interlaced_frame": false, "audio_bit_rate": 0, "audio_timebase": {"den": 1, "num": 1}, "vcodec": "", "channels": 0, "has_video": true, "channel_layout": 4, "has_audio": false, "video_timebase": {"den": 30, "num": 1}, "has_single_image": true, "acodec": "", "video_bit_rate": 0, "display_ratio": {"den": 9, "num": 16}, "audio_stream_index": -1, "type": "QtImageReader", "top_field_first": true, "width": 1920, "pixel_ratio": {"den": 1, "num": 1}, "height": 1080, "duration": 86400.0, "file_size": "8294400", "path": "/home/milind/Data/Projects/ProgressCard/!000-White-Background.svg", "fps": {"den": 1, "num": 30}, "pixel_format": -1, "sample_rate": 0}, "position": 262.15859374999997, "has_video": {"Points": [{"co": {"Y": -1.0, "X": 1.0}, "interpolation": 2}]}, "has_audio": {"Points": [{"co": {"Y": -1.0, "X": 1.0}, "interpolation": 2}]}, "channel_mapping": {"Points": [{"co": {"Y": -1.0, "X": 1.0}, "interpolation": 2}]}, "shear_y": {"Points": [{"co": {"Y": 0.0, "X": 1.0}, "interpolation": 2}]}, "perspective_c3_y": {"Points": [{"co": {"Y": -1.0, "X": 1.0}, "interpolation": 2}]}, "waveform": false, "end": 10, "scale_x": {"Points": [{"co": {"Y": 1.0, "X": 1.0}, "interpolation": 2}]}, "image": "/home/milind/.openshot_qt/thumbnail/0F0RWXSQM9.png", "location_y": {"Points": [{"co": {"Y": 0.0, "X": 1.0}, "interpolation": 2}]}, "crop_y": {"Points": [{"co": {"Y": 0.0, "X": 1.0}, "interpolation": 2}]}, "perspective_c2_y": {"Points": [{"co": {"Y": -1.0, "X": 1.0}, "interpolation": 2}]}, "perspective_c1_y": {"Points": [{"co": {"Y": -1.0, "X": 1.0}, "interpolation": 2}]}, "title": "!000-White-Background.svg", "perspective_c4_y": {"Points": [{"co": {"Y": -1.0, "X": 1.0}, "interpolation": 2}]}, "duration": 86400.0, "wave_color": {"red": {"Points": [{"handle_right": {"Y": 0.0, "X": 0.5}, "handle_type": 0, "handle_left": {"Y": 1.0, "X": 0.5}, "co": {"Y": 0.0, "X": 1.0}, "interpolation": 0}]}, "green": {"Points": [{"handle_right": {"Y": 0.0, "X": 0.5}, "handle_type": 0, "handle_left": {"Y": 1.0, "X": 0.5}, "co": {"Y": 123.0, "X": 1.0}, "interpolation": 0}]}, "blue": {"Points": [{"handle_right": {"Y": 0.0, "X": 0.5}, "handle_type": 0, "handle_left": {"Y": 1.0, "X": 0.5}, "co": {"Y": 255.0, "X": 1.0}, "interpolation": 0}]}, "alpha": {"Points": [{"handle_right": {"Y": 0.0, "X": 0.5}, "handle_type": 0, "handle_left": {"Y": 1.0, "X": 0.5}, "co": {"Y": 255.0, "X": 1.0}, "interpolation": 0}]}}, "time": {"Points": [{"co": {"Y": 1.0, "X": 1.0}, "interpolation": 2}]}, "crop_height": {"Points": [{"co": {"Y": -1.0, "X": 1.0}, "interpolation": 2}]}, "scale_y": {"Points": [{"co": {"Y": 1.0, "X": 1.0}, "interpolation": 2}]}, "effects": []}, {"location_x": {"Points": [{"co": {"Y": 0.0, "X": 1.0}, "interpolation": 2}]}, "perspective_c4_x": {"Points": [{"co": {"Y": -1.0, "X": 1.0}, "interpolation": 2}]}, "channel_filter": {"Points": [{"co": {"Y": -1.0, "X": 1.0}, "interpolation": 2}]}, "duration": 15.0, "perspective_c1_x": {"Points": [{"co": {"Y": -1.0, "X": 1.0}, "interpolation": 2}]}, "perspective_c2_x": {"Points": [{"co": {"Y": -1.0, "X": 1.0}, "interpolation": 2}]}, "alpha": {"Points": [{"handle_right": {"Y": 0.0, "X": 0.5}, "handle_type": 0, "handle_left": {"Y": 1.0, "X": 0.5}, "co": {"Y": 1.0, "X": 1.0}, "interpolation": 0}, {"handle_right": {"Y": 0.0, "X": 0.5}, "handle_type": 0, "handle_left": {"Y": 1.0, "X": 0.5}, "co": {"Y": 0.0, "X": 1.0}, "interpolation": 0}, {"handle_right": {"Y": 0.0, "X": 0.5}, "handle_type": 0, "handle_left": {"Y": 1.0, "X": 0.5}, "co": {"Y": 1.0, "X": 73.0}, "interpolation": 0}, {"handle_right": {"Y": 0.0, "X": 0.5}, "handle_type": 0, "handle_left": {"Y": 1.0, "X": 0.5}, "co": {"Y": 1.0, "X": 183.0}, "interpolation": 0}, {"handle_right": {"Y": 0.0, "X": 0.5}, "handle_type": 0, "handle_left": {"Y": 1.0, "X": 0.5}, "co": {"Y": 0.0, "X": 255.0}, "interpolation": 0}]}, "id": "O0H3RPMELI", "layer": 3, "display": 0, "scale": 1, "gravity": 4, "crop_width": {"Points": [{"co": {"Y": -1.0, "X": 1.0}, "interpolation": 2}]}, "crop_x": {"Points": [{"co": {"Y": 0.0, "X": 1.0}, "interpolation": 2}]}, "shear_x": {"Points": [{"co": {"Y": 0.0, "X": 1.0}, "interpolation": 2}]}, "volume": {"Points": [{"co": {"Y": 1.0, "X": 1.0}, "interpolation": 2}]}, "has_audio": {"Points": [{"co": {"Y": -1.0, "X": 1.0}, "interpolation": 2}]}, "end": 10.595000000000027, "title": "!120-Two Decimal Format.mkv", "crop_y": {"Points": [{"co": {"Y": 0.0, "X": 1.0}, "interpolation": 2}]}, "reader": {"video_stream_index": 0, "video_length": "375", "interlaced_frame": false, "audio_bit_rate": 0, "audio_timebase": {"den": 1, "num": 1}, "vcodec": "h264", "channels": 0, "has_video": true, "channel_layout": 4, "has_audio": false, "video_timebase": {"den": 1000, "num": 1}, "has_single_image": false, "acodec": "", "video_bit_rate": 0, "display_ratio": {"den": 186, "num": 325}, "audio_stream_index": -1, "type": "FFmpegReader", "top_field_first": true, "width": 1300, "pixel_ratio": {"den": 1, "num": 1}, "height": 744, "duration": 15.0, "file_size": "187523", "path": "/home/milind/Data/Projects/ProgressCard/!120-Two Decimal Format.mkv", "fps": {"den": 1, "num": 25}, "pixel_format": 0, "sample_rate": 0}, "position": 152.00921875, "has_video": {"Points": [{"co": {"Y": -1.0, "X": 1.0}, "interpolation": 2}]}, "start": 0, "channel_mapping": {"Points": [{"co": {"Y": -1.0, "X": 1.0}, "interpolation": 2}]}, "shear_y": {"Points": [{"co": {"Y": 0.0, "X": 1.0}, "interpolation": 2}]}, "perspective_c3_y": {"Points": [{"co": {"Y": -1.0, "X": 1.0}, "interpolation": 2}]}, "waveform": false, "perspective_c3_x": {"Points": [{"co": {"Y": -1.0, "X": 1.0}, "interpolation": 2}]}, "scale_x": {"Points": [{"co": {"Y": 1.5, "X": 1.0}, "interpolation": 2}]}, "image": "/home/milind/.openshot_qt/thumbnail/UGJYEMW42F.png", "location_y": {"Points": [{"co": {"Y": 0.0, "X": 1.0}, "interpolation": 2}]}, "file_id": "UGJYEMW42F", "perspective_c2_y": {"Points": [{"co": {"Y": -1.0, "X": 1.0}, "interpolation": 2}]}, "perspective_c1_y": {"Points": [{"co": {"Y": -1.0, "X": 1.0}, "interpolation": 2}]}, "rotation": {"Points": [{"co": {"Y": 0.0, "X": 1.0}, "interpolation": 2}]}, "perspective_c4_y": {"Points": [{"co": {"Y": -1.0, "X": 1.0}, "interpolation": 2}]}, "anchor": 0, "wave_color": {"red": {"Points": [{"handle_right": {"Y": 0.0, "X": 0.5}, "handle_type": 0, "handle_left": {"Y": 1.0, "X": 0.5}, "co": {"Y": 0.0, "X": 1.0}, "interpolation": 0}]}, "green": {"Points": [{"handle_right": {"Y": 0.0, "X": 0.5}, "handle_type": 0, "handle_left": {"Y": 1.0, "X": 0.5}, "co": {"Y": 123.0, "X": 1.0}, "interpolation": 0}]}, "blue": {"Points": [{"handle_right": {"Y": 0.0, "X": 0.5}, "handle_type": 0, "handle_left": {"Y": 1.0, "X": 0.5}, "co": {"Y": 255.0, "X": 1.0}, "interpolation": 0}]}, "alpha": {"Points": [{"handle_right": {"Y": 0.0, "X": 0.5}, "handle_type": 0, "handle_left": {"Y": 1.0, "X": 0.5}, "co": {"Y": 255.0, "X": 1.0}, "interpolation": 0}]}}, "time": {"Points": [{"co": {"Y": 1.0, "X": 1.0}, "interpolation": 2}]}, "crop_height": {"Points": [{"co": {"Y": -1.0, "X": 1.0}, "interpolation": 2}]}, "scale_y": {"Points": [{"co": {"Y": 1.5, "X": 1.0}, "interpolation": 2}]}, "effects": []}, {"location_x": {"Points": [{"handle_right": {"Y": 0.0, "X": 0.5}, "handle_type": 0, "handle_left": {"Y": 1.0, "X": 0.5}, "co": {"Y": 0.5299999713897705, "X": 1.0}, "interpolation": 0}, {"co": {"Y": -0.019999999552965164, "X": 121}, "interpolation": 1}]}, "perspective_c3_x": {"Points": [{"co": {"Y": -1.0, "X": 1.0}, "interpolation": 2}]}, "perspective_c4_x": {"Points": [{"co": {"Y": -1.0, "X": 1.0}, "interpolation": 2}]}, "channel_filter": {"Points": [{"co": {"Y": -1.0, "X": 1.0}, "interpolation": 2}]}, "perspective_c2_x": {"Points": [{"co": {"Y": -1.0, "X": 1.0}, "interpolation": 2}]}, "perspective_c1_x": {"Points": [{"co": {"Y": -1.0, "X": 1.0}, "interpolation": 2}]}, "anchor": 0, "alpha": {"Points": [{"handle_right": {"Y": 0, "X": 0.5}, "handle_type": 0, "handle_left": {"Y": 1, "X": 0.5}, "co": {"Y": 1, "X": 1}, "interpolation": 0}, {"handle_right": {"Y": 0, "X": 0.5}, "handle_type": 0, "handle_left": {"Y": 1, "X": 0.5}, "co": {"Y": 0, "X": 1}, "interpolation": 0}, {"handle_right": {"Y": 0, "X": 0.5}, "handle_type": 0, "handle_left": {"Y": 1, "X": 0.5}, "co": {"Y": 1, "X": 73}, "interpolation": 0}, {"handle_right": {"Y": 0, "X": 0.5}, "handle_type": 0, "handle_left": {"Y": 1, "X": 0.5}, "co": {"Y": 1, "X": 2057}, "interpolation": 0}, {"handle_right": {"Y": 0, "X": 0.5}, "handle_type": 0, "handle_left": {"Y": 1, "X": 0.5}, "co": {"Y": 0, "X": 2129}, "interpolation": 0}]}, "id": "1W8DREEE59", "layer": 1, "file_id": "616P05WPS9", "display": 0, "scale": 1, "gravity": 4, "crop_width": {"Points": [{"co": {"Y": -1.0, "X": 1.0}, "interpolation": 2}]}, "crop_x": {"Points": [{"co": {"Y": 0.0, "X": 1.0}, "interpolation": 2}]}, "shear_x": {"Points": [{"co": {"Y": 0.0, "X": 1.0}, "interpolation": 2}]}, "volume": {"Points": [{"co": {"Y": 1.0, "X": 1.0}, "interpolation": 2}]}, "start": 0, "rotation": {"Points": [{"co": {"Y": 0.0, "X": 1.0}, "interpolation": 2}]}, "reader": {"video_stream_index": 0, "video_length": "4525", "interlaced_frame": false, "audio_bit_rate": 0, "audio_timebase": {"den": 1, "num": 1}, "vcodec": "h264", "channels": 0, "has_video": true, "channel_layout": 4, "has_audio": false, "video_timebase": {"den": 1000, "num": 1}, "has_single_image": false, "acodec": "", "video_bit_rate": 0, "display_ratio": {"den": 186, "num": 325}, "audio_stream_index": -1, "type": "FFmpegReader", "top_field_first": true, "width": 1300, "pixel_ratio": {"den": 1, "num": 1}, "height": 744, "duration": 181.0, "file_size": "1502027", "path": "/home/milind/Data/Projects/ProgressCard/!140-Grade Formula.mkv", "fps": {"den": 1, "num": 25}, "pixel_format": 0, "sample_rate": 0}, "position": 177.65796874999998, "has_video": {"Points": [{"co": {"Y": -1.0, "X": 1.0}, "interpolation": 2}]}, "has_audio": {"Points": [{"co": {"Y": -1.0, "X": 1.0}, "interpolation": 2}]}, "channel_mapping": {"Points": [{"co": {"Y": -1.0, "X": 1.0}, "interpolation": 2}]}, "shear_y": {"Points": [{"co": {"Y": 0.0, "X": 1.0}, "interpolation": 2}]}, "perspective_c3_y": {"Points": [{"co": {"Y": -1.0, "X": 1.0}, "interpolation": 2}]}, "waveform": false, "end": 88.66666666666667, "scale_x": {"Points": [{"handle_right": {"Y": 0.0, "X": 0.5}, "handle_type": 0, "handle_left": {"Y": 1.0, "X": 0.5}, "co": {"Y": 2.299999952316284, "X": 1.0}, "interpolation": 0}, {"co": {"Y": 1.7000000476837158, "X": 121}, "interpolation": 1}]}, "image": "/home/milind/.openshot_qt/thumbnail/616P05WPS9.png", "location_y": {"Points": [{"handle_right": {"Y": 0.0, "X": 0.5}, "handle_type": 0, "handle_left": {"Y": 1.0, "X": 0.5}, "co": {"Y": 0.5199999809265137, "X": 1.0}, "interpolation": 0}, {"co": {"Y": 0.30000001192092896, "X": 121}, "interpolation": 1}]}, "crop_y": {"Points": [{"co": {"Y": 0.0, "X": 1.0}, "interpolation": 2}]}, "perspective_c2_y": {"Points": [{"co": {"Y": -1.0, "X": 1.0}, "interpolation": 2}]}, "perspective_c1_y": {"Points": [{"co": {"Y": -1.0, "X": 1.0}, "interpolation": 2}]}, "title": "!140-Grade Formula.mkv", "perspective_c4_y": {"Points": [{"co": {"Y": -1.0, "X": 1.0}, "interpolation": 2}]}, "duration": 90.0, "wave_color": {"red": {"Points": [{"handle_right": {"Y": 0.0, "X": 0.5}, "handle_type": 0, "handle_left": {"Y": 1.0, "X": 0.5}, "co": {"Y": 0.0, "X": 1.0}, "interpolation": 0}]}, "green": {"Points": [{"handle_right": {"Y": 0.0, "X": 0.5}, "handle_type": 0, "handle_left": {"Y": 1.0, "X": 0.5}, "co": {"Y": 123.0, "X": 1.0}, "interpolation": 0}]}, "blue": {"Points": [{"handle_right": {"Y": 0.0, "X": 0.5}, "handle_type": 0, "handle_left": {"Y": 1.0, "X": 0.5}, "co": {"Y": 255.0, "X": 1.0}, "interpolation": 0}]}, "alpha": {"Points": [{"handle_right": {"Y": 0.0, "X": 0.5}, "handle_type": 0, "handle_left": {"Y": 1.0, "X": 0.5}, "co": {"Y": 255.0, "X": 1.0}, "interpolation": 0}]}}, "time": {"Points": [{"co": {"Y": 1, "X": 1}, "interpolation": 1}, {"co": {"Y": 4255, "X": 2128}, "interpolation": 1}]}, "crop_height": {"Points": [{"co": {"Y": -1.0, "X": 1.0}, "interpolation": 2}]}, "scale_y": {"Points": [{"handle_right": {"Y": 0.0, "X": 0.5}, "handle_type": 0, "handle_left": {"Y": 1.0, "X": 0.5}, "co": {"Y": 2.299999952316284, "X": 1.0}, "interpolation": 0}, {"co": {"Y": 1.7000000476837158, "X": 121}, "interpolation": 1}]}, "effects": []}, {"location_x": {"Points": [{"co": {"Y": 0.0, "X": 1.0}, "interpolation": 2}, {"co": {"Y": -0.07999999821186066, "X": 373}, "interpolation": 1}, {"co": {"Y": 0.0, "X": 224}, "interpolation": 1}, {"co": {"Y": 0.0, "X": 617}, "interpolation": 1}]}, "perspective_c3_x": {"Points": [{"co": {"Y": -1.0, "X": 1.0}, "interpolation": 2}]}, "perspective_c4_x": {"Points": [{"co": {"Y": -1.0, "X": 1.0}, "interpolation": 2}]}, "channel_filter": {"Points": [{"co": {"Y": -1.0, "X": 1.0}, "interpolation": 2}]}, "perspective_c2_x": {"Points": [{"co": {"Y": -1.0, "X": 1.0}, "interpolation": 2}]}, "perspective_c1_x": {"Points": [{"co": {"Y": -1.0, "X": 1.0}, "interpolation": 2}]}, "anchor": 0, "alpha": {"Points": [{"co": {"Y": 1.0, "X": 1.0}, "interpolation": 2}, {"handle_right": {"Y": 0.0, "X": 0.5}, "handle_type": 0, "handle_left": {"Y": 1.0, "X": 0.5}, "co": {"Y": 1.0, "X": 545.0}, "interpolation": 0}, {"handle_right": {"Y": 0.0, "X": 0.5}, "handle_type": 0, "handle_left": {"Y": 1.0, "X": 0.5}, "co": {"Y": 0.0, "X": 617.0}, "interpolation": 0}]}, "id": "3KRS4J70ZV", "layer": 1, "file_id": "2202V21TTZ", "display": 0, "scale": 1, "gravity": 4, "crop_width": {"Points": [{"co": {"Y": -1.0, "X": 1.0}, "interpolation": 2}]}, "crop_x": {"Points": [{"co": {"Y": 0.0, "X": 1.0}, "interpolation": 2}]}, "shear_x": {"Points": [{"co": {"Y": 0.0, "X": 1.0}, "interpolation": 2}, {"co": {"Y": 0.0, "X": 373}, "interpolation": 1}]}, "volume": {"Points": [{"co": {"Y": 1.0, "X": 1.0}, "interpolation": 2}]}, "start": 0, "rotation": {"Points": [{"co": {"Y": 0.0, "X": 1.0}, "interpolation": 2}]}, "reader": {"video_stream_index": 0, "video_length": "725", "interlaced_frame": false, "audio_bit_rate": 0, "audio_timebase": {"den": 1, "num": 1}, "vcodec": "h264", "channels": 0, "has_video": true, "channel_layout": 4, "has_audio": false, "video_timebase": {"den": 1000, "num": 1}, "has_single_image": false, "acodec": "", "video_bit_rate": 0, "display_ratio": {"den": 186, "num": 325}, "audio_stream_index": -1, "type": "FFmpegReader", "top_field_first": true, "width": 1300, "pixel_ratio": {"den": 1, "num": 1}, "height": 744, "duration": 29.0, "file_size": "293155", "path": "/home/milind/Data/Projects/ProgressCard/!130-Copy Average.mkv", "fps": {"den": 1, "num": 25}, "pixel_format": 0, "sample_rate": 0}, "position": 152.00921875, "has_video": {"Points": [{"co": {"Y": -1.0, "X": 1.0}, "interpolation": 2}]}, "has_audio": {"Points": [{"co": {"Y": -1.0, "X": 1.0}, "interpolation": 2}]}, "channel_mapping": {"Points": [{"co": {"Y": -1.0, "X": 1.0}, "interpolation": 2}]}, "shear_y": {"Points": [{"co": {"Y": 0.0, "X": 1.0}, "interpolation": 2}]}, "perspective_c3_y": {"Points": [{"co": {"Y": -1.0, "X": 1.0}, "interpolation": 2}]}, "waveform": false, "end": 25.649999999999977, "scale_x": {"Points": [{"co": {"Y": 1.5, "X": 1.0}, "interpolation": 2}, {"co": {"Y": 2.299999952316284, "X": 373}, "interpolation": 1}, {"co": {"Y": 1.5, "X": 224}, "interpolation": 1}]}, "image": "/home/milind/.openshot_qt/thumbnail/2202V21TTZ.png", "location_y": {"Points": [{"co": {"Y": 0.0, "X": 1.0}, "interpolation": 2}, {"co": {"Y": 0.5199999809265137, "X": 373}, "interpolation": 1}, {"co": {"Y": 0.0, "X": 224}, "interpolation": 1}]}, "crop_y": {"Points": [{"co": {"Y": 0.0, "X": 1.0}, "interpolation": 2}]}, "perspective_c2_y": {"Points": [{"co": {"Y": -1.0, "X": 1.0}, "interpolation": 2}]}, "perspective_c1_y": {"Points": [{"co": {"Y": -1.0, "X": 1.0}, "interpolation": 2}]}, "title": "!130-Copy Average.mkv", "perspective_c4_y": {"Points": [{"co": {"Y": -1.0, "X": 1.0}, "interpolation": 2}]}, "duration": 29.0, "wave_color": {"red": {"Points": [{"handle_right": {"Y": 0.0, "X": 0.5}, "handle_type": 0, "handle_left": {"Y": 1.0, "X": 0.5}, "co": {"Y": 0.0, "X": 1.0}, "interpolation": 0}]}, "green": {"Points": [{"handle_right": {"Y": 0.0, "X": 0.5}, "handle_type": 0, "handle_left": {"Y": 1.0, "X": 0.5}, "co": {"Y": 123.0, "X": 1.0}, "interpolation": 0}]}, "blue": {"Points": [{"handle_right": {"Y": 0.0, "X": 0.5}, "handle_type": 0, "handle_left": {"Y": 1.0, "X": 0.5}, "co": {"Y": 255.0, "X": 1.0}, "interpolation": 0}]}, "alpha": {"Points": [{"handle_right": {"Y": 0.0, "X": 0.5}, "handle_type": 0, "handle_left": {"Y": 1.0, "X": 0.5}, "co": {"Y": 255.0, "X": 1.0}, "interpolation": 0}]}}, "time": {"Points": [{"co": {"Y": 1.0, "X": 1.0}, "interpolation": 2}]}, "crop_height": {"Points": [{"co": {"Y": -1.0, "X": 1.0}, "interpolation": 2}]}, "scale_y": {"Points": [{"co": {"Y": 1.5, "X": 1.0}, "interpolation": 2}, {"co": {"Y": 2.299999952316284, "X": 373}, "interpolation": 1}, {"co": {"Y": 1.5, "X": 224}, "interpolation": 1}]}, "effects": []}, {"location_x": {"Points": [{"co": {"Y": 0.0, "X": 1.0}, "interpolation": 2}]}, "perspective_c3_x": {"Points": [{"co": {"Y": -1.0, "X": 1.0}, "interpolation": 2}]}, "perspective_c4_x": {"Points": [{"co": {"Y": -1.0, "X": 1.0}, "interpolation": 2}]}, "channel_filter": {"Points": [{"co": {"Y": -1.0, "X": 1.0}, "interpolation": 2}]}, "perspective_c2_x": {"Points": [{"co": {"Y": -1.0, "X": 1.0}, "interpolation": 2}]}, "perspective_c1_x": {"Points": [{"co": {"Y": -1.0, "X": 1.0}, "interpolation": 2}]}, "anchor": 0, "alpha": {"Points": [{"co": {"Y": 1.0, "X": 1.0}, "interpolation": 2}]}, "id": "87020DYHA9", "layer": 0, "file_id": "0F0RWXSQM9", "display": 0, "scale": 1, "gravity": 4, "crop_width": {"Points": [{"co": {"Y": -1.0, "X": 1.0}, "interpolation": 2}]}, "crop_x": {"Points": [{"co": {"Y": 0.0, "X": 1.0}, "interpolation": 2}]}, "shear_x": {"Points": [{"co": {"Y": 0.0, "X": 1.0}, "interpolation": 2}]}, "volume": {"Points": [{"co": {"Y": 1.0, "X": 1.0}, "interpolation": 2}]}, "start": 0, "rotation": {"Points": [{"co": {"Y": 0.0, "X": 1.0}, "interpolation": 2}]}, "reader": {"video_stream_index": -1, "video_length": "2592000", "interlaced_frame": false, "audio_bit_rate": 0, "audio_timebase": {"den": 1, "num": 1}, "vcodec": "", "channels": 0, "has_video": true, "channel_layout": 4, "has_audio": false, "video_timebase": {"den": 30, "num": 1}, "has_single_image": true, "acodec": "", "video_bit_rate": 0, "display_ratio": {"den": 9, "num": 16}, "audio_stream_index": -1, "type": "QtImageReader", "top_field_first": true, "width": 1920, "pixel_ratio": {"den": 1, "num": 1}, "height": 1080, "duration": 86400.0, "file_size": "8294400", "path": "/home/milind/Data/Projects/ProgressCard/!000-White-Background.svg", "fps": {"den": 1, "num": 30}, "pixel_format": -1, "sample_rate": 0}, "position": 289.16999999999996, "has_video": {"Points": [{"co": {"Y": -1.0, "X": 1.0}, "interpolation": 2}]}, "has_audio": {"Points": [{"co": {"Y": -1.0, "X": 1.0}, "interpolation": 2}]}, "channel_mapping": {"Points": [{"co": {"Y": -1.0, "X": 1.0}, "interpolation": 2}]}, "shear_y": {"Points": [{"co": {"Y": 0.0, "X": 1.0}, "interpolation": 2}]}, "perspective_c3_y": {"Points": [{"co": {"Y": -1.0, "X": 1.0}, "interpolation": 2}]}, "waveform": false, "end": 9.49, "scale_x": {"Points": [{"co": {"Y": 1.0, "X": 1.0}, "interpolation": 2}]}, "image": "/home/milind/.openshot_qt/thumbnail/0F0RWXSQM9.png", "location_y": {"Points": [{"co": {"Y": 0.0, "X": 1.0}, "interpolation": 2}]}, "crop_y": {"Points": [{"co": {"Y": 0.0, "X": 1.0}, "interpolation": 2}]}, "perspective_c2_y": {"Points": [{"co": {"Y": -1.0, "X": 1.0}, "interpolation": 2}]}, "perspective_c1_y": {"Points": [{"co": {"Y": -1.0, "X": 1.0}, "interpolation": 2}]}, "title": "!000-White-Background.svg", "perspective_c4_y": {"Points": [{"co": {"Y": -1.0, "X": 1.0}, "interpolation": 2}]}, "duration": 86400.0, "wave_color": {"red": {"Points": [{"handle_right": {"Y": 0.0, "X": 0.5}, "handle_type": 0, "handle_left": {"Y": 1.0, "X": 0.5}, "co": {"Y": 0.0, "X": 1.0}, "interpolation": 0}]}, "green": {"Points": [{"handle_right": {"Y": 0.0, "X": 0.5}, "handle_type": 0, "handle_left": {"Y": 1.0, "X": 0.5}, "co": {"Y": 123.0, "X": 1.0}, "interpolation": 0}]}, "blue": {"Points": [{"handle_right": {"Y": 0.0, "X": 0.5}, "handle_type": 0, "handle_left": {"Y": 1.0, "X": 0.5}, "co": {"Y": 255.0, "X": 1.0}, "interpolation": 0}]}, "alpha": {"Points": [{"handle_right": {"Y": 0.0, "X": 0.5}, "handle_type": 0, "handle_left": {"Y": 1.0, "X": 0.5}, "co": {"Y": 255.0, "X": 1.0}, "interpolation": 0}]}}, "time": {"Points": [{"co": {"Y": 1.0, "X": 1.0}, "interpolation": 2}]}, "crop_height": {"Points": [{"co": {"Y": -1.0, "X": 1.0}, "interpolation": 2}]}, "scale_y": {"Points": [{"co": {"Y": 1.0, "X": 1.0}, "interpolation": 2}]}, "effects": []}, {"location_x": {"Points": [{"co": {"Y": -0.019999999552965164, "X": 1}, "interpolation": 2}]}, "perspective_c3_x": {"Points": [{"co": {"Y": -1, "X": 1}, "interpolation": 2}]}, "perspective_c4_x": {"Points": [{"co": {"Y": -1, "X": 1}, "interpolation": 2}]}, "channel_filter": {"Points": [{"co": {"Y": -1, "X": 1}, "interpolation": 2}]}, "perspective_c2_x": {"Points": [{"co": {"Y": -1, "X": 1}, "interpolation": 2}]}, "perspective_c1_x": {"Points": [{"co": {"Y": -1, "X": 1}, "interpolation": 2}]}, "anchor": 0, "alpha": {"Points": [{"handle_right": {"Y": 0, "X": 0.5}, "handle_type": 0, "handle_left": {"Y": 1, "X": 0.5}, "co": {"Y": 1, "X": 1}, "interpolation": 0}, {"handle_right": {"Y": 0, "X": 0.5}, "handle_type": 0, "handle_left": {"Y": 1, "X": 0.5}, "co": {"Y": 0, "X": 1}, "interpolation": 0}, {"handle_right": {"Y": 0, "X": 0.5}, "handle_type": 0, "handle_left": {"Y": 1, "X": 0.5}, "co": {"Y": 1, "X": 73}, "interpolation": 0}, {"handle_right": {"Y": 0, "X": 0.5}, "handle_type": 0, "handle_left": {"Y": 1, "X": 0.5}, "co": {"Y": 1, "X": 644}, "interpolation": 0}, {"handle_right": {"Y": 0, "X": 0.5}, "handle_type": 0, "handle_left": {"Y": 1, "X": 0.5}, "co": {"Y": 0, "X": 716}, "interpolation": 0}]}, "id": "F2MA5NTJGV", "layer": 1, "file_id": "MJ87OKNJXE", "display": 0, "scale": 1, "gravity": 4, "crop_width": {"Points": [{"co": {"Y": -1, "X": 1}, "interpolation": 2}]}, "crop_x": {"Points": [{"co": {"Y": 0, "X": 1}, "interpolation": 2}]}, "shear_x": {"Points": [{"co": {"Y": 0, "X": 1}, "interpolation": 2}]}, "volume": {"Points": [{"co": {"Y": 1, "X": 1}, "interpolation": 2}]}, "start": 0, "rotation": {"Points": [{"co": {"Y": 0, "X": 1}, "interpolation": 2}]}, "reader": {"video_stream_index": 0, "video_length": "1575", "interlaced_frame": false, "audio_bit_rate": 0, "audio_timebase": {"den": 1, "num": 1}, "vcodec": "h264", "channels": 0, "has_video": true, "channel_layout": 4, "has_audio": false, "video_timebase": {"den": 1000, "num": 1}, "has_single_image": false, "acodec": "", "video_bit_rate": 62654, "display_ratio": {"den": 186, "num": 325}, "audio_stream_index": -1, "type": "FFmpegReader", "top_field_first": true, "width": 1300, "pixel_ratio": {"den": 1, "num": 1}, "height": 744, "duration": 63.0, "file_size": "499047", "path": "/home/milind/Data/Projects/ProgressCard/!150-Inserted GRADE in REMARK.mkv", "fps": {"den": 1, "num": 25}, "pixel_format": 0, "sample_rate": 0}, "position": 266.32359375, "has_video": {"Points": [{"co": {"Y": -1, "X": 1}, "interpolation": 2}]}, "has_audio": {"Points": [{"co": {"Y": -1, "X": 1}, "interpolation": 2}]}, "channel_mapping": {"Points": [{"co": {"Y": -1, "X": 1}, "interpolation": 2}]}, "shear_y": {"Points": [{"co": {"Y": 0, "X": 1}, "interpolation": 2}]}, "perspective_c3_y": {"Points": [{"co": {"Y": -1, "X": 1}, "interpolation": 2}]}, "waveform": false, "end": 29.791666666666668, "scale_x": {"Points": [{"co": {"Y": 1.7000000476837158, "X": 1}, "interpolation": 2}]}, "image": "/home/milind/.openshot_qt/thumbnail/MJ87OKNJXE.png", "location_y": {"Points": [{"co": {"Y": 0.30000001192092896, "X": 1}, "interpolation": 2}]}, "crop_y": {"Points": [{"co": {"Y": 0, "X": 1}, "interpolation": 2}]}, "perspective_c2_y": {"Points": [{"co": {"Y": -1, "X": 1}, "interpolation": 2}]}, "perspective_c1_y": {"Points": [{"co": {"Y": -1, "X": 1}, "interpolation": 2}]}, "title": "!150-Inserted GRADE in REMARK.mkv", "perspective_c4_y": {"Points": [{"co": {"Y": -1, "X": 1}, "interpolation": 2}]}, "duration": 30.0, "wave_color": {"red": {"Points": [{"handle_right": {"Y": 0, "X": 0.5}, "handle_type": 0, "handle_left": {"Y": 1, "X": 0.5}, "co": {"Y": 0, "X": 1}, "interpolation": 0}]}, "green": {"Points": [{"handle_right": {"Y": 0, "X": 0.5}, "handle_type": 0, "handle_left": {"Y": 1, "X": 0.5}, "co": {"Y": 123, "X": 1}, "interpolation": 0}]}, "blue": {"Points": [{"handle_right": {"Y": 0, "X": 0.5}, "handle_type": 0, "handle_left": {"Y": 1, "X": 0.5}, "co": {"Y": 255, "X": 1}, "interpolation": 0}]}, "alpha": {"Points": [{"handle_right": {"Y": 0, "X": 0.5}, "handle_type": 0, "handle_left": {"Y": 1, "X": 0.5}, "co": {"Y": 255, "X": 1}, "interpolation": 0}]}}, "time": {"Points": [{"co": {"Y": 1, "X": 1}, "interpolation": 1}, {"co": {"Y": 1429, "X": 715}, "interpolation": 1}]}, "crop_height": {"Points": [{"co": {"Y": -1, "X": 1}, "interpolation": 2}]}, "scale_y": {"Points": [{"co": {"Y": 1.7000000476837158, "X": 1}, "interpolation": 2}]}, "effects": []}, {"location_x": {"Points": [{"co": {"Y": 0, "X": 1}, "interpolation": 2}]}, "perspective_c3_x": {"Points": [{"co": {"Y": -1, "X": 1}, "interpolation": 2}]}, "perspective_c4_x": {"Points": [{"co": {"Y": -1, "X": 1}, "interpolation": 2}]}, "channel_filter": {"Points": [{"co": {"Y": -1, "X": 1}, "interpolation": 2}]}, "perspective_c2_x": {"Points": [{"co": {"Y": -1, "X": 1}, "interpolation": 2}]}, "perspective_c1_x": {"Points": [{"co": {"Y": -1, "X": 1}, "interpolation": 2}]}, "anchor": 0, "alpha": {"Points": [{"co": {"Y": 1, "X": 1}, "interpolation": 2}]}, "id": "04TSZRCDQD", "layer": 0, "file_id": "0F0RWXSQM9", "display": 0, "scale": 1, "gravity": 4, "crop_width": {"Points": [{"co": {"Y": -1, "X": 1}, "interpolation": 2}]}, "crop_x": {"Points": [{"co": {"Y": 0, "X": 1}, "interpolation": 2}]}, "shear_x": {"Points": [{"co": {"Y": 0, "X": 1}, "interpolation": 2}]}, "volume": {"Points": [{"co": {"Y": 1, "X": 1}, "interpolation": 2}]}, "start": 0, "rotation": {"Points": [{"co": {"Y": 0, "X": 1}, "interpolation": 2}]}, "reader": {"video_stream_index": -1, "video_length": "2592000", "interlaced_frame": false, "audio_bit_rate": 0, "audio_timebase": {"den": 1, "num": 1}, "vcodec": "", "channels": 0, "has_video": true, "channel_layout": 4, "has_audio": false, "video_timebase": {"den": 30, "num": 1}, "has_single_image": true, "acodec": "", "video_bit_rate": 0, "display_ratio": {"den": 9, "num": 16}, "audio_stream_index": -1, "type": "QtImageReader", "top_field_first": true, "width": 1920, "pixel_ratio": {"den": 1, "num": 1}, "height": 1080, "duration": 86400.0, "file_size": "8294400", "path": "/home/milind/Data/Projects/ProgressCard/!000-White-Background.svg", "fps": {"den": 1, "num": 30}, "pixel_format": -1, "sample_rate": 0}, "position": 66.13, "has_video": {"Points": [{"co": {"Y": -1, "X": 1}, "interpolation": 2}]}, "has_audio": {"Points": [{"co": {"Y": -1, "X": 1}, "interpolation": 2}]}, "channel_mapping": {"Points": [{"co": {"Y": -1, "X": 1}, "interpolation": 2}]}, "shear_y": {"Points": [{"co": {"Y": 0, "X": 1}, "interpolation": 2}]}, "perspective_c3_y": {"Points": [{"co": {"Y": -1, "X": 1}, "interpolation": 2}]}, "waveform": false, "end": 12.99, "scale_x": {"Points": [{"co": {"Y": 1, "X": 1}, "interpolation": 2}]}, "image": "/home/milind/.openshot_qt/thumbnail/0F0RWXSQM9.png", "location_y": {"Points": [{"co": {"Y": 0, "X": 1}, "interpolation": 2}]}, "crop_y": {"Points": [{"co": {"Y": 0, "X": 1}, "interpolation": 2}]}, "perspective_c2_y": {"Points": [{"co": {"Y": -1, "X": 1}, "interpolation": 2}]}, "perspective_c1_y": {"Points": [{"co": {"Y": -1, "X": 1}, "interpolation": 2}]}, "title": "!000-White-Background.svg", "perspective_c4_y": {"Points": [{"co": {"Y": -1, "X": 1}, "interpolation": 2}]}, "duration": 86400.0, "wave_color": {"red": {"Points": [{"handle_right": {"Y": 0, "X": 0.5}, "handle_type": 0, "handle_left": {"Y": 1, "X": 0.5}, "co": {"Y": 0, "X": 1}, "interpolation": 0}]}, "green": {"Points": [{"handle_right": {"Y": 0, "X": 0.5}, "handle_type": 0, "handle_left": {"Y": 1, "X": 0.5}, "co": {"Y": 123, "X": 1}, "interpolation": 0}]}, "blue": {"Points": [{"handle_right": {"Y": 0, "X": 0.5}, "handle_type": 0, "handle_left": {"Y": 1, "X": 0.5}, "co": {"Y": 255, "X": 1}, "interpolation": 0}]}, "alpha": {"Points": [{"handle_right": {"Y": 0, "X": 0.5}, "handle_type": 0, "handle_left": {"Y": 1, "X": 0.5}, "co": {"Y": 255, "X": 1}, "interpolation": 0}]}}, "time": {"Points": [{"co": {"Y": 1, "X": 1}, "interpolation": 2}]}, "crop_height": {"Points": [{"co": {"Y": -1, "X": 1}, "interpolation": 2}]}, "scale_y": {"Points": [{"co": {"Y": 1, "X": 1}, "interpolation": 2}]}, "effects": []}, {"location_x": {"Points": [{"co": {"Y": 0, "X": 1}, "interpolation": 2}]}, "perspective_c3_x": {"Points": [{"co": {"Y": -1, "X": 1}, "interpolation": 2}]}, "perspective_c4_x": {"Points": [{"co": {"Y": -1, "X": 1}, "interpolation": 2}]}, "channel_filter": {"Points": [{"co": {"Y": -1, "X": 1}, "interpolation": 2}]}, "perspective_c2_x": {"Points": [{"co": {"Y": -1, "X": 1}, "interpolation": 2}]}, "perspective_c1_x": {"Points": [{"co": {"Y": -1, "X": 1}, "interpolation": 2}]}, "anchor": 0, "alpha": {"Points": [{"co": {"Y": 1, "X": 1}, "interpolation": 2}, {"handle_right": {"Y": 0, "X": 0.5}, "handle_type": 0, "handle_left": {"Y": 1, "X": 0.5}, "co": {"Y": 0, "X": 1}, "interpolation": 0}, {"handle_right": {"Y": 0, "X": 0.5}, "handle_type": 0, "handle_left": {"Y": 1, "X": 0.5}, "co": {"Y": 1, "X": 73}, "interpolation": 0}, {"handle_right": {"Y": 0, "X": 0.5}, "handle_type": 0, "handle_left": {"Y": 1, "X": 0.5}, "co": {"Y": 1, "X": 49}, "interpolation": 0}, {"handle_right": {"Y": 0, "X": 0.5}, "handle_type": 0, "handle_left": {"Y": 1, "X": 0.5}, "co": {"Y": 0, "X": 121}, "interpolation": 0}]}, "id": "YVXCHQZADD", "layer": 2, "file_id": "O28Z229VIU", "display": 0, "scale": 1, "gravity": 4, "crop_width": {"Points": [{"co": {"Y": -1, "X": 1}, "interpolation": 2}]}, "crop_x": {"Points": [{"co": {"Y": 0, "X": 1}, "interpolation": 2}]}, "shear_x": {"Points": [{"co": {"Y": 0, "X": 1}, "interpolation": 2}]}, "volume": {"Points": [{"co": {"Y": 1, "X": 1}, "interpolation": 2}]}, "start": 0, "rotation": {"Points": [{"co": {"Y": 0, "X": 1}, "interpolation": 2}]}, "reader": {"video_stream_index": -1, "video_length": "2592000", "interlaced_frame": false, "audio_bit_rate": 0, "audio_timebase": {"den": 1, "num": 1}, "vcodec": "", "channels": 0, "has_video": true, "channel_layout": 4, "has_audio": false, "video_timebase": {"den": 30, "num": 1}, "has_single_image": true, "acodec": "", "video_bit_rate": 0, "display_ratio": {"den": 3827, "num": 6803}, "audio_stream_index": -1, "type": "QtImageReader", "top_field_first": true, "width": 6803, "pixel_ratio": {"den": 1, "num": 1}, "height": 3827, "duration": 86400.0, "file_size": "104140324", "path": "/home/milind/Data/Projects/ProgressCard/!072-Grace Total.svg", "fps": {"den": 1, "num": 30}, "pixel_format": -1, "sample_rate": 0}, "position": 11.708333333333332, "has_video": {"Points": [{"co": {"Y": -1, "X": 1}, "interpolation": 2}]}, "has_audio": {"Points": [{"co": {"Y": -1, "X": 1}, "interpolation": 2}]}, "channel_mapping": {"Points": [{"co": {"Y": -1, "X": 1}, "interpolation": 2}]}, "shear_y": {"Points": [{"co": {"Y": 0, "X": 1}, "interpolation": 2}]}, "perspective_c3_y": {"Points": [{"co": {"Y": -1, "X": 1}, "interpolation": 2}]}, "waveform": false, "end": 5, "scale_x": {"Points": [{"co": {"Y": 1, "X": 1}, "interpolation": 2}]}, "image": "/home/milind/.openshot_qt/thumbnail/O28Z229VIU.png", "location_y": {"Points": [{"co": {"Y": 0, "X": 1}, "interpolation": 2}]}, "crop_y": {"Points": [{"co": {"Y": 0, "X": 1}, "interpolation": 2}]}, "perspective_c2_y": {"Points": [{"co": {"Y": -1, "X": 1}, "interpolation": 2}]}, "perspective_c1_y": {"Points": [{"co": {"Y": -1, "X": 1}, "interpolation": 2}]}, "title": "!072-Grace Total.svg", "perspective_c4_y": {"Points": [{"co": {"Y": -1, "X": 1}, "interpolation": 2}]}, "duration": 86400.0, "wave_color": {"red": {"Points": [{"handle_right": {"Y": 0, "X": 0.5}, "handle_type": 0, "handle_left": {"Y": 1, "X": 0.5}, "co": {"Y": 0, "X": 1}, "interpolation": 0}]}, "green": {"Points": [{"handle_right": {"Y": 0, "X": 0.5}, "handle_type": 0, "handle_left": {"Y": 1, "X": 0.5}, "co": {"Y": 123, "X": 1}, "interpolation": 0}]}, "blue": {"Points": [{"handle_right": {"Y": 0, "X": 0.5}, "handle_type": 0, "handle_left": {"Y": 1, "X": 0.5}, "co": {"Y": 255, "X": 1}, "interpolation": 0}]}, "alpha": {"Points": [{"handle_right": {"Y": 0, "X": 0.5}, "handle_type": 0, "handle_left": {"Y": 1, "X": 0.5}, "co": {"Y": 255, "X": 1}, "interpolation": 0}]}}, "time": {"Points": [{"co": {"Y": 1, "X": 1}, "interpolation": 2}]}, "crop_height": {"Points": [{"co": {"Y": -1, "X": 1}, "interpolation": 2}]}, "scale_y": {"Points": [{"co": {"Y": 1, "X": 1}, "interpolation": 2}]}, "effects": []}, {"location_x": {"Points": [{"co": {"Y": 0, "X": 1}, "interpolation": 2}]}, "perspective_c3_x": {"Points": [{"co": {"Y": -1, "X": 1}, "interpolation": 2}]}, "perspective_c4_x": {"Points": [{"co": {"Y": -1, "X": 1}, "interpolation": 2}]}, "channel_filter": {"Points": [{"co": {"Y": -1, "X": 1}, "interpolation": 2}]}, "perspective_c2_x": {"Points": [{"co": {"Y": -1, "X": 1}, "interpolation": 2}]}, "perspective_c1_x": {"Points": [{"co": {"Y": -1, "X": 1}, "interpolation": 2}]}, "anchor": 0, "alpha": {"Points": [{"co": {"Y": 1, "X": 1}, "interpolation": 2}, {"handle_right": {"Y": 0, "X": 0.5}, "handle_type": 0, "handle_left": {"Y": 1, "X": 0.5}, "co": {"Y": 0, "X": 1}, "interpolation": 0}, {"handle_right": {"Y": 0, "X": 0.5}, "handle_type": 0, "handle_left": {"Y": 1, "X": 0.5}, "co": {"Y": 1, "X": 73}, "interpolation": 0}, {"handle_right": {"Y": 0, "X": 0.5}, "handle_type": 0, "handle_left": {"Y": 1, "X": 0.5}, "co": {"Y": 1, "X": 49}, "interpolation": 0}, {"handle_right": {"Y": 0, "X": 0.5}, "handle_type": 0, "handle_left": {"Y": 1, "X": 0.5}, "co": {"Y": 0, "X": 121}, "interpolation": 0}]}, "id": "GPTZ9M5371", "layer": 2, "file_id": "BUXZX40N2J", "display": 0, "scale": 1, "gravity": 4, "crop_width": {"Points": [{"co": {"Y": -1, "X": 1}, "interpolation": 2}]}, "crop_x": {"Points": [{"co": {"Y": 0, "X": 1}, "interpolation": 2}]}, "shear_x": {"Points": [{"co": {"Y": 0, "X": 1}, "interpolation": 2}]}, "volume": {"Points": [{"co": {"Y": 1, "X": 1}, "interpolation": 2}]}, "start": 0, "rotation": {"Points": [{"co": {"Y": 0, "X": 1}, "interpolation": 2}]}, "reader": {"video_stream_index": -1, "video_length": "2592000", "interlaced_frame": false, "audio_bit_rate": 0, "audio_timebase": {"den": 1, "num": 1}, "vcodec": "", "channels": 0, "has_video": true, "channel_layout": 4, "has_audio": false, "video_timebase": {"den": 30, "num": 1}, "has_single_image": true, "acodec": "", "video_bit_rate": 0, "display_ratio": {"den": 3827, "num": 6803}, "audio_stream_index": -1, "type": "QtImageReader", "top_field_first": true, "width": 6803, "pixel_ratio": {"den": 1, "num": 1}, "height": 3827, "duration": 86400.0, "file_size": "104140324", "path": "/home/milind/Data/Projects/ProgressCard/!073-Graced Subject Count.svg", "fps": {"den": 1, "num": 30}, "pixel_format": -1, "sample_rate": 0}, "position": 24.125000000000004, "has_video": {"Points": [{"co": {"Y": -1, "X": 1}, "interpolation": 2}]}, "has_audio": {"Points": [{"co": {"Y": -1, "X": 1}, "interpolation": 2}]}, "channel_mapping": {"Points": [{"co": {"Y": -1, "X": 1}, "interpolation": 2}]}, "shear_y": {"Points": [{"co": {"Y": 0, "X": 1}, "interpolation": 2}]}, "perspective_c3_y": {"Points": [{"co": {"Y": -1, "X": 1}, "interpolation": 2}]}, "waveform": false, "end": 5, "scale_x": {"Points": [{"co": {"Y": 1, "X": 1}, "interpolation": 2}]}, "image": "/home/milind/.openshot_qt/thumbnail/BUXZX40N2J.png", "location_y": {"Points": [{"co": {"Y": 0, "X": 1}, "interpolation": 2}]}, "crop_y": {"Points": [{"co": {"Y": 0, "X": 1}, "interpolation": 2}]}, "perspective_c2_y": {"Points": [{"co": {"Y": -1, "X": 1}, "interpolation": 2}]}, "perspective_c1_y": {"Points": [{"co": {"Y": -1, "X": 1}, "interpolation": 2}]}, "title": "!073-Graced Subject Count.svg", "perspective_c4_y": {"Points": [{"co": {"Y": -1, "X": 1}, "interpolation": 2}]}, "duration": 86400.0, "wave_color": {"red": {"Points": [{"handle_right": {"Y": 0, "X": 0.5}, "handle_type": 0, "handle_left": {"Y": 1, "X": 0.5}, "co": {"Y": 0, "X": 1}, "interpolation": 0}]}, "green": {"Points": [{"handle_right": {"Y": 0, "X": 0.5}, "handle_type": 0, "handle_left": {"Y": 1, "X": 0.5}, "co": {"Y": 123, "X": 1}, "interpolation": 0}]}, "blue": {"Points": [{"handle_right": {"Y": 0, "X": 0.5}, "handle_type": 0, "handle_left": {"Y": 1, "X": 0.5}, "co": {"Y": 255, "X": 1}, "interpolation": 0}]}, "alpha": {"Points": [{"handle_right": {"Y": 0, "X": 0.5}, "handle_type": 0, "handle_left": {"Y": 1, "X": 0.5}, "co": {"Y": 255, "X": 1}, "interpolation": 0}]}}, "time": {"Points": [{"co": {"Y": 1, "X": 1}, "interpolation": 2}]}, "crop_height": {"Points": [{"co": {"Y": -1, "X": 1}, "interpolation": 2}]}, "scale_y": {"Points": [{"co": {"Y": 1, "X": 1}, "interpolation": 2}]}, "effects": []}, {"location_x": {"Points": [{"co": {"Y": 0, "X": 1}, "interpolation": 2}]}, "perspective_c3_x": {"Points": [{"co": {"Y": -1, "X": 1}, "interpolation": 2}]}, "perspective_c4_x": {"Points": [{"co": {"Y": -1, "X": 1}, "interpolation": 2}]}, "channel_filter": {"Points": [{"co": {"Y": -1, "X": 1}, "interpolation": 2}]}, "perspective_c2_x": {"Points": [{"co": {"Y": -1, "X": 1}, "interpolation": 2}]}, "perspective_c1_x": {"Points": [{"co": {"Y": -1, "X": 1}, "interpolation": 2}]}, "anchor": 0, "alpha": {"Points": [{"co": {"Y": 1, "X": 1}, "interpolation": 2}, {"handle_right": {"Y": 0, "X": 0.5}, "handle_type": 0, "handle_left": {"Y": 1, "X": 0.5}, "co": {"Y": 0, "X": 1}, "interpolation": 0}, {"handle_right": {"Y": 0, "X": 0.5}, "handle_type": 0, "handle_left": {"Y": 1, "X": 0.5}, "co": {"Y": 1, "X": 73}, "interpolation": 0}, {"handle_right": {"Y": 0, "X": 0.5}, "handle_type": 0, "handle_left": {"Y": 1, "X": 0.5}, "co": {"Y": 1, "X": 49}, "interpolation": 0}, {"handle_right": {"Y": 0, "X": 0.5}, "handle_type": 0, "handle_left": {"Y": 1, "X": 0.5}, "co": {"Y": 0, "X": 121}, "interpolation": 0}]}, "id": "MH73AEFXVE", "layer": 2, "file_id": "MZ4ILBST6I", "display": 0, "scale": 1, "gravity": 4, "crop_width": {"Points": [{"co": {"Y": -1, "X": 1}, "interpolation": 2}]}, "crop_x": {"Points": [{"co": {"Y": 0, "X": 1}, "interpolation": 2}]}, "shear_x": {"Points": [{"co": {"Y": 0, "X": 1}, "interpolation": 2}]}, "volume": {"Points": [{"co": {"Y": 1, "X": 1}, "interpolation": 2}]}, "start": 0, "rotation": {"Points": [{"co": {"Y": 0, "X": 1}, "interpolation": 2}]}, "reader": {"video_stream_index": -1, "video_length": "2592000", "interlaced_frame": false, "audio_bit_rate": 0, "audio_timebase": {"den": 1, "num": 1}, "vcodec": "", "channels": 0, "has_video": true, "channel_layout": 4, "has_audio": false, "video_timebase": {"den": 30, "num": 1}, "has_single_image": true, "acodec": "", "video_bit_rate": 0, "display_ratio": {"den": 3827, "num": 6803}, "audio_stream_index": -1, "type": "QtImageReader", "top_field_first": true, "width": 6803, "pixel_ratio": {"den": 1, "num": 1}, "height": 3827, "duration": 86400.0, "file_size": "104140324", "path": "/home/milind/Data/Projects/ProgressCard/!074-Grace Greater Than 10.svg", "fps": {"den": 1, "num": 30}, "pixel_format": -1, "sample_rate": 0}, "position": 39.458333333333336, "has_video": {"Points": [{"co": {"Y": -1, "X": 1}, "interpolation": 2}]}, "has_audio": {"Points": [{"co": {"Y": -1, "X": 1}, "interpolation": 2}]}, "channel_mapping": {"Points": [{"co": {"Y": -1, "X": 1}, "interpolation": 2}]}, "shear_y": {"Points": [{"co": {"Y": 0, "X": 1}, "interpolation": 2}]}, "perspective_c3_y": {"Points": [{"co": {"Y": -1, "X": 1}, "interpolation": 2}]}, "waveform": false, "end": 5, "scale_x": {"Points": [{"co": {"Y": 1, "X": 1}, "interpolation": 2}]}, "image": "/home/milind/.openshot_qt/thumbnail/MZ4ILBST6I.png", "location_y": {"Points": [{"co": {"Y": 0, "X": 1}, "interpolation": 2}]}, "crop_y": {"Points": [{"co": {"Y": 0, "X": 1}, "interpolation": 2}]}, "perspective_c2_y": {"Points": [{"co": {"Y": -1, "X": 1}, "interpolation": 2}]}, "perspective_c1_y": {"Points": [{"co": {"Y": -1, "X": 1}, "interpolation": 2}]}, "title": "!074-Grace Greater Than 10.svg", "perspective_c4_y": {"Points": [{"co": {"Y": -1, "X": 1}, "interpolation": 2}]}, "duration": 86400.0, "wave_color": {"red": {"Points": [{"handle_right": {"Y": 0, "X": 0.5}, "handle_type": 0, "handle_left": {"Y": 1, "X": 0.5}, "co": {"Y": 0, "X": 1}, "interpolation": 0}]}, "green": {"Points": [{"handle_right": {"Y": 0, "X": 0.5}, "handle_type": 0, "handle_left": {"Y": 1, "X": 0.5}, "co": {"Y": 123, "X": 1}, "interpolation": 0}]}, "blue": {"Points": [{"handle_right": {"Y": 0, "X": 0.5}, "handle_type": 0, "handle_left": {"Y": 1, "X": 0.5}, "co": {"Y": 255, "X": 1}, "interpolation": 0}]}, "alpha": {"Points": [{"handle_right": {"Y": 0, "X": 0.5}, "handle_type": 0, "handle_left": {"Y": 1, "X": 0.5}, "co": {"Y": 255, "X": 1}, "interpolation": 0}]}}, "time": {"Points": [{"co": {"Y": 1, "X": 1}, "interpolation": 2}]}, "crop_height": {"Points": [{"co": {"Y": -1, "X": 1}, "interpolation": 2}]}, "scale_y": {"Points": [{"co": {"Y": 1, "X": 1}, "interpolation": 2}]}, "effects": []}, {"location_x": {"Points": [{"co": {"Y": 0, "X": 1}, "interpolation": 2}]}, "perspective_c3_x": {"Points": [{"co": {"Y": -1, "X": 1}, "interpolation": 2}]}, "perspective_c4_x": {"Points": [{"co": {"Y": -1, "X": 1}, "interpolation": 2}]}, "channel_filter": {"Points": [{"co": {"Y": -1, "X": 1}, "interpolation": 2}]}, "perspective_c2_x": {"Points": [{"co": {"Y": -1, "X": 1}, "interpolation": 2}]}, "perspective_c1_x": {"Points": [{"co": {"Y": -1, "X": 1}, "interpolation": 2}]}, "anchor": 0, "alpha": {"Points": [{"co": {"Y": 1, "X": 1}, "interpolation": 2}, {"handle_right": {"Y": 0, "X": 0.5}, "handle_type": 0, "handle_left": {"Y": 1, "X": 0.5}, "co": {"Y": 0, "X": 1}, "interpolation": 0}, {"handle_right": {"Y": 0, "X": 0.5}, "handle_type": 0, "handle_left": {"Y": 1, "X": 0.5}, "co": {"Y": 1, "X": 73}, "interpolation": 0}, {"handle_right": {"Y": 0, "X": 0.5}, "handle_type": 0, "handle_left": {"Y": 1, "X": 0.5}, "co": {"Y": 1, "X": 49}, "interpolation": 0}, {"handle_right": {"Y": 0, "X": 0.5}, "handle_type": 0, "handle_left": {"Y": 1, "X": 0.5}, "co": {"Y": 0, "X": 121}, "interpolation": 0}]}, "id": "2D6KOKWEJY", "layer": 2, "file_id": "55LKUBO9MG", "display": 0, "scale": 1, "gravity": 4, "crop_width": {"Points": [{"co": {"Y": -1, "X": 1}, "interpolation": 2}]}, "crop_x": {"Points": [{"co": {"Y": 0, "X": 1}, "interpolation": 2}]}, "shear_x": {"Points": [{"co": {"Y": 0, "X": 1}, "interpolation": 2}]}, "volume": {"Points": [{"co": {"Y": 1, "X": 1}, "interpolation": 2}]}, "start": 0, "rotation": {"Points": [{"co": {"Y": 0, "X": 1}, "interpolation": 2}]}, "reader": {"video_stream_index": -1, "video_length": "2592000", "interlaced_frame": false, "audio_bit_rate": 0, "audio_timebase": {"den": 1, "num": 1}, "vcodec": "", "channels": 0, "has_video": true, "channel_layout": 4, "has_audio": false, "video_timebase": {"den": 30, "num": 1}, "has_single_image": true, "acodec": "", "video_bit_rate": 0, "display_ratio": {"den": 3827, "num": 6803}, "audio_stream_index": -1, "type": "QtImageReader", "top_field_first": true, "width": 6803, "pixel_ratio": {"den": 1, "num": 1}, "height": 3827, "duration": 86400.0, "file_size": "104140324", "path": "/home/milind/Data/Projects/ProgressCard/!001-Copy (Ctrl-C).svg", "fps": {"den": 1, "num": 30}, "pixel_format": -1, "sample_rate": 0}, "position": 56.791666666666664, "has_video": {"Points": [{"co": {"Y": -1, "X": 1}, "interpolation": 2}]}, "has_audio": {"Points": [{"co": {"Y": -1, "X": 1}, "interpolation": 2}]}, "channel_mapping": {"Points": [{"co": {"Y": -1, "X": 1}, "interpolation": 2}]}, "shear_y": {"Points": [{"co": {"Y": 0, "X": 1}, "interpolation": 2}]}, "perspective_c3_y": {"Points": [{"co": {"Y": -1, "X": 1}, "interpolation": 2}]}, "waveform": false, "end": 5, "scale_x": {"Points": [{"co": {"Y": 1, "X": 1}, "interpolation": 2}]}, "image": "/home/milind/.openshot_qt/thumbnail/55LKUBO9MG.png", "location_y": {"Points": [{"co": {"Y": 0, "X": 1}, "interpolation": 2}]}, "crop_y": {"Points": [{"co": {"Y": 0, "X": 1}, "interpolation": 2}]}, "perspective_c2_y": {"Points": [{"co": {"Y": -1, "X": 1}, "interpolation": 2}]}, "perspective_c1_y": {"Points": [{"co": {"Y": -1, "X": 1}, "interpolation": 2}]}, "title": "!001-Copy (Ctrl-C).svg", "perspective_c4_y": {"Points": [{"co": {"Y": -1, "X": 1}, "interpolation": 2}]}, "duration": 86400.0, "wave_color": {"red": {"Points": [{"handle_right": {"Y": 0, "X": 0.5}, "handle_type": 0, "handle_left": {"Y": 1, "X": 0.5}, "co": {"Y": 0, "X": 1}, "interpolation": 0}]}, "green": {"Points": [{"handle_right": {"Y": 0, "X": 0.5}, "handle_type": 0, "handle_left": {"Y": 1, "X": 0.5}, "co": {"Y": 123, "X": 1}, "interpolation": 0}]}, "blue": {"Points": [{"handle_right": {"Y": 0, "X": 0.5}, "handle_type": 0, "handle_left": {"Y": 1, "X": 0.5}, "co": {"Y": 255, "X": 1}, "interpolation": 0}]}, "alpha": {"Points": [{"handle_right": {"Y": 0, "X": 0.5}, "handle_type": 0, "handle_left": {"Y": 1, "X": 0.5}, "co": {"Y": 255, "X": 1}, "interpolation": 0}]}}, "time": {"Points": [{"co": {"Y": 1, "X": 1}, "interpolation": 2}]}, "crop_height": {"Points": [{"co": {"Y": -1, "X": 1}, "interpolation": 2}]}, "scale_y": {"Points": [{"co": {"Y": 1, "X": 1}, "interpolation": 2}]}, "effects": []}, {"location_x": {"Points": [{"co": {"Y": 0, "X": 1}, "interpolation": 2}]}, "perspective_c3_x": {"Points": [{"co": {"Y": -1, "X": 1}, "interpolation": 2}]}, "perspective_c4_x": {"Points": [{"co": {"Y": -1, "X": 1}, "interpolation": 2}]}, "channel_filter": {"Points": [{"co": {"Y": -1, "X": 1}, "interpolation": 2}]}, "perspective_c2_x": {"Points": [{"co": {"Y": -1, "X": 1}, "interpolation": 2}]}, "perspective_c1_x": {"Points": [{"co": {"Y": -1, "X": 1}, "interpolation": 2}]}, "anchor": 0, "alpha": {"Points": [{"co": {"Y": 1, "X": 1}, "interpolation": 2}, {"handle_right": {"Y": 0, "X": 0.5}, "handle_type": 0, "handle_left": {"Y": 1, "X": 0.5}, "co": {"Y": 0, "X": 1}, "interpolation": 0}, {"handle_right": {"Y": 0, "X": 0.5}, "handle_type": 0, "handle_left": {"Y": 1, "X": 0.5}, "co": {"Y": 1, "X": 73}, "interpolation": 0}, {"handle_right": {"Y": 0, "X": 0.5}, "handle_type": 0, "handle_left": {"Y": 1, "X": 0.5}, "co": {"Y": 1, "X": 49}, "interpolation": 0}, {"handle_right": {"Y": 0, "X": 0.5}, "handle_type": 0, "handle_left": {"Y": 1, "X": 0.5}, "co": {"Y": 0, "X": 121}, "interpolation": 0}]}, "id": "GS9HYSSMO4", "layer": 2, "file_id": "JP5L750RMR", "display": 0, "scale": 1, "gravity": 4, "crop_width": {"Points": [{"co": {"Y": -1, "X": 1}, "interpolation": 2}]}, "crop_x": {"Points": [{"co": {"Y": 0, "X": 1}, "interpolation": 2}]}, "shear_x": {"Points": [{"co": {"Y": 0, "X": 1}, "interpolation": 2}]}, "volume": {"Points": [{"co": {"Y": 1, "X": 1}, "interpolation": 2}]}, "start": 0, "rotation": {"Points": [{"co": {"Y": 0, "X": 1}, "interpolation": 2}]}, "reader": {"video_stream_index": -1, "video_length": "2592000", "interlaced_frame": false, "audio_bit_rate": 0, "audio_timebase": {"den": 1, "num": 1}, "vcodec": "", "channels": 0, "has_video": true, "channel_layout": 4, "has_audio": false, "video_timebase": {"den": 30, "num": 1}, "has_single_image": true, "acodec": "", "video_bit_rate": 0, "display_ratio": {"den": 3827, "num": 6803}, "audio_stream_index": -1, "type": "QtImageReader", "top_field_first": true, "width": 6803, "pixel_ratio": {"den": 1, "num": 1}, "height": 3827, "duration": 86400.0, "file_size": "104140324", "path": "/home/milind/Data/Projects/ProgressCard/!002-Paste (Ctrl-V).svg", "fps": {"den": 1, "num": 30}, "pixel_format": -1, "sample_rate": 0}, "position": 62.25, "has_video": {"Points": [{"co": {"Y": -1, "X": 1}, "interpolation": 2}]}, "has_audio": {"Points": [{"co": {"Y": -1, "X": 1}, "interpolation": 2}]}, "channel_mapping": {"Points": [{"co": {"Y": -1, "X": 1}, "interpolation": 2}]}, "shear_y": {"Points": [{"co": {"Y": 0, "X": 1}, "interpolation": 2}]}, "perspective_c3_y": {"Points": [{"co": {"Y": -1, "X": 1}, "interpolation": 2}]}, "waveform": false, "end": 5, "scale_x": {"Points": [{"co": {"Y": 1, "X": 1}, "interpolation": 2}]}, "image": "/home/milind/.openshot_qt/thumbnail/JP5L750RMR.png", "location_y": {"Points": [{"co": {"Y": 0, "X": 1}, "interpolation": 2}]}, "crop_y": {"Points": [{"co": {"Y": 0, "X": 1}, "interpolation": 2}]}, "perspective_c2_y": {"Points": [{"co": {"Y": -1, "X": 1}, "interpolation": 2}]}, "perspective_c1_y": {"Points": [{"co": {"Y": -1, "X": 1}, "interpolation": 2}]}, "title": "!002-Paste (Ctrl-V).svg", "perspective_c4_y": {"Points": [{"co": {"Y": -1, "X": 1}, "interpolation": 2}]}, "duration": 86400.0, "wave_color": {"red": {"Points": [{"handle_right": {"Y": 0, "X": 0.5}, "handle_type": 0, "handle_left": {"Y": 1, "X": 0.5}, "co": {"Y": 0, "X": 1}, "interpolation": 0}]}, "green": {"Points": [{"handle_right": {"Y": 0, "X": 0.5}, "handle_type": 0, "handle_left": {"Y": 1, "X": 0.5}, "co": {"Y": 123, "X": 1}, "interpolation": 0}]}, "blue": {"Points": [{"handle_right": {"Y": 0, "X": 0.5}, "handle_type": 0, "handle_left": {"Y": 1, "X": 0.5}, "co": {"Y": 255, "X": 1}, "interpolation": 0}]}, "alpha": {"Points": [{"handle_right": {"Y": 0, "X": 0.5}, "handle_type": 0, "handle_left": {"Y": 1, "X": 0.5}, "co": {"Y": 255, "X": 1}, "interpolation": 0}]}}, "time": {"Points": [{"co": {"Y": 1, "X": 1}, "interpolation": 2}]}, "crop_height": {"Points": [{"co": {"Y": -1, "X": 1}, "interpolation": 2}]}, "scale_y": {"Points": [{"co": {"Y": 1, "X": 1}, "interpolation": 2}]}, "effects": []}, {"location_x": {"Points": [{"co": {"Y": 0, "X": 1}, "interpolation": 2}]}, "perspective_c3_y": {"Points": [{"co": {"Y": -1, "X": 1}, "interpolation": 2}]}, "shear_x": {"Points": [{"co": {"Y": 0, "X": 1}, "interpolation": 2}]}, "channel_filter": {"Points": [{"co": {"Y": -1, "X": 1}, "interpolation": 2}]}, "duration": 86400.0, "perspective_c1_x": {"Points": [{"co": {"Y": -1, "X": 1}, "interpolation": 2}]}, "perspective_c2_x": {"Points": [{"co": {"Y": -1, "X": 1}, "interpolation": 2}]}, "alpha": {"Points": [{"co": {"Y": 1, "X": 1}, "interpolation": 2}, {"handle_right": {"Y": 0, "X": 0.5}, "handle_type": 0, "handle_left": {"Y": 1, "X": 0.5}, "co": {"Y": 0, "X": 1}, "interpolation": 0}, {"handle_right": {"Y": 0, "X": 0.5}, "handle_type": 0, "handle_left": {"Y": 1, "X": 0.5}, "co": {"Y": 1, "X": 73}, "interpolation": 0}, {"handle_right": {"Y": 0, "X": 0.5}, "handle_type": 0, "handle_left": {"Y": 1, "X": 0.5}, "co": {"Y": 1, "X": 49}, "interpolation": 0}, {"handle_right": {"Y": 0, "X": 0.5}, "handle_type": 0, "handle_left": {"Y": 1, "X": 0.5}, "co": {"Y": 0, "X": 121}, "interpolation": 0}]}, "id": "J2KJS854LX", "layer": 1, "display": 0, "scale": 1, "gravity": 4, "crop_width": {"Points": [{"co": {"Y": -1, "X": 1}, "interpolation": 2}]}, "crop_x": {"Points": [{"co": {"Y": 0, "X": 1}, "interpolation": 2}]}, "perspective_c4_x": {"Points": [{"co": {"Y": -1, "X": 1}, "interpolation": 2}]}, "volume": {"Points": [{"co": {"Y": 1, "X": 1}, "interpolation": 2}]}, "has_audio": {"Points": [{"co": {"Y": -1, "X": 1}, "interpolation": 2}]}, "rotation": {"Points": [{"co": {"Y": 0, "X": 1}, "interpolation": 2}]}, "crop_y": {"Points": [{"co": {"Y": 0, "X": 1}, "interpolation": 2}]}, "position": 69.76906249999999, "has_video": {"Points": [{"co": {"Y": -1, "X": 1}, "interpolation": 2}]}, "start": 0, "channel_mapping": {"Points": [{"co": {"Y": -1, "X": 1}, "interpolation": 2}]}, "shear_y": {"Points": [{"co": {"Y": 0, "X": 1}, "interpolation": 2}]}, "end": 5, "waveform": false, "perspective_c3_x": {"Points": [{"co": {"Y": -1, "X": 1}, "interpolation": 2}]}, "scale_x": {"Points": [{"co": {"Y": 1, "X": 1}, "interpolation": 2}]}, "image": "/home/milind/.openshot_qt/thumbnail/9MDVH2JM9J.png", "location_y": {"Points": [{"co": {"Y": 0, "X": 1}, "interpolation": 2}]}, "crop_height": {"Points": [{"co": {"Y": -1, "X": 1}, "interpolation": 2}]}, "perspective_c2_y": {"Points": [{"co": {"Y": -1, "X": 1}, "interpolation": 2}]}, "perspective_c1_y": {"Points": [{"co": {"Y": -1, "X": 1}, "interpolation": 2}]}, "title": "!085-Pass or Fail.svg", "perspective_c4_y": {"Points": [{"co": {"Y": -1, "X": 1}, "interpolation": 2}]}, "anchor": 0, "wave_color": {"red": {"Points": [{"handle_right": {"Y": 0, "X": 0.5}, "handle_type": 0, "handle_left": {"Y": 1, "X": 0.5}, "co": {"Y": 0, "X": 1}, "interpolation": 0}]}, "green": {"Points": [{"handle_right": {"Y": 0, "X": 0.5}, "handle_type": 0, "handle_left": {"Y": 1, "X": 0.5}, "co": {"Y": 123, "X": 1}, "interpolation": 0}]}, "blue": {"Points": [{"handle_right": {"Y": 0, "X": 0.5}, "handle_type": 0, "handle_left": {"Y": 1, "X": 0.5}, "co": {"Y": 255, "X": 1}, "interpolation": 0}]}, "alpha": {"Points": [{"handle_right": {"Y": 0, "X": 0.5}, "handle_type": 0, "handle_left": {"Y": 1, "X": 0.5}, "co": {"Y": 255, "X": 1}, "interpolation": 0}]}}, "time": {"Points": [{"co": {"Y": 1, "X": 1}, "interpolation": 2}]}, "effects": [], "file_id": "9MDVH2JM9J", "scale_y": {"Points": [{"co": {"Y": 1, "X": 1}, "interpolation": 2}]}, "reader": {"video_stream_index": -1, "video_length": "2592000", "interlaced_frame": false, "audio_bit_rate": 0, "audio_timebase": {"den": 1, "num": 1}, "vcodec": "", "channels": 0, "has_video": true, "channel_layout": 4, "has_audio": false, "video_timebase": {"den": 30, "num": 1}, "has_single_image": true, "acodec": "", "video_bit_rate": 0, "display_ratio": {"den": 3827, "num": 6803}, "audio_stream_index": -1, "type": "QtImageReader", "top_field_first": true, "width": 6803, "pixel_ratio": {"den": 1, "num": 1}, "height": 3827, "duration": 86400.0, "file_size": "104140324", "path": "/home/milind/Data/Projects/ProgressCard/!085-Pass or Fail.svg", "fps": {"den": 1, "num": 30}, "pixel_format": -1, "sample_rate": 0}}, {"location_x": {"Points": [{"co": {"Y": 0, "X": 1}, "interpolation": 2}]}, "perspective_c3_x": {"Points": [{"co": {"Y": -1, "X": 1}, "interpolation": 2}]}, "perspective_c4_x": {"Points": [{"co": {"Y": -1, "X": 1}, "interpolation": 2}]}, "channel_filter": {"Points": [{"co": {"Y": -1, "X": 1}, "interpolation": 2}]}, "crop_height": {"Points": [{"co": {"Y": -1, "X": 1}, "interpolation": 2}]}, "perspective_c2_x": {"Points": [{"co": {"Y": -1, "X": 1}, "interpolation": 2}]}, "perspective_c1_x": {"Points": [{"co": {"Y": -1, "X": 1}, "interpolation": 2}]}, "anchor": 0, "alpha": {"Points": [{"handle_right": {"Y": 0, "X": 0.5}, "handle_type": 0, "handle_left": {"Y": 1, "X": 0.5}, "co": {"Y": 1, "X": 1}, "interpolation": 0}, {"handle_right": {"Y": 0, "X": 0.5}, "handle_type": 0, "handle_left": {"Y": 1, "X": 0.5}, "co": {"Y": 0, "X": 1}, "interpolation": 0}, {"handle_right": {"Y": 0, "X": 0.5}, "handle_type": 0, "handle_left": {"Y": 1, "X": 0.5}, "co": {"Y": 1, "X": 73}, "interpolation": 0}, {"handle_right": {"Y": 0, "X": 0.5}, "handle_type": 0, "handle_left": {"Y": 1, "X": 0.5}, "co": {"Y": 1, "X": 375}, "interpolation": 0}, {"handle_right": {"Y": 0, "X": 0.5}, "handle_type": 0, "handle_left": {"Y": 1, "X": 0.5}, "co": {"Y": 0, "X": 447}, "interpolation": 0}]}, "id": "UX3VY9TAZP", "layer": 2, "display": 0, "scale": 1, "gravity": 4, "crop_width": {"Points": [{"co": {"Y": -1, "X": 1}, "interpolation": 2}]}, "crop_x": {"Points": [{"co": {"Y": 0, "X": 1}, "interpolation": 2}]}, "shear_x": {"Points": [{"co": {"Y": 0, "X": 1}, "interpolation": 2}]}, "volume": {"Points": [{"co": {"Y": 1, "X": 1}, "interpolation": 2}]}, "has_audio": {"Points": [{"co": {"Y": -1, "X": 1}, "interpolation": 2}]}, "title": "!086-IF GT,GC,TC.svg", "reader": {"video_stream_index": -1, "video_length": "2592000", "interlaced_frame": false, "audio_bit_rate": 0, "audio_timebase": {"den": 1, "num": 1}, "vcodec": "", "channels": 0, "has_video": true, "channel_layout": 4, "has_audio": false, "video_timebase": {"den": 30, "num": 1}, "has_single_image": true, "acodec": "", "video_bit_rate": 0, "display_ratio": {"den": 3827, "num": 6803}, "audio_stream_index": -1, "type": "QtImageReader", "top_field_first": true, "width": 6803, "pixel_ratio": {"den": 1, "num": 1}, "height": 3827, "duration": 86400.0, "file_size": "104140324", "path": "/home/milind/Data/Projects/ProgressCard/!086-IF GT,GC,TC.svg", "fps": {"den": 1, "num": 30}, "pixel_format": -1, "sample_rate": 0}, "position": 85.265625, "has_video": {"Points": [{"co": {"Y": -1, "X": 1}, "interpolation": 2}]}, "start": 0, "channel_mapping": {"Points": [{"co": {"Y": -1, "X": 1}, "interpolation": 2}]}, "shear_y": {"Points": [{"co": {"Y": 0, "X": 1}, "interpolation": 2}]}, "perspective_c3_y": {"Points": [{"co": {"Y": -1, "X": 1}, "interpolation": 2}]}, "waveform": false, "end": 18.599999999999994, "scale_x": {"Points": [{"co": {"Y": 1, "X": 1}, "interpolation": 2}]}, "image": "/home/milind/.openshot_qt/thumbnail/DIHETX3WQ7.png", "location_y": {"Points": [{"co": {"Y": 0, "X": 1}, "interpolation": 2}]}, "crop_y": {"Points": [{"co": {"Y": 0, "X": 1}, "interpolation": 2}]}, "perspective_c2_y": {"Points": [{"co": {"Y": -1, "X": 1}, "interpolation": 2}]}, "perspective_c1_y": {"Points": [{"co": {"Y": -1, "X": 1}, "interpolation": 2}]}, "rotation": {"Points": [{"co": {"Y": 0, "X": 1}, "interpolation": 2}]}, "perspective_c4_y": {"Points": [{"co": {"Y": -1, "X": 1}, "interpolation": 2}]}, "duration": 86400.0, "wave_color": {"red": {"Points": [{"handle_right": {"Y": 0, "X": 0.5}, "handle_type": 0, "handle_left": {"Y": 1, "X": 0.5}, "co": {"Y": 0, "X": 1}, "interpolation": 0}]}, "green": {"Points": [{"handle_right": {"Y": 0, "X": 0.5}, "handle_type": 0, "handle_left": {"Y": 1, "X": 0.5}, "co": {"Y": 123, "X": 1}, "interpolation": 0}]}, "blue": {"Points": [{"handle_right": {"Y": 0, "X": 0.5}, "handle_type": 0, "handle_left": {"Y": 1, "X": 0.5}, "co": {"Y": 255, "X": 1}, "interpolation": 0}]}, "alpha": {"Points": [{"handle_right": {"Y": 0, "X": 0.5}, "handle_type": 0, "handle_left": {"Y": 1, "X": 0.5}, "co": {"Y": 255, "X": 1}, "interpolation": 0}]}}, "time": {"Points": [{"co": {"Y": 1, "X": 1}, "interpolation": 2}]}, "file_id": "DIHETX3WQ7", "scale_y": {"Points": [{"co": {"Y": 1, "X": 1}, "interpolation": 2}]}, "effects": []}, {"location_x": {"Points": [{"co": {"Y": 0, "X": 1}, "interpolation": 2}]}, "perspective_c4_x": {"Points": [{"co": {"Y": -1, "X": 1}, "interpolation": 2}]}, "channel_filter": {"Points": [{"co": {"Y": -1, "X": 1}, "interpolation": 2}]}, "duration": 86400.0, "perspective_c1_x": {"Points": [{"co": {"Y": -1, "X": 1}, "interpolation": 2}]}, "perspective_c2_x": {"Points": [{"co": {"Y": -1, "X": 1}, "interpolation": 2}]}, "alpha": {"Points": [{"co": {"Y": 1, "X": 1}, "interpolation": 2}, {"handle_right": {"Y": 0, "X": 0.5}, "handle_type": 0, "handle_left": {"Y": 1, "X": 0.5}, "co": {"Y": 0, "X": 1}, "interpolation": 0}, {"handle_right": {"Y": 0, "X": 0.5}, "handle_type": 0, "handle_left": {"Y": 1, "X": 0.5}, "co": {"Y": 1, "X": 73}, "interpolation": 0}, {"handle_right": {"Y": 0, "X": 0.5}, "handle_type": 0, "handle_left": {"Y": 1, "X": 0.5}, "co": {"Y": 1, "X": 49}, "interpolation": 0}, {"handle_right": {"Y": 0, "X": 0.5}, "handle_type": 0, "handle_left": {"Y": 1, "X": 0.5}, "co": {"Y": 0, "X": 121}, "interpolation": 0}]}, "id": "ISJOMX8TQ1", "layer": 2, "display": 0, "scale": 1, "gravity": 4, "crop_width": {"Points": [{"co": {"Y": -1, "X": 1}, "interpolation": 2}]}, "crop_x": {"Points": [{"co": {"Y": 0, "X": 1}, "interpolation": 2}]}, "shear_x": {"Points": [{"co": {"Y": 0, "X": 1}, "interpolation": 2}]}, "volume": {"Points": [{"co": {"Y": 1, "X": 1}, "interpolation": 2}]}, "start": 0, "end": 5, "title": "!105-Average.svg", "crop_y": {"Points": [{"co": {"Y": 0, "X": 1}, "interpolation": 2}]}, "reader": {"video_stream_index": -1, "video_length": "2592000", "interlaced_frame": false, "audio_bit_rate": 0, "audio_timebase": {"den": 1, "num": 1}, "vcodec": "", "channels": 0, "has_video": true, "channel_layout": 4, "has_audio": false, "video_timebase": {"den": 30, "num": 1}, "has_single_image": true, "acodec": "", "video_bit_rate": 0, "display_ratio": {"den": 3827, "num": 6803}, "audio_stream_index": -1, "type": "QtImageReader", "top_field_first": true, "width": 6803, "pixel_ratio": {"den": 1, "num": 1}, "height": 3827, "duration": 86400.0, "file_size": "104140324", "path": "/home/milind/Data/Projects/ProgressCard/!105-Average.svg", "fps": {"den": 1, "num": 30}, "pixel_format": -1, "sample_rate": 0}, "position": 128.11499999999998, "has_video": {"Points": [{"co": {"Y": -1, "X": 1}, "interpolation": 2}]}, "has_audio": {"Points": [{"co": {"Y": -1, "X": 1}, "interpolation": 2}]}, "channel_mapping": {"Points": [{"co": {"Y": -1, "X": 1}, "interpolation": 2}]}, "shear_y": {"Points": [{"co": {"Y": 0, "X": 1}, "interpolation": 2}]}, "perspective_c3_y": {"Points": [{"co": {"Y": -1, "X": 1}, "interpolation": 2}]}, "waveform": false, "perspective_c3_x": {"Points": [{"co": {"Y": -1, "X": 1}, "interpolation": 2}]}, "scale_x": {"Points": [{"co": {"Y": 1, "X": 1}, "interpolation": 2}]}, "image": "/home/milind/.openshot_qt/thumbnail/1QJRY2QLTK.png", "location_y": {"Points": [{"co": {"Y": 0, "X": 1}, "interpolation": 2}]}, "file_id": "1QJRY2QLTK", "perspective_c2_y": {"Points": [{"co": {"Y": -1, "X": 1}, "interpolation": 2}]}, "perspective_c1_y": {"Points": [{"co": {"Y": -1, "X": 1}, "interpolation": 2}]}, "rotation": {"Points": [{"co": {"Y": 0, "X": 1}, "interpolation": 2}]}, "perspective_c4_y": {"Points": [{"co": {"Y": -1, "X": 1}, "interpolation": 2}]}, "anchor": 0, "wave_color": {"red": {"Points": [{"handle_right": {"Y": 0, "X": 0.5}, "handle_type": 0, "handle_left": {"Y": 1, "X": 0.5}, "co": {"Y": 0, "X": 1}, "interpolation": 0}]}, "green": {"Points": [{"handle_right": {"Y": 0, "X": 0.5}, "handle_type": 0, "handle_left": {"Y": 1, "X": 0.5}, "co": {"Y": 123, "X": 1}, "interpolation": 0}]}, "blue": {"Points": [{"handle_right": {"Y": 0, "X": 0.5}, "handle_type": 0, "handle_left": {"Y": 1, "X": 0.5}, "co": {"Y": 255, "X": 1}, "interpolation": 0}]}, "alpha": {"Points": [{"handle_right": {"Y": 0, "X": 0.5}, "handle_type": 0, "handle_left": {"Y": 1, "X": 0.5}, "co": {"Y": 255, "X": 1}, "interpolation": 0}]}}, "time": {"Points": [{"co": {"Y": 1, "X": 1}, "interpolation": 2}]}, "crop_height": {"Points": [{"co": {"Y": -1, "X": 1}, "interpolation": 2}]}, "scale_y": {"Points": [{"co": {"Y": 1, "X": 1}, "interpolation": 2}]}, "effects": []}, {"location_x": {"Points": [{"handle_right": {"Y": 0, "X": 0.5}, "handle_type": 0, "handle_left": {"Y": 1, "X": 0.5}, "co": {"Y": 0, "X": 1}, "interpolation": 0}]}, "perspective_c4_x": {"Points": [{"co": {"Y": -1, "X": 1}, "interpolation": 2}]}, "channel_filter": {"Points": [{"co": {"Y": -1, "X": 1}, "interpolation": 2}]}, "duration": 86400.0, "perspective_c1_x": {"Points": [{"co": {"Y": -1, "X": 1}, "interpolation": 2}]}, "perspective_c2_x": {"Points": [{"co": {"Y": -1, "X": 1}, "interpolation": 2}]}, "alpha": {"Points": [{"co": {"Y": 1, "X": 1}, "interpolation": 2}, {"handle_right": {"Y": 0, "X": 0.5}, "handle_type": 0, "handle_left": {"Y": 1, "X": 0.5}, "co": {"Y": 0, "X": 1}, "interpolation": 0}, {"handle_right": {"Y": 0, "X": 0.5}, "handle_type": 0, "handle_left": {"Y": 1, "X": 0.5}, "co": {"Y": 1, "X": 73}, "interpolation": 0}, {"handle_right": {"Y": 0, "X": 0.5}, "handle_type": 0, "handle_left": {"Y": 1, "X": 0.5}, "co": {"Y": 1, "X": 49}, "interpolation": 0}, {"handle_right": {"Y": 0, "X": 0.5}, "handle_type": 0, "handle_left": {"Y": 1, "X": 0.5}, "co": {"Y": 0, "X": 121}, "interpolation": 0}]}, "id": "98IX31JWVL", "layer": 3, "display": 0, "scale": 1, "gravity": 4, "crop_width": {"Points": [{"co": {"Y": -1, "X": 1}, "interpolation": 2}]}, "crop_x": {"Points": [{"co": {"Y": 0, "X": 1}, "interpolation": 2}]}, "shear_x": {"Points": [{"co": {"Y": 0, "X": 1}, "interpolation": 2}]}, "volume": {"Points": [{"co": {"Y": 1, "X": 1}, "interpolation": 2}]}, "start": 0, "end": 5, "title": "!113-Menu-Format-Cells.svg", "crop_y": {"Points": [{"co": {"Y": 0, "X": 1}, "interpolation": 2}]}, "reader": {"video_stream_index": -1, "video_length": "2592000", "interlaced_frame": false, "audio_bit_rate": 0, "audio_timebase": {"den": 1, "num": 1}, "vcodec": "", "channels": 0, "has_video": true, "channel_layout": 4, "has_audio": false, "video_timebase": {"den": 30, "num": 1}, "has_single_image": true, "acodec": "", "video_bit_rate": 0, "display_ratio": {"den": 3827, "num": 6803}, "audio_stream_index": -1, "type": "QtImageReader", "top_field_first": true, "width": 6803, "pixel_ratio": {"den": 1, "num": 1}, "height": 3827, "duration": 86400.0, "file_size": "104140324", "path": "/home/milind/Data/Projects/ProgressCard/!113-Menu-Format-Cells.svg", "fps": {"den": 1, "num": 30}, "pixel_format": -1, "sample_rate": 0}, "position": 140.165, "has_video": {"Points": [{"co": {"Y": -1, "X": 1}, "interpolation": 2}]}, "has_audio": {"Points": [{"co": {"Y": -1, "X": 1}, "interpolation": 2}]}, "channel_mapping": {"Points": [{"co": {"Y": -1, "X": 1}, "interpolation": 2}]}, "shear_y": {"Points": [{"co": {"Y": 0, "X": 1}, "interpolation": 2}]}, "perspective_c3_y": {"Points": [{"co": {"Y": -1, "X": 1}, "interpolation": 2}]}, "waveform": false, "perspective_c3_x": {"Points": [{"co": {"Y": -1, "X": 1}, "interpolation": 2}]}, "scale_x": {"Points": [{"handle_right": {"Y": 0, "X": 0.5}, "handle_type": 0, "handle_left": {"Y": 1, "X": 0.5}, "co": {"Y": 1, "X": 1}, "interpolation": 0}]}, "image": "/home/milind/.openshot_qt/thumbnail/LKFVWV6XVE.png", "location_y": {"Points": [{"handle_right": {"Y": 0, "X": 0.5}, "handle_type": 0, "handle_left": {"Y": 1, "X": 0.5}, "co": {"Y": -0.05999999865889549, "X": 1}, "interpolation": 0}]}, "file_id": "LKFVWV6XVE", "perspective_c2_y": {"Points": [{"co": {"Y": -1, "X": 1}, "interpolation": 2}]}, "perspective_c1_y": {"Points": [{"co": {"Y": -1, "X": 1}, "interpolation": 2}]}, "rotation": {"Points": [{"co": {"Y": 0, "X": 1}, "interpolation": 2}]}, "perspective_c4_y": {"Points": [{"co": {"Y": -1, "X": 1}, "interpolation": 2}]}, "anchor": 0, "wave_color": {"red": {"Points": [{"handle_right": {"Y": 0, "X": 0.5}, "handle_type": 0, "handle_left": {"Y": 1, "X": 0.5}, "co": {"Y": 0, "X": 1}, "interpolation": 0}]}, "green": {"Points": [{"handle_right": {"Y": 0, "X": 0.5}, "handle_type": 0, "handle_left": {"Y": 1, "X": 0.5}, "co": {"Y": 123, "X": 1}, "interpolation": 0}]}, "blue": {"Points": [{"handle_right": {"Y": 0, "X": 0.5}, "handle_type": 0, "handle_left": {"Y": 1, "X": 0.5}, "co": {"Y": 255, "X": 1}, "interpolation": 0}]}, "alpha": {"Points": [{"handle_right": {"Y": 0, "X": 0.5}, "handle_type": 0, "handle_left": {"Y": 1, "X": 0.5}, "co": {"Y": 255, "X": 1}, "interpolation": 0}]}}, "time": {"Points": [{"co": {"Y": 1, "X": 1}, "interpolation": 2}]}, "crop_height": {"Points": [{"co": {"Y": -1, "X": 1}, "interpolation": 2}]}, "scale_y": {"Points": [{"handle_right": {"Y": 0, "X": 0.5}, "handle_type": 0, "handle_left": {"Y": 1, "X": 0.5}, "co": {"Y": 1, "X": 1}, "interpolation": 0}]}, "effects": []}, {"location_x": {"Points": [{"co": {"Y": 0, "X": 1}, "interpolation": 2}]}, "perspective_c4_x": {"Points": [{"co": {"Y": -1, "X": 1}, "interpolation": 2}]}, "channel_filter": {"Points": [{"co": {"Y": -1, "X": 1}, "interpolation": 2}]}, "duration": 86400.0, "perspective_c1_x": {"Points": [{"co": {"Y": -1, "X": 1}, "interpolation": 2}]}, "perspective_c2_x": {"Points": [{"co": {"Y": -1, "X": 1}, "interpolation": 2}]}, "alpha": {"Points": [{"co": {"Y": 1, "X": 1}, "interpolation": 2}, {"handle_right": {"Y": 0, "X": 0.5}, "handle_type": 0, "handle_left": {"Y": 1, "X": 0.5}, "co": {"Y": 0, "X": 1}, "interpolation": 0}, {"handle_right": {"Y": 0, "X": 0.5}, "handle_type": 0, "handle_left": {"Y": 1, "X": 0.5}, "co": {"Y": 1, "X": 73}, "interpolation": 0}, {"handle_right": {"Y": 0, "X": 0.5}, "handle_type": 0, "handle_left": {"Y": 1, "X": 0.5}, "co": {"Y": 1, "X": 49}, "interpolation": 0}, {"handle_right": {"Y": 0, "X": 0.5}, "handle_type": 0, "handle_left": {"Y": 1, "X": 0.5}, "co": {"Y": 0, "X": 121}, "interpolation": 0}]}, "id": "TREDM9MF0N", "layer": 3, "display": 0, "scale": 1, "gravity": 4, "crop_width": {"Points": [{"co": {"Y": -1, "X": 1}, "interpolation": 2}]}, "crop_x": {"Points": [{"co": {"Y": 0, "X": 1}, "interpolation": 2}]}, "shear_x": {"Points": [{"co": {"Y": 0, "X": 1}, "interpolation": 2}]}, "volume": {"Points": [{"co": {"Y": 1, "X": 1}, "interpolation": 2}]}, "start": 0, "end": 5, "title": "!114-We need only 2 decimal places.svg", "crop_y": {"Points": [{"co": {"Y": 0, "X": 1}, "interpolation": 2}]}, "reader": {"video_stream_index": -1, "video_length": "2592000", "interlaced_frame": false, "audio_bit_rate": 0, "audio_timebase": {"den": 1, "num": 1}, "vcodec": "", "channels": 0, "has_video": true, "channel_layout": 4, "has_audio": false, "video_timebase": {"den": 30, "num": 1}, "has_single_image": true, "acodec": "", "video_bit_rate": 0, "display_ratio": {"den": 3827, "num": 6803}, "audio_stream_index": -1, "type": "QtImageReader", "top_field_first": true, "width": 6803, "pixel_ratio": {"den": 1, "num": 1}, "height": 3827, "duration": 86400.0, "file_size": "104140324", "path": "/home/milind/Data/Projects/ProgressCard/!114-We need only 2 decimal places.svg", "fps": {"den": 1, "num": 30}, "pixel_format": -1, "sample_rate": 0}, "position": 145.1640625, "has_video": {"Points": [{"co": {"Y": -1, "X": 1}, "interpolation": 2}]}, "has_audio": {"Points": [{"co": {"Y": -1, "X": 1}, "interpolation": 2}]}, "channel_mapping": {"Points": [{"co": {"Y": -1, "X": 1}, "interpolation": 2}]}, "shear_y": {"Points": [{"co": {"Y": 0, "X": 1}, "interpolation": 2}]}, "perspective_c3_y": {"Points": [{"co": {"Y": -1, "X": 1}, "interpolation": 2}]}, "waveform": false, "perspective_c3_x": {"Points": [{"co": {"Y": -1, "X": 1}, "interpolation": 2}]}, "scale_x": {"Points": [{"co": {"Y": 1, "X": 1}, "interpolation": 2}]}, "image": "/home/milind/.openshot_qt/thumbnail/GS94V0HQUR.png", "location_y": {"Points": [{"co": {"Y": 0, "X": 1}, "interpolation": 2}]}, "file_id": "GS94V0HQUR", "perspective_c2_y": {"Points": [{"co": {"Y": -1, "X": 1}, "interpolation": 2}]}, "perspective_c1_y": {"Points": [{"co": {"Y": -1, "X": 1}, "interpolation": 2}]}, "rotation": {"Points": [{"co": {"Y": 0, "X": 1}, "interpolation": 2}]}, "perspective_c4_y": {"Points": [{"co": {"Y": -1, "X": 1}, "interpolation": 2}]}, "anchor": 0, "wave_color": {"red": {"Points": [{"handle_right": {"Y": 0, "X": 0.5}, "handle_type": 0, "handle_left": {"Y": 1, "X": 0.5}, "co": {"Y": 0, "X": 1}, "interpolation": 0}]}, "green": {"Points": [{"handle_right": {"Y": 0, "X": 0.5}, "handle_type": 0, "handle_left": {"Y": 1, "X": 0.5}, "co": {"Y": 123, "X": 1}, "interpolation": 0}]}, "blue": {"Points": [{"handle_right": {"Y": 0, "X": 0.5}, "handle_type": 0, "handle_left": {"Y": 1, "X": 0.5}, "co": {"Y": 255, "X": 1}, "interpolation": 0}]}, "alpha": {"Points": [{"handle_right": {"Y": 0, "X": 0.5}, "handle_type": 0, "handle_left": {"Y": 1, "X": 0.5}, "co": {"Y": 255, "X": 1}, "interpolation": 0}]}}, "time": {"Points": [{"co": {"Y": 1, "X": 1}, "interpolation": 2}]}, "crop_height": {"Points": [{"co": {"Y": -1, "X": 1}, "interpolation": 2}]}, "scale_y": {"Points": [{"co": {"Y": 1, "X": 1}, "interpolation": 2}]}, "effects": []}, {"perspective_c3_y": {"Points": [{"co": {"Y": -1, "X": 1}, "interpolation": 2}]}, "shear_x": {"Points": [{"co": {"Y": 0, "X": 1}, "interpolation": 2}]}, "channel_filter": {"Points": [{"co": {"Y": -1, "X": 1}, "interpolation": 2}]}, "duration": 86400.0, "perspective_c1_x": {"Points": [{"co": {"Y": -1, "X": 1}, "interpolation": 2}]}, "perspective_c2_x": {"Points": [{"co": {"Y": -1, "X": 1}, "interpolation": 2}]}, "alpha": {"Points": [{"handle_right": {"Y": 0, "X": 0.5}, "handle_type": 0, "handle_left": {"Y": 1, "X": 0.5}, "co": {"Y": 1, "X": 1}, "interpolation": 0}, {"handle_right": {"Y": 0, "X": 0.5}, "handle_type": 0, "handle_left": {"Y": 1, "X": 0.5}, "co": {"Y": 0, "X": 1}, "interpolation": 0}, {"handle_right": {"Y": 0, "X": 0.5}, "handle_type": 0, "handle_left": {"Y": 1, "X": 0.5}, "co": {"Y": 1, "X": 73}, "interpolation": 0}, {"handle_right": {"Y": 0, "X": 0.5}, "handle_type": 0, "handle_left": {"Y": 1, "X": 0.5}, "co": {"Y": 1, "X": 216}, "interpolation": 0}, {"handle_right": {"Y": 0, "X": 0.5}, "handle_type": 0, "handle_left": {"Y": 1, "X": 0.5}, "co": {"Y": 0, "X": 288}, "interpolation": 0}]}, "id": "MDW7G3JTN7", "layer": 2, "file_id": "BS7QREURZM", "display": 0, "scale": 1, "gravity": 4, "crop_width": {"Points": [{"co": {"Y": -1, "X": 1}, "interpolation": 2}]}, "crop_x": {"Points": [{"co": {"Y": 0, "X": 1}, "interpolation": 2}]}, "perspective_c4_x": {"Points": [{"co": {"Y": -1, "X": 1}, "interpolation": 2}]}, "volume": {"Points": [{"co": {"Y": 1, "X": 1}, "interpolation": 2}]}, "start": 0, "rotation": {"Points": [{"co": {"Y": 0, "X": 1}, "interpolation": 2}]}, "crop_y": {"Points": [{"co": {"Y": 0, "X": 1}, "interpolation": 2}]}, "position": 103.86000061035156, "has_video": {"Points": [{"co": {"Y": -1, "X": 1}, "interpolation": 2}]}, "has_audio": {"Points": [{"co": {"Y": -1, "X": 1}, "interpolation": 2}]}, "channel_mapping": {"Points": [{"co": {"Y": -1, "X": 1}, "interpolation": 2}]}, "end": 11.97, "shear_y": {"Points": [{"co": {"Y": 0, "X": 1}, "interpolation": 2}]}, "perspective_c3_x": {"Points": [{"co": {"Y": -1, "X": 1}, "interpolation": 2}]}, "scale_x": {"Points": [{"co": {"Y": 1, "X": 1}, "interpolation": 2}]}, "location_x": {"Points": [{"co": {"Y": 0, "X": 1}, "interpolation": 2}]}, "location_y": {"Points": [{"co": {"Y": 0, "X": 1}, "interpolation": 2}]}, "image": "/home/milind/.openshot_qt/thumbnail/BS7QREURZM.png", "perspective_c2_y": {"Points": [{"co": {"Y": -1, "X": 1}, "interpolation": 2}]}, "waveform": false, "perspective_c1_y": {"Points": [{"co": {"Y": -1, "X": 1}, "interpolation": 2}]}, "title": "!086-Then Fail Else Pass.svg", "perspective_c4_y": {"Points": [{"co": {"Y": -1, "X": 1}, "interpolation": 2}]}, "anchor": 0, "wave_color": {"red": {"Points": [{"handle_right": {"Y": 0, "X": 0.5}, "handle_type": 0, "handle_left": {"Y": 1, "X": 0.5}, "co": {"Y": 0, "X": 1}, "interpolation": 0}]}, "green": {"Points": [{"handle_right": {"Y": 0, "X": 0.5}, "handle_type": 0, "handle_left": {"Y": 1, "X": 0.5}, "co": {"Y": 123, "X": 1}, "interpolation": 0}]}, "blue": {"Points": [{"handle_right": {"Y": 0, "X": 0.5}, "handle_type": 0, "handle_left": {"Y": 1, "X": 0.5}, "co": {"Y": 255, "X": 1}, "interpolation": 0}]}, "alpha": {"Points": [{"handle_right": {"Y": 0, "X": 0.5}, "handle_type": 0, "handle_left": {"Y": 1, "X": 0.5}, "co": {"Y": 255, "X": 1}, "interpolation": 0}]}}, "time": {"Points": [{"co": {"Y": 1, "X": 1}, "interpolation": 2}]}, "effects": [], "crop_height": {"Points": [{"co": {"Y": -1, "X": 1}, "interpolation": 2}]}, "scale_y": {"Points": [{"co": {"Y": 1, "X": 1}, "interpolation": 2}]}, "reader": {"video_stream_index": -1, "top_field_first": true, "interlaced_frame": false, "audio_bit_rate": 0, "audio_timebase": {"den": 1, "num": 1}, "duration": 86400.0, "channels": 0, "has_video": true, "channel_layout": 4, "has_audio": false, "video_timebase": {"den": 30, "num": 1}, "has_single_image": true, "acodec": "", "video_bit_rate": 0, "display_ratio": {"den": 3827, "num": 6803}, "audio_stream_index": -1, "type": "QtImageReader", "video_length": "2592000", "width": 6803, "pixel_ratio": {"den": 1, "num": 1}, "height": 3827, "vcodec": "", "file_size": "104140324", "path": "/home/milind/Data/Projects/ProgressCard/!086-Then Fail Else Pass.svg", "fps": {"den": 1, "num": 30}, "pixel_format": -1, "sample_rate": 0}}, {"perspective_c3_y": {"Points": [{"co": {"Y": -1, "X": 1}, "interpolation": 2}]}, "shear_x": {"Points": [{"co": {"Y": 0, "X": 1}, "interpolation": 2}]}, "channel_filter": {"Points": [{"co": {"Y": -1, "X": 1}, "interpolation": 2}]}, "duration": 86400.0, "perspective_c1_x": {"Points": [{"co": {"Y": -1, "X": 1}, "interpolation": 2}]}, "perspective_c2_x": {"Points": [{"co": {"Y": -1, "X": 1}, "interpolation": 2}]}, "alpha": {"Points": [{"co": {"Y": 1, "X": 1}, "interpolation": 2}, {"handle_right": {"Y": 0, "X": 0.5}, "handle_type": 0, "handle_left": {"Y": 1, "X": 0.5}, "co": {"Y": 0, "X": 1}, "interpolation": 0}, {"handle_right": {"Y": 0, "X": 0.5}, "handle_type": 0, "handle_left": {"Y": 1, "X": 0.5}, "co": {"Y": 1, "X": 73}, "interpolation": 0}, {"handle_right": {"Y": 0, "X": 0.5}, "handle_type": 0, "handle_left": {"Y": 1, "X": 0.5}, "co": {"Y": 1, "X": 102}, "interpolation": 0}, {"handle_right": {"Y": 0, "X": 0.5}, "handle_type": 0, "handle_left": {"Y": 1, "X": 0.5}, "co": {"Y": 0, "X": 174}, "interpolation": 0}]}, "id": "CXD9GF0U7L", "layer": 2, "file_id": "AA811BEMSM", "display": 0, "scale": 1, "gravity": 4, "crop_width": {"Points": [{"co": {"Y": -1, "X": 1}, "interpolation": 2}]}, "crop_x": {"Points": [{"co": {"Y": 0, "X": 1}, "interpolation": 2}]}, "perspective_c4_x": {"Points": [{"co": {"Y": -1, "X": 1}, "interpolation": 2}]}, "volume": {"Points": [{"co": {"Y": 1, "X": 1}, "interpolation": 2}]}, "start": 0, "rotation": {"Points": [{"co": {"Y": 0, "X": 1}, "interpolation": 2}]}, "crop_y": {"Points": [{"co": {"Y": 0, "X": 1}, "interpolation": 2}]}, "position": 177.65796874999998, "has_video": {"Points": [{"co": {"Y": -1, "X": 1}, "interpolation": 2}]}, "has_audio": {"Points": [{"co": {"Y": -1, "X": 1}, "interpolation": 2}]}, "channel_mapping": {"Points": [{"co": {"Y": -1, "X": 1}, "interpolation": 2}]}, "end": 7.21, "shear_y": {"Points": [{"co": {"Y": 0, "X": 1}, "interpolation": 2}]}, "perspective_c3_x": {"Points": [{"co": {"Y": -1, "X": 1}, "interpolation": 2}]}, "scale_x": {"Points": [{"co": {"Y": 1, "X": 1}, "interpolation": 2}]}, "location_x": {"Points": [{"co": {"Y": 0, "X": 1}, "interpolation": 2}]}, "location_y": {"Points": [{"co": {"Y": 0, "X": 1}, "interpolation": 2}]}, "image": "/home/milind/.openshot_qt/thumbnail/AA811BEMSM.png", "perspective_c2_y": {"Points": [{"co": {"Y": -1, "X": 1}, "interpolation": 2}]}, "waveform": false, "perspective_c1_y": {"Points": [{"co": {"Y": -1, "X": 1}, "interpolation": 2}]}, "title": "!135-Grade.svg", "perspective_c4_y": {"Points": [{"co": {"Y": -1, "X": 1}, "interpolation": 2}]}, "anchor": 0, "wave_color": {"blue": {"Points": [{"handle_right": {"Y": 0, "X": 0.5}, "handle_type": 0, "handle_left": {"Y": 1, "X": 0.5}, "co": {"Y": 255, "X": 1}, "interpolation": 0}]}, "green": {"Points": [{"handle_right": {"Y": 0, "X": 0.5}, "handle_type": 0, "handle_left": {"Y": 1, "X": 0.5}, "co": {"Y": 123, "X": 1}, "interpolation": 0}]}, "red": {"Points": [{"handle_right": {"Y": 0, "X": 0.5}, "handle_type": 0, "handle_left": {"Y": 1, "X": 0.5}, "co": {"Y": 0, "X": 1}, "interpolation": 0}]}, "alpha": {"Points": [{"handle_right": {"Y": 0, "X": 0.5}, "handle_type": 0, "handle_left": {"Y": 1, "X": 0.5}, "co": {"Y": 255, "X": 1}, "interpolation": 0}]}}, "time": {"Points": [{"co": {"Y": 1, "X": 1}, "interpolation": 2}]}, "effects": [], "crop_height": {"Points": [{"co": {"Y": -1, "X": 1}, "interpolation": 2}]}, "scale_y": {"Points": [{"co": {"Y": 1, "X": 1}, "interpolation": 2}]}, "reader": {"video_stream_index": -1, "top_field_first": true, "interlaced_frame": false, "audio_bit_rate": 0, "audio_timebase": {"den": 1, "num": 1}, "duration": 86400.0, "channels": 0, "has_video": true, "channel_layout": 4, "has_audio": false, "video_timebase": {"den": 30, "num": 1}, "has_single_image": true, "acodec": "", "video_bit_rate": 0, "display_ratio": {"den": 3827, "num": 6803}, "audio_stream_index": -1, "type": "QtImageReader", "video_length": "2592000", "width": 6803, "pixel_ratio": {"den": 1, "num": 1}, "height": 3827, "vcodec": "", "file_size": "104140324", "path": "/home/milind/Data/Projects/ProgressCard/!135-Grade.svg", "fps": {"den": 1, "num": 30}, "pixel_format": -1, "sample_rate": 0}}, {"perspective_c3_y": {"Points": [{"co": {"Y": -1, "X": 1}, "interpolation": 2}]}, "shear_x": {"Points": [{"co": {"Y": 0, "X": 1}, "interpolation": 2}]}, "channel_filter": {"Points": [{"co": {"Y": -1, "X": 1}, "interpolation": 2}]}, "duration": 86400.0, "perspective_c1_x": {"Points": [{"co": {"Y": -1, "X": 1}, "interpolation": 2}]}, "perspective_c2_x": {"Points": [{"co": {"Y": -1, "X": 1}, "interpolation": 2}]}, "alpha": {"Points": [{"co": {"Y": 1, "X": 1}, "interpolation": 2}]}, "id": "DVT7KHN9HZ", "layer": 2, "file_id": "U4HEYX76VH", "display": 0, "scale": 1, "gravity": 4, "crop_width": {"Points": [{"co": {"Y": -1, "X": 1}, "interpolation": 2}]}, "crop_x": {"Points": [{"co": {"Y": 0, "X": 1}, "interpolation": 2}]}, "perspective_c4_x": {"Points": [{"co": {"Y": -1, "X": 1}, "interpolation": 2}]}, "volume": {"Points": [{"co": {"Y": 1, "X": 1}, "interpolation": 2}]}, "start": 0, "rotation": {"Points": [{"co": {"Y": 0, "X": 1}, "interpolation": 2}]}, "crop_y": {"Points": [{"co": {"Y": 0, "X": 1}, "interpolation": 2}]}, "position": 196.41666666666666, "has_video": {"Points": [{"co": {"Y": -1, "X": 1}, "interpolation": 2}]}, "has_audio": {"Points": [{"co": {"Y": -1, "X": 1}, "interpolation": 2}]}, "channel_mapping": {"Points": [{"co": {"Y": -1, "X": 1}, "interpolation": 2}]}, "end": 5, "shear_y": {"Points": [{"co": {"Y": 0, "X": 1}, "interpolation": 2}]}, "perspective_c3_x": {"Points": [{"co": {"Y": -1, "X": 1}, "interpolation": 2}]}, "scale_x": {"Points": [{"co": {"Y": 1, "X": 1}, "interpolation": 2}]}, "location_x": {"Points": [{"co": {"Y": 0, "X": 1}, "interpolation": 2}]}, "location_y": {"Points": [{"co": {"Y": 0, "X": 1}, "interpolation": 2}]}, "image": "/home/milind/.openshot_qt/thumbnail/U4HEYX76VH.png", "perspective_c2_y": {"Points": [{"co": {"Y": -1, "X": 1}, "interpolation": 2}]}, "waveform": false, "perspective_c1_y": {"Points": [{"co": {"Y": -1, "X": 1}, "interpolation": 2}]}, "title": "!145-PROMOTED.svg", "perspective_c4_y": {"Points": [{"co": {"Y": -1, "X": 1}, "interpolation": 2}]}, "anchor": 0, "wave_color": {"blue": {"Points": [{"handle_right": {"Y": 0, "X": 0.5}, "handle_type": 0, "handle_left": {"Y": 1, "X": 0.5}, "co": {"Y": 255, "X": 1}, "interpolation": 0}]}, "green": {"Points": [{"handle_right": {"Y": 0, "X": 0.5}, "handle_type": 0, "handle_left": {"Y": 1, "X": 0.5}, "co": {"Y": 123, "X": 1}, "interpolation": 0}]}, "red": {"Points": [{"handle_right": {"Y": 0, "X": 0.5}, "handle_type": 0, "handle_left": {"Y": 1, "X": 0.5}, "co": {"Y": 0, "X": 1}, "interpolation": 0}]}, "alpha": {"Points": [{"handle_right": {"Y": 0, "X": 0.5}, "handle_type": 0, "handle_left": {"Y": 1, "X": 0.5}, "co": {"Y": 255, "X": 1}, "interpolation": 0}]}}, "time": {"Points": [{"co": {"Y": 1, "X": 1}, "interpolation": 2}]}, "effects": [], "crop_height": {"Points": [{"co": {"Y": -1, "X": 1}, "interpolation": 2}]}, "scale_y": {"Points": [{"co": {"Y": 1, "X": 1}, "interpolation": 2}]}, "reader": {"video_stream_index": -1, "top_field_first": true, "interlaced_frame": false, "audio_bit_rate": 0, "audio_timebase": {"den": 1, "num": 1}, "duration": 86400.0, "channels": 0, "has_video": true, "channel_layout": 4, "has_audio": false, "video_timebase": {"den": 30, "num": 1}, "has_single_image": true, "acodec": "", "video_bit_rate": 0, "display_ratio": {"den": 3827, "num": 6803}, "audio_stream_index": -1, "type": "QtImageReader", "video_length": "2592000", "width": 6803, "pixel_ratio": {"den": 1, "num": 1}, "height": 3827, "vcodec": "", "file_size": "104140324", "path": "/home/milind/Data/Projects/ProgressCard/!145-PROMOTED.svg", "fps": {"den": 1, "num": 30}, "pixel_format": -1, "sample_rate": 0}}, {"perspective_c3_y": {"Points": [{"co": {"Y": -1, "X": 1}, "interpolation": 2}]}, "shear_x": {"Points": [{"co": {"Y": 0, "X": 1}, "interpolation": 2}]}, "channel_filter": {"Points": [{"co": {"Y": -1, "X": 1}, "interpolation": 2}]}, "duration": 86400.0, "perspective_c1_x": {"Points": [{"co": {"Y": -1, "X": 1}, "interpolation": 2}]}, "perspective_c2_x": {"Points": [{"co": {"Y": -1, "X": 1}, "interpolation": 2}]}, "alpha": {"Points": [{"co": {"Y": 1, "X": 1}, "interpolation": 2}]}, "id": "53HWYMUXFZ", "layer": 2, "file_id": "QKE4L0GUDK", "display": 0, "scale": 1, "gravity": 4, "crop_width": {"Points": [{"co": {"Y": -1, "X": 1}, "interpolation": 2}]}, "crop_x": {"Points": [{"co": {"Y": 0, "X": 1}, "interpolation": 2}]}, "perspective_c4_x": {"Points": [{"co": {"Y": -1, "X": 1}, "interpolation": 2}]}, "volume": {"Points": [{"co": {"Y": 1, "X": 1}, "interpolation": 2}]}, "start": 0, "rotation": {"Points": [{"co": {"Y": 0, "X": 1}, "interpolation": 2}]}, "crop_y": {"Points": [{"co": {"Y": 0, "X": 1}, "interpolation": 2}]}, "position": 208.92999999999998, "has_video": {"Points": [{"co": {"Y": -1, "X": 1}, "interpolation": 2}]}, "has_audio": {"Points": [{"co": {"Y": -1, "X": 1}, "interpolation": 2}]}, "channel_mapping": {"Points": [{"co": {"Y": -1, "X": 1}, "interpolation": 2}]}, "end": 5, "shear_y": {"Points": [{"co": {"Y": 0, "X": 1}, "interpolation": 2}]}, "perspective_c3_x": {"Points": [{"co": {"Y": -1, "X": 1}, "interpolation": 2}]}, "scale_x": {"Points": [{"co": {"Y": 1, "X": 1}, "interpolation": 2}]}, "location_x": {"Points": [{"co": {"Y": 0, "X": 1}, "interpolation": 2}]}, "location_y": {"Points": [{"co": {"Y": 0, "X": 1}, "interpolation": 2}]}, "image": "/home/milind/.openshot_qt/thumbnail/QKE4L0GUDK.png", "perspective_c2_y": {"Points": [{"co": {"Y": -1, "X": 1}, "interpolation": 2}]}, "waveform": false, "perspective_c1_y": {"Points": [{"co": {"Y": -1, "X": 1}, "interpolation": 2}]}, "title": "!145-PASS CLASS.svg", "perspective_c4_y": {"Points": [{"co": {"Y": -1, "X": 1}, "interpolation": 2}]}, "anchor": 0, "wave_color": {"blue": {"Points": [{"handle_right": {"Y": 0, "X": 0.5}, "handle_type": 0, "handle_left": {"Y": 1, "X": 0.5}, "co": {"Y": 255, "X": 1}, "interpolation": 0}]}, "green": {"Points": [{"handle_right": {"Y": 0, "X": 0.5}, "handle_type": 0, "handle_left": {"Y": 1, "X": 0.5}, "co": {"Y": 123, "X": 1}, "interpolation": 0}]}, "red": {"Points": [{"handle_right": {"Y": 0, "X": 0.5}, "handle_type": 0, "handle_left": {"Y": 1, "X": 0.5}, "co": {"Y": 0, "X": 1}, "interpolation": 0}]}, "alpha": {"Points": [{"handle_right": {"Y": 0, "X": 0.5}, "handle_type": 0, "handle_left": {"Y": 1, "X": 0.5}, "co": {"Y": 255, "X": 1}, "interpolation": 0}]}}, "time": {"Points": [{"co": {"Y": 1, "X": 1}, "interpolation": 2}]}, "effects": [], "crop_height": {"Points": [{"co": {"Y": -1, "X": 1}, "interpolation": 2}]}, "scale_y": {"Points": [{"co": {"Y": 1, "X": 1}, "interpolation": 2}]}, "reader": {"video_stream_index": -1, "top_field_first": true, "interlaced_frame": false, "audio_bit_rate": 0, "audio_timebase": {"den": 1, "num": 1}, "duration": 86400.0, "channels": 0, "has_video": true, "channel_layout": 4, "has_audio": false, "video_timebase": {"den": 30, "num": 1}, "has_single_image": true, "acodec": "", "video_bit_rate": 0, "display_ratio": {"den": 3827, "num": 6803}, "audio_stream_index": -1, "type": "QtImageReader", "video_length": "2592000", "width": 6803, "pixel_ratio": {"den": 1, "num": 1}, "height": 3827, "vcodec": "", "file_size": "104140324", "path": "/home/milind/Data/Projects/ProgressCard/!145-PASS CLASS.svg", "fps": {"den": 1, "num": 30}, "pixel_format": -1, "sample_rate": 0}}, {"perspective_c3_y": {"Points": [{"co": {"Y": -1, "X": 1}, "interpolation": 2}]}, "shear_x": {"Points": [{"co": {"Y": 0, "X": 1}, "interpolation": 2}]}, "channel_filter": {"Points": [{"co": {"Y": -1, "X": 1}, "interpolation": 2}]}, "duration": 86400.0, "perspective_c1_x": {"Points": [{"co": {"Y": -1, "X": 1}, "interpolation": 2}]}, "perspective_c2_x": {"Points": [{"co": {"Y": -1, "X": 1}, "interpolation": 2}]}, "alpha": {"Points": [{"co": {"Y": 1, "X": 1}, "interpolation": 2}]}, "id": "O4H51B63WF", "layer": 2, "file_id": "B8NAT6SOHT", "display": 0, "scale": 1, "gravity": 4, "crop_width": {"Points": [{"co": {"Y": -1, "X": 1}, "interpolation": 2}]}, "crop_x": {"Points": [{"co": {"Y": 0, "X": 1}, "interpolation": 2}]}, "perspective_c4_x": {"Points": [{"co": {"Y": -1, "X": 1}, "interpolation": 2}]}, "volume": {"Points": [{"co": {"Y": 1, "X": 1}, "interpolation": 2}]}, "start": 0, "rotation": {"Points": [{"co": {"Y": 0, "X": 1}, "interpolation": 2}]}, "crop_y": {"Points": [{"co": {"Y": 0, "X": 1}, "interpolation": 2}]}, "position": 219.64, "has_video": {"Points": [{"co": {"Y": -1, "X": 1}, "interpolation": 2}]}, "has_audio": {"Points": [{"co": {"Y": -1, "X": 1}, "interpolation": 2}]}, "channel_mapping": {"Points": [{"co": {"Y": -1, "X": 1}, "interpolation": 2}]}, "end": 5, "shear_y": {"Points": [{"co": {"Y": 0, "X": 1}, "interpolation": 2}]}, "perspective_c3_x": {"Points": [{"co": {"Y": -1, "X": 1}, "interpolation": 2}]}, "scale_x": {"Points": [{"co": {"Y": 1, "X": 1}, "interpolation": 2}]}, "location_x": {"Points": [{"co": {"Y": 0, "X": 1}, "interpolation": 2}]}, "location_y": {"Points": [{"co": {"Y": 0, "X": 1}, "interpolation": 2}]}, "image": "/home/milind/.openshot_qt/thumbnail/B8NAT6SOHT.png", "perspective_c2_y": {"Points": [{"co": {"Y": -1, "X": 1}, "interpolation": 2}]}, "waveform": false, "perspective_c1_y": {"Points": [{"co": {"Y": -1, "X": 1}, "interpolation": 2}]}, "title": "!145-SECOND CLASS.svg", "perspective_c4_y": {"Points": [{"co": {"Y": -1, "X": 1}, "interpolation": 2}]}, "anchor": 0, "wave_color": {"blue": {"Points": [{"handle_right": {"Y": 0, "X": 0.5}, "handle_type": 0, "handle_left": {"Y": 1, "X": 0.5}, "co": {"Y": 255, "X": 1}, "interpolation": 0}]}, "green": {"Points": [{"handle_right": {"Y": 0, "X": 0.5}, "handle_type": 0, "handle_left": {"Y": 1, "X": 0.5}, "co": {"Y": 123, "X": 1}, "interpolation": 0}]}, "red": {"Points": [{"handle_right": {"Y": 0, "X": 0.5}, "handle_type": 0, "handle_left": {"Y": 1, "X": 0.5}, "co": {"Y": 0, "X": 1}, "interpolation": 0}]}, "alpha": {"Points": [{"handle_right": {"Y": 0, "X": 0.5}, "handle_type": 0, "handle_left": {"Y": 1, "X": 0.5}, "co": {"Y": 255, "X": 1}, "interpolation": 0}]}}, "time": {"Points": [{"co": {"Y": 1, "X": 1}, "interpolation": 2}]}, "effects": [], "crop_height": {"Points": [{"co": {"Y": -1, "X": 1}, "interpolation": 2}]}, "scale_y": {"Points": [{"co": {"Y": 1, "X": 1}, "interpolation": 2}]}, "reader": {"video_stream_index": -1, "top_field_first": true, "interlaced_frame": false, "audio_bit_rate": 0, "audio_timebase": {"den": 1, "num": 1}, "duration": 86400.0, "channels": 0, "has_video": true, "channel_layout": 4, "has_audio": false, "video_timebase": {"den": 30, "num": 1}, "has_single_image": true, "acodec": "", "video_bit_rate": 0, "display_ratio": {"den": 3827, "num": 6803}, "audio_stream_index": -1, "type": "QtImageReader", "video_length": "2592000", "width": 6803, "pixel_ratio": {"den": 1, "num": 1}, "height": 3827, "vcodec": "", "file_size": "104140324", "path": "/home/milind/Data/Projects/ProgressCard/!145-SECOND CLASS.svg", "fps": {"den": 1, "num": 30}, "pixel_format": -1, "sample_rate": 0}}, {"perspective_c3_y": {"Points": [{"co": {"Y": -1, "X": 1}, "interpolation": 2}]}, "shear_x": {"Points": [{"co": {"Y": 0, "X": 1}, "interpolation": 2}]}, "channel_filter": {"Points": [{"co": {"Y": -1, "X": 1}, "interpolation": 2}]}, "duration": 86400.0, "perspective_c1_x": {"Points": [{"co": {"Y": -1, "X": 1}, "interpolation": 2}]}, "perspective_c2_x": {"Points": [{"co": {"Y": -1, "X": 1}, "interpolation": 2}]}, "alpha": {"Points": [{"co": {"Y": 1, "X": 1}, "interpolation": 2}]}, "id": "XGW80R7KP4", "layer": 2, "file_id": "QURFA8ZYYH", "display": 0, "scale": 1, "gravity": 4, "crop_width": {"Points": [{"co": {"Y": -1, "X": 1}, "interpolation": 2}]}, "crop_x": {"Points": [{"co": {"Y": 0, "X": 1}, "interpolation": 2}]}, "perspective_c4_x": {"Points": [{"co": {"Y": -1, "X": 1}, "interpolation": 2}]}, "volume": {"Points": [{"co": {"Y": 1, "X": 1}, "interpolation": 2}]}, "start": 0, "rotation": {"Points": [{"co": {"Y": 0, "X": 1}, "interpolation": 2}]}, "crop_y": {"Points": [{"co": {"Y": 0, "X": 1}, "interpolation": 2}]}, "position": 232.04999999999998, "has_video": {"Points": [{"co": {"Y": -1, "X": 1}, "interpolation": 2}]}, "has_audio": {"Points": [{"co": {"Y": -1, "X": 1}, "interpolation": 2}]}, "channel_mapping": {"Points": [{"co": {"Y": -1, "X": 1}, "interpolation": 2}]}, "end": 5, "shear_y": {"Points": [{"co": {"Y": 0, "X": 1}, "interpolation": 2}]}, "perspective_c3_x": {"Points": [{"co": {"Y": -1, "X": 1}, "interpolation": 2}]}, "scale_x": {"Points": [{"co": {"Y": 1, "X": 1}, "interpolation": 2}]}, "location_x": {"Points": [{"co": {"Y": 0, "X": 1}, "interpolation": 2}]}, "location_y": {"Points": [{"co": {"Y": 0, "X": 1}, "interpolation": 2}]}, "image": "/home/milind/.openshot_qt/thumbnail/QURFA8ZYYH.png", "perspective_c2_y": {"Points": [{"co": {"Y": -1, "X": 1}, "interpolation": 2}]}, "waveform": false, "perspective_c1_y": {"Points": [{"co": {"Y": -1, "X": 1}, "interpolation": 2}]}, "title": "!145-FIRST CLASS.svg", "perspective_c4_y": {"Points": [{"co": {"Y": -1, "X": 1}, "interpolation": 2}]}, "anchor": 0, "wave_color": {"blue": {"Points": [{"handle_right": {"Y": 0, "X": 0.5}, "handle_type": 0, "handle_left": {"Y": 1, "X": 0.5}, "co": {"Y": 255, "X": 1}, "interpolation": 0}]}, "green": {"Points": [{"handle_right": {"Y": 0, "X": 0.5}, "handle_type": 0, "handle_left": {"Y": 1, "X": 0.5}, "co": {"Y": 123, "X": 1}, "interpolation": 0}]}, "red": {"Points": [{"handle_right": {"Y": 0, "X": 0.5}, "handle_type": 0, "handle_left": {"Y": 1, "X": 0.5}, "co": {"Y": 0, "X": 1}, "interpolation": 0}]}, "alpha": {"Points": [{"handle_right": {"Y": 0, "X": 0.5}, "handle_type": 0, "handle_left": {"Y": 1, "X": 0.5}, "co": {"Y": 255, "X": 1}, "interpolation": 0}]}}, "time": {"Points": [{"co": {"Y": 1, "X": 1}, "interpolation": 2}]}, "effects": [], "crop_height": {"Points": [{"co": {"Y": -1, "X": 1}, "interpolation": 2}]}, "scale_y": {"Points": [{"co": {"Y": 1, "X": 1}, "interpolation": 2}]}, "reader": {"video_stream_index": -1, "top_field_first": true, "interlaced_frame": false, "audio_bit_rate": 0, "audio_timebase": {"den": 1, "num": 1}, "duration": 86400.0, "channels": 0, "has_video": true, "channel_layout": 4, "has_audio": false, "video_timebase": {"den": 30, "num": 1}, "has_single_image": true, "acodec": "", "video_bit_rate": 0, "display_ratio": {"den": 3827, "num": 6803}, "audio_stream_index": -1, "type": "QtImageReader", "video_length": "2592000", "width": 6803, "pixel_ratio": {"den": 1, "num": 1}, "height": 3827, "vcodec": "", "file_size": "104140324", "path": "/home/milind/Data/Projects/ProgressCard/!145-FIRST CLASS.svg", "fps": {"den": 1, "num": 30}, "pixel_format": -1, "sample_rate": 0}}, {"perspective_c3_y": {"Points": [{"co": {"Y": -1, "X": 1}, "interpolation": 2}]}, "shear_x": {"Points": [{"co": {"Y": 0, "X": 1}, "interpolation": 2}]}, "channel_filter": {"Points": [{"co": {"Y": -1, "X": 1}, "interpolation": 2}]}, "duration": 86400.0, "perspective_c1_x": {"Points": [{"co": {"Y": -1, "X": 1}, "interpolation": 2}]}, "perspective_c2_x": {"Points": [{"co": {"Y": -1, "X": 1}, "interpolation": 2}]}, "alpha": {"Points": [{"co": {"Y": 1, "X": 1}, "interpolation": 2}]}, "id": "679CKERX79", "layer": 2, "file_id": "BWOLHCX3NY", "display": 0, "scale": 1, "gravity": 4, "crop_width": {"Points": [{"co": {"Y": -1, "X": 1}, "interpolation": 2}]}, "crop_x": {"Points": [{"co": {"Y": 0, "X": 1}, "interpolation": 2}]}, "perspective_c4_x": {"Points": [{"co": {"Y": -1, "X": 1}, "interpolation": 2}]}, "volume": {"Points": [{"co": {"Y": 1, "X": 1}, "interpolation": 2}]}, "start": 0, "rotation": {"Points": [{"co": {"Y": 0, "X": 1}, "interpolation": 2}]}, "crop_y": {"Points": [{"co": {"Y": 0, "X": 1}, "interpolation": 2}]}, "position": 241.91, "has_video": {"Points": [{"co": {"Y": -1, "X": 1}, "interpolation": 2}]}, "has_audio": {"Points": [{"co": {"Y": -1, "X": 1}, "interpolation": 2}]}, "channel_mapping": {"Points": [{"co": {"Y": -1, "X": 1}, "interpolation": 2}]}, "end": 5, "shear_y": {"Points": [{"co": {"Y": 0, "X": 1}, "interpolation": 2}]}, "perspective_c3_x": {"Points": [{"co": {"Y": -1, "X": 1}, "interpolation": 2}]}, "scale_x": {"Points": [{"co": {"Y": 1, "X": 1}, "interpolation": 2}]}, "location_x": {"Points": [{"co": {"Y": 0, "X": 1}, "interpolation": 2}]}, "location_y": {"Points": [{"co": {"Y": 0, "X": 1}, "interpolation": 2}]}, "image": "/home/milind/.openshot_qt/thumbnail/BWOLHCX3NY.png", "perspective_c2_y": {"Points": [{"co": {"Y": -1, "X": 1}, "interpolation": 2}]}, "waveform": false, "perspective_c1_y": {"Points": [{"co": {"Y": -1, "X": 1}, "interpolation": 2}]}, "title": "!145-DISTINCTION.svg", "perspective_c4_y": {"Points": [{"co": {"Y": -1, "X": 1}, "interpolation": 2}]}, "anchor": 0, "wave_color": {"blue": {"Points": [{"handle_right": {"Y": 0, "X": 0.5}, "handle_type": 0, "handle_left": {"Y": 1, "X": 0.5}, "co": {"Y": 255, "X": 1}, "interpolation": 0}]}, "green": {"Points": [{"handle_right": {"Y": 0, "X": 0.5}, "handle_type": 0, "handle_left": {"Y": 1, "X": 0.5}, "co": {"Y": 123, "X": 1}, "interpolation": 0}]}, "red": {"Points": [{"handle_right": {"Y": 0, "X": 0.5}, "handle_type": 0, "handle_left": {"Y": 1, "X": 0.5}, "co": {"Y": 0, "X": 1}, "interpolation": 0}]}, "alpha": {"Points": [{"handle_right": {"Y": 0, "X": 0.5}, "handle_type": 0, "handle_left": {"Y": 1, "X": 0.5}, "co": {"Y": 255, "X": 1}, "interpolation": 0}]}}, "time": {"Points": [{"co": {"Y": 1, "X": 1}, "interpolation": 2}]}, "effects": [], "crop_height": {"Points": [{"co": {"Y": -1, "X": 1}, "interpolation": 2}]}, "scale_y": {"Points": [{"co": {"Y": 1, "X": 1}, "interpolation": 2}]}, "reader": {"video_stream_index": -1, "top_field_first": true, "interlaced_frame": false, "audio_bit_rate": 0, "audio_timebase": {"den": 1, "num": 1}, "duration": 86400.0, "channels": 0, "has_video": true, "channel_layout": 4, "has_audio": false, "video_timebase": {"den": 30, "num": 1}, "has_single_image": true, "acodec": "", "video_bit_rate": 0, "display_ratio": {"den": 3827, "num": 6803}, "audio_stream_index": -1, "type": "QtImageReader", "video_length": "2592000", "width": 6803, "pixel_ratio": {"den": 1, "num": 1}, "height": 3827, "vcodec": "", "file_size": "104140324", "path": "/home/milind/Data/Projects/ProgressCard/!145-DISTINCTION.svg", "fps": {"den": 1, "num": 30}, "pixel_format": -1, "sample_rate": 0}}], "key": ["clips"]}, {"partial": false, "type": "update", "value": {"layer": 2, "position": 250.74999999999997, "image": "/home/milind/.openshot_qt/thumbnail/M6T9ROM582.png", "end": 5, "start": 0, "id": "E6X9EOGKYP"}, "old_values": {"perspective_c3_x": {"Points": [{"co": {"Y": -1, "X": 1}, "interpolation": 2}]}, "perspective_c4_x": {"Points": [{"co": {"Y": -1, "X": 1}, "interpolation": 2}]}, "channel_filter": {"Points": [{"co": {"Y": -1, "X": 1}, "interpolation": 2}]}, "image": "/home/milind/.openshot_qt/thumbnail/M6T9ROM582.png", "crop_height": {"Points": [{"co": {"Y": -1, "X": 1}, "interpolation": 2}]}, "duration": 86400.0, "perspective_c1_x": {"Points": [{"co": {"Y": -1, "X": 1}, "interpolation": 2}]}, "perspective_c2_x": {"Points": [{"co": {"Y": -1, "X": 1}, "interpolation": 2}]}, "alpha": {"Points": [{"co": {"Y": 1, "X": 1}, "interpolation": 2}]}, "id": "E6X9EOGKYP", "layer": 3, "display": 0, "scale": 1, "gravity": 4, "crop_width": {"Points": [{"co": {"Y": -1, "X": 1}, "interpolation": 2}]}, "crop_x": {"Points": [{"co": {"Y": 0, "X": 1}, "interpolation": 2}]}, "shear_x": {"Points": [{"co": {"Y": 0, "X": 1}, "interpolation": 2}]}, "volume": {"Points": [{"co": {"Y": 1, "X": 1}, "interpolation": 2}]}, "has_audio": {"Points": [{"co": {"Y": -1, "X": 1}, "interpolation": 2}]}, "rotation": {"Points": [{"co": {"Y": 0, "X": 1}, "interpolation": 2}]}, "crop_y": {"Points": [{"co": {"Y": 0, "X": 1}, "interpolation": 2}]}, "position": 166.94, "has_video": {"Points": [{"co": {"Y": -1, "X": 1}, "interpolation": 2}]}, "start": 0, "channel_mapping": {"Points": [{"co": {"Y": -1, "X": 1}, "interpolation": 2}]}, "end": 5.0, "waveform": false, "perspective_c3_y": {"Points": [{"co": {"Y": -1, "X": 1}, "interpolation": 2}]}, "scale_x": {"Points": [{"co": {"Y": 1, "X": 1}, "interpolation": 2}]}, "location_x": {"Points": [{"co": {"Y": 0, "X": 1}, "interpolation": 2}]}, "location_y": {"Points": [{"co": {"Y": 0, "X": 1}, "interpolation": 2}]}, "shear_y": {"Points": [{"co": {"Y": 0, "X": 1}, "interpolation": 2}]}, "perspective_c2_y": {"Points": [{"co": {"Y": -1, "X": 1}, "interpolation": 2}]}, "perspective_c1_y": {"Points": [{"co": {"Y": -1, "X": 1}, "interpolation": 2}]}, "title": "!145-4 If's - 4 Braces.svg", "perspective_c4_y": {"Points": [{"co": {"Y": -1, "X": 1}, "interpolation": 2}]}, "anchor": 0, "wave_color": {"blue": {"Points": [{"handle_right": {"Y": 0, "X": 0.5}, "handle_type": 0, "handle_left": {"Y": 1, "X": 0.5}, "co": {"Y": 255, "X": 1}, "interpolation": 0}]}, "green": {"Points": [{"handle_right": {"Y": 0, "X": 0.5}, "handle_type": 0, "handle_left": {"Y": 1, "X": 0.5}, "co": {"Y": 123, "X": 1}, "interpolation": 0}]}, "red": {"Points": [{"handle_right": {"Y": 0, "X": 0.5}, "handle_type": 0, "handle_left": {"Y": 1, "X": 0.5}, "co": {"Y": 0, "X": 1}, "interpolation": 0}]}, "alpha": {"Points": [{"handle_right": {"Y": 0, "X": 0.5}, "handle_type": 0, "handle_left": {"Y": 1, "X": 0.5}, "co": {"Y": 255, "X": 1}, "interpolation": 0}]}}, "time": {"Points": [{"co": {"Y": 1, "X": 1}, "interpolation": 2}]}, "effects": [], "file_id": "M6T9ROM582", "scale_y": {"Points": [{"co": {"Y": 1, "X": 1}, "interpolation": 2}]}, "reader": {"video_stream_index": -1, "top_field_first": true, "interlaced_frame": false, "audio_bit_rate": 0, "audio_timebase": {"den": 1, "num": 1}, "duration": 86400.0, "channels": 0, "has_video": true, "channel_layout": 4, "has_audio": false, "video_timebase": {"den": 30, "num": 1}, "has_single_image": true, "acodec": "", "video_bit_rate": 0, "display_ratio": {"den": 3827, "num": 6803}, "audio_stream_index": -1, "type": "QtImageReader", "video_length": "2592000", "width": 6803, "pixel_ratio": {"den": 1, "num": 1}, "height": 3827, "vcodec": "", "file_size": "104140324", "path": "/home/milind/Data/Projects/ProgressCard/!145-4 If's - 4 Braces.svg", "fps": {"den": 1, "num": 30}, "pixel_format": -1, "sample_rate": 0}}, "key": ["clips", {"id": "E6X9EOGKYP"}]}, {"partial": false, "type": "update", "value": {"layer": 2, "position": 187.62421874999998, "image": "/home/milind/.openshot_qt/thumbnail/U4HEYX76VH.png", "end": 5, "start": 0, "id": "DVT7KHN9HZ"}, "old_values": {"perspective_c3_y": {"Points": [{"co": {"Y": -1, "X": 1}, "interpolation": 2}]}, "shear_x": {"Points": [{"co": {"Y": 0, "X": 1}, "interpolation": 2}]}, "channel_filter": {"Points": [{"co": {"Y": -1, "X": 1}, "interpolation": 2}]}, "duration": 86400.0, "perspective_c1_x": {"Points": [{"co": {"Y": -1, "X": 1}, "interpolation": 2}]}, "perspective_c2_x": {"Points": [{"co": {"Y": -1, "X": 1}, "interpolation": 2}]}, "alpha": {"Points": [{"co": {"Y": 1, "X": 1}, "interpolation": 2}]}, "id": "DVT7KHN9HZ", "layer": 2, "file_id": "U4HEYX76VH", "display": 0, "scale": 1, "gravity": 4, "crop_width": {"Points": [{"co": {"Y": -1, "X": 1}, "interpolation": 2}]}, "crop_x": {"Points": [{"co": {"Y": 0, "X": 1}, "interpolation": 2}]}, "perspective_c4_x": {"Points": [{"co": {"Y": -1, "X": 1}, "interpolation": 2}]}, "volume": {"Points": [{"co": {"Y": 1, "X": 1}, "interpolation": 2}]}, "start": 0, "rotation": {"Points": [{"co": {"Y": 0, "X": 1}, "interpolation": 2}]}, "crop_y": {"Points": [{"co": {"Y": 0, "X": 1}, "interpolation": 2}]}, "position": 196.41666666666666, "has_video": {"Points": [{"co": {"Y": -1, "X": 1}, "interpolation": 2}]}, "has_audio": {"Points": [{"co": {"Y": -1, "X": 1}, "interpolation": 2}]}, "channel_mapping": {"Points": [{"co": {"Y": -1, "X": 1}, "interpolation": 2}]}, "end": 5, "shear_y": {"Points": [{"co": {"Y": 0, "X": 1}, "interpolation": 2}]}, "perspective_c3_x": {"Points": [{"co": {"Y": -1, "X": 1}, "interpolation": 2}]}, "scale_x": {"Points": [{"co": {"Y": 1, "X": 1}, "interpolation": 2}]}, "location_x": {"Points": [{"co": {"Y": 0, "X": 1}, "interpolation": 2}]}, "location_y": {"Points": [{"co": {"Y": 0, "X": 1}, "interpolation": 2}]}, "image": "/home/milind/.openshot_qt/thumbnail/U4HEYX76VH.png", "perspective_c2_y": {"Points": [{"co": {"Y": -1, "X": 1}, "interpolation": 2}]}, "waveform": false, "perspective_c1_y": {"Points": [{"co": {"Y": -1, "X": 1}, "interpolation": 2}]}, "title": "!145-PROMOTED.svg", "perspective_c4_y": {"Points": [{"co": {"Y": -1, "X": 1}, "interpolation": 2}]}, "anchor": 0, "wave_color": {"blue": {"Points": [{"handle_right": {"Y": 0, "X": 0.5}, "handle_type": 0, "handle_left": {"Y": 1, "X": 0.5}, "co": {"Y": 255, "X": 1}, "interpolation": 0}]}, "green": {"Points": [{"handle_right": {"Y": 0, "X": 0.5}, "handle_type": 0, "handle_left": {"Y": 1, "X": 0.5}, "co": {"Y": 123, "X": 1}, "interpolation": 0}]}, "red": {"Points": [{"handle_right": {"Y": 0, "X": 0.5}, "handle_type": 0, "handle_left": {"Y": 1, "X": 0.5}, "co": {"Y": 0, "X": 1}, "interpolation": 0}]}, "alpha": {"Points": [{"handle_right": {"Y": 0, "X": 0.5}, "handle_type": 0, "handle_left": {"Y": 1, "X": 0.5}, "co": {"Y": 255, "X": 1}, "interpolation": 0}]}}, "time": {"Points": [{"co": {"Y": 1, "X": 1}, "interpolation": 2}]}, "effects": [], "crop_height": {"Points": [{"co": {"Y": -1, "X": 1}, "interpolation": 2}]}, "scale_y": {"Points": [{"co": {"Y": 1, "X": 1}, "interpolation": 2}]}, "reader": {"video_stream_index": -1, "top_field_first": true, "interlaced_frame": false, "audio_bit_rate": 0, "audio_timebase": {"den": 1, "num": 1}, "duration": 86400.0, "channels": 0, "has_video": true, "channel_layout": 4, "has_audio": false, "video_timebase": {"den": 30, "num": 1}, "has_single_image": true, "acodec": "", "video_bit_rate": 0, "display_ratio": {"den": 3827, "num": 6803}, "audio_stream_index": -1, "type": "QtImageReader", "video_length": "2592000", "width": 6803, "pixel_ratio": {"den": 1, "num": 1}, "height": 3827, "vcodec": "", "file_size": "104140324", "path": "/home/milind/Data/Projects/ProgressCard/!145-PROMOTED.svg", "fps": {"den": 1, "num": 30}, "pixel_format": -1, "sample_rate": 0}}, "key": ["clips", {"id": "DVT7KHN9HZ"}]}, {"partial": false, "type": "update", "value": {"layer": 2, "position": 198.58124999999998, "image": "/home/milind/.openshot_qt/thumbnail/QKE4L0GUDK.png", "end": 5, "start": 0, "id": "53HWYMUXFZ"}, "old_values": {"perspective_c3_y": {"Points": [{"co": {"Y": -1, "X": 1}, "interpolation": 2}]}, "shear_x": {"Points": [{"co": {"Y": 0, "X": 1}, "interpolation": 2}]}, "channel_filter": {"Points": [{"co": {"Y": -1, "X": 1}, "interpolation": 2}]}, "duration": 86400.0, "perspective_c1_x": {"Points": [{"co": {"Y": -1, "X": 1}, "interpolation": 2}]}, "perspective_c2_x": {"Points": [{"co": {"Y": -1, "X": 1}, "interpolation": 2}]}, "alpha": {"Points": [{"co": {"Y": 1, "X": 1}, "interpolation": 2}]}, "id": "53HWYMUXFZ", "layer": 2, "file_id": "QKE4L0GUDK", "display": 0, "scale": 1, "gravity": 4, "crop_width": {"Points": [{"co": {"Y": -1, "X": 1}, "interpolation": 2}]}, "crop_x": {"Points": [{"co": {"Y": 0, "X": 1}, "interpolation": 2}]}, "perspective_c4_x": {"Points": [{"co": {"Y": -1, "X": 1}, "interpolation": 2}]}, "volume": {"Points": [{"co": {"Y": 1, "X": 1}, "interpolation": 2}]}, "start": 0, "rotation": {"Points": [{"co": {"Y": 0, "X": 1}, "interpolation": 2}]}, "crop_y": {"Points": [{"co": {"Y": 0, "X": 1}, "interpolation": 2}]}, "position": 208.92999999999998, "has_video": {"Points": [{"co": {"Y": -1, "X": 1}, "interpolation": 2}]}, "has_audio": {"Points": [{"co": {"Y": -1, "X": 1}, "interpolation": 2}]}, "channel_mapping": {"Points": [{"co": {"Y": -1, "X": 1}, "interpolation": 2}]}, "end": 5, "shear_y": {"Points": [{"co": {"Y": 0, "X": 1}, "interpolation": 2}]}, "perspective_c3_x": {"Points": [{"co": {"Y": -1, "X": 1}, "interpolation": 2}]}, "scale_x": {"Points": [{"co": {"Y": 1, "X": 1}, "interpolation": 2}]}, "location_x": {"Points": [{"co": {"Y": 0, "X": 1}, "interpolation": 2}]}, "location_y": {"Points": [{"co": {"Y": 0, "X": 1}, "interpolation": 2}]}, "image": "/home/milind/.openshot_qt/thumbnail/QKE4L0GUDK.png", "perspective_c2_y": {"Points": [{"co": {"Y": -1, "X": 1}, "interpolation": 2}]}, "waveform": false, "perspective_c1_y": {"Points": [{"co": {"Y": -1, "X": 1}, "interpolation": 2}]}, "title": "!145-PASS CLASS.svg", "perspective_c4_y": {"Points": [{"co": {"Y": -1, "X": 1}, "interpolation": 2}]}, "anchor": 0, "wave_color": {"blue": {"Points": [{"handle_right": {"Y": 0, "X": 0.5}, "handle_type": 0, "handle_left": {"Y": 1, "X": 0.5}, "co": {"Y": 255, "X": 1}, "interpolation": 0}]}, "green": {"Points": [{"handle_right": {"Y": 0, "X": 0.5}, "handle_type": 0, "handle_left": {"Y": 1, "X": 0.5}, "co": {"Y": 123, "X": 1}, "interpolation": 0}]}, "red": {"Points": [{"handle_right": {"Y": 0, "X": 0.5}, "handle_type": 0, "handle_left": {"Y": 1, "X": 0.5}, "co": {"Y": 0, "X": 1}, "interpolation": 0}]}, "alpha": {"Points": [{"handle_right": {"Y": 0, "X": 0.5}, "handle_type": 0, "handle_left": {"Y": 1, "X": 0.5}, "co": {"Y": 255, "X": 1}, "interpolation": 0}]}}, "time": {"Points": [{"co": {"Y": 1, "X": 1}, "interpolation": 2}]}, "effects": [], "crop_height": {"Points": [{"co": {"Y": -1, "X": 1}, "interpolation": 2}]}, "scale_y": {"Points": [{"co": {"Y": 1, "X": 1}, "interpolation": 2}]}, "reader": {"video_stream_index": -1, "top_field_first": true, "interlaced_frame": false, "audio_bit_rate": 0, "audio_timebase": {"den": 1, "num": 1}, "duration": 86400.0, "channels": 0, "has_video": true, "channel_layout": 4, "has_audio": false, "video_timebase": {"den": 30, "num": 1}, "has_single_image": true, "acodec": "", "video_bit_rate": 0, "display_ratio": {"den": 3827, "num": 6803}, "audio_stream_index": -1, "type": "QtImageReader", "video_length": "2592000", "width": 6803, "pixel_ratio": {"den": 1, "num": 1}, "height": 3827, "vcodec": "", "file_size": "104140324", "path": "/home/milind/Data/Projects/ProgressCard/!145-PASS CLASS.svg", "fps": {"den": 1, "num": 30}, "pixel_format": -1, "sample_rate": 0}}, "key": ["clips", {"id": "53HWYMUXFZ"}]}, {"partial": false, "type": "update", "value": {"layer": 2, "position": 209.77999999999997, "image": "/home/milind/.openshot_qt/thumbnail/B8NAT6SOHT.png", "end": 5, "start": 0, "id": "O4H51B63WF"}, "old_values": {"perspective_c3_y": {"Points": [{"co": {"Y": -1, "X": 1}, "interpolation": 2}]}, "shear_x": {"Points": [{"co": {"Y": 0, "X": 1}, "interpolation": 2}]}, "channel_filter": {"Points": [{"co": {"Y": -1, "X": 1}, "interpolation": 2}]}, "duration": 86400.0, "perspective_c1_x": {"Points": [{"co": {"Y": -1, "X": 1}, "interpolation": 2}]}, "perspective_c2_x": {"Points": [{"co": {"Y": -1, "X": 1}, "interpolation": 2}]}, "alpha": {"Points": [{"co": {"Y": 1, "X": 1}, "interpolation": 2}]}, "id": "O4H51B63WF", "layer": 2, "file_id": "B8NAT6SOHT", "display": 0, "scale": 1, "gravity": 4, "crop_width": {"Points": [{"co": {"Y": -1, "X": 1}, "interpolation": 2}]}, "crop_x": {"Points": [{"co": {"Y": 0, "X": 1}, "interpolation": 2}]}, "perspective_c4_x": {"Points": [{"co": {"Y": -1, "X": 1}, "interpolation": 2}]}, "volume": {"Points": [{"co": {"Y": 1, "X": 1}, "interpolation": 2}]}, "start": 0, "rotation": {"Points": [{"co": {"Y": 0, "X": 1}, "interpolation": 2}]}, "crop_y": {"Points": [{"co": {"Y": 0, "X": 1}, "interpolation": 2}]}, "position": 219.64, "has_video": {"Points": [{"co": {"Y": -1, "X": 1}, "interpolation": 2}]}, "has_audio": {"Points": [{"co": {"Y": -1, "X": 1}, "interpolation": 2}]}, "channel_mapping": {"Points": [{"co": {"Y": -1, "X": 1}, "interpolation": 2}]}, "end": 5, "shear_y": {"Points": [{"co": {"Y": 0, "X": 1}, "interpolation": 2}]}, "perspective_c3_x": {"Points": [{"co": {"Y": -1, "X": 1}, "interpolation": 2}]}, "scale_x": {"Points": [{"co": {"Y": 1, "X": 1}, "interpolation": 2}]}, "location_x": {"Points": [{"co": {"Y": 0, "X": 1}, "interpolation": 2}]}, "location_y": {"Points": [{"co": {"Y": 0, "X": 1}, "interpolation": 2}]}, "image": "/home/milind/.openshot_qt/thumbnail/B8NAT6SOHT.png", "perspective_c2_y": {"Points": [{"co": {"Y": -1, "X": 1}, "interpolation": 2}]}, "waveform": false, "perspective_c1_y": {"Points": [{"co": {"Y": -1, "X": 1}, "interpolation": 2}]}, "title": "!145-SECOND CLASS.svg", "perspective_c4_y": {"Points": [{"co": {"Y": -1, "X": 1}, "interpolation": 2}]}, "anchor": 0, "wave_color": {"blue": {"Points": [{"handle_right": {"Y": 0, "X": 0.5}, "handle_type": 0, "handle_left": {"Y": 1, "X": 0.5}, "co": {"Y": 255, "X": 1}, "interpolation": 0}]}, "green": {"Points": [{"handle_right": {"Y": 0, "X": 0.5}, "handle_type": 0, "handle_left": {"Y": 1, "X": 0.5}, "co": {"Y": 123, "X": 1}, "interpolation": 0}]}, "red": {"Points": [{"handle_right": {"Y": 0, "X": 0.5}, "handle_type": 0, "handle_left": {"Y": 1, "X": 0.5}, "co": {"Y": 0, "X": 1}, "interpolation": 0}]}, "alpha": {"Points": [{"handle_right": {"Y": 0, "X": 0.5}, "handle_type": 0, "handle_left": {"Y": 1, "X": 0.5}, "co": {"Y": 255, "X": 1}, "interpolation": 0}]}}, "time": {"Points": [{"co": {"Y": 1, "X": 1}, "interpolation": 2}]}, "effects": [], "crop_height": {"Points": [{"co": {"Y": -1, "X": 1}, "interpolation": 2}]}, "scale_y": {"Points": [{"co": {"Y": 1, "X": 1}, "interpolation": 2}]}, "reader": {"video_stream_index": -1, "top_field_first": true, "interlaced_frame": false, "audio_bit_rate": 0, "audio_timebase": {"den": 1, "num": 1}, "duration": 86400.0, "channels": 0, "has_video": true, "channel_layout": 4, "has_audio": false, "video_timebase": {"den": 30, "num": 1}, "has_single_image": true, "acodec": "", "video_bit_rate": 0, "display_ratio": {"den": 3827, "num": 6803}, "audio_stream_index": -1, "type": "QtImageReader", "video_length": "2592000", "width": 6803, "pixel_ratio": {"den": 1, "num": 1}, "height": 3827, "vcodec": "", "file_size": "104140324", "path": "/home/milind/Data/Projects/ProgressCard/!145-SECOND CLASS.svg", "fps": {"den": 1, "num": 30}, "pixel_format": -1, "sample_rate": 0}}, "key": ["clips", {"id": "O4H51B63WF"}]}, {"partial": false, "type": "update", "value": {"layer": 2, "position": 219.46999999999997, "image": "/home/milind/.openshot_qt/thumbnail/QURFA8ZYYH.png", "end": 5, "start": 0, "id": "XGW80R7KP4"}, "old_values": {"perspective_c3_y": {"Points": [{"co": {"Y": -1, "X": 1}, "interpolation": 2}]}, "shear_x": {"Points": [{"co": {"Y": 0, "X": 1}, "interpolation": 2}]}, "channel_filter": {"Points": [{"co": {"Y": -1, "X": 1}, "interpolation": 2}]}, "duration": 86400.0, "perspective_c1_x": {"Points": [{"co": {"Y": -1, "X": 1}, "interpolation": 2}]}, "perspective_c2_x": {"Points": [{"co": {"Y": -1, "X": 1}, "interpolation": 2}]}, "alpha": {"Points": [{"co": {"Y": 1, "X": 1}, "interpolation": 2}]}, "id": "XGW80R7KP4", "layer": 2, "file_id": "QURFA8ZYYH", "display": 0, "scale": 1, "gravity": 4, "crop_width": {"Points": [{"co": {"Y": -1, "X": 1}, "interpolation": 2}]}, "crop_x": {"Points": [{"co": {"Y": 0, "X": 1}, "interpolation": 2}]}, "perspective_c4_x": {"Points": [{"co": {"Y": -1, "X": 1}, "interpolation": 2}]}, "volume": {"Points": [{"co": {"Y": 1, "X": 1}, "interpolation": 2}]}, "start": 0, "rotation": {"Points": [{"co": {"Y": 0, "X": 1}, "interpolation": 2}]}, "crop_y": {"Points": [{"co": {"Y": 0, "X": 1}, "interpolation": 2}]}, "position": 232.04999999999998, "has_video": {"Points": [{"co": {"Y": -1, "X": 1}, "interpolation": 2}]}, "has_audio": {"Points": [{"co": {"Y": -1, "X": 1}, "interpolation": 2}]}, "channel_mapping": {"Points": [{"co": {"Y": -1, "X": 1}, "interpolation": 2}]}, "end": 5, "shear_y": {"Points": [{"co": {"Y": 0, "X": 1}, "interpolation": 2}]}, "perspective_c3_x": {"Points": [{"co": {"Y": -1, "X": 1}, "interpolation": 2}]}, "scale_x": {"Points": [{"co": {"Y": 1, "X": 1}, "interpolation": 2}]}, "location_x": {"Points": [{"co": {"Y": 0, "X": 1}, "interpolation": 2}]}, "location_y": {"Points": [{"co": {"Y": 0, "X": 1}, "interpolation": 2}]}, "image": "/home/milind/.openshot_qt/thumbnail/QURFA8ZYYH.png", "perspective_c2_y": {"Points": [{"co": {"Y": -1, "X": 1}, "interpolation": 2}]}, "waveform": false, "perspective_c1_y": {"Points": [{"co": {"Y": -1, "X": 1}, "interpolation": 2}]}, "title": "!145-FIRST CLASS.svg", "perspective_c4_y": {"Points": [{"co": {"Y": -1, "X": 1}, "interpolation": 2}]}, "anchor": 0, "wave_color": {"blue": {"Points": [{"handle_right": {"Y": 0, "X": 0.5}, "handle_type": 0, "handle_left": {"Y": 1, "X": 0.5}, "co": {"Y": 255, "X": 1}, "interpolation": 0}]}, "green": {"Points": [{"handle_right": {"Y": 0, "X": 0.5}, "handle_type": 0, "handle_left": {"Y": 1, "X": 0.5}, "co": {"Y": 123, "X": 1}, "interpolation": 0}]}, "red": {"Points": [{"handle_right": {"Y": 0, "X": 0.5}, "handle_type": 0, "handle_left": {"Y": 1, "X": 0.5}, "co": {"Y": 0, "X": 1}, "interpolation": 0}]}, "alpha": {"Points": [{"handle_right": {"Y": 0, "X": 0.5}, "handle_type": 0, "handle_left": {"Y": 1, "X": 0.5}, "co": {"Y": 255, "X": 1}, "interpolation": 0}]}}, "time": {"Points": [{"co": {"Y": 1, "X": 1}, "interpolation": 2}]}, "effects": [], "crop_height": {"Points": [{"co": {"Y": -1, "X": 1}, "interpolation": 2}]}, "scale_y": {"Points": [{"co": {"Y": 1, "X": 1}, "interpolation": 2}]}, "reader": {"video_stream_index": -1, "top_field_first": true, "interlaced_frame": false, "audio_bit_rate": 0, "audio_timebase": {"den": 1, "num": 1}, "duration": 86400.0, "channels": 0, "has_video": true, "channel_layout": 4, "has_audio": false, "video_timebase": {"den": 30, "num": 1}, "has_single_image": true, "acodec": "", "video_bit_rate": 0, "display_ratio": {"den": 3827, "num": 6803}, "audio_stream_index": -1, "type": "QtImageReader", "video_length": "2592000", "width": 6803, "pixel_ratio": {"den": 1, "num": 1}, "height": 3827, "vcodec": "", "file_size": "104140324", "path": "/home/milind/Data/Projects/ProgressCard/!145-FIRST CLASS.svg", "fps": {"den": 1, "num": 30}, "pixel_format": -1, "sample_rate": 0}}, "key": ["clips", {"id": "XGW80R7KP4"}]}, {"partial": false, "type": "update", "value": {"layer": 2, "position": 228.30999999999997, "image": "/home/milind/.openshot_qt/thumbnail/BWOLHCX3NY.png", "end": 5, "start": 0, "id": "679CKERX79"}, "old_values": {"perspective_c3_y": {"Points": [{"co": {"Y": -1, "X": 1}, "interpolation": 2}]}, "shear_x": {"Points": [{"co": {"Y": 0, "X": 1}, "interpolation": 2}]}, "channel_filter": {"Points": [{"co": {"Y": -1, "X": 1}, "interpolation": 2}]}, "duration": 86400.0, "perspective_c1_x": {"Points": [{"co": {"Y": -1, "X": 1}, "interpolation": 2}]}, "perspective_c2_x": {"Points": [{"co": {"Y": -1, "X": 1}, "interpolation": 2}]}, "alpha": {"Points": [{"co": {"Y": 1, "X": 1}, "interpolation": 2}]}, "id": "679CKERX79", "layer": 2, "file_id": "BWOLHCX3NY", "display": 0, "scale": 1, "gravity": 4, "crop_width": {"Points": [{"co": {"Y": -1, "X": 1}, "interpolation": 2}]}, "crop_x": {"Points": [{"co": {"Y": 0, "X": 1}, "interpolation": 2}]}, "perspective_c4_x": {"Points": [{"co": {"Y": -1, "X": 1}, "interpolation": 2}]}, "volume": {"Points": [{"co": {"Y": 1, "X": 1}, "interpolation": 2}]}, "start": 0, "rotation": {"Points": [{"co": {"Y": 0, "X": 1}, "interpolation": 2}]}, "crop_y": {"Points": [{"co": {"Y": 0, "X": 1}, "interpolation": 2}]}, "position": 241.91, "has_video": {"Points": [{"co": {"Y": -1, "X": 1}, "interpolation": 2}]}, "has_audio": {"Points": [{"co": {"Y": -1, "X": 1}, "interpolation": 2}]}, "channel_mapping": {"Points": [{"co": {"Y": -1, "X": 1}, "interpolation": 2}]}, "end": 5, "shear_y": {"Points": [{"co": {"Y": 0, "X": 1}, "interpolation": 2}]}, "perspective_c3_x": {"Points": [{"co": {"Y": -1, "X": 1}, "interpolation": 2}]}, "scale_x": {"Points": [{"co": {"Y": 1, "X": 1}, "interpolation": 2}]}, "location_x": {"Points": [{"co": {"Y": 0, "X": 1}, "interpolation": 2}]}, "location_y": {"Points": [{"co": {"Y": 0, "X": 1}, "interpolation": 2}]}, "image": "/home/milind/.openshot_qt/thumbnail/BWOLHCX3NY.png", "perspective_c2_y": {"Points": [{"co": {"Y": -1, "X": 1}, "interpolation": 2}]}, "waveform": false, "perspective_c1_y": {"Points": [{"co": {"Y": -1, "X": 1}, "interpolation": 2}]}, "title": "!145-DISTINCTION.svg", "perspective_c4_y": {"Points": [{"co": {"Y": -1, "X": 1}, "interpolation": 2}]}, "anchor": 0, "wave_color": {"blue": {"Points": [{"handle_right": {"Y": 0, "X": 0.5}, "handle_type": 0, "handle_left": {"Y": 1, "X": 0.5}, "co": {"Y": 255, "X": 1}, "interpolation": 0}]}, "green": {"Points": [{"handle_right": {"Y": 0, "X": 0.5}, "handle_type": 0, "handle_left": {"Y": 1, "X": 0.5}, "co": {"Y": 123, "X": 1}, "interpolation": 0}]}, "red": {"Points": [{"handle_right": {"Y": 0, "X": 0.5}, "handle_type": 0, "handle_left": {"Y": 1, "X": 0.5}, "co": {"Y": 0, "X": 1}, "interpolation": 0}]}, "alpha": {"Points": [{"handle_right": {"Y": 0, "X": 0.5}, "handle_type": 0, "handle_left": {"Y": 1, "X": 0.5}, "co": {"Y": 255, "X": 1}, "interpolation": 0}]}}, "time": {"Points": [{"co": {"Y": 1, "X": 1}, "interpolation": 2}]}, "effects": [], "crop_height": {"Points": [{"co": {"Y": -1, "X": 1}, "interpolation": 2}]}, "scale_y": {"Points": [{"co": {"Y": 1, "X": 1}, "interpolation": 2}]}, "reader": {"video_stream_index": -1, "top_field_first": true, "interlaced_frame": false, "audio_bit_rate": 0, "audio_timebase": {"den": 1, "num": 1}, "duration": 86400.0, "channels": 0, "has_video": true, "channel_layout": 4, "has_audio": false, "video_timebase": {"den": 30, "num": 1}, "has_single_image": true, "acodec": "", "video_bit_rate": 0, "display_ratio": {"den": 3827, "num": 6803}, "audio_stream_index": -1, "type": "QtImageReader", "video_length": "2592000", "width": 6803, "pixel_ratio": {"den": 1, "num": 1}, "height": 3827, "vcodec": "", "file_size": "104140324", "path": "/home/milind/Data/Projects/ProgressCard/!145-DISTINCTION.svg", "fps": {"den": 1, "num": 30}, "pixel_format": -1, "sample_rate": 0}}, "key": ["clips", {"id": "679CKERX79"}]}, {"partial": false, "type": "update", "value": {"layer": 2, "position": 236.64, "image": "/home/milind/.openshot_qt/thumbnail/M6T9ROM582.png", "end": 5, "start": 0, "id": "E6X9EOGKYP"}, "old_values": {"perspective_c3_y": {"Points": [{"co": {"Y": -1, "X": 1}, "interpolation": 2}]}, "shear_x": {"Points": [{"co": {"Y": 0, "X": 1}, "interpolation": 2}]}, "channel_filter": {"Points": [{"co": {"Y": -1, "X": 1}, "interpolation": 2}]}, "duration": 86400.0, "perspective_c1_x": {"Points": [{"co": {"Y": -1, "X": 1}, "interpolation": 2}]}, "perspective_c2_x": {"Points": [{"co": {"Y": -1, "X": 1}, "interpolation": 2}]}, "alpha": {"Points": [{"co": {"Y": 1, "X": 1}, "interpolation": 2}]}, "id": "E6X9EOGKYP", "layer": 2, "file_id": "M6T9ROM582", "display": 0, "scale": 1, "gravity": 4, "crop_width": {"Points": [{"co": {"Y": -1, "X": 1}, "interpolation": 2}]}, "crop_x": {"Points": [{"co": {"Y": 0, "X": 1}, "interpolation": 2}]}, "perspective_c4_x": {"Points": [{"co": {"Y": -1, "X": 1}, "interpolation": 2}]}, "volume": {"Points": [{"co": {"Y": 1, "X": 1}, "interpolation": 2}]}, "start": 0, "rotation": {"Points": [{"co": {"Y": 0, "X": 1}, "interpolation": 2}]}, "crop_y": {"Points": [{"co": {"Y": 0, "X": 1}, "interpolation": 2}]}, "position": 250.74999999999997, "has_video": {"Points": [{"co": {"Y": -1, "X": 1}, "interpolation": 2}]}, "has_audio": {"Points": [{"co": {"Y": -1, "X": 1}, "interpolation": 2}]}, "channel_mapping": {"Points": [{"co": {"Y": -1, "X": 1}, "interpolation": 2}]}, "end": 5, "shear_y": {"Points": [{"co": {"Y": 0, "X": 1}, "interpolation": 2}]}, "perspective_c3_x": {"Points": [{"co": {"Y": -1, "X": 1}, "interpolation": 2}]}, "scale_x": {"Points": [{"co": {"Y": 1, "X": 1}, "interpolation": 2}]}, "location_x": {"Points": [{"co": {"Y": 0, "X": 1}, "interpolation": 2}]}, "location_y": {"Points": [{"co": {"Y": 0, "X": 1}, "interpolation": 2}]}, "image": "/home/milind/.openshot_qt/thumbnail/M6T9ROM582.png", "perspective_c2_y": {"Points": [{"co": {"Y": -1, "X": 1}, "interpolation": 2}]}, "waveform": false, "perspective_c1_y": {"Points": [{"co": {"Y": -1, "X": 1}, "interpolation": 2}]}, "title": "!145-4 If's - 4 Braces.svg", "perspective_c4_y": {"Points": [{"co": {"Y": -1, "X": 1}, "interpolation": 2}]}, "anchor": 0, "wave_color": {"blue": {"Points": [{"handle_right": {"Y": 0, "X": 0.5}, "handle_type": 0, "handle_left": {"Y": 1, "X": 0.5}, "co": {"Y": 255, "X": 1}, "interpolation": 0}]}, "green": {"Points": [{"handle_right": {"Y": 0, "X": 0.5}, "handle_type": 0, "handle_left": {"Y": 1, "X": 0.5}, "co": {"Y": 123, "X": 1}, "interpolation": 0}]}, "red": {"Points": [{"handle_right": {"Y": 0, "X": 0.5}, "handle_type": 0, "handle_left": {"Y": 1, "X": 0.5}, "co": {"Y": 0, "X": 1}, "interpolation": 0}]}, "alpha": {"Points": [{"handle_right": {"Y": 0, "X": 0.5}, "handle_type": 0, "handle_left": {"Y": 1, "X": 0.5}, "co": {"Y": 255, "X": 1}, "interpolation": 0}]}}, "time": {"Points": [{"co": {"Y": 1, "X": 1}, "interpolation": 2}]}, "effects": [], "crop_height": {"Points": [{"co": {"Y": -1, "X": 1}, "interpolation": 2}]}, "scale_y": {"Points": [{"co": {"Y": 1, "X": 1}, "interpolation": 2}]}, "reader": {"video_stream_index": -1, "top_field_first": true, "interlaced_frame": false, "audio_bit_rate": 0, "audio_timebase": {"den": 1, "num": 1}, "duration": 86400.0, "channels": 0, "has_video": true, "channel_layout": 4, "has_audio": false, "video_timebase": {"den": 30, "num": 1}, "has_single_image": true, "acodec": "", "video_bit_rate": 0, "display_ratio": {"den": 3827, "num": 6803}, "audio_stream_index": -1, "type": "QtImageReader", "video_length": "2592000", "width": 6803, "pixel_ratio": {"den": 1, "num": 1}, "height": 3827, "vcodec": "", "file_size": "104140324", "path": "/home/milind/Data/Projects/ProgressCard/!145-4 If's - 4 Braces.svg", "fps": {"den": 1, "num": 30}, "pixel_format": -1, "sample_rate": 0}}, "key": ["clips", {"id": "E6X9EOGKYP"}]}]}, "channels": 2, "files": [{"height": 1080, "video_stream_index": -1, "video_length": "2592000", "interlaced_frame": false, "audio_bit_rate": 0, "audio_timebase": {"den": 1, "num": 1}, "vcodec": "", "channels": 0, "has_video": true, "id": "0F0RWXSQM9", "channel_layout": 4, "has_audio": false, "video_timebase": {"den": 30, "num": 1}, "has_single_image": true, "acodec": "", "width": 1920, "video_bit_rate": 0, "display_ratio": {"den": 9, "num": 16}, "audio_stream_index": -1, "type": "QtImageReader", "top_field_first": true, "media_type": "image", "pixel_ratio": {"den": 1, "num": 1}, "sample_rate": 0, "duration": 86400.0, "file_size": "8294400", "path": "!000-White-Background.svg", "fps": {"den": 1, "num": 30}, "pixel_format": -1}, {"height": 744, "video_stream_index": 0, "video_length": "3650", "interlaced_frame": false, "audio_bit_rate": 0, "audio_timebase": {"den": 1, "num": 1}, "vcodec": "h264", "channels": 0, "has_video": true, "id": "O1AEGRKDWZ", "channel_layout": 4, "has_audio": false, "video_timebase": {"den": 1000, "num": 1}, "has_single_image": false, "acodec": "", "width": 1300, "video_bit_rate": 0, "display_ratio": {"den": 186, "num": 325}, "audio_stream_index": -1, "type": "FFmpegReader", "top_field_first": true, "media_type": "video", "pixel_ratio": {"den": 1, "num": 1}, "sample_rate": 0, "duration": 146.0, "file_size": "1130835", "path": "!080-GT,GC,TC.mkv", "fps": {"den": 1, "num": 25}, "pixel_format": 0}, {"height": 744, "video_stream_index": 0, "video_length": "2575", "interlaced_frame": false, "audio_bit_rate": 0, "audio_timebase": {"den": 1, "num": 1}, "vcodec": "h264", "channels": 0, "has_video": true, "id": "XBE2IATTEN", "channel_layout": 4, "has_audio": false, "video_timebase": {"den": 1000, "num": 1}, "has_single_image": false, "acodec": "", "width": 1300, "video_bit_rate": 0, "display_ratio": {"den": 186, "num": 325}, "audio_stream_index": -1, "type": "FFmpegReader", "top_field_first": true, "media_type": "video", "pixel_ratio": {"den": 1, "num": 1}, "sample_rate": 0, "duration": 103.0, "file_size": "822519", "path": "!090-Remark - PASS or FAIL.mkv", "fps": {"den": 1, "num": 25}, "pixel_format": 0}, {"height": 744, "video_stream_index": 0, "video_length": "925", "interlaced_frame": false, "audio_bit_rate": 0, "audio_timebase": {"den": 1, "num": 1}, "vcodec": "h264", "channels": 0, "has_video": true, "id": "Z4YCYRY34O", "channel_layout": 4, "has_audio": false, "video_timebase": {"den": 1000, "num": 1}, "has_single_image": false, "acodec": "", "width": 1300, "video_bit_rate": 0, "display_ratio": {"den": 186, "num": 325}, "audio_stream_index": -1, "type": "FFmpegReader", "top_field_first": true, "media_type": "video", "pixel_ratio": {"den": 1, "num": 1}, "sample_rate": 0, "duration": 37.0, "file_size": "281401", "path": "!100-Average Marks.mkv", "fps": {"den": 1, "num": 25}, "pixel_format": 0}, {"height": 744, "video_stream_index": 0, "video_length": "500", "interlaced_frame": false, "audio_bit_rate": 0, "audio_timebase": {"den": 1, "num": 1}, "vcodec": "h264", "channels": 0, "has_video": true, "id": "A5ENU0DW4J", "channel_layout": 4, "has_audio": false, "video_timebase": {"den": 1000, "num": 1}, "has_single_image": false, "acodec": "", "width": 1300, "video_bit_rate": 0, "display_ratio": {"den": 186, "num": 325}, "audio_stream_index": -1, "type": "FFmpegReader", "top_field_first": true, "media_type": "video", "pixel_ratio": {"den": 1, "num": 1}, "sample_rate": 0, "duration": 20.0, "file_size": "204468", "path": "!110-Float Format Dialog.mkv", "fps": {"den": 1, "num": 25}, "pixel_format": 0}, {"height": 744, "video_stream_index": 0, "video_length": "375", "interlaced_frame": false, "audio_bit_rate": 0, "audio_timebase": {"den": 1, "num": 1}, "vcodec": "h264", "channels": 0, "has_video": true, "id": "UGJYEMW42F", "channel_layout": 4, "has_audio": false, "video_timebase": {"den": 1000, "num": 1}, "has_single_image": false, "acodec": "", "width": 1300, "video_bit_rate": 0, "display_ratio": {"den": 186, "num": 325}, "audio_stream_index": -1, "type": "FFmpegReader", "top_field_first": true, "media_type": "video", "pixel_ratio": {"den": 1, "num": 1}, "sample_rate": 0, "duration": 15.0, "file_size": "187523", "path": "!120-Two Decimal Format.mkv", "fps": {"den": 1, "num": 25}, "pixel_format": 0}, {"height": 744, "video_stream_index": 0, "video_length": "4525", "interlaced_frame": false, "audio_bit_rate": 0, "audio_timebase": {"den": 1, "num": 1}, "vcodec": "h264", "channels": 0, "has_video": true, "id": "616P05WPS9", "channel_layout": 4, "has_audio": false, "video_timebase": {"den": 1000, "num": 1}, "has_single_image": false, "acodec": "", "width": 1300, "video_bit_rate": 0, "display_ratio": {"den": 186, "num": 325}, "audio_stream_index": -1, "type": "FFmpegReader", "top_field_first": true, "media_type": "video", "pixel_ratio": {"den": 1, "num": 1}, "sample_rate": 0, "duration": 181.0, "file_size": "1502027", "path": "!140-Grade Formula.mkv", "fps": {"den": 1, "num": 25}, "pixel_format": 0}, {"height": 744, "video_stream_index": 0, "video_length": "725", "interlaced_frame": false, "audio_bit_rate": 0, "audio_timebase": {"den": 1, "num": 1}, "vcodec": "h264", "channels": 0, "has_video": true, "id": "2202V21TTZ", "channel_layout": 4, "has_audio": false, "video_timebase": {"den": 1000, "num": 1}, "has_single_image": false, "acodec": "", "width": 1300, "video_bit_rate": 0, "display_ratio": {"den": 186, "num": 325}, "audio_stream_index": -1, "type": "FFmpegReader", "top_field_first": true, "media_type": "video", "pixel_ratio": {"den": 1, "num": 1}, "sample_rate": 0, "duration": 29.0, "file_size": "293155", "path": "!130-Copy Average.mkv", "fps": {"den": 1, "num": 25}, "pixel_format": 0}, {"height": 744, "video_stream_index": 0, "video_length": "1575", "interlaced_frame": false, "audio_bit_rate": 0, "audio_timebase": {"den": 1, "num": 1}, "vcodec": "h264", "channels": 0, "has_video": true, "id": "MJ87OKNJXE", "channel_layout": 4, "has_audio": false, "video_timebase": {"den": 1000, "num": 1}, "has_single_image": false, "acodec": "", "width": 1300, "video_bit_rate": 62654, "display_ratio": {"den": 186, "num": 325}, "audio_stream_index": -1, "type": "FFmpegReader", "top_field_first": true, "media_type": "video", "pixel_ratio": {"den": 1, "num": 1}, "sample_rate": 0, "duration": 63, "file_size": "499047", "path": "!150-Inserted GRADE in REMARK.mkv", "fps": {"den": 1, "num": 25}, "pixel_format": 0}, {"height": 3827, "video_stream_index": -1, "video_length": "2592000", "interlaced_frame": false, "audio_bit_rate": 0, "audio_timebase": {"den": 1, "num": 1}, "vcodec": "", "channels": 0, "has_video": true, "id": "O28Z229VIU", "channel_layout": 4, "has_audio": false, "video_timebase": {"den": 30, "num": 1}, "has_single_image": true, "acodec": "", "width": 6803, "video_bit_rate": 0, "display_ratio": {"den": 3827, "num": 6803}, "audio_stream_index": -1, "type": "QtImageReader", "top_field_first": true, "media_type": "image", "pixel_ratio": {"den": 1, "num": 1}, "sample_rate": 0, "duration": 86400, "file_size": "104140324", "path": "!072-Grace Total.svg", "fps": {"den": 1, "num": 30}, "pixel_format": -1}, {"height": 3827, "video_stream_index": -1, "video_length": "2592000", "interlaced_frame": false, "audio_bit_rate": 0, "audio_timebase": {"den": 1, "num": 1}, "vcodec": "", "channels": 0, "has_video": true, "id": "BUXZX40N2J", "channel_layout": 4, "has_audio": false, "video_timebase": {"den": 30, "num": 1}, "has_single_image": true, "acodec": "", "width": 6803, "video_bit_rate": 0, "display_ratio": {"den": 3827, "num": 6803}, "audio_stream_index": -1, "type": "QtImageReader", "top_field_first": true, "media_type": "image", "pixel_ratio": {"den": 1, "num": 1}, "sample_rate": 0, "duration": 86400, "file_size": "104140324", "path": "!073-Graced Subject Count.svg", "fps": {"den": 1, "num": 30}, "pixel_format": -1}, {"height": 3827, "video_stream_index": -1, "video_length": "2592000", "interlaced_frame": false, "audio_bit_rate": 0, "audio_timebase": {"den": 1, "num": 1}, "vcodec": "", "channels": 0, "has_video": true, "id": "MZ4ILBST6I", "channel_layout": 4, "has_audio": false, "video_timebase": {"den": 30, "num": 1}, "has_single_image": true, "acodec": "", "width": 6803, "video_bit_rate": 0, "display_ratio": {"den": 3827, "num": 6803}, "audio_stream_index": -1, "type": "QtImageReader", "top_field_first": true, "media_type": "image", "pixel_ratio": {"den": 1, "num": 1}, "sample_rate": 0, "duration": 86400, "file_size": "104140324", "path": "!074-Grace Greater Than 10.svg", "fps": {"den": 1, "num": 30}, "pixel_format": -1}, {"height": 3827, "video_stream_index": -1, "video_length": "2592000", "interlaced_frame": false, "audio_bit_rate": 0, "audio_timebase": {"den": 1, "num": 1}, "vcodec": "", "channels": 0, "has_video": true, "id": "55LKUBO9MG", "channel_layout": 4, "has_audio": false, "video_timebase": {"den": 30, "num": 1}, "has_single_image": true, "acodec": "", "width": 6803, "video_bit_rate": 0, "display_ratio": {"den": 3827, "num": 6803}, "audio_stream_index": -1, "type": "QtImageReader", "top_field_first": true, "media_type": "image", "pixel_ratio": {"den": 1, "num": 1}, "sample_rate": 0, "duration": 86400, "file_size": "104140324", "path": "!001-Copy (Ctrl-C).svg", "fps": {"den": 1, "num": 30}, "pixel_format": -1}, {"height": 3827, "video_stream_index": -1, "video_length": "2592000", "interlaced_frame": false, "audio_bit_rate": 0, "audio_timebase": {"den": 1, "num": 1}, "vcodec": "", "channels": 0, "has_video": true, "id": "JP5L750RMR", "channel_layout": 4, "has_audio": false, "video_timebase": {"den": 30, "num": 1}, "has_single_image": true, "acodec": "", "width": 6803, "video_bit_rate": 0, "display_ratio": {"den": 3827, "num": 6803}, "audio_stream_index": -1, "type": "QtImageReader", "top_field_first": true, "media_type": "image", "pixel_ratio": {"den": 1, "num": 1}, "sample_rate": 0, "duration": 86400, "file_size": "104140324", "path": "!002-Paste (Ctrl-V).svg", "fps": {"den": 1, "num": 30}, "pixel_format": -1}, {"height": 3827, "video_stream_index": -1, "video_length": "2592000", "interlaced_frame": false, "audio_bit_rate": 0, "audio_timebase": {"den": 1, "num": 1}, "vcodec": "", "channels": 0, "has_video": true, "id": "9MDVH2JM9J", "channel_layout": 4, "has_audio": false, "video_timebase": {"den": 30, "num": 1}, "has_single_image": true, "acodec": "", "width": 6803, "video_bit_rate": 0, "display_ratio": {"den": 3827, "num": 6803}, "audio_stream_index": -1, "type": "QtImageReader", "top_field_first": true, "media_type": "image", "pixel_ratio": {"den": 1, "num": 1}, "sample_rate": 0, "duration": 86400, "file_size": "104140324", "path": "!085-Pass or Fail.svg", "fps": {"den": 1, "num": 30}, "pixel_format": -1}, {"height": 3827, "video_stream_index": -1, "video_length": "2592000", "interlaced_frame": false, "audio_bit_rate": 0, "audio_timebase": {"den": 1, "num": 1}, "vcodec": "", "channels": 0, "has_video": true, "id": "DIHETX3WQ7", "channel_layout": 4, "has_audio": false, "video_timebase": {"den": 30, "num": 1}, "has_single_image": true, "acodec": "", "width": 6803, "video_bit_rate": 0, "display_ratio": {"den": 3827, "num": 6803}, "audio_stream_index": -1, "type": "QtImageReader", "top_field_first": true, "media_type": "image", "pixel_ratio": {"den": 1, "num": 1}, "sample_rate": 0, "duration": 86400, "file_size": "104140324", "path": "!086-IF GT,GC,TC.svg", "fps": {"den": 1, "num": 30}, "pixel_format": -1}, {"height": 3827, "video_stream_index": -1, "video_length": "2592000", "interlaced_frame": false, "audio_bit_rate": 0, "audio_timebase": {"den": 1, "num": 1}, "vcodec": "", "channels": 0, "has_video": true, "id": "1QJRY2QLTK", "channel_layout": 4, "has_audio": false, "video_timebase": {"den": 30, "num": 1}, "has_single_image": true, "acodec": "", "width": 6803, "video_bit_rate": 0, "display_ratio": {"den": 3827, "num": 6803}, "audio_stream_index": -1, "type": "QtImageReader", "top_field_first": true, "media_type": "image", "pixel_ratio": {"den": 1, "num": 1}, "sample_rate": 0, "duration": 86400, "file_size": "104140324", "path": "!105-Average.svg", "fps": {"den": 1, "num": 30}, "pixel_format": -1}, {"height": 3827, "video_stream_index": -1, "video_length": "2592000", "interlaced_frame": false, "audio_bit_rate": 0, "audio_timebase": {"den": 1, "num": 1}, "vcodec": "", "channels": 0, "has_video": true, "id": "LKFVWV6XVE", "channel_layout": 4, "has_audio": false, "video_timebase": {"den": 30, "num": 1}, "has_single_image": true, "acodec": "", "width": 6803, "video_bit_rate": 0, "display_ratio": {"den": 3827, "num": 6803}, "audio_stream_index": -1, "type": "QtImageReader", "top_field_first": true, "media_type": "image", "pixel_ratio": {"den": 1, "num": 1}, "sample_rate": 0, "duration": 86400, "file_size": "104140324", "path": "!113-Menu-Format-Cells.svg", "fps": {"den": 1, "num": 30}, "pixel_format": -1}, {"height": 3827, "video_stream_index": -1, "video_length": "2592000", "interlaced_frame": false, "audio_bit_rate": 0, "audio_timebase": {"den": 1, "num": 1}, "vcodec": "", "channels": 0, "has_video": true, "id": "GS94V0HQUR", "channel_layout": 4, "has_audio": false, "video_timebase": {"den": 30, "num": 1}, "has_single_image": true, "acodec": "", "width": 6803, "video_bit_rate": 0, "display_ratio": {"den": 3827, "num": 6803}, "audio_stream_index": -1, "type": "QtImageReader", "top_field_first": true, "media_type": "image", "pixel_ratio": {"den": 1, "num": 1}, "sample_rate": 0, "duration": 86400, "file_size": "104140324", "path": "!114-We need only 2 decimal places.svg", "fps": {"den": 1, "num": 30}, "pixel_format": -1}, {"video_stream_index": -1, "top_field_first": true, "interlaced_frame": false, "audio_bit_rate": 0, "audio_timebase": {"den": 1, "num": 1}, "duration": 86400, "channels": 0, "has_video": true, "id": "BS7QREURZM", "channel_layout": 4, "has_audio": false, "video_timebase": {"den": 30, "num": 1}, "has_single_image": true, "acodec": "", "width": 6803, "video_bit_rate": 0, "display_ratio": {"den": 3827, "num": 6803}, "audio_stream_index": -1, "type": "QtImageReader", "video_length": "2592000", "height": 3827, "media_type": "image", "pixel_ratio": {"den": 1, "num": 1}, "sample_rate": 0, "vcodec": "", "file_size": "104140324", "path": "!086-Then Fail Else Pass.svg", "fps": {"den": 1, "num": 30}, "pixel_format": -1}, {"video_stream_index": -1, "top_field_first": true, "interlaced_frame": false, "audio_bit_rate": 0, "audio_timebase": {"den": 1, "num": 1}, "duration": 86400, "channels": 0, "has_video": true, "id": "AA811BEMSM", "channel_layout": 4, "has_audio": false, "video_timebase": {"den": 30, "num": 1}, "has_single_image": true, "acodec": "", "width": 6803, "video_bit_rate": 0, "display_ratio": {"den": 3827, "num": 6803}, "audio_stream_index": -1, "type": "QtImageReader", "video_length": "2592000", "height": 3827, "media_type": "image", "pixel_ratio": {"den": 1, "num": 1}, "sample_rate": 0, "vcodec": "", "file_size": "104140324", "path": "!135-Grade.svg", "fps": {"den": 1, "num": 30}, "pixel_format": -1}, {"video_stream_index": -1, "top_field_first": true, "interlaced_frame": false, "audio_bit_rate": 0, "audio_timebase": {"den": 1, "num": 1}, "duration": 86400, "channels": 0, "has_video": true, "id": "M6T9ROM582", "channel_layout": 4, "has_audio": false, "video_timebase": {"den": 30, "num": 1}, "has_single_image": true, "acodec": "", "width": 6803, "video_bit_rate": 0, "display_ratio": {"den": 3827, "num": 6803}, "audio_stream_index": -1, "type": "QtImageReader", "video_length": "2592000", "height": 3827, "media_type": "image", "pixel_ratio": {"den": 1, "num": 1}, "sample_rate": 0, "vcodec": "", "file_size": "104140324", "path": "!145-4 If's - 4 Braces.svg", "fps": {"den": 1, "num": 30}, "pixel_format": -1}, {"video_stream_index": -1, "top_field_first": true, "interlaced_frame": false, "audio_bit_rate": 0, "audio_timebase": {"den": 1, "num": 1}, "duration": 86400, "channels": 0, "has_video": true, "id": "BWOLHCX3NY", "channel_layout": 4, "has_audio": false, "video_timebase": {"den": 30, "num": 1}, "has_single_image": true, "acodec": "", "width": 6803, "video_bit_rate": 0, "display_ratio": {"den": 3827, "num": 6803}, "audio_stream_index": -1, "type": "QtImageReader", "video_length": "2592000", "height": 3827, "media_type": "image", "pixel_ratio": {"den": 1, "num": 1}, "sample_rate": 0, "vcodec": "", "file_size": "104140324", "path": "!145-DISTINCTION.svg", "fps": {"den": 1, "num": 30}, "pixel_format": -1}, {"video_stream_index": -1, "top_field_first": true, "interlaced_frame": false, "audio_bit_rate": 0, "audio_timebase": {"den": 1, "num": 1}, "duration": 86400, "channels": 0, "has_video": true, "id": "QURFA8ZYYH", "channel_layout": 4, "has_audio": false, "video_timebase": {"den": 30, "num": 1}, "has_single_image": true, "acodec": "", "width": 6803, "video_bit_rate": 0, "display_ratio": {"den": 3827, "num": 6803}, "audio_stream_index": -1, "type": "QtImageReader", "video_length": "2592000", "height": 3827, "media_type": "image", "pixel_ratio": {"den": 1, "num": 1}, "sample_rate": 0, "vcodec": "", "file_size": "104140324", "path": "!145-FIRST CLASS.svg", "fps": {"den": 1, "num": 30}, "pixel_format": -1}, {"video_stream_index": -1, "top_field_first": true, "interlaced_frame": false, "audio_bit_rate": 0, "audio_timebase": {"den": 1, "num": 1}, "duration": 86400, "channels": 0, "has_video": true, "id": "QKE4L0GUDK", "channel_layout": 4, "has_audio": false, "video_timebase": {"den": 30, "num": 1}, "has_single_image": true, "acodec": "", "width": 6803, "video_bit_rate": 0, "display_ratio": {"den": 3827, "num": 6803}, "audio_stream_index": -1, "type": "QtImageReader", "video_length": "2592000", "height": 3827, "media_type": "image", "pixel_ratio": {"den": 1, "num": 1}, "sample_rate": 0, "vcodec": "", "file_size": "104140324", "path": "!145-PASS CLASS.svg", "fps": {"den": 1, "num": 30}, "pixel_format": -1}, {"video_stream_index": -1, "top_field_first": true, "interlaced_frame": false, "audio_bit_rate": 0, "audio_timebase": {"den": 1, "num": 1}, "duration": 86400, "channels": 0, "has_video": true, "id": "U4HEYX76VH", "channel_layout": 4, "has_audio": false, "video_timebase": {"den": 30, "num": 1}, "has_single_image": true, "acodec": "", "width": 6803, "video_bit_rate": 0, "display_ratio": {"den": 3827, "num": 6803}, "audio_stream_index": -1, "type": "QtImageReader", "video_length": "2592000", "height": 3827, "media_type": "image", "pixel_ratio": {"den": 1, "num": 1}, "sample_rate": 0, "vcodec": "", "file_size": "104140324", "path": "!145-PROMOTED.svg", "fps": {"den": 1, "num": 30}, "pixel_format": -1}, {"video_stream_index": -1, "top_field_first": true, "interlaced_frame": false, "audio_bit_rate": 0, "audio_timebase": {"den": 1, "num": 1}, "duration": 86400, "channels": 0, "has_video": true, "id": "B8NAT6SOHT", "channel_layout": 4, "has_audio": false, "video_timebase": {"den": 30, "num": 1}, "has_single_image": true, "acodec": "", "width": 6803, "video_bit_rate": 0, "display_ratio": {"den": 3827, "num": 6803}, "audio_stream_index": -1, "type": "QtImageReader", "video_length": "2592000", "height": 3827, "media_type": "image", "pixel_ratio": {"den": 1, "num": 1}, "sample_rate": 0, "vcodec": "", "file_size": "104140324", "path": "!145-SECOND CLASS.svg", "fps": {"den": 1, "num": 30}, "pixel_format": -1}], "profile": "HDV 720 24p", "channel_layout": 3, "scale": 17, "id": "T0", "export_path": "/home/milind/Videos", "layers": [{"label": "", "lock": false, "number": 0, "y": 0, "id": "L0"}, {"label": "", "lock": false, "number": 1, "y": 0, "id": "L1"}, {"label": "", "lock": false, "number": 2, "y": 0, "id": "L2"}, {"label": "", "lock": false, "number": 3, "y": 0, "id": "L3"}, {"label": "", "lock": false, "number": 4, "y": 0, "id": "L4"}], "tick_pixels": 100, "clips": [{"perspective_c3_x": {"Points": [{"co": {"Y": -1.0, "X": 1.0}, "interpolation": 2}]}, "perspective_c4_x": {"Points": [{"co": {"Y": -1.0, "X": 1.0}, "interpolation": 2}]}, "channel_filter": {"Points": [{"co": {"Y": -1.0, "X": 1.0}, "interpolation": 2}]}, "image": "../../../.openshot_qt/thumbnail/0F0RWXSQM9.png", "anchor": 0, "perspective_c1_x": {"Points": [{"co": {"Y": -1.0, "X": 1.0}, "interpolation": 2}]}, "perspective_c2_x": {"Points": [{"co": {"Y": -1.0, "X": 1.0}, "interpolation": 2}]}, "alpha": {"Points": [{"co": {"Y": 1.0, "X": 1.0}, "interpolation": 2}, {"handle_right": {"Y": 0.0, "X": 0.5}, "handle_type": 0, "handle_left": {"Y": 1.0, "X": 0.5}, "co": {"Y": 0.0, "X": 1.0}, "interpolation": 0}, {"handle_right": {"Y": 0.0, "X": 0.5}, "handle_type": 0, "handle_left": {"Y": 1.0, "X": 0.5}, "co": {"Y": 1.0, "X": 73.0}, "interpolation": 0}]}, "id": "IUE2QUN59C", "layer": 0, "file_id": "0F0RWXSQM9", "display": 0, "scale": 1, "gravity": 4, "crop_width": {"Points": [{"co": {"Y": -1.0, "X": 1.0}, "interpolation": 2}]}, "crop_x": {"Points": [{"co": {"Y": 0.0, "X": 1.0}, "interpolation": 2}]}, "shear_x": {"Points": [{"co": {"Y": 0.0, "X": 1.0}, "interpolation": 2}]}, "volume": {"Points": [{"co": {"Y": 1.0, "X": 1.0}, "interpolation": 2}]}, "start": 0, "rotation": {"Points": [{"co": {"Y": 0.0, "X": 1.0}, "interpolation": 2}]}, "reader": {"video_stream_index": -1, "video_length": "2592000", "interlaced_frame": false, "audio_bit_rate": 0, "audio_timebase": {"den": 1, "num": 1}, "vcodec": "", "channels": 0, "has_video": true, "channel_layout": 4, "has_audio": false, "video_timebase": {"den": 30, "num": 1}, "has_single_image": true, "acodec": "", "height": 1080, "video_bit_rate": 0, "display_ratio": {"den": 9, "num": 16}, "audio_stream_index": -1, "type": "QtImageReader", "top_field_first": true, "width": 1920, "pixel_ratio": {"den": 1, "num": 1}, "sample_rate": 0, "duration": 86400.0, "file_size": "8294400", "path": "!000-White-Background.svg", "fps": {"den": 1, "num": 30}, "pixel_format": -1}, "position": 0, "has_video": {"Points": [{"co": {"Y": -1.0, "X": 1.0}, "interpolation": 2}]}, "has_audio": {"Points": [{"co": {"Y": -1.0, "X": 1.0}, "interpolation": 2}]}, "channel_mapping": {"Points": [{"co": {"Y": -1.0, "X": 1.0}, "interpolation": 2}]}, "end": 10, "shear_y": {"Points": [{"co": {"Y": 0.0, "X": 1.0}, "interpolation": 2}]}, "perspective_c3_y": {"Points": [{"co": {"Y": -1.0, "X": 1.0}, "interpolation": 2}]}, "scale_x": {"Points": [{"co": {"Y": 1.0, "X": 1.0}, "interpolation": 2}]}, "location_x": {"Points": [{"co": {"Y": 0.0, "X": 1.0}, "interpolation": 2}]}, "location_y": {"Points": [{"co": {"Y": 0.0, "X": 1.0}, "interpolation": 2}]}, "crop_height": {"Points": [{"co": {"Y": -1.0, "X": 1.0}, "interpolation": 2}]}, "perspective_c2_y": {"Points": [{"co": {"Y": -1.0, "X": 1.0}, "interpolation": 2}]}, "waveform": false, "perspective_c1_y": {"Points": [{"co": {"Y": -1.0, "X": 1.0}, "interpolation": 2}]}, "title": "!000-White-Background.svg", "perspective_c4_y": {"Points": [{"co": {"Y": -1.0, "X": 1.0}, "interpolation": 2}]}, "duration": 86400.0, "wave_color": {"red": {"Points": [{"handle_right": {"Y": 0.0, "X": 0.5}, "handle_type": 0, "handle_left": {"Y": 1.0, "X": 0.5}, "co": {"Y": 0.0, "X": 1.0}, "interpolation": 0}]}, "green": {"Points": [{"handle_right": {"Y": 0.0, "X": 0.5}, "handle_type": 0, "handle_left": {"Y": 1.0, "X": 0.5}, "co": {"Y": 123.0, "X": 1.0}, "interpolation": 0}]}, "blue": {"Points": [{"handle_right": {"Y": 0.0, "X": 0.5}, "handle_type": 0, "handle_left": {"Y": 1.0, "X": 0.5}, "co": {"Y": 255.0, "X": 1.0}, "interpolation": 0}]}, "alpha": {"Points": [{"handle_right": {"Y": 0.0, "X": 0.5}, "handle_type": 0, "handle_left": {"Y": 1.0, "X": 0.5}, "co": {"Y": 255.0, "X": 1.0}, "interpolation": 0}]}}, "time": {"Points": [{"co": {"Y": 1.0, "X": 1.0}, "interpolation": 2}]}, "crop_y": {"Points": [{"co": {"Y": 0.0, "X": 1.0}, "interpolation": 2}]}, "scale_y": {"Points": [{"co": {"Y": 1.0, "X": 1.0}, "interpolation": 2}]}, "effects": []}, {"perspective_c3_x": {"Points": [{"co": {"Y": -1.0, "X": 1.0}, "interpolation": 2}]}, "perspective_c4_x": {"Points": [{"co": {"Y": -1.0, "X": 1.0}, "interpolation": 2}]}, "channel_filter": {"Points": [{"co": {"Y": -1.0, "X": 1.0}, "interpolation": 2}]}, "image": "../../../.openshot_qt/thumbnail/6XU1ZMQNAO-122.png", "perspective_c2_x": {"Points": [{"co": {"Y": -1.0, "X": 1.0}, "interpolation": 2}]}, "perspective_c1_x": {"Points": [{"co": {"Y": -1.0, "X": 1.0}, "interpolation": 2}]}, "anchor": 0, "alpha": {"Points": [{"handle_right": {"Y": 0, "X": 0.5}, "handle_type": 0, "handle_left": {"Y": 1, "X": 0.5}, "co": {"Y": 1, "X": 1}, "interpolation": 0}, {"handle_right": {"Y": 0, "X": 0.5}, "handle_type": 0, "handle_left": {"Y": 1, "X": 0.5}, "co": {"Y": 0, "X": 117}, "interpolation": 0}, {"handle_right": {"Y": 0, "X": 0.5}, "handle_type": 0, "handle_left": {"Y": 1, "X": 0.5}, "co": {"Y": 1, "X": 189}, "interpolation": 0}, {"handle_right": {"Y": 0, "X": 0.5}, "handle_type": 0, "handle_left": {"Y": 1, "X": 0.5}, "co": {"Y": 1, "X": 1687}, "interpolation": 0}, {"handle_right": {"Y": 0, "X": 0.5}, "handle_type": 0, "handle_left": {"Y": 1, "X": 0.5}, "co": {"Y": 0, "X": 1759}, "interpolation": 0}]}, "id": "6XU1ZMQNAO", "position": 1.0, "file_id": "O1AEGRKDWZ", "display": 0, "scale": 1, "gravity": 4, "crop_width": {"Points": [{"co": {"Y": -1.0, "X": 1.0}, "interpolation": 2}]}, "crop_x": {"Points": [{"co": {"Y": 0.0, "X": 1.0}, "interpolation": 2}]}, "shear_x": {"Points": [{"co": {"Y": 0.0, "X": 1.0}, "interpolation": 2}]}, "volume": {"Points": [{"co": {"Y": 1.0, "X": 1.0}, "interpolation": 2}]}, "start": 4.8483333333333345, "title": "!080-GT,GC,TC.mkv", "reader": {"video_stream_index": 0, "video_length": "3650", "interlaced_frame": false, "audio_bit_rate": 0, "audio_timebase": {"den": 1, "num": 1}, "vcodec": "h264", "channels": 0, "has_video": true, "channel_layout": 4, "has_audio": false, "video_timebase": {"den": 1000, "num": 1}, "has_single_image": false, "acodec": "", "height": 744, "video_bit_rate": 0, "display_ratio": {"den": 186, "num": 325}, "audio_stream_index": -1, "type": "FFmpegReader", "top_field_first": true, "width": 1300, "pixel_ratio": {"den": 1, "num": 1}, "sample_rate": 0, "duration": 146.0, "file_size": "1130835", "path": "!080-GT,GC,TC.mkv", "fps": {"den": 1, "num": 25}, "pixel_format": 0}, "layer": 1, "has_video": {"Points": [{"co": {"Y": -1.0, "X": 1.0}, "interpolation": 2}]}, "has_audio": {"Points": [{"co": {"Y": -1.0, "X": 1.0}, "interpolation": 2}]}, "channel_mapping": {"Points": [{"co": {"Y": -1.0, "X": 1.0}, "interpolation": 2}]}, "end": 73.25, "shear_y": {"Points": [{"co": {"Y": 0.0, "X": 1.0}, "interpolation": 2}]}, "perspective_c3_y": {"Points": [{"co": {"Y": -1.0, "X": 1.0}, "interpolation": 2}]}, "scale_x": {"Points": [{"handle_right": {"Y": 0.0, "X": 0.5}, "handle_type": 0, "handle_left": {"Y": 1.0, "X": 0.5}, "co": {"Y": 2.200000047683716, "X": 1.0}, "interpolation": 0}, {"co": {"Y": 2.299999952316284, "X": 178}, "interpolation": 1}]}, "location_x": {"Points": [{"handle_right": {"Y": 0.0, "X": 0.5}, "handle_type": 0, "handle_left": {"Y": 1.0, "X": 0.5}, "co": {"Y": 0.33000001311302185, "X": 1.0}, "interpolation": 0}, {"co": {"Y": -0.07999999821186066, "X": 178}, "interpolation": 1}, {"co": {"Y": -0.07999999821186066, "X": 117}, "interpolation": 1}]}, "location_y": {"Points": [{"handle_right": {"Y": 0.0, "X": 0.5}, "handle_type": 0, "handle_left": {"Y": 1.0, "X": 0.5}, "co": {"Y": 0.5199999809265137, "X": 1.0}, "interpolation": 0}, {"co": {"Y": 0.5199999809265137, "X": 178}, "interpolation": 1}]}, "crop_height": {"Points": [{"co": {"Y": -1.0, "X": 1.0}, "interpolation": 2}]}, "perspective_c2_y": {"Points": [{"co": {"Y": -1.0, "X": 1.0}, "interpolation": 2}]}, "waveform": false, "perspective_c1_y": {"Points": [{"co": {"Y": -1.0, "X": 1.0}, "interpolation": 2}]}, "rotation": {"Points": [{"co": {"Y": 0.0, "X": 1.0}, "interpolation": 2}]}, "perspective_c4_y": {"Points": [{"co": {"Y": -1.0, "X": 1.0}, "interpolation": 2}]}, "duration": 72.0, "wave_color": {"red": {"Points": [{"handle_right": {"Y": 0.0, "X": 0.5}, "handle_type": 0, "handle_left": {"Y": 1.0, "X": 0.5}, "co": {"Y": 0.0, "X": 1.0}, "interpolation": 0}]}, "green": {"Points": [{"handle_right": {"Y": 0.0, "X": 0.5}, "handle_type": 0, "handle_left": {"Y": 1.0, "X": 0.5}, "co": {"Y": 123.0, "X": 1.0}, "interpolation": 0}]}, "blue": {"Points": [{"handle_right": {"Y": 0.0, "X": 0.5}, "handle_type": 0, "handle_left": {"Y": 1.0, "X": 0.5}, "co": {"Y": 255.0, "X": 1.0}, "interpolation": 0}]}, "alpha": {"Points": [{"handle_right": {"Y": 0.0, "X": 0.5}, "handle_type": 0, "handle_left": {"Y": 1.0, "X": 0.5}, "co": {"Y": 255.0, "X": 1.0}, "interpolation": 0}]}}, "time": {"Points": [{"co": {"Y": 117, "X": 117}, "interpolation": 1}, {"co": {"Y": 3399, "X": 1758}, "interpolation": 1}]}, "crop_y": {"Points": [{"co": {"Y": 0.0, "X": 1.0}, "interpolation": 2}]}, "scale_y": {"Points": [{"handle_right": {"Y": 0.0, "X": 0.5}, "handle_type": 0, "handle_left": {"Y": 1.0, "X": 0.5}, "co": {"Y": 2.200000047683716, "X": 1.0}, "interpolation": 0}, {"co": {"Y": 2.299999952316284, "X": 178}, "interpolation": 1}]}, "effects": []}, {"perspective_c2_x": {"Points": [{"co": {"Y": -1.0, "X": 1.0}, "interpolation": 2}]}, "perspective_c3_x": {"Points": [{"co": {"Y": -1.0, "X": 1.0}, "interpolation": 2}]}, "perspective_c4_x": {"Points": [{"co": {"Y": -1.0, "X": 1.0}, "interpolation": 2}]}, "channel_filter": {"Points": [{"co": {"Y": -1.0, "X": 1.0}, "interpolation": 2}]}, "image": "../../../.openshot_qt/thumbnail/XBE2IATTEN.png", "shear_y": {"Points": [{"co": {"Y": 0.0, "X": 1.0}, "interpolation": 2}]}, "perspective_c1_x": {"Points": [{"co": {"Y": -1.0, "X": 1.0}, "interpolation": 2}]}, "anchor": 0, "alpha": {"Points": [{"handle_right": {"Y": 0, "X": 0.5}, "handle_type": 0, "handle_left": {"Y": 1, "X": 0.5}, "co": {"Y": 1, "X": 1}, "interpolation": 0}, {"handle_right": {"Y": 0, "X": 0.5}, "handle_type": 0, "handle_left": {"Y": 1, "X": 0.5}, "co": {"Y": 0, "X": 1}, "interpolation": 0}, {"handle_right": {"Y": 0, "X": 0.5}, "handle_type": 0, "handle_left": {"Y": 1, "X": 0.5}, "co": {"Y": 1, "X": 73}, "interpolation": 0}, {"handle_right": {"Y": 0, "X": 0.5}, "handle_type": 0, "handle_left": {"Y": 1, "X": 0.5}, "co": {"Y": 1, "X": 1153}, "interpolation": 0}, {"handle_right": {"Y": 0, "X": 0.5}, "handle_type": 0, "handle_left": {"Y": 1, "X": 0.5}, "co": {"Y": 0, "X": 1225}, "interpolation": 0}]}, "id": "A2EZ4WBLRE", "layer": 1, "file_id": "XBE2IATTEN", "display": 0, "scale": 1, "gravity": 4, "crop_width": {"Points": [{"co": {"Y": -1.0, "X": 1.0}, "interpolation": 2}]}, "crop_x": {"Points": [{"co": {"Y": 0.0, "X": 1.0}, "interpolation": 2}]}, "shear_x": {"Points": [{"co": {"Y": 0.0, "X": 1.0}, "interpolation": 2}]}, "volume": {"Points": [{"co": {"Y": 1.0, "X": 1.0}, "interpolation": 2}]}, "start": 0, "rotation": {"Points": [{"co": {"Y": 0.0, "X": 1.0}, "interpolation": 2}]}, "reader": {"video_stream_index": 0, "video_length": "2575", "interlaced_frame": false, "audio_bit_rate": 0, "audio_timebase": {"den": 1, "num": 1}, "vcodec": "h264", "channels": 0, "has_video": true, "channel_layout": 4, "has_audio": false, "video_timebase": {"den": 1000, "num": 1}, "has_single_image": false, "acodec": "", "height": 744, "video_bit_rate": 0, "display_ratio": {"den": 186, "num": 325}, "audio_stream_index": -1, "type": "FFmpegReader", "top_field_first": true, "width": 1300, "pixel_ratio": {"den": 1, "num": 1}, "sample_rate": 0, "duration": 103.0, "file_size": "822519", "path": "!090-Remark - PASS or FAIL.mkv", "fps": {"den": 1, "num": 25}, "pixel_format": 0}, "position": 74.768125, "has_video": {"Points": [{"co": {"Y": -1.0, "X": 1.0}, "interpolation": 2}]}, "has_audio": {"Points": [{"co": {"Y": -1.0, "X": 1.0}, "interpolation": 2}]}, "channel_mapping": {"Points": [{"co": {"Y": -1.0, "X": 1.0}, "interpolation": 2}]}, "end": 51, "waveform": false, "perspective_c3_y": {"Points": [{"co": {"Y": -1.0, "X": 1.0}, "interpolation": 2}]}, "scale_x": {"Points": [{"handle_right": {"Y": 0.0, "X": 0.5}, "handle_type": 0, "handle_left": {"Y": 1.0, "X": 0.5}, "co": {"Y": 2.299999952316284, "X": 1.0}, "interpolation": 0}]}, "location_x": {"Points": [{"handle_right": {"Y": 0.0, "X": 0.5}, "handle_type": 0, "handle_left": {"Y": 1.0, "X": 0.5}, "co": {"Y": -0.07999999821186066, "X": 1.0}, "interpolation": 0}]}, "location_y": {"Points": [{"handle_right": {"Y": 0.0, "X": 0.5}, "handle_type": 0, "handle_left": {"Y": 1.0, "X": 0.5}, "co": {"Y": 0.5199999809265137, "X": 1.0}, "interpolation": 0}]}, "crop_y": {"Points": [{"co": {"Y": 0.0, "X": 1.0}, "interpolation": 2}]}, "perspective_c2_y": {"Points": [{"co": {"Y": -1.0, "X": 1.0}, "interpolation": 2}]}, "perspective_c1_y": {"Points": [{"co": {"Y": -1.0, "X": 1.0}, "interpolation": 2}]}, "title": "!090-Remark - PASS or FAIL.mkv", "perspective_c4_y": {"Points": [{"co": {"Y": -1.0, "X": 1.0}, "interpolation": 2}]}, "duration": 50.0, "wave_color": {"red": {"Points": [{"handle_right": {"Y": 0.0, "X": 0.5}, "handle_type": 0, "handle_left": {"Y": 1.0, "X": 0.5}, "co": {"Y": 0.0, "X": 1.0}, "interpolation": 0}]}, "green": {"Points": [{"handle_right": {"Y": 0.0, "X": 0.5}, "handle_type": 0, "handle_left": {"Y": 1.0, "X": 0.5}, "co": {"Y": 123.0, "X": 1.0}, "interpolation": 0}]}, "blue": {"Points": [{"handle_right": {"Y": 0.0, "X": 0.5}, "handle_type": 0, "handle_left": {"Y": 1.0, "X": 0.5}, "co": {"Y": 255.0, "X": 1.0}, "interpolation": 0}]}, "alpha": {"Points": [{"handle_right": {"Y": 0.0, "X": 0.5}, "handle_type": 0, "handle_left": {"Y": 1.0, "X": 0.5}, "co": {"Y": 255.0, "X": 1.0}, "interpolation": 0}]}}, "time": {"Points": [{"co": {"Y": 1, "X": 1}, "interpolation": 1}, {"co": {"Y": 2447, "X": 1224}, "interpolation": 1}]}, "crop_height": {"Points": [{"co": {"Y": -1.0, "X": 1.0}, "interpolation": 2}]}, "scale_y": {"Points": [{"handle_right": {"Y": 0.0, "X": 0.5}, "handle_type": 0, "handle_left": {"Y": 1.0, "X": 0.5}, "co": {"Y": 2.299999952316284, "X": 1.0}, "interpolation": 0}]}, "effects": []}, {"perspective_c3_x": {"Points": [{"co": {"Y": -1.0, "X": 1.0}, "interpolation": 2}]}, "perspective_c4_x": {"Points": [{"co": {"Y": -1.0, "X": 1.0}, "interpolation": 2}]}, "channel_filter": {"Points": [{"co": {"Y": -1.0, "X": 1.0}, "interpolation": 2}]}, "image": "../../../.openshot_qt/thumbnail/0F0RWXSQM9.png", "perspective_c2_x": {"Points": [{"co": {"Y": -1.0, "X": 1.0}, "interpolation": 2}]}, "perspective_c1_x": {"Points": [{"co": {"Y": -1.0, "X": 1.0}, "interpolation": 2}]}, "anchor": 0, "alpha": {"Points": [{"co": {"Y": 1.0, "X": 1.0}, "interpolation": 2}]}, "id": "3GZPXZWGC6", "layer": 0, "file_id": "0F0RWXSQM9", "display": 0, "scale": 1, "gravity": 4, "crop_width": {"Points": [{"co": {"Y": -1.0, "X": 1.0}, "interpolation": 2}]}, "crop_x": {"Points": [{"co": {"Y": 0.0, "X": 1.0}, "interpolation": 2}]}, "shear_x": {"Points": [{"co": {"Y": 0.0, "X": 1.0}, "interpolation": 2}]}, "volume": {"Points": [{"co": {"Y": 1.0, "X": 1.0}, "interpolation": 2}]}, "start": 0, "rotation": {"Points": [{"co": {"Y": 0.0, "X": 1.0}, "interpolation": 2}]}, "reader": {"video_stream_index": -1, "video_length": "2592000", "interlaced_frame": false, "audio_bit_rate": 0, "audio_timebase": {"den": 1, "num": 1}, "vcodec": "", "channels": 0, "has_video": true, "channel_layout": 4, "has_audio": false, "video_timebase": {"den": 30, "num": 1}, "has_single_image": true, "acodec": "", "height": 1080, "video_bit_rate": 0, "display_ratio": {"den": 9, "num": 16}, "audio_stream_index": -1, "type": "QtImageReader", "top_field_first": true, "width": 1920, "pixel_ratio": {"den": 1, "num": 1}, "sample_rate": 0, "duration": 86400.0, "file_size": "8294400", "path": "!000-White-Background.svg", "fps": {"den": 1, "num": 30}, "pixel_format": -1}, "position": 121.30031249999999, "has_video": {"Points": [{"co": {"Y": -1.0, "X": 1.0}, "interpolation": 2}]}, "has_audio": {"Points": [{"co": {"Y": -1.0, "X": 1.0}, "interpolation": 2}]}, "channel_mapping": {"Points": [{"co": {"Y": -1.0, "X": 1.0}, "interpolation": 2}]}, "end": 10, "shear_y": {"Points": [{"co": {"Y": 0.0, "X": 1.0}, "interpolation": 2}]}, "perspective_c3_y": {"Points": [{"co": {"Y": -1.0, "X": 1.0}, "interpolation": 2}]}, "scale_x": {"Points": [{"co": {"Y": 1.0, "X": 1.0}, "interpolation": 2}]}, "location_x": {"Points": [{"co": {"Y": 0.0, "X": 1.0}, "interpolation": 2}]}, "location_y": {"Points": [{"co": {"Y": 0.0, "X": 1.0}, "interpolation": 2}]}, "crop_height": {"Points": [{"co": {"Y": -1.0, "X": 1.0}, "interpolation": 2}]}, "perspective_c2_y": {"Points": [{"co": {"Y": -1.0, "X": 1.0}, "interpolation": 2}]}, "waveform": false, "perspective_c1_y": {"Points": [{"co": {"Y": -1.0, "X": 1.0}, "interpolation": 2}]}, "title": "!000-White-Background.svg", "perspective_c4_y": {"Points": [{"co": {"Y": -1.0, "X": 1.0}, "interpolation": 2}]}, "duration": 86400.0, "wave_color": {"red": {"Points": [{"handle_right": {"Y": 0.0, "X": 0.5}, "handle_type": 0, "handle_left": {"Y": 1.0, "X": 0.5}, "co": {"Y": 0.0, "X": 1.0}, "interpolation": 0}]}, "green": {"Points": [{"handle_right": {"Y": 0.0, "X": 0.5}, "handle_type": 0, "handle_left": {"Y": 1.0, "X": 0.5}, "co": {"Y": 123.0, "X": 1.0}, "interpolation": 0}]}, "blue": {"Points": [{"handle_right": {"Y": 0.0, "X": 0.5}, "handle_type": 0, "handle_left": {"Y": 1.0, "X": 0.5}, "co": {"Y": 255.0, "X": 1.0}, "interpolation": 0}]}, "alpha": {"Points": [{"handle_right": {"Y": 0.0, "X": 0.5}, "handle_type": 0, "handle_left": {"Y": 1.0, "X": 0.5}, "co": {"Y": 255.0, "X": 1.0}, "interpolation": 0}]}}, "time": {"Points": [{"co": {"Y": 1.0, "X": 1.0}, "interpolation": 2}]}, "crop_y": {"Points": [{"co": {"Y": 0.0, "X": 1.0}, "interpolation": 2}]}, "scale_y": {"Points": [{"co": {"Y": 1.0, "X": 1.0}, "interpolation": 2}]}, "effects": []}, {"perspective_c3_y": {"Points": [{"co": {"Y": -1.0, "X": 1.0}, "interpolation": 2}]}, "perspective_c4_x": {"Points": [{"co": {"Y": -1.0, "X": 1.0}, "interpolation": 2}]}, "channel_filter": {"Points": [{"co": {"Y": -1.0, "X": 1.0}, "interpolation": 2}]}, "perspective_c2_x": {"Points": [{"co": {"Y": -1.0, "X": 1.0}, "interpolation": 2}]}, "perspective_c1_x": {"Points": [{"co": {"Y": -1.0, "X": 1.0}, "interpolation": 2}]}, "anchor": 0, "alpha": {"Points": [{"handle_right": {"Y": 0, "X": 0.5}, "handle_type": 0, "handle_left": {"Y": 1, "X": 0.5}, "co": {"Y": 1, "X": 1}, "interpolation": 0}, {"handle_right": {"Y": 0, "X": 0.5}, "handle_type": 0, "handle_left": {"Y": 1, "X": 0.5}, "co": {"Y": 0, "X": 1}, "interpolation": 0}, {"handle_right": {"Y": 0, "X": 0.5}, "handle_type": 0, "handle_left": {"Y": 1, "X": 0.5}, "co": {"Y": 1, "X": 73}, "interpolation": 0}]}, "id": "QZM4UXHK9C", "layer": 1, "file_id": "Z4YCYRY34O", "display": 0, "scale": 1, "gravity": 4, "crop_width": {"Points": [{"co": {"Y": -1.0, "X": 1.0}, "interpolation": 2}]}, "crop_x": {"Points": [{"co": {"Y": 0.0, "X": 1.0}, "interpolation": 2}]}, "crop_y": {"Points": [{"co": {"Y": 0.0, "X": 1.0}, "interpolation": 2}]}, "volume": {"Points": [{"co": {"Y": 1.0, "X": 1.0}, "interpolation": 2}]}, "start": 0, "has_video": {"Points": [{"co": {"Y": -1.0, "X": 1.0}, "interpolation": 2}]}, "title": "!100-Average Marks.mkv", "reader": {"video_stream_index": 0, "video_length": "925", "interlaced_frame": false, "audio_bit_rate": 0, "audio_timebase": {"den": 1, "num": 1}, "vcodec": "h264", "channels": 0, "has_video": true, "channel_layout": 4, "has_audio": false, "video_timebase": {"den": 1000, "num": 1}, "has_single_image": false, "acodec": "", "height": 744, "video_bit_rate": 0, "display_ratio": {"den": 186, "num": 325}, "audio_stream_index": -1, "type": "FFmpegReader", "top_field_first": true, "width": 1300, "pixel_ratio": {"den": 1, "num": 1}, "sample_rate": 0, "duration": 37.0, "file_size": "281401", "path": "!100-Average Marks.mkv", "fps": {"den": 1, "num": 25}, "pixel_format": 0}, "position": 125.768125, "image": "../../../.openshot_qt/thumbnail/Z4YCYRY34O.png", "has_audio": {"Points": [{"co": {"Y": -1.0, "X": 1.0}, "interpolation": 2}]}, "channel_mapping": {"Points": [{"co": {"Y": -1.0, "X": 1.0}, "interpolation": 2}]}, "end": 17.416666666666668, "waveform": false, "perspective_c3_x": {"Points": [{"co": {"Y": -1.0, "X": 1.0}, "interpolation": 2}]}, "scale_x": {"Points": [{"co": {"Y": 2.299999952316284, "X": 1.0}, "interpolation": 2}]}, "location_x": {"Points": [{"co": {"Y": -0.07999999821186066, "X": 1.0}, "interpolation": 2}]}, "location_y": {"Points": [{"co": {"Y": 0.5199999809265137, "X": 1.0}, "interpolation": 2}]}, "shear_y": {"Points": [{"co": {"Y": 0.0, "X": 1.0}, "interpolation": 2}]}, "perspective_c2_y": {"Points": [{"co": {"Y": -1.0, "X": 1.0}, "interpolation": 2}]}, "shear_x": {"Points": [{"co": {"Y": 0.0, "X": 1.0}, "interpolation": 2}]}, "perspective_c1_y": {"Points": [{"co": {"Y": -1.0, "X": 1.0}, "interpolation": 2}]}, "rotation": {"Points": [{"co": {"Y": 0.0, "X": 1.0}, "interpolation": 2}]}, "perspective_c4_y": {"Points": [{"co": {"Y": -1.0, "X": 1.0}, "interpolation": 2}]}, "duration": 18.0, "wave_color": {"red": {"Points": [{"handle_right": {"Y": 0.0, "X": 0.5}, "handle_type": 0, "handle_left": {"Y": 1.0, "X": 0.5}, "co": {"Y": 0.0, "X": 1.0}, "interpolation": 0}]}, "green": {"Points": [{"handle_right": {"Y": 0.0, "X": 0.5}, "handle_type": 0, "handle_left": {"Y": 1.0, "X": 0.5}, "co": {"Y": 123.0, "X": 1.0}, "interpolation": 0}]}, "blue": {"Points": [{"handle_right": {"Y": 0.0, "X": 0.5}, "handle_type": 0, "handle_left": {"Y": 1.0, "X": 0.5}, "co": {"Y": 255.0, "X": 1.0}, "interpolation": 0}]}, "alpha": {"Points": [{"handle_right": {"Y": 0.0, "X": 0.5}, "handle_type": 0, "handle_left": {"Y": 1.0, "X": 0.5}, "co": {"Y": 255.0, "X": 1.0}, "interpolation": 0}]}}, "time": {"Points": [{"co": {"Y": 1, "X": 1}, "interpolation": 1}, {"co": {"Y": 835, "X": 418}, "interpolation": 1}]}, "crop_height": {"Points": [{"co": {"Y": -1.0, "X": 1.0}, "interpolation": 2}]}, "scale_y": {"Points": [{"co": {"Y": 2.299999952316284, "X": 1.0}, "interpolation": 2}]}, "effects": []}, {"perspective_c3_x": {"Points": [{"co": {"Y": -1.0, "X": 1.0}, "interpolation": 2}]}, "perspective_c4_x": {"Points": [{"co": {"Y": -1.0, "X": 1.0}, "interpolation": 2}]}, "channel_filter": {"Points": [{"co": {"Y": -1.0, "X": 1.0}, "interpolation": 2}]}, "image": "../../../.openshot_qt/thumbnail/0F0RWXSQM9.png", "perspective_c2_x": {"Points": [{"co": {"Y": -1.0, "X": 1.0}, "interpolation": 2}]}, "perspective_c1_x": {"Points": [{"co": {"Y": -1.0, "X": 1.0}, "interpolation": 2}]}, "anchor": 0, "alpha": {"Points": [{"co": {"Y": 1.0, "X": 1.0}, "interpolation": 2}]}, "id": "XUROHR8TBC", "layer": 0, "file_id": "0F0RWXSQM9", "display": 0, "scale": 1, "gravity": 4, "crop_width": {"Points": [{"co": {"Y": -1.0, "X": 1.0}, "interpolation": 2}]}, "crop_x": {"Points": [{"co": {"Y": 0.0, "X": 1.0}, "interpolation": 2}]}, "shear_x": {"Points": [{"co": {"Y": 0.0, "X": 1.0}, "interpolation": 2}]}, "volume": {"Points": [{"co": {"Y": 1.0, "X": 1.0}, "interpolation": 2}]}, "start": 0, "rotation": {"Points": [{"co": {"Y": 0.0, "X": 1.0}, "interpolation": 2}]}, "reader": {"video_stream_index": -1, "video_length": "2592000", "interlaced_frame": false, "audio_bit_rate": 0, "audio_timebase": {"den": 1, "num": 1}, "vcodec": "", "channels": 0, "has_video": true, "channel_layout": 4, "has_audio": false, "video_timebase": {"den": 30, "num": 1}, "has_single_image": true, "acodec": "", "height": 1080, "video_bit_rate": 0, "display_ratio": {"den": 9, "num": 16}, "audio_stream_index": -1, "type": "QtImageReader", "top_field_first": true, "width": 1920, "pixel_ratio": {"den": 1, "num": 1}, "sample_rate": 0, "duration": 86400.0, "file_size": "8294400", "path": "!000-White-Background.svg", "fps": {"den": 1, "num": 30}, "pixel_format": -1}, "position": 173.20078124999998, "has_video": {"Points": [{"co": {"Y": -1.0, "X": 1.0}, "interpolation": 2}]}, "has_audio": {"Points": [{"co": {"Y": -1.0, "X": 1.0}, "interpolation": 2}]}, "channel_mapping": {"Points": [{"co": {"Y": -1.0, "X": 1.0}, "interpolation": 2}]}, "end": 10, "shear_y": {"Points": [{"co": {"Y": 0.0, "X": 1.0}, "interpolation": 2}]}, "perspective_c3_y": {"Points": [{"co": {"Y": -1.0, "X": 1.0}, "interpolation": 2}]}, "scale_x": {"Points": [{"co": {"Y": 1.0, "X": 1.0}, "interpolation": 2}]}, "location_x": {"Points": [{"co": {"Y": 0.0, "X": 1.0}, "interpolation": 2}]}, "location_y": {"Points": [{"co": {"Y": 0.0, "X": 1.0}, "interpolation": 2}]}, "crop_height": {"Points": [{"co": {"Y": -1.0, "X": 1.0}, "interpolation": 2}]}, "perspective_c2_y": {"Points": [{"co": {"Y": -1.0, "X": 1.0}, "interpolation": 2}]}, "waveform": false, "perspective_c1_y": {"Points": [{"co": {"Y": -1.0, "X": 1.0}, "interpolation": 2}]}, "title": "!000-White-Background.svg", "perspective_c4_y": {"Points": [{"co": {"Y": -1.0, "X": 1.0}, "interpolation": 2}]}, "duration": 86400.0, "wave_color": {"red": {"Points": [{"handle_right": {"Y": 0.0, "X": 0.5}, "handle_type": 0, "handle_left": {"Y": 1.0, "X": 0.5}, "co": {"Y": 0.0, "X": 1.0}, "interpolation": 0}]}, "green": {"Points": [{"handle_right": {"Y": 0.0, "X": 0.5}, "handle_type": 0, "handle_left": {"Y": 1.0, "X": 0.5}, "co": {"Y": 123.0, "X": 1.0}, "interpolation": 0}]}, "blue": {"Points": [{"handle_right": {"Y": 0.0, "X": 0.5}, "handle_type": 0, "handle_left": {"Y": 1.0, "X": 0.5}, "co": {"Y": 255.0, "X": 1.0}, "interpolation": 0}]}, "alpha": {"Points": [{"handle_right": {"Y": 0.0, "X": 0.5}, "handle_type": 0, "handle_left": {"Y": 1.0, "X": 0.5}, "co": {"Y": 255.0, "X": 1.0}, "interpolation": 0}]}}, "time": {"Points": [{"co": {"Y": 1.0, "X": 1.0}, "interpolation": 2}]}, "crop_y": {"Points": [{"co": {"Y": 0.0, "X": 1.0}, "interpolation": 2}]}, "scale_y": {"Points": [{"co": {"Y": 1.0, "X": 1.0}, "interpolation": 2}]}, "effects": []}, {"perspective_c3_x": {"Points": [{"co": {"Y": -1.0, "X": 1.0}, "interpolation": 2}]}, "perspective_c4_x": {"Points": [{"co": {"Y": -1.0, "X": 1.0}, "interpolation": 2}]}, "channel_filter": {"Points": [{"co": {"Y": -1.0, "X": 1.0}, "interpolation": 2}]}, "image": "../../../.openshot_qt/thumbnail/A5ENU0DW4J.png", "perspective_c2_x": {"Points": [{"co": {"Y": -1.0, "X": 1.0}, "interpolation": 2}]}, "perspective_c1_x": {"Points": [{"co": {"Y": -1.0, "X": 1.0}, "interpolation": 2}]}, "anchor": 0, "alpha": {"Points": [{"co": {"Y": 1.0, "X": 1.0}, "interpolation": 2}, {"handle_right": {"Y": 0.0, "X": 0.5}, "handle_type": 0, "handle_left": {"Y": 1.0, "X": 0.5}, "co": {"Y": 0.0, "X": 1.0}, "interpolation": 0}, {"handle_right": {"Y": 0.0, "X": 0.5}, "handle_type": 0, "handle_left": {"Y": 1.0, "X": 0.5}, "co": {"Y": 1.0, "X": 73.0}, "interpolation": 0}]}, "id": "UUTCPBA7W2", "layer": 2, "file_id": "A5ENU0DW4J", "display": 0, "scale": 1, "gravity": 4, "crop_width": {"Points": [{"co": {"Y": -1.0, "X": 1.0}, "interpolation": 2}]}, "crop_x": {"Points": [{"co": {"Y": 0.0, "X": 1.0}, "interpolation": 2}]}, "shear_x": {"Points": [{"co": {"Y": 0.0, "X": 1.0}, "interpolation": 2}]}, "volume": {"Points": [{"co": {"Y": 1.0, "X": 1.0}, "interpolation": 2}]}, "start": 0, "rotation": {"Points": [{"co": {"Y": 0.0, "X": 1.0}, "interpolation": 2}]}, "reader": {"video_stream_index": 0, "video_length": "500", "interlaced_frame": false, "audio_bit_rate": 0, "audio_timebase": {"den": 1, "num": 1}, "vcodec": "h264", "channels": 0, "has_video": true, "channel_layout": 4, "has_audio": false, "video_timebase": {"den": 1000, "num": 1}, "has_single_image": false, "acodec": "", "height": 744, "video_bit_rate": 0, "display_ratio": {"den": 186, "num": 325}, "audio_stream_index": -1, "type": "FFmpegReader", "top_field_first": true, "width": 1300, "pixel_ratio": {"den": 1, "num": 1}, "sample_rate": 0, "duration": 20.0, "file_size": "204468", "path": "!110-Float Format Dialog.mkv", "fps": {"den": 1, "num": 25}, "pixel_format": 0}, "position": 140.15171875, "has_video": {"Points": [{"co": {"Y": -1.0, "X": 1.0}, "interpolation": 2}]}, "has_audio": {"Points": [{"co": {"Y": -1.0, "X": 1.0}, "interpolation": 2}]}, "channel_mapping": {"Points": [{"co": {"Y": -1.0, "X": 1.0}, "interpolation": 2}]}, "end": 13.523333333333312, "shear_y": {"Points": [{"co": {"Y": 0.0, "X": 1.0}, "interpolation": 2}]}, "perspective_c3_y": {"Points": [{"co": {"Y": -1.0, "X": 1.0}, "interpolation": 2}]}, "scale_x": {"Points": [{"handle_right": {"Y": 0.0, "X": 0.5}, "handle_type": 0, "handle_left": {"Y": 1.0, "X": 0.5}, "co": {"Y": 1.5, "X": 1.0}, "interpolation": 0}]}, "location_x": {"Points": [{"handle_right": {"Y": 0.0, "X": 0.5}, "handle_type": 0, "handle_left": {"Y": 1.0, "X": 0.5}, "co": {"Y": 0.0, "X": 1.0}, "interpolation": 0}]}, "location_y": {"Points": [{"handle_right": {"Y": 0.0, "X": 0.5}, "handle_type": 0, "handle_left": {"Y": 1.0, "X": 0.5}, "co": {"Y": 0.0, "X": 1.0}, "interpolation": 0}]}, "crop_height": {"Points": [{"co": {"Y": -1.0, "X": 1.0}, "interpolation": 2}]}, "perspective_c2_y": {"Points": [{"co": {"Y": -1.0, "X": 1.0}, "interpolation": 2}]}, "waveform": false, "perspective_c1_y": {"Points": [{"co": {"Y": -1.0, "X": 1.0}, "interpolation": 2}]}, "title": "!110-Float Format Dialog.mkv", "perspective_c4_y": {"Points": [{"co": {"Y": -1.0, "X": 1.0}, "interpolation": 2}]}, "duration": 20.0, "wave_color": {"red": {"Points": [{"handle_right": {"Y": 0.0, "X": 0.5}, "handle_type": 0, "handle_left": {"Y": 1.0, "X": 0.5}, "co": {"Y": 0.0, "X": 1.0}, "interpolation": 0}]}, "green": {"Points": [{"handle_right": {"Y": 0.0, "X": 0.5}, "handle_type": 0, "handle_left": {"Y": 1.0, "X": 0.5}, "co": {"Y": 123.0, "X": 1.0}, "interpolation": 0}]}, "blue": {"Points": [{"handle_right": {"Y": 0.0, "X": 0.5}, "handle_type": 0, "handle_left": {"Y": 1.0, "X": 0.5}, "co": {"Y": 255.0, "X": 1.0}, "interpolation": 0}]}, "alpha": {"Points": [{"handle_right": {"Y": 0.0, "X": 0.5}, "handle_type": 0, "handle_left": {"Y": 1.0, "X": 0.5}, "co": {"Y": 255.0, "X": 1.0}, "interpolation": 0}]}}, "time": {"Points": [{"co": {"Y": 1.0, "X": 1.0}, "interpolation": 2}]}, "crop_y": {"Points": [{"co": {"Y": 0.0, "X": 1.0}, "interpolation": 2}]}, "scale_y": {"Points": [{"handle_right": {"Y": 0.0, "X": 0.5}, "handle_type": 0, "handle_left": {"Y": 1.0, "X": 0.5}, "co": {"Y": 1.5, "X": 1.0}, "interpolation": 0}]}, "effects": []}, {"perspective_c3_x": {"Points": [{"co": {"Y": -1.0, "X": 1.0}, "interpolation": 2}]}, "perspective_c4_x": {"Points": [{"co": {"Y": -1.0, "X": 1.0}, "interpolation": 2}]}, "channel_filter": {"Points": [{"co": {"Y": -1.0, "X": 1.0}, "interpolation": 2}]}, "image": "../../../.openshot_qt/thumbnail/0F0RWXSQM9.png", "perspective_c2_x": {"Points": [{"co": {"Y": -1.0, "X": 1.0}, "interpolation": 2}]}, "perspective_c1_x": {"Points": [{"co": {"Y": -1.0, "X": 1.0}, "interpolation": 2}]}, "anchor": 0, "alpha": {"Points": [{"co": {"Y": 1.0, "X": 1.0}, "interpolation": 2}]}, "id": "HGE2JUKOAI", "layer": 0, "file_id": "0F0RWXSQM9", "display": 0, "scale": 1, "gravity": 4, "crop_width": {"Points": [{"co": {"Y": -1.0, "X": 1.0}, "interpolation": 2}]}, "crop_x": {"Points": [{"co": {"Y": 0.0, "X": 1.0}, "interpolation": 2}]}, "shear_x": {"Points": [{"co": {"Y": 0.0, "X": 1.0}, "interpolation": 2}]}, "volume": {"Points": [{"co": {"Y": 1.0, "X": 1.0}, "interpolation": 2}]}, "start": 0, "rotation": {"Points": [{"co": {"Y": 0.0, "X": 1.0}, "interpolation": 2}]}, "reader": {"video_stream_index": -1, "video_length": "2592000", "interlaced_frame": false, "audio_bit_rate": 0, "audio_timebase": {"den": 1, "num": 1}, "vcodec": "", "channels": 0, "has_video": true, "channel_layout": 4, "has_audio": false, "video_timebase": {"den": 30, "num": 1}, "has_single_image": true, "acodec": "", "height": 1080, "video_bit_rate": 0, "display_ratio": {"den": 9, "num": 16}, "audio_stream_index": -1, "type": "QtImageReader", "top_field_first": true, "width": 1920, "pixel_ratio": {"den": 1, "num": 1}, "sample_rate": 0, "duration": 86400.0, "file_size": "8294400", "path": "!000-White-Background.svg", "fps": {"den": 1, "num": 30}, "pixel_format": -1}, "position": 262.15859374999997, "has_video": {"Points": [{"co": {"Y": -1.0, "X": 1.0}, "interpolation": 2}]}, "has_audio": {"Points": [{"co": {"Y": -1.0, "X": 1.0}, "interpolation": 2}]}, "channel_mapping": {"Points": [{"co": {"Y": -1.0, "X": 1.0}, "interpolation": 2}]}, "end": 10, "shear_y": {"Points": [{"co": {"Y": 0.0, "X": 1.0}, "interpolation": 2}]}, "perspective_c3_y": {"Points": [{"co": {"Y": -1.0, "X": 1.0}, "interpolation": 2}]}, "scale_x": {"Points": [{"co": {"Y": 1.0, "X": 1.0}, "interpolation": 2}]}, "location_x": {"Points": [{"co": {"Y": 0.0, "X": 1.0}, "interpolation": 2}]}, "location_y": {"Points": [{"co": {"Y": 0.0, "X": 1.0}, "interpolation": 2}]}, "crop_height": {"Points": [{"co": {"Y": -1.0, "X": 1.0}, "interpolation": 2}]}, "perspective_c2_y": {"Points": [{"co": {"Y": -1.0, "X": 1.0}, "interpolation": 2}]}, "waveform": false, "perspective_c1_y": {"Points": [{"co": {"Y": -1.0, "X": 1.0}, "interpolation": 2}]}, "title": "!000-White-Background.svg", "perspective_c4_y": {"Points": [{"co": {"Y": -1.0, "X": 1.0}, "interpolation": 2}]}, "duration": 86400.0, "wave_color": {"red": {"Points": [{"handle_right": {"Y": 0.0, "X": 0.5}, "handle_type": 0, "handle_left": {"Y": 1.0, "X": 0.5}, "co": {"Y": 0.0, "X": 1.0}, "interpolation": 0}]}, "green": {"Points": [{"handle_right": {"Y": 0.0, "X": 0.5}, "handle_type": 0, "handle_left": {"Y": 1.0, "X": 0.5}, "co": {"Y": 123.0, "X": 1.0}, "interpolation": 0}]}, "blue": {"Points": [{"handle_right": {"Y": 0.0, "X": 0.5}, "handle_type": 0, "handle_left": {"Y": 1.0, "X": 0.5}, "co": {"Y": 255.0, "X": 1.0}, "interpolation": 0}]}, "alpha": {"Points": [{"handle_right": {"Y": 0.0, "X": 0.5}, "handle_type": 0, "handle_left": {"Y": 1.0, "X": 0.5}, "co": {"Y": 255.0, "X": 1.0}, "interpolation": 0}]}}, "time": {"Points": [{"co": {"Y": 1.0, "X": 1.0}, "interpolation": 2}]}, "crop_y": {"Points": [{"co": {"Y": 0.0, "X": 1.0}, "interpolation": 2}]}, "scale_y": {"Points": [{"co": {"Y": 1.0, "X": 1.0}, "interpolation": 2}]}, "effects": []}, {"perspective_c3_y": {"Points": [{"co": {"Y": -1.0, "X": 1.0}, "interpolation": 2}]}, "perspective_c4_x": {"Points": [{"co": {"Y": -1.0, "X": 1.0}, "interpolation": 2}]}, "channel_filter": {"Points": [{"co": {"Y": -1.0, "X": 1.0}, "interpolation": 2}]}, "shear_y": {"Points": [{"co": {"Y": 0.0, "X": 1.0}, "interpolation": 2}]}, "perspective_c1_x": {"Points": [{"co": {"Y": -1.0, "X": 1.0}, "interpolation": 2}]}, "duration": 15.0, "perspective_c2_x": {"Points": [{"co": {"Y": -1.0, "X": 1.0}, "interpolation": 2}]}, "image": "../../../.openshot_qt/thumbnail/UGJYEMW42F.png", "alpha": {"Points": [{"handle_right": {"Y": 0.0, "X": 0.5}, "handle_type": 0, "handle_left": {"Y": 1.0, "X": 0.5}, "co": {"Y": 1.0, "X": 1.0}, "interpolation": 0}, {"handle_right": {"Y": 0.0, "X": 0.5}, "handle_type": 0, "handle_left": {"Y": 1.0, "X": 0.5}, "co": {"Y": 0.0, "X": 1.0}, "interpolation": 0}, {"handle_right": {"Y": 0.0, "X": 0.5}, "handle_type": 0, "handle_left": {"Y": 1.0, "X": 0.5}, "co": {"Y": 1.0, "X": 73.0}, "interpolation": 0}, {"handle_right": {"Y": 0.0, "X": 0.5}, "handle_type": 0, "handle_left": {"Y": 1.0, "X": 0.5}, "co": {"Y": 1.0, "X": 183.0}, "interpolation": 0}, {"handle_right": {"Y": 0.0, "X": 0.5}, "handle_type": 0, "handle_left": {"Y": 1.0, "X": 0.5}, "co": {"Y": 0.0, "X": 255.0}, "interpolation": 0}]}, "layer": 3, "display": 0, "scale": 1, "gravity": 4, "crop_width": {"Points": [{"co": {"Y": -1.0, "X": 1.0}, "interpolation": 2}]}, "crop_x": {"Points": [{"co": {"Y": 0.0, "X": 1.0}, "interpolation": 2}]}, "crop_y": {"Points": [{"co": {"Y": 0.0, "X": 1.0}, "interpolation": 2}]}, "volume": {"Points": [{"co": {"Y": 1.0, "X": 1.0}, "interpolation": 2}]}, "id": "O0H3RPMELI", "title": "!120-Two Decimal Format.mkv", "has_audio": {"Points": [{"co": {"Y": -1.0, "X": 1.0}, "interpolation": 2}]}, "reader": {"video_stream_index": 0, "video_length": "375", "interlaced_frame": false, "audio_bit_rate": 0, "audio_timebase": {"den": 1, "num": 1}, "vcodec": "h264", "channels": 0, "has_video": true, "channel_layout": 4, "has_audio": false, "video_timebase": {"den": 1000, "num": 1}, "has_single_image": false, "acodec": "", "height": 744, "video_bit_rate": 0, "display_ratio": {"den": 186, "num": 325}, "audio_stream_index": -1, "type": "FFmpegReader", "top_field_first": true, "width": 1300, "pixel_ratio": {"den": 1, "num": 1}, "sample_rate": 0, "duration": 15.0, "file_size": "187523", "path": "!120-Two Decimal Format.mkv", "fps": {"den": 1, "num": 25}, "pixel_format": 0}, "position": 152.00921875, "has_video": {"Points": [{"co": {"Y": -1.0, "X": 1.0}, "interpolation": 2}]}, "start": 0, "channel_mapping": {"Points": [{"co": {"Y": -1.0, "X": 1.0}, "interpolation": 2}]}, "end": 10.595000000000027, "waveform": false, "perspective_c3_x": {"Points": [{"co": {"Y": -1.0, "X": 1.0}, "interpolation": 2}]}, "scale_x": {"Points": [{"co": {"Y": 1.5, "X": 1.0}, "interpolation": 2}]}, "location_x": {"Points": [{"co": {"Y": 0.0, "X": 1.0}, "interpolation": 2}]}, "location_y": {"Points": [{"co": {"Y": 0.0, "X": 1.0}, "interpolation": 2}]}, "file_id": "UGJYEMW42F", "perspective_c2_y": {"Points": [{"co": {"Y": -1.0, "X": 1.0}, "interpolation": 2}]}, "shear_x": {"Points": [{"co": {"Y": 0.0, "X": 1.0}, "interpolation": 2}]}, "perspective_c1_y": {"Points": [{"co": {"Y": -1.0, "X": 1.0}, "interpolation": 2}]}, "rotation": {"Points": [{"co": {"Y": 0.0, "X": 1.0}, "interpolation": 2}]}, "perspective_c4_y": {"Points": [{"co": {"Y": -1.0, "X": 1.0}, "interpolation": 2}]}, "anchor": 0, "wave_color": {"red": {"Points": [{"handle_right": {"Y": 0.0, "X": 0.5}, "handle_type": 0, "handle_left": {"Y": 1.0, "X": 0.5}, "co": {"Y": 0.0, "X": 1.0}, "interpolation": 0}]}, "green": {"Points": [{"handle_right": {"Y": 0.0, "X": 0.5}, "handle_type": 0, "handle_left": {"Y": 1.0, "X": 0.5}, "co": {"Y": 123.0, "X": 1.0}, "interpolation": 0}]}, "blue": {"Points": [{"handle_right": {"Y": 0.0, "X": 0.5}, "handle_type": 0, "handle_left": {"Y": 1.0, "X": 0.5}, "co": {"Y": 255.0, "X": 1.0}, "interpolation": 0}]}, "alpha": {"Points": [{"handle_right": {"Y": 0.0, "X": 0.5}, "handle_type": 0, "handle_left": {"Y": 1.0, "X": 0.5}, "co": {"Y": 255.0, "X": 1.0}, "interpolation": 0}]}}, "time": {"Points": [{"co": {"Y": 1.0, "X": 1.0}, "interpolation": 2}]}, "crop_height": {"Points": [{"co": {"Y": -1.0, "X": 1.0}, "interpolation": 2}]}, "scale_y": {"Points": [{"co": {"Y": 1.5, "X": 1.0}, "interpolation": 2}]}, "effects": []}, {"perspective_c3_x": {"Points": [{"co": {"Y": -1.0, "X": 1.0}, "interpolation": 2}]}, "perspective_c4_x": {"Points": [{"co": {"Y": -1.0, "X": 1.0}, "interpolation": 2}]}, "channel_filter": {"Points": [{"co": {"Y": -1.0, "X": 1.0}, "interpolation": 2}]}, "image": "../../../.openshot_qt/thumbnail/616P05WPS9.png", "perspective_c2_x": {"Points": [{"co": {"Y": -1.0, "X": 1.0}, "interpolation": 2}]}, "perspective_c1_x": {"Points": [{"co": {"Y": -1.0, "X": 1.0}, "interpolation": 2}]}, "anchor": 0, "alpha": {"Points": [{"handle_right": {"Y": 0, "X": 0.5}, "handle_type": 0, "handle_left": {"Y": 1, "X": 0.5}, "co": {"Y": 1, "X": 1}, "interpolation": 0}, {"handle_right": {"Y": 0, "X": 0.5}, "handle_type": 0, "handle_left": {"Y": 1, "X": 0.5}, "co": {"Y": 0, "X": 1}, "interpolation": 0}, {"handle_right": {"Y": 0, "X": 0.5}, "handle_type": 0, "handle_left": {"Y": 1, "X": 0.5}, "co": {"Y": 1, "X": 73}, "interpolation": 0}, {"handle_right": {"Y": 0, "X": 0.5}, "handle_type": 0, "handle_left": {"Y": 1, "X": 0.5}, "co": {"Y": 1, "X": 2057}, "interpolation": 0}, {"handle_right": {"Y": 0, "X": 0.5}, "handle_type": 0, "handle_left": {"Y": 1, "X": 0.5}, "co": {"Y": 0, "X": 2129}, "interpolation": 0}]}, "id": "1W8DREEE59", "layer": 1, "file_id": "616P05WPS9", "display": 0, "scale": 1, "gravity": 4, "crop_width": {"Points": [{"co": {"Y": -1.0, "X": 1.0}, "interpolation": 2}]}, "crop_x": {"Points": [{"co": {"Y": 0.0, "X": 1.0}, "interpolation": 2}]}, "shear_x": {"Points": [{"co": {"Y": 0.0, "X": 1.0}, "interpolation": 2}]}, "volume": {"Points": [{"co": {"Y": 1.0, "X": 1.0}, "interpolation": 2}]}, "start": 0, "rotation": {"Points": [{"co": {"Y": 0.0, "X": 1.0}, "interpolation": 2}]}, "reader": {"video_stream_index": 0, "video_length": "4525", "interlaced_frame": false, "audio_bit_rate": 0, "audio_timebase": {"den": 1, "num": 1}, "vcodec": "h264", "channels": 0, "has_video": true, "channel_layout": 4, "has_audio": false, "video_timebase": {"den": 1000, "num": 1}, "has_single_image": false, "acodec": "", "height": 744, "video_bit_rate": 0, "display_ratio": {"den": 186, "num": 325}, "audio_stream_index": -1, "type": "FFmpegReader", "top_field_first": true, "width": 1300, "pixel_ratio": {"den": 1, "num": 1}, "sample_rate": 0, "duration": 181.0, "file_size": "1502027", "path": "!140-Grade Formula.mkv", "fps": {"den": 1, "num": 25}, "pixel_format": 0}, "position": 177.65796874999998, "has_video": {"Points": [{"co": {"Y": -1.0, "X": 1.0}, "interpolation": 2}]}, "has_audio": {"Points": [{"co": {"Y": -1.0, "X": 1.0}, "interpolation": 2}]}, "channel_mapping": {"Points": [{"co": {"Y": -1.0, "X": 1.0}, "interpolation": 2}]}, "end": 88.66666666666667, "shear_y": {"Points": [{"co": {"Y": 0.0, "X": 1.0}, "interpolation": 2}]}, "perspective_c3_y": {"Points": [{"co": {"Y": -1.0, "X": 1.0}, "interpolation": 2}]}, "scale_x": {"Points": [{"handle_right": {"Y": 0.0, "X": 0.5}, "handle_type": 0, "handle_left": {"Y": 1.0, "X": 0.5}, "co": {"Y": 2.299999952316284, "X": 1.0}, "interpolation": 0}, {"co": {"Y": 1.7000000476837158, "X": 121}, "interpolation": 1}]}, "location_x": {"Points": [{"handle_right": {"Y": 0.0, "X": 0.5}, "handle_type": 0, "handle_left": {"Y": 1.0, "X": 0.5}, "co": {"Y": 0.5299999713897705, "X": 1.0}, "interpolation": 0}, {"co": {"Y": -0.019999999552965164, "X": 121}, "interpolation": 1}]}, "location_y": {"Points": [{"handle_right": {"Y": 0.0, "X": 0.5}, "handle_type": 0, "handle_left": {"Y": 1.0, "X": 0.5}, "co": {"Y": 0.5199999809265137, "X": 1.0}, "interpolation": 0}, {"co": {"Y": 0.30000001192092896, "X": 121}, "interpolation": 1}]}, "crop_height": {"Points": [{"co": {"Y": -1.0, "X": 1.0}, "interpolation": 2}]}, "perspective_c2_y": {"Points": [{"co": {"Y": -1.0, "X": 1.0}, "interpolation": 2}]}, "waveform": false, "perspective_c1_y": {"Points": [{"co": {"Y": -1.0, "X": 1.0}, "interpolation": 2}]}, "title": "!140-Grade Formula.mkv", "perspective_c4_y": {"Points": [{"co": {"Y": -1.0, "X": 1.0}, "interpolation": 2}]}, "duration": 90.0, "wave_color": {"red": {"Points": [{"handle_right": {"Y": 0.0, "X": 0.5}, "handle_type": 0, "handle_left": {"Y": 1.0, "X": 0.5}, "co": {"Y": 0.0, "X": 1.0}, "interpolation": 0}]}, "green": {"Points": [{"handle_right": {"Y": 0.0, "X": 0.5}, "handle_type": 0, "handle_left": {"Y": 1.0, "X": 0.5}, "co": {"Y": 123.0, "X": 1.0}, "interpolation": 0}]}, "blue": {"Points": [{"handle_right": {"Y": 0.0, "X": 0.5}, "handle_type": 0, "handle_left": {"Y": 1.0, "X": 0.5}, "co": {"Y": 255.0, "X": 1.0}, "interpolation": 0}]}, "alpha": {"Points": [{"handle_right": {"Y": 0.0, "X": 0.5}, "handle_type": 0, "handle_left": {"Y": 1.0, "X": 0.5}, "co": {"Y": 255.0, "X": 1.0}, "interpolation": 0}]}}, "time": {"Points": [{"co": {"Y": 1, "X": 1}, "interpolation": 1}, {"co": {"Y": 4255, "X": 2128}, "interpolation": 1}]}, "crop_y": {"Points": [{"co": {"Y": 0.0, "X": 1.0}, "interpolation": 2}]}, "scale_y": {"Points": [{"handle_right": {"Y": 0.0, "X": 0.5}, "handle_type": 0, "handle_left": {"Y": 1.0, "X": 0.5}, "co": {"Y": 2.299999952316284, "X": 1.0}, "interpolation": 0}, {"co": {"Y": 1.7000000476837158, "X": 121}, "interpolation": 1}]}, "effects": []}, {"perspective_c3_x": {"Points": [{"co": {"Y": -1.0, "X": 1.0}, "interpolation": 2}]}, "perspective_c4_x": {"Points": [{"co": {"Y": -1.0, "X": 1.0}, "interpolation": 2}]}, "channel_filter": {"Points": [{"co": {"Y": -1.0, "X": 1.0}, "interpolation": 2}]}, "image": "../../../.openshot_qt/thumbnail/2202V21TTZ.png", "perspective_c2_x": {"Points": [{"co": {"Y": -1.0, "X": 1.0}, "interpolation": 2}]}, "perspective_c1_x": {"Points": [{"co": {"Y": -1.0, "X": 1.0}, "interpolation": 2}]}, "anchor": 0, "alpha": {"Points": [{"co": {"Y": 1.0, "X": 1.0}, "interpolation": 2}, {"handle_right": {"Y": 0.0, "X": 0.5}, "handle_type": 0, "handle_left": {"Y": 1.0, "X": 0.5}, "co": {"Y": 1.0, "X": 545.0}, "interpolation": 0}, {"handle_right": {"Y": 0.0, "X": 0.5}, "handle_type": 0, "handle_left": {"Y": 1.0, "X": 0.5}, "co": {"Y": 0.0, "X": 617.0}, "interpolation": 0}]}, "id": "3KRS4J70ZV", "layer": 1, "file_id": "2202V21TTZ", "display": 0, "scale": 1, "gravity": 4, "crop_width": {"Points": [{"co": {"Y": -1.0, "X": 1.0}, "interpolation": 2}]}, "crop_x": {"Points": [{"co": {"Y": 0.0, "X": 1.0}, "interpolation": 2}]}, "shear_x": {"Points": [{"co": {"Y": 0.0, "X": 1.0}, "interpolation": 2}, {"co": {"Y": 0.0, "X": 373}, "interpolation": 1}]}, "volume": {"Points": [{"co": {"Y": 1.0, "X": 1.0}, "interpolation": 2}]}, "start": 0, "rotation": {"Points": [{"co": {"Y": 0.0, "X": 1.0}, "interpolation": 2}]}, "reader": {"video_stream_index": 0, "video_length": "725", "interlaced_frame": false, "audio_bit_rate": 0, "audio_timebase": {"den": 1, "num": 1}, "vcodec": "h264", "channels": 0, "has_video": true, "channel_layout": 4, "has_audio": false, "video_timebase": {"den": 1000, "num": 1}, "has_single_image": false, "acodec": "", "height": 744, "video_bit_rate": 0, "display_ratio": {"den": 186, "num": 325}, "audio_stream_index": -1, "type": "FFmpegReader", "top_field_first": true, "width": 1300, "pixel_ratio": {"den": 1, "num": 1}, "sample_rate": 0, "duration": 29.0, "file_size": "293155", "path": "!130-Copy Average.mkv", "fps": {"den": 1, "num": 25}, "pixel_format": 0}, "position": 152.00921875, "has_video": {"Points": [{"co": {"Y": -1.0, "X": 1.0}, "interpolation": 2}]}, "has_audio": {"Points": [{"co": {"Y": -1.0, "X": 1.0}, "interpolation": 2}]}, "channel_mapping": {"Points": [{"co": {"Y": -1.0, "X": 1.0}, "interpolation": 2}]}, "end": 25.649999999999977, "shear_y": {"Points": [{"co": {"Y": 0.0, "X": 1.0}, "interpolation": 2}]}, "perspective_c3_y": {"Points": [{"co": {"Y": -1.0, "X": 1.0}, "interpolation": 2}]}, "scale_x": {"Points": [{"co": {"Y": 1.5, "X": 1.0}, "interpolation": 2}, {"co": {"Y": 2.299999952316284, "X": 373}, "interpolation": 1}, {"co": {"Y": 1.5, "X": 224}, "interpolation": 1}]}, "location_x": {"Points": [{"co": {"Y": 0.0, "X": 1.0}, "interpolation": 2}, {"co": {"Y": -0.07999999821186066, "X": 373}, "interpolation": 1}, {"co": {"Y": 0.0, "X": 224}, "interpolation": 1}, {"co": {"Y": 0.0, "X": 617}, "interpolation": 1}]}, "location_y": {"Points": [{"co": {"Y": 0.0, "X": 1.0}, "interpolation": 2}, {"co": {"Y": 0.5199999809265137, "X": 373}, "interpolation": 1}, {"co": {"Y": 0.0, "X": 224}, "interpolation": 1}]}, "crop_height": {"Points": [{"co": {"Y": -1.0, "X": 1.0}, "interpolation": 2}]}, "perspective_c2_y": {"Points": [{"co": {"Y": -1.0, "X": 1.0}, "interpolation": 2}]}, "waveform": false, "perspective_c1_y": {"Points": [{"co": {"Y": -1.0, "X": 1.0}, "interpolation": 2}]}, "title": "!130-Copy Average.mkv", "perspective_c4_y": {"Points": [{"co": {"Y": -1.0, "X": 1.0}, "interpolation": 2}]}, "duration": 29.0, "wave_color": {"red": {"Points": [{"handle_right": {"Y": 0.0, "X": 0.5}, "handle_type": 0, "handle_left": {"Y": 1.0, "X": 0.5}, "co": {"Y": 0.0, "X": 1.0}, "interpolation": 0}]}, "green": {"Points": [{"handle_right": {"Y": 0.0, "X": 0.5}, "handle_type": 0, "handle_left": {"Y": 1.0, "X": 0.5}, "co": {"Y": 123.0, "X": 1.0}, "interpolation": 0}]}, "blue": {"Points": [{"handle_right": {"Y": 0.0, "X": 0.5}, "handle_type": 0, "handle_left": {"Y": 1.0, "X": 0.5}, "co": {"Y": 255.0, "X": 1.0}, "interpolation": 0}]}, "alpha": {"Points": [{"handle_right": {"Y": 0.0, "X": 0.5}, "handle_type": 0, "handle_left": {"Y": 1.0, "X": 0.5}, "co": {"Y": 255.0, "X": 1.0}, "interpolation": 0}]}}, "time": {"Points": [{"co": {"Y": 1.0, "X": 1.0}, "interpolation": 2}]}, "crop_y": {"Points": [{"co": {"Y": 0.0, "X": 1.0}, "interpolation": 2}]}, "scale_y": {"Points": [{"co": {"Y": 1.5, "X": 1.0}, "interpolation": 2}, {"co": {"Y": 2.299999952316284, "X": 373}, "interpolation": 1}, {"co": {"Y": 1.5, "X": 224}, "interpolation": 1}]}, "effects": []}, {"perspective_c3_x": {"Points": [{"co": {"Y": -1.0, "X": 1.0}, "interpolation": 2}]}, "perspective_c4_x": {"Points": [{"co": {"Y": -1.0, "X": 1.0}, "interpolation": 2}]}, "channel_filter": {"Points": [{"co": {"Y": -1.0, "X": 1.0}, "interpolation": 2}]}, "image": "../../../.openshot_qt/thumbnail/0F0RWXSQM9.png", "perspective_c2_x": {"Points": [{"co": {"Y": -1.0, "X": 1.0}, "interpolation": 2}]}, "perspective_c1_x": {"Points": [{"co": {"Y": -1.0, "X": 1.0}, "interpolation": 2}]}, "anchor": 0, "alpha": {"Points": [{"co": {"Y": 1.0, "X": 1.0}, "interpolation": 2}]}, "id": "87020DYHA9", "layer": 0, "file_id": "0F0RWXSQM9", "display": 0, "scale": 1, "gravity": 4, "crop_width": {"Points": [{"co": {"Y": -1.0, "X": 1.0}, "interpolation": 2}]}, "crop_x": {"Points": [{"co": {"Y": 0.0, "X": 1.0}, "interpolation": 2}]}, "shear_x": {"Points": [{"co": {"Y": 0.0, "X": 1.0}, "interpolation": 2}]}, "volume": {"Points": [{"co": {"Y": 1.0, "X": 1.0}, "interpolation": 2}]}, "start": 0, "rotation": {"Points": [{"co": {"Y": 0.0, "X": 1.0}, "interpolation": 2}]}, "reader": {"video_stream_index": -1, "video_length": "2592000", "interlaced_frame": false, "audio_bit_rate": 0, "audio_timebase": {"den": 1, "num": 1}, "vcodec": "", "channels": 0, "has_video": true, "channel_layout": 4, "has_audio": false, "video_timebase": {"den": 30, "num": 1}, "has_single_image": true, "acodec": "", "height": 1080, "video_bit_rate": 0, "display_ratio": {"den": 9, "num": 16}, "audio_stream_index": -1, "type": "QtImageReader", "top_field_first": true, "width": 1920, "pixel_ratio": {"den": 1, "num": 1}, "sample_rate": 0, "duration": 86400.0, "file_size": "8294400", "path": "!000-White-Background.svg", "fps": {"den": 1, "num": 30}, "pixel_format": -1}, "position": 289.16999999999996, "has_video": {"Points": [{"co": {"Y": -1.0, "X": 1.0}, "interpolation": 2}]}, "has_audio": {"Points": [{"co": {"Y": -1.0, "X": 1.0}, "interpolation": 2}]}, "channel_mapping": {"Points": [{"co": {"Y": -1.0, "X": 1.0}, "interpolation": 2}]}, "end": 9.49, "shear_y": {"Points": [{"co": {"Y": 0.0, "X": 1.0}, "interpolation": 2}]}, "perspective_c3_y": {"Points": [{"co": {"Y": -1.0, "X": 1.0}, "interpolation": 2}]}, "scale_x": {"Points": [{"co": {"Y": 1.0, "X": 1.0}, "interpolation": 2}]}, "location_x": {"Points": [{"co": {"Y": 0.0, "X": 1.0}, "interpolation": 2}]}, "location_y": {"Points": [{"co": {"Y": 0.0, "X": 1.0}, "interpolation": 2}]}, "crop_height": {"Points": [{"co": {"Y": -1.0, "X": 1.0}, "interpolation": 2}]}, "perspective_c2_y": {"Points": [{"co": {"Y": -1.0, "X": 1.0}, "interpolation": 2}]}, "waveform": false, "perspective_c1_y": {"Points": [{"co": {"Y": -1.0, "X": 1.0}, "interpolation": 2}]}, "title": "!000-White-Background.svg", "perspective_c4_y": {"Points": [{"co": {"Y": -1.0, "X": 1.0}, "interpolation": 2}]}, "duration": 86400.0, "wave_color": {"red": {"Points": [{"handle_right": {"Y": 0.0, "X": 0.5}, "handle_type": 0, "handle_left": {"Y": 1.0, "X": 0.5}, "co": {"Y": 0.0, "X": 1.0}, "interpolation": 0}]}, "green": {"Points": [{"handle_right": {"Y": 0.0, "X": 0.5}, "handle_type": 0, "handle_left": {"Y": 1.0, "X": 0.5}, "co": {"Y": 123.0, "X": 1.0}, "interpolation": 0}]}, "blue": {"Points": [{"handle_right": {"Y": 0.0, "X": 0.5}, "handle_type": 0, "handle_left": {"Y": 1.0, "X": 0.5}, "co": {"Y": 255.0, "X": 1.0}, "interpolation": 0}]}, "alpha": {"Points": [{"handle_right": {"Y": 0.0, "X": 0.5}, "handle_type": 0, "handle_left": {"Y": 1.0, "X": 0.5}, "co": {"Y": 255.0, "X": 1.0}, "interpolation": 0}]}}, "time": {"Points": [{"co": {"Y": 1.0, "X": 1.0}, "interpolation": 2}]}, "crop_y": {"Points": [{"co": {"Y": 0.0, "X": 1.0}, "interpolation": 2}]}, "scale_y": {"Points": [{"co": {"Y": 1.0, "X": 1.0}, "interpolation": 2}]}, "effects": []}, {"perspective_c3_x": {"Points": [{"co": {"Y": -1, "X": 1}, "interpolation": 2}]}, "perspective_c4_x": {"Points": [{"co": {"Y": -1, "X": 1}, "interpolation": 2}]}, "channel_filter": {"Points": [{"co": {"Y": -1, "X": 1}, "interpolation": 2}]}, "image": "../../../.openshot_qt/thumbnail/MJ87OKNJXE.png", "perspective_c2_x": {"Points": [{"co": {"Y": -1, "X": 1}, "interpolation": 2}]}, "perspective_c1_x": {"Points": [{"co": {"Y": -1, "X": 1}, "interpolation": 2}]}, "anchor": 0, "alpha": {"Points": [{"handle_right": {"Y": 0, "X": 0.5}, "handle_type": 0, "handle_left": {"Y": 1, "X": 0.5}, "co": {"Y": 1, "X": 1}, "interpolation": 0}, {"handle_right": {"Y": 0, "X": 0.5}, "handle_type": 0, "handle_left": {"Y": 1, "X": 0.5}, "co": {"Y": 0, "X": 1}, "interpolation": 0}, {"handle_right": {"Y": 0, "X": 0.5}, "handle_type": 0, "handle_left": {"Y": 1, "X": 0.5}, "co": {"Y": 1, "X": 73}, "interpolation": 0}, {"handle_right": {"Y": 0, "X": 0.5}, "handle_type": 0, "handle_left": {"Y": 1, "X": 0.5}, "co": {"Y": 1, "X": 644}, "interpolation": 0}, {"handle_right": {"Y": 0, "X": 0.5}, "handle_type": 0, "handle_left": {"Y": 1, "X": 0.5}, "co": {"Y": 0, "X": 716}, "interpolation": 0}]}, "id": "F2MA5NTJGV", "layer": 1, "file_id": "MJ87OKNJXE", "display": 0, "scale": 1, "gravity": 4, "crop_width": {"Points": [{"co": {"Y": -1, "X": 1}, "interpolation": 2}]}, "crop_x": {"Points": [{"co": {"Y": 0, "X": 1}, "interpolation": 2}]}, "shear_x": {"Points": [{"co": {"Y": 0, "X": 1}, "interpolation": 2}]}, "volume": {"Points": [{"co": {"Y": 1, "X": 1}, "interpolation": 2}]}, "start": 0, "rotation": {"Points": [{"co": {"Y": 0, "X": 1}, "interpolation": 2}]}, "reader": {"video_stream_index": 0, "video_length": "1575", "interlaced_frame": false, "audio_bit_rate": 0, "audio_timebase": {"den": 1, "num": 1}, "vcodec": "h264", "channels": 0, "has_video": true, "channel_layout": 4, "has_audio": false, "video_timebase": {"den": 1000, "num": 1}, "has_single_image": false, "acodec": "", "height": 744, "video_bit_rate": 62654, "display_ratio": {"den": 186, "num": 325}, "audio_stream_index": -1, "type": "FFmpegReader", "top_field_first": true, "width": 1300, "pixel_ratio": {"den": 1, "num": 1}, "sample_rate": 0, "duration": 63.0, "file_size": "499047", "path": "!150-Inserted GRADE in REMARK.mkv", "fps": {"den": 1, "num": 25}, "pixel_format": 0}, "position": 266.32359375, "has_video": {"Points": [{"co": {"Y": -1, "X": 1}, "interpolation": 2}]}, "has_audio": {"Points": [{"co": {"Y": -1, "X": 1}, "interpolation": 2}]}, "channel_mapping": {"Points": [{"co": {"Y": -1, "X": 1}, "interpolation": 2}]}, "end": 29.791666666666668, "shear_y": {"Points": [{"co": {"Y": 0, "X": 1}, "interpolation": 2}]}, "perspective_c3_y": {"Points": [{"co": {"Y": -1, "X": 1}, "interpolation": 2}]}, "scale_x": {"Points": [{"co": {"Y": 1.7000000476837158, "X": 1}, "interpolation": 2}]}, "location_x": {"Points": [{"co": {"Y": -0.019999999552965164, "X": 1}, "interpolation": 2}]}, "location_y": {"Points": [{"co": {"Y": 0.30000001192092896, "X": 1}, "interpolation": 2}]}, "crop_height": {"Points": [{"co": {"Y": -1, "X": 1}, "interpolation": 2}]}, "perspective_c2_y": {"Points": [{"co": {"Y": -1, "X": 1}, "interpolation": 2}]}, "waveform": false, "perspective_c1_y": {"Points": [{"co": {"Y": -1, "X": 1}, "interpolation": 2}]}, "title": "!150-Inserted GRADE in REMARK.mkv", "perspective_c4_y": {"Points": [{"co": {"Y": -1, "X": 1}, "interpolation": 2}]}, "duration": 30.0, "wave_color": {"red": {"Points": [{"handle_right": {"Y": 0, "X": 0.5}, "handle_type": 0, "handle_left": {"Y": 1, "X": 0.5}, "co": {"Y": 0, "X": 1}, "interpolation": 0}]}, "green": {"Points": [{"handle_right": {"Y": 0, "X": 0.5}, "handle_type": 0, "handle_left": {"Y": 1, "X": 0.5}, "co": {"Y": 123, "X": 1}, "interpolation": 0}]}, "blue": {"Points": [{"handle_right": {"Y": 0, "X": 0.5}, "handle_type": 0, "handle_left": {"Y": 1, "X": 0.5}, "co": {"Y": 255, "X": 1}, "interpolation": 0}]}, "alpha": {"Points": [{"handle_right": {"Y": 0, "X": 0.5}, "handle_type": 0, "handle_left": {"Y": 1, "X": 0.5}, "co": {"Y": 255, "X": 1}, "interpolation": 0}]}}, "time": {"Points": [{"co": {"Y": 1, "X": 1}, "interpolation": 1}, {"co": {"Y": 1429, "X": 715}, "interpolation": 1}]}, "crop_y": {"Points": [{"co": {"Y": 0, "X": 1}, "interpolation": 2}]}, "scale_y": {"Points": [{"co": {"Y": 1.7000000476837158, "X": 1}, "interpolation": 2}]}, "effects": []}, {"perspective_c3_x": {"Points": [{"co": {"Y": -1, "X": 1}, "interpolation": 2}]}, "perspective_c4_x": {"Points": [{"co": {"Y": -1, "X": 1}, "interpolation": 2}]}, "channel_filter": {"Points": [{"co": {"Y": -1, "X": 1}, "interpolation": 2}]}, "image": "../../../.openshot_qt/thumbnail/0F0RWXSQM9.png", "perspective_c2_x": {"Points": [{"co": {"Y": -1, "X": 1}, "interpolation": 2}]}, "perspective_c1_x": {"Points": [{"co": {"Y": -1, "X": 1}, "interpolation": 2}]}, "anchor": 0, "alpha": {"Points": [{"co": {"Y": 1, "X": 1}, "interpolation": 2}]}, "id": "04TSZRCDQD", "layer": 0, "file_id": "0F0RWXSQM9", "display": 0, "scale": 1, "gravity": 4, "crop_width": {"Points": [{"co": {"Y": -1, "X": 1}, "interpolation": 2}]}, "crop_x": {"Points": [{"co": {"Y": 0, "X": 1}, "interpolation": 2}]}, "shear_x": {"Points": [{"co": {"Y": 0, "X": 1}, "interpolation": 2}]}, "volume": {"Points": [{"co": {"Y": 1, "X": 1}, "interpolation": 2}]}, "start": 0, "rotation": {"Points": [{"co": {"Y": 0, "X": 1}, "interpolation": 2}]}, "reader": {"video_stream_index": -1, "video_length": "2592000", "interlaced_frame": false, "audio_bit_rate": 0, "audio_timebase": {"den": 1, "num": 1}, "vcodec": "", "channels": 0, "has_video": true, "channel_layout": 4, "has_audio": false, "video_timebase": {"den": 30, "num": 1}, "has_single_image": true, "acodec": "", "height": 1080, "video_bit_rate": 0, "display_ratio": {"den": 9, "num": 16}, "audio_stream_index": -1, "type": "QtImageReader", "top_field_first": true, "width": 1920, "pixel_ratio": {"den": 1, "num": 1}, "sample_rate": 0, "duration": 86400.0, "file_size": "8294400", "path": "!000-White-Background.svg", "fps": {"den": 1, "num": 30}, "pixel_format": -1}, "position": 66.13, "has_video": {"Points": [{"co": {"Y": -1, "X": 1}, "interpolation": 2}]}, "has_audio": {"Points": [{"co": {"Y": -1, "X": 1}, "interpolation": 2}]}, "channel_mapping": {"Points": [{"co": {"Y": -1, "X": 1}, "interpolation": 2}]}, "end": 12.99, "shear_y": {"Points": [{"co": {"Y": 0, "X": 1}, "interpolation": 2}]}, "perspective_c3_y": {"Points": [{"co": {"Y": -1, "X": 1}, "interpolation": 2}]}, "scale_x": {"Points": [{"co": {"Y": 1, "X": 1}, "interpolation": 2}]}, "location_x": {"Points": [{"co": {"Y": 0, "X": 1}, "interpolation": 2}]}, "location_y": {"Points": [{"co": {"Y": 0, "X": 1}, "interpolation": 2}]}, "crop_height": {"Points": [{"co": {"Y": -1, "X": 1}, "interpolation": 2}]}, "perspective_c2_y": {"Points": [{"co": {"Y": -1, "X": 1}, "interpolation": 2}]}, "waveform": false, "perspective_c1_y": {"Points": [{"co": {"Y": -1, "X": 1}, "interpolation": 2}]}, "title": "!000-White-Background.svg", "perspective_c4_y": {"Points": [{"co": {"Y": -1, "X": 1}, "interpolation": 2}]}, "duration": 86400.0, "wave_color": {"red": {"Points": [{"handle_right": {"Y": 0, "X": 0.5}, "handle_type": 0, "handle_left": {"Y": 1, "X": 0.5}, "co": {"Y": 0, "X": 1}, "interpolation": 0}]}, "green": {"Points": [{"handle_right": {"Y": 0, "X": 0.5}, "handle_type": 0, "handle_left": {"Y": 1, "X": 0.5}, "co": {"Y": 123, "X": 1}, "interpolation": 0}]}, "blue": {"Points": [{"handle_right": {"Y": 0, "X": 0.5}, "handle_type": 0, "handle_left": {"Y": 1, "X": 0.5}, "co": {"Y": 255, "X": 1}, "interpolation": 0}]}, "alpha": {"Points": [{"handle_right": {"Y": 0, "X": 0.5}, "handle_type": 0, "handle_left": {"Y": 1, "X": 0.5}, "co": {"Y": 255, "X": 1}, "interpolation": 0}]}}, "time": {"Points": [{"co": {"Y": 1, "X": 1}, "interpolation": 2}]}, "crop_y": {"Points": [{"co": {"Y": 0, "X": 1}, "interpolation": 2}]}, "scale_y": {"Points": [{"co": {"Y": 1, "X": 1}, "interpolation": 2}]}, "effects": []}, {"perspective_c2_x": {"Points": [{"co": {"Y": -1, "X": 1}, "interpolation": 2}]}, "perspective_c3_x": {"Points": [{"co": {"Y": -1, "X": 1}, "interpolation": 2}]}, "perspective_c4_x": {"Points": [{"co": {"Y": -1, "X": 1}, "interpolation": 2}]}, "channel_filter": {"Points": [{"co": {"Y": -1, "X": 1}, "interpolation": 2}]}, "image": "../../../.openshot_qt/thumbnail/O28Z229VIU.png", "shear_y": {"Points": [{"co": {"Y": 0, "X": 1}, "interpolation": 2}]}, "perspective_c1_x": {"Points": [{"co": {"Y": -1, "X": 1}, "interpolation": 2}]}, "anchor": 0, "alpha": {"Points": [{"co": {"Y": 1, "X": 1}, "interpolation": 2}, {"handle_right": {"Y": 0, "X": 0.5}, "handle_type": 0, "handle_left": {"Y": 1, "X": 0.5}, "co": {"Y": 0, "X": 1}, "interpolation": 0}, {"handle_right": {"Y": 0, "X": 0.5}, "handle_type": 0, "handle_left": {"Y": 1, "X": 0.5}, "co": {"Y": 1, "X": 73}, "interpolation": 0}, {"handle_right": {"Y": 0, "X": 0.5}, "handle_type": 0, "handle_left": {"Y": 1, "X": 0.5}, "co": {"Y": 1, "X": 49}, "interpolation": 0}, {"handle_right": {"Y": 0, "X": 0.5}, "handle_type": 0, "handle_left": {"Y": 1, "X": 0.5}, "co": {"Y": 0, "X": 121}, "interpolation": 0}]}, "id": "YVXCHQZADD", "layer": 2, "file_id": "O28Z229VIU", "display": 0, "scale": 1, "gravity": 4, "crop_width": {"Points": [{"co": {"Y": -1, "X": 1}, "interpolation": 2}]}, "crop_x": {"Points": [{"co": {"Y": 0, "X": 1}, "interpolation": 2}]}, "shear_x": {"Points": [{"co": {"Y": 0, "X": 1}, "interpolation": 2}]}, "volume": {"Points": [{"co": {"Y": 1, "X": 1}, "interpolation": 2}]}, "start": 0, "rotation": {"Points": [{"co": {"Y": 0, "X": 1}, "interpolation": 2}]}, "reader": {"video_stream_index": -1, "video_length": "2592000", "interlaced_frame": false, "audio_bit_rate": 0, "audio_timebase": {"den": 1, "num": 1}, "vcodec": "", "channels": 0, "has_video": true, "channel_layout": 4, "has_audio": false, "video_timebase": {"den": 30, "num": 1}, "has_single_image": true, "acodec": "", "height": 3827, "video_bit_rate": 0, "display_ratio": {"den": 3827, "num": 6803}, "audio_stream_index": -1, "type": "QtImageReader", "top_field_first": true, "width": 6803, "pixel_ratio": {"den": 1, "num": 1}, "sample_rate": 0, "duration": 86400.0, "file_size": "104140324", "path": "!072-Grace Total.svg", "fps": {"den": 1, "num": 30}, "pixel_format": -1}, "position": 11.708333333333332, "has_video": {"Points": [{"co": {"Y": -1, "X": 1}, "interpolation": 2}]}, "has_audio": {"Points": [{"co": {"Y": -1, "X": 1}, "interpolation": 2}]}, "channel_mapping": {"Points": [{"co": {"Y": -1, "X": 1}, "interpolation": 2}]}, "end": 5, "waveform": false, "perspective_c3_y": {"Points": [{"co": {"Y": -1, "X": 1}, "interpolation": 2}]}, "scale_x": {"Points": [{"co": {"Y": 1, "X": 1}, "interpolation": 2}]}, "location_x": {"Points": [{"co": {"Y": 0, "X": 1}, "interpolation": 2}]}, "location_y": {"Points": [{"co": {"Y": 0, "X": 1}, "interpolation": 2}]}, "crop_height": {"Points": [{"co": {"Y": -1, "X": 1}, "interpolation": 2}]}, "perspective_c2_y": {"Points": [{"co": {"Y": -1, "X": 1}, "interpolation": 2}]}, "perspective_c1_y": {"Points": [{"co": {"Y": -1, "X": 1}, "interpolation": 2}]}, "title": "!072-Grace Total.svg", "perspective_c4_y": {"Points": [{"co": {"Y": -1, "X": 1}, "interpolation": 2}]}, "duration": 86400.0, "wave_color": {"red": {"Points": [{"handle_right": {"Y": 0, "X": 0.5}, "handle_type": 0, "handle_left": {"Y": 1, "X": 0.5}, "co": {"Y": 0, "X": 1}, "interpolation": 0}]}, "green": {"Points": [{"handle_right": {"Y": 0, "X": 0.5}, "handle_type": 0, "handle_left": {"Y": 1, "X": 0.5}, "co": {"Y": 123, "X": 1}, "interpolation": 0}]}, "blue": {"Points": [{"handle_right": {"Y": 0, "X": 0.5}, "handle_type": 0, "handle_left": {"Y": 1, "X": 0.5}, "co": {"Y": 255, "X": 1}, "interpolation": 0}]}, "alpha": {"Points": [{"handle_right": {"Y": 0, "X": 0.5}, "handle_type": 0, "handle_left": {"Y": 1, "X": 0.5}, "co": {"Y": 255, "X": 1}, "interpolation": 0}]}}, "time": {"Points": [{"co": {"Y": 1, "X": 1}, "interpolation": 2}]}, "crop_y": {"Points": [{"co": {"Y": 0, "X": 1}, "interpolation": 2}]}, "scale_y": {"Points": [{"co": {"Y": 1, "X": 1}, "interpolation": 2}]}, "effects": []}, {"perspective_c2_x": {"Points": [{"co": {"Y": -1, "X": 1}, "interpolation": 2}]}, "perspective_c3_x": {"Points": [{"co": {"Y": -1, "X": 1}, "interpolation": 2}]}, "perspective_c4_x": {"Points": [{"co": {"Y": -1, "X": 1}, "interpolation": 2}]}, "channel_filter": {"Points": [{"co": {"Y": -1, "X": 1}, "interpolation": 2}]}, "image": "../../../.openshot_qt/thumbnail/BUXZX40N2J.png", "shear_y": {"Points": [{"co": {"Y": 0, "X": 1}, "interpolation": 2}]}, "perspective_c1_x": {"Points": [{"co": {"Y": -1, "X": 1}, "interpolation": 2}]}, "anchor": 0, "alpha": {"Points": [{"co": {"Y": 1, "X": 1}, "interpolation": 2}, {"handle_right": {"Y": 0, "X": 0.5}, "handle_type": 0, "handle_left": {"Y": 1, "X": 0.5}, "co": {"Y": 0, "X": 1}, "interpolation": 0}, {"handle_right": {"Y": 0, "X": 0.5}, "handle_type": 0, "handle_left": {"Y": 1, "X": 0.5}, "co": {"Y": 1, "X": 73}, "interpolation": 0}, {"handle_right": {"Y": 0, "X": 0.5}, "handle_type": 0, "handle_left": {"Y": 1, "X": 0.5}, "co": {"Y": 1, "X": 49}, "interpolation": 0}, {"handle_right": {"Y": 0, "X": 0.5}, "handle_type": 0, "handle_left": {"Y": 1, "X": 0.5}, "co": {"Y": 0, "X": 121}, "interpolation": 0}]}, "id": "GPTZ9M5371", "layer": 2, "file_id": "BUXZX40N2J", "display": 0, "scale": 1, "gravity": 4, "crop_width": {"Points": [{"co": {"Y": -1, "X": 1}, "interpolation": 2}]}, "crop_x": {"Points": [{"co": {"Y": 0, "X": 1}, "interpolation": 2}]}, "shear_x": {"Points": [{"co": {"Y": 0, "X": 1}, "interpolation": 2}]}, "volume": {"Points": [{"co": {"Y": 1, "X": 1}, "interpolation": 2}]}, "start": 0, "rotation": {"Points": [{"co": {"Y": 0, "X": 1}, "interpolation": 2}]}, "reader": {"video_stream_index": -1, "video_length": "2592000", "interlaced_frame": false, "audio_bit_rate": 0, "audio_timebase": {"den": 1, "num": 1}, "vcodec": "", "channels": 0, "has_video": true, "channel_layout": 4, "has_audio": false, "video_timebase": {"den": 30, "num": 1}, "has_single_image": true, "acodec": "", "height": 3827, "video_bit_rate": 0, "display_ratio": {"den": 3827, "num": 6803}, "audio_stream_index": -1, "type": "QtImageReader", "top_field_first": true, "width": 6803, "pixel_ratio": {"den": 1, "num": 1}, "sample_rate": 0, "duration": 86400.0, "file_size": "104140324", "path": "!073-Graced Subject Count.svg", "fps": {"den": 1, "num": 30}, "pixel_format": -1}, "position": 24.125000000000004, "has_video": {"Points": [{"co": {"Y": -1, "X": 1}, "interpolation": 2}]}, "has_audio": {"Points": [{"co": {"Y": -1, "X": 1}, "interpolation": 2}]}, "channel_mapping": {"Points": [{"co": {"Y": -1, "X": 1}, "interpolation": 2}]}, "end": 5, "waveform": false, "perspective_c3_y": {"Points": [{"co": {"Y": -1, "X": 1}, "interpolation": 2}]}, "scale_x": {"Points": [{"co": {"Y": 1, "X": 1}, "interpolation": 2}]}, "location_x": {"Points": [{"co": {"Y": 0, "X": 1}, "interpolation": 2}]}, "location_y": {"Points": [{"co": {"Y": 0, "X": 1}, "interpolation": 2}]}, "crop_height": {"Points": [{"co": {"Y": -1, "X": 1}, "interpolation": 2}]}, "perspective_c2_y": {"Points": [{"co": {"Y": -1, "X": 1}, "interpolation": 2}]}, "perspective_c1_y": {"Points": [{"co": {"Y": -1, "X": 1}, "interpolation": 2}]}, "title": "!073-Graced Subject Count.svg", "perspective_c4_y": {"Points": [{"co": {"Y": -1, "X": 1}, "interpolation": 2}]}, "duration": 86400.0, "wave_color": {"red": {"Points": [{"handle_right": {"Y": 0, "X": 0.5}, "handle_type": 0, "handle_left": {"Y": 1, "X": 0.5}, "co": {"Y": 0, "X": 1}, "interpolation": 0}]}, "green": {"Points": [{"handle_right": {"Y": 0, "X": 0.5}, "handle_type": 0, "handle_left": {"Y": 1, "X": 0.5}, "co": {"Y": 123, "X": 1}, "interpolation": 0}]}, "blue": {"Points": [{"handle_right": {"Y": 0, "X": 0.5}, "handle_type": 0, "handle_left": {"Y": 1, "X": 0.5}, "co": {"Y": 255, "X": 1}, "interpolation": 0}]}, "alpha": {"Points": [{"handle_right": {"Y": 0, "X": 0.5}, "handle_type": 0, "handle_left": {"Y": 1, "X": 0.5}, "co": {"Y": 255, "X": 1}, "interpolation": 0}]}}, "time": {"Points": [{"co": {"Y": 1, "X": 1}, "interpolation": 2}]}, "crop_y": {"Points": [{"co": {"Y": 0, "X": 1}, "interpolation": 2}]}, "scale_y": {"Points": [{"co": {"Y": 1, "X": 1}, "interpolation": 2}]}, "effects": []}, {"perspective_c2_x": {"Points": [{"co": {"Y": -1, "X": 1}, "interpolation": 2}]}, "perspective_c3_x": {"Points": [{"co": {"Y": -1, "X": 1}, "interpolation": 2}]}, "perspective_c4_x": {"Points": [{"co": {"Y": -1, "X": 1}, "interpolation": 2}]}, "channel_filter": {"Points": [{"co": {"Y": -1, "X": 1}, "interpolation": 2}]}, "image": "../../../.openshot_qt/thumbnail/MZ4ILBST6I.png", "shear_y": {"Points": [{"co": {"Y": 0, "X": 1}, "interpolation": 2}]}, "perspective_c1_x": {"Points": [{"co": {"Y": -1, "X": 1}, "interpolation": 2}]}, "anchor": 0, "alpha": {"Points": [{"co": {"Y": 1, "X": 1}, "interpolation": 2}, {"handle_right": {"Y": 0, "X": 0.5}, "handle_type": 0, "handle_left": {"Y": 1, "X": 0.5}, "co": {"Y": 0, "X": 1}, "interpolation": 0}, {"handle_right": {"Y": 0, "X": 0.5}, "handle_type": 0, "handle_left": {"Y": 1, "X": 0.5}, "co": {"Y": 1, "X": 73}, "interpolation": 0}, {"handle_right": {"Y": 0, "X": 0.5}, "handle_type": 0, "handle_left": {"Y": 1, "X": 0.5}, "co": {"Y": 1, "X": 49}, "interpolation": 0}, {"handle_right": {"Y": 0, "X": 0.5}, "handle_type": 0, "handle_left": {"Y": 1, "X": 0.5}, "co": {"Y": 0, "X": 121}, "interpolation": 0}]}, "id": "MH73AEFXVE", "layer": 2, "file_id": "MZ4ILBST6I", "display": 0, "scale": 1, "gravity": 4, "crop_width": {"Points": [{"co": {"Y": -1, "X": 1}, "interpolation": 2}]}, "crop_x": {"Points": [{"co": {"Y": 0, "X": 1}, "interpolation": 2}]}, "shear_x": {"Points": [{"co": {"Y": 0, "X": 1}, "interpolation": 2}]}, "volume": {"Points": [{"co": {"Y": 1, "X": 1}, "interpolation": 2}]}, "start": 0, "rotation": {"Points": [{"co": {"Y": 0, "X": 1}, "interpolation": 2}]}, "reader": {"video_stream_index": -1, "video_length": "2592000", "interlaced_frame": false, "audio_bit_rate": 0, "audio_timebase": {"den": 1, "num": 1}, "vcodec": "", "channels": 0, "has_video": true, "channel_layout": 4, "has_audio": false, "video_timebase": {"den": 30, "num": 1}, "has_single_image": true, "acodec": "", "height": 3827, "video_bit_rate": 0, "display_ratio": {"den": 3827, "num": 6803}, "audio_stream_index": -1, "type": "QtImageReader", "top_field_first": true, "width": 6803, "pixel_ratio": {"den": 1, "num": 1}, "sample_rate": 0, "duration": 86400.0, "file_size": "104140324", "path": "!074-Grace Greater Than 10.svg", "fps": {"den": 1, "num": 30}, "pixel_format": -1}, "position": 39.458333333333336, "has_video": {"Points": [{"co": {"Y": -1, "X": 1}, "interpolation": 2}]}, "has_audio": {"Points": [{"co": {"Y": -1, "X": 1}, "interpolation": 2}]}, "channel_mapping": {"Points": [{"co": {"Y": -1, "X": 1}, "interpolation": 2}]}, "end": 5, "waveform": false, "perspective_c3_y": {"Points": [{"co": {"Y": -1, "X": 1}, "interpolation": 2}]}, "scale_x": {"Points": [{"co": {"Y": 1, "X": 1}, "interpolation": 2}]}, "location_x": {"Points": [{"co": {"Y": 0, "X": 1}, "interpolation": 2}]}, "location_y": {"Points": [{"co": {"Y": 0, "X": 1}, "interpolation": 2}]}, "crop_height": {"Points": [{"co": {"Y": -1, "X": 1}, "interpolation": 2}]}, "perspective_c2_y": {"Points": [{"co": {"Y": -1, "X": 1}, "interpolation": 2}]}, "perspective_c1_y": {"Points": [{"co": {"Y": -1, "X": 1}, "interpolation": 2}]}, "title": "!074-Grace Greater Than 10.svg", "perspective_c4_y": {"Points": [{"co": {"Y": -1, "X": 1}, "interpolation": 2}]}, "duration": 86400.0, "wave_color": {"red": {"Points": [{"handle_right": {"Y": 0, "X": 0.5}, "handle_type": 0, "handle_left": {"Y": 1, "X": 0.5}, "co": {"Y": 0, "X": 1}, "interpolation": 0}]}, "green": {"Points": [{"handle_right": {"Y": 0, "X": 0.5}, "handle_type": 0, "handle_left": {"Y": 1, "X": 0.5}, "co": {"Y": 123, "X": 1}, "interpolation": 0}]}, "blue": {"Points": [{"handle_right": {"Y": 0, "X": 0.5}, "handle_type": 0, "handle_left": {"Y": 1, "X": 0.5}, "co": {"Y": 255, "X": 1}, "interpolation": 0}]}, "alpha": {"Points": [{"handle_right": {"Y": 0, "X": 0.5}, "handle_type": 0, "handle_left": {"Y": 1, "X": 0.5}, "co": {"Y": 255, "X": 1}, "interpolation": 0}]}}, "time": {"Points": [{"co": {"Y": 1, "X": 1}, "interpolation": 2}]}, "crop_y": {"Points": [{"co": {"Y": 0, "X": 1}, "interpolation": 2}]}, "scale_y": {"Points": [{"co": {"Y": 1, "X": 1}, "interpolation": 2}]}, "effects": []}, {"perspective_c2_x": {"Points": [{"co": {"Y": -1, "X": 1}, "interpolation": 2}]}, "perspective_c3_x": {"Points": [{"co": {"Y": -1, "X": 1}, "interpolation": 2}]}, "perspective_c4_x": {"Points": [{"co": {"Y": -1, "X": 1}, "interpolation": 2}]}, "channel_filter": {"Points": [{"co": {"Y": -1, "X": 1}, "interpolation": 2}]}, "image": "../../../.openshot_qt/thumbnail/55LKUBO9MG.png", "shear_y": {"Points": [{"co": {"Y": 0, "X": 1}, "interpolation": 2}]}, "perspective_c1_x": {"Points": [{"co": {"Y": -1, "X": 1}, "interpolation": 2}]}, "anchor": 0, "alpha": {"Points": [{"co": {"Y": 1, "X": 1}, "interpolation": 2}, {"handle_right": {"Y": 0, "X": 0.5}, "handle_type": 0, "handle_left": {"Y": 1, "X": 0.5}, "co": {"Y": 0, "X": 1}, "interpolation": 0}, {"handle_right": {"Y": 0, "X": 0.5}, "handle_type": 0, "handle_left": {"Y": 1, "X": 0.5}, "co": {"Y": 1, "X": 73}, "interpolation": 0}, {"handle_right": {"Y": 0, "X": 0.5}, "handle_type": 0, "handle_left": {"Y": 1, "X": 0.5}, "co": {"Y": 1, "X": 49}, "interpolation": 0}, {"handle_right": {"Y": 0, "X": 0.5}, "handle_type": 0, "handle_left": {"Y": 1, "X": 0.5}, "co": {"Y": 0, "X": 121}, "interpolation": 0}]}, "id": "2D6KOKWEJY", "layer": 2, "file_id": "55LKUBO9MG", "display": 0, "scale": 1, "gravity": 4, "crop_width": {"Points": [{"co": {"Y": -1, "X": 1}, "interpolation": 2}]}, "crop_x": {"Points": [{"co": {"Y": 0, "X": 1}, "interpolation": 2}]}, "shear_x": {"Points": [{"co": {"Y": 0, "X": 1}, "interpolation": 2}]}, "volume": {"Points": [{"co": {"Y": 1, "X": 1}, "interpolation": 2}]}, "start": 0, "rotation": {"Points": [{"co": {"Y": 0, "X": 1}, "interpolation": 2}]}, "reader": {"video_stream_index": -1, "video_length": "2592000", "interlaced_frame": false, "audio_bit_rate": 0, "audio_timebase": {"den": 1, "num": 1}, "vcodec": "", "channels": 0, "has_video": true, "channel_layout": 4, "has_audio": false, "video_timebase": {"den": 30, "num": 1}, "has_single_image": true, "acodec": "", "height": 3827, "video_bit_rate": 0, "display_ratio": {"den": 3827, "num": 6803}, "audio_stream_index": -1, "type": "QtImageReader", "top_field_first": true, "width": 6803, "pixel_ratio": {"den": 1, "num": 1}, "sample_rate": 0, "duration": 86400.0, "file_size": "104140324", "path": "!001-Copy (Ctrl-C).svg", "fps": {"den": 1, "num": 30}, "pixel_format": -1}, "position": 56.791666666666664, "has_video": {"Points": [{"co": {"Y": -1, "X": 1}, "interpolation": 2}]}, "has_audio": {"Points": [{"co": {"Y": -1, "X": 1}, "interpolation": 2}]}, "channel_mapping": {"Points": [{"co": {"Y": -1, "X": 1}, "interpolation": 2}]}, "end": 5, "waveform": false, "perspective_c3_y": {"Points": [{"co": {"Y": -1, "X": 1}, "interpolation": 2}]}, "scale_x": {"Points": [{"co": {"Y": 1, "X": 1}, "interpolation": 2}]}, "location_x": {"Points": [{"co": {"Y": 0, "X": 1}, "interpolation": 2}]}, "location_y": {"Points": [{"co": {"Y": 0, "X": 1}, "interpolation": 2}]}, "crop_height": {"Points": [{"co": {"Y": -1, "X": 1}, "interpolation": 2}]}, "perspective_c2_y": {"Points": [{"co": {"Y": -1, "X": 1}, "interpolation": 2}]}, "perspective_c1_y": {"Points": [{"co": {"Y": -1, "X": 1}, "interpolation": 2}]}, "title": "!001-Copy (Ctrl-C).svg", "perspective_c4_y": {"Points": [{"co": {"Y": -1, "X": 1}, "interpolation": 2}]}, "duration": 86400.0, "wave_color": {"red": {"Points": [{"handle_right": {"Y": 0, "X": 0.5}, "handle_type": 0, "handle_left": {"Y": 1, "X": 0.5}, "co": {"Y": 0, "X": 1}, "interpolation": 0}]}, "green": {"Points": [{"handle_right": {"Y": 0, "X": 0.5}, "handle_type": 0, "handle_left": {"Y": 1, "X": 0.5}, "co": {"Y": 123, "X": 1}, "interpolation": 0}]}, "blue": {"Points": [{"handle_right": {"Y": 0, "X": 0.5}, "handle_type": 0, "handle_left": {"Y": 1, "X": 0.5}, "co": {"Y": 255, "X": 1}, "interpolation": 0}]}, "alpha": {"Points": [{"handle_right": {"Y": 0, "X": 0.5}, "handle_type": 0, "handle_left": {"Y": 1, "X": 0.5}, "co": {"Y": 255, "X": 1}, "interpolation": 0}]}}, "time": {"Points": [{"co": {"Y": 1, "X": 1}, "interpolation": 2}]}, "crop_y": {"Points": [{"co": {"Y": 0, "X": 1}, "interpolation": 2}]}, "scale_y": {"Points": [{"co": {"Y": 1, "X": 1}, "interpolation": 2}]}, "effects": []}, {"perspective_c2_x": {"Points": [{"co": {"Y": -1, "X": 1}, "interpolation": 2}]}, "perspective_c3_x": {"Points": [{"co": {"Y": -1, "X": 1}, "interpolation": 2}]}, "perspective_c4_x": {"Points": [{"co": {"Y": -1, "X": 1}, "interpolation": 2}]}, "channel_filter": {"Points": [{"co": {"Y": -1, "X": 1}, "interpolation": 2}]}, "image": "../../../.openshot_qt/thumbnail/JP5L750RMR.png", "shear_y": {"Points": [{"co": {"Y": 0, "X": 1}, "interpolation": 2}]}, "perspective_c1_x": {"Points": [{"co": {"Y": -1, "X": 1}, "interpolation": 2}]}, "anchor": 0, "alpha": {"Points": [{"co": {"Y": 1, "X": 1}, "interpolation": 2}, {"handle_right": {"Y": 0, "X": 0.5}, "handle_type": 0, "handle_left": {"Y": 1, "X": 0.5}, "co": {"Y": 0, "X": 1}, "interpolation": 0}, {"handle_right": {"Y": 0, "X": 0.5}, "handle_type": 0, "handle_left": {"Y": 1, "X": 0.5}, "co": {"Y": 1, "X": 73}, "interpolation": 0}, {"handle_right": {"Y": 0, "X": 0.5}, "handle_type": 0, "handle_left": {"Y": 1, "X": 0.5}, "co": {"Y": 1, "X": 49}, "interpolation": 0}, {"handle_right": {"Y": 0, "X": 0.5}, "handle_type": 0, "handle_left": {"Y": 1, "X": 0.5}, "co": {"Y": 0, "X": 121}, "interpolation": 0}]}, "id": "GS9HYSSMO4", "layer": 2, "file_id": "JP5L750RMR", "display": 0, "scale": 1, "gravity": 4, "crop_width": {"Points": [{"co": {"Y": -1, "X": 1}, "interpolation": 2}]}, "crop_x": {"Points": [{"co": {"Y": 0, "X": 1}, "interpolation": 2}]}, "shear_x": {"Points": [{"co": {"Y": 0, "X": 1}, "interpolation": 2}]}, "volume": {"Points": [{"co": {"Y": 1, "X": 1}, "interpolation": 2}]}, "start": 0, "rotation": {"Points": [{"co": {"Y": 0, "X": 1}, "interpolation": 2}]}, "reader": {"video_stream_index": -1, "video_length": "2592000", "interlaced_frame": false, "audio_bit_rate": 0, "audio_timebase": {"den": 1, "num": 1}, "vcodec": "", "channels": 0, "has_video": true, "channel_layout": 4, "has_audio": false, "video_timebase": {"den": 30, "num": 1}, "has_single_image": true, "acodec": "", "height": 3827, "video_bit_rate": 0, "display_ratio": {"den": 3827, "num": 6803}, "audio_stream_index": -1, "type": "QtImageReader", "top_field_first": true, "width": 6803, "pixel_ratio": {"den": 1, "num": 1}, "sample_rate": 0, "duration": 86400.0, "file_size": "104140324", "path": "!002-Paste (Ctrl-V).svg", "fps": {"den": 1, "num": 30}, "pixel_format": -1}, "position": 62.25, "has_video": {"Points": [{"co": {"Y": -1, "X": 1}, "interpolation": 2}]}, "has_audio": {"Points": [{"co": {"Y": -1, "X": 1}, "interpolation": 2}]}, "channel_mapping": {"Points": [{"co": {"Y": -1, "X": 1}, "interpolation": 2}]}, "end": 5, "waveform": false, "perspective_c3_y": {"Points": [{"co": {"Y": -1, "X": 1}, "interpolation": 2}]}, "scale_x": {"Points": [{"co": {"Y": 1, "X": 1}, "interpolation": 2}]}, "location_x": {"Points": [{"co": {"Y": 0, "X": 1}, "interpolation": 2}]}, "location_y": {"Points": [{"co": {"Y": 0, "X": 1}, "interpolation": 2}]}, "crop_height": {"Points": [{"co": {"Y": -1, "X": 1}, "interpolation": 2}]}, "perspective_c2_y": {"Points": [{"co": {"Y": -1, "X": 1}, "interpolation": 2}]}, "perspective_c1_y": {"Points": [{"co": {"Y": -1, "X": 1}, "interpolation": 2}]}, "title": "!002-Paste (Ctrl-V).svg", "perspective_c4_y": {"Points": [{"co": {"Y": -1, "X": 1}, "interpolation": 2}]}, "duration": 86400.0, "wave_color": {"red": {"Points": [{"handle_right": {"Y": 0, "X": 0.5}, "handle_type": 0, "handle_left": {"Y": 1, "X": 0.5}, "co": {"Y": 0, "X": 1}, "interpolation": 0}]}, "green": {"Points": [{"handle_right": {"Y": 0, "X": 0.5}, "handle_type": 0, "handle_left": {"Y": 1, "X": 0.5}, "co": {"Y": 123, "X": 1}, "interpolation": 0}]}, "blue": {"Points": [{"handle_right": {"Y": 0, "X": 0.5}, "handle_type": 0, "handle_left": {"Y": 1, "X": 0.5}, "co": {"Y": 255, "X": 1}, "interpolation": 0}]}, "alpha": {"Points": [{"handle_right": {"Y": 0, "X": 0.5}, "handle_type": 0, "handle_left": {"Y": 1, "X": 0.5}, "co": {"Y": 255, "X": 1}, "interpolation": 0}]}}, "time": {"Points": [{"co": {"Y": 1, "X": 1}, "interpolation": 2}]}, "crop_y": {"Points": [{"co": {"Y": 0, "X": 1}, "interpolation": 2}]}, "scale_y": {"Points": [{"co": {"Y": 1, "X": 1}, "interpolation": 2}]}, "effects": []}, {"shear_x": {"Points": [{"co": {"Y": 0, "X": 1}, "interpolation": 2}]}, "channel_filter": {"Points": [{"co": {"Y": -1, "X": 1}, "interpolation": 2}]}, "duration": 86400.0, "anchor": 0, "alpha": {"Points": [{"co": {"Y": 1, "X": 1}, "interpolation": 2}, {"handle_right": {"Y": 0, "X": 0.5}, "handle_type": 0, "handle_left": {"Y": 1, "X": 0.5}, "co": {"Y": 0, "X": 1}, "interpolation": 0}, {"handle_right": {"Y": 0, "X": 0.5}, "handle_type": 0, "handle_left": {"Y": 1, "X": 0.5}, "co": {"Y": 1, "X": 73}, "interpolation": 0}, {"handle_right": {"Y": 0, "X": 0.5}, "handle_type": 0, "handle_left": {"Y": 1, "X": 0.5}, "co": {"Y": 1, "X": 49}, "interpolation": 0}, {"handle_right": {"Y": 0, "X": 0.5}, "handle_type": 0, "handle_left": {"Y": 1, "X": 0.5}, "co": {"Y": 0, "X": 121}, "interpolation": 0}]}, "layer": 1, "scale": 1, "gravity": 4, "crop_width": {"Points": [{"co": {"Y": -1, "X": 1}, "interpolation": 2}]}, "crop_x": {"Points": [{"co": {"Y": 0, "X": 1}, "interpolation": 2}]}, "start": 0, "rotation": {"Points": [{"co": {"Y": 0, "X": 1}, "interpolation": 2}]}, "image": "../../../.openshot_qt/thumbnail/9MDVH2JM9J.png", "has_audio": {"Points": [{"co": {"Y": -1, "X": 1}, "interpolation": 2}]}, "channel_mapping": {"Points": [{"co": {"Y": -1, "X": 1}, "interpolation": 2}]}, "end": 5, "waveform": false, "scale_x": {"Points": [{"co": {"Y": 1, "X": 1}, "interpolation": 2}]}, "time": {"Points": [{"co": {"Y": 1, "X": 1}, "interpolation": 2}]}, "shear_y": {"Points": [{"co": {"Y": 0, "X": 1}, "interpolation": 2}]}, "scale_y": {"Points": [{"co": {"Y": 1, "X": 1}, "interpolation": 2}]}, "effects": [], "perspective_c4_x": {"Points": [{"co": {"Y": -1, "X": 1}, "interpolation": 2}]}, "perspective_c1_x": {"Points": [{"co": {"Y": -1, "X": 1}, "interpolation": 2}]}, "perspective_c2_x": {"Points": [{"co": {"Y": -1, "X": 1}, "interpolation": 2}]}, "id": "J2KJS854LX", "position": 69.76906249999999, "display": 0, "reader": {"video_stream_index": -1, "video_length": "2592000", "interlaced_frame": false, "audio_bit_rate": 0, "audio_timebase": {"den": 1, "num": 1}, "vcodec": "", "channels": 0, "has_video": true, "channel_layout": 4, "has_audio": false, "video_timebase": {"den": 30, "num": 1}, "has_single_image": true, "acodec": "", "video_bit_rate": 0, "display_ratio": {"den": 3827, "num": 6803}, "audio_stream_index": -1, "type": "QtImageReader", "top_field_first": true, "width": 6803, "pixel_ratio": {"den": 1, "num": 1}, "height": 3827, "duration": 86400.0, "file_size": "104140324", "path": "!085-Pass or Fail.svg", "fps": {"den": 1, "num": 30}, "pixel_format": -1, "sample_rate": 0}, "crop_y": {"Points": [{"co": {"Y": 0, "X": 1}, "interpolation": 2}]}, "volume": {"Points": [{"co": {"Y": 1, "X": 1}, "interpolation": 2}]}, "title": "!085-Pass or Fail.svg", "has_video": {"Points": [{"co": {"Y": -1, "X": 1}, "interpolation": 2}]}, "perspective_c3_y": {"Points": [{"co": {"Y": -1, "X": 1}, "interpolation": 2}]}, "perspective_c3_x": {"Points": [{"co": {"Y": -1, "X": 1}, "interpolation": 2}]}, "location_x": {"Points": [{"co": {"Y": 0, "X": 1}, "interpolation": 2}]}, "location_y": {"Points": [{"co": {"Y": 0, "X": 1}, "interpolation": 2}]}, "file_id": "9MDVH2JM9J", "perspective_c2_y": {"Points": [{"co": {"Y": -1, "X": 1}, "interpolation": 2}]}, "perspective_c1_y": {"Points": [{"co": {"Y": -1, "X": 1}, "interpolation": 2}]}, "perspective_c4_y": {"Points": [{"co": {"Y": -1, "X": 1}, "interpolation": 2}]}, "wave_color": {"red": {"Points": [{"handle_right": {"Y": 0, "X": 0.5}, "handle_type": 0, "handle_left": {"Y": 1, "X": 0.5}, "co": {"Y": 0, "X": 1}, "interpolation": 0}]}, "green": {"Points": [{"handle_right": {"Y": 0, "X": 0.5}, "handle_type": 0, "handle_left": {"Y": 1, "X": 0.5}, "co": {"Y": 123, "X": 1}, "interpolation": 0}]}, "blue": {"Points": [{"handle_right": {"Y": 0, "X": 0.5}, "handle_type": 0, "handle_left": {"Y": 1, "X": 0.5}, "co": {"Y": 255, "X": 1}, "interpolation": 0}]}, "alpha": {"Points": [{"handle_right": {"Y": 0, "X": 0.5}, "handle_type": 0, "handle_left": {"Y": 1, "X": 0.5}, "co": {"Y": 255, "X": 1}, "interpolation": 0}]}}, "crop_height": {"Points": [{"co": {"Y": -1, "X": 1}, "interpolation": 2}]}}, {"perspective_c2_x": {"Points": [{"co": {"Y": -1, "X": 1}, "interpolation": 2}]}, "perspective_c3_x": {"Points": [{"co": {"Y": -1, "X": 1}, "interpolation": 2}]}, "perspective_c4_x": {"Points": [{"co": {"Y": -1, "X": 1}, "interpolation": 2}]}, "channel_filter": {"Points": [{"co": {"Y": -1, "X": 1}, "interpolation": 2}]}, "image": "../../../.openshot_qt/thumbnail/DIHETX3WQ7.png", "shear_y": {"Points": [{"co": {"Y": 0, "X": 1}, "interpolation": 2}]}, "perspective_c1_x": {"Points": [{"co": {"Y": -1, "X": 1}, "interpolation": 2}]}, "anchor": 0, "alpha": {"Points": [{"handle_right": {"Y": 0, "X": 0.5}, "handle_type": 0, "handle_left": {"Y": 1, "X": 0.5}, "co": {"Y": 1, "X": 1}, "interpolation": 0}, {"handle_right": {"Y": 0, "X": 0.5}, "handle_type": 0, "handle_left": {"Y": 1, "X": 0.5}, "co": {"Y": 0, "X": 1}, "interpolation": 0}, {"handle_right": {"Y": 0, "X": 0.5}, "handle_type": 0, "handle_left": {"Y": 1, "X": 0.5}, "co": {"Y": 1, "X": 73}, "interpolation": 0}, {"handle_right": {"Y": 0, "X": 0.5}, "handle_type": 0, "handle_left": {"Y": 1, "X": 0.5}, "co": {"Y": 1, "X": 375}, "interpolation": 0}, {"handle_right": {"Y": 0, "X": 0.5}, "handle_type": 0, "handle_left": {"Y": 1, "X": 0.5}, "co": {"Y": 0, "X": 447}, "interpolation": 0}]}, "id": "UX3VY9TAZP", "layer": 2, "display": 0, "scale": 1, "gravity": 4, "crop_width": {"Points": [{"co": {"Y": -1, "X": 1}, "interpolation": 2}]}, "crop_x": {"Points": [{"co": {"Y": 0, "X": 1}, "interpolation": 2}]}, "shear_x": {"Points": [{"co": {"Y": 0, "X": 1}, "interpolation": 2}]}, "volume": {"Points": [{"co": {"Y": 1, "X": 1}, "interpolation": 2}]}, "start": 0, "title": "!086-IF GT,GC,TC.svg", "has_audio": {"Points": [{"co": {"Y": -1, "X": 1}, "interpolation": 2}]}, "reader": {"video_stream_index": -1, "video_length": "2592000", "interlaced_frame": false, "audio_bit_rate": 0, "audio_timebase": {"den": 1, "num": 1}, "vcodec": "", "channels": 0, "has_video": true, "channel_layout": 4, "has_audio": false, "video_timebase": {"den": 30, "num": 1}, "has_single_image": true, "acodec": "", "height": 3827, "video_bit_rate": 0, "display_ratio": {"den": 3827, "num": 6803}, "audio_stream_index": -1, "type": "QtImageReader", "top_field_first": true, "width": 6803, "pixel_ratio": {"den": 1, "num": 1}, "sample_rate": 0, "duration": 86400.0, "file_size": "104140324", "path": "!086-IF GT,GC,TC.svg", "fps": {"den": 1, "num": 30}, "pixel_format": -1}, "position": 85.265625, "has_video": {"Points": [{"co": {"Y": -1, "X": 1}, "interpolation": 2}]}, "crop_height": {"Points": [{"co": {"Y": -1, "X": 1}, "interpolation": 2}]}, "channel_mapping": {"Points": [{"co": {"Y": -1, "X": 1}, "interpolation": 2}]}, "end": 18.599999999999994, "waveform": false, "perspective_c3_y": {"Points": [{"co": {"Y": -1, "X": 1}, "interpolation": 2}]}, "scale_x": {"Points": [{"co": {"Y": 1, "X": 1}, "interpolation": 2}]}, "location_x": {"Points": [{"co": {"Y": 0, "X": 1}, "interpolation": 2}]}, "location_y": {"Points": [{"co": {"Y": 0, "X": 1}, "interpolation": 2}]}, "crop_y": {"Points": [{"co": {"Y": 0, "X": 1}, "interpolation": 2}]}, "perspective_c2_y": {"Points": [{"co": {"Y": -1, "X": 1}, "interpolation": 2}]}, "perspective_c1_y": {"Points": [{"co": {"Y": -1, "X": 1}, "interpolation": 2}]}, "rotation": {"Points": [{"co": {"Y": 0, "X": 1}, "interpolation": 2}]}, "perspective_c4_y": {"Points": [{"co": {"Y": -1, "X": 1}, "interpolation": 2}]}, "duration": 86400.0, "wave_color": {"red": {"Points": [{"handle_right": {"Y": 0, "X": 0.5}, "handle_type": 0, "handle_left": {"Y": 1, "X": 0.5}, "co": {"Y": 0, "X": 1}, "interpolation": 0}]}, "green": {"Points": [{"handle_right": {"Y": 0, "X": 0.5}, "handle_type": 0, "handle_left": {"Y": 1, "X": 0.5}, "co": {"Y": 123, "X": 1}, "interpolation": 0}]}, "blue": {"Points": [{"handle_right": {"Y": 0, "X": 0.5}, "handle_type": 0, "handle_left": {"Y": 1, "X": 0.5}, "co": {"Y": 255, "X": 1}, "interpolation": 0}]}, "alpha": {"Points": [{"handle_right": {"Y": 0, "X": 0.5}, "handle_type": 0, "handle_left": {"Y": 1, "X": 0.5}, "co": {"Y": 255, "X": 1}, "interpolation": 0}]}}, "time": {"Points": [{"co": {"Y": 1, "X": 1}, "interpolation": 2}]}, "file_id": "DIHETX3WQ7", "scale_y": {"Points": [{"co": {"Y": 1, "X": 1}, "interpolation": 2}]}, "effects": []}, {"perspective_c3_y": {"Points": [{"co": {"Y": -1, "X": 1}, "interpolation": 2}]}, "perspective_c4_x": {"Points": [{"co": {"Y": -1, "X": 1}, "interpolation": 2}]}, "channel_filter": {"Points": [{"co": {"Y": -1, "X": 1}, "interpolation": 2}]}, "image": "../../../.openshot_qt/thumbnail/1QJRY2QLTK.png", "shear_y": {"Points": [{"co": {"Y": 0, "X": 1}, "interpolation": 2}]}, "perspective_c1_x": {"Points": [{"co": {"Y": -1, "X": 1}, "interpolation": 2}]}, "duration": 86400.0, "perspective_c2_x": {"Points": [{"co": {"Y": -1, "X": 1}, "interpolation": 2}]}, "alpha": {"Points": [{"co": {"Y": 1, "X": 1}, "interpolation": 2}, {"handle_right": {"Y": 0, "X": 0.5}, "handle_type": 0, "handle_left": {"Y": 1, "X": 0.5}, "co": {"Y": 0, "X": 1}, "interpolation": 0}, {"handle_right": {"Y": 0, "X": 0.5}, "handle_type": 0, "handle_left": {"Y": 1, "X": 0.5}, "co": {"Y": 1, "X": 73}, "interpolation": 0}, {"handle_right": {"Y": 0, "X": 0.5}, "handle_type": 0, "handle_left": {"Y": 1, "X": 0.5}, "co": {"Y": 1, "X": 49}, "interpolation": 0}, {"handle_right": {"Y": 0, "X": 0.5}, "handle_type": 0, "handle_left": {"Y": 1, "X": 0.5}, "co": {"Y": 0, "X": 121}, "interpolation": 0}]}, "id": "ISJOMX8TQ1", "layer": 2, "display": 0, "scale": 1, "gravity": 4, "crop_width": {"Points": [{"co": {"Y": -1, "X": 1}, "interpolation": 2}]}, "crop_x": {"Points": [{"co": {"Y": 0, "X": 1}, "interpolation": 2}]}, "crop_y": {"Points": [{"co": {"Y": 0, "X": 1}, "interpolation": 2}]}, "volume": {"Points": [{"co": {"Y": 1, "X": 1}, "interpolation": 2}]}, "start": 0, "title": "!105-Average.svg", "reader": {"video_stream_index": -1, "video_length": "2592000", "interlaced_frame": false, "audio_bit_rate": 0, "audio_timebase": {"den": 1, "num": 1}, "vcodec": "", "channels": 0, "has_video": true, "channel_layout": 4, "has_audio": false, "video_timebase": {"den": 30, "num": 1}, "has_single_image": true, "acodec": "", "height": 3827, "video_bit_rate": 0, "display_ratio": {"den": 3827, "num": 6803}, "audio_stream_index": -1, "type": "QtImageReader", "top_field_first": true, "width": 6803, "pixel_ratio": {"den": 1, "num": 1}, "sample_rate": 0, "duration": 86400.0, "file_size": "104140324", "path": "!105-Average.svg", "fps": {"den": 1, "num": 30}, "pixel_format": -1}, "position": 128.11499999999998, "has_video": {"Points": [{"co": {"Y": -1, "X": 1}, "interpolation": 2}]}, "has_audio": {"Points": [{"co": {"Y": -1, "X": 1}, "interpolation": 2}]}, "channel_mapping": {"Points": [{"co": {"Y": -1, "X": 1}, "interpolation": 2}]}, "end": 5, "waveform": false, "perspective_c3_x": {"Points": [{"co": {"Y": -1, "X": 1}, "interpolation": 2}]}, "scale_x": {"Points": [{"co": {"Y": 1, "X": 1}, "interpolation": 2}]}, "location_x": {"Points": [{"co": {"Y": 0, "X": 1}, "interpolation": 2}]}, "location_y": {"Points": [{"co": {"Y": 0, "X": 1}, "interpolation": 2}]}, "file_id": "1QJRY2QLTK", "perspective_c2_y": {"Points": [{"co": {"Y": -1, "X": 1}, "interpolation": 2}]}, "shear_x": {"Points": [{"co": {"Y": 0, "X": 1}, "interpolation": 2}]}, "perspective_c1_y": {"Points": [{"co": {"Y": -1, "X": 1}, "interpolation": 2}]}, "rotation": {"Points": [{"co": {"Y": 0, "X": 1}, "interpolation": 2}]}, "perspective_c4_y": {"Points": [{"co": {"Y": -1, "X": 1}, "interpolation": 2}]}, "anchor": 0, "wave_color": {"red": {"Points": [{"handle_right": {"Y": 0, "X": 0.5}, "handle_type": 0, "handle_left": {"Y": 1, "X": 0.5}, "co": {"Y": 0, "X": 1}, "interpolation": 0}]}, "green": {"Points": [{"handle_right": {"Y": 0, "X": 0.5}, "handle_type": 0, "handle_left": {"Y": 1, "X": 0.5}, "co": {"Y": 123, "X": 1}, "interpolation": 0}]}, "blue": {"Points": [{"handle_right": {"Y": 0, "X": 0.5}, "handle_type": 0, "handle_left": {"Y": 1, "X": 0.5}, "co": {"Y": 255, "X": 1}, "interpolation": 0}]}, "alpha": {"Points": [{"handle_right": {"Y": 0, "X": 0.5}, "handle_type": 0, "handle_left": {"Y": 1, "X": 0.5}, "co": {"Y": 255, "X": 1}, "interpolation": 0}]}}, "time": {"Points": [{"co": {"Y": 1, "X": 1}, "interpolation": 2}]}, "crop_height": {"Points": [{"co": {"Y": -1, "X": 1}, "interpolation": 2}]}, "scale_y": {"Points": [{"co": {"Y": 1, "X": 1}, "interpolation": 2}]}, "effects": []}, {"perspective_c3_y": {"Points": [{"co": {"Y": -1, "X": 1}, "interpolation": 2}]}, "perspective_c4_x": {"Points": [{"co": {"Y": -1, "X": 1}, "interpolation": 2}]}, "channel_filter": {"Points": [{"co": {"Y": -1, "X": 1}, "interpolation": 2}]}, "image": "../../../.openshot_qt/thumbnail/LKFVWV6XVE.png", "shear_y": {"Points": [{"co": {"Y": 0, "X": 1}, "interpolation": 2}]}, "perspective_c1_x": {"Points": [{"co": {"Y": -1, "X": 1}, "interpolation": 2}]}, "duration": 86400.0, "perspective_c2_x": {"Points": [{"co": {"Y": -1, "X": 1}, "interpolation": 2}]}, "alpha": {"Points": [{"co": {"Y": 1, "X": 1}, "interpolation": 2}, {"handle_right": {"Y": 0, "X": 0.5}, "handle_type": 0, "handle_left": {"Y": 1, "X": 0.5}, "co": {"Y": 0, "X": 1}, "interpolation": 0}, {"handle_right": {"Y": 0, "X": 0.5}, "handle_type": 0, "handle_left": {"Y": 1, "X": 0.5}, "co": {"Y": 1, "X": 73}, "interpolation": 0}, {"handle_right": {"Y": 0, "X": 0.5}, "handle_type": 0, "handle_left": {"Y": 1, "X": 0.5}, "co": {"Y": 1, "X": 49}, "interpolation": 0}, {"handle_right": {"Y": 0, "X": 0.5}, "handle_type": 0, "handle_left": {"Y": 1, "X": 0.5}, "co": {"Y": 0, "X": 121}, "interpolation": 0}]}, "id": "98IX31JWVL", "layer": 3, "display": 0, "scale": 1, "gravity": 4, "crop_width": {"Points": [{"co": {"Y": -1, "X": 1}, "interpolation": 2}]}, "crop_x": {"Points": [{"co": {"Y": 0, "X": 1}, "interpolation": 2}]}, "crop_y": {"Points": [{"co": {"Y": 0, "X": 1}, "interpolation": 2}]}, "volume": {"Points": [{"co": {"Y": 1, "X": 1}, "interpolation": 2}]}, "start": 0, "title": "!113-Menu-Format-Cells.svg", "reader": {"video_stream_index": -1, "video_length": "2592000", "interlaced_frame": false, "audio_bit_rate": 0, "audio_timebase": {"den": 1, "num": 1}, "vcodec": "", "channels": 0, "has_video": true, "channel_layout": 4, "has_audio": false, "video_timebase": {"den": 30, "num": 1}, "has_single_image": true, "acodec": "", "height": 3827, "video_bit_rate": 0, "display_ratio": {"den": 3827, "num": 6803}, "audio_stream_index": -1, "type": "QtImageReader", "top_field_first": true, "width": 6803, "pixel_ratio": {"den": 1, "num": 1}, "sample_rate": 0, "duration": 86400.0, "file_size": "104140324", "path": "!113-Menu-Format-Cells.svg", "fps": {"den": 1, "num": 30}, "pixel_format": -1}, "position": 140.165, "has_video": {"Points": [{"co": {"Y": -1, "X": 1}, "interpolation": 2}]}, "has_audio": {"Points": [{"co": {"Y": -1, "X": 1}, "interpolation": 2}]}, "channel_mapping": {"Points": [{"co": {"Y": -1, "X": 1}, "interpolation": 2}]}, "end": 5, "waveform": false, "perspective_c3_x": {"Points": [{"co": {"Y": -1, "X": 1}, "interpolation": 2}]}, "scale_x": {"Points": [{"handle_right": {"Y": 0, "X": 0.5}, "handle_type": 0, "handle_left": {"Y": 1, "X": 0.5}, "co": {"Y": 1, "X": 1}, "interpolation": 0}]}, "location_x": {"Points": [{"handle_right": {"Y": 0, "X": 0.5}, "handle_type": 0, "handle_left": {"Y": 1, "X": 0.5}, "co": {"Y": 0, "X": 1}, "interpolation": 0}]}, "location_y": {"Points": [{"handle_right": {"Y": 0, "X": 0.5}, "handle_type": 0, "handle_left": {"Y": 1, "X": 0.5}, "co": {"Y": -0.05999999865889549, "X": 1}, "interpolation": 0}]}, "file_id": "LKFVWV6XVE", "perspective_c2_y": {"Points": [{"co": {"Y": -1, "X": 1}, "interpolation": 2}]}, "shear_x": {"Points": [{"co": {"Y": 0, "X": 1}, "interpolation": 2}]}, "perspective_c1_y": {"Points": [{"co": {"Y": -1, "X": 1}, "interpolation": 2}]}, "rotation": {"Points": [{"co": {"Y": 0, "X": 1}, "interpolation": 2}]}, "perspective_c4_y": {"Points": [{"co": {"Y": -1, "X": 1}, "interpolation": 2}]}, "anchor": 0, "wave_color": {"red": {"Points": [{"handle_right": {"Y": 0, "X": 0.5}, "handle_type": 0, "handle_left": {"Y": 1, "X": 0.5}, "co": {"Y": 0, "X": 1}, "interpolation": 0}]}, "green": {"Points": [{"handle_right": {"Y": 0, "X": 0.5}, "handle_type": 0, "handle_left": {"Y": 1, "X": 0.5}, "co": {"Y": 123, "X": 1}, "interpolation": 0}]}, "blue": {"Points": [{"handle_right": {"Y": 0, "X": 0.5}, "handle_type": 0, "handle_left": {"Y": 1, "X": 0.5}, "co": {"Y": 255, "X": 1}, "interpolation": 0}]}, "alpha": {"Points": [{"handle_right": {"Y": 0, "X": 0.5}, "handle_type": 0, "handle_left": {"Y": 1, "X": 0.5}, "co": {"Y": 255, "X": 1}, "interpolation": 0}]}}, "time": {"Points": [{"co": {"Y": 1, "X": 1}, "interpolation": 2}]}, "crop_height": {"Points": [{"co": {"Y": -1, "X": 1}, "interpolation": 2}]}, "scale_y": {"Points": [{"handle_right": {"Y": 0, "X": 0.5}, "handle_type": 0, "handle_left": {"Y": 1, "X": 0.5}, "co": {"Y": 1, "X": 1}, "interpolation": 0}]}, "effects": []}, {"perspective_c3_y": {"Points": [{"co": {"Y": -1, "X": 1}, "interpolation": 2}]}, "perspective_c4_x": {"Points": [{"co": {"Y": -1, "X": 1}, "interpolation": 2}]}, "channel_filter": {"Points": [{"co": {"Y": -1, "X": 1}, "interpolation": 2}]}, "image": "../../../.openshot_qt/thumbnail/GS94V0HQUR.png", "shear_y": {"Points": [{"co": {"Y": 0, "X": 1}, "interpolation": 2}]}, "perspective_c1_x": {"Points": [{"co": {"Y": -1, "X": 1}, "interpolation": 2}]}, "duration": 86400.0, "perspective_c2_x": {"Points": [{"co": {"Y": -1, "X": 1}, "interpolation": 2}]}, "alpha": {"Points": [{"co": {"Y": 1, "X": 1}, "interpolation": 2}, {"handle_right": {"Y": 0, "X": 0.5}, "handle_type": 0, "handle_left": {"Y": 1, "X": 0.5}, "co": {"Y": 0, "X": 1}, "interpolation": 0}, {"handle_right": {"Y": 0, "X": 0.5}, "handle_type": 0, "handle_left": {"Y": 1, "X": 0.5}, "co": {"Y": 1, "X": 73}, "interpolation": 0}, {"handle_right": {"Y": 0, "X": 0.5}, "handle_type": 0, "handle_left": {"Y": 1, "X": 0.5}, "co": {"Y": 1, "X": 49}, "interpolation": 0}, {"handle_right": {"Y": 0, "X": 0.5}, "handle_type": 0, "handle_left": {"Y": 1, "X": 0.5}, "co": {"Y": 0, "X": 121}, "interpolation": 0}]}, "id": "TREDM9MF0N", "layer": 3, "display": 0, "scale": 1, "gravity": 4, "crop_width": {"Points": [{"co": {"Y": -1, "X": 1}, "interpolation": 2}]}, "crop_x": {"Points": [{"co": {"Y": 0, "X": 1}, "interpolation": 2}]}, "crop_y": {"Points": [{"co": {"Y": 0, "X": 1}, "interpolation": 2}]}, "volume": {"Points": [{"co": {"Y": 1, "X": 1}, "interpolation": 2}]}, "start": 0, "title": "!114-We need only 2 decimal places.svg", "reader": {"video_stream_index": -1, "video_length": "2592000", "interlaced_frame": false, "audio_bit_rate": 0, "audio_timebase": {"den": 1, "num": 1}, "vcodec": "", "channels": 0, "has_video": true, "channel_layout": 4, "has_audio": false, "video_timebase": {"den": 30, "num": 1}, "has_single_image": true, "acodec": "", "height": 3827, "video_bit_rate": 0, "display_ratio": {"den": 3827, "num": 6803}, "audio_stream_index": -1, "type": "QtImageReader", "top_field_first": true, "width": 6803, "pixel_ratio": {"den": 1, "num": 1}, "sample_rate": 0, "duration": 86400.0, "file_size": "104140324", "path": "!114-We need only 2 decimal places.svg", "fps": {"den": 1, "num": 30}, "pixel_format": -1}, "position": 145.1640625, "has_video": {"Points": [{"co": {"Y": -1, "X": 1}, "interpolation": 2}]}, "has_audio": {"Points": [{"co": {"Y": -1, "X": 1}, "interpolation": 2}]}, "channel_mapping": {"Points": [{"co": {"Y": -1, "X": 1}, "interpolation": 2}]}, "end": 5, "waveform": false, "perspective_c3_x": {"Points": [{"co": {"Y": -1, "X": 1}, "interpolation": 2}]}, "scale_x": {"Points": [{"co": {"Y": 1, "X": 1}, "interpolation": 2}]}, "location_x": {"Points": [{"co": {"Y": 0, "X": 1}, "interpolation": 2}]}, "location_y": {"Points": [{"co": {"Y": 0, "X": 1}, "interpolation": 2}]}, "file_id": "GS94V0HQUR", "perspective_c2_y": {"Points": [{"co": {"Y": -1, "X": 1}, "interpolation": 2}]}, "shear_x": {"Points": [{"co": {"Y": 0, "X": 1}, "interpolation": 2}]}, "perspective_c1_y": {"Points": [{"co": {"Y": -1, "X": 1}, "interpolation": 2}]}, "rotation": {"Points": [{"co": {"Y": 0, "X": 1}, "interpolation": 2}]}, "perspective_c4_y": {"Points": [{"co": {"Y": -1, "X": 1}, "interpolation": 2}]}, "anchor": 0, "wave_color": {"red": {"Points": [{"handle_right": {"Y": 0, "X": 0.5}, "handle_type": 0, "handle_left": {"Y": 1, "X": 0.5}, "co": {"Y": 0, "X": 1}, "interpolation": 0}]}, "green": {"Points": [{"handle_right": {"Y": 0, "X": 0.5}, "handle_type": 0, "handle_left": {"Y": 1, "X": 0.5}, "co": {"Y": 123, "X": 1}, "interpolation": 0}]}, "blue": {"Points": [{"handle_right": {"Y": 0, "X": 0.5}, "handle_type": 0, "handle_left": {"Y": 1, "X": 0.5}, "co": {"Y": 255, "X": 1}, "interpolation": 0}]}, "alpha": {"Points": [{"handle_right": {"Y": 0, "X": 0.5}, "handle_type": 0, "handle_left": {"Y": 1, "X": 0.5}, "co": {"Y": 255, "X": 1}, "interpolation": 0}]}}, "time": {"Points": [{"co": {"Y": 1, "X": 1}, "interpolation": 2}]}, "crop_height": {"Points": [{"co": {"Y": -1, "X": 1}, "interpolation": 2}]}, "scale_y": {"Points": [{"co": {"Y": 1, "X": 1}, "interpolation": 2}]}, "effects": []}, {"shear_x": {"Points": [{"co": {"Y": 0, "X": 1}, "interpolation": 2}]}, "channel_filter": {"Points": [{"co": {"Y": -1, "X": 1}, "interpolation": 2}]}, "duration": 86400.0, "anchor": 0, "alpha": {"Points": [{"handle_right": {"Y": 0, "X": 0.5}, "handle_type": 0, "handle_left": {"Y": 1, "X": 0.5}, "co": {"Y": 1, "X": 1}, "interpolation": 0}, {"handle_right": {"Y": 0, "X": 0.5}, "handle_type": 0, "handle_left": {"Y": 1, "X": 0.5}, "co": {"Y": 0, "X": 1}, "interpolation": 0}, {"handle_right": {"Y": 0, "X": 0.5}, "handle_type": 0, "handle_left": {"Y": 1, "X": 0.5}, "co": {"Y": 1, "X": 73}, "interpolation": 0}, {"handle_right": {"Y": 0, "X": 0.5}, "handle_type": 0, "handle_left": {"Y": 1, "X": 0.5}, "co": {"Y": 1, "X": 216}, "interpolation": 0}, {"handle_right": {"Y": 0, "X": 0.5}, "handle_type": 0, "handle_left": {"Y": 1, "X": 0.5}, "co": {"Y": 0, "X": 288}, "interpolation": 0}]}, "layer": 2, "file_id": "BS7QREURZM", "scale": 1, "gravity": 4, "crop_width": {"Points": [{"co": {"Y": -1, "X": 1}, "interpolation": 2}]}, "crop_x": {"Points": [{"co": {"Y": 0, "X": 1}, "interpolation": 2}]}, "has_audio": {"Points": [{"co": {"Y": -1, "X": 1}, "interpolation": 2}]}, "rotation": {"Points": [{"co": {"Y": 0, "X": 1}, "interpolation": 2}]}, "image": "../../../.openshot_qt/thumbnail/BS7QREURZM.png", "start": 0, "channel_mapping": {"Points": [{"co": {"Y": -1, "X": 1}, "interpolation": 2}]}, "end": 11.97, "waveform": false, "scale_x": {"Points": [{"co": {"Y": 1, "X": 1}, "interpolation": 2}]}, "time": {"Points": [{"co": {"Y": 1, "X": 1}, "interpolation": 2}]}, "crop_y": {"Points": [{"co": {"Y": 0, "X": 1}, "interpolation": 2}]}, "scale_y": {"Points": [{"co": {"Y": 1, "X": 1}, "interpolation": 2}]}, "effects": [], "perspective_c4_x": {"Points": [{"co": {"Y": -1, "X": 1}, "interpolation": 2}]}, "perspective_c1_x": {"Points": [{"co": {"Y": -1, "X": 1}, "interpolation": 2}]}, "perspective_c2_x": {"Points": [{"co": {"Y": -1, "X": 1}, "interpolation": 2}]}, "id": "MDW7G3JTN7", "position": 103.86000061035156, "display": 0, "reader": {"video_stream_index": -1, "top_field_first": true, "interlaced_frame": false, "audio_bit_rate": 0, "audio_timebase": {"den": 1, "num": 1}, "duration": 86400.0, "channels": 0, "has_video": true, "channel_layout": 4, "has_audio": false, "video_timebase": {"den": 30, "num": 1}, "has_single_image": true, "acodec": "", "height": 3827, "video_bit_rate": 0, "display_ratio": {"den": 3827, "num": 6803}, "audio_stream_index": -1, "type": "QtImageReader", "video_length": "2592000", "width": 6803, "pixel_ratio": {"den": 1, "num": 1}, "sample_rate": 0, "vcodec": "", "file_size": "104140324", "path": "!086-Then Fail Else Pass.svg", "fps": {"den": 1, "num": 30}, "pixel_format": -1}, "volume": {"Points": [{"co": {"Y": 1, "X": 1}, "interpolation": 2}]}, "title": "!086-Then Fail Else Pass.svg", "has_video": {"Points": [{"co": {"Y": -1, "X": 1}, "interpolation": 2}]}, "perspective_c3_y": {"Points": [{"co": {"Y": -1, "X": 1}, "interpolation": 2}]}, "perspective_c3_x": {"Points": [{"co": {"Y": -1, "X": 1}, "interpolation": 2}]}, "location_x": {"Points": [{"co": {"Y": 0, "X": 1}, "interpolation": 2}]}, "location_y": {"Points": [{"co": {"Y": 0, "X": 1}, "interpolation": 2}]}, "shear_y": {"Points": [{"co": {"Y": 0, "X": 1}, "interpolation": 2}]}, "perspective_c2_y": {"Points": [{"co": {"Y": -1, "X": 1}, "interpolation": 2}]}, "perspective_c1_y": {"Points": [{"co": {"Y": -1, "X": 1}, "interpolation": 2}]}, "perspective_c4_y": {"Points": [{"co": {"Y": -1, "X": 1}, "interpolation": 2}]}, "wave_color": {"red": {"Points": [{"handle_right": {"Y": 0, "X": 0.5}, "handle_type": 0, "handle_left": {"Y": 1, "X": 0.5}, "co": {"Y": 0, "X": 1}, "interpolation": 0}]}, "green": {"Points": [{"handle_right": {"Y": 0, "X": 0.5}, "handle_type": 0, "handle_left": {"Y": 1, "X": 0.5}, "co": {"Y": 123, "X": 1}, "interpolation": 0}]}, "blue": {"Points": [{"handle_right": {"Y": 0, "X": 0.5}, "handle_type": 0, "handle_left": {"Y": 1, "X": 0.5}, "co": {"Y": 255, "X": 1}, "interpolation": 0}]}, "alpha": {"Points": [{"handle_right": {"Y": 0, "X": 0.5}, "handle_type": 0, "handle_left": {"Y": 1, "X": 0.5}, "co": {"Y": 255, "X": 1}, "interpolation": 0}]}}, "crop_height": {"Points": [{"co": {"Y": -1, "X": 1}, "interpolation": 2}]}}, {"shear_x": {"Points": [{"co": {"Y": 0, "X": 1}, "interpolation": 2}]}, "channel_filter": {"Points": [{"co": {"Y": -1, "X": 1}, "interpolation": 2}]}, "duration": 86400.0, "anchor": 0, "alpha": {"Points": [{"co": {"Y": 1, "X": 1}, "interpolation": 2}, {"handle_right": {"Y": 0, "X": 0.5}, "handle_type": 0, "handle_left": {"Y": 1, "X": 0.5}, "co": {"Y": 0, "X": 1}, "interpolation": 0}, {"handle_right": {"Y": 0, "X": 0.5}, "handle_type": 0, "handle_left": {"Y": 1, "X": 0.5}, "co": {"Y": 1, "X": 73}, "interpolation": 0}, {"handle_right": {"Y": 0, "X": 0.5}, "handle_type": 0, "handle_left": {"Y": 1, "X": 0.5}, "co": {"Y": 1, "X": 102}, "interpolation": 0}, {"handle_right": {"Y": 0, "X": 0.5}, "handle_type": 0, "handle_left": {"Y": 1, "X": 0.5}, "co": {"Y": 0, "X": 174}, "interpolation": 0}]}, "layer": 2, "file_id": "AA811BEMSM", "scale": 1, "gravity": 4, "crop_width": {"Points": [{"co": {"Y": -1, "X": 1}, "interpolation": 2}]}, "crop_x": {"Points": [{"co": {"Y": 0, "X": 1}, "interpolation": 2}]}, "has_audio": {"Points": [{"co": {"Y": -1, "X": 1}, "interpolation": 2}]}, "rotation": {"Points": [{"co": {"Y": 0, "X": 1}, "interpolation": 2}]}, "image": "../../../.openshot_qt/thumbnail/AA811BEMSM.png", "start": 0, "channel_mapping": {"Points": [{"co": {"Y": -1, "X": 1}, "interpolation": 2}]}, "end": 7.21, "waveform": false, "scale_x": {"Points": [{"co": {"Y": 1, "X": 1}, "interpolation": 2}]}, "time": {"Points": [{"co": {"Y": 1, "X": 1}, "interpolation": 2}]}, "crop_y": {"Points": [{"co": {"Y": 0, "X": 1}, "interpolation": 2}]}, "scale_y": {"Points": [{"co": {"Y": 1, "X": 1}, "interpolation": 2}]}, "effects": [], "perspective_c4_x": {"Points": [{"co": {"Y": -1, "X": 1}, "interpolation": 2}]}, "perspective_c1_x": {"Points": [{"co": {"Y": -1, "X": 1}, "interpolation": 2}]}, "perspective_c2_x": {"Points": [{"co": {"Y": -1, "X": 1}, "interpolation": 2}]}, "id": "CXD9GF0U7L", "position": 177.65796874999998, "display": 0, "reader": {"video_stream_index": -1, "top_field_first": true, "interlaced_frame": false, "audio_bit_rate": 0, "audio_timebase": {"den": 1, "num": 1}, "duration": 86400.0, "channels": 0, "has_video": true, "channel_layout": 4, "has_audio": false, "video_timebase": {"den": 30, "num": 1}, "has_single_image": true, "acodec": "", "height": 3827, "video_bit_rate": 0, "display_ratio": {"den": 3827, "num": 6803}, "audio_stream_index": -1, "type": "QtImageReader", "video_length": "2592000", "width": 6803, "pixel_ratio": {"den": 1, "num": 1}, "sample_rate": 0, "vcodec": "", "file_size": "104140324", "path": "!135-Grade.svg", "fps": {"den": 1, "num": 30}, "pixel_format": -1}, "volume": {"Points": [{"co": {"Y": 1, "X": 1}, "interpolation": 2}]}, "title": "!135-Grade.svg", "has_video": {"Points": [{"co": {"Y": -1, "X": 1}, "interpolation": 2}]}, "perspective_c3_y": {"Points": [{"co": {"Y": -1, "X": 1}, "interpolation": 2}]}, "perspective_c3_x": {"Points": [{"co": {"Y": -1, "X": 1}, "interpolation": 2}]}, "location_x": {"Points": [{"co": {"Y": 0, "X": 1}, "interpolation": 2}]}, "location_y": {"Points": [{"co": {"Y": 0, "X": 1}, "interpolation": 2}]}, "shear_y": {"Points": [{"co": {"Y": 0, "X": 1}, "interpolation": 2}]}, "perspective_c2_y": {"Points": [{"co": {"Y": -1, "X": 1}, "interpolation": 2}]}, "perspective_c1_y": {"Points": [{"co": {"Y": -1, "X": 1}, "interpolation": 2}]}, "perspective_c4_y": {"Points": [{"co": {"Y": -1, "X": 1}, "interpolation": 2}]}, "wave_color": {"blue": {"Points": [{"handle_right": {"Y": 0, "X": 0.5}, "handle_type": 0, "handle_left": {"Y": 1, "X": 0.5}, "co": {"Y": 255, "X": 1}, "interpolation": 0}]}, "green": {"Points": [{"handle_right": {"Y": 0, "X": 0.5}, "handle_type": 0, "handle_left": {"Y": 1, "X": 0.5}, "co": {"Y": 123, "X": 1}, "interpolation": 0}]}, "red": {"Points": [{"handle_right": {"Y": 0, "X": 0.5}, "handle_type": 0, "handle_left": {"Y": 1, "X": 0.5}, "co": {"Y": 0, "X": 1}, "interpolation": 0}]}, "alpha": {"Points": [{"handle_right": {"Y": 0, "X": 0.5}, "handle_type": 0, "handle_left": {"Y": 1, "X": 0.5}, "co": {"Y": 255, "X": 1}, "interpolation": 0}]}}, "crop_height": {"Points": [{"co": {"Y": -1, "X": 1}, "interpolation": 2}]}}, {"shear_x": {"Points": [{"co": {"Y": 0, "X": 1}, "interpolation": 2}]}, "channel_filter": {"Points": [{"co": {"Y": -1, "X": 1}, "interpolation": 2}]}, "duration": 86400.0, "anchor": 0, "alpha": {"Points": [{"co": {"Y": 1, "X": 1}, "interpolation": 2}]}, "layer": 2, "file_id": "U4HEYX76VH", "scale": 1, "gravity": 4, "crop_width": {"Points": [{"co": {"Y": -1, "X": 1}, "interpolation": 2}]}, "crop_x": {"Points": [{"co": {"Y": 0, "X": 1}, "interpolation": 2}]}, "has_audio": {"Points": [{"co": {"Y": -1, "X": 1}, "interpolation": 2}]}, "rotation": {"Points": [{"co": {"Y": 0, "X": 1}, "interpolation": 2}]}, "image": "../../../.openshot_qt/thumbnail/U4HEYX76VH.png", "start": 0, "channel_mapping": {"Points": [{"co": {"Y": -1, "X": 1}, "interpolation": 2}]}, "end": 5, "waveform": false, "scale_x": {"Points": [{"co": {"Y": 1, "X": 1}, "interpolation": 2}]}, "time": {"Points": [{"co": {"Y": 1, "X": 1}, "interpolation": 2}]}, "crop_y": {"Points": [{"co": {"Y": 0, "X": 1}, "interpolation": 2}]}, "scale_y": {"Points": [{"co": {"Y": 1, "X": 1}, "interpolation": 2}]}, "effects": [], "perspective_c4_x": {"Points": [{"co": {"Y": -1, "X": 1}, "interpolation": 2}]}, "perspective_c1_x": {"Points": [{"co": {"Y": -1, "X": 1}, "interpolation": 2}]}, "perspective_c2_x": {"Points": [{"co": {"Y": -1, "X": 1}, "interpolation": 2}]}, "id": "DVT7KHN9HZ", "position": 187.62421874999998, "display": 0, "reader": {"video_stream_index": -1, "top_field_first": true, "interlaced_frame": false, "audio_bit_rate": 0, "audio_timebase": {"den": 1, "num": 1}, "duration": 86400.0, "channels": 0, "has_video": true, "channel_layout": 4, "has_audio": false, "video_timebase": {"den": 30, "num": 1}, "has_single_image": true, "acodec": "", "height": 3827, "video_bit_rate": 0, "display_ratio": {"den": 3827, "num": 6803}, "audio_stream_index": -1, "type": "QtImageReader", "video_length": "2592000", "width": 6803, "pixel_ratio": {"den": 1, "num": 1}, "sample_rate": 0, "vcodec": "", "file_size": "104140324", "path": "!145-PROMOTED.svg", "fps": {"den": 1, "num": 30}, "pixel_format": -1}, "volume": {"Points": [{"co": {"Y": 1, "X": 1}, "interpolation": 2}]}, "title": "!145-PROMOTED.svg", "has_video": {"Points": [{"co": {"Y": -1, "X": 1}, "interpolation": 2}]}, "perspective_c3_y": {"Points": [{"co": {"Y": -1, "X": 1}, "interpolation": 2}]}, "perspective_c3_x": {"Points": [{"co": {"Y": -1, "X": 1}, "interpolation": 2}]}, "location_x": {"Points": [{"co": {"Y": 0, "X": 1}, "interpolation": 2}]}, "location_y": {"Points": [{"co": {"Y": 0, "X": 1}, "interpolation": 2}]}, "shear_y": {"Points": [{"co": {"Y": 0, "X": 1}, "interpolation": 2}]}, "perspective_c2_y": {"Points": [{"co": {"Y": -1, "X": 1}, "interpolation": 2}]}, "perspective_c1_y": {"Points": [{"co": {"Y": -1, "X": 1}, "interpolation": 2}]}, "perspective_c4_y": {"Points": [{"co": {"Y": -1, "X": 1}, "interpolation": 2}]}, "wave_color": {"blue": {"Points": [{"handle_right": {"Y": 0, "X": 0.5}, "handle_type": 0, "handle_left": {"Y": 1, "X": 0.5}, "co": {"Y": 255, "X": 1}, "interpolation": 0}]}, "green": {"Points": [{"handle_right": {"Y": 0, "X": 0.5}, "handle_type": 0, "handle_left": {"Y": 1, "X": 0.5}, "co": {"Y": 123, "X": 1}, "interpolation": 0}]}, "red": {"Points": [{"handle_right": {"Y": 0, "X": 0.5}, "handle_type": 0, "handle_left": {"Y": 1, "X": 0.5}, "co": {"Y": 0, "X": 1}, "interpolation": 0}]}, "alpha": {"Points": [{"handle_right": {"Y": 0, "X": 0.5}, "handle_type": 0, "handle_left": {"Y": 1, "X": 0.5}, "co": {"Y": 255, "X": 1}, "interpolation": 0}]}}, "crop_height": {"Points": [{"co": {"Y": -1, "X": 1}, "interpolation": 2}]}}, {"shear_x": {"Points": [{"co": {"Y": 0, "X": 1}, "interpolation": 2}]}, "channel_filter": {"Points": [{"co": {"Y": -1, "X": 1}, "interpolation": 2}]}, "duration": 86400.0, "anchor": 0, "alpha": {"Points": [{"co": {"Y": 1, "X": 1}, "interpolation": 2}]}, "layer": 2, "file_id": "QKE4L0GUDK", "scale": 1, "gravity": 4, "crop_width": {"Points": [{"co": {"Y": -1, "X": 1}, "interpolation": 2}]}, "crop_x": {"Points": [{"co": {"Y": 0, "X": 1}, "interpolation": 2}]}, "has_audio": {"Points": [{"co": {"Y": -1, "X": 1}, "interpolation": 2}]}, "rotation": {"Points": [{"co": {"Y": 0, "X": 1}, "interpolation": 2}]}, "image": "../../../.openshot_qt/thumbnail/QKE4L0GUDK.png", "start": 0, "channel_mapping": {"Points": [{"co": {"Y": -1, "X": 1}, "interpolation": 2}]}, "end": 5, "waveform": false, "scale_x": {"Points": [{"co": {"Y": 1, "X": 1}, "interpolation": 2}]}, "time": {"Points": [{"co": {"Y": 1, "X": 1}, "interpolation": 2}]}, "crop_y": {"Points": [{"co": {"Y": 0, "X": 1}, "interpolation": 2}]}, "scale_y": {"Points": [{"co": {"Y": 1, "X": 1}, "interpolation": 2}]}, "effects": [], "perspective_c4_x": {"Points": [{"co": {"Y": -1, "X": 1}, "interpolation": 2}]}, "perspective_c1_x": {"Points": [{"co": {"Y": -1, "X": 1}, "interpolation": 2}]}, "perspective_c2_x": {"Points": [{"co": {"Y": -1, "X": 1}, "interpolation": 2}]}, "id": "53HWYMUXFZ", "position": 198.58124999999998, "display": 0, "reader": {"video_stream_index": -1, "top_field_first": true, "interlaced_frame": false, "audio_bit_rate": 0, "audio_timebase": {"den": 1, "num": 1}, "duration": 86400.0, "channels": 0, "has_video": true, "channel_layout": 4, "has_audio": false, "video_timebase": {"den": 30, "num": 1}, "has_single_image": true, "acodec": "", "height": 3827, "video_bit_rate": 0, "display_ratio": {"den": 3827, "num": 6803}, "audio_stream_index": -1, "type": "QtImageReader", "video_length": "2592000", "width": 6803, "pixel_ratio": {"den": 1, "num": 1}, "sample_rate": 0, "vcodec": "", "file_size": "104140324", "path": "!145-PASS CLASS.svg", "fps": {"den": 1, "num": 30}, "pixel_format": -1}, "volume": {"Points": [{"co": {"Y": 1, "X": 1}, "interpolation": 2}]}, "title": "!145-PASS CLASS.svg", "has_video": {"Points": [{"co": {"Y": -1, "X": 1}, "interpolation": 2}]}, "perspective_c3_y": {"Points": [{"co": {"Y": -1, "X": 1}, "interpolation": 2}]}, "perspective_c3_x": {"Points": [{"co": {"Y": -1, "X": 1}, "interpolation": 2}]}, "location_x": {"Points": [{"co": {"Y": 0, "X": 1}, "interpolation": 2}]}, "location_y": {"Points": [{"co": {"Y": 0, "X": 1}, "interpolation": 2}]}, "shear_y": {"Points": [{"co": {"Y": 0, "X": 1}, "interpolation": 2}]}, "perspective_c2_y": {"Points": [{"co": {"Y": -1, "X": 1}, "interpolation": 2}]}, "perspective_c1_y": {"Points": [{"co": {"Y": -1, "X": 1}, "interpolation": 2}]}, "perspective_c4_y": {"Points": [{"co": {"Y": -1, "X": 1}, "interpolation": 2}]}, "wave_color": {"blue": {"Points": [{"handle_right": {"Y": 0, "X": 0.5}, "handle_type": 0, "handle_left": {"Y": 1, "X": 0.5}, "co": {"Y": 255, "X": 1}, "interpolation": 0}]}, "green": {"Points": [{"handle_right": {"Y": 0, "X": 0.5}, "handle_type": 0, "handle_left": {"Y": 1, "X": 0.5}, "co": {"Y": 123, "X": 1}, "interpolation": 0}]}, "red": {"Points": [{"handle_right": {"Y": 0, "X": 0.5}, "handle_type": 0, "handle_left": {"Y": 1, "X": 0.5}, "co": {"Y": 0, "X": 1}, "interpolation": 0}]}, "alpha": {"Points": [{"handle_right": {"Y": 0, "X": 0.5}, "handle_type": 0, "handle_left": {"Y": 1, "X": 0.5}, "co": {"Y": 255, "X": 1}, "interpolation": 0}]}}, "crop_height": {"Points": [{"co": {"Y": -1, "X": 1}, "interpolation": 2}]}}, {"shear_x": {"Points": [{"co": {"Y": 0, "X": 1}, "interpolation": 2}]}, "channel_filter": {"Points": [{"co": {"Y": -1, "X": 1}, "interpolation": 2}]}, "duration": 86400.0, "anchor": 0, "alpha": {"Points": [{"co": {"Y": 1, "X": 1}, "interpolation": 2}]}, "layer": 2, "file_id": "B8NAT6SOHT", "scale": 1, "gravity": 4, "crop_width": {"Points": [{"co": {"Y": -1, "X": 1}, "interpolation": 2}]}, "crop_x": {"Points": [{"co": {"Y": 0, "X": 1}, "interpolation": 2}]}, "has_audio": {"Points": [{"co": {"Y": -1, "X": 1}, "interpolation": 2}]}, "rotation": {"Points": [{"co": {"Y": 0, "X": 1}, "interpolation": 2}]}, "image": "../../../.openshot_qt/thumbnail/B8NAT6SOHT.png", "start": 0, "channel_mapping": {"Points": [{"co": {"Y": -1, "X": 1}, "interpolation": 2}]}, "end": 5, "waveform": false, "scale_x": {"Points": [{"co": {"Y": 1, "X": 1}, "interpolation": 2}]}, "time": {"Points": [{"co": {"Y": 1, "X": 1}, "interpolation": 2}]}, "crop_y": {"Points": [{"co": {"Y": 0, "X": 1}, "interpolation": 2}]}, "scale_y": {"Points": [{"co": {"Y": 1, "X": 1}, "interpolation": 2}]}, "effects": [], "perspective_c4_x": {"Points": [{"co": {"Y": -1, "X": 1}, "interpolation": 2}]}, "perspective_c1_x": {"Points": [{"co": {"Y": -1, "X": 1}, "interpolation": 2}]}, "perspective_c2_x": {"Points": [{"co": {"Y": -1, "X": 1}, "interpolation": 2}]}, "id": "O4H51B63WF", "position": 209.77999999999997, "display": 0, "reader": {"video_stream_index": -1, "top_field_first": true, "interlaced_frame": false, "audio_bit_rate": 0, "audio_timebase": {"den": 1, "num": 1}, "duration": 86400.0, "channels": 0, "has_video": true, "channel_layout": 4, "has_audio": false, "video_timebase": {"den": 30, "num": 1}, "has_single_image": true, "acodec": "", "height": 3827, "video_bit_rate": 0, "display_ratio": {"den": 3827, "num": 6803}, "audio_stream_index": -1, "type": "QtImageReader", "video_length": "2592000", "width": 6803, "pixel_ratio": {"den": 1, "num": 1}, "sample_rate": 0, "vcodec": "", "file_size": "104140324", "path": "!145-SECOND CLASS.svg", "fps": {"den": 1, "num": 30}, "pixel_format": -1}, "volume": {"Points": [{"co": {"Y": 1, "X": 1}, "interpolation": 2}]}, "title": "!145-SECOND CLASS.svg", "has_video": {"Points": [{"co": {"Y": -1, "X": 1}, "interpolation": 2}]}, "perspective_c3_y": {"Points": [{"co": {"Y": -1, "X": 1}, "interpolation": 2}]}, "perspective_c3_x": {"Points": [{"co": {"Y": -1, "X": 1}, "interpolation": 2}]}, "location_x": {"Points": [{"co": {"Y": 0, "X": 1}, "interpolation": 2}]}, "location_y": {"Points": [{"co": {"Y": 0, "X": 1}, "interpolation": 2}]}, "shear_y": {"Points": [{"co": {"Y": 0, "X": 1}, "interpolation": 2}]}, "perspective_c2_y": {"Points": [{"co": {"Y": -1, "X": 1}, "interpolation": 2}]}, "perspective_c1_y": {"Points": [{"co": {"Y": -1, "X": 1}, "interpolation": 2}]}, "perspective_c4_y": {"Points": [{"co": {"Y": -1, "X": 1}, "interpolation": 2}]}, "wave_color": {"blue": {"Points": [{"handle_right": {"Y": 0, "X": 0.5}, "handle_type": 0, "handle_left": {"Y": 1, "X": 0.5}, "co": {"Y": 255, "X": 1}, "interpolation": 0}]}, "green": {"Points": [{"handle_right": {"Y": 0, "X": 0.5}, "handle_type": 0, "handle_left": {"Y": 1, "X": 0.5}, "co": {"Y": 123, "X": 1}, "interpolation": 0}]}, "red": {"Points": [{"handle_right": {"Y": 0, "X": 0.5}, "handle_type": 0, "handle_left": {"Y": 1, "X": 0.5}, "co": {"Y": 0, "X": 1}, "interpolation": 0}]}, "alpha": {"Points": [{"handle_right": {"Y": 0, "X": 0.5}, "handle_type": 0, "handle_left": {"Y": 1, "X": 0.5}, "co": {"Y": 255, "X": 1}, "interpolation": 0}]}}, "crop_height": {"Points": [{"co": {"Y": -1, "X": 1}, "interpolation": 2}]}}, {"shear_x": {"Points": [{"co": {"Y": 0, "X": 1}, "interpolation": 2}]}, "channel_filter": {"Points": [{"co": {"Y": -1, "X": 1}, "interpolation": 2}]}, "duration": 86400.0, "anchor": 0, "alpha": {"Points": [{"co": {"Y": 1, "X": 1}, "interpolation": 2}]}, "layer": 2, "file_id": "QURFA8ZYYH", "scale": 1, "gravity": 4, "crop_width": {"Points": [{"co": {"Y": -1, "X": 1}, "interpolation": 2}]}, "crop_x": {"Points": [{"co": {"Y": 0, "X": 1}, "interpolation": 2}]}, "has_audio": {"Points": [{"co": {"Y": -1, "X": 1}, "interpolation": 2}]}, "rotation": {"Points": [{"co": {"Y": 0, "X": 1}, "interpolation": 2}]}, "image": "../../../.openshot_qt/thumbnail/QURFA8ZYYH.png", "start": 0, "channel_mapping": {"Points": [{"co": {"Y": -1, "X": 1}, "interpolation": 2}]}, "end": 5, "waveform": false, "scale_x": {"Points": [{"co": {"Y": 1, "X": 1}, "interpolation": 2}]}, "time": {"Points": [{"co": {"Y": 1, "X": 1}, "interpolation": 2}]}, "crop_y": {"Points": [{"co": {"Y": 0, "X": 1}, "interpolation": 2}]}, "scale_y": {"Points": [{"co": {"Y": 1, "X": 1}, "interpolation": 2}]}, "effects": [], "perspective_c4_x": {"Points": [{"co": {"Y": -1, "X": 1}, "interpolation": 2}]}, "perspective_c1_x": {"Points": [{"co": {"Y": -1, "X": 1}, "interpolation": 2}]}, "perspective_c2_x": {"Points": [{"co": {"Y": -1, "X": 1}, "interpolation": 2}]}, "id": "XGW80R7KP4", "position": 219.46999999999997, "display": 0, "reader": {"video_stream_index": -1, "top_field_first": true, "interlaced_frame": false, "audio_bit_rate": 0, "audio_timebase": {"den": 1, "num": 1}, "duration": 86400.0, "channels": 0, "has_video": true, "channel_layout": 4, "has_audio": false, "video_timebase": {"den": 30, "num": 1}, "has_single_image": true, "acodec": "", "height": 3827, "video_bit_rate": 0, "display_ratio": {"den": 3827, "num": 6803}, "audio_stream_index": -1, "type": "QtImageReader", "video_length": "2592000", "width": 6803, "pixel_ratio": {"den": 1, "num": 1}, "sample_rate": 0, "vcodec": "", "file_size": "104140324", "path": "!145-FIRST CLASS.svg", "fps": {"den": 1, "num": 30}, "pixel_format": -1}, "volume": {"Points": [{"co": {"Y": 1, "X": 1}, "interpolation": 2}]}, "title": "!145-FIRST CLASS.svg", "has_video": {"Points": [{"co": {"Y": -1, "X": 1}, "interpolation": 2}]}, "perspective_c3_y": {"Points": [{"co": {"Y": -1, "X": 1}, "interpolation": 2}]}, "perspective_c3_x": {"Points": [{"co": {"Y": -1, "X": 1}, "interpolation": 2}]}, "location_x": {"Points": [{"co": {"Y": 0, "X": 1}, "interpolation": 2}]}, "location_y": {"Points": [{"co": {"Y": 0, "X": 1}, "interpolation": 2}]}, "shear_y": {"Points": [{"co": {"Y": 0, "X": 1}, "interpolation": 2}]}, "perspective_c2_y": {"Points": [{"co": {"Y": -1, "X": 1}, "interpolation": 2}]}, "perspective_c1_y": {"Points": [{"co": {"Y": -1, "X": 1}, "interpolation": 2}]}, "perspective_c4_y": {"Points": [{"co": {"Y": -1, "X": 1}, "interpolation": 2}]}, "wave_color": {"blue": {"Points": [{"handle_right": {"Y": 0, "X": 0.5}, "handle_type": 0, "handle_left": {"Y": 1, "X": 0.5}, "co": {"Y": 255, "X": 1}, "interpolation": 0}]}, "green": {"Points": [{"handle_right": {"Y": 0, "X": 0.5}, "handle_type": 0, "handle_left": {"Y": 1, "X": 0.5}, "co": {"Y": 123, "X": 1}, "interpolation": 0}]}, "red": {"Points": [{"handle_right": {"Y": 0, "X": 0.5}, "handle_type": 0, "handle_left": {"Y": 1, "X": 0.5}, "co": {"Y": 0, "X": 1}, "interpolation": 0}]}, "alpha": {"Points": [{"handle_right": {"Y": 0, "X": 0.5}, "handle_type": 0, "handle_left": {"Y": 1, "X": 0.5}, "co": {"Y": 255, "X": 1}, "interpolation": 0}]}}, "crop_height": {"Points": [{"co": {"Y": -1, "X": 1}, "interpolation": 2}]}}, {"shear_x": {"Points": [{"co": {"Y": 0, "X": 1}, "interpolation": 2}]}, "channel_filter": {"Points": [{"co": {"Y": -1, "X": 1}, "interpolation": 2}]}, "duration": 86400.0, "anchor": 0, "alpha": {"Points": [{"co": {"Y": 1, "X": 1}, "interpolation": 2}]}, "layer": 2, "file_id": "BWOLHCX3NY", "scale": 1, "gravity": 4, "crop_width": {"Points": [{"co": {"Y": -1, "X": 1}, "interpolation": 2}]}, "crop_x": {"Points": [{"co": {"Y": 0, "X": 1}, "interpolation": 2}]}, "has_audio": {"Points": [{"co": {"Y": -1, "X": 1}, "interpolation": 2}]}, "rotation": {"Points": [{"co": {"Y": 0, "X": 1}, "interpolation": 2}]}, "image": "../../../.openshot_qt/thumbnail/BWOLHCX3NY.png", "start": 0, "channel_mapping": {"Points": [{"co": {"Y": -1, "X": 1}, "interpolation": 2}]}, "end": 5, "waveform": false, "scale_x": {"Points": [{"co": {"Y": 1, "X": 1}, "interpolation": 2}]}, "time": {"Points": [{"co": {"Y": 1, "X": 1}, "interpolation": 2}]}, "crop_y": {"Points": [{"co": {"Y": 0, "X": 1}, "interpolation": 2}]}, "scale_y": {"Points": [{"co": {"Y": 1, "X": 1}, "interpolation": 2}]}, "effects": [], "perspective_c4_x": {"Points": [{"co": {"Y": -1, "X": 1}, "interpolation": 2}]}, "perspective_c1_x": {"Points": [{"co": {"Y": -1, "X": 1}, "interpolation": 2}]}, "perspective_c2_x": {"Points": [{"co": {"Y": -1, "X": 1}, "interpolation": 2}]}, "id": "679CKERX79", "position": 228.30999999999997, "display": 0, "reader": {"video_stream_index": -1, "top_field_first": true, "interlaced_frame": false, "audio_bit_rate": 0, "audio_timebase": {"den": 1, "num": 1}, "duration": 86400.0, "channels": 0, "has_video": true, "channel_layout": 4, "has_audio": false, "video_timebase": {"den": 30, "num": 1}, "has_single_image": true, "acodec": "", "height": 3827, "video_bit_rate": 0, "display_ratio": {"den": 3827, "num": 6803}, "audio_stream_index": -1, "type": "QtImageReader", "video_length": "2592000", "width": 6803, "pixel_ratio": {"den": 1, "num": 1}, "sample_rate": 0, "vcodec": "", "file_size": "104140324", "path": "!145-DISTINCTION.svg", "fps": {"den": 1, "num": 30}, "pixel_format": -1}, "volume": {"Points": [{"co": {"Y": 1, "X": 1}, "interpolation": 2}]}, "title": "!145-DISTINCTION.svg", "has_video": {"Points": [{"co": {"Y": -1, "X": 1}, "interpolation": 2}]}, "perspective_c3_y": {"Points": [{"co": {"Y": -1, "X": 1}, "interpolation": 2}]}, "perspective_c3_x": {"Points": [{"co": {"Y": -1, "X": 1}, "interpolation": 2}]}, "location_x": {"Points": [{"co": {"Y": 0, "X": 1}, "interpolation": 2}]}, "location_y": {"Points": [{"co": {"Y": 0, "X": 1}, "interpolation": 2}]}, "shear_y": {"Points": [{"co": {"Y": 0, "X": 1}, "interpolation": 2}]}, "perspective_c2_y": {"Points": [{"co": {"Y": -1, "X": 1}, "interpolation": 2}]}, "perspective_c1_y": {"Points": [{"co": {"Y": -1, "X": 1}, "interpolation": 2}]}, "perspective_c4_y": {"Points": [{"co": {"Y": -1, "X": 1}, "interpolation": 2}]}, "wave_color": {"blue": {"Points": [{"handle_right": {"Y": 0, "X": 0.5}, "handle_type": 0, "handle_left": {"Y": 1, "X": 0.5}, "co": {"Y": 255, "X": 1}, "interpolation": 0}]}, "green": {"Points": [{"handle_right": {"Y": 0, "X": 0.5}, "handle_type": 0, "handle_left": {"Y": 1, "X": 0.5}, "co": {"Y": 123, "X": 1}, "interpolation": 0}]}, "red": {"Points": [{"handle_right": {"Y": 0, "X": 0.5}, "handle_type": 0, "handle_left": {"Y": 1, "X": 0.5}, "co": {"Y": 0, "X": 1}, "interpolation": 0}]}, "alpha": {"Points": [{"handle_right": {"Y": 0, "X": 0.5}, "handle_type": 0, "handle_left": {"Y": 1, "X": 0.5}, "co": {"Y": 255, "X": 1}, "interpolation": 0}]}}, "crop_height": {"Points": [{"co": {"Y": -1, "X": 1}, "interpolation": 2}]}}, {"shear_x": {"Points": [{"co": {"Y": 0, "X": 1}, "interpolation": 2}]}, "channel_filter": {"Points": [{"co": {"Y": -1, "X": 1}, "interpolation": 2}]}, "duration": 86400.0, "anchor": 0, "alpha": {"Points": [{"co": {"Y": 1, "X": 1}, "interpolation": 2}]}, "layer": 2, "file_id": "M6T9ROM582", "scale": 1, "gravity": 4, "crop_width": {"Points": [{"co": {"Y": -1, "X": 1}, "interpolation": 2}]}, "crop_x": {"Points": [{"co": {"Y": 0, "X": 1}, "interpolation": 2}]}, "has_audio": {"Points": [{"co": {"Y": -1, "X": 1}, "interpolation": 2}]}, "rotation": {"Points": [{"co": {"Y": 0, "X": 1}, "interpolation": 2}]}, "image": "../../../.openshot_qt/thumbnail/M6T9ROM582.png", "start": 0, "channel_mapping": {"Points": [{"co": {"Y": -1, "X": 1}, "interpolation": 2}]}, "end": 5, "waveform": false, "scale_x": {"Points": [{"co": {"Y": 1, "X": 1}, "interpolation": 2}]}, "time": {"Points": [{"co": {"Y": 1, "X": 1}, "interpolation": 2}]}, "crop_y": {"Points": [{"co": {"Y": 0, "X": 1}, "interpolation": 2}]}, "scale_y": {"Points": [{"co": {"Y": 1, "X": 1}, "interpolation": 2}]}, "effects": [], "perspective_c4_x": {"Points": [{"co": {"Y": -1, "X": 1}, "interpolation": 2}]}, "perspective_c1_x": {"Points": [{"co": {"Y": -1, "X": 1}, "interpolation": 2}]}, "perspective_c2_x": {"Points": [{"co": {"Y": -1, "X": 1}, "interpolation": 2}]}, "id": "E6X9EOGKYP", "position": 236.64, "display": 0, "reader": {"video_stream_index": -1, "top_field_first": true, "interlaced_frame": false, "audio_bit_rate": 0, "audio_timebase": {"den": 1, "num": 1}, "duration": 86400.0, "channels": 0, "has_video": true, "channel_layout": 4, "has_audio": false, "video_timebase": {"den": 30, "num": 1}, "has_single_image": true, "acodec": "", "height": 3827, "video_bit_rate": 0, "display_ratio": {"den": 3827, "num": 6803}, "audio_stream_index": -1, "type": "QtImageReader", "video_length": "2592000", "width": 6803, "pixel_ratio": {"den": 1, "num": 1}, "sample_rate": 0, "vcodec": "", "file_size": "104140324", "path": "!145-4 If's - 4 Braces.svg", "fps": {"den": 1, "num": 30}, "pixel_format": -1}, "volume": {"Points": [{"co": {"Y": 1, "X": 1}, "interpolation": 2}]}, "title": "!145-4 If's - 4 Braces.svg", "has_video": {"Points": [{"co": {"Y": -1, "X": 1}, "interpolation": 2}]}, "perspective_c3_y": {"Points": [{"co": {"Y": -1, "X": 1}, "interpolation": 2}]}, "perspective_c3_x": {"Points": [{"co": {"Y": -1, "X": 1}, "interpolation": 2}]}, "location_x": {"Points": [{"co": {"Y": 0, "X": 1}, "interpolation": 2}]}, "location_y": {"Points": [{"co": {"Y": 0, "X": 1}, "interpolation": 2}]}, "shear_y": {"Points": [{"co": {"Y": 0, "X": 1}, "interpolation": 2}]}, "perspective_c2_y": {"Points": [{"co": {"Y": -1, "X": 1}, "interpolation": 2}]}, "perspective_c1_y": {"Points": [{"co": {"Y": -1, "X": 1}, "interpolation": 2}]}, "perspective_c4_y": {"Points": [{"co": {"Y": -1, "X": 1}, "interpolation": 2}]}, "wave_color": {"blue": {"Points": [{"handle_right": {"Y": 0, "X": 0.5}, "handle_type": 0, "handle_left": {"Y": 1, "X": 0.5}, "co": {"Y": 255, "X": 1}, "interpolation": 0}]}, "green": {"Points": [{"handle_right": {"Y": 0, "X": 0.5}, "handle_type": 0, "handle_left": {"Y": 1, "X": 0.5}, "co": {"Y": 123, "X": 1}, "interpolation": 0}]}, "red": {"Points": [{"handle_right": {"Y": 0, "X": 0.5}, "handle_type": 0, "handle_left": {"Y": 1, "X": 0.5}, "co": {"Y": 0, "X": 1}, "interpolation": 0}]}, "alpha": {"Points": [{"handle_right": {"Y": 0, "X": 0.5}, "handle_type": 0, "handle_left": {"Y": 1, "X": 0.5}, "co": {"Y": 255, "X": 1}, "interpolation": 0}]}}, "crop_height": {"Points": [{"co": {"Y": -1, "X": 1}, "interpolation": 2}]}}], "width": 1280, "sample_rate": 44100, "markers": [{"position": 21.333333333333332, "id": "QGQQGZ40BM", "icon": "blue.png"}, {"position": 10.75, "id": "6II2DY57TP", "icon": "blue.png"}, {"position": 314.875, "id": "J9XLHPVSIC", "icon": "blue.png"}, {"position": 321.0833333333333, "id": "SGYEV87FP3", "icon": "blue.png"}, {"position": 332.375, "id": "7ESDA3UQ06", "icon": "blue.png"}], "version": {"libopenshot": "0.1.9", "openshot-qt": "2.4.1-dev1"}, "height": 720, "fps": {"den": 1, "num": 24}, "progress": [], "settings": {}, "effects": []}