{"duration": 300, "scale": 20, "files": [{"duration": 86400, "top_field_first": true, "file_size": "8294400", "has_single_image": true, "sample_rate": 0, "pixel_ratio": {"den": 1, "num": 1}, "channel_layout": 4, "video_length": "2592000", "interlaced_frame": false, "vcodec": "", "has_video": true, "has_audio": false, "video_stream_index": -1, "audio_stream_index": -1, "type": "QtImageReader", "fps": {"den": 1, "num": 30}, "display_ratio": {"den": 9, "num": 16}, "channels": 0, "video_timebase": {"den": 30, "num": 1}, "audio_bit_rate": 0, "pixel_format": -1, "height": 1080, "media_type": "image", "width": 1920, "acodec": "", "audio_timebase": {"den": 1, "num": 1}, "id": "W3X0DXJTS6", "video_bit_rate": 0, "path": "!000-White-Background.svg"}, {"duration": 86400, "top_field_first": true, "file_size": "104140324", "has_single_image": true, "sample_rate": 0, "pixel_ratio": {"den": 1, "num": 1}, "channel_layout": 4, "video_length": "2592000", "interlaced_frame": false, "vcodec": "", "has_video": true, "has_audio": false, "video_stream_index": -1, "audio_stream_index": -1, "type": "QtImageReader", "fps": {"den": 1, "num": 30}, "display_ratio": {"den": 3827, "num": 6803}, "channels": 0, "video_timebase": {"den": 30, "num": 1}, "audio_bit_rate": 0, "pixel_format": -1, "height": 3827, "media_type": "image", "width": 6803, "acodec": "", "audio_timebase": {"den": 1, "num": 1}, "id": "3LXINJ8GXN", "video_bit_rate": 0, "path": "!152-Slide -Open Libre Base.svg"}, {"duration": 61, "top_field_first": true, "file_size": "666485", "has_single_image": false, "sample_rate": 0, "pixel_ratio": {"den": 1, "num": 1}, "channel_layout": 4, "video_length": "1525", "interlaced_frame": false, "vcodec": "h264", "has_video": true, "has_audio": false, "video_stream_index": 0, "audio_stream_index": -1, "type": "FFmpegReader", "fps": {"den": 1, "num": 25}, "display_ratio": {"den": 384, "num": 683}, "channels": 0, "video_timebase": {"den": 1000, "num": 1}, "audio_bit_rate": 0, "pixel_format": 0, "height": 768, "media_type": "video", "width": 1366, "acodec": "", "audio_timebase": {"den": 1, "num": 1}, "id": "YJ84IVW8VE", "video_bit_rate": 87179, "path": "!160-Register Spreadsheet as Database.mkv"}, {"duration": 14, "top_field_first": true, "file_size": "117846", "has_single_image": false, "sample_rate": 0, "pixel_ratio": {"den": 1, "num": 1}, "channel_layout": 4, "video_length": "350", "interlaced_frame": false, "vcodec": "h264", "has_video": true, "has_audio": false, "video_stream_index": 0, "audio_stream_index": -1, "type": "FFmpegReader", "fps": {"den": 1, "num": 25}, "display_ratio": {"den": 186, "num": 325}, "channels": 0, "video_timebase": {"den": 1000, "num": 1}, "audio_bit_rate": 0, "pixel_format": 0, "height": 744, "media_type": "video", "width": 1300, "acodec": "", "audio_timebase": {"den": 1, "num": 1}, "id": "C7V0GMBLYX", "video_bit_rate": 63358, "path": "!170-Open The Saved Progress Card Template.mkv"}, {"duration": 44, "top_field_first": true, "file_size": "397466", "has_single_image": false, "sample_rate": 0, "pixel_ratio": {"den": 1, "num": 1}, "channel_layout": 4, "video_length": "1100", "interlaced_frame": false, "vcodec": "h264", "has_video": true, "has_audio": false, "video_stream_index": 0, "audio_stream_index": -1, "type": "FFmpegReader", "fps": {"den": 1, "num": 25}, "display_ratio": {"den": 384, "num": 683}, "channels": 0, "video_timebase": {"den": 1000, "num": 1}, "audio_bit_rate": 0, "pixel_format": 0, "height": 768, "media_type": "video", "width": 1366, "acodec": "", "audio_timebase": {"den": 1, "num": 1}, "id": "DFFNSBTF3B", "video_bit_rate": 71551, "path": "!180-Menu - View - Data Source.mkv"}, {"duration": 88, "top_field_first": true, "file_size": "1030797", "has_single_image": false, "sample_rate": 0, "pixel_ratio": {"den": 1, "num": 1}, "channel_layout": 4, "video_length": "2200", "interlaced_frame": false, "vcodec": "h264", "has_video": true, "has_audio": false, "video_stream_index": 0, "audio_stream_index": -1, "type": "FFmpegReader", "fps": {"den": 1, "num": 25}, "display_ratio": {"den": 384, "num": 683}, "channels": 0, "video_timebase": {"den": 1000, "num": 1}, "audio_bit_rate": 0, "pixel_format": 0, "height": 768, "media_type": "video", "width": 1366, "acodec": "", "audio_timebase": {"den": 1, "num": 1}, "id": "COTVKCWUJG", "video_bit_rate": 92739, "path": "!190-Drag and Drop Fields.mkv"}, {"duration": 73, "top_field_first": true, "file_size": "953170", "has_single_image": false, "sample_rate": 0, "pixel_ratio": {"den": 1, "num": 1}, "channel_layout": 4, "video_length": "1825", "interlaced_frame": false, "vcodec": "h264", "has_video": true, "has_audio": false, "video_stream_index": 0, "audio_stream_index": -1, "type": "FFmpegReader", "fps": {"den": 1, "num": 25}, "display_ratio": {"den": 384, "num": 683}, "channels": 0, "video_timebase": {"den": 1000, "num": 1}, "audio_bit_rate": 0, "pixel_format": 0, "height": 768, "media_type": "video", "width": 1366, "acodec": "", "audio_timebase": {"den": 1, "num": 1}, "id": "ZA6B1EO0P9", "video_bit_rate": 103492, "path": "!200-Print Progress Cards As PDF.mkv"}, {"duration": 13, "top_field_first": true, "file_size": "141113", "has_single_image": false, "sample_rate": 0, "pixel_ratio": {"den": 1, "num": 1}, "channel_layout": 4, "video_length": "325", "interlaced_frame": false, "vcodec": "h264", "has_video": true, "has_audio": false, "video_stream_index": 0, "audio_stream_index": -1, "type": "FFmpegReader", "fps": {"den": 1, "num": 25}, "display_ratio": {"den": 186, "num": 325}, "channels": 0, "video_timebase": {"den": 1000, "num": 1}, "audio_bit_rate": 0, "pixel_format": 0, "height": 744, "media_type": "video", "width": 1300, "acodec": "", "audio_timebase": {"den": 1, "num": 1}, "id": "CRFW36HQE1", "video_bit_rate": 82764, "path": "!210-Result Archive.mkv"}], "progress": [], "sample_rate": 44100, "effects": [], "channel_layout": 3, "settings": {}, "version": {"openshot-qt": "2.4.1-dev1", "libopenshot": "0.1.9"}, "history": {"undo": [{"value": {"perspective_c3_x": {"Points": [{"interpolation": 2, "co": {"X": 1, "Y": -1}}]}, "duration": 81.0, "perspective_c2_y": {"Points": [{"interpolation": 2, "co": {"X": 1, "Y": -1}}]}, "alpha": {"Points": [{"handle_type": 0, "handle_right": {"X": 0.5, "Y": 0}, "interpolation": 0, "co": {"X": 1, "Y": 1}, "handle_left": {"X": 0.5, "Y": 1}}, {"handle_type": 0, "handle_right": {"X": 0.5, "Y": 0}, "interpolation": 0, "co": {"X": 1285, "Y": 1}, "handle_left": {"X": 0.5, "Y": 1}}, {"handle_type": 0, "handle_right": {"X": 0.5, "Y": 0}, "interpolation": 0, "co": {"X": 1357, "Y": 0}, "handle_left": {"X": 0.5, "Y": 1}}]}, "gravity": 4, "file_id": "YJ84IVW8VE", "channel_mapping": {"Points": [{"interpolation": 2, "co": {"X": 1, "Y": -1}}]}, "scale_y": {"Points": [{"interpolation": 2, "co": {"X": 1, "Y": 1}}, {"interpolation": 1, "co": {"X": 768, "Y": 1.2999999523162842}}, {"interpolation": 1, "co": {"X": 822, "Y": 2.299999952316284}}]}, "time": {"Points": [{"interpolation": 1, "co": {"X": 1, "Y": 0}}, {"interpolation": 1, "co": {"X": 770, "Y": 770}}, {"interpolation": 1, "co": {"X": 866, "Y": 770}}, {"interpolation": 1, "co": {"X": 1171, "Y": 1075}}, {"interpolation": 1, "co": {"X": 1219, "Y": 1075}}, {"interpolation": 1, "co": {"X": 1171, "Y": 1075}}, {"interpolation": 1, "co": {"X": 1219, "Y": 1075}}, {"interpolation": 1, "co": {"X": 1190, "Y": 1075}}, {"interpolation": 1, "co": {"X": 1286, "Y": 1075}}, {"interpolation": 1, "co": {"X": 1222, "Y": 1075}}, {"interpolation": 1, "co": {"X": 1318, "Y": 1075}}, {"interpolation": 1, "co": {"X": 1209, "Y": 1075}}, {"interpolation": 1, "co": {"X": 1305, "Y": 1075}}, {"interpolation": 1, "co": {"X": 1945, "Y": 1465}}]}, "volume": {"Points": [{"interpolation": 2, "co": {"X": 1, "Y": 1}}, {"interpolation": 1, "co": {"X": 768, "Y": 1}}, {"interpolation": 1, "co": {"X": 769, "Y": 0}}, {"interpolation": 1, "co": {"X": 816, "Y": 0}}, {"interpolation": 1, "co": {"X": 817, "Y": 1}}, {"interpolation": 1, "co": {"X": 768, "Y": 0}}, {"interpolation": 1, "co": {"X": 769, "Y": 0}}, {"interpolation": 1, "co": {"X": 816, "Y": 0}}, {"interpolation": 1, "co": {"X": 817, "Y": 0}}, {"interpolation": 1, "co": {"X": 768, "Y": 0}}, {"interpolation": 1, "co": {"X": 769, "Y": 0}}, {"interpolation": 1, "co": {"X": 816, "Y": 0}}, {"interpolation": 1, "co": {"X": 817, "Y": 0}}, {"interpolation": 1, "co": {"X": 768, "Y": 0}}, {"interpolation": 1, "co": {"X": 769, "Y": 0}}, {"interpolation": 1, "co": {"X": 816, "Y": 0}}, {"interpolation": 1, "co": {"X": 817, "Y": 0}}, {"interpolation": 1, "co": {"X": 804, "Y": 0}}, {"interpolation": 1, "co": {"X": 805, "Y": 0}}, {"interpolation": 1, "co": {"X": 852, "Y": 0}}, {"interpolation": 1, "co": {"X": 853, "Y": 0}}, {"interpolation": 1, "co": {"X": 769, "Y": 0}}, {"interpolation": 1, "co": {"X": 770, "Y": 0}}, {"interpolation": 1, "co": {"X": 865, "Y": 0}}, {"interpolation": 1, "co": {"X": 866, "Y": 0}}, {"interpolation": 1, "co": {"X": 1170, "Y": 0}}, {"interpolation": 1, "co": {"X": 1171, "Y": 0}}, {"interpolation": 1, "co": {"X": 1218, "Y": 0}}, {"interpolation": 1, "co": {"X": 1219, "Y": 0}}, {"interpolation": 1, "co": {"X": 1170, "Y": 0}}, {"interpolation": 1, "co": {"X": 1171, "Y": 0}}, {"interpolation": 1, "co": {"X": 1218, "Y": 0}}, {"interpolation": 1, "co": {"X": 1219, "Y": 0}}, {"interpolation": 1, "co": {"X": 1189, "Y": 0}}, {"interpolation": 1, "co": {"X": 1190, "Y": 0}}, {"interpolation": 1, "co": {"X": 1285, "Y": 0}}, {"interpolation": 1, "co": {"X": 1286, "Y": 0}}, {"interpolation": 1, "co": {"X": 1221, "Y": 0}}, {"interpolation": 1, "co": {"X": 1222, "Y": 0}}, {"interpolation": 1, "co": {"X": 1317, "Y": 0}}, {"interpolation": 1, "co": {"X": 1318, "Y": 0}}, {"interpolation": 1, "co": {"X": 1208, "Y": 0}}, {"interpolation": 1, "co": {"X": 1209, "Y": 0}}, {"interpolation": 1, "co": {"X": 1304, "Y": 0}}, {"interpolation": 1, "co": {"X": 1305, "Y": 0}}]}, "crop_height": {"Points": [{"interpolation": 2, "co": {"X": 1, "Y": -1}}]}, "effects": [], "rotation": {"Points": [{"interpolation": 2, "co": {"X": 1, "Y": 0}}]}, "image": "/home/milind/.openshot_qt/thumbnail/OF57GEZECQ-1196.png", "crop_x": {"Points": [{"interpolation": 2, "co": {"X": 1, "Y": 0}}]}, "perspective_c2_x": {"Points": [{"interpolation": 2, "co": {"X": 1, "Y": -1}}]}, "scale": 1, "waveform": false, "has_video": {"Points": [{"interpolation": 2, "co": {"X": 1, "Y": -1}}]}, "has_audio": {"Points": [{"interpolation": 2, "co": {"X": 1, "Y": -1}}]}, "anchor": 0, "perspective_c3_y": {"Points": [{"interpolation": 2, "co": {"X": 1, "Y": -1}}]}, "perspective_c4_x": {"Points": [{"interpolation": 2, "co": {"X": 1, "Y": -1}}]}, "end": 56.51104166666667, "scale_x": {"Points": [{"interpolation": 2, "co": {"X": 1, "Y": 1}}, {"interpolation": 1, "co": {"X": 768, "Y": 1.2999999523162842}}, {"interpolation": 1, "co": {"X": 822, "Y": 2.299999952316284}}]}, "shear_y": {"Points": [{"interpolation": 2, "co": {"X": 1, "Y": 0}}]}, "display": 0, "perspective_c1_y": {"Points": [{"interpolation": 2, "co": {"X": 1, "Y": -1}}]}, "position": 47.95625, "crop_y": {"Points": [{"interpolation": 2, "co": {"X": 1, "Y": 0}}]}, "crop_width": {"Points": [{"interpolation": 2, "co": {"X": 1, "Y": -1}}]}, "title": "!160-Register Spreadsheet as Database.mkv", "original_data": {"duration": 61.0, "video_length": "1525", "end": 61}, "location_x": {"Points": [{"interpolation": 2, "co": {"X": 1, "Y": 0}}, {"interpolation": 1, "co": {"X": 822, "Y": -0.20000000298023224}}]}, "shear_x": {"Points": [{"interpolation": 2, "co": {"X": 1, "Y": 0}}]}, "channel_filter": {"Points": [{"interpolation": 2, "co": {"X": 1, "Y": -1}}]}, "location_y": {"Points": [{"interpolation": 2, "co": {"X": 1, "Y": 0}}, {"interpolation": 1, "co": {"X": 768, "Y": -0.03500000014901161}}, {"interpolation": 1, "co": {"X": 822, "Y": 0.30000001192092896}}, {"interpolation": 1, "co": {"X": 901, "Y": -0.44999998807907104}}, {"interpolation": 1, "co": {"X": 876, "Y": 0.30000001192092896}}]}, "perspective_c1_x": {"Points": [{"interpolation": 2, "co": {"X": 1, "Y": -1}}]}, "id": "OF57GEZECQ", "start": 47.800625000000004, "perspective_c4_y": {"Points": [{"interpolation": 2, "co": {"X": 1, "Y": -1}}]}, "wave_color": {"blue": {"Points": [{"handle_type": 0, "handle_right": {"X": 0.5, "Y": 0}, "interpolation": 0, "co": {"X": 1, "Y": 255}, "handle_left": {"X": 0.5, "Y": 1}}]}, "red": {"Points": [{"handle_type": 0, "handle_right": {"X": 0.5, "Y": 0}, "interpolation": 0, "co": {"X": 1, "Y": 0}, "handle_left": {"X": 0.5, "Y": 1}}]}, "alpha": {"Points": [{"handle_type": 0, "handle_right": {"X": 0.5, "Y": 0}, "interpolation": 0, "co": {"X": 1, "Y": 255}, "handle_left": {"X": 0.5, "Y": 1}}]}, "green": {"Points": [{"handle_type": 0, "handle_right": {"X": 0.5, "Y": 0}, "interpolation": 0, "co": {"X": 1, "Y": 123}, "handle_left": {"X": 0.5, "Y": 1}}]}}, "layer": 3}, "type": "update", "partial": false, "key": ["clips", {"id": "OF57GEZECQ"}], "old_values": {"perspective_c1_y": {"Points": [{"interpolation": 2, "co": {"X": 1, "Y": -1}}]}, "perspective_c3_x": {"Points": [{"interpolation": 2, "co": {"X": 1, "Y": -1}}]}, "perspective_c2_y": {"Points": [{"interpolation": 2, "co": {"X": 1, "Y": -1}}]}, "alpha": {"Points": [{"handle_type": 0, "handle_right": {"X": 0.5, "Y": 0}, "interpolation": 0, "co": {"X": 1, "Y": 1}, "handle_left": {"X": 0.5, "Y": 1}}]}, "scale_y": {"Points": [{"interpolation": 2, "co": {"X": 1, "Y": 1}}, {"interpolation": 1, "co": {"X": 768, "Y": 1.2999999523162842}}, {"interpolation": 1, "co": {"X": 822, "Y": 2.299999952316284}}]}, "time": {"Points": [{"interpolation": 1, "co": {"X": 1, "Y": 0}}, {"interpolation": 1, "co": {"X": 770, "Y": 770}}, {"interpolation": 1, "co": {"X": 866, "Y": 770}}, {"interpolation": 1, "co": {"X": 1171, "Y": 1075}}, {"interpolation": 1, "co": {"X": 1219, "Y": 1075}}, {"interpolation": 1, "co": {"X": 1171, "Y": 1075}}, {"interpolation": 1, "co": {"X": 1219, "Y": 1075}}, {"interpolation": 1, "co": {"X": 1190, "Y": 1075}}, {"interpolation": 1, "co": {"X": 1286, "Y": 1075}}, {"interpolation": 1, "co": {"X": 1222, "Y": 1075}}, {"interpolation": 1, "co": {"X": 1318, "Y": 1075}}, {"interpolation": 1, "co": {"X": 1209, "Y": 1075}}, {"interpolation": 1, "co": {"X": 1305, "Y": 1075}}, {"interpolation": 1, "co": {"X": 1945, "Y": 1465}}]}, "volume": {"Points": [{"interpolation": 2, "co": {"X": 1, "Y": 1}}, {"interpolation": 1, "co": {"X": 768, "Y": 1}}, {"interpolation": 1, "co": {"X": 769, "Y": 0}}, {"interpolation": 1, "co": {"X": 816, "Y": 0}}, {"interpolation": 1, "co": {"X": 817, "Y": 1}}, {"interpolation": 1, "co": {"X": 768, "Y": 0}}, {"interpolation": 1, "co": {"X": 769, "Y": 0}}, {"interpolation": 1, "co": {"X": 816, "Y": 0}}, {"interpolation": 1, "co": {"X": 817, "Y": 0}}, {"interpolation": 1, "co": {"X": 768, "Y": 0}}, {"interpolation": 1, "co": {"X": 769, "Y": 0}}, {"interpolation": 1, "co": {"X": 816, "Y": 0}}, {"interpolation": 1, "co": {"X": 817, "Y": 0}}, {"interpolation": 1, "co": {"X": 768, "Y": 0}}, {"interpolation": 1, "co": {"X": 769, "Y": 0}}, {"interpolation": 1, "co": {"X": 816, "Y": 0}}, {"interpolation": 1, "co": {"X": 817, "Y": 0}}, {"interpolation": 1, "co": {"X": 804, "Y": 0}}, {"interpolation": 1, "co": {"X": 805, "Y": 0}}, {"interpolation": 1, "co": {"X": 852, "Y": 0}}, {"interpolation": 1, "co": {"X": 853, "Y": 0}}, {"interpolation": 1, "co": {"X": 769, "Y": 0}}, {"interpolation": 1, "co": {"X": 770, "Y": 0}}, {"interpolation": 1, "co": {"X": 865, "Y": 0}}, {"interpolation": 1, "co": {"X": 866, "Y": 0}}, {"interpolation": 1, "co": {"X": 1170, "Y": 0}}, {"interpolation": 1, "co": {"X": 1171, "Y": 0}}, {"interpolation": 1, "co": {"X": 1218, "Y": 0}}, {"interpolation": 1, "co": {"X": 1219, "Y": 0}}, {"interpolation": 1, "co": {"X": 1170, "Y": 0}}, {"interpolation": 1, "co": {"X": 1171, "Y": 0}}, {"interpolation": 1, "co": {"X": 1218, "Y": 0}}, {"interpolation": 1, "co": {"X": 1219, "Y": 0}}, {"interpolation": 1, "co": {"X": 1189, "Y": 0}}, {"interpolation": 1, "co": {"X": 1190, "Y": 0}}, {"interpolation": 1, "co": {"X": 1285, "Y": 0}}, {"interpolation": 1, "co": {"X": 1286, "Y": 0}}, {"interpolation": 1, "co": {"X": 1221, "Y": 0}}, {"interpolation": 1, "co": {"X": 1222, "Y": 0}}, {"interpolation": 1, "co": {"X": 1317, "Y": 0}}, {"interpolation": 1, "co": {"X": 1318, "Y": 0}}, {"interpolation": 1, "co": {"X": 1208, "Y": 0}}, {"interpolation": 1, "co": {"X": 1209, "Y": 0}}, {"interpolation": 1, "co": {"X": 1304, "Y": 0}}, {"interpolation": 1, "co": {"X": 1305, "Y": 0}}]}, "crop_height": {"Points": [{"interpolation": 2, "co": {"X": 1, "Y": -1}}]}, "effects": [], "rotation": {"Points": [{"interpolation": 2, "co": {"X": 1, "Y": 0}}]}, "has_video": {"Points": [{"interpolation": 2, "co": {"X": 1, "Y": -1}}]}, "perspective_c2_x": {"Points": [{"interpolation": 2, "co": {"X": 1, "Y": -1}}]}, "image": "/home/milind/.openshot_qt/thumbnail/OF57GEZECQ-1196.png", "perspective_c3_y": {"Points": [{"interpolation": 2, "co": {"X": 1, "Y": -1}}]}, "position": 47.95625, "channel_mapping": {"Points": [{"interpolation": 2, "co": {"X": 1, "Y": -1}}]}, "shear_y": {"Points": [{"interpolation": 2, "co": {"X": 1, "Y": 0}}]}, "crop_width": {"Points": [{"interpolation": 2, "co": {"X": 1, "Y": -1}}]}, "location_x": {"Points": [{"interpolation": 2, "co": {"X": 1, "Y": 0}}, {"interpolation": 1, "co": {"X": 822, "Y": -0.20000000298023224}}]}, "crop_y": {"Points": [{"interpolation": 2, "co": {"X": 1, "Y": 0}}]}, "title": "!160-Register Spreadsheet as Database.mkv", "original_data": {"duration": 61.0, "video_length": "1525", "end": 61}, "shear_x": {"Points": [{"interpolation": 2, "co": {"X": 1, "Y": 0}}]}, "channel_filter": {"Points": [{"interpolation": 2, "co": {"X": 1, "Y": -1}}]}, "location_y": {"Points": [{"interpolation": 2, "co": {"X": 1, "Y": 0}}, {"interpolation": 1, "co": {"X": 768, "Y": -0.03500000014901161}}, {"interpolation": 1, "co": {"X": 822, "Y": 0.30000001192092896}}, {"interpolation": 1, "co": {"X": 901, "Y": -0.44999998807907104}}, {"interpolation": 1, "co": {"X": 876, "Y": 0.30000001192092896}}]}, "id": "OF57GEZECQ", "start": 47.800625000000004, "perspective_c4_y": {"Points": [{"interpolation": 2, "co": {"X": 1, "Y": -1}}]}, "wave_color": {"blue": {"Points": [{"handle_type": 0, "handle_right": {"X": 0.5, "Y": 0}, "interpolation": 0, "co": {"X": 1, "Y": 255}, "handle_left": {"X": 0.5, "Y": 1}}]}, "red": {"Points": [{"handle_type": 0, "handle_right": {"X": 0.5, "Y": 0}, "interpolation": 0, "co": {"X": 1, "Y": 0}, "handle_left": {"X": 0.5, "Y": 1}}]}, "alpha": {"Points": [{"handle_type": 0, "handle_right": {"X": 0.5, "Y": 0}, "interpolation": 0, "co": {"X": 1, "Y": 255}, "handle_left": {"X": 0.5, "Y": 1}}]}, "green": {"Points": [{"handle_type": 0, "handle_right": {"X": 0.5, "Y": 0}, "interpolation": 0, "co": {"X": 1, "Y": 123}, "handle_left": {"X": 0.5, "Y": 1}}]}}, "perspective_c4_x": {"Points": [{"interpolation": 2, "co": {"X": 1, "Y": -1}}]}, "duration": 81.0, "crop_x": {"Points": [{"interpolation": 2, "co": {"X": 1, "Y": 0}}]}, "file_id": "YJ84IVW8VE", "end": 56.51104166666667, "scale": 1, "has_audio": {"Points": [{"interpolation": 2, "co": {"X": 1, "Y": -1}}]}, "anchor": 0, "reader": {"duration": 61.0, "top_field_first": true, "file_size": "666485", "has_single_image": false, "sample_rate": 0, "pixel_ratio": {"den": 1, "num": 1}, "channel_layout": 4, "video_length": "1525", "interlaced_frame": false, "vcodec": "h264", "has_video": true, "has_audio": false, "video_stream_index": 0, "audio_stream_index": -1, "type": "FFmpegReader", "fps": {"den": 1, "num": 25}, "display_ratio": {"den": 384, "num": 683}, "channels": 0, "video_timebase": {"den": 1000, "num": 1}, "audio_bit_rate": 0, "pixel_format": 0, "height": 768, "width": 1366, "acodec": "", "audio_timebase": {"den": 1, "num": 1}, "video_bit_rate": 87179, "path": "/home/milind/Data/Projects/ProgressCard/!160-Register Spreadsheet as Database.mkv"}, "gravity": 4, "scale_x": {"Points": [{"interpolation": 2, "co": {"X": 1, "Y": 1}}, {"interpolation": 1, "co": {"X": 768, "Y": 1.2999999523162842}}, {"interpolation": 1, "co": {"X": 822, "Y": 2.299999952316284}}]}, "display": 0, "waveform": false, "layer": 3, "perspective_c1_x": {"Points": [{"interpolation": 2, "co": {"X": 1, "Y": -1}}]}}}, {"value": {"position": 0, "end": 63.2, "image": "/home/milind/.openshot_qt/thumbnail/W3X0DXJTS6.png", "id": "UM8RJNI4RE", "start": 0, "layer": 0}, "type": "update", "partial": false, "key": ["clips", {"id": "UM8RJNI4RE"}], "old_values": {"perspective_c3_x": {"Points": [{"co": {"X": 1, "Y": -1}, "interpolation": 2}]}, "duration": 86400.0, "perspective_c2_y": {"Points": [{"co": {"X": 1, "Y": -1}, "interpolation": 2}]}, "alpha": {"Points": [{"co": {"X": 1, "Y": 1}, "interpolation": 2}]}, "file_id": "W3X0DXJTS6", "end": 55.0, "scale_y": {"Points": [{"co": {"X": 1, "Y": 1}, "interpolation": 2}]}, "time": {"Points": [{"co": {"X": 1, "Y": 1}, "interpolation": 2}]}, "volume": {"Points": [{"co": {"X": 1, "Y": 1}, "interpolation": 2}]}, "crop_height": {"Points": [{"co": {"X": 1, "Y": -1}, "interpolation": 2}]}, "effects": [], "rotation": {"Points": [{"co": {"X": 1, "Y": 0}, "interpolation": 2}]}, "has_video": {"Points": [{"co": {"X": 1, "Y": -1}, "interpolation": 2}]}, "crop_x": {"Points": [{"co": {"X": 1, "Y": 0}, "interpolation": 2}]}, "perspective_c2_x": {"Points": [{"co": {"X": 1, "Y": -1}, "interpolation": 2}]}, "scale": 1, "waveform": false, "image": "/home/milind/.openshot_qt/thumbnail/W3X0DXJTS6.png", "has_audio": {"Points": [{"co": {"X": 1, "Y": -1}, "interpolation": 2}]}, "anchor": 0, "reader": {"duration": 86400.0, "type": "QtImageReader", "file_size": "8294400", "has_single_image": true, "sample_rate": 0, "pixel_ratio": {"den": 1, "num": 1}, "video_length": "2592000", "channel_layout": 4, "interlaced_frame": false, "vcodec": "", "has_video": true, "has_audio": false, "video_stream_index": -1, "audio_stream_index": -1, "fps": {"den": 1, "num": 30}, "display_ratio": {"den": 9, "num": 16}, "channels": 0, "audio_bit_rate": 0, "video_timebase": {"den": 30, "num": 1}, "top_field_first": true, "pixel_format": -1, "height": 1080, "width": 1920, "acodec": "", "audio_timebase": {"den": 1, "num": 1}, "video_bit_rate": 0, "path": "/home/milind/Data/Projects/ProgressCard/!000-White-Background.svg"}, "gravity": 4, "channel_mapping": {"Points": [{"co": {"X": 1, "Y": -1}, "interpolation": 2}]}, "scale_x": {"Points": [{"co": {"X": 1, "Y": 1}, "interpolation": 2}]}, "shear_y": {"Points": [{"co": {"X": 1, "Y": 0}, "interpolation": 2}]}, "display": 0, "perspective_c1_y": {"Points": [{"co": {"X": 1, "Y": -1}, "interpolation": 2}]}, "position": 0, "crop_y": {"Points": [{"co": {"X": 1, "Y": 0}, "interpolation": 2}]}, "crop_width": {"Points": [{"co": {"X": 1, "Y": -1}, "interpolation": 2}]}, "title": "!000-White-Background.svg", "layer": 0, "location_x": {"Points": [{"co": {"X": 1, "Y": 0}, "interpolation": 2}]}, "shear_x": {"Points": [{"co": {"X": 1, "Y": 0}, "interpolation": 2}]}, "channel_filter": {"Points": [{"co": {"X": 1, "Y": -1}, "interpolation": 2}]}, "perspective_c3_y": {"Points": [{"co": {"X": 1, "Y": -1}, "interpolation": 2}]}, "location_y": {"Points": [{"co": {"X": 1, "Y": 0}, "interpolation": 2}]}, "perspective_c1_x": {"Points": [{"co": {"X": 1, "Y": -1}, "interpolation": 2}]}, "id": "UM8RJNI4RE", "start": 0, "perspective_c4_y": {"Points": [{"co": {"X": 1, "Y": -1}, "interpolation": 2}]}, "wave_color": {"blue": {"Points": [{"handle_type": 0, "handle_right": {"X": 0.5, "Y": 0}, "interpolation": 0, "co": {"X": 1, "Y": 255}, "handle_left": {"X": 0.5, "Y": 1}}]}, "red": {"Points": [{"handle_type": 0, "handle_right": {"X": 0.5, "Y": 0}, "interpolation": 0, "co": {"X": 1, "Y": 0}, "handle_left": {"X": 0.5, "Y": 1}}]}, "alpha": {"Points": [{"handle_type": 0, "handle_right": {"X": 0.5, "Y": 0}, "interpolation": 0, "co": {"X": 1, "Y": 255}, "handle_left": {"X": 0.5, "Y": 1}}]}, "green": {"Points": [{"handle_type": 0, "handle_right": {"X": 0.5, "Y": 0}, "interpolation": 0, "co": {"X": 1, "Y": 123}, "handle_left": {"X": 0.5, "Y": 1}}]}}, "perspective_c4_x": {"Points": [{"co": {"X": 1, "Y": -1}, "interpolation": 2}]}}}, {"value": {"perspective_c3_x": {"Points": [{"interpolation": 2, "co": {"X": 1, "Y": -1}}]}, "duration": 87.0, "perspective_c2_y": {"Points": [{"interpolation": 2, "co": {"X": 1, "Y": -1}}]}, "alpha": {"Points": [{"handle_type": 0, "handle_right": {"X": 0.5, "Y": 0}, "interpolation": 0, "co": {"X": 1, "Y": 1}, "handle_left": {"X": 0.5, "Y": 1}}, {"handle_type": 0, "handle_right": {"X": 0.5, "Y": 0}, "interpolation": 0, "co": {"X": 1285, "Y": 1}, "handle_left": {"X": 0.5, "Y": 1}}, {"handle_type": 0, "handle_right": {"X": 0.5, "Y": 0}, "interpolation": 0, "co": {"X": 1357, "Y": 0}, "handle_left": {"X": 0.5, "Y": 1}}]}, "gravity": 4, "file_id": "YJ84IVW8VE", "channel_mapping": {"Points": [{"interpolation": 2, "co": {"X": 1, "Y": -1}}]}, "scale_y": {"Points": [{"interpolation": 2, "co": {"X": 1, "Y": 1}}, {"interpolation": 1, "co": {"X": 768, "Y": 1.2999999523162842}}, {"interpolation": 1, "co": {"X": 822, "Y": 2.299999952316284}}]}, "time": {"Points": [{"interpolation": 1, "co": {"X": 1, "Y": 0}}, {"interpolation": 1, "co": {"X": 770, "Y": 770}}, {"interpolation": 1, "co": {"X": 866, "Y": 770}}, {"interpolation": 1, "co": {"X": 1171, "Y": 1075}}, {"interpolation": 1, "co": {"X": 1219, "Y": 1075}}, {"interpolation": 1, "co": {"X": 1171, "Y": 1075}}, {"interpolation": 1, "co": {"X": 1219, "Y": 1075}}, {"interpolation": 1, "co": {"X": 1190, "Y": 1075}}, {"interpolation": 1, "co": {"X": 1286, "Y": 1075}}, {"interpolation": 1, "co": {"X": 1222, "Y": 1075}}, {"interpolation": 1, "co": {"X": 1318, "Y": 1075}}, {"interpolation": 1, "co": {"X": 1209, "Y": 1075}}, {"interpolation": 1, "co": {"X": 1305, "Y": 1075}}, {"interpolation": 1, "co": {"X": 1205, "Y": 1075}}, {"interpolation": 1, "co": {"X": 1349, "Y": 1075}}, {"interpolation": 1, "co": {"X": 2089, "Y": 1465}}]}, "volume": {"Points": [{"interpolation": 2, "co": {"X": 1, "Y": 1}}, {"interpolation": 1, "co": {"X": 768, "Y": 1}}, {"interpolation": 1, "co": {"X": 769, "Y": 0}}, {"interpolation": 1, "co": {"X": 816, "Y": 0}}, {"interpolation": 1, "co": {"X": 817, "Y": 1}}, {"interpolation": 1, "co": {"X": 768, "Y": 0}}, {"interpolation": 1, "co": {"X": 769, "Y": 0}}, {"interpolation": 1, "co": {"X": 816, "Y": 0}}, {"interpolation": 1, "co": {"X": 817, "Y": 0}}, {"interpolation": 1, "co": {"X": 768, "Y": 0}}, {"interpolation": 1, "co": {"X": 769, "Y": 0}}, {"interpolation": 1, "co": {"X": 816, "Y": 0}}, {"interpolation": 1, "co": {"X": 817, "Y": 0}}, {"interpolation": 1, "co": {"X": 768, "Y": 0}}, {"interpolation": 1, "co": {"X": 769, "Y": 0}}, {"interpolation": 1, "co": {"X": 816, "Y": 0}}, {"interpolation": 1, "co": {"X": 817, "Y": 0}}, {"interpolation": 1, "co": {"X": 804, "Y": 0}}, {"interpolation": 1, "co": {"X": 805, "Y": 0}}, {"interpolation": 1, "co": {"X": 852, "Y": 0}}, {"interpolation": 1, "co": {"X": 853, "Y": 0}}, {"interpolation": 1, "co": {"X": 769, "Y": 0}}, {"interpolation": 1, "co": {"X": 770, "Y": 0}}, {"interpolation": 1, "co": {"X": 865, "Y": 0}}, {"interpolation": 1, "co": {"X": 866, "Y": 0}}, {"interpolation": 1, "co": {"X": 1170, "Y": 0}}, {"interpolation": 1, "co": {"X": 1171, "Y": 0}}, {"interpolation": 1, "co": {"X": 1218, "Y": 0}}, {"interpolation": 1, "co": {"X": 1219, "Y": 0}}, {"interpolation": 1, "co": {"X": 1170, "Y": 0}}, {"interpolation": 1, "co": {"X": 1171, "Y": 0}}, {"interpolation": 1, "co": {"X": 1218, "Y": 0}}, {"interpolation": 1, "co": {"X": 1219, "Y": 0}}, {"interpolation": 1, "co": {"X": 1189, "Y": 0}}, {"interpolation": 1, "co": {"X": 1190, "Y": 0}}, {"interpolation": 1, "co": {"X": 1285, "Y": 0}}, {"interpolation": 1, "co": {"X": 1286, "Y": 0}}, {"interpolation": 1, "co": {"X": 1221, "Y": 0}}, {"interpolation": 1, "co": {"X": 1222, "Y": 0}}, {"interpolation": 1, "co": {"X": 1317, "Y": 0}}, {"interpolation": 1, "co": {"X": 1318, "Y": 0}}, {"interpolation": 1, "co": {"X": 1208, "Y": 0}}, {"interpolation": 1, "co": {"X": 1209, "Y": 0}}, {"interpolation": 1, "co": {"X": 1304, "Y": 0}}, {"interpolation": 1, "co": {"X": 1305, "Y": 0}}, {"interpolation": 1, "co": {"X": 1204, "Y": 0}}, {"interpolation": 1, "co": {"X": 1205, "Y": 0}}, {"interpolation": 1, "co": {"X": 1348, "Y": 0}}, {"interpolation": 1, "co": {"X": 1349, "Y": 0}}]}, "crop_height": {"Points": [{"interpolation": 2, "co": {"X": 1, "Y": -1}}]}, "effects": [], "rotation": {"Points": [{"interpolation": 2, "co": {"X": 1, "Y": 0}}]}, "image": "/home/milind/.openshot_qt/thumbnail/OF57GEZECQ-1196.png", "crop_x": {"Points": [{"interpolation": 2, "co": {"X": 1, "Y": 0}}]}, "perspective_c2_x": {"Points": [{"interpolation": 2, "co": {"X": 1, "Y": -1}}]}, "scale": 1, "waveform": false, "has_video": {"Points": [{"interpolation": 2, "co": {"X": 1, "Y": -1}}]}, "has_audio": {"Points": [{"interpolation": 2, "co": {"X": 1, "Y": -1}}]}, "anchor": 0, "perspective_c3_y": {"Points": [{"interpolation": 2, "co": {"X": 1, "Y": -1}}]}, "perspective_c4_x": {"Points": [{"interpolation": 2, "co": {"X": 1, "Y": -1}}]}, "end": 62.51104166666667, "scale_x": {"Points": [{"interpolation": 2, "co": {"X": 1, "Y": 1}}, {"interpolation": 1, "co": {"X": 768, "Y": 1.2999999523162842}}, {"interpolation": 1, "co": {"X": 822, "Y": 2.299999952316284}}]}, "shear_y": {"Points": [{"interpolation": 2, "co": {"X": 1, "Y": 0}}]}, "display": 0, "perspective_c1_y": {"Points": [{"interpolation": 2, "co": {"X": 1, "Y": -1}}]}, "position": 47.95625, "crop_y": {"Points": [{"interpolation": 2, "co": {"X": 1, "Y": 0}}]}, "crop_width": {"Points": [{"interpolation": 2, "co": {"X": 1, "Y": -1}}]}, "title": "!160-Register Spreadsheet as Database.mkv", "original_data": {"duration": 61.0, "video_length": "1525", "end": 61}, "location_x": {"Points": [{"interpolation": 2, "co": {"X": 1, "Y": 0}}, {"interpolation": 1, "co": {"X": 822, "Y": -0.20000000298023224}}]}, "shear_x": {"Points": [{"interpolation": 2, "co": {"X": 1, "Y": 0}}]}, "channel_filter": {"Points": [{"interpolation": 2, "co": {"X": 1, "Y": -1}}]}, "location_y": {"Points": [{"interpolation": 2, "co": {"X": 1, "Y": 0}}, {"interpolation": 1, "co": {"X": 768, "Y": -0.03500000014901161}}, {"interpolation": 1, "co": {"X": 822, "Y": 0.30000001192092896}}, {"interpolation": 1, "co": {"X": 901, "Y": -0.44999998807907104}}, {"interpolation": 1, "co": {"X": 876, "Y": 0.30000001192092896}}]}, "perspective_c1_x": {"Points": [{"interpolation": 2, "co": {"X": 1, "Y": -1}}]}, "id": "OF57GEZECQ", "start": 47.800625000000004, "perspective_c4_y": {"Points": [{"interpolation": 2, "co": {"X": 1, "Y": -1}}]}, "wave_color": {"blue": {"Points": [{"handle_type": 0, "handle_right": {"X": 0.5, "Y": 0}, "interpolation": 0, "co": {"X": 1, "Y": 255}, "handle_left": {"X": 0.5, "Y": 1}}]}, "red": {"Points": [{"handle_type": 0, "handle_right": {"X": 0.5, "Y": 0}, "interpolation": 0, "co": {"X": 1, "Y": 0}, "handle_left": {"X": 0.5, "Y": 1}}]}, "alpha": {"Points": [{"handle_type": 0, "handle_right": {"X": 0.5, "Y": 0}, "interpolation": 0, "co": {"X": 1, "Y": 255}, "handle_left": {"X": 0.5, "Y": 1}}]}, "green": {"Points": [{"handle_type": 0, "handle_right": {"X": 0.5, "Y": 0}, "interpolation": 0, "co": {"X": 1, "Y": 123}, "handle_left": {"X": 0.5, "Y": 1}}]}}, "layer": 3}, "type": "update", "partial": false, "key": ["clips", {"id": "OF57GEZECQ"}], "old_values": {"perspective_c1_y": {"Points": [{"interpolation": 2, "co": {"X": 1, "Y": -1}}]}, "perspective_c3_x": {"Points": [{"interpolation": 2, "co": {"X": 1, "Y": -1}}]}, "perspective_c2_y": {"Points": [{"interpolation": 2, "co": {"X": 1, "Y": -1}}]}, "alpha": {"Points": [{"handle_type": 0, "handle_right": {"X": 0.5, "Y": 0}, "interpolation": 0, "co": {"X": 1, "Y": 1}, "handle_left": {"X": 0.5, "Y": 1}}, {"handle_type": 0, "handle_right": {"X": 0.5, "Y": 0}, "interpolation": 0, "co": {"X": 1285, "Y": 1}, "handle_left": {"X": 0.5, "Y": 1}}, {"handle_type": 0, "handle_right": {"X": 0.5, "Y": 0}, "interpolation": 0, "co": {"X": 1357, "Y": 0}, "handle_left": {"X": 0.5, "Y": 1}}]}, "scale_y": {"Points": [{"interpolation": 2, "co": {"X": 1, "Y": 1}}, {"interpolation": 1, "co": {"X": 768, "Y": 1.2999999523162842}}, {"interpolation": 1, "co": {"X": 822, "Y": 2.299999952316284}}]}, "time": {"Points": [{"interpolation": 1, "co": {"X": 1, "Y": 0}}, {"interpolation": 1, "co": {"X": 770, "Y": 770}}, {"interpolation": 1, "co": {"X": 866, "Y": 770}}, {"interpolation": 1, "co": {"X": 1171, "Y": 1075}}, {"interpolation": 1, "co": {"X": 1219, "Y": 1075}}, {"interpolation": 1, "co": {"X": 1171, "Y": 1075}}, {"interpolation": 1, "co": {"X": 1219, "Y": 1075}}, {"interpolation": 1, "co": {"X": 1190, "Y": 1075}}, {"interpolation": 1, "co": {"X": 1286, "Y": 1075}}, {"interpolation": 1, "co": {"X": 1222, "Y": 1075}}, {"interpolation": 1, "co": {"X": 1318, "Y": 1075}}, {"interpolation": 1, "co": {"X": 1209, "Y": 1075}}, {"interpolation": 1, "co": {"X": 1305, "Y": 1075}}, {"interpolation": 1, "co": {"X": 1945, "Y": 1465}}]}, "volume": {"Points": [{"interpolation": 2, "co": {"X": 1, "Y": 1}}, {"interpolation": 1, "co": {"X": 768, "Y": 1}}, {"interpolation": 1, "co": {"X": 769, "Y": 0}}, {"interpolation": 1, "co": {"X": 816, "Y": 0}}, {"interpolation": 1, "co": {"X": 817, "Y": 1}}, {"interpolation": 1, "co": {"X": 768, "Y": 0}}, {"interpolation": 1, "co": {"X": 769, "Y": 0}}, {"interpolation": 1, "co": {"X": 816, "Y": 0}}, {"interpolation": 1, "co": {"X": 817, "Y": 0}}, {"interpolation": 1, "co": {"X": 768, "Y": 0}}, {"interpolation": 1, "co": {"X": 769, "Y": 0}}, {"interpolation": 1, "co": {"X": 816, "Y": 0}}, {"interpolation": 1, "co": {"X": 817, "Y": 0}}, {"interpolation": 1, "co": {"X": 768, "Y": 0}}, {"interpolation": 1, "co": {"X": 769, "Y": 0}}, {"interpolation": 1, "co": {"X": 816, "Y": 0}}, {"interpolation": 1, "co": {"X": 817, "Y": 0}}, {"interpolation": 1, "co": {"X": 804, "Y": 0}}, {"interpolation": 1, "co": {"X": 805, "Y": 0}}, {"interpolation": 1, "co": {"X": 852, "Y": 0}}, {"interpolation": 1, "co": {"X": 853, "Y": 0}}, {"interpolation": 1, "co": {"X": 769, "Y": 0}}, {"interpolation": 1, "co": {"X": 770, "Y": 0}}, {"interpolation": 1, "co": {"X": 865, "Y": 0}}, {"interpolation": 1, "co": {"X": 866, "Y": 0}}, {"interpolation": 1, "co": {"X": 1170, "Y": 0}}, {"interpolation": 1, "co": {"X": 1171, "Y": 0}}, {"interpolation": 1, "co": {"X": 1218, "Y": 0}}, {"interpolation": 1, "co": {"X": 1219, "Y": 0}}, {"interpolation": 1, "co": {"X": 1170, "Y": 0}}, {"interpolation": 1, "co": {"X": 1171, "Y": 0}}, {"interpolation": 1, "co": {"X": 1218, "Y": 0}}, {"interpolation": 1, "co": {"X": 1219, "Y": 0}}, {"interpolation": 1, "co": {"X": 1189, "Y": 0}}, {"interpolation": 1, "co": {"X": 1190, "Y": 0}}, {"interpolation": 1, "co": {"X": 1285, "Y": 0}}, {"interpolation": 1, "co": {"X": 1286, "Y": 0}}, {"interpolation": 1, "co": {"X": 1221, "Y": 0}}, {"interpolation": 1, "co": {"X": 1222, "Y": 0}}, {"interpolation": 1, "co": {"X": 1317, "Y": 0}}, {"interpolation": 1, "co": {"X": 1318, "Y": 0}}, {"interpolation": 1, "co": {"X": 1208, "Y": 0}}, {"interpolation": 1, "co": {"X": 1209, "Y": 0}}, {"interpolation": 1, "co": {"X": 1304, "Y": 0}}, {"interpolation": 1, "co": {"X": 1305, "Y": 0}}]}, "crop_height": {"Points": [{"interpolation": 2, "co": {"X": 1, "Y": -1}}]}, "effects": [], "rotation": {"Points": [{"interpolation": 2, "co": {"X": 1, "Y": 0}}]}, "has_video": {"Points": [{"interpolation": 2, "co": {"X": 1, "Y": -1}}]}, "perspective_c2_x": {"Points": [{"interpolation": 2, "co": {"X": 1, "Y": -1}}]}, "image": "/home/milind/.openshot_qt/thumbnail/OF57GEZECQ-1196.png", "perspective_c3_y": {"Points": [{"interpolation": 2, "co": {"X": 1, "Y": -1}}]}, "position": 47.95625, "channel_mapping": {"Points": [{"interpolation": 2, "co": {"X": 1, "Y": -1}}]}, "shear_y": {"Points": [{"interpolation": 2, "co": {"X": 1, "Y": 0}}]}, "crop_width": {"Points": [{"interpolation": 2, "co": {"X": 1, "Y": -1}}]}, "location_x": {"Points": [{"interpolation": 2, "co": {"X": 1, "Y": 0}}, {"interpolation": 1, "co": {"X": 822, "Y": -0.20000000298023224}}]}, "crop_y": {"Points": [{"interpolation": 2, "co": {"X": 1, "Y": 0}}]}, "title": "!160-Register Spreadsheet as Database.mkv", "original_data": {"duration": 61.0, "video_length": "1525", "end": 61}, "shear_x": {"Points": [{"interpolation": 2, "co": {"X": 1, "Y": 0}}]}, "channel_filter": {"Points": [{"interpolation": 2, "co": {"X": 1, "Y": -1}}]}, "location_y": {"Points": [{"interpolation": 2, "co": {"X": 1, "Y": 0}}, {"interpolation": 1, "co": {"X": 768, "Y": -0.03500000014901161}}, {"interpolation": 1, "co": {"X": 822, "Y": 0.30000001192092896}}, {"interpolation": 1, "co": {"X": 901, "Y": -0.44999998807907104}}, {"interpolation": 1, "co": {"X": 876, "Y": 0.30000001192092896}}]}, "id": "OF57GEZECQ", "start": 47.800625000000004, "perspective_c4_y": {"Points": [{"interpolation": 2, "co": {"X": 1, "Y": -1}}]}, "wave_color": {"blue": {"Points": [{"handle_type": 0, "handle_right": {"X": 0.5, "Y": 0}, "interpolation": 0, "co": {"X": 1, "Y": 255}, "handle_left": {"X": 0.5, "Y": 1}}]}, "red": {"Points": [{"handle_type": 0, "handle_right": {"X": 0.5, "Y": 0}, "interpolation": 0, "co": {"X": 1, "Y": 0}, "handle_left": {"X": 0.5, "Y": 1}}]}, "alpha": {"Points": [{"handle_type": 0, "handle_right": {"X": 0.5, "Y": 0}, "interpolation": 0, "co": {"X": 1, "Y": 255}, "handle_left": {"X": 0.5, "Y": 1}}]}, "green": {"Points": [{"handle_type": 0, "handle_right": {"X": 0.5, "Y": 0}, "interpolation": 0, "co": {"X": 1, "Y": 123}, "handle_left": {"X": 0.5, "Y": 1}}]}}, "perspective_c4_x": {"Points": [{"interpolation": 2, "co": {"X": 1, "Y": -1}}]}, "duration": 81.0, "crop_x": {"Points": [{"interpolation": 2, "co": {"X": 1, "Y": 0}}]}, "file_id": "YJ84IVW8VE", "end": 56.51104166666667, "scale": 1, "has_audio": {"Points": [{"interpolation": 2, "co": {"X": 1, "Y": -1}}]}, "anchor": 0, "reader": {"duration": 61.0, "top_field_first": true, "file_size": "666485", "has_single_image": false, "sample_rate": 0, "pixel_ratio": {"den": 1, "num": 1}, "channel_layout": 4, "video_length": "1525", "interlaced_frame": false, "vcodec": "h264", "has_video": true, "has_audio": false, "video_stream_index": 0, "audio_stream_index": -1, "type": "FFmpegReader", "fps": {"den": 1, "num": 25}, "display_ratio": {"den": 384, "num": 683}, "channels": 0, "video_timebase": {"den": 1000, "num": 1}, "audio_bit_rate": 0, "pixel_format": 0, "height": 768, "width": 1366, "acodec": "", "audio_timebase": {"den": 1, "num": 1}, "video_bit_rate": 87179, "path": "/home/milind/Data/Projects/ProgressCard/!160-Register Spreadsheet as Database.mkv"}, "gravity": 4, "scale_x": {"Points": [{"interpolation": 2, "co": {"X": 1, "Y": 1}}, {"interpolation": 1, "co": {"X": 768, "Y": 1.2999999523162842}}, {"interpolation": 1, "co": {"X": 822, "Y": 2.299999952316284}}]}, "display": 0, "waveform": false, "layer": 3, "perspective_c1_x": {"Points": [{"interpolation": 2, "co": {"X": 1, "Y": -1}}]}}}, {"value": {"perspective_c3_x": {"Points": [{"co": {"X": 1, "Y": -1}, "interpolation": 2}]}, "duration": 86400.0, "perspective_c2_y": {"Points": [{"co": {"X": 1, "Y": -1}, "interpolation": 2}]}, "alpha": {"Points": [{"co": {"X": 1, "Y": 1}, "interpolation": 2}]}, "file_id": "W3X0DXJTS6", "end": 56.416666666666664, "scale_y": {"Points": [{"co": {"X": 1, "Y": 1}, "interpolation": 2}]}, "time": {"Points": [{"co": {"X": 1, "Y": 1}, "interpolation": 2}]}, "volume": {"Points": [{"co": {"X": 1, "Y": 1}, "interpolation": 2}]}, "crop_height": {"Points": [{"co": {"X": 1, "Y": -1}, "interpolation": 2}]}, "effects": [], "rotation": {"Points": [{"co": {"X": 1, "Y": 0}, "interpolation": 2}]}, "has_video": {"Points": [{"co": {"X": 1, "Y": -1}, "interpolation": 2}]}, "crop_x": {"Points": [{"co": {"X": 1, "Y": 0}, "interpolation": 2}]}, "perspective_c2_x": {"Points": [{"co": {"X": 1, "Y": -1}, "interpolation": 2}]}, "scale": 1, "waveform": false, "image": "/home/milind/.openshot_qt/thumbnail/W3X0DXJTS6.png", "has_audio": {"Points": [{"co": {"X": 1, "Y": -1}, "interpolation": 2}]}, "anchor": 0, "perspective_c3_y": {"Points": [{"co": {"X": 1, "Y": -1}, "interpolation": 2}]}, "gravity": 4, "channel_mapping": {"Points": [{"co": {"X": 1, "Y": -1}, "interpolation": 2}]}, "scale_x": {"Points": [{"co": {"X": 1, "Y": 1}, "interpolation": 2}]}, "shear_y": {"Points": [{"co": {"X": 1, "Y": 0}, "interpolation": 2}]}, "display": 0, "perspective_c1_y": {"Points": [{"co": {"X": 1, "Y": -1}, "interpolation": 2}]}, "position": 0, "crop_y": {"Points": [{"co": {"X": 1, "Y": 0}, "interpolation": 2}]}, "crop_width": {"Points": [{"co": {"X": 1, "Y": -1}, "interpolation": 2}]}, "title": "!000-White-Background.svg", "layer": 0, "location_x": {"Points": [{"co": {"X": 1, "Y": 0}, "interpolation": 2}]}, "shear_x": {"Points": [{"co": {"X": 1, "Y": 0}, "interpolation": 2}]}, "channel_filter": {"Points": [{"co": {"X": 1, "Y": -1}, "interpolation": 2}]}, "location_y": {"Points": [{"co": {"X": 1, "Y": 0}, "interpolation": 2}]}, "perspective_c1_x": {"Points": [{"co": {"X": 1, "Y": -1}, "interpolation": 2}]}, "id": "UM8RJNI4RE", "start": 0, "perspective_c4_y": {"Points": [{"co": {"X": 1, "Y": -1}, "interpolation": 2}]}, "wave_color": {"blue": {"Points": [{"handle_type": 0, "handle_right": {"X": 0.5, "Y": 0}, "interpolation": 0, "co": {"X": 1, "Y": 255}, "handle_left": {"X": 0.5, "Y": 1}}]}, "red": {"Points": [{"handle_type": 0, "handle_right": {"X": 0.5, "Y": 0}, "interpolation": 0, "co": {"X": 1, "Y": 0}, "handle_left": {"X": 0.5, "Y": 1}}]}, "alpha": {"Points": [{"handle_type": 0, "handle_right": {"X": 0.5, "Y": 0}, "interpolation": 0, "co": {"X": 1, "Y": 255}, "handle_left": {"X": 0.5, "Y": 1}}]}, "green": {"Points": [{"handle_type": 0, "handle_right": {"X": 0.5, "Y": 0}, "interpolation": 0, "co": {"X": 1, "Y": 123}, "handle_left": {"X": 0.5, "Y": 1}}]}}, "perspective_c4_x": {"Points": [{"co": {"X": 1, "Y": -1}, "interpolation": 2}]}}, "type": "update", "partial": false, "key": ["clips", {"id": "UM8RJNI4RE"}], "old_values": {"perspective_c3_x": {"Points": [{"co": {"X": 1, "Y": -1}, "interpolation": 2}]}, "duration": 86400.0, "perspective_c2_y": {"Points": [{"co": {"X": 1, "Y": -1}, "interpolation": 2}]}, "alpha": {"Points": [{"co": {"X": 1, "Y": 1}, "interpolation": 2}]}, "file_id": "W3X0DXJTS6", "end": 63.2, "scale_y": {"Points": [{"co": {"X": 1, "Y": 1}, "interpolation": 2}]}, "time": {"Points": [{"co": {"X": 1, "Y": 1}, "interpolation": 2}]}, "volume": {"Points": [{"co": {"X": 1, "Y": 1}, "interpolation": 2}]}, "crop_height": {"Points": [{"co": {"X": 1, "Y": -1}, "interpolation": 2}]}, "effects": [], "rotation": {"Points": [{"co": {"X": 1, "Y": 0}, "interpolation": 2}]}, "has_video": {"Points": [{"co": {"X": 1, "Y": -1}, "interpolation": 2}]}, "crop_x": {"Points": [{"co": {"X": 1, "Y": 0}, "interpolation": 2}]}, "perspective_c2_x": {"Points": [{"co": {"X": 1, "Y": -1}, "interpolation": 2}]}, "scale": 1, "waveform": false, "image": "/home/milind/.openshot_qt/thumbnail/W3X0DXJTS6.png", "has_audio": {"Points": [{"co": {"X": 1, "Y": -1}, "interpolation": 2}]}, "anchor": 0, "reader": {"duration": 86400.0, "type": "QtImageReader", "file_size": "8294400", "has_single_image": true, "sample_rate": 0, "pixel_ratio": {"den": 1, "num": 1}, "video_length": "2592000", "channel_layout": 4, "interlaced_frame": false, "vcodec": "", "has_video": true, "has_audio": false, "video_stream_index": -1, "audio_stream_index": -1, "fps": {"den": 1, "num": 30}, "display_ratio": {"den": 9, "num": 16}, "channels": 0, "audio_bit_rate": 0, "video_timebase": {"den": 30, "num": 1}, "top_field_first": true, "pixel_format": -1, "height": 1080, "width": 1920, "acodec": "", "audio_timebase": {"den": 1, "num": 1}, "video_bit_rate": 0, "path": "/home/milind/Data/Projects/ProgressCard/!000-White-Background.svg"}, "gravity": 4, "channel_mapping": {"Points": [{"co": {"X": 1, "Y": -1}, "interpolation": 2}]}, "scale_x": {"Points": [{"co": {"X": 1, "Y": 1}, "interpolation": 2}]}, "shear_y": {"Points": [{"co": {"X": 1, "Y": 0}, "interpolation": 2}]}, "display": 0, "perspective_c1_y": {"Points": [{"co": {"X": 1, "Y": -1}, "interpolation": 2}]}, "position": 0, "crop_y": {"Points": [{"co": {"X": 1, "Y": 0}, "interpolation": 2}]}, "crop_width": {"Points": [{"co": {"X": 1, "Y": -1}, "interpolation": 2}]}, "title": "!000-White-Background.svg", "layer": 0, "location_x": {"Points": [{"co": {"X": 1, "Y": 0}, "interpolation": 2}]}, "shear_x": {"Points": [{"co": {"X": 1, "Y": 0}, "interpolation": 2}]}, "channel_filter": {"Points": [{"co": {"X": 1, "Y": -1}, "interpolation": 2}]}, "perspective_c3_y": {"Points": [{"co": {"X": 1, "Y": -1}, "interpolation": 2}]}, "location_y": {"Points": [{"co": {"X": 1, "Y": 0}, "interpolation": 2}]}, "perspective_c1_x": {"Points": [{"co": {"X": 1, "Y": -1}, "interpolation": 2}]}, "id": "UM8RJNI4RE", "start": 0, "perspective_c4_y": {"Points": [{"co": {"X": 1, "Y": -1}, "interpolation": 2}]}, "wave_color": {"blue": {"Points": [{"handle_type": 0, "handle_right": {"X": 0.5, "Y": 0}, "interpolation": 0, "co": {"X": 1, "Y": 255}, "handle_left": {"X": 0.5, "Y": 1}}]}, "red": {"Points": [{"handle_type": 0, "handle_right": {"X": 0.5, "Y": 0}, "interpolation": 0, "co": {"X": 1, "Y": 0}, "handle_left": {"X": 0.5, "Y": 1}}]}, "alpha": {"Points": [{"handle_type": 0, "handle_right": {"X": 0.5, "Y": 0}, "interpolation": 0, "co": {"X": 1, "Y": 255}, "handle_left": {"X": 0.5, "Y": 1}}]}, "green": {"Points": [{"handle_type": 0, "handle_right": {"X": 0.5, "Y": 0}, "interpolation": 0, "co": {"X": 1, "Y": 123}, "handle_left": {"X": 0.5, "Y": 1}}]}}, "perspective_c4_x": {"Points": [{"co": {"X": 1, "Y": -1}, "interpolation": 2}]}}}, {"value": {"perspective_c3_x": {"Points": [{"interpolation": 2, "co": {"X": 1, "Y": -1}}]}, "duration": 87.0, "perspective_c2_y": {"Points": [{"interpolation": 2, "co": {"X": 1, "Y": -1}}]}, "alpha": {"Points": [{"handle_type": 0, "handle_right": {"X": 0.5, "Y": 0}, "interpolation": 0, "co": {"X": 1, "Y": 1}, "handle_left": {"X": 0.5, "Y": 1}}, {"handle_type": 0, "handle_right": {"X": 0.5, "Y": 0}, "interpolation": 0, "co": {"X": 1285, "Y": 1}, "handle_left": {"X": 0.5, "Y": 1}}, {"handle_type": 0, "handle_right": {"X": 0.5, "Y": 0}, "interpolation": 0, "co": {"X": 1357, "Y": 0}, "handle_left": {"X": 0.5, "Y": 1}}]}, "gravity": 4, "file_id": "YJ84IVW8VE", "channel_mapping": {"Points": [{"interpolation": 2, "co": {"X": 1, "Y": -1}}]}, "scale_y": {"Points": [{"interpolation": 2, "co": {"X": 1, "Y": 1}}, {"interpolation": 1, "co": {"X": 768, "Y": 1.2999999523162842}}, {"interpolation": 1, "co": {"X": 822, "Y": 2.299999952316284}}]}, "time": {"Points": [{"interpolation": 1, "co": {"X": 1, "Y": 0}}, {"interpolation": 1, "co": {"X": 770, "Y": 770}}, {"interpolation": 1, "co": {"X": 866, "Y": 770}}, {"interpolation": 1, "co": {"X": 1171, "Y": 1075}}, {"interpolation": 1, "co": {"X": 1219, "Y": 1075}}, {"interpolation": 1, "co": {"X": 1171, "Y": 1075}}, {"interpolation": 1, "co": {"X": 1219, "Y": 1075}}, {"interpolation": 1, "co": {"X": 1190, "Y": 1075}}, {"interpolation": 1, "co": {"X": 1286, "Y": 1075}}, {"interpolation": 1, "co": {"X": 1222, "Y": 1075}}, {"interpolation": 1, "co": {"X": 1318, "Y": 1075}}, {"interpolation": 1, "co": {"X": 1209, "Y": 1075}}, {"interpolation": 1, "co": {"X": 1305, "Y": 1075}}, {"interpolation": 1, "co": {"X": 1205, "Y": 1075}}, {"interpolation": 1, "co": {"X": 1349, "Y": 1075}}, {"interpolation": 1, "co": {"X": 2089, "Y": 1465}}]}, "volume": {"Points": [{"interpolation": 2, "co": {"X": 1, "Y": 1}}, {"interpolation": 1, "co": {"X": 768, "Y": 1}}, {"interpolation": 1, "co": {"X": 769, "Y": 0}}, {"interpolation": 1, "co": {"X": 816, "Y": 0}}, {"interpolation": 1, "co": {"X": 817, "Y": 1}}, {"interpolation": 1, "co": {"X": 768, "Y": 0}}, {"interpolation": 1, "co": {"X": 769, "Y": 0}}, {"interpolation": 1, "co": {"X": 816, "Y": 0}}, {"interpolation": 1, "co": {"X": 817, "Y": 0}}, {"interpolation": 1, "co": {"X": 768, "Y": 0}}, {"interpolation": 1, "co": {"X": 769, "Y": 0}}, {"interpolation": 1, "co": {"X": 816, "Y": 0}}, {"interpolation": 1, "co": {"X": 817, "Y": 0}}, {"interpolation": 1, "co": {"X": 768, "Y": 0}}, {"interpolation": 1, "co": {"X": 769, "Y": 0}}, {"interpolation": 1, "co": {"X": 816, "Y": 0}}, {"interpolation": 1, "co": {"X": 817, "Y": 0}}, {"interpolation": 1, "co": {"X": 804, "Y": 0}}, {"interpolation": 1, "co": {"X": 805, "Y": 0}}, {"interpolation": 1, "co": {"X": 852, "Y": 0}}, {"interpolation": 1, "co": {"X": 853, "Y": 0}}, {"interpolation": 1, "co": {"X": 769, "Y": 0}}, {"interpolation": 1, "co": {"X": 770, "Y": 0}}, {"interpolation": 1, "co": {"X": 865, "Y": 0}}, {"interpolation": 1, "co": {"X": 866, "Y": 0}}, {"interpolation": 1, "co": {"X": 1170, "Y": 0}}, {"interpolation": 1, "co": {"X": 1171, "Y": 0}}, {"interpolation": 1, "co": {"X": 1218, "Y": 0}}, {"interpolation": 1, "co": {"X": 1219, "Y": 0}}, {"interpolation": 1, "co": {"X": 1170, "Y": 0}}, {"interpolation": 1, "co": {"X": 1171, "Y": 0}}, {"interpolation": 1, "co": {"X": 1218, "Y": 0}}, {"interpolation": 1, "co": {"X": 1219, "Y": 0}}, {"interpolation": 1, "co": {"X": 1189, "Y": 0}}, {"interpolation": 1, "co": {"X": 1190, "Y": 0}}, {"interpolation": 1, "co": {"X": 1285, "Y": 0}}, {"interpolation": 1, "co": {"X": 1286, "Y": 0}}, {"interpolation": 1, "co": {"X": 1221, "Y": 0}}, {"interpolation": 1, "co": {"X": 1222, "Y": 0}}, {"interpolation": 1, "co": {"X": 1317, "Y": 0}}, {"interpolation": 1, "co": {"X": 1318, "Y": 0}}, {"interpolation": 1, "co": {"X": 1208, "Y": 0}}, {"interpolation": 1, "co": {"X": 1209, "Y": 0}}, {"interpolation": 1, "co": {"X": 1304, "Y": 0}}, {"interpolation": 1, "co": {"X": 1305, "Y": 0}}, {"interpolation": 1, "co": {"X": 1204, "Y": 0}}, {"interpolation": 1, "co": {"X": 1205, "Y": 0}}, {"interpolation": 1, "co": {"X": 1348, "Y": 0}}, {"interpolation": 1, "co": {"X": 1349, "Y": 0}}]}, "crop_height": {"Points": [{"interpolation": 2, "co": {"X": 1, "Y": -1}}]}, "effects": [], "rotation": {"Points": [{"interpolation": 2, "co": {"X": 1, "Y": 0}}]}, "image": "/home/milind/.openshot_qt/thumbnail/OF57GEZECQ-1196.png", "crop_x": {"Points": [{"interpolation": 2, "co": {"X": 1, "Y": 0}}]}, "perspective_c2_x": {"Points": [{"interpolation": 2, "co": {"X": 1, "Y": -1}}]}, "scale": 1, "waveform": false, "has_video": {"Points": [{"interpolation": 2, "co": {"X": 1, "Y": -1}}]}, "has_audio": {"Points": [{"interpolation": 2, "co": {"X": 1, "Y": -1}}]}, "anchor": 0, "perspective_c3_y": {"Points": [{"interpolation": 2, "co": {"X": 1, "Y": -1}}]}, "perspective_c4_x": {"Points": [{"interpolation": 2, "co": {"X": 1, "Y": -1}}]}, "end": 56.26104166666667, "scale_x": {"Points": [{"interpolation": 2, "co": {"X": 1, "Y": 1}}, {"interpolation": 1, "co": {"X": 768, "Y": 1.2999999523162842}}, {"interpolation": 1, "co": {"X": 822, "Y": 2.299999952316284}}]}, "shear_y": {"Points": [{"interpolation": 2, "co": {"X": 1, "Y": 0}}]}, "display": 0, "perspective_c1_y": {"Points": [{"interpolation": 2, "co": {"X": 1, "Y": -1}}]}, "position": 47.95625, "crop_y": {"Points": [{"interpolation": 2, "co": {"X": 1, "Y": 0}}]}, "crop_width": {"Points": [{"interpolation": 2, "co": {"X": 1, "Y": -1}}]}, "title": "!160-Register Spreadsheet as Database.mkv", "original_data": {"duration": 61.0, "video_length": "1525", "end": 61}, "location_x": {"Points": [{"interpolation": 2, "co": {"X": 1, "Y": 0}}, {"interpolation": 1, "co": {"X": 822, "Y": -0.20000000298023224}}]}, "shear_x": {"Points": [{"interpolation": 2, "co": {"X": 1, "Y": 0}}]}, "channel_filter": {"Points": [{"interpolation": 2, "co": {"X": 1, "Y": -1}}]}, "location_y": {"Points": [{"interpolation": 2, "co": {"X": 1, "Y": 0}}, {"interpolation": 1, "co": {"X": 768, "Y": -0.03500000014901161}}, {"interpolation": 1, "co": {"X": 822, "Y": 0.30000001192092896}}, {"interpolation": 1, "co": {"X": 901, "Y": -0.44999998807907104}}, {"interpolation": 1, "co": {"X": 876, "Y": 0.30000001192092896}}]}, "perspective_c1_x": {"Points": [{"interpolation": 2, "co": {"X": 1, "Y": -1}}]}, "id": "OF57GEZECQ", "start": 47.800625000000004, "perspective_c4_y": {"Points": [{"interpolation": 2, "co": {"X": 1, "Y": -1}}]}, "wave_color": {"blue": {"Points": [{"handle_type": 0, "handle_right": {"X": 0.5, "Y": 0}, "interpolation": 0, "co": {"X": 1, "Y": 255}, "handle_left": {"X": 0.5, "Y": 1}}]}, "red": {"Points": [{"handle_type": 0, "handle_right": {"X": 0.5, "Y": 0}, "interpolation": 0, "co": {"X": 1, "Y": 0}, "handle_left": {"X": 0.5, "Y": 1}}]}, "alpha": {"Points": [{"handle_type": 0, "handle_right": {"X": 0.5, "Y": 0}, "interpolation": 0, "co": {"X": 1, "Y": 255}, "handle_left": {"X": 0.5, "Y": 1}}]}, "green": {"Points": [{"handle_type": 0, "handle_right": {"X": 0.5, "Y": 0}, "interpolation": 0, "co": {"X": 1, "Y": 123}, "handle_left": {"X": 0.5, "Y": 1}}]}}, "layer": 3}, "type": "update", "partial": false, "key": ["clips", {"id": "OF57GEZECQ"}], "old_values": {"perspective_c1_y": {"Points": [{"interpolation": 2, "co": {"X": 1, "Y": -1}}]}, "perspective_c3_x": {"Points": [{"interpolation": 2, "co": {"X": 1, "Y": -1}}]}, "perspective_c2_y": {"Points": [{"interpolation": 2, "co": {"X": 1, "Y": -1}}]}, "alpha": {"Points": [{"handle_type": 0, "handle_right": {"X": 0.5, "Y": 0}, "interpolation": 0, "co": {"X": 1, "Y": 1}, "handle_left": {"X": 0.5, "Y": 1}}, {"handle_type": 0, "handle_right": {"X": 0.5, "Y": 0}, "interpolation": 0, "co": {"X": 1285, "Y": 1}, "handle_left": {"X": 0.5, "Y": 1}}, {"handle_type": 0, "handle_right": {"X": 0.5, "Y": 0}, "interpolation": 0, "co": {"X": 1357, "Y": 0}, "handle_left": {"X": 0.5, "Y": 1}}]}, "scale_y": {"Points": [{"interpolation": 2, "co": {"X": 1, "Y": 1}}, {"interpolation": 1, "co": {"X": 768, "Y": 1.2999999523162842}}, {"interpolation": 1, "co": {"X": 822, "Y": 2.299999952316284}}]}, "time": {"Points": [{"interpolation": 1, "co": {"X": 1, "Y": 0}}, {"interpolation": 1, "co": {"X": 770, "Y": 770}}, {"interpolation": 1, "co": {"X": 866, "Y": 770}}, {"interpolation": 1, "co": {"X": 1171, "Y": 1075}}, {"interpolation": 1, "co": {"X": 1219, "Y": 1075}}, {"interpolation": 1, "co": {"X": 1171, "Y": 1075}}, {"interpolation": 1, "co": {"X": 1219, "Y": 1075}}, {"interpolation": 1, "co": {"X": 1190, "Y": 1075}}, {"interpolation": 1, "co": {"X": 1286, "Y": 1075}}, {"interpolation": 1, "co": {"X": 1222, "Y": 1075}}, {"interpolation": 1, "co": {"X": 1318, "Y": 1075}}, {"interpolation": 1, "co": {"X": 1209, "Y": 1075}}, {"interpolation": 1, "co": {"X": 1305, "Y": 1075}}, {"interpolation": 1, "co": {"X": 1205, "Y": 1075}}, {"interpolation": 1, "co": {"X": 1349, "Y": 1075}}, {"interpolation": 1, "co": {"X": 2089, "Y": 1465}}]}, "volume": {"Points": [{"interpolation": 2, "co": {"X": 1, "Y": 1}}, {"interpolation": 1, "co": {"X": 768, "Y": 1}}, {"interpolation": 1, "co": {"X": 769, "Y": 0}}, {"interpolation": 1, "co": {"X": 816, "Y": 0}}, {"interpolation": 1, "co": {"X": 817, "Y": 1}}, {"interpolation": 1, "co": {"X": 768, "Y": 0}}, {"interpolation": 1, "co": {"X": 769, "Y": 0}}, {"interpolation": 1, "co": {"X": 816, "Y": 0}}, {"interpolation": 1, "co": {"X": 817, "Y": 0}}, {"interpolation": 1, "co": {"X": 768, "Y": 0}}, {"interpolation": 1, "co": {"X": 769, "Y": 0}}, {"interpolation": 1, "co": {"X": 816, "Y": 0}}, {"interpolation": 1, "co": {"X": 817, "Y": 0}}, {"interpolation": 1, "co": {"X": 768, "Y": 0}}, {"interpolation": 1, "co": {"X": 769, "Y": 0}}, {"interpolation": 1, "co": {"X": 816, "Y": 0}}, {"interpolation": 1, "co": {"X": 817, "Y": 0}}, {"interpolation": 1, "co": {"X": 804, "Y": 0}}, {"interpolation": 1, "co": {"X": 805, "Y": 0}}, {"interpolation": 1, "co": {"X": 852, "Y": 0}}, {"interpolation": 1, "co": {"X": 853, "Y": 0}}, {"interpolation": 1, "co": {"X": 769, "Y": 0}}, {"interpolation": 1, "co": {"X": 770, "Y": 0}}, {"interpolation": 1, "co": {"X": 865, "Y": 0}}, {"interpolation": 1, "co": {"X": 866, "Y": 0}}, {"interpolation": 1, "co": {"X": 1170, "Y": 0}}, {"interpolation": 1, "co": {"X": 1171, "Y": 0}}, {"interpolation": 1, "co": {"X": 1218, "Y": 0}}, {"interpolation": 1, "co": {"X": 1219, "Y": 0}}, {"interpolation": 1, "co": {"X": 1170, "Y": 0}}, {"interpolation": 1, "co": {"X": 1171, "Y": 0}}, {"interpolation": 1, "co": {"X": 1218, "Y": 0}}, {"interpolation": 1, "co": {"X": 1219, "Y": 0}}, {"interpolation": 1, "co": {"X": 1189, "Y": 0}}, {"interpolation": 1, "co": {"X": 1190, "Y": 0}}, {"interpolation": 1, "co": {"X": 1285, "Y": 0}}, {"interpolation": 1, "co": {"X": 1286, "Y": 0}}, {"interpolation": 1, "co": {"X": 1221, "Y": 0}}, {"interpolation": 1, "co": {"X": 1222, "Y": 0}}, {"interpolation": 1, "co": {"X": 1317, "Y": 0}}, {"interpolation": 1, "co": {"X": 1318, "Y": 0}}, {"interpolation": 1, "co": {"X": 1208, "Y": 0}}, {"interpolation": 1, "co": {"X": 1209, "Y": 0}}, {"interpolation": 1, "co": {"X": 1304, "Y": 0}}, {"interpolation": 1, "co": {"X": 1305, "Y": 0}}, {"interpolation": 1, "co": {"X": 1204, "Y": 0}}, {"interpolation": 1, "co": {"X": 1205, "Y": 0}}, {"interpolation": 1, "co": {"X": 1348, "Y": 0}}, {"interpolation": 1, "co": {"X": 1349, "Y": 0}}]}, "crop_height": {"Points": [{"interpolation": 2, "co": {"X": 1, "Y": -1}}]}, "effects": [], "rotation": {"Points": [{"interpolation": 2, "co": {"X": 1, "Y": 0}}]}, "has_video": {"Points": [{"interpolation": 2, "co": {"X": 1, "Y": -1}}]}, "perspective_c2_x": {"Points": [{"interpolation": 2, "co": {"X": 1, "Y": -1}}]}, "image": "/home/milind/.openshot_qt/thumbnail/OF57GEZECQ-1196.png", "perspective_c3_y": {"Points": [{"interpolation": 2, "co": {"X": 1, "Y": -1}}]}, "position": 47.95625, "channel_mapping": {"Points": [{"interpolation": 2, "co": {"X": 1, "Y": -1}}]}, "shear_y": {"Points": [{"interpolation": 2, "co": {"X": 1, "Y": 0}}]}, "crop_width": {"Points": [{"interpolation": 2, "co": {"X": 1, "Y": -1}}]}, "location_x": {"Points": [{"interpolation": 2, "co": {"X": 1, "Y": 0}}, {"interpolation": 1, "co": {"X": 822, "Y": -0.20000000298023224}}]}, "crop_y": {"Points": [{"interpolation": 2, "co": {"X": 1, "Y": 0}}]}, "title": "!160-Register Spreadsheet as Database.mkv", "original_data": {"duration": 61.0, "video_length": "1525", "end": 61}, "shear_x": {"Points": [{"interpolation": 2, "co": {"X": 1, "Y": 0}}]}, "channel_filter": {"Points": [{"interpolation": 2, "co": {"X": 1, "Y": -1}}]}, "location_y": {"Points": [{"interpolation": 2, "co": {"X": 1, "Y": 0}}, {"interpolation": 1, "co": {"X": 768, "Y": -0.03500000014901161}}, {"interpolation": 1, "co": {"X": 822, "Y": 0.30000001192092896}}, {"interpolation": 1, "co": {"X": 901, "Y": -0.44999998807907104}}, {"interpolation": 1, "co": {"X": 876, "Y": 0.30000001192092896}}]}, "id": "OF57GEZECQ", "start": 47.800625000000004, "perspective_c4_y": {"Points": [{"interpolation": 2, "co": {"X": 1, "Y": -1}}]}, "wave_color": {"blue": {"Points": [{"handle_type": 0, "handle_right": {"X": 0.5, "Y": 0}, "interpolation": 0, "co": {"X": 1, "Y": 255}, "handle_left": {"X": 0.5, "Y": 1}}]}, "red": {"Points": [{"handle_type": 0, "handle_right": {"X": 0.5, "Y": 0}, "interpolation": 0, "co": {"X": 1, "Y": 0}, "handle_left": {"X": 0.5, "Y": 1}}]}, "alpha": {"Points": [{"handle_type": 0, "handle_right": {"X": 0.5, "Y": 0}, "interpolation": 0, "co": {"X": 1, "Y": 255}, "handle_left": {"X": 0.5, "Y": 1}}]}, "green": {"Points": [{"handle_type": 0, "handle_right": {"X": 0.5, "Y": 0}, "interpolation": 0, "co": {"X": 1, "Y": 123}, "handle_left": {"X": 0.5, "Y": 1}}]}}, "perspective_c4_x": {"Points": [{"interpolation": 2, "co": {"X": 1, "Y": -1}}]}, "duration": 87.0, "crop_x": {"Points": [{"interpolation": 2, "co": {"X": 1, "Y": 0}}]}, "file_id": "YJ84IVW8VE", "end": 62.51104166666667, "scale": 1, "has_audio": {"Points": [{"interpolation": 2, "co": {"X": 1, "Y": -1}}]}, "anchor": 0, "reader": {"duration": 61.0, "top_field_first": true, "file_size": "666485", "has_single_image": false, "sample_rate": 0, "pixel_ratio": {"den": 1, "num": 1}, "channel_layout": 4, "video_length": "1525", "interlaced_frame": false, "vcodec": "h264", "has_video": true, "has_audio": false, "video_stream_index": 0, "audio_stream_index": -1, "type": "FFmpegReader", "fps": {"den": 1, "num": 25}, "display_ratio": {"den": 384, "num": 683}, "channels": 0, "video_timebase": {"den": 1000, "num": 1}, "audio_bit_rate": 0, "pixel_format": 0, "height": 768, "width": 1366, "acodec": "", "audio_timebase": {"den": 1, "num": 1}, "video_bit_rate": 87179, "path": "/home/milind/Data/Projects/ProgressCard/!160-Register Spreadsheet as Database.mkv"}, "gravity": 4, "scale_x": {"Points": [{"interpolation": 2, "co": {"X": 1, "Y": 1}}, {"interpolation": 1, "co": {"X": 768, "Y": 1.2999999523162842}}, {"interpolation": 1, "co": {"X": 822, "Y": 2.299999952316284}}]}, "display": 0, "waveform": false, "layer": 3, "perspective_c1_x": {"Points": [{"interpolation": 2, "co": {"X": 1, "Y": -1}}]}}}, {"value": {"position": 0, "end": 61.81666666666666, "image": "/home/milind/.openshot_qt/thumbnail/W3X0DXJTS6.png", "id": "UM8RJNI4RE", "start": 0, "layer": 0}, "type": "update", "partial": false, "key": ["clips", {"id": "UM8RJNI4RE"}], "old_values": {"perspective_c3_x": {"Points": [{"co": {"X": 1, "Y": -1}, "interpolation": 2}]}, "duration": 86400.0, "perspective_c2_y": {"Points": [{"co": {"X": 1, "Y": -1}, "interpolation": 2}]}, "alpha": {"Points": [{"co": {"X": 1, "Y": 1}, "interpolation": 2}]}, "file_id": "W3X0DXJTS6", "end": 56.416666666666664, "scale_y": {"Points": [{"co": {"X": 1, "Y": 1}, "interpolation": 2}]}, "time": {"Points": [{"co": {"X": 1, "Y": 1}, "interpolation": 2}]}, "volume": {"Points": [{"co": {"X": 1, "Y": 1}, "interpolation": 2}]}, "crop_height": {"Points": [{"co": {"X": 1, "Y": -1}, "interpolation": 2}]}, "effects": [], "rotation": {"Points": [{"co": {"X": 1, "Y": 0}, "interpolation": 2}]}, "has_video": {"Points": [{"co": {"X": 1, "Y": -1}, "interpolation": 2}]}, "crop_x": {"Points": [{"co": {"X": 1, "Y": 0}, "interpolation": 2}]}, "perspective_c2_x": {"Points": [{"co": {"X": 1, "Y": -1}, "interpolation": 2}]}, "scale": 1, "waveform": false, "image": "/home/milind/.openshot_qt/thumbnail/W3X0DXJTS6.png", "has_audio": {"Points": [{"co": {"X": 1, "Y": -1}, "interpolation": 2}]}, "anchor": 0, "reader": {"duration": 86400.0, "type": "QtImageReader", "file_size": "8294400", "has_single_image": true, "sample_rate": 0, "pixel_ratio": {"den": 1, "num": 1}, "video_length": "2592000", "channel_layout": 4, "interlaced_frame": false, "vcodec": "", "has_video": true, "has_audio": false, "video_stream_index": -1, "audio_stream_index": -1, "fps": {"den": 1, "num": 30}, "display_ratio": {"den": 9, "num": 16}, "channels": 0, "audio_bit_rate": 0, "video_timebase": {"den": 30, "num": 1}, "top_field_first": true, "pixel_format": -1, "height": 1080, "width": 1920, "acodec": "", "audio_timebase": {"den": 1, "num": 1}, "video_bit_rate": 0, "path": "/home/milind/Data/Projects/ProgressCard/!000-White-Background.svg"}, "gravity": 4, "channel_mapping": {"Points": [{"co": {"X": 1, "Y": -1}, "interpolation": 2}]}, "scale_x": {"Points": [{"co": {"X": 1, "Y": 1}, "interpolation": 2}]}, "shear_y": {"Points": [{"co": {"X": 1, "Y": 0}, "interpolation": 2}]}, "display": 0, "perspective_c1_y": {"Points": [{"co": {"X": 1, "Y": -1}, "interpolation": 2}]}, "position": 0, "crop_y": {"Points": [{"co": {"X": 1, "Y": 0}, "interpolation": 2}]}, "crop_width": {"Points": [{"co": {"X": 1, "Y": -1}, "interpolation": 2}]}, "title": "!000-White-Background.svg", "layer": 0, "location_x": {"Points": [{"co": {"X": 1, "Y": 0}, "interpolation": 2}]}, "shear_x": {"Points": [{"co": {"X": 1, "Y": 0}, "interpolation": 2}]}, "channel_filter": {"Points": [{"co": {"X": 1, "Y": -1}, "interpolation": 2}]}, "perspective_c3_y": {"Points": [{"co": {"X": 1, "Y": -1}, "interpolation": 2}]}, "location_y": {"Points": [{"co": {"X": 1, "Y": 0}, "interpolation": 2}]}, "perspective_c1_x": {"Points": [{"co": {"X": 1, "Y": -1}, "interpolation": 2}]}, "id": "UM8RJNI4RE", "start": 0, "perspective_c4_y": {"Points": [{"co": {"X": 1, "Y": -1}, "interpolation": 2}]}, "wave_color": {"blue": {"Points": [{"handle_type": 0, "handle_right": {"X": 0.5, "Y": 0}, "interpolation": 0, "co": {"X": 1, "Y": 255}, "handle_left": {"X": 0.5, "Y": 1}}]}, "red": {"Points": [{"handle_type": 0, "handle_right": {"X": 0.5, "Y": 0}, "interpolation": 0, "co": {"X": 1, "Y": 0}, "handle_left": {"X": 0.5, "Y": 1}}]}, "alpha": {"Points": [{"handle_type": 0, "handle_right": {"X": 0.5, "Y": 0}, "interpolation": 0, "co": {"X": 1, "Y": 255}, "handle_left": {"X": 0.5, "Y": 1}}]}, "green": {"Points": [{"handle_type": 0, "handle_right": {"X": 0.5, "Y": 0}, "interpolation": 0, "co": {"X": 1, "Y": 123}, "handle_left": {"X": 0.5, "Y": 1}}]}}, "perspective_c4_x": {"Points": [{"co": {"X": 1, "Y": -1}, "interpolation": 2}]}}}, {"value": {"perspective_c3_x": {"Points": [{"interpolation": 2, "co": {"X": 1, "Y": -1}}]}, "duration": 87.0, "perspective_c2_y": {"Points": [{"interpolation": 2, "co": {"X": 1, "Y": -1}}]}, "alpha": {"Points": [{"handle_type": 0, "handle_right": {"X": 0.5, "Y": 0}, "interpolation": 0, "co": {"X": 1, "Y": 1}, "handle_left": {"X": 0.5, "Y": 1}}]}, "gravity": 4, "file_id": "YJ84IVW8VE", "channel_mapping": {"Points": [{"interpolation": 2, "co": {"X": 1, "Y": -1}}]}, "scale_y": {"Points": [{"interpolation": 2, "co": {"X": 1, "Y": 1}}, {"interpolation": 1, "co": {"X": 768, "Y": 1.2999999523162842}}, {"interpolation": 1, "co": {"X": 822, "Y": 2.299999952316284}}]}, "time": {"Points": [{"interpolation": 1, "co": {"X": 1, "Y": 0}}, {"interpolation": 1, "co": {"X": 770, "Y": 770}}, {"interpolation": 1, "co": {"X": 866, "Y": 770}}, {"interpolation": 1, "co": {"X": 1171, "Y": 1075}}, {"interpolation": 1, "co": {"X": 1219, "Y": 1075}}, {"interpolation": 1, "co": {"X": 1171, "Y": 1075}}, {"interpolation": 1, "co": {"X": 1219, "Y": 1075}}, {"interpolation": 1, "co": {"X": 1190, "Y": 1075}}, {"interpolation": 1, "co": {"X": 1286, "Y": 1075}}, {"interpolation": 1, "co": {"X": 1222, "Y": 1075}}, {"interpolation": 1, "co": {"X": 1318, "Y": 1075}}, {"interpolation": 1, "co": {"X": 1209, "Y": 1075}}, {"interpolation": 1, "co": {"X": 1305, "Y": 1075}}, {"interpolation": 1, "co": {"X": 1205, "Y": 1075}}, {"interpolation": 1, "co": {"X": 1349, "Y": 1075}}, {"interpolation": 1, "co": {"X": 2089, "Y": 1465}}]}, "volume": {"Points": [{"interpolation": 2, "co": {"X": 1, "Y": 1}}, {"interpolation": 1, "co": {"X": 768, "Y": 1}}, {"interpolation": 1, "co": {"X": 769, "Y": 0}}, {"interpolation": 1, "co": {"X": 816, "Y": 0}}, {"interpolation": 1, "co": {"X": 817, "Y": 1}}, {"interpolation": 1, "co": {"X": 768, "Y": 0}}, {"interpolation": 1, "co": {"X": 769, "Y": 0}}, {"interpolation": 1, "co": {"X": 816, "Y": 0}}, {"interpolation": 1, "co": {"X": 817, "Y": 0}}, {"interpolation": 1, "co": {"X": 768, "Y": 0}}, {"interpolation": 1, "co": {"X": 769, "Y": 0}}, {"interpolation": 1, "co": {"X": 816, "Y": 0}}, {"interpolation": 1, "co": {"X": 817, "Y": 0}}, {"interpolation": 1, "co": {"X": 768, "Y": 0}}, {"interpolation": 1, "co": {"X": 769, "Y": 0}}, {"interpolation": 1, "co": {"X": 816, "Y": 0}}, {"interpolation": 1, "co": {"X": 817, "Y": 0}}, {"interpolation": 1, "co": {"X": 804, "Y": 0}}, {"interpolation": 1, "co": {"X": 805, "Y": 0}}, {"interpolation": 1, "co": {"X": 852, "Y": 0}}, {"interpolation": 1, "co": {"X": 853, "Y": 0}}, {"interpolation": 1, "co": {"X": 769, "Y": 0}}, {"interpolation": 1, "co": {"X": 770, "Y": 0}}, {"interpolation": 1, "co": {"X": 865, "Y": 0}}, {"interpolation": 1, "co": {"X": 866, "Y": 0}}, {"interpolation": 1, "co": {"X": 1170, "Y": 0}}, {"interpolation": 1, "co": {"X": 1171, "Y": 0}}, {"interpolation": 1, "co": {"X": 1218, "Y": 0}}, {"interpolation": 1, "co": {"X": 1219, "Y": 0}}, {"interpolation": 1, "co": {"X": 1170, "Y": 0}}, {"interpolation": 1, "co": {"X": 1171, "Y": 0}}, {"interpolation": 1, "co": {"X": 1218, "Y": 0}}, {"interpolation": 1, "co": {"X": 1219, "Y": 0}}, {"interpolation": 1, "co": {"X": 1189, "Y": 0}}, {"interpolation": 1, "co": {"X": 1190, "Y": 0}}, {"interpolation": 1, "co": {"X": 1285, "Y": 0}}, {"interpolation": 1, "co": {"X": 1286, "Y": 0}}, {"interpolation": 1, "co": {"X": 1221, "Y": 0}}, {"interpolation": 1, "co": {"X": 1222, "Y": 0}}, {"interpolation": 1, "co": {"X": 1317, "Y": 0}}, {"interpolation": 1, "co": {"X": 1318, "Y": 0}}, {"interpolation": 1, "co": {"X": 1208, "Y": 0}}, {"interpolation": 1, "co": {"X": 1209, "Y": 0}}, {"interpolation": 1, "co": {"X": 1304, "Y": 0}}, {"interpolation": 1, "co": {"X": 1305, "Y": 0}}, {"interpolation": 1, "co": {"X": 1204, "Y": 0}}, {"interpolation": 1, "co": {"X": 1205, "Y": 0}}, {"interpolation": 1, "co": {"X": 1348, "Y": 0}}, {"interpolation": 1, "co": {"X": 1349, "Y": 0}}]}, "crop_height": {"Points": [{"interpolation": 2, "co": {"X": 1, "Y": -1}}]}, "effects": [], "rotation": {"Points": [{"interpolation": 2, "co": {"X": 1, "Y": 0}}]}, "image": "/home/milind/.openshot_qt/thumbnail/OF57GEZECQ-1196.png", "crop_x": {"Points": [{"interpolation": 2, "co": {"X": 1, "Y": 0}}]}, "perspective_c2_x": {"Points": [{"interpolation": 2, "co": {"X": 1, "Y": -1}}]}, "scale": 1, "waveform": false, "has_video": {"Points": [{"interpolation": 2, "co": {"X": 1, "Y": -1}}]}, "has_audio": {"Points": [{"interpolation": 2, "co": {"X": 1, "Y": -1}}]}, "anchor": 0, "perspective_c3_y": {"Points": [{"interpolation": 2, "co": {"X": 1, "Y": -1}}]}, "perspective_c4_x": {"Points": [{"interpolation": 2, "co": {"X": 1, "Y": -1}}]}, "end": 56.26104166666667, "scale_x": {"Points": [{"interpolation": 2, "co": {"X": 1, "Y": 1}}, {"interpolation": 1, "co": {"X": 768, "Y": 1.2999999523162842}}, {"interpolation": 1, "co": {"X": 822, "Y": 2.299999952316284}}]}, "shear_y": {"Points": [{"interpolation": 2, "co": {"X": 1, "Y": 0}}]}, "display": 0, "perspective_c1_y": {"Points": [{"interpolation": 2, "co": {"X": 1, "Y": -1}}]}, "position": 47.95625, "crop_y": {"Points": [{"interpolation": 2, "co": {"X": 1, "Y": 0}}]}, "crop_width": {"Points": [{"interpolation": 2, "co": {"X": 1, "Y": -1}}]}, "title": "!160-Register Spreadsheet as Database.mkv", "original_data": {"duration": 61.0, "video_length": "1525", "end": 61}, "location_x": {"Points": [{"interpolation": 2, "co": {"X": 1, "Y": 0}}, {"interpolation": 1, "co": {"X": 822, "Y": -0.20000000298023224}}]}, "shear_x": {"Points": [{"interpolation": 2, "co": {"X": 1, "Y": 0}}]}, "channel_filter": {"Points": [{"interpolation": 2, "co": {"X": 1, "Y": -1}}]}, "location_y": {"Points": [{"interpolation": 2, "co": {"X": 1, "Y": 0}}, {"interpolation": 1, "co": {"X": 768, "Y": -0.03500000014901161}}, {"interpolation": 1, "co": {"X": 822, "Y": 0.30000001192092896}}, {"interpolation": 1, "co": {"X": 901, "Y": -0.44999998807907104}}, {"interpolation": 1, "co": {"X": 876, "Y": 0.30000001192092896}}]}, "perspective_c1_x": {"Points": [{"interpolation": 2, "co": {"X": 1, "Y": -1}}]}, "id": "OF57GEZECQ", "start": 47.800625000000004, "perspective_c4_y": {"Points": [{"interpolation": 2, "co": {"X": 1, "Y": -1}}]}, "wave_color": {"blue": {"Points": [{"handle_type": 0, "handle_right": {"X": 0.5, "Y": 0}, "interpolation": 0, "co": {"X": 1, "Y": 255}, "handle_left": {"X": 0.5, "Y": 1}}]}, "red": {"Points": [{"handle_type": 0, "handle_right": {"X": 0.5, "Y": 0}, "interpolation": 0, "co": {"X": 1, "Y": 0}, "handle_left": {"X": 0.5, "Y": 1}}]}, "alpha": {"Points": [{"handle_type": 0, "handle_right": {"X": 0.5, "Y": 0}, "interpolation": 0, "co": {"X": 1, "Y": 255}, "handle_left": {"X": 0.5, "Y": 1}}]}, "green": {"Points": [{"handle_type": 0, "handle_right": {"X": 0.5, "Y": 0}, "interpolation": 0, "co": {"X": 1, "Y": 123}, "handle_left": {"X": 0.5, "Y": 1}}]}}, "layer": 3}, "type": "update", "partial": false, "key": ["clips", {"id": "OF57GEZECQ"}], "old_values": {"perspective_c1_y": {"Points": [{"interpolation": 2, "co": {"X": 1, "Y": -1}}]}, "perspective_c3_x": {"Points": [{"interpolation": 2, "co": {"X": 1, "Y": -1}}]}, "perspective_c2_y": {"Points": [{"interpolation": 2, "co": {"X": 1, "Y": -1}}]}, "alpha": {"Points": [{"handle_type": 0, "handle_right": {"X": 0.5, "Y": 0}, "interpolation": 0, "co": {"X": 1, "Y": 1}, "handle_left": {"X": 0.5, "Y": 1}}, {"handle_type": 0, "handle_right": {"X": 0.5, "Y": 0}, "interpolation": 0, "co": {"X": 1285, "Y": 1}, "handle_left": {"X": 0.5, "Y": 1}}, {"handle_type": 0, "handle_right": {"X": 0.5, "Y": 0}, "interpolation": 0, "co": {"X": 1357, "Y": 0}, "handle_left": {"X": 0.5, "Y": 1}}]}, "scale_y": {"Points": [{"interpolation": 2, "co": {"X": 1, "Y": 1}}, {"interpolation": 1, "co": {"X": 768, "Y": 1.2999999523162842}}, {"interpolation": 1, "co": {"X": 822, "Y": 2.299999952316284}}]}, "time": {"Points": [{"interpolation": 1, "co": {"X": 1, "Y": 0}}, {"interpolation": 1, "co": {"X": 770, "Y": 770}}, {"interpolation": 1, "co": {"X": 866, "Y": 770}}, {"interpolation": 1, "co": {"X": 1171, "Y": 1075}}, {"interpolation": 1, "co": {"X": 1219, "Y": 1075}}, {"interpolation": 1, "co": {"X": 1171, "Y": 1075}}, {"interpolation": 1, "co": {"X": 1219, "Y": 1075}}, {"interpolation": 1, "co": {"X": 1190, "Y": 1075}}, {"interpolation": 1, "co": {"X": 1286, "Y": 1075}}, {"interpolation": 1, "co": {"X": 1222, "Y": 1075}}, {"interpolation": 1, "co": {"X": 1318, "Y": 1075}}, {"interpolation": 1, "co": {"X": 1209, "Y": 1075}}, {"interpolation": 1, "co": {"X": 1305, "Y": 1075}}, {"interpolation": 1, "co": {"X": 1205, "Y": 1075}}, {"interpolation": 1, "co": {"X": 1349, "Y": 1075}}, {"interpolation": 1, "co": {"X": 2089, "Y": 1465}}]}, "volume": {"Points": [{"interpolation": 2, "co": {"X": 1, "Y": 1}}, {"interpolation": 1, "co": {"X": 768, "Y": 1}}, {"interpolation": 1, "co": {"X": 769, "Y": 0}}, {"interpolation": 1, "co": {"X": 816, "Y": 0}}, {"interpolation": 1, "co": {"X": 817, "Y": 1}}, {"interpolation": 1, "co": {"X": 768, "Y": 0}}, {"interpolation": 1, "co": {"X": 769, "Y": 0}}, {"interpolation": 1, "co": {"X": 816, "Y": 0}}, {"interpolation": 1, "co": {"X": 817, "Y": 0}}, {"interpolation": 1, "co": {"X": 768, "Y": 0}}, {"interpolation": 1, "co": {"X": 769, "Y": 0}}, {"interpolation": 1, "co": {"X": 816, "Y": 0}}, {"interpolation": 1, "co": {"X": 817, "Y": 0}}, {"interpolation": 1, "co": {"X": 768, "Y": 0}}, {"interpolation": 1, "co": {"X": 769, "Y": 0}}, {"interpolation": 1, "co": {"X": 816, "Y": 0}}, {"interpolation": 1, "co": {"X": 817, "Y": 0}}, {"interpolation": 1, "co": {"X": 804, "Y": 0}}, {"interpolation": 1, "co": {"X": 805, "Y": 0}}, {"interpolation": 1, "co": {"X": 852, "Y": 0}}, {"interpolation": 1, "co": {"X": 853, "Y": 0}}, {"interpolation": 1, "co": {"X": 769, "Y": 0}}, {"interpolation": 1, "co": {"X": 770, "Y": 0}}, {"interpolation": 1, "co": {"X": 865, "Y": 0}}, {"interpolation": 1, "co": {"X": 866, "Y": 0}}, {"interpolation": 1, "co": {"X": 1170, "Y": 0}}, {"interpolation": 1, "co": {"X": 1171, "Y": 0}}, {"interpolation": 1, "co": {"X": 1218, "Y": 0}}, {"interpolation": 1, "co": {"X": 1219, "Y": 0}}, {"interpolation": 1, "co": {"X": 1170, "Y": 0}}, {"interpolation": 1, "co": {"X": 1171, "Y": 0}}, {"interpolation": 1, "co": {"X": 1218, "Y": 0}}, {"interpolation": 1, "co": {"X": 1219, "Y": 0}}, {"interpolation": 1, "co": {"X": 1189, "Y": 0}}, {"interpolation": 1, "co": {"X": 1190, "Y": 0}}, {"interpolation": 1, "co": {"X": 1285, "Y": 0}}, {"interpolation": 1, "co": {"X": 1286, "Y": 0}}, {"interpolation": 1, "co": {"X": 1221, "Y": 0}}, {"interpolation": 1, "co": {"X": 1222, "Y": 0}}, {"interpolation": 1, "co": {"X": 1317, "Y": 0}}, {"interpolation": 1, "co": {"X": 1318, "Y": 0}}, {"interpolation": 1, "co": {"X": 1208, "Y": 0}}, {"interpolation": 1, "co": {"X": 1209, "Y": 0}}, {"interpolation": 1, "co": {"X": 1304, "Y": 0}}, {"interpolation": 1, "co": {"X": 1305, "Y": 0}}, {"interpolation": 1, "co": {"X": 1204, "Y": 0}}, {"interpolation": 1, "co": {"X": 1205, "Y": 0}}, {"interpolation": 1, "co": {"X": 1348, "Y": 0}}, {"interpolation": 1, "co": {"X": 1349, "Y": 0}}]}, "crop_height": {"Points": [{"interpolation": 2, "co": {"X": 1, "Y": -1}}]}, "effects": [], "rotation": {"Points": [{"interpolation": 2, "co": {"X": 1, "Y": 0}}]}, "has_video": {"Points": [{"interpolation": 2, "co": {"X": 1, "Y": -1}}]}, "perspective_c2_x": {"Points": [{"interpolation": 2, "co": {"X": 1, "Y": -1}}]}, "image": "/home/milind/.openshot_qt/thumbnail/OF57GEZECQ-1196.png", "perspective_c3_y": {"Points": [{"interpolation": 2, "co": {"X": 1, "Y": -1}}]}, "position": 47.95625, "channel_mapping": {"Points": [{"interpolation": 2, "co": {"X": 1, "Y": -1}}]}, "shear_y": {"Points": [{"interpolation": 2, "co": {"X": 1, "Y": 0}}]}, "crop_width": {"Points": [{"interpolation": 2, "co": {"X": 1, "Y": -1}}]}, "location_x": {"Points": [{"interpolation": 2, "co": {"X": 1, "Y": 0}}, {"interpolation": 1, "co": {"X": 822, "Y": -0.20000000298023224}}]}, "crop_y": {"Points": [{"interpolation": 2, "co": {"X": 1, "Y": 0}}]}, "title": "!160-Register Spreadsheet as Database.mkv", "original_data": {"duration": 61.0, "video_length": "1525", "end": 61}, "shear_x": {"Points": [{"interpolation": 2, "co": {"X": 1, "Y": 0}}]}, "channel_filter": {"Points": [{"interpolation": 2, "co": {"X": 1, "Y": -1}}]}, "location_y": {"Points": [{"interpolation": 2, "co": {"X": 1, "Y": 0}}, {"interpolation": 1, "co": {"X": 768, "Y": -0.03500000014901161}}, {"interpolation": 1, "co": {"X": 822, "Y": 0.30000001192092896}}, {"interpolation": 1, "co": {"X": 901, "Y": -0.44999998807907104}}, {"interpolation": 1, "co": {"X": 876, "Y": 0.30000001192092896}}]}, "id": "OF57GEZECQ", "start": 47.800625000000004, "perspective_c4_y": {"Points": [{"interpolation": 2, "co": {"X": 1, "Y": -1}}]}, "wave_color": {"blue": {"Points": [{"handle_type": 0, "handle_right": {"X": 0.5, "Y": 0}, "interpolation": 0, "co": {"X": 1, "Y": 255}, "handle_left": {"X": 0.5, "Y": 1}}]}, "red": {"Points": [{"handle_type": 0, "handle_right": {"X": 0.5, "Y": 0}, "interpolation": 0, "co": {"X": 1, "Y": 0}, "handle_left": {"X": 0.5, "Y": 1}}]}, "alpha": {"Points": [{"handle_type": 0, "handle_right": {"X": 0.5, "Y": 0}, "interpolation": 0, "co": {"X": 1, "Y": 255}, "handle_left": {"X": 0.5, "Y": 1}}]}, "green": {"Points": [{"handle_type": 0, "handle_right": {"X": 0.5, "Y": 0}, "interpolation": 0, "co": {"X": 1, "Y": 123}, "handle_left": {"X": 0.5, "Y": 1}}]}}, "perspective_c4_x": {"Points": [{"interpolation": 2, "co": {"X": 1, "Y": -1}}]}, "duration": 87.0, "crop_x": {"Points": [{"interpolation": 2, "co": {"X": 1, "Y": 0}}]}, "file_id": "YJ84IVW8VE", "end": 56.26104166666667, "scale": 1, "has_audio": {"Points": [{"interpolation": 2, "co": {"X": 1, "Y": -1}}]}, "anchor": 0, "reader": {"duration": 61.0, "top_field_first": true, "file_size": "666485", "has_single_image": false, "sample_rate": 0, "pixel_ratio": {"den": 1, "num": 1}, "channel_layout": 4, "video_length": "1525", "interlaced_frame": false, "vcodec": "h264", "has_video": true, "has_audio": false, "video_stream_index": 0, "audio_stream_index": -1, "type": "FFmpegReader", "fps": {"den": 1, "num": 25}, "display_ratio": {"den": 384, "num": 683}, "channels": 0, "video_timebase": {"den": 1000, "num": 1}, "audio_bit_rate": 0, "pixel_format": 0, "height": 768, "width": 1366, "acodec": "", "audio_timebase": {"den": 1, "num": 1}, "video_bit_rate": 87179, "path": "/home/milind/Data/Projects/ProgressCard/!160-Register Spreadsheet as Database.mkv"}, "gravity": 4, "scale_x": {"Points": [{"interpolation": 2, "co": {"X": 1, "Y": 1}}, {"interpolation": 1, "co": {"X": 768, "Y": 1.2999999523162842}}, {"interpolation": 1, "co": {"X": 822, "Y": 2.299999952316284}}]}, "display": 0, "waveform": false, "layer": 3, "perspective_c1_x": {"Points": [{"interpolation": 2, "co": {"X": 1, "Y": -1}}]}}}, {"value": {"perspective_c3_x": {"Points": [{"interpolation": 2, "co": {"X": 1, "Y": -1}}]}, "duration": 87.0, "perspective_c2_y": {"Points": [{"interpolation": 2, "co": {"X": 1, "Y": -1}}]}, "alpha": {"Points": [{"handle_type": 0, "handle_right": {"X": 0.5, "Y": 0}, "interpolation": 0, "co": {"X": 1, "Y": 1}, "handle_left": {"X": 0.5, "Y": 1}}, {"handle_type": 0, "handle_right": {"X": 0.5, "Y": 0}, "interpolation": 0, "co": {"X": 1279, "Y": 1}, "handle_left": {"X": 0.5, "Y": 1}}, {"handle_type": 0, "handle_right": {"X": 0.5, "Y": 0}, "interpolation": 0, "co": {"X": 1351, "Y": 0}, "handle_left": {"X": 0.5, "Y": 1}}]}, "gravity": 4, "file_id": "YJ84IVW8VE", "channel_mapping": {"Points": [{"interpolation": 2, "co": {"X": 1, "Y": -1}}]}, "scale_y": {"Points": [{"interpolation": 2, "co": {"X": 1, "Y": 1}}, {"interpolation": 1, "co": {"X": 768, "Y": 1.2999999523162842}}, {"interpolation": 1, "co": {"X": 822, "Y": 2.299999952316284}}]}, "time": {"Points": [{"interpolation": 1, "co": {"X": 1, "Y": 0}}, {"interpolation": 1, "co": {"X": 770, "Y": 770}}, {"interpolation": 1, "co": {"X": 866, "Y": 770}}, {"interpolation": 1, "co": {"X": 1171, "Y": 1075}}, {"interpolation": 1, "co": {"X": 1219, "Y": 1075}}, {"interpolation": 1, "co": {"X": 1171, "Y": 1075}}, {"interpolation": 1, "co": {"X": 1219, "Y": 1075}}, {"interpolation": 1, "co": {"X": 1190, "Y": 1075}}, {"interpolation": 1, "co": {"X": 1286, "Y": 1075}}, {"interpolation": 1, "co": {"X": 1222, "Y": 1075}}, {"interpolation": 1, "co": {"X": 1318, "Y": 1075}}, {"interpolation": 1, "co": {"X": 1209, "Y": 1075}}, {"interpolation": 1, "co": {"X": 1305, "Y": 1075}}, {"interpolation": 1, "co": {"X": 1205, "Y": 1075}}, {"interpolation": 1, "co": {"X": 1349, "Y": 1075}}, {"interpolation": 1, "co": {"X": 2089, "Y": 1465}}]}, "volume": {"Points": [{"interpolation": 2, "co": {"X": 1, "Y": 1}}, {"interpolation": 1, "co": {"X": 768, "Y": 1}}, {"interpolation": 1, "co": {"X": 769, "Y": 0}}, {"interpolation": 1, "co": {"X": 816, "Y": 0}}, {"interpolation": 1, "co": {"X": 817, "Y": 1}}, {"interpolation": 1, "co": {"X": 768, "Y": 0}}, {"interpolation": 1, "co": {"X": 769, "Y": 0}}, {"interpolation": 1, "co": {"X": 816, "Y": 0}}, {"interpolation": 1, "co": {"X": 817, "Y": 0}}, {"interpolation": 1, "co": {"X": 768, "Y": 0}}, {"interpolation": 1, "co": {"X": 769, "Y": 0}}, {"interpolation": 1, "co": {"X": 816, "Y": 0}}, {"interpolation": 1, "co": {"X": 817, "Y": 0}}, {"interpolation": 1, "co": {"X": 768, "Y": 0}}, {"interpolation": 1, "co": {"X": 769, "Y": 0}}, {"interpolation": 1, "co": {"X": 816, "Y": 0}}, {"interpolation": 1, "co": {"X": 817, "Y": 0}}, {"interpolation": 1, "co": {"X": 804, "Y": 0}}, {"interpolation": 1, "co": {"X": 805, "Y": 0}}, {"interpolation": 1, "co": {"X": 852, "Y": 0}}, {"interpolation": 1, "co": {"X": 853, "Y": 0}}, {"interpolation": 1, "co": {"X": 769, "Y": 0}}, {"interpolation": 1, "co": {"X": 770, "Y": 0}}, {"interpolation": 1, "co": {"X": 865, "Y": 0}}, {"interpolation": 1, "co": {"X": 866, "Y": 0}}, {"interpolation": 1, "co": {"X": 1170, "Y": 0}}, {"interpolation": 1, "co": {"X": 1171, "Y": 0}}, {"interpolation": 1, "co": {"X": 1218, "Y": 0}}, {"interpolation": 1, "co": {"X": 1219, "Y": 0}}, {"interpolation": 1, "co": {"X": 1170, "Y": 0}}, {"interpolation": 1, "co": {"X": 1171, "Y": 0}}, {"interpolation": 1, "co": {"X": 1218, "Y": 0}}, {"interpolation": 1, "co": {"X": 1219, "Y": 0}}, {"interpolation": 1, "co": {"X": 1189, "Y": 0}}, {"interpolation": 1, "co": {"X": 1190, "Y": 0}}, {"interpolation": 1, "co": {"X": 1285, "Y": 0}}, {"interpolation": 1, "co": {"X": 1286, "Y": 0}}, {"interpolation": 1, "co": {"X": 1221, "Y": 0}}, {"interpolation": 1, "co": {"X": 1222, "Y": 0}}, {"interpolation": 1, "co": {"X": 1317, "Y": 0}}, {"interpolation": 1, "co": {"X": 1318, "Y": 0}}, {"interpolation": 1, "co": {"X": 1208, "Y": 0}}, {"interpolation": 1, "co": {"X": 1209, "Y": 0}}, {"interpolation": 1, "co": {"X": 1304, "Y": 0}}, {"interpolation": 1, "co": {"X": 1305, "Y": 0}}, {"interpolation": 1, "co": {"X": 1204, "Y": 0}}, {"interpolation": 1, "co": {"X": 1205, "Y": 0}}, {"interpolation": 1, "co": {"X": 1348, "Y": 0}}, {"interpolation": 1, "co": {"X": 1349, "Y": 0}}]}, "crop_height": {"Points": [{"interpolation": 2, "co": {"X": 1, "Y": -1}}]}, "effects": [], "rotation": {"Points": [{"interpolation": 2, "co": {"X": 1, "Y": 0}}]}, "image": "/home/milind/.openshot_qt/thumbnail/OF57GEZECQ-1196.png", "crop_x": {"Points": [{"interpolation": 2, "co": {"X": 1, "Y": 0}}]}, "perspective_c2_x": {"Points": [{"interpolation": 2, "co": {"X": 1, "Y": -1}}]}, "scale": 1, "waveform": false, "has_video": {"Points": [{"interpolation": 2, "co": {"X": 1, "Y": -1}}]}, "has_audio": {"Points": [{"interpolation": 2, "co": {"X": 1, "Y": -1}}]}, "anchor": 0, "perspective_c3_y": {"Points": [{"interpolation": 2, "co": {"X": 1, "Y": -1}}]}, "perspective_c4_x": {"Points": [{"interpolation": 2, "co": {"X": 1, "Y": -1}}]}, "end": 56.26104166666667, "scale_x": {"Points": [{"interpolation": 2, "co": {"X": 1, "Y": 1}}, {"interpolation": 1, "co": {"X": 768, "Y": 1.2999999523162842}}, {"interpolation": 1, "co": {"X": 822, "Y": 2.299999952316284}}]}, "shear_y": {"Points": [{"interpolation": 2, "co": {"X": 1, "Y": 0}}]}, "display": 0, "perspective_c1_y": {"Points": [{"interpolation": 2, "co": {"X": 1, "Y": -1}}]}, "position": 47.95625, "crop_y": {"Points": [{"interpolation": 2, "co": {"X": 1, "Y": 0}}]}, "crop_width": {"Points": [{"interpolation": 2, "co": {"X": 1, "Y": -1}}]}, "title": "!160-Register Spreadsheet as Database.mkv", "original_data": {"duration": 61.0, "video_length": "1525", "end": 61}, "location_x": {"Points": [{"interpolation": 2, "co": {"X": 1, "Y": 0}}, {"interpolation": 1, "co": {"X": 822, "Y": -0.20000000298023224}}]}, "shear_x": {"Points": [{"interpolation": 2, "co": {"X": 1, "Y": 0}}]}, "channel_filter": {"Points": [{"interpolation": 2, "co": {"X": 1, "Y": -1}}]}, "location_y": {"Points": [{"interpolation": 2, "co": {"X": 1, "Y": 0}}, {"interpolation": 1, "co": {"X": 768, "Y": -0.03500000014901161}}, {"interpolation": 1, "co": {"X": 822, "Y": 0.30000001192092896}}, {"interpolation": 1, "co": {"X": 901, "Y": -0.44999998807907104}}, {"interpolation": 1, "co": {"X": 876, "Y": 0.30000001192092896}}]}, "perspective_c1_x": {"Points": [{"interpolation": 2, "co": {"X": 1, "Y": -1}}]}, "id": "OF57GEZECQ", "start": 47.800625000000004, "perspective_c4_y": {"Points": [{"interpolation": 2, "co": {"X": 1, "Y": -1}}]}, "wave_color": {"blue": {"Points": [{"handle_type": 0, "handle_right": {"X": 0.5, "Y": 0}, "interpolation": 0, "co": {"X": 1, "Y": 255}, "handle_left": {"X": 0.5, "Y": 1}}]}, "red": {"Points": [{"handle_type": 0, "handle_right": {"X": 0.5, "Y": 0}, "interpolation": 0, "co": {"X": 1, "Y": 0}, "handle_left": {"X": 0.5, "Y": 1}}]}, "alpha": {"Points": [{"handle_type": 0, "handle_right": {"X": 0.5, "Y": 0}, "interpolation": 0, "co": {"X": 1, "Y": 255}, "handle_left": {"X": 0.5, "Y": 1}}]}, "green": {"Points": [{"handle_type": 0, "handle_right": {"X": 0.5, "Y": 0}, "interpolation": 0, "co": {"X": 1, "Y": 123}, "handle_left": {"X": 0.5, "Y": 1}}]}}, "layer": 3}, "type": "update", "partial": false, "key": ["clips", {"id": "OF57GEZECQ"}], "old_values": {"perspective_c1_y": {"Points": [{"interpolation": 2, "co": {"X": 1, "Y": -1}}]}, "perspective_c3_x": {"Points": [{"interpolation": 2, "co": {"X": 1, "Y": -1}}]}, "perspective_c2_y": {"Points": [{"interpolation": 2, "co": {"X": 1, "Y": -1}}]}, "alpha": {"Points": [{"handle_type": 0, "handle_right": {"X": 0.5, "Y": 0}, "interpolation": 0, "co": {"X": 1, "Y": 1}, "handle_left": {"X": 0.5, "Y": 1}}]}, "scale_y": {"Points": [{"interpolation": 2, "co": {"X": 1, "Y": 1}}, {"interpolation": 1, "co": {"X": 768, "Y": 1.2999999523162842}}, {"interpolation": 1, "co": {"X": 822, "Y": 2.299999952316284}}]}, "time": {"Points": [{"interpolation": 1, "co": {"X": 1, "Y": 0}}, {"interpolation": 1, "co": {"X": 770, "Y": 770}}, {"interpolation": 1, "co": {"X": 866, "Y": 770}}, {"interpolation": 1, "co": {"X": 1171, "Y": 1075}}, {"interpolation": 1, "co": {"X": 1219, "Y": 1075}}, {"interpolation": 1, "co": {"X": 1171, "Y": 1075}}, {"interpolation": 1, "co": {"X": 1219, "Y": 1075}}, {"interpolation": 1, "co": {"X": 1190, "Y": 1075}}, {"interpolation": 1, "co": {"X": 1286, "Y": 1075}}, {"interpolation": 1, "co": {"X": 1222, "Y": 1075}}, {"interpolation": 1, "co": {"X": 1318, "Y": 1075}}, {"interpolation": 1, "co": {"X": 1209, "Y": 1075}}, {"interpolation": 1, "co": {"X": 1305, "Y": 1075}}, {"interpolation": 1, "co": {"X": 1205, "Y": 1075}}, {"interpolation": 1, "co": {"X": 1349, "Y": 1075}}, {"interpolation": 1, "co": {"X": 2089, "Y": 1465}}]}, "volume": {"Points": [{"interpolation": 2, "co": {"X": 1, "Y": 1}}, {"interpolation": 1, "co": {"X": 768, "Y": 1}}, {"interpolation": 1, "co": {"X": 769, "Y": 0}}, {"interpolation": 1, "co": {"X": 816, "Y": 0}}, {"interpolation": 1, "co": {"X": 817, "Y": 1}}, {"interpolation": 1, "co": {"X": 768, "Y": 0}}, {"interpolation": 1, "co": {"X": 769, "Y": 0}}, {"interpolation": 1, "co": {"X": 816, "Y": 0}}, {"interpolation": 1, "co": {"X": 817, "Y": 0}}, {"interpolation": 1, "co": {"X": 768, "Y": 0}}, {"interpolation": 1, "co": {"X": 769, "Y": 0}}, {"interpolation": 1, "co": {"X": 816, "Y": 0}}, {"interpolation": 1, "co": {"X": 817, "Y": 0}}, {"interpolation": 1, "co": {"X": 768, "Y": 0}}, {"interpolation": 1, "co": {"X": 769, "Y": 0}}, {"interpolation": 1, "co": {"X": 816, "Y": 0}}, {"interpolation": 1, "co": {"X": 817, "Y": 0}}, {"interpolation": 1, "co": {"X": 804, "Y": 0}}, {"interpolation": 1, "co": {"X": 805, "Y": 0}}, {"interpolation": 1, "co": {"X": 852, "Y": 0}}, {"interpolation": 1, "co": {"X": 853, "Y": 0}}, {"interpolation": 1, "co": {"X": 769, "Y": 0}}, {"interpolation": 1, "co": {"X": 770, "Y": 0}}, {"interpolation": 1, "co": {"X": 865, "Y": 0}}, {"interpolation": 1, "co": {"X": 866, "Y": 0}}, {"interpolation": 1, "co": {"X": 1170, "Y": 0}}, {"interpolation": 1, "co": {"X": 1171, "Y": 0}}, {"interpolation": 1, "co": {"X": 1218, "Y": 0}}, {"interpolation": 1, "co": {"X": 1219, "Y": 0}}, {"interpolation": 1, "co": {"X": 1170, "Y": 0}}, {"interpolation": 1, "co": {"X": 1171, "Y": 0}}, {"interpolation": 1, "co": {"X": 1218, "Y": 0}}, {"interpolation": 1, "co": {"X": 1219, "Y": 0}}, {"interpolation": 1, "co": {"X": 1189, "Y": 0}}, {"interpolation": 1, "co": {"X": 1190, "Y": 0}}, {"interpolation": 1, "co": {"X": 1285, "Y": 0}}, {"interpolation": 1, "co": {"X": 1286, "Y": 0}}, {"interpolation": 1, "co": {"X": 1221, "Y": 0}}, {"interpolation": 1, "co": {"X": 1222, "Y": 0}}, {"interpolation": 1, "co": {"X": 1317, "Y": 0}}, {"interpolation": 1, "co": {"X": 1318, "Y": 0}}, {"interpolation": 1, "co": {"X": 1208, "Y": 0}}, {"interpolation": 1, "co": {"X": 1209, "Y": 0}}, {"interpolation": 1, "co": {"X": 1304, "Y": 0}}, {"interpolation": 1, "co": {"X": 1305, "Y": 0}}, {"interpolation": 1, "co": {"X": 1204, "Y": 0}}, {"interpolation": 1, "co": {"X": 1205, "Y": 0}}, {"interpolation": 1, "co": {"X": 1348, "Y": 0}}, {"interpolation": 1, "co": {"X": 1349, "Y": 0}}]}, "crop_height": {"Points": [{"interpolation": 2, "co": {"X": 1, "Y": -1}}]}, "effects": [], "rotation": {"Points": [{"interpolation": 2, "co": {"X": 1, "Y": 0}}]}, "has_video": {"Points": [{"interpolation": 2, "co": {"X": 1, "Y": -1}}]}, "perspective_c2_x": {"Points": [{"interpolation": 2, "co": {"X": 1, "Y": -1}}]}, "image": "/home/milind/.openshot_qt/thumbnail/OF57GEZECQ-1196.png", "perspective_c3_y": {"Points": [{"interpolation": 2, "co": {"X": 1, "Y": -1}}]}, "position": 47.95625, "channel_mapping": {"Points": [{"interpolation": 2, "co": {"X": 1, "Y": -1}}]}, "shear_y": {"Points": [{"interpolation": 2, "co": {"X": 1, "Y": 0}}]}, "crop_width": {"Points": [{"interpolation": 2, "co": {"X": 1, "Y": -1}}]}, "location_x": {"Points": [{"interpolation": 2, "co": {"X": 1, "Y": 0}}, {"interpolation": 1, "co": {"X": 822, "Y": -0.20000000298023224}}]}, "crop_y": {"Points": [{"interpolation": 2, "co": {"X": 1, "Y": 0}}]}, "title": "!160-Register Spreadsheet as Database.mkv", "original_data": {"duration": 61.0, "video_length": "1525", "end": 61}, "shear_x": {"Points": [{"interpolation": 2, "co": {"X": 1, "Y": 0}}]}, "channel_filter": {"Points": [{"interpolation": 2, "co": {"X": 1, "Y": -1}}]}, "location_y": {"Points": [{"interpolation": 2, "co": {"X": 1, "Y": 0}}, {"interpolation": 1, "co": {"X": 768, "Y": -0.03500000014901161}}, {"interpolation": 1, "co": {"X": 822, "Y": 0.30000001192092896}}, {"interpolation": 1, "co": {"X": 901, "Y": -0.44999998807907104}}, {"interpolation": 1, "co": {"X": 876, "Y": 0.30000001192092896}}]}, "id": "OF57GEZECQ", "start": 47.800625000000004, "perspective_c4_y": {"Points": [{"interpolation": 2, "co": {"X": 1, "Y": -1}}]}, "wave_color": {"blue": {"Points": [{"handle_type": 0, "handle_right": {"X": 0.5, "Y": 0}, "interpolation": 0, "co": {"X": 1, "Y": 255}, "handle_left": {"X": 0.5, "Y": 1}}]}, "red": {"Points": [{"handle_type": 0, "handle_right": {"X": 0.5, "Y": 0}, "interpolation": 0, "co": {"X": 1, "Y": 0}, "handle_left": {"X": 0.5, "Y": 1}}]}, "alpha": {"Points": [{"handle_type": 0, "handle_right": {"X": 0.5, "Y": 0}, "interpolation": 0, "co": {"X": 1, "Y": 255}, "handle_left": {"X": 0.5, "Y": 1}}]}, "green": {"Points": [{"handle_type": 0, "handle_right": {"X": 0.5, "Y": 0}, "interpolation": 0, "co": {"X": 1, "Y": 123}, "handle_left": {"X": 0.5, "Y": 1}}]}}, "perspective_c4_x": {"Points": [{"interpolation": 2, "co": {"X": 1, "Y": -1}}]}, "duration": 87.0, "crop_x": {"Points": [{"interpolation": 2, "co": {"X": 1, "Y": 0}}]}, "file_id": "YJ84IVW8VE", "end": 56.26104166666667, "scale": 1, "has_audio": {"Points": [{"interpolation": 2, "co": {"X": 1, "Y": -1}}]}, "anchor": 0, "reader": {"duration": 61.0, "top_field_first": true, "file_size": "666485", "has_single_image": false, "sample_rate": 0, "pixel_ratio": {"den": 1, "num": 1}, "channel_layout": 4, "video_length": "1525", "interlaced_frame": false, "vcodec": "h264", "has_video": true, "has_audio": false, "video_stream_index": 0, "audio_stream_index": -1, "type": "FFmpegReader", "fps": {"den": 1, "num": 25}, "display_ratio": {"den": 384, "num": 683}, "channels": 0, "video_timebase": {"den": 1000, "num": 1}, "audio_bit_rate": 0, "pixel_format": 0, "height": 768, "width": 1366, "acodec": "", "audio_timebase": {"den": 1, "num": 1}, "video_bit_rate": 87179, "path": "/home/milind/Data/Projects/ProgressCard/!160-Register Spreadsheet as Database.mkv"}, "gravity": 4, "scale_x": {"Points": [{"interpolation": 2, "co": {"X": 1, "Y": 1}}, {"interpolation": 1, "co": {"X": 768, "Y": 1.2999999523162842}}, {"interpolation": 1, "co": {"X": 822, "Y": 2.299999952316284}}]}, "display": 0, "waveform": false, "layer": 3, "perspective_c1_x": {"Points": [{"interpolation": 2, "co": {"X": 1, "Y": -1}}]}}}, {"value": {"perspective_c3_x": {"Points": [{"interpolation": 2, "co": {"X": 1, "Y": -1}}]}, "duration": 61.0, "perspective_c2_y": {"Points": [{"interpolation": 2, "co": {"X": 1, "Y": -1}}]}, "alpha": {"Points": [{"interpolation": 2, "co": {"X": 1, "Y": 1}}]}, "file_id": "YJ84IVW8VE", "channel_mapping": {"Points": [{"interpolation": 2, "co": {"X": 1, "Y": -1}}]}, "scale_y": {"Points": [{"interpolation": 2, "co": {"X": 1, "Y": 1}}]}, "time": {"Points": [{"interpolation": 2, "co": {"X": 1, "Y": 1}}]}, "volume": {"Points": [{"interpolation": 2, "co": {"X": 1, "Y": 1}}]}, "crop_height": {"Points": [{"interpolation": 2, "co": {"X": 1, "Y": -1}}]}, "effects": [], "rotation": {"Points": [{"interpolation": 2, "co": {"X": 1, "Y": 0}}]}, "has_video": {"Points": [{"interpolation": 2, "co": {"X": 1, "Y": -1}}]}, "crop_x": {"Points": [{"interpolation": 2, "co": {"X": 1, "Y": 0}}]}, "perspective_c2_x": {"Points": [{"interpolation": 2, "co": {"X": 1, "Y": -1}}]}, "scale": 1, "waveform": false, "image": "/home/milind/.openshot_qt/thumbnail/YJ84IVW8VE.png", "has_audio": {"Points": [{"interpolation": 2, "co": {"X": 1, "Y": -1}}]}, "anchor": 0, "reader": {"duration": 61.0, "top_field_first": true, "file_size": "666485", "has_single_image": false, "sample_rate": 0, "pixel_ratio": {"den": 1, "num": 1}, "video_length": "1525", "channel_layout": 4, "interlaced_frame": false, "vcodec": "h264", "has_video": true, "has_audio": false, "video_stream_index": 0, "audio_stream_index": -1, "type": "FFmpegReader", "fps": {"den": 1, "num": 25}, "display_ratio": {"den": 384, "num": 683}, "channels": 0, "video_timebase": {"den": 1000, "num": 1}, "audio_bit_rate": 0, "pixel_format": 0, "height": 768, "width": 1366, "acodec": "", "audio_timebase": {"den": 1, "num": 1}, "video_bit_rate": 87179, "path": "/home/milind/Data/Projects/ProgressCard/!160-Register Spreadsheet as Database.mkv"}, "gravity": 4, "end": 61, "scale_x": {"Points": [{"interpolation": 2, "co": {"X": 1, "Y": 1}}]}, "start": 0, "shear_y": {"Points": [{"interpolation": 2, "co": {"X": 1, "Y": 0}}]}, "display": 0, "perspective_c1_y": {"Points": [{"interpolation": 2, "co": {"X": 1, "Y": -1}}]}, "position": 72.053125, "crop_y": {"Points": [{"interpolation": 2, "co": {"X": 1, "Y": 0}}]}, "crop_width": {"Points": [{"interpolation": 2, "co": {"X": 1, "Y": -1}}]}, "title": "!160-Register Spreadsheet as Database.mkv", "layer": 4, "location_x": {"Points": [{"interpolation": 2, "co": {"X": 1, "Y": 0}}]}, "shear_x": {"Points": [{"interpolation": 2, "co": {"X": 1, "Y": 0}}]}, "channel_filter": {"Points": [{"interpolation": 2, "co": {"X": 1, "Y": -1}}]}, "location_y": {"Points": [{"interpolation": 2, "co": {"X": 1, "Y": 0}}]}, "perspective_c1_x": {"Points": [{"interpolation": 2, "co": {"X": 1, "Y": -1}}]}, "id": "4H2AH3X6LW", "perspective_c3_y": {"Points": [{"interpolation": 2, "co": {"X": 1, "Y": -1}}]}, "perspective_c4_y": {"Points": [{"interpolation": 2, "co": {"X": 1, "Y": -1}}]}, "wave_color": {"blue": {"Points": [{"handle_type": 0, "handle_right": {"X": 0.5, "Y": 0}, "interpolation": 0, "co": {"X": 1, "Y": 255}, "handle_left": {"X": 0.5, "Y": 1}}]}, "red": {"Points": [{"handle_type": 0, "handle_right": {"X": 0.5, "Y": 0}, "interpolation": 0, "co": {"X": 1, "Y": 0}, "handle_left": {"X": 0.5, "Y": 1}}]}, "alpha": {"Points": [{"handle_type": 0, "handle_right": {"X": 0.5, "Y": 0}, "interpolation": 0, "co": {"X": 1, "Y": 255}, "handle_left": {"X": 0.5, "Y": 1}}]}, "green": {"Points": [{"handle_type": 0, "handle_right": {"X": 0.5, "Y": 0}, "interpolation": 0, "co": {"X": 1, "Y": 123}, "handle_left": {"X": 0.5, "Y": 1}}]}}, "perspective_c4_x": {"Points": [{"interpolation": 2, "co": {"X": 1, "Y": -1}}]}}, "type": "insert", "partial": false, "key": ["clips"], "old_values": [{"perspective_c3_x": {"Points": [{"co": {"X": 1, "Y": -1}, "interpolation": 2}]}, "duration": 86400.0, "perspective_c2_y": {"Points": [{"co": {"X": 1, "Y": -1}, "interpolation": 2}]}, "alpha": {"Points": [{"co": {"X": 1, "Y": 1}, "interpolation": 2}]}, "file_id": "W3X0DXJTS6", "end": 61.81666666666666, "scale_y": {"Points": [{"co": {"X": 1, "Y": 1}, "interpolation": 2}]}, "time": {"Points": [{"co": {"X": 1, "Y": 1}, "interpolation": 2}]}, "volume": {"Points": [{"co": {"X": 1, "Y": 1}, "interpolation": 2}]}, "crop_height": {"Points": [{"co": {"X": 1, "Y": -1}, "interpolation": 2}]}, "effects": [], "rotation": {"Points": [{"co": {"X": 1, "Y": 0}, "interpolation": 2}]}, "has_video": {"Points": [{"co": {"X": 1, "Y": -1}, "interpolation": 2}]}, "crop_x": {"Points": [{"co": {"X": 1, "Y": 0}, "interpolation": 2}]}, "perspective_c2_x": {"Points": [{"co": {"X": 1, "Y": -1}, "interpolation": 2}]}, "scale": 1, "waveform": false, "image": "/home/milind/.openshot_qt/thumbnail/W3X0DXJTS6.png", "has_audio": {"Points": [{"co": {"X": 1, "Y": -1}, "interpolation": 2}]}, "anchor": 0, "reader": {"duration": 86400.0, "type": "QtImageReader", "file_size": "8294400", "has_single_image": true, "sample_rate": 0, "pixel_ratio": {"den": 1, "num": 1}, "video_length": "2592000", "channel_layout": 4, "interlaced_frame": false, "vcodec": "", "has_video": true, "has_audio": false, "video_stream_index": -1, "audio_stream_index": -1, "fps": {"den": 1, "num": 30}, "display_ratio": {"den": 9, "num": 16}, "channels": 0, "audio_bit_rate": 0, "video_timebase": {"den": 30, "num": 1}, "top_field_first": true, "pixel_format": -1, "height": 1080, "width": 1920, "acodec": "", "audio_timebase": {"den": 1, "num": 1}, "video_bit_rate": 0, "path": "/home/milind/Data/Projects/ProgressCard/!000-White-Background.svg"}, "gravity": 4, "channel_mapping": {"Points": [{"co": {"X": 1, "Y": -1}, "interpolation": 2}]}, "scale_x": {"Points": [{"co": {"X": 1, "Y": 1}, "interpolation": 2}]}, "shear_y": {"Points": [{"co": {"X": 1, "Y": 0}, "interpolation": 2}]}, "display": 0, "perspective_c1_y": {"Points": [{"co": {"X": 1, "Y": -1}, "interpolation": 2}]}, "position": 0, "crop_y": {"Points": [{"co": {"X": 1, "Y": 0}, "interpolation": 2}]}, "crop_width": {"Points": [{"co": {"X": 1, "Y": -1}, "interpolation": 2}]}, "title": "!000-White-Background.svg", "layer": 0, "location_x": {"Points": [{"co": {"X": 1, "Y": 0}, "interpolation": 2}]}, "shear_x": {"Points": [{"co": {"X": 1, "Y": 0}, "interpolation": 2}]}, "channel_filter": {"Points": [{"co": {"X": 1, "Y": -1}, "interpolation": 2}]}, "perspective_c3_y": {"Points": [{"co": {"X": 1, "Y": -1}, "interpolation": 2}]}, "location_y": {"Points": [{"co": {"X": 1, "Y": 0}, "interpolation": 2}]}, "perspective_c1_x": {"Points": [{"co": {"X": 1, "Y": -1}, "interpolation": 2}]}, "id": "UM8RJNI4RE", "start": 0, "perspective_c4_y": {"Points": [{"co": {"X": 1, "Y": -1}, "interpolation": 2}]}, "wave_color": {"blue": {"Points": [{"handle_type": 0, "handle_right": {"X": 0.5, "Y": 0}, "interpolation": 0, "co": {"X": 1, "Y": 255}, "handle_left": {"X": 0.5, "Y": 1}}]}, "red": {"Points": [{"handle_type": 0, "handle_right": {"X": 0.5, "Y": 0}, "interpolation": 0, "co": {"X": 1, "Y": 0}, "handle_left": {"X": 0.5, "Y": 1}}]}, "alpha": {"Points": [{"handle_type": 0, "handle_right": {"X": 0.5, "Y": 0}, "interpolation": 0, "co": {"X": 1, "Y": 255}, "handle_left": {"X": 0.5, "Y": 1}}]}, "green": {"Points": [{"handle_type": 0, "handle_right": {"X": 0.5, "Y": 0}, "interpolation": 0, "co": {"X": 1, "Y": 123}, "handle_left": {"X": 0.5, "Y": 1}}]}}, "perspective_c4_x": {"Points": [{"co": {"X": 1, "Y": -1}, "interpolation": 2}]}}, {"perspective_c3_x": {"Points": [{"co": {"X": 1, "Y": -1}, "interpolation": 2}]}, "duration": 61.0, "perspective_c2_y": {"Points": [{"co": {"X": 1, "Y": -1}, "interpolation": 2}]}, "alpha": {"Points": [{"handle_type": 0, "handle_right": {"X": 0.5, "Y": 0}, "co": {"X": 1, "Y": 1}, "interpolation": 0, "handle_left": {"X": 0.5, "Y": 1}}, {"handle_type": 0, "handle_right": {"X": 0.5, "Y": 0}, "interpolation": 0, "co": {"X": 1, "Y": 0}, "handle_left": {"X": 0.5, "Y": 1}}, {"handle_type": 0, "handle_right": {"X": 0.5, "Y": 0}, "interpolation": 0, "co": {"X": 73, "Y": 1}, "handle_left": {"X": 0.5, "Y": 1}}, {"handle_type": 0, "handle_right": {"X": 0.5, "Y": 0}, "co": {"X": 425, "Y": 1}, "interpolation": 0, "handle_left": {"X": 0.5, "Y": 1}}, {"handle_type": 0, "handle_right": {"X": 0.5, "Y": 0}, "co": {"X": 497, "Y": 0}, "interpolation": 0, "handle_left": {"X": 0.5, "Y": 1}}]}, "file_id": "YJ84IVW8VE", "channel_mapping": {"Points": [{"co": {"X": 1, "Y": -1}, "interpolation": 2}]}, "scale_y": {"Points": [{"handle_type": 0, "handle_right": {"X": 0.5, "Y": 0}, "interpolation": 0, "co": {"X": 1, "Y": 1.2000000476837158}, "handle_left": {"X": 0.5, "Y": 1}}, {"co": {"X": 68, "Y": 3.0}, "interpolation": 1}]}, "time": {"Points": [{"co": {"X": 1, "Y": 1}, "interpolation": 2}]}, "volume": {"Points": [{"co": {"X": 1, "Y": 1}, "interpolation": 2}]}, "crop_height": {"Points": [{"co": {"X": 1, "Y": -1}, "interpolation": 2}]}, "effects": [], "rotation": {"Points": [{"co": {"X": 1, "Y": 0}, "interpolation": 2}]}, "image": "/home/milind/.openshot_qt/thumbnail/YJ84IVW8VE.png", "crop_x": {"Points": [{"co": {"X": 1, "Y": 0}, "interpolation": 2}]}, "perspective_c2_x": {"Points": [{"co": {"X": 1, "Y": -1}, "interpolation": 2}]}, "scale": 1, "waveform": false, "has_video": {"Points": [{"co": {"X": 1, "Y": -1}, "interpolation": 2}]}, "has_audio": {"Points": [{"co": {"X": 1, "Y": -1}, "interpolation": 2}]}, "anchor": 0, "reader": {"duration": 61.0, "type": "FFmpegReader", "file_size": "666485", "has_single_image": false, "sample_rate": 0, "pixel_ratio": {"den": 1, "num": 1}, "video_length": "1525", "channel_layout": 4, "interlaced_frame": false, "vcodec": "h264", "has_video": true, "has_audio": false, "video_stream_index": 0, "audio_stream_index": -1, "fps": {"den": 1, "num": 25}, "display_ratio": {"den": 384, "num": 683}, "channels": 0, "audio_bit_rate": 0, "video_timebase": {"den": 1000, "num": 1}, "top_field_first": true, "pixel_format": 0, "height": 768, "width": 1366, "acodec": "", "audio_timebase": {"den": 1, "num": 1}, "video_bit_rate": 87179, "path": "/home/milind/Data/Projects/ProgressCard/!160-Register Spreadsheet as Database.mkv"}, "gravity": 4, "end": 20.673333333333336, "scale_x": {"Points": [{"handle_type": 0, "handle_right": {"X": 0.5, "Y": 0}, "interpolation": 0, "co": {"X": 1, "Y": 1.2000000476837158}, "handle_left": {"X": 0.5, "Y": 1}}, {"co": {"X": 68, "Y": 3.0}, "interpolation": 1}]}, "shear_y": {"Points": [{"co": {"X": 1, "Y": 0}, "interpolation": 2}]}, "display": 0, "perspective_c1_y": {"Points": [{"co": {"X": 1, "Y": -1}, "interpolation": 2}]}, "position": 6.99734375, "crop_y": {"Points": [{"co": {"X": 1, "Y": 0}, "interpolation": 2}]}, "crop_width": {"Points": [{"co": {"X": 1, "Y": -1}, "interpolation": 2}]}, "title": "!160-Register Spreadsheet as Database.mkv", "layer": 1, "location_x": {"Points": [{"handle_type": 0, "handle_right": {"X": 0.5, "Y": 0}, "interpolation": 0, "co": {"X": 1, "Y": -0.009999999776482582}, "handle_left": {"X": 0.5, "Y": 1}}]}, "shear_x": {"Points": [{"co": {"X": 1, "Y": 0}, "interpolation": 2}]}, "channel_filter": {"Points": [{"co": {"X": 1, "Y": -1}, "interpolation": 2}]}, "perspective_c3_y": {"Points": [{"co": {"X": 1, "Y": -1}, "interpolation": 2}]}, "location_y": {"Points": [{"handle_type": 0, "handle_right": {"X": 0.5, "Y": 0}, "co": {"X": 1, "Y": -0.10000000149011612}, "interpolation": 0, "handle_left": {"X": 0.5, "Y": 1}}, {"interpolation": 1, "co": {"X": 68, "Y": 0.20000000298023224}}, {"interpolation": 1, "co": {"X": 302, "Y": -0.20000000298023224}}, {"co": {"X": 267, "Y": -0.20000000298023224}, "interpolation": 1}, {"co": {"X": 208, "Y": 0.20000000298023224}, "interpolation": 1}, {"interpolation": 1, "co": {"X": 422, "Y": -0.75}}, {"co": {"X": 373, "Y": -0.75}, "interpolation": 1}, {"interpolation": 1, "co": {"X": 333, "Y": -0.20000000298023224}}]}, "perspective_c1_x": {"Points": [{"co": {"X": 1, "Y": -1}, "interpolation": 2}]}, "id": "4UWHV2278I", "start": 0, "perspective_c4_y": {"Points": [{"co": {"X": 1, "Y": -1}, "interpolation": 2}]}, "wave_color": {"blue": {"Points": [{"handle_type": 0, "handle_right": {"X": 0.5, "Y": 0}, "interpolation": 0, "co": {"X": 1, "Y": 255}, "handle_left": {"X": 0.5, "Y": 1}}]}, "red": {"Points": [{"handle_type": 0, "handle_right": {"X": 0.5, "Y": 0}, "interpolation": 0, "co": {"X": 1, "Y": 0}, "handle_left": {"X": 0.5, "Y": 1}}]}, "alpha": {"Points": [{"handle_type": 0, "handle_right": {"X": 0.5, "Y": 0}, "interpolation": 0, "co": {"X": 1, "Y": 255}, "handle_left": {"X": 0.5, "Y": 1}}]}, "green": {"Points": [{"handle_type": 0, "handle_right": {"X": 0.5, "Y": 0}, "interpolation": 0, "co": {"X": 1, "Y": 123}, "handle_left": {"X": 0.5, "Y": 1}}]}}, "perspective_c4_x": {"Points": [{"co": {"X": 1, "Y": -1}, "interpolation": 2}]}}, {"perspective_c3_x": {"Points": [{"co": {"X": 1, "Y": -1}, "interpolation": 2}]}, "duration": 14.0, "perspective_c2_y": {"Points": [{"co": {"X": 1, "Y": -1}, "interpolation": 2}]}, "alpha": {"Points": [{"co": {"X": 1, "Y": 1}, "interpolation": 2}, {"handle_type": 0, "handle_right": {"X": 0.5, "Y": 0}, "interpolation": 0, "co": {"X": 1, "Y": 0}, "handle_left": {"X": 0.5, "Y": 1}}, {"handle_type": 0, "handle_right": {"X": 0.5, "Y": 0}, "interpolation": 0, "co": {"X": 73, "Y": 1}, "handle_left": {"X": 0.5, "Y": 1}}, {"handle_type": 0, "handle_right": {"X": 0.5, "Y": 0}, "interpolation": 0, "co": {"X": 265, "Y": 1}, "handle_left": {"X": 0.5, "Y": 1}}, {"handle_type": 0, "handle_right": {"X": 0.5, "Y": 0}, "interpolation": 0, "co": {"X": 337, "Y": 0}, "handle_left": {"X": 0.5, "Y": 1}}]}, "file_id": "C7V0GMBLYX", "end": 14, "scale_y": {"Points": [{"co": {"X": 1, "Y": 1}, "interpolation": 2}]}, "time": {"Points": [{"co": {"X": 1, "Y": 1}, "interpolation": 2}]}, "volume": {"Points": [{"co": {"X": 1, "Y": 1}, "interpolation": 2}]}, "crop_height": {"Points": [{"co": {"X": 1, "Y": -1}, "interpolation": 2}]}, "effects": [], "rotation": {"Points": [{"co": {"X": 1, "Y": 0}, "interpolation": 2}]}, "image": "/home/milind/.openshot_qt/thumbnail/C7V0GMBLYX.png", "crop_x": {"Points": [{"co": {"X": 1, "Y": 0}, "interpolation": 2}]}, "perspective_c2_x": {"Points": [{"co": {"X": 1, "Y": -1}, "interpolation": 2}]}, "scale": 1, "waveform": false, "has_video": {"Points": [{"co": {"X": 1, "Y": -1}, "interpolation": 2}]}, "has_audio": {"Points": [{"co": {"X": 1, "Y": -1}, "interpolation": 2}]}, "anchor": 0, "reader": {"duration": 14.0, "type": "FFmpegReader", "file_size": "117846", "has_single_image": false, "sample_rate": 0, "pixel_ratio": {"den": 1, "num": 1}, "video_length": "350", "channel_layout": 4, "interlaced_frame": false, "vcodec": "h264", "has_video": true, "has_audio": false, "video_stream_index": 0, "audio_stream_index": -1, "fps": {"den": 1, "num": 25}, "display_ratio": {"den": 186, "num": 325}, "channels": 0, "audio_bit_rate": 0, "video_timebase": {"den": 1000, "num": 1}, "top_field_first": true, "pixel_format": 0, "height": 744, "width": 1300, "acodec": "", "audio_timebase": {"den": 1, "num": 1}, "video_bit_rate": 63358, "path": "/home/milind/Data/Projects/ProgressCard/!170-Open The Saved Progress Card Template.mkv"}, "gravity": 4, "channel_mapping": {"Points": [{"co": {"X": 1, "Y": -1}, "interpolation": 2}]}, "scale_x": {"Points": [{"co": {"X": 1, "Y": 1}, "interpolation": 2}]}, "start": 0, "shear_y": {"Points": [{"co": {"X": 1, "Y": 0}, "interpolation": 2}]}, "display": 0, "perspective_c1_y": {"Points": [{"co": {"X": 1, "Y": -1}, "interpolation": 2}]}, "position": 73.54, "crop_y": {"Points": [{"co": {"X": 1, "Y": 0}, "interpolation": 2}]}, "crop_width": {"Points": [{"co": {"X": 1, "Y": -1}, "interpolation": 2}]}, "title": "!170-Open The Saved Progress Card Template.mkv", "layer": 1, "location_x": {"Points": [{"co": {"X": 1, "Y": 0}, "interpolation": 2}]}, "shear_x": {"Points": [{"co": {"X": 1, "Y": 0}, "interpolation": 2}]}, "channel_filter": {"Points": [{"co": {"X": 1, "Y": -1}, "interpolation": 2}]}, "location_y": {"Points": [{"co": {"X": 1, "Y": 0}, "interpolation": 2}]}, "perspective_c1_x": {"Points": [{"co": {"X": 1, "Y": -1}, "interpolation": 2}]}, "id": "NH3SK34S1K", "perspective_c3_y": {"Points": [{"co": {"X": 1, "Y": -1}, "interpolation": 2}]}, "perspective_c4_y": {"Points": [{"co": {"X": 1, "Y": -1}, "interpolation": 2}]}, "wave_color": {"blue": {"Points": [{"handle_type": 0, "handle_right": {"X": 0.5, "Y": 0}, "interpolation": 0, "co": {"X": 1, "Y": 255}, "handle_left": {"X": 0.5, "Y": 1}}]}, "red": {"Points": [{"handle_type": 0, "handle_right": {"X": 0.5, "Y": 0}, "interpolation": 0, "co": {"X": 1, "Y": 0}, "handle_left": {"X": 0.5, "Y": 1}}]}, "alpha": {"Points": [{"handle_type": 0, "handle_right": {"X": 0.5, "Y": 0}, "interpolation": 0, "co": {"X": 1, "Y": 255}, "handle_left": {"X": 0.5, "Y": 1}}]}, "green": {"Points": [{"handle_type": 0, "handle_right": {"X": 0.5, "Y": 0}, "interpolation": 0, "co": {"X": 1, "Y": 123}, "handle_left": {"X": 0.5, "Y": 1}}]}}, "perspective_c4_x": {"Points": [{"co": {"X": 1, "Y": -1}, "interpolation": 2}]}}, {"perspective_c3_x": {"Points": [{"co": {"X": 1, "Y": -1}, "interpolation": 2}]}, "duration": 86400.0, "perspective_c2_y": {"Points": [{"co": {"X": 1, "Y": -1}, "interpolation": 2}]}, "alpha": {"Points": [{"co": {"X": 1, "Y": 1}, "interpolation": 2}]}, "file_id": "W3X0DXJTS6", "end": 10, "scale_y": {"Points": [{"co": {"X": 1, "Y": 1}, "interpolation": 2}]}, "time": {"Points": [{"co": {"X": 1, "Y": 1}, "interpolation": 2}]}, "volume": {"Points": [{"co": {"X": 1, "Y": 1}, "interpolation": 2}]}, "crop_height": {"Points": [{"co": {"X": 1, "Y": -1}, "interpolation": 2}]}, "effects": [], "rotation": {"Points": [{"co": {"X": 1, "Y": 0}, "interpolation": 2}]}, "image": "/home/milind/.openshot_qt/thumbnail/W3X0DXJTS6.png", "crop_x": {"Points": [{"co": {"X": 1, "Y": 0}, "interpolation": 2}]}, "perspective_c2_x": {"Points": [{"co": {"X": 1, "Y": -1}, "interpolation": 2}]}, "scale": 1, "waveform": false, "has_video": {"Points": [{"co": {"X": 1, "Y": -1}, "interpolation": 2}]}, "has_audio": {"Points": [{"co": {"X": 1, "Y": -1}, "interpolation": 2}]}, "anchor": 0, "reader": {"duration": 86400.0, "type": "QtImageReader", "file_size": "8294400", "has_single_image": true, "sample_rate": 0, "pixel_ratio": {"den": 1, "num": 1}, "video_length": "2592000", "channel_layout": 4, "interlaced_frame": false, "vcodec": "", "has_video": true, "has_audio": false, "video_stream_index": -1, "audio_stream_index": -1, "fps": {"den": 1, "num": 30}, "display_ratio": {"den": 9, "num": 16}, "channels": 0, "audio_bit_rate": 0, "video_timebase": {"den": 30, "num": 1}, "top_field_first": true, "pixel_format": -1, "height": 1080, "width": 1920, "acodec": "", "audio_timebase": {"den": 1, "num": 1}, "video_bit_rate": 0, "path": "/home/milind/Data/Projects/ProgressCard/!000-White-Background.svg"}, "gravity": 4, "channel_mapping": {"Points": [{"co": {"X": 1, "Y": -1}, "interpolation": 2}]}, "scale_x": {"Points": [{"co": {"X": 1, "Y": 1}, "interpolation": 2}]}, "start": 0, "shear_y": {"Points": [{"co": {"X": 1, "Y": 0}, "interpolation": 2}]}, "display": 0, "perspective_c1_y": {"Points": [{"co": {"X": 1, "Y": -1}, "interpolation": 2}]}, "position": 69.6, "crop_y": {"Points": [{"co": {"X": 1, "Y": 0}, "interpolation": 2}]}, "crop_width": {"Points": [{"co": {"X": 1, "Y": -1}, "interpolation": 2}]}, "title": "!000-White-Background.svg", "layer": 0, "location_x": {"Points": [{"co": {"X": 1, "Y": 0}, "interpolation": 2}]}, "shear_x": {"Points": [{"co": {"X": 1, "Y": 0}, "interpolation": 2}]}, "channel_filter": {"Points": [{"co": {"X": 1, "Y": -1}, "interpolation": 2}]}, "location_y": {"Points": [{"co": {"X": 1, "Y": 0}, "interpolation": 2}]}, "perspective_c1_x": {"Points": [{"co": {"X": 1, "Y": -1}, "interpolation": 2}]}, "id": "LXT5Z6HT9Y", "perspective_c3_y": {"Points": [{"co": {"X": 1, "Y": -1}, "interpolation": 2}]}, "perspective_c4_y": {"Points": [{"co": {"X": 1, "Y": -1}, "interpolation": 2}]}, "wave_color": {"blue": {"Points": [{"handle_type": 0, "handle_right": {"X": 0.5, "Y": 0}, "interpolation": 0, "co": {"X": 1, "Y": 255}, "handle_left": {"X": 0.5, "Y": 1}}]}, "red": {"Points": [{"handle_type": 0, "handle_right": {"X": 0.5, "Y": 0}, "interpolation": 0, "co": {"X": 1, "Y": 0}, "handle_left": {"X": 0.5, "Y": 1}}]}, "alpha": {"Points": [{"handle_type": 0, "handle_right": {"X": 0.5, "Y": 0}, "interpolation": 0, "co": {"X": 1, "Y": 255}, "handle_left": {"X": 0.5, "Y": 1}}]}, "green": {"Points": [{"handle_type": 0, "handle_right": {"X": 0.5, "Y": 0}, "interpolation": 0, "co": {"X": 1, "Y": 123}, "handle_left": {"X": 0.5, "Y": 1}}]}}, "perspective_c4_x": {"Points": [{"co": {"X": 1, "Y": -1}, "interpolation": 2}]}}, {"perspective_c3_x": {"Points": [{"co": {"X": 1, "Y": -1}, "interpolation": 2}]}, "duration": 86400.0, "perspective_c2_y": {"Points": [{"co": {"X": 1, "Y": -1}, "interpolation": 2}]}, "alpha": {"Points": [{"co": {"X": 1, "Y": 1}, "interpolation": 2}]}, "file_id": "W3X0DXJTS6", "end": 30, "scale_y": {"Points": [{"co": {"X": 1, "Y": 1}, "interpolation": 2}]}, "time": {"Points": [{"co": {"X": 1, "Y": 1}, "interpolation": 2}]}, "volume": {"Points": [{"co": {"X": 1, "Y": 1}, "interpolation": 2}]}, "crop_height": {"Points": [{"co": {"X": 1, "Y": -1}, "interpolation": 2}]}, "effects": [], "rotation": {"Points": [{"co": {"X": 1, "Y": 0}, "interpolation": 2}]}, "image": "/home/milind/.openshot_qt/thumbnail/W3X0DXJTS6.png", "crop_x": {"Points": [{"co": {"X": 1, "Y": 0}, "interpolation": 2}]}, "perspective_c2_x": {"Points": [{"co": {"X": 1, "Y": -1}, "interpolation": 2}]}, "scale": 1, "waveform": false, "has_video": {"Points": [{"co": {"X": 1, "Y": -1}, "interpolation": 2}]}, "has_audio": {"Points": [{"co": {"X": 1, "Y": -1}, "interpolation": 2}]}, "anchor": 0, "reader": {"duration": 86400.0, "type": "QtImageReader", "file_size": "8294400", "has_single_image": true, "sample_rate": 0, "pixel_ratio": {"den": 1, "num": 1}, "video_length": "2592000", "channel_layout": 4, "interlaced_frame": false, "vcodec": "", "has_video": true, "has_audio": false, "video_stream_index": -1, "audio_stream_index": -1, "fps": {"den": 1, "num": 30}, "display_ratio": {"den": 9, "num": 16}, "channels": 0, "audio_bit_rate": 0, "video_timebase": {"den": 30, "num": 1}, "top_field_first": true, "pixel_format": -1, "height": 1080, "width": 1920, "acodec": "", "audio_timebase": {"den": 1, "num": 1}, "video_bit_rate": 0, "path": "/home/milind/Data/Projects/ProgressCard/!000-White-Background.svg"}, "gravity": 4, "channel_mapping": {"Points": [{"co": {"X": 1, "Y": -1}, "interpolation": 2}]}, "scale_x": {"Points": [{"co": {"X": 1, "Y": 1}, "interpolation": 2}]}, "start": 0, "shear_y": {"Points": [{"co": {"X": 1, "Y": 0}, "interpolation": 2}]}, "display": 0, "perspective_c1_y": {"Points": [{"co": {"X": 1, "Y": -1}, "interpolation": 2}]}, "position": 83.84, "crop_y": {"Points": [{"co": {"X": 1, "Y": 0}, "interpolation": 2}]}, "crop_width": {"Points": [{"co": {"X": 1, "Y": -1}, "interpolation": 2}]}, "title": "!000-White-Background.svg", "layer": 0, "location_x": {"Points": [{"co": {"X": 1, "Y": 0}, "interpolation": 2}]}, "shear_x": {"Points": [{"co": {"X": 1, "Y": 0}, "interpolation": 2}]}, "channel_filter": {"Points": [{"co": {"X": 1, "Y": -1}, "interpolation": 2}]}, "location_y": {"Points": [{"co": {"X": 1, "Y": 0}, "interpolation": 2}]}, "perspective_c1_x": {"Points": [{"co": {"X": 1, "Y": -1}, "interpolation": 2}]}, "id": "9IXB0K5KG8", "perspective_c3_y": {"Points": [{"co": {"X": 1, "Y": -1}, "interpolation": 2}]}, "perspective_c4_y": {"Points": [{"co": {"X": 1, "Y": -1}, "interpolation": 2}]}, "wave_color": {"blue": {"Points": [{"handle_type": 0, "handle_right": {"X": 0.5, "Y": 0}, "interpolation": 0, "co": {"X": 1, "Y": 255}, "handle_left": {"X": 0.5, "Y": 1}}]}, "red": {"Points": [{"handle_type": 0, "handle_right": {"X": 0.5, "Y": 0}, "interpolation": 0, "co": {"X": 1, "Y": 0}, "handle_left": {"X": 0.5, "Y": 1}}]}, "alpha": {"Points": [{"handle_type": 0, "handle_right": {"X": 0.5, "Y": 0}, "interpolation": 0, "co": {"X": 1, "Y": 255}, "handle_left": {"X": 0.5, "Y": 1}}]}, "green": {"Points": [{"handle_type": 0, "handle_right": {"X": 0.5, "Y": 0}, "interpolation": 0, "co": {"X": 1, "Y": 123}, "handle_left": {"X": 0.5, "Y": 1}}]}}, "perspective_c4_x": {"Points": [{"co": {"X": 1, "Y": -1}, "interpolation": 2}]}}, {"perspective_c3_x": {"Points": [{"co": {"X": 1, "Y": -1}, "interpolation": 2}]}, "duration": 88.0, "perspective_c2_y": {"Points": [{"co": {"X": 1, "Y": -1}, "interpolation": 2}]}, "alpha": {"Points": [{"handle_type": 0, "handle_right": {"X": 0.5, "Y": 0}, "interpolation": 0, "co": {"X": 1, "Y": 1}, "handle_left": {"X": 0.5, "Y": 1}}, {"handle_type": 0, "handle_right": {"X": 0.5, "Y": 0}, "interpolation": 0, "co": {"X": 5, "Y": 0}, "handle_left": {"X": 0.5, "Y": 1}}, {"handle_type": 0, "handle_right": {"X": 0.5, "Y": 0}, "interpolation": 0, "co": {"X": 77, "Y": 1}, "handle_left": {"X": 0.5, "Y": 1}}, {"handle_type": 0, "handle_right": {"X": 0.5, "Y": 0}, "interpolation": 0, "co": {"X": 507, "Y": 1}, "handle_left": {"X": 0.5, "Y": 1}}, {"handle_type": 0, "handle_right": {"X": 0.5, "Y": 0}, "interpolation": 0, "co": {"X": 579, "Y": 0}, "handle_left": {"X": 0.5, "Y": 1}}]}, "file_id": "COTVKCWUJG", "channel_mapping": {"Points": [{"co": {"X": 1, "Y": -1}, "interpolation": 2}]}, "scale_y": {"Points": [{"co": {"X": 1, "Y": 1}, "interpolation": 2}]}, "time": {"Points": [{"co": {"X": 1, "Y": 1}, "interpolation": 2}]}, "volume": {"Points": [{"co": {"X": 1, "Y": 1}, "interpolation": 2}]}, "crop_height": {"Points": [{"co": {"X": 1, "Y": -1}, "interpolation": 2}]}, "effects": [], "rotation": {"Points": [{"co": {"X": 1, "Y": 0}, "interpolation": 2}]}, "image": "/home/milind/.openshot_qt/thumbnail/VZXSCOZTB9-6.png", "crop_x": {"Points": [{"co": {"X": 1, "Y": 0}, "interpolation": 2}]}, "perspective_c2_x": {"Points": [{"co": {"X": 1, "Y": -1}, "interpolation": 2}]}, "scale": 1, "waveform": false, "has_video": {"Points": [{"co": {"X": 1, "Y": -1}, "interpolation": 2}]}, "has_audio": {"Points": [{"co": {"X": 1, "Y": -1}, "interpolation": 2}]}, "anchor": 0, "reader": {"duration": 88.0, "type": "FFmpegReader", "file_size": "1030797", "has_single_image": false, "sample_rate": 0, "pixel_ratio": {"den": 1, "num": 1}, "video_length": "2200", "channel_layout": 4, "interlaced_frame": false, "vcodec": "h264", "has_video": true, "has_audio": false, "video_stream_index": 0, "audio_stream_index": -1, "fps": {"den": 1, "num": 25}, "display_ratio": {"den": 384, "num": 683}, "channels": 0, "audio_bit_rate": 0, "video_timebase": {"den": 1000, "num": 1}, "top_field_first": true, "pixel_format": 0, "height": 768, "width": 1366, "acodec": "", "audio_timebase": {"den": 1, "num": 1}, "video_bit_rate": 92739, "path": "/home/milind/Data/Projects/ProgressCard/!190-Drag and Drop Fields.mkv"}, "gravity": 4, "end": 24.101666666666674, "scale_x": {"Points": [{"co": {"X": 1, "Y": 1}, "interpolation": 2}]}, "start": 0.18166666666667197, "shear_y": {"Points": [{"co": {"X": 1, "Y": 0}, "interpolation": 2}]}, "display": 0, "perspective_c1_y": {"Points": [{"co": {"X": 1, "Y": -1}, "interpolation": 2}]}, "position": 104.455, "crop_y": {"Points": [{"co": {"X": 1, "Y": 0}, "interpolation": 2}]}, "crop_width": {"Points": [{"co": {"X": 1, "Y": -1}, "interpolation": 2}]}, "title": "!190-Drag and Drop Fields.mkv", "layer": 2, "location_x": {"Points": [{"co": {"X": 1, "Y": 0}, "interpolation": 2}]}, "shear_x": {"Points": [{"co": {"X": 1, "Y": 0}, "interpolation": 2}]}, "channel_filter": {"Points": [{"co": {"X": 1, "Y": -1}, "interpolation": 2}]}, "location_y": {"Points": [{"co": {"X": 1, "Y": 0}, "interpolation": 2}]}, "perspective_c1_x": {"Points": [{"co": {"X": 1, "Y": -1}, "interpolation": 2}]}, "id": "VZXSCOZTB9", "perspective_c3_y": {"Points": [{"co": {"X": 1, "Y": -1}, "interpolation": 2}]}, "perspective_c4_y": {"Points": [{"co": {"X": 1, "Y": -1}, "interpolation": 2}]}, "wave_color": {"blue": {"Points": [{"handle_type": 0, "handle_right": {"X": 0.5, "Y": 0}, "interpolation": 0, "co": {"X": 1, "Y": 255}, "handle_left": {"X": 0.5, "Y": 1}}]}, "red": {"Points": [{"handle_type": 0, "handle_right": {"X": 0.5, "Y": 0}, "interpolation": 0, "co": {"X": 1, "Y": 0}, "handle_left": {"X": 0.5, "Y": 1}}]}, "alpha": {"Points": [{"handle_type": 0, "handle_right": {"X": 0.5, "Y": 0}, "interpolation": 0, "co": {"X": 1, "Y": 255}, "handle_left": {"X": 0.5, "Y": 1}}]}, "green": {"Points": [{"handle_type": 0, "handle_right": {"X": 0.5, "Y": 0}, "interpolation": 0, "co": {"X": 1, "Y": 123}, "handle_left": {"X": 0.5, "Y": 1}}]}}, "perspective_c4_x": {"Points": [{"co": {"X": 1, "Y": -1}, "interpolation": 2}]}}, {"perspective_c3_x": {"Points": [{"co": {"X": 1, "Y": -1}, "interpolation": 2}]}, "duration": 44.0, "perspective_c2_y": {"Points": [{"co": {"X": 1, "Y": -1}, "interpolation": 2}]}, "alpha": {"Points": [{"co": {"X": 1, "Y": 1}, "interpolation": 2}]}, "file_id": "DFFNSBTF3B", "end": 18.834999999999994, "scale_y": {"Points": [{"co": {"X": 1, "Y": 1}, "interpolation": 2}]}, "time": {"Points": [{"co": {"X": 1, "Y": 1}, "interpolation": 2}]}, "volume": {"Points": [{"co": {"X": 1, "Y": 1}, "interpolation": 2}]}, "crop_height": {"Points": [{"co": {"X": 1, "Y": -1}, "interpolation": 2}]}, "effects": [], "rotation": {"Points": [{"co": {"X": 1, "Y": 0}, "interpolation": 2}]}, "image": "/home/milind/.openshot_qt/thumbnail/DFFNSBTF3B.png", "crop_x": {"Points": [{"co": {"X": 1, "Y": 0}, "interpolation": 2}]}, "perspective_c2_x": {"Points": [{"co": {"X": 1, "Y": -1}, "interpolation": 2}]}, "scale": 1, "waveform": false, "has_video": {"Points": [{"co": {"X": 1, "Y": -1}, "interpolation": 2}]}, "has_audio": {"Points": [{"co": {"X": 1, "Y": -1}, "interpolation": 2}]}, "anchor": 0, "reader": {"duration": 44.0, "type": "FFmpegReader", "file_size": "397466", "has_single_image": false, "sample_rate": 0, "pixel_ratio": {"den": 1, "num": 1}, "video_length": "1100", "channel_layout": 4, "interlaced_frame": false, "vcodec": "h264", "has_video": true, "has_audio": false, "video_stream_index": 0, "audio_stream_index": -1, "fps": {"den": 1, "num": 25}, "display_ratio": {"den": 384, "num": 683}, "channels": 0, "audio_bit_rate": 0, "video_timebase": {"den": 1000, "num": 1}, "top_field_first": true, "pixel_format": 0, "height": 768, "width": 1366, "acodec": "", "audio_timebase": {"den": 1, "num": 1}, "video_bit_rate": 71551, "path": "/home/milind/Data/Projects/ProgressCard/!180-Menu - View - Data Source.mkv"}, "gravity": 4, "channel_mapping": {"Points": [{"co": {"X": 1, "Y": -1}, "interpolation": 2}]}, "scale_x": {"Points": [{"co": {"X": 1, "Y": 1}, "interpolation": 2}]}, "start": 0, "shear_y": {"Points": [{"co": {"X": 1, "Y": 0}, "interpolation": 2}]}, "display": 0, "perspective_c1_y": {"Points": [{"co": {"X": 1, "Y": -1}, "interpolation": 2}]}, "position": 87.54, "crop_y": {"Points": [{"co": {"X": 1, "Y": 0}, "interpolation": 2}]}, "crop_width": {"Points": [{"co": {"X": 1, "Y": -1}, "interpolation": 2}]}, "title": "!180-Menu - View - Data Source.mkv", "layer": 1, "location_x": {"Points": [{"co": {"X": 1, "Y": 0}, "interpolation": 2}]}, "shear_x": {"Points": [{"co": {"X": 1, "Y": 0}, "interpolation": 2}]}, "channel_filter": {"Points": [{"co": {"X": 1, "Y": -1}, "interpolation": 2}]}, "location_y": {"Points": [{"co": {"X": 1, "Y": 0}, "interpolation": 2}]}, "perspective_c1_x": {"Points": [{"co": {"X": 1, "Y": -1}, "interpolation": 2}]}, "id": "B34M6K3U75", "perspective_c3_y": {"Points": [{"co": {"X": 1, "Y": -1}, "interpolation": 2}]}, "perspective_c4_y": {"Points": [{"co": {"X": 1, "Y": -1}, "interpolation": 2}]}, "wave_color": {"blue": {"Points": [{"handle_type": 0, "handle_right": {"X": 0.5, "Y": 0}, "interpolation": 0, "co": {"X": 1, "Y": 255}, "handle_left": {"X": 0.5, "Y": 1}}]}, "red": {"Points": [{"handle_type": 0, "handle_right": {"X": 0.5, "Y": 0}, "interpolation": 0, "co": {"X": 1, "Y": 0}, "handle_left": {"X": 0.5, "Y": 1}}]}, "alpha": {"Points": [{"handle_type": 0, "handle_right": {"X": 0.5, "Y": 0}, "interpolation": 0, "co": {"X": 1, "Y": 255}, "handle_left": {"X": 0.5, "Y": 1}}]}, "green": {"Points": [{"handle_type": 0, "handle_right": {"X": 0.5, "Y": 0}, "interpolation": 0, "co": {"X": 1, "Y": 123}, "handle_left": {"X": 0.5, "Y": 1}}]}}, "perspective_c4_x": {"Points": [{"co": {"X": 1, "Y": -1}, "interpolation": 2}]}}, {"perspective_c3_x": {"Points": [{"co": {"X": 1, "Y": -1}, "interpolation": 2}]}, "duration": 73.0, "perspective_c2_y": {"Points": [{"co": {"X": 1, "Y": -1}, "interpolation": 2}]}, "alpha": {"Points": [{"co": {"X": 1, "Y": 1}, "interpolation": 2}, {"handle_type": 0, "handle_right": {"X": 0.5, "Y": 0}, "interpolation": 0, "co": {"X": 35, "Y": 0}, "handle_left": {"X": 0.5, "Y": 1}}, {"handle_type": 0, "handle_right": {"X": 0.5, "Y": 0}, "interpolation": 0, "co": {"X": 107, "Y": 1}, "handle_left": {"X": 0.5, "Y": 1}}, {"handle_type": 0, "handle_right": {"X": 0.5, "Y": 0}, "interpolation": 0, "co": {"X": 1615, "Y": 1}, "handle_left": {"X": 0.5, "Y": 1}}, {"handle_type": 0, "handle_right": {"X": 0.5, "Y": 0}, "interpolation": 0, "co": {"X": 1687, "Y": 0}, "handle_left": {"X": 0.5, "Y": 1}}]}, "file_id": "ZA6B1EO0P9", "end": 70.23583333333332, "scale_y": {"Points": [{"co": {"X": 1, "Y": 1}, "interpolation": 2}]}, "time": {"Points": [{"co": {"X": 1, "Y": 1}, "interpolation": 2}]}, "volume": {"Points": [{"co": {"X": 1, "Y": 1}, "interpolation": 2}]}, "crop_height": {"Points": [{"co": {"X": 1, "Y": -1}, "interpolation": 2}]}, "effects": [], "rotation": {"Points": [{"co": {"X": 1, "Y": 0}, "interpolation": 2}]}, "image": "/home/milind/.openshot_qt/thumbnail/QAPN62UTJA-37.png", "crop_x": {"Points": [{"co": {"X": 1, "Y": 0}, "interpolation": 2}]}, "perspective_c2_x": {"Points": [{"co": {"X": 1, "Y": -1}, "interpolation": 2}]}, "scale": 1, "waveform": false, "has_video": {"Points": [{"co": {"X": 1, "Y": -1}, "interpolation": 2}]}, "has_audio": {"Points": [{"co": {"X": 1, "Y": -1}, "interpolation": 2}]}, "anchor": 0, "reader": {"duration": 73.0, "type": "FFmpegReader", "file_size": "953170", "has_single_image": false, "sample_rate": 0, "pixel_ratio": {"den": 1, "num": 1}, "video_length": "1825", "channel_layout": 4, "interlaced_frame": false, "vcodec": "h264", "has_video": true, "has_audio": false, "video_stream_index": 0, "audio_stream_index": -1, "fps": {"den": 1, "num": 25}, "display_ratio": {"den": 384, "num": 683}, "channels": 0, "audio_bit_rate": 0, "video_timebase": {"den": 1000, "num": 1}, "top_field_first": true, "pixel_format": 0, "height": 768, "width": 1366, "acodec": "", "audio_timebase": {"den": 1, "num": 1}, "video_bit_rate": 103492, "path": "/home/milind/Data/Projects/ProgressCard/!200-Print Progress Cards As PDF.mkv"}, "gravity": 4, "channel_mapping": {"Points": [{"co": {"X": 1, "Y": -1}, "interpolation": 2}]}, "scale_x": {"Points": [{"co": {"X": 1, "Y": 1}, "interpolation": 2}]}, "shear_y": {"Points": [{"co": {"X": 1, "Y": 0}, "interpolation": 2}]}, "display": 0, "perspective_c1_y": {"Points": [{"co": {"X": 1, "Y": -1}, "interpolation": 2}]}, "position": 128.375, "crop_y": {"Points": [{"co": {"X": 1, "Y": 0}, "interpolation": 2}]}, "crop_width": {"Points": [{"co": {"X": 1, "Y": -1}, "interpolation": 2}]}, "title": "!200-Print Progress Cards As PDF.mkv", "layer": 1, "location_x": {"Points": [{"co": {"X": 1, "Y": 0}, "interpolation": 2}]}, "shear_x": {"Points": [{"co": {"X": 1, "Y": 0}, "interpolation": 2}]}, "channel_filter": {"Points": [{"co": {"X": 1, "Y": -1}, "interpolation": 2}]}, "perspective_c3_y": {"Points": [{"co": {"X": 1, "Y": -1}, "interpolation": 2}]}, "location_y": {"Points": [{"co": {"X": 1, "Y": 0}, "interpolation": 2}]}, "perspective_c1_x": {"Points": [{"co": {"X": 1, "Y": -1}, "interpolation": 2}]}, "id": "QAPN62UTJA", "start": 1.4250000000000114, "perspective_c4_y": {"Points": [{"co": {"X": 1, "Y": -1}, "interpolation": 2}]}, "wave_color": {"blue": {"Points": [{"handle_type": 0, "handle_right": {"X": 0.5, "Y": 0}, "interpolation": 0, "co": {"X": 1, "Y": 255}, "handle_left": {"X": 0.5, "Y": 1}}]}, "red": {"Points": [{"handle_type": 0, "handle_right": {"X": 0.5, "Y": 0}, "interpolation": 0, "co": {"X": 1, "Y": 0}, "handle_left": {"X": 0.5, "Y": 1}}]}, "alpha": {"Points": [{"handle_type": 0, "handle_right": {"X": 0.5, "Y": 0}, "interpolation": 0, "co": {"X": 1, "Y": 255}, "handle_left": {"X": 0.5, "Y": 1}}]}, "green": {"Points": [{"handle_type": 0, "handle_right": {"X": 0.5, "Y": 0}, "interpolation": 0, "co": {"X": 1, "Y": 123}, "handle_left": {"X": 0.5, "Y": 1}}]}}, "perspective_c4_x": {"Points": [{"co": {"X": 1, "Y": -1}, "interpolation": 2}]}}, {"perspective_c3_x": {"Points": [{"co": {"X": 1, "Y": -1}, "interpolation": 2}]}, "duration": 86400.0, "perspective_c2_y": {"Points": [{"co": {"X": 1, "Y": -1}, "interpolation": 2}]}, "alpha": {"Points": [{"handle_type": 0, "handle_right": {"X": 0.5, "Y": 0}, "interpolation": 0, "co": {"X": 1, "Y": 1}, "handle_left": {"X": 0.5, "Y": 1}}, {"handle_type": 0, "handle_right": {"X": 0.5, "Y": 0}, "interpolation": 0, "co": {"X": 1, "Y": 0}, "handle_left": {"X": 0.5, "Y": 1}}, {"handle_type": 0, "handle_right": {"X": 0.5, "Y": 0}, "interpolation": 0, "co": {"X": 73, "Y": 1}, "handle_left": {"X": 0.5, "Y": 1}}, {"handle_type": 0, "handle_right": {"X": 0.5, "Y": 0}, "interpolation": 0, "co": {"X": 169, "Y": 1}, "handle_left": {"X": 0.5, "Y": 1}}, {"handle_type": 0, "handle_right": {"X": 0.5, "Y": 0}, "interpolation": 0, "co": {"X": 241, "Y": 0}, "handle_left": {"X": 0.5, "Y": 1}}]}, "file_id": "W3X0DXJTS6", "end": 10, "scale_y": {"Points": [{"co": {"X": 1, "Y": 1}, "interpolation": 2}]}, "time": {"Points": [{"co": {"X": 1, "Y": 1}, "interpolation": 2}]}, "volume": {"Points": [{"co": {"X": 1, "Y": 1}, "interpolation": 2}]}, "crop_height": {"Points": [{"co": {"X": 1, "Y": -1}, "interpolation": 2}]}, "effects": [], "rotation": {"Points": [{"co": {"X": 1, "Y": 0}, "interpolation": 2}]}, "image": "/home/milind/.openshot_qt/thumbnail/W3X0DXJTS6.png", "crop_x": {"Points": [{"co": {"X": 1, "Y": 0}, "interpolation": 2}]}, "perspective_c2_x": {"Points": [{"co": {"X": 1, "Y": -1}, "interpolation": 2}]}, "scale": 1, "waveform": false, "has_video": {"Points": [{"co": {"X": 1, "Y": -1}, "interpolation": 2}]}, "has_audio": {"Points": [{"co": {"X": 1, "Y": -1}, "interpolation": 2}]}, "anchor": 0, "reader": {"duration": 86400.0, "type": "QtImageReader", "file_size": "8294400", "has_single_image": true, "sample_rate": 0, "pixel_ratio": {"den": 1, "num": 1}, "video_length": "2592000", "channel_layout": 4, "interlaced_frame": false, "vcodec": "", "has_video": true, "has_audio": false, "video_stream_index": -1, "audio_stream_index": -1, "fps": {"den": 1, "num": 30}, "display_ratio": {"den": 9, "num": 16}, "channels": 0, "audio_bit_rate": 0, "video_timebase": {"den": 30, "num": 1}, "top_field_first": true, "pixel_format": -1, "height": 1080, "width": 1920, "acodec": "", "audio_timebase": {"den": 1, "num": 1}, "video_bit_rate": 0, "path": "/home/milind/Data/Projects/ProgressCard/!000-White-Background.svg"}, "gravity": 4, "channel_mapping": {"Points": [{"co": {"X": 1, "Y": -1}, "interpolation": 2}]}, "scale_x": {"Points": [{"co": {"X": 1, "Y": 1}, "interpolation": 2}]}, "shear_y": {"Points": [{"co": {"X": 1, "Y": 0}, "interpolation": 2}]}, "display": 0, "perspective_c1_y": {"Points": [{"co": {"X": 1, "Y": -1}, "interpolation": 2}]}, "position": 125.76, "crop_y": {"Points": [{"co": {"X": 1, "Y": 0}, "interpolation": 2}]}, "crop_width": {"Points": [{"co": {"X": 1, "Y": -1}, "interpolation": 2}]}, "title": "!000-White-Background.svg", "layer": 0, "location_x": {"Points": [{"co": {"X": 1, "Y": 0}, "interpolation": 2}]}, "shear_x": {"Points": [{"co": {"X": 1, "Y": 0}, "interpolation": 2}]}, "channel_filter": {"Points": [{"co": {"X": 1, "Y": -1}, "interpolation": 2}]}, "perspective_c3_y": {"Points": [{"co": {"X": 1, "Y": -1}, "interpolation": 2}]}, "location_y": {"Points": [{"co": {"X": 1, "Y": 0}, "interpolation": 2}]}, "perspective_c1_x": {"Points": [{"co": {"X": 1, "Y": -1}, "interpolation": 2}]}, "id": "9FAVO93TA3", "start": 0, "perspective_c4_y": {"Points": [{"co": {"X": 1, "Y": -1}, "interpolation": 2}]}, "wave_color": {"blue": {"Points": [{"handle_type": 0, "handle_right": {"X": 0.5, "Y": 0}, "interpolation": 0, "co": {"X": 1, "Y": 255}, "handle_left": {"X": 0.5, "Y": 1}}]}, "red": {"Points": [{"handle_type": 0, "handle_right": {"X": 0.5, "Y": 0}, "interpolation": 0, "co": {"X": 1, "Y": 0}, "handle_left": {"X": 0.5, "Y": 1}}]}, "alpha": {"Points": [{"handle_type": 0, "handle_right": {"X": 0.5, "Y": 0}, "interpolation": 0, "co": {"X": 1, "Y": 255}, "handle_left": {"X": 0.5, "Y": 1}}]}, "green": {"Points": [{"handle_type": 0, "handle_right": {"X": 0.5, "Y": 0}, "interpolation": 0, "co": {"X": 1, "Y": 123}, "handle_left": {"X": 0.5, "Y": 1}}]}}, "perspective_c4_x": {"Points": [{"co": {"X": 1, "Y": -1}, "interpolation": 2}]}}, {"perspective_c3_x": {"Points": [{"co": {"X": 1, "Y": -1}, "interpolation": 2}]}, "duration": 13.0, "perspective_c2_y": {"Points": [{"co": {"X": 1, "Y": -1}, "interpolation": 2}]}, "alpha": {"Points": [{"co": {"X": 1, "Y": 1}, "interpolation": 2}, {"handle_type": 0, "handle_right": {"X": 0.5, "Y": 0}, "interpolation": 0, "co": {"X": 1, "Y": 0}, "handle_left": {"X": 0.5, "Y": 1}}, {"handle_type": 0, "handle_right": {"X": 0.5, "Y": 0}, "interpolation": 0, "co": {"X": 73, "Y": 1}, "handle_left": {"X": 0.5, "Y": 1}}, {"handle_type": 0, "handle_right": {"X": 0.5, "Y": 0}, "interpolation": 0, "co": {"X": 241, "Y": 1}, "handle_left": {"X": 0.5, "Y": 1}}, {"handle_type": 0, "handle_right": {"X": 0.5, "Y": 0}, "interpolation": 0, "co": {"X": 313, "Y": 0}, "handle_left": {"X": 0.5, "Y": 1}}]}, "file_id": "CRFW36HQE1", "end": 13, "scale_y": {"Points": [{"co": {"X": 1, "Y": 1}, "interpolation": 2}]}, "time": {"Points": [{"co": {"X": 1, "Y": 1}, "interpolation": 2}]}, "volume": {"Points": [{"co": {"X": 1, "Y": 1}, "interpolation": 2}]}, "crop_height": {"Points": [{"co": {"X": 1, "Y": -1}, "interpolation": 2}]}, "effects": [], "rotation": {"Points": [{"co": {"X": 1, "Y": 0}, "interpolation": 2}]}, "image": "/home/milind/.openshot_qt/thumbnail/CRFW36HQE1.png", "crop_x": {"Points": [{"co": {"X": 1, "Y": 0}, "interpolation": 2}]}, "perspective_c2_x": {"Points": [{"co": {"X": 1, "Y": -1}, "interpolation": 2}]}, "scale": 1, "waveform": false, "has_video": {"Points": [{"co": {"X": 1, "Y": -1}, "interpolation": 2}]}, "has_audio": {"Points": [{"co": {"X": 1, "Y": -1}, "interpolation": 2}]}, "anchor": 0, "reader": {"duration": 13.0, "type": "FFmpegReader", "file_size": "141113", "has_single_image": false, "sample_rate": 0, "pixel_ratio": {"den": 1, "num": 1}, "video_length": "325", "channel_layout": 4, "interlaced_frame": false, "vcodec": "h264", "has_video": true, "has_audio": false, "video_stream_index": 0, "audio_stream_index": -1, "fps": {"den": 1, "num": 25}, "display_ratio": {"den": 186, "num": 325}, "channels": 0, "audio_bit_rate": 0, "video_timebase": {"den": 1000, "num": 1}, "top_field_first": true, "pixel_format": 0, "height": 744, "width": 1300, "acodec": "", "audio_timebase": {"den": 1, "num": 1}, "video_bit_rate": 82764, "path": "/home/milind/Data/Projects/ProgressCard/!210-Result Archive.mkv"}, "gravity": 4, "channel_mapping": {"Points": [{"co": {"X": 1, "Y": -1}, "interpolation": 2}]}, "scale_x": {"Points": [{"co": {"X": 1, "Y": 1}, "interpolation": 2}]}, "shear_y": {"Points": [{"co": {"X": 1, "Y": 0}, "interpolation": 2}]}, "display": 0, "perspective_c1_y": {"Points": [{"co": {"X": 1, "Y": -1}, "interpolation": 2}]}, "position": 197.18583333333333, "crop_y": {"Points": [{"co": {"X": 1, "Y": 0}, "interpolation": 2}]}, "crop_width": {"Points": [{"co": {"X": 1, "Y": -1}, "interpolation": 2}]}, "title": "!210-Result Archive.mkv", "layer": 1, "location_x": {"Points": [{"co": {"X": 1, "Y": 0}, "interpolation": 2}]}, "shear_x": {"Points": [{"co": {"X": 1, "Y": 0}, "interpolation": 2}]}, "channel_filter": {"Points": [{"co": {"X": 1, "Y": -1}, "interpolation": 2}]}, "perspective_c3_y": {"Points": [{"co": {"X": 1, "Y": -1}, "interpolation": 2}]}, "location_y": {"Points": [{"co": {"X": 1, "Y": 0}, "interpolation": 2}]}, "perspective_c1_x": {"Points": [{"co": {"X": 1, "Y": -1}, "interpolation": 2}]}, "id": "422LHJU74E", "start": 0, "perspective_c4_y": {"Points": [{"co": {"X": 1, "Y": -1}, "interpolation": 2}]}, "wave_color": {"blue": {"Points": [{"handle_type": 0, "handle_right": {"X": 0.5, "Y": 0}, "interpolation": 0, "co": {"X": 1, "Y": 255}, "handle_left": {"X": 0.5, "Y": 1}}]}, "red": {"Points": [{"handle_type": 0, "handle_right": {"X": 0.5, "Y": 0}, "interpolation": 0, "co": {"X": 1, "Y": 0}, "handle_left": {"X": 0.5, "Y": 1}}]}, "alpha": {"Points": [{"handle_type": 0, "handle_right": {"X": 0.5, "Y": 0}, "interpolation": 0, "co": {"X": 1, "Y": 255}, "handle_left": {"X": 0.5, "Y": 1}}]}, "green": {"Points": [{"handle_type": 0, "handle_right": {"X": 0.5, "Y": 0}, "interpolation": 0, "co": {"X": 1, "Y": 123}, "handle_left": {"X": 0.5, "Y": 1}}]}}, "perspective_c4_x": {"Points": [{"co": {"X": 1, "Y": -1}, "interpolation": 2}]}}, {"perspective_c3_x": {"Points": [{"co": {"X": 1, "Y": -1}, "interpolation": 2}]}, "duration": 86400.0, "perspective_c2_y": {"Points": [{"co": {"X": 1, "Y": -1}, "interpolation": 2}]}, "alpha": {"Points": [{"co": {"X": 1, "Y": 1}, "interpolation": 2}]}, "file_id": "W3X0DXJTS6", "end": 10, "scale_y": {"Points": [{"co": {"X": 1, "Y": 1}, "interpolation": 2}]}, "time": {"Points": [{"co": {"X": 1, "Y": 1}, "interpolation": 2}]}, "volume": {"Points": [{"co": {"X": 1, "Y": 1}, "interpolation": 2}]}, "crop_height": {"Points": [{"co": {"X": 1, "Y": -1}, "interpolation": 2}]}, "effects": [], "rotation": {"Points": [{"co": {"X": 1, "Y": 0}, "interpolation": 2}]}, "image": "/home/milind/.openshot_qt/thumbnail/W3X0DXJTS6.png", "crop_x": {"Points": [{"co": {"X": 1, "Y": 0}, "interpolation": 2}]}, "perspective_c2_x": {"Points": [{"co": {"X": 1, "Y": -1}, "interpolation": 2}]}, "scale": 1, "waveform": false, "has_video": {"Points": [{"co": {"X": 1, "Y": -1}, "interpolation": 2}]}, "has_audio": {"Points": [{"co": {"X": 1, "Y": -1}, "interpolation": 2}]}, "anchor": 0, "reader": {"duration": 86400.0, "type": "QtImageReader", "file_size": "8294400", "has_single_image": true, "sample_rate": 0, "pixel_ratio": {"den": 1, "num": 1}, "video_length": "2592000", "channel_layout": 4, "interlaced_frame": false, "vcodec": "", "has_video": true, "has_audio": false, "video_stream_index": -1, "audio_stream_index": -1, "fps": {"den": 1, "num": 30}, "display_ratio": {"den": 9, "num": 16}, "channels": 0, "audio_bit_rate": 0, "video_timebase": {"den": 30, "num": 1}, "top_field_first": true, "pixel_format": -1, "height": 1080, "width": 1920, "acodec": "", "audio_timebase": {"den": 1, "num": 1}, "video_bit_rate": 0, "path": "/home/milind/Data/Projects/ProgressCard/!000-White-Background.svg"}, "gravity": 4, "channel_mapping": {"Points": [{"co": {"X": 1, "Y": -1}, "interpolation": 2}]}, "scale_x": {"Points": [{"co": {"X": 1, "Y": 1}, "interpolation": 2}]}, "shear_y": {"Points": [{"co": {"X": 1, "Y": 0}, "interpolation": 2}]}, "display": 0, "perspective_c1_y": {"Points": [{"co": {"X": 1, "Y": -1}, "interpolation": 2}]}, "position": 194.4, "crop_y": {"Points": [{"co": {"X": 1, "Y": 0}, "interpolation": 2}]}, "crop_width": {"Points": [{"co": {"X": 1, "Y": -1}, "interpolation": 2}]}, "title": "!000-White-Background.svg", "layer": 0, "location_x": {"Points": [{"co": {"X": 1, "Y": 0}, "interpolation": 2}]}, "shear_x": {"Points": [{"co": {"X": 1, "Y": 0}, "interpolation": 2}]}, "channel_filter": {"Points": [{"co": {"X": 1, "Y": -1}, "interpolation": 2}]}, "perspective_c3_y": {"Points": [{"co": {"X": 1, "Y": -1}, "interpolation": 2}]}, "location_y": {"Points": [{"co": {"X": 1, "Y": 0}, "interpolation": 2}]}, "perspective_c1_x": {"Points": [{"co": {"X": 1, "Y": -1}, "interpolation": 2}]}, "id": "ZI2MDCVQ2F", "start": 0, "perspective_c4_y": {"Points": [{"co": {"X": 1, "Y": -1}, "interpolation": 2}]}, "wave_color": {"blue": {"Points": [{"handle_type": 0, "handle_right": {"X": 0.5, "Y": 0}, "interpolation": 0, "co": {"X": 1, "Y": 255}, "handle_left": {"X": 0.5, "Y": 1}}]}, "red": {"Points": [{"handle_type": 0, "handle_right": {"X": 0.5, "Y": 0}, "interpolation": 0, "co": {"X": 1, "Y": 0}, "handle_left": {"X": 0.5, "Y": 1}}]}, "alpha": {"Points": [{"handle_type": 0, "handle_right": {"X": 0.5, "Y": 0}, "interpolation": 0, "co": {"X": 1, "Y": 255}, "handle_left": {"X": 0.5, "Y": 1}}]}, "green": {"Points": [{"handle_type": 0, "handle_right": {"X": 0.5, "Y": 0}, "interpolation": 0, "co": {"X": 1, "Y": 123}, "handle_left": {"X": 0.5, "Y": 1}}]}}, "perspective_c4_x": {"Points": [{"co": {"X": 1, "Y": -1}, "interpolation": 2}]}}, {"perspective_c3_x": {"Points": [{"co": {"X": 1, "Y": -1}, "interpolation": 2}]}, "duration": 86400.0, "perspective_c2_y": {"Points": [{"co": {"X": 1, "Y": -1}, "interpolation": 2}]}, "alpha": {"Points": [{"co": {"X": 1, "Y": 1}, "interpolation": 2}, {"handle_type": 0, "handle_right": {"X": 0.5, "Y": 0}, "co": {"X": 1, "Y": 0}, "interpolation": 0, "handle_left": {"X": 0.5, "Y": 1}}, {"handle_type": 0, "handle_right": {"X": 0.5, "Y": 0}, "co": {"X": 73, "Y": 1}, "interpolation": 0, "handle_left": {"X": 0.5, "Y": 1}}, {"handle_type": 0, "handle_right": {"X": 0.5, "Y": 0}, "interpolation": 0, "co": {"X": 49, "Y": 1}, "handle_left": {"X": 0.5, "Y": 1}}, {"handle_type": 0, "handle_right": {"X": 0.5, "Y": 0}, "interpolation": 0, "co": {"X": 121, "Y": 0}, "handle_left": {"X": 0.5, "Y": 1}}]}, "file_id": "3LXINJ8GXN", "end": 5, "scale_y": {"Points": [{"co": {"X": 1, "Y": 1}, "interpolation": 2}]}, "time": {"Points": [{"co": {"X": 1, "Y": 1}, "interpolation": 2}]}, "volume": {"Points": [{"co": {"X": 1, "Y": 1}, "interpolation": 2}]}, "crop_height": {"Points": [{"co": {"X": 1, "Y": -1}, "interpolation": 2}]}, "effects": [], "rotation": {"Points": [{"co": {"X": 1, "Y": 0}, "interpolation": 2}]}, "image": "/home/milind/.openshot_qt/thumbnail/3LXINJ8GXN.png", "crop_x": {"Points": [{"co": {"X": 1, "Y": 0}, "interpolation": 2}]}, "perspective_c2_x": {"Points": [{"co": {"X": 1, "Y": -1}, "interpolation": 2}]}, "scale": 1, "waveform": false, "has_video": {"Points": [{"co": {"X": 1, "Y": -1}, "interpolation": 2}]}, "has_audio": {"Points": [{"co": {"X": 1, "Y": -1}, "interpolation": 2}]}, "anchor": 0, "reader": {"duration": 86400.0, "type": "QtImageReader", "file_size": "104140324", "has_single_image": true, "sample_rate": 0, "pixel_ratio": {"den": 1, "num": 1}, "video_length": "2592000", "channel_layout": 4, "interlaced_frame": false, "vcodec": "", "has_video": true, "has_audio": false, "video_stream_index": -1, "audio_stream_index": -1, "fps": {"den": 1, "num": 30}, "display_ratio": {"den": 3827, "num": 6803}, "channels": 0, "audio_bit_rate": 0, "video_timebase": {"den": 30, "num": 1}, "top_field_first": true, "pixel_format": -1, "height": 3827, "width": 6803, "acodec": "", "audio_timebase": {"den": 1, "num": 1}, "video_bit_rate": 0, "path": "/home/milind/Data/Projects/ProgressCard/!152-Slide -Open Libre Base.svg"}, "gravity": 4, "channel_mapping": {"Points": [{"co": {"X": 1, "Y": -1}, "interpolation": 2}]}, "scale_x": {"Points": [{"co": {"X": 1, "Y": 1}, "interpolation": 2}]}, "shear_y": {"Points": [{"co": {"X": 1, "Y": 0}, "interpolation": 2}]}, "display": 0, "perspective_c1_y": {"Points": [{"co": {"X": 1, "Y": -1}, "interpolation": 2}]}, "position": 2.0, "crop_y": {"Points": [{"co": {"X": 1, "Y": 0}, "interpolation": 2}]}, "crop_width": {"Points": [{"co": {"X": 1, "Y": -1}, "interpolation": 2}]}, "title": "!152-Slide -Open Libre Base.svg", "layer": 1, "location_x": {"Points": [{"co": {"X": 1, "Y": 0}, "interpolation": 2}]}, "shear_x": {"Points": [{"co": {"X": 1, "Y": 0}, "interpolation": 2}]}, "channel_filter": {"Points": [{"co": {"X": 1, "Y": -1}, "interpolation": 2}]}, "perspective_c3_y": {"Points": [{"co": {"X": 1, "Y": -1}, "interpolation": 2}]}, "location_y": {"Points": [{"co": {"X": 1, "Y": 0}, "interpolation": 2}]}, "perspective_c1_x": {"Points": [{"co": {"X": 1, "Y": -1}, "interpolation": 2}]}, "id": "KADE8VO8LG", "start": 0, "perspective_c4_y": {"Points": [{"co": {"X": 1, "Y": -1}, "interpolation": 2}]}, "wave_color": {"blue": {"Points": [{"handle_type": 0, "handle_right": {"X": 0.5, "Y": 0}, "co": {"X": 1, "Y": 255}, "interpolation": 0, "handle_left": {"X": 0.5, "Y": 1}}]}, "red": {"Points": [{"handle_type": 0, "handle_right": {"X": 0.5, "Y": 0}, "co": {"X": 1, "Y": 0}, "interpolation": 0, "handle_left": {"X": 0.5, "Y": 1}}]}, "alpha": {"Points": [{"handle_type": 0, "handle_right": {"X": 0.5, "Y": 0}, "co": {"X": 1, "Y": 255}, "interpolation": 0, "handle_left": {"X": 0.5, "Y": 1}}]}, "green": {"Points": [{"handle_type": 0, "handle_right": {"X": 0.5, "Y": 0}, "co": {"X": 1, "Y": 123}, "interpolation": 0, "handle_left": {"X": 0.5, "Y": 1}}]}}, "perspective_c4_x": {"Points": [{"co": {"X": 1, "Y": -1}, "interpolation": 2}]}}, {"perspective_c1_y": {"Points": [{"co": {"X": 1, "Y": -1}, "interpolation": 2}]}, "perspective_c3_x": {"Points": [{"co": {"X": 1, "Y": -1}, "interpolation": 2}]}, "perspective_c2_y": {"Points": [{"co": {"X": 1, "Y": -1}, "interpolation": 2}]}, "alpha": {"Points": [{"co": {"X": 1, "Y": 1}, "interpolation": 2}, {"handle_type": 0, "handle_right": {"X": 0.5, "Y": 0}, "interpolation": 0, "co": {"X": 441, "Y": 0}, "handle_left": {"X": 0.5, "Y": 1}}, {"handle_type": 0, "handle_right": {"X": 0.5, "Y": 0}, "interpolation": 0, "co": {"X": 465, "Y": 1}, "handle_left": {"X": 0.5, "Y": 1}}, {"handle_type": 0, "handle_right": {"X": 0.5, "Y": 0}, "co": {"X": 582, "Y": 1}, "interpolation": 0, "handle_left": {"X": 0.5, "Y": 1}}, {"handle_type": 0, "handle_right": {"X": 0.5, "Y": 0}, "co": {"X": 606, "Y": 0}, "interpolation": 0, "handle_left": {"X": 0.5, "Y": 1}}]}, "duration": 67.0, "scale_y": {"Points": [{"interpolation": 2, "co": {"X": 1, "Y": 1}}, {"interpolation": 1, "co": {"X": 527, "Y": 2.0}}]}, "time": {"Points": [{"co": {"X": 1, "Y": 1}, "interpolation": 2}, {"interpolation": 1, "co": {"X": 480, "Y": 480}}, {"interpolation": 1, "co": {"X": 528, "Y": 480}}, {"interpolation": 1, "co": {"X": 497, "Y": 480}}, {"interpolation": 1, "co": {"X": 545, "Y": 480}}, {"co": {"X": 558, "Y": 493}, "interpolation": 1}, {"co": {"X": 606, "Y": 493}, "interpolation": 1}, {"co": {"X": 1609, "Y": 1465}, "interpolation": 1}]}, "volume": {"Points": [{"co": {"X": 1, "Y": 1}, "interpolation": 2}, {"interpolation": 1, "co": {"X": 479, "Y": 1}}, {"interpolation": 1, "co": {"X": 480, "Y": 0}}, {"interpolation": 1, "co": {"X": 527, "Y": 0}}, {"interpolation": 1, "co": {"X": 528, "Y": 1}}, {"interpolation": 1, "co": {"X": 496, "Y": 0}}, {"interpolation": 1, "co": {"X": 497, "Y": 0}}, {"interpolation": 1, "co": {"X": 544, "Y": 0}}, {"interpolation": 1, "co": {"X": 545, "Y": 0}}, {"co": {"X": 557, "Y": 0}, "interpolation": 1}, {"co": {"X": 558, "Y": 0}, "interpolation": 1}, {"co": {"X": 605, "Y": 0}, "interpolation": 1}, {"co": {"X": 606, "Y": 0}, "interpolation": 1}]}, "crop_height": {"Points": [{"co": {"X": 1, "Y": -1}, "interpolation": 2}]}, "effects": [], "rotation": {"Points": [{"co": {"X": 1, "Y": 0}, "interpolation": 2}]}, "has_video": {"Points": [{"co": {"X": 1, "Y": -1}, "interpolation": 2}]}, "perspective_c2_x": {"Points": [{"co": {"X": 1, "Y": -1}, "interpolation": 2}]}, "image": "/home/milind/.openshot_qt/thumbnail/5MD00FYBJ8-459.png", "perspective_c3_y": {"Points": [{"co": {"X": 1, "Y": -1}, "interpolation": 2}]}, "position": 27.66875, "channel_mapping": {"Points": [{"co": {"X": 1, "Y": -1}, "interpolation": 2}]}, "shear_y": {"Points": [{"co": {"X": 1, "Y": 0}, "interpolation": 2}]}, "crop_width": {"Points": [{"co": {"X": 1, "Y": -1}, "interpolation": 2}]}, "location_x": {"Points": [{"interpolation": 2, "co": {"X": 1, "Y": 0}}, {"interpolation": 1, "co": {"X": 527, "Y": -0.20000000298023224}}]}, "crop_y": {"Points": [{"co": {"X": 1, "Y": 0}, "interpolation": 2}]}, "title": "!160-Register Spreadsheet as Database.mkv", "original_data": {"duration": 61.0, "video_length": "1525", "end": 61}, "shear_x": {"Points": [{"co": {"X": 1, "Y": 0}, "interpolation": 2}]}, "channel_filter": {"Points": [{"co": {"X": 1, "Y": -1}, "interpolation": 2}]}, "location_y": {"Points": [{"interpolation": 2, "co": {"X": 1, "Y": 0}}, {"interpolation": 1, "co": {"X": 527, "Y": 0.30000001192092896}}]}, "id": "5MD00FYBJ8", "start": 18.334895833333327, "perspective_c4_y": {"Points": [{"co": {"X": 1, "Y": -1}, "interpolation": 2}]}, "wave_color": {"blue": {"Points": [{"handle_type": 0, "handle_right": {"X": 0.5, "Y": 0}, "co": {"X": 1, "Y": 255}, "interpolation": 0, "handle_left": {"X": 0.5, "Y": 1}}]}, "red": {"Points": [{"handle_type": 0, "handle_right": {"X": 0.5, "Y": 0}, "co": {"X": 1, "Y": 0}, "interpolation": 0, "handle_left": {"X": 0.5, "Y": 1}}]}, "alpha": {"Points": [{"handle_type": 0, "handle_right": {"X": 0.5, "Y": 0}, "co": {"X": 1, "Y": 255}, "interpolation": 0, "handle_left": {"X": 0.5, "Y": 1}}]}, "green": {"Points": [{"handle_type": 0, "handle_right": {"X": 0.5, "Y": 0}, "co": {"X": 1, "Y": 123}, "interpolation": 0, "handle_left": {"X": 0.5, "Y": 1}}]}}, "perspective_c4_x": {"Points": [{"co": {"X": 1, "Y": -1}, "interpolation": 2}]}, "crop_x": {"Points": [{"co": {"X": 1, "Y": 0}, "interpolation": 2}]}, "file_id": "YJ84IVW8VE", "end": 25.20989583333333, "scale": 1, "has_audio": {"Points": [{"co": {"X": 1, "Y": -1}, "interpolation": 2}]}, "anchor": 0, "reader": {"duration": 61.0, "type": "FFmpegReader", "file_size": "666485", "has_single_image": false, "sample_rate": 0, "pixel_ratio": {"den": 1, "num": 1}, "video_length": "1525", "channel_layout": 4, "interlaced_frame": false, "vcodec": "h264", "has_video": true, "has_audio": false, "video_stream_index": 0, "audio_stream_index": -1, "fps": {"den": 1, "num": 25}, "display_ratio": {"den": 384, "num": 683}, "channels": 0, "audio_bit_rate": 0, "video_timebase": {"den": 1000, "num": 1}, "top_field_first": true, "pixel_format": 0, "height": 768, "width": 1366, "acodec": "", "audio_timebase": {"den": 1, "num": 1}, "video_bit_rate": 87179, "path": "/home/milind/Data/Projects/ProgressCard/!160-Register Spreadsheet as Database.mkv"}, "gravity": 4, "scale_x": {"Points": [{"interpolation": 2, "co": {"X": 1, "Y": 1}}, {"interpolation": 1, "co": {"X": 527, "Y": 2.0}}]}, "display": 0, "waveform": false, "layer": 1, "perspective_c1_x": {"Points": [{"co": {"X": 1, "Y": -1}, "interpolation": 2}]}}, {"perspective_c1_y": {"Points": [{"interpolation": 2, "co": {"X": 1, "Y": -1}}]}, "perspective_c3_x": {"Points": [{"interpolation": 2, "co": {"X": 1, "Y": -1}}]}, "perspective_c2_y": {"Points": [{"interpolation": 2, "co": {"X": 1, "Y": -1}}]}, "alpha": {"Points": [{"interpolation": 2, "co": {"X": 1, "Y": 1}}, {"handle_type": 0, "handle_right": {"X": 0.5, "Y": 0}, "interpolation": 0, "co": {"X": 649, "Y": 0}, "handle_left": {"X": 0.5, "Y": 1}}, {"handle_type": 0, "handle_right": {"X": 0.5, "Y": 0}, "interpolation": 0, "co": {"X": 673, "Y": 1}, "handle_left": {"X": 0.5, "Y": 1}}, {"handle_type": 0, "handle_right": {"X": 0.5, "Y": 0}, "co": {"X": 792, "Y": 1}, "interpolation": 0, "handle_left": {"X": 0.5, "Y": 1}}, {"handle_type": 0, "handle_right": {"X": 0.5, "Y": 0}, "co": {"X": 816, "Y": 0}, "interpolation": 0, "handle_left": {"X": 0.5, "Y": 1}}]}, "duration": 67.0, "scale_y": {"Points": [{"handle_type": 0, "handle_right": {"X": 0.5, "Y": 0}, "co": {"X": 1, "Y": 1}, "interpolation": 0, "handle_left": {"X": 0.5, "Y": 1}}, {"interpolation": 1, "co": {"X": 747, "Y": 1.2000000476837158}}, {"co": {"X": 649, "Y": 1.2000000476837158}, "interpolation": 1}]}, "time": {"Points": [{"interpolation": 2, "co": {"X": 1, "Y": 1}}, {"co": {"X": 480, "Y": 480}, "interpolation": 1}, {"co": {"X": 528, "Y": 480}, "interpolation": 1}, {"co": {"X": 497, "Y": 480}, "interpolation": 1}, {"co": {"X": 545, "Y": 480}, "interpolation": 1}, {"co": {"X": 767, "Y": 695}, "interpolation": 1}, {"co": {"X": 815, "Y": 695}, "interpolation": 1}, {"co": {"X": 1609, "Y": 1465}, "interpolation": 1}]}, "volume": {"Points": [{"interpolation": 2, "co": {"X": 1, "Y": 1}}, {"co": {"X": 479, "Y": 1}, "interpolation": 1}, {"co": {"X": 480, "Y": 0}, "interpolation": 1}, {"co": {"X": 527, "Y": 0}, "interpolation": 1}, {"co": {"X": 528, "Y": 1}, "interpolation": 1}, {"co": {"X": 496, "Y": 0}, "interpolation": 1}, {"co": {"X": 497, "Y": 0}, "interpolation": 1}, {"co": {"X": 544, "Y": 0}, "interpolation": 1}, {"co": {"X": 545, "Y": 0}, "interpolation": 1}, {"co": {"X": 766, "Y": 0}, "interpolation": 1}, {"co": {"X": 767, "Y": 0}, "interpolation": 1}, {"co": {"X": 814, "Y": 0}, "interpolation": 1}, {"co": {"X": 815, "Y": 0}, "interpolation": 1}]}, "crop_height": {"Points": [{"interpolation": 2, "co": {"X": 1, "Y": -1}}]}, "effects": [], "rotation": {"Points": [{"interpolation": 2, "co": {"X": 1, "Y": 0}}]}, "has_video": {"Points": [{"interpolation": 2, "co": {"X": 1, "Y": -1}}]}, "perspective_c2_x": {"Points": [{"interpolation": 2, "co": {"X": 1, "Y": -1}}]}, "image": "/home/milind/.openshot_qt/thumbnail/CUFU76JSRY-676.png", "perspective_c3_y": {"Points": [{"interpolation": 2, "co": {"X": 1, "Y": -1}}]}, "position": 34.541406249999994, "channel_mapping": {"Points": [{"interpolation": 2, "co": {"X": 1, "Y": -1}}]}, "shear_y": {"Points": [{"interpolation": 2, "co": {"X": 1, "Y": 0}}]}, "crop_width": {"Points": [{"interpolation": 2, "co": {"X": 1, "Y": -1}}]}, "location_x": {"Points": [{"handle_type": 0, "handle_right": {"X": 0.5, "Y": 0}, "co": {"X": 1, "Y": 0}, "interpolation": 0, "handle_left": {"X": 0.5, "Y": 1}}]}, "crop_y": {"Points": [{"interpolation": 2, "co": {"X": 1, "Y": 0}}]}, "title": "!160-Register Spreadsheet as Database.mkv", "original_data": {"duration": 61.0, "video_length": "1525", "end": 61}, "shear_x": {"Points": [{"interpolation": 2, "co": {"X": 1, "Y": 0}}]}, "channel_filter": {"Points": [{"interpolation": 2, "co": {"X": 1, "Y": -1}}]}, "location_y": {"Points": [{"handle_type": 0, "handle_right": {"X": 0.5, "Y": 0}, "co": {"X": 1, "Y": 0}, "interpolation": 0, "handle_left": {"X": 0.5, "Y": 1}}, {"interpolation": 1, "co": {"X": 747, "Y": -0.10000000149011612}}, {"co": {"X": 649, "Y": -0.10000000149011612}, "interpolation": 1}]}, "id": "CUFU76JSRY", "start": 27.001250000000002, "perspective_c4_y": {"Points": [{"interpolation": 2, "co": {"X": 1, "Y": -1}}]}, "wave_color": {"blue": {"Points": [{"handle_type": 0, "handle_right": {"X": 0.5, "Y": 0}, "interpolation": 0, "co": {"X": 1, "Y": 255}, "handle_left": {"X": 0.5, "Y": 1}}]}, "red": {"Points": [{"handle_type": 0, "handle_right": {"X": 0.5, "Y": 0}, "interpolation": 0, "co": {"X": 1, "Y": 0}, "handle_left": {"X": 0.5, "Y": 1}}]}, "alpha": {"Points": [{"handle_type": 0, "handle_right": {"X": 0.5, "Y": 0}, "interpolation": 0, "co": {"X": 1, "Y": 255}, "handle_left": {"X": 0.5, "Y": 1}}]}, "green": {"Points": [{"handle_type": 0, "handle_right": {"X": 0.5, "Y": 0}, "interpolation": 0, "co": {"X": 1, "Y": 123}, "handle_left": {"X": 0.5, "Y": 1}}]}}, "perspective_c4_x": {"Points": [{"interpolation": 2, "co": {"X": 1, "Y": -1}}]}, "crop_x": {"Points": [{"interpolation": 2, "co": {"X": 1, "Y": 0}}]}, "file_id": "YJ84IVW8VE", "end": 33.95958333333333, "scale": 1, "has_audio": {"Points": [{"interpolation": 2, "co": {"X": 1, "Y": -1}}]}, "anchor": 0, "reader": {"duration": 61.0, "type": "FFmpegReader", "file_size": "666485", "has_single_image": false, "sample_rate": 0, "pixel_ratio": {"den": 1, "num": 1}, "video_length": "1525", "channel_layout": 4, "interlaced_frame": false, "vcodec": "h264", "has_video": true, "has_audio": false, "video_stream_index": 0, "audio_stream_index": -1, "fps": {"den": 1, "num": 25}, "display_ratio": {"den": 384, "num": 683}, "channels": 0, "audio_bit_rate": 0, "video_timebase": {"den": 1000, "num": 1}, "top_field_first": true, "pixel_format": 0, "height": 768, "width": 1366, "acodec": "", "audio_timebase": {"den": 1, "num": 1}, "video_bit_rate": 87179, "path": "/home/milind/Data/Projects/ProgressCard/!160-Register Spreadsheet as Database.mkv"}, "gravity": 4, "scale_x": {"Points": [{"handle_type": 0, "handle_right": {"X": 0.5, "Y": 0}, "interpolation": 0, "co": {"X": 1, "Y": 1}, "handle_left": {"X": 0.5, "Y": 1}}, {"co": {"X": 747, "Y": 1.2999999523162842}, "interpolation": 1}, {"co": {"X": 649, "Y": 1.2999999523162842}, "interpolation": 1}]}, "display": 0, "waveform": false, "layer": 1, "perspective_c1_x": {"Points": [{"interpolation": 2, "co": {"X": 1, "Y": -1}}]}}, {"perspective_c1_y": {"Points": [{"interpolation": 2, "co": {"X": 1, "Y": -1}}]}, "perspective_c3_x": {"Points": [{"interpolation": 2, "co": {"X": 1, "Y": -1}}]}, "perspective_c2_y": {"Points": [{"interpolation": 2, "co": {"X": 1, "Y": -1}}]}, "alpha": {"Points": [{"handle_type": 0, "handle_right": {"X": 0.5, "Y": 0}, "interpolation": 0, "co": {"X": 1, "Y": 1}, "handle_left": {"X": 0.5, "Y": 1}}, {"handle_type": 0, "handle_right": {"X": 0.5, "Y": 0}, "interpolation": 0, "co": {"X": 931, "Y": 1}, "handle_left": {"X": 0.5, "Y": 1}}, {"handle_type": 0, "handle_right": {"X": 0.5, "Y": 0}, "interpolation": 0, "co": {"X": 955, "Y": 0}, "handle_left": {"X": 0.5, "Y": 1}}]}, "scale_y": {"Points": [{"interpolation": 2, "co": {"X": 1, "Y": 1}}, {"interpolation": 1, "co": {"X": 768, "Y": 1.2999999523162842}}, {"interpolation": 1, "co": {"X": 822, "Y": 2.299999952316284}}]}, "time": {"Points": [{"interpolation": 1, "co": {"X": 1, "Y": 0}}, {"interpolation": 1, "co": {"X": 770, "Y": 770}}, {"interpolation": 1, "co": {"X": 866, "Y": 770}}, {"interpolation": 1, "co": {"X": 1561, "Y": 1465}}]}, "volume": {"Points": [{"interpolation": 2, "co": {"X": 1, "Y": 1}}, {"interpolation": 1, "co": {"X": 768, "Y": 1}}, {"interpolation": 1, "co": {"X": 769, "Y": 0}}, {"interpolation": 1, "co": {"X": 816, "Y": 0}}, {"interpolation": 1, "co": {"X": 817, "Y": 1}}, {"interpolation": 1, "co": {"X": 768, "Y": 0}}, {"interpolation": 1, "co": {"X": 769, "Y": 0}}, {"interpolation": 1, "co": {"X": 816, "Y": 0}}, {"interpolation": 1, "co": {"X": 817, "Y": 0}}, {"interpolation": 1, "co": {"X": 768, "Y": 0}}, {"interpolation": 1, "co": {"X": 769, "Y": 0}}, {"interpolation": 1, "co": {"X": 816, "Y": 0}}, {"interpolation": 1, "co": {"X": 817, "Y": 0}}, {"interpolation": 1, "co": {"X": 768, "Y": 0}}, {"interpolation": 1, "co": {"X": 769, "Y": 0}}, {"interpolation": 1, "co": {"X": 816, "Y": 0}}, {"interpolation": 1, "co": {"X": 817, "Y": 0}}, {"interpolation": 1, "co": {"X": 804, "Y": 0}}, {"interpolation": 1, "co": {"X": 805, "Y": 0}}, {"interpolation": 1, "co": {"X": 852, "Y": 0}}, {"interpolation": 1, "co": {"X": 853, "Y": 0}}, {"interpolation": 1, "co": {"X": 769, "Y": 0}}, {"interpolation": 1, "co": {"X": 770, "Y": 0}}, {"interpolation": 1, "co": {"X": 865, "Y": 0}}, {"interpolation": 1, "co": {"X": 866, "Y": 0}}]}, "crop_height": {"Points": [{"interpolation": 2, "co": {"X": 1, "Y": -1}}]}, "effects": [], "rotation": {"Points": [{"interpolation": 2, "co": {"X": 1, "Y": 0}}]}, "has_video": {"Points": [{"interpolation": 2, "co": {"X": 1, "Y": -1}}]}, "perspective_c2_x": {"Points": [{"interpolation": 2, "co": {"X": 1, "Y": -1}}]}, "image": "/home/milind/.openshot_qt/thumbnail/9L9W1S3V4Q-800.png", "perspective_c3_y": {"Points": [{"interpolation": 2, "co": {"X": 1, "Y": -1}}]}, "position": 41.496875, "channel_mapping": {"Points": [{"interpolation": 2, "co": {"X": 1, "Y": -1}}]}, "shear_y": {"Points": [{"interpolation": 2, "co": {"X": 1, "Y": 0}}]}, "crop_width": {"Points": [{"interpolation": 2, "co": {"X": 1, "Y": -1}}]}, "location_x": {"Points": [{"interpolation": 2, "co": {"X": 1, "Y": 0}}, {"interpolation": 1, "co": {"X": 822, "Y": -0.20000000298023224}}]}, "crop_y": {"Points": [{"interpolation": 2, "co": {"X": 1, "Y": 0}}]}, "title": "!160-Register Spreadsheet as Database.mkv", "original_data": {"duration": 61.0, "video_length": "1525", "end": 61}, "shear_x": {"Points": [{"interpolation": 2, "co": {"X": 1, "Y": 0}}]}, "channel_filter": {"Points": [{"interpolation": 2, "co": {"X": 1, "Y": -1}}]}, "location_y": {"Points": [{"interpolation": 2, "co": {"X": 1, "Y": 0}}, {"interpolation": 1, "co": {"X": 768, "Y": -0.03500000014901161}}, {"interpolation": 1, "co": {"X": 822, "Y": 0.30000001192092896}}, {"interpolation": 1, "co": {"X": 901, "Y": -0.44999998807907104}}, {"interpolation": 1, "co": {"X": 876, "Y": 0.30000001192092896}}]}, "id": "9L9W1S3V4Q", "start": 31.971458333333338, "perspective_c4_y": {"Points": [{"interpolation": 2, "co": {"X": 1, "Y": -1}}]}, "wave_color": {"blue": {"Points": [{"handle_type": 0, "handle_right": {"X": 0.5, "Y": 0}, "interpolation": 0, "co": {"X": 1, "Y": 255}, "handle_left": {"X": 0.5, "Y": 1}}]}, "red": {"Points": [{"handle_type": 0, "handle_right": {"X": 0.5, "Y": 0}, "interpolation": 0, "co": {"X": 1, "Y": 0}, "handle_left": {"X": 0.5, "Y": 1}}]}, "alpha": {"Points": [{"handle_type": 0, "handle_right": {"X": 0.5, "Y": 0}, "interpolation": 0, "co": {"X": 1, "Y": 255}, "handle_left": {"X": 0.5, "Y": 1}}]}, "green": {"Points": [{"handle_type": 0, "handle_right": {"X": 0.5, "Y": 0}, "interpolation": 0, "co": {"X": 1, "Y": 123}, "handle_left": {"X": 0.5, "Y": 1}}]}}, "perspective_c4_x": {"Points": [{"interpolation": 2, "co": {"X": 1, "Y": -1}}]}, "duration": 65.0, "crop_x": {"Points": [{"interpolation": 2, "co": {"X": 1, "Y": 0}}]}, "file_id": "YJ84IVW8VE", "end": 39.763125, "scale": 1, "has_audio": {"Points": [{"interpolation": 2, "co": {"X": 1, "Y": -1}}]}, "anchor": 0, "reader": {"duration": 61.0, "top_field_first": true, "file_size": "666485", "has_single_image": false, "sample_rate": 0, "pixel_ratio": {"den": 1, "num": 1}, "video_length": "1525", "channel_layout": 4, "interlaced_frame": false, "vcodec": "h264", "has_video": true, "has_audio": false, "video_stream_index": 0, "audio_stream_index": -1, "type": "FFmpegReader", "fps": {"den": 1, "num": 25}, "display_ratio": {"den": 384, "num": 683}, "channels": 0, "video_timebase": {"den": 1000, "num": 1}, "audio_bit_rate": 0, "pixel_format": 0, "height": 768, "width": 1366, "acodec": "", "audio_timebase": {"den": 1, "num": 1}, "video_bit_rate": 87179, "path": "/home/milind/Data/Projects/ProgressCard/!160-Register Spreadsheet as Database.mkv"}, "gravity": 4, "scale_x": {"Points": [{"interpolation": 2, "co": {"X": 1, "Y": 1}}, {"interpolation": 1, "co": {"X": 768, "Y": 1.2999999523162842}}, {"interpolation": 1, "co": {"X": 822, "Y": 2.299999952316284}}]}, "display": 0, "waveform": false, "layer": 2, "perspective_c1_x": {"Points": [{"interpolation": 2, "co": {"X": 1, "Y": -1}}]}}, {"perspective_c1_y": {"Points": [{"interpolation": 2, "co": {"X": 1, "Y": -1}}]}, "perspective_c3_x": {"Points": [{"interpolation": 2, "co": {"X": 1, "Y": -1}}]}, "perspective_c2_y": {"Points": [{"interpolation": 2, "co": {"X": 1, "Y": -1}}]}, "alpha": {"Points": [{"handle_type": 0, "handle_right": {"X": 0.5, "Y": 0}, "interpolation": 0, "co": {"X": 1, "Y": 1}, "handle_left": {"X": 0.5, "Y": 1}}, {"handle_type": 0, "handle_right": {"X": 0.5, "Y": 0}, "interpolation": 0, "co": {"X": 1279, "Y": 1}, "handle_left": {"X": 0.5, "Y": 1}}, {"handle_type": 0, "handle_right": {"X": 0.5, "Y": 0}, "interpolation": 0, "co": {"X": 1351, "Y": 0}, "handle_left": {"X": 0.5, "Y": 1}}]}, "scale_y": {"Points": [{"interpolation": 2, "co": {"X": 1, "Y": 1}}, {"interpolation": 1, "co": {"X": 768, "Y": 1.2999999523162842}}, {"interpolation": 1, "co": {"X": 822, "Y": 2.299999952316284}}]}, "time": {"Points": [{"interpolation": 1, "co": {"X": 1, "Y": 0}}, {"interpolation": 1, "co": {"X": 770, "Y": 770}}, {"interpolation": 1, "co": {"X": 866, "Y": 770}}, {"interpolation": 1, "co": {"X": 1171, "Y": 1075}}, {"interpolation": 1, "co": {"X": 1219, "Y": 1075}}, {"interpolation": 1, "co": {"X": 1171, "Y": 1075}}, {"interpolation": 1, "co": {"X": 1219, "Y": 1075}}, {"interpolation": 1, "co": {"X": 1190, "Y": 1075}}, {"interpolation": 1, "co": {"X": 1286, "Y": 1075}}, {"interpolation": 1, "co": {"X": 1222, "Y": 1075}}, {"interpolation": 1, "co": {"X": 1318, "Y": 1075}}, {"interpolation": 1, "co": {"X": 1209, "Y": 1075}}, {"interpolation": 1, "co": {"X": 1305, "Y": 1075}}, {"interpolation": 1, "co": {"X": 1205, "Y": 1075}}, {"interpolation": 1, "co": {"X": 1349, "Y": 1075}}, {"interpolation": 1, "co": {"X": 2089, "Y": 1465}}]}, "volume": {"Points": [{"interpolation": 2, "co": {"X": 1, "Y": 1}}, {"interpolation": 1, "co": {"X": 768, "Y": 1}}, {"interpolation": 1, "co": {"X": 769, "Y": 0}}, {"interpolation": 1, "co": {"X": 816, "Y": 0}}, {"interpolation": 1, "co": {"X": 817, "Y": 1}}, {"interpolation": 1, "co": {"X": 768, "Y": 0}}, {"interpolation": 1, "co": {"X": 769, "Y": 0}}, {"interpolation": 1, "co": {"X": 816, "Y": 0}}, {"interpolation": 1, "co": {"X": 817, "Y": 0}}, {"interpolation": 1, "co": {"X": 768, "Y": 0}}, {"interpolation": 1, "co": {"X": 769, "Y": 0}}, {"interpolation": 1, "co": {"X": 816, "Y": 0}}, {"interpolation": 1, "co": {"X": 817, "Y": 0}}, {"interpolation": 1, "co": {"X": 768, "Y": 0}}, {"interpolation": 1, "co": {"X": 769, "Y": 0}}, {"interpolation": 1, "co": {"X": 816, "Y": 0}}, {"interpolation": 1, "co": {"X": 817, "Y": 0}}, {"interpolation": 1, "co": {"X": 804, "Y": 0}}, {"interpolation": 1, "co": {"X": 805, "Y": 0}}, {"interpolation": 1, "co": {"X": 852, "Y": 0}}, {"interpolation": 1, "co": {"X": 853, "Y": 0}}, {"interpolation": 1, "co": {"X": 769, "Y": 0}}, {"interpolation": 1, "co": {"X": 770, "Y": 0}}, {"interpolation": 1, "co": {"X": 865, "Y": 0}}, {"interpolation": 1, "co": {"X": 866, "Y": 0}}, {"interpolation": 1, "co": {"X": 1170, "Y": 0}}, {"interpolation": 1, "co": {"X": 1171, "Y": 0}}, {"interpolation": 1, "co": {"X": 1218, "Y": 0}}, {"interpolation": 1, "co": {"X": 1219, "Y": 0}}, {"interpolation": 1, "co": {"X": 1170, "Y": 0}}, {"interpolation": 1, "co": {"X": 1171, "Y": 0}}, {"interpolation": 1, "co": {"X": 1218, "Y": 0}}, {"interpolation": 1, "co": {"X": 1219, "Y": 0}}, {"interpolation": 1, "co": {"X": 1189, "Y": 0}}, {"interpolation": 1, "co": {"X": 1190, "Y": 0}}, {"interpolation": 1, "co": {"X": 1285, "Y": 0}}, {"interpolation": 1, "co": {"X": 1286, "Y": 0}}, {"interpolation": 1, "co": {"X": 1221, "Y": 0}}, {"interpolation": 1, "co": {"X": 1222, "Y": 0}}, {"interpolation": 1, "co": {"X": 1317, "Y": 0}}, {"interpolation": 1, "co": {"X": 1318, "Y": 0}}, {"interpolation": 1, "co": {"X": 1208, "Y": 0}}, {"interpolation": 1, "co": {"X": 1209, "Y": 0}}, {"interpolation": 1, "co": {"X": 1304, "Y": 0}}, {"interpolation": 1, "co": {"X": 1305, "Y": 0}}, {"interpolation": 1, "co": {"X": 1204, "Y": 0}}, {"interpolation": 1, "co": {"X": 1205, "Y": 0}}, {"interpolation": 1, "co": {"X": 1348, "Y": 0}}, {"interpolation": 1, "co": {"X": 1349, "Y": 0}}]}, "crop_height": {"Points": [{"interpolation": 2, "co": {"X": 1, "Y": -1}}]}, "effects": [], "rotation": {"Points": [{"interpolation": 2, "co": {"X": 1, "Y": 0}}]}, "has_video": {"Points": [{"interpolation": 2, "co": {"X": 1, "Y": -1}}]}, "perspective_c2_x": {"Points": [{"interpolation": 2, "co": {"X": 1, "Y": -1}}]}, "image": "/home/milind/.openshot_qt/thumbnail/OF57GEZECQ-1196.png", "perspective_c3_y": {"Points": [{"interpolation": 2, "co": {"X": 1, "Y": -1}}]}, "position": 47.95625, "channel_mapping": {"Points": [{"interpolation": 2, "co": {"X": 1, "Y": -1}}]}, "shear_y": {"Points": [{"interpolation": 2, "co": {"X": 1, "Y": 0}}]}, "crop_width": {"Points": [{"interpolation": 2, "co": {"X": 1, "Y": -1}}]}, "location_x": {"Points": [{"interpolation": 2, "co": {"X": 1, "Y": 0}}, {"interpolation": 1, "co": {"X": 822, "Y": -0.20000000298023224}}]}, "crop_y": {"Points": [{"interpolation": 2, "co": {"X": 1, "Y": 0}}]}, "title": "!160-Register Spreadsheet as Database.mkv", "original_data": {"duration": 61.0, "video_length": "1525", "end": 61}, "shear_x": {"Points": [{"interpolation": 2, "co": {"X": 1, "Y": 0}}]}, "channel_filter": {"Points": [{"interpolation": 2, "co": {"X": 1, "Y": -1}}]}, "location_y": {"Points": [{"interpolation": 2, "co": {"X": 1, "Y": 0}}, {"interpolation": 1, "co": {"X": 768, "Y": -0.03500000014901161}}, {"interpolation": 1, "co": {"X": 822, "Y": 0.30000001192092896}}, {"interpolation": 1, "co": {"X": 901, "Y": -0.44999998807907104}}, {"interpolation": 1, "co": {"X": 876, "Y": 0.30000001192092896}}]}, "id": "OF57GEZECQ", "start": 47.800625000000004, "perspective_c4_y": {"Points": [{"interpolation": 2, "co": {"X": 1, "Y": -1}}]}, "wave_color": {"blue": {"Points": [{"handle_type": 0, "handle_right": {"X": 0.5, "Y": 0}, "interpolation": 0, "co": {"X": 1, "Y": 255}, "handle_left": {"X": 0.5, "Y": 1}}]}, "red": {"Points": [{"handle_type": 0, "handle_right": {"X": 0.5, "Y": 0}, "interpolation": 0, "co": {"X": 1, "Y": 0}, "handle_left": {"X": 0.5, "Y": 1}}]}, "alpha": {"Points": [{"handle_type": 0, "handle_right": {"X": 0.5, "Y": 0}, "interpolation": 0, "co": {"X": 1, "Y": 255}, "handle_left": {"X": 0.5, "Y": 1}}]}, "green": {"Points": [{"handle_type": 0, "handle_right": {"X": 0.5, "Y": 0}, "interpolation": 0, "co": {"X": 1, "Y": 123}, "handle_left": {"X": 0.5, "Y": 1}}]}}, "perspective_c4_x": {"Points": [{"interpolation": 2, "co": {"X": 1, "Y": -1}}]}, "duration": 87.0, "crop_x": {"Points": [{"interpolation": 2, "co": {"X": 1, "Y": 0}}]}, "file_id": "YJ84IVW8VE", "end": 56.26104166666667, "scale": 1, "has_audio": {"Points": [{"interpolation": 2, "co": {"X": 1, "Y": -1}}]}, "anchor": 0, "reader": {"duration": 61.0, "top_field_first": true, "file_size": "666485", "has_single_image": false, "sample_rate": 0, "pixel_ratio": {"den": 1, "num": 1}, "channel_layout": 4, "video_length": "1525", "interlaced_frame": false, "vcodec": "h264", "has_video": true, "has_audio": false, "video_stream_index": 0, "audio_stream_index": -1, "type": "FFmpegReader", "fps": {"den": 1, "num": 25}, "display_ratio": {"den": 384, "num": 683}, "channels": 0, "video_timebase": {"den": 1000, "num": 1}, "audio_bit_rate": 0, "pixel_format": 0, "height": 768, "width": 1366, "acodec": "", "audio_timebase": {"den": 1, "num": 1}, "video_bit_rate": 87179, "path": "/home/milind/Data/Projects/ProgressCard/!160-Register Spreadsheet as Database.mkv"}, "gravity": 4, "scale_x": {"Points": [{"interpolation": 2, "co": {"X": 1, "Y": 1}}, {"interpolation": 1, "co": {"X": 768, "Y": 1.2999999523162842}}, {"interpolation": 1, "co": {"X": 822, "Y": 2.299999952316284}}]}, "display": 0, "waveform": false, "layer": 3, "perspective_c1_x": {"Points": [{"interpolation": 2, "co": {"X": 1, "Y": -1}}]}}]}, {"value": {"position": 56.416666666666664, "end": 61, "image": "/home/milind/.openshot_qt/thumbnail/YJ84IVW8VE.png", "id": "4H2AH3X6LW", "start": 0, "layer": 2}, "type": "update", "partial": false, "key": ["clips", {"id": "4H2AH3X6LW"}], "old_values": {"perspective_c3_x": {"Points": [{"interpolation": 2, "co": {"X": 1, "Y": -1}}]}, "duration": 61.0, "perspective_c2_y": {"Points": [{"interpolation": 2, "co": {"X": 1, "Y": -1}}]}, "alpha": {"Points": [{"interpolation": 2, "co": {"X": 1, "Y": 1}}]}, "file_id": "YJ84IVW8VE", "channel_mapping": {"Points": [{"interpolation": 2, "co": {"X": 1, "Y": -1}}]}, "scale_y": {"Points": [{"interpolation": 2, "co": {"X": 1, "Y": 1}}]}, "time": {"Points": [{"interpolation": 2, "co": {"X": 1, "Y": 1}}]}, "volume": {"Points": [{"interpolation": 2, "co": {"X": 1, "Y": 1}}]}, "crop_height": {"Points": [{"interpolation": 2, "co": {"X": 1, "Y": -1}}]}, "effects": [], "rotation": {"Points": [{"interpolation": 2, "co": {"X": 1, "Y": 0}}]}, "has_video": {"Points": [{"interpolation": 2, "co": {"X": 1, "Y": -1}}]}, "crop_x": {"Points": [{"interpolation": 2, "co": {"X": 1, "Y": 0}}]}, "perspective_c2_x": {"Points": [{"interpolation": 2, "co": {"X": 1, "Y": -1}}]}, "scale": 1, "waveform": false, "image": "/home/milind/.openshot_qt/thumbnail/YJ84IVW8VE.png", "has_audio": {"Points": [{"interpolation": 2, "co": {"X": 1, "Y": -1}}]}, "anchor": 0, "reader": {"duration": 61.0, "top_field_first": true, "file_size": "666485", "has_single_image": false, "sample_rate": 0, "pixel_ratio": {"den": 1, "num": 1}, "video_length": "1525", "channel_layout": 4, "interlaced_frame": false, "vcodec": "h264", "has_video": true, "has_audio": false, "video_stream_index": 0, "audio_stream_index": -1, "type": "FFmpegReader", "fps": {"den": 1, "num": 25}, "display_ratio": {"den": 384, "num": 683}, "channels": 0, "video_timebase": {"den": 1000, "num": 1}, "audio_bit_rate": 0, "pixel_format": 0, "height": 768, "width": 1366, "acodec": "", "audio_timebase": {"den": 1, "num": 1}, "video_bit_rate": 87179, "path": "/home/milind/Data/Projects/ProgressCard/!160-Register Spreadsheet as Database.mkv"}, "gravity": 4, "end": 61.0, "scale_x": {"Points": [{"interpolation": 2, "co": {"X": 1, "Y": 1}}]}, "shear_y": {"Points": [{"interpolation": 2, "co": {"X": 1, "Y": 0}}]}, "display": 0, "perspective_c1_y": {"Points": [{"interpolation": 2, "co": {"X": 1, "Y": -1}}]}, "position": 29.0, "crop_y": {"Points": [{"interpolation": 2, "co": {"X": 1, "Y": 0}}]}, "perspective_c4_y": {"Points": [{"interpolation": 2, "co": {"X": 1, "Y": -1}}]}, "crop_width": {"Points": [{"interpolation": 2, "co": {"X": 1, "Y": -1}}]}, "title": "!160-Register Spreadsheet as Database.mkv", "layer": 3, "location_x": {"Points": [{"interpolation": 2, "co": {"X": 1, "Y": 0}}]}, "shear_x": {"Points": [{"interpolation": 2, "co": {"X": 1, "Y": 0}}]}, "channel_filter": {"Points": [{"interpolation": 2, "co": {"X": 1, "Y": -1}}]}, "location_y": {"Points": [{"interpolation": 2, "co": {"X": 1, "Y": 0}}]}, "perspective_c1_x": {"Points": [{"interpolation": 2, "co": {"X": 1, "Y": -1}}]}, "id": "4H2AH3X6LW", "start": 0, "perspective_c3_y": {"Points": [{"interpolation": 2, "co": {"X": 1, "Y": -1}}]}, "wave_color": {"blue": {"Points": [{"handle_type": 0, "handle_right": {"X": 0.5, "Y": 0}, "interpolation": 0, "co": {"X": 1, "Y": 255}, "handle_left": {"X": 0.5, "Y": 1}}]}, "red": {"Points": [{"handle_type": 0, "handle_right": {"X": 0.5, "Y": 0}, "interpolation": 0, "co": {"X": 1, "Y": 0}, "handle_left": {"X": 0.5, "Y": 1}}]}, "alpha": {"Points": [{"handle_type": 0, "handle_right": {"X": 0.5, "Y": 0}, "interpolation": 0, "co": {"X": 1, "Y": 255}, "handle_left": {"X": 0.5, "Y": 1}}]}, "green": {"Points": [{"handle_type": 0, "handle_right": {"X": 0.5, "Y": 0}, "interpolation": 0, "co": {"X": 1, "Y": 123}, "handle_left": {"X": 0.5, "Y": 1}}]}}, "perspective_c4_x": {"Points": [{"interpolation": 2, "co": {"X": 1, "Y": -1}}]}}}, {"value": {"position": 104.455, "end": 12.961666666666659, "layer": 2, "title": "Transition", "replace_image": false, "brightness": {"Points": [{"handle_type": 0, "handle_right": {"X": 0.5, "Y": 0}, "interpolation": 0, "co": {"X": 1, "Y": 1}, "handle_left": {"X": 0.5, "Y": 1}}, {"handle_type": 0, "handle_right": {"X": 0.5, "Y": 0}, "interpolation": 0, "co": {"X": 312, "Y": -1}, "handle_left": {"X": 0.5, "Y": 1}}]}, "id": "S119Q0HVEM", "start": 0, "contrast": {"Points": [{"interpolation": 2, "co": {"X": 1, "Y": 3}}]}, "type": "Mask", "reader": {"duration": 86400, "top_field_first": true, "file_size": "1658880", "has_single_image": true, "sample_rate": 0, "pixel_ratio": {"den": 1, "num": 1}, "video_length": "2592000", "channel_layout": 4, "interlaced_frame": false, "vcodec": "", "has_video": true, "has_audio": false, "video_stream_index": -1, "audio_stream_index": -1, "type": "QtImageReader", "fps": {"den": 1, "num": 30}, "display_ratio": {"den": 4, "num": 5}, "channels": 0, "video_timebase": {"den": 30, "num": 1}, "audio_bit_rate": 0, "pixel_format": -1, "height": 576, "width": 720, "acodec": "", "audio_timebase": {"den": 1, "num": 1}, "video_bit_rate": 0, "path": "/usr/lib/python3/dist-packages/openshot_qt/transitions/common/fade.svg"}}, "type": "insert", "partial": false, "key": ["effects"], "old_values": []}, {"value": {"position": 0, "end": 30.816666666666663, "image": "/home/milind/.openshot_qt/thumbnail/W3X0DXJTS6.png", "id": "UM8RJNI4RE", "start": 0, "layer": 0}, "type": "update", "partial": false, "key": ["clips", {"id": "UM8RJNI4RE"}], "old_values": {"perspective_c3_x": {"Points": [{"co": {"X": 1, "Y": -1}, "interpolation": 2}]}, "duration": 86400.0, "perspective_c2_y": {"Points": [{"co": {"X": 1, "Y": -1}, "interpolation": 2}]}, "alpha": {"Points": [{"co": {"X": 1, "Y": 1}, "interpolation": 2}]}, "file_id": "W3X0DXJTS6", "end": 61.81666666666666, "scale_y": {"Points": [{"co": {"X": 1, "Y": 1}, "interpolation": 2}]}, "time": {"Points": [{"co": {"X": 1, "Y": 1}, "interpolation": 2}]}, "volume": {"Points": [{"co": {"X": 1, "Y": 1}, "interpolation": 2}]}, "crop_height": {"Points": [{"co": {"X": 1, "Y": -1}, "interpolation": 2}]}, "effects": [], "rotation": {"Points": [{"co": {"X": 1, "Y": 0}, "interpolation": 2}]}, "has_video": {"Points": [{"co": {"X": 1, "Y": -1}, "interpolation": 2}]}, "crop_x": {"Points": [{"co": {"X": 1, "Y": 0}, "interpolation": 2}]}, "perspective_c2_x": {"Points": [{"co": {"X": 1, "Y": -1}, "interpolation": 2}]}, "scale": 1, "waveform": false, "image": "/home/milind/.openshot_qt/thumbnail/W3X0DXJTS6.png", "has_audio": {"Points": [{"co": {"X": 1, "Y": -1}, "interpolation": 2}]}, "anchor": 0, "reader": {"duration": 86400.0, "type": "QtImageReader", "file_size": "8294400", "has_single_image": true, "sample_rate": 0, "pixel_ratio": {"den": 1, "num": 1}, "video_length": "2592000", "channel_layout": 4, "interlaced_frame": false, "vcodec": "", "has_video": true, "has_audio": false, "video_stream_index": -1, "audio_stream_index": -1, "fps": {"den": 1, "num": 30}, "display_ratio": {"den": 9, "num": 16}, "channels": 0, "audio_bit_rate": 0, "video_timebase": {"den": 30, "num": 1}, "top_field_first": true, "pixel_format": -1, "height": 1080, "width": 1920, "acodec": "", "audio_timebase": {"den": 1, "num": 1}, "video_bit_rate": 0, "path": "/home/milind/Data/Projects/ProgressCard/!000-White-Background.svg"}, "gravity": 4, "channel_mapping": {"Points": [{"co": {"X": 1, "Y": -1}, "interpolation": 2}]}, "scale_x": {"Points": [{"co": {"X": 1, "Y": 1}, "interpolation": 2}]}, "shear_y": {"Points": [{"co": {"X": 1, "Y": 0}, "interpolation": 2}]}, "display": 0, "perspective_c1_y": {"Points": [{"co": {"X": 1, "Y": -1}, "interpolation": 2}]}, "position": 0, "crop_y": {"Points": [{"co": {"X": 1, "Y": 0}, "interpolation": 2}]}, "crop_width": {"Points": [{"co": {"X": 1, "Y": -1}, "interpolation": 2}]}, "title": "!000-White-Background.svg", "layer": 0, "location_x": {"Points": [{"co": {"X": 1, "Y": 0}, "interpolation": 2}]}, "shear_x": {"Points": [{"co": {"X": 1, "Y": 0}, "interpolation": 2}]}, "channel_filter": {"Points": [{"co": {"X": 1, "Y": -1}, "interpolation": 2}]}, "perspective_c3_y": {"Points": [{"co": {"X": 1, "Y": -1}, "interpolation": 2}]}, "location_y": {"Points": [{"co": {"X": 1, "Y": 0}, "interpolation": 2}]}, "perspective_c1_x": {"Points": [{"co": {"X": 1, "Y": -1}, "interpolation": 2}]}, "id": "UM8RJNI4RE", "start": 0, "perspective_c4_y": {"Points": [{"co": {"X": 1, "Y": -1}, "interpolation": 2}]}, "wave_color": {"blue": {"Points": [{"handle_type": 0, "handle_right": {"X": 0.5, "Y": 0}, "interpolation": 0, "co": {"X": 1, "Y": 255}, "handle_left": {"X": 0.5, "Y": 1}}]}, "red": {"Points": [{"handle_type": 0, "handle_right": {"X": 0.5, "Y": 0}, "interpolation": 0, "co": {"X": 1, "Y": 0}, "handle_left": {"X": 0.5, "Y": 1}}]}, "alpha": {"Points": [{"handle_type": 0, "handle_right": {"X": 0.5, "Y": 0}, "interpolation": 0, "co": {"X": 1, "Y": 255}, "handle_left": {"X": 0.5, "Y": 1}}]}, "green": {"Points": [{"handle_type": 0, "handle_right": {"X": 0.5, "Y": 0}, "interpolation": 0, "co": {"X": 1, "Y": 123}, "handle_left": {"X": 0.5, "Y": 1}}]}}, "perspective_c4_x": {"Points": [{"co": {"X": 1, "Y": -1}, "interpolation": 2}]}}}, {"value": null, "type": "delete", "partial": false, "key": ["effects", {"id": "S119Q0HVEM"}], "old_values": {"position": 104.455, "end": 12.961666666666659, "layer": 2, "start": 0, "replace_image": false, "brightness": {"Points": [{"handle_type": 0, "handle_right": {"X": 0.5, "Y": 0}, "interpolation": 0, "co": {"X": 1, "Y": 1}, "handle_left": {"X": 0.5, "Y": 1}}, {"handle_type": 0, "handle_right": {"X": 0.5, "Y": 0}, "interpolation": 0, "co": {"X": 312, "Y": -1}, "handle_left": {"X": 0.5, "Y": 1}}]}, "id": "S119Q0HVEM", "title": "Transition", "contrast": {"Points": [{"interpolation": 2, "co": {"X": 1, "Y": 3}}]}, "type": "Mask", "reader": {"duration": 86400, "top_field_first": true, "file_size": "1658880", "has_single_image": true, "sample_rate": 0, "pixel_ratio": {"den": 1, "num": 1}, "video_length": "2592000", "channel_layout": 4, "interlaced_frame": false, "vcodec": "", "has_video": true, "has_audio": false, "video_stream_index": -1, "audio_stream_index": -1, "type": "QtImageReader", "fps": {"den": 1, "num": 30}, "display_ratio": {"den": 4, "num": 5}, "channels": 0, "video_timebase": {"den": 30, "num": 1}, "audio_bit_rate": 0, "pixel_format": -1, "height": 576, "width": 720, "acodec": "", "audio_timebase": {"den": 1, "num": 1}, "video_bit_rate": 0, "path": "/usr/lib/python3/dist-packages/openshot_qt/transitions/common/fade.svg"}}}, {"value": {"position": 132.853125, "end": 24.101666666666674, "image": "/home/milind/.openshot_qt/thumbnail/VZXSCOZTB9-6.png", "id": "VZXSCOZTB9", "start": 0.18166666666667197, "layer": 2}, "type": "update", "partial": false, "key": ["clips", {"id": "VZXSCOZTB9"}], "old_values": {"perspective_c3_x": {"Points": [{"co": {"X": 1, "Y": -1}, "interpolation": 2}]}, "duration": 88.0, "perspective_c2_y": {"Points": [{"co": {"X": 1, "Y": -1}, "interpolation": 2}]}, "alpha": {"Points": [{"handle_type": 0, "handle_right": {"X": 0.5, "Y": 0}, "interpolation": 0, "co": {"X": 1, "Y": 1}, "handle_left": {"X": 0.5, "Y": 1}}, {"handle_type": 0, "handle_right": {"X": 0.5, "Y": 0}, "interpolation": 0, "co": {"X": 5, "Y": 0}, "handle_left": {"X": 0.5, "Y": 1}}, {"handle_type": 0, "handle_right": {"X": 0.5, "Y": 0}, "interpolation": 0, "co": {"X": 77, "Y": 1}, "handle_left": {"X": 0.5, "Y": 1}}, {"handle_type": 0, "handle_right": {"X": 0.5, "Y": 0}, "interpolation": 0, "co": {"X": 507, "Y": 1}, "handle_left": {"X": 0.5, "Y": 1}}, {"handle_type": 0, "handle_right": {"X": 0.5, "Y": 0}, "interpolation": 0, "co": {"X": 579, "Y": 0}, "handle_left": {"X": 0.5, "Y": 1}}]}, "file_id": "COTVKCWUJG", "channel_mapping": {"Points": [{"co": {"X": 1, "Y": -1}, "interpolation": 2}]}, "scale_y": {"Points": [{"co": {"X": 1, "Y": 1}, "interpolation": 2}]}, "time": {"Points": [{"co": {"X": 1, "Y": 1}, "interpolation": 2}]}, "volume": {"Points": [{"co": {"X": 1, "Y": 1}, "interpolation": 2}]}, "crop_height": {"Points": [{"co": {"X": 1, "Y": -1}, "interpolation": 2}]}, "effects": [], "rotation": {"Points": [{"co": {"X": 1, "Y": 0}, "interpolation": 2}]}, "image": "/home/milind/.openshot_qt/thumbnail/VZXSCOZTB9-6.png", "crop_x": {"Points": [{"co": {"X": 1, "Y": 0}, "interpolation": 2}]}, "perspective_c2_x": {"Points": [{"co": {"X": 1, "Y": -1}, "interpolation": 2}]}, "scale": 1, "waveform": false, "has_video": {"Points": [{"co": {"X": 1, "Y": -1}, "interpolation": 2}]}, "has_audio": {"Points": [{"co": {"X": 1, "Y": -1}, "interpolation": 2}]}, "anchor": 0, "reader": {"duration": 88.0, "type": "FFmpegReader", "file_size": "1030797", "has_single_image": false, "sample_rate": 0, "pixel_ratio": {"den": 1, "num": 1}, "video_length": "2200", "channel_layout": 4, "interlaced_frame": false, "vcodec": "h264", "has_video": true, "has_audio": false, "video_stream_index": 0, "audio_stream_index": -1, "fps": {"den": 1, "num": 25}, "display_ratio": {"den": 384, "num": 683}, "channels": 0, "audio_bit_rate": 0, "video_timebase": {"den": 1000, "num": 1}, "top_field_first": true, "pixel_format": 0, "height": 768, "width": 1366, "acodec": "", "audio_timebase": {"den": 1, "num": 1}, "video_bit_rate": 92739, "path": "/home/milind/Data/Projects/ProgressCard/!190-Drag and Drop Fields.mkv"}, "gravity": 4, "end": 24.101666666666674, "scale_x": {"Points": [{"co": {"X": 1, "Y": 1}, "interpolation": 2}]}, "start": 0.18166666666667197, "shear_y": {"Points": [{"co": {"X": 1, "Y": 0}, "interpolation": 2}]}, "display": 0, "perspective_c1_y": {"Points": [{"co": {"X": 1, "Y": -1}, "interpolation": 2}]}, "position": 104.455, "crop_y": {"Points": [{"co": {"X": 1, "Y": 0}, "interpolation": 2}]}, "crop_width": {"Points": [{"co": {"X": 1, "Y": -1}, "interpolation": 2}]}, "title": "!190-Drag and Drop Fields.mkv", "layer": 2, "location_x": {"Points": [{"co": {"X": 1, "Y": 0}, "interpolation": 2}]}, "shear_x": {"Points": [{"co": {"X": 1, "Y": 0}, "interpolation": 2}]}, "channel_filter": {"Points": [{"co": {"X": 1, "Y": -1}, "interpolation": 2}]}, "location_y": {"Points": [{"co": {"X": 1, "Y": 0}, "interpolation": 2}]}, "perspective_c1_x": {"Points": [{"co": {"X": 1, "Y": -1}, "interpolation": 2}]}, "id": "VZXSCOZTB9", "perspective_c3_y": {"Points": [{"co": {"X": 1, "Y": -1}, "interpolation": 2}]}, "perspective_c4_y": {"Points": [{"co": {"X": 1, "Y": -1}, "interpolation": 2}]}, "wave_color": {"blue": {"Points": [{"handle_type": 0, "handle_right": {"X": 0.5, "Y": 0}, "interpolation": 0, "co": {"X": 1, "Y": 255}, "handle_left": {"X": 0.5, "Y": 1}}]}, "red": {"Points": [{"handle_type": 0, "handle_right": {"X": 0.5, "Y": 0}, "interpolation": 0, "co": {"X": 1, "Y": 0}, "handle_left": {"X": 0.5, "Y": 1}}]}, "alpha": {"Points": [{"handle_type": 0, "handle_right": {"X": 0.5, "Y": 0}, "interpolation": 0, "co": {"X": 1, "Y": 255}, "handle_left": {"X": 0.5, "Y": 1}}]}, "green": {"Points": [{"handle_type": 0, "handle_right": {"X": 0.5, "Y": 0}, "interpolation": 0, "co": {"X": 1, "Y": 123}, "handle_left": {"X": 0.5, "Y": 1}}]}}, "perspective_c4_x": {"Points": [{"co": {"X": 1, "Y": -1}, "interpolation": 2}]}}}, {"value": {"position": 49.2875, "end": 61, "image": "/home/milind/.openshot_qt/thumbnail/YJ84IVW8VE.png", "id": "4H2AH3X6LW", "start": 0, "layer": 2}, "type": "update", "partial": false, "key": ["clips", {"id": "4H2AH3X6LW"}], "old_values": {"perspective_c3_x": {"Points": [{"interpolation": 2, "co": {"X": 1, "Y": -1}}]}, "duration": 61.0, "perspective_c2_y": {"Points": [{"interpolation": 2, "co": {"X": 1, "Y": -1}}]}, "alpha": {"Points": [{"interpolation": 2, "co": {"X": 1, "Y": 1}}]}, "file_id": "YJ84IVW8VE", "channel_mapping": {"Points": [{"interpolation": 2, "co": {"X": 1, "Y": -1}}]}, "scale_y": {"Points": [{"interpolation": 2, "co": {"X": 1, "Y": 1}}]}, "time": {"Points": [{"interpolation": 2, "co": {"X": 1, "Y": 1}}]}, "volume": {"Points": [{"interpolation": 2, "co": {"X": 1, "Y": 1}}]}, "crop_height": {"Points": [{"interpolation": 2, "co": {"X": 1, "Y": -1}}]}, "effects": [], "rotation": {"Points": [{"interpolation": 2, "co": {"X": 1, "Y": 0}}]}, "image": "/home/milind/.openshot_qt/thumbnail/YJ84IVW8VE.png", "crop_x": {"Points": [{"interpolation": 2, "co": {"X": 1, "Y": 0}}]}, "perspective_c2_x": {"Points": [{"interpolation": 2, "co": {"X": 1, "Y": -1}}]}, "scale": 1, "waveform": false, "has_video": {"Points": [{"interpolation": 2, "co": {"X": 1, "Y": -1}}]}, "has_audio": {"Points": [{"interpolation": 2, "co": {"X": 1, "Y": -1}}]}, "anchor": 0, "reader": {"duration": 61.0, "top_field_first": true, "file_size": "666485", "has_single_image": false, "sample_rate": 0, "pixel_ratio": {"den": 1, "num": 1}, "video_length": "1525", "channel_layout": 4, "interlaced_frame": false, "vcodec": "h264", "has_video": true, "has_audio": false, "video_stream_index": 0, "audio_stream_index": -1, "type": "FFmpegReader", "fps": {"den": 1, "num": 25}, "display_ratio": {"den": 384, "num": 683}, "channels": 0, "video_timebase": {"den": 1000, "num": 1}, "audio_bit_rate": 0, "pixel_format": 0, "height": 768, "width": 1366, "acodec": "", "audio_timebase": {"den": 1, "num": 1}, "video_bit_rate": 87179, "path": "/home/milind/Data/Projects/ProgressCard/!160-Register Spreadsheet as Database.mkv"}, "gravity": 4, "end": 61, "scale_x": {"Points": [{"interpolation": 2, "co": {"X": 1, "Y": 1}}]}, "shear_y": {"Points": [{"interpolation": 2, "co": {"X": 1, "Y": 0}}]}, "display": 0, "perspective_c1_y": {"Points": [{"interpolation": 2, "co": {"X": 1, "Y": -1}}]}, "position": 56.416666666666664, "crop_y": {"Points": [{"interpolation": 2, "co": {"X": 1, "Y": 0}}]}, "perspective_c4_y": {"Points": [{"interpolation": 2, "co": {"X": 1, "Y": -1}}]}, "crop_width": {"Points": [{"interpolation": 2, "co": {"X": 1, "Y": -1}}]}, "title": "!160-Register Spreadsheet as Database.mkv", "layer": 2, "location_x": {"Points": [{"interpolation": 2, "co": {"X": 1, "Y": 0}}]}, "shear_x": {"Points": [{"interpolation": 2, "co": {"X": 1, "Y": 0}}]}, "channel_filter": {"Points": [{"interpolation": 2, "co": {"X": 1, "Y": -1}}]}, "location_y": {"Points": [{"interpolation": 2, "co": {"X": 1, "Y": 0}}]}, "perspective_c1_x": {"Points": [{"interpolation": 2, "co": {"X": 1, "Y": -1}}]}, "id": "4H2AH3X6LW", "start": 0, "perspective_c3_y": {"Points": [{"interpolation": 2, "co": {"X": 1, "Y": -1}}]}, "wave_color": {"blue": {"Points": [{"handle_type": 0, "handle_right": {"X": 0.5, "Y": 0}, "interpolation": 0, "co": {"X": 1, "Y": 255}, "handle_left": {"X": 0.5, "Y": 1}}]}, "red": {"Points": [{"handle_type": 0, "handle_right": {"X": 0.5, "Y": 0}, "interpolation": 0, "co": {"X": 1, "Y": 0}, "handle_left": {"X": 0.5, "Y": 1}}]}, "alpha": {"Points": [{"handle_type": 0, "handle_right": {"X": 0.5, "Y": 0}, "interpolation": 0, "co": {"X": 1, "Y": 255}, "handle_left": {"X": 0.5, "Y": 1}}]}, "green": {"Points": [{"handle_type": 0, "handle_right": {"X": 0.5, "Y": 0}, "interpolation": 0, "co": {"X": 1, "Y": 123}, "handle_left": {"X": 0.5, "Y": 1}}]}}, "perspective_c4_x": {"Points": [{"interpolation": 2, "co": {"X": 1, "Y": -1}}]}}}, {"value": {"position": 47.95625, "end": 61, "image": "/home/milind/.openshot_qt/thumbnail/YJ84IVW8VE.png", "id": "4H2AH3X6LW", "start": 0, "layer": 4}, "type": "update", "partial": false, "key": ["clips", {"id": "4H2AH3X6LW"}], "old_values": {"perspective_c3_x": {"Points": [{"interpolation": 2, "co": {"X": 1, "Y": -1}}]}, "duration": 61.0, "perspective_c2_y": {"Points": [{"interpolation": 2, "co": {"X": 1, "Y": -1}}]}, "alpha": {"Points": [{"interpolation": 2, "co": {"X": 1, "Y": 1}}]}, "file_id": "YJ84IVW8VE", "channel_mapping": {"Points": [{"interpolation": 2, "co": {"X": 1, "Y": -1}}]}, "scale_y": {"Points": [{"interpolation": 2, "co": {"X": 1, "Y": 1}}]}, "time": {"Points": [{"interpolation": 2, "co": {"X": 1, "Y": 1}}]}, "volume": {"Points": [{"interpolation": 2, "co": {"X": 1, "Y": 1}}]}, "crop_height": {"Points": [{"interpolation": 2, "co": {"X": 1, "Y": -1}}]}, "effects": [], "rotation": {"Points": [{"interpolation": 2, "co": {"X": 1, "Y": 0}}]}, "image": "/home/milind/.openshot_qt/thumbnail/YJ84IVW8VE.png", "crop_x": {"Points": [{"interpolation": 2, "co": {"X": 1, "Y": 0}}]}, "perspective_c2_x": {"Points": [{"interpolation": 2, "co": {"X": 1, "Y": -1}}]}, "scale": 1, "waveform": false, "has_video": {"Points": [{"interpolation": 2, "co": {"X": 1, "Y": -1}}]}, "has_audio": {"Points": [{"interpolation": 2, "co": {"X": 1, "Y": -1}}]}, "anchor": 0, "reader": {"duration": 61.0, "top_field_first": true, "file_size": "666485", "has_single_image": false, "sample_rate": 0, "pixel_ratio": {"den": 1, "num": 1}, "video_length": "1525", "channel_layout": 4, "interlaced_frame": false, "vcodec": "h264", "has_video": true, "has_audio": false, "video_stream_index": 0, "audio_stream_index": -1, "type": "FFmpegReader", "fps": {"den": 1, "num": 25}, "display_ratio": {"den": 384, "num": 683}, "channels": 0, "video_timebase": {"den": 1000, "num": 1}, "audio_bit_rate": 0, "pixel_format": 0, "height": 768, "width": 1366, "acodec": "", "audio_timebase": {"den": 1, "num": 1}, "video_bit_rate": 87179, "path": "/home/milind/Data/Projects/ProgressCard/!160-Register Spreadsheet as Database.mkv"}, "gravity": 4, "end": 61, "scale_x": {"Points": [{"interpolation": 2, "co": {"X": 1, "Y": 1}}]}, "shear_y": {"Points": [{"interpolation": 2, "co": {"X": 1, "Y": 0}}]}, "display": 0, "perspective_c1_y": {"Points": [{"interpolation": 2, "co": {"X": 1, "Y": -1}}]}, "position": 49.2875, "crop_y": {"Points": [{"interpolation": 2, "co": {"X": 1, "Y": 0}}]}, "perspective_c4_y": {"Points": [{"interpolation": 2, "co": {"X": 1, "Y": -1}}]}, "crop_width": {"Points": [{"interpolation": 2, "co": {"X": 1, "Y": -1}}]}, "title": "!160-Register Spreadsheet as Database.mkv", "layer": 2, "location_x": {"Points": [{"interpolation": 2, "co": {"X": 1, "Y": 0}}]}, "shear_x": {"Points": [{"interpolation": 2, "co": {"X": 1, "Y": 0}}]}, "channel_filter": {"Points": [{"interpolation": 2, "co": {"X": 1, "Y": -1}}]}, "location_y": {"Points": [{"interpolation": 2, "co": {"X": 1, "Y": 0}}]}, "perspective_c1_x": {"Points": [{"interpolation": 2, "co": {"X": 1, "Y": -1}}]}, "id": "4H2AH3X6LW", "start": 0, "perspective_c3_y": {"Points": [{"interpolation": 2, "co": {"X": 1, "Y": -1}}]}, "wave_color": {"blue": {"Points": [{"handle_type": 0, "handle_right": {"X": 0.5, "Y": 0}, "interpolation": 0, "co": {"X": 1, "Y": 255}, "handle_left": {"X": 0.5, "Y": 1}}]}, "red": {"Points": [{"handle_type": 0, "handle_right": {"X": 0.5, "Y": 0}, "interpolation": 0, "co": {"X": 1, "Y": 0}, "handle_left": {"X": 0.5, "Y": 1}}]}, "alpha": {"Points": [{"handle_type": 0, "handle_right": {"X": 0.5, "Y": 0}, "interpolation": 0, "co": {"X": 1, "Y": 255}, "handle_left": {"X": 0.5, "Y": 1}}]}, "green": {"Points": [{"handle_type": 0, "handle_right": {"X": 0.5, "Y": 0}, "interpolation": 0, "co": {"X": 1, "Y": 123}, "handle_left": {"X": 0.5, "Y": 1}}]}}, "perspective_c4_x": {"Points": [{"interpolation": 2, "co": {"X": 1, "Y": -1}}]}}}, {"value": {"position": 72.053125, "end": 61, "image": "/home/milind/.openshot_qt/thumbnail/YJ84IVW8VE.png", "id": "4H2AH3X6LW", "start": 0, "layer": 4}, "type": "update", "partial": false, "key": ["clips", {"id": "4H2AH3X6LW"}], "old_values": {"perspective_c3_x": {"Points": [{"interpolation": 2, "co": {"X": 1, "Y": -1}}]}, "duration": 61.0, "perspective_c2_y": {"Points": [{"interpolation": 2, "co": {"X": 1, "Y": -1}}]}, "alpha": {"Points": [{"interpolation": 2, "co": {"X": 1, "Y": 1}}]}, "file_id": "YJ84IVW8VE", "channel_mapping": {"Points": [{"interpolation": 2, "co": {"X": 1, "Y": -1}}]}, "scale_y": {"Points": [{"interpolation": 2, "co": {"X": 1, "Y": 1}}]}, "time": {"Points": [{"interpolation": 2, "co": {"X": 1, "Y": 1}}]}, "volume": {"Points": [{"interpolation": 2, "co": {"X": 1, "Y": 1}}]}, "crop_height": {"Points": [{"interpolation": 2, "co": {"X": 1, "Y": -1}}]}, "effects": [], "rotation": {"Points": [{"interpolation": 2, "co": {"X": 1, "Y": 0}}]}, "image": "/home/milind/.openshot_qt/thumbnail/YJ84IVW8VE.png", "crop_x": {"Points": [{"interpolation": 2, "co": {"X": 1, "Y": 0}}]}, "perspective_c2_x": {"Points": [{"interpolation": 2, "co": {"X": 1, "Y": -1}}]}, "scale": 1, "waveform": false, "has_video": {"Points": [{"interpolation": 2, "co": {"X": 1, "Y": -1}}]}, "has_audio": {"Points": [{"interpolation": 2, "co": {"X": 1, "Y": -1}}]}, "anchor": 0, "reader": {"duration": 61.0, "top_field_first": true, "file_size": "666485", "has_single_image": false, "sample_rate": 0, "pixel_ratio": {"den": 1, "num": 1}, "video_length": "1525", "channel_layout": 4, "interlaced_frame": false, "vcodec": "h264", "has_video": true, "has_audio": false, "video_stream_index": 0, "audio_stream_index": -1, "type": "FFmpegReader", "fps": {"den": 1, "num": 25}, "display_ratio": {"den": 384, "num": 683}, "channels": 0, "video_timebase": {"den": 1000, "num": 1}, "audio_bit_rate": 0, "pixel_format": 0, "height": 768, "width": 1366, "acodec": "", "audio_timebase": {"den": 1, "num": 1}, "video_bit_rate": 87179, "path": "/home/milind/Data/Projects/ProgressCard/!160-Register Spreadsheet as Database.mkv"}, "gravity": 4, "end": 61, "scale_x": {"Points": [{"interpolation": 2, "co": {"X": 1, "Y": 1}}]}, "shear_y": {"Points": [{"interpolation": 2, "co": {"X": 1, "Y": 0}}]}, "display": 0, "perspective_c1_y": {"Points": [{"interpolation": 2, "co": {"X": 1, "Y": -1}}]}, "position": 47.95625, "crop_y": {"Points": [{"interpolation": 2, "co": {"X": 1, "Y": 0}}]}, "perspective_c4_y": {"Points": [{"interpolation": 2, "co": {"X": 1, "Y": -1}}]}, "crop_width": {"Points": [{"interpolation": 2, "co": {"X": 1, "Y": -1}}]}, "title": "!160-Register Spreadsheet as Database.mkv", "layer": 4, "location_x": {"Points": [{"interpolation": 2, "co": {"X": 1, "Y": 0}}]}, "shear_x": {"Points": [{"interpolation": 2, "co": {"X": 1, "Y": 0}}]}, "channel_filter": {"Points": [{"interpolation": 2, "co": {"X": 1, "Y": -1}}]}, "location_y": {"Points": [{"interpolation": 2, "co": {"X": 1, "Y": 0}}]}, "perspective_c1_x": {"Points": [{"interpolation": 2, "co": {"X": 1, "Y": -1}}]}, "id": "4H2AH3X6LW", "start": 0, "perspective_c3_y": {"Points": [{"interpolation": 2, "co": {"X": 1, "Y": -1}}]}, "wave_color": {"blue": {"Points": [{"handle_type": 0, "handle_right": {"X": 0.5, "Y": 0}, "interpolation": 0, "co": {"X": 1, "Y": 255}, "handle_left": {"X": 0.5, "Y": 1}}]}, "red": {"Points": [{"handle_type": 0, "handle_right": {"X": 0.5, "Y": 0}, "interpolation": 0, "co": {"X": 1, "Y": 0}, "handle_left": {"X": 0.5, "Y": 1}}]}, "alpha": {"Points": [{"handle_type": 0, "handle_right": {"X": 0.5, "Y": 0}, "interpolation": 0, "co": {"X": 1, "Y": 255}, "handle_left": {"X": 0.5, "Y": 1}}]}, "green": {"Points": [{"handle_type": 0, "handle_right": {"X": 0.5, "Y": 0}, "interpolation": 0, "co": {"X": 1, "Y": 123}, "handle_left": {"X": 0.5, "Y": 1}}]}}, "perspective_c4_x": {"Points": [{"interpolation": 2, "co": {"X": 1, "Y": -1}}]}}}, {"value": null, "type": "delete", "partial": false, "key": ["clips", {"id": "4H2AH3X6LW"}], "old_values": {"perspective_c3_x": {"Points": [{"interpolation": 2, "co": {"X": 1, "Y": -1}}]}, "duration": 61.0, "perspective_c2_y": {"Points": [{"interpolation": 2, "co": {"X": 1, "Y": -1}}]}, "alpha": {"Points": [{"interpolation": 2, "co": {"X": 1, "Y": 1}}]}, "file_id": "YJ84IVW8VE", "channel_mapping": {"Points": [{"interpolation": 2, "co": {"X": 1, "Y": -1}}]}, "scale_y": {"Points": [{"interpolation": 2, "co": {"X": 1, "Y": 1}}]}, "time": {"Points": [{"interpolation": 2, "co": {"X": 1, "Y": 1}}]}, "volume": {"Points": [{"interpolation": 2, "co": {"X": 1, "Y": 1}}]}, "crop_height": {"Points": [{"interpolation": 2, "co": {"X": 1, "Y": -1}}]}, "effects": [], "rotation": {"Points": [{"interpolation": 2, "co": {"X": 1, "Y": 0}}]}, "image": "/home/milind/.openshot_qt/thumbnail/YJ84IVW8VE.png", "crop_x": {"Points": [{"interpolation": 2, "co": {"X": 1, "Y": 0}}]}, "perspective_c2_x": {"Points": [{"interpolation": 2, "co": {"X": 1, "Y": -1}}]}, "scale": 1, "waveform": false, "has_video": {"Points": [{"interpolation": 2, "co": {"X": 1, "Y": -1}}]}, "has_audio": {"Points": [{"interpolation": 2, "co": {"X": 1, "Y": -1}}]}, "anchor": 0, "reader": {"duration": 61.0, "top_field_first": true, "file_size": "666485", "has_single_image": false, "sample_rate": 0, "pixel_ratio": {"den": 1, "num": 1}, "video_length": "1525", "channel_layout": 4, "interlaced_frame": false, "vcodec": "h264", "has_video": true, "has_audio": false, "video_stream_index": 0, "audio_stream_index": -1, "type": "FFmpegReader", "fps": {"den": 1, "num": 25}, "display_ratio": {"den": 384, "num": 683}, "channels": 0, "video_timebase": {"den": 1000, "num": 1}, "audio_bit_rate": 0, "pixel_format": 0, "height": 768, "width": 1366, "acodec": "", "audio_timebase": {"den": 1, "num": 1}, "video_bit_rate": 87179, "path": "/home/milind/Data/Projects/ProgressCard/!160-Register Spreadsheet as Database.mkv"}, "gravity": 4, "end": 61, "scale_x": {"Points": [{"interpolation": 2, "co": {"X": 1, "Y": 1}}]}, "shear_y": {"Points": [{"interpolation": 2, "co": {"X": 1, "Y": 0}}]}, "display": 0, "perspective_c1_y": {"Points": [{"interpolation": 2, "co": {"X": 1, "Y": -1}}]}, "position": 72.053125, "crop_y": {"Points": [{"interpolation": 2, "co": {"X": 1, "Y": 0}}]}, "perspective_c4_y": {"Points": [{"interpolation": 2, "co": {"X": 1, "Y": -1}}]}, "crop_width": {"Points": [{"interpolation": 2, "co": {"X": 1, "Y": -1}}]}, "title": "!160-Register Spreadsheet as Database.mkv", "layer": 4, "location_x": {"Points": [{"interpolation": 2, "co": {"X": 1, "Y": 0}}]}, "shear_x": {"Points": [{"interpolation": 2, "co": {"X": 1, "Y": 0}}]}, "channel_filter": {"Points": [{"interpolation": 2, "co": {"X": 1, "Y": -1}}]}, "location_y": {"Points": [{"interpolation": 2, "co": {"X": 1, "Y": 0}}]}, "perspective_c1_x": {"Points": [{"interpolation": 2, "co": {"X": 1, "Y": -1}}]}, "id": "4H2AH3X6LW", "start": 0, "perspective_c3_y": {"Points": [{"interpolation": 2, "co": {"X": 1, "Y": -1}}]}, "wave_color": {"blue": {"Points": [{"handle_type": 0, "handle_right": {"X": 0.5, "Y": 0}, "interpolation": 0, "co": {"X": 1, "Y": 255}, "handle_left": {"X": 0.5, "Y": 1}}]}, "red": {"Points": [{"handle_type": 0, "handle_right": {"X": 0.5, "Y": 0}, "interpolation": 0, "co": {"X": 1, "Y": 0}, "handle_left": {"X": 0.5, "Y": 1}}]}, "alpha": {"Points": [{"handle_type": 0, "handle_right": {"X": 0.5, "Y": 0}, "interpolation": 0, "co": {"X": 1, "Y": 255}, "handle_left": {"X": 0.5, "Y": 1}}]}, "green": {"Points": [{"handle_type": 0, "handle_right": {"X": 0.5, "Y": 0}, "interpolation": 0, "co": {"X": 1, "Y": 123}, "handle_left": {"X": 0.5, "Y": 1}}]}}, "perspective_c4_x": {"Points": [{"interpolation": 2, "co": {"X": 1, "Y": -1}}]}}}, {"value": {"perspective_c1_y": {"Points": [{"co": {"X": 1, "Y": -1}, "interpolation": 2}]}, "perspective_c3_x": {"Points": [{"co": {"X": 1, "Y": -1}, "interpolation": 2}]}, "reader": {"duration": 67.0, "type": "FFmpegReader", "file_size": "331213", "has_single_image": false, "sample_rate": 0, "pixel_ratio": {"den": 1, "num": 1}, "channel_layout": 4, "video_length": "1675", "interlaced_frame": false, "vcodec": "h264", "has_video": true, "has_audio": false, "video_stream_index": 0, "audio_stream_index": -1, "fps": {"den": 1, "num": 25}, "display_ratio": {"den": 276, "num": 407}, "channels": 0, "audio_bit_rate": 0, "video_timebase": {"den": 1000, "num": 1}, "top_field_first": true, "pixel_format": 0, "height": 552, "width": 814, "acodec": "", "audio_timebase": {"den": 1, "num": 1}, "video_bit_rate": 39547, "path": "/home/milind/Videos/Finish Connection.mkv"}, "perspective_c2_y": {"Points": [{"co": {"X": 1, "Y": -1}, "interpolation": 2}]}, "alpha": {"Points": [{"co": {"X": 1, "Y": 1}, "interpolation": 2}, {"handle_type": 0, "handle_right": {"X": 0.5, "Y": 0}, "interpolation": 0, "co": {"X": 1, "Y": 0}, "handle_left": {"X": 0.5, "Y": 1}}, {"handle_type": 0, "handle_right": {"X": 0.5, "Y": 0}, "interpolation": 0, "co": {"X": 73, "Y": 1}, "handle_left": {"X": 0.5, "Y": 1}}, {"handle_type": 0, "handle_right": {"X": 0.5, "Y": 0}, "co": {"X": 634, "Y": 1}, "interpolation": 0, "handle_left": {"X": 0.5, "Y": 1}}, {"handle_type": 0, "handle_right": {"X": 0.5, "Y": 0}, "co": {"X": 706, "Y": 0}, "interpolation": 0, "handle_left": {"X": 0.5, "Y": 1}}]}, "gravity": 4, "file_id": "21YUL66NMK", "duration": 67.0, "scale_y": {"Points": [{"interpolation": 2, "co": {"X": 1, "Y": 1}}, {"co": {"X": 114, "Y": 1.7999999523162842}, "interpolation": 1}]}, "time": {"Points": [{"co": {"X": 1, "Y": 1}, "interpolation": 2}]}, "volume": {"Points": [{"co": {"X": 1, "Y": 1}, "interpolation": 2}]}, "crop_height": {"Points": [{"co": {"X": 1, "Y": -1}, "interpolation": 2}]}, "effects": [], "rotation": {"Points": [{"co": {"X": 1, "Y": 0}, "interpolation": 2}, {"interpolation": 1, "co": {"X": 114, "Y": 0.0}}]}, "image": "/home/milind/.openshot_qt/thumbnail/21YUL66NMK.png", "crop_x": {"Points": [{"co": {"X": 1, "Y": 0}, "interpolation": 2}]}, "perspective_c2_x": {"Points": [{"co": {"X": 1, "Y": -1}, "interpolation": 2}]}, "scale": 1, "waveform": false, "has_video": {"Points": [{"co": {"X": 1, "Y": -1}, "interpolation": 2}]}, "has_audio": {"Points": [{"co": {"X": 1, "Y": -1}, "interpolation": 2}]}, "anchor": 0, "perspective_c3_y": {"Points": [{"co": {"X": 1, "Y": -1}, "interpolation": 2}]}, "position": 56.415625, "end": 29.375, "scale_x": {"Points": [{"interpolation": 2, "co": {"X": 1, "Y": 1}}, {"co": {"X": 114, "Y": 1.7999999523162842}, "interpolation": 1}]}, "shear_y": {"Points": [{"co": {"X": 1, "Y": 0}, "interpolation": 2}]}, "display": 0, "crop_width": {"Points": [{"co": {"X": 1, "Y": -1}, "interpolation": 2}]}, "location_x": {"Points": [{"co": {"X": 1, "Y": 0}, "interpolation": 2}, {"interpolation": 1, "co": {"X": 114, "Y": -0.10000000149011612}}]}, "crop_y": {"Points": [{"co": {"X": 1, "Y": 0}, "interpolation": 2}]}, "channel_mapping": {"Points": [{"co": {"X": 1, "Y": -1}, "interpolation": 2}]}, "title": "Finish Connection.mkv", "layer": 3, "shear_x": {"Points": [{"co": {"X": 1, "Y": 0}, "interpolation": 2}]}, "channel_filter": {"Points": [{"co": {"X": 1, "Y": -1}, "interpolation": 2}]}, "location_y": {"Points": [{"interpolation": 2, "co": {"X": 1, "Y": 0}}, {"co": {"X": 114, "Y": 0.4000000059604645}, "interpolation": 1}, {"interpolation": 1, "co": {"X": 562, "Y": -0.4000000059604645}}, {"interpolation": 1, "co": {"X": 354, "Y": 0.4000000059604645}}, {"co": {"X": 496, "Y": -0.4000000059604645}, "interpolation": 1}, {"interpolation": 1, "co": {"X": 450, "Y": -0.4000000059604645}}, {"interpolation": 1, "co": {"X": 421, "Y": -0.4000000059604645}}]}, "perspective_c1_x": {"Points": [{"co": {"X": 1, "Y": -1}, "interpolation": 2}]}, "id": "BOK53Q039G", "start": 0, "perspective_c4_y": {"Points": [{"co": {"X": 1, "Y": -1}, "interpolation": 2}]}, "wave_color": {"alpha": {"Points": [{"handle_type": 0, "handle_right": {"X": 0.5, "Y": 0}, "co": {"X": 1, "Y": 255}, "interpolation": 0, "handle_left": {"X": 0.5, "Y": 1}}]}, "red": {"Points": [{"handle_type": 0, "handle_right": {"X": 0.5, "Y": 0}, "co": {"X": 1, "Y": 0}, "interpolation": 0, "handle_left": {"X": 0.5, "Y": 1}}]}, "blue": {"Points": [{"handle_type": 0, "handle_right": {"X": 0.5, "Y": 0}, "co": {"X": 1, "Y": 255}, "interpolation": 0, "handle_left": {"X": 0.5, "Y": 1}}]}, "green": {"Points": [{"handle_type": 0, "handle_right": {"X": 0.5, "Y": 0}, "co": {"X": 1, "Y": 123}, "interpolation": 0, "handle_left": {"X": 0.5, "Y": 1}}]}}, "perspective_c4_x": {"Points": [{"co": {"X": 1, "Y": -1}, "interpolation": 2}]}}, "type": "insert", "partial": false, "key": ["clips"], "old_values": [{"perspective_c3_x": {"Points": [{"co": {"X": 1, "Y": -1}, "interpolation": 2}]}, "duration": 86400.0, "perspective_c2_y": {"Points": [{"co": {"X": 1, "Y": -1}, "interpolation": 2}]}, "alpha": {"Points": [{"co": {"X": 1, "Y": 1}, "interpolation": 2}]}, "title": "!000-White-Background.svg", "file_id": "W3X0DXJTS6", "end": 30.816666666666663, "scale_y": {"Points": [{"co": {"X": 1, "Y": 1}, "interpolation": 2}]}, "time": {"Points": [{"co": {"X": 1, "Y": 1}, "interpolation": 2}]}, "volume": {"Points": [{"co": {"X": 1, "Y": 1}, "interpolation": 2}]}, "crop_height": {"Points": [{"co": {"X": 1, "Y": -1}, "interpolation": 2}]}, "effects": [], "rotation": {"Points": [{"co": {"X": 1, "Y": 0}, "interpolation": 2}]}, "image": "/home/milind/.openshot_qt/thumbnail/W3X0DXJTS6.png", "crop_x": {"Points": [{"co": {"X": 1, "Y": 0}, "interpolation": 2}]}, "perspective_c2_x": {"Points": [{"co": {"X": 1, "Y": -1}, "interpolation": 2}]}, "scale": 1, "has_video": {"Points": [{"co": {"X": 1, "Y": -1}, "interpolation": 2}]}, "has_audio": {"Points": [{"co": {"X": 1, "Y": -1}, "interpolation": 2}]}, "anchor": 0, "reader": {"duration": 86400.0, "top_field_first": true, "file_size": "8294400", "has_single_image": true, "sample_rate": 0, "pixel_ratio": {"den": 1, "num": 1}, "video_length": "2592000", "channel_layout": 4, "interlaced_frame": false, "vcodec": "", "has_video": true, "has_audio": false, "video_stream_index": -1, "audio_stream_index": -1, "type": "QtImageReader", "fps": {"den": 1, "num": 30}, "display_ratio": {"den": 9, "num": 16}, "channels": 0, "video_timebase": {"den": 30, "num": 1}, "audio_bit_rate": 0, "pixel_format": -1, "height": 1080, "width": 1920, "acodec": "", "audio_timebase": {"den": 1, "num": 1}, "video_bit_rate": 0, "path": "/home/milind/Data/Projects/ProgressCard/!000-White-Background.svg"}, "gravity": 4, "channel_mapping": {"Points": [{"co": {"X": 1, "Y": -1}, "interpolation": 2}]}, "scale_x": {"Points": [{"co": {"X": 1, "Y": 1}, "interpolation": 2}]}, "shear_y": {"Points": [{"co": {"X": 1, "Y": 0}, "interpolation": 2}]}, "display": 0, "perspective_c1_y": {"Points": [{"co": {"X": 1, "Y": -1}, "interpolation": 2}]}, "position": 0, "crop_y": {"Points": [{"co": {"X": 1, "Y": 0}, "interpolation": 2}]}, "perspective_c4_y": {"Points": [{"co": {"X": 1, "Y": -1}, "interpolation": 2}]}, "crop_width": {"Points": [{"co": {"X": 1, "Y": -1}, "interpolation": 2}]}, "waveform": false, "layer": 0, "location_x": {"Points": [{"co": {"X": 1, "Y": 0}, "interpolation": 2}]}, "shear_x": {"Points": [{"co": {"X": 1, "Y": 0}, "interpolation": 2}]}, "channel_filter": {"Points": [{"co": {"X": 1, "Y": -1}, "interpolation": 2}]}, "location_y": {"Points": [{"co": {"X": 1, "Y": 0}, "interpolation": 2}]}, "perspective_c1_x": {"Points": [{"co": {"X": 1, "Y": -1}, "interpolation": 2}]}, "id": "UM8RJNI4RE", "start": 0, "perspective_c3_y": {"Points": [{"co": {"X": 1, "Y": -1}, "interpolation": 2}]}, "wave_color": {"blue": {"Points": [{"handle_type": 0, "handle_right": {"X": 0.5, "Y": 0}, "interpolation": 0, "co": {"X": 1, "Y": 255}, "handle_left": {"X": 0.5, "Y": 1}}]}, "red": {"Points": [{"handle_type": 0, "handle_right": {"X": 0.5, "Y": 0}, "interpolation": 0, "co": {"X": 1, "Y": 0}, "handle_left": {"X": 0.5, "Y": 1}}]}, "alpha": {"Points": [{"handle_type": 0, "handle_right": {"X": 0.5, "Y": 0}, "interpolation": 0, "co": {"X": 1, "Y": 255}, "handle_left": {"X": 0.5, "Y": 1}}]}, "green": {"Points": [{"handle_type": 0, "handle_right": {"X": 0.5, "Y": 0}, "interpolation": 0, "co": {"X": 1, "Y": 123}, "handle_left": {"X": 0.5, "Y": 1}}]}}, "perspective_c4_x": {"Points": [{"co": {"X": 1, "Y": -1}, "interpolation": 2}]}}, {"perspective_c3_x": {"Points": [{"co": {"X": 1, "Y": -1}, "interpolation": 2}]}, "duration": 61.0, "perspective_c2_y": {"Points": [{"co": {"X": 1, "Y": -1}, "interpolation": 2}]}, "alpha": {"Points": [{"handle_type": 0, "handle_right": {"X": 0.5, "Y": 0}, "co": {"X": 1, "Y": 1}, "interpolation": 0, "handle_left": {"X": 0.5, "Y": 1}}, {"handle_type": 0, "handle_right": {"X": 0.5, "Y": 0}, "interpolation": 0, "co": {"X": 1, "Y": 0}, "handle_left": {"X": 0.5, "Y": 1}}, {"handle_type": 0, "handle_right": {"X": 0.5, "Y": 0}, "interpolation": 0, "co": {"X": 73, "Y": 1}, "handle_left": {"X": 0.5, "Y": 1}}, {"handle_type": 0, "handle_right": {"X": 0.5, "Y": 0}, "co": {"X": 425, "Y": 1}, "interpolation": 0, "handle_left": {"X": 0.5, "Y": 1}}, {"handle_type": 0, "handle_right": {"X": 0.5, "Y": 0}, "co": {"X": 497, "Y": 0}, "interpolation": 0, "handle_left": {"X": 0.5, "Y": 1}}]}, "file_id": "YJ84IVW8VE", "channel_mapping": {"Points": [{"co": {"X": 1, "Y": -1}, "interpolation": 2}]}, "scale_y": {"Points": [{"handle_type": 0, "handle_right": {"X": 0.5, "Y": 0}, "interpolation": 0, "co": {"X": 1, "Y": 1.2000000476837158}, "handle_left": {"X": 0.5, "Y": 1}}, {"co": {"X": 68, "Y": 3.0}, "interpolation": 1}]}, "time": {"Points": [{"co": {"X": 1, "Y": 1}, "interpolation": 2}]}, "volume": {"Points": [{"co": {"X": 1, "Y": 1}, "interpolation": 2}]}, "crop_height": {"Points": [{"co": {"X": 1, "Y": -1}, "interpolation": 2}]}, "effects": [], "rotation": {"Points": [{"co": {"X": 1, "Y": 0}, "interpolation": 2}]}, "has_video": {"Points": [{"co": {"X": 1, "Y": -1}, "interpolation": 2}]}, "crop_x": {"Points": [{"co": {"X": 1, "Y": 0}, "interpolation": 2}]}, "perspective_c2_x": {"Points": [{"co": {"X": 1, "Y": -1}, "interpolation": 2}]}, "scale": 1, "waveform": false, "image": "/home/milind/.openshot_qt/thumbnail/YJ84IVW8VE.png", "has_audio": {"Points": [{"co": {"X": 1, "Y": -1}, "interpolation": 2}]}, "anchor": 0, "reader": {"duration": 61.0, "top_field_first": true, "file_size": "666485", "has_single_image": false, "sample_rate": 0, "pixel_ratio": {"den": 1, "num": 1}, "video_length": "1525", "channel_layout": 4, "interlaced_frame": false, "vcodec": "h264", "has_video": true, "has_audio": false, "video_stream_index": 0, "audio_stream_index": -1, "type": "FFmpegReader", "fps": {"den": 1, "num": 25}, "display_ratio": {"den": 384, "num": 683}, "channels": 0, "video_timebase": {"den": 1000, "num": 1}, "audio_bit_rate": 0, "pixel_format": 0, "height": 768, "width": 1366, "acodec": "", "audio_timebase": {"den": 1, "num": 1}, "video_bit_rate": 87179, "path": "/home/milind/Data/Projects/ProgressCard/!160-Register Spreadsheet as Database.mkv"}, "gravity": 4, "end": 20.673333333333336, "scale_x": {"Points": [{"handle_type": 0, "handle_right": {"X": 0.5, "Y": 0}, "interpolation": 0, "co": {"X": 1, "Y": 1.2000000476837158}, "handle_left": {"X": 0.5, "Y": 1}}, {"co": {"X": 68, "Y": 3.0}, "interpolation": 1}]}, "shear_y": {"Points": [{"co": {"X": 1, "Y": 0}, "interpolation": 2}]}, "display": 0, "perspective_c1_y": {"Points": [{"co": {"X": 1, "Y": -1}, "interpolation": 2}]}, "position": 6.99734375, "crop_y": {"Points": [{"co": {"X": 1, "Y": 0}, "interpolation": 2}]}, "perspective_c4_y": {"Points": [{"co": {"X": 1, "Y": -1}, "interpolation": 2}]}, "crop_width": {"Points": [{"co": {"X": 1, "Y": -1}, "interpolation": 2}]}, "title": "!160-Register Spreadsheet as Database.mkv", "layer": 1, "location_x": {"Points": [{"handle_type": 0, "handle_right": {"X": 0.5, "Y": 0}, "interpolation": 0, "co": {"X": 1, "Y": -0.009999999776482582}, "handle_left": {"X": 0.5, "Y": 1}}]}, "shear_x": {"Points": [{"co": {"X": 1, "Y": 0}, "interpolation": 2}]}, "channel_filter": {"Points": [{"co": {"X": 1, "Y": -1}, "interpolation": 2}]}, "location_y": {"Points": [{"handle_type": 0, "handle_right": {"X": 0.5, "Y": 0}, "co": {"X": 1, "Y": -0.10000000149011612}, "interpolation": 0, "handle_left": {"X": 0.5, "Y": 1}}, {"interpolation": 1, "co": {"X": 68, "Y": 0.20000000298023224}}, {"interpolation": 1, "co": {"X": 302, "Y": -0.20000000298023224}}, {"co": {"X": 267, "Y": -0.20000000298023224}, "interpolation": 1}, {"co": {"X": 208, "Y": 0.20000000298023224}, "interpolation": 1}, {"interpolation": 1, "co": {"X": 422, "Y": -0.75}}, {"co": {"X": 373, "Y": -0.75}, "interpolation": 1}, {"interpolation": 1, "co": {"X": 333, "Y": -0.20000000298023224}}]}, "perspective_c1_x": {"Points": [{"co": {"X": 1, "Y": -1}, "interpolation": 2}]}, "id": "4UWHV2278I", "start": 0, "perspective_c3_y": {"Points": [{"co": {"X": 1, "Y": -1}, "interpolation": 2}]}, "wave_color": {"blue": {"Points": [{"handle_type": 0, "handle_right": {"X": 0.5, "Y": 0}, "interpolation": 0, "co": {"X": 1, "Y": 255}, "handle_left": {"X": 0.5, "Y": 1}}]}, "red": {"Points": [{"handle_type": 0, "handle_right": {"X": 0.5, "Y": 0}, "interpolation": 0, "co": {"X": 1, "Y": 0}, "handle_left": {"X": 0.5, "Y": 1}}]}, "alpha": {"Points": [{"handle_type": 0, "handle_right": {"X": 0.5, "Y": 0}, "interpolation": 0, "co": {"X": 1, "Y": 255}, "handle_left": {"X": 0.5, "Y": 1}}]}, "green": {"Points": [{"handle_type": 0, "handle_right": {"X": 0.5, "Y": 0}, "interpolation": 0, "co": {"X": 1, "Y": 123}, "handle_left": {"X": 0.5, "Y": 1}}]}}, "perspective_c4_x": {"Points": [{"co": {"X": 1, "Y": -1}, "interpolation": 2}]}}, {"perspective_c3_x": {"Points": [{"co": {"X": 1, "Y": -1}, "interpolation": 2}]}, "duration": 14.0, "perspective_c2_y": {"Points": [{"co": {"X": 1, "Y": -1}, "interpolation": 2}]}, "alpha": {"Points": [{"co": {"X": 1, "Y": 1}, "interpolation": 2}, {"handle_type": 0, "handle_right": {"X": 0.5, "Y": 0}, "interpolation": 0, "co": {"X": 1, "Y": 0}, "handle_left": {"X": 0.5, "Y": 1}}, {"handle_type": 0, "handle_right": {"X": 0.5, "Y": 0}, "interpolation": 0, "co": {"X": 73, "Y": 1}, "handle_left": {"X": 0.5, "Y": 1}}, {"handle_type": 0, "handle_right": {"X": 0.5, "Y": 0}, "interpolation": 0, "co": {"X": 265, "Y": 1}, "handle_left": {"X": 0.5, "Y": 1}}, {"handle_type": 0, "handle_right": {"X": 0.5, "Y": 0}, "interpolation": 0, "co": {"X": 337, "Y": 0}, "handle_left": {"X": 0.5, "Y": 1}}]}, "file_id": "C7V0GMBLYX", "channel_mapping": {"Points": [{"co": {"X": 1, "Y": -1}, "interpolation": 2}]}, "scale_y": {"Points": [{"co": {"X": 1, "Y": 1}, "interpolation": 2}]}, "time": {"Points": [{"co": {"X": 1, "Y": 1}, "interpolation": 2}]}, "volume": {"Points": [{"co": {"X": 1, "Y": 1}, "interpolation": 2}]}, "crop_height": {"Points": [{"co": {"X": 1, "Y": -1}, "interpolation": 2}]}, "effects": [], "rotation": {"Points": [{"co": {"X": 1, "Y": 0}, "interpolation": 2}]}, "has_video": {"Points": [{"co": {"X": 1, "Y": -1}, "interpolation": 2}]}, "crop_x": {"Points": [{"co": {"X": 1, "Y": 0}, "interpolation": 2}]}, "perspective_c2_x": {"Points": [{"co": {"X": 1, "Y": -1}, "interpolation": 2}]}, "scale": 1, "waveform": false, "image": "/home/milind/.openshot_qt/thumbnail/C7V0GMBLYX.png", "has_audio": {"Points": [{"co": {"X": 1, "Y": -1}, "interpolation": 2}]}, "anchor": 0, "reader": {"duration": 14.0, "top_field_first": true, "file_size": "117846", "has_single_image": false, "sample_rate": 0, "pixel_ratio": {"den": 1, "num": 1}, "video_length": "350", "channel_layout": 4, "interlaced_frame": false, "vcodec": "h264", "has_video": true, "has_audio": false, "video_stream_index": 0, "audio_stream_index": -1, "type": "FFmpegReader", "fps": {"den": 1, "num": 25}, "display_ratio": {"den": 186, "num": 325}, "channels": 0, "video_timebase": {"den": 1000, "num": 1}, "audio_bit_rate": 0, "pixel_format": 0, "height": 744, "width": 1300, "acodec": "", "audio_timebase": {"den": 1, "num": 1}, "video_bit_rate": 63358, "path": "/home/milind/Data/Projects/ProgressCard/!170-Open The Saved Progress Card Template.mkv"}, "gravity": 4, "end": 14, "scale_x": {"Points": [{"co": {"X": 1, "Y": 1}, "interpolation": 2}]}, "shear_y": {"Points": [{"co": {"X": 1, "Y": 0}, "interpolation": 2}]}, "display": 0, "perspective_c1_y": {"Points": [{"co": {"X": 1, "Y": -1}, "interpolation": 2}]}, "position": 73.54, "crop_y": {"Points": [{"co": {"X": 1, "Y": 0}, "interpolation": 2}]}, "perspective_c4_y": {"Points": [{"co": {"X": 1, "Y": -1}, "interpolation": 2}]}, "crop_width": {"Points": [{"co": {"X": 1, "Y": -1}, "interpolation": 2}]}, "title": "!170-Open The Saved Progress Card Template.mkv", "layer": 1, "location_x": {"Points": [{"co": {"X": 1, "Y": 0}, "interpolation": 2}]}, "shear_x": {"Points": [{"co": {"X": 1, "Y": 0}, "interpolation": 2}]}, "channel_filter": {"Points": [{"co": {"X": 1, "Y": -1}, "interpolation": 2}]}, "location_y": {"Points": [{"co": {"X": 1, "Y": 0}, "interpolation": 2}]}, "perspective_c1_x": {"Points": [{"co": {"X": 1, "Y": -1}, "interpolation": 2}]}, "id": "NH3SK34S1K", "start": 0, "perspective_c3_y": {"Points": [{"co": {"X": 1, "Y": -1}, "interpolation": 2}]}, "wave_color": {"blue": {"Points": [{"handle_type": 0, "handle_right": {"X": 0.5, "Y": 0}, "interpolation": 0, "co": {"X": 1, "Y": 255}, "handle_left": {"X": 0.5, "Y": 1}}]}, "red": {"Points": [{"handle_type": 0, "handle_right": {"X": 0.5, "Y": 0}, "interpolation": 0, "co": {"X": 1, "Y": 0}, "handle_left": {"X": 0.5, "Y": 1}}]}, "alpha": {"Points": [{"handle_type": 0, "handle_right": {"X": 0.5, "Y": 0}, "interpolation": 0, "co": {"X": 1, "Y": 255}, "handle_left": {"X": 0.5, "Y": 1}}]}, "green": {"Points": [{"handle_type": 0, "handle_right": {"X": 0.5, "Y": 0}, "interpolation": 0, "co": {"X": 1, "Y": 123}, "handle_left": {"X": 0.5, "Y": 1}}]}}, "perspective_c4_x": {"Points": [{"co": {"X": 1, "Y": -1}, "interpolation": 2}]}}, {"perspective_c3_x": {"Points": [{"co": {"X": 1, "Y": -1}, "interpolation": 2}]}, "duration": 86400.0, "perspective_c2_y": {"Points": [{"co": {"X": 1, "Y": -1}, "interpolation": 2}]}, "alpha": {"Points": [{"co": {"X": 1, "Y": 1}, "interpolation": 2}]}, "file_id": "W3X0DXJTS6", "channel_mapping": {"Points": [{"co": {"X": 1, "Y": -1}, "interpolation": 2}]}, "scale_y": {"Points": [{"co": {"X": 1, "Y": 1}, "interpolation": 2}]}, "time": {"Points": [{"co": {"X": 1, "Y": 1}, "interpolation": 2}]}, "volume": {"Points": [{"co": {"X": 1, "Y": 1}, "interpolation": 2}]}, "crop_height": {"Points": [{"co": {"X": 1, "Y": -1}, "interpolation": 2}]}, "effects": [], "rotation": {"Points": [{"co": {"X": 1, "Y": 0}, "interpolation": 2}]}, "has_video": {"Points": [{"co": {"X": 1, "Y": -1}, "interpolation": 2}]}, "crop_x": {"Points": [{"co": {"X": 1, "Y": 0}, "interpolation": 2}]}, "perspective_c2_x": {"Points": [{"co": {"X": 1, "Y": -1}, "interpolation": 2}]}, "scale": 1, "waveform": false, "image": "/home/milind/.openshot_qt/thumbnail/W3X0DXJTS6.png", "has_audio": {"Points": [{"co": {"X": 1, "Y": -1}, "interpolation": 2}]}, "anchor": 0, "reader": {"duration": 86400.0, "top_field_first": true, "file_size": "8294400", "has_single_image": true, "sample_rate": 0, "pixel_ratio": {"den": 1, "num": 1}, "video_length": "2592000", "channel_layout": 4, "interlaced_frame": false, "vcodec": "", "has_video": true, "has_audio": false, "video_stream_index": -1, "audio_stream_index": -1, "type": "QtImageReader", "fps": {"den": 1, "num": 30}, "display_ratio": {"den": 9, "num": 16}, "channels": 0, "video_timebase": {"den": 30, "num": 1}, "audio_bit_rate": 0, "pixel_format": -1, "height": 1080, "width": 1920, "acodec": "", "audio_timebase": {"den": 1, "num": 1}, "video_bit_rate": 0, "path": "/home/milind/Data/Projects/ProgressCard/!000-White-Background.svg"}, "gravity": 4, "end": 10, "scale_x": {"Points": [{"co": {"X": 1, "Y": 1}, "interpolation": 2}]}, "shear_y": {"Points": [{"co": {"X": 1, "Y": 0}, "interpolation": 2}]}, "display": 0, "perspective_c1_y": {"Points": [{"co": {"X": 1, "Y": -1}, "interpolation": 2}]}, "position": 69.6, "crop_y": {"Points": [{"co": {"X": 1, "Y": 0}, "interpolation": 2}]}, "perspective_c4_y": {"Points": [{"co": {"X": 1, "Y": -1}, "interpolation": 2}]}, "crop_width": {"Points": [{"co": {"X": 1, "Y": -1}, "interpolation": 2}]}, "title": "!000-White-Background.svg", "layer": 0, "location_x": {"Points": [{"co": {"X": 1, "Y": 0}, "interpolation": 2}]}, "shear_x": {"Points": [{"co": {"X": 1, "Y": 0}, "interpolation": 2}]}, "channel_filter": {"Points": [{"co": {"X": 1, "Y": -1}, "interpolation": 2}]}, "location_y": {"Points": [{"co": {"X": 1, "Y": 0}, "interpolation": 2}]}, "perspective_c1_x": {"Points": [{"co": {"X": 1, "Y": -1}, "interpolation": 2}]}, "id": "LXT5Z6HT9Y", "start": 0, "perspective_c3_y": {"Points": [{"co": {"X": 1, "Y": -1}, "interpolation": 2}]}, "wave_color": {"blue": {"Points": [{"handle_type": 0, "handle_right": {"X": 0.5, "Y": 0}, "interpolation": 0, "co": {"X": 1, "Y": 255}, "handle_left": {"X": 0.5, "Y": 1}}]}, "red": {"Points": [{"handle_type": 0, "handle_right": {"X": 0.5, "Y": 0}, "interpolation": 0, "co": {"X": 1, "Y": 0}, "handle_left": {"X": 0.5, "Y": 1}}]}, "alpha": {"Points": [{"handle_type": 0, "handle_right": {"X": 0.5, "Y": 0}, "interpolation": 0, "co": {"X": 1, "Y": 255}, "handle_left": {"X": 0.5, "Y": 1}}]}, "green": {"Points": [{"handle_type": 0, "handle_right": {"X": 0.5, "Y": 0}, "interpolation": 0, "co": {"X": 1, "Y": 123}, "handle_left": {"X": 0.5, "Y": 1}}]}}, "perspective_c4_x": {"Points": [{"co": {"X": 1, "Y": -1}, "interpolation": 2}]}}, {"perspective_c3_x": {"Points": [{"co": {"X": 1, "Y": -1}, "interpolation": 2}]}, "duration": 86400.0, "perspective_c2_y": {"Points": [{"co": {"X": 1, "Y": -1}, "interpolation": 2}]}, "alpha": {"Points": [{"co": {"X": 1, "Y": 1}, "interpolation": 2}]}, "file_id": "W3X0DXJTS6", "channel_mapping": {"Points": [{"co": {"X": 1, "Y": -1}, "interpolation": 2}]}, "scale_y": {"Points": [{"co": {"X": 1, "Y": 1}, "interpolation": 2}]}, "time": {"Points": [{"co": {"X": 1, "Y": 1}, "interpolation": 2}]}, "volume": {"Points": [{"co": {"X": 1, "Y": 1}, "interpolation": 2}]}, "crop_height": {"Points": [{"co": {"X": 1, "Y": -1}, "interpolation": 2}]}, "effects": [], "rotation": {"Points": [{"co": {"X": 1, "Y": 0}, "interpolation": 2}]}, "has_video": {"Points": [{"co": {"X": 1, "Y": -1}, "interpolation": 2}]}, "crop_x": {"Points": [{"co": {"X": 1, "Y": 0}, "interpolation": 2}]}, "perspective_c2_x": {"Points": [{"co": {"X": 1, "Y": -1}, "interpolation": 2}]}, "scale": 1, "waveform": false, "image": "/home/milind/.openshot_qt/thumbnail/W3X0DXJTS6.png", "has_audio": {"Points": [{"co": {"X": 1, "Y": -1}, "interpolation": 2}]}, "anchor": 0, "reader": {"duration": 86400.0, "top_field_first": true, "file_size": "8294400", "has_single_image": true, "sample_rate": 0, "pixel_ratio": {"den": 1, "num": 1}, "video_length": "2592000", "channel_layout": 4, "interlaced_frame": false, "vcodec": "", "has_video": true, "has_audio": false, "video_stream_index": -1, "audio_stream_index": -1, "type": "QtImageReader", "fps": {"den": 1, "num": 30}, "display_ratio": {"den": 9, "num": 16}, "channels": 0, "video_timebase": {"den": 30, "num": 1}, "audio_bit_rate": 0, "pixel_format": -1, "height": 1080, "width": 1920, "acodec": "", "audio_timebase": {"den": 1, "num": 1}, "video_bit_rate": 0, "path": "/home/milind/Data/Projects/ProgressCard/!000-White-Background.svg"}, "gravity": 4, "end": 30, "scale_x": {"Points": [{"co": {"X": 1, "Y": 1}, "interpolation": 2}]}, "shear_y": {"Points": [{"co": {"X": 1, "Y": 0}, "interpolation": 2}]}, "display": 0, "perspective_c1_y": {"Points": [{"co": {"X": 1, "Y": -1}, "interpolation": 2}]}, "position": 83.84, "crop_y": {"Points": [{"co": {"X": 1, "Y": 0}, "interpolation": 2}]}, "perspective_c4_y": {"Points": [{"co": {"X": 1, "Y": -1}, "interpolation": 2}]}, "crop_width": {"Points": [{"co": {"X": 1, "Y": -1}, "interpolation": 2}]}, "title": "!000-White-Background.svg", "layer": 0, "location_x": {"Points": [{"co": {"X": 1, "Y": 0}, "interpolation": 2}]}, "shear_x": {"Points": [{"co": {"X": 1, "Y": 0}, "interpolation": 2}]}, "channel_filter": {"Points": [{"co": {"X": 1, "Y": -1}, "interpolation": 2}]}, "location_y": {"Points": [{"co": {"X": 1, "Y": 0}, "interpolation": 2}]}, "perspective_c1_x": {"Points": [{"co": {"X": 1, "Y": -1}, "interpolation": 2}]}, "id": "9IXB0K5KG8", "start": 0, "perspective_c3_y": {"Points": [{"co": {"X": 1, "Y": -1}, "interpolation": 2}]}, "wave_color": {"blue": {"Points": [{"handle_type": 0, "handle_right": {"X": 0.5, "Y": 0}, "interpolation": 0, "co": {"X": 1, "Y": 255}, "handle_left": {"X": 0.5, "Y": 1}}]}, "red": {"Points": [{"handle_type": 0, "handle_right": {"X": 0.5, "Y": 0}, "interpolation": 0, "co": {"X": 1, "Y": 0}, "handle_left": {"X": 0.5, "Y": 1}}]}, "alpha": {"Points": [{"handle_type": 0, "handle_right": {"X": 0.5, "Y": 0}, "interpolation": 0, "co": {"X": 1, "Y": 255}, "handle_left": {"X": 0.5, "Y": 1}}]}, "green": {"Points": [{"handle_type": 0, "handle_right": {"X": 0.5, "Y": 0}, "interpolation": 0, "co": {"X": 1, "Y": 123}, "handle_left": {"X": 0.5, "Y": 1}}]}}, "perspective_c4_x": {"Points": [{"co": {"X": 1, "Y": -1}, "interpolation": 2}]}}, {"perspective_c1_y": {"Points": [{"co": {"X": 1, "Y": -1}, "interpolation": 2}]}, "duration": 88.0, "perspective_c2_y": {"Points": [{"co": {"X": 1, "Y": -1}, "interpolation": 2}]}, "alpha": {"Points": [{"handle_type": 0, "handle_right": {"X": 0.5, "Y": 0}, "interpolation": 0, "co": {"X": 1, "Y": 1}, "handle_left": {"X": 0.5, "Y": 1}}, {"handle_type": 0, "handle_right": {"X": 0.5, "Y": 0}, "interpolation": 0, "co": {"X": 5, "Y": 0}, "handle_left": {"X": 0.5, "Y": 1}}, {"handle_type": 0, "handle_right": {"X": 0.5, "Y": 0}, "interpolation": 0, "co": {"X": 77, "Y": 1}, "handle_left": {"X": 0.5, "Y": 1}}, {"handle_type": 0, "handle_right": {"X": 0.5, "Y": 0}, "interpolation": 0, "co": {"X": 507, "Y": 1}, "handle_left": {"X": 0.5, "Y": 1}}, {"handle_type": 0, "handle_right": {"X": 0.5, "Y": 0}, "interpolation": 0, "co": {"X": 579, "Y": 0}, "handle_left": {"X": 0.5, "Y": 1}}]}, "title": "!190-Drag and Drop Fields.mkv", "file_id": "COTVKCWUJG", "channel_mapping": {"Points": [{"co": {"X": 1, "Y": -1}, "interpolation": 2}]}, "scale_y": {"Points": [{"co": {"X": 1, "Y": 1}, "interpolation": 2}]}, "time": {"Points": [{"co": {"X": 1, "Y": 1}, "interpolation": 2}]}, "volume": {"Points": [{"co": {"X": 1, "Y": 1}, "interpolation": 2}]}, "crop_height": {"Points": [{"co": {"X": 1, "Y": -1}, "interpolation": 2}]}, "effects": [], "rotation": {"Points": [{"co": {"X": 1, "Y": 0}, "interpolation": 2}]}, "image": "/home/milind/.openshot_qt/thumbnail/VZXSCOZTB9-6.png", "crop_x": {"Points": [{"co": {"X": 1, "Y": 0}, "interpolation": 2}]}, "perspective_c2_x": {"Points": [{"co": {"X": 1, "Y": -1}, "interpolation": 2}]}, "scale": 1, "has_video": {"Points": [{"co": {"X": 1, "Y": -1}, "interpolation": 2}]}, "has_audio": {"Points": [{"co": {"X": 1, "Y": -1}, "interpolation": 2}]}, "anchor": 0, "perspective_c3_x": {"Points": [{"co": {"X": 1, "Y": -1}, "interpolation": 2}]}, "reader": {"duration": 88.0, "top_field_first": true, "file_size": "1030797", "has_single_image": false, "sample_rate": 0, "pixel_ratio": {"den": 1, "num": 1}, "video_length": "2200", "channel_layout": 4, "interlaced_frame": false, "vcodec": "h264", "has_video": true, "has_audio": false, "video_stream_index": 0, "audio_stream_index": -1, "type": "FFmpegReader", "fps": {"den": 1, "num": 25}, "display_ratio": {"den": 384, "num": 683}, "channels": 0, "video_timebase": {"den": 1000, "num": 1}, "audio_bit_rate": 0, "pixel_format": 0, "height": 768, "width": 1366, "acodec": "", "audio_timebase": {"den": 1, "num": 1}, "video_bit_rate": 92739, "path": "/home/milind/Data/Projects/ProgressCard/!190-Drag and Drop Fields.mkv"}, "gravity": 4, "end": 24.101666666666674, "scale_x": {"Points": [{"co": {"X": 1, "Y": 1}, "interpolation": 2}]}, "shear_y": {"Points": [{"co": {"X": 1, "Y": 0}, "interpolation": 2}]}, "display": 0, "crop_width": {"Points": [{"co": {"X": 1, "Y": -1}, "interpolation": 2}]}, "position": 132.853125, "crop_y": {"Points": [{"co": {"X": 1, "Y": 0}, "interpolation": 2}]}, "perspective_c4_y": {"Points": [{"co": {"X": 1, "Y": -1}, "interpolation": 2}]}, "waveform": false, "layer": 2, "location_x": {"Points": [{"co": {"X": 1, "Y": 0}, "interpolation": 2}]}, "shear_x": {"Points": [{"co": {"X": 1, "Y": 0}, "interpolation": 2}]}, "channel_filter": {"Points": [{"co": {"X": 1, "Y": -1}, "interpolation": 2}]}, "location_y": {"Points": [{"co": {"X": 1, "Y": 0}, "interpolation": 2}]}, "perspective_c1_x": {"Points": [{"co": {"X": 1, "Y": -1}, "interpolation": 2}]}, "id": "VZXSCOZTB9", "start": 0.18166666666667197, "perspective_c3_y": {"Points": [{"co": {"X": 1, "Y": -1}, "interpolation": 2}]}, "wave_color": {"blue": {"Points": [{"handle_type": 0, "handle_right": {"X": 0.5, "Y": 0}, "interpolation": 0, "co": {"X": 1, "Y": 255}, "handle_left": {"X": 0.5, "Y": 1}}]}, "red": {"Points": [{"handle_type": 0, "handle_right": {"X": 0.5, "Y": 0}, "interpolation": 0, "co": {"X": 1, "Y": 0}, "handle_left": {"X": 0.5, "Y": 1}}]}, "alpha": {"Points": [{"handle_type": 0, "handle_right": {"X": 0.5, "Y": 0}, "interpolation": 0, "co": {"X": 1, "Y": 255}, "handle_left": {"X": 0.5, "Y": 1}}]}, "green": {"Points": [{"handle_type": 0, "handle_right": {"X": 0.5, "Y": 0}, "interpolation": 0, "co": {"X": 1, "Y": 123}, "handle_left": {"X": 0.5, "Y": 1}}]}}, "perspective_c4_x": {"Points": [{"co": {"X": 1, "Y": -1}, "interpolation": 2}]}}, {"perspective_c3_x": {"Points": [{"co": {"X": 1, "Y": -1}, "interpolation": 2}]}, "duration": 44.0, "perspective_c2_y": {"Points": [{"co": {"X": 1, "Y": -1}, "interpolation": 2}]}, "alpha": {"Points": [{"co": {"X": 1, "Y": 1}, "interpolation": 2}]}, "file_id": "DFFNSBTF3B", "channel_mapping": {"Points": [{"co": {"X": 1, "Y": -1}, "interpolation": 2}]}, "scale_y": {"Points": [{"co": {"X": 1, "Y": 1}, "interpolation": 2}]}, "time": {"Points": [{"co": {"X": 1, "Y": 1}, "interpolation": 2}]}, "volume": {"Points": [{"co": {"X": 1, "Y": 1}, "interpolation": 2}]}, "crop_height": {"Points": [{"co": {"X": 1, "Y": -1}, "interpolation": 2}]}, "effects": [], "rotation": {"Points": [{"co": {"X": 1, "Y": 0}, "interpolation": 2}]}, "has_video": {"Points": [{"co": {"X": 1, "Y": -1}, "interpolation": 2}]}, "crop_x": {"Points": [{"co": {"X": 1, "Y": 0}, "interpolation": 2}]}, "perspective_c2_x": {"Points": [{"co": {"X": 1, "Y": -1}, "interpolation": 2}]}, "scale": 1, "waveform": false, "image": "/home/milind/.openshot_qt/thumbnail/DFFNSBTF3B.png", "has_audio": {"Points": [{"co": {"X": 1, "Y": -1}, "interpolation": 2}]}, "anchor": 0, "reader": {"duration": 44.0, "top_field_first": true, "file_size": "397466", "has_single_image": false, "sample_rate": 0, "pixel_ratio": {"den": 1, "num": 1}, "video_length": "1100", "channel_layout": 4, "interlaced_frame": false, "vcodec": "h264", "has_video": true, "has_audio": false, "video_stream_index": 0, "audio_stream_index": -1, "type": "FFmpegReader", "fps": {"den": 1, "num": 25}, "display_ratio": {"den": 384, "num": 683}, "channels": 0, "video_timebase": {"den": 1000, "num": 1}, "audio_bit_rate": 0, "pixel_format": 0, "height": 768, "width": 1366, "acodec": "", "audio_timebase": {"den": 1, "num": 1}, "video_bit_rate": 71551, "path": "/home/milind/Data/Projects/ProgressCard/!180-Menu - View - Data Source.mkv"}, "gravity": 4, "end": 18.834999999999994, "scale_x": {"Points": [{"co": {"X": 1, "Y": 1}, "interpolation": 2}]}, "shear_y": {"Points": [{"co": {"X": 1, "Y": 0}, "interpolation": 2}]}, "display": 0, "perspective_c1_y": {"Points": [{"co": {"X": 1, "Y": -1}, "interpolation": 2}]}, "position": 87.54, "crop_y": {"Points": [{"co": {"X": 1, "Y": 0}, "interpolation": 2}]}, "perspective_c4_y": {"Points": [{"co": {"X": 1, "Y": -1}, "interpolation": 2}]}, "crop_width": {"Points": [{"co": {"X": 1, "Y": -1}, "interpolation": 2}]}, "title": "!180-Menu - View - Data Source.mkv", "layer": 1, "location_x": {"Points": [{"co": {"X": 1, "Y": 0}, "interpolation": 2}]}, "shear_x": {"Points": [{"co": {"X": 1, "Y": 0}, "interpolation": 2}]}, "channel_filter": {"Points": [{"co": {"X": 1, "Y": -1}, "interpolation": 2}]}, "location_y": {"Points": [{"co": {"X": 1, "Y": 0}, "interpolation": 2}]}, "perspective_c1_x": {"Points": [{"co": {"X": 1, "Y": -1}, "interpolation": 2}]}, "id": "B34M6K3U75", "start": 0, "perspective_c3_y": {"Points": [{"co": {"X": 1, "Y": -1}, "interpolation": 2}]}, "wave_color": {"blue": {"Points": [{"handle_type": 0, "handle_right": {"X": 0.5, "Y": 0}, "interpolation": 0, "co": {"X": 1, "Y": 255}, "handle_left": {"X": 0.5, "Y": 1}}]}, "red": {"Points": [{"handle_type": 0, "handle_right": {"X": 0.5, "Y": 0}, "interpolation": 0, "co": {"X": 1, "Y": 0}, "handle_left": {"X": 0.5, "Y": 1}}]}, "alpha": {"Points": [{"handle_type": 0, "handle_right": {"X": 0.5, "Y": 0}, "interpolation": 0, "co": {"X": 1, "Y": 255}, "handle_left": {"X": 0.5, "Y": 1}}]}, "green": {"Points": [{"handle_type": 0, "handle_right": {"X": 0.5, "Y": 0}, "interpolation": 0, "co": {"X": 1, "Y": 123}, "handle_left": {"X": 0.5, "Y": 1}}]}}, "perspective_c4_x": {"Points": [{"co": {"X": 1, "Y": -1}, "interpolation": 2}]}}, {"perspective_c3_x": {"Points": [{"co": {"X": 1, "Y": -1}, "interpolation": 2}]}, "duration": 73.0, "perspective_c2_y": {"Points": [{"co": {"X": 1, "Y": -1}, "interpolation": 2}]}, "alpha": {"Points": [{"co": {"X": 1, "Y": 1}, "interpolation": 2}, {"handle_type": 0, "handle_right": {"X": 0.5, "Y": 0}, "interpolation": 0, "co": {"X": 35, "Y": 0}, "handle_left": {"X": 0.5, "Y": 1}}, {"handle_type": 0, "handle_right": {"X": 0.5, "Y": 0}, "interpolation": 0, "co": {"X": 107, "Y": 1}, "handle_left": {"X": 0.5, "Y": 1}}, {"handle_type": 0, "handle_right": {"X": 0.5, "Y": 0}, "interpolation": 0, "co": {"X": 1615, "Y": 1}, "handle_left": {"X": 0.5, "Y": 1}}, {"handle_type": 0, "handle_right": {"X": 0.5, "Y": 0}, "interpolation": 0, "co": {"X": 1687, "Y": 0}, "handle_left": {"X": 0.5, "Y": 1}}]}, "file_id": "ZA6B1EO0P9", "channel_mapping": {"Points": [{"co": {"X": 1, "Y": -1}, "interpolation": 2}]}, "scale_y": {"Points": [{"co": {"X": 1, "Y": 1}, "interpolation": 2}]}, "time": {"Points": [{"co": {"X": 1, "Y": 1}, "interpolation": 2}]}, "volume": {"Points": [{"co": {"X": 1, "Y": 1}, "interpolation": 2}]}, "crop_height": {"Points": [{"co": {"X": 1, "Y": -1}, "interpolation": 2}]}, "effects": [], "rotation": {"Points": [{"co": {"X": 1, "Y": 0}, "interpolation": 2}]}, "has_video": {"Points": [{"co": {"X": 1, "Y": -1}, "interpolation": 2}]}, "crop_x": {"Points": [{"co": {"X": 1, "Y": 0}, "interpolation": 2}]}, "perspective_c2_x": {"Points": [{"co": {"X": 1, "Y": -1}, "interpolation": 2}]}, "scale": 1, "waveform": false, "image": "/home/milind/.openshot_qt/thumbnail/QAPN62UTJA-37.png", "has_audio": {"Points": [{"co": {"X": 1, "Y": -1}, "interpolation": 2}]}, "anchor": 0, "reader": {"duration": 73.0, "top_field_first": true, "file_size": "953170", "has_single_image": false, "sample_rate": 0, "pixel_ratio": {"den": 1, "num": 1}, "video_length": "1825", "channel_layout": 4, "interlaced_frame": false, "vcodec": "h264", "has_video": true, "has_audio": false, "video_stream_index": 0, "audio_stream_index": -1, "type": "FFmpegReader", "fps": {"den": 1, "num": 25}, "display_ratio": {"den": 384, "num": 683}, "channels": 0, "video_timebase": {"den": 1000, "num": 1}, "audio_bit_rate": 0, "pixel_format": 0, "height": 768, "width": 1366, "acodec": "", "audio_timebase": {"den": 1, "num": 1}, "video_bit_rate": 103492, "path": "/home/milind/Data/Projects/ProgressCard/!200-Print Progress Cards As PDF.mkv"}, "gravity": 4, "end": 70.23583333333332, "scale_x": {"Points": [{"co": {"X": 1, "Y": 1}, "interpolation": 2}]}, "shear_y": {"Points": [{"co": {"X": 1, "Y": 0}, "interpolation": 2}]}, "display": 0, "perspective_c1_y": {"Points": [{"co": {"X": 1, "Y": -1}, "interpolation": 2}]}, "position": 128.375, "crop_y": {"Points": [{"co": {"X": 1, "Y": 0}, "interpolation": 2}]}, "perspective_c4_y": {"Points": [{"co": {"X": 1, "Y": -1}, "interpolation": 2}]}, "crop_width": {"Points": [{"co": {"X": 1, "Y": -1}, "interpolation": 2}]}, "title": "!200-Print Progress Cards As PDF.mkv", "layer": 1, "location_x": {"Points": [{"co": {"X": 1, "Y": 0}, "interpolation": 2}]}, "shear_x": {"Points": [{"co": {"X": 1, "Y": 0}, "interpolation": 2}]}, "channel_filter": {"Points": [{"co": {"X": 1, "Y": -1}, "interpolation": 2}]}, "location_y": {"Points": [{"co": {"X": 1, "Y": 0}, "interpolation": 2}]}, "perspective_c1_x": {"Points": [{"co": {"X": 1, "Y": -1}, "interpolation": 2}]}, "id": "QAPN62UTJA", "start": 1.4250000000000114, "perspective_c3_y": {"Points": [{"co": {"X": 1, "Y": -1}, "interpolation": 2}]}, "wave_color": {"blue": {"Points": [{"handle_type": 0, "handle_right": {"X": 0.5, "Y": 0}, "interpolation": 0, "co": {"X": 1, "Y": 255}, "handle_left": {"X": 0.5, "Y": 1}}]}, "red": {"Points": [{"handle_type": 0, "handle_right": {"X": 0.5, "Y": 0}, "interpolation": 0, "co": {"X": 1, "Y": 0}, "handle_left": {"X": 0.5, "Y": 1}}]}, "alpha": {"Points": [{"handle_type": 0, "handle_right": {"X": 0.5, "Y": 0}, "interpolation": 0, "co": {"X": 1, "Y": 255}, "handle_left": {"X": 0.5, "Y": 1}}]}, "green": {"Points": [{"handle_type": 0, "handle_right": {"X": 0.5, "Y": 0}, "interpolation": 0, "co": {"X": 1, "Y": 123}, "handle_left": {"X": 0.5, "Y": 1}}]}}, "perspective_c4_x": {"Points": [{"co": {"X": 1, "Y": -1}, "interpolation": 2}]}}, {"perspective_c3_x": {"Points": [{"co": {"X": 1, "Y": -1}, "interpolation": 2}]}, "duration": 86400.0, "crop_x": {"Points": [{"co": {"X": 1, "Y": 0}, "interpolation": 2}]}, "alpha": {"Points": [{"handle_type": 0, "handle_right": {"X": 0.5, "Y": 0}, "interpolation": 0, "co": {"X": 1, "Y": 1}, "handle_left": {"X": 0.5, "Y": 1}}, {"handle_type": 0, "handle_right": {"X": 0.5, "Y": 0}, "interpolation": 0, "co": {"X": 1, "Y": 0}, "handle_left": {"X": 0.5, "Y": 1}}, {"handle_type": 0, "handle_right": {"X": 0.5, "Y": 0}, "interpolation": 0, "co": {"X": 73, "Y": 1}, "handle_left": {"X": 0.5, "Y": 1}}, {"handle_type": 0, "handle_right": {"X": 0.5, "Y": 0}, "interpolation": 0, "co": {"X": 169, "Y": 1}, "handle_left": {"X": 0.5, "Y": 1}}, {"handle_type": 0, "handle_right": {"X": 0.5, "Y": 0}, "interpolation": 0, "co": {"X": 241, "Y": 0}, "handle_left": {"X": 0.5, "Y": 1}}]}, "file_id": "W3X0DXJTS6", "channel_mapping": {"Points": [{"co": {"X": 1, "Y": -1}, "interpolation": 2}]}, "scale_y": {"Points": [{"co": {"X": 1, "Y": 1}, "interpolation": 2}]}, "time": {"Points": [{"co": {"X": 1, "Y": 1}, "interpolation": 2}]}, "volume": {"Points": [{"co": {"X": 1, "Y": 1}, "interpolation": 2}]}, "crop_height": {"Points": [{"co": {"X": 1, "Y": -1}, "interpolation": 2}]}, "effects": [], "rotation": {"Points": [{"co": {"X": 1, "Y": 0}, "interpolation": 2}]}, "has_video": {"Points": [{"co": {"X": 1, "Y": -1}, "interpolation": 2}]}, "perspective_c2_y": {"Points": [{"co": {"X": 1, "Y": -1}, "interpolation": 2}]}, "perspective_c2_x": {"Points": [{"co": {"X": 1, "Y": -1}, "interpolation": 2}]}, "scale": 1, "waveform": false, "image": "/home/milind/.openshot_qt/thumbnail/W3X0DXJTS6.png", "has_audio": {"Points": [{"co": {"X": 1, "Y": -1}, "interpolation": 2}]}, "anchor": 0, "reader": {"duration": 86400.0, "top_field_first": true, "file_size": "8294400", "has_single_image": true, "sample_rate": 0, "pixel_ratio": {"den": 1, "num": 1}, "video_length": "2592000", "channel_layout": 4, "interlaced_frame": false, "vcodec": "", "has_video": true, "has_audio": false, "video_stream_index": -1, "audio_stream_index": -1, "type": "QtImageReader", "fps": {"den": 1, "num": 30}, "display_ratio": {"den": 9, "num": 16}, "channels": 0, "video_timebase": {"den": 30, "num": 1}, "audio_bit_rate": 0, "pixel_format": -1, "height": 1080, "width": 1920, "acodec": "", "audio_timebase": {"den": 1, "num": 1}, "video_bit_rate": 0, "path": "/home/milind/Data/Projects/ProgressCard/!000-White-Background.svg"}, "gravity": 4, "end": 10, "scale_x": {"Points": [{"co": {"X": 1, "Y": 1}, "interpolation": 2}]}, "shear_y": {"Points": [{"co": {"X": 1, "Y": 0}, "interpolation": 2}]}, "display": 0, "perspective_c1_y": {"Points": [{"co": {"X": 1, "Y": -1}, "interpolation": 2}]}, "position": 125.76, "crop_y": {"Points": [{"co": {"X": 1, "Y": 0}, "interpolation": 2}]}, "perspective_c4_y": {"Points": [{"co": {"X": 1, "Y": -1}, "interpolation": 2}]}, "crop_width": {"Points": [{"co": {"X": 1, "Y": -1}, "interpolation": 2}]}, "title": "!000-White-Background.svg", "layer": 0, "location_x": {"Points": [{"co": {"X": 1, "Y": 0}, "interpolation": 2}]}, "shear_x": {"Points": [{"co": {"X": 1, "Y": 0}, "interpolation": 2}]}, "channel_filter": {"Points": [{"co": {"X": 1, "Y": -1}, "interpolation": 2}]}, "location_y": {"Points": [{"co": {"X": 1, "Y": 0}, "interpolation": 2}]}, "perspective_c1_x": {"Points": [{"co": {"X": 1, "Y": -1}, "interpolation": 2}]}, "id": "9FAVO93TA3", "start": 0, "perspective_c3_y": {"Points": [{"co": {"X": 1, "Y": -1}, "interpolation": 2}]}, "wave_color": {"blue": {"Points": [{"handle_type": 0, "handle_right": {"X": 0.5, "Y": 0}, "interpolation": 0, "co": {"X": 1, "Y": 255}, "handle_left": {"X": 0.5, "Y": 1}}]}, "red": {"Points": [{"handle_type": 0, "handle_right": {"X": 0.5, "Y": 0}, "interpolation": 0, "co": {"X": 1, "Y": 0}, "handle_left": {"X": 0.5, "Y": 1}}]}, "alpha": {"Points": [{"handle_type": 0, "handle_right": {"X": 0.5, "Y": 0}, "interpolation": 0, "co": {"X": 1, "Y": 255}, "handle_left": {"X": 0.5, "Y": 1}}]}, "green": {"Points": [{"handle_type": 0, "handle_right": {"X": 0.5, "Y": 0}, "interpolation": 0, "co": {"X": 1, "Y": 123}, "handle_left": {"X": 0.5, "Y": 1}}]}}, "perspective_c4_x": {"Points": [{"co": {"X": 1, "Y": -1}, "interpolation": 2}]}}, {"perspective_c3_x": {"Points": [{"co": {"X": 1, "Y": -1}, "interpolation": 2}]}, "duration": 13.0, "crop_x": {"Points": [{"co": {"X": 1, "Y": 0}, "interpolation": 2}]}, "alpha": {"Points": [{"co": {"X": 1, "Y": 1}, "interpolation": 2}, {"handle_type": 0, "handle_right": {"X": 0.5, "Y": 0}, "interpolation": 0, "co": {"X": 1, "Y": 0}, "handle_left": {"X": 0.5, "Y": 1}}, {"handle_type": 0, "handle_right": {"X": 0.5, "Y": 0}, "interpolation": 0, "co": {"X": 73, "Y": 1}, "handle_left": {"X": 0.5, "Y": 1}}, {"handle_type": 0, "handle_right": {"X": 0.5, "Y": 0}, "interpolation": 0, "co": {"X": 241, "Y": 1}, "handle_left": {"X": 0.5, "Y": 1}}, {"handle_type": 0, "handle_right": {"X": 0.5, "Y": 0}, "interpolation": 0, "co": {"X": 313, "Y": 0}, "handle_left": {"X": 0.5, "Y": 1}}]}, "file_id": "CRFW36HQE1", "channel_mapping": {"Points": [{"co": {"X": 1, "Y": -1}, "interpolation": 2}]}, "scale_y": {"Points": [{"co": {"X": 1, "Y": 1}, "interpolation": 2}]}, "time": {"Points": [{"co": {"X": 1, "Y": 1}, "interpolation": 2}]}, "volume": {"Points": [{"co": {"X": 1, "Y": 1}, "interpolation": 2}]}, "crop_height": {"Points": [{"co": {"X": 1, "Y": -1}, "interpolation": 2}]}, "effects": [], "rotation": {"Points": [{"co": {"X": 1, "Y": 0}, "interpolation": 2}]}, "has_video": {"Points": [{"co": {"X": 1, "Y": -1}, "interpolation": 2}]}, "perspective_c2_y": {"Points": [{"co": {"X": 1, "Y": -1}, "interpolation": 2}]}, "perspective_c2_x": {"Points": [{"co": {"X": 1, "Y": -1}, "interpolation": 2}]}, "scale": 1, "waveform": false, "image": "/home/milind/.openshot_qt/thumbnail/CRFW36HQE1.png", "has_audio": {"Points": [{"co": {"X": 1, "Y": -1}, "interpolation": 2}]}, "anchor": 0, "reader": {"duration": 13.0, "top_field_first": true, "file_size": "141113", "has_single_image": false, "sample_rate": 0, "pixel_ratio": {"den": 1, "num": 1}, "video_length": "325", "channel_layout": 4, "interlaced_frame": false, "vcodec": "h264", "has_video": true, "has_audio": false, "video_stream_index": 0, "audio_stream_index": -1, "type": "FFmpegReader", "fps": {"den": 1, "num": 25}, "display_ratio": {"den": 186, "num": 325}, "channels": 0, "video_timebase": {"den": 1000, "num": 1}, "audio_bit_rate": 0, "pixel_format": 0, "height": 744, "width": 1300, "acodec": "", "audio_timebase": {"den": 1, "num": 1}, "video_bit_rate": 82764, "path": "/home/milind/Data/Projects/ProgressCard/!210-Result Archive.mkv"}, "gravity": 4, "end": 13, "scale_x": {"Points": [{"co": {"X": 1, "Y": 1}, "interpolation": 2}]}, "shear_y": {"Points": [{"co": {"X": 1, "Y": 0}, "interpolation": 2}]}, "display": 0, "perspective_c1_y": {"Points": [{"co": {"X": 1, "Y": -1}, "interpolation": 2}]}, "position": 197.18583333333333, "crop_y": {"Points": [{"co": {"X": 1, "Y": 0}, "interpolation": 2}]}, "perspective_c4_y": {"Points": [{"co": {"X": 1, "Y": -1}, "interpolation": 2}]}, "crop_width": {"Points": [{"co": {"X": 1, "Y": -1}, "interpolation": 2}]}, "title": "!210-Result Archive.mkv", "layer": 1, "location_x": {"Points": [{"co": {"X": 1, "Y": 0}, "interpolation": 2}]}, "shear_x": {"Points": [{"co": {"X": 1, "Y": 0}, "interpolation": 2}]}, "channel_filter": {"Points": [{"co": {"X": 1, "Y": -1}, "interpolation": 2}]}, "location_y": {"Points": [{"co": {"X": 1, "Y": 0}, "interpolation": 2}]}, "perspective_c1_x": {"Points": [{"co": {"X": 1, "Y": -1}, "interpolation": 2}]}, "id": "422LHJU74E", "start": 0, "perspective_c3_y": {"Points": [{"co": {"X": 1, "Y": -1}, "interpolation": 2}]}, "wave_color": {"blue": {"Points": [{"handle_type": 0, "handle_right": {"X": 0.5, "Y": 0}, "interpolation": 0, "co": {"X": 1, "Y": 255}, "handle_left": {"X": 0.5, "Y": 1}}]}, "red": {"Points": [{"handle_type": 0, "handle_right": {"X": 0.5, "Y": 0}, "interpolation": 0, "co": {"X": 1, "Y": 0}, "handle_left": {"X": 0.5, "Y": 1}}]}, "alpha": {"Points": [{"handle_type": 0, "handle_right": {"X": 0.5, "Y": 0}, "interpolation": 0, "co": {"X": 1, "Y": 255}, "handle_left": {"X": 0.5, "Y": 1}}]}, "green": {"Points": [{"handle_type": 0, "handle_right": {"X": 0.5, "Y": 0}, "interpolation": 0, "co": {"X": 1, "Y": 123}, "handle_left": {"X": 0.5, "Y": 1}}]}}, "perspective_c4_x": {"Points": [{"co": {"X": 1, "Y": -1}, "interpolation": 2}]}}, {"perspective_c3_x": {"Points": [{"co": {"X": 1, "Y": -1}, "interpolation": 2}]}, "duration": 86400.0, "crop_x": {"Points": [{"co": {"X": 1, "Y": 0}, "interpolation": 2}]}, "alpha": {"Points": [{"co": {"X": 1, "Y": 1}, "interpolation": 2}]}, "file_id": "W3X0DXJTS6", "channel_mapping": {"Points": [{"co": {"X": 1, "Y": -1}, "interpolation": 2}]}, "scale_y": {"Points": [{"co": {"X": 1, "Y": 1}, "interpolation": 2}]}, "time": {"Points": [{"co": {"X": 1, "Y": 1}, "interpolation": 2}]}, "volume": {"Points": [{"co": {"X": 1, "Y": 1}, "interpolation": 2}]}, "crop_height": {"Points": [{"co": {"X": 1, "Y": -1}, "interpolation": 2}]}, "effects": [], "rotation": {"Points": [{"co": {"X": 1, "Y": 0}, "interpolation": 2}]}, "has_video": {"Points": [{"co": {"X": 1, "Y": -1}, "interpolation": 2}]}, "perspective_c2_y": {"Points": [{"co": {"X": 1, "Y": -1}, "interpolation": 2}]}, "perspective_c2_x": {"Points": [{"co": {"X": 1, "Y": -1}, "interpolation": 2}]}, "scale": 1, "waveform": false, "image": "/home/milind/.openshot_qt/thumbnail/W3X0DXJTS6.png", "has_audio": {"Points": [{"co": {"X": 1, "Y": -1}, "interpolation": 2}]}, "anchor": 0, "reader": {"duration": 86400.0, "top_field_first": true, "file_size": "8294400", "has_single_image": true, "sample_rate": 0, "pixel_ratio": {"den": 1, "num": 1}, "video_length": "2592000", "channel_layout": 4, "interlaced_frame": false, "vcodec": "", "has_video": true, "has_audio": false, "video_stream_index": -1, "audio_stream_index": -1, "type": "QtImageReader", "fps": {"den": 1, "num": 30}, "display_ratio": {"den": 9, "num": 16}, "channels": 0, "video_timebase": {"den": 30, "num": 1}, "audio_bit_rate": 0, "pixel_format": -1, "height": 1080, "width": 1920, "acodec": "", "audio_timebase": {"den": 1, "num": 1}, "video_bit_rate": 0, "path": "/home/milind/Data/Projects/ProgressCard/!000-White-Background.svg"}, "gravity": 4, "end": 10, "scale_x": {"Points": [{"co": {"X": 1, "Y": 1}, "interpolation": 2}]}, "shear_y": {"Points": [{"co": {"X": 1, "Y": 0}, "interpolation": 2}]}, "display": 0, "perspective_c1_y": {"Points": [{"co": {"X": 1, "Y": -1}, "interpolation": 2}]}, "position": 194.4, "crop_y": {"Points": [{"co": {"X": 1, "Y": 0}, "interpolation": 2}]}, "perspective_c4_y": {"Points": [{"co": {"X": 1, "Y": -1}, "interpolation": 2}]}, "crop_width": {"Points": [{"co": {"X": 1, "Y": -1}, "interpolation": 2}]}, "title": "!000-White-Background.svg", "layer": 0, "location_x": {"Points": [{"co": {"X": 1, "Y": 0}, "interpolation": 2}]}, "shear_x": {"Points": [{"co": {"X": 1, "Y": 0}, "interpolation": 2}]}, "channel_filter": {"Points": [{"co": {"X": 1, "Y": -1}, "interpolation": 2}]}, "location_y": {"Points": [{"co": {"X": 1, "Y": 0}, "interpolation": 2}]}, "perspective_c1_x": {"Points": [{"co": {"X": 1, "Y": -1}, "interpolation": 2}]}, "id": "ZI2MDCVQ2F", "start": 0, "perspective_c3_y": {"Points": [{"co": {"X": 1, "Y": -1}, "interpolation": 2}]}, "wave_color": {"blue": {"Points": [{"handle_type": 0, "handle_right": {"X": 0.5, "Y": 0}, "interpolation": 0, "co": {"X": 1, "Y": 255}, "handle_left": {"X": 0.5, "Y": 1}}]}, "red": {"Points": [{"handle_type": 0, "handle_right": {"X": 0.5, "Y": 0}, "interpolation": 0, "co": {"X": 1, "Y": 0}, "handle_left": {"X": 0.5, "Y": 1}}]}, "alpha": {"Points": [{"handle_type": 0, "handle_right": {"X": 0.5, "Y": 0}, "interpolation": 0, "co": {"X": 1, "Y": 255}, "handle_left": {"X": 0.5, "Y": 1}}]}, "green": {"Points": [{"handle_type": 0, "handle_right": {"X": 0.5, "Y": 0}, "interpolation": 0, "co": {"X": 1, "Y": 123}, "handle_left": {"X": 0.5, "Y": 1}}]}}, "perspective_c4_x": {"Points": [{"co": {"X": 1, "Y": -1}, "interpolation": 2}]}}, {"perspective_c3_x": {"Points": [{"co": {"X": 1, "Y": -1}, "interpolation": 2}]}, "duration": 86400.0, "crop_x": {"Points": [{"co": {"X": 1, "Y": 0}, "interpolation": 2}]}, "alpha": {"Points": [{"co": {"X": 1, "Y": 1}, "interpolation": 2}, {"handle_type": 0, "handle_right": {"X": 0.5, "Y": 0}, "co": {"X": 1, "Y": 0}, "interpolation": 0, "handle_left": {"X": 0.5, "Y": 1}}, {"handle_type": 0, "handle_right": {"X": 0.5, "Y": 0}, "co": {"X": 73, "Y": 1}, "interpolation": 0, "handle_left": {"X": 0.5, "Y": 1}}, {"handle_type": 0, "handle_right": {"X": 0.5, "Y": 0}, "interpolation": 0, "co": {"X": 49, "Y": 1}, "handle_left": {"X": 0.5, "Y": 1}}, {"handle_type": 0, "handle_right": {"X": 0.5, "Y": 0}, "interpolation": 0, "co": {"X": 121, "Y": 0}, "handle_left": {"X": 0.5, "Y": 1}}]}, "file_id": "3LXINJ8GXN", "channel_mapping": {"Points": [{"co": {"X": 1, "Y": -1}, "interpolation": 2}]}, "scale_y": {"Points": [{"co": {"X": 1, "Y": 1}, "interpolation": 2}]}, "time": {"Points": [{"co": {"X": 1, "Y": 1}, "interpolation": 2}]}, "volume": {"Points": [{"co": {"X": 1, "Y": 1}, "interpolation": 2}]}, "crop_height": {"Points": [{"co": {"X": 1, "Y": -1}, "interpolation": 2}]}, "effects": [], "rotation": {"Points": [{"co": {"X": 1, "Y": 0}, "interpolation": 2}]}, "has_video": {"Points": [{"co": {"X": 1, "Y": -1}, "interpolation": 2}]}, "perspective_c2_y": {"Points": [{"co": {"X": 1, "Y": -1}, "interpolation": 2}]}, "perspective_c2_x": {"Points": [{"co": {"X": 1, "Y": -1}, "interpolation": 2}]}, "scale": 1, "waveform": false, "image": "/home/milind/.openshot_qt/thumbnail/3LXINJ8GXN.png", "has_audio": {"Points": [{"co": {"X": 1, "Y": -1}, "interpolation": 2}]}, "anchor": 0, "reader": {"duration": 86400.0, "top_field_first": true, "file_size": "104140324", "has_single_image": true, "sample_rate": 0, "pixel_ratio": {"den": 1, "num": 1}, "video_length": "2592000", "channel_layout": 4, "interlaced_frame": false, "vcodec": "", "has_video": true, "has_audio": false, "video_stream_index": -1, "audio_stream_index": -1, "type": "QtImageReader", "fps": {"den": 1, "num": 30}, "display_ratio": {"den": 3827, "num": 6803}, "channels": 0, "video_timebase": {"den": 30, "num": 1}, "audio_bit_rate": 0, "pixel_format": -1, "height": 3827, "width": 6803, "acodec": "", "audio_timebase": {"den": 1, "num": 1}, "video_bit_rate": 0, "path": "/home/milind/Data/Projects/ProgressCard/!152-Slide -Open Libre Base.svg"}, "gravity": 4, "end": 5, "scale_x": {"Points": [{"co": {"X": 1, "Y": 1}, "interpolation": 2}]}, "shear_y": {"Points": [{"co": {"X": 1, "Y": 0}, "interpolation": 2}]}, "display": 0, "perspective_c1_y": {"Points": [{"co": {"X": 1, "Y": -1}, "interpolation": 2}]}, "position": 2.0, "crop_y": {"Points": [{"co": {"X": 1, "Y": 0}, "interpolation": 2}]}, "perspective_c4_y": {"Points": [{"co": {"X": 1, "Y": -1}, "interpolation": 2}]}, "crop_width": {"Points": [{"co": {"X": 1, "Y": -1}, "interpolation": 2}]}, "title": "!152-Slide -Open Libre Base.svg", "layer": 1, "location_x": {"Points": [{"co": {"X": 1, "Y": 0}, "interpolation": 2}]}, "shear_x": {"Points": [{"co": {"X": 1, "Y": 0}, "interpolation": 2}]}, "channel_filter": {"Points": [{"co": {"X": 1, "Y": -1}, "interpolation": 2}]}, "location_y": {"Points": [{"co": {"X": 1, "Y": 0}, "interpolation": 2}]}, "perspective_c1_x": {"Points": [{"co": {"X": 1, "Y": -1}, "interpolation": 2}]}, "id": "KADE8VO8LG", "start": 0, "perspective_c3_y": {"Points": [{"co": {"X": 1, "Y": -1}, "interpolation": 2}]}, "wave_color": {"blue": {"Points": [{"handle_type": 0, "handle_right": {"X": 0.5, "Y": 0}, "co": {"X": 1, "Y": 255}, "interpolation": 0, "handle_left": {"X": 0.5, "Y": 1}}]}, "red": {"Points": [{"handle_type": 0, "handle_right": {"X": 0.5, "Y": 0}, "co": {"X": 1, "Y": 0}, "interpolation": 0, "handle_left": {"X": 0.5, "Y": 1}}]}, "alpha": {"Points": [{"handle_type": 0, "handle_right": {"X": 0.5, "Y": 0}, "co": {"X": 1, "Y": 255}, "interpolation": 0, "handle_left": {"X": 0.5, "Y": 1}}]}, "green": {"Points": [{"handle_type": 0, "handle_right": {"X": 0.5, "Y": 0}, "co": {"X": 1, "Y": 123}, "interpolation": 0, "handle_left": {"X": 0.5, "Y": 1}}]}}, "perspective_c4_x": {"Points": [{"co": {"X": 1, "Y": -1}, "interpolation": 2}]}}, {"perspective_c1_y": {"Points": [{"co": {"X": 1, "Y": -1}, "interpolation": 2}]}, "perspective_c3_x": {"Points": [{"co": {"X": 1, "Y": -1}, "interpolation": 2}]}, "perspective_c2_y": {"Points": [{"co": {"X": 1, "Y": -1}, "interpolation": 2}]}, "alpha": {"Points": [{"co": {"X": 1, "Y": 1}, "interpolation": 2}, {"handle_type": 0, "handle_right": {"X": 0.5, "Y": 0}, "interpolation": 0, "co": {"X": 441, "Y": 0}, "handle_left": {"X": 0.5, "Y": 1}}, {"handle_type": 0, "handle_right": {"X": 0.5, "Y": 0}, "interpolation": 0, "co": {"X": 465, "Y": 1}, "handle_left": {"X": 0.5, "Y": 1}}, {"handle_type": 0, "handle_right": {"X": 0.5, "Y": 0}, "co": {"X": 582, "Y": 1}, "interpolation": 0, "handle_left": {"X": 0.5, "Y": 1}}, {"handle_type": 0, "handle_right": {"X": 0.5, "Y": 0}, "co": {"X": 606, "Y": 0}, "interpolation": 0, "handle_left": {"X": 0.5, "Y": 1}}]}, "duration": 67.0, "scale_y": {"Points": [{"interpolation": 2, "co": {"X": 1, "Y": 1}}, {"interpolation": 1, "co": {"X": 527, "Y": 2.0}}]}, "time": {"Points": [{"co": {"X": 1, "Y": 1}, "interpolation": 2}, {"interpolation": 1, "co": {"X": 480, "Y": 480}}, {"interpolation": 1, "co": {"X": 528, "Y": 480}}, {"interpolation": 1, "co": {"X": 497, "Y": 480}}, {"interpolation": 1, "co": {"X": 545, "Y": 480}}, {"co": {"X": 558, "Y": 493}, "interpolation": 1}, {"co": {"X": 606, "Y": 493}, "interpolation": 1}, {"co": {"X": 1609, "Y": 1465}, "interpolation": 1}]}, "volume": {"Points": [{"co": {"X": 1, "Y": 1}, "interpolation": 2}, {"interpolation": 1, "co": {"X": 479, "Y": 1}}, {"interpolation": 1, "co": {"X": 480, "Y": 0}}, {"interpolation": 1, "co": {"X": 527, "Y": 0}}, {"interpolation": 1, "co": {"X": 528, "Y": 1}}, {"interpolation": 1, "co": {"X": 496, "Y": 0}}, {"interpolation": 1, "co": {"X": 497, "Y": 0}}, {"interpolation": 1, "co": {"X": 544, "Y": 0}}, {"interpolation": 1, "co": {"X": 545, "Y": 0}}, {"co": {"X": 557, "Y": 0}, "interpolation": 1}, {"co": {"X": 558, "Y": 0}, "interpolation": 1}, {"co": {"X": 605, "Y": 0}, "interpolation": 1}, {"co": {"X": 606, "Y": 0}, "interpolation": 1}]}, "crop_height": {"Points": [{"co": {"X": 1, "Y": -1}, "interpolation": 2}]}, "effects": [], "rotation": {"Points": [{"co": {"X": 1, "Y": 0}, "interpolation": 2}]}, "has_video": {"Points": [{"co": {"X": 1, "Y": -1}, "interpolation": 2}]}, "perspective_c2_x": {"Points": [{"co": {"X": 1, "Y": -1}, "interpolation": 2}]}, "image": "/home/milind/.openshot_qt/thumbnail/5MD00FYBJ8-459.png", "perspective_c3_y": {"Points": [{"co": {"X": 1, "Y": -1}, "interpolation": 2}]}, "position": 27.66875, "channel_mapping": {"Points": [{"co": {"X": 1, "Y": -1}, "interpolation": 2}]}, "shear_y": {"Points": [{"co": {"X": 1, "Y": 0}, "interpolation": 2}]}, "crop_width": {"Points": [{"co": {"X": 1, "Y": -1}, "interpolation": 2}]}, "location_x": {"Points": [{"interpolation": 2, "co": {"X": 1, "Y": 0}}, {"interpolation": 1, "co": {"X": 527, "Y": -0.20000000298023224}}]}, "crop_y": {"Points": [{"co": {"X": 1, "Y": 0}, "interpolation": 2}]}, "title": "!160-Register Spreadsheet as Database.mkv", "original_data": {"duration": 61.0, "video_length": "1525", "end": 61}, "shear_x": {"Points": [{"co": {"X": 1, "Y": 0}, "interpolation": 2}]}, "channel_filter": {"Points": [{"co": {"X": 1, "Y": -1}, "interpolation": 2}]}, "location_y": {"Points": [{"interpolation": 2, "co": {"X": 1, "Y": 0}}, {"interpolation": 1, "co": {"X": 527, "Y": 0.30000001192092896}}]}, "id": "5MD00FYBJ8", "start": 18.334895833333327, "perspective_c4_y": {"Points": [{"co": {"X": 1, "Y": -1}, "interpolation": 2}]}, "wave_color": {"blue": {"Points": [{"handle_type": 0, "handle_right": {"X": 0.5, "Y": 0}, "co": {"X": 1, "Y": 255}, "interpolation": 0, "handle_left": {"X": 0.5, "Y": 1}}]}, "red": {"Points": [{"handle_type": 0, "handle_right": {"X": 0.5, "Y": 0}, "co": {"X": 1, "Y": 0}, "interpolation": 0, "handle_left": {"X": 0.5, "Y": 1}}]}, "alpha": {"Points": [{"handle_type": 0, "handle_right": {"X": 0.5, "Y": 0}, "co": {"X": 1, "Y": 255}, "interpolation": 0, "handle_left": {"X": 0.5, "Y": 1}}]}, "green": {"Points": [{"handle_type": 0, "handle_right": {"X": 0.5, "Y": 0}, "co": {"X": 1, "Y": 123}, "interpolation": 0, "handle_left": {"X": 0.5, "Y": 1}}]}}, "perspective_c4_x": {"Points": [{"co": {"X": 1, "Y": -1}, "interpolation": 2}]}, "crop_x": {"Points": [{"co": {"X": 1, "Y": 0}, "interpolation": 2}]}, "file_id": "YJ84IVW8VE", "end": 25.20989583333333, "scale": 1, "has_audio": {"Points": [{"co": {"X": 1, "Y": -1}, "interpolation": 2}]}, "anchor": 0, "reader": {"duration": 61.0, "top_field_first": true, "file_size": "666485", "has_single_image": false, "sample_rate": 0, "pixel_ratio": {"den": 1, "num": 1}, "video_length": "1525", "channel_layout": 4, "interlaced_frame": false, "vcodec": "h264", "has_video": true, "has_audio": false, "video_stream_index": 0, "audio_stream_index": -1, "type": "FFmpegReader", "fps": {"den": 1, "num": 25}, "display_ratio": {"den": 384, "num": 683}, "channels": 0, "video_timebase": {"den": 1000, "num": 1}, "audio_bit_rate": 0, "pixel_format": 0, "height": 768, "width": 1366, "acodec": "", "audio_timebase": {"den": 1, "num": 1}, "video_bit_rate": 87179, "path": "/home/milind/Data/Projects/ProgressCard/!160-Register Spreadsheet as Database.mkv"}, "gravity": 4, "scale_x": {"Points": [{"interpolation": 2, "co": {"X": 1, "Y": 1}}, {"interpolation": 1, "co": {"X": 527, "Y": 2.0}}]}, "display": 0, "waveform": false, "layer": 1, "perspective_c1_x": {"Points": [{"co": {"X": 1, "Y": -1}, "interpolation": 2}]}}, {"perspective_c1_y": {"Points": [{"interpolation": 2, "co": {"X": 1, "Y": -1}}]}, "perspective_c3_x": {"Points": [{"interpolation": 2, "co": {"X": 1, "Y": -1}}]}, "perspective_c2_y": {"Points": [{"interpolation": 2, "co": {"X": 1, "Y": -1}}]}, "alpha": {"Points": [{"interpolation": 2, "co": {"X": 1, "Y": 1}}, {"handle_type": 0, "handle_right": {"X": 0.5, "Y": 0}, "interpolation": 0, "co": {"X": 649, "Y": 0}, "handle_left": {"X": 0.5, "Y": 1}}, {"handle_type": 0, "handle_right": {"X": 0.5, "Y": 0}, "interpolation": 0, "co": {"X": 673, "Y": 1}, "handle_left": {"X": 0.5, "Y": 1}}, {"handle_type": 0, "handle_right": {"X": 0.5, "Y": 0}, "co": {"X": 792, "Y": 1}, "interpolation": 0, "handle_left": {"X": 0.5, "Y": 1}}, {"handle_type": 0, "handle_right": {"X": 0.5, "Y": 0}, "co": {"X": 816, "Y": 0}, "interpolation": 0, "handle_left": {"X": 0.5, "Y": 1}}]}, "duration": 67.0, "scale_y": {"Points": [{"handle_type": 0, "handle_right": {"X": 0.5, "Y": 0}, "co": {"X": 1, "Y": 1}, "interpolation": 0, "handle_left": {"X": 0.5, "Y": 1}}, {"interpolation": 1, "co": {"X": 747, "Y": 1.2000000476837158}}, {"co": {"X": 649, "Y": 1.2000000476837158}, "interpolation": 1}]}, "time": {"Points": [{"interpolation": 2, "co": {"X": 1, "Y": 1}}, {"co": {"X": 480, "Y": 480}, "interpolation": 1}, {"co": {"X": 528, "Y": 480}, "interpolation": 1}, {"co": {"X": 497, "Y": 480}, "interpolation": 1}, {"co": {"X": 545, "Y": 480}, "interpolation": 1}, {"co": {"X": 767, "Y": 695}, "interpolation": 1}, {"co": {"X": 815, "Y": 695}, "interpolation": 1}, {"co": {"X": 1609, "Y": 1465}, "interpolation": 1}]}, "volume": {"Points": [{"interpolation": 2, "co": {"X": 1, "Y": 1}}, {"co": {"X": 479, "Y": 1}, "interpolation": 1}, {"co": {"X": 480, "Y": 0}, "interpolation": 1}, {"co": {"X": 527, "Y": 0}, "interpolation": 1}, {"co": {"X": 528, "Y": 1}, "interpolation": 1}, {"co": {"X": 496, "Y": 0}, "interpolation": 1}, {"co": {"X": 497, "Y": 0}, "interpolation": 1}, {"co": {"X": 544, "Y": 0}, "interpolation": 1}, {"co": {"X": 545, "Y": 0}, "interpolation": 1}, {"co": {"X": 766, "Y": 0}, "interpolation": 1}, {"co": {"X": 767, "Y": 0}, "interpolation": 1}, {"co": {"X": 814, "Y": 0}, "interpolation": 1}, {"co": {"X": 815, "Y": 0}, "interpolation": 1}]}, "crop_height": {"Points": [{"interpolation": 2, "co": {"X": 1, "Y": -1}}]}, "effects": [], "rotation": {"Points": [{"interpolation": 2, "co": {"X": 1, "Y": 0}}]}, "has_video": {"Points": [{"interpolation": 2, "co": {"X": 1, "Y": -1}}]}, "perspective_c2_x": {"Points": [{"interpolation": 2, "co": {"X": 1, "Y": -1}}]}, "image": "/home/milind/.openshot_qt/thumbnail/CUFU76JSRY-676.png", "perspective_c3_y": {"Points": [{"interpolation": 2, "co": {"X": 1, "Y": -1}}]}, "position": 34.541406249999994, "channel_mapping": {"Points": [{"interpolation": 2, "co": {"X": 1, "Y": -1}}]}, "shear_y": {"Points": [{"interpolation": 2, "co": {"X": 1, "Y": 0}}]}, "crop_width": {"Points": [{"interpolation": 2, "co": {"X": 1, "Y": -1}}]}, "location_x": {"Points": [{"handle_type": 0, "handle_right": {"X": 0.5, "Y": 0}, "co": {"X": 1, "Y": 0}, "interpolation": 0, "handle_left": {"X": 0.5, "Y": 1}}]}, "crop_y": {"Points": [{"interpolation": 2, "co": {"X": 1, "Y": 0}}]}, "title": "!160-Register Spreadsheet as Database.mkv", "original_data": {"duration": 61.0, "video_length": "1525", "end": 61}, "shear_x": {"Points": [{"interpolation": 2, "co": {"X": 1, "Y": 0}}]}, "channel_filter": {"Points": [{"interpolation": 2, "co": {"X": 1, "Y": -1}}]}, "location_y": {"Points": [{"handle_type": 0, "handle_right": {"X": 0.5, "Y": 0}, "co": {"X": 1, "Y": 0}, "interpolation": 0, "handle_left": {"X": 0.5, "Y": 1}}, {"interpolation": 1, "co": {"X": 747, "Y": -0.10000000149011612}}, {"co": {"X": 649, "Y": -0.10000000149011612}, "interpolation": 1}]}, "id": "CUFU76JSRY", "start": 27.001250000000002, "perspective_c4_y": {"Points": [{"interpolation": 2, "co": {"X": 1, "Y": -1}}]}, "wave_color": {"blue": {"Points": [{"handle_type": 0, "handle_right": {"X": 0.5, "Y": 0}, "interpolation": 0, "co": {"X": 1, "Y": 255}, "handle_left": {"X": 0.5, "Y": 1}}]}, "red": {"Points": [{"handle_type": 0, "handle_right": {"X": 0.5, "Y": 0}, "interpolation": 0, "co": {"X": 1, "Y": 0}, "handle_left": {"X": 0.5, "Y": 1}}]}, "alpha": {"Points": [{"handle_type": 0, "handle_right": {"X": 0.5, "Y": 0}, "interpolation": 0, "co": {"X": 1, "Y": 255}, "handle_left": {"X": 0.5, "Y": 1}}]}, "green": {"Points": [{"handle_type": 0, "handle_right": {"X": 0.5, "Y": 0}, "interpolation": 0, "co": {"X": 1, "Y": 123}, "handle_left": {"X": 0.5, "Y": 1}}]}}, "perspective_c4_x": {"Points": [{"interpolation": 2, "co": {"X": 1, "Y": -1}}]}, "crop_x": {"Points": [{"interpolation": 2, "co": {"X": 1, "Y": 0}}]}, "file_id": "YJ84IVW8VE", "end": 33.95958333333333, "scale": 1, "has_audio": {"Points": [{"interpolation": 2, "co": {"X": 1, "Y": -1}}]}, "anchor": 0, "reader": {"duration": 61.0, "top_field_first": true, "file_size": "666485", "has_single_image": false, "sample_rate": 0, "pixel_ratio": {"den": 1, "num": 1}, "video_length": "1525", "channel_layout": 4, "interlaced_frame": false, "vcodec": "h264", "has_video": true, "has_audio": false, "video_stream_index": 0, "audio_stream_index": -1, "type": "FFmpegReader", "fps": {"den": 1, "num": 25}, "display_ratio": {"den": 384, "num": 683}, "channels": 0, "video_timebase": {"den": 1000, "num": 1}, "audio_bit_rate": 0, "pixel_format": 0, "height": 768, "width": 1366, "acodec": "", "audio_timebase": {"den": 1, "num": 1}, "video_bit_rate": 87179, "path": "/home/milind/Data/Projects/ProgressCard/!160-Register Spreadsheet as Database.mkv"}, "gravity": 4, "scale_x": {"Points": [{"handle_type": 0, "handle_right": {"X": 0.5, "Y": 0}, "interpolation": 0, "co": {"X": 1, "Y": 1}, "handle_left": {"X": 0.5, "Y": 1}}, {"co": {"X": 747, "Y": 1.2999999523162842}, "interpolation": 1}, {"co": {"X": 649, "Y": 1.2999999523162842}, "interpolation": 1}]}, "display": 0, "waveform": false, "layer": 1, "perspective_c1_x": {"Points": [{"interpolation": 2, "co": {"X": 1, "Y": -1}}]}}, {"perspective_c1_y": {"Points": [{"interpolation": 2, "co": {"X": 1, "Y": -1}}]}, "perspective_c3_x": {"Points": [{"interpolation": 2, "co": {"X": 1, "Y": -1}}]}, "perspective_c2_y": {"Points": [{"interpolation": 2, "co": {"X": 1, "Y": -1}}]}, "alpha": {"Points": [{"handle_type": 0, "handle_right": {"X": 0.5, "Y": 0}, "interpolation": 0, "co": {"X": 1, "Y": 1}, "handle_left": {"X": 0.5, "Y": 1}}, {"handle_type": 0, "handle_right": {"X": 0.5, "Y": 0}, "interpolation": 0, "co": {"X": 931, "Y": 1}, "handle_left": {"X": 0.5, "Y": 1}}, {"handle_type": 0, "handle_right": {"X": 0.5, "Y": 0}, "interpolation": 0, "co": {"X": 955, "Y": 0}, "handle_left": {"X": 0.5, "Y": 1}}]}, "duration": 65.0, "scale_y": {"Points": [{"interpolation": 2, "co": {"X": 1, "Y": 1}}, {"interpolation": 1, "co": {"X": 768, "Y": 1.2999999523162842}}, {"interpolation": 1, "co": {"X": 822, "Y": 2.299999952316284}}]}, "time": {"Points": [{"interpolation": 1, "co": {"X": 1, "Y": 0}}, {"interpolation": 1, "co": {"X": 770, "Y": 770}}, {"interpolation": 1, "co": {"X": 866, "Y": 770}}, {"interpolation": 1, "co": {"X": 1561, "Y": 1465}}]}, "volume": {"Points": [{"interpolation": 2, "co": {"X": 1, "Y": 1}}, {"interpolation": 1, "co": {"X": 768, "Y": 1}}, {"interpolation": 1, "co": {"X": 769, "Y": 0}}, {"interpolation": 1, "co": {"X": 816, "Y": 0}}, {"interpolation": 1, "co": {"X": 817, "Y": 1}}, {"interpolation": 1, "co": {"X": 768, "Y": 0}}, {"interpolation": 1, "co": {"X": 769, "Y": 0}}, {"interpolation": 1, "co": {"X": 816, "Y": 0}}, {"interpolation": 1, "co": {"X": 817, "Y": 0}}, {"interpolation": 1, "co": {"X": 768, "Y": 0}}, {"interpolation": 1, "co": {"X": 769, "Y": 0}}, {"interpolation": 1, "co": {"X": 816, "Y": 0}}, {"interpolation": 1, "co": {"X": 817, "Y": 0}}, {"interpolation": 1, "co": {"X": 768, "Y": 0}}, {"interpolation": 1, "co": {"X": 769, "Y": 0}}, {"interpolation": 1, "co": {"X": 816, "Y": 0}}, {"interpolation": 1, "co": {"X": 817, "Y": 0}}, {"interpolation": 1, "co": {"X": 804, "Y": 0}}, {"interpolation": 1, "co": {"X": 805, "Y": 0}}, {"interpolation": 1, "co": {"X": 852, "Y": 0}}, {"interpolation": 1, "co": {"X": 853, "Y": 0}}, {"interpolation": 1, "co": {"X": 769, "Y": 0}}, {"interpolation": 1, "co": {"X": 770, "Y": 0}}, {"interpolation": 1, "co": {"X": 865, "Y": 0}}, {"interpolation": 1, "co": {"X": 866, "Y": 0}}]}, "crop_height": {"Points": [{"interpolation": 2, "co": {"X": 1, "Y": -1}}]}, "effects": [], "rotation": {"Points": [{"interpolation": 2, "co": {"X": 1, "Y": 0}}]}, "has_video": {"Points": [{"interpolation": 2, "co": {"X": 1, "Y": -1}}]}, "perspective_c2_x": {"Points": [{"interpolation": 2, "co": {"X": 1, "Y": -1}}]}, "image": "/home/milind/.openshot_qt/thumbnail/9L9W1S3V4Q-800.png", "perspective_c3_y": {"Points": [{"interpolation": 2, "co": {"X": 1, "Y": -1}}]}, "position": 41.496875, "channel_mapping": {"Points": [{"interpolation": 2, "co": {"X": 1, "Y": -1}}]}, "shear_y": {"Points": [{"interpolation": 2, "co": {"X": 1, "Y": 0}}]}, "crop_width": {"Points": [{"interpolation": 2, "co": {"X": 1, "Y": -1}}]}, "location_x": {"Points": [{"interpolation": 2, "co": {"X": 1, "Y": 0}}, {"interpolation": 1, "co": {"X": 822, "Y": -0.20000000298023224}}]}, "crop_y": {"Points": [{"interpolation": 2, "co": {"X": 1, "Y": 0}}]}, "title": "!160-Register Spreadsheet as Database.mkv", "original_data": {"duration": 61.0, "video_length": "1525", "end": 61}, "shear_x": {"Points": [{"interpolation": 2, "co": {"X": 1, "Y": 0}}]}, "channel_filter": {"Points": [{"interpolation": 2, "co": {"X": 1, "Y": -1}}]}, "location_y": {"Points": [{"interpolation": 2, "co": {"X": 1, "Y": 0}}, {"interpolation": 1, "co": {"X": 768, "Y": -0.03500000014901161}}, {"interpolation": 1, "co": {"X": 822, "Y": 0.30000001192092896}}, {"interpolation": 1, "co": {"X": 901, "Y": -0.44999998807907104}}, {"interpolation": 1, "co": {"X": 876, "Y": 0.30000001192092896}}]}, "id": "9L9W1S3V4Q", "start": 31.971458333333338, "perspective_c4_y": {"Points": [{"interpolation": 2, "co": {"X": 1, "Y": -1}}]}, "wave_color": {"blue": {"Points": [{"handle_type": 0, "handle_right": {"X": 0.5, "Y": 0}, "interpolation": 0, "co": {"X": 1, "Y": 255}, "handle_left": {"X": 0.5, "Y": 1}}]}, "red": {"Points": [{"handle_type": 0, "handle_right": {"X": 0.5, "Y": 0}, "interpolation": 0, "co": {"X": 1, "Y": 0}, "handle_left": {"X": 0.5, "Y": 1}}]}, "alpha": {"Points": [{"handle_type": 0, "handle_right": {"X": 0.5, "Y": 0}, "interpolation": 0, "co": {"X": 1, "Y": 255}, "handle_left": {"X": 0.5, "Y": 1}}]}, "green": {"Points": [{"handle_type": 0, "handle_right": {"X": 0.5, "Y": 0}, "interpolation": 0, "co": {"X": 1, "Y": 123}, "handle_left": {"X": 0.5, "Y": 1}}]}}, "perspective_c4_x": {"Points": [{"interpolation": 2, "co": {"X": 1, "Y": -1}}]}, "crop_x": {"Points": [{"interpolation": 2, "co": {"X": 1, "Y": 0}}]}, "file_id": "YJ84IVW8VE", "end": 39.763125, "scale": 1, "has_audio": {"Points": [{"interpolation": 2, "co": {"X": 1, "Y": -1}}]}, "anchor": 0, "reader": {"duration": 61.0, "top_field_first": true, "file_size": "666485", "has_single_image": false, "sample_rate": 0, "pixel_ratio": {"den": 1, "num": 1}, "channel_layout": 4, "video_length": "1525", "interlaced_frame": false, "vcodec": "h264", "has_video": true, "has_audio": false, "video_stream_index": 0, "audio_stream_index": -1, "type": "FFmpegReader", "fps": {"den": 1, "num": 25}, "display_ratio": {"den": 384, "num": 683}, "channels": 0, "video_timebase": {"den": 1000, "num": 1}, "audio_bit_rate": 0, "pixel_format": 0, "height": 768, "width": 1366, "acodec": "", "audio_timebase": {"den": 1, "num": 1}, "video_bit_rate": 87179, "path": "/home/milind/Data/Projects/ProgressCard/!160-Register Spreadsheet as Database.mkv"}, "gravity": 4, "scale_x": {"Points": [{"interpolation": 2, "co": {"X": 1, "Y": 1}}, {"interpolation": 1, "co": {"X": 768, "Y": 1.2999999523162842}}, {"interpolation": 1, "co": {"X": 822, "Y": 2.299999952316284}}]}, "display": 0, "waveform": false, "layer": 2, "perspective_c1_x": {"Points": [{"interpolation": 2, "co": {"X": 1, "Y": -1}}]}}, {"perspective_c1_y": {"Points": [{"interpolation": 2, "co": {"X": 1, "Y": -1}}]}, "perspective_c3_x": {"Points": [{"interpolation": 2, "co": {"X": 1, "Y": -1}}]}, "perspective_c2_y": {"Points": [{"interpolation": 2, "co": {"X": 1, "Y": -1}}]}, "alpha": {"Points": [{"handle_type": 0, "handle_right": {"X": 0.5, "Y": 0}, "interpolation": 0, "co": {"X": 1, "Y": 1}, "handle_left": {"X": 0.5, "Y": 1}}, {"handle_type": 0, "handle_right": {"X": 0.5, "Y": 0}, "interpolation": 0, "co": {"X": 1279, "Y": 1}, "handle_left": {"X": 0.5, "Y": 1}}, {"handle_type": 0, "handle_right": {"X": 0.5, "Y": 0}, "interpolation": 0, "co": {"X": 1351, "Y": 0}, "handle_left": {"X": 0.5, "Y": 1}}]}, "scale_y": {"Points": [{"interpolation": 2, "co": {"X": 1, "Y": 1}}, {"interpolation": 1, "co": {"X": 768, "Y": 1.2999999523162842}}, {"interpolation": 1, "co": {"X": 822, "Y": 2.299999952316284}}]}, "time": {"Points": [{"interpolation": 1, "co": {"X": 1, "Y": 0}}, {"interpolation": 1, "co": {"X": 770, "Y": 770}}, {"interpolation": 1, "co": {"X": 866, "Y": 770}}, {"interpolation": 1, "co": {"X": 1171, "Y": 1075}}, {"interpolation": 1, "co": {"X": 1219, "Y": 1075}}, {"interpolation": 1, "co": {"X": 1171, "Y": 1075}}, {"interpolation": 1, "co": {"X": 1219, "Y": 1075}}, {"interpolation": 1, "co": {"X": 1190, "Y": 1075}}, {"interpolation": 1, "co": {"X": 1286, "Y": 1075}}, {"interpolation": 1, "co": {"X": 1222, "Y": 1075}}, {"interpolation": 1, "co": {"X": 1318, "Y": 1075}}, {"interpolation": 1, "co": {"X": 1209, "Y": 1075}}, {"interpolation": 1, "co": {"X": 1305, "Y": 1075}}, {"interpolation": 1, "co": {"X": 1205, "Y": 1075}}, {"interpolation": 1, "co": {"X": 1349, "Y": 1075}}, {"interpolation": 1, "co": {"X": 2089, "Y": 1465}}]}, "volume": {"Points": [{"interpolation": 2, "co": {"X": 1, "Y": 1}}, {"interpolation": 1, "co": {"X": 768, "Y": 1}}, {"interpolation": 1, "co": {"X": 769, "Y": 0}}, {"interpolation": 1, "co": {"X": 816, "Y": 0}}, {"interpolation": 1, "co": {"X": 817, "Y": 1}}, {"interpolation": 1, "co": {"X": 768, "Y": 0}}, {"interpolation": 1, "co": {"X": 769, "Y": 0}}, {"interpolation": 1, "co": {"X": 816, "Y": 0}}, {"interpolation": 1, "co": {"X": 817, "Y": 0}}, {"interpolation": 1, "co": {"X": 768, "Y": 0}}, {"interpolation": 1, "co": {"X": 769, "Y": 0}}, {"interpolation": 1, "co": {"X": 816, "Y": 0}}, {"interpolation": 1, "co": {"X": 817, "Y": 0}}, {"interpolation": 1, "co": {"X": 768, "Y": 0}}, {"interpolation": 1, "co": {"X": 769, "Y": 0}}, {"interpolation": 1, "co": {"X": 816, "Y": 0}}, {"interpolation": 1, "co": {"X": 817, "Y": 0}}, {"interpolation": 1, "co": {"X": 804, "Y": 0}}, {"interpolation": 1, "co": {"X": 805, "Y": 0}}, {"interpolation": 1, "co": {"X": 852, "Y": 0}}, {"interpolation": 1, "co": {"X": 853, "Y": 0}}, {"interpolation": 1, "co": {"X": 769, "Y": 0}}, {"interpolation": 1, "co": {"X": 770, "Y": 0}}, {"interpolation": 1, "co": {"X": 865, "Y": 0}}, {"interpolation": 1, "co": {"X": 866, "Y": 0}}, {"interpolation": 1, "co": {"X": 1170, "Y": 0}}, {"interpolation": 1, "co": {"X": 1171, "Y": 0}}, {"interpolation": 1, "co": {"X": 1218, "Y": 0}}, {"interpolation": 1, "co": {"X": 1219, "Y": 0}}, {"interpolation": 1, "co": {"X": 1170, "Y": 0}}, {"interpolation": 1, "co": {"X": 1171, "Y": 0}}, {"interpolation": 1, "co": {"X": 1218, "Y": 0}}, {"interpolation": 1, "co": {"X": 1219, "Y": 0}}, {"interpolation": 1, "co": {"X": 1189, "Y": 0}}, {"interpolation": 1, "co": {"X": 1190, "Y": 0}}, {"interpolation": 1, "co": {"X": 1285, "Y": 0}}, {"interpolation": 1, "co": {"X": 1286, "Y": 0}}, {"interpolation": 1, "co": {"X": 1221, "Y": 0}}, {"interpolation": 1, "co": {"X": 1222, "Y": 0}}, {"interpolation": 1, "co": {"X": 1317, "Y": 0}}, {"interpolation": 1, "co": {"X": 1318, "Y": 0}}, {"interpolation": 1, "co": {"X": 1208, "Y": 0}}, {"interpolation": 1, "co": {"X": 1209, "Y": 0}}, {"interpolation": 1, "co": {"X": 1304, "Y": 0}}, {"interpolation": 1, "co": {"X": 1305, "Y": 0}}, {"interpolation": 1, "co": {"X": 1204, "Y": 0}}, {"interpolation": 1, "co": {"X": 1205, "Y": 0}}, {"interpolation": 1, "co": {"X": 1348, "Y": 0}}, {"interpolation": 1, "co": {"X": 1349, "Y": 0}}]}, "crop_height": {"Points": [{"interpolation": 2, "co": {"X": 1, "Y": -1}}]}, "effects": [], "rotation": {"Points": [{"interpolation": 2, "co": {"X": 1, "Y": 0}}]}, "has_video": {"Points": [{"interpolation": 2, "co": {"X": 1, "Y": -1}}]}, "perspective_c2_x": {"Points": [{"interpolation": 2, "co": {"X": 1, "Y": -1}}]}, "image": "/home/milind/.openshot_qt/thumbnail/OF57GEZECQ-1196.png", "perspective_c3_y": {"Points": [{"interpolation": 2, "co": {"X": 1, "Y": -1}}]}, "position": 47.95625, "channel_mapping": {"Points": [{"interpolation": 2, "co": {"X": 1, "Y": -1}}]}, "shear_y": {"Points": [{"interpolation": 2, "co": {"X": 1, "Y": 0}}]}, "crop_width": {"Points": [{"interpolation": 2, "co": {"X": 1, "Y": -1}}]}, "location_x": {"Points": [{"interpolation": 2, "co": {"X": 1, "Y": 0}}, {"interpolation": 1, "co": {"X": 822, "Y": -0.20000000298023224}}]}, "crop_y": {"Points": [{"interpolation": 2, "co": {"X": 1, "Y": 0}}]}, "title": "!160-Register Spreadsheet as Database.mkv", "original_data": {"duration": 61.0, "video_length": "1525", "end": 61}, "shear_x": {"Points": [{"interpolation": 2, "co": {"X": 1, "Y": 0}}]}, "channel_filter": {"Points": [{"interpolation": 2, "co": {"X": 1, "Y": -1}}]}, "location_y": {"Points": [{"interpolation": 2, "co": {"X": 1, "Y": 0}}, {"interpolation": 1, "co": {"X": 768, "Y": -0.03500000014901161}}, {"interpolation": 1, "co": {"X": 822, "Y": 0.30000001192092896}}, {"interpolation": 1, "co": {"X": 901, "Y": -0.44999998807907104}}, {"interpolation": 1, "co": {"X": 876, "Y": 0.30000001192092896}}]}, "id": "OF57GEZECQ", "start": 47.800625000000004, "perspective_c4_y": {"Points": [{"interpolation": 2, "co": {"X": 1, "Y": -1}}]}, "wave_color": {"blue": {"Points": [{"handle_type": 0, "handle_right": {"X": 0.5, "Y": 0}, "interpolation": 0, "co": {"X": 1, "Y": 255}, "handle_left": {"X": 0.5, "Y": 1}}]}, "red": {"Points": [{"handle_type": 0, "handle_right": {"X": 0.5, "Y": 0}, "interpolation": 0, "co": {"X": 1, "Y": 0}, "handle_left": {"X": 0.5, "Y": 1}}]}, "alpha": {"Points": [{"handle_type": 0, "handle_right": {"X": 0.5, "Y": 0}, "interpolation": 0, "co": {"X": 1, "Y": 255}, "handle_left": {"X": 0.5, "Y": 1}}]}, "green": {"Points": [{"handle_type": 0, "handle_right": {"X": 0.5, "Y": 0}, "interpolation": 0, "co": {"X": 1, "Y": 123}, "handle_left": {"X": 0.5, "Y": 1}}]}}, "perspective_c4_x": {"Points": [{"interpolation": 2, "co": {"X": 1, "Y": -1}}]}, "duration": 87.0, "crop_x": {"Points": [{"interpolation": 2, "co": {"X": 1, "Y": 0}}]}, "file_id": "YJ84IVW8VE", "end": 56.26104166666667, "scale": 1, "has_audio": {"Points": [{"interpolation": 2, "co": {"X": 1, "Y": -1}}]}, "anchor": 0, "reader": {"duration": 61.0, "top_field_first": true, "file_size": "666485", "has_single_image": false, "sample_rate": 0, "pixel_ratio": {"den": 1, "num": 1}, "video_length": "1525", "channel_layout": 4, "interlaced_frame": false, "vcodec": "h264", "has_video": true, "has_audio": false, "video_stream_index": 0, "audio_stream_index": -1, "type": "FFmpegReader", "fps": {"den": 1, "num": 25}, "display_ratio": {"den": 384, "num": 683}, "channels": 0, "video_timebase": {"den": 1000, "num": 1}, "audio_bit_rate": 0, "pixel_format": 0, "height": 768, "width": 1366, "acodec": "", "audio_timebase": {"den": 1, "num": 1}, "video_bit_rate": 87179, "path": "/home/milind/Data/Projects/ProgressCard/!160-Register Spreadsheet as Database.mkv"}, "gravity": 4, "scale_x": {"Points": [{"interpolation": 2, "co": {"X": 1, "Y": 1}}, {"interpolation": 1, "co": {"X": 768, "Y": 1.2999999523162842}}, {"interpolation": 1, "co": {"X": 822, "Y": 2.299999952316284}}]}, "display": 0, "waveform": false, "layer": 3, "perspective_c1_x": {"Points": [{"interpolation": 2, "co": {"X": 1, "Y": -1}}]}}]}, {"value": {"position": 56.415625, "end": 29.375, "image": "/home/milind/.openshot_qt/thumbnail/21YUL66NMK.png", "id": "BOK53Q039G", "start": 0, "layer": 3}, "type": "update", "partial": false, "key": ["clips", {"id": "BOK53Q039G"}], "old_values": {"perspective_c1_y": {"Points": [{"interpolation": 2, "co": {"X": 1, "Y": -1}}]}, "perspective_c3_x": {"Points": [{"interpolation": 2, "co": {"X": 1, "Y": -1}}]}, "perspective_c2_y": {"Points": [{"interpolation": 2, "co": {"X": 1, "Y": -1}}]}, "alpha": {"Points": [{"interpolation": 2, "co": {"X": 1, "Y": 1}}, {"handle_type": 0, "handle_right": {"X": 0.5, "Y": 0}, "co": {"X": 1, "Y": 0}, "interpolation": 0, "handle_left": {"X": 0.5, "Y": 1}}, {"handle_type": 0, "handle_right": {"X": 0.5, "Y": 0}, "co": {"X": 73, "Y": 1}, "interpolation": 0, "handle_left": {"X": 0.5, "Y": 1}}, {"handle_type": 0, "handle_right": {"X": 0.5, "Y": 0}, "interpolation": 0, "co": {"X": 634, "Y": 1}, "handle_left": {"X": 0.5, "Y": 1}}, {"handle_type": 0, "handle_right": {"X": 0.5, "Y": 0}, "interpolation": 0, "co": {"X": 706, "Y": 0}, "handle_left": {"X": 0.5, "Y": 1}}]}, "title": "Finish Connection.mkv", "file_id": "21YUL66NMK", "end": 29.375, "scale_y": {"Points": [{"co": {"X": 1, "Y": 1}, "interpolation": 2}, {"interpolation": 1, "co": {"X": 114, "Y": 1.7999999523162842}}]}, "time": {"Points": [{"interpolation": 2, "co": {"X": 1, "Y": 1}}]}, "volume": {"Points": [{"interpolation": 2, "co": {"X": 1, "Y": 1}}]}, "crop_height": {"Points": [{"interpolation": 2, "co": {"X": 1, "Y": -1}}]}, "effects": [], "rotation": {"Points": [{"interpolation": 2, "co": {"X": 1, "Y": 0}}, {"co": {"X": 114, "Y": 0.0}, "interpolation": 1}]}, "image": "/home/milind/.openshot_qt/thumbnail/21YUL66NMK.png", "crop_x": {"Points": [{"interpolation": 2, "co": {"X": 1, "Y": 0}}]}, "perspective_c2_x": {"Points": [{"interpolation": 2, "co": {"X": 1, "Y": -1}}]}, "scale": 1, "has_video": {"Points": [{"interpolation": 2, "co": {"X": 1, "Y": -1}}]}, "has_audio": {"Points": [{"interpolation": 2, "co": {"X": 1, "Y": -1}}]}, "anchor": 0, "reader": {"duration": 67.0, "type": "FFmpegReader", "file_size": "331213", "has_single_image": false, "sample_rate": 0, "pixel_ratio": {"den": 1, "num": 1}, "channel_layout": 4, "video_length": "1675", "interlaced_frame": false, "vcodec": "h264", "has_video": true, "has_audio": false, "video_stream_index": 0, "audio_stream_index": -1, "fps": {"den": 1, "num": 25}, "display_ratio": {"den": 276, "num": 407}, "channels": 0, "audio_bit_rate": 0, "video_timebase": {"den": 1000, "num": 1}, "top_field_first": true, "pixel_format": 0, "height": 552, "width": 814, "acodec": "", "audio_timebase": {"den": 1, "num": 1}, "video_bit_rate": 39547, "path": "/home/milind/Videos/Finish Connection.mkv"}, "gravity": 4, "channel_mapping": {"Points": [{"interpolation": 2, "co": {"X": 1, "Y": -1}}]}, "scale_x": {"Points": [{"co": {"X": 1, "Y": 1}, "interpolation": 2}, {"interpolation": 1, "co": {"X": 114, "Y": 1.7999999523162842}}]}, "start": 0, "shear_y": {"Points": [{"interpolation": 2, "co": {"X": 1, "Y": 0}}]}, "display": 0, "crop_width": {"Points": [{"interpolation": 2, "co": {"X": 1, "Y": -1}}]}, "position": 68.8, "crop_y": {"Points": [{"interpolation": 2, "co": {"X": 1, "Y": 0}}]}, "duration": 67.0, "waveform": false, "layer": 3, "location_x": {"Points": [{"interpolation": 2, "co": {"X": 1, "Y": 0}}, {"co": {"X": 114, "Y": -0.10000000149011612}, "interpolation": 1}]}, "shear_x": {"Points": [{"interpolation": 2, "co": {"X": 1, "Y": 0}}]}, "channel_filter": {"Points": [{"interpolation": 2, "co": {"X": 1, "Y": -1}}]}, "location_y": {"Points": [{"co": {"X": 1, "Y": 0}, "interpolation": 2}, {"interpolation": 1, "co": {"X": 114, "Y": 0.4000000059604645}}, {"co": {"X": 562, "Y": -0.4000000059604645}, "interpolation": 1}, {"co": {"X": 354, "Y": 0.4000000059604645}, "interpolation": 1}, {"interpolation": 1, "co": {"X": 496, "Y": -0.4000000059604645}}, {"co": {"X": 450, "Y": -0.4000000059604645}, "interpolation": 1}, {"co": {"X": 421, "Y": -0.4000000059604645}, "interpolation": 1}]}, "perspective_c1_x": {"Points": [{"interpolation": 2, "co": {"X": 1, "Y": -1}}]}, "id": "BOK53Q039G", "perspective_c3_y": {"Points": [{"interpolation": 2, "co": {"X": 1, "Y": -1}}]}, "perspective_c4_y": {"Points": [{"interpolation": 2, "co": {"X": 1, "Y": -1}}]}, "wave_color": {"blue": {"Points": [{"handle_type": 0, "handle_right": {"X": 0.5, "Y": 0}, "interpolation": 0, "co": {"X": 1, "Y": 255}, "handle_left": {"X": 0.5, "Y": 1}}]}, "red": {"Points": [{"handle_type": 0, "handle_right": {"X": 0.5, "Y": 0}, "interpolation": 0, "co": {"X": 1, "Y": 0}, "handle_left": {"X": 0.5, "Y": 1}}]}, "alpha": {"Points": [{"handle_type": 0, "handle_right": {"X": 0.5, "Y": 0}, "interpolation": 0, "co": {"X": 1, "Y": 255}, "handle_left": {"X": 0.5, "Y": 1}}]}, "green": {"Points": [{"handle_type": 0, "handle_right": {"X": 0.5, "Y": 0}, "interpolation": 0, "co": {"X": 1, "Y": 123}, "handle_left": {"X": 0.5, "Y": 1}}]}}, "perspective_c4_x": {"Points": [{"interpolation": 2, "co": {"X": 1, "Y": -1}}]}}}], "redo": []}, "playhead_position": 0, "clips": [{"perspective_c3_x": {"Points": [{"co": {"X": 1, "Y": -1}, "interpolation": 2}]}, "duration": 86400.0, "perspective_c2_y": {"Points": [{"co": {"X": 1, "Y": -1}, "interpolation": 2}]}, "alpha": {"Points": [{"co": {"X": 1, "Y": 1}, "interpolation": 2}]}, "gravity": 4, "file_id": "W3X0DXJTS6", "end": 30.816666666666663, "scale_y": {"Points": [{"co": {"X": 1, "Y": 1}, "interpolation": 2}]}, "time": {"Points": [{"co": {"X": 1, "Y": 1}, "interpolation": 2}]}, "volume": {"Points": [{"co": {"X": 1, "Y": 1}, "interpolation": 2}]}, "crop_height": {"Points": [{"co": {"X": 1, "Y": -1}, "interpolation": 2}]}, "effects": [], "rotation": {"Points": [{"co": {"X": 1, "Y": 0}, "interpolation": 2}]}, "position": 0, "image": "../../../.openshot_qt/thumbnail/W3X0DXJTS6.png", "crop_x": {"Points": [{"co": {"X": 1, "Y": 0}, "interpolation": 2}]}, "perspective_c2_x": {"Points": [{"co": {"X": 1, "Y": -1}, "interpolation": 2}]}, "scale": 1, "has_video": {"Points": [{"co": {"X": 1, "Y": -1}, "interpolation": 2}]}, "has_audio": {"Points": [{"co": {"X": 1, "Y": -1}, "interpolation": 2}]}, "anchor": 0, "title": "!000-White-Background.svg", "reader": {"duration": 86400.0, "top_field_first": true, "file_size": "8294400", "has_single_image": true, "sample_rate": 0, "pixel_ratio": {"den": 1, "num": 1}, "video_length": "2592000", "channel_layout": 4, "interlaced_frame": false, "vcodec": "", "has_video": true, "has_audio": false, "video_stream_index": -1, "audio_stream_index": -1, "type": "QtImageReader", "fps": {"den": 1, "num": 30}, "display_ratio": {"den": 9, "num": 16}, "channels": 0, "video_timebase": {"den": 30, "num": 1}, "audio_bit_rate": 0, "pixel_format": -1, "height": 1080, "width": 1920, "acodec": "", "audio_timebase": {"den": 1, "num": 1}, "video_bit_rate": 0, "path": "!000-White-Background.svg"}, "shear_x": {"Points": [{"co": {"X": 1, "Y": 0}, "interpolation": 2}]}, "channel_mapping": {"Points": [{"co": {"X": 1, "Y": -1}, "interpolation": 2}]}, "scale_x": {"Points": [{"co": {"X": 1, "Y": 1}, "interpolation": 2}]}, "shear_y": {"Points": [{"co": {"X": 1, "Y": 0}, "interpolation": 2}]}, "display": 0, "perspective_c1_y": {"Points": [{"co": {"X": 1, "Y": -1}, "interpolation": 2}]}, "location_x": {"Points": [{"co": {"X": 1, "Y": 0}, "interpolation": 2}]}, "crop_y": {"Points": [{"co": {"X": 1, "Y": 0}, "interpolation": 2}]}, "crop_width": {"Points": [{"co": {"X": 1, "Y": -1}, "interpolation": 2}]}, "waveform": false, "layer": 0, "channel_filter": {"Points": [{"co": {"X": 1, "Y": -1}, "interpolation": 2}]}, "perspective_c3_y": {"Points": [{"co": {"X": 1, "Y": -1}, "interpolation": 2}]}, "location_y": {"Points": [{"co": {"X": 1, "Y": 0}, "interpolation": 2}]}, "perspective_c1_x": {"Points": [{"co": {"X": 1, "Y": -1}, "interpolation": 2}]}, "id": "UM8RJNI4RE", "start": 0, "perspective_c4_y": {"Points": [{"co": {"X": 1, "Y": -1}, "interpolation": 2}]}, "wave_color": {"blue": {"Points": [{"handle_type": 0, "handle_right": {"X": 0.5, "Y": 0}, "interpolation": 0, "co": {"X": 1, "Y": 255}, "handle_left": {"X": 0.5, "Y": 1}}]}, "red": {"Points": [{"handle_type": 0, "handle_right": {"X": 0.5, "Y": 0}, "interpolation": 0, "co": {"X": 1, "Y": 0}, "handle_left": {"X": 0.5, "Y": 1}}]}, "alpha": {"Points": [{"handle_type": 0, "handle_right": {"X": 0.5, "Y": 0}, "interpolation": 0, "co": {"X": 1, "Y": 255}, "handle_left": {"X": 0.5, "Y": 1}}]}, "green": {"Points": [{"handle_type": 0, "handle_right": {"X": 0.5, "Y": 0}, "interpolation": 0, "co": {"X": 1, "Y": 123}, "handle_left": {"X": 0.5, "Y": 1}}]}}, "perspective_c4_x": {"Points": [{"co": {"X": 1, "Y": -1}, "interpolation": 2}]}}, {"perspective_c3_x": {"Points": [{"co": {"X": 1, "Y": -1}, "interpolation": 2}]}, "gravity": 4, "reader": {"duration": 61.0, "top_field_first": true, "file_size": "666485", "has_single_image": false, "sample_rate": 0, "pixel_ratio": {"den": 1, "num": 1}, "video_length": "1525", "channel_layout": 4, "interlaced_frame": false, "vcodec": "h264", "has_video": true, "has_audio": false, "video_stream_index": 0, "audio_stream_index": -1, "type": "FFmpegReader", "fps": {"den": 1, "num": 25}, "display_ratio": {"den": 384, "num": 683}, "channels": 0, "video_timebase": {"den": 1000, "num": 1}, "audio_bit_rate": 0, "pixel_format": 0, "height": 768, "width": 1366, "acodec": "", "audio_timebase": {"den": 1, "num": 1}, "video_bit_rate": 87179, "path": "!160-Register Spreadsheet as Database.mkv"}, "perspective_c2_y": {"Points": [{"co": {"X": 1, "Y": -1}, "interpolation": 2}]}, "alpha": {"Points": [{"handle_type": 0, "handle_right": {"X": 0.5, "Y": 0}, "co": {"X": 1, "Y": 1}, "interpolation": 0, "handle_left": {"X": 0.5, "Y": 1}}, {"handle_type": 0, "handle_right": {"X": 0.5, "Y": 0}, "interpolation": 0, "co": {"X": 1, "Y": 0}, "handle_left": {"X": 0.5, "Y": 1}}, {"handle_type": 0, "handle_right": {"X": 0.5, "Y": 0}, "interpolation": 0, "co": {"X": 73, "Y": 1}, "handle_left": {"X": 0.5, "Y": 1}}, {"handle_type": 0, "handle_right": {"X": 0.5, "Y": 0}, "co": {"X": 425, "Y": 1}, "interpolation": 0, "handle_left": {"X": 0.5, "Y": 1}}, {"handle_type": 0, "handle_right": {"X": 0.5, "Y": 0}, "co": {"X": 497, "Y": 0}, "interpolation": 0, "handle_left": {"X": 0.5, "Y": 1}}]}, "perspective_c1_y": {"Points": [{"co": {"X": 1, "Y": -1}, "interpolation": 2}]}, "file_id": "YJ84IVW8VE", "duration": 61.0, "scale_y": {"Points": [{"handle_type": 0, "handle_right": {"X": 0.5, "Y": 0}, "interpolation": 0, "co": {"X": 1, "Y": 1.2000000476837158}, "handle_left": {"X": 0.5, "Y": 1}}, {"co": {"X": 68, "Y": 3.0}, "interpolation": 1}]}, "time": {"Points": [{"co": {"X": 1, "Y": 1}, "interpolation": 2}]}, "volume": {"Points": [{"co": {"X": 1, "Y": 1}, "interpolation": 2}]}, "crop_height": {"Points": [{"co": {"X": 1, "Y": -1}, "interpolation": 2}]}, "effects": [], "rotation": {"Points": [{"co": {"X": 1, "Y": 0}, "interpolation": 2}]}, "image": "../../../.openshot_qt/thumbnail/YJ84IVW8VE.png", "crop_x": {"Points": [{"co": {"X": 1, "Y": 0}, "interpolation": 2}]}, "perspective_c2_x": {"Points": [{"co": {"X": 1, "Y": -1}, "interpolation": 2}]}, "scale": 1, "waveform": false, "has_video": {"Points": [{"co": {"X": 1, "Y": -1}, "interpolation": 2}]}, "has_audio": {"Points": [{"co": {"X": 1, "Y": -1}, "interpolation": 2}]}, "anchor": 0, "perspective_c3_y": {"Points": [{"co": {"X": 1, "Y": -1}, "interpolation": 2}]}, "position": 6.99734375, "channel_mapping": {"Points": [{"co": {"X": 1, "Y": -1}, "interpolation": 2}]}, "scale_x": {"Points": [{"handle_type": 0, "handle_right": {"X": 0.5, "Y": 0}, "interpolation": 0, "co": {"X": 1, "Y": 1.2000000476837158}, "handle_left": {"X": 0.5, "Y": 1}}, {"co": {"X": 68, "Y": 3.0}, "interpolation": 1}]}, "shear_y": {"Points": [{"co": {"X": 1, "Y": 0}, "interpolation": 2}]}, "display": 0, "crop_width": {"Points": [{"co": {"X": 1, "Y": -1}, "interpolation": 2}]}, "location_x": {"Points": [{"handle_type": 0, "handle_right": {"X": 0.5, "Y": 0}, "interpolation": 0, "co": {"X": 1, "Y": -0.009999999776482582}, "handle_left": {"X": 0.5, "Y": 1}}]}, "crop_y": {"Points": [{"co": {"X": 1, "Y": 0}, "interpolation": 2}]}, "title": "!160-Register Spreadsheet as Database.mkv", "layer": 1, "shear_x": {"Points": [{"co": {"X": 1, "Y": 0}, "interpolation": 2}]}, "channel_filter": {"Points": [{"co": {"X": 1, "Y": -1}, "interpolation": 2}]}, "location_y": {"Points": [{"handle_type": 0, "handle_right": {"X": 0.5, "Y": 0}, "co": {"X": 1, "Y": -0.10000000149011612}, "interpolation": 0, "handle_left": {"X": 0.5, "Y": 1}}, {"interpolation": 1, "co": {"X": 68, "Y": 0.20000000298023224}}, {"interpolation": 1, "co": {"X": 302, "Y": -0.20000000298023224}}, {"co": {"X": 267, "Y": -0.20000000298023224}, "interpolation": 1}, {"co": {"X": 208, "Y": 0.20000000298023224}, "interpolation": 1}, {"interpolation": 1, "co": {"X": 422, "Y": -0.75}}, {"co": {"X": 373, "Y": -0.75}, "interpolation": 1}, {"interpolation": 1, "co": {"X": 333, "Y": -0.20000000298023224}}]}, "end": 20.673333333333336, "perspective_c1_x": {"Points": [{"co": {"X": 1, "Y": -1}, "interpolation": 2}]}, "id": "4UWHV2278I", "start": 0, "perspective_c4_y": {"Points": [{"co": {"X": 1, "Y": -1}, "interpolation": 2}]}, "wave_color": {"blue": {"Points": [{"handle_type": 0, "handle_right": {"X": 0.5, "Y": 0}, "interpolation": 0, "co": {"X": 1, "Y": 255}, "handle_left": {"X": 0.5, "Y": 1}}]}, "red": {"Points": [{"handle_type": 0, "handle_right": {"X": 0.5, "Y": 0}, "interpolation": 0, "co": {"X": 1, "Y": 0}, "handle_left": {"X": 0.5, "Y": 1}}]}, "alpha": {"Points": [{"handle_type": 0, "handle_right": {"X": 0.5, "Y": 0}, "interpolation": 0, "co": {"X": 1, "Y": 255}, "handle_left": {"X": 0.5, "Y": 1}}]}, "green": {"Points": [{"handle_type": 0, "handle_right": {"X": 0.5, "Y": 0}, "interpolation": 0, "co": {"X": 1, "Y": 123}, "handle_left": {"X": 0.5, "Y": 1}}]}}, "perspective_c4_x": {"Points": [{"co": {"X": 1, "Y": -1}, "interpolation": 2}]}}, {"perspective_c3_x": {"Points": [{"co": {"X": 1, "Y": -1}, "interpolation": 2}]}, "gravity": 4, "reader": {"duration": 14.0, "top_field_first": true, "file_size": "117846", "has_single_image": false, "sample_rate": 0, "pixel_ratio": {"den": 1, "num": 1}, "video_length": "350", "channel_layout": 4, "interlaced_frame": false, "vcodec": "h264", "has_video": true, "has_audio": false, "video_stream_index": 0, "audio_stream_index": -1, "type": "FFmpegReader", "fps": {"den": 1, "num": 25}, "display_ratio": {"den": 186, "num": 325}, "channels": 0, "video_timebase": {"den": 1000, "num": 1}, "audio_bit_rate": 0, "pixel_format": 0, "height": 744, "width": 1300, "acodec": "", "audio_timebase": {"den": 1, "num": 1}, "video_bit_rate": 63358, "path": "!170-Open The Saved Progress Card Template.mkv"}, "perspective_c2_y": {"Points": [{"co": {"X": 1, "Y": -1}, "interpolation": 2}]}, "alpha": {"Points": [{"co": {"X": 1, "Y": 1}, "interpolation": 2}, {"handle_type": 0, "handle_right": {"X": 0.5, "Y": 0}, "interpolation": 0, "co": {"X": 1, "Y": 0}, "handle_left": {"X": 0.5, "Y": 1}}, {"handle_type": 0, "handle_right": {"X": 0.5, "Y": 0}, "interpolation": 0, "co": {"X": 73, "Y": 1}, "handle_left": {"X": 0.5, "Y": 1}}, {"handle_type": 0, "handle_right": {"X": 0.5, "Y": 0}, "interpolation": 0, "co": {"X": 265, "Y": 1}, "handle_left": {"X": 0.5, "Y": 1}}, {"handle_type": 0, "handle_right": {"X": 0.5, "Y": 0}, "interpolation": 0, "co": {"X": 337, "Y": 0}, "handle_left": {"X": 0.5, "Y": 1}}]}, "perspective_c1_y": {"Points": [{"co": {"X": 1, "Y": -1}, "interpolation": 2}]}, "file_id": "C7V0GMBLYX", "duration": 14.0, "scale_y": {"Points": [{"co": {"X": 1, "Y": 1}, "interpolation": 2}]}, "time": {"Points": [{"co": {"X": 1, "Y": 1}, "interpolation": 2}]}, "volume": {"Points": [{"co": {"X": 1, "Y": 1}, "interpolation": 2}]}, "crop_height": {"Points": [{"co": {"X": 1, "Y": -1}, "interpolation": 2}]}, "effects": [], "rotation": {"Points": [{"co": {"X": 1, "Y": 0}, "interpolation": 2}]}, "image": "../../../.openshot_qt/thumbnail/C7V0GMBLYX.png", "crop_x": {"Points": [{"co": {"X": 1, "Y": 0}, "interpolation": 2}]}, "perspective_c2_x": {"Points": [{"co": {"X": 1, "Y": -1}, "interpolation": 2}]}, "scale": 1, "waveform": false, "has_video": {"Points": [{"co": {"X": 1, "Y": -1}, "interpolation": 2}]}, "has_audio": {"Points": [{"co": {"X": 1, "Y": -1}, "interpolation": 2}]}, "anchor": 0, "perspective_c3_y": {"Points": [{"co": {"X": 1, "Y": -1}, "interpolation": 2}]}, "position": 73.54, "channel_mapping": {"Points": [{"co": {"X": 1, "Y": -1}, "interpolation": 2}]}, "scale_x": {"Points": [{"co": {"X": 1, "Y": 1}, "interpolation": 2}]}, "shear_y": {"Points": [{"co": {"X": 1, "Y": 0}, "interpolation": 2}]}, "display": 0, "crop_width": {"Points": [{"co": {"X": 1, "Y": -1}, "interpolation": 2}]}, "location_x": {"Points": [{"co": {"X": 1, "Y": 0}, "interpolation": 2}]}, "crop_y": {"Points": [{"co": {"X": 1, "Y": 0}, "interpolation": 2}]}, "title": "!170-Open The Saved Progress Card Template.mkv", "layer": 1, "shear_x": {"Points": [{"co": {"X": 1, "Y": 0}, "interpolation": 2}]}, "channel_filter": {"Points": [{"co": {"X": 1, "Y": -1}, "interpolation": 2}]}, "location_y": {"Points": [{"co": {"X": 1, "Y": 0}, "interpolation": 2}]}, "end": 14, "perspective_c1_x": {"Points": [{"co": {"X": 1, "Y": -1}, "interpolation": 2}]}, "id": "NH3SK34S1K", "start": 0, "perspective_c4_y": {"Points": [{"co": {"X": 1, "Y": -1}, "interpolation": 2}]}, "wave_color": {"blue": {"Points": [{"handle_type": 0, "handle_right": {"X": 0.5, "Y": 0}, "interpolation": 0, "co": {"X": 1, "Y": 255}, "handle_left": {"X": 0.5, "Y": 1}}]}, "red": {"Points": [{"handle_type": 0, "handle_right": {"X": 0.5, "Y": 0}, "interpolation": 0, "co": {"X": 1, "Y": 0}, "handle_left": {"X": 0.5, "Y": 1}}]}, "alpha": {"Points": [{"handle_type": 0, "handle_right": {"X": 0.5, "Y": 0}, "interpolation": 0, "co": {"X": 1, "Y": 255}, "handle_left": {"X": 0.5, "Y": 1}}]}, "green": {"Points": [{"handle_type": 0, "handle_right": {"X": 0.5, "Y": 0}, "interpolation": 0, "co": {"X": 1, "Y": 123}, "handle_left": {"X": 0.5, "Y": 1}}]}}, "perspective_c4_x": {"Points": [{"co": {"X": 1, "Y": -1}, "interpolation": 2}]}}, {"perspective_c3_x": {"Points": [{"co": {"X": 1, "Y": -1}, "interpolation": 2}]}, "gravity": 4, "reader": {"duration": 86400.0, "top_field_first": true, "file_size": "8294400", "has_single_image": true, "sample_rate": 0, "pixel_ratio": {"den": 1, "num": 1}, "video_length": "2592000", "channel_layout": 4, "interlaced_frame": false, "vcodec": "", "has_video": true, "has_audio": false, "video_stream_index": -1, "audio_stream_index": -1, "type": "QtImageReader", "fps": {"den": 1, "num": 30}, "display_ratio": {"den": 9, "num": 16}, "channels": 0, "video_timebase": {"den": 30, "num": 1}, "audio_bit_rate": 0, "pixel_format": -1, "height": 1080, "width": 1920, "acodec": "", "audio_timebase": {"den": 1, "num": 1}, "video_bit_rate": 0, "path": "!000-White-Background.svg"}, "perspective_c2_y": {"Points": [{"co": {"X": 1, "Y": -1}, "interpolation": 2}]}, "alpha": {"Points": [{"co": {"X": 1, "Y": 1}, "interpolation": 2}]}, "perspective_c1_y": {"Points": [{"co": {"X": 1, "Y": -1}, "interpolation": 2}]}, "file_id": "W3X0DXJTS6", "duration": 86400.0, "scale_y": {"Points": [{"co": {"X": 1, "Y": 1}, "interpolation": 2}]}, "time": {"Points": [{"co": {"X": 1, "Y": 1}, "interpolation": 2}]}, "volume": {"Points": [{"co": {"X": 1, "Y": 1}, "interpolation": 2}]}, "crop_height": {"Points": [{"co": {"X": 1, "Y": -1}, "interpolation": 2}]}, "effects": [], "rotation": {"Points": [{"co": {"X": 1, "Y": 0}, "interpolation": 2}]}, "image": "../../../.openshot_qt/thumbnail/W3X0DXJTS6.png", "crop_x": {"Points": [{"co": {"X": 1, "Y": 0}, "interpolation": 2}]}, "perspective_c2_x": {"Points": [{"co": {"X": 1, "Y": -1}, "interpolation": 2}]}, "scale": 1, "waveform": false, "has_video": {"Points": [{"co": {"X": 1, "Y": -1}, "interpolation": 2}]}, "has_audio": {"Points": [{"co": {"X": 1, "Y": -1}, "interpolation": 2}]}, "anchor": 0, "perspective_c3_y": {"Points": [{"co": {"X": 1, "Y": -1}, "interpolation": 2}]}, "position": 69.6, "channel_mapping": {"Points": [{"co": {"X": 1, "Y": -1}, "interpolation": 2}]}, "scale_x": {"Points": [{"co": {"X": 1, "Y": 1}, "interpolation": 2}]}, "shear_y": {"Points": [{"co": {"X": 1, "Y": 0}, "interpolation": 2}]}, "display": 0, "crop_width": {"Points": [{"co": {"X": 1, "Y": -1}, "interpolation": 2}]}, "location_x": {"Points": [{"co": {"X": 1, "Y": 0}, "interpolation": 2}]}, "crop_y": {"Points": [{"co": {"X": 1, "Y": 0}, "interpolation": 2}]}, "title": "!000-White-Background.svg", "layer": 0, "shear_x": {"Points": [{"co": {"X": 1, "Y": 0}, "interpolation": 2}]}, "channel_filter": {"Points": [{"co": {"X": 1, "Y": -1}, "interpolation": 2}]}, "location_y": {"Points": [{"co": {"X": 1, "Y": 0}, "interpolation": 2}]}, "end": 10, "perspective_c1_x": {"Points": [{"co": {"X": 1, "Y": -1}, "interpolation": 2}]}, "id": "LXT5Z6HT9Y", "start": 0, "perspective_c4_y": {"Points": [{"co": {"X": 1, "Y": -1}, "interpolation": 2}]}, "wave_color": {"blue": {"Points": [{"handle_type": 0, "handle_right": {"X": 0.5, "Y": 0}, "interpolation": 0, "co": {"X": 1, "Y": 255}, "handle_left": {"X": 0.5, "Y": 1}}]}, "red": {"Points": [{"handle_type": 0, "handle_right": {"X": 0.5, "Y": 0}, "interpolation": 0, "co": {"X": 1, "Y": 0}, "handle_left": {"X": 0.5, "Y": 1}}]}, "alpha": {"Points": [{"handle_type": 0, "handle_right": {"X": 0.5, "Y": 0}, "interpolation": 0, "co": {"X": 1, "Y": 255}, "handle_left": {"X": 0.5, "Y": 1}}]}, "green": {"Points": [{"handle_type": 0, "handle_right": {"X": 0.5, "Y": 0}, "interpolation": 0, "co": {"X": 1, "Y": 123}, "handle_left": {"X": 0.5, "Y": 1}}]}}, "perspective_c4_x": {"Points": [{"co": {"X": 1, "Y": -1}, "interpolation": 2}]}}, {"perspective_c3_x": {"Points": [{"co": {"X": 1, "Y": -1}, "interpolation": 2}]}, "gravity": 4, "reader": {"duration": 86400.0, "top_field_first": true, "file_size": "8294400", "has_single_image": true, "sample_rate": 0, "pixel_ratio": {"den": 1, "num": 1}, "video_length": "2592000", "channel_layout": 4, "interlaced_frame": false, "vcodec": "", "has_video": true, "has_audio": false, "video_stream_index": -1, "audio_stream_index": -1, "type": "QtImageReader", "fps": {"den": 1, "num": 30}, "display_ratio": {"den": 9, "num": 16}, "channels": 0, "video_timebase": {"den": 30, "num": 1}, "audio_bit_rate": 0, "pixel_format": -1, "height": 1080, "width": 1920, "acodec": "", "audio_timebase": {"den": 1, "num": 1}, "video_bit_rate": 0, "path": "!000-White-Background.svg"}, "perspective_c2_y": {"Points": [{"co": {"X": 1, "Y": -1}, "interpolation": 2}]}, "alpha": {"Points": [{"co": {"X": 1, "Y": 1}, "interpolation": 2}]}, "perspective_c1_y": {"Points": [{"co": {"X": 1, "Y": -1}, "interpolation": 2}]}, "file_id": "W3X0DXJTS6", "duration": 86400.0, "scale_y": {"Points": [{"co": {"X": 1, "Y": 1}, "interpolation": 2}]}, "time": {"Points": [{"co": {"X": 1, "Y": 1}, "interpolation": 2}]}, "volume": {"Points": [{"co": {"X": 1, "Y": 1}, "interpolation": 2}]}, "crop_height": {"Points": [{"co": {"X": 1, "Y": -1}, "interpolation": 2}]}, "effects": [], "rotation": {"Points": [{"co": {"X": 1, "Y": 0}, "interpolation": 2}]}, "image": "../../../.openshot_qt/thumbnail/W3X0DXJTS6.png", "crop_x": {"Points": [{"co": {"X": 1, "Y": 0}, "interpolation": 2}]}, "perspective_c2_x": {"Points": [{"co": {"X": 1, "Y": -1}, "interpolation": 2}]}, "scale": 1, "waveform": false, "has_video": {"Points": [{"co": {"X": 1, "Y": -1}, "interpolation": 2}]}, "has_audio": {"Points": [{"co": {"X": 1, "Y": -1}, "interpolation": 2}]}, "anchor": 0, "perspective_c3_y": {"Points": [{"co": {"X": 1, "Y": -1}, "interpolation": 2}]}, "position": 83.84, "channel_mapping": {"Points": [{"co": {"X": 1, "Y": -1}, "interpolation": 2}]}, "scale_x": {"Points": [{"co": {"X": 1, "Y": 1}, "interpolation": 2}]}, "shear_y": {"Points": [{"co": {"X": 1, "Y": 0}, "interpolation": 2}]}, "display": 0, "crop_width": {"Points": [{"co": {"X": 1, "Y": -1}, "interpolation": 2}]}, "location_x": {"Points": [{"co": {"X": 1, "Y": 0}, "interpolation": 2}]}, "crop_y": {"Points": [{"co": {"X": 1, "Y": 0}, "interpolation": 2}]}, "title": "!000-White-Background.svg", "layer": 0, "shear_x": {"Points": [{"co": {"X": 1, "Y": 0}, "interpolation": 2}]}, "channel_filter": {"Points": [{"co": {"X": 1, "Y": -1}, "interpolation": 2}]}, "location_y": {"Points": [{"co": {"X": 1, "Y": 0}, "interpolation": 2}]}, "end": 30, "perspective_c1_x": {"Points": [{"co": {"X": 1, "Y": -1}, "interpolation": 2}]}, "id": "9IXB0K5KG8", "start": 0, "perspective_c4_y": {"Points": [{"co": {"X": 1, "Y": -1}, "interpolation": 2}]}, "wave_color": {"blue": {"Points": [{"handle_type": 0, "handle_right": {"X": 0.5, "Y": 0}, "interpolation": 0, "co": {"X": 1, "Y": 255}, "handle_left": {"X": 0.5, "Y": 1}}]}, "red": {"Points": [{"handle_type": 0, "handle_right": {"X": 0.5, "Y": 0}, "interpolation": 0, "co": {"X": 1, "Y": 0}, "handle_left": {"X": 0.5, "Y": 1}}]}, "alpha": {"Points": [{"handle_type": 0, "handle_right": {"X": 0.5, "Y": 0}, "interpolation": 0, "co": {"X": 1, "Y": 255}, "handle_left": {"X": 0.5, "Y": 1}}]}, "green": {"Points": [{"handle_type": 0, "handle_right": {"X": 0.5, "Y": 0}, "interpolation": 0, "co": {"X": 1, "Y": 123}, "handle_left": {"X": 0.5, "Y": 1}}]}}, "perspective_c4_x": {"Points": [{"co": {"X": 1, "Y": -1}, "interpolation": 2}]}}, {"perspective_c1_y": {"Points": [{"co": {"X": 1, "Y": -1}, "interpolation": 2}]}, "gravity": 4, "reader": {"duration": 88.0, "top_field_first": true, "file_size": "1030797", "has_single_image": false, "sample_rate": 0, "pixel_ratio": {"den": 1, "num": 1}, "video_length": "2200", "channel_layout": 4, "interlaced_frame": false, "vcodec": "h264", "has_video": true, "has_audio": false, "video_stream_index": 0, "audio_stream_index": -1, "type": "FFmpegReader", "fps": {"den": 1, "num": 25}, "display_ratio": {"den": 384, "num": 683}, "channels": 0, "video_timebase": {"den": 1000, "num": 1}, "audio_bit_rate": 0, "pixel_format": 0, "height": 768, "width": 1366, "acodec": "", "audio_timebase": {"den": 1, "num": 1}, "video_bit_rate": 92739, "path": "!190-Drag and Drop Fields.mkv"}, "perspective_c2_y": {"Points": [{"co": {"X": 1, "Y": -1}, "interpolation": 2}]}, "alpha": {"Points": [{"handle_type": 0, "handle_right": {"X": 0.5, "Y": 0}, "interpolation": 0, "co": {"X": 1, "Y": 1}, "handle_left": {"X": 0.5, "Y": 1}}, {"handle_type": 0, "handle_right": {"X": 0.5, "Y": 0}, "interpolation": 0, "co": {"X": 5, "Y": 0}, "handle_left": {"X": 0.5, "Y": 1}}, {"handle_type": 0, "handle_right": {"X": 0.5, "Y": 0}, "interpolation": 0, "co": {"X": 77, "Y": 1}, "handle_left": {"X": 0.5, "Y": 1}}, {"handle_type": 0, "handle_right": {"X": 0.5, "Y": 0}, "interpolation": 0, "co": {"X": 507, "Y": 1}, "handle_left": {"X": 0.5, "Y": 1}}, {"handle_type": 0, "handle_right": {"X": 0.5, "Y": 0}, "interpolation": 0, "co": {"X": 579, "Y": 0}, "handle_left": {"X": 0.5, "Y": 1}}]}, "title": "!190-Drag and Drop Fields.mkv", "file_id": "COTVKCWUJG", "duration": 88.0, "scale_y": {"Points": [{"co": {"X": 1, "Y": 1}, "interpolation": 2}]}, "time": {"Points": [{"co": {"X": 1, "Y": 1}, "interpolation": 2}]}, "volume": {"Points": [{"co": {"X": 1, "Y": 1}, "interpolation": 2}]}, "crop_height": {"Points": [{"co": {"X": 1, "Y": -1}, "interpolation": 2}]}, "effects": [], "rotation": {"Points": [{"co": {"X": 1, "Y": 0}, "interpolation": 2}]}, "has_video": {"Points": [{"co": {"X": 1, "Y": -1}, "interpolation": 2}]}, "crop_x": {"Points": [{"co": {"X": 1, "Y": 0}, "interpolation": 2}]}, "perspective_c2_x": {"Points": [{"co": {"X": 1, "Y": -1}, "interpolation": 2}]}, "scale": 1, "image": "../../../.openshot_qt/thumbnail/VZXSCOZTB9-6.png", "has_audio": {"Points": [{"co": {"X": 1, "Y": -1}, "interpolation": 2}]}, "anchor": 0, "perspective_c3_x": {"Points": [{"co": {"X": 1, "Y": -1}, "interpolation": 2}]}, "perspective_c3_y": {"Points": [{"co": {"X": 1, "Y": -1}, "interpolation": 2}]}, "position": 132.853125, "channel_mapping": {"Points": [{"co": {"X": 1, "Y": -1}, "interpolation": 2}]}, "scale_x": {"Points": [{"co": {"X": 1, "Y": 1}, "interpolation": 2}]}, "shear_y": {"Points": [{"co": {"X": 1, "Y": 0}, "interpolation": 2}]}, "display": 0, "crop_width": {"Points": [{"co": {"X": 1, "Y": -1}, "interpolation": 2}]}, "location_x": {"Points": [{"co": {"X": 1, "Y": 0}, "interpolation": 2}]}, "crop_y": {"Points": [{"co": {"X": 1, "Y": 0}, "interpolation": 2}]}, "waveform": false, "layer": 2, "shear_x": {"Points": [{"co": {"X": 1, "Y": 0}, "interpolation": 2}]}, "channel_filter": {"Points": [{"co": {"X": 1, "Y": -1}, "interpolation": 2}]}, "location_y": {"Points": [{"co": {"X": 1, "Y": 0}, "interpolation": 2}]}, "end": 24.101666666666674, "perspective_c1_x": {"Points": [{"co": {"X": 1, "Y": -1}, "interpolation": 2}]}, "id": "VZXSCOZTB9", "start": 0.18166666666667197, "perspective_c4_y": {"Points": [{"co": {"X": 1, "Y": -1}, "interpolation": 2}]}, "wave_color": {"blue": {"Points": [{"handle_type": 0, "handle_right": {"X": 0.5, "Y": 0}, "interpolation": 0, "co": {"X": 1, "Y": 255}, "handle_left": {"X": 0.5, "Y": 1}}]}, "red": {"Points": [{"handle_type": 0, "handle_right": {"X": 0.5, "Y": 0}, "interpolation": 0, "co": {"X": 1, "Y": 0}, "handle_left": {"X": 0.5, "Y": 1}}]}, "alpha": {"Points": [{"handle_type": 0, "handle_right": {"X": 0.5, "Y": 0}, "interpolation": 0, "co": {"X": 1, "Y": 255}, "handle_left": {"X": 0.5, "Y": 1}}]}, "green": {"Points": [{"handle_type": 0, "handle_right": {"X": 0.5, "Y": 0}, "interpolation": 0, "co": {"X": 1, "Y": 123}, "handle_left": {"X": 0.5, "Y": 1}}]}}, "perspective_c4_x": {"Points": [{"co": {"X": 1, "Y": -1}, "interpolation": 2}]}}, {"perspective_c3_x": {"Points": [{"co": {"X": 1, "Y": -1}, "interpolation": 2}]}, "gravity": 4, "reader": {"duration": 44.0, "top_field_first": true, "file_size": "397466", "has_single_image": false, "sample_rate": 0, "pixel_ratio": {"den": 1, "num": 1}, "video_length": "1100", "channel_layout": 4, "interlaced_frame": false, "vcodec": "h264", "has_video": true, "has_audio": false, "video_stream_index": 0, "audio_stream_index": -1, "type": "FFmpegReader", "fps": {"den": 1, "num": 25}, "display_ratio": {"den": 384, "num": 683}, "channels": 0, "video_timebase": {"den": 1000, "num": 1}, "audio_bit_rate": 0, "pixel_format": 0, "height": 768, "width": 1366, "acodec": "", "audio_timebase": {"den": 1, "num": 1}, "video_bit_rate": 71551, "path": "!180-Menu - View - Data Source.mkv"}, "perspective_c2_y": {"Points": [{"co": {"X": 1, "Y": -1}, "interpolation": 2}]}, "alpha": {"Points": [{"co": {"X": 1, "Y": 1}, "interpolation": 2}]}, "perspective_c1_y": {"Points": [{"co": {"X": 1, "Y": -1}, "interpolation": 2}]}, "file_id": "DFFNSBTF3B", "duration": 44.0, "scale_y": {"Points": [{"co": {"X": 1, "Y": 1}, "interpolation": 2}]}, "time": {"Points": [{"co": {"X": 1, "Y": 1}, "interpolation": 2}]}, "volume": {"Points": [{"co": {"X": 1, "Y": 1}, "interpolation": 2}]}, "crop_height": {"Points": [{"co": {"X": 1, "Y": -1}, "interpolation": 2}]}, "effects": [], "rotation": {"Points": [{"co": {"X": 1, "Y": 0}, "interpolation": 2}]}, "image": "../../../.openshot_qt/thumbnail/DFFNSBTF3B.png", "crop_x": {"Points": [{"co": {"X": 1, "Y": 0}, "interpolation": 2}]}, "perspective_c2_x": {"Points": [{"co": {"X": 1, "Y": -1}, "interpolation": 2}]}, "scale": 1, "waveform": false, "has_video": {"Points": [{"co": {"X": 1, "Y": -1}, "interpolation": 2}]}, "has_audio": {"Points": [{"co": {"X": 1, "Y": -1}, "interpolation": 2}]}, "anchor": 0, "perspective_c3_y": {"Points": [{"co": {"X": 1, "Y": -1}, "interpolation": 2}]}, "position": 87.54, "channel_mapping": {"Points": [{"co": {"X": 1, "Y": -1}, "interpolation": 2}]}, "scale_x": {"Points": [{"co": {"X": 1, "Y": 1}, "interpolation": 2}]}, "shear_y": {"Points": [{"co": {"X": 1, "Y": 0}, "interpolation": 2}]}, "display": 0, "crop_width": {"Points": [{"co": {"X": 1, "Y": -1}, "interpolation": 2}]}, "location_x": {"Points": [{"co": {"X": 1, "Y": 0}, "interpolation": 2}]}, "crop_y": {"Points": [{"co": {"X": 1, "Y": 0}, "interpolation": 2}]}, "title": "!180-Menu - View - Data Source.mkv", "layer": 1, "shear_x": {"Points": [{"co": {"X": 1, "Y": 0}, "interpolation": 2}]}, "channel_filter": {"Points": [{"co": {"X": 1, "Y": -1}, "interpolation": 2}]}, "location_y": {"Points": [{"co": {"X": 1, "Y": 0}, "interpolation": 2}]}, "end": 18.834999999999994, "perspective_c1_x": {"Points": [{"co": {"X": 1, "Y": -1}, "interpolation": 2}]}, "id": "B34M6K3U75", "start": 0, "perspective_c4_y": {"Points": [{"co": {"X": 1, "Y": -1}, "interpolation": 2}]}, "wave_color": {"blue": {"Points": [{"handle_type": 0, "handle_right": {"X": 0.5, "Y": 0}, "interpolation": 0, "co": {"X": 1, "Y": 255}, "handle_left": {"X": 0.5, "Y": 1}}]}, "red": {"Points": [{"handle_type": 0, "handle_right": {"X": 0.5, "Y": 0}, "interpolation": 0, "co": {"X": 1, "Y": 0}, "handle_left": {"X": 0.5, "Y": 1}}]}, "alpha": {"Points": [{"handle_type": 0, "handle_right": {"X": 0.5, "Y": 0}, "interpolation": 0, "co": {"X": 1, "Y": 255}, "handle_left": {"X": 0.5, "Y": 1}}]}, "green": {"Points": [{"handle_type": 0, "handle_right": {"X": 0.5, "Y": 0}, "interpolation": 0, "co": {"X": 1, "Y": 123}, "handle_left": {"X": 0.5, "Y": 1}}]}}, "perspective_c4_x": {"Points": [{"co": {"X": 1, "Y": -1}, "interpolation": 2}]}}, {"perspective_c3_x": {"Points": [{"co": {"X": 1, "Y": -1}, "interpolation": 2}]}, "gravity": 4, "reader": {"duration": 73.0, "top_field_first": true, "file_size": "953170", "has_single_image": false, "sample_rate": 0, "pixel_ratio": {"den": 1, "num": 1}, "video_length": "1825", "channel_layout": 4, "interlaced_frame": false, "vcodec": "h264", "has_video": true, "has_audio": false, "video_stream_index": 0, "audio_stream_index": -1, "type": "FFmpegReader", "fps": {"den": 1, "num": 25}, "display_ratio": {"den": 384, "num": 683}, "channels": 0, "video_timebase": {"den": 1000, "num": 1}, "audio_bit_rate": 0, "pixel_format": 0, "height": 768, "width": 1366, "acodec": "", "audio_timebase": {"den": 1, "num": 1}, "video_bit_rate": 103492, "path": "!200-Print Progress Cards As PDF.mkv"}, "perspective_c2_y": {"Points": [{"co": {"X": 1, "Y": -1}, "interpolation": 2}]}, "alpha": {"Points": [{"co": {"X": 1, "Y": 1}, "interpolation": 2}, {"handle_type": 0, "handle_right": {"X": 0.5, "Y": 0}, "interpolation": 0, "co": {"X": 35, "Y": 0}, "handle_left": {"X": 0.5, "Y": 1}}, {"handle_type": 0, "handle_right": {"X": 0.5, "Y": 0}, "interpolation": 0, "co": {"X": 107, "Y": 1}, "handle_left": {"X": 0.5, "Y": 1}}, {"handle_type": 0, "handle_right": {"X": 0.5, "Y": 0}, "interpolation": 0, "co": {"X": 1615, "Y": 1}, "handle_left": {"X": 0.5, "Y": 1}}, {"handle_type": 0, "handle_right": {"X": 0.5, "Y": 0}, "interpolation": 0, "co": {"X": 1687, "Y": 0}, "handle_left": {"X": 0.5, "Y": 1}}]}, "perspective_c1_y": {"Points": [{"co": {"X": 1, "Y": -1}, "interpolation": 2}]}, "file_id": "ZA6B1EO0P9", "duration": 73.0, "scale_y": {"Points": [{"co": {"X": 1, "Y": 1}, "interpolation": 2}]}, "time": {"Points": [{"co": {"X": 1, "Y": 1}, "interpolation": 2}]}, "volume": {"Points": [{"co": {"X": 1, "Y": 1}, "interpolation": 2}]}, "crop_height": {"Points": [{"co": {"X": 1, "Y": -1}, "interpolation": 2}]}, "effects": [], "rotation": {"Points": [{"co": {"X": 1, "Y": 0}, "interpolation": 2}]}, "image": "../../../.openshot_qt/thumbnail/QAPN62UTJA-37.png", "crop_x": {"Points": [{"co": {"X": 1, "Y": 0}, "interpolation": 2}]}, "perspective_c2_x": {"Points": [{"co": {"X": 1, "Y": -1}, "interpolation": 2}]}, "scale": 1, "waveform": false, "has_video": {"Points": [{"co": {"X": 1, "Y": -1}, "interpolation": 2}]}, "has_audio": {"Points": [{"co": {"X": 1, "Y": -1}, "interpolation": 2}]}, "anchor": 0, "perspective_c3_y": {"Points": [{"co": {"X": 1, "Y": -1}, "interpolation": 2}]}, "position": 128.375, "channel_mapping": {"Points": [{"co": {"X": 1, "Y": -1}, "interpolation": 2}]}, "scale_x": {"Points": [{"co": {"X": 1, "Y": 1}, "interpolation": 2}]}, "shear_y": {"Points": [{"co": {"X": 1, "Y": 0}, "interpolation": 2}]}, "display": 0, "crop_width": {"Points": [{"co": {"X": 1, "Y": -1}, "interpolation": 2}]}, "location_x": {"Points": [{"co": {"X": 1, "Y": 0}, "interpolation": 2}]}, "crop_y": {"Points": [{"co": {"X": 1, "Y": 0}, "interpolation": 2}]}, "title": "!200-Print Progress Cards As PDF.mkv", "layer": 1, "shear_x": {"Points": [{"co": {"X": 1, "Y": 0}, "interpolation": 2}]}, "channel_filter": {"Points": [{"co": {"X": 1, "Y": -1}, "interpolation": 2}]}, "location_y": {"Points": [{"co": {"X": 1, "Y": 0}, "interpolation": 2}]}, "end": 70.23583333333332, "perspective_c1_x": {"Points": [{"co": {"X": 1, "Y": -1}, "interpolation": 2}]}, "id": "QAPN62UTJA", "start": 1.4250000000000114, "perspective_c4_y": {"Points": [{"co": {"X": 1, "Y": -1}, "interpolation": 2}]}, "wave_color": {"blue": {"Points": [{"handle_type": 0, "handle_right": {"X": 0.5, "Y": 0}, "interpolation": 0, "co": {"X": 1, "Y": 255}, "handle_left": {"X": 0.5, "Y": 1}}]}, "red": {"Points": [{"handle_type": 0, "handle_right": {"X": 0.5, "Y": 0}, "interpolation": 0, "co": {"X": 1, "Y": 0}, "handle_left": {"X": 0.5, "Y": 1}}]}, "alpha": {"Points": [{"handle_type": 0, "handle_right": {"X": 0.5, "Y": 0}, "interpolation": 0, "co": {"X": 1, "Y": 255}, "handle_left": {"X": 0.5, "Y": 1}}]}, "green": {"Points": [{"handle_type": 0, "handle_right": {"X": 0.5, "Y": 0}, "interpolation": 0, "co": {"X": 1, "Y": 123}, "handle_left": {"X": 0.5, "Y": 1}}]}}, "perspective_c4_x": {"Points": [{"co": {"X": 1, "Y": -1}, "interpolation": 2}]}}, {"perspective_c3_x": {"Points": [{"co": {"X": 1, "Y": -1}, "interpolation": 2}]}, "gravity": 4, "reader": {"duration": 86400.0, "top_field_first": true, "file_size": "8294400", "has_single_image": true, "sample_rate": 0, "pixel_ratio": {"den": 1, "num": 1}, "video_length": "2592000", "channel_layout": 4, "interlaced_frame": false, "vcodec": "", "has_video": true, "has_audio": false, "video_stream_index": -1, "audio_stream_index": -1, "type": "QtImageReader", "fps": {"den": 1, "num": 30}, "display_ratio": {"den": 9, "num": 16}, "channels": 0, "video_timebase": {"den": 30, "num": 1}, "audio_bit_rate": 0, "pixel_format": -1, "height": 1080, "width": 1920, "acodec": "", "audio_timebase": {"den": 1, "num": 1}, "video_bit_rate": 0, "path": "!000-White-Background.svg"}, "crop_x": {"Points": [{"co": {"X": 1, "Y": 0}, "interpolation": 2}]}, "alpha": {"Points": [{"handle_type": 0, "handle_right": {"X": 0.5, "Y": 0}, "interpolation": 0, "co": {"X": 1, "Y": 1}, "handle_left": {"X": 0.5, "Y": 1}}, {"handle_type": 0, "handle_right": {"X": 0.5, "Y": 0}, "interpolation": 0, "co": {"X": 1, "Y": 0}, "handle_left": {"X": 0.5, "Y": 1}}, {"handle_type": 0, "handle_right": {"X": 0.5, "Y": 0}, "interpolation": 0, "co": {"X": 73, "Y": 1}, "handle_left": {"X": 0.5, "Y": 1}}, {"handle_type": 0, "handle_right": {"X": 0.5, "Y": 0}, "interpolation": 0, "co": {"X": 169, "Y": 1}, "handle_left": {"X": 0.5, "Y": 1}}, {"handle_type": 0, "handle_right": {"X": 0.5, "Y": 0}, "interpolation": 0, "co": {"X": 241, "Y": 0}, "handle_left": {"X": 0.5, "Y": 1}}]}, "perspective_c1_y": {"Points": [{"co": {"X": 1, "Y": -1}, "interpolation": 2}]}, "file_id": "W3X0DXJTS6", "duration": 86400.0, "scale_y": {"Points": [{"co": {"X": 1, "Y": 1}, "interpolation": 2}]}, "time": {"Points": [{"co": {"X": 1, "Y": 1}, "interpolation": 2}]}, "volume": {"Points": [{"co": {"X": 1, "Y": 1}, "interpolation": 2}]}, "crop_height": {"Points": [{"co": {"X": 1, "Y": -1}, "interpolation": 2}]}, "effects": [], "rotation": {"Points": [{"co": {"X": 1, "Y": 0}, "interpolation": 2}]}, "image": "../../../.openshot_qt/thumbnail/W3X0DXJTS6.png", "perspective_c2_y": {"Points": [{"co": {"X": 1, "Y": -1}, "interpolation": 2}]}, "perspective_c2_x": {"Points": [{"co": {"X": 1, "Y": -1}, "interpolation": 2}]}, "scale": 1, "waveform": false, "has_video": {"Points": [{"co": {"X": 1, "Y": -1}, "interpolation": 2}]}, "has_audio": {"Points": [{"co": {"X": 1, "Y": -1}, "interpolation": 2}]}, "anchor": 0, "perspective_c3_y": {"Points": [{"co": {"X": 1, "Y": -1}, "interpolation": 2}]}, "position": 125.76, "channel_mapping": {"Points": [{"co": {"X": 1, "Y": -1}, "interpolation": 2}]}, "scale_x": {"Points": [{"co": {"X": 1, "Y": 1}, "interpolation": 2}]}, "shear_y": {"Points": [{"co": {"X": 1, "Y": 0}, "interpolation": 2}]}, "display": 0, "crop_width": {"Points": [{"co": {"X": 1, "Y": -1}, "interpolation": 2}]}, "location_x": {"Points": [{"co": {"X": 1, "Y": 0}, "interpolation": 2}]}, "crop_y": {"Points": [{"co": {"X": 1, "Y": 0}, "interpolation": 2}]}, "title": "!000-White-Background.svg", "layer": 0, "shear_x": {"Points": [{"co": {"X": 1, "Y": 0}, "interpolation": 2}]}, "channel_filter": {"Points": [{"co": {"X": 1, "Y": -1}, "interpolation": 2}]}, "location_y": {"Points": [{"co": {"X": 1, "Y": 0}, "interpolation": 2}]}, "end": 10, "perspective_c1_x": {"Points": [{"co": {"X": 1, "Y": -1}, "interpolation": 2}]}, "id": "9FAVO93TA3", "start": 0, "perspective_c4_y": {"Points": [{"co": {"X": 1, "Y": -1}, "interpolation": 2}]}, "wave_color": {"blue": {"Points": [{"handle_type": 0, "handle_right": {"X": 0.5, "Y": 0}, "interpolation": 0, "co": {"X": 1, "Y": 255}, "handle_left": {"X": 0.5, "Y": 1}}]}, "red": {"Points": [{"handle_type": 0, "handle_right": {"X": 0.5, "Y": 0}, "interpolation": 0, "co": {"X": 1, "Y": 0}, "handle_left": {"X": 0.5, "Y": 1}}]}, "alpha": {"Points": [{"handle_type": 0, "handle_right": {"X": 0.5, "Y": 0}, "interpolation": 0, "co": {"X": 1, "Y": 255}, "handle_left": {"X": 0.5, "Y": 1}}]}, "green": {"Points": [{"handle_type": 0, "handle_right": {"X": 0.5, "Y": 0}, "interpolation": 0, "co": {"X": 1, "Y": 123}, "handle_left": {"X": 0.5, "Y": 1}}]}}, "perspective_c4_x": {"Points": [{"co": {"X": 1, "Y": -1}, "interpolation": 2}]}}, {"perspective_c3_x": {"Points": [{"co": {"X": 1, "Y": -1}, "interpolation": 2}]}, "gravity": 4, "reader": {"duration": 13.0, "top_field_first": true, "file_size": "141113", "has_single_image": false, "sample_rate": 0, "pixel_ratio": {"den": 1, "num": 1}, "video_length": "325", "channel_layout": 4, "interlaced_frame": false, "vcodec": "h264", "has_video": true, "has_audio": false, "video_stream_index": 0, "audio_stream_index": -1, "type": "FFmpegReader", "fps": {"den": 1, "num": 25}, "display_ratio": {"den": 186, "num": 325}, "channels": 0, "video_timebase": {"den": 1000, "num": 1}, "audio_bit_rate": 0, "pixel_format": 0, "height": 744, "width": 1300, "acodec": "", "audio_timebase": {"den": 1, "num": 1}, "video_bit_rate": 82764, "path": "!210-Result Archive.mkv"}, "crop_x": {"Points": [{"co": {"X": 1, "Y": 0}, "interpolation": 2}]}, "alpha": {"Points": [{"co": {"X": 1, "Y": 1}, "interpolation": 2}, {"handle_type": 0, "handle_right": {"X": 0.5, "Y": 0}, "interpolation": 0, "co": {"X": 1, "Y": 0}, "handle_left": {"X": 0.5, "Y": 1}}, {"handle_type": 0, "handle_right": {"X": 0.5, "Y": 0}, "interpolation": 0, "co": {"X": 73, "Y": 1}, "handle_left": {"X": 0.5, "Y": 1}}, {"handle_type": 0, "handle_right": {"X": 0.5, "Y": 0}, "interpolation": 0, "co": {"X": 241, "Y": 1}, "handle_left": {"X": 0.5, "Y": 1}}, {"handle_type": 0, "handle_right": {"X": 0.5, "Y": 0}, "interpolation": 0, "co": {"X": 313, "Y": 0}, "handle_left": {"X": 0.5, "Y": 1}}]}, "perspective_c1_y": {"Points": [{"co": {"X": 1, "Y": -1}, "interpolation": 2}]}, "file_id": "CRFW36HQE1", "duration": 13.0, "scale_y": {"Points": [{"co": {"X": 1, "Y": 1}, "interpolation": 2}]}, "time": {"Points": [{"co": {"X": 1, "Y": 1}, "interpolation": 2}]}, "volume": {"Points": [{"co": {"X": 1, "Y": 1}, "interpolation": 2}]}, "crop_height": {"Points": [{"co": {"X": 1, "Y": -1}, "interpolation": 2}]}, "effects": [], "rotation": {"Points": [{"co": {"X": 1, "Y": 0}, "interpolation": 2}]}, "image": "../../../.openshot_qt/thumbnail/CRFW36HQE1.png", "perspective_c2_y": {"Points": [{"co": {"X": 1, "Y": -1}, "interpolation": 2}]}, "perspective_c2_x": {"Points": [{"co": {"X": 1, "Y": -1}, "interpolation": 2}]}, "scale": 1, "waveform": false, "has_video": {"Points": [{"co": {"X": 1, "Y": -1}, "interpolation": 2}]}, "has_audio": {"Points": [{"co": {"X": 1, "Y": -1}, "interpolation": 2}]}, "anchor": 0, "perspective_c3_y": {"Points": [{"co": {"X": 1, "Y": -1}, "interpolation": 2}]}, "position": 197.18583333333333, "channel_mapping": {"Points": [{"co": {"X": 1, "Y": -1}, "interpolation": 2}]}, "scale_x": {"Points": [{"co": {"X": 1, "Y": 1}, "interpolation": 2}]}, "shear_y": {"Points": [{"co": {"X": 1, "Y": 0}, "interpolation": 2}]}, "display": 0, "crop_width": {"Points": [{"co": {"X": 1, "Y": -1}, "interpolation": 2}]}, "location_x": {"Points": [{"co": {"X": 1, "Y": 0}, "interpolation": 2}]}, "crop_y": {"Points": [{"co": {"X": 1, "Y": 0}, "interpolation": 2}]}, "title": "!210-Result Archive.mkv", "layer": 1, "shear_x": {"Points": [{"co": {"X": 1, "Y": 0}, "interpolation": 2}]}, "channel_filter": {"Points": [{"co": {"X": 1, "Y": -1}, "interpolation": 2}]}, "location_y": {"Points": [{"co": {"X": 1, "Y": 0}, "interpolation": 2}]}, "end": 13, "perspective_c1_x": {"Points": [{"co": {"X": 1, "Y": -1}, "interpolation": 2}]}, "id": "422LHJU74E", "start": 0, "perspective_c4_y": {"Points": [{"co": {"X": 1, "Y": -1}, "interpolation": 2}]}, "wave_color": {"blue": {"Points": [{"handle_type": 0, "handle_right": {"X": 0.5, "Y": 0}, "interpolation": 0, "co": {"X": 1, "Y": 255}, "handle_left": {"X": 0.5, "Y": 1}}]}, "red": {"Points": [{"handle_type": 0, "handle_right": {"X": 0.5, "Y": 0}, "interpolation": 0, "co": {"X": 1, "Y": 0}, "handle_left": {"X": 0.5, "Y": 1}}]}, "alpha": {"Points": [{"handle_type": 0, "handle_right": {"X": 0.5, "Y": 0}, "interpolation": 0, "co": {"X": 1, "Y": 255}, "handle_left": {"X": 0.5, "Y": 1}}]}, "green": {"Points": [{"handle_type": 0, "handle_right": {"X": 0.5, "Y": 0}, "interpolation": 0, "co": {"X": 1, "Y": 123}, "handle_left": {"X": 0.5, "Y": 1}}]}}, "perspective_c4_x": {"Points": [{"co": {"X": 1, "Y": -1}, "interpolation": 2}]}}, {"perspective_c3_x": {"Points": [{"co": {"X": 1, "Y": -1}, "interpolation": 2}]}, "gravity": 4, "reader": {"duration": 86400.0, "top_field_first": true, "file_size": "8294400", "has_single_image": true, "sample_rate": 0, "pixel_ratio": {"den": 1, "num": 1}, "video_length": "2592000", "channel_layout": 4, "interlaced_frame": false, "vcodec": "", "has_video": true, "has_audio": false, "video_stream_index": -1, "audio_stream_index": -1, "type": "QtImageReader", "fps": {"den": 1, "num": 30}, "display_ratio": {"den": 9, "num": 16}, "channels": 0, "video_timebase": {"den": 30, "num": 1}, "audio_bit_rate": 0, "pixel_format": -1, "height": 1080, "width": 1920, "acodec": "", "audio_timebase": {"den": 1, "num": 1}, "video_bit_rate": 0, "path": "!000-White-Background.svg"}, "crop_x": {"Points": [{"co": {"X": 1, "Y": 0}, "interpolation": 2}]}, "alpha": {"Points": [{"co": {"X": 1, "Y": 1}, "interpolation": 2}]}, "perspective_c1_y": {"Points": [{"co": {"X": 1, "Y": -1}, "interpolation": 2}]}, "file_id": "W3X0DXJTS6", "duration": 86400.0, "scale_y": {"Points": [{"co": {"X": 1, "Y": 1}, "interpolation": 2}]}, "time": {"Points": [{"co": {"X": 1, "Y": 1}, "interpolation": 2}]}, "volume": {"Points": [{"co": {"X": 1, "Y": 1}, "interpolation": 2}]}, "crop_height": {"Points": [{"co": {"X": 1, "Y": -1}, "interpolation": 2}]}, "effects": [], "rotation": {"Points": [{"co": {"X": 1, "Y": 0}, "interpolation": 2}]}, "image": "../../../.openshot_qt/thumbnail/W3X0DXJTS6.png", "perspective_c2_y": {"Points": [{"co": {"X": 1, "Y": -1}, "interpolation": 2}]}, "perspective_c2_x": {"Points": [{"co": {"X": 1, "Y": -1}, "interpolation": 2}]}, "scale": 1, "waveform": false, "has_video": {"Points": [{"co": {"X": 1, "Y": -1}, "interpolation": 2}]}, "has_audio": {"Points": [{"co": {"X": 1, "Y": -1}, "interpolation": 2}]}, "anchor": 0, "perspective_c3_y": {"Points": [{"co": {"X": 1, "Y": -1}, "interpolation": 2}]}, "position": 194.4, "channel_mapping": {"Points": [{"co": {"X": 1, "Y": -1}, "interpolation": 2}]}, "scale_x": {"Points": [{"co": {"X": 1, "Y": 1}, "interpolation": 2}]}, "shear_y": {"Points": [{"co": {"X": 1, "Y": 0}, "interpolation": 2}]}, "display": 0, "crop_width": {"Points": [{"co": {"X": 1, "Y": -1}, "interpolation": 2}]}, "location_x": {"Points": [{"co": {"X": 1, "Y": 0}, "interpolation": 2}]}, "crop_y": {"Points": [{"co": {"X": 1, "Y": 0}, "interpolation": 2}]}, "title": "!000-White-Background.svg", "layer": 0, "shear_x": {"Points": [{"co": {"X": 1, "Y": 0}, "interpolation": 2}]}, "channel_filter": {"Points": [{"co": {"X": 1, "Y": -1}, "interpolation": 2}]}, "location_y": {"Points": [{"co": {"X": 1, "Y": 0}, "interpolation": 2}]}, "end": 10, "perspective_c1_x": {"Points": [{"co": {"X": 1, "Y": -1}, "interpolation": 2}]}, "id": "ZI2MDCVQ2F", "start": 0, "perspective_c4_y": {"Points": [{"co": {"X": 1, "Y": -1}, "interpolation": 2}]}, "wave_color": {"blue": {"Points": [{"handle_type": 0, "handle_right": {"X": 0.5, "Y": 0}, "interpolation": 0, "co": {"X": 1, "Y": 255}, "handle_left": {"X": 0.5, "Y": 1}}]}, "red": {"Points": [{"handle_type": 0, "handle_right": {"X": 0.5, "Y": 0}, "interpolation": 0, "co": {"X": 1, "Y": 0}, "handle_left": {"X": 0.5, "Y": 1}}]}, "alpha": {"Points": [{"handle_type": 0, "handle_right": {"X": 0.5, "Y": 0}, "interpolation": 0, "co": {"X": 1, "Y": 255}, "handle_left": {"X": 0.5, "Y": 1}}]}, "green": {"Points": [{"handle_type": 0, "handle_right": {"X": 0.5, "Y": 0}, "interpolation": 0, "co": {"X": 1, "Y": 123}, "handle_left": {"X": 0.5, "Y": 1}}]}}, "perspective_c4_x": {"Points": [{"co": {"X": 1, "Y": -1}, "interpolation": 2}]}}, {"perspective_c3_x": {"Points": [{"co": {"X": 1, "Y": -1}, "interpolation": 2}]}, "gravity": 4, "reader": {"duration": 86400.0, "top_field_first": true, "file_size": "104140324", "has_single_image": true, "sample_rate": 0, "pixel_ratio": {"den": 1, "num": 1}, "video_length": "2592000", "channel_layout": 4, "interlaced_frame": false, "vcodec": "", "has_video": true, "has_audio": false, "video_stream_index": -1, "audio_stream_index": -1, "type": "QtImageReader", "fps": {"den": 1, "num": 30}, "display_ratio": {"den": 3827, "num": 6803}, "channels": 0, "video_timebase": {"den": 30, "num": 1}, "audio_bit_rate": 0, "pixel_format": -1, "height": 3827, "width": 6803, "acodec": "", "audio_timebase": {"den": 1, "num": 1}, "video_bit_rate": 0, "path": "!152-Slide -Open Libre Base.svg"}, "crop_x": {"Points": [{"co": {"X": 1, "Y": 0}, "interpolation": 2}]}, "alpha": {"Points": [{"co": {"X": 1, "Y": 1}, "interpolation": 2}, {"handle_type": 0, "handle_right": {"X": 0.5, "Y": 0}, "co": {"X": 1, "Y": 0}, "interpolation": 0, "handle_left": {"X": 0.5, "Y": 1}}, {"handle_type": 0, "handle_right": {"X": 0.5, "Y": 0}, "co": {"X": 73, "Y": 1}, "interpolation": 0, "handle_left": {"X": 0.5, "Y": 1}}, {"handle_type": 0, "handle_right": {"X": 0.5, "Y": 0}, "interpolation": 0, "co": {"X": 49, "Y": 1}, "handle_left": {"X": 0.5, "Y": 1}}, {"handle_type": 0, "handle_right": {"X": 0.5, "Y": 0}, "interpolation": 0, "co": {"X": 121, "Y": 0}, "handle_left": {"X": 0.5, "Y": 1}}]}, "file_id": "3LXINJ8GXN", "duration": 86400.0, "scale_y": {"Points": [{"co": {"X": 1, "Y": 1}, "interpolation": 2}]}, "time": {"Points": [{"co": {"X": 1, "Y": 1}, "interpolation": 2}]}, "volume": {"Points": [{"co": {"X": 1, "Y": 1}, "interpolation": 2}]}, "crop_height": {"Points": [{"co": {"X": 1, "Y": -1}, "interpolation": 2}]}, "effects": [], "rotation": {"Points": [{"co": {"X": 1, "Y": 0}, "interpolation": 2}]}, "image": "../../../.openshot_qt/thumbnail/3LXINJ8GXN.png", "perspective_c2_y": {"Points": [{"co": {"X": 1, "Y": -1}, "interpolation": 2}]}, "perspective_c2_x": {"Points": [{"co": {"X": 1, "Y": -1}, "interpolation": 2}]}, "scale": 1, "waveform": false, "has_video": {"Points": [{"co": {"X": 1, "Y": -1}, "interpolation": 2}]}, "has_audio": {"Points": [{"co": {"X": 1, "Y": -1}, "interpolation": 2}]}, "anchor": 0, "perspective_c3_y": {"Points": [{"co": {"X": 1, "Y": -1}, "interpolation": 2}]}, "position": 2.0, "channel_mapping": {"Points": [{"co": {"X": 1, "Y": -1}, "interpolation": 2}]}, "scale_x": {"Points": [{"co": {"X": 1, "Y": 1}, "interpolation": 2}]}, "shear_y": {"Points": [{"co": {"X": 1, "Y": 0}, "interpolation": 2}]}, "display": 0, "perspective_c1_y": {"Points": [{"co": {"X": 1, "Y": -1}, "interpolation": 2}]}, "location_x": {"Points": [{"co": {"X": 1, "Y": 0}, "interpolation": 2}]}, "crop_y": {"Points": [{"co": {"X": 1, "Y": 0}, "interpolation": 2}]}, "crop_width": {"Points": [{"co": {"X": 1, "Y": -1}, "interpolation": 2}]}, "title": "!152-Slide -Open Libre Base.svg", "layer": 1, "shear_x": {"Points": [{"co": {"X": 1, "Y": 0}, "interpolation": 2}]}, "channel_filter": {"Points": [{"co": {"X": 1, "Y": -1}, "interpolation": 2}]}, "location_y": {"Points": [{"co": {"X": 1, "Y": 0}, "interpolation": 2}]}, "end": 5, "perspective_c1_x": {"Points": [{"co": {"X": 1, "Y": -1}, "interpolation": 2}]}, "id": "KADE8VO8LG", "start": 0, "perspective_c4_y": {"Points": [{"co": {"X": 1, "Y": -1}, "interpolation": 2}]}, "wave_color": {"blue": {"Points": [{"handle_type": 0, "handle_right": {"X": 0.5, "Y": 0}, "co": {"X": 1, "Y": 255}, "interpolation": 0, "handle_left": {"X": 0.5, "Y": 1}}]}, "red": {"Points": [{"handle_type": 0, "handle_right": {"X": 0.5, "Y": 0}, "co": {"X": 1, "Y": 0}, "interpolation": 0, "handle_left": {"X": 0.5, "Y": 1}}]}, "alpha": {"Points": [{"handle_type": 0, "handle_right": {"X": 0.5, "Y": 0}, "co": {"X": 1, "Y": 255}, "interpolation": 0, "handle_left": {"X": 0.5, "Y": 1}}]}, "green": {"Points": [{"handle_type": 0, "handle_right": {"X": 0.5, "Y": 0}, "co": {"X": 1, "Y": 123}, "interpolation": 0, "handle_left": {"X": 0.5, "Y": 1}}]}}, "perspective_c4_x": {"Points": [{"co": {"X": 1, "Y": -1}, "interpolation": 2}]}}, {"perspective_c1_y": {"Points": [{"co": {"X": 1, "Y": -1}, "interpolation": 2}]}, "perspective_c3_x": {"Points": [{"co": {"X": 1, "Y": -1}, "interpolation": 2}]}, "perspective_c2_y": {"Points": [{"co": {"X": 1, "Y": -1}, "interpolation": 2}]}, "alpha": {"Points": [{"co": {"X": 1, "Y": 1}, "interpolation": 2}, {"handle_type": 0, "handle_right": {"X": 0.5, "Y": 0}, "interpolation": 0, "co": {"X": 441, "Y": 0}, "handle_left": {"X": 0.5, "Y": 1}}, {"handle_type": 0, "handle_right": {"X": 0.5, "Y": 0}, "interpolation": 0, "co": {"X": 465, "Y": 1}, "handle_left": {"X": 0.5, "Y": 1}}, {"handle_type": 0, "handle_right": {"X": 0.5, "Y": 0}, "co": {"X": 582, "Y": 1}, "interpolation": 0, "handle_left": {"X": 0.5, "Y": 1}}, {"handle_type": 0, "handle_right": {"X": 0.5, "Y": 0}, "co": {"X": 606, "Y": 0}, "interpolation": 0, "handle_left": {"X": 0.5, "Y": 1}}]}, "scale_y": {"Points": [{"interpolation": 2, "co": {"X": 1, "Y": 1}}, {"interpolation": 1, "co": {"X": 527, "Y": 2.0}}]}, "time": {"Points": [{"co": {"X": 1, "Y": 1}, "interpolation": 2}, {"interpolation": 1, "co": {"X": 480, "Y": 480}}, {"interpolation": 1, "co": {"X": 528, "Y": 480}}, {"interpolation": 1, "co": {"X": 497, "Y": 480}}, {"interpolation": 1, "co": {"X": 545, "Y": 480}}, {"co": {"X": 558, "Y": 493}, "interpolation": 1}, {"co": {"X": 606, "Y": 493}, "interpolation": 1}, {"co": {"X": 1609, "Y": 1465}, "interpolation": 1}]}, "volume": {"Points": [{"co": {"X": 1, "Y": 1}, "interpolation": 2}, {"interpolation": 1, "co": {"X": 479, "Y": 1}}, {"interpolation": 1, "co": {"X": 480, "Y": 0}}, {"interpolation": 1, "co": {"X": 527, "Y": 0}}, {"interpolation": 1, "co": {"X": 528, "Y": 1}}, {"interpolation": 1, "co": {"X": 496, "Y": 0}}, {"interpolation": 1, "co": {"X": 497, "Y": 0}}, {"interpolation": 1, "co": {"X": 544, "Y": 0}}, {"interpolation": 1, "co": {"X": 545, "Y": 0}}, {"co": {"X": 557, "Y": 0}, "interpolation": 1}, {"co": {"X": 558, "Y": 0}, "interpolation": 1}, {"co": {"X": 605, "Y": 0}, "interpolation": 1}, {"co": {"X": 606, "Y": 0}, "interpolation": 1}]}, "crop_height": {"Points": [{"co": {"X": 1, "Y": -1}, "interpolation": 2}]}, "effects": [], "rotation": {"Points": [{"co": {"X": 1, "Y": 0}, "interpolation": 2}]}, "has_video": {"Points": [{"co": {"X": 1, "Y": -1}, "interpolation": 2}]}, "perspective_c2_x": {"Points": [{"co": {"X": 1, "Y": -1}, "interpolation": 2}]}, "image": "../../../.openshot_qt/thumbnail/5MD00FYBJ8-459.png", "perspective_c3_y": {"Points": [{"co": {"X": 1, "Y": -1}, "interpolation": 2}]}, "perspective_c4_x": {"Points": [{"co": {"X": 1, "Y": -1}, "interpolation": 2}]}, "channel_mapping": {"Points": [{"co": {"X": 1, "Y": -1}, "interpolation": 2}]}, "shear_y": {"Points": [{"co": {"X": 1, "Y": 0}, "interpolation": 2}]}, "crop_width": {"Points": [{"co": {"X": 1, "Y": -1}, "interpolation": 2}]}, "position": 27.66875, "crop_y": {"Points": [{"co": {"X": 1, "Y": 0}, "interpolation": 2}]}, "title": "!160-Register Spreadsheet as Database.mkv", "original_data": {"duration": 61.0, "video_length": "1525", "end": 61}, "shear_x": {"Points": [{"co": {"X": 1, "Y": 0}, "interpolation": 2}]}, "channel_filter": {"Points": [{"co": {"X": 1, "Y": -1}, "interpolation": 2}]}, "location_y": {"Points": [{"interpolation": 2, "co": {"X": 1, "Y": 0}}, {"interpolation": 1, "co": {"X": 527, "Y": 0.30000001192092896}}]}, "id": "5MD00FYBJ8", "start": 18.334895833333327, "perspective_c4_y": {"Points": [{"co": {"X": 1, "Y": -1}, "interpolation": 2}]}, "wave_color": {"blue": {"Points": [{"handle_type": 0, "handle_right": {"X": 0.5, "Y": 0}, "co": {"X": 1, "Y": 255}, "interpolation": 0, "handle_left": {"X": 0.5, "Y": 1}}]}, "red": {"Points": [{"handle_type": 0, "handle_right": {"X": 0.5, "Y": 0}, "co": {"X": 1, "Y": 0}, "interpolation": 0, "handle_left": {"X": 0.5, "Y": 1}}]}, "alpha": {"Points": [{"handle_type": 0, "handle_right": {"X": 0.5, "Y": 0}, "co": {"X": 1, "Y": 255}, "interpolation": 0, "handle_left": {"X": 0.5, "Y": 1}}]}, "green": {"Points": [{"handle_type": 0, "handle_right": {"X": 0.5, "Y": 0}, "co": {"X": 1, "Y": 123}, "interpolation": 0, "handle_left": {"X": 0.5, "Y": 1}}]}}, "duration": 67.0, "crop_x": {"Points": [{"co": {"X": 1, "Y": 0}, "interpolation": 2}]}, "file_id": "YJ84IVW8VE", "end": 25.20989583333333, "scale": 1, "waveform": false, "has_audio": {"Points": [{"co": {"X": 1, "Y": -1}, "interpolation": 2}]}, "anchor": 0, "reader": {"duration": 61.0, "top_field_first": true, "file_size": "666485", "has_single_image": false, "sample_rate": 0, "pixel_ratio": {"den": 1, "num": 1}, "video_length": "1525", "channel_layout": 4, "interlaced_frame": false, "vcodec": "h264", "has_video": true, "has_audio": false, "video_stream_index": 0, "audio_stream_index": -1, "type": "FFmpegReader", "fps": {"den": 1, "num": 25}, "display_ratio": {"den": 384, "num": 683}, "channels": 0, "video_timebase": {"den": 1000, "num": 1}, "audio_bit_rate": 0, "pixel_format": 0, "height": 768, "width": 1366, "acodec": "", "audio_timebase": {"den": 1, "num": 1}, "video_bit_rate": 87179, "path": "!160-Register Spreadsheet as Database.mkv"}, "gravity": 4, "scale_x": {"Points": [{"interpolation": 2, "co": {"X": 1, "Y": 1}}, {"interpolation": 1, "co": {"X": 527, "Y": 2.0}}]}, "display": 0, "location_x": {"Points": [{"interpolation": 2, "co": {"X": 1, "Y": 0}}, {"interpolation": 1, "co": {"X": 527, "Y": -0.20000000298023224}}]}, "layer": 1, "perspective_c1_x": {"Points": [{"co": {"X": 1, "Y": -1}, "interpolation": 2}]}}, {"perspective_c1_y": {"Points": [{"interpolation": 2, "co": {"X": 1, "Y": -1}}]}, "perspective_c3_x": {"Points": [{"interpolation": 2, "co": {"X": 1, "Y": -1}}]}, "perspective_c2_y": {"Points": [{"interpolation": 2, "co": {"X": 1, "Y": -1}}]}, "alpha": {"Points": [{"interpolation": 2, "co": {"X": 1, "Y": 1}}, {"handle_type": 0, "handle_right": {"X": 0.5, "Y": 0}, "interpolation": 0, "co": {"X": 649, "Y": 0}, "handle_left": {"X": 0.5, "Y": 1}}, {"handle_type": 0, "handle_right": {"X": 0.5, "Y": 0}, "interpolation": 0, "co": {"X": 673, "Y": 1}, "handle_left": {"X": 0.5, "Y": 1}}, {"handle_type": 0, "handle_right": {"X": 0.5, "Y": 0}, "co": {"X": 792, "Y": 1}, "interpolation": 0, "handle_left": {"X": 0.5, "Y": 1}}, {"handle_type": 0, "handle_right": {"X": 0.5, "Y": 0}, "co": {"X": 816, "Y": 0}, "interpolation": 0, "handle_left": {"X": 0.5, "Y": 1}}]}, "scale_y": {"Points": [{"handle_type": 0, "handle_right": {"X": 0.5, "Y": 0}, "co": {"X": 1, "Y": 1}, "interpolation": 0, "handle_left": {"X": 0.5, "Y": 1}}, {"interpolation": 1, "co": {"X": 747, "Y": 1.2000000476837158}}, {"co": {"X": 649, "Y": 1.2000000476837158}, "interpolation": 1}]}, "time": {"Points": [{"interpolation": 2, "co": {"X": 1, "Y": 1}}, {"co": {"X": 480, "Y": 480}, "interpolation": 1}, {"co": {"X": 528, "Y": 480}, "interpolation": 1}, {"co": {"X": 497, "Y": 480}, "interpolation": 1}, {"co": {"X": 545, "Y": 480}, "interpolation": 1}, {"co": {"X": 767, "Y": 695}, "interpolation": 1}, {"co": {"X": 815, "Y": 695}, "interpolation": 1}, {"co": {"X": 1609, "Y": 1465}, "interpolation": 1}]}, "volume": {"Points": [{"interpolation": 2, "co": {"X": 1, "Y": 1}}, {"co": {"X": 479, "Y": 1}, "interpolation": 1}, {"co": {"X": 480, "Y": 0}, "interpolation": 1}, {"co": {"X": 527, "Y": 0}, "interpolation": 1}, {"co": {"X": 528, "Y": 1}, "interpolation": 1}, {"co": {"X": 496, "Y": 0}, "interpolation": 1}, {"co": {"X": 497, "Y": 0}, "interpolation": 1}, {"co": {"X": 544, "Y": 0}, "interpolation": 1}, {"co": {"X": 545, "Y": 0}, "interpolation": 1}, {"co": {"X": 766, "Y": 0}, "interpolation": 1}, {"co": {"X": 767, "Y": 0}, "interpolation": 1}, {"co": {"X": 814, "Y": 0}, "interpolation": 1}, {"co": {"X": 815, "Y": 0}, "interpolation": 1}]}, "crop_height": {"Points": [{"interpolation": 2, "co": {"X": 1, "Y": -1}}]}, "effects": [], "rotation": {"Points": [{"interpolation": 2, "co": {"X": 1, "Y": 0}}]}, "has_video": {"Points": [{"interpolation": 2, "co": {"X": 1, "Y": -1}}]}, "perspective_c2_x": {"Points": [{"interpolation": 2, "co": {"X": 1, "Y": -1}}]}, "image": "../../../.openshot_qt/thumbnail/CUFU76JSRY-676.png", "perspective_c3_y": {"Points": [{"interpolation": 2, "co": {"X": 1, "Y": -1}}]}, "perspective_c4_x": {"Points": [{"interpolation": 2, "co": {"X": 1, "Y": -1}}]}, "channel_mapping": {"Points": [{"interpolation": 2, "co": {"X": 1, "Y": -1}}]}, "shear_y": {"Points": [{"interpolation": 2, "co": {"X": 1, "Y": 0}}]}, "crop_width": {"Points": [{"interpolation": 2, "co": {"X": 1, "Y": -1}}]}, "position": 34.541406249999994, "crop_y": {"Points": [{"interpolation": 2, "co": {"X": 1, "Y": 0}}]}, "title": "!160-Register Spreadsheet as Database.mkv", "original_data": {"duration": 61.0, "video_length": "1525", "end": 61}, "shear_x": {"Points": [{"interpolation": 2, "co": {"X": 1, "Y": 0}}]}, "channel_filter": {"Points": [{"interpolation": 2, "co": {"X": 1, "Y": -1}}]}, "location_y": {"Points": [{"handle_type": 0, "handle_right": {"X": 0.5, "Y": 0}, "co": {"X": 1, "Y": 0}, "interpolation": 0, "handle_left": {"X": 0.5, "Y": 1}}, {"interpolation": 1, "co": {"X": 747, "Y": -0.10000000149011612}}, {"co": {"X": 649, "Y": -0.10000000149011612}, "interpolation": 1}]}, "id": "CUFU76JSRY", "start": 27.001250000000002, "perspective_c4_y": {"Points": [{"interpolation": 2, "co": {"X": 1, "Y": -1}}]}, "wave_color": {"blue": {"Points": [{"handle_type": 0, "handle_right": {"X": 0.5, "Y": 0}, "interpolation": 0, "co": {"X": 1, "Y": 255}, "handle_left": {"X": 0.5, "Y": 1}}]}, "red": {"Points": [{"handle_type": 0, "handle_right": {"X": 0.5, "Y": 0}, "interpolation": 0, "co": {"X": 1, "Y": 0}, "handle_left": {"X": 0.5, "Y": 1}}]}, "alpha": {"Points": [{"handle_type": 0, "handle_right": {"X": 0.5, "Y": 0}, "interpolation": 0, "co": {"X": 1, "Y": 255}, "handle_left": {"X": 0.5, "Y": 1}}]}, "green": {"Points": [{"handle_type": 0, "handle_right": {"X": 0.5, "Y": 0}, "interpolation": 0, "co": {"X": 1, "Y": 123}, "handle_left": {"X": 0.5, "Y": 1}}]}}, "duration": 67.0, "crop_x": {"Points": [{"interpolation": 2, "co": {"X": 1, "Y": 0}}]}, "file_id": "YJ84IVW8VE", "end": 33.95958333333333, "scale": 1, "waveform": false, "has_audio": {"Points": [{"interpolation": 2, "co": {"X": 1, "Y": -1}}]}, "anchor": 0, "reader": {"duration": 61.0, "top_field_first": true, "file_size": "666485", "has_single_image": false, "sample_rate": 0, "pixel_ratio": {"den": 1, "num": 1}, "video_length": "1525", "channel_layout": 4, "interlaced_frame": false, "vcodec": "h264", "has_video": true, "has_audio": false, "video_stream_index": 0, "audio_stream_index": -1, "type": "FFmpegReader", "fps": {"den": 1, "num": 25}, "display_ratio": {"den": 384, "num": 683}, "channels": 0, "video_timebase": {"den": 1000, "num": 1}, "audio_bit_rate": 0, "pixel_format": 0, "height": 768, "width": 1366, "acodec": "", "audio_timebase": {"den": 1, "num": 1}, "video_bit_rate": 87179, "path": "!160-Register Spreadsheet as Database.mkv"}, "gravity": 4, "scale_x": {"Points": [{"handle_type": 0, "handle_right": {"X": 0.5, "Y": 0}, "interpolation": 0, "co": {"X": 1, "Y": 1}, "handle_left": {"X": 0.5, "Y": 1}}, {"co": {"X": 747, "Y": 1.2999999523162842}, "interpolation": 1}, {"co": {"X": 649, "Y": 1.2999999523162842}, "interpolation": 1}]}, "display": 0, "location_x": {"Points": [{"handle_type": 0, "handle_right": {"X": 0.5, "Y": 0}, "co": {"X": 1, "Y": 0}, "interpolation": 0, "handle_left": {"X": 0.5, "Y": 1}}]}, "layer": 1, "perspective_c1_x": {"Points": [{"interpolation": 2, "co": {"X": 1, "Y": -1}}]}}, {"perspective_c1_y": {"Points": [{"interpolation": 2, "co": {"X": 1, "Y": -1}}]}, "perspective_c3_x": {"Points": [{"interpolation": 2, "co": {"X": 1, "Y": -1}}]}, "perspective_c2_y": {"Points": [{"interpolation": 2, "co": {"X": 1, "Y": -1}}]}, "alpha": {"Points": [{"handle_type": 0, "handle_right": {"X": 0.5, "Y": 0}, "interpolation": 0, "co": {"X": 1, "Y": 1}, "handle_left": {"X": 0.5, "Y": 1}}, {"handle_type": 0, "handle_right": {"X": 0.5, "Y": 0}, "interpolation": 0, "co": {"X": 931, "Y": 1}, "handle_left": {"X": 0.5, "Y": 1}}, {"handle_type": 0, "handle_right": {"X": 0.5, "Y": 0}, "interpolation": 0, "co": {"X": 955, "Y": 0}, "handle_left": {"X": 0.5, "Y": 1}}]}, "scale_y": {"Points": [{"interpolation": 2, "co": {"X": 1, "Y": 1}}, {"interpolation": 1, "co": {"X": 768, "Y": 1.2999999523162842}}, {"interpolation": 1, "co": {"X": 822, "Y": 2.299999952316284}}]}, "time": {"Points": [{"interpolation": 1, "co": {"X": 1, "Y": 0}}, {"interpolation": 1, "co": {"X": 770, "Y": 770}}, {"interpolation": 1, "co": {"X": 866, "Y": 770}}, {"interpolation": 1, "co": {"X": 1561, "Y": 1465}}]}, "volume": {"Points": [{"interpolation": 2, "co": {"X": 1, "Y": 1}}, {"interpolation": 1, "co": {"X": 768, "Y": 1}}, {"interpolation": 1, "co": {"X": 769, "Y": 0}}, {"interpolation": 1, "co": {"X": 816, "Y": 0}}, {"interpolation": 1, "co": {"X": 817, "Y": 1}}, {"interpolation": 1, "co": {"X": 768, "Y": 0}}, {"interpolation": 1, "co": {"X": 769, "Y": 0}}, {"interpolation": 1, "co": {"X": 816, "Y": 0}}, {"interpolation": 1, "co": {"X": 817, "Y": 0}}, {"interpolation": 1, "co": {"X": 768, "Y": 0}}, {"interpolation": 1, "co": {"X": 769, "Y": 0}}, {"interpolation": 1, "co": {"X": 816, "Y": 0}}, {"interpolation": 1, "co": {"X": 817, "Y": 0}}, {"interpolation": 1, "co": {"X": 768, "Y": 0}}, {"interpolation": 1, "co": {"X": 769, "Y": 0}}, {"interpolation": 1, "co": {"X": 816, "Y": 0}}, {"interpolation": 1, "co": {"X": 817, "Y": 0}}, {"interpolation": 1, "co": {"X": 804, "Y": 0}}, {"interpolation": 1, "co": {"X": 805, "Y": 0}}, {"interpolation": 1, "co": {"X": 852, "Y": 0}}, {"interpolation": 1, "co": {"X": 853, "Y": 0}}, {"interpolation": 1, "co": {"X": 769, "Y": 0}}, {"interpolation": 1, "co": {"X": 770, "Y": 0}}, {"interpolation": 1, "co": {"X": 865, "Y": 0}}, {"interpolation": 1, "co": {"X": 866, "Y": 0}}]}, "crop_height": {"Points": [{"interpolation": 2, "co": {"X": 1, "Y": -1}}]}, "effects": [], "rotation": {"Points": [{"interpolation": 2, "co": {"X": 1, "Y": 0}}]}, "has_video": {"Points": [{"interpolation": 2, "co": {"X": 1, "Y": -1}}]}, "perspective_c2_x": {"Points": [{"interpolation": 2, "co": {"X": 1, "Y": -1}}]}, "image": "../../../.openshot_qt/thumbnail/9L9W1S3V4Q-800.png", "perspective_c3_y": {"Points": [{"interpolation": 2, "co": {"X": 1, "Y": -1}}]}, "perspective_c4_x": {"Points": [{"interpolation": 2, "co": {"X": 1, "Y": -1}}]}, "channel_mapping": {"Points": [{"interpolation": 2, "co": {"X": 1, "Y": -1}}]}, "shear_y": {"Points": [{"interpolation": 2, "co": {"X": 1, "Y": 0}}]}, "crop_width": {"Points": [{"interpolation": 2, "co": {"X": 1, "Y": -1}}]}, "position": 41.496875, "crop_y": {"Points": [{"interpolation": 2, "co": {"X": 1, "Y": 0}}]}, "title": "!160-Register Spreadsheet as Database.mkv", "original_data": {"duration": 61.0, "video_length": "1525", "end": 61}, "shear_x": {"Points": [{"interpolation": 2, "co": {"X": 1, "Y": 0}}]}, "channel_filter": {"Points": [{"interpolation": 2, "co": {"X": 1, "Y": -1}}]}, "location_y": {"Points": [{"interpolation": 2, "co": {"X": 1, "Y": 0}}, {"interpolation": 1, "co": {"X": 768, "Y": -0.03500000014901161}}, {"interpolation": 1, "co": {"X": 822, "Y": 0.30000001192092896}}, {"interpolation": 1, "co": {"X": 901, "Y": -0.44999998807907104}}, {"interpolation": 1, "co": {"X": 876, "Y": 0.30000001192092896}}]}, "id": "9L9W1S3V4Q", "start": 31.971458333333338, "perspective_c4_y": {"Points": [{"interpolation": 2, "co": {"X": 1, "Y": -1}}]}, "wave_color": {"blue": {"Points": [{"handle_type": 0, "handle_right": {"X": 0.5, "Y": 0}, "interpolation": 0, "co": {"X": 1, "Y": 255}, "handle_left": {"X": 0.5, "Y": 1}}]}, "red": {"Points": [{"handle_type": 0, "handle_right": {"X": 0.5, "Y": 0}, "interpolation": 0, "co": {"X": 1, "Y": 0}, "handle_left": {"X": 0.5, "Y": 1}}]}, "alpha": {"Points": [{"handle_type": 0, "handle_right": {"X": 0.5, "Y": 0}, "interpolation": 0, "co": {"X": 1, "Y": 255}, "handle_left": {"X": 0.5, "Y": 1}}]}, "green": {"Points": [{"handle_type": 0, "handle_right": {"X": 0.5, "Y": 0}, "interpolation": 0, "co": {"X": 1, "Y": 123}, "handle_left": {"X": 0.5, "Y": 1}}]}}, "duration": 65.0, "crop_x": {"Points": [{"interpolation": 2, "co": {"X": 1, "Y": 0}}]}, "file_id": "YJ84IVW8VE", "end": 39.763125, "scale": 1, "waveform": false, "has_audio": {"Points": [{"interpolation": 2, "co": {"X": 1, "Y": -1}}]}, "anchor": 0, "reader": {"duration": 61.0, "top_field_first": true, "file_size": "666485", "has_single_image": false, "sample_rate": 0, "pixel_ratio": {"den": 1, "num": 1}, "channel_layout": 4, "video_length": "1525", "interlaced_frame": false, "vcodec": "h264", "has_video": true, "has_audio": false, "video_stream_index": 0, "audio_stream_index": -1, "type": "FFmpegReader", "fps": {"den": 1, "num": 25}, "display_ratio": {"den": 384, "num": 683}, "channels": 0, "video_timebase": {"den": 1000, "num": 1}, "audio_bit_rate": 0, "pixel_format": 0, "height": 768, "width": 1366, "acodec": "", "audio_timebase": {"den": 1, "num": 1}, "video_bit_rate": 87179, "path": "!160-Register Spreadsheet as Database.mkv"}, "gravity": 4, "scale_x": {"Points": [{"interpolation": 2, "co": {"X": 1, "Y": 1}}, {"interpolation": 1, "co": {"X": 768, "Y": 1.2999999523162842}}, {"interpolation": 1, "co": {"X": 822, "Y": 2.299999952316284}}]}, "display": 0, "location_x": {"Points": [{"interpolation": 2, "co": {"X": 1, "Y": 0}}, {"interpolation": 1, "co": {"X": 822, "Y": -0.20000000298023224}}]}, "layer": 2, "perspective_c1_x": {"Points": [{"interpolation": 2, "co": {"X": 1, "Y": -1}}]}}, {"perspective_c1_y": {"Points": [{"interpolation": 2, "co": {"X": 1, "Y": -1}}]}, "perspective_c3_x": {"Points": [{"interpolation": 2, "co": {"X": 1, "Y": -1}}]}, "perspective_c2_y": {"Points": [{"interpolation": 2, "co": {"X": 1, "Y": -1}}]}, "alpha": {"Points": [{"handle_type": 0, "handle_right": {"X": 0.5, "Y": 0}, "interpolation": 0, "co": {"X": 1, "Y": 1}, "handle_left": {"X": 0.5, "Y": 1}}, {"handle_type": 0, "handle_right": {"X": 0.5, "Y": 0}, "interpolation": 0, "co": {"X": 1279, "Y": 1}, "handle_left": {"X": 0.5, "Y": 1}}, {"handle_type": 0, "handle_right": {"X": 0.5, "Y": 0}, "interpolation": 0, "co": {"X": 1351, "Y": 0}, "handle_left": {"X": 0.5, "Y": 1}}]}, "scale_y": {"Points": [{"interpolation": 2, "co": {"X": 1, "Y": 1}}, {"interpolation": 1, "co": {"X": 768, "Y": 1.2999999523162842}}, {"interpolation": 1, "co": {"X": 822, "Y": 2.299999952316284}}]}, "time": {"Points": [{"interpolation": 1, "co": {"X": 1, "Y": 0}}, {"interpolation": 1, "co": {"X": 770, "Y": 770}}, {"interpolation": 1, "co": {"X": 866, "Y": 770}}, {"interpolation": 1, "co": {"X": 1171, "Y": 1075}}, {"interpolation": 1, "co": {"X": 1219, "Y": 1075}}, {"interpolation": 1, "co": {"X": 1171, "Y": 1075}}, {"interpolation": 1, "co": {"X": 1219, "Y": 1075}}, {"interpolation": 1, "co": {"X": 1190, "Y": 1075}}, {"interpolation": 1, "co": {"X": 1286, "Y": 1075}}, {"interpolation": 1, "co": {"X": 1222, "Y": 1075}}, {"interpolation": 1, "co": {"X": 1318, "Y": 1075}}, {"interpolation": 1, "co": {"X": 1209, "Y": 1075}}, {"interpolation": 1, "co": {"X": 1305, "Y": 1075}}, {"interpolation": 1, "co": {"X": 1205, "Y": 1075}}, {"interpolation": 1, "co": {"X": 1349, "Y": 1075}}, {"interpolation": 1, "co": {"X": 2089, "Y": 1465}}]}, "volume": {"Points": [{"interpolation": 2, "co": {"X": 1, "Y": 1}}, {"interpolation": 1, "co": {"X": 768, "Y": 1}}, {"interpolation": 1, "co": {"X": 769, "Y": 0}}, {"interpolation": 1, "co": {"X": 816, "Y": 0}}, {"interpolation": 1, "co": {"X": 817, "Y": 1}}, {"interpolation": 1, "co": {"X": 768, "Y": 0}}, {"interpolation": 1, "co": {"X": 769, "Y": 0}}, {"interpolation": 1, "co": {"X": 816, "Y": 0}}, {"interpolation": 1, "co": {"X": 817, "Y": 0}}, {"interpolation": 1, "co": {"X": 768, "Y": 0}}, {"interpolation": 1, "co": {"X": 769, "Y": 0}}, {"interpolation": 1, "co": {"X": 816, "Y": 0}}, {"interpolation": 1, "co": {"X": 817, "Y": 0}}, {"interpolation": 1, "co": {"X": 768, "Y": 0}}, {"interpolation": 1, "co": {"X": 769, "Y": 0}}, {"interpolation": 1, "co": {"X": 816, "Y": 0}}, {"interpolation": 1, "co": {"X": 817, "Y": 0}}, {"interpolation": 1, "co": {"X": 804, "Y": 0}}, {"interpolation": 1, "co": {"X": 805, "Y": 0}}, {"interpolation": 1, "co": {"X": 852, "Y": 0}}, {"interpolation": 1, "co": {"X": 853, "Y": 0}}, {"interpolation": 1, "co": {"X": 769, "Y": 0}}, {"interpolation": 1, "co": {"X": 770, "Y": 0}}, {"interpolation": 1, "co": {"X": 865, "Y": 0}}, {"interpolation": 1, "co": {"X": 866, "Y": 0}}, {"interpolation": 1, "co": {"X": 1170, "Y": 0}}, {"interpolation": 1, "co": {"X": 1171, "Y": 0}}, {"interpolation": 1, "co": {"X": 1218, "Y": 0}}, {"interpolation": 1, "co": {"X": 1219, "Y": 0}}, {"interpolation": 1, "co": {"X": 1170, "Y": 0}}, {"interpolation": 1, "co": {"X": 1171, "Y": 0}}, {"interpolation": 1, "co": {"X": 1218, "Y": 0}}, {"interpolation": 1, "co": {"X": 1219, "Y": 0}}, {"interpolation": 1, "co": {"X": 1189, "Y": 0}}, {"interpolation": 1, "co": {"X": 1190, "Y": 0}}, {"interpolation": 1, "co": {"X": 1285, "Y": 0}}, {"interpolation": 1, "co": {"X": 1286, "Y": 0}}, {"interpolation": 1, "co": {"X": 1221, "Y": 0}}, {"interpolation": 1, "co": {"X": 1222, "Y": 0}}, {"interpolation": 1, "co": {"X": 1317, "Y": 0}}, {"interpolation": 1, "co": {"X": 1318, "Y": 0}}, {"interpolation": 1, "co": {"X": 1208, "Y": 0}}, {"interpolation": 1, "co": {"X": 1209, "Y": 0}}, {"interpolation": 1, "co": {"X": 1304, "Y": 0}}, {"interpolation": 1, "co": {"X": 1305, "Y": 0}}, {"interpolation": 1, "co": {"X": 1204, "Y": 0}}, {"interpolation": 1, "co": {"X": 1205, "Y": 0}}, {"interpolation": 1, "co": {"X": 1348, "Y": 0}}, {"interpolation": 1, "co": {"X": 1349, "Y": 0}}]}, "crop_height": {"Points": [{"interpolation": 2, "co": {"X": 1, "Y": -1}}]}, "effects": [], "rotation": {"Points": [{"interpolation": 2, "co": {"X": 1, "Y": 0}}]}, "has_video": {"Points": [{"interpolation": 2, "co": {"X": 1, "Y": -1}}]}, "perspective_c2_x": {"Points": [{"interpolation": 2, "co": {"X": 1, "Y": -1}}]}, "image": "../../../.openshot_qt/thumbnail/OF57GEZECQ-1196.png", "perspective_c3_y": {"Points": [{"interpolation": 2, "co": {"X": 1, "Y": -1}}]}, "position": 47.95625, "channel_mapping": {"Points": [{"interpolation": 2, "co": {"X": 1, "Y": -1}}]}, "shear_y": {"Points": [{"interpolation": 2, "co": {"X": 1, "Y": 0}}]}, "crop_width": {"Points": [{"interpolation": 2, "co": {"X": 1, "Y": -1}}]}, "location_x": {"Points": [{"interpolation": 2, "co": {"X": 1, "Y": 0}}, {"interpolation": 1, "co": {"X": 822, "Y": -0.20000000298023224}}]}, "crop_y": {"Points": [{"interpolation": 2, "co": {"X": 1, "Y": 0}}]}, "title": "!160-Register Spreadsheet as Database.mkv", "original_data": {"duration": 61.0, "video_length": "1525", "end": 61}, "shear_x": {"Points": [{"interpolation": 2, "co": {"X": 1, "Y": 0}}]}, "channel_filter": {"Points": [{"interpolation": 2, "co": {"X": 1, "Y": -1}}]}, "location_y": {"Points": [{"interpolation": 2, "co": {"X": 1, "Y": 0}}, {"interpolation": 1, "co": {"X": 768, "Y": -0.03500000014901161}}, {"interpolation": 1, "co": {"X": 822, "Y": 0.30000001192092896}}, {"interpolation": 1, "co": {"X": 901, "Y": -0.44999998807907104}}, {"interpolation": 1, "co": {"X": 876, "Y": 0.30000001192092896}}]}, "id": "OF57GEZECQ", "start": 47.800625000000004, "perspective_c4_y": {"Points": [{"interpolation": 2, "co": {"X": 1, "Y": -1}}]}, "wave_color": {"blue": {"Points": [{"handle_type": 0, "handle_right": {"X": 0.5, "Y": 0}, "interpolation": 0, "co": {"X": 1, "Y": 255}, "handle_left": {"X": 0.5, "Y": 1}}]}, "red": {"Points": [{"handle_type": 0, "handle_right": {"X": 0.5, "Y": 0}, "interpolation": 0, "co": {"X": 1, "Y": 0}, "handle_left": {"X": 0.5, "Y": 1}}]}, "alpha": {"Points": [{"handle_type": 0, "handle_right": {"X": 0.5, "Y": 0}, "interpolation": 0, "co": {"X": 1, "Y": 255}, "handle_left": {"X": 0.5, "Y": 1}}]}, "green": {"Points": [{"handle_type": 0, "handle_right": {"X": 0.5, "Y": 0}, "interpolation": 0, "co": {"X": 1, "Y": 123}, "handle_left": {"X": 0.5, "Y": 1}}]}}, "perspective_c4_x": {"Points": [{"interpolation": 2, "co": {"X": 1, "Y": -1}}]}, "duration": 87.0, "crop_x": {"Points": [{"interpolation": 2, "co": {"X": 1, "Y": 0}}]}, "file_id": "YJ84IVW8VE", "end": 56.26104166666667, "scale": 1, "has_audio": {"Points": [{"interpolation": 2, "co": {"X": 1, "Y": -1}}]}, "anchor": 0, "reader": {"duration": 61.0, "top_field_first": true, "file_size": "666485", "has_single_image": false, "sample_rate": 0, "pixel_ratio": {"den": 1, "num": 1}, "video_length": "1525", "channel_layout": 4, "interlaced_frame": false, "vcodec": "h264", "has_video": true, "has_audio": false, "video_stream_index": 0, "audio_stream_index": -1, "type": "FFmpegReader", "fps": {"den": 1, "num": 25}, "display_ratio": {"den": 384, "num": 683}, "channels": 0, "video_timebase": {"den": 1000, "num": 1}, "audio_bit_rate": 0, "pixel_format": 0, "height": 768, "width": 1366, "acodec": "", "audio_timebase": {"den": 1, "num": 1}, "video_bit_rate": 87179, "path": "!160-Register Spreadsheet as Database.mkv"}, "gravity": 4, "scale_x": {"Points": [{"interpolation": 2, "co": {"X": 1, "Y": 1}}, {"interpolation": 1, "co": {"X": 768, "Y": 1.2999999523162842}}, {"interpolation": 1, "co": {"X": 822, "Y": 2.299999952316284}}]}, "display": 0, "waveform": false, "layer": 3, "perspective_c1_x": {"Points": [{"interpolation": 2, "co": {"X": 1, "Y": -1}}]}}, {"perspective_c1_y": {"Points": [{"interpolation": 2, "co": {"X": 1, "Y": -1}}]}, "perspective_c3_x": {"Points": [{"interpolation": 2, "co": {"X": 1, "Y": -1}}]}, "perspective_c2_y": {"Points": [{"interpolation": 2, "co": {"X": 1, "Y": -1}}]}, "alpha": {"Points": [{"interpolation": 2, "co": {"X": 1, "Y": 1}}, {"handle_type": 0, "handle_right": {"X": 0.5, "Y": 0}, "co": {"X": 1, "Y": 0}, "interpolation": 0, "handle_left": {"X": 0.5, "Y": 1}}, {"handle_type": 0, "handle_right": {"X": 0.5, "Y": 0}, "co": {"X": 73, "Y": 1}, "interpolation": 0, "handle_left": {"X": 0.5, "Y": 1}}, {"handle_type": 0, "handle_right": {"X": 0.5, "Y": 0}, "interpolation": 0, "co": {"X": 634, "Y": 1}, "handle_left": {"X": 0.5, "Y": 1}}, {"handle_type": 0, "handle_right": {"X": 0.5, "Y": 0}, "interpolation": 0, "co": {"X": 706, "Y": 0}, "handle_left": {"X": 0.5, "Y": 1}}]}, "scale_y": {"Points": [{"co": {"X": 1, "Y": 1}, "interpolation": 2}, {"interpolation": 1, "co": {"X": 114, "Y": 1.7999999523162842}}]}, "time": {"Points": [{"interpolation": 2, "co": {"X": 1, "Y": 1}}]}, "volume": {"Points": [{"interpolation": 2, "co": {"X": 1, "Y": 1}}]}, "crop_height": {"Points": [{"interpolation": 2, "co": {"X": 1, "Y": -1}}]}, "effects": [], "rotation": {"Points": [{"interpolation": 2, "co": {"X": 1, "Y": 0}}, {"co": {"X": 114, "Y": 0.0}, "interpolation": 1}]}, "image": "../../../.openshot_qt/thumbnail/21YUL66NMK.png", "perspective_c2_x": {"Points": [{"interpolation": 2, "co": {"X": 1, "Y": -1}}]}, "has_video": {"Points": [{"interpolation": 2, "co": {"X": 1, "Y": -1}}]}, "perspective_c3_y": {"Points": [{"interpolation": 2, "co": {"X": 1, "Y": -1}}]}, "position": 56.415625, "end": 29.375, "shear_y": {"Points": [{"interpolation": 2, "co": {"X": 1, "Y": 0}}]}, "crop_width": {"Points": [{"interpolation": 2, "co": {"X": 1, "Y": -1}}]}, "location_x": {"Points": [{"interpolation": 2, "co": {"X": 1, "Y": 0}}, {"co": {"X": 114, "Y": -0.10000000149011612}, "interpolation": 1}]}, "crop_y": {"Points": [{"interpolation": 2, "co": {"X": 1, "Y": 0}}]}, "title": "Finish Connection.mkv", "shear_x": {"Points": [{"interpolation": 2, "co": {"X": 1, "Y": 0}}]}, "channel_filter": {"Points": [{"interpolation": 2, "co": {"X": 1, "Y": -1}}]}, "location_y": {"Points": [{"co": {"X": 1, "Y": 0}, "interpolation": 2}, {"interpolation": 1, "co": {"X": 114, "Y": 0.4000000059604645}}, {"co": {"X": 562, "Y": -0.4000000059604645}, "interpolation": 1}, {"co": {"X": 354, "Y": 0.4000000059604645}, "interpolation": 1}, {"interpolation": 1, "co": {"X": 496, "Y": -0.4000000059604645}}, {"co": {"X": 450, "Y": -0.4000000059604645}, "interpolation": 1}, {"co": {"X": 421, "Y": -0.4000000059604645}, "interpolation": 1}]}, "id": "BOK53Q039G", "start": 0, "perspective_c4_y": {"Points": [{"interpolation": 2, "co": {"X": 1, "Y": -1}}]}, "wave_color": {"blue": {"Points": [{"handle_type": 0, "handle_right": {"X": 0.5, "Y": 0}, "interpolation": 0, "co": {"X": 1, "Y": 255}, "handle_left": {"X": 0.5, "Y": 1}}]}, "red": {"Points": [{"handle_type": 0, "handle_right": {"X": 0.5, "Y": 0}, "interpolation": 0, "co": {"X": 1, "Y": 0}, "handle_left": {"X": 0.5, "Y": 1}}]}, "alpha": {"Points": [{"handle_type": 0, "handle_right": {"X": 0.5, "Y": 0}, "interpolation": 0, "co": {"X": 1, "Y": 255}, "handle_left": {"X": 0.5, "Y": 1}}]}, "green": {"Points": [{"handle_type": 0, "handle_right": {"X": 0.5, "Y": 0}, "interpolation": 0, "co": {"X": 1, "Y": 123}, "handle_left": {"X": 0.5, "Y": 1}}]}}, "perspective_c4_x": {"Points": [{"interpolation": 2, "co": {"X": 1, "Y": -1}}]}, "duration": 67.0, "crop_x": {"Points": [{"interpolation": 2, "co": {"X": 1, "Y": 0}}]}, "file_id": "21YUL66NMK", "channel_mapping": {"Points": [{"interpolation": 2, "co": {"X": 1, "Y": -1}}]}, "scale": 1, "has_audio": {"Points": [{"interpolation": 2, "co": {"X": 1, "Y": -1}}]}, "anchor": 0, "reader": {"duration": 67.0, "type": "FFmpegReader", "file_size": "331213", "has_single_image": false, "sample_rate": 0, "pixel_ratio": {"den": 1, "num": 1}, "channel_layout": 4, "video_length": "1675", "interlaced_frame": false, "vcodec": "h264", "has_video": true, "has_audio": false, "video_stream_index": 0, "audio_stream_index": -1, "fps": {"den": 1, "num": 25}, "display_ratio": {"den": 276, "num": 407}, "channels": 0, "audio_bit_rate": 0, "video_timebase": {"den": 1000, "num": 1}, "top_field_first": true, "pixel_format": 0, "height": 552, "width": 814, "acodec": "", "audio_timebase": {"den": 1, "num": 1}, "video_bit_rate": 39547, "path": "../../../Videos/Finish Connection.mkv"}, "gravity": 4, "scale_x": {"Points": [{"co": {"X": 1, "Y": 1}, "interpolation": 2}, {"interpolation": 1, "co": {"X": 114, "Y": 1.7999999523162842}}]}, "display": 0, "waveform": false, "layer": 3, "perspective_c1_x": {"Points": [{"interpolation": 2, "co": {"X": 1, "Y": -1}}]}}], "layers": [{"id": "L0", "y": 0, "lock": false, "label": "", "number": 0}, {"id": "L1", "y": 0, "lock": false, "label": "", "number": 1}, {"id": "L2", "y": 0, "lock": false, "label": "", "number": 2}, {"id": "L3", "y": 0, "lock": false, "label": "", "number": 3}, {"id": "L4", "y": 0, "lock": false, "label": "", "number": 4}], "tick_pixels": 100, "profile": "HDV 720 24p", "fps": {"den": 1, "num": 24}, "channels": 2, "height": 720, "width": 1280, "markers": [{"position": 16.958333333333332, "id": "QK3S6QGUNZ", "icon": "blue.png"}, {"position": 25.25, "id": "6LPD42UJYX", "icon": "blue.png"}, {"position": 26.75, "id": "NY3MO1QT3W", "icon": "blue.png"}, {"position": 31.75, "id": "1NMGNL7C9S", "icon": "blue.png"}, {"position": 29.708333333333332, "id": "GPH87Z28ZM", "icon": "blue.png"}, {"position": 28.041666666666668, "id": "NJ54WCF3HX", "icon": "blue.png"}, {"position": 34.583333333333336, "id": "40UXWUEAGM", "icon": "blue.png"}, {"position": 47.958333333333336, "id": "HR7ZXFJMK6", "icon": "blue.png"}, {"position": 61.916666666666664, "id": "4UXW0UOK8Y", "icon": "blue.png"}, {"position": 64.16666666666667, "id": "9DAK8E5KIR", "icon": "blue.png"}, {"position": 66.83333333333333, "id": "5GDM4YY9N7", "icon": "blue.png"}, {"position": 65.20833333333333, "id": "USBMMOQMN1", "icon": "blue.png"}], "export_path": "", "id": "T0"}