{"history": {"undo": [{"type": "update", "old_values": {"shear_x": {"Points": [{"co": {"Y": 0.0, "X": 1.0}, "interpolation": 2}]}, "perspective_c3_x": {"Points": [{"co": {"Y": -1.0, "X": 1.0}, "interpolation": 2}]}, "has_video": {"Points": [{"co": {"Y": -1.0, "X": 1.0}, "interpolation": 2}]}, "start": 0, "crop_x": {"Points": [{"co": {"Y": 0.0, "X": 1.0}, "interpolation": 2}]}, "anchor": 0, "has_audio": {"Points": [{"co": {"Y": -1.0, "X": 1.0}, "interpolation": 2}]}, "volume": {"Points": [{"co": {"Y": 1.0, "X": 1.0}, "interpolation": 2}]}, "gravity": 4, "crop_width": {"Points": [{"co": {"Y": -1.0, "X": 1.0}, "interpolation": 2}]}, "scale_x": {"Points": [{"co": {"Y": 1.0, "X": 1.0}, "interpolation": 2}]}, "shear_y": {"Points": [{"co": {"Y": 0.0, "X": 1.0}, "interpolation": 2}]}, "perspective_c1_y": {"Points": [{"co": {"Y": -1.0, "X": 1.0}, "interpolation": 2}]}, "location_y": {"Points": [{"co": {"Y": 0.0, "X": 1.0}, "interpolation": 2}]}, "effects": [], "crop_y": {"Points": [{"co": {"Y": 0.0, "X": 1.0}, "interpolation": 2}]}, "display": 0, "layer": 3, "reader": {"acodec": "", "has_video": true, "interlaced_frame": false, "height": 3827, "has_audio": false, "audio_bit_rate": 0, "duration": 86400.0, "pixel_ratio": {"den": 1, "num": 1}, "type": "QtImageReader", "file_size": "104140324", "audio_stream_index": -1, "has_single_image": true, "video_stream_index": -1, "pixel_format": -1, "channels": 0, "vcodec": "", "sample_rate": 0, "channel_layout": 4, "video_bit_rate": 0, "fps": {"den": 1, "num": 30}, "width": 6803, "audio_timebase": {"den": 1, "num": 1}, "display_ratio": {"den": 3827, "num": 6803}, "top_field_first": true, "video_timebase": {"den": 30, "num": 1}, "path": "/home/milind/Data/Projects/ProgressCard/Title-04.svg", "video_length": "2592000"}, "end": 2.0216666666666665, "perspective_c2_y": {"Points": [{"co": {"Y": -1.0, "X": 1.0}, "interpolation": 2}]}, "perspective_c2_x": {"Points": [{"co": {"Y": -1.0, "X": 1.0}, "interpolation": 2}]}, "alpha": {"Points": [{"co": {"Y": 1.0, "X": 1.0}, "interpolation": 2}]}, "file_id": "6B6X3SW6U5", "rotation": {"Points": [{"co": {"Y": 0.0, "X": 1.0}, "interpolation": 2}]}, "crop_height": {"Points": [{"co": {"Y": -1.0, "X": 1.0}, "interpolation": 2}]}, "scale": 1, "waveform": false, "perspective_c4_x": {"Points": [{"co": {"Y": -1.0, "X": 1.0}, "interpolation": 2}]}, "time": {"Points": [{"co": {"Y": 1.0, "X": 1.0}, "interpolation": 2}]}, "location_x": {"Points": [{"co": {"Y": 0.0, "X": 1.0}, "interpolation": 2}]}, "title": "Title-04.svg", "id": "173ASVPEMX", "perspective_c3_y": {"Points": [{"co": {"Y": -1.0, "X": 1.0}, "interpolation": 2}]}, "image": "/home/milind/.openshot_qt/thumbnail/6B6X3SW6U5.png", "scale_y": {"Points": [{"co": {"Y": 1.0, "X": 1.0}, "interpolation": 2}]}, "perspective_c1_x": {"Points": [{"co": {"Y": -1.0, "X": 1.0}, "interpolation": 2}]}, "perspective_c4_y": {"Points": [{"co": {"Y": -1.0, "X": 1.0}, "interpolation": 2}]}, "channel_mapping": {"Points": [{"co": {"Y": -1.0, "X": 1.0}, "interpolation": 2}]}, "wave_color": {"red": {"Points": [{"co": {"Y": 0.0, "X": 1.0}, "handle_left": {"Y": 1.0, "X": 0.5}, "handle_type": 0, "handle_right": {"Y": 0.0, "X": 0.5}, "interpolation": 0}]}, "blue": {"Points": [{"co": {"Y": 255.0, "X": 1.0}, "handle_left": {"Y": 1.0, "X": 0.5}, "handle_type": 0, "handle_right": {"Y": 0.0, "X": 0.5}, "interpolation": 0}]}, "green": {"Points": [{"co": {"Y": 123.0, "X": 1.0}, "handle_left": {"Y": 1.0, "X": 0.5}, "handle_type": 0, "handle_right": {"Y": 0.0, "X": 0.5}, "interpolation": 0}]}, "alpha": {"Points": [{"co": {"Y": 255.0, "X": 1.0}, "handle_left": {"Y": 1.0, "X": 0.5}, "handle_type": 0, "handle_right": {"Y": 0.0, "X": 0.5}, "interpolation": 0}]}}, "channel_filter": {"Points": [{"co": {"Y": -1.0, "X": 1.0}, "interpolation": 2}]}, "position": 6.27, "duration": 86400.0}, "key": ["clips", {"id": "173ASVPEMX"}], "value": {"shear_x": {"Points": [{"co": {"Y": 0.0, "X": 1.0}, "interpolation": 2}]}, "perspective_c3_x": {"Points": [{"co": {"Y": -1.0, "X": 1.0}, "interpolation": 2}]}, "has_video": {"Points": [{"co": {"Y": -1.0, "X": 1.0}, "interpolation": 2}]}, "start": 0, "crop_x": {"Points": [{"co": {"Y": 0.0, "X": 1.0}, "interpolation": 2}]}, "anchor": 0, "has_audio": {"Points": [{"co": {"Y": -1.0, "X": 1.0}, "interpolation": 2}]}, "volume": {"Points": [{"co": {"Y": 1.0, "X": 1.0}, "interpolation": 2}]}, "gravity": 4, "crop_width": {"Points": [{"co": {"Y": -1.0, "X": 1.0}, "interpolation": 2}]}, "scale_x": {"Points": [{"co": {"Y": 1.0, "X": 1.0}, "interpolation": 2}]}, "shear_y": {"Points": [{"co": {"Y": 0.0, "X": 1.0}, "interpolation": 2}]}, "perspective_c1_y": {"Points": [{"co": {"Y": -1.0, "X": 1.0}, "interpolation": 2}]}, "location_y": {"Points": [{"co": {"Y": 0.0, "X": 1.0}, "interpolation": 2}, {"co": {"Y": 0.0, "X": 1.0}, "handle_left": {"Y": 1.0, "X": 0.5}, "handle_type": 0, "handle_right": {"Y": 0.0, "X": 0.5}, "interpolation": 0}, {"co": {"Y": 0.0, "X": 25.0}, "handle_left": {"Y": 1.0, "X": 0.5}, "handle_type": 0, "handle_right": {"Y": 0.0, "X": 0.5}, "interpolation": 0}]}, "effects": [], "crop_y": {"Points": [{"co": {"Y": 0.0, "X": 1.0}, "interpolation": 2}]}, "display": 0, "layer": 3, "channel_filter": {"Points": [{"co": {"Y": -1.0, "X": 1.0}, "interpolation": 2}]}, "end": 2.0216666666666665, "perspective_c2_y": {"Points": [{"co": {"Y": -1.0, "X": 1.0}, "interpolation": 2}]}, "perspective_c2_x": {"Points": [{"co": {"Y": -1.0, "X": 1.0}, "interpolation": 2}]}, "alpha": {"Points": [{"co": {"Y": 1.0, "X": 1.0}, "interpolation": 2}]}, "file_id": "6B6X3SW6U5", "rotation": {"Points": [{"co": {"Y": 0.0, "X": 1.0}, "interpolation": 2}]}, "crop_height": {"Points": [{"co": {"Y": -1.0, "X": 1.0}, "interpolation": 2}]}, "scale": 1, "waveform": false, "perspective_c4_x": {"Points": [{"co": {"Y": -1.0, "X": 1.0}, "interpolation": 2}]}, "time": {"Points": [{"co": {"Y": 1.0, "X": 1.0}, "interpolation": 2}]}, "location_x": {"Points": [{"co": {"Y": 0.0, "X": 1.0}, "interpolation": 2}, {"co": {"Y": 1.0, "X": 1.0}, "handle_left": {"Y": 1.0, "X": 0.5}, "handle_type": 0, "handle_right": {"Y": 0.0, "X": 0.5}, "interpolation": 0}, {"co": {"Y": 0.0, "X": 25.0}, "handle_left": {"Y": 1.0, "X": 0.5}, "handle_type": 0, "handle_right": {"Y": 0.0, "X": 0.5}, "interpolation": 0}]}, "title": "Title-04.svg", "id": "173ASVPEMX", "perspective_c3_y": {"Points": [{"co": {"Y": -1.0, "X": 1.0}, "interpolation": 2}]}, "image": "/home/milind/.openshot_qt/thumbnail/6B6X3SW6U5.png", "scale_y": {"Points": [{"co": {"Y": 1.0, "X": 1.0}, "interpolation": 2}]}, "perspective_c1_x": {"Points": [{"co": {"Y": -1.0, "X": 1.0}, "interpolation": 2}]}, "perspective_c4_y": {"Points": [{"co": {"Y": -1.0, "X": 1.0}, "interpolation": 2}]}, "channel_mapping": {"Points": [{"co": {"Y": -1.0, "X": 1.0}, "interpolation": 2}]}, "wave_color": {"red": {"Points": [{"co": {"Y": 0.0, "X": 1.0}, "handle_left": {"Y": 1.0, "X": 0.5}, "handle_type": 0, "handle_right": {"Y": 0.0, "X": 0.5}, "interpolation": 0}]}, "blue": {"Points": [{"co": {"Y": 255.0, "X": 1.0}, "handle_left": {"Y": 1.0, "X": 0.5}, "handle_type": 0, "handle_right": {"Y": 0.0, "X": 0.5}, "interpolation": 0}]}, "green": {"Points": [{"co": {"Y": 123.0, "X": 1.0}, "handle_left": {"Y": 1.0, "X": 0.5}, "handle_type": 0, "handle_right": {"Y": 0.0, "X": 0.5}, "interpolation": 0}]}, "alpha": {"Points": [{"co": {"Y": 255.0, "X": 1.0}, "handle_left": {"Y": 1.0, "X": 0.5}, "handle_type": 0, "handle_right": {"Y": 0.0, "X": 0.5}, "interpolation": 0}]}}, "position": 6.27, "duration": 86400.0}, "partial": false}, {"type": "update", "old_values": {"shear_x": {"Points": [{"co": {"Y": 0.0, "X": 1.0}, "interpolation": 2}]}, "perspective_c3_x": {"Points": [{"co": {"Y": -1.0, "X": 1.0}, "interpolation": 2}]}, "has_video": {"Points": [{"co": {"Y": -1.0, "X": 1.0}, "interpolation": 2}]}, "start": 0, "crop_x": {"Points": [{"co": {"Y": 0.0, "X": 1.0}, "interpolation": 2}]}, "anchor": 0, "has_audio": {"Points": [{"co": {"Y": -1.0, "X": 1.0}, "interpolation": 2}]}, "display": 0, "gravity": 4, "crop_width": {"Points": [{"co": {"Y": -1.0, "X": 1.0}, "interpolation": 2}]}, "crop_y": {"Points": [{"co": {"Y": 0.0, "X": 1.0}, "interpolation": 2}]}, "shear_y": {"Points": [{"co": {"Y": 0.0, "X": 1.0}, "interpolation": 2}]}, "perspective_c1_y": {"Points": [{"co": {"Y": -1.0, "X": 1.0}, "interpolation": 2}]}, "location_y": {"Points": [{"co": {"Y": 0.0, "X": 1.0}, "interpolation": 2}]}, "effects": [], "scale_x": {"Points": [{"co": {"Y": 1.0, "X": 1.0}, "interpolation": 2}]}, "volume": {"Points": [{"co": {"Y": 1.0, "X": 1.0}, "interpolation": 2}]}, "layer": 4, "reader": {"has_video": true, "interlaced_frame": false, "height": 3827, "acodec": "", "audio_bit_rate": 0, "duration": 86400.0, "pixel_ratio": {"den": 1, "num": 1}, "type": "QtImageReader", "file_size": "104140324", "audio_stream_index": -1, "has_single_image": true, "video_stream_index": -1, "video_bit_rate": 0, "channels": 0, "vcodec": "", "sample_rate": 0, "channel_layout": 4, "pixel_format": -1, "fps": {"den": 1, "num": 30}, "width": 6803, "audio_timebase": {"den": 1, "num": 1}, "display_ratio": {"den": 3827, "num": 6803}, "top_field_first": true, "video_timebase": {"den": 30, "num": 1}, "has_audio": false, "path": "/home/milind/Data/Projects/ProgressCard/Title-05-All Four Titles.svg", "video_length": "2592000"}, "end": 10, "perspective_c2_y": {"Points": [{"co": {"Y": -1.0, "X": 1.0}, "interpolation": 2}]}, "perspective_c2_x": {"Points": [{"co": {"Y": -1.0, "X": 1.0}, "interpolation": 2}]}, "alpha": {"Points": [{"co": {"Y": 1.0, "X": 1.0}, "interpolation": 2}]}, "file_id": "AR5E0JZFG5", "rotation": {"Points": [{"co": {"Y": 0.0, "X": 1.0}, "interpolation": 2}]}, "crop_height": {"Points": [{"co": {"Y": -1.0, "X": 1.0}, "interpolation": 2}]}, "scale": 1, "waveform": false, "perspective_c4_x": {"Points": [{"co": {"Y": -1.0, "X": 1.0}, "interpolation": 2}]}, "time": {"Points": [{"co": {"Y": 1.0, "X": 1.0}, "interpolation": 2}]}, "location_x": {"Points": [{"co": {"Y": 0.0, "X": 1.0}, "interpolation": 2}]}, "title": "Title-05-All Four Titles.svg", "id": "UTVCSP6ZNL", "perspective_c3_y": {"Points": [{"co": {"Y": -1.0, "X": 1.0}, "interpolation": 2}]}, "image": "/home/milind/.openshot_qt/thumbnail/AR5E0JZFG5.png", "scale_y": {"Points": [{"co": {"Y": 1.0, "X": 1.0}, "interpolation": 2}]}, "perspective_c1_x": {"Points": [{"co": {"Y": -1.0, "X": 1.0}, "interpolation": 2}]}, "perspective_c4_y": {"Points": [{"co": {"Y": -1.0, "X": 1.0}, "interpolation": 2}]}, "channel_mapping": {"Points": [{"co": {"Y": -1.0, "X": 1.0}, "interpolation": 2}]}, "wave_color": {"alpha": {"Points": [{"co": {"Y": 255.0, "X": 1.0}, "handle_left": {"Y": 1.0, "X": 0.5}, "handle_type": 0, "handle_right": {"Y": 0.0, "X": 0.5}, "interpolation": 0}]}, "blue": {"Points": [{"co": {"Y": 255.0, "X": 1.0}, "handle_left": {"Y": 1.0, "X": 0.5}, "handle_type": 0, "handle_right": {"Y": 0.0, "X": 0.5}, "interpolation": 0}]}, "green": {"Points": [{"co": {"Y": 123.0, "X": 1.0}, "handle_left": {"Y": 1.0, "X": 0.5}, "handle_type": 0, "handle_right": {"Y": 0.0, "X": 0.5}, "interpolation": 0}]}, "red": {"Points": [{"co": {"Y": 0.0, "X": 1.0}, "handle_left": {"Y": 1.0, "X": 0.5}, "handle_type": 0, "handle_right": {"Y": 0.0, "X": 0.5}, "interpolation": 0}]}}, "channel_filter": {"Points": [{"co": {"Y": -1.0, "X": 1.0}, "interpolation": 2}]}, "position": 7.529999999999999, "duration": 86400.0}, "key": ["clips", {"id": "UTVCSP6ZNL"}], "value": {"shear_x": {"Points": [{"co": {"Y": 0.0, "X": 1.0}, "interpolation": 2}]}, "perspective_c3_x": {"Points": [{"co": {"Y": -1.0, "X": 1.0}, "interpolation": 2}]}, "has_video": {"Points": [{"co": {"Y": -1.0, "X": 1.0}, "interpolation": 2}]}, "start": 0, "crop_x": {"Points": [{"co": {"Y": 0.0, "X": 1.0}, "interpolation": 2}]}, "anchor": 0, "has_audio": {"Points": [{"co": {"Y": -1.0, "X": 1.0}, "interpolation": 2}]}, "display": 0, "gravity": 4, "crop_width": {"Points": [{"co": {"Y": -1.0, "X": 1.0}, "interpolation": 2}]}, "crop_y": {"Points": [{"co": {"Y": 0.0, "X": 1.0}, "interpolation": 2}]}, "shear_y": {"Points": [{"co": {"Y": 0.0, "X": 1.0}, "interpolation": 2}]}, "perspective_c1_y": {"Points": [{"co": {"Y": -1.0, "X": 1.0}, "interpolation": 2}]}, "location_y": {"Points": [{"co": {"Y": 0.0, "X": 1.0}, "interpolation": 2}]}, "effects": [], "scale_x": {"Points": [{"co": {"Y": 1.0, "X": 1.0}, "interpolation": 2}]}, "volume": {"Points": [{"co": {"Y": 1.0, "X": 1.0}, "interpolation": 2}]}, "layer": 4, "channel_filter": {"Points": [{"co": {"Y": -1.0, "X": 1.0}, "interpolation": 2}]}, "end": 7.220000000000001, "perspective_c2_y": {"Points": [{"co": {"Y": -1.0, "X": 1.0}, "interpolation": 2}]}, "perspective_c2_x": {"Points": [{"co": {"Y": -1.0, "X": 1.0}, "interpolation": 2}]}, "alpha": {"Points": [{"co": {"Y": 1.0, "X": 1.0}, "interpolation": 2}]}, "file_id": "AR5E0JZFG5", "rotation": {"Points": [{"co": {"Y": 0.0, "X": 1.0}, "interpolation": 2}]}, "crop_height": {"Points": [{"co": {"Y": -1.0, "X": 1.0}, "interpolation": 2}]}, "scale": 1, "waveform": false, "perspective_c4_x": {"Points": [{"co": {"Y": -1.0, "X": 1.0}, "interpolation": 2}]}, "time": {"Points": [{"co": {"Y": 1.0, "X": 1.0}, "interpolation": 2}]}, "location_x": {"Points": [{"co": {"Y": 0.0, "X": 1.0}, "interpolation": 2}]}, "title": "Title-05-All Four Titles.svg", "id": "UTVCSP6ZNL", "perspective_c3_y": {"Points": [{"co": {"Y": -1.0, "X": 1.0}, "interpolation": 2}]}, "image": "/home/milind/.openshot_qt/thumbnail/AR5E0JZFG5.png", "scale_y": {"Points": [{"co": {"Y": 1.0, "X": 1.0}, "interpolation": 2}]}, "perspective_c1_x": {"Points": [{"co": {"Y": -1.0, "X": 1.0}, "interpolation": 2}]}, "perspective_c4_y": {"Points": [{"co": {"Y": -1.0, "X": 1.0}, "interpolation": 2}]}, "channel_mapping": {"Points": [{"co": {"Y": -1.0, "X": 1.0}, "interpolation": 2}]}, "wave_color": {"alpha": {"Points": [{"co": {"Y": 255.0, "X": 1.0}, "handle_left": {"Y": 1.0, "X": 0.5}, "handle_type": 0, "handle_right": {"Y": 0.0, "X": 0.5}, "interpolation": 0}]}, "blue": {"Points": [{"co": {"Y": 255.0, "X": 1.0}, "handle_left": {"Y": 1.0, "X": 0.5}, "handle_type": 0, "handle_right": {"Y": 0.0, "X": 0.5}, "interpolation": 0}]}, "green": {"Points": [{"co": {"Y": 123.0, "X": 1.0}, "handle_left": {"Y": 1.0, "X": 0.5}, "handle_type": 0, "handle_right": {"Y": 0.0, "X": 0.5}, "interpolation": 0}]}, "red": {"Points": [{"co": {"Y": 0.0, "X": 1.0}, "handle_left": {"Y": 1.0, "X": 0.5}, "handle_type": 0, "handle_right": {"Y": 0.0, "X": 0.5}, "interpolation": 0}]}}, "position": 7.529999999999999, "duration": 86400.0}, "partial": false}, {"type": "update", "old_values": {"shear_x": {"Points": [{"co": {"Y": 0.0, "X": 1.0}, "interpolation": 2}]}, "perspective_c3_x": {"Points": [{"co": {"Y": -1.0, "X": 1.0}, "interpolation": 2}]}, "has_video": {"Points": [{"co": {"Y": -1.0, "X": 1.0}, "interpolation": 2}]}, "start": 0, "crop_x": {"Points": [{"co": {"Y": 0.0, "X": 1.0}, "interpolation": 2}]}, "anchor": 0, "has_audio": {"Points": [{"co": {"Y": -1.0, "X": 1.0}, "interpolation": 2}]}, "display": 0, "gravity": 4, "crop_width": {"Points": [{"co": {"Y": -1.0, "X": 1.0}, "interpolation": 2}]}, "crop_y": {"Points": [{"co": {"Y": 0.0, "X": 1.0}, "interpolation": 2}]}, "shear_y": {"Points": [{"co": {"Y": 0.0, "X": 1.0}, "interpolation": 2}]}, "perspective_c1_y": {"Points": [{"co": {"Y": -1.0, "X": 1.0}, "interpolation": 2}]}, "location_y": {"Points": [{"co": {"Y": 0.0, "X": 1.0}, "interpolation": 2}]}, "effects": [], "scale_x": {"Points": [{"co": {"Y": 1.0, "X": 1.0}, "interpolation": 2}]}, "volume": {"Points": [{"co": {"Y": 1.0, "X": 1.0}, "interpolation": 2}]}, "layer": 4, "reader": {"has_video": true, "interlaced_frame": false, "height": 3827, "acodec": "", "audio_bit_rate": 0, "duration": 86400.0, "pixel_ratio": {"den": 1, "num": 1}, "type": "QtImageReader", "file_size": "104140324", "audio_stream_index": -1, "has_single_image": true, "video_stream_index": -1, "video_bit_rate": 0, "channels": 0, "vcodec": "", "sample_rate": 0, "channel_layout": 4, "pixel_format": -1, "fps": {"den": 1, "num": 30}, "width": 6803, "audio_timebase": {"den": 1, "num": 1}, "display_ratio": {"den": 3827, "num": 6803}, "top_field_first": true, "video_timebase": {"den": 30, "num": 1}, "has_audio": false, "path": "/home/milind/Data/Projects/ProgressCard/Title-05-All Four Titles.svg", "video_length": "2592000"}, "end": 7.220000000000001, "perspective_c2_y": {"Points": [{"co": {"Y": -1.0, "X": 1.0}, "interpolation": 2}]}, "perspective_c2_x": {"Points": [{"co": {"Y": -1.0, "X": 1.0}, "interpolation": 2}]}, "alpha": {"Points": [{"co": {"Y": 1.0, "X": 1.0}, "interpolation": 2}]}, "file_id": "AR5E0JZFG5", "rotation": {"Points": [{"co": {"Y": 0.0, "X": 1.0}, "interpolation": 2}]}, "crop_height": {"Points": [{"co": {"Y": -1.0, "X": 1.0}, "interpolation": 2}]}, "scale": 1, "waveform": false, "perspective_c4_x": {"Points": [{"co": {"Y": -1.0, "X": 1.0}, "interpolation": 2}]}, "time": {"Points": [{"co": {"Y": 1.0, "X": 1.0}, "interpolation": 2}]}, "location_x": {"Points": [{"co": {"Y": 0.0, "X": 1.0}, "interpolation": 2}]}, "title": "Title-05-All Four Titles.svg", "id": "UTVCSP6ZNL", "perspective_c3_y": {"Points": [{"co": {"Y": -1.0, "X": 1.0}, "interpolation": 2}]}, "image": "/home/milind/.openshot_qt/thumbnail/AR5E0JZFG5.png", "scale_y": {"Points": [{"co": {"Y": 1.0, "X": 1.0}, "interpolation": 2}]}, "perspective_c1_x": {"Points": [{"co": {"Y": -1.0, "X": 1.0}, "interpolation": 2}]}, "perspective_c4_y": {"Points": [{"co": {"Y": -1.0, "X": 1.0}, "interpolation": 2}]}, "channel_mapping": {"Points": [{"co": {"Y": -1.0, "X": 1.0}, "interpolation": 2}]}, "wave_color": {"red": {"Points": [{"co": {"Y": 0.0, "X": 1.0}, "handle_left": {"Y": 1.0, "X": 0.5}, "handle_right": {"Y": 0.0, "X": 0.5}, "interpolation": 0, "handle_type": 0}]}, "blue": {"Points": [{"co": {"Y": 255.0, "X": 1.0}, "handle_left": {"Y": 1.0, "X": 0.5}, "handle_right": {"Y": 0.0, "X": 0.5}, "interpolation": 0, "handle_type": 0}]}, "green": {"Points": [{"co": {"Y": 123.0, "X": 1.0}, "handle_left": {"Y": 1.0, "X": 0.5}, "handle_right": {"Y": 0.0, "X": 0.5}, "interpolation": 0, "handle_type": 0}]}, "alpha": {"Points": [{"co": {"Y": 255.0, "X": 1.0}, "handle_left": {"Y": 1.0, "X": 0.5}, "handle_right": {"Y": 0.0, "X": 0.5}, "interpolation": 0, "handle_type": 0}]}}, "channel_filter": {"Points": [{"co": {"Y": -1.0, "X": 1.0}, "interpolation": 2}]}, "position": 7.529999999999999, "duration": 86400.0}, "key": ["clips", {"id": "UTVCSP6ZNL"}], "value": {"shear_x": {"Points": [{"co": {"Y": 0.0, "X": 1.0}, "interpolation": 2}]}, "perspective_c3_x": {"Points": [{"co": {"Y": -1.0, "X": 1.0}, "interpolation": 2}]}, "has_video": {"Points": [{"co": {"Y": -1.0, "X": 1.0}, "interpolation": 2}]}, "start": 0, "crop_x": {"Points": [{"co": {"Y": 0.0, "X": 1.0}, "interpolation": 2}]}, "anchor": 0, "has_audio": {"Points": [{"co": {"Y": -1.0, "X": 1.0}, "interpolation": 2}]}, "display": 0, "gravity": 4, "crop_width": {"Points": [{"co": {"Y": -1.0, "X": 1.0}, "interpolation": 2}]}, "crop_y": {"Points": [{"co": {"Y": 0.0, "X": 1.0}, "interpolation": 2}]}, "shear_y": {"Points": [{"co": {"Y": 0.0, "X": 1.0}, "interpolation": 2}]}, "perspective_c1_y": {"Points": [{"co": {"Y": -1.0, "X": 1.0}, "interpolation": 2}]}, "location_y": {"Points": [{"co": {"Y": 0.0, "X": 1.0}, "interpolation": 2}, {"co": {"Y": 0.0, "X": 150.0}, "handle_left": {"Y": 1.0, "X": 0.5}, "handle_type": 0, "handle_right": {"Y": 0.0, "X": 0.5}, "interpolation": 0}, {"co": {"Y": 0.0, "X": 174.0}, "handle_left": {"Y": 1.0, "X": 0.5}, "handle_type": 0, "handle_right": {"Y": 0.0, "X": 0.5}, "interpolation": 0}]}, "effects": [], "scale_x": {"Points": [{"co": {"Y": 1.0, "X": 1.0}, "interpolation": 2}]}, "volume": {"Points": [{"co": {"Y": 1.0, "X": 1.0}, "interpolation": 2}]}, "layer": 4, "channel_filter": {"Points": [{"co": {"Y": -1.0, "X": 1.0}, "interpolation": 2}]}, "end": 7.220000000000001, "perspective_c2_y": {"Points": [{"co": {"Y": -1.0, "X": 1.0}, "interpolation": 2}]}, "perspective_c2_x": {"Points": [{"co": {"Y": -1.0, "X": 1.0}, "interpolation": 2}]}, "alpha": {"Points": [{"co": {"Y": 1.0, "X": 1.0}, "interpolation": 2}]}, "file_id": "AR5E0JZFG5", "rotation": {"Points": [{"co": {"Y": 0.0, "X": 1.0}, "interpolation": 2}]}, "crop_height": {"Points": [{"co": {"Y": -1.0, "X": 1.0}, "interpolation": 2}]}, "scale": 1, "waveform": false, "perspective_c4_x": {"Points": [{"co": {"Y": -1.0, "X": 1.0}, "interpolation": 2}]}, "time": {"Points": [{"co": {"Y": 1.0, "X": 1.0}, "interpolation": 2}]}, "location_x": {"Points": [{"co": {"Y": 0.0, "X": 1.0}, "interpolation": 2}, {"co": {"Y": 0.0, "X": 150.0}, "handle_left": {"Y": 1.0, "X": 0.5}, "handle_type": 0, "handle_right": {"Y": 0.0, "X": 0.5}, "interpolation": 0}, {"co": {"Y": -1.0, "X": 174.0}, "handle_left": {"Y": 1.0, "X": 0.5}, "handle_type": 0, "handle_right": {"Y": 0.0, "X": 0.5}, "interpolation": 0}]}, "title": "Title-05-All Four Titles.svg", "id": "UTVCSP6ZNL", "perspective_c3_y": {"Points": [{"co": {"Y": -1.0, "X": 1.0}, "interpolation": 2}]}, "image": "/home/milind/.openshot_qt/thumbnail/AR5E0JZFG5.png", "scale_y": {"Points": [{"co": {"Y": 1.0, "X": 1.0}, "interpolation": 2}]}, "perspective_c1_x": {"Points": [{"co": {"Y": -1.0, "X": 1.0}, "interpolation": 2}]}, "perspective_c4_y": {"Points": [{"co": {"Y": -1.0, "X": 1.0}, "interpolation": 2}]}, "channel_mapping": {"Points": [{"co": {"Y": -1.0, "X": 1.0}, "interpolation": 2}]}, "wave_color": {"red": {"Points": [{"co": {"Y": 0.0, "X": 1.0}, "handle_left": {"Y": 1.0, "X": 0.5}, "handle_right": {"Y": 0.0, "X": 0.5}, "interpolation": 0, "handle_type": 0}]}, "blue": {"Points": [{"co": {"Y": 255.0, "X": 1.0}, "handle_left": {"Y": 1.0, "X": 0.5}, "handle_right": {"Y": 0.0, "X": 0.5}, "interpolation": 0, "handle_type": 0}]}, "green": {"Points": [{"co": {"Y": 123.0, "X": 1.0}, "handle_left": {"Y": 1.0, "X": 0.5}, "handle_right": {"Y": 0.0, "X": 0.5}, "interpolation": 0, "handle_type": 0}]}, "alpha": {"Points": [{"co": {"Y": 255.0, "X": 1.0}, "handle_left": {"Y": 1.0, "X": 0.5}, "handle_right": {"Y": 0.0, "X": 0.5}, "interpolation": 0, "handle_type": 0}]}}, "position": 7.529999999999999, "duration": 86400.0}, "partial": false}, {"type": "insert", "old_values": [{"shear_x": {"Points": [{"co": {"Y": 0.0, "X": 1.0}, "interpolation": 2}]}, "has_video": {"Points": [{"co": {"Y": -1.0, "X": 1.0}, "interpolation": 2}]}, "start": 0.0, "crop_x": {"Points": [{"co": {"Y": 0.0, "X": 1.0}, "interpolation": 2}]}, "anchor": 0, "has_audio": {"Points": [{"co": {"Y": -1.0, "X": 1.0}, "interpolation": 2}]}, "display": 0, "crop_width": {"Points": [{"co": {"Y": -1.0, "X": 1.0}, "interpolation": 2}]}, "scale_x": {"Points": [{"co": {"Y": 1.0, "X": 1.0}, "interpolation": 2}]}, "shear_y": {"Points": [{"co": {"Y": 0.0, "X": 1.0}, "interpolation": 2}]}, "perspective_c1_y": {"Points": [{"co": {"Y": -1.0, "X": 1.0}, "interpolation": 2}]}, "gravity": 4, "effects": [], "crop_y": {"Points": [{"co": {"Y": 0.0, "X": 1.0}, "interpolation": 2}]}, "volume": {"Points": [{"co": {"Y": 1.0, "X": 1.0}, "interpolation": 2}]}, "layer": 3, "reader": {"acodec": "", "has_video": true, "interlaced_frame": false, "height": 3827, "has_audio": false, "audio_bit_rate": 0, "duration": 86400.0, "pixel_ratio": {"den": 1, "num": 1}, "type": "QtImageReader", "file_size": "104140324", "audio_stream_index": -1, "has_single_image": true, "video_stream_index": -1, "pixel_format": -1, "channels": 0, "vcodec": "", "sample_rate": 0, "channel_layout": 4, "video_bit_rate": 0, "fps": {"den": 1, "num": 30}, "width": 6803, "audio_timebase": {"den": 1, "num": 1}, "display_ratio": {"den": 3827, "num": 6803}, "top_field_first": true, "video_timebase": {"den": 30, "num": 1}, "path": "/home/milind/Data/Projects/ProgressCard/Title-01.svg", "video_length": "2592000"}, "end": 10.0, "perspective_c2_y": {"Points": [{"co": {"Y": -1.0, "X": 1.0}, "interpolation": 2}]}, "perspective_c2_x": {"Points": [{"co": {"Y": -1.0, "X": 1.0}, "interpolation": 2}]}, "alpha": {"Points": [{"co": {"Y": 1.0, "X": 1.0}, "interpolation": 2}]}, "file_id": "RBDOM40FGQ", "rotation": {"Points": [{"co": {"Y": 0.0, "X": 1.0}, "interpolation": 2}]}, "crop_height": {"Points": [{"co": {"Y": -1.0, "X": 1.0}, "interpolation": 2}]}, "scale": 1, "waveform": false, "perspective_c4_x": {"Points": [{"co": {"Y": -1.0, "X": 1.0}, "interpolation": 2}]}, "time": {"Points": [{"co": {"Y": 1.0, "X": 1.0}, "interpolation": 2}]}, "location_x": {"Points": [{"co": {"Y": 0.0, "X": 1.0}, "interpolation": 2}]}, "title": "Title-01.svg", "perspective_c3_x": {"Points": [{"co": {"Y": -1.0, "X": 1.0}, "interpolation": 2}]}, "id": "B39BCXR0EX", "perspective_c3_y": {"Points": [{"co": {"Y": -1.0, "X": 1.0}, "interpolation": 2}]}, "image": "/home/milind/.openshot_qt/thumbnail/RBDOM40FGQ.png", "scale_y": {"Points": [{"co": {"Y": 1.0, "X": 1.0}, "interpolation": 2}]}, "location_y": {"Points": [{"co": {"Y": 0.0, "X": 1.0}, "interpolation": 2}]}, "perspective_c4_y": {"Points": [{"co": {"Y": -1.0, "X": 1.0}, "interpolation": 2}]}, "channel_mapping": {"Points": [{"co": {"Y": -1.0, "X": 1.0}, "interpolation": 2}]}, "wave_color": {"alpha": {"Points": [{"co": {"Y": 255.0, "X": 1.0}, "handle_left": {"Y": 1.0, "X": 0.5}, "handle_right": {"Y": 0.0, "X": 0.5}, "interpolation": 0, "handle_type": 0}]}, "blue": {"Points": [{"co": {"Y": 255.0, "X": 1.0}, "handle_left": {"Y": 1.0, "X": 0.5}, "handle_right": {"Y": 0.0, "X": 0.5}, "interpolation": 0, "handle_type": 0}]}, "green": {"Points": [{"co": {"Y": 123.0, "X": 1.0}, "handle_left": {"Y": 1.0, "X": 0.5}, "handle_right": {"Y": 0.0, "X": 0.5}, "interpolation": 0, "handle_type": 0}]}, "red": {"Points": [{"co": {"Y": 0.0, "X": 1.0}, "handle_left": {"Y": 1.0, "X": 0.5}, "handle_right": {"Y": 0.0, "X": 0.5}, "interpolation": 0, "handle_type": 0}]}}, "channel_filter": {"Points": [{"co": {"Y": -1.0, "X": 1.0}, "interpolation": 2}]}, "perspective_c1_x": {"Points": [{"co": {"Y": -1.0, "X": 1.0}, "interpolation": 2}]}, "position": 44.58, "duration": 86400.0}, {"shear_x": {"Points": [{"co": {"Y": 0.0, "X": 1.0}, "interpolation": 2}]}, "perspective_c3_x": {"Points": [{"co": {"Y": -1.0, "X": 1.0}, "interpolation": 2}]}, "has_video": {"Points": [{"co": {"Y": -1.0, "X": 1.0}, "interpolation": 2}]}, "start": 0, "crop_x": {"Points": [{"co": {"Y": 0.0, "X": 1.0}, "interpolation": 2}]}, "anchor": 0, "has_audio": {"Points": [{"co": {"Y": -1.0, "X": 1.0}, "interpolation": 2}]}, "volume": {"Points": [{"co": {"Y": 1.0, "X": 1.0}, "interpolation": 2}]}, "gravity": 4, "crop_width": {"Points": [{"co": {"Y": -1.0, "X": 1.0}, "interpolation": 2}]}, "crop_y": {"Points": [{"co": {"Y": 0.0, "X": 1.0}, "interpolation": 2}]}, "shear_y": {"Points": [{"co": {"Y": 0.0, "X": 1.0}, "interpolation": 2}]}, "perspective_c1_y": {"Points": [{"co": {"Y": -1.0, "X": 1.0}, "interpolation": 2}]}, "location_y": {"Points": [{"co": {"Y": 0.0, "X": 1.0}, "handle_left": {"Y": 1.0, "X": 0.5}, "handle_type": 0, "handle_right": {"Y": 0.0, "X": 0.5}, "interpolation": 0}, {"co": {"Y": 0.0, "X": 1.0}, "handle_left": {"Y": 1.0, "X": 0.5}, "handle_right": {"Y": 0.0, "X": 0.5}, "interpolation": 0, "handle_type": 0}, {"co": {"Y": 0.0, "X": 25.0}, "handle_left": {"Y": 1.0, "X": 0.5}, "handle_right": {"Y": 0.0, "X": 0.5}, "interpolation": 0, "handle_type": 0}]}, "effects": [], "scale_x": {"Points": [{"co": {"Y": 1.0, "X": 1.0}, "handle_left": {"Y": 1.0, "X": 0.5}, "handle_type": 0, "handle_right": {"Y": 0.0, "X": 0.5}, "interpolation": 0}]}, "display": 0, "layer": 0, "reader": {"acodec": "", "has_video": true, "interlaced_frame": false, "height": 3827, "has_audio": false, "audio_bit_rate": 0, "duration": 86400.0, "pixel_ratio": {"den": 1, "num": 1}, "type": "QtImageReader", "file_size": "104140324", "audio_stream_index": -1, "has_single_image": true, "video_stream_index": -1, "pixel_format": -1, "channels": 0, "vcodec": "", "sample_rate": 0, "channel_layout": 4, "video_bit_rate": 0, "fps": {"den": 1, "num": 30}, "width": 6803, "audio_timebase": {"den": 1, "num": 1}, "display_ratio": {"den": 3827, "num": 6803}, "top_field_first": true, "video_timebase": {"den": 30, "num": 1}, "path": "/home/milind/Data/Projects/ProgressCard/Title-01.svg", "video_length": "2592000"}, "end": 5.891666666666666, "perspective_c2_y": {"Points": [{"co": {"Y": -1.0, "X": 1.0}, "interpolation": 2}]}, "perspective_c2_x": {"Points": [{"co": {"Y": -1.0, "X": 1.0}, "interpolation": 2}]}, "alpha": {"Points": [{"co": {"Y": 1.0, "X": 1.0}, "interpolation": 2}]}, "file_id": "RBDOM40FGQ", "rotation": {"Points": [{"co": {"Y": 0.0, "X": 1.0}, "interpolation": 2}]}, "crop_height": {"Points": [{"co": {"Y": -1.0, "X": 1.0}, "interpolation": 2}]}, "scale": 1, "waveform": false, "perspective_c4_x": {"Points": [{"co": {"Y": -1.0, "X": 1.0}, "interpolation": 2}]}, "time": {"Points": [{"co": {"Y": 1.0, "X": 1.0}, "interpolation": 2}]}, "location_x": {"Points": [{"co": {"Y": 0.0, "X": 1.0}, "handle_left": {"Y": 1.0, "X": 0.5}, "handle_type": 0, "handle_right": {"Y": 0.0, "X": 0.5}, "interpolation": 0}, {"co": {"Y": 1.0, "X": 1.0}, "handle_left": {"Y": 1.0, "X": 0.5}, "handle_right": {"Y": 0.0, "X": 0.5}, "interpolation": 0, "handle_type": 0}, {"co": {"Y": 0.0, "X": 25.0}, "handle_left": {"Y": 1.0, "X": 0.5}, "handle_right": {"Y": 0.0, "X": 0.5}, "interpolation": 0, "handle_type": 0}]}, "title": "Title-01.svg", "id": "RH0T0F5TSV", "perspective_c3_y": {"Points": [{"co": {"Y": -1.0, "X": 1.0}, "interpolation": 2}]}, "image": "/home/milind/.openshot_qt/thumbnail/RBDOM40FGQ.png", "scale_y": {"Points": [{"co": {"Y": 1.0, "X": 1.0}, "handle_left": {"Y": 1.0, "X": 0.5}, "handle_type": 0, "handle_right": {"Y": 0.0, "X": 0.5}, "interpolation": 0}]}, "perspective_c1_x": {"Points": [{"co": {"Y": -1.0, "X": 1.0}, "interpolation": 2}]}, "perspective_c4_y": {"Points": [{"co": {"Y": -1.0, "X": 1.0}, "interpolation": 2}]}, "channel_mapping": {"Points": [{"co": {"Y": -1.0, "X": 1.0}, "interpolation": 2}]}, "wave_color": {"alpha": {"Points": [{"co": {"Y": 255.0, "X": 1.0}, "handle_left": {"Y": 1.0, "X": 0.5}, "handle_right": {"Y": 0.0, "X": 0.5}, "interpolation": 0, "handle_type": 0}]}, "blue": {"Points": [{"co": {"Y": 255.0, "X": 1.0}, "handle_left": {"Y": 1.0, "X": 0.5}, "handle_right": {"Y": 0.0, "X": 0.5}, "interpolation": 0, "handle_type": 0}]}, "green": {"Points": [{"co": {"Y": 123.0, "X": 1.0}, "handle_left": {"Y": 1.0, "X": 0.5}, "handle_right": {"Y": 0.0, "X": 0.5}, "interpolation": 0, "handle_type": 0}]}, "red": {"Points": [{"co": {"Y": 0.0, "X": 1.0}, "handle_left": {"Y": 1.0, "X": 0.5}, "handle_right": {"Y": 0.0, "X": 0.5}, "interpolation": 0, "handle_type": 0}]}}, "channel_filter": {"Points": [{"co": {"Y": -1.0, "X": 1.0}, "interpolation": 2}]}, "position": 2.4, "duration": 86400.0}, {"shear_x": {"Points": [{"co": {"Y": 0.0, "X": 1.0}, "interpolation": 2}]}, "perspective_c3_x": {"Points": [{"co": {"Y": -1.0, "X": 1.0}, "interpolation": 2}]}, "has_video": {"Points": [{"co": {"Y": -1.0, "X": 1.0}, "interpolation": 2}]}, "start": 0, "crop_x": {"Points": [{"co": {"Y": 0.0, "X": 1.0}, "interpolation": 2}]}, "anchor": 0, "has_audio": {"Points": [{"co": {"Y": -1.0, "X": 1.0}, "interpolation": 2}]}, "volume": {"Points": [{"co": {"Y": 1.0, "X": 1.0}, "interpolation": 2}]}, "gravity": 4, "crop_width": {"Points": [{"co": {"Y": -1.0, "X": 1.0}, "interpolation": 2}]}, "scale_x": {"Points": [{"co": {"Y": 1.0, "X": 1.0}, "interpolation": 2}]}, "shear_y": {"Points": [{"co": {"Y": 0.0, "X": 1.0}, "interpolation": 2}]}, "perspective_c1_y": {"Points": [{"co": {"Y": -1.0, "X": 1.0}, "interpolation": 2}]}, "location_y": {"Points": [{"co": {"Y": 0.0, "X": 1.0}, "interpolation": 2}, {"co": {"Y": 0.0, "X": 1.0}, "handle_left": {"Y": 1.0, "X": 0.5}, "handle_right": {"Y": 0.0, "X": 0.5}, "interpolation": 0, "handle_type": 0}, {"co": {"Y": 0.0, "X": 25.0}, "handle_left": {"Y": 1.0, "X": 0.5}, "handle_right": {"Y": 0.0, "X": 0.5}, "interpolation": 0, "handle_type": 0}]}, "effects": [], "crop_y": {"Points": [{"co": {"Y": 0.0, "X": 1.0}, "interpolation": 2}]}, "display": 0, "layer": 1, "reader": {"acodec": "", "has_video": true, "interlaced_frame": false, "height": 3827, "has_audio": false, "audio_bit_rate": 0, "duration": 86400.0, "pixel_ratio": {"den": 1, "num": 1}, "type": "QtImageReader", "file_size": "104140324", "audio_stream_index": -1, "has_single_image": true, "video_stream_index": -1, "pixel_format": -1, "channels": 0, "vcodec": "", "sample_rate": 0, "channel_layout": 4, "video_bit_rate": 0, "fps": {"den": 1, "num": 30}, "width": 6803, "audio_timebase": {"den": 1, "num": 1}, "display_ratio": {"den": 3827, "num": 6803}, "top_field_first": true, "video_timebase": {"den": 30, "num": 1}, "path": "/home/milind/Data/Projects/ProgressCard/Title-02.svg", "video_length": "2592000"}, "end": 4.661666666666666, "perspective_c2_y": {"Points": [{"co": {"Y": -1.0, "X": 1.0}, "interpolation": 2}]}, "perspective_c2_x": {"Points": [{"co": {"Y": -1.0, "X": 1.0}, "interpolation": 2}]}, "alpha": {"Points": [{"co": {"Y": 1.0, "X": 1.0}, "interpolation": 2}]}, "file_id": "5QW60D58CB", "rotation": {"Points": [{"co": {"Y": 0.0, "X": 1.0}, "interpolation": 2}]}, "crop_height": {"Points": [{"co": {"Y": -1.0, "X": 1.0}, "interpolation": 2}]}, "scale": 1, "waveform": false, "perspective_c4_x": {"Points": [{"co": {"Y": -1.0, "X": 1.0}, "interpolation": 2}]}, "time": {"Points": [{"co": {"Y": 1.0, "X": 1.0}, "interpolation": 2}]}, "location_x": {"Points": [{"co": {"Y": 0.0, "X": 1.0}, "interpolation": 2}, {"co": {"Y": 1.0, "X": 1.0}, "handle_left": {"Y": 1.0, "X": 0.5}, "handle_right": {"Y": 0.0, "X": 0.5}, "interpolation": 0, "handle_type": 0}, {"co": {"Y": 0.0, "X": 25.0}, "handle_left": {"Y": 1.0, "X": 0.5}, "handle_right": {"Y": 0.0, "X": 0.5}, "interpolation": 0, "handle_type": 0}]}, "title": "Title-02.svg", "id": "3OCKSFXMGL", "perspective_c3_y": {"Points": [{"co": {"Y": -1.0, "X": 1.0}, "interpolation": 2}]}, "image": "/home/milind/.openshot_qt/thumbnail/5QW60D58CB.png", "scale_y": {"Points": [{"co": {"Y": 1.0, "X": 1.0}, "interpolation": 2}]}, "perspective_c1_x": {"Points": [{"co": {"Y": -1.0, "X": 1.0}, "interpolation": 2}]}, "perspective_c4_y": {"Points": [{"co": {"Y": -1.0, "X": 1.0}, "interpolation": 2}]}, "channel_mapping": {"Points": [{"co": {"Y": -1.0, "X": 1.0}, "interpolation": 2}]}, "wave_color": {"alpha": {"Points": [{"co": {"Y": 255.0, "X": 1.0}, "handle_left": {"Y": 1.0, "X": 0.5}, "handle_right": {"Y": 0.0, "X": 0.5}, "interpolation": 0, "handle_type": 0}]}, "blue": {"Points": [{"co": {"Y": 255.0, "X": 1.0}, "handle_left": {"Y": 1.0, "X": 0.5}, "handle_right": {"Y": 0.0, "X": 0.5}, "interpolation": 0, "handle_type": 0}]}, "green": {"Points": [{"co": {"Y": 123.0, "X": 1.0}, "handle_left": {"Y": 1.0, "X": 0.5}, "handle_right": {"Y": 0.0, "X": 0.5}, "interpolation": 0, "handle_type": 0}]}, "red": {"Points": [{"co": {"Y": 0.0, "X": 1.0}, "handle_left": {"Y": 1.0, "X": 0.5}, "handle_right": {"Y": 0.0, "X": 0.5}, "interpolation": 0, "handle_type": 0}]}}, "channel_filter": {"Points": [{"co": {"Y": -1.0, "X": 1.0}, "interpolation": 2}]}, "position": 3.63, "duration": 86400.0}, {"shear_x": {"Points": [{"co": {"Y": 0.0, "X": 1.0}, "interpolation": 2}]}, "perspective_c3_x": {"Points": [{"co": {"Y": -1.0, "X": 1.0}, "interpolation": 2}]}, "has_video": {"Points": [{"co": {"Y": -1.0, "X": 1.0}, "interpolation": 2}]}, "start": 0, "crop_x": {"Points": [{"co": {"Y": 0.0, "X": 1.0}, "interpolation": 2}]}, "anchor": 0, "has_audio": {"Points": [{"co": {"Y": -1.0, "X": 1.0}, "interpolation": 2}]}, "volume": {"Points": [{"co": {"Y": 1.0, "X": 1.0}, "interpolation": 2}]}, "gravity": 4, "crop_width": {"Points": [{"co": {"Y": -1.0, "X": 1.0}, "interpolation": 2}]}, "scale_x": {"Points": [{"co": {"Y": 1.0, "X": 1.0}, "interpolation": 2}]}, "shear_y": {"Points": [{"co": {"Y": 0.0, "X": 1.0}, "interpolation": 2}]}, "perspective_c1_y": {"Points": [{"co": {"Y": -1.0, "X": 1.0}, "interpolation": 2}]}, "location_y": {"Points": [{"co": {"Y": 0.0, "X": 1.0}, "interpolation": 2}, {"co": {"Y": 0.0, "X": 1.0}, "handle_left": {"Y": 1.0, "X": 0.5}, "handle_right": {"Y": 0.0, "X": 0.5}, "interpolation": 0, "handle_type": 0}, {"co": {"Y": 0.0, "X": 25.0}, "handle_left": {"Y": 1.0, "X": 0.5}, "handle_right": {"Y": 0.0, "X": 0.5}, "interpolation": 0, "handle_type": 0}]}, "effects": [], "crop_y": {"Points": [{"co": {"Y": 0.0, "X": 1.0}, "interpolation": 2}]}, "display": 0, "layer": 2, "reader": {"acodec": "", "has_video": true, "interlaced_frame": false, "height": 3827, "has_audio": false, "audio_bit_rate": 0, "duration": 86400.0, "pixel_ratio": {"den": 1, "num": 1}, "type": "QtImageReader", "file_size": "104140324", "audio_stream_index": -1, "has_single_image": true, "video_stream_index": -1, "pixel_format": -1, "channels": 0, "vcodec": "", "sample_rate": 0, "channel_layout": 4, "video_bit_rate": 0, "fps": {"den": 1, "num": 30}, "width": 6803, "audio_timebase": {"den": 1, "num": 1}, "display_ratio": {"den": 3827, "num": 6803}, "top_field_first": true, "video_timebase": {"den": 30, "num": 1}, "path": "/home/milind/Data/Projects/ProgressCard/Title-03.svg", "video_length": "2592000"}, "end": 3.3116666666666665, "perspective_c2_y": {"Points": [{"co": {"Y": -1.0, "X": 1.0}, "interpolation": 2}]}, "perspective_c2_x": {"Points": [{"co": {"Y": -1.0, "X": 1.0}, "interpolation": 2}]}, "alpha": {"Points": [{"co": {"Y": 1.0, "X": 1.0}, "interpolation": 2}]}, "file_id": "1UGFFUXPZG", "rotation": {"Points": [{"co": {"Y": 0.0, "X": 1.0}, "interpolation": 2}]}, "crop_height": {"Points": [{"co": {"Y": -1.0, "X": 1.0}, "interpolation": 2}]}, "scale": 1, "waveform": false, "perspective_c4_x": {"Points": [{"co": {"Y": -1.0, "X": 1.0}, "interpolation": 2}]}, "time": {"Points": [{"co": {"Y": 1.0, "X": 1.0}, "interpolation": 2}]}, "location_x": {"Points": [{"co": {"Y": 0.0, "X": 1.0}, "interpolation": 2}, {"co": {"Y": 1.0, "X": 1.0}, "handle_left": {"Y": 1.0, "X": 0.5}, "handle_right": {"Y": 0.0, "X": 0.5}, "interpolation": 0, "handle_type": 0}, {"co": {"Y": 0.0, "X": 25.0}, "handle_left": {"Y": 1.0, "X": 0.5}, "handle_right": {"Y": 0.0, "X": 0.5}, "interpolation": 0, "handle_type": 0}]}, "title": "Title-03.svg", "id": "DRRWM84D3O", "perspective_c3_y": {"Points": [{"co": {"Y": -1.0, "X": 1.0}, "interpolation": 2}]}, "image": "/home/milind/.openshot_qt/thumbnail/1UGFFUXPZG.png", "scale_y": {"Points": [{"co": {"Y": 1.0, "X": 1.0}, "interpolation": 2}]}, "perspective_c1_x": {"Points": [{"co": {"Y": -1.0, "X": 1.0}, "interpolation": 2}]}, "perspective_c4_y": {"Points": [{"co": {"Y": -1.0, "X": 1.0}, "interpolation": 2}]}, "channel_mapping": {"Points": [{"co": {"Y": -1.0, "X": 1.0}, "interpolation": 2}]}, "wave_color": {"alpha": {"Points": [{"co": {"Y": 255.0, "X": 1.0}, "handle_left": {"Y": 1.0, "X": 0.5}, "handle_right": {"Y": 0.0, "X": 0.5}, "interpolation": 0, "handle_type": 0}]}, "blue": {"Points": [{"co": {"Y": 255.0, "X": 1.0}, "handle_left": {"Y": 1.0, "X": 0.5}, "handle_right": {"Y": 0.0, "X": 0.5}, "interpolation": 0, "handle_type": 0}]}, "green": {"Points": [{"co": {"Y": 123.0, "X": 1.0}, "handle_left": {"Y": 1.0, "X": 0.5}, "handle_right": {"Y": 0.0, "X": 0.5}, "interpolation": 0, "handle_type": 0}]}, "red": {"Points": [{"co": {"Y": 0.0, "X": 1.0}, "handle_left": {"Y": 1.0, "X": 0.5}, "handle_right": {"Y": 0.0, "X": 0.5}, "interpolation": 0, "handle_type": 0}]}}, "channel_filter": {"Points": [{"co": {"Y": -1.0, "X": 1.0}, "interpolation": 2}]}, "position": 4.9799999999999995, "duration": 86400.0}, {"shear_x": {"Points": [{"co": {"Y": 0.0, "X": 1.0}, "interpolation": 2}]}, "perspective_c3_x": {"Points": [{"co": {"Y": -1.0, "X": 1.0}, "interpolation": 2}]}, "has_video": {"Points": [{"co": {"Y": -1.0, "X": 1.0}, "interpolation": 2}]}, "start": 0, "crop_x": {"Points": [{"co": {"Y": 0.0, "X": 1.0}, "interpolation": 2}]}, "anchor": 0, "has_audio": {"Points": [{"co": {"Y": -1.0, "X": 1.0}, "interpolation": 2}]}, "volume": {"Points": [{"co": {"Y": 1.0, "X": 1.0}, "interpolation": 2}]}, "gravity": 4, "crop_width": {"Points": [{"co": {"Y": -1.0, "X": 1.0}, "interpolation": 2}]}, "scale_x": {"Points": [{"co": {"Y": 1.0, "X": 1.0}, "interpolation": 2}]}, "shear_y": {"Points": [{"co": {"Y": 0.0, "X": 1.0}, "interpolation": 2}]}, "perspective_c1_y": {"Points": [{"co": {"Y": -1.0, "X": 1.0}, "interpolation": 2}]}, "location_y": {"Points": [{"co": {"Y": 0.0, "X": 1.0}, "interpolation": 2}, {"co": {"Y": 0.0, "X": 1.0}, "handle_left": {"Y": 1.0, "X": 0.5}, "handle_right": {"Y": 0.0, "X": 0.5}, "interpolation": 0, "handle_type": 0}, {"co": {"Y": 0.0, "X": 25.0}, "handle_left": {"Y": 1.0, "X": 0.5}, "handle_right": {"Y": 0.0, "X": 0.5}, "interpolation": 0, "handle_type": 0}]}, "effects": [], "crop_y": {"Points": [{"co": {"Y": 0.0, "X": 1.0}, "interpolation": 2}]}, "display": 0, "layer": 3, "reader": {"acodec": "", "has_video": true, "interlaced_frame": false, "height": 3827, "has_audio": false, "audio_bit_rate": 0, "duration": 86400.0, "pixel_ratio": {"den": 1, "num": 1}, "type": "QtImageReader", "file_size": "104140324", "audio_stream_index": -1, "has_single_image": true, "video_stream_index": -1, "pixel_format": -1, "channels": 0, "vcodec": "", "sample_rate": 0, "channel_layout": 4, "video_bit_rate": 0, "fps": {"den": 1, "num": 30}, "width": 6803, "audio_timebase": {"den": 1, "num": 1}, "display_ratio": {"den": 3827, "num": 6803}, "top_field_first": true, "video_timebase": {"den": 30, "num": 1}, "path": "/home/milind/Data/Projects/ProgressCard/Title-04.svg", "video_length": "2592000"}, "end": 2.0216666666666665, "perspective_c2_y": {"Points": [{"co": {"Y": -1.0, "X": 1.0}, "interpolation": 2}]}, "perspective_c2_x": {"Points": [{"co": {"Y": -1.0, "X": 1.0}, "interpolation": 2}]}, "alpha": {"Points": [{"co": {"Y": 1.0, "X": 1.0}, "interpolation": 2}]}, "file_id": "6B6X3SW6U5", "rotation": {"Points": [{"co": {"Y": 0.0, "X": 1.0}, "interpolation": 2}]}, "crop_height": {"Points": [{"co": {"Y": -1.0, "X": 1.0}, "interpolation": 2}]}, "scale": 1, "waveform": false, "perspective_c4_x": {"Points": [{"co": {"Y": -1.0, "X": 1.0}, "interpolation": 2}]}, "time": {"Points": [{"co": {"Y": 1.0, "X": 1.0}, "interpolation": 2}]}, "location_x": {"Points": [{"co": {"Y": 0.0, "X": 1.0}, "interpolation": 2}, {"co": {"Y": 1.0, "X": 1.0}, "handle_left": {"Y": 1.0, "X": 0.5}, "handle_right": {"Y": 0.0, "X": 0.5}, "interpolation": 0, "handle_type": 0}, {"co": {"Y": 0.0, "X": 25.0}, "handle_left": {"Y": 1.0, "X": 0.5}, "handle_right": {"Y": 0.0, "X": 0.5}, "interpolation": 0, "handle_type": 0}]}, "title": "Title-04.svg", "id": "173ASVPEMX", "perspective_c3_y": {"Points": [{"co": {"Y": -1.0, "X": 1.0}, "interpolation": 2}]}, "image": "/home/milind/.openshot_qt/thumbnail/6B6X3SW6U5.png", "scale_y": {"Points": [{"co": {"Y": 1.0, "X": 1.0}, "interpolation": 2}]}, "perspective_c1_x": {"Points": [{"co": {"Y": -1.0, "X": 1.0}, "interpolation": 2}]}, "perspective_c4_y": {"Points": [{"co": {"Y": -1.0, "X": 1.0}, "interpolation": 2}]}, "channel_mapping": {"Points": [{"co": {"Y": -1.0, "X": 1.0}, "interpolation": 2}]}, "wave_color": {"alpha": {"Points": [{"co": {"Y": 255.0, "X": 1.0}, "handle_left": {"Y": 1.0, "X": 0.5}, "handle_right": {"Y": 0.0, "X": 0.5}, "interpolation": 0, "handle_type": 0}]}, "blue": {"Points": [{"co": {"Y": 255.0, "X": 1.0}, "handle_left": {"Y": 1.0, "X": 0.5}, "handle_right": {"Y": 0.0, "X": 0.5}, "interpolation": 0, "handle_type": 0}]}, "green": {"Points": [{"co": {"Y": 123.0, "X": 1.0}, "handle_left": {"Y": 1.0, "X": 0.5}, "handle_right": {"Y": 0.0, "X": 0.5}, "interpolation": 0, "handle_type": 0}]}, "red": {"Points": [{"co": {"Y": 0.0, "X": 1.0}, "handle_left": {"Y": 1.0, "X": 0.5}, "handle_right": {"Y": 0.0, "X": 0.5}, "interpolation": 0, "handle_type": 0}]}}, "channel_filter": {"Points": [{"co": {"Y": -1.0, "X": 1.0}, "interpolation": 2}]}, "position": 6.27, "duration": 86400.0}, {"shear_x": {"Points": [{"co": {"Y": 0.0, "X": 1.0}, "interpolation": 2}]}, "perspective_c3_x": {"Points": [{"co": {"Y": -1.0, "X": 1.0}, "interpolation": 2}]}, "has_video": {"Points": [{"co": {"Y": -1.0, "X": 1.0}, "interpolation": 2}]}, "start": 0, "crop_x": {"Points": [{"co": {"Y": 0.0, "X": 1.0}, "interpolation": 2}]}, "anchor": 0, "has_audio": {"Points": [{"co": {"Y": -1.0, "X": 1.0}, "interpolation": 2}]}, "display": 0, "gravity": 4, "crop_width": {"Points": [{"co": {"Y": -1.0, "X": 1.0}, "interpolation": 2}]}, "crop_y": {"Points": [{"co": {"Y": 0.0, "X": 1.0}, "interpolation": 2}]}, "shear_y": {"Points": [{"co": {"Y": 0.0, "X": 1.0}, "interpolation": 2}]}, "perspective_c1_y": {"Points": [{"co": {"Y": -1.0, "X": 1.0}, "interpolation": 2}]}, "location_y": {"Points": [{"co": {"Y": 0.0, "X": 1.0}, "interpolation": 2}, {"co": {"Y": 0.0, "X": 150.0}, "handle_left": {"Y": 1.0, "X": 0.5}, "handle_right": {"Y": 0.0, "X": 0.5}, "interpolation": 0, "handle_type": 0}, {"co": {"Y": 0.0, "X": 174.0}, "handle_left": {"Y": 1.0, "X": 0.5}, "handle_right": {"Y": 0.0, "X": 0.5}, "interpolation": 0, "handle_type": 0}]}, "effects": [], "scale_x": {"Points": [{"co": {"Y": 1.0, "X": 1.0}, "interpolation": 2}]}, "volume": {"Points": [{"co": {"Y": 1.0, "X": 1.0}, "interpolation": 2}]}, "layer": 4, "reader": {"has_video": true, "interlaced_frame": false, "height": 3827, "acodec": "", "audio_bit_rate": 0, "duration": 86400.0, "pixel_ratio": {"den": 1, "num": 1}, "type": "QtImageReader", "file_size": "104140324", "audio_stream_index": -1, "has_single_image": true, "video_stream_index": -1, "video_bit_rate": 0, "channels": 0, "vcodec": "", "sample_rate": 0, "channel_layout": 4, "pixel_format": -1, "fps": {"den": 1, "num": 30}, "width": 6803, "audio_timebase": {"den": 1, "num": 1}, "display_ratio": {"den": 3827, "num": 6803}, "top_field_first": true, "video_timebase": {"den": 30, "num": 1}, "has_audio": false, "path": "/home/milind/Data/Projects/ProgressCard/Title-05-All Four Titles.svg", "video_length": "2592000"}, "end": 7.220000000000001, "perspective_c2_y": {"Points": [{"co": {"Y": -1.0, "X": 1.0}, "interpolation": 2}]}, "perspective_c2_x": {"Points": [{"co": {"Y": -1.0, "X": 1.0}, "interpolation": 2}]}, "alpha": {"Points": [{"co": {"Y": 1.0, "X": 1.0}, "interpolation": 2}]}, "file_id": "AR5E0JZFG5", "rotation": {"Points": [{"co": {"Y": 0.0, "X": 1.0}, "interpolation": 2}]}, "crop_height": {"Points": [{"co": {"Y": -1.0, "X": 1.0}, "interpolation": 2}]}, "scale": 1, "waveform": false, "perspective_c4_x": {"Points": [{"co": {"Y": -1.0, "X": 1.0}, "interpolation": 2}]}, "time": {"Points": [{"co": {"Y": 1.0, "X": 1.0}, "interpolation": 2}]}, "location_x": {"Points": [{"co": {"Y": 0.0, "X": 1.0}, "interpolation": 2}, {"co": {"Y": 0.0, "X": 150.0}, "handle_left": {"Y": 1.0, "X": 0.5}, "handle_right": {"Y": 0.0, "X": 0.5}, "interpolation": 0, "handle_type": 0}, {"co": {"Y": -1.0, "X": 174.0}, "handle_left": {"Y": 1.0, "X": 0.5}, "handle_right": {"Y": 0.0, "X": 0.5}, "interpolation": 0, "handle_type": 0}]}, "title": "Title-05-All Four Titles.svg", "id": "UTVCSP6ZNL", "perspective_c3_y": {"Points": [{"co": {"Y": -1.0, "X": 1.0}, "interpolation": 2}]}, "image": "/home/milind/.openshot_qt/thumbnail/AR5E0JZFG5.png", "scale_y": {"Points": [{"co": {"Y": 1.0, "X": 1.0}, "interpolation": 2}]}, "perspective_c1_x": {"Points": [{"co": {"Y": -1.0, "X": 1.0}, "interpolation": 2}]}, "perspective_c4_y": {"Points": [{"co": {"Y": -1.0, "X": 1.0}, "interpolation": 2}]}, "channel_mapping": {"Points": [{"co": {"Y": -1.0, "X": 1.0}, "interpolation": 2}]}, "wave_color": {"alpha": {"Points": [{"co": {"Y": 255.0, "X": 1.0}, "handle_left": {"Y": 1.0, "X": 0.5}, "handle_type": 0, "handle_right": {"Y": 0.0, "X": 0.5}, "interpolation": 0}]}, "blue": {"Points": [{"co": {"Y": 255.0, "X": 1.0}, "handle_left": {"Y": 1.0, "X": 0.5}, "handle_type": 0, "handle_right": {"Y": 0.0, "X": 0.5}, "interpolation": 0}]}, "green": {"Points": [{"co": {"Y": 123.0, "X": 1.0}, "handle_left": {"Y": 1.0, "X": 0.5}, "handle_type": 0, "handle_right": {"Y": 0.0, "X": 0.5}, "interpolation": 0}]}, "red": {"Points": [{"co": {"Y": 0.0, "X": 1.0}, "handle_left": {"Y": 1.0, "X": 0.5}, "handle_type": 0, "handle_right": {"Y": 0.0, "X": 0.5}, "interpolation": 0}]}}, "channel_filter": {"Points": [{"co": {"Y": -1.0, "X": 1.0}, "interpolation": 2}]}, "position": 7.529999999999999, "duration": 86400.0}], "key": ["clips"], "value": {"shear_x": {"Points": [{"co": {"Y": 0.0, "X": 1.0}, "interpolation": 2}]}, "layer": 5, "has_video": {"Points": [{"co": {"Y": -1.0, "X": 1.0}, "interpolation": 2}]}, "start": 0, "crop_x": {"Points": [{"co": {"Y": 0.0, "X": 1.0}, "interpolation": 2}]}, "anchor": 0, "has_audio": {"Points": [{"co": {"Y": -1.0, "X": 1.0}, "interpolation": 2}]}, "display": 0, "crop_width": {"Points": [{"co": {"Y": -1.0, "X": 1.0}, "interpolation": 2}]}, "crop_y": {"Points": [{"co": {"Y": 0.0, "X": 1.0}, "interpolation": 2}]}, "wave_color": {"red": {"Points": [{"co": {"Y": 0.0, "X": 1.0}, "handle_left": {"Y": 1.0, "X": 0.5}, "handle_right": {"Y": 0.0, "X": 0.5}, "interpolation": 0, "handle_type": 0}]}, "blue": {"Points": [{"co": {"Y": 255.0, "X": 1.0}, "handle_left": {"Y": 1.0, "X": 0.5}, "handle_right": {"Y": 0.0, "X": 0.5}, "interpolation": 0, "handle_type": 0}]}, "green": {"Points": [{"co": {"Y": 123.0, "X": 1.0}, "handle_left": {"Y": 1.0, "X": 0.5}, "handle_right": {"Y": 0.0, "X": 0.5}, "interpolation": 0, "handle_type": 0}]}, "alpha": {"Points": [{"co": {"Y": 255.0, "X": 1.0}, "handle_left": {"Y": 1.0, "X": 0.5}, "handle_right": {"Y": 0.0, "X": 0.5}, "interpolation": 0, "handle_type": 0}]}}, "shear_y": {"Points": [{"co": {"Y": 0.0, "X": 1.0}, "interpolation": 2}]}, "perspective_c1_y": {"Points": [{"co": {"Y": -1.0, "X": 1.0}, "interpolation": 2}]}, "location_y": {"Points": [{"co": {"Y": 0.0, "X": 1.0}, "handle_left": {"Y": 1.0, "X": 0.5}, "handle_right": {"Y": 0.0, "X": 0.5}, "interpolation": 0, "handle_type": 0}, {"co": {"Y": 0.0, "X": 1.0}, "handle_left": {"Y": 1.0, "X": 0.5}, "handle_type": 0, "handle_right": {"Y": 0.0, "X": 0.5}, "interpolation": 0}, {"co": {"Y": 0.0, "X": 25.0}, "handle_left": {"Y": 1.0, "X": 0.5}, "handle_type": 0, "handle_right": {"Y": 0.0, "X": 0.5}, "interpolation": 0}, {"co": {"Y": 0.0, "X": 217.0}, "handle_left": {"Y": 1.0, "X": 0.5}, "handle_right": {"Y": 0.0, "X": 0.5}, "interpolation": 0, "handle_type": 0}, {"co": {"Y": 0.0, "X": 241.0}, "handle_left": {"Y": 1.0, "X": 0.5}, "handle_right": {"Y": 0.0, "X": 0.5}, "interpolation": 0, "handle_type": 0}, {"co": {"Y": 0.0, "X": 153.0}, "handle_left": {"Y": 1.0, "X": 0.5}, "handle_type": 0, "handle_right": {"Y": 0.0, "X": 0.5}, "interpolation": 0}, {"co": {"Y": 0.0, "X": 177.0}, "handle_left": {"Y": 1.0, "X": 0.5}, "handle_type": 0, "handle_right": {"Y": 0.0, "X": 0.5}, "interpolation": 0}]}, "effects": [], "scale_x": {"Points": [{"co": {"Y": 1.0, "X": 1.0}, "handle_left": {"Y": 1.0, "X": 0.5}, "handle_right": {"Y": 0.0, "X": 0.5}, "interpolation": 0, "handle_type": 0}]}, "volume": {"Points": [{"co": {"Y": 1.0, "X": 1.0}, "interpolation": 2}]}, "perspective_c3_x": {"Points": [{"co": {"Y": -1.0, "X": 1.0}, "interpolation": 2}]}, "reader": {"path": "/home/milind/Data/Projects/ProgressCard/intro.png", "has_video": true, "interlaced_frame": false, "height": 169, "acodec": "", "audio_bit_rate": 0, "pixel_ratio": {"den": 1, "num": 1}, "type": "QtImageReader", "file_size": "446836", "audio_stream_index": -1, "has_single_image": true, "video_stream_index": -1, "pixel_format": -1, "channels": 0, "vcodec": "", "sample_rate": 0, "channel_layout": 4, "video_bit_rate": 0, "fps": {"den": 1, "num": 30}, "width": 661, "audio_timebase": {"den": 1, "num": 1}, "display_ratio": {"den": 169, "num": 661}, "top_field_first": true, "video_timebase": {"den": 30, "num": 1}, "has_audio": false, "duration": 86400.0, "video_length": "2592000"}, "end": 7.348333333333333, "perspective_c2_y": {"Points": [{"co": {"Y": -1.0, "X": 1.0}, "interpolation": 2}]}, "perspective_c2_x": {"Points": [{"co": {"Y": -1.0, "X": 1.0}, "interpolation": 2}]}, "alpha": {"Points": [{"co": {"Y": 1.0, "X": 1.0}, "interpolation": 2}]}, "file_id": "EYET6E4WCX", "rotation": {"Points": [{"co": {"Y": 0.0, "X": 1.0}, "interpolation": 2}]}, "crop_height": {"Points": [{"co": {"Y": -1.0, "X": 1.0}, "interpolation": 2}]}, "scale": 1, "perspective_c4_x": {"Points": [{"co": {"Y": -1.0, "X": 1.0}, "interpolation": 2}]}, "waveform": false, "time": {"Points": [{"co": {"Y": 1.0, "X": 1.0}, "interpolation": 2}]}, "location_x": {"Points": [{"co": {"Y": 0.0, "X": 1.0}, "handle_left": {"Y": 1.0, "X": 0.5}, "handle_right": {"Y": 0.0, "X": 0.5}, "interpolation": 0, "handle_type": 0}, {"co": {"Y": 1.0, "X": 1.0}, "handle_left": {"Y": 1.0, "X": 0.5}, "handle_type": 0, "handle_right": {"Y": 0.0, "X": 0.5}, "interpolation": 0}, {"co": {"Y": 0.0, "X": 25.0}, "handle_left": {"Y": 1.0, "X": 0.5}, "handle_type": 0, "handle_right": {"Y": 0.0, "X": 0.5}, "interpolation": 0}, {"co": {"Y": 0.0, "X": 217.0}, "handle_left": {"Y": 1.0, "X": 0.5}, "handle_right": {"Y": 0.0, "X": 0.5}, "interpolation": 0, "handle_type": 0}, {"co": {"Y": -1.0, "X": 241.0}, "handle_left": {"Y": 1.0, "X": 0.5}, "handle_right": {"Y": 0.0, "X": 0.5}, "interpolation": 0, "handle_type": 0}, {"co": {"Y": 0.0, "X": 153.0}, "handle_left": {"Y": 1.0, "X": 0.5}, "handle_type": 0, "handle_right": {"Y": 0.0, "X": 0.5}, "interpolation": 0}, {"co": {"Y": -1.0, "X": 177.0}, "handle_left": {"Y": 1.0, "X": 0.5}, "handle_type": 0, "handle_right": {"Y": 0.0, "X": 0.5}, "interpolation": 0}]}, "title": "intro.png", "perspective_c3_y": {"Points": [{"co": {"Y": -1.0, "X": 1.0}, "interpolation": 2}]}, "id": "QRWUU8C5AG", "gravity": 4, "image": "/home/milind/.openshot_qt/thumbnail/EYET6E4WCX.png", "scale_y": {"Points": [{"co": {"Y": 1.0, "X": 1.0}, "handle_left": {"Y": 1.0, "X": 0.5}, "handle_right": {"Y": 0.0, "X": 0.5}, "interpolation": 0, "handle_type": 0}]}, "perspective_c1_x": {"Points": [{"co": {"Y": -1.0, "X": 1.0}, "interpolation": 2}]}, "perspective_c4_y": {"Points": [{"co": {"Y": -1.0, "X": 1.0}, "interpolation": 2}]}, "channel_mapping": {"Points": [{"co": {"Y": -1.0, "X": 1.0}, "interpolation": 2}]}, "channel_filter": {"Points": [{"co": {"Y": -1.0, "X": 1.0}, "interpolation": 2}]}, "position": 15.36, "duration": 86400.0}, "partial": false}, {"type": "update", "old_values": {"perspective_c3_x": {"Points": [{"co": {"Y": -1.0, "X": 1.0}, "interpolation": 2}]}, "has_video": {"Points": [{"co": {"Y": -1.0, "X": 1.0}, "interpolation": 2}]}, "start": 0.0, "crop_x": {"Points": [{"co": {"Y": 0.0, "X": 1.0}, "interpolation": 2}]}, "anchor": 0, "duration": 86400.0, "volume": {"Points": [{"co": {"Y": 1.0, "X": 1.0}, "interpolation": 2}]}, "crop_width": {"Points": [{"co": {"Y": -1.0, "X": 1.0}, "interpolation": 2}]}, "crop_y": {"Points": [{"co": {"Y": 0.0, "X": 1.0}, "interpolation": 2}]}, "rotation": {"Points": [{"co": {"Y": 0.0, "X": 1.0}, "interpolation": 2}]}, "perspective_c1_y": {"Points": [{"co": {"Y": -1.0, "X": 1.0}, "interpolation": 2}]}, "gravity": 4, "effects": [], "scale_x": {"Points": [{"co": {"Y": 1.0, "X": 1.0}, "interpolation": 2}]}, "display": 0, "shear_x": {"Points": [{"co": {"Y": 0.0, "X": 1.0}, "interpolation": 2}]}, "reader": {"has_video": true, "interlaced_frame": false, "height": 169, "acodec": "", "audio_bit_rate": 0, "duration": 86400.0, "pixel_ratio": {"den": 1, "num": 1}, "type": "QtImageReader", "file_size": "446836", "audio_stream_index": -1, "has_single_image": true, "video_stream_index": -1, "video_bit_rate": 0, "channels": 0, "vcodec": "", "sample_rate": 0, "channel_layout": 4, "pixel_format": -1, "fps": {"den": 1, "num": 30}, "width": 661, "audio_timebase": {"den": 1, "num": 1}, "display_ratio": {"den": 169, "num": 661}, "top_field_first": true, "video_timebase": {"den": 30, "num": 1}, "has_audio": false, "path": "/home/milind/Data/Projects/ProgressCard/intro.png", "video_length": "2592000"}, "end": 10.0, "perspective_c2_y": {"Points": [{"co": {"Y": -1.0, "X": 1.0}, "interpolation": 2}]}, "perspective_c2_x": {"Points": [{"co": {"Y": -1.0, "X": 1.0}, "interpolation": 2}]}, "layer": 5, "alpha": {"Points": [{"co": {"Y": 1.0, "X": 1.0}, "interpolation": 2}]}, "file_id": "EYET6E4WCX", "shear_y": {"Points": [{"co": {"Y": 0.0, "X": 1.0}, "interpolation": 2}]}, "crop_height": {"Points": [{"co": {"Y": -1.0, "X": 1.0}, "interpolation": 2}]}, "scale": 1, "perspective_c4_x": {"Points": [{"co": {"Y": -1.0, "X": 1.0}, "interpolation": 2}]}, "waveform": false, "time": {"Points": [{"co": {"Y": 1.0, "X": 1.0}, "interpolation": 2}]}, "location_x": {"Points": [{"co": {"Y": 0.0, "X": 1.0}, "interpolation": 2}]}, "title": "intro.png", "id": "QRWUU8C5AG", "perspective_c3_y": {"Points": [{"co": {"Y": -1.0, "X": 1.0}, "interpolation": 2}]}, "image": "/home/milind/.openshot_qt/thumbnail/EYET6E4WCX.png", "scale_y": {"Points": [{"co": {"Y": 1.0, "X": 1.0}, "interpolation": 2}]}, "location_y": {"Points": [{"co": {"Y": 0.0, "X": 1.0}, "interpolation": 2}]}, "perspective_c4_y": {"Points": [{"co": {"Y": -1.0, "X": 1.0}, "interpolation": 2}]}, "channel_mapping": {"Points": [{"co": {"Y": -1.0, "X": 1.0}, "interpolation": 2}]}, "wave_color": {"alpha": {"Points": [{"co": {"Y": 255.0, "X": 1.0}, "handle_left": {"Y": 1.0, "X": 0.5}, "handle_type": 0, "handle_right": {"Y": 0.0, "X": 0.5}, "interpolation": 0}]}, "blue": {"Points": [{"co": {"Y": 255.0, "X": 1.0}, "handle_left": {"Y": 1.0, "X": 0.5}, "handle_type": 0, "handle_right": {"Y": 0.0, "X": 0.5}, "interpolation": 0}]}, "green": {"Points": [{"co": {"Y": 123.0, "X": 1.0}, "handle_left": {"Y": 1.0, "X": 0.5}, "handle_type": 0, "handle_right": {"Y": 0.0, "X": 0.5}, "interpolation": 0}]}, "red": {"Points": [{"co": {"Y": 0.0, "X": 1.0}, "handle_left": {"Y": 1.0, "X": 0.5}, "handle_type": 0, "handle_right": {"Y": 0.0, "X": 0.5}, "interpolation": 0}]}}, "channel_filter": {"Points": [{"co": {"Y": -1.0, "X": 1.0}, "interpolation": 2}]}, "perspective_c1_x": {"Points": [{"co": {"Y": -1.0, "X": 1.0}, "interpolation": 2}]}, "position": 11.19, "has_audio": {"Points": [{"co": {"Y": -1.0, "X": 1.0}, "interpolation": 2}]}}, "key": ["clips", {"id": "QRWUU8C5AG"}], "value": {"id": "QRWUU8C5AG", "layer": 5, "start": 0, "image": "/home/milind/.openshot_qt/thumbnail/EYET6E4WCX.png", "end": 10, "position": 15.749999999999998}, "partial": false}, {"type": "update", "old_values": {"shear_x": {"Points": [{"co": {"Y": 0.0, "X": 1.0}, "interpolation": 2}]}, "perspective_c3_x": {"Points": [{"co": {"Y": -1.0, "X": 1.0}, "interpolation": 2}]}, "has_video": {"Points": [{"co": {"Y": -1.0, "X": 1.0}, "interpolation": 2}]}, "start": 0, "crop_x": {"Points": [{"co": {"Y": 0.0, "X": 1.0}, "interpolation": 2}]}, "anchor": 0, "has_audio": {"Points": [{"co": {"Y": -1.0, "X": 1.0}, "interpolation": 2}]}, "display": 0, "gravity": 4, "crop_width": {"Points": [{"co": {"Y": -1.0, "X": 1.0}, "interpolation": 2}]}, "crop_y": {"Points": [{"co": {"Y": 0.0, "X": 1.0}, "interpolation": 2}]}, "shear_y": {"Points": [{"co": {"Y": 0.0, "X": 1.0}, "interpolation": 2}]}, "perspective_c1_y": {"Points": [{"co": {"Y": -1.0, "X": 1.0}, "interpolation": 2}]}, "location_y": {"Points": [{"co": {"Y": 0.0, "X": 1.0}, "interpolation": 2}]}, "effects": [], "scale_x": {"Points": [{"co": {"Y": 1.0, "X": 1.0}, "interpolation": 2}]}, "volume": {"Points": [{"co": {"Y": 1.0, "X": 1.0}, "interpolation": 2}]}, "layer": 5, "reader": {"has_video": true, "interlaced_frame": false, "height": 169, "acodec": "", "audio_bit_rate": 0, "duration": 86400.0, "pixel_ratio": {"den": 1, "num": 1}, "type": "QtImageReader", "file_size": "446836", "audio_stream_index": -1, "has_single_image": true, "video_stream_index": -1, "video_bit_rate": 0, "channels": 0, "vcodec": "", "sample_rate": 0, "channel_layout": 4, "pixel_format": -1, "fps": {"den": 1, "num": 30}, "width": 661, "audio_timebase": {"den": 1, "num": 1}, "display_ratio": {"den": 169, "num": 661}, "top_field_first": true, "video_timebase": {"den": 30, "num": 1}, "has_audio": false, "path": "/home/milind/Data/Projects/ProgressCard/intro.png", "video_length": "2592000"}, "end": 10, "perspective_c2_y": {"Points": [{"co": {"Y": -1.0, "X": 1.0}, "interpolation": 2}]}, "perspective_c2_x": {"Points": [{"co": {"Y": -1.0, "X": 1.0}, "interpolation": 2}]}, "alpha": {"Points": [{"co": {"Y": 1.0, "X": 1.0}, "interpolation": 2}]}, "file_id": "EYET6E4WCX", "rotation": {"Points": [{"co": {"Y": 0.0, "X": 1.0}, "interpolation": 2}]}, "crop_height": {"Points": [{"co": {"Y": -1.0, "X": 1.0}, "interpolation": 2}]}, "scale": 1, "waveform": false, "perspective_c4_x": {"Points": [{"co": {"Y": -1.0, "X": 1.0}, "interpolation": 2}]}, "time": {"Points": [{"co": {"Y": 1.0, "X": 1.0}, "interpolation": 2}]}, "location_x": {"Points": [{"co": {"Y": 0.0, "X": 1.0}, "interpolation": 2}]}, "title": "intro.png", "id": "QRWUU8C5AG", "perspective_c3_y": {"Points": [{"co": {"Y": -1.0, "X": 1.0}, "interpolation": 2}]}, "image": "/home/milind/.openshot_qt/thumbnail/EYET6E4WCX.png", "scale_y": {"Points": [{"co": {"Y": 1.0, "X": 1.0}, "interpolation": 2}]}, "perspective_c1_x": {"Points": [{"co": {"Y": -1.0, "X": 1.0}, "interpolation": 2}]}, "perspective_c4_y": {"Points": [{"co": {"Y": -1.0, "X": 1.0}, "interpolation": 2}]}, "channel_mapping": {"Points": [{"co": {"Y": -1.0, "X": 1.0}, "interpolation": 2}]}, "wave_color": {"alpha": {"Points": [{"co": {"Y": 255.0, "X": 1.0}, "handle_left": {"Y": 1.0, "X": 0.5}, "handle_type": 0, "handle_right": {"Y": 0.0, "X": 0.5}, "interpolation": 0}]}, "blue": {"Points": [{"co": {"Y": 255.0, "X": 1.0}, "handle_left": {"Y": 1.0, "X": 0.5}, "handle_type": 0, "handle_right": {"Y": 0.0, "X": 0.5}, "interpolation": 0}]}, "green": {"Points": [{"co": {"Y": 123.0, "X": 1.0}, "handle_left": {"Y": 1.0, "X": 0.5}, "handle_type": 0, "handle_right": {"Y": 0.0, "X": 0.5}, "interpolation": 0}]}, "red": {"Points": [{"co": {"Y": 0.0, "X": 1.0}, "handle_left": {"Y": 1.0, "X": 0.5}, "handle_type": 0, "handle_right": {"Y": 0.0, "X": 0.5}, "interpolation": 0}]}}, "channel_filter": {"Points": [{"co": {"Y": -1.0, "X": 1.0}, "interpolation": 2}]}, "position": 15.749999999999998, "duration": 86400.0}, "key": ["clips", {"id": "QRWUU8C5AG"}], "value": {"shear_x": {"Points": [{"co": {"Y": 0.0, "X": 1.0}, "interpolation": 2}]}, "perspective_c3_x": {"Points": [{"co": {"Y": -1.0, "X": 1.0}, "interpolation": 2}]}, "has_video": {"Points": [{"co": {"Y": -1.0, "X": 1.0}, "interpolation": 2}]}, "start": 0, "crop_x": {"Points": [{"co": {"Y": 0.0, "X": 1.0}, "interpolation": 2}]}, "anchor": 0, "has_audio": {"Points": [{"co": {"Y": -1.0, "X": 1.0}, "interpolation": 2}]}, "display": 0, "gravity": 4, "crop_width": {"Points": [{"co": {"Y": -1.0, "X": 1.0}, "interpolation": 2}]}, "crop_y": {"Points": [{"co": {"Y": 0.0, "X": 1.0}, "interpolation": 2}]}, "shear_y": {"Points": [{"co": {"Y": 0.0, "X": 1.0}, "interpolation": 2}]}, "perspective_c1_y": {"Points": [{"co": {"Y": -1.0, "X": 1.0}, "interpolation": 2}]}, "location_y": {"Points": [{"co": {"Y": 0.0, "X": 1.0}, "handle_left": {"Y": 1.0, "X": 0.5}, "handle_type": 0, "handle_right": {"Y": 0.0, "X": 0.5}, "interpolation": 0}]}, "effects": [], "scale_x": {"Points": [{"co": {"Y": 1.0, "X": 1.0}, "handle_left": {"Y": 1.0, "X": 0.5}, "handle_type": 0, "handle_right": {"Y": 0.0, "X": 0.5}, "interpolation": 0}]}, "volume": {"Points": [{"co": {"Y": 1.0, "X": 1.0}, "interpolation": 2}]}, "layer": 5, "channel_filter": {"Points": [{"co": {"Y": -1.0, "X": 1.0}, "interpolation": 2}]}, "end": 10, "perspective_c2_y": {"Points": [{"co": {"Y": -1.0, "X": 1.0}, "interpolation": 2}]}, "perspective_c2_x": {"Points": [{"co": {"Y": -1.0, "X": 1.0}, "interpolation": 2}]}, "alpha": {"Points": [{"co": {"Y": 1.0, "X": 1.0}, "interpolation": 2}]}, "file_id": "EYET6E4WCX", "rotation": {"Points": [{"co": {"Y": 0.0, "X": 1.0}, "interpolation": 2}]}, "crop_height": {"Points": [{"co": {"Y": -1.0, "X": 1.0}, "interpolation": 2}]}, "scale": 1, "waveform": false, "perspective_c4_x": {"Points": [{"co": {"Y": -1.0, "X": 1.0}, "interpolation": 2}]}, "time": {"Points": [{"co": {"Y": 1.0, "X": 1.0}, "interpolation": 2}]}, "location_x": {"Points": [{"co": {"Y": 0.0, "X": 1.0}, "handle_left": {"Y": 1.0, "X": 0.5}, "handle_type": 0, "handle_right": {"Y": 0.0, "X": 0.5}, "interpolation": 0}]}, "title": "intro.png", "id": "QRWUU8C5AG", "perspective_c3_y": {"Points": [{"co": {"Y": -1.0, "X": 1.0}, "interpolation": 2}]}, "image": "/home/milind/.openshot_qt/thumbnail/EYET6E4WCX.png", "scale_y": {"Points": [{"co": {"Y": 1.0, "X": 1.0}, "handle_left": {"Y": 1.0, "X": 0.5}, "handle_type": 0, "handle_right": {"Y": 0.0, "X": 0.5}, "interpolation": 0}]}, "perspective_c1_x": {"Points": [{"co": {"Y": -1.0, "X": 1.0}, "interpolation": 2}]}, "perspective_c4_y": {"Points": [{"co": {"Y": -1.0, "X": 1.0}, "interpolation": 2}]}, "channel_mapping": {"Points": [{"co": {"Y": -1.0, "X": 1.0}, "interpolation": 2}]}, "wave_color": {"alpha": {"Points": [{"co": {"Y": 255.0, "X": 1.0}, "handle_left": {"Y": 1.0, "X": 0.5}, "handle_type": 0, "handle_right": {"Y": 0.0, "X": 0.5}, "interpolation": 0}]}, "blue": {"Points": [{"co": {"Y": 255.0, "X": 1.0}, "handle_left": {"Y": 1.0, "X": 0.5}, "handle_type": 0, "handle_right": {"Y": 0.0, "X": 0.5}, "interpolation": 0}]}, "green": {"Points": [{"co": {"Y": 123.0, "X": 1.0}, "handle_left": {"Y": 1.0, "X": 0.5}, "handle_type": 0, "handle_right": {"Y": 0.0, "X": 0.5}, "interpolation": 0}]}, "red": {"Points": [{"co": {"Y": 0.0, "X": 1.0}, "handle_left": {"Y": 1.0, "X": 0.5}, "handle_type": 0, "handle_right": {"Y": 0.0, "X": 0.5}, "interpolation": 0}]}}, "position": 15.749999999999998, "duration": 86400.0}, "partial": false}, {"type": "update", "old_values": {"shear_x": {"Points": [{"co": {"Y": 0.0, "X": 1.0}, "interpolation": 2}]}, "perspective_c3_x": {"Points": [{"co": {"Y": -1.0, "X": 1.0}, "interpolation": 2}]}, "has_video": {"Points": [{"co": {"Y": -1.0, "X": 1.0}, "interpolation": 2}]}, "start": 0, "crop_x": {"Points": [{"co": {"Y": 0.0, "X": 1.0}, "interpolation": 2}]}, "anchor": 0, "has_audio": {"Points": [{"co": {"Y": -1.0, "X": 1.0}, "interpolation": 2}]}, "display": 0, "gravity": 4, "crop_width": {"Points": [{"co": {"Y": -1.0, "X": 1.0}, "interpolation": 2}]}, "crop_y": {"Points": [{"co": {"Y": 0.0, "X": 1.0}, "interpolation": 2}]}, "shear_y": {"Points": [{"co": {"Y": 0.0, "X": 1.0}, "interpolation": 2}]}, "perspective_c1_y": {"Points": [{"co": {"Y": -1.0, "X": 1.0}, "interpolation": 2}]}, "location_y": {"Points": [{"co": {"Y": 0.0, "X": 1.0}, "handle_left": {"Y": 1.0, "X": 0.5}, "handle_right": {"Y": 0.0, "X": 0.5}, "interpolation": 0, "handle_type": 0}]}, "effects": [], "scale_x": {"Points": [{"co": {"Y": 1.0, "X": 1.0}, "handle_left": {"Y": 1.0, "X": 0.5}, "handle_right": {"Y": 0.0, "X": 0.5}, "interpolation": 0, "handle_type": 0}]}, "volume": {"Points": [{"co": {"Y": 1.0, "X": 1.0}, "interpolation": 2}]}, "layer": 5, "reader": {"has_video": true, "interlaced_frame": false, "height": 169, "acodec": "", "audio_bit_rate": 0, "duration": 86400.0, "pixel_ratio": {"den": 1, "num": 1}, "type": "QtImageReader", "file_size": "446836", "audio_stream_index": -1, "has_single_image": true, "video_stream_index": -1, "video_bit_rate": 0, "channels": 0, "vcodec": "", "sample_rate": 0, "channel_layout": 4, "pixel_format": -1, "fps": {"den": 1, "num": 30}, "width": 661, "audio_timebase": {"den": 1, "num": 1}, "display_ratio": {"den": 169, "num": 661}, "top_field_first": true, "video_timebase": {"den": 30, "num": 1}, "has_audio": false, "path": "/home/milind/Data/Projects/ProgressCard/intro.png", "video_length": "2592000"}, "end": 10, "perspective_c2_y": {"Points": [{"co": {"Y": -1.0, "X": 1.0}, "interpolation": 2}]}, "perspective_c2_x": {"Points": [{"co": {"Y": -1.0, "X": 1.0}, "interpolation": 2}]}, "alpha": {"Points": [{"co": {"Y": 1.0, "X": 1.0}, "interpolation": 2}]}, "file_id": "EYET6E4WCX", "rotation": {"Points": [{"co": {"Y": 0.0, "X": 1.0}, "interpolation": 2}]}, "crop_height": {"Points": [{"co": {"Y": -1.0, "X": 1.0}, "interpolation": 2}]}, "scale": 1, "waveform": false, "perspective_c4_x": {"Points": [{"co": {"Y": -1.0, "X": 1.0}, "interpolation": 2}]}, "time": {"Points": [{"co": {"Y": 1.0, "X": 1.0}, "interpolation": 2}]}, "location_x": {"Points": [{"co": {"Y": 0.0, "X": 1.0}, "handle_left": {"Y": 1.0, "X": 0.5}, "handle_right": {"Y": 0.0, "X": 0.5}, "interpolation": 0, "handle_type": 0}]}, "title": "intro.png", "id": "QRWUU8C5AG", "perspective_c3_y": {"Points": [{"co": {"Y": -1.0, "X": 1.0}, "interpolation": 2}]}, "image": "/home/milind/.openshot_qt/thumbnail/EYET6E4WCX.png", "scale_y": {"Points": [{"co": {"Y": 1.0, "X": 1.0}, "handle_left": {"Y": 1.0, "X": 0.5}, "handle_right": {"Y": 0.0, "X": 0.5}, "interpolation": 0, "handle_type": 0}]}, "perspective_c1_x": {"Points": [{"co": {"Y": -1.0, "X": 1.0}, "interpolation": 2}]}, "perspective_c4_y": {"Points": [{"co": {"Y": -1.0, "X": 1.0}, "interpolation": 2}]}, "channel_mapping": {"Points": [{"co": {"Y": -1.0, "X": 1.0}, "interpolation": 2}]}, "wave_color": {"red": {"Points": [{"co": {"Y": 0.0, "X": 1.0}, "handle_left": {"Y": 1.0, "X": 0.5}, "handle_right": {"Y": 0.0, "X": 0.5}, "interpolation": 0, "handle_type": 0}]}, "blue": {"Points": [{"co": {"Y": 255.0, "X": 1.0}, "handle_left": {"Y": 1.0, "X": 0.5}, "handle_right": {"Y": 0.0, "X": 0.5}, "interpolation": 0, "handle_type": 0}]}, "green": {"Points": [{"co": {"Y": 123.0, "X": 1.0}, "handle_left": {"Y": 1.0, "X": 0.5}, "handle_right": {"Y": 0.0, "X": 0.5}, "interpolation": 0, "handle_type": 0}]}, "alpha": {"Points": [{"co": {"Y": 255.0, "X": 1.0}, "handle_left": {"Y": 1.0, "X": 0.5}, "handle_right": {"Y": 0.0, "X": 0.5}, "interpolation": 0, "handle_type": 0}]}}, "channel_filter": {"Points": [{"co": {"Y": -1.0, "X": 1.0}, "interpolation": 2}]}, "position": 15.749999999999998, "duration": 86400.0}, "key": ["clips", {"id": "QRWUU8C5AG"}], "value": {"shear_x": {"Points": [{"co": {"Y": 0.0, "X": 1.0}, "interpolation": 2}]}, "perspective_c3_x": {"Points": [{"co": {"Y": -1.0, "X": 1.0}, "interpolation": 2}]}, "has_video": {"Points": [{"co": {"Y": -1.0, "X": 1.0}, "interpolation": 2}]}, "start": 0, "crop_x": {"Points": [{"co": {"Y": 0.0, "X": 1.0}, "interpolation": 2}]}, "anchor": 0, "has_audio": {"Points": [{"co": {"Y": -1.0, "X": 1.0}, "interpolation": 2}]}, "display": 0, "gravity": 4, "crop_width": {"Points": [{"co": {"Y": -1.0, "X": 1.0}, "interpolation": 2}]}, "crop_y": {"Points": [{"co": {"Y": 0.0, "X": 1.0}, "interpolation": 2}]}, "shear_y": {"Points": [{"co": {"Y": 0.0, "X": 1.0}, "interpolation": 2}]}, "perspective_c1_y": {"Points": [{"co": {"Y": -1.0, "X": 1.0}, "interpolation": 2}]}, "location_y": {"Points": [{"co": {"Y": 0.0, "X": 1.0}, "handle_left": {"Y": 1.0, "X": 0.5}, "handle_right": {"Y": 0.0, "X": 0.5}, "interpolation": 0, "handle_type": 0}, {"co": {"Y": 0.0, "X": 1.0}, "handle_left": {"Y": 1.0, "X": 0.5}, "handle_type": 0, "handle_right": {"Y": 0.0, "X": 0.5}, "interpolation": 0}, {"co": {"Y": 0.0, "X": 25.0}, "handle_left": {"Y": 1.0, "X": 0.5}, "handle_type": 0, "handle_right": {"Y": 0.0, "X": 0.5}, "interpolation": 0}]}, "effects": [], "scale_x": {"Points": [{"co": {"Y": 1.0, "X": 1.0}, "handle_left": {"Y": 1.0, "X": 0.5}, "handle_right": {"Y": 0.0, "X": 0.5}, "interpolation": 0, "handle_type": 0}]}, "volume": {"Points": [{"co": {"Y": 1.0, "X": 1.0}, "interpolation": 2}]}, "layer": 5, "channel_filter": {"Points": [{"co": {"Y": -1.0, "X": 1.0}, "interpolation": 2}]}, "end": 10, "perspective_c2_y": {"Points": [{"co": {"Y": -1.0, "X": 1.0}, "interpolation": 2}]}, "perspective_c2_x": {"Points": [{"co": {"Y": -1.0, "X": 1.0}, "interpolation": 2}]}, "alpha": {"Points": [{"co": {"Y": 1.0, "X": 1.0}, "interpolation": 2}]}, "file_id": "EYET6E4WCX", "rotation": {"Points": [{"co": {"Y": 0.0, "X": 1.0}, "interpolation": 2}]}, "crop_height": {"Points": [{"co": {"Y": -1.0, "X": 1.0}, "interpolation": 2}]}, "scale": 1, "waveform": false, "perspective_c4_x": {"Points": [{"co": {"Y": -1.0, "X": 1.0}, "interpolation": 2}]}, "time": {"Points": [{"co": {"Y": 1.0, "X": 1.0}, "interpolation": 2}]}, "location_x": {"Points": [{"co": {"Y": 0.0, "X": 1.0}, "handle_left": {"Y": 1.0, "X": 0.5}, "handle_right": {"Y": 0.0, "X": 0.5}, "interpolation": 0, "handle_type": 0}, {"co": {"Y": 1.0, "X": 1.0}, "handle_left": {"Y": 1.0, "X": 0.5}, "handle_type": 0, "handle_right": {"Y": 0.0, "X": 0.5}, "interpolation": 0}, {"co": {"Y": 0.0, "X": 25.0}, "handle_left": {"Y": 1.0, "X": 0.5}, "handle_type": 0, "handle_right": {"Y": 0.0, "X": 0.5}, "interpolation": 0}]}, "title": "intro.png", "id": "QRWUU8C5AG", "perspective_c3_y": {"Points": [{"co": {"Y": -1.0, "X": 1.0}, "interpolation": 2}]}, "image": "/home/milind/.openshot_qt/thumbnail/EYET6E4WCX.png", "scale_y": {"Points": [{"co": {"Y": 1.0, "X": 1.0}, "handle_left": {"Y": 1.0, "X": 0.5}, "handle_right": {"Y": 0.0, "X": 0.5}, "interpolation": 0, "handle_type": 0}]}, "perspective_c1_x": {"Points": [{"co": {"Y": -1.0, "X": 1.0}, "interpolation": 2}]}, "perspective_c4_y": {"Points": [{"co": {"Y": -1.0, "X": 1.0}, "interpolation": 2}]}, "channel_mapping": {"Points": [{"co": {"Y": -1.0, "X": 1.0}, "interpolation": 2}]}, "wave_color": {"red": {"Points": [{"co": {"Y": 0.0, "X": 1.0}, "handle_left": {"Y": 1.0, "X": 0.5}, "handle_right": {"Y": 0.0, "X": 0.5}, "interpolation": 0, "handle_type": 0}]}, "blue": {"Points": [{"co": {"Y": 255.0, "X": 1.0}, "handle_left": {"Y": 1.0, "X": 0.5}, "handle_right": {"Y": 0.0, "X": 0.5}, "interpolation": 0, "handle_type": 0}]}, "green": {"Points": [{"co": {"Y": 123.0, "X": 1.0}, "handle_left": {"Y": 1.0, "X": 0.5}, "handle_right": {"Y": 0.0, "X": 0.5}, "interpolation": 0, "handle_type": 0}]}, "alpha": {"Points": [{"co": {"Y": 255.0, "X": 1.0}, "handle_left": {"Y": 1.0, "X": 0.5}, "handle_right": {"Y": 0.0, "X": 0.5}, "interpolation": 0, "handle_type": 0}]}}, "position": 15.749999999999998, "duration": 86400.0}, "partial": false}, {"type": "update", "old_values": {"shear_x": {"Points": [{"co": {"Y": 0.0, "X": 1.0}, "interpolation": 2}]}, "perspective_c3_x": {"Points": [{"co": {"Y": -1.0, "X": 1.0}, "interpolation": 2}]}, "has_video": {"Points": [{"co": {"Y": -1.0, "X": 1.0}, "interpolation": 2}]}, "start": 0, "crop_x": {"Points": [{"co": {"Y": 0.0, "X": 1.0}, "interpolation": 2}]}, "anchor": 0, "has_audio": {"Points": [{"co": {"Y": -1.0, "X": 1.0}, "interpolation": 2}]}, "display": 0, "gravity": 4, "crop_width": {"Points": [{"co": {"Y": -1.0, "X": 1.0}, "interpolation": 2}]}, "crop_y": {"Points": [{"co": {"Y": 0.0, "X": 1.0}, "interpolation": 2}]}, "shear_y": {"Points": [{"co": {"Y": 0.0, "X": 1.0}, "interpolation": 2}]}, "perspective_c1_y": {"Points": [{"co": {"Y": -1.0, "X": 1.0}, "interpolation": 2}]}, "location_y": {"Points": [{"co": {"Y": 0.0, "X": 1.0}, "handle_left": {"Y": 1.0, "X": 0.5}, "handle_type": 0, "handle_right": {"Y": 0.0, "X": 0.5}, "interpolation": 0}, {"co": {"Y": 0.0, "X": 1.0}, "handle_left": {"Y": 1.0, "X": 0.5}, "handle_right": {"Y": 0.0, "X": 0.5}, "interpolation": 0, "handle_type": 0}, {"co": {"Y": 0.0, "X": 25.0}, "handle_left": {"Y": 1.0, "X": 0.5}, "handle_right": {"Y": 0.0, "X": 0.5}, "interpolation": 0, "handle_type": 0}]}, "effects": [], "scale_x": {"Points": [{"co": {"Y": 1.0, "X": 1.0}, "handle_left": {"Y": 1.0, "X": 0.5}, "handle_type": 0, "handle_right": {"Y": 0.0, "X": 0.5}, "interpolation": 0}]}, "volume": {"Points": [{"co": {"Y": 1.0, "X": 1.0}, "interpolation": 2}]}, "layer": 5, "reader": {"has_video": true, "interlaced_frame": false, "height": 169, "acodec": "", "audio_bit_rate": 0, "duration": 86400.0, "pixel_ratio": {"den": 1, "num": 1}, "type": "QtImageReader", "file_size": "446836", "audio_stream_index": -1, "has_single_image": true, "video_stream_index": -1, "video_bit_rate": 0, "channels": 0, "vcodec": "", "sample_rate": 0, "channel_layout": 4, "pixel_format": -1, "fps": {"den": 1, "num": 30}, "width": 661, "audio_timebase": {"den": 1, "num": 1}, "display_ratio": {"den": 169, "num": 661}, "top_field_first": true, "video_timebase": {"den": 30, "num": 1}, "has_audio": false, "path": "/home/milind/Data/Projects/ProgressCard/intro.png", "video_length": "2592000"}, "end": 10, "perspective_c2_y": {"Points": [{"co": {"Y": -1.0, "X": 1.0}, "interpolation": 2}]}, "perspective_c2_x": {"Points": [{"co": {"Y": -1.0, "X": 1.0}, "interpolation": 2}]}, "alpha": {"Points": [{"co": {"Y": 1.0, "X": 1.0}, "interpolation": 2}]}, "file_id": "EYET6E4WCX", "rotation": {"Points": [{"co": {"Y": 0.0, "X": 1.0}, "interpolation": 2}]}, "crop_height": {"Points": [{"co": {"Y": -1.0, "X": 1.0}, "interpolation": 2}]}, "scale": 1, "waveform": false, "perspective_c4_x": {"Points": [{"co": {"Y": -1.0, "X": 1.0}, "interpolation": 2}]}, "time": {"Points": [{"co": {"Y": 1.0, "X": 1.0}, "interpolation": 2}]}, "location_x": {"Points": [{"co": {"Y": 0.0, "X": 1.0}, "handle_left": {"Y": 1.0, "X": 0.5}, "handle_type": 0, "handle_right": {"Y": 0.0, "X": 0.5}, "interpolation": 0}, {"co": {"Y": 1.0, "X": 1.0}, "handle_left": {"Y": 1.0, "X": 0.5}, "handle_right": {"Y": 0.0, "X": 0.5}, "interpolation": 0, "handle_type": 0}, {"co": {"Y": 0.0, "X": 25.0}, "handle_left": {"Y": 1.0, "X": 0.5}, "handle_right": {"Y": 0.0, "X": 0.5}, "interpolation": 0, "handle_type": 0}]}, "title": "intro.png", "id": "QRWUU8C5AG", "perspective_c3_y": {"Points": [{"co": {"Y": -1.0, "X": 1.0}, "interpolation": 2}]}, "image": "/home/milind/.openshot_qt/thumbnail/EYET6E4WCX.png", "scale_y": {"Points": [{"co": {"Y": 1.0, "X": 1.0}, "handle_left": {"Y": 1.0, "X": 0.5}, "handle_type": 0, "handle_right": {"Y": 0.0, "X": 0.5}, "interpolation": 0}]}, "perspective_c1_x": {"Points": [{"co": {"Y": -1.0, "X": 1.0}, "interpolation": 2}]}, "perspective_c4_y": {"Points": [{"co": {"Y": -1.0, "X": 1.0}, "interpolation": 2}]}, "channel_mapping": {"Points": [{"co": {"Y": -1.0, "X": 1.0}, "interpolation": 2}]}, "wave_color": {"alpha": {"Points": [{"co": {"Y": 255.0, "X": 1.0}, "handle_left": {"Y": 1.0, "X": 0.5}, "handle_type": 0, "handle_right": {"Y": 0.0, "X": 0.5}, "interpolation": 0}]}, "blue": {"Points": [{"co": {"Y": 255.0, "X": 1.0}, "handle_left": {"Y": 1.0, "X": 0.5}, "handle_type": 0, "handle_right": {"Y": 0.0, "X": 0.5}, "interpolation": 0}]}, "green": {"Points": [{"co": {"Y": 123.0, "X": 1.0}, "handle_left": {"Y": 1.0, "X": 0.5}, "handle_type": 0, "handle_right": {"Y": 0.0, "X": 0.5}, "interpolation": 0}]}, "red": {"Points": [{"co": {"Y": 0.0, "X": 1.0}, "handle_left": {"Y": 1.0, "X": 0.5}, "handle_type": 0, "handle_right": {"Y": 0.0, "X": 0.5}, "interpolation": 0}]}}, "channel_filter": {"Points": [{"co": {"Y": -1.0, "X": 1.0}, "interpolation": 2}]}, "position": 15.749999999999998, "duration": 86400.0}, "key": ["clips", {"id": "QRWUU8C5AG"}], "value": {"shear_x": {"Points": [{"co": {"Y": 0.0, "X": 1.0}, "interpolation": 2}]}, "perspective_c3_x": {"Points": [{"co": {"Y": -1.0, "X": 1.0}, "interpolation": 2}]}, "has_video": {"Points": [{"co": {"Y": -1.0, "X": 1.0}, "interpolation": 2}]}, "start": 0, "crop_x": {"Points": [{"co": {"Y": 0.0, "X": 1.0}, "interpolation": 2}]}, "anchor": 0, "has_audio": {"Points": [{"co": {"Y": -1.0, "X": 1.0}, "interpolation": 2}]}, "display": 0, "gravity": 4, "crop_width": {"Points": [{"co": {"Y": -1.0, "X": 1.0}, "interpolation": 2}]}, "crop_y": {"Points": [{"co": {"Y": 0.0, "X": 1.0}, "interpolation": 2}]}, "shear_y": {"Points": [{"co": {"Y": 0.0, "X": 1.0}, "interpolation": 2}]}, "perspective_c1_y": {"Points": [{"co": {"Y": -1.0, "X": 1.0}, "interpolation": 2}]}, "location_y": {"Points": [{"co": {"Y": 0.0, "X": 1.0}, "handle_left": {"Y": 1.0, "X": 0.5}, "handle_type": 0, "handle_right": {"Y": 0.0, "X": 0.5}, "interpolation": 0}, {"co": {"Y": 0.0, "X": 1.0}, "handle_left": {"Y": 1.0, "X": 0.5}, "handle_right": {"Y": 0.0, "X": 0.5}, "interpolation": 0, "handle_type": 0}, {"co": {"Y": 0.0, "X": 25.0}, "handle_left": {"Y": 1.0, "X": 0.5}, "handle_right": {"Y": 0.0, "X": 0.5}, "interpolation": 0, "handle_type": 0}, {"co": {"Y": 0.0, "X": 217.0}, "handle_left": {"Y": 1.0, "X": 0.5}, "handle_type": 0, "handle_right": {"Y": 0.0, "X": 0.5}, "interpolation": 0}, {"co": {"Y": 0.0, "X": 241.0}, "handle_left": {"Y": 1.0, "X": 0.5}, "handle_type": 0, "handle_right": {"Y": 0.0, "X": 0.5}, "interpolation": 0}]}, "effects": [], "scale_x": {"Points": [{"co": {"Y": 1.0, "X": 1.0}, "handle_left": {"Y": 1.0, "X": 0.5}, "handle_type": 0, "handle_right": {"Y": 0.0, "X": 0.5}, "interpolation": 0}]}, "volume": {"Points": [{"co": {"Y": 1.0, "X": 1.0}, "interpolation": 2}]}, "layer": 5, "channel_filter": {"Points": [{"co": {"Y": -1.0, "X": 1.0}, "interpolation": 2}]}, "end": 10, "perspective_c2_y": {"Points": [{"co": {"Y": -1.0, "X": 1.0}, "interpolation": 2}]}, "perspective_c2_x": {"Points": [{"co": {"Y": -1.0, "X": 1.0}, "interpolation": 2}]}, "alpha": {"Points": [{"co": {"Y": 1.0, "X": 1.0}, "interpolation": 2}]}, "file_id": "EYET6E4WCX", "rotation": {"Points": [{"co": {"Y": 0.0, "X": 1.0}, "interpolation": 2}]}, "crop_height": {"Points": [{"co": {"Y": -1.0, "X": 1.0}, "interpolation": 2}]}, "scale": 1, "waveform": false, "perspective_c4_x": {"Points": [{"co": {"Y": -1.0, "X": 1.0}, "interpolation": 2}]}, "time": {"Points": [{"co": {"Y": 1.0, "X": 1.0}, "interpolation": 2}]}, "location_x": {"Points": [{"co": {"Y": 0.0, "X": 1.0}, "handle_left": {"Y": 1.0, "X": 0.5}, "handle_type": 0, "handle_right": {"Y": 0.0, "X": 0.5}, "interpolation": 0}, {"co": {"Y": 1.0, "X": 1.0}, "handle_left": {"Y": 1.0, "X": 0.5}, "handle_right": {"Y": 0.0, "X": 0.5}, "interpolation": 0, "handle_type": 0}, {"co": {"Y": 0.0, "X": 25.0}, "handle_left": {"Y": 1.0, "X": 0.5}, "handle_right": {"Y": 0.0, "X": 0.5}, "interpolation": 0, "handle_type": 0}, {"co": {"Y": 0.0, "X": 217.0}, "handle_left": {"Y": 1.0, "X": 0.5}, "handle_type": 0, "handle_right": {"Y": 0.0, "X": 0.5}, "interpolation": 0}, {"co": {"Y": -1.0, "X": 241.0}, "handle_left": {"Y": 1.0, "X": 0.5}, "handle_type": 0, "handle_right": {"Y": 0.0, "X": 0.5}, "interpolation": 0}]}, "title": "intro.png", "id": "QRWUU8C5AG", "perspective_c3_y": {"Points": [{"co": {"Y": -1.0, "X": 1.0}, "interpolation": 2}]}, "image": "/home/milind/.openshot_qt/thumbnail/EYET6E4WCX.png", "scale_y": {"Points": [{"co": {"Y": 1.0, "X": 1.0}, "handle_left": {"Y": 1.0, "X": 0.5}, "handle_type": 0, "handle_right": {"Y": 0.0, "X": 0.5}, "interpolation": 0}]}, "perspective_c1_x": {"Points": [{"co": {"Y": -1.0, "X": 1.0}, "interpolation": 2}]}, "perspective_c4_y": {"Points": [{"co": {"Y": -1.0, "X": 1.0}, "interpolation": 2}]}, "channel_mapping": {"Points": [{"co": {"Y": -1.0, "X": 1.0}, "interpolation": 2}]}, "wave_color": {"alpha": {"Points": [{"co": {"Y": 255.0, "X": 1.0}, "handle_left": {"Y": 1.0, "X": 0.5}, "handle_type": 0, "handle_right": {"Y": 0.0, "X": 0.5}, "interpolation": 0}]}, "blue": {"Points": [{"co": {"Y": 255.0, "X": 1.0}, "handle_left": {"Y": 1.0, "X": 0.5}, "handle_type": 0, "handle_right": {"Y": 0.0, "X": 0.5}, "interpolation": 0}]}, "green": {"Points": [{"co": {"Y": 123.0, "X": 1.0}, "handle_left": {"Y": 1.0, "X": 0.5}, "handle_type": 0, "handle_right": {"Y": 0.0, "X": 0.5}, "interpolation": 0}]}, "red": {"Points": [{"co": {"Y": 0.0, "X": 1.0}, "handle_left": {"Y": 1.0, "X": 0.5}, "handle_type": 0, "handle_right": {"Y": 0.0, "X": 0.5}, "interpolation": 0}]}}, "position": 15.749999999999998, "duration": 86400.0}, "partial": false}, {"type": "update", "old_values": {"shear_x": {"Points": [{"co": {"Y": 0.0, "X": 1.0}, "interpolation": 2}]}, "perspective_c3_x": {"Points": [{"co": {"Y": -1.0, "X": 1.0}, "interpolation": 2}]}, "has_video": {"Points": [{"co": {"Y": -1.0, "X": 1.0}, "interpolation": 2}]}, "start": 0, "crop_x": {"Points": [{"co": {"Y": 0.0, "X": 1.0}, "interpolation": 2}]}, "anchor": 0, "has_audio": {"Points": [{"co": {"Y": -1.0, "X": 1.0}, "interpolation": 2}]}, "display": 0, "gravity": 4, "crop_width": {"Points": [{"co": {"Y": -1.0, "X": 1.0}, "interpolation": 2}]}, "crop_y": {"Points": [{"co": {"Y": 0.0, "X": 1.0}, "interpolation": 2}]}, "shear_y": {"Points": [{"co": {"Y": 0.0, "X": 1.0}, "interpolation": 2}]}, "perspective_c1_y": {"Points": [{"co": {"Y": -1.0, "X": 1.0}, "interpolation": 2}]}, "location_y": {"Points": [{"co": {"Y": 0.0, "X": 1.0}, "handle_left": {"Y": 1.0, "X": 0.5}, "handle_right": {"Y": 0.0, "X": 0.5}, "interpolation": 0, "handle_type": 0}, {"co": {"Y": 0.0, "X": 1.0}, "handle_left": {"Y": 1.0, "X": 0.5}, "handle_type": 0, "handle_right": {"Y": 0.0, "X": 0.5}, "interpolation": 0}, {"co": {"Y": 0.0, "X": 25.0}, "handle_left": {"Y": 1.0, "X": 0.5}, "handle_type": 0, "handle_right": {"Y": 0.0, "X": 0.5}, "interpolation": 0}, {"co": {"Y": 0.0, "X": 217.0}, "handle_left": {"Y": 1.0, "X": 0.5}, "handle_right": {"Y": 0.0, "X": 0.5}, "interpolation": 0, "handle_type": 0}, {"co": {"Y": 0.0, "X": 241.0}, "handle_left": {"Y": 1.0, "X": 0.5}, "handle_right": {"Y": 0.0, "X": 0.5}, "interpolation": 0, "handle_type": 0}]}, "effects": [], "scale_x": {"Points": [{"co": {"Y": 1.0, "X": 1.0}, "handle_left": {"Y": 1.0, "X": 0.5}, "handle_right": {"Y": 0.0, "X": 0.5}, "interpolation": 0, "handle_type": 0}]}, "volume": {"Points": [{"co": {"Y": 1.0, "X": 1.0}, "interpolation": 2}]}, "layer": 5, "reader": {"has_video": true, "interlaced_frame": false, "height": 169, "acodec": "", "audio_bit_rate": 0, "duration": 86400.0, "pixel_ratio": {"den": 1, "num": 1}, "type": "QtImageReader", "file_size": "446836", "audio_stream_index": -1, "has_single_image": true, "video_stream_index": -1, "video_bit_rate": 0, "channels": 0, "vcodec": "", "sample_rate": 0, "channel_layout": 4, "pixel_format": -1, "fps": {"den": 1, "num": 30}, "width": 661, "audio_timebase": {"den": 1, "num": 1}, "display_ratio": {"den": 169, "num": 661}, "top_field_first": true, "video_timebase": {"den": 30, "num": 1}, "has_audio": false, "path": "/home/milind/Data/Projects/ProgressCard/intro.png", "video_length": "2592000"}, "end": 10, "perspective_c2_y": {"Points": [{"co": {"Y": -1.0, "X": 1.0}, "interpolation": 2}]}, "perspective_c2_x": {"Points": [{"co": {"Y": -1.0, "X": 1.0}, "interpolation": 2}]}, "alpha": {"Points": [{"co": {"Y": 1.0, "X": 1.0}, "interpolation": 2}]}, "file_id": "EYET6E4WCX", "rotation": {"Points": [{"co": {"Y": 0.0, "X": 1.0}, "interpolation": 2}]}, "crop_height": {"Points": [{"co": {"Y": -1.0, "X": 1.0}, "interpolation": 2}]}, "scale": 1, "waveform": false, "perspective_c4_x": {"Points": [{"co": {"Y": -1.0, "X": 1.0}, "interpolation": 2}]}, "time": {"Points": [{"co": {"Y": 1.0, "X": 1.0}, "interpolation": 2}]}, "location_x": {"Points": [{"co": {"Y": 0.0, "X": 1.0}, "handle_left": {"Y": 1.0, "X": 0.5}, "handle_right": {"Y": 0.0, "X": 0.5}, "interpolation": 0, "handle_type": 0}, {"co": {"Y": 1.0, "X": 1.0}, "handle_left": {"Y": 1.0, "X": 0.5}, "handle_type": 0, "handle_right": {"Y": 0.0, "X": 0.5}, "interpolation": 0}, {"co": {"Y": 0.0, "X": 25.0}, "handle_left": {"Y": 1.0, "X": 0.5}, "handle_type": 0, "handle_right": {"Y": 0.0, "X": 0.5}, "interpolation": 0}, {"co": {"Y": 0.0, "X": 217.0}, "handle_left": {"Y": 1.0, "X": 0.5}, "handle_right": {"Y": 0.0, "X": 0.5}, "interpolation": 0, "handle_type": 0}, {"co": {"Y": -1.0, "X": 241.0}, "handle_left": {"Y": 1.0, "X": 0.5}, "handle_right": {"Y": 0.0, "X": 0.5}, "interpolation": 0, "handle_type": 0}]}, "title": "intro.png", "id": "QRWUU8C5AG", "perspective_c3_y": {"Points": [{"co": {"Y": -1.0, "X": 1.0}, "interpolation": 2}]}, "image": "/home/milind/.openshot_qt/thumbnail/EYET6E4WCX.png", "scale_y": {"Points": [{"co": {"Y": 1.0, "X": 1.0}, "handle_left": {"Y": 1.0, "X": 0.5}, "handle_right": {"Y": 0.0, "X": 0.5}, "interpolation": 0, "handle_type": 0}]}, "perspective_c1_x": {"Points": [{"co": {"Y": -1.0, "X": 1.0}, "interpolation": 2}]}, "perspective_c4_y": {"Points": [{"co": {"Y": -1.0, "X": 1.0}, "interpolation": 2}]}, "channel_mapping": {"Points": [{"co": {"Y": -1.0, "X": 1.0}, "interpolation": 2}]}, "wave_color": {"red": {"Points": [{"co": {"Y": 0.0, "X": 1.0}, "handle_left": {"Y": 1.0, "X": 0.5}, "handle_right": {"Y": 0.0, "X": 0.5}, "interpolation": 0, "handle_type": 0}]}, "blue": {"Points": [{"co": {"Y": 255.0, "X": 1.0}, "handle_left": {"Y": 1.0, "X": 0.5}, "handle_right": {"Y": 0.0, "X": 0.5}, "interpolation": 0, "handle_type": 0}]}, "green": {"Points": [{"co": {"Y": 123.0, "X": 1.0}, "handle_left": {"Y": 1.0, "X": 0.5}, "handle_right": {"Y": 0.0, "X": 0.5}, "interpolation": 0, "handle_type": 0}]}, "alpha": {"Points": [{"co": {"Y": 255.0, "X": 1.0}, "handle_left": {"Y": 1.0, "X": 0.5}, "handle_right": {"Y": 0.0, "X": 0.5}, "interpolation": 0, "handle_type": 0}]}}, "channel_filter": {"Points": [{"co": {"Y": -1.0, "X": 1.0}, "interpolation": 2}]}, "position": 15.749999999999998, "duration": 86400.0}, "key": ["clips", {"id": "QRWUU8C5AG"}], "value": {"shear_x": {"Points": [{"co": {"Y": 0.0, "X": 1.0}, "interpolation": 2}]}, "perspective_c3_x": {"Points": [{"co": {"Y": -1.0, "X": 1.0}, "interpolation": 2}]}, "has_video": {"Points": [{"co": {"Y": -1.0, "X": 1.0}, "interpolation": 2}]}, "start": 0, "crop_x": {"Points": [{"co": {"Y": 0.0, "X": 1.0}, "interpolation": 2}]}, "anchor": 0, "has_audio": {"Points": [{"co": {"Y": -1.0, "X": 1.0}, "interpolation": 2}]}, "display": 0, "gravity": 4, "crop_width": {"Points": [{"co": {"Y": -1.0, "X": 1.0}, "interpolation": 2}]}, "crop_y": {"Points": [{"co": {"Y": 0.0, "X": 1.0}, "interpolation": 2}]}, "shear_y": {"Points": [{"co": {"Y": 0.0, "X": 1.0}, "interpolation": 2}]}, "perspective_c1_y": {"Points": [{"co": {"Y": -1.0, "X": 1.0}, "interpolation": 2}]}, "location_y": {"Points": [{"co": {"Y": 0.0, "X": 1.0}, "handle_left": {"Y": 1.0, "X": 0.5}, "handle_right": {"Y": 0.0, "X": 0.5}, "interpolation": 0, "handle_type": 0}, {"co": {"Y": 0.0, "X": 1.0}, "handle_left": {"Y": 1.0, "X": 0.5}, "handle_type": 0, "handle_right": {"Y": 0.0, "X": 0.5}, "interpolation": 0}, {"co": {"Y": 0.0, "X": 25.0}, "handle_left": {"Y": 1.0, "X": 0.5}, "handle_type": 0, "handle_right": {"Y": 0.0, "X": 0.5}, "interpolation": 0}, {"co": {"Y": 0.0, "X": 217.0}, "handle_left": {"Y": 1.0, "X": 0.5}, "handle_right": {"Y": 0.0, "X": 0.5}, "interpolation": 0, "handle_type": 0}, {"co": {"Y": 0.0, "X": 241.0}, "handle_left": {"Y": 1.0, "X": 0.5}, "handle_right": {"Y": 0.0, "X": 0.5}, "interpolation": 0, "handle_type": 0}]}, "effects": [], "scale_x": {"Points": [{"co": {"Y": 1.0, "X": 1.0}, "handle_left": {"Y": 1.0, "X": 0.5}, "handle_right": {"Y": 0.0, "X": 0.5}, "interpolation": 0, "handle_type": 0}]}, "volume": {"Points": [{"co": {"Y": 1.0, "X": 1.0}, "interpolation": 2}]}, "layer": 5, "channel_filter": {"Points": [{"co": {"Y": -1.0, "X": 1.0}, "interpolation": 2}]}, "end": 8.54166666666667, "perspective_c2_y": {"Points": [{"co": {"Y": -1.0, "X": 1.0}, "interpolation": 2}]}, "perspective_c2_x": {"Points": [{"co": {"Y": -1.0, "X": 1.0}, "interpolation": 2}]}, "alpha": {"Points": [{"co": {"Y": 1.0, "X": 1.0}, "interpolation": 2}]}, "file_id": "EYET6E4WCX", "rotation": {"Points": [{"co": {"Y": 0.0, "X": 1.0}, "interpolation": 2}]}, "crop_height": {"Points": [{"co": {"Y": -1.0, "X": 1.0}, "interpolation": 2}]}, "scale": 1, "waveform": false, "perspective_c4_x": {"Points": [{"co": {"Y": -1.0, "X": 1.0}, "interpolation": 2}]}, "time": {"Points": [{"co": {"Y": 1.0, "X": 1.0}, "interpolation": 2}]}, "location_x": {"Points": [{"co": {"Y": 0.0, "X": 1.0}, "handle_left": {"Y": 1.0, "X": 0.5}, "handle_right": {"Y": 0.0, "X": 0.5}, "interpolation": 0, "handle_type": 0}, {"co": {"Y": 1.0, "X": 1.0}, "handle_left": {"Y": 1.0, "X": 0.5}, "handle_type": 0, "handle_right": {"Y": 0.0, "X": 0.5}, "interpolation": 0}, {"co": {"Y": 0.0, "X": 25.0}, "handle_left": {"Y": 1.0, "X": 0.5}, "handle_type": 0, "handle_right": {"Y": 0.0, "X": 0.5}, "interpolation": 0}, {"co": {"Y": 0.0, "X": 217.0}, "handle_left": {"Y": 1.0, "X": 0.5}, "handle_right": {"Y": 0.0, "X": 0.5}, "interpolation": 0, "handle_type": 0}, {"co": {"Y": -1.0, "X": 241.0}, "handle_left": {"Y": 1.0, "X": 0.5}, "handle_right": {"Y": 0.0, "X": 0.5}, "interpolation": 0, "handle_type": 0}]}, "title": "intro.png", "id": "QRWUU8C5AG", "perspective_c3_y": {"Points": [{"co": {"Y": -1.0, "X": 1.0}, "interpolation": 2}]}, "image": "/home/milind/.openshot_qt/thumbnail/EYET6E4WCX.png", "scale_y": {"Points": [{"co": {"Y": 1.0, "X": 1.0}, "handle_left": {"Y": 1.0, "X": 0.5}, "handle_right": {"Y": 0.0, "X": 0.5}, "interpolation": 0, "handle_type": 0}]}, "perspective_c1_x": {"Points": [{"co": {"Y": -1.0, "X": 1.0}, "interpolation": 2}]}, "perspective_c4_y": {"Points": [{"co": {"Y": -1.0, "X": 1.0}, "interpolation": 2}]}, "channel_mapping": {"Points": [{"co": {"Y": -1.0, "X": 1.0}, "interpolation": 2}]}, "wave_color": {"red": {"Points": [{"co": {"Y": 0.0, "X": 1.0}, "handle_left": {"Y": 1.0, "X": 0.5}, "handle_right": {"Y": 0.0, "X": 0.5}, "interpolation": 0, "handle_type": 0}]}, "blue": {"Points": [{"co": {"Y": 255.0, "X": 1.0}, "handle_left": {"Y": 1.0, "X": 0.5}, "handle_right": {"Y": 0.0, "X": 0.5}, "interpolation": 0, "handle_type": 0}]}, "green": {"Points": [{"co": {"Y": 123.0, "X": 1.0}, "handle_left": {"Y": 1.0, "X": 0.5}, "handle_right": {"Y": 0.0, "X": 0.5}, "interpolation": 0, "handle_type": 0}]}, "alpha": {"Points": [{"co": {"Y": 255.0, "X": 1.0}, "handle_left": {"Y": 1.0, "X": 0.5}, "handle_right": {"Y": 0.0, "X": 0.5}, "interpolation": 0, "handle_type": 0}]}}, "position": 15.749999999999998, "duration": 86400.0}, "partial": false}, {"type": "update", "old_values": {"shear_x": {"Points": [{"co": {"Y": 0.0, "X": 1.0}, "interpolation": 2}]}, "perspective_c3_x": {"Points": [{"co": {"Y": -1.0, "X": 1.0}, "interpolation": 2}]}, "has_video": {"Points": [{"co": {"Y": -1.0, "X": 1.0}, "interpolation": 2}]}, "start": 0, "crop_x": {"Points": [{"co": {"Y": 0.0, "X": 1.0}, "interpolation": 2}]}, "anchor": 0, "has_audio": {"Points": [{"co": {"Y": -1.0, "X": 1.0}, "interpolation": 2}]}, "display": 0, "gravity": 4, "crop_width": {"Points": [{"co": {"Y": -1.0, "X": 1.0}, "interpolation": 2}]}, "crop_y": {"Points": [{"co": {"Y": 0.0, "X": 1.0}, "interpolation": 2}]}, "shear_y": {"Points": [{"co": {"Y": 0.0, "X": 1.0}, "interpolation": 2}]}, "perspective_c1_y": {"Points": [{"co": {"Y": -1.0, "X": 1.0}, "interpolation": 2}]}, "location_y": {"Points": [{"co": {"Y": 0.0, "X": 1.0}, "handle_left": {"Y": 1.0, "X": 0.5}, "handle_type": 0, "handle_right": {"Y": 0.0, "X": 0.5}, "interpolation": 0}, {"co": {"Y": 0.0, "X": 1.0}, "handle_left": {"Y": 1.0, "X": 0.5}, "handle_right": {"Y": 0.0, "X": 0.5}, "interpolation": 0, "handle_type": 0}, {"co": {"Y": 0.0, "X": 25.0}, "handle_left": {"Y": 1.0, "X": 0.5}, "handle_right": {"Y": 0.0, "X": 0.5}, "interpolation": 0, "handle_type": 0}, {"co": {"Y": 0.0, "X": 217.0}, "handle_left": {"Y": 1.0, "X": 0.5}, "handle_type": 0, "handle_right": {"Y": 0.0, "X": 0.5}, "interpolation": 0}, {"co": {"Y": 0.0, "X": 241.0}, "handle_left": {"Y": 1.0, "X": 0.5}, "handle_type": 0, "handle_right": {"Y": 0.0, "X": 0.5}, "interpolation": 0}]}, "effects": [], "scale_x": {"Points": [{"co": {"Y": 1.0, "X": 1.0}, "handle_left": {"Y": 1.0, "X": 0.5}, "handle_type": 0, "handle_right": {"Y": 0.0, "X": 0.5}, "interpolation": 0}]}, "volume": {"Points": [{"co": {"Y": 1.0, "X": 1.0}, "interpolation": 2}]}, "layer": 5, "reader": {"has_video": true, "interlaced_frame": false, "height": 169, "acodec": "", "audio_bit_rate": 0, "duration": 86400.0, "pixel_ratio": {"den": 1, "num": 1}, "type": "QtImageReader", "file_size": "446836", "audio_stream_index": -1, "has_single_image": true, "video_stream_index": -1, "video_bit_rate": 0, "channels": 0, "vcodec": "", "sample_rate": 0, "channel_layout": 4, "pixel_format": -1, "fps": {"den": 1, "num": 30}, "width": 661, "audio_timebase": {"den": 1, "num": 1}, "display_ratio": {"den": 169, "num": 661}, "top_field_first": true, "video_timebase": {"den": 30, "num": 1}, "has_audio": false, "path": "/home/milind/Data/Projects/ProgressCard/intro.png", "video_length": "2592000"}, "end": 8.54166666666667, "perspective_c2_y": {"Points": [{"co": {"Y": -1.0, "X": 1.0}, "interpolation": 2}]}, "perspective_c2_x": {"Points": [{"co": {"Y": -1.0, "X": 1.0}, "interpolation": 2}]}, "alpha": {"Points": [{"co": {"Y": 1.0, "X": 1.0}, "interpolation": 2}]}, "file_id": "EYET6E4WCX", "rotation": {"Points": [{"co": {"Y": 0.0, "X": 1.0}, "interpolation": 2}]}, "crop_height": {"Points": [{"co": {"Y": -1.0, "X": 1.0}, "interpolation": 2}]}, "scale": 1, "waveform": false, "perspective_c4_x": {"Points": [{"co": {"Y": -1.0, "X": 1.0}, "interpolation": 2}]}, "time": {"Points": [{"co": {"Y": 1.0, "X": 1.0}, "interpolation": 2}]}, "location_x": {"Points": [{"co": {"Y": 0.0, "X": 1.0}, "handle_left": {"Y": 1.0, "X": 0.5}, "handle_type": 0, "handle_right": {"Y": 0.0, "X": 0.5}, "interpolation": 0}, {"co": {"Y": 1.0, "X": 1.0}, "handle_left": {"Y": 1.0, "X": 0.5}, "handle_right": {"Y": 0.0, "X": 0.5}, "interpolation": 0, "handle_type": 0}, {"co": {"Y": 0.0, "X": 25.0}, "handle_left": {"Y": 1.0, "X": 0.5}, "handle_right": {"Y": 0.0, "X": 0.5}, "interpolation": 0, "handle_type": 0}, {"co": {"Y": 0.0, "X": 217.0}, "handle_left": {"Y": 1.0, "X": 0.5}, "handle_type": 0, "handle_right": {"Y": 0.0, "X": 0.5}, "interpolation": 0}, {"co": {"Y": -1.0, "X": 241.0}, "handle_left": {"Y": 1.0, "X": 0.5}, "handle_type": 0, "handle_right": {"Y": 0.0, "X": 0.5}, "interpolation": 0}]}, "title": "intro.png", "id": "QRWUU8C5AG", "perspective_c3_y": {"Points": [{"co": {"Y": -1.0, "X": 1.0}, "interpolation": 2}]}, "image": "/home/milind/.openshot_qt/thumbnail/EYET6E4WCX.png", "scale_y": {"Points": [{"co": {"Y": 1.0, "X": 1.0}, "handle_left": {"Y": 1.0, "X": 0.5}, "handle_type": 0, "handle_right": {"Y": 0.0, "X": 0.5}, "interpolation": 0}]}, "perspective_c1_x": {"Points": [{"co": {"Y": -1.0, "X": 1.0}, "interpolation": 2}]}, "perspective_c4_y": {"Points": [{"co": {"Y": -1.0, "X": 1.0}, "interpolation": 2}]}, "channel_mapping": {"Points": [{"co": {"Y": -1.0, "X": 1.0}, "interpolation": 2}]}, "wave_color": {"alpha": {"Points": [{"co": {"Y": 255.0, "X": 1.0}, "handle_left": {"Y": 1.0, "X": 0.5}, "handle_type": 0, "handle_right": {"Y": 0.0, "X": 0.5}, "interpolation": 0}]}, "blue": {"Points": [{"co": {"Y": 255.0, "X": 1.0}, "handle_left": {"Y": 1.0, "X": 0.5}, "handle_type": 0, "handle_right": {"Y": 0.0, "X": 0.5}, "interpolation": 0}]}, "green": {"Points": [{"co": {"Y": 123.0, "X": 1.0}, "handle_left": {"Y": 1.0, "X": 0.5}, "handle_type": 0, "handle_right": {"Y": 0.0, "X": 0.5}, "interpolation": 0}]}, "red": {"Points": [{"co": {"Y": 0.0, "X": 1.0}, "handle_left": {"Y": 1.0, "X": 0.5}, "handle_type": 0, "handle_right": {"Y": 0.0, "X": 0.5}, "interpolation": 0}]}}, "channel_filter": {"Points": [{"co": {"Y": -1.0, "X": 1.0}, "interpolation": 2}]}, "position": 15.749999999999998, "duration": 86400.0}, "key": ["clips", {"id": "QRWUU8C5AG"}], "value": {"id": "QRWUU8C5AG", "layer": 5, "start": 0, "image": "/home/milind/.openshot_qt/thumbnail/EYET6E4WCX.png", "end": 8.54166666666667, "position": 15.36}, "partial": false}, {"type": "update", "old_values": {"shear_x": {"Points": [{"co": {"Y": 0.0, "X": 1.0}, "interpolation": 2}]}, "perspective_c3_x": {"Points": [{"co": {"Y": -1.0, "X": 1.0}, "interpolation": 2}]}, "has_video": {"Points": [{"co": {"Y": -1.0, "X": 1.0}, "interpolation": 2}]}, "start": 0, "crop_x": {"Points": [{"co": {"Y": 0.0, "X": 1.0}, "interpolation": 2}]}, "anchor": 0, "has_audio": {"Points": [{"co": {"Y": -1.0, "X": 1.0}, "interpolation": 2}]}, "display": 0, "gravity": 4, "crop_width": {"Points": [{"co": {"Y": -1.0, "X": 1.0}, "interpolation": 2}]}, "crop_y": {"Points": [{"co": {"Y": 0.0, "X": 1.0}, "interpolation": 2}]}, "shear_y": {"Points": [{"co": {"Y": 0.0, "X": 1.0}, "interpolation": 2}]}, "perspective_c1_y": {"Points": [{"co": {"Y": -1.0, "X": 1.0}, "interpolation": 2}]}, "location_y": {"Points": [{"co": {"Y": 0.0, "X": 1.0}, "handle_left": {"Y": 1.0, "X": 0.5}, "handle_type": 0, "handle_right": {"Y": 0.0, "X": 0.5}, "interpolation": 0}, {"co": {"Y": 0.0, "X": 1.0}, "handle_left": {"Y": 1.0, "X": 0.5}, "handle_right": {"Y": 0.0, "X": 0.5}, "interpolation": 0, "handle_type": 0}, {"co": {"Y": 0.0, "X": 25.0}, "handle_left": {"Y": 1.0, "X": 0.5}, "handle_right": {"Y": 0.0, "X": 0.5}, "interpolation": 0, "handle_type": 0}, {"co": {"Y": 0.0, "X": 217.0}, "handle_left": {"Y": 1.0, "X": 0.5}, "handle_type": 0, "handle_right": {"Y": 0.0, "X": 0.5}, "interpolation": 0}, {"co": {"Y": 0.0, "X": 241.0}, "handle_left": {"Y": 1.0, "X": 0.5}, "handle_type": 0, "handle_right": {"Y": 0.0, "X": 0.5}, "interpolation": 0}]}, "effects": [], "scale_x": {"Points": [{"co": {"Y": 1.0, "X": 1.0}, "handle_left": {"Y": 1.0, "X": 0.5}, "handle_type": 0, "handle_right": {"Y": 0.0, "X": 0.5}, "interpolation": 0}]}, "volume": {"Points": [{"co": {"Y": 1.0, "X": 1.0}, "interpolation": 2}]}, "layer": 5, "reader": {"has_video": true, "interlaced_frame": false, "height": 169, "acodec": "", "audio_bit_rate": 0, "duration": 86400.0, "pixel_ratio": {"den": 1, "num": 1}, "type": "QtImageReader", "file_size": "446836", "audio_stream_index": -1, "has_single_image": true, "video_stream_index": -1, "video_bit_rate": 0, "channels": 0, "vcodec": "", "sample_rate": 0, "channel_layout": 4, "pixel_format": -1, "fps": {"den": 1, "num": 30}, "width": 661, "audio_timebase": {"den": 1, "num": 1}, "display_ratio": {"den": 169, "num": 661}, "top_field_first": true, "video_timebase": {"den": 30, "num": 1}, "has_audio": false, "path": "/home/milind/Data/Projects/ProgressCard/intro.png", "video_length": "2592000"}, "end": 8.54166666666667, "perspective_c2_y": {"Points": [{"co": {"Y": -1.0, "X": 1.0}, "interpolation": 2}]}, "perspective_c2_x": {"Points": [{"co": {"Y": -1.0, "X": 1.0}, "interpolation": 2}]}, "alpha": {"Points": [{"co": {"Y": 1.0, "X": 1.0}, "interpolation": 2}]}, "file_id": "EYET6E4WCX", "rotation": {"Points": [{"co": {"Y": 0.0, "X": 1.0}, "interpolation": 2}]}, "crop_height": {"Points": [{"co": {"Y": -1.0, "X": 1.0}, "interpolation": 2}]}, "scale": 1, "waveform": false, "perspective_c4_x": {"Points": [{"co": {"Y": -1.0, "X": 1.0}, "interpolation": 2}]}, "time": {"Points": [{"co": {"Y": 1.0, "X": 1.0}, "interpolation": 2}]}, "location_x": {"Points": [{"co": {"Y": 0.0, "X": 1.0}, "handle_left": {"Y": 1.0, "X": 0.5}, "handle_type": 0, "handle_right": {"Y": 0.0, "X": 0.5}, "interpolation": 0}, {"co": {"Y": 1.0, "X": 1.0}, "handle_left": {"Y": 1.0, "X": 0.5}, "handle_right": {"Y": 0.0, "X": 0.5}, "interpolation": 0, "handle_type": 0}, {"co": {"Y": 0.0, "X": 25.0}, "handle_left": {"Y": 1.0, "X": 0.5}, "handle_right": {"Y": 0.0, "X": 0.5}, "interpolation": 0, "handle_type": 0}, {"co": {"Y": 0.0, "X": 217.0}, "handle_left": {"Y": 1.0, "X": 0.5}, "handle_type": 0, "handle_right": {"Y": 0.0, "X": 0.5}, "interpolation": 0}, {"co": {"Y": -1.0, "X": 241.0}, "handle_left": {"Y": 1.0, "X": 0.5}, "handle_type": 0, "handle_right": {"Y": 0.0, "X": 0.5}, "interpolation": 0}]}, "title": "intro.png", "id": "QRWUU8C5AG", "perspective_c3_y": {"Points": [{"co": {"Y": -1.0, "X": 1.0}, "interpolation": 2}]}, "image": "/home/milind/.openshot_qt/thumbnail/EYET6E4WCX.png", "scale_y": {"Points": [{"co": {"Y": 1.0, "X": 1.0}, "handle_left": {"Y": 1.0, "X": 0.5}, "handle_type": 0, "handle_right": {"Y": 0.0, "X": 0.5}, "interpolation": 0}]}, "perspective_c1_x": {"Points": [{"co": {"Y": -1.0, "X": 1.0}, "interpolation": 2}]}, "perspective_c4_y": {"Points": [{"co": {"Y": -1.0, "X": 1.0}, "interpolation": 2}]}, "channel_mapping": {"Points": [{"co": {"Y": -1.0, "X": 1.0}, "interpolation": 2}]}, "wave_color": {"alpha": {"Points": [{"co": {"Y": 255.0, "X": 1.0}, "handle_left": {"Y": 1.0, "X": 0.5}, "handle_type": 0, "handle_right": {"Y": 0.0, "X": 0.5}, "interpolation": 0}]}, "blue": {"Points": [{"co": {"Y": 255.0, "X": 1.0}, "handle_left": {"Y": 1.0, "X": 0.5}, "handle_type": 0, "handle_right": {"Y": 0.0, "X": 0.5}, "interpolation": 0}]}, "green": {"Points": [{"co": {"Y": 123.0, "X": 1.0}, "handle_left": {"Y": 1.0, "X": 0.5}, "handle_type": 0, "handle_right": {"Y": 0.0, "X": 0.5}, "interpolation": 0}]}, "red": {"Points": [{"co": {"Y": 0.0, "X": 1.0}, "handle_left": {"Y": 1.0, "X": 0.5}, "handle_type": 0, "handle_right": {"Y": 0.0, "X": 0.5}, "interpolation": 0}]}}, "channel_filter": {"Points": [{"co": {"Y": -1.0, "X": 1.0}, "interpolation": 2}]}, "position": 15.36, "duration": 86400.0}, "key": ["clips", {"id": "QRWUU8C5AG"}], "value": {"shear_x": {"Points": [{"co": {"Y": 0.0, "X": 1.0}, "interpolation": 2}]}, "perspective_c3_x": {"Points": [{"co": {"Y": -1.0, "X": 1.0}, "interpolation": 2}]}, "has_video": {"Points": [{"co": {"Y": -1.0, "X": 1.0}, "interpolation": 2}]}, "start": 0, "crop_x": {"Points": [{"co": {"Y": 0.0, "X": 1.0}, "interpolation": 2}]}, "anchor": 0, "has_audio": {"Points": [{"co": {"Y": -1.0, "X": 1.0}, "interpolation": 2}]}, "display": 0, "gravity": 4, "crop_width": {"Points": [{"co": {"Y": -1.0, "X": 1.0}, "interpolation": 2}]}, "crop_y": {"Points": [{"co": {"Y": 0.0, "X": 1.0}, "interpolation": 2}]}, "shear_y": {"Points": [{"co": {"Y": 0.0, "X": 1.0}, "interpolation": 2}]}, "perspective_c1_y": {"Points": [{"co": {"Y": -1.0, "X": 1.0}, "interpolation": 2}]}, "location_y": {"Points": [{"co": {"Y": 0.0, "X": 1.0}, "handle_left": {"Y": 1.0, "X": 0.5}, "handle_type": 0, "handle_right": {"Y": 0.0, "X": 0.5}, "interpolation": 0}, {"co": {"Y": 0.0, "X": 1.0}, "handle_left": {"Y": 1.0, "X": 0.5}, "handle_right": {"Y": 0.0, "X": 0.5}, "interpolation": 0, "handle_type": 0}, {"co": {"Y": 0.0, "X": 25.0}, "handle_left": {"Y": 1.0, "X": 0.5}, "handle_right": {"Y": 0.0, "X": 0.5}, "interpolation": 0, "handle_type": 0}, {"co": {"Y": 0.0, "X": 217.0}, "handle_left": {"Y": 1.0, "X": 0.5}, "handle_type": 0, "handle_right": {"Y": 0.0, "X": 0.5}, "interpolation": 0}, {"co": {"Y": 0.0, "X": 241.0}, "handle_left": {"Y": 1.0, "X": 0.5}, "handle_type": 0, "handle_right": {"Y": 0.0, "X": 0.5}, "interpolation": 0}]}, "effects": [], "scale_x": {"Points": [{"co": {"Y": 1.0, "X": 1.0}, "handle_left": {"Y": 1.0, "X": 0.5}, "handle_type": 0, "handle_right": {"Y": 0.0, "X": 0.5}, "interpolation": 0}]}, "volume": {"Points": [{"co": {"Y": 1.0, "X": 1.0}, "interpolation": 2}]}, "layer": 5, "channel_filter": {"Points": [{"co": {"Y": -1.0, "X": 1.0}, "interpolation": 2}]}, "end": 7.348333333333333, "perspective_c2_y": {"Points": [{"co": {"Y": -1.0, "X": 1.0}, "interpolation": 2}]}, "perspective_c2_x": {"Points": [{"co": {"Y": -1.0, "X": 1.0}, "interpolation": 2}]}, "alpha": {"Points": [{"co": {"Y": 1.0, "X": 1.0}, "interpolation": 2}]}, "file_id": "EYET6E4WCX", "rotation": {"Points": [{"co": {"Y": 0.0, "X": 1.0}, "interpolation": 2}]}, "crop_height": {"Points": [{"co": {"Y": -1.0, "X": 1.0}, "interpolation": 2}]}, "scale": 1, "waveform": false, "perspective_c4_x": {"Points": [{"co": {"Y": -1.0, "X": 1.0}, "interpolation": 2}]}, "time": {"Points": [{"co": {"Y": 1.0, "X": 1.0}, "interpolation": 2}]}, "location_x": {"Points": [{"co": {"Y": 0.0, "X": 1.0}, "handle_left": {"Y": 1.0, "X": 0.5}, "handle_type": 0, "handle_right": {"Y": 0.0, "X": 0.5}, "interpolation": 0}, {"co": {"Y": 1.0, "X": 1.0}, "handle_left": {"Y": 1.0, "X": 0.5}, "handle_right": {"Y": 0.0, "X": 0.5}, "interpolation": 0, "handle_type": 0}, {"co": {"Y": 0.0, "X": 25.0}, "handle_left": {"Y": 1.0, "X": 0.5}, "handle_right": {"Y": 0.0, "X": 0.5}, "interpolation": 0, "handle_type": 0}, {"co": {"Y": 0.0, "X": 217.0}, "handle_left": {"Y": 1.0, "X": 0.5}, "handle_type": 0, "handle_right": {"Y": 0.0, "X": 0.5}, "interpolation": 0}, {"co": {"Y": -1.0, "X": 241.0}, "handle_left": {"Y": 1.0, "X": 0.5}, "handle_type": 0, "handle_right": {"Y": 0.0, "X": 0.5}, "interpolation": 0}]}, "title": "intro.png", "id": "QRWUU8C5AG", "perspective_c3_y": {"Points": [{"co": {"Y": -1.0, "X": 1.0}, "interpolation": 2}]}, "image": "/home/milind/.openshot_qt/thumbnail/EYET6E4WCX.png", "scale_y": {"Points": [{"co": {"Y": 1.0, "X": 1.0}, "handle_left": {"Y": 1.0, "X": 0.5}, "handle_type": 0, "handle_right": {"Y": 0.0, "X": 0.5}, "interpolation": 0}]}, "perspective_c1_x": {"Points": [{"co": {"Y": -1.0, "X": 1.0}, "interpolation": 2}]}, "perspective_c4_y": {"Points": [{"co": {"Y": -1.0, "X": 1.0}, "interpolation": 2}]}, "channel_mapping": {"Points": [{"co": {"Y": -1.0, "X": 1.0}, "interpolation": 2}]}, "wave_color": {"alpha": {"Points": [{"co": {"Y": 255.0, "X": 1.0}, "handle_left": {"Y": 1.0, "X": 0.5}, "handle_type": 0, "handle_right": {"Y": 0.0, "X": 0.5}, "interpolation": 0}]}, "blue": {"Points": [{"co": {"Y": 255.0, "X": 1.0}, "handle_left": {"Y": 1.0, "X": 0.5}, "handle_type": 0, "handle_right": {"Y": 0.0, "X": 0.5}, "interpolation": 0}]}, "green": {"Points": [{"co": {"Y": 123.0, "X": 1.0}, "handle_left": {"Y": 1.0, "X": 0.5}, "handle_type": 0, "handle_right": {"Y": 0.0, "X": 0.5}, "interpolation": 0}]}, "red": {"Points": [{"co": {"Y": 0.0, "X": 1.0}, "handle_left": {"Y": 1.0, "X": 0.5}, "handle_type": 0, "handle_right": {"Y": 0.0, "X": 0.5}, "interpolation": 0}]}}, "position": 15.36, "duration": 86400.0}, "partial": false}, {"type": "update", "old_values": {"shear_x": {"Points": [{"co": {"Y": 0.0, "X": 1.0}, "interpolation": 2}]}, "perspective_c3_x": {"Points": [{"co": {"Y": -1.0, "X": 1.0}, "interpolation": 2}]}, "has_video": {"Points": [{"co": {"Y": -1.0, "X": 1.0}, "interpolation": 2}]}, "start": 0, "crop_x": {"Points": [{"co": {"Y": 0.0, "X": 1.0}, "interpolation": 2}]}, "anchor": 0, "has_audio": {"Points": [{"co": {"Y": -1.0, "X": 1.0}, "interpolation": 2}]}, "display": 0, "gravity": 4, "crop_width": {"Points": [{"co": {"Y": -1.0, "X": 1.0}, "interpolation": 2}]}, "crop_y": {"Points": [{"co": {"Y": 0.0, "X": 1.0}, "interpolation": 2}]}, "shear_y": {"Points": [{"co": {"Y": 0.0, "X": 1.0}, "interpolation": 2}]}, "perspective_c1_y": {"Points": [{"co": {"Y": -1.0, "X": 1.0}, "interpolation": 2}]}, "location_y": {"Points": [{"co": {"Y": 0.0, "X": 1.0}, "handle_left": {"Y": 1.0, "X": 0.5}, "handle_right": {"Y": 0.0, "X": 0.5}, "interpolation": 0, "handle_type": 0}, {"co": {"Y": 0.0, "X": 1.0}, "handle_left": {"Y": 1.0, "X": 0.5}, "handle_type": 0, "handle_right": {"Y": 0.0, "X": 0.5}, "interpolation": 0}, {"co": {"Y": 0.0, "X": 25.0}, "handle_left": {"Y": 1.0, "X": 0.5}, "handle_type": 0, "handle_right": {"Y": 0.0, "X": 0.5}, "interpolation": 0}, {"co": {"Y": 0.0, "X": 217.0}, "handle_left": {"Y": 1.0, "X": 0.5}, "handle_right": {"Y": 0.0, "X": 0.5}, "interpolation": 0, "handle_type": 0}, {"co": {"Y": 0.0, "X": 241.0}, "handle_left": {"Y": 1.0, "X": 0.5}, "handle_right": {"Y": 0.0, "X": 0.5}, "interpolation": 0, "handle_type": 0}]}, "effects": [], "scale_x": {"Points": [{"co": {"Y": 1.0, "X": 1.0}, "handle_left": {"Y": 1.0, "X": 0.5}, "handle_right": {"Y": 0.0, "X": 0.5}, "interpolation": 0, "handle_type": 0}]}, "volume": {"Points": [{"co": {"Y": 1.0, "X": 1.0}, "interpolation": 2}]}, "layer": 5, "reader": {"has_video": true, "interlaced_frame": false, "height": 169, "acodec": "", "audio_bit_rate": 0, "duration": 86400.0, "pixel_ratio": {"den": 1, "num": 1}, "type": "QtImageReader", "file_size": "446836", "audio_stream_index": -1, "has_single_image": true, "video_stream_index": -1, "video_bit_rate": 0, "channels": 0, "vcodec": "", "sample_rate": 0, "channel_layout": 4, "pixel_format": -1, "fps": {"den": 1, "num": 30}, "width": 661, "audio_timebase": {"den": 1, "num": 1}, "display_ratio": {"den": 169, "num": 661}, "top_field_first": true, "video_timebase": {"den": 30, "num": 1}, "has_audio": false, "path": "/home/milind/Data/Projects/ProgressCard/intro.png", "video_length": "2592000"}, "end": 7.348333333333333, "perspective_c2_y": {"Points": [{"co": {"Y": -1.0, "X": 1.0}, "interpolation": 2}]}, "perspective_c2_x": {"Points": [{"co": {"Y": -1.0, "X": 1.0}, "interpolation": 2}]}, "alpha": {"Points": [{"co": {"Y": 1.0, "X": 1.0}, "interpolation": 2}]}, "file_id": "EYET6E4WCX", "rotation": {"Points": [{"co": {"Y": 0.0, "X": 1.0}, "interpolation": 2}]}, "crop_height": {"Points": [{"co": {"Y": -1.0, "X": 1.0}, "interpolation": 2}]}, "scale": 1, "waveform": false, "perspective_c4_x": {"Points": [{"co": {"Y": -1.0, "X": 1.0}, "interpolation": 2}]}, "time": {"Points": [{"co": {"Y": 1.0, "X": 1.0}, "interpolation": 2}]}, "location_x": {"Points": [{"co": {"Y": 0.0, "X": 1.0}, "handle_left": {"Y": 1.0, "X": 0.5}, "handle_right": {"Y": 0.0, "X": 0.5}, "interpolation": 0, "handle_type": 0}, {"co": {"Y": 1.0, "X": 1.0}, "handle_left": {"Y": 1.0, "X": 0.5}, "handle_type": 0, "handle_right": {"Y": 0.0, "X": 0.5}, "interpolation": 0}, {"co": {"Y": 0.0, "X": 25.0}, "handle_left": {"Y": 1.0, "X": 0.5}, "handle_type": 0, "handle_right": {"Y": 0.0, "X": 0.5}, "interpolation": 0}, {"co": {"Y": 0.0, "X": 217.0}, "handle_left": {"Y": 1.0, "X": 0.5}, "handle_right": {"Y": 0.0, "X": 0.5}, "interpolation": 0, "handle_type": 0}, {"co": {"Y": -1.0, "X": 241.0}, "handle_left": {"Y": 1.0, "X": 0.5}, "handle_right": {"Y": 0.0, "X": 0.5}, "interpolation": 0, "handle_type": 0}]}, "title": "intro.png", "id": "QRWUU8C5AG", "perspective_c3_y": {"Points": [{"co": {"Y": -1.0, "X": 1.0}, "interpolation": 2}]}, "image": "/home/milind/.openshot_qt/thumbnail/EYET6E4WCX.png", "scale_y": {"Points": [{"co": {"Y": 1.0, "X": 1.0}, "handle_left": {"Y": 1.0, "X": 0.5}, "handle_right": {"Y": 0.0, "X": 0.5}, "interpolation": 0, "handle_type": 0}]}, "perspective_c1_x": {"Points": [{"co": {"Y": -1.0, "X": 1.0}, "interpolation": 2}]}, "perspective_c4_y": {"Points": [{"co": {"Y": -1.0, "X": 1.0}, "interpolation": 2}]}, "channel_mapping": {"Points": [{"co": {"Y": -1.0, "X": 1.0}, "interpolation": 2}]}, "wave_color": {"red": {"Points": [{"co": {"Y": 0.0, "X": 1.0}, "handle_left": {"Y": 1.0, "X": 0.5}, "handle_right": {"Y": 0.0, "X": 0.5}, "interpolation": 0, "handle_type": 0}]}, "blue": {"Points": [{"co": {"Y": 255.0, "X": 1.0}, "handle_left": {"Y": 1.0, "X": 0.5}, "handle_right": {"Y": 0.0, "X": 0.5}, "interpolation": 0, "handle_type": 0}]}, "green": {"Points": [{"co": {"Y": 123.0, "X": 1.0}, "handle_left": {"Y": 1.0, "X": 0.5}, "handle_right": {"Y": 0.0, "X": 0.5}, "interpolation": 0, "handle_type": 0}]}, "alpha": {"Points": [{"co": {"Y": 255.0, "X": 1.0}, "handle_left": {"Y": 1.0, "X": 0.5}, "handle_right": {"Y": 0.0, "X": 0.5}, "interpolation": 0, "handle_type": 0}]}}, "channel_filter": {"Points": [{"co": {"Y": -1.0, "X": 1.0}, "interpolation": 2}]}, "position": 15.36, "duration": 86400.0}, "key": ["clips", {"id": "QRWUU8C5AG"}], "value": {"shear_x": {"Points": [{"co": {"Y": 0.0, "X": 1.0}, "interpolation": 2}]}, "perspective_c3_x": {"Points": [{"co": {"Y": -1.0, "X": 1.0}, "interpolation": 2}]}, "has_video": {"Points": [{"co": {"Y": -1.0, "X": 1.0}, "interpolation": 2}]}, "start": 0, "crop_x": {"Points": [{"co": {"Y": 0.0, "X": 1.0}, "interpolation": 2}]}, "anchor": 0, "has_audio": {"Points": [{"co": {"Y": -1.0, "X": 1.0}, "interpolation": 2}]}, "display": 0, "gravity": 4, "crop_width": {"Points": [{"co": {"Y": -1.0, "X": 1.0}, "interpolation": 2}]}, "crop_y": {"Points": [{"co": {"Y": 0.0, "X": 1.0}, "interpolation": 2}]}, "shear_y": {"Points": [{"co": {"Y": 0.0, "X": 1.0}, "interpolation": 2}]}, "perspective_c1_y": {"Points": [{"co": {"Y": -1.0, "X": 1.0}, "interpolation": 2}]}, "location_y": {"Points": [{"co": {"Y": 0.0, "X": 1.0}, "handle_left": {"Y": 1.0, "X": 0.5}, "handle_right": {"Y": 0.0, "X": 0.5}, "interpolation": 0, "handle_type": 0}, {"co": {"Y": 0.0, "X": 1.0}, "handle_left": {"Y": 1.0, "X": 0.5}, "handle_type": 0, "handle_right": {"Y": 0.0, "X": 0.5}, "interpolation": 0}, {"co": {"Y": 0.0, "X": 25.0}, "handle_left": {"Y": 1.0, "X": 0.5}, "handle_type": 0, "handle_right": {"Y": 0.0, "X": 0.5}, "interpolation": 0}, {"co": {"Y": 0.0, "X": 217.0}, "handle_left": {"Y": 1.0, "X": 0.5}, "handle_right": {"Y": 0.0, "X": 0.5}, "interpolation": 0, "handle_type": 0}, {"co": {"Y": 0.0, "X": 241.0}, "handle_left": {"Y": 1.0, "X": 0.5}, "handle_right": {"Y": 0.0, "X": 0.5}, "interpolation": 0, "handle_type": 0}, {"co": {"Y": 0.0, "X": 153.0}, "handle_left": {"Y": 1.0, "X": 0.5}, "handle_type": 0, "handle_right": {"Y": 0.0, "X": 0.5}, "interpolation": 0}, {"co": {"Y": 0.0, "X": 177.0}, "handle_left": {"Y": 1.0, "X": 0.5}, "handle_type": 0, "handle_right": {"Y": 0.0, "X": 0.5}, "interpolation": 0}]}, "effects": [], "scale_x": {"Points": [{"co": {"Y": 1.0, "X": 1.0}, "handle_left": {"Y": 1.0, "X": 0.5}, "handle_right": {"Y": 0.0, "X": 0.5}, "interpolation": 0, "handle_type": 0}]}, "volume": {"Points": [{"co": {"Y": 1.0, "X": 1.0}, "interpolation": 2}]}, "layer": 5, "channel_filter": {"Points": [{"co": {"Y": -1.0, "X": 1.0}, "interpolation": 2}]}, "end": 7.348333333333333, "perspective_c2_y": {"Points": [{"co": {"Y": -1.0, "X": 1.0}, "interpolation": 2}]}, "perspective_c2_x": {"Points": [{"co": {"Y": -1.0, "X": 1.0}, "interpolation": 2}]}, "alpha": {"Points": [{"co": {"Y": 1.0, "X": 1.0}, "interpolation": 2}]}, "file_id": "EYET6E4WCX", "rotation": {"Points": [{"co": {"Y": 0.0, "X": 1.0}, "interpolation": 2}]}, "crop_height": {"Points": [{"co": {"Y": -1.0, "X": 1.0}, "interpolation": 2}]}, "scale": 1, "waveform": false, "perspective_c4_x": {"Points": [{"co": {"Y": -1.0, "X": 1.0}, "interpolation": 2}]}, "time": {"Points": [{"co": {"Y": 1.0, "X": 1.0}, "interpolation": 2}]}, "location_x": {"Points": [{"co": {"Y": 0.0, "X": 1.0}, "handle_left": {"Y": 1.0, "X": 0.5}, "handle_right": {"Y": 0.0, "X": 0.5}, "interpolation": 0, "handle_type": 0}, {"co": {"Y": 1.0, "X": 1.0}, "handle_left": {"Y": 1.0, "X": 0.5}, "handle_type": 0, "handle_right": {"Y": 0.0, "X": 0.5}, "interpolation": 0}, {"co": {"Y": 0.0, "X": 25.0}, "handle_left": {"Y": 1.0, "X": 0.5}, "handle_type": 0, "handle_right": {"Y": 0.0, "X": 0.5}, "interpolation": 0}, {"co": {"Y": 0.0, "X": 217.0}, "handle_left": {"Y": 1.0, "X": 0.5}, "handle_right": {"Y": 0.0, "X": 0.5}, "interpolation": 0, "handle_type": 0}, {"co": {"Y": -1.0, "X": 241.0}, "handle_left": {"Y": 1.0, "X": 0.5}, "handle_right": {"Y": 0.0, "X": 0.5}, "interpolation": 0, "handle_type": 0}, {"co": {"Y": 0.0, "X": 153.0}, "handle_left": {"Y": 1.0, "X": 0.5}, "handle_type": 0, "handle_right": {"Y": 0.0, "X": 0.5}, "interpolation": 0}, {"co": {"Y": -1.0, "X": 177.0}, "handle_left": {"Y": 1.0, "X": 0.5}, "handle_type": 0, "handle_right": {"Y": 0.0, "X": 0.5}, "interpolation": 0}]}, "title": "intro.png", "id": "QRWUU8C5AG", "perspective_c3_y": {"Points": [{"co": {"Y": -1.0, "X": 1.0}, "interpolation": 2}]}, "image": "/home/milind/.openshot_qt/thumbnail/EYET6E4WCX.png", "scale_y": {"Points": [{"co": {"Y": 1.0, "X": 1.0}, "handle_left": {"Y": 1.0, "X": 0.5}, "handle_right": {"Y": 0.0, "X": 0.5}, "interpolation": 0, "handle_type": 0}]}, "perspective_c1_x": {"Points": [{"co": {"Y": -1.0, "X": 1.0}, "interpolation": 2}]}, "perspective_c4_y": {"Points": [{"co": {"Y": -1.0, "X": 1.0}, "interpolation": 2}]}, "channel_mapping": {"Points": [{"co": {"Y": -1.0, "X": 1.0}, "interpolation": 2}]}, "wave_color": {"red": {"Points": [{"co": {"Y": 0.0, "X": 1.0}, "handle_left": {"Y": 1.0, "X": 0.5}, "handle_right": {"Y": 0.0, "X": 0.5}, "interpolation": 0, "handle_type": 0}]}, "blue": {"Points": [{"co": {"Y": 255.0, "X": 1.0}, "handle_left": {"Y": 1.0, "X": 0.5}, "handle_right": {"Y": 0.0, "X": 0.5}, "interpolation": 0, "handle_type": 0}]}, "green": {"Points": [{"co": {"Y": 123.0, "X": 1.0}, "handle_left": {"Y": 1.0, "X": 0.5}, "handle_right": {"Y": 0.0, "X": 0.5}, "interpolation": 0, "handle_type": 0}]}, "alpha": {"Points": [{"co": {"Y": 255.0, "X": 1.0}, "handle_left": {"Y": 1.0, "X": 0.5}, "handle_right": {"Y": 0.0, "X": 0.5}, "interpolation": 0, "handle_type": 0}]}}, "position": 15.36, "duration": 86400.0}, "partial": false}, {"type": "insert", "old_values": [{"has_video": true, "interlaced_frame": false, "height": 169, "acodec": "", "audio_bit_rate": 0, "media_type": "image", "pixel_ratio": {"den": 1, "num": 1}, "type": "QtImageReader", "file_size": "446836", "audio_stream_index": -1, "has_single_image": true, "video_stream_index": -1, "pixel_format": -1, "channels": 0, "vcodec": "", "sample_rate": 0, "channel_layout": 4, "video_bit_rate": 0, "fps": {"den": 1, "num": 30}, "width": 661, "audio_timebase": {"den": 1, "num": 1}, "display_ratio": {"den": 169, "num": 661}, "top_field_first": true, "video_timebase": {"den": 30, "num": 1}, "has_audio": false, "id": "EYET6E4WCX", "duration": 86400.0, "path": "/home/milind/Data/Projects/ProgressCard/intro.png", "video_length": "2592000"}, {"path": "/home/milind/Data/Projects/ProgressCard/Title-02.svg", "has_video": true, "interlaced_frame": false, "height": 3827, "acodec": "", "audio_bit_rate": 0, "media_type": "image", "pixel_ratio": {"den": 1, "num": 1}, "type": "QtImageReader", "file_size": "104140324", "audio_stream_index": -1, "has_single_image": true, "video_stream_index": -1, "pixel_format": -1, "channels": 0, "vcodec": "", "sample_rate": 0, "channel_layout": 4, "video_bit_rate": 0, "fps": {"den": 1, "num": 30}, "width": 6803, "audio_timebase": {"den": 1, "num": 1}, "display_ratio": {"den": 3827, "num": 6803}, "top_field_first": true, "video_timebase": {"den": 30, "num": 1}, "id": "5QW60D58CB", "duration": 86400.0, "has_audio": false, "video_length": "2592000"}, {"path": "/home/milind/Data/Projects/ProgressCard/Title-01.svg", "has_video": true, "interlaced_frame": false, "height": 3827, "acodec": "", "audio_bit_rate": 0, "media_type": "image", "pixel_ratio": {"den": 1, "num": 1}, "type": "QtImageReader", "file_size": "104140324", "audio_stream_index": -1, "has_single_image": true, "video_stream_index": -1, "pixel_format": -1, "channels": 0, "vcodec": "", "sample_rate": 0, "channel_layout": 4, "video_bit_rate": 0, "fps": {"den": 1, "num": 30}, "width": 6803, "audio_timebase": {"den": 1, "num": 1}, "display_ratio": {"den": 3827, "num": 6803}, "top_field_first": true, "video_timebase": {"den": 30, "num": 1}, "id": "RBDOM40FGQ", "duration": 86400.0, "has_audio": false, "video_length": "2592000"}, {"path": "/home/milind/Data/Projects/ProgressCard/Title-03.svg", "has_video": true, "interlaced_frame": false, "height": 3827, "acodec": "", "audio_bit_rate": 0, "media_type": "image", "pixel_ratio": {"den": 1, "num": 1}, "type": "QtImageReader", "file_size": "104140324", "audio_stream_index": -1, "has_single_image": true, "video_stream_index": -1, "pixel_format": -1, "channels": 0, "vcodec": "", "sample_rate": 0, "channel_layout": 4, "video_bit_rate": 0, "fps": {"den": 1, "num": 30}, "width": 6803, "audio_timebase": {"den": 1, "num": 1}, "display_ratio": {"den": 3827, "num": 6803}, "top_field_first": true, "video_timebase": {"den": 30, "num": 1}, "id": "1UGFFUXPZG", "duration": 86400.0, "has_audio": false, "video_length": "2592000"}, {"path": "/home/milind/Data/Projects/ProgressCard/Title-04.svg", "has_video": true, "interlaced_frame": false, "height": 3827, "acodec": "", "audio_bit_rate": 0, "media_type": "image", "pixel_ratio": {"den": 1, "num": 1}, "type": "QtImageReader", "file_size": "104140324", "audio_stream_index": -1, "has_single_image": true, "video_stream_index": -1, "pixel_format": -1, "channels": 0, "vcodec": "", "sample_rate": 0, "channel_layout": 4, "video_bit_rate": 0, "fps": {"den": 1, "num": 30}, "width": 6803, "audio_timebase": {"den": 1, "num": 1}, "display_ratio": {"den": 3827, "num": 6803}, "top_field_first": true, "video_timebase": {"den": 30, "num": 1}, "id": "6B6X3SW6U5", "duration": 86400.0, "has_audio": false, "video_length": "2592000"}, {"has_video": true, "interlaced_frame": false, "height": 3827, "path": "/home/milind/Data/Projects/ProgressCard/Title-05-All Four Titles.svg", "audio_bit_rate": 0, "media_type": "image", "pixel_ratio": {"den": 1, "num": 1}, "type": "QtImageReader", "file_size": "104140324", "audio_stream_index": -1, "has_single_image": true, "video_stream_index": -1, "pixel_format": -1, "channels": 0, "vcodec": "", "sample_rate": 0, "channel_layout": 4, "video_bit_rate": 0, "fps": {"den": 1, "num": 30}, "width": 6803, "audio_timebase": {"den": 1, "num": 1}, "display_ratio": {"den": 3827, "num": 6803}, "top_field_first": true, "video_timebase": {"den": 30, "num": 1}, "has_audio": false, "id": "AR5E0JZFG5", "duration": 86400.0, "acodec": "", "video_length": "2592000"}], "key": ["files"], "value": {"path": "/home/milind/Data/Projects/ProgressCard/01-Make Writer Tamplate.mkv", "has_video": true, "interlaced_frame": false, "height": 768, "acodec": "", "audio_bit_rate": 0, "media_type": "video", "pixel_ratio": {"den": 1, "num": 1}, "type": "FFmpegReader", "file_size": "402439", "audio_stream_index": -1, "has_single_image": false, "video_stream_index": 0, "pixel_format": 0, "channels": 0, "vcodec": "h264", "sample_rate": 0, "channel_layout": 4, "video_bit_rate": 0, "fps": {"den": 1, "num": 25}, "width": 1366, "audio_timebase": {"den": 1, "num": 1}, "display_ratio": {"den": 384, "num": 683}, "top_field_first": true, "video_timebase": {"den": 1000, "num": 1}, "has_audio": false, "id": "EDBUE72MDD", "duration": 47.0, "video_length": "1175"}, "partial": false}, {"type": "insert", "old_values": [{"shear_x": {"Points": [{"co": {"Y": 0.0, "X": 1.0}, "interpolation": 2}]}, "has_video": {"Points": [{"co": {"Y": -1.0, "X": 1.0}, "interpolation": 2}]}, "start": 0.0, "crop_x": {"Points": [{"co": {"Y": 0.0, "X": 1.0}, "interpolation": 2}]}, "anchor": 0, "has_audio": {"Points": [{"co": {"Y": -1.0, "X": 1.0}, "interpolation": 2}]}, "display": 0, "crop_width": {"Points": [{"co": {"Y": -1.0, "X": 1.0}, "interpolation": 2}]}, "scale_x": {"Points": [{"co": {"Y": 1.0, "X": 1.0}, "interpolation": 2}]}, "shear_y": {"Points": [{"co": {"Y": 0.0, "X": 1.0}, "interpolation": 2}]}, "perspective_c1_y": {"Points": [{"co": {"Y": -1.0, "X": 1.0}, "interpolation": 2}]}, "gravity": 4, "effects": [], "crop_y": {"Points": [{"co": {"Y": 0.0, "X": 1.0}, "interpolation": 2}]}, "volume": {"Points": [{"co": {"Y": 1.0, "X": 1.0}, "interpolation": 2}]}, "layer": 3, "reader": {"acodec": "", "has_video": true, "interlaced_frame": false, "height": 3827, "has_audio": false, "audio_bit_rate": 0, "duration": 86400.0, "pixel_ratio": {"den": 1, "num": 1}, "type": "QtImageReader", "file_size": "104140324", "audio_stream_index": -1, "has_single_image": true, "video_stream_index": -1, "pixel_format": -1, "channels": 0, "vcodec": "", "sample_rate": 0, "channel_layout": 4, "video_bit_rate": 0, "fps": {"den": 1, "num": 30}, "width": 6803, "audio_timebase": {"den": 1, "num": 1}, "display_ratio": {"den": 3827, "num": 6803}, "top_field_first": true, "video_timebase": {"den": 30, "num": 1}, "path": "/home/milind/Data/Projects/ProgressCard/Title-01.svg", "video_length": "2592000"}, "end": 10.0, "perspective_c2_y": {"Points": [{"co": {"Y": -1.0, "X": 1.0}, "interpolation": 2}]}, "perspective_c2_x": {"Points": [{"co": {"Y": -1.0, "X": 1.0}, "interpolation": 2}]}, "alpha": {"Points": [{"co": {"Y": 1.0, "X": 1.0}, "interpolation": 2}]}, "file_id": "RBDOM40FGQ", "rotation": {"Points": [{"co": {"Y": 0.0, "X": 1.0}, "interpolation": 2}]}, "crop_height": {"Points": [{"co": {"Y": -1.0, "X": 1.0}, "interpolation": 2}]}, "scale": 1, "waveform": false, "perspective_c4_x": {"Points": [{"co": {"Y": -1.0, "X": 1.0}, "interpolation": 2}]}, "time": {"Points": [{"co": {"Y": 1.0, "X": 1.0}, "interpolation": 2}]}, "location_x": {"Points": [{"co": {"Y": 0.0, "X": 1.0}, "interpolation": 2}]}, "title": "Title-01.svg", "perspective_c3_x": {"Points": [{"co": {"Y": -1.0, "X": 1.0}, "interpolation": 2}]}, "id": "B39BCXR0EX", "perspective_c3_y": {"Points": [{"co": {"Y": -1.0, "X": 1.0}, "interpolation": 2}]}, "image": "/home/milind/.openshot_qt/thumbnail/RBDOM40FGQ.png", "scale_y": {"Points": [{"co": {"Y": 1.0, "X": 1.0}, "interpolation": 2}]}, "location_y": {"Points": [{"co": {"Y": 0.0, "X": 1.0}, "interpolation": 2}]}, "perspective_c4_y": {"Points": [{"co": {"Y": -1.0, "X": 1.0}, "interpolation": 2}]}, "channel_mapping": {"Points": [{"co": {"Y": -1.0, "X": 1.0}, "interpolation": 2}]}, "wave_color": {"alpha": {"Points": [{"co": {"Y": 255.0, "X": 1.0}, "handle_left": {"Y": 1.0, "X": 0.5}, "handle_right": {"Y": 0.0, "X": 0.5}, "interpolation": 0, "handle_type": 0}]}, "blue": {"Points": [{"co": {"Y": 255.0, "X": 1.0}, "handle_left": {"Y": 1.0, "X": 0.5}, "handle_right": {"Y": 0.0, "X": 0.5}, "interpolation": 0, "handle_type": 0}]}, "green": {"Points": [{"co": {"Y": 123.0, "X": 1.0}, "handle_left": {"Y": 1.0, "X": 0.5}, "handle_right": {"Y": 0.0, "X": 0.5}, "interpolation": 0, "handle_type": 0}]}, "red": {"Points": [{"co": {"Y": 0.0, "X": 1.0}, "handle_left": {"Y": 1.0, "X": 0.5}, "handle_right": {"Y": 0.0, "X": 0.5}, "interpolation": 0, "handle_type": 0}]}}, "channel_filter": {"Points": [{"co": {"Y": -1.0, "X": 1.0}, "interpolation": 2}]}, "perspective_c1_x": {"Points": [{"co": {"Y": -1.0, "X": 1.0}, "interpolation": 2}]}, "position": 44.58, "duration": 86400.0}, {"shear_x": {"Points": [{"co": {"Y": 0.0, "X": 1.0}, "interpolation": 2}]}, "perspective_c3_x": {"Points": [{"co": {"Y": -1.0, "X": 1.0}, "interpolation": 2}]}, "has_video": {"Points": [{"co": {"Y": -1.0, "X": 1.0}, "interpolation": 2}]}, "start": 0, "crop_x": {"Points": [{"co": {"Y": 0.0, "X": 1.0}, "interpolation": 2}]}, "anchor": 0, "has_audio": {"Points": [{"co": {"Y": -1.0, "X": 1.0}, "interpolation": 2}]}, "volume": {"Points": [{"co": {"Y": 1.0, "X": 1.0}, "interpolation": 2}]}, "gravity": 4, "crop_width": {"Points": [{"co": {"Y": -1.0, "X": 1.0}, "interpolation": 2}]}, "crop_y": {"Points": [{"co": {"Y": 0.0, "X": 1.0}, "interpolation": 2}]}, "shear_y": {"Points": [{"co": {"Y": 0.0, "X": 1.0}, "interpolation": 2}]}, "perspective_c1_y": {"Points": [{"co": {"Y": -1.0, "X": 1.0}, "interpolation": 2}]}, "location_y": {"Points": [{"co": {"Y": 0.0, "X": 1.0}, "handle_left": {"Y": 1.0, "X": 0.5}, "handle_type": 0, "handle_right": {"Y": 0.0, "X": 0.5}, "interpolation": 0}, {"co": {"Y": 0.0, "X": 1.0}, "handle_left": {"Y": 1.0, "X": 0.5}, "handle_right": {"Y": 0.0, "X": 0.5}, "interpolation": 0, "handle_type": 0}, {"co": {"Y": 0.0, "X": 25.0}, "handle_left": {"Y": 1.0, "X": 0.5}, "handle_right": {"Y": 0.0, "X": 0.5}, "interpolation": 0, "handle_type": 0}]}, "effects": [], "scale_x": {"Points": [{"co": {"Y": 1.0, "X": 1.0}, "handle_left": {"Y": 1.0, "X": 0.5}, "handle_type": 0, "handle_right": {"Y": 0.0, "X": 0.5}, "interpolation": 0}]}, "display": 0, "layer": 0, "reader": {"acodec": "", "has_video": true, "interlaced_frame": false, "height": 3827, "has_audio": false, "audio_bit_rate": 0, "duration": 86400.0, "pixel_ratio": {"den": 1, "num": 1}, "type": "QtImageReader", "file_size": "104140324", "audio_stream_index": -1, "has_single_image": true, "video_stream_index": -1, "pixel_format": -1, "channels": 0, "vcodec": "", "sample_rate": 0, "channel_layout": 4, "video_bit_rate": 0, "fps": {"den": 1, "num": 30}, "width": 6803, "audio_timebase": {"den": 1, "num": 1}, "display_ratio": {"den": 3827, "num": 6803}, "top_field_first": true, "video_timebase": {"den": 30, "num": 1}, "path": "/home/milind/Data/Projects/ProgressCard/Title-01.svg", "video_length": "2592000"}, "end": 5.891666666666666, "perspective_c2_y": {"Points": [{"co": {"Y": -1.0, "X": 1.0}, "interpolation": 2}]}, "perspective_c2_x": {"Points": [{"co": {"Y": -1.0, "X": 1.0}, "interpolation": 2}]}, "alpha": {"Points": [{"co": {"Y": 1.0, "X": 1.0}, "interpolation": 2}]}, "file_id": "RBDOM40FGQ", "rotation": {"Points": [{"co": {"Y": 0.0, "X": 1.0}, "interpolation": 2}]}, "crop_height": {"Points": [{"co": {"Y": -1.0, "X": 1.0}, "interpolation": 2}]}, "scale": 1, "waveform": false, "perspective_c4_x": {"Points": [{"co": {"Y": -1.0, "X": 1.0}, "interpolation": 2}]}, "time": {"Points": [{"co": {"Y": 1.0, "X": 1.0}, "interpolation": 2}]}, "location_x": {"Points": [{"co": {"Y": 0.0, "X": 1.0}, "handle_left": {"Y": 1.0, "X": 0.5}, "handle_type": 0, "handle_right": {"Y": 0.0, "X": 0.5}, "interpolation": 0}, {"co": {"Y": 1.0, "X": 1.0}, "handle_left": {"Y": 1.0, "X": 0.5}, "handle_right": {"Y": 0.0, "X": 0.5}, "interpolation": 0, "handle_type": 0}, {"co": {"Y": 0.0, "X": 25.0}, "handle_left": {"Y": 1.0, "X": 0.5}, "handle_right": {"Y": 0.0, "X": 0.5}, "interpolation": 0, "handle_type": 0}]}, "title": "Title-01.svg", "id": "RH0T0F5TSV", "perspective_c3_y": {"Points": [{"co": {"Y": -1.0, "X": 1.0}, "interpolation": 2}]}, "image": "/home/milind/.openshot_qt/thumbnail/RBDOM40FGQ.png", "scale_y": {"Points": [{"co": {"Y": 1.0, "X": 1.0}, "handle_left": {"Y": 1.0, "X": 0.5}, "handle_type": 0, "handle_right": {"Y": 0.0, "X": 0.5}, "interpolation": 0}]}, "perspective_c1_x": {"Points": [{"co": {"Y": -1.0, "X": 1.0}, "interpolation": 2}]}, "perspective_c4_y": {"Points": [{"co": {"Y": -1.0, "X": 1.0}, "interpolation": 2}]}, "channel_mapping": {"Points": [{"co": {"Y": -1.0, "X": 1.0}, "interpolation": 2}]}, "wave_color": {"alpha": {"Points": [{"co": {"Y": 255.0, "X": 1.0}, "handle_left": {"Y": 1.0, "X": 0.5}, "handle_right": {"Y": 0.0, "X": 0.5}, "interpolation": 0, "handle_type": 0}]}, "blue": {"Points": [{"co": {"Y": 255.0, "X": 1.0}, "handle_left": {"Y": 1.0, "X": 0.5}, "handle_right": {"Y": 0.0, "X": 0.5}, "interpolation": 0, "handle_type": 0}]}, "green": {"Points": [{"co": {"Y": 123.0, "X": 1.0}, "handle_left": {"Y": 1.0, "X": 0.5}, "handle_right": {"Y": 0.0, "X": 0.5}, "interpolation": 0, "handle_type": 0}]}, "red": {"Points": [{"co": {"Y": 0.0, "X": 1.0}, "handle_left": {"Y": 1.0, "X": 0.5}, "handle_right": {"Y": 0.0, "X": 0.5}, "interpolation": 0, "handle_type": 0}]}}, "channel_filter": {"Points": [{"co": {"Y": -1.0, "X": 1.0}, "interpolation": 2}]}, "position": 2.4, "duration": 86400.0}, {"shear_x": {"Points": [{"co": {"Y": 0.0, "X": 1.0}, "interpolation": 2}]}, "perspective_c3_x": {"Points": [{"co": {"Y": -1.0, "X": 1.0}, "interpolation": 2}]}, "has_video": {"Points": [{"co": {"Y": -1.0, "X": 1.0}, "interpolation": 2}]}, "start": 0, "crop_x": {"Points": [{"co": {"Y": 0.0, "X": 1.0}, "interpolation": 2}]}, "anchor": 0, "has_audio": {"Points": [{"co": {"Y": -1.0, "X": 1.0}, "interpolation": 2}]}, "volume": {"Points": [{"co": {"Y": 1.0, "X": 1.0}, "interpolation": 2}]}, "gravity": 4, "crop_width": {"Points": [{"co": {"Y": -1.0, "X": 1.0}, "interpolation": 2}]}, "scale_x": {"Points": [{"co": {"Y": 1.0, "X": 1.0}, "interpolation": 2}]}, "shear_y": {"Points": [{"co": {"Y": 0.0, "X": 1.0}, "interpolation": 2}]}, "perspective_c1_y": {"Points": [{"co": {"Y": -1.0, "X": 1.0}, "interpolation": 2}]}, "location_y": {"Points": [{"co": {"Y": 0.0, "X": 1.0}, "interpolation": 2}, {"co": {"Y": 0.0, "X": 1.0}, "handle_left": {"Y": 1.0, "X": 0.5}, "handle_right": {"Y": 0.0, "X": 0.5}, "interpolation": 0, "handle_type": 0}, {"co": {"Y": 0.0, "X": 25.0}, "handle_left": {"Y": 1.0, "X": 0.5}, "handle_right": {"Y": 0.0, "X": 0.5}, "interpolation": 0, "handle_type": 0}]}, "effects": [], "crop_y": {"Points": [{"co": {"Y": 0.0, "X": 1.0}, "interpolation": 2}]}, "display": 0, "layer": 1, "reader": {"acodec": "", "has_video": true, "interlaced_frame": false, "height": 3827, "has_audio": false, "audio_bit_rate": 0, "duration": 86400.0, "pixel_ratio": {"den": 1, "num": 1}, "type": "QtImageReader", "file_size": "104140324", "audio_stream_index": -1, "has_single_image": true, "video_stream_index": -1, "pixel_format": -1, "channels": 0, "vcodec": "", "sample_rate": 0, "channel_layout": 4, "video_bit_rate": 0, "fps": {"den": 1, "num": 30}, "width": 6803, "audio_timebase": {"den": 1, "num": 1}, "display_ratio": {"den": 3827, "num": 6803}, "top_field_first": true, "video_timebase": {"den": 30, "num": 1}, "path": "/home/milind/Data/Projects/ProgressCard/Title-02.svg", "video_length": "2592000"}, "end": 4.661666666666666, "perspective_c2_y": {"Points": [{"co": {"Y": -1.0, "X": 1.0}, "interpolation": 2}]}, "perspective_c2_x": {"Points": [{"co": {"Y": -1.0, "X": 1.0}, "interpolation": 2}]}, "alpha": {"Points": [{"co": {"Y": 1.0, "X": 1.0}, "interpolation": 2}]}, "file_id": "5QW60D58CB", "rotation": {"Points": [{"co": {"Y": 0.0, "X": 1.0}, "interpolation": 2}]}, "crop_height": {"Points": [{"co": {"Y": -1.0, "X": 1.0}, "interpolation": 2}]}, "scale": 1, "waveform": false, "perspective_c4_x": {"Points": [{"co": {"Y": -1.0, "X": 1.0}, "interpolation": 2}]}, "time": {"Points": [{"co": {"Y": 1.0, "X": 1.0}, "interpolation": 2}]}, "location_x": {"Points": [{"co": {"Y": 0.0, "X": 1.0}, "interpolation": 2}, {"co": {"Y": 1.0, "X": 1.0}, "handle_left": {"Y": 1.0, "X": 0.5}, "handle_right": {"Y": 0.0, "X": 0.5}, "interpolation": 0, "handle_type": 0}, {"co": {"Y": 0.0, "X": 25.0}, "handle_left": {"Y": 1.0, "X": 0.5}, "handle_right": {"Y": 0.0, "X": 0.5}, "interpolation": 0, "handle_type": 0}]}, "title": "Title-02.svg", "id": "3OCKSFXMGL", "perspective_c3_y": {"Points": [{"co": {"Y": -1.0, "X": 1.0}, "interpolation": 2}]}, "image": "/home/milind/.openshot_qt/thumbnail/5QW60D58CB.png", "scale_y": {"Points": [{"co": {"Y": 1.0, "X": 1.0}, "interpolation": 2}]}, "perspective_c1_x": {"Points": [{"co": {"Y": -1.0, "X": 1.0}, "interpolation": 2}]}, "perspective_c4_y": {"Points": [{"co": {"Y": -1.0, "X": 1.0}, "interpolation": 2}]}, "channel_mapping": {"Points": [{"co": {"Y": -1.0, "X": 1.0}, "interpolation": 2}]}, "wave_color": {"alpha": {"Points": [{"co": {"Y": 255.0, "X": 1.0}, "handle_left": {"Y": 1.0, "X": 0.5}, "handle_right": {"Y": 0.0, "X": 0.5}, "interpolation": 0, "handle_type": 0}]}, "blue": {"Points": [{"co": {"Y": 255.0, "X": 1.0}, "handle_left": {"Y": 1.0, "X": 0.5}, "handle_right": {"Y": 0.0, "X": 0.5}, "interpolation": 0, "handle_type": 0}]}, "green": {"Points": [{"co": {"Y": 123.0, "X": 1.0}, "handle_left": {"Y": 1.0, "X": 0.5}, "handle_right": {"Y": 0.0, "X": 0.5}, "interpolation": 0, "handle_type": 0}]}, "red": {"Points": [{"co": {"Y": 0.0, "X": 1.0}, "handle_left": {"Y": 1.0, "X": 0.5}, "handle_right": {"Y": 0.0, "X": 0.5}, "interpolation": 0, "handle_type": 0}]}}, "channel_filter": {"Points": [{"co": {"Y": -1.0, "X": 1.0}, "interpolation": 2}]}, "position": 3.63, "duration": 86400.0}, {"shear_x": {"Points": [{"co": {"Y": 0.0, "X": 1.0}, "interpolation": 2}]}, "perspective_c3_x": {"Points": [{"co": {"Y": -1.0, "X": 1.0}, "interpolation": 2}]}, "has_video": {"Points": [{"co": {"Y": -1.0, "X": 1.0}, "interpolation": 2}]}, "start": 0, "crop_x": {"Points": [{"co": {"Y": 0.0, "X": 1.0}, "interpolation": 2}]}, "anchor": 0, "has_audio": {"Points": [{"co": {"Y": -1.0, "X": 1.0}, "interpolation": 2}]}, "volume": {"Points": [{"co": {"Y": 1.0, "X": 1.0}, "interpolation": 2}]}, "gravity": 4, "crop_width": {"Points": [{"co": {"Y": -1.0, "X": 1.0}, "interpolation": 2}]}, "scale_x": {"Points": [{"co": {"Y": 1.0, "X": 1.0}, "interpolation": 2}]}, "shear_y": {"Points": [{"co": {"Y": 0.0, "X": 1.0}, "interpolation": 2}]}, "perspective_c1_y": {"Points": [{"co": {"Y": -1.0, "X": 1.0}, "interpolation": 2}]}, "location_y": {"Points": [{"co": {"Y": 0.0, "X": 1.0}, "interpolation": 2}, {"co": {"Y": 0.0, "X": 1.0}, "handle_left": {"Y": 1.0, "X": 0.5}, "handle_right": {"Y": 0.0, "X": 0.5}, "interpolation": 0, "handle_type": 0}, {"co": {"Y": 0.0, "X": 25.0}, "handle_left": {"Y": 1.0, "X": 0.5}, "handle_right": {"Y": 0.0, "X": 0.5}, "interpolation": 0, "handle_type": 0}]}, "effects": [], "crop_y": {"Points": [{"co": {"Y": 0.0, "X": 1.0}, "interpolation": 2}]}, "display": 0, "layer": 2, "reader": {"acodec": "", "has_video": true, "interlaced_frame": false, "height": 3827, "has_audio": false, "audio_bit_rate": 0, "duration": 86400.0, "pixel_ratio": {"den": 1, "num": 1}, "type": "QtImageReader", "file_size": "104140324", "audio_stream_index": -1, "has_single_image": true, "video_stream_index": -1, "pixel_format": -1, "channels": 0, "vcodec": "", "sample_rate": 0, "channel_layout": 4, "video_bit_rate": 0, "fps": {"den": 1, "num": 30}, "width": 6803, "audio_timebase": {"den": 1, "num": 1}, "display_ratio": {"den": 3827, "num": 6803}, "top_field_first": true, "video_timebase": {"den": 30, "num": 1}, "path": "/home/milind/Data/Projects/ProgressCard/Title-03.svg", "video_length": "2592000"}, "end": 3.3116666666666665, "perspective_c2_y": {"Points": [{"co": {"Y": -1.0, "X": 1.0}, "interpolation": 2}]}, "perspective_c2_x": {"Points": [{"co": {"Y": -1.0, "X": 1.0}, "interpolation": 2}]}, "alpha": {"Points": [{"co": {"Y": 1.0, "X": 1.0}, "interpolation": 2}]}, "file_id": "1UGFFUXPZG", "rotation": {"Points": [{"co": {"Y": 0.0, "X": 1.0}, "interpolation": 2}]}, "crop_height": {"Points": [{"co": {"Y": -1.0, "X": 1.0}, "interpolation": 2}]}, "scale": 1, "waveform": false, "perspective_c4_x": {"Points": [{"co": {"Y": -1.0, "X": 1.0}, "interpolation": 2}]}, "time": {"Points": [{"co": {"Y": 1.0, "X": 1.0}, "interpolation": 2}]}, "location_x": {"Points": [{"co": {"Y": 0.0, "X": 1.0}, "interpolation": 2}, {"co": {"Y": 1.0, "X": 1.0}, "handle_left": {"Y": 1.0, "X": 0.5}, "handle_right": {"Y": 0.0, "X": 0.5}, "interpolation": 0, "handle_type": 0}, {"co": {"Y": 0.0, "X": 25.0}, "handle_left": {"Y": 1.0, "X": 0.5}, "handle_right": {"Y": 0.0, "X": 0.5}, "interpolation": 0, "handle_type": 0}]}, "title": "Title-03.svg", "id": "DRRWM84D3O", "perspective_c3_y": {"Points": [{"co": {"Y": -1.0, "X": 1.0}, "interpolation": 2}]}, "image": "/home/milind/.openshot_qt/thumbnail/1UGFFUXPZG.png", "scale_y": {"Points": [{"co": {"Y": 1.0, "X": 1.0}, "interpolation": 2}]}, "perspective_c1_x": {"Points": [{"co": {"Y": -1.0, "X": 1.0}, "interpolation": 2}]}, "perspective_c4_y": {"Points": [{"co": {"Y": -1.0, "X": 1.0}, "interpolation": 2}]}, "channel_mapping": {"Points": [{"co": {"Y": -1.0, "X": 1.0}, "interpolation": 2}]}, "wave_color": {"alpha": {"Points": [{"co": {"Y": 255.0, "X": 1.0}, "handle_left": {"Y": 1.0, "X": 0.5}, "handle_right": {"Y": 0.0, "X": 0.5}, "interpolation": 0, "handle_type": 0}]}, "blue": {"Points": [{"co": {"Y": 255.0, "X": 1.0}, "handle_left": {"Y": 1.0, "X": 0.5}, "handle_right": {"Y": 0.0, "X": 0.5}, "interpolation": 0, "handle_type": 0}]}, "green": {"Points": [{"co": {"Y": 123.0, "X": 1.0}, "handle_left": {"Y": 1.0, "X": 0.5}, "handle_right": {"Y": 0.0, "X": 0.5}, "interpolation": 0, "handle_type": 0}]}, "red": {"Points": [{"co": {"Y": 0.0, "X": 1.0}, "handle_left": {"Y": 1.0, "X": 0.5}, "handle_right": {"Y": 0.0, "X": 0.5}, "interpolation": 0, "handle_type": 0}]}}, "channel_filter": {"Points": [{"co": {"Y": -1.0, "X": 1.0}, "interpolation": 2}]}, "position": 4.9799999999999995, "duration": 86400.0}, {"shear_x": {"Points": [{"co": {"Y": 0.0, "X": 1.0}, "interpolation": 2}]}, "perspective_c3_x": {"Points": [{"co": {"Y": -1.0, "X": 1.0}, "interpolation": 2}]}, "has_video": {"Points": [{"co": {"Y": -1.0, "X": 1.0}, "interpolation": 2}]}, "start": 0, "crop_x": {"Points": [{"co": {"Y": 0.0, "X": 1.0}, "interpolation": 2}]}, "anchor": 0, "has_audio": {"Points": [{"co": {"Y": -1.0, "X": 1.0}, "interpolation": 2}]}, "volume": {"Points": [{"co": {"Y": 1.0, "X": 1.0}, "interpolation": 2}]}, "gravity": 4, "crop_width": {"Points": [{"co": {"Y": -1.0, "X": 1.0}, "interpolation": 2}]}, "scale_x": {"Points": [{"co": {"Y": 1.0, "X": 1.0}, "interpolation": 2}]}, "shear_y": {"Points": [{"co": {"Y": 0.0, "X": 1.0}, "interpolation": 2}]}, "perspective_c1_y": {"Points": [{"co": {"Y": -1.0, "X": 1.0}, "interpolation": 2}]}, "location_y": {"Points": [{"co": {"Y": 0.0, "X": 1.0}, "interpolation": 2}, {"co": {"Y": 0.0, "X": 1.0}, "handle_left": {"Y": 1.0, "X": 0.5}, "handle_right": {"Y": 0.0, "X": 0.5}, "interpolation": 0, "handle_type": 0}, {"co": {"Y": 0.0, "X": 25.0}, "handle_left": {"Y": 1.0, "X": 0.5}, "handle_right": {"Y": 0.0, "X": 0.5}, "interpolation": 0, "handle_type": 0}]}, "effects": [], "crop_y": {"Points": [{"co": {"Y": 0.0, "X": 1.0}, "interpolation": 2}]}, "display": 0, "layer": 3, "reader": {"acodec": "", "has_video": true, "interlaced_frame": false, "height": 3827, "has_audio": false, "audio_bit_rate": 0, "duration": 86400.0, "pixel_ratio": {"den": 1, "num": 1}, "type": "QtImageReader", "file_size": "104140324", "audio_stream_index": -1, "has_single_image": true, "video_stream_index": -1, "pixel_format": -1, "channels": 0, "vcodec": "", "sample_rate": 0, "channel_layout": 4, "video_bit_rate": 0, "fps": {"den": 1, "num": 30}, "width": 6803, "audio_timebase": {"den": 1, "num": 1}, "display_ratio": {"den": 3827, "num": 6803}, "top_field_first": true, "video_timebase": {"den": 30, "num": 1}, "path": "/home/milind/Data/Projects/ProgressCard/Title-04.svg", "video_length": "2592000"}, "end": 2.0216666666666665, "perspective_c2_y": {"Points": [{"co": {"Y": -1.0, "X": 1.0}, "interpolation": 2}]}, "perspective_c2_x": {"Points": [{"co": {"Y": -1.0, "X": 1.0}, "interpolation": 2}]}, "alpha": {"Points": [{"co": {"Y": 1.0, "X": 1.0}, "interpolation": 2}]}, "file_id": "6B6X3SW6U5", "rotation": {"Points": [{"co": {"Y": 0.0, "X": 1.0}, "interpolation": 2}]}, "crop_height": {"Points": [{"co": {"Y": -1.0, "X": 1.0}, "interpolation": 2}]}, "scale": 1, "waveform": false, "perspective_c4_x": {"Points": [{"co": {"Y": -1.0, "X": 1.0}, "interpolation": 2}]}, "time": {"Points": [{"co": {"Y": 1.0, "X": 1.0}, "interpolation": 2}]}, "location_x": {"Points": [{"co": {"Y": 0.0, "X": 1.0}, "interpolation": 2}, {"co": {"Y": 1.0, "X": 1.0}, "handle_left": {"Y": 1.0, "X": 0.5}, "handle_right": {"Y": 0.0, "X": 0.5}, "interpolation": 0, "handle_type": 0}, {"co": {"Y": 0.0, "X": 25.0}, "handle_left": {"Y": 1.0, "X": 0.5}, "handle_right": {"Y": 0.0, "X": 0.5}, "interpolation": 0, "handle_type": 0}]}, "title": "Title-04.svg", "id": "173ASVPEMX", "perspective_c3_y": {"Points": [{"co": {"Y": -1.0, "X": 1.0}, "interpolation": 2}]}, "image": "/home/milind/.openshot_qt/thumbnail/6B6X3SW6U5.png", "scale_y": {"Points": [{"co": {"Y": 1.0, "X": 1.0}, "interpolation": 2}]}, "perspective_c1_x": {"Points": [{"co": {"Y": -1.0, "X": 1.0}, "interpolation": 2}]}, "perspective_c4_y": {"Points": [{"co": {"Y": -1.0, "X": 1.0}, "interpolation": 2}]}, "channel_mapping": {"Points": [{"co": {"Y": -1.0, "X": 1.0}, "interpolation": 2}]}, "wave_color": {"alpha": {"Points": [{"co": {"Y": 255.0, "X": 1.0}, "handle_left": {"Y": 1.0, "X": 0.5}, "handle_right": {"Y": 0.0, "X": 0.5}, "interpolation": 0, "handle_type": 0}]}, "blue": {"Points": [{"co": {"Y": 255.0, "X": 1.0}, "handle_left": {"Y": 1.0, "X": 0.5}, "handle_right": {"Y": 0.0, "X": 0.5}, "interpolation": 0, "handle_type": 0}]}, "green": {"Points": [{"co": {"Y": 123.0, "X": 1.0}, "handle_left": {"Y": 1.0, "X": 0.5}, "handle_right": {"Y": 0.0, "X": 0.5}, "interpolation": 0, "handle_type": 0}]}, "red": {"Points": [{"co": {"Y": 0.0, "X": 1.0}, "handle_left": {"Y": 1.0, "X": 0.5}, "handle_right": {"Y": 0.0, "X": 0.5}, "interpolation": 0, "handle_type": 0}]}}, "channel_filter": {"Points": [{"co": {"Y": -1.0, "X": 1.0}, "interpolation": 2}]}, "position": 6.27, "duration": 86400.0}, {"shear_x": {"Points": [{"co": {"Y": 0.0, "X": 1.0}, "interpolation": 2}]}, "perspective_c3_x": {"Points": [{"co": {"Y": -1.0, "X": 1.0}, "interpolation": 2}]}, "has_video": {"Points": [{"co": {"Y": -1.0, "X": 1.0}, "interpolation": 2}]}, "start": 0, "crop_x": {"Points": [{"co": {"Y": 0.0, "X": 1.0}, "interpolation": 2}]}, "anchor": 0, "has_audio": {"Points": [{"co": {"Y": -1.0, "X": 1.0}, "interpolation": 2}]}, "display": 0, "gravity": 4, "crop_width": {"Points": [{"co": {"Y": -1.0, "X": 1.0}, "interpolation": 2}]}, "crop_y": {"Points": [{"co": {"Y": 0.0, "X": 1.0}, "interpolation": 2}]}, "shear_y": {"Points": [{"co": {"Y": 0.0, "X": 1.0}, "interpolation": 2}]}, "perspective_c1_y": {"Points": [{"co": {"Y": -1.0, "X": 1.0}, "interpolation": 2}]}, "location_y": {"Points": [{"co": {"Y": 0.0, "X": 1.0}, "interpolation": 2}, {"co": {"Y": 0.0, "X": 150.0}, "handle_left": {"Y": 1.0, "X": 0.5}, "handle_right": {"Y": 0.0, "X": 0.5}, "interpolation": 0, "handle_type": 0}, {"co": {"Y": 0.0, "X": 174.0}, "handle_left": {"Y": 1.0, "X": 0.5}, "handle_right": {"Y": 0.0, "X": 0.5}, "interpolation": 0, "handle_type": 0}]}, "effects": [], "scale_x": {"Points": [{"co": {"Y": 1.0, "X": 1.0}, "interpolation": 2}]}, "volume": {"Points": [{"co": {"Y": 1.0, "X": 1.0}, "interpolation": 2}]}, "layer": 4, "reader": {"has_video": true, "interlaced_frame": false, "height": 3827, "acodec": "", "audio_bit_rate": 0, "duration": 86400.0, "pixel_ratio": {"den": 1, "num": 1}, "type": "QtImageReader", "file_size": "104140324", "audio_stream_index": -1, "has_single_image": true, "video_stream_index": -1, "video_bit_rate": 0, "channels": 0, "vcodec": "", "sample_rate": 0, "channel_layout": 4, "pixel_format": -1, "fps": {"den": 1, "num": 30}, "width": 6803, "audio_timebase": {"den": 1, "num": 1}, "display_ratio": {"den": 3827, "num": 6803}, "top_field_first": true, "video_timebase": {"den": 30, "num": 1}, "has_audio": false, "path": "/home/milind/Data/Projects/ProgressCard/Title-05-All Four Titles.svg", "video_length": "2592000"}, "end": 7.220000000000001, "perspective_c2_y": {"Points": [{"co": {"Y": -1.0, "X": 1.0}, "interpolation": 2}]}, "perspective_c2_x": {"Points": [{"co": {"Y": -1.0, "X": 1.0}, "interpolation": 2}]}, "alpha": {"Points": [{"co": {"Y": 1.0, "X": 1.0}, "interpolation": 2}]}, "file_id": "AR5E0JZFG5", "rotation": {"Points": [{"co": {"Y": 0.0, "X": 1.0}, "interpolation": 2}]}, "crop_height": {"Points": [{"co": {"Y": -1.0, "X": 1.0}, "interpolation": 2}]}, "scale": 1, "waveform": false, "perspective_c4_x": {"Points": [{"co": {"Y": -1.0, "X": 1.0}, "interpolation": 2}]}, "time": {"Points": [{"co": {"Y": 1.0, "X": 1.0}, "interpolation": 2}]}, "location_x": {"Points": [{"co": {"Y": 0.0, "X": 1.0}, "interpolation": 2}, {"co": {"Y": 0.0, "X": 150.0}, "handle_left": {"Y": 1.0, "X": 0.5}, "handle_right": {"Y": 0.0, "X": 0.5}, "interpolation": 0, "handle_type": 0}, {"co": {"Y": -1.0, "X": 174.0}, "handle_left": {"Y": 1.0, "X": 0.5}, "handle_right": {"Y": 0.0, "X": 0.5}, "interpolation": 0, "handle_type": 0}]}, "title": "Title-05-All Four Titles.svg", "id": "UTVCSP6ZNL", "perspective_c3_y": {"Points": [{"co": {"Y": -1.0, "X": 1.0}, "interpolation": 2}]}, "image": "/home/milind/.openshot_qt/thumbnail/AR5E0JZFG5.png", "scale_y": {"Points": [{"co": {"Y": 1.0, "X": 1.0}, "interpolation": 2}]}, "perspective_c1_x": {"Points": [{"co": {"Y": -1.0, "X": 1.0}, "interpolation": 2}]}, "perspective_c4_y": {"Points": [{"co": {"Y": -1.0, "X": 1.0}, "interpolation": 2}]}, "channel_mapping": {"Points": [{"co": {"Y": -1.0, "X": 1.0}, "interpolation": 2}]}, "wave_color": {"alpha": {"Points": [{"co": {"Y": 255.0, "X": 1.0}, "handle_left": {"Y": 1.0, "X": 0.5}, "handle_type": 0, "handle_right": {"Y": 0.0, "X": 0.5}, "interpolation": 0}]}, "blue": {"Points": [{"co": {"Y": 255.0, "X": 1.0}, "handle_left": {"Y": 1.0, "X": 0.5}, "handle_type": 0, "handle_right": {"Y": 0.0, "X": 0.5}, "interpolation": 0}]}, "green": {"Points": [{"co": {"Y": 123.0, "X": 1.0}, "handle_left": {"Y": 1.0, "X": 0.5}, "handle_type": 0, "handle_right": {"Y": 0.0, "X": 0.5}, "interpolation": 0}]}, "red": {"Points": [{"co": {"Y": 0.0, "X": 1.0}, "handle_left": {"Y": 1.0, "X": 0.5}, "handle_type": 0, "handle_right": {"Y": 0.0, "X": 0.5}, "interpolation": 0}]}}, "channel_filter": {"Points": [{"co": {"Y": -1.0, "X": 1.0}, "interpolation": 2}]}, "position": 7.529999999999999, "duration": 86400.0}, {"shear_x": {"Points": [{"co": {"Y": 0.0, "X": 1.0}, "interpolation": 2}]}, "perspective_c3_x": {"Points": [{"co": {"Y": -1.0, "X": 1.0}, "interpolation": 2}]}, "has_video": {"Points": [{"co": {"Y": -1.0, "X": 1.0}, "interpolation": 2}]}, "start": 0, "crop_x": {"Points": [{"co": {"Y": 0.0, "X": 1.0}, "interpolation": 2}]}, "anchor": 0, "has_audio": {"Points": [{"co": {"Y": -1.0, "X": 1.0}, "interpolation": 2}]}, "display": 0, "gravity": 4, "crop_width": {"Points": [{"co": {"Y": -1.0, "X": 1.0}, "interpolation": 2}]}, "crop_y": {"Points": [{"co": {"Y": 0.0, "X": 1.0}, "interpolation": 2}]}, "shear_y": {"Points": [{"co": {"Y": 0.0, "X": 1.0}, "interpolation": 2}]}, "perspective_c1_y": {"Points": [{"co": {"Y": -1.0, "X": 1.0}, "interpolation": 2}]}, "location_y": {"Points": [{"co": {"Y": 0.0, "X": 1.0}, "handle_left": {"Y": 1.0, "X": 0.5}, "handle_type": 0, "handle_right": {"Y": 0.0, "X": 0.5}, "interpolation": 0}, {"co": {"Y": 0.0, "X": 1.0}, "handle_left": {"Y": 1.0, "X": 0.5}, "handle_right": {"Y": 0.0, "X": 0.5}, "interpolation": 0, "handle_type": 0}, {"co": {"Y": 0.0, "X": 25.0}, "handle_left": {"Y": 1.0, "X": 0.5}, "handle_right": {"Y": 0.0, "X": 0.5}, "interpolation": 0, "handle_type": 0}, {"co": {"Y": 0.0, "X": 217.0}, "handle_left": {"Y": 1.0, "X": 0.5}, "handle_type": 0, "handle_right": {"Y": 0.0, "X": 0.5}, "interpolation": 0}, {"co": {"Y": 0.0, "X": 241.0}, "handle_left": {"Y": 1.0, "X": 0.5}, "handle_type": 0, "handle_right": {"Y": 0.0, "X": 0.5}, "interpolation": 0}, {"co": {"Y": 0.0, "X": 153.0}, "handle_left": {"Y": 1.0, "X": 0.5}, "handle_right": {"Y": 0.0, "X": 0.5}, "interpolation": 0, "handle_type": 0}, {"co": {"Y": 0.0, "X": 177.0}, "handle_left": {"Y": 1.0, "X": 0.5}, "handle_right": {"Y": 0.0, "X": 0.5}, "interpolation": 0, "handle_type": 0}]}, "effects": [], "scale_x": {"Points": [{"co": {"Y": 1.0, "X": 1.0}, "handle_left": {"Y": 1.0, "X": 0.5}, "handle_type": 0, "handle_right": {"Y": 0.0, "X": 0.5}, "interpolation": 0}]}, "volume": {"Points": [{"co": {"Y": 1.0, "X": 1.0}, "interpolation": 2}]}, "layer": 5, "reader": {"has_video": true, "interlaced_frame": false, "height": 169, "acodec": "", "audio_bit_rate": 0, "duration": 86400.0, "pixel_ratio": {"den": 1, "num": 1}, "type": "QtImageReader", "file_size": "446836", "audio_stream_index": -1, "has_single_image": true, "video_stream_index": -1, "video_bit_rate": 0, "channels": 0, "vcodec": "", "sample_rate": 0, "channel_layout": 4, "pixel_format": -1, "fps": {"den": 1, "num": 30}, "width": 661, "audio_timebase": {"den": 1, "num": 1}, "display_ratio": {"den": 169, "num": 661}, "top_field_first": true, "video_timebase": {"den": 30, "num": 1}, "has_audio": false, "path": "/home/milind/Data/Projects/ProgressCard/intro.png", "video_length": "2592000"}, "end": 7.348333333333333, "perspective_c2_y": {"Points": [{"co": {"Y": -1.0, "X": 1.0}, "interpolation": 2}]}, "perspective_c2_x": {"Points": [{"co": {"Y": -1.0, "X": 1.0}, "interpolation": 2}]}, "alpha": {"Points": [{"co": {"Y": 1.0, "X": 1.0}, "interpolation": 2}]}, "file_id": "EYET6E4WCX", "rotation": {"Points": [{"co": {"Y": 0.0, "X": 1.0}, "interpolation": 2}]}, "crop_height": {"Points": [{"co": {"Y": -1.0, "X": 1.0}, "interpolation": 2}]}, "scale": 1, "waveform": false, "perspective_c4_x": {"Points": [{"co": {"Y": -1.0, "X": 1.0}, "interpolation": 2}]}, "time": {"Points": [{"co": {"Y": 1.0, "X": 1.0}, "interpolation": 2}]}, "location_x": {"Points": [{"co": {"Y": 0.0, "X": 1.0}, "handle_left": {"Y": 1.0, "X": 0.5}, "handle_type": 0, "handle_right": {"Y": 0.0, "X": 0.5}, "interpolation": 0}, {"co": {"Y": 1.0, "X": 1.0}, "handle_left": {"Y": 1.0, "X": 0.5}, "handle_right": {"Y": 0.0, "X": 0.5}, "interpolation": 0, "handle_type": 0}, {"co": {"Y": 0.0, "X": 25.0}, "handle_left": {"Y": 1.0, "X": 0.5}, "handle_right": {"Y": 0.0, "X": 0.5}, "interpolation": 0, "handle_type": 0}, {"co": {"Y": 0.0, "X": 217.0}, "handle_left": {"Y": 1.0, "X": 0.5}, "handle_type": 0, "handle_right": {"Y": 0.0, "X": 0.5}, "interpolation": 0}, {"co": {"Y": -1.0, "X": 241.0}, "handle_left": {"Y": 1.0, "X": 0.5}, "handle_type": 0, "handle_right": {"Y": 0.0, "X": 0.5}, "interpolation": 0}, {"co": {"Y": 0.0, "X": 153.0}, "handle_left": {"Y": 1.0, "X": 0.5}, "handle_right": {"Y": 0.0, "X": 0.5}, "interpolation": 0, "handle_type": 0}, {"co": {"Y": -1.0, "X": 177.0}, "handle_left": {"Y": 1.0, "X": 0.5}, "handle_right": {"Y": 0.0, "X": 0.5}, "interpolation": 0, "handle_type": 0}]}, "title": "intro.png", "id": "QRWUU8C5AG", "perspective_c3_y": {"Points": [{"co": {"Y": -1.0, "X": 1.0}, "interpolation": 2}]}, "image": "/home/milind/.openshot_qt/thumbnail/EYET6E4WCX.png", "scale_y": {"Points": [{"co": {"Y": 1.0, "X": 1.0}, "handle_left": {"Y": 1.0, "X": 0.5}, "handle_type": 0, "handle_right": {"Y": 0.0, "X": 0.5}, "interpolation": 0}]}, "perspective_c1_x": {"Points": [{"co": {"Y": -1.0, "X": 1.0}, "interpolation": 2}]}, "perspective_c4_y": {"Points": [{"co": {"Y": -1.0, "X": 1.0}, "interpolation": 2}]}, "channel_mapping": {"Points": [{"co": {"Y": -1.0, "X": 1.0}, "interpolation": 2}]}, "wave_color": {"alpha": {"Points": [{"co": {"Y": 255.0, "X": 1.0}, "handle_left": {"Y": 1.0, "X": 0.5}, "handle_type": 0, "handle_right": {"Y": 0.0, "X": 0.5}, "interpolation": 0}]}, "blue": {"Points": [{"co": {"Y": 255.0, "X": 1.0}, "handle_left": {"Y": 1.0, "X": 0.5}, "handle_type": 0, "handle_right": {"Y": 0.0, "X": 0.5}, "interpolation": 0}]}, "green": {"Points": [{"co": {"Y": 123.0, "X": 1.0}, "handle_left": {"Y": 1.0, "X": 0.5}, "handle_type": 0, "handle_right": {"Y": 0.0, "X": 0.5}, "interpolation": 0}]}, "red": {"Points": [{"co": {"Y": 0.0, "X": 1.0}, "handle_left": {"Y": 1.0, "X": 0.5}, "handle_type": 0, "handle_right": {"Y": 0.0, "X": 0.5}, "interpolation": 0}]}}, "channel_filter": {"Points": [{"co": {"Y": -1.0, "X": 1.0}, "interpolation": 2}]}, "position": 15.36, "duration": 86400.0}], "key": ["clips"], "value": {"shear_x": {"Points": [{"co": {"Y": 0.0, "X": 1.0}, "interpolation": 2}]}, "layer": 5, "has_video": {"Points": [{"co": {"Y": -1.0, "X": 1.0}, "interpolation": 2}]}, "start": 0, "crop_x": {"Points": [{"co": {"Y": 0.0, "X": 1.0}, "interpolation": 2}]}, "anchor": 0, "has_audio": {"Points": [{"co": {"Y": -1.0, "X": 1.0}, "interpolation": 2}]}, "display": 0, "crop_width": {"Points": [{"co": {"Y": -1.0, "X": 1.0}, "interpolation": 2}]}, "crop_y": {"Points": [{"co": {"Y": 0.0, "X": 1.0}, "interpolation": 2}]}, "wave_color": {"red": {"Points": [{"co": {"Y": 0.0, "X": 1.0}, "handle_left": {"Y": 1.0, "X": 0.5}, "handle_right": {"Y": 0.0, "X": 0.5}, "interpolation": 0, "handle_type": 0}]}, "blue": {"Points": [{"co": {"Y": 255.0, "X": 1.0}, "handle_left": {"Y": 1.0, "X": 0.5}, "handle_right": {"Y": 0.0, "X": 0.5}, "interpolation": 0, "handle_type": 0}]}, "green": {"Points": [{"co": {"Y": 123.0, "X": 1.0}, "handle_left": {"Y": 1.0, "X": 0.5}, "handle_right": {"Y": 0.0, "X": 0.5}, "interpolation": 0, "handle_type": 0}]}, "alpha": {"Points": [{"co": {"Y": 255.0, "X": 1.0}, "handle_left": {"Y": 1.0, "X": 0.5}, "handle_right": {"Y": 0.0, "X": 0.5}, "interpolation": 0, "handle_type": 0}]}}, "shear_y": {"Points": [{"co": {"Y": 0.0, "X": 1.0}, "interpolation": 2}]}, "perspective_c1_y": {"Points": [{"co": {"Y": -1.0, "X": 1.0}, "interpolation": 2}]}, "location_y": {"Points": [{"co": {"Y": 0.0, "X": 1.0}, "interpolation": 2}]}, "effects": [], "scale_x": {"Points": [{"co": {"Y": 1.0, "X": 1.0}, "interpolation": 2}]}, "volume": {"Points": [{"co": {"Y": 1.0, "X": 1.0}, "interpolation": 2}]}, "perspective_c3_x": {"Points": [{"co": {"Y": -1.0, "X": 1.0}, "interpolation": 2}]}, "reader": {"path": "/home/milind/Data/Projects/ProgressCard/01-Make Writer Tamplate.mkv", "has_video": true, "interlaced_frame": false, "height": 768, "acodec": "", "audio_bit_rate": 0, "pixel_ratio": {"den": 1, "num": 1}, "type": "FFmpegReader", "file_size": "402439", "audio_stream_index": -1, "has_single_image": false, "video_stream_index": 0, "pixel_format": 0, "channels": 0, "vcodec": "h264", "sample_rate": 0, "channel_layout": 4, "video_bit_rate": 0, "fps": {"den": 1, "num": 25}, "width": 1366, "audio_timebase": {"den": 1, "num": 1}, "display_ratio": {"den": 384, "num": 683}, "top_field_first": true, "video_timebase": {"den": 1000, "num": 1}, "has_audio": false, "duration": 47.0, "video_length": "1175"}, "end": 47, "perspective_c2_y": {"Points": [{"co": {"Y": -1.0, "X": 1.0}, "interpolation": 2}]}, "perspective_c2_x": {"Points": [{"co": {"Y": -1.0, "X": 1.0}, "interpolation": 2}]}, "alpha": {"Points": [{"co": {"Y": 1.0, "X": 1.0}, "interpolation": 2}]}, "file_id": "EDBUE72MDD", "rotation": {"Points": [{"co": {"Y": 0.0, "X": 1.0}, "interpolation": 2}]}, "crop_height": {"Points": [{"co": {"Y": -1.0, "X": 1.0}, "interpolation": 2}]}, "scale": 1, "perspective_c4_x": {"Points": [{"co": {"Y": -1.0, "X": 1.0}, "interpolation": 2}]}, "waveform": false, "time": {"Points": [{"co": {"Y": 1.0, "X": 1.0}, "interpolation": 2}]}, "location_x": {"Points": [{"co": {"Y": 0.0, "X": 1.0}, "interpolation": 2}]}, "title": "01-Make Writer Tamplate.mkv", "perspective_c3_y": {"Points": [{"co": {"Y": -1.0, "X": 1.0}, "interpolation": 2}]}, "id": "LRBT5R947E", "gravity": 4, "image": "/home/milind/.openshot_qt/thumbnail/EDBUE72MDD.png", "scale_y": {"Points": [{"co": {"Y": 1.0, "X": 1.0}, "interpolation": 2}]}, "perspective_c1_x": {"Points": [{"co": {"Y": -1.0, "X": 1.0}, "interpolation": 2}]}, "perspective_c4_y": {"Points": [{"co": {"Y": -1.0, "X": 1.0}, "interpolation": 2}]}, "channel_mapping": {"Points": [{"co": {"Y": -1.0, "X": 1.0}, "interpolation": 2}]}, "channel_filter": {"Points": [{"co": {"Y": -1.0, "X": 1.0}, "interpolation": 2}]}, "position": 22.708333333333332, "duration": 47.0}, "partial": false}, {"type": "update", "old_values": {"perspective_c3_x": {"Points": [{"co": {"Y": -1.0, "X": 1.0}, "interpolation": 2}]}, "has_video": {"Points": [{"co": {"Y": -1.0, "X": 1.0}, "interpolation": 2}]}, "start": 0.0, "crop_x": {"Points": [{"co": {"Y": 0.0, "X": 1.0}, "interpolation": 2}]}, "anchor": 0, "duration": 47.0, "volume": {"Points": [{"co": {"Y": 1.0, "X": 1.0}, "interpolation": 2}]}, "crop_width": {"Points": [{"co": {"Y": -1.0, "X": 1.0}, "interpolation": 2}]}, "crop_y": {"Points": [{"co": {"Y": 0.0, "X": 1.0}, "interpolation": 2}]}, "rotation": {"Points": [{"co": {"Y": 0.0, "X": 1.0}, "interpolation": 2}]}, "perspective_c1_y": {"Points": [{"co": {"Y": -1.0, "X": 1.0}, "interpolation": 2}]}, "gravity": 4, "effects": [], "scale_x": {"Points": [{"co": {"Y": 1.0, "X": 1.0}, "interpolation": 2}]}, "display": 0, "shear_x": {"Points": [{"co": {"Y": 0.0, "X": 1.0}, "interpolation": 2}]}, "reader": {"has_video": true, "interlaced_frame": false, "height": 768, "acodec": "", "audio_bit_rate": 0, "duration": 47.0, "pixel_ratio": {"den": 1, "num": 1}, "type": "FFmpegReader", "file_size": "402439", "audio_stream_index": -1, "has_single_image": false, "video_stream_index": 0, "video_bit_rate": 0, "channels": 0, "vcodec": "h264", "sample_rate": 0, "channel_layout": 4, "pixel_format": 0, "fps": {"den": 1, "num": 25}, "width": 1366, "audio_timebase": {"den": 1, "num": 1}, "display_ratio": {"den": 384, "num": 683}, "top_field_first": true, "video_timebase": {"den": 1000, "num": 1}, "has_audio": false, "path": "/home/milind/Data/Projects/ProgressCard/01-Make Writer Tamplate.mkv", "video_length": "1175"}, "end": 47.0, "perspective_c2_y": {"Points": [{"co": {"Y": -1.0, "X": 1.0}, "interpolation": 2}]}, "perspective_c2_x": {"Points": [{"co": {"Y": -1.0, "X": 1.0}, "interpolation": 2}]}, "layer": 5, "alpha": {"Points": [{"co": {"Y": 1.0, "X": 1.0}, "interpolation": 2}]}, "file_id": "EDBUE72MDD", "shear_y": {"Points": [{"co": {"Y": 0.0, "X": 1.0}, "interpolation": 2}]}, "crop_height": {"Points": [{"co": {"Y": -1.0, "X": 1.0}, "interpolation": 2}]}, "scale": 1, "perspective_c4_x": {"Points": [{"co": {"Y": -1.0, "X": 1.0}, "interpolation": 2}]}, "waveform": false, "time": {"Points": [{"co": {"Y": 1.0, "X": 1.0}, "interpolation": 2}]}, "location_x": {"Points": [{"co": {"Y": 0.0, "X": 1.0}, "interpolation": 2}]}, "title": "01-Make Writer Tamplate.mkv", "id": "LRBT5R947E", "perspective_c3_y": {"Points": [{"co": {"Y": -1.0, "X": 1.0}, "interpolation": 2}]}, "image": "/home/milind/.openshot_qt/thumbnail/EDBUE72MDD.png", "scale_y": {"Points": [{"co": {"Y": 1.0, "X": 1.0}, "interpolation": 2}]}, "location_y": {"Points": [{"co": {"Y": 0.0, "X": 1.0}, "interpolation": 2}]}, "perspective_c4_y": {"Points": [{"co": {"Y": -1.0, "X": 1.0}, "interpolation": 2}]}, "channel_mapping": {"Points": [{"co": {"Y": -1.0, "X": 1.0}, "interpolation": 2}]}, "wave_color": {"alpha": {"Points": [{"co": {"Y": 255.0, "X": 1.0}, "handle_left": {"Y": 1.0, "X": 0.5}, "handle_type": 0, "handle_right": {"Y": 0.0, "X": 0.5}, "interpolation": 0}]}, "blue": {"Points": [{"co": {"Y": 255.0, "X": 1.0}, "handle_left": {"Y": 1.0, "X": 0.5}, "handle_type": 0, "handle_right": {"Y": 0.0, "X": 0.5}, "interpolation": 0}]}, "green": {"Points": [{"co": {"Y": 123.0, "X": 1.0}, "handle_left": {"Y": 1.0, "X": 0.5}, "handle_type": 0, "handle_right": {"Y": 0.0, "X": 0.5}, "interpolation": 0}]}, "red": {"Points": [{"co": {"Y": 0.0, "X": 1.0}, "handle_left": {"Y": 1.0, "X": 0.5}, "handle_type": 0, "handle_right": {"Y": 0.0, "X": 0.5}, "interpolation": 0}]}}, "channel_filter": {"Points": [{"co": {"Y": -1.0, "X": 1.0}, "interpolation": 2}]}, "perspective_c1_x": {"Points": [{"co": {"Y": -1.0, "X": 1.0}, "interpolation": 2}]}, "position": 14.249999999999998, "has_audio": {"Points": [{"co": {"Y": -1.0, "X": 1.0}, "interpolation": 2}]}}, "key": ["clips", {"id": "LRBT5R947E"}], "value": {"id": "LRBT5R947E", "layer": 5, "start": 0, "image": "/home/milind/.openshot_qt/thumbnail/EDBUE72MDD.png", "end": 47, "position": 22.708333333333332}, "partial": false}, {"type": "delete", "old_values": {"shear_x": {"Points": [{"co": {"Y": 0.0, "X": 1.0}, "interpolation": 2}]}, "perspective_c3_x": {"Points": [{"co": {"Y": -1.0, "X": 1.0}, "interpolation": 2}]}, "has_video": {"Points": [{"co": {"Y": -1.0, "X": 1.0}, "interpolation": 2}]}, "start": 0, "crop_x": {"Points": [{"co": {"Y": 0.0, "X": 1.0}, "interpolation": 2}]}, "anchor": 0, "has_audio": {"Points": [{"co": {"Y": -1.0, "X": 1.0}, "interpolation": 2}]}, "display": 0, "gravity": 4, "crop_width": {"Points": [{"co": {"Y": -1.0, "X": 1.0}, "interpolation": 2}]}, "crop_y": {"Points": [{"co": {"Y": 0.0, "X": 1.0}, "interpolation": 2}]}, "shear_y": {"Points": [{"co": {"Y": 0.0, "X": 1.0}, "interpolation": 2}]}, "perspective_c1_y": {"Points": [{"co": {"Y": -1.0, "X": 1.0}, "interpolation": 2}]}, "location_y": {"Points": [{"co": {"Y": 0.0, "X": 1.0}, "interpolation": 2}]}, "effects": [], "scale_x": {"Points": [{"co": {"Y": 1.0, "X": 1.0}, "interpolation": 2}]}, "volume": {"Points": [{"co": {"Y": 1.0, "X": 1.0}, "interpolation": 2}]}, "layer": 5, "reader": {"has_video": true, "interlaced_frame": false, "height": 768, "acodec": "", "audio_bit_rate": 0, "duration": 47.0, "pixel_ratio": {"den": 1, "num": 1}, "type": "FFmpegReader", "file_size": "402439", "audio_stream_index": -1, "has_single_image": false, "video_stream_index": 0, "video_bit_rate": 0, "channels": 0, "vcodec": "h264", "sample_rate": 0, "channel_layout": 4, "pixel_format": 0, "fps": {"den": 1, "num": 25}, "width": 1366, "audio_timebase": {"den": 1, "num": 1}, "display_ratio": {"den": 384, "num": 683}, "top_field_first": true, "video_timebase": {"den": 1000, "num": 1}, "has_audio": false, "path": "/home/milind/Data/Projects/ProgressCard/01-Make Writer Tamplate.mkv", "video_length": "1175"}, "end": 47, "perspective_c2_y": {"Points": [{"co": {"Y": -1.0, "X": 1.0}, "interpolation": 2}]}, "perspective_c2_x": {"Points": [{"co": {"Y": -1.0, "X": 1.0}, "interpolation": 2}]}, "alpha": {"Points": [{"co": {"Y": 1.0, "X": 1.0}, "interpolation": 2}]}, "file_id": "EDBUE72MDD", "rotation": {"Points": [{"co": {"Y": 0.0, "X": 1.0}, "interpolation": 2}]}, "crop_height": {"Points": [{"co": {"Y": -1.0, "X": 1.0}, "interpolation": 2}]}, "scale": 1, "waveform": false, "perspective_c4_x": {"Points": [{"co": {"Y": -1.0, "X": 1.0}, "interpolation": 2}]}, "time": {"Points": [{"co": {"Y": 1.0, "X": 1.0}, "interpolation": 2}]}, "location_x": {"Points": [{"co": {"Y": 0.0, "X": 1.0}, "interpolation": 2}]}, "title": "01-Make Writer Tamplate.mkv", "id": "LRBT5R947E", "perspective_c3_y": {"Points": [{"co": {"Y": -1.0, "X": 1.0}, "interpolation": 2}]}, "image": "/home/milind/.openshot_qt/thumbnail/EDBUE72MDD.png", "scale_y": {"Points": [{"co": {"Y": 1.0, "X": 1.0}, "interpolation": 2}]}, "perspective_c1_x": {"Points": [{"co": {"Y": -1.0, "X": 1.0}, "interpolation": 2}]}, "perspective_c4_y": {"Points": [{"co": {"Y": -1.0, "X": 1.0}, "interpolation": 2}]}, "channel_mapping": {"Points": [{"co": {"Y": -1.0, "X": 1.0}, "interpolation": 2}]}, "wave_color": {"alpha": {"Points": [{"co": {"Y": 255.0, "X": 1.0}, "handle_left": {"Y": 1.0, "X": 0.5}, "handle_type": 0, "handle_right": {"Y": 0.0, "X": 0.5}, "interpolation": 0}]}, "blue": {"Points": [{"co": {"Y": 255.0, "X": 1.0}, "handle_left": {"Y": 1.0, "X": 0.5}, "handle_type": 0, "handle_right": {"Y": 0.0, "X": 0.5}, "interpolation": 0}]}, "green": {"Points": [{"co": {"Y": 123.0, "X": 1.0}, "handle_left": {"Y": 1.0, "X": 0.5}, "handle_type": 0, "handle_right": {"Y": 0.0, "X": 0.5}, "interpolation": 0}]}, "red": {"Points": [{"co": {"Y": 0.0, "X": 1.0}, "handle_left": {"Y": 1.0, "X": 0.5}, "handle_type": 0, "handle_right": {"Y": 0.0, "X": 0.5}, "interpolation": 0}]}}, "channel_filter": {"Points": [{"co": {"Y": -1.0, "X": 1.0}, "interpolation": 2}]}, "position": 22.708333333333332, "duration": 47.0}, "key": ["clips", {"id": "LRBT5R947E"}], "value": null, "partial": false}, {"type": "delete", "old_values": {"has_video": true, "interlaced_frame": false, "height": 768, "acodec": "", "audio_bit_rate": 0, "media_type": "video", "pixel_ratio": {"den": 1, "num": 1}, "type": "FFmpegReader", "file_size": "402439", "audio_stream_index": -1, "has_single_image": false, "video_stream_index": 0, "video_bit_rate": 0, "channels": 0, "vcodec": "h264", "sample_rate": 0, "channel_layout": 4, "pixel_format": 0, "fps": {"den": 1, "num": 25}, "width": 1366, "audio_timebase": {"den": 1, "num": 1}, "display_ratio": {"den": 384, "num": 683}, "top_field_first": true, "video_timebase": {"den": 1000, "num": 1}, "has_audio": false, "id": "EDBUE72MDD", "duration": 47.0, "path": "/home/milind/Data/Projects/ProgressCard/01-Make Writer Tamplate.mkv", "video_length": "1175"}, "key": ["files", {"id": "EDBUE72MDD"}], "value": null, "partial": false}, {"type": "insert", "old_values": [{"has_video": true, "interlaced_frame": false, "height": 169, "acodec": "", "audio_bit_rate": 0, "media_type": "image", "pixel_ratio": {"den": 1, "num": 1}, "type": "QtImageReader", "file_size": "446836", "audio_stream_index": -1, "has_single_image": true, "video_stream_index": -1, "pixel_format": -1, "channels": 0, "vcodec": "", "sample_rate": 0, "channel_layout": 4, "video_bit_rate": 0, "fps": {"den": 1, "num": 30}, "width": 661, "audio_timebase": {"den": 1, "num": 1}, "display_ratio": {"den": 169, "num": 661}, "top_field_first": true, "video_timebase": {"den": 30, "num": 1}, "has_audio": false, "id": "EYET6E4WCX", "duration": 86400.0, "path": "/home/milind/Data/Projects/ProgressCard/intro.png", "video_length": "2592000"}, {"path": "/home/milind/Data/Projects/ProgressCard/Title-02.svg", "has_video": true, "interlaced_frame": false, "height": 3827, "acodec": "", "audio_bit_rate": 0, "media_type": "image", "pixel_ratio": {"den": 1, "num": 1}, "type": "QtImageReader", "file_size": "104140324", "audio_stream_index": -1, "has_single_image": true, "video_stream_index": -1, "pixel_format": -1, "channels": 0, "vcodec": "", "sample_rate": 0, "channel_layout": 4, "video_bit_rate": 0, "fps": {"den": 1, "num": 30}, "width": 6803, "audio_timebase": {"den": 1, "num": 1}, "display_ratio": {"den": 3827, "num": 6803}, "top_field_first": true, "video_timebase": {"den": 30, "num": 1}, "id": "5QW60D58CB", "duration": 86400.0, "has_audio": false, "video_length": "2592000"}, {"path": "/home/milind/Data/Projects/ProgressCard/Title-01.svg", "has_video": true, "interlaced_frame": false, "height": 3827, "acodec": "", "audio_bit_rate": 0, "media_type": "image", "pixel_ratio": {"den": 1, "num": 1}, "type": "QtImageReader", "file_size": "104140324", "audio_stream_index": -1, "has_single_image": true, "video_stream_index": -1, "pixel_format": -1, "channels": 0, "vcodec": "", "sample_rate": 0, "channel_layout": 4, "video_bit_rate": 0, "fps": {"den": 1, "num": 30}, "width": 6803, "audio_timebase": {"den": 1, "num": 1}, "display_ratio": {"den": 3827, "num": 6803}, "top_field_first": true, "video_timebase": {"den": 30, "num": 1}, "id": "RBDOM40FGQ", "duration": 86400.0, "has_audio": false, "video_length": "2592000"}, {"path": "/home/milind/Data/Projects/ProgressCard/Title-03.svg", "has_video": true, "interlaced_frame": false, "height": 3827, "acodec": "", "audio_bit_rate": 0, "media_type": "image", "pixel_ratio": {"den": 1, "num": 1}, "type": "QtImageReader", "file_size": "104140324", "audio_stream_index": -1, "has_single_image": true, "video_stream_index": -1, "pixel_format": -1, "channels": 0, "vcodec": "", "sample_rate": 0, "channel_layout": 4, "video_bit_rate": 0, "fps": {"den": 1, "num": 30}, "width": 6803, "audio_timebase": {"den": 1, "num": 1}, "display_ratio": {"den": 3827, "num": 6803}, "top_field_first": true, "video_timebase": {"den": 30, "num": 1}, "id": "1UGFFUXPZG", "duration": 86400.0, "has_audio": false, "video_length": "2592000"}, {"path": "/home/milind/Data/Projects/ProgressCard/Title-04.svg", "has_video": true, "interlaced_frame": false, "height": 3827, "acodec": "", "audio_bit_rate": 0, "media_type": "image", "pixel_ratio": {"den": 1, "num": 1}, "type": "QtImageReader", "file_size": "104140324", "audio_stream_index": -1, "has_single_image": true, "video_stream_index": -1, "pixel_format": -1, "channels": 0, "vcodec": "", "sample_rate": 0, "channel_layout": 4, "video_bit_rate": 0, "fps": {"den": 1, "num": 30}, "width": 6803, "audio_timebase": {"den": 1, "num": 1}, "display_ratio": {"den": 3827, "num": 6803}, "top_field_first": true, "video_timebase": {"den": 30, "num": 1}, "id": "6B6X3SW6U5", "duration": 86400.0, "has_audio": false, "video_length": "2592000"}, {"has_video": true, "interlaced_frame": false, "height": 3827, "path": "/home/milind/Data/Projects/ProgressCard/Title-05-All Four Titles.svg", "audio_bit_rate": 0, "media_type": "image", "pixel_ratio": {"den": 1, "num": 1}, "type": "QtImageReader", "file_size": "104140324", "audio_stream_index": -1, "has_single_image": true, "video_stream_index": -1, "pixel_format": -1, "channels": 0, "vcodec": "", "sample_rate": 0, "channel_layout": 4, "video_bit_rate": 0, "fps": {"den": 1, "num": 30}, "width": 6803, "audio_timebase": {"den": 1, "num": 1}, "display_ratio": {"den": 3827, "num": 6803}, "top_field_first": true, "video_timebase": {"den": 30, "num": 1}, "has_audio": false, "id": "AR5E0JZFG5", "duration": 86400.0, "acodec": "", "video_length": "2592000"}], "key": ["files"], "value": {"path": "/home/milind/Data/Projects/ProgressCard/06-Create Progress Card Template.mkv", "has_video": true, "interlaced_frame": false, "height": 768, "acodec": "", "audio_bit_rate": 0, "media_type": "video", "pixel_ratio": {"den": 1, "num": 1}, "type": "FFmpegReader", "file_size": "394038", "audio_stream_index": -1, "has_single_image": false, "video_stream_index": 0, "pixel_format": 0, "channels": 0, "vcodec": "h264", "sample_rate": 0, "channel_layout": 4, "video_bit_rate": 0, "fps": {"den": 1, "num": 25}, "width": 1366, "audio_timebase": {"den": 1, "num": 1}, "display_ratio": {"den": 384, "num": 683}, "top_field_first": true, "video_timebase": {"den": 1000, "num": 1}, "has_audio": false, "id": "JH7UWI807B", "duration": 44.0, "video_length": "1100"}, "partial": false}, {"type": "insert", "old_values": [{"shear_x": {"Points": [{"co": {"Y": 0.0, "X": 1.0}, "interpolation": 2}]}, "has_video": {"Points": [{"co": {"Y": -1.0, "X": 1.0}, "interpolation": 2}]}, "start": 0.0, "crop_x": {"Points": [{"co": {"Y": 0.0, "X": 1.0}, "interpolation": 2}]}, "anchor": 0, "has_audio": {"Points": [{"co": {"Y": -1.0, "X": 1.0}, "interpolation": 2}]}, "display": 0, "crop_width": {"Points": [{"co": {"Y": -1.0, "X": 1.0}, "interpolation": 2}]}, "scale_x": {"Points": [{"co": {"Y": 1.0, "X": 1.0}, "interpolation": 2}]}, "shear_y": {"Points": [{"co": {"Y": 0.0, "X": 1.0}, "interpolation": 2}]}, "perspective_c1_y": {"Points": [{"co": {"Y": -1.0, "X": 1.0}, "interpolation": 2}]}, "gravity": 4, "effects": [], "crop_y": {"Points": [{"co": {"Y": 0.0, "X": 1.0}, "interpolation": 2}]}, "volume": {"Points": [{"co": {"Y": 1.0, "X": 1.0}, "interpolation": 2}]}, "layer": 3, "reader": {"acodec": "", "has_video": true, "interlaced_frame": false, "height": 3827, "has_audio": false, "audio_bit_rate": 0, "duration": 86400.0, "pixel_ratio": {"den": 1, "num": 1}, "type": "QtImageReader", "file_size": "104140324", "audio_stream_index": -1, "has_single_image": true, "video_stream_index": -1, "pixel_format": -1, "channels": 0, "vcodec": "", "sample_rate": 0, "channel_layout": 4, "video_bit_rate": 0, "fps": {"den": 1, "num": 30}, "width": 6803, "audio_timebase": {"den": 1, "num": 1}, "display_ratio": {"den": 3827, "num": 6803}, "top_field_first": true, "video_timebase": {"den": 30, "num": 1}, "path": "/home/milind/Data/Projects/ProgressCard/Title-01.svg", "video_length": "2592000"}, "end": 10.0, "perspective_c2_y": {"Points": [{"co": {"Y": -1.0, "X": 1.0}, "interpolation": 2}]}, "perspective_c2_x": {"Points": [{"co": {"Y": -1.0, "X": 1.0}, "interpolation": 2}]}, "alpha": {"Points": [{"co": {"Y": 1.0, "X": 1.0}, "interpolation": 2}]}, "file_id": "RBDOM40FGQ", "rotation": {"Points": [{"co": {"Y": 0.0, "X": 1.0}, "interpolation": 2}]}, "crop_height": {"Points": [{"co": {"Y": -1.0, "X": 1.0}, "interpolation": 2}]}, "scale": 1, "waveform": false, "perspective_c4_x": {"Points": [{"co": {"Y": -1.0, "X": 1.0}, "interpolation": 2}]}, "time": {"Points": [{"co": {"Y": 1.0, "X": 1.0}, "interpolation": 2}]}, "location_x": {"Points": [{"co": {"Y": 0.0, "X": 1.0}, "interpolation": 2}]}, "title": "Title-01.svg", "perspective_c3_x": {"Points": [{"co": {"Y": -1.0, "X": 1.0}, "interpolation": 2}]}, "id": "B39BCXR0EX", "perspective_c3_y": {"Points": [{"co": {"Y": -1.0, "X": 1.0}, "interpolation": 2}]}, "image": "/home/milind/.openshot_qt/thumbnail/RBDOM40FGQ.png", "scale_y": {"Points": [{"co": {"Y": 1.0, "X": 1.0}, "interpolation": 2}]}, "location_y": {"Points": [{"co": {"Y": 0.0, "X": 1.0}, "interpolation": 2}]}, "perspective_c4_y": {"Points": [{"co": {"Y": -1.0, "X": 1.0}, "interpolation": 2}]}, "channel_mapping": {"Points": [{"co": {"Y": -1.0, "X": 1.0}, "interpolation": 2}]}, "wave_color": {"alpha": {"Points": [{"co": {"Y": 255.0, "X": 1.0}, "handle_left": {"Y": 1.0, "X": 0.5}, "handle_right": {"Y": 0.0, "X": 0.5}, "interpolation": 0, "handle_type": 0}]}, "blue": {"Points": [{"co": {"Y": 255.0, "X": 1.0}, "handle_left": {"Y": 1.0, "X": 0.5}, "handle_right": {"Y": 0.0, "X": 0.5}, "interpolation": 0, "handle_type": 0}]}, "green": {"Points": [{"co": {"Y": 123.0, "X": 1.0}, "handle_left": {"Y": 1.0, "X": 0.5}, "handle_right": {"Y": 0.0, "X": 0.5}, "interpolation": 0, "handle_type": 0}]}, "red": {"Points": [{"co": {"Y": 0.0, "X": 1.0}, "handle_left": {"Y": 1.0, "X": 0.5}, "handle_right": {"Y": 0.0, "X": 0.5}, "interpolation": 0, "handle_type": 0}]}}, "channel_filter": {"Points": [{"co": {"Y": -1.0, "X": 1.0}, "interpolation": 2}]}, "perspective_c1_x": {"Points": [{"co": {"Y": -1.0, "X": 1.0}, "interpolation": 2}]}, "position": 44.58, "duration": 86400.0}, {"shear_x": {"Points": [{"co": {"Y": 0.0, "X": 1.0}, "interpolation": 2}]}, "perspective_c3_x": {"Points": [{"co": {"Y": -1.0, "X": 1.0}, "interpolation": 2}]}, "has_video": {"Points": [{"co": {"Y": -1.0, "X": 1.0}, "interpolation": 2}]}, "start": 0, "crop_x": {"Points": [{"co": {"Y": 0.0, "X": 1.0}, "interpolation": 2}]}, "anchor": 0, "has_audio": {"Points": [{"co": {"Y": -1.0, "X": 1.0}, "interpolation": 2}]}, "volume": {"Points": [{"co": {"Y": 1.0, "X": 1.0}, "interpolation": 2}]}, "gravity": 4, "crop_width": {"Points": [{"co": {"Y": -1.0, "X": 1.0}, "interpolation": 2}]}, "crop_y": {"Points": [{"co": {"Y": 0.0, "X": 1.0}, "interpolation": 2}]}, "shear_y": {"Points": [{"co": {"Y": 0.0, "X": 1.0}, "interpolation": 2}]}, "perspective_c1_y": {"Points": [{"co": {"Y": -1.0, "X": 1.0}, "interpolation": 2}]}, "location_y": {"Points": [{"co": {"Y": 0.0, "X": 1.0}, "handle_left": {"Y": 1.0, "X": 0.5}, "handle_type": 0, "handle_right": {"Y": 0.0, "X": 0.5}, "interpolation": 0}, {"co": {"Y": 0.0, "X": 1.0}, "handle_left": {"Y": 1.0, "X": 0.5}, "handle_right": {"Y": 0.0, "X": 0.5}, "interpolation": 0, "handle_type": 0}, {"co": {"Y": 0.0, "X": 25.0}, "handle_left": {"Y": 1.0, "X": 0.5}, "handle_right": {"Y": 0.0, "X": 0.5}, "interpolation": 0, "handle_type": 0}]}, "effects": [], "scale_x": {"Points": [{"co": {"Y": 1.0, "X": 1.0}, "handle_left": {"Y": 1.0, "X": 0.5}, "handle_type": 0, "handle_right": {"Y": 0.0, "X": 0.5}, "interpolation": 0}]}, "display": 0, "layer": 0, "reader": {"acodec": "", "has_video": true, "interlaced_frame": false, "height": 3827, "has_audio": false, "audio_bit_rate": 0, "duration": 86400.0, "pixel_ratio": {"den": 1, "num": 1}, "type": "QtImageReader", "file_size": "104140324", "audio_stream_index": -1, "has_single_image": true, "video_stream_index": -1, "pixel_format": -1, "channels": 0, "vcodec": "", "sample_rate": 0, "channel_layout": 4, "video_bit_rate": 0, "fps": {"den": 1, "num": 30}, "width": 6803, "audio_timebase": {"den": 1, "num": 1}, "display_ratio": {"den": 3827, "num": 6803}, "top_field_first": true, "video_timebase": {"den": 30, "num": 1}, "path": "/home/milind/Data/Projects/ProgressCard/Title-01.svg", "video_length": "2592000"}, "end": 5.891666666666666, "perspective_c2_y": {"Points": [{"co": {"Y": -1.0, "X": 1.0}, "interpolation": 2}]}, "perspective_c2_x": {"Points": [{"co": {"Y": -1.0, "X": 1.0}, "interpolation": 2}]}, "alpha": {"Points": [{"co": {"Y": 1.0, "X": 1.0}, "interpolation": 2}]}, "file_id": "RBDOM40FGQ", "rotation": {"Points": [{"co": {"Y": 0.0, "X": 1.0}, "interpolation": 2}]}, "crop_height": {"Points": [{"co": {"Y": -1.0, "X": 1.0}, "interpolation": 2}]}, "scale": 1, "waveform": false, "perspective_c4_x": {"Points": [{"co": {"Y": -1.0, "X": 1.0}, "interpolation": 2}]}, "time": {"Points": [{"co": {"Y": 1.0, "X": 1.0}, "interpolation": 2}]}, "location_x": {"Points": [{"co": {"Y": 0.0, "X": 1.0}, "handle_left": {"Y": 1.0, "X": 0.5}, "handle_type": 0, "handle_right": {"Y": 0.0, "X": 0.5}, "interpolation": 0}, {"co": {"Y": 1.0, "X": 1.0}, "handle_left": {"Y": 1.0, "X": 0.5}, "handle_right": {"Y": 0.0, "X": 0.5}, "interpolation": 0, "handle_type": 0}, {"co": {"Y": 0.0, "X": 25.0}, "handle_left": {"Y": 1.0, "X": 0.5}, "handle_right": {"Y": 0.0, "X": 0.5}, "interpolation": 0, "handle_type": 0}]}, "title": "Title-01.svg", "id": "RH0T0F5TSV", "perspective_c3_y": {"Points": [{"co": {"Y": -1.0, "X": 1.0}, "interpolation": 2}]}, "image": "/home/milind/.openshot_qt/thumbnail/RBDOM40FGQ.png", "scale_y": {"Points": [{"co": {"Y": 1.0, "X": 1.0}, "handle_left": {"Y": 1.0, "X": 0.5}, "handle_type": 0, "handle_right": {"Y": 0.0, "X": 0.5}, "interpolation": 0}]}, "perspective_c1_x": {"Points": [{"co": {"Y": -1.0, "X": 1.0}, "interpolation": 2}]}, "perspective_c4_y": {"Points": [{"co": {"Y": -1.0, "X": 1.0}, "interpolation": 2}]}, "channel_mapping": {"Points": [{"co": {"Y": -1.0, "X": 1.0}, "interpolation": 2}]}, "wave_color": {"alpha": {"Points": [{"co": {"Y": 255.0, "X": 1.0}, "handle_left": {"Y": 1.0, "X": 0.5}, "handle_right": {"Y": 0.0, "X": 0.5}, "interpolation": 0, "handle_type": 0}]}, "blue": {"Points": [{"co": {"Y": 255.0, "X": 1.0}, "handle_left": {"Y": 1.0, "X": 0.5}, "handle_right": {"Y": 0.0, "X": 0.5}, "interpolation": 0, "handle_type": 0}]}, "green": {"Points": [{"co": {"Y": 123.0, "X": 1.0}, "handle_left": {"Y": 1.0, "X": 0.5}, "handle_right": {"Y": 0.0, "X": 0.5}, "interpolation": 0, "handle_type": 0}]}, "red": {"Points": [{"co": {"Y": 0.0, "X": 1.0}, "handle_left": {"Y": 1.0, "X": 0.5}, "handle_right": {"Y": 0.0, "X": 0.5}, "interpolation": 0, "handle_type": 0}]}}, "channel_filter": {"Points": [{"co": {"Y": -1.0, "X": 1.0}, "interpolation": 2}]}, "position": 2.4, "duration": 86400.0}, {"shear_x": {"Points": [{"co": {"Y": 0.0, "X": 1.0}, "interpolation": 2}]}, "perspective_c3_x": {"Points": [{"co": {"Y": -1.0, "X": 1.0}, "interpolation": 2}]}, "has_video": {"Points": [{"co": {"Y": -1.0, "X": 1.0}, "interpolation": 2}]}, "start": 0, "crop_x": {"Points": [{"co": {"Y": 0.0, "X": 1.0}, "interpolation": 2}]}, "anchor": 0, "has_audio": {"Points": [{"co": {"Y": -1.0, "X": 1.0}, "interpolation": 2}]}, "volume": {"Points": [{"co": {"Y": 1.0, "X": 1.0}, "interpolation": 2}]}, "gravity": 4, "crop_width": {"Points": [{"co": {"Y": -1.0, "X": 1.0}, "interpolation": 2}]}, "scale_x": {"Points": [{"co": {"Y": 1.0, "X": 1.0}, "interpolation": 2}]}, "shear_y": {"Points": [{"co": {"Y": 0.0, "X": 1.0}, "interpolation": 2}]}, "perspective_c1_y": {"Points": [{"co": {"Y": -1.0, "X": 1.0}, "interpolation": 2}]}, "location_y": {"Points": [{"co": {"Y": 0.0, "X": 1.0}, "interpolation": 2}, {"co": {"Y": 0.0, "X": 1.0}, "handle_left": {"Y": 1.0, "X": 0.5}, "handle_right": {"Y": 0.0, "X": 0.5}, "interpolation": 0, "handle_type": 0}, {"co": {"Y": 0.0, "X": 25.0}, "handle_left": {"Y": 1.0, "X": 0.5}, "handle_right": {"Y": 0.0, "X": 0.5}, "interpolation": 0, "handle_type": 0}]}, "effects": [], "crop_y": {"Points": [{"co": {"Y": 0.0, "X": 1.0}, "interpolation": 2}]}, "display": 0, "layer": 1, "reader": {"acodec": "", "has_video": true, "interlaced_frame": false, "height": 3827, "has_audio": false, "audio_bit_rate": 0, "duration": 86400.0, "pixel_ratio": {"den": 1, "num": 1}, "type": "QtImageReader", "file_size": "104140324", "audio_stream_index": -1, "has_single_image": true, "video_stream_index": -1, "pixel_format": -1, "channels": 0, "vcodec": "", "sample_rate": 0, "channel_layout": 4, "video_bit_rate": 0, "fps": {"den": 1, "num": 30}, "width": 6803, "audio_timebase": {"den": 1, "num": 1}, "display_ratio": {"den": 3827, "num": 6803}, "top_field_first": true, "video_timebase": {"den": 30, "num": 1}, "path": "/home/milind/Data/Projects/ProgressCard/Title-02.svg", "video_length": "2592000"}, "end": 4.661666666666666, "perspective_c2_y": {"Points": [{"co": {"Y": -1.0, "X": 1.0}, "interpolation": 2}]}, "perspective_c2_x": {"Points": [{"co": {"Y": -1.0, "X": 1.0}, "interpolation": 2}]}, "alpha": {"Points": [{"co": {"Y": 1.0, "X": 1.0}, "interpolation": 2}]}, "file_id": "5QW60D58CB", "rotation": {"Points": [{"co": {"Y": 0.0, "X": 1.0}, "interpolation": 2}]}, "crop_height": {"Points": [{"co": {"Y": -1.0, "X": 1.0}, "interpolation": 2}]}, "scale": 1, "waveform": false, "perspective_c4_x": {"Points": [{"co": {"Y": -1.0, "X": 1.0}, "interpolation": 2}]}, "time": {"Points": [{"co": {"Y": 1.0, "X": 1.0}, "interpolation": 2}]}, "location_x": {"Points": [{"co": {"Y": 0.0, "X": 1.0}, "interpolation": 2}, {"co": {"Y": 1.0, "X": 1.0}, "handle_left": {"Y": 1.0, "X": 0.5}, "handle_right": {"Y": 0.0, "X": 0.5}, "interpolation": 0, "handle_type": 0}, {"co": {"Y": 0.0, "X": 25.0}, "handle_left": {"Y": 1.0, "X": 0.5}, "handle_right": {"Y": 0.0, "X": 0.5}, "interpolation": 0, "handle_type": 0}]}, "title": "Title-02.svg", "id": "3OCKSFXMGL", "perspective_c3_y": {"Points": [{"co": {"Y": -1.0, "X": 1.0}, "interpolation": 2}]}, "image": "/home/milind/.openshot_qt/thumbnail/5QW60D58CB.png", "scale_y": {"Points": [{"co": {"Y": 1.0, "X": 1.0}, "interpolation": 2}]}, "perspective_c1_x": {"Points": [{"co": {"Y": -1.0, "X": 1.0}, "interpolation": 2}]}, "perspective_c4_y": {"Points": [{"co": {"Y": -1.0, "X": 1.0}, "interpolation": 2}]}, "channel_mapping": {"Points": [{"co": {"Y": -1.0, "X": 1.0}, "interpolation": 2}]}, "wave_color": {"alpha": {"Points": [{"co": {"Y": 255.0, "X": 1.0}, "handle_left": {"Y": 1.0, "X": 0.5}, "handle_right": {"Y": 0.0, "X": 0.5}, "interpolation": 0, "handle_type": 0}]}, "blue": {"Points": [{"co": {"Y": 255.0, "X": 1.0}, "handle_left": {"Y": 1.0, "X": 0.5}, "handle_right": {"Y": 0.0, "X": 0.5}, "interpolation": 0, "handle_type": 0}]}, "green": {"Points": [{"co": {"Y": 123.0, "X": 1.0}, "handle_left": {"Y": 1.0, "X": 0.5}, "handle_right": {"Y": 0.0, "X": 0.5}, "interpolation": 0, "handle_type": 0}]}, "red": {"Points": [{"co": {"Y": 0.0, "X": 1.0}, "handle_left": {"Y": 1.0, "X": 0.5}, "handle_right": {"Y": 0.0, "X": 0.5}, "interpolation": 0, "handle_type": 0}]}}, "channel_filter": {"Points": [{"co": {"Y": -1.0, "X": 1.0}, "interpolation": 2}]}, "position": 3.63, "duration": 86400.0}, {"shear_x": {"Points": [{"co": {"Y": 0.0, "X": 1.0}, "interpolation": 2}]}, "perspective_c3_x": {"Points": [{"co": {"Y": -1.0, "X": 1.0}, "interpolation": 2}]}, "has_video": {"Points": [{"co": {"Y": -1.0, "X": 1.0}, "interpolation": 2}]}, "start": 0, "crop_x": {"Points": [{"co": {"Y": 0.0, "X": 1.0}, "interpolation": 2}]}, "anchor": 0, "has_audio": {"Points": [{"co": {"Y": -1.0, "X": 1.0}, "interpolation": 2}]}, "volume": {"Points": [{"co": {"Y": 1.0, "X": 1.0}, "interpolation": 2}]}, "gravity": 4, "crop_width": {"Points": [{"co": {"Y": -1.0, "X": 1.0}, "interpolation": 2}]}, "scale_x": {"Points": [{"co": {"Y": 1.0, "X": 1.0}, "interpolation": 2}]}, "shear_y": {"Points": [{"co": {"Y": 0.0, "X": 1.0}, "interpolation": 2}]}, "perspective_c1_y": {"Points": [{"co": {"Y": -1.0, "X": 1.0}, "interpolation": 2}]}, "location_y": {"Points": [{"co": {"Y": 0.0, "X": 1.0}, "interpolation": 2}, {"co": {"Y": 0.0, "X": 1.0}, "handle_left": {"Y": 1.0, "X": 0.5}, "handle_right": {"Y": 0.0, "X": 0.5}, "interpolation": 0, "handle_type": 0}, {"co": {"Y": 0.0, "X": 25.0}, "handle_left": {"Y": 1.0, "X": 0.5}, "handle_right": {"Y": 0.0, "X": 0.5}, "interpolation": 0, "handle_type": 0}]}, "effects": [], "crop_y": {"Points": [{"co": {"Y": 0.0, "X": 1.0}, "interpolation": 2}]}, "display": 0, "layer": 2, "reader": {"acodec": "", "has_video": true, "interlaced_frame": false, "height": 3827, "has_audio": false, "audio_bit_rate": 0, "duration": 86400.0, "pixel_ratio": {"den": 1, "num": 1}, "type": "QtImageReader", "file_size": "104140324", "audio_stream_index": -1, "has_single_image": true, "video_stream_index": -1, "pixel_format": -1, "channels": 0, "vcodec": "", "sample_rate": 0, "channel_layout": 4, "video_bit_rate": 0, "fps": {"den": 1, "num": 30}, "width": 6803, "audio_timebase": {"den": 1, "num": 1}, "display_ratio": {"den": 3827, "num": 6803}, "top_field_first": true, "video_timebase": {"den": 30, "num": 1}, "path": "/home/milind/Data/Projects/ProgressCard/Title-03.svg", "video_length": "2592000"}, "end": 3.3116666666666665, "perspective_c2_y": {"Points": [{"co": {"Y": -1.0, "X": 1.0}, "interpolation": 2}]}, "perspective_c2_x": {"Points": [{"co": {"Y": -1.0, "X": 1.0}, "interpolation": 2}]}, "alpha": {"Points": [{"co": {"Y": 1.0, "X": 1.0}, "interpolation": 2}]}, "file_id": "1UGFFUXPZG", "rotation": {"Points": [{"co": {"Y": 0.0, "X": 1.0}, "interpolation": 2}]}, "crop_height": {"Points": [{"co": {"Y": -1.0, "X": 1.0}, "interpolation": 2}]}, "scale": 1, "waveform": false, "perspective_c4_x": {"Points": [{"co": {"Y": -1.0, "X": 1.0}, "interpolation": 2}]}, "time": {"Points": [{"co": {"Y": 1.0, "X": 1.0}, "interpolation": 2}]}, "location_x": {"Points": [{"co": {"Y": 0.0, "X": 1.0}, "interpolation": 2}, {"co": {"Y": 1.0, "X": 1.0}, "handle_left": {"Y": 1.0, "X": 0.5}, "handle_right": {"Y": 0.0, "X": 0.5}, "interpolation": 0, "handle_type": 0}, {"co": {"Y": 0.0, "X": 25.0}, "handle_left": {"Y": 1.0, "X": 0.5}, "handle_right": {"Y": 0.0, "X": 0.5}, "interpolation": 0, "handle_type": 0}]}, "title": "Title-03.svg", "id": "DRRWM84D3O", "perspective_c3_y": {"Points": [{"co": {"Y": -1.0, "X": 1.0}, "interpolation": 2}]}, "image": "/home/milind/.openshot_qt/thumbnail/1UGFFUXPZG.png", "scale_y": {"Points": [{"co": {"Y": 1.0, "X": 1.0}, "interpolation": 2}]}, "perspective_c1_x": {"Points": [{"co": {"Y": -1.0, "X": 1.0}, "interpolation": 2}]}, "perspective_c4_y": {"Points": [{"co": {"Y": -1.0, "X": 1.0}, "interpolation": 2}]}, "channel_mapping": {"Points": [{"co": {"Y": -1.0, "X": 1.0}, "interpolation": 2}]}, "wave_color": {"alpha": {"Points": [{"co": {"Y": 255.0, "X": 1.0}, "handle_left": {"Y": 1.0, "X": 0.5}, "handle_right": {"Y": 0.0, "X": 0.5}, "interpolation": 0, "handle_type": 0}]}, "blue": {"Points": [{"co": {"Y": 255.0, "X": 1.0}, "handle_left": {"Y": 1.0, "X": 0.5}, "handle_right": {"Y": 0.0, "X": 0.5}, "interpolation": 0, "handle_type": 0}]}, "green": {"Points": [{"co": {"Y": 123.0, "X": 1.0}, "handle_left": {"Y": 1.0, "X": 0.5}, "handle_right": {"Y": 0.0, "X": 0.5}, "interpolation": 0, "handle_type": 0}]}, "red": {"Points": [{"co": {"Y": 0.0, "X": 1.0}, "handle_left": {"Y": 1.0, "X": 0.5}, "handle_right": {"Y": 0.0, "X": 0.5}, "interpolation": 0, "handle_type": 0}]}}, "channel_filter": {"Points": [{"co": {"Y": -1.0, "X": 1.0}, "interpolation": 2}]}, "position": 4.9799999999999995, "duration": 86400.0}, {"shear_x": {"Points": [{"co": {"Y": 0.0, "X": 1.0}, "interpolation": 2}]}, "perspective_c3_x": {"Points": [{"co": {"Y": -1.0, "X": 1.0}, "interpolation": 2}]}, "has_video": {"Points": [{"co": {"Y": -1.0, "X": 1.0}, "interpolation": 2}]}, "start": 0, "crop_x": {"Points": [{"co": {"Y": 0.0, "X": 1.0}, "interpolation": 2}]}, "anchor": 0, "has_audio": {"Points": [{"co": {"Y": -1.0, "X": 1.0}, "interpolation": 2}]}, "volume": {"Points": [{"co": {"Y": 1.0, "X": 1.0}, "interpolation": 2}]}, "gravity": 4, "crop_width": {"Points": [{"co": {"Y": -1.0, "X": 1.0}, "interpolation": 2}]}, "scale_x": {"Points": [{"co": {"Y": 1.0, "X": 1.0}, "interpolation": 2}]}, "shear_y": {"Points": [{"co": {"Y": 0.0, "X": 1.0}, "interpolation": 2}]}, "perspective_c1_y": {"Points": [{"co": {"Y": -1.0, "X": 1.0}, "interpolation": 2}]}, "location_y": {"Points": [{"co": {"Y": 0.0, "X": 1.0}, "interpolation": 2}, {"co": {"Y": 0.0, "X": 1.0}, "handle_left": {"Y": 1.0, "X": 0.5}, "handle_right": {"Y": 0.0, "X": 0.5}, "interpolation": 0, "handle_type": 0}, {"co": {"Y": 0.0, "X": 25.0}, "handle_left": {"Y": 1.0, "X": 0.5}, "handle_right": {"Y": 0.0, "X": 0.5}, "interpolation": 0, "handle_type": 0}]}, "effects": [], "crop_y": {"Points": [{"co": {"Y": 0.0, "X": 1.0}, "interpolation": 2}]}, "display": 0, "layer": 3, "reader": {"acodec": "", "has_video": true, "interlaced_frame": false, "height": 3827, "has_audio": false, "audio_bit_rate": 0, "duration": 86400.0, "pixel_ratio": {"den": 1, "num": 1}, "type": "QtImageReader", "file_size": "104140324", "audio_stream_index": -1, "has_single_image": true, "video_stream_index": -1, "pixel_format": -1, "channels": 0, "vcodec": "", "sample_rate": 0, "channel_layout": 4, "video_bit_rate": 0, "fps": {"den": 1, "num": 30}, "width": 6803, "audio_timebase": {"den": 1, "num": 1}, "display_ratio": {"den": 3827, "num": 6803}, "top_field_first": true, "video_timebase": {"den": 30, "num": 1}, "path": "/home/milind/Data/Projects/ProgressCard/Title-04.svg", "video_length": "2592000"}, "end": 2.0216666666666665, "perspective_c2_y": {"Points": [{"co": {"Y": -1.0, "X": 1.0}, "interpolation": 2}]}, "perspective_c2_x": {"Points": [{"co": {"Y": -1.0, "X": 1.0}, "interpolation": 2}]}, "alpha": {"Points": [{"co": {"Y": 1.0, "X": 1.0}, "interpolation": 2}]}, "file_id": "6B6X3SW6U5", "rotation": {"Points": [{"co": {"Y": 0.0, "X": 1.0}, "interpolation": 2}]}, "crop_height": {"Points": [{"co": {"Y": -1.0, "X": 1.0}, "interpolation": 2}]}, "scale": 1, "waveform": false, "perspective_c4_x": {"Points": [{"co": {"Y": -1.0, "X": 1.0}, "interpolation": 2}]}, "time": {"Points": [{"co": {"Y": 1.0, "X": 1.0}, "interpolation": 2}]}, "location_x": {"Points": [{"co": {"Y": 0.0, "X": 1.0}, "interpolation": 2}, {"co": {"Y": 1.0, "X": 1.0}, "handle_left": {"Y": 1.0, "X": 0.5}, "handle_right": {"Y": 0.0, "X": 0.5}, "interpolation": 0, "handle_type": 0}, {"co": {"Y": 0.0, "X": 25.0}, "handle_left": {"Y": 1.0, "X": 0.5}, "handle_right": {"Y": 0.0, "X": 0.5}, "interpolation": 0, "handle_type": 0}]}, "title": "Title-04.svg", "id": "173ASVPEMX", "perspective_c3_y": {"Points": [{"co": {"Y": -1.0, "X": 1.0}, "interpolation": 2}]}, "image": "/home/milind/.openshot_qt/thumbnail/6B6X3SW6U5.png", "scale_y": {"Points": [{"co": {"Y": 1.0, "X": 1.0}, "interpolation": 2}]}, "perspective_c1_x": {"Points": [{"co": {"Y": -1.0, "X": 1.0}, "interpolation": 2}]}, "perspective_c4_y": {"Points": [{"co": {"Y": -1.0, "X": 1.0}, "interpolation": 2}]}, "channel_mapping": {"Points": [{"co": {"Y": -1.0, "X": 1.0}, "interpolation": 2}]}, "wave_color": {"alpha": {"Points": [{"co": {"Y": 255.0, "X": 1.0}, "handle_left": {"Y": 1.0, "X": 0.5}, "handle_right": {"Y": 0.0, "X": 0.5}, "interpolation": 0, "handle_type": 0}]}, "blue": {"Points": [{"co": {"Y": 255.0, "X": 1.0}, "handle_left": {"Y": 1.0, "X": 0.5}, "handle_right": {"Y": 0.0, "X": 0.5}, "interpolation": 0, "handle_type": 0}]}, "green": {"Points": [{"co": {"Y": 123.0, "X": 1.0}, "handle_left": {"Y": 1.0, "X": 0.5}, "handle_right": {"Y": 0.0, "X": 0.5}, "interpolation": 0, "handle_type": 0}]}, "red": {"Points": [{"co": {"Y": 0.0, "X": 1.0}, "handle_left": {"Y": 1.0, "X": 0.5}, "handle_right": {"Y": 0.0, "X": 0.5}, "interpolation": 0, "handle_type": 0}]}}, "channel_filter": {"Points": [{"co": {"Y": -1.0, "X": 1.0}, "interpolation": 2}]}, "position": 6.27, "duration": 86400.0}, {"shear_x": {"Points": [{"co": {"Y": 0.0, "X": 1.0}, "interpolation": 2}]}, "perspective_c3_x": {"Points": [{"co": {"Y": -1.0, "X": 1.0}, "interpolation": 2}]}, "has_video": {"Points": [{"co": {"Y": -1.0, "X": 1.0}, "interpolation": 2}]}, "start": 0, "crop_x": {"Points": [{"co": {"Y": 0.0, "X": 1.0}, "interpolation": 2}]}, "anchor": 0, "has_audio": {"Points": [{"co": {"Y": -1.0, "X": 1.0}, "interpolation": 2}]}, "display": 0, "gravity": 4, "crop_width": {"Points": [{"co": {"Y": -1.0, "X": 1.0}, "interpolation": 2}]}, "crop_y": {"Points": [{"co": {"Y": 0.0, "X": 1.0}, "interpolation": 2}]}, "shear_y": {"Points": [{"co": {"Y": 0.0, "X": 1.0}, "interpolation": 2}]}, "perspective_c1_y": {"Points": [{"co": {"Y": -1.0, "X": 1.0}, "interpolation": 2}]}, "location_y": {"Points": [{"co": {"Y": 0.0, "X": 1.0}, "interpolation": 2}, {"co": {"Y": 0.0, "X": 150.0}, "handle_left": {"Y": 1.0, "X": 0.5}, "handle_right": {"Y": 0.0, "X": 0.5}, "interpolation": 0, "handle_type": 0}, {"co": {"Y": 0.0, "X": 174.0}, "handle_left": {"Y": 1.0, "X": 0.5}, "handle_right": {"Y": 0.0, "X": 0.5}, "interpolation": 0, "handle_type": 0}]}, "effects": [], "scale_x": {"Points": [{"co": {"Y": 1.0, "X": 1.0}, "interpolation": 2}]}, "volume": {"Points": [{"co": {"Y": 1.0, "X": 1.0}, "interpolation": 2}]}, "layer": 4, "reader": {"has_video": true, "interlaced_frame": false, "height": 3827, "acodec": "", "audio_bit_rate": 0, "duration": 86400.0, "pixel_ratio": {"den": 1, "num": 1}, "type": "QtImageReader", "file_size": "104140324", "audio_stream_index": -1, "has_single_image": true, "video_stream_index": -1, "video_bit_rate": 0, "channels": 0, "vcodec": "", "sample_rate": 0, "channel_layout": 4, "pixel_format": -1, "fps": {"den": 1, "num": 30}, "width": 6803, "audio_timebase": {"den": 1, "num": 1}, "display_ratio": {"den": 3827, "num": 6803}, "top_field_first": true, "video_timebase": {"den": 30, "num": 1}, "has_audio": false, "path": "/home/milind/Data/Projects/ProgressCard/Title-05-All Four Titles.svg", "video_length": "2592000"}, "end": 7.220000000000001, "perspective_c2_y": {"Points": [{"co": {"Y": -1.0, "X": 1.0}, "interpolation": 2}]}, "perspective_c2_x": {"Points": [{"co": {"Y": -1.0, "X": 1.0}, "interpolation": 2}]}, "alpha": {"Points": [{"co": {"Y": 1.0, "X": 1.0}, "interpolation": 2}]}, "file_id": "AR5E0JZFG5", "rotation": {"Points": [{"co": {"Y": 0.0, "X": 1.0}, "interpolation": 2}]}, "crop_height": {"Points": [{"co": {"Y": -1.0, "X": 1.0}, "interpolation": 2}]}, "scale": 1, "waveform": false, "perspective_c4_x": {"Points": [{"co": {"Y": -1.0, "X": 1.0}, "interpolation": 2}]}, "time": {"Points": [{"co": {"Y": 1.0, "X": 1.0}, "interpolation": 2}]}, "location_x": {"Points": [{"co": {"Y": 0.0, "X": 1.0}, "interpolation": 2}, {"co": {"Y": 0.0, "X": 150.0}, "handle_left": {"Y": 1.0, "X": 0.5}, "handle_right": {"Y": 0.0, "X": 0.5}, "interpolation": 0, "handle_type": 0}, {"co": {"Y": -1.0, "X": 174.0}, "handle_left": {"Y": 1.0, "X": 0.5}, "handle_right": {"Y": 0.0, "X": 0.5}, "interpolation": 0, "handle_type": 0}]}, "title": "Title-05-All Four Titles.svg", "id": "UTVCSP6ZNL", "perspective_c3_y": {"Points": [{"co": {"Y": -1.0, "X": 1.0}, "interpolation": 2}]}, "image": "/home/milind/.openshot_qt/thumbnail/AR5E0JZFG5.png", "scale_y": {"Points": [{"co": {"Y": 1.0, "X": 1.0}, "interpolation": 2}]}, "perspective_c1_x": {"Points": [{"co": {"Y": -1.0, "X": 1.0}, "interpolation": 2}]}, "perspective_c4_y": {"Points": [{"co": {"Y": -1.0, "X": 1.0}, "interpolation": 2}]}, "channel_mapping": {"Points": [{"co": {"Y": -1.0, "X": 1.0}, "interpolation": 2}]}, "wave_color": {"alpha": {"Points": [{"co": {"Y": 255.0, "X": 1.0}, "handle_left": {"Y": 1.0, "X": 0.5}, "handle_type": 0, "handle_right": {"Y": 0.0, "X": 0.5}, "interpolation": 0}]}, "blue": {"Points": [{"co": {"Y": 255.0, "X": 1.0}, "handle_left": {"Y": 1.0, "X": 0.5}, "handle_type": 0, "handle_right": {"Y": 0.0, "X": 0.5}, "interpolation": 0}]}, "green": {"Points": [{"co": {"Y": 123.0, "X": 1.0}, "handle_left": {"Y": 1.0, "X": 0.5}, "handle_type": 0, "handle_right": {"Y": 0.0, "X": 0.5}, "interpolation": 0}]}, "red": {"Points": [{"co": {"Y": 0.0, "X": 1.0}, "handle_left": {"Y": 1.0, "X": 0.5}, "handle_type": 0, "handle_right": {"Y": 0.0, "X": 0.5}, "interpolation": 0}]}}, "channel_filter": {"Points": [{"co": {"Y": -1.0, "X": 1.0}, "interpolation": 2}]}, "position": 7.529999999999999, "duration": 86400.0}, {"shear_x": {"Points": [{"co": {"Y": 0.0, "X": 1.0}, "interpolation": 2}]}, "perspective_c3_x": {"Points": [{"co": {"Y": -1.0, "X": 1.0}, "interpolation": 2}]}, "has_video": {"Points": [{"co": {"Y": -1.0, "X": 1.0}, "interpolation": 2}]}, "start": 0, "crop_x": {"Points": [{"co": {"Y": 0.0, "X": 1.0}, "interpolation": 2}]}, "anchor": 0, "has_audio": {"Points": [{"co": {"Y": -1.0, "X": 1.0}, "interpolation": 2}]}, "display": 0, "gravity": 4, "crop_width": {"Points": [{"co": {"Y": -1.0, "X": 1.0}, "interpolation": 2}]}, "crop_y": {"Points": [{"co": {"Y": 0.0, "X": 1.0}, "interpolation": 2}]}, "shear_y": {"Points": [{"co": {"Y": 0.0, "X": 1.0}, "interpolation": 2}]}, "perspective_c1_y": {"Points": [{"co": {"Y": -1.0, "X": 1.0}, "interpolation": 2}]}, "location_y": {"Points": [{"co": {"Y": 0.0, "X": 1.0}, "handle_left": {"Y": 1.0, "X": 0.5}, "handle_type": 0, "handle_right": {"Y": 0.0, "X": 0.5}, "interpolation": 0}, {"co": {"Y": 0.0, "X": 1.0}, "handle_left": {"Y": 1.0, "X": 0.5}, "handle_right": {"Y": 0.0, "X": 0.5}, "interpolation": 0, "handle_type": 0}, {"co": {"Y": 0.0, "X": 25.0}, "handle_left": {"Y": 1.0, "X": 0.5}, "handle_right": {"Y": 0.0, "X": 0.5}, "interpolation": 0, "handle_type": 0}, {"co": {"Y": 0.0, "X": 217.0}, "handle_left": {"Y": 1.0, "X": 0.5}, "handle_type": 0, "handle_right": {"Y": 0.0, "X": 0.5}, "interpolation": 0}, {"co": {"Y": 0.0, "X": 241.0}, "handle_left": {"Y": 1.0, "X": 0.5}, "handle_type": 0, "handle_right": {"Y": 0.0, "X": 0.5}, "interpolation": 0}, {"co": {"Y": 0.0, "X": 153.0}, "handle_left": {"Y": 1.0, "X": 0.5}, "handle_right": {"Y": 0.0, "X": 0.5}, "interpolation": 0, "handle_type": 0}, {"co": {"Y": 0.0, "X": 177.0}, "handle_left": {"Y": 1.0, "X": 0.5}, "handle_right": {"Y": 0.0, "X": 0.5}, "interpolation": 0, "handle_type": 0}]}, "effects": [], "scale_x": {"Points": [{"co": {"Y": 1.0, "X": 1.0}, "handle_left": {"Y": 1.0, "X": 0.5}, "handle_type": 0, "handle_right": {"Y": 0.0, "X": 0.5}, "interpolation": 0}]}, "volume": {"Points": [{"co": {"Y": 1.0, "X": 1.0}, "interpolation": 2}]}, "layer": 5, "reader": {"has_video": true, "interlaced_frame": false, "height": 169, "acodec": "", "audio_bit_rate": 0, "duration": 86400.0, "pixel_ratio": {"den": 1, "num": 1}, "type": "QtImageReader", "file_size": "446836", "audio_stream_index": -1, "has_single_image": true, "video_stream_index": -1, "video_bit_rate": 0, "channels": 0, "vcodec": "", "sample_rate": 0, "channel_layout": 4, "pixel_format": -1, "fps": {"den": 1, "num": 30}, "width": 661, "audio_timebase": {"den": 1, "num": 1}, "display_ratio": {"den": 169, "num": 661}, "top_field_first": true, "video_timebase": {"den": 30, "num": 1}, "has_audio": false, "path": "/home/milind/Data/Projects/ProgressCard/intro.png", "video_length": "2592000"}, "end": 7.348333333333333, "perspective_c2_y": {"Points": [{"co": {"Y": -1.0, "X": 1.0}, "interpolation": 2}]}, "perspective_c2_x": {"Points": [{"co": {"Y": -1.0, "X": 1.0}, "interpolation": 2}]}, "alpha": {"Points": [{"co": {"Y": 1.0, "X": 1.0}, "interpolation": 2}]}, "file_id": "EYET6E4WCX", "rotation": {"Points": [{"co": {"Y": 0.0, "X": 1.0}, "interpolation": 2}]}, "crop_height": {"Points": [{"co": {"Y": -1.0, "X": 1.0}, "interpolation": 2}]}, "scale": 1, "waveform": false, "perspective_c4_x": {"Points": [{"co": {"Y": -1.0, "X": 1.0}, "interpolation": 2}]}, "time": {"Points": [{"co": {"Y": 1.0, "X": 1.0}, "interpolation": 2}]}, "location_x": {"Points": [{"co": {"Y": 0.0, "X": 1.0}, "handle_left": {"Y": 1.0, "X": 0.5}, "handle_type": 0, "handle_right": {"Y": 0.0, "X": 0.5}, "interpolation": 0}, {"co": {"Y": 1.0, "X": 1.0}, "handle_left": {"Y": 1.0, "X": 0.5}, "handle_right": {"Y": 0.0, "X": 0.5}, "interpolation": 0, "handle_type": 0}, {"co": {"Y": 0.0, "X": 25.0}, "handle_left": {"Y": 1.0, "X": 0.5}, "handle_right": {"Y": 0.0, "X": 0.5}, "interpolation": 0, "handle_type": 0}, {"co": {"Y": 0.0, "X": 217.0}, "handle_left": {"Y": 1.0, "X": 0.5}, "handle_type": 0, "handle_right": {"Y": 0.0, "X": 0.5}, "interpolation": 0}, {"co": {"Y": -1.0, "X": 241.0}, "handle_left": {"Y": 1.0, "X": 0.5}, "handle_type": 0, "handle_right": {"Y": 0.0, "X": 0.5}, "interpolation": 0}, {"co": {"Y": 0.0, "X": 153.0}, "handle_left": {"Y": 1.0, "X": 0.5}, "handle_right": {"Y": 0.0, "X": 0.5}, "interpolation": 0, "handle_type": 0}, {"co": {"Y": -1.0, "X": 177.0}, "handle_left": {"Y": 1.0, "X": 0.5}, "handle_right": {"Y": 0.0, "X": 0.5}, "interpolation": 0, "handle_type": 0}]}, "title": "intro.png", "id": "QRWUU8C5AG", "perspective_c3_y": {"Points": [{"co": {"Y": -1.0, "X": 1.0}, "interpolation": 2}]}, "image": "/home/milind/.openshot_qt/thumbnail/EYET6E4WCX.png", "scale_y": {"Points": [{"co": {"Y": 1.0, "X": 1.0}, "handle_left": {"Y": 1.0, "X": 0.5}, "handle_type": 0, "handle_right": {"Y": 0.0, "X": 0.5}, "interpolation": 0}]}, "perspective_c1_x": {"Points": [{"co": {"Y": -1.0, "X": 1.0}, "interpolation": 2}]}, "perspective_c4_y": {"Points": [{"co": {"Y": -1.0, "X": 1.0}, "interpolation": 2}]}, "channel_mapping": {"Points": [{"co": {"Y": -1.0, "X": 1.0}, "interpolation": 2}]}, "wave_color": {"alpha": {"Points": [{"co": {"Y": 255.0, "X": 1.0}, "handle_left": {"Y": 1.0, "X": 0.5}, "handle_type": 0, "handle_right": {"Y": 0.0, "X": 0.5}, "interpolation": 0}]}, "blue": {"Points": [{"co": {"Y": 255.0, "X": 1.0}, "handle_left": {"Y": 1.0, "X": 0.5}, "handle_type": 0, "handle_right": {"Y": 0.0, "X": 0.5}, "interpolation": 0}]}, "green": {"Points": [{"co": {"Y": 123.0, "X": 1.0}, "handle_left": {"Y": 1.0, "X": 0.5}, "handle_type": 0, "handle_right": {"Y": 0.0, "X": 0.5}, "interpolation": 0}]}, "red": {"Points": [{"co": {"Y": 0.0, "X": 1.0}, "handle_left": {"Y": 1.0, "X": 0.5}, "handle_type": 0, "handle_right": {"Y": 0.0, "X": 0.5}, "interpolation": 0}]}}, "channel_filter": {"Points": [{"co": {"Y": -1.0, "X": 1.0}, "interpolation": 2}]}, "position": 15.36, "duration": 86400.0}], "key": ["clips"], "value": {"shear_x": {"Points": [{"co": {"Y": 0.0, "X": 1.0}, "interpolation": 2}]}, "layer": 5, "has_video": {"Points": [{"co": {"Y": -1.0, "X": 1.0}, "interpolation": 2}]}, "start": 0, "crop_x": {"Points": [{"co": {"Y": 0.0, "X": 1.0}, "interpolation": 2}]}, "anchor": 0, "has_audio": {"Points": [{"co": {"Y": -1.0, "X": 1.0}, "interpolation": 2}]}, "display": 0, "crop_width": {"Points": [{"co": {"Y": -1.0, "X": 1.0}, "interpolation": 2}]}, "crop_y": {"Points": [{"co": {"Y": 0.0, "X": 1.0}, "interpolation": 2}]}, "wave_color": {"red": {"Points": [{"co": {"Y": 0.0, "X": 1.0}, "handle_left": {"Y": 1.0, "X": 0.5}, "handle_right": {"Y": 0.0, "X": 0.5}, "interpolation": 0, "handle_type": 0}]}, "blue": {"Points": [{"co": {"Y": 255.0, "X": 1.0}, "handle_left": {"Y": 1.0, "X": 0.5}, "handle_right": {"Y": 0.0, "X": 0.5}, "interpolation": 0, "handle_type": 0}]}, "green": {"Points": [{"co": {"Y": 123.0, "X": 1.0}, "handle_left": {"Y": 1.0, "X": 0.5}, "handle_right": {"Y": 0.0, "X": 0.5}, "interpolation": 0, "handle_type": 0}]}, "alpha": {"Points": [{"co": {"Y": 255.0, "X": 1.0}, "handle_left": {"Y": 1.0, "X": 0.5}, "handle_right": {"Y": 0.0, "X": 0.5}, "interpolation": 0, "handle_type": 0}]}}, "shear_y": {"Points": [{"co": {"Y": 0.0, "X": 1.0}, "interpolation": 2}]}, "perspective_c1_y": {"Points": [{"co": {"Y": -1.0, "X": 1.0}, "interpolation": 2}]}, "location_y": {"Points": [{"co": {"Y": 0.0, "X": 1.0}, "interpolation": 2}]}, "effects": [], "scale_x": {"Points": [{"co": {"Y": 1.0, "X": 1.0}, "interpolation": 2}]}, "volume": {"Points": [{"co": {"Y": 1.0, "X": 1.0}, "interpolation": 2}]}, "perspective_c3_x": {"Points": [{"co": {"Y": -1.0, "X": 1.0}, "interpolation": 2}]}, "reader": {"path": "/home/milind/Data/Projects/ProgressCard/06-Create Progress Card Template.mkv", "has_video": true, "interlaced_frame": false, "height": 768, "acodec": "", "audio_bit_rate": 0, "pixel_ratio": {"den": 1, "num": 1}, "type": "FFmpegReader", "file_size": "394038", "audio_stream_index": -1, "has_single_image": false, "video_stream_index": 0, "pixel_format": 0, "channels": 0, "vcodec": "h264", "sample_rate": 0, "channel_layout": 4, "video_bit_rate": 0, "fps": {"den": 1, "num": 25}, "width": 1366, "audio_timebase": {"den": 1, "num": 1}, "display_ratio": {"den": 384, "num": 683}, "top_field_first": true, "video_timebase": {"den": 1000, "num": 1}, "has_audio": false, "duration": 44.0, "video_length": "1100"}, "end": 44, "perspective_c2_y": {"Points": [{"co": {"Y": -1.0, "X": 1.0}, "interpolation": 2}]}, "perspective_c2_x": {"Points": [{"co": {"Y": -1.0, "X": 1.0}, "interpolation": 2}]}, "alpha": {"Points": [{"co": {"Y": 1.0, "X": 1.0}, "interpolation": 2}]}, "file_id": "JH7UWI807B", "rotation": {"Points": [{"co": {"Y": 0.0, "X": 1.0}, "interpolation": 2}]}, "crop_height": {"Points": [{"co": {"Y": -1.0, "X": 1.0}, "interpolation": 2}]}, "scale": 1, "perspective_c4_x": {"Points": [{"co": {"Y": -1.0, "X": 1.0}, "interpolation": 2}]}, "waveform": false, "time": {"Points": [{"co": {"Y": 1.0, "X": 1.0}, "interpolation": 2}]}, "location_x": {"Points": [{"co": {"Y": 0.0, "X": 1.0}, "interpolation": 2}]}, "title": "06-Create Progress Card Template.mkv", "perspective_c3_y": {"Points": [{"co": {"Y": -1.0, "X": 1.0}, "interpolation": 2}]}, "id": "AVMGYI71Z9", "gravity": 4, "image": "/home/milind/.openshot_qt/thumbnail/JH7UWI807B.png", "scale_y": {"Points": [{"co": {"Y": 1.0, "X": 1.0}, "interpolation": 2}]}, "perspective_c1_x": {"Points": [{"co": {"Y": -1.0, "X": 1.0}, "interpolation": 2}]}, "perspective_c4_y": {"Points": [{"co": {"Y": -1.0, "X": 1.0}, "interpolation": 2}]}, "channel_mapping": {"Points": [{"co": {"Y": -1.0, "X": 1.0}, "interpolation": 2}]}, "channel_filter": {"Points": [{"co": {"Y": -1.0, "X": 1.0}, "interpolation": 2}]}, "position": 23.52, "duration": 44.0}, "partial": false}, {"type": "update", "old_values": {"perspective_c3_x": {"Points": [{"co": {"Y": -1.0, "X": 1.0}, "interpolation": 2}]}, "has_video": {"Points": [{"co": {"Y": -1.0, "X": 1.0}, "interpolation": 2}]}, "start": 0.0, "crop_x": {"Points": [{"co": {"Y": 0.0, "X": 1.0}, "interpolation": 2}]}, "anchor": 0, "duration": 44.0, "volume": {"Points": [{"co": {"Y": 1.0, "X": 1.0}, "interpolation": 2}]}, "crop_width": {"Points": [{"co": {"Y": -1.0, "X": 1.0}, "interpolation": 2}]}, "crop_y": {"Points": [{"co": {"Y": 0.0, "X": 1.0}, "interpolation": 2}]}, "rotation": {"Points": [{"co": {"Y": 0.0, "X": 1.0}, "interpolation": 2}]}, "perspective_c1_y": {"Points": [{"co": {"Y": -1.0, "X": 1.0}, "interpolation": 2}]}, "gravity": 4, "effects": [], "scale_x": {"Points": [{"co": {"Y": 1.0, "X": 1.0}, "interpolation": 2}]}, "display": 0, "shear_x": {"Points": [{"co": {"Y": 0.0, "X": 1.0}, "interpolation": 2}]}, "reader": {"has_video": true, "interlaced_frame": false, "height": 768, "acodec": "", "audio_bit_rate": 0, "duration": 44.0, "pixel_ratio": {"den": 1, "num": 1}, "type": "FFmpegReader", "file_size": "394038", "audio_stream_index": -1, "has_single_image": false, "video_stream_index": 0, "video_bit_rate": 0, "channels": 0, "vcodec": "h264", "sample_rate": 0, "channel_layout": 4, "pixel_format": 0, "fps": {"den": 1, "num": 25}, "width": 1366, "audio_timebase": {"den": 1, "num": 1}, "display_ratio": {"den": 384, "num": 683}, "top_field_first": true, "video_timebase": {"den": 1000, "num": 1}, "has_audio": false, "path": "/home/milind/Data/Projects/ProgressCard/06-Create Progress Card Template.mkv", "video_length": "1100"}, "end": 44.0, "perspective_c2_y": {"Points": [{"co": {"Y": -1.0, "X": 1.0}, "interpolation": 2}]}, "perspective_c2_x": {"Points": [{"co": {"Y": -1.0, "X": 1.0}, "interpolation": 2}]}, "layer": 5, "alpha": {"Points": [{"co": {"Y": 1.0, "X": 1.0}, "interpolation": 2}]}, "file_id": "JH7UWI807B", "shear_y": {"Points": [{"co": {"Y": 0.0, "X": 1.0}, "interpolation": 2}]}, "crop_height": {"Points": [{"co": {"Y": -1.0, "X": 1.0}, "interpolation": 2}]}, "scale": 1, "perspective_c4_x": {"Points": [{"co": {"Y": -1.0, "X": 1.0}, "interpolation": 2}]}, "waveform": false, "time": {"Points": [{"co": {"Y": 1.0, "X": 1.0}, "interpolation": 2}]}, "location_x": {"Points": [{"co": {"Y": 0.0, "X": 1.0}, "interpolation": 2}]}, "title": "06-Create Progress Card Template.mkv", "id": "AVMGYI71Z9", "perspective_c3_y": {"Points": [{"co": {"Y": -1.0, "X": 1.0}, "interpolation": 2}]}, "image": "/home/milind/.openshot_qt/thumbnail/JH7UWI807B.png", "scale_y": {"Points": [{"co": {"Y": 1.0, "X": 1.0}, "interpolation": 2}]}, "location_y": {"Points": [{"co": {"Y": 0.0, "X": 1.0}, "interpolation": 2}]}, "perspective_c4_y": {"Points": [{"co": {"Y": -1.0, "X": 1.0}, "interpolation": 2}]}, "channel_mapping": {"Points": [{"co": {"Y": -1.0, "X": 1.0}, "interpolation": 2}]}, "wave_color": {"alpha": {"Points": [{"co": {"Y": 255.0, "X": 1.0}, "handle_left": {"Y": 1.0, "X": 0.5}, "handle_type": 0, "handle_right": {"Y": 0.0, "X": 0.5}, "interpolation": 0}]}, "blue": {"Points": [{"co": {"Y": 255.0, "X": 1.0}, "handle_left": {"Y": 1.0, "X": 0.5}, "handle_type": 0, "handle_right": {"Y": 0.0, "X": 0.5}, "interpolation": 0}]}, "green": {"Points": [{"co": {"Y": 123.0, "X": 1.0}, "handle_left": {"Y": 1.0, "X": 0.5}, "handle_type": 0, "handle_right": {"Y": 0.0, "X": 0.5}, "interpolation": 0}]}, "red": {"Points": [{"co": {"Y": 0.0, "X": 1.0}, "handle_left": {"Y": 1.0, "X": 0.5}, "handle_type": 0, "handle_right": {"Y": 0.0, "X": 0.5}, "interpolation": 0}]}}, "channel_filter": {"Points": [{"co": {"Y": -1.0, "X": 1.0}, "interpolation": 2}]}, "perspective_c1_x": {"Points": [{"co": {"Y": -1.0, "X": 1.0}, "interpolation": 2}]}, "position": 24.93, "has_audio": {"Points": [{"co": {"Y": -1.0, "X": 1.0}, "interpolation": 2}]}}, "key": ["clips", {"id": "AVMGYI71Z9"}], "value": {"id": "AVMGYI71Z9", "layer": 5, "start": 0, "image": "/home/milind/.openshot_qt/thumbnail/JH7UWI807B.png", "end": 44, "position": 23.52}, "partial": false}], "redo": []}, "files": [{"acodec": "", "has_video": true, "interlaced_frame": false, "height": 169, "duration": 86400.0, "audio_bit_rate": 0, "media_type": "image", "pixel_ratio": {"den": 1, "num": 1}, "type": "QtImageReader", "file_size": "446836", "audio_stream_index": -1, "has_single_image": true, "video_stream_index": -1, "pixel_format": -1, "channels": 0, "vcodec": "", "sample_rate": 0, "channel_layout": 4, "video_bit_rate": 0, "fps": {"den": 1, "num": 30}, "width": 661, "audio_timebase": {"den": 1, "num": 1}, "display_ratio": {"den": 169, "num": 661}, "top_field_first": true, "video_timebase": {"den": 30, "num": 1}, "has_audio": false, "id": "EYET6E4WCX", "path": "intro.png", "video_length": "2592000"}, {"acodec": "", "path": "Title-02.svg", "has_video": true, "interlaced_frame": false, "height": 3827, "duration": 86400.0, "audio_bit_rate": 0, "media_type": "image", "pixel_ratio": {"den": 1, "num": 1}, "type": "QtImageReader", "file_size": "104140324", "audio_stream_index": -1, "has_single_image": true, "video_stream_index": -1, "pixel_format": -1, "channels": 0, "vcodec": "", "sample_rate": 0, "channel_layout": 4, "video_bit_rate": 0, "fps": {"den": 1, "num": 30}, "width": 6803, "audio_timebase": {"den": 1, "num": 1}, "display_ratio": {"den": 3827, "num": 6803}, "top_field_first": true, "video_timebase": {"den": 30, "num": 1}, "id": "5QW60D58CB", "has_audio": false, "video_length": "2592000"}, {"acodec": "", "path": "Title-01.svg", "has_video": true, "interlaced_frame": false, "height": 3827, "duration": 86400.0, "audio_bit_rate": 0, "media_type": "image", "pixel_ratio": {"den": 1, "num": 1}, "type": "QtImageReader", "file_size": "104140324", "audio_stream_index": -1, "has_single_image": true, "video_stream_index": -1, "pixel_format": -1, "channels": 0, "vcodec": "", "sample_rate": 0, "channel_layout": 4, "video_bit_rate": 0, "fps": {"den": 1, "num": 30}, "width": 6803, "audio_timebase": {"den": 1, "num": 1}, "display_ratio": {"den": 3827, "num": 6803}, "top_field_first": true, "video_timebase": {"den": 30, "num": 1}, "id": "RBDOM40FGQ", "has_audio": false, "video_length": "2592000"}, {"acodec": "", "path": "Title-03.svg", "has_video": true, "interlaced_frame": false, "height": 3827, "duration": 86400.0, "audio_bit_rate": 0, "media_type": "image", "pixel_ratio": {"den": 1, "num": 1}, "type": "QtImageReader", "file_size": "104140324", "audio_stream_index": -1, "has_single_image": true, "video_stream_index": -1, "pixel_format": -1, "channels": 0, "vcodec": "", "sample_rate": 0, "channel_layout": 4, "video_bit_rate": 0, "fps": {"den": 1, "num": 30}, "width": 6803, "audio_timebase": {"den": 1, "num": 1}, "display_ratio": {"den": 3827, "num": 6803}, "top_field_first": true, "video_timebase": {"den": 30, "num": 1}, "id": "1UGFFUXPZG", "has_audio": false, "video_length": "2592000"}, {"acodec": "", "path": "Title-04.svg", "has_video": true, "interlaced_frame": false, "height": 3827, "duration": 86400.0, "audio_bit_rate": 0, "media_type": "image", "pixel_ratio": {"den": 1, "num": 1}, "type": "QtImageReader", "file_size": "104140324", "audio_stream_index": -1, "has_single_image": true, "video_stream_index": -1, "pixel_format": -1, "channels": 0, "vcodec": "", "sample_rate": 0, "channel_layout": 4, "video_bit_rate": 0, "fps": {"den": 1, "num": 30}, "width": 6803, "audio_timebase": {"den": 1, "num": 1}, "display_ratio": {"den": 3827, "num": 6803}, "top_field_first": true, "video_timebase": {"den": 30, "num": 1}, "id": "6B6X3SW6U5", "has_audio": false, "video_length": "2592000"}, {"has_video": true, "interlaced_frame": false, "height": 3827, "path": "Title-05-All Four Titles.svg", "audio_bit_rate": 0, "media_type": "image", "pixel_ratio": {"den": 1, "num": 1}, "type": "QtImageReader", "file_size": "104140324", "audio_stream_index": -1, "has_single_image": true, "video_stream_index": -1, "pixel_format": -1, "channels": 0, "vcodec": "", "sample_rate": 0, "channel_layout": 4, "video_bit_rate": 0, "fps": {"den": 1, "num": 30}, "width": 6803, "audio_timebase": {"den": 1, "num": 1}, "display_ratio": {"den": 3827, "num": 6803}, "top_field_first": true, "video_timebase": {"den": 30, "num": 1}, "has_audio": false, "id": "AR5E0JZFG5", "duration": 86400.0, "acodec": "", "video_length": "2592000"}, {"acodec": "", "has_video": true, "interlaced_frame": false, "height": 768, "duration": 44.0, "audio_bit_rate": 0, "media_type": "video", "pixel_ratio": {"den": 1, "num": 1}, "type": "FFmpegReader", "file_size": "394038", "audio_stream_index": -1, "has_single_image": false, "video_stream_index": 0, "video_bit_rate": 0, "channels": 0, "vcodec": "h264", "sample_rate": 0, "channel_layout": 4, "pixel_format": 0, "fps": {"den": 1, "num": 25}, "width": 1366, "audio_timebase": {"den": 1, "num": 1}, "display_ratio": {"den": 384, "num": 683}, "top_field_first": true, "video_timebase": {"den": 1000, "num": 1}, "has_audio": false, "id": "JH7UWI807B", "path": "06-Create Progress Card Template.mkv", "video_length": "1100"}], "height": 720, "progress": [], "duration": 300, "version": {"libopenshot": "0.1.9", "openshot-qt": "2.4.1"}, "effects": [], "scale": 3, "channels": 2, "sample_rate": 44100, "channel_layout": 3, "id": "T0", "fps": {"den": 1, "num": 24}, "width": 1280, "markers": [], "export_path": "", "tick_pixels": 100, "settings": {}, "clips": [{"reader": {"path": "Title-01.svg", "has_video": true, "has_audio": false, "height": 3827, "duration": 86400.0, "audio_bit_rate": 0, "pixel_ratio": {"den": 1, "num": 1}, "type": "QtImageReader", "file_size": "104140324", "audio_stream_index": -1, "has_single_image": true, "video_stream_index": -1, "pixel_format": -1, "channels": 0, "vcodec": "", "interlaced_frame": false, "sample_rate": 0, "channel_layout": 4, "video_bit_rate": 0, "fps": {"den": 1, "num": 30}, "width": 6803, "audio_timebase": {"den": 1, "num": 1}, "display_ratio": {"den": 3827, "num": 6803}, "top_field_first": true, "video_timebase": {"den": 30, "num": 1}, "acodec": "", "video_length": "2592000"}, "shear_x": {"Points": [{"co": {"Y": 0.0, "X": 1.0}, "interpolation": 2}]}, "has_video": {"Points": [{"co": {"Y": -1.0, "X": 1.0}, "interpolation": 2}]}, "start": 0.0, "crop_x": {"Points": [{"co": {"Y": 0.0, "X": 1.0}, "interpolation": 2}]}, "anchor": 0, "has_audio": {"Points": [{"co": {"Y": -1.0, "X": 1.0}, "interpolation": 2}]}, "display": 0, "crop_width": {"Points": [{"co": {"Y": -1.0, "X": 1.0}, "interpolation": 2}]}, "scale_x": {"Points": [{"co": {"Y": 1.0, "X": 1.0}, "interpolation": 2}]}, "shear_y": {"Points": [{"co": {"Y": 0.0, "X": 1.0}, "interpolation": 2}]}, "perspective_c1_y": {"Points": [{"co": {"Y": -1.0, "X": 1.0}, "interpolation": 2}]}, "gravity": 4, "effects": [], "crop_y": {"Points": [{"co": {"Y": 0.0, "X": 1.0}, "interpolation": 2}]}, "volume": {"Points": [{"co": {"Y": 1.0, "X": 1.0}, "interpolation": 2}]}, "layer": 3, "image": "../../../.openshot_qt/thumbnail/RBDOM40FGQ.png", "end": 10.0, "perspective_c2_y": {"Points": [{"co": {"Y": -1.0, "X": 1.0}, "interpolation": 2}]}, "perspective_c2_x": {"Points": [{"co": {"Y": -1.0, "X": 1.0}, "interpolation": 2}]}, "perspective_c3_y": {"Points": [{"co": {"Y": -1.0, "X": 1.0}, "interpolation": 2}]}, "file_id": "RBDOM40FGQ", "rotation": {"Points": [{"co": {"Y": 0.0, "X": 1.0}, "interpolation": 2}]}, "crop_height": {"Points": [{"co": {"Y": -1.0, "X": 1.0}, "interpolation": 2}]}, "scale": 1, "waveform": false, "perspective_c4_x": {"Points": [{"co": {"Y": -1.0, "X": 1.0}, "interpolation": 2}]}, "time": {"Points": [{"co": {"Y": 1.0, "X": 1.0}, "interpolation": 2}]}, "location_x": {"Points": [{"co": {"Y": 0.0, "X": 1.0}, "interpolation": 2}]}, "title": "Title-01.svg", "perspective_c3_x": {"Points": [{"co": {"Y": -1.0, "X": 1.0}, "interpolation": 2}]}, "id": "B39BCXR0EX", "location_y": {"Points": [{"co": {"Y": 0.0, "X": 1.0}, "interpolation": 2}]}, "channel_filter": {"Points": [{"co": {"Y": -1.0, "X": 1.0}, "interpolation": 2}]}, "scale_y": {"Points": [{"co": {"Y": 1.0, "X": 1.0}, "interpolation": 2}]}, "perspective_c1_x": {"Points": [{"co": {"Y": -1.0, "X": 1.0}, "interpolation": 2}]}, "perspective_c4_y": {"Points": [{"co": {"Y": -1.0, "X": 1.0}, "interpolation": 2}]}, "channel_mapping": {"Points": [{"co": {"Y": -1.0, "X": 1.0}, "interpolation": 2}]}, "wave_color": {"alpha": {"Points": [{"co": {"Y": 255.0, "X": 1.0}, "handle_left": {"Y": 1.0, "X": 0.5}, "handle_right": {"Y": 0.0, "X": 0.5}, "interpolation": 0, "handle_type": 0}]}, "blue": {"Points": [{"co": {"Y": 255.0, "X": 1.0}, "handle_left": {"Y": 1.0, "X": 0.5}, "handle_right": {"Y": 0.0, "X": 0.5}, "interpolation": 0, "handle_type": 0}]}, "green": {"Points": [{"co": {"Y": 123.0, "X": 1.0}, "handle_left": {"Y": 1.0, "X": 0.5}, "handle_right": {"Y": 0.0, "X": 0.5}, "interpolation": 0, "handle_type": 0}]}, "red": {"Points": [{"co": {"Y": 0.0, "X": 1.0}, "handle_left": {"Y": 1.0, "X": 0.5}, "handle_right": {"Y": 0.0, "X": 0.5}, "interpolation": 0, "handle_type": 0}]}}, "alpha": {"Points": [{"co": {"Y": 1.0, "X": 1.0}, "interpolation": 2}]}, "position": 44.58, "duration": 86400.0}, {"layer": 0, "has_audio": {"Points": [{"co": {"Y": -1.0, "X": 1.0}, "interpolation": 2}]}, "volume": {"Points": [{"co": {"Y": 1.0, "X": 1.0}, "interpolation": 2}]}, "crop_y": {"Points": [{"co": {"Y": 0.0, "X": 1.0}, "interpolation": 2}]}, "shear_y": {"Points": [{"co": {"Y": 0.0, "X": 1.0}, "interpolation": 2}]}, "effects": [], "display": 0, "perspective_c3_x": {"Points": [{"co": {"Y": -1.0, "X": 1.0}, "interpolation": 2}]}, "end": 5.891666666666666, "perspective_c2_x": {"Points": [{"co": {"Y": -1.0, "X": 1.0}, "interpolation": 2}]}, "alpha": {"Points": [{"co": {"Y": 1.0, "X": 1.0}, "interpolation": 2}]}, "file_id": "RBDOM40FGQ", "crop_height": {"Points": [{"co": {"Y": -1.0, "X": 1.0}, "interpolation": 2}]}, "scale": 1, "waveform": false, "location_x": {"Points": [{"co": {"Y": 0.0, "X": 1.0}, "handle_left": {"Y": 1.0, "X": 0.5}, "handle_type": 0, "handle_right": {"Y": 0.0, "X": 0.5}, "interpolation": 0}, {"co": {"Y": 1.0, "X": 1.0}, "handle_left": {"Y": 1.0, "X": 0.5}, "handle_right": {"Y": 0.0, "X": 0.5}, "interpolation": 0, "handle_type": 0}, {"co": {"Y": 0.0, "X": 25.0}, "handle_left": {"Y": 1.0, "X": 0.5}, "handle_right": {"Y": 0.0, "X": 0.5}, "interpolation": 0, "handle_type": 0}]}, "title": "Title-01.svg", "location_y": {"Points": [{"co": {"Y": 0.0, "X": 1.0}, "handle_left": {"Y": 1.0, "X": 0.5}, "handle_type": 0, "handle_right": {"Y": 0.0, "X": 0.5}, "interpolation": 0}, {"co": {"Y": 0.0, "X": 1.0}, "handle_left": {"Y": 1.0, "X": 0.5}, "handle_right": {"Y": 0.0, "X": 0.5}, "interpolation": 0, "handle_type": 0}, {"co": {"Y": 0.0, "X": 25.0}, "handle_left": {"Y": 1.0, "X": 0.5}, "handle_right": {"Y": 0.0, "X": 0.5}, "interpolation": 0, "handle_type": 0}]}, "image": "../../../.openshot_qt/thumbnail/RBDOM40FGQ.png", "perspective_c1_x": {"Points": [{"co": {"Y": -1.0, "X": 1.0}, "interpolation": 2}]}, "perspective_c4_y": {"Points": [{"co": {"Y": -1.0, "X": 1.0}, "interpolation": 2}]}, "position": 2.4, "shear_x": {"Points": [{"co": {"Y": 0.0, "X": 1.0}, "interpolation": 2}]}, "has_video": {"Points": [{"co": {"Y": -1.0, "X": 1.0}, "interpolation": 2}]}, "start": 0, "crop_x": {"Points": [{"co": {"Y": 0.0, "X": 1.0}, "interpolation": 2}]}, "anchor": 0, "duration": 86400.0, "crop_width": {"Points": [{"co": {"Y": -1.0, "X": 1.0}, "interpolation": 2}]}, "rotation": {"Points": [{"co": {"Y": 0.0, "X": 1.0}, "interpolation": 2}]}, "perspective_c1_y": {"Points": [{"co": {"Y": -1.0, "X": 1.0}, "interpolation": 2}]}, "gravity": 4, "scale_x": {"Points": [{"co": {"Y": 1.0, "X": 1.0}, "handle_left": {"Y": 1.0, "X": 0.5}, "handle_type": 0, "handle_right": {"Y": 0.0, "X": 0.5}, "interpolation": 0}]}, "reader": {"path": "Title-01.svg", "has_video": true, "has_audio": false, "height": 3827, "duration": 86400.0, "audio_bit_rate": 0, "pixel_ratio": {"den": 1, "num": 1}, "type": "QtImageReader", "file_size": "104140324", "audio_stream_index": -1, "has_single_image": true, "video_stream_index": -1, "pixel_format": -1, "channels": 0, "vcodec": "", "interlaced_frame": false, "sample_rate": 0, "channel_layout": 4, "video_bit_rate": 0, "fps": {"den": 1, "num": 30}, "width": 6803, "audio_timebase": {"den": 1, "num": 1}, "display_ratio": {"den": 3827, "num": 6803}, "top_field_first": true, "video_timebase": {"den": 30, "num": 1}, "acodec": "", "video_length": "2592000"}, "perspective_c2_y": {"Points": [{"co": {"Y": -1.0, "X": 1.0}, "interpolation": 2}]}, "perspective_c4_x": {"Points": [{"co": {"Y": -1.0, "X": 1.0}, "interpolation": 2}]}, "time": {"Points": [{"co": {"Y": 1.0, "X": 1.0}, "interpolation": 2}]}, "id": "RH0T0F5TSV", "perspective_c3_y": {"Points": [{"co": {"Y": -1.0, "X": 1.0}, "interpolation": 2}]}, "channel_filter": {"Points": [{"co": {"Y": -1.0, "X": 1.0}, "interpolation": 2}]}, "scale_y": {"Points": [{"co": {"Y": 1.0, "X": 1.0}, "handle_left": {"Y": 1.0, "X": 0.5}, "handle_type": 0, "handle_right": {"Y": 0.0, "X": 0.5}, "interpolation": 0}]}, "channel_mapping": {"Points": [{"co": {"Y": -1.0, "X": 1.0}, "interpolation": 2}]}, "wave_color": {"alpha": {"Points": [{"co": {"Y": 255.0, "X": 1.0}, "handle_left": {"Y": 1.0, "X": 0.5}, "handle_right": {"Y": 0.0, "X": 0.5}, "interpolation": 0, "handle_type": 0}]}, "blue": {"Points": [{"co": {"Y": 255.0, "X": 1.0}, "handle_left": {"Y": 1.0, "X": 0.5}, "handle_right": {"Y": 0.0, "X": 0.5}, "interpolation": 0, "handle_type": 0}]}, "green": {"Points": [{"co": {"Y": 123.0, "X": 1.0}, "handle_left": {"Y": 1.0, "X": 0.5}, "handle_right": {"Y": 0.0, "X": 0.5}, "interpolation": 0, "handle_type": 0}]}, "red": {"Points": [{"co": {"Y": 0.0, "X": 1.0}, "handle_left": {"Y": 1.0, "X": 0.5}, "handle_right": {"Y": 0.0, "X": 0.5}, "interpolation": 0, "handle_type": 0}]}}}, {"layer": 1, "has_audio": {"Points": [{"co": {"Y": -1.0, "X": 1.0}, "interpolation": 2}]}, "volume": {"Points": [{"co": {"Y": 1.0, "X": 1.0}, "interpolation": 2}]}, "scale_x": {"Points": [{"co": {"Y": 1.0, "X": 1.0}, "interpolation": 2}]}, "shear_y": {"Points": [{"co": {"Y": 0.0, "X": 1.0}, "interpolation": 2}]}, "effects": [], "display": 0, "perspective_c3_x": {"Points": [{"co": {"Y": -1.0, "X": 1.0}, "interpolation": 2}]}, "end": 4.661666666666666, "perspective_c2_x": {"Points": [{"co": {"Y": -1.0, "X": 1.0}, "interpolation": 2}]}, "alpha": {"Points": [{"co": {"Y": 1.0, "X": 1.0}, "interpolation": 2}]}, "file_id": "5QW60D58CB", "crop_height": {"Points": [{"co": {"Y": -1.0, "X": 1.0}, "interpolation": 2}]}, "scale": 1, "waveform": false, "location_x": {"Points": [{"co": {"Y": 0.0, "X": 1.0}, "interpolation": 2}, {"co": {"Y": 1.0, "X": 1.0}, "handle_left": {"Y": 1.0, "X": 0.5}, "handle_right": {"Y": 0.0, "X": 0.5}, "interpolation": 0, "handle_type": 0}, {"co": {"Y": 0.0, "X": 25.0}, "handle_left": {"Y": 1.0, "X": 0.5}, "handle_right": {"Y": 0.0, "X": 0.5}, "interpolation": 0, "handle_type": 0}]}, "title": "Title-02.svg", "location_y": {"Points": [{"co": {"Y": 0.0, "X": 1.0}, "interpolation": 2}, {"co": {"Y": 0.0, "X": 1.0}, "handle_left": {"Y": 1.0, "X": 0.5}, "handle_right": {"Y": 0.0, "X": 0.5}, "interpolation": 0, "handle_type": 0}, {"co": {"Y": 0.0, "X": 25.0}, "handle_left": {"Y": 1.0, "X": 0.5}, "handle_right": {"Y": 0.0, "X": 0.5}, "interpolation": 0, "handle_type": 0}]}, "image": "../../../.openshot_qt/thumbnail/5QW60D58CB.png", "perspective_c1_x": {"Points": [{"co": {"Y": -1.0, "X": 1.0}, "interpolation": 2}]}, "perspective_c4_y": {"Points": [{"co": {"Y": -1.0, "X": 1.0}, "interpolation": 2}]}, "position": 3.63, "shear_x": {"Points": [{"co": {"Y": 0.0, "X": 1.0}, "interpolation": 2}]}, "has_video": {"Points": [{"co": {"Y": -1.0, "X": 1.0}, "interpolation": 2}]}, "start": 0, "crop_x": {"Points": [{"co": {"Y": 0.0, "X": 1.0}, "interpolation": 2}]}, "anchor": 0, "duration": 86400.0, "crop_width": {"Points": [{"co": {"Y": -1.0, "X": 1.0}, "interpolation": 2}]}, "rotation": {"Points": [{"co": {"Y": 0.0, "X": 1.0}, "interpolation": 2}]}, "perspective_c1_y": {"Points": [{"co": {"Y": -1.0, "X": 1.0}, "interpolation": 2}]}, "gravity": 4, "crop_y": {"Points": [{"co": {"Y": 0.0, "X": 1.0}, "interpolation": 2}]}, "reader": {"path": "Title-02.svg", "has_video": true, "has_audio": false, "height": 3827, "duration": 86400.0, "audio_bit_rate": 0, "pixel_ratio": {"den": 1, "num": 1}, "type": "QtImageReader", "file_size": "104140324", "audio_stream_index": -1, "has_single_image": true, "video_stream_index": -1, "pixel_format": -1, "channels": 0, "vcodec": "", "interlaced_frame": false, "sample_rate": 0, "channel_layout": 4, "video_bit_rate": 0, "fps": {"den": 1, "num": 30}, "width": 6803, "audio_timebase": {"den": 1, "num": 1}, "display_ratio": {"den": 3827, "num": 6803}, "top_field_first": true, "video_timebase": {"den": 30, "num": 1}, "acodec": "", "video_length": "2592000"}, "perspective_c2_y": {"Points": [{"co": {"Y": -1.0, "X": 1.0}, "interpolation": 2}]}, "perspective_c4_x": {"Points": [{"co": {"Y": -1.0, "X": 1.0}, "interpolation": 2}]}, "time": {"Points": [{"co": {"Y": 1.0, "X": 1.0}, "interpolation": 2}]}, "id": "3OCKSFXMGL", "perspective_c3_y": {"Points": [{"co": {"Y": -1.0, "X": 1.0}, "interpolation": 2}]}, "channel_filter": {"Points": [{"co": {"Y": -1.0, "X": 1.0}, "interpolation": 2}]}, "scale_y": {"Points": [{"co": {"Y": 1.0, "X": 1.0}, "interpolation": 2}]}, "channel_mapping": {"Points": [{"co": {"Y": -1.0, "X": 1.0}, "interpolation": 2}]}, "wave_color": {"alpha": {"Points": [{"co": {"Y": 255.0, "X": 1.0}, "handle_left": {"Y": 1.0, "X": 0.5}, "handle_right": {"Y": 0.0, "X": 0.5}, "interpolation": 0, "handle_type": 0}]}, "blue": {"Points": [{"co": {"Y": 255.0, "X": 1.0}, "handle_left": {"Y": 1.0, "X": 0.5}, "handle_right": {"Y": 0.0, "X": 0.5}, "interpolation": 0, "handle_type": 0}]}, "green": {"Points": [{"co": {"Y": 123.0, "X": 1.0}, "handle_left": {"Y": 1.0, "X": 0.5}, "handle_right": {"Y": 0.0, "X": 0.5}, "interpolation": 0, "handle_type": 0}]}, "red": {"Points": [{"co": {"Y": 0.0, "X": 1.0}, "handle_left": {"Y": 1.0, "X": 0.5}, "handle_right": {"Y": 0.0, "X": 0.5}, "interpolation": 0, "handle_type": 0}]}}}, {"layer": 2, "has_audio": {"Points": [{"co": {"Y": -1.0, "X": 1.0}, "interpolation": 2}]}, "volume": {"Points": [{"co": {"Y": 1.0, "X": 1.0}, "interpolation": 2}]}, "scale_x": {"Points": [{"co": {"Y": 1.0, "X": 1.0}, "interpolation": 2}]}, "shear_y": {"Points": [{"co": {"Y": 0.0, "X": 1.0}, "interpolation": 2}]}, "effects": [], "display": 0, "perspective_c3_x": {"Points": [{"co": {"Y": -1.0, "X": 1.0}, "interpolation": 2}]}, "end": 3.3116666666666665, "perspective_c2_x": {"Points": [{"co": {"Y": -1.0, "X": 1.0}, "interpolation": 2}]}, "alpha": {"Points": [{"co": {"Y": 1.0, "X": 1.0}, "interpolation": 2}]}, "file_id": "1UGFFUXPZG", "crop_height": {"Points": [{"co": {"Y": -1.0, "X": 1.0}, "interpolation": 2}]}, "scale": 1, "waveform": false, "location_x": {"Points": [{"co": {"Y": 0.0, "X": 1.0}, "interpolation": 2}, {"co": {"Y": 1.0, "X": 1.0}, "handle_left": {"Y": 1.0, "X": 0.5}, "handle_right": {"Y": 0.0, "X": 0.5}, "interpolation": 0, "handle_type": 0}, {"co": {"Y": 0.0, "X": 25.0}, "handle_left": {"Y": 1.0, "X": 0.5}, "handle_right": {"Y": 0.0, "X": 0.5}, "interpolation": 0, "handle_type": 0}]}, "title": "Title-03.svg", "location_y": {"Points": [{"co": {"Y": 0.0, "X": 1.0}, "interpolation": 2}, {"co": {"Y": 0.0, "X": 1.0}, "handle_left": {"Y": 1.0, "X": 0.5}, "handle_right": {"Y": 0.0, "X": 0.5}, "interpolation": 0, "handle_type": 0}, {"co": {"Y": 0.0, "X": 25.0}, "handle_left": {"Y": 1.0, "X": 0.5}, "handle_right": {"Y": 0.0, "X": 0.5}, "interpolation": 0, "handle_type": 0}]}, "image": "../../../.openshot_qt/thumbnail/1UGFFUXPZG.png", "perspective_c1_x": {"Points": [{"co": {"Y": -1.0, "X": 1.0}, "interpolation": 2}]}, "perspective_c4_y": {"Points": [{"co": {"Y": -1.0, "X": 1.0}, "interpolation": 2}]}, "position": 4.9799999999999995, "shear_x": {"Points": [{"co": {"Y": 0.0, "X": 1.0}, "interpolation": 2}]}, "has_video": {"Points": [{"co": {"Y": -1.0, "X": 1.0}, "interpolation": 2}]}, "start": 0, "crop_x": {"Points": [{"co": {"Y": 0.0, "X": 1.0}, "interpolation": 2}]}, "anchor": 0, "duration": 86400.0, "crop_width": {"Points": [{"co": {"Y": -1.0, "X": 1.0}, "interpolation": 2}]}, "rotation": {"Points": [{"co": {"Y": 0.0, "X": 1.0}, "interpolation": 2}]}, "perspective_c1_y": {"Points": [{"co": {"Y": -1.0, "X": 1.0}, "interpolation": 2}]}, "gravity": 4, "crop_y": {"Points": [{"co": {"Y": 0.0, "X": 1.0}, "interpolation": 2}]}, "reader": {"path": "Title-03.svg", "has_video": true, "has_audio": false, "height": 3827, "duration": 86400.0, "audio_bit_rate": 0, "pixel_ratio": {"den": 1, "num": 1}, "type": "QtImageReader", "file_size": "104140324", "audio_stream_index": -1, "has_single_image": true, "video_stream_index": -1, "pixel_format": -1, "channels": 0, "vcodec": "", "interlaced_frame": false, "sample_rate": 0, "channel_layout": 4, "video_bit_rate": 0, "fps": {"den": 1, "num": 30}, "width": 6803, "audio_timebase": {"den": 1, "num": 1}, "display_ratio": {"den": 3827, "num": 6803}, "top_field_first": true, "video_timebase": {"den": 30, "num": 1}, "acodec": "", "video_length": "2592000"}, "perspective_c2_y": {"Points": [{"co": {"Y": -1.0, "X": 1.0}, "interpolation": 2}]}, "perspective_c4_x": {"Points": [{"co": {"Y": -1.0, "X": 1.0}, "interpolation": 2}]}, "time": {"Points": [{"co": {"Y": 1.0, "X": 1.0}, "interpolation": 2}]}, "id": "DRRWM84D3O", "perspective_c3_y": {"Points": [{"co": {"Y": -1.0, "X": 1.0}, "interpolation": 2}]}, "channel_filter": {"Points": [{"co": {"Y": -1.0, "X": 1.0}, "interpolation": 2}]}, "scale_y": {"Points": [{"co": {"Y": 1.0, "X": 1.0}, "interpolation": 2}]}, "channel_mapping": {"Points": [{"co": {"Y": -1.0, "X": 1.0}, "interpolation": 2}]}, "wave_color": {"alpha": {"Points": [{"co": {"Y": 255.0, "X": 1.0}, "handle_left": {"Y": 1.0, "X": 0.5}, "handle_right": {"Y": 0.0, "X": 0.5}, "interpolation": 0, "handle_type": 0}]}, "blue": {"Points": [{"co": {"Y": 255.0, "X": 1.0}, "handle_left": {"Y": 1.0, "X": 0.5}, "handle_right": {"Y": 0.0, "X": 0.5}, "interpolation": 0, "handle_type": 0}]}, "green": {"Points": [{"co": {"Y": 123.0, "X": 1.0}, "handle_left": {"Y": 1.0, "X": 0.5}, "handle_right": {"Y": 0.0, "X": 0.5}, "interpolation": 0, "handle_type": 0}]}, "red": {"Points": [{"co": {"Y": 0.0, "X": 1.0}, "handle_left": {"Y": 1.0, "X": 0.5}, "handle_right": {"Y": 0.0, "X": 0.5}, "interpolation": 0, "handle_type": 0}]}}}, {"layer": 3, "has_audio": {"Points": [{"co": {"Y": -1.0, "X": 1.0}, "interpolation": 2}]}, "volume": {"Points": [{"co": {"Y": 1.0, "X": 1.0}, "interpolation": 2}]}, "scale_x": {"Points": [{"co": {"Y": 1.0, "X": 1.0}, "interpolation": 2}]}, "shear_y": {"Points": [{"co": {"Y": 0.0, "X": 1.0}, "interpolation": 2}]}, "effects": [], "display": 0, "perspective_c3_x": {"Points": [{"co": {"Y": -1.0, "X": 1.0}, "interpolation": 2}]}, "end": 2.0216666666666665, "perspective_c2_x": {"Points": [{"co": {"Y": -1.0, "X": 1.0}, "interpolation": 2}]}, "alpha": {"Points": [{"co": {"Y": 1.0, "X": 1.0}, "interpolation": 2}]}, "file_id": "6B6X3SW6U5", "crop_height": {"Points": [{"co": {"Y": -1.0, "X": 1.0}, "interpolation": 2}]}, "scale": 1, "waveform": false, "location_x": {"Points": [{"co": {"Y": 0.0, "X": 1.0}, "interpolation": 2}, {"co": {"Y": 1.0, "X": 1.0}, "handle_left": {"Y": 1.0, "X": 0.5}, "handle_right": {"Y": 0.0, "X": 0.5}, "interpolation": 0, "handle_type": 0}, {"co": {"Y": 0.0, "X": 25.0}, "handle_left": {"Y": 1.0, "X": 0.5}, "handle_right": {"Y": 0.0, "X": 0.5}, "interpolation": 0, "handle_type": 0}]}, "title": "Title-04.svg", "location_y": {"Points": [{"co": {"Y": 0.0, "X": 1.0}, "interpolation": 2}, {"co": {"Y": 0.0, "X": 1.0}, "handle_left": {"Y": 1.0, "X": 0.5}, "handle_right": {"Y": 0.0, "X": 0.5}, "interpolation": 0, "handle_type": 0}, {"co": {"Y": 0.0, "X": 25.0}, "handle_left": {"Y": 1.0, "X": 0.5}, "handle_right": {"Y": 0.0, "X": 0.5}, "interpolation": 0, "handle_type": 0}]}, "image": "../../../.openshot_qt/thumbnail/6B6X3SW6U5.png", "perspective_c1_x": {"Points": [{"co": {"Y": -1.0, "X": 1.0}, "interpolation": 2}]}, "perspective_c4_y": {"Points": [{"co": {"Y": -1.0, "X": 1.0}, "interpolation": 2}]}, "position": 6.27, "shear_x": {"Points": [{"co": {"Y": 0.0, "X": 1.0}, "interpolation": 2}]}, "has_video": {"Points": [{"co": {"Y": -1.0, "X": 1.0}, "interpolation": 2}]}, "start": 0, "crop_x": {"Points": [{"co": {"Y": 0.0, "X": 1.0}, "interpolation": 2}]}, "anchor": 0, "duration": 86400.0, "crop_width": {"Points": [{"co": {"Y": -1.0, "X": 1.0}, "interpolation": 2}]}, "rotation": {"Points": [{"co": {"Y": 0.0, "X": 1.0}, "interpolation": 2}]}, "perspective_c1_y": {"Points": [{"co": {"Y": -1.0, "X": 1.0}, "interpolation": 2}]}, "gravity": 4, "crop_y": {"Points": [{"co": {"Y": 0.0, "X": 1.0}, "interpolation": 2}]}, "reader": {"path": "Title-04.svg", "has_video": true, "has_audio": false, "height": 3827, "duration": 86400.0, "audio_bit_rate": 0, "pixel_ratio": {"den": 1, "num": 1}, "type": "QtImageReader", "file_size": "104140324", "audio_stream_index": -1, "has_single_image": true, "video_stream_index": -1, "pixel_format": -1, "channels": 0, "vcodec": "", "interlaced_frame": false, "sample_rate": 0, "channel_layout": 4, "video_bit_rate": 0, "fps": {"den": 1, "num": 30}, "width": 6803, "audio_timebase": {"den": 1, "num": 1}, "display_ratio": {"den": 3827, "num": 6803}, "top_field_first": true, "video_timebase": {"den": 30, "num": 1}, "acodec": "", "video_length": "2592000"}, "perspective_c2_y": {"Points": [{"co": {"Y": -1.0, "X": 1.0}, "interpolation": 2}]}, "perspective_c4_x": {"Points": [{"co": {"Y": -1.0, "X": 1.0}, "interpolation": 2}]}, "time": {"Points": [{"co": {"Y": 1.0, "X": 1.0}, "interpolation": 2}]}, "id": "173ASVPEMX", "perspective_c3_y": {"Points": [{"co": {"Y": -1.0, "X": 1.0}, "interpolation": 2}]}, "channel_filter": {"Points": [{"co": {"Y": -1.0, "X": 1.0}, "interpolation": 2}]}, "scale_y": {"Points": [{"co": {"Y": 1.0, "X": 1.0}, "interpolation": 2}]}, "channel_mapping": {"Points": [{"co": {"Y": -1.0, "X": 1.0}, "interpolation": 2}]}, "wave_color": {"alpha": {"Points": [{"co": {"Y": 255.0, "X": 1.0}, "handle_left": {"Y": 1.0, "X": 0.5}, "handle_right": {"Y": 0.0, "X": 0.5}, "interpolation": 0, "handle_type": 0}]}, "blue": {"Points": [{"co": {"Y": 255.0, "X": 1.0}, "handle_left": {"Y": 1.0, "X": 0.5}, "handle_right": {"Y": 0.0, "X": 0.5}, "interpolation": 0, "handle_type": 0}]}, "green": {"Points": [{"co": {"Y": 123.0, "X": 1.0}, "handle_left": {"Y": 1.0, "X": 0.5}, "handle_right": {"Y": 0.0, "X": 0.5}, "interpolation": 0, "handle_type": 0}]}, "red": {"Points": [{"co": {"Y": 0.0, "X": 1.0}, "handle_left": {"Y": 1.0, "X": 0.5}, "handle_right": {"Y": 0.0, "X": 0.5}, "interpolation": 0, "handle_type": 0}]}}}, {"layer": 4, "has_audio": {"Points": [{"co": {"Y": -1.0, "X": 1.0}, "interpolation": 2}]}, "display": 0, "crop_y": {"Points": [{"co": {"Y": 0.0, "X": 1.0}, "interpolation": 2}]}, "shear_y": {"Points": [{"co": {"Y": 0.0, "X": 1.0}, "interpolation": 2}]}, "effects": [], "volume": {"Points": [{"co": {"Y": 1.0, "X": 1.0}, "interpolation": 2}]}, "perspective_c3_x": {"Points": [{"co": {"Y": -1.0, "X": 1.0}, "interpolation": 2}]}, "end": 7.220000000000001, "perspective_c2_x": {"Points": [{"co": {"Y": -1.0, "X": 1.0}, "interpolation": 2}]}, "alpha": {"Points": [{"co": {"Y": 1.0, "X": 1.0}, "interpolation": 2}]}, "file_id": "AR5E0JZFG5", "crop_height": {"Points": [{"co": {"Y": -1.0, "X": 1.0}, "interpolation": 2}]}, "scale": 1, "waveform": false, "location_x": {"Points": [{"co": {"Y": 0.0, "X": 1.0}, "interpolation": 2}, {"co": {"Y": 0.0, "X": 150.0}, "handle_left": {"Y": 1.0, "X": 0.5}, "handle_right": {"Y": 0.0, "X": 0.5}, "interpolation": 0, "handle_type": 0}, {"co": {"Y": -1.0, "X": 174.0}, "handle_left": {"Y": 1.0, "X": 0.5}, "handle_right": {"Y": 0.0, "X": 0.5}, "interpolation": 0, "handle_type": 0}]}, "title": "Title-05-All Four Titles.svg", "location_y": {"Points": [{"co": {"Y": 0.0, "X": 1.0}, "interpolation": 2}, {"co": {"Y": 0.0, "X": 150.0}, "handle_left": {"Y": 1.0, "X": 0.5}, "handle_right": {"Y": 0.0, "X": 0.5}, "interpolation": 0, "handle_type": 0}, {"co": {"Y": 0.0, "X": 174.0}, "handle_left": {"Y": 1.0, "X": 0.5}, "handle_right": {"Y": 0.0, "X": 0.5}, "interpolation": 0, "handle_type": 0}]}, "image": "../../../.openshot_qt/thumbnail/AR5E0JZFG5.png", "perspective_c1_x": {"Points": [{"co": {"Y": -1.0, "X": 1.0}, "interpolation": 2}]}, "perspective_c4_y": {"Points": [{"co": {"Y": -1.0, "X": 1.0}, "interpolation": 2}]}, "position": 7.529999999999999, "shear_x": {"Points": [{"co": {"Y": 0.0, "X": 1.0}, "interpolation": 2}]}, "has_video": {"Points": [{"co": {"Y": -1.0, "X": 1.0}, "interpolation": 2}]}, "start": 0, "crop_x": {"Points": [{"co": {"Y": 0.0, "X": 1.0}, "interpolation": 2}]}, "anchor": 0, "duration": 86400.0, "crop_width": {"Points": [{"co": {"Y": -1.0, "X": 1.0}, "interpolation": 2}]}, "rotation": {"Points": [{"co": {"Y": 0.0, "X": 1.0}, "interpolation": 2}]}, "perspective_c1_y": {"Points": [{"co": {"Y": -1.0, "X": 1.0}, "interpolation": 2}]}, "gravity": 4, "scale_x": {"Points": [{"co": {"Y": 1.0, "X": 1.0}, "interpolation": 2}]}, "reader": {"has_video": true, "interlaced_frame": false, "height": 3827, "acodec": "", "audio_bit_rate": 0, "duration": 86400.0, "pixel_ratio": {"den": 1, "num": 1}, "type": "QtImageReader", "file_size": "104140324", "audio_stream_index": -1, "has_single_image": true, "video_stream_index": -1, "video_bit_rate": 0, "channels": 0, "vcodec": "", "sample_rate": 0, "channel_layout": 4, "pixel_format": -1, "fps": {"den": 1, "num": 30}, "width": 6803, "audio_timebase": {"den": 1, "num": 1}, "display_ratio": {"den": 3827, "num": 6803}, "top_field_first": true, "video_timebase": {"den": 30, "num": 1}, "has_audio": false, "path": "Title-05-All Four Titles.svg", "video_length": "2592000"}, "perspective_c2_y": {"Points": [{"co": {"Y": -1.0, "X": 1.0}, "interpolation": 2}]}, "perspective_c4_x": {"Points": [{"co": {"Y": -1.0, "X": 1.0}, "interpolation": 2}]}, "time": {"Points": [{"co": {"Y": 1.0, "X": 1.0}, "interpolation": 2}]}, "id": "UTVCSP6ZNL", "perspective_c3_y": {"Points": [{"co": {"Y": -1.0, "X": 1.0}, "interpolation": 2}]}, "channel_filter": {"Points": [{"co": {"Y": -1.0, "X": 1.0}, "interpolation": 2}]}, "scale_y": {"Points": [{"co": {"Y": 1.0, "X": 1.0}, "interpolation": 2}]}, "channel_mapping": {"Points": [{"co": {"Y": -1.0, "X": 1.0}, "interpolation": 2}]}, "wave_color": {"alpha": {"Points": [{"co": {"Y": 255.0, "X": 1.0}, "handle_left": {"Y": 1.0, "X": 0.5}, "handle_type": 0, "handle_right": {"Y": 0.0, "X": 0.5}, "interpolation": 0}]}, "blue": {"Points": [{"co": {"Y": 255.0, "X": 1.0}, "handle_left": {"Y": 1.0, "X": 0.5}, "handle_type": 0, "handle_right": {"Y": 0.0, "X": 0.5}, "interpolation": 0}]}, "green": {"Points": [{"co": {"Y": 123.0, "X": 1.0}, "handle_left": {"Y": 1.0, "X": 0.5}, "handle_type": 0, "handle_right": {"Y": 0.0, "X": 0.5}, "interpolation": 0}]}, "red": {"Points": [{"co": {"Y": 0.0, "X": 1.0}, "handle_left": {"Y": 1.0, "X": 0.5}, "handle_type": 0, "handle_right": {"Y": 0.0, "X": 0.5}, "interpolation": 0}]}}}, {"layer": 5, "has_audio": {"Points": [{"co": {"Y": -1.0, "X": 1.0}, "interpolation": 2}]}, "display": 0, "crop_y": {"Points": [{"co": {"Y": 0.0, "X": 1.0}, "interpolation": 2}]}, "shear_y": {"Points": [{"co": {"Y": 0.0, "X": 1.0}, "interpolation": 2}]}, "effects": [], "volume": {"Points": [{"co": {"Y": 1.0, "X": 1.0}, "interpolation": 2}]}, "perspective_c3_x": {"Points": [{"co": {"Y": -1.0, "X": 1.0}, "interpolation": 2}]}, "end": 7.348333333333333, "perspective_c2_x": {"Points": [{"co": {"Y": -1.0, "X": 1.0}, "interpolation": 2}]}, "alpha": {"Points": [{"co": {"Y": 1.0, "X": 1.0}, "interpolation": 2}]}, "file_id": "EYET6E4WCX", "crop_height": {"Points": [{"co": {"Y": -1.0, "X": 1.0}, "interpolation": 2}]}, "scale": 1, "waveform": false, "location_x": {"Points": [{"co": {"Y": 0.0, "X": 1.0}, "handle_left": {"Y": 1.0, "X": 0.5}, "handle_type": 0, "handle_right": {"Y": 0.0, "X": 0.5}, "interpolation": 0}, {"co": {"Y": 1.0, "X": 1.0}, "handle_left": {"Y": 1.0, "X": 0.5}, "handle_right": {"Y": 0.0, "X": 0.5}, "interpolation": 0, "handle_type": 0}, {"co": {"Y": 0.0, "X": 25.0}, "handle_left": {"Y": 1.0, "X": 0.5}, "handle_right": {"Y": 0.0, "X": 0.5}, "interpolation": 0, "handle_type": 0}, {"co": {"Y": 0.0, "X": 217.0}, "handle_left": {"Y": 1.0, "X": 0.5}, "handle_type": 0, "handle_right": {"Y": 0.0, "X": 0.5}, "interpolation": 0}, {"co": {"Y": -1.0, "X": 241.0}, "handle_left": {"Y": 1.0, "X": 0.5}, "handle_type": 0, "handle_right": {"Y": 0.0, "X": 0.5}, "interpolation": 0}, {"co": {"Y": 0.0, "X": 153.0}, "handle_left": {"Y": 1.0, "X": 0.5}, "handle_right": {"Y": 0.0, "X": 0.5}, "interpolation": 0, "handle_type": 0}, {"co": {"Y": -1.0, "X": 177.0}, "handle_left": {"Y": 1.0, "X": 0.5}, "handle_right": {"Y": 0.0, "X": 0.5}, "interpolation": 0, "handle_type": 0}]}, "title": "intro.png", "location_y": {"Points": [{"co": {"Y": 0.0, "X": 1.0}, "handle_left": {"Y": 1.0, "X": 0.5}, "handle_type": 0, "handle_right": {"Y": 0.0, "X": 0.5}, "interpolation": 0}, {"co": {"Y": 0.0, "X": 1.0}, "handle_left": {"Y": 1.0, "X": 0.5}, "handle_right": {"Y": 0.0, "X": 0.5}, "interpolation": 0, "handle_type": 0}, {"co": {"Y": 0.0, "X": 25.0}, "handle_left": {"Y": 1.0, "X": 0.5}, "handle_right": {"Y": 0.0, "X": 0.5}, "interpolation": 0, "handle_type": 0}, {"co": {"Y": 0.0, "X": 217.0}, "handle_left": {"Y": 1.0, "X": 0.5}, "handle_type": 0, "handle_right": {"Y": 0.0, "X": 0.5}, "interpolation": 0}, {"co": {"Y": 0.0, "X": 241.0}, "handle_left": {"Y": 1.0, "X": 0.5}, "handle_type": 0, "handle_right": {"Y": 0.0, "X": 0.5}, "interpolation": 0}, {"co": {"Y": 0.0, "X": 153.0}, "handle_left": {"Y": 1.0, "X": 0.5}, "handle_right": {"Y": 0.0, "X": 0.5}, "interpolation": 0, "handle_type": 0}, {"co": {"Y": 0.0, "X": 177.0}, "handle_left": {"Y": 1.0, "X": 0.5}, "handle_right": {"Y": 0.0, "X": 0.5}, "interpolation": 0, "handle_type": 0}]}, "image": "../../../.openshot_qt/thumbnail/EYET6E4WCX.png", "perspective_c1_x": {"Points": [{"co": {"Y": -1.0, "X": 1.0}, "interpolation": 2}]}, "perspective_c4_y": {"Points": [{"co": {"Y": -1.0, "X": 1.0}, "interpolation": 2}]}, "position": 15.36, "shear_x": {"Points": [{"co": {"Y": 0.0, "X": 1.0}, "interpolation": 2}]}, "has_video": {"Points": [{"co": {"Y": -1.0, "X": 1.0}, "interpolation": 2}]}, "start": 0, "crop_x": {"Points": [{"co": {"Y": 0.0, "X": 1.0}, "interpolation": 2}]}, "anchor": 0, "duration": 86400.0, "crop_width": {"Points": [{"co": {"Y": -1.0, "X": 1.0}, "interpolation": 2}]}, "rotation": {"Points": [{"co": {"Y": 0.0, "X": 1.0}, "interpolation": 2}]}, "perspective_c1_y": {"Points": [{"co": {"Y": -1.0, "X": 1.0}, "interpolation": 2}]}, "gravity": 4, "scale_x": {"Points": [{"co": {"Y": 1.0, "X": 1.0}, "handle_left": {"Y": 1.0, "X": 0.5}, "handle_type": 0, "handle_right": {"Y": 0.0, "X": 0.5}, "interpolation": 0}]}, "reader": {"has_video": true, "interlaced_frame": false, "height": 169, "acodec": "", "audio_bit_rate": 0, "duration": 86400.0, "pixel_ratio": {"den": 1, "num": 1}, "type": "QtImageReader", "file_size": "446836", "audio_stream_index": -1, "has_single_image": true, "video_stream_index": -1, "video_bit_rate": 0, "channels": 0, "vcodec": "", "sample_rate": 0, "channel_layout": 4, "pixel_format": -1, "fps": {"den": 1, "num": 30}, "width": 661, "audio_timebase": {"den": 1, "num": 1}, "display_ratio": {"den": 169, "num": 661}, "top_field_first": true, "video_timebase": {"den": 30, "num": 1}, "has_audio": false, "path": "intro.png", "video_length": "2592000"}, "perspective_c2_y": {"Points": [{"co": {"Y": -1.0, "X": 1.0}, "interpolation": 2}]}, "perspective_c4_x": {"Points": [{"co": {"Y": -1.0, "X": 1.0}, "interpolation": 2}]}, "time": {"Points": [{"co": {"Y": 1.0, "X": 1.0}, "interpolation": 2}]}, "id": "QRWUU8C5AG", "perspective_c3_y": {"Points": [{"co": {"Y": -1.0, "X": 1.0}, "interpolation": 2}]}, "channel_filter": {"Points": [{"co": {"Y": -1.0, "X": 1.0}, "interpolation": 2}]}, "scale_y": {"Points": [{"co": {"Y": 1.0, "X": 1.0}, "handle_left": {"Y": 1.0, "X": 0.5}, "handle_type": 0, "handle_right": {"Y": 0.0, "X": 0.5}, "interpolation": 0}]}, "channel_mapping": {"Points": [{"co": {"Y": -1.0, "X": 1.0}, "interpolation": 2}]}, "wave_color": {"alpha": {"Points": [{"co": {"Y": 255.0, "X": 1.0}, "handle_left": {"Y": 1.0, "X": 0.5}, "handle_type": 0, "handle_right": {"Y": 0.0, "X": 0.5}, "interpolation": 0}]}, "blue": {"Points": [{"co": {"Y": 255.0, "X": 1.0}, "handle_left": {"Y": 1.0, "X": 0.5}, "handle_type": 0, "handle_right": {"Y": 0.0, "X": 0.5}, "interpolation": 0}]}, "green": {"Points": [{"co": {"Y": 123.0, "X": 1.0}, "handle_left": {"Y": 1.0, "X": 0.5}, "handle_type": 0, "handle_right": {"Y": 0.0, "X": 0.5}, "interpolation": 0}]}, "red": {"Points": [{"co": {"Y": 0.0, "X": 1.0}, "handle_left": {"Y": 1.0, "X": 0.5}, "handle_type": 0, "handle_right": {"Y": 0.0, "X": 0.5}, "interpolation": 0}]}}}, {"layer": 5, "has_audio": {"Points": [{"co": {"Y": -1.0, "X": 1.0}, "interpolation": 2}]}, "display": 0, "crop_y": {"Points": [{"co": {"Y": 0.0, "X": 1.0}, "interpolation": 2}]}, "shear_y": {"Points": [{"co": {"Y": 0.0, "X": 1.0}, "interpolation": 2}]}, "effects": [], "volume": {"Points": [{"co": {"Y": 1.0, "X": 1.0}, "interpolation": 2}]}, "perspective_c3_x": {"Points": [{"co": {"Y": -1.0, "X": 1.0}, "interpolation": 2}]}, "end": 44, "perspective_c2_x": {"Points": [{"co": {"Y": -1.0, "X": 1.0}, "interpolation": 2}]}, "alpha": {"Points": [{"co": {"Y": 1.0, "X": 1.0}, "interpolation": 2}]}, "file_id": "JH7UWI807B", "crop_height": {"Points": [{"co": {"Y": -1.0, "X": 1.0}, "interpolation": 2}]}, "scale": 1, "waveform": false, "location_x": {"Points": [{"co": {"Y": 0.0, "X": 1.0}, "interpolation": 2}]}, "title": "06-Create Progress Card Template.mkv", "location_y": {"Points": [{"co": {"Y": 0.0, "X": 1.0}, "interpolation": 2}]}, "image": "../../../.openshot_qt/thumbnail/JH7UWI807B.png", "perspective_c1_x": {"Points": [{"co": {"Y": -1.0, "X": 1.0}, "interpolation": 2}]}, "perspective_c4_y": {"Points": [{"co": {"Y": -1.0, "X": 1.0}, "interpolation": 2}]}, "position": 23.52, "shear_x": {"Points": [{"co": {"Y": 0.0, "X": 1.0}, "interpolation": 2}]}, "has_video": {"Points": [{"co": {"Y": -1.0, "X": 1.0}, "interpolation": 2}]}, "start": 0, "crop_x": {"Points": [{"co": {"Y": 0.0, "X": 1.0}, "interpolation": 2}]}, "anchor": 0, "duration": 44.0, "crop_width": {"Points": [{"co": {"Y": -1.0, "X": 1.0}, "interpolation": 2}]}, "rotation": {"Points": [{"co": {"Y": 0.0, "X": 1.0}, "interpolation": 2}]}, "perspective_c1_y": {"Points": [{"co": {"Y": -1.0, "X": 1.0}, "interpolation": 2}]}, "gravity": 4, "scale_x": {"Points": [{"co": {"Y": 1.0, "X": 1.0}, "interpolation": 2}]}, "reader": {"has_video": true, "interlaced_frame": false, "height": 768, "acodec": "", "audio_bit_rate": 0, "duration": 44.0, "pixel_ratio": {"den": 1, "num": 1}, "type": "FFmpegReader", "file_size": "394038", "audio_stream_index": -1, "has_single_image": false, "video_stream_index": 0, "video_bit_rate": 0, "channels": 0, "vcodec": "h264", "sample_rate": 0, "channel_layout": 4, "pixel_format": 0, "fps": {"den": 1, "num": 25}, "width": 1366, "audio_timebase": {"den": 1, "num": 1}, "display_ratio": {"den": 384, "num": 683}, "top_field_first": true, "video_timebase": {"den": 1000, "num": 1}, "has_audio": false, "path": "06-Create Progress Card Template.mkv", "video_length": "1100"}, "perspective_c2_y": {"Points": [{"co": {"Y": -1.0, "X": 1.0}, "interpolation": 2}]}, "perspective_c4_x": {"Points": [{"co": {"Y": -1.0, "X": 1.0}, "interpolation": 2}]}, "time": {"Points": [{"co": {"Y": 1.0, "X": 1.0}, "interpolation": 2}]}, "id": "AVMGYI71Z9", "perspective_c3_y": {"Points": [{"co": {"Y": -1.0, "X": 1.0}, "interpolation": 2}]}, "channel_filter": {"Points": [{"co": {"Y": -1.0, "X": 1.0}, "interpolation": 2}]}, "scale_y": {"Points": [{"co": {"Y": 1.0, "X": 1.0}, "interpolation": 2}]}, "channel_mapping": {"Points": [{"co": {"Y": -1.0, "X": 1.0}, "interpolation": 2}]}, "wave_color": {"alpha": {"Points": [{"co": {"Y": 255.0, "X": 1.0}, "handle_left": {"Y": 1.0, "X": 0.5}, "handle_type": 0, "handle_right": {"Y": 0.0, "X": 0.5}, "interpolation": 0}]}, "blue": {"Points": [{"co": {"Y": 255.0, "X": 1.0}, "handle_left": {"Y": 1.0, "X": 0.5}, "handle_type": 0, "handle_right": {"Y": 0.0, "X": 0.5}, "interpolation": 0}]}, "green": {"Points": [{"co": {"Y": 123.0, "X": 1.0}, "handle_left": {"Y": 1.0, "X": 0.5}, "handle_type": 0, "handle_right": {"Y": 0.0, "X": 0.5}, "interpolation": 0}]}, "red": {"Points": [{"co": {"Y": 0.0, "X": 1.0}, "handle_left": {"Y": 1.0, "X": 0.5}, "handle_type": 0, "handle_right": {"Y": 0.0, "X": 0.5}, "interpolation": 0}]}}}], "playhead_position": 0, "profile": "HDV 720 24p", "layers": [{"id": "L0", "number": 0, "y": 0, "label": "", "lock": false}, {"id": "L1", "number": 1, "y": 0, "label": "", "lock": false}, {"id": "L2", "number": 2, "y": 0, "label": "", "lock": false}, {"id": "L3", "number": 3, "y": 0, "label": "", "lock": false}, {"id": "L4", "number": 4, "y": 0, "label": "", "lock": false}, {"id": "N3ZYH74NCE", "number": 5, "y": 0, "label": "", "lock": false}]}