{"channels": 2, "width": 1280, "scale": 6, "duration": 300, "effects": [], "channel_layout": 3, "history": {"redo": [], "undo": [{"key": ["files"], "partial": false, "old_values": [{"channels": 0, "path": "/home/milind/Data/Projects/ProgressCard/intro.png", "duration": 86400.0, "has_audio": false, "width": 661, "video_stream_index": -1, "top_field_first": true, "vcodec": "", "audio_bit_rate": 0, "has_video": true, "pixel_ratio": {"num": 1, "den": 1}, "height": 169, "video_length": "2592000", "video_bit_rate": 0, "acodec": "", "sample_rate": 0, "file_size": "446836", "pixel_format": -1, "fps": {"num": 30, "den": 1}, "video_timebase": {"num": 1, "den": 30}, "display_ratio": {"num": 661, "den": 169}, "media_type": "image", "id": "EYET6E4WCX", "has_single_image": true, "audio_stream_index": -1, "type": "QtImageReader", "channel_layout": 4, "interlaced_frame": false, "audio_timebase": {"num": 1, "den": 1}}, {"channels": 0, "path": "/home/milind/Data/Projects/ProgressCard/Title-02.svg", "duration": 86400.0, "has_audio": false, "width": 6803, "video_stream_index": -1, "top_field_first": true, "vcodec": "", "audio_bit_rate": 0, "has_video": true, "pixel_ratio": {"num": 1, "den": 1}, "height": 3827, "video_length": "2592000", "video_bit_rate": 0, "acodec": "", "sample_rate": 0, "file_size": "104140324", "pixel_format": -1, "fps": {"num": 30, "den": 1}, "video_timebase": {"num": 1, "den": 30}, "display_ratio": {"num": 6803, "den": 3827}, "media_type": "image", "id": "5QW60D58CB", "has_single_image": true, "audio_stream_index": -1, "type": "QtImageReader", "channel_layout": 4, "interlaced_frame": false, "audio_timebase": {"num": 1, "den": 1}}, {"channels": 0, "path": "/home/milind/Data/Projects/ProgressCard/Title-01.svg", "duration": 86400.0, "has_audio": false, "width": 6803, "video_stream_index": -1, "top_field_first": true, "vcodec": "", "audio_bit_rate": 0, "has_video": true, "pixel_ratio": {"num": 1, "den": 1}, "height": 3827, "video_length": "2592000", "video_bit_rate": 0, "acodec": "", "sample_rate": 0, "file_size": "104140324", "pixel_format": -1, "fps": {"num": 30, "den": 1}, "video_timebase": {"num": 1, "den": 30}, "display_ratio": {"num": 6803, "den": 3827}, "media_type": "image", "id": "RBDOM40FGQ", "has_single_image": true, "audio_stream_index": -1, "type": "QtImageReader", "channel_layout": 4, "interlaced_frame": false, "audio_timebase": {"num": 1, "den": 1}}, {"channels": 0, "path": "/home/milind/Data/Projects/ProgressCard/Title-03.svg", "duration": 86400.0, "has_audio": false, "width": 6803, "video_stream_index": -1, "top_field_first": true, "vcodec": "", "audio_bit_rate": 0, "has_video": true, "pixel_ratio": {"num": 1, "den": 1}, "height": 3827, "video_length": "2592000", "video_bit_rate": 0, "acodec": "", "sample_rate": 0, "file_size": "104140324", "pixel_format": -1, "fps": {"num": 30, "den": 1}, "video_timebase": {"num": 1, "den": 30}, "display_ratio": {"num": 6803, "den": 3827}, "media_type": "image", "id": "1UGFFUXPZG", "has_single_image": true, "audio_stream_index": -1, "type": "QtImageReader", "channel_layout": 4, "interlaced_frame": false, "audio_timebase": {"num": 1, "den": 1}}, {"channels": 0, "path": "/home/milind/Data/Projects/ProgressCard/Title-04.svg", "duration": 86400.0, "has_audio": false, "width": 6803, "video_stream_index": -1, "top_field_first": true, "vcodec": "", "audio_bit_rate": 0, "has_video": true, "pixel_ratio": {"num": 1, "den": 1}, "height": 3827, "video_length": "2592000", "video_bit_rate": 0, "acodec": "", "sample_rate": 0, "file_size": "104140324", "pixel_format": -1, "fps": {"num": 30, "den": 1}, "video_timebase": {"num": 1, "den": 30}, "display_ratio": {"num": 6803, "den": 3827}, "media_type": "image", "id": "6B6X3SW6U5", "has_single_image": true, "audio_stream_index": -1, "type": "QtImageReader", "channel_layout": 4, "interlaced_frame": false, "audio_timebase": {"num": 1, "den": 1}}, {"channels": 0, "path": "/home/milind/Data/Projects/ProgressCard/Title-05-All Four Titles.svg", "duration": 86400.0, "has_audio": false, "width": 6803, "video_stream_index": -1, "top_field_first": true, "vcodec": "", "audio_bit_rate": 0, "has_video": true, "pixel_ratio": {"num": 1, "den": 1}, "height": 3827, "video_length": "2592000", "video_bit_rate": 0, "acodec": "", "sample_rate": 0, "file_size": "104140324", "pixel_format": -1, "fps": {"num": 30, "den": 1}, "video_timebase": {"num": 1, "den": 30}, "display_ratio": {"num": 6803, "den": 3827}, "media_type": "image", "id": "AR5E0JZFG5", "has_single_image": true, "audio_stream_index": -1, "type": "QtImageReader", "channel_layout": 4, "interlaced_frame": false, "audio_timebase": {"num": 1, "den": 1}}], "value": {"channels": 0, "path": "/home/milind/Data/Projects/ProgressCard/06-Create Progress Card Template.mkv", "duration": 44.0, "has_audio": false, "width": 1366, "video_stream_index": 0, "top_field_first": true, "vcodec": "h264", "audio_bit_rate": 0, "has_video": true, "pixel_ratio": {"num": 1, "den": 1}, "height": 768, "video_length": "1100", "video_bit_rate": 0, "acodec": "", "sample_rate": 0, "file_size": "394038", "pixel_format": 0, "fps": {"num": 25, "den": 1}, "video_timebase": {"num": 1, "den": 1000}, "display_ratio": {"num": 683, "den": 384}, "media_type": "video", "id": "JH7UWI807B", "has_single_image": false, "audio_stream_index": -1, "type": "FFmpegReader", "channel_layout": 4, "interlaced_frame": false, "audio_timebase": {"num": 1, "den": 1}}, "type": "insert"}, {"key": ["clips"], "partial": false, "old_values": [{"location_y": {"Points": [{"interpolation": 2, "co": {"X": 1.0, "Y": 0.0}}]}, "scale": 1, "perspective_c1_y": {"Points": [{"interpolation": 2, "co": {"X": 1.0, "Y": -1.0}}]}, "has_audio": {"Points": [{"interpolation": 2, "co": {"X": 1.0, "Y": -1.0}}]}, "image": "/home/milind/.openshot_qt/thumbnail/RBDOM40FGQ.png", "file_id": "RBDOM40FGQ", "perspective_c3_y": {"Points": [{"interpolation": 2, "co": {"X": 1.0, "Y": -1.0}}]}, "volume": {"Points": [{"interpolation": 2, "co": {"X": 1.0, "Y": 1.0}}]}, "waveform": false, "channel_mapping": {"Points": [{"interpolation": 2, "co": {"X": 1.0, "Y": -1.0}}]}, "perspective_c4_y": {"Points": [{"interpolation": 2, "co": {"X": 1.0, "Y": -1.0}}]}, "start": 0.0, "perspective_c2_y": {"Points": [{"interpolation": 2, "co": {"X": 1.0, "Y": -1.0}}]}, "end": 10.0, "reader": {"channels": 0, "path": "/home/milind/Data/Projects/ProgressCard/Title-01.svg", "duration": 86400.0, "has_audio": false, "video_stream_index": -1, "channel_layout": 4, "vcodec": "", "audio_bit_rate": 0, "top_field_first": true, "has_video": true, "pixel_ratio": {"num": 1, "den": 1}, "height": 3827, "video_length": "2592000", "video_bit_rate": 0, "acodec": "", "sample_rate": 0, "file_size": "104140324", "pixel_format": -1, "fps": {"num": 30, "den": 1}, "video_timebase": {"num": 1, "den": 30}, "display_ratio": {"num": 6803, "den": 3827}, "width": 6803, "has_single_image": true, "audio_stream_index": -1, "type": "QtImageReader", "interlaced_frame": false, "audio_timebase": {"num": 1, "den": 1}}, "perspective_c4_x": {"Points": [{"interpolation": 2, "co": {"X": 1.0, "Y": -1.0}}]}, "perspective_c2_x": {"Points": [{"interpolation": 2, "co": {"X": 1.0, "Y": -1.0}}]}, "time": {"Points": [{"interpolation": 2, "co": {"X": 1.0, "Y": 1.0}}]}, "crop_x": {"Points": [{"interpolation": 2, "co": {"X": 1.0, "Y": 0.0}}]}, "crop_height": {"Points": [{"interpolation": 2, "co": {"X": 1.0, "Y": -1.0}}]}, "crop_y": {"Points": [{"interpolation": 2, "co": {"X": 1.0, "Y": 0.0}}]}, "anchor": 0, "crop_width": {"Points": [{"interpolation": 2, "co": {"X": 1.0, "Y": -1.0}}]}, "perspective_c1_x": {"Points": [{"interpolation": 2, "co": {"X": 1.0, "Y": -1.0}}]}, "effects": [], "wave_color": {"alpha": {"Points": [{"handle_left": {"X": 0.5, "Y": 1.0}, "handle_type": 0, "interpolation": 0, "handle_right": {"X": 0.5, "Y": 0.0}, "co": {"X": 1.0, "Y": 255.0}}]}, "red": {"Points": [{"handle_left": {"X": 0.5, "Y": 1.0}, "handle_type": 0, "interpolation": 0, "handle_right": {"X": 0.5, "Y": 0.0}, "co": {"X": 1.0, "Y": 0.0}}]}, "green": {"Points": [{"handle_left": {"X": 0.5, "Y": 1.0}, "handle_type": 0, "interpolation": 0, "handle_right": {"X": 0.5, "Y": 0.0}, "co": {"X": 1.0, "Y": 123.0}}]}, "blue": {"Points": [{"handle_left": {"X": 0.5, "Y": 1.0}, "handle_type": 0, "interpolation": 0, "handle_right": {"X": 0.5, "Y": 0.0}, "co": {"X": 1.0, "Y": 255.0}}]}}, "title": "Title-01.svg", "display": 0, "channel_filter": {"Points": [{"interpolation": 2, "co": {"X": 1.0, "Y": -1.0}}]}, "id": "B39BCXR0EX", "location_x": {"Points": [{"interpolation": 2, "co": {"X": 1.0, "Y": 0.0}}]}, "gravity": 4, "rotation": {"Points": [{"interpolation": 2, "co": {"X": 1.0, "Y": 0.0}}]}, "shear_x": {"Points": [{"interpolation": 2, "co": {"X": 1.0, "Y": 0.0}}]}, "scale_y": {"Points": [{"interpolation": 2, "co": {"X": 1.0, "Y": 1.0}}]}, "scale_x": {"Points": [{"interpolation": 2, "co": {"X": 1.0, "Y": 1.0}}]}, "duration": 86400.0, "layer": 3, "alpha": {"Points": [{"interpolation": 2, "co": {"X": 1.0, "Y": 1.0}}]}, "shear_y": {"Points": [{"interpolation": 2, "co": {"X": 1.0, "Y": 0.0}}]}, "perspective_c3_x": {"Points": [{"interpolation": 2, "co": {"X": 1.0, "Y": -1.0}}]}, "position": 44.58, "has_video": {"Points": [{"interpolation": 2, "co": {"X": 1.0, "Y": -1.0}}]}}, {"location_y": {"Points": [{"handle_left": {"X": 0.5, "Y": 1.0}, "handle_type": 0, "interpolation": 0, "handle_right": {"X": 0.5, "Y": 0.0}, "co": {"X": 1.0, "Y": 0.0}}, {"handle_left": {"X": 0.5, "Y": 1.0}, "handle_type": 0, "interpolation": 0, "handle_right": {"X": 0.5, "Y": 0.0}, "co": {"X": 1.0, "Y": 0.0}}, {"handle_left": {"X": 0.5, "Y": 1.0}, "handle_type": 0, "interpolation": 0, "handle_right": {"X": 0.5, "Y": 0.0}, "co": {"X": 25.0, "Y": 0.0}}]}, "scale": 1, "perspective_c1_y": {"Points": [{"interpolation": 2, "co": {"X": 1.0, "Y": -1.0}}]}, "has_audio": {"Points": [{"interpolation": 2, "co": {"X": 1.0, "Y": -1.0}}]}, "image": "/home/milind/.openshot_qt/thumbnail/RBDOM40FGQ.png", "file_id": "RBDOM40FGQ", "perspective_c3_y": {"Points": [{"interpolation": 2, "co": {"X": 1.0, "Y": -1.0}}]}, "volume": {"Points": [{"interpolation": 2, "co": {"X": 1.0, "Y": 1.0}}]}, "waveform": false, "channel_mapping": {"Points": [{"interpolation": 2, "co": {"X": 1.0, "Y": -1.0}}]}, "perspective_c4_y": {"Points": [{"interpolation": 2, "co": {"X": 1.0, "Y": -1.0}}]}, "start": 0, "perspective_c2_y": {"Points": [{"interpolation": 2, "co": {"X": 1.0, "Y": -1.0}}]}, "end": 5.891666666666666, "reader": {"channels": 0, "path": "/home/milind/Data/Projects/ProgressCard/Title-01.svg", "duration": 86400.0, "has_audio": false, "video_stream_index": -1, "channel_layout": 4, "vcodec": "", "audio_bit_rate": 0, "top_field_first": true, "has_video": true, "pixel_ratio": {"num": 1, "den": 1}, "height": 3827, "video_length": "2592000", "video_bit_rate": 0, "acodec": "", "sample_rate": 0, "file_size": "104140324", "pixel_format": -1, "fps": {"num": 30, "den": 1}, "video_timebase": {"num": 1, "den": 30}, "display_ratio": {"num": 6803, "den": 3827}, "width": 6803, "has_single_image": true, "audio_stream_index": -1, "type": "QtImageReader", "interlaced_frame": false, "audio_timebase": {"num": 1, "den": 1}}, "perspective_c4_x": {"Points": [{"interpolation": 2, "co": {"X": 1.0, "Y": -1.0}}]}, "perspective_c2_x": {"Points": [{"interpolation": 2, "co": {"X": 1.0, "Y": -1.0}}]}, "time": {"Points": [{"interpolation": 2, "co": {"X": 1.0, "Y": 1.0}}]}, "crop_x": {"Points": [{"interpolation": 2, "co": {"X": 1.0, "Y": 0.0}}]}, "crop_height": {"Points": [{"interpolation": 2, "co": {"X": 1.0, "Y": -1.0}}]}, "crop_y": {"Points": [{"interpolation": 2, "co": {"X": 1.0, "Y": 0.0}}]}, "anchor": 0, "crop_width": {"Points": [{"interpolation": 2, "co": {"X": 1.0, "Y": -1.0}}]}, "perspective_c1_x": {"Points": [{"interpolation": 2, "co": {"X": 1.0, "Y": -1.0}}]}, "effects": [], "wave_color": {"alpha": {"Points": [{"handle_left": {"X": 0.5, "Y": 1.0}, "handle_type": 0, "interpolation": 0, "handle_right": {"X": 0.5, "Y": 0.0}, "co": {"X": 1.0, "Y": 255.0}}]}, "red": {"Points": [{"handle_left": {"X": 0.5, "Y": 1.0}, "handle_type": 0, "interpolation": 0, "handle_right": {"X": 0.5, "Y": 0.0}, "co": {"X": 1.0, "Y": 0.0}}]}, "green": {"Points": [{"handle_left": {"X": 0.5, "Y": 1.0}, "handle_type": 0, "interpolation": 0, "handle_right": {"X": 0.5, "Y": 0.0}, "co": {"X": 1.0, "Y": 123.0}}]}, "blue": {"Points": [{"handle_left": {"X": 0.5, "Y": 1.0}, "handle_type": 0, "interpolation": 0, "handle_right": {"X": 0.5, "Y": 0.0}, "co": {"X": 1.0, "Y": 255.0}}]}}, "title": "Title-01.svg", "display": 0, "channel_filter": {"Points": [{"interpolation": 2, "co": {"X": 1.0, "Y": -1.0}}]}, "id": "RH0T0F5TSV", "location_x": {"Points": [{"handle_left": {"X": 0.5, "Y": 1.0}, "handle_type": 0, "interpolation": 0, "handle_right": {"X": 0.5, "Y": 0.0}, "co": {"X": 1.0, "Y": 0.0}}, {"handle_left": {"X": 0.5, "Y": 1.0}, "handle_type": 0, "interpolation": 0, "handle_right": {"X": 0.5, "Y": 0.0}, "co": {"X": 1.0, "Y": 1.0}}, {"handle_left": {"X": 0.5, "Y": 1.0}, "handle_type": 0, "interpolation": 0, "handle_right": {"X": 0.5, "Y": 0.0}, "co": {"X": 25.0, "Y": 0.0}}]}, "gravity": 4, "rotation": {"Points": [{"interpolation": 2, "co": {"X": 1.0, "Y": 0.0}}]}, "shear_x": {"Points": [{"interpolation": 2, "co": {"X": 1.0, "Y": 0.0}}]}, "scale_y": {"Points": [{"handle_left": {"X": 0.5, "Y": 1.0}, "handle_type": 0, "interpolation": 0, "handle_right": {"X": 0.5, "Y": 0.0}, "co": {"X": 1.0, "Y": 1.0}}]}, "scale_x": {"Points": [{"handle_left": {"X": 0.5, "Y": 1.0}, "handle_type": 0, "interpolation": 0, "handle_right": {"X": 0.5, "Y": 0.0}, "co": {"X": 1.0, "Y": 1.0}}]}, "duration": 86400.0, "layer": 0, "alpha": {"Points": [{"interpolation": 2, "co": {"X": 1.0, "Y": 1.0}}]}, "shear_y": {"Points": [{"interpolation": 2, "co": {"X": 1.0, "Y": 0.0}}]}, "perspective_c3_x": {"Points": [{"interpolation": 2, "co": {"X": 1.0, "Y": -1.0}}]}, "position": 2.4, "has_video": {"Points": [{"interpolation": 2, "co": {"X": 1.0, "Y": -1.0}}]}}, {"location_y": {"Points": [{"interpolation": 2, "co": {"X": 1.0, "Y": 0.0}}, {"handle_left": {"X": 0.5, "Y": 1.0}, "handle_type": 0, "interpolation": 0, "handle_right": {"X": 0.5, "Y": 0.0}, "co": {"X": 1.0, "Y": 0.0}}, {"handle_left": {"X": 0.5, "Y": 1.0}, "handle_type": 0, "interpolation": 0, "handle_right": {"X": 0.5, "Y": 0.0}, "co": {"X": 25.0, "Y": 0.0}}]}, "scale": 1, "perspective_c1_y": {"Points": [{"interpolation": 2, "co": {"X": 1.0, "Y": -1.0}}]}, "has_audio": {"Points": [{"interpolation": 2, "co": {"X": 1.0, "Y": -1.0}}]}, "image": "/home/milind/.openshot_qt/thumbnail/5QW60D58CB.png", "file_id": "5QW60D58CB", "perspective_c3_y": {"Points": [{"interpolation": 2, "co": {"X": 1.0, "Y": -1.0}}]}, "volume": {"Points": [{"interpolation": 2, "co": {"X": 1.0, "Y": 1.0}}]}, "waveform": false, "channel_mapping": {"Points": [{"interpolation": 2, "co": {"X": 1.0, "Y": -1.0}}]}, "perspective_c4_y": {"Points": [{"interpolation": 2, "co": {"X": 1.0, "Y": -1.0}}]}, "start": 0, "perspective_c2_y": {"Points": [{"interpolation": 2, "co": {"X": 1.0, "Y": -1.0}}]}, "end": 4.661666666666666, "reader": {"channels": 0, "path": "/home/milind/Data/Projects/ProgressCard/Title-02.svg", "duration": 86400.0, "has_audio": false, "video_stream_index": -1, "channel_layout": 4, "vcodec": "", "audio_bit_rate": 0, "top_field_first": true, "has_video": true, "pixel_ratio": {"num": 1, "den": 1}, "height": 3827, "video_length": "2592000", "video_bit_rate": 0, "acodec": "", "sample_rate": 0, "file_size": "104140324", "pixel_format": -1, "fps": {"num": 30, "den": 1}, "video_timebase": {"num": 1, "den": 30}, "display_ratio": {"num": 6803, "den": 3827}, "width": 6803, "has_single_image": true, "audio_stream_index": -1, "type": "QtImageReader", "interlaced_frame": false, "audio_timebase": {"num": 1, "den": 1}}, "perspective_c4_x": {"Points": [{"interpolation": 2, "co": {"X": 1.0, "Y": -1.0}}]}, "perspective_c2_x": {"Points": [{"interpolation": 2, "co": {"X": 1.0, "Y": -1.0}}]}, "time": {"Points": [{"interpolation": 2, "co": {"X": 1.0, "Y": 1.0}}]}, "crop_x": {"Points": [{"interpolation": 2, "co": {"X": 1.0, "Y": 0.0}}]}, "crop_height": {"Points": [{"interpolation": 2, "co": {"X": 1.0, "Y": -1.0}}]}, "crop_y": {"Points": [{"interpolation": 2, "co": {"X": 1.0, "Y": 0.0}}]}, "anchor": 0, "crop_width": {"Points": [{"interpolation": 2, "co": {"X": 1.0, "Y": -1.0}}]}, "perspective_c1_x": {"Points": [{"interpolation": 2, "co": {"X": 1.0, "Y": -1.0}}]}, "effects": [], "wave_color": {"alpha": {"Points": [{"handle_left": {"X": 0.5, "Y": 1.0}, "handle_type": 0, "interpolation": 0, "handle_right": {"X": 0.5, "Y": 0.0}, "co": {"X": 1.0, "Y": 255.0}}]}, "red": {"Points": [{"handle_left": {"X": 0.5, "Y": 1.0}, "handle_type": 0, "interpolation": 0, "handle_right": {"X": 0.5, "Y": 0.0}, "co": {"X": 1.0, "Y": 0.0}}]}, "green": {"Points": [{"handle_left": {"X": 0.5, "Y": 1.0}, "handle_type": 0, "interpolation": 0, "handle_right": {"X": 0.5, "Y": 0.0}, "co": {"X": 1.0, "Y": 123.0}}]}, "blue": {"Points": [{"handle_left": {"X": 0.5, "Y": 1.0}, "handle_type": 0, "interpolation": 0, "handle_right": {"X": 0.5, "Y": 0.0}, "co": {"X": 1.0, "Y": 255.0}}]}}, "title": "Title-02.svg", "display": 0, "channel_filter": {"Points": [{"interpolation": 2, "co": {"X": 1.0, "Y": -1.0}}]}, "id": "3OCKSFXMGL", "location_x": {"Points": [{"interpolation": 2, "co": {"X": 1.0, "Y": 0.0}}, {"handle_left": {"X": 0.5, "Y": 1.0}, "handle_type": 0, "interpolation": 0, "handle_right": {"X": 0.5, "Y": 0.0}, "co": {"X": 1.0, "Y": 1.0}}, {"handle_left": {"X": 0.5, "Y": 1.0}, "handle_type": 0, "interpolation": 0, "handle_right": {"X": 0.5, "Y": 0.0}, "co": {"X": 25.0, "Y": 0.0}}]}, "gravity": 4, "rotation": {"Points": [{"interpolation": 2, "co": {"X": 1.0, "Y": 0.0}}]}, "shear_x": {"Points": [{"interpolation": 2, "co": {"X": 1.0, "Y": 0.0}}]}, "scale_y": {"Points": [{"interpolation": 2, "co": {"X": 1.0, "Y": 1.0}}]}, "scale_x": {"Points": [{"interpolation": 2, "co": {"X": 1.0, "Y": 1.0}}]}, "duration": 86400.0, "layer": 1, "alpha": {"Points": [{"interpolation": 2, "co": {"X": 1.0, "Y": 1.0}}]}, "shear_y": {"Points": [{"interpolation": 2, "co": {"X": 1.0, "Y": 0.0}}]}, "perspective_c3_x": {"Points": [{"interpolation": 2, "co": {"X": 1.0, "Y": -1.0}}]}, "position": 3.63, "has_video": {"Points": [{"interpolation": 2, "co": {"X": 1.0, "Y": -1.0}}]}}, {"location_y": {"Points": [{"interpolation": 2, "co": {"X": 1.0, "Y": 0.0}}, {"handle_left": {"X": 0.5, "Y": 1.0}, "handle_type": 0, "interpolation": 0, "handle_right": {"X": 0.5, "Y": 0.0}, "co": {"X": 1.0, "Y": 0.0}}, {"handle_left": {"X": 0.5, "Y": 1.0}, "handle_type": 0, "interpolation": 0, "handle_right": {"X": 0.5, "Y": 0.0}, "co": {"X": 25.0, "Y": 0.0}}]}, "scale": 1, "perspective_c1_y": {"Points": [{"interpolation": 2, "co": {"X": 1.0, "Y": -1.0}}]}, "has_audio": {"Points": [{"interpolation": 2, "co": {"X": 1.0, "Y": -1.0}}]}, "image": "/home/milind/.openshot_qt/thumbnail/1UGFFUXPZG.png", "file_id": "1UGFFUXPZG", "perspective_c3_y": {"Points": [{"interpolation": 2, "co": {"X": 1.0, "Y": -1.0}}]}, "volume": {"Points": [{"interpolation": 2, "co": {"X": 1.0, "Y": 1.0}}]}, "waveform": false, "channel_mapping": {"Points": [{"interpolation": 2, "co": {"X": 1.0, "Y": -1.0}}]}, "perspective_c4_y": {"Points": [{"interpolation": 2, "co": {"X": 1.0, "Y": -1.0}}]}, "start": 0, "perspective_c2_y": {"Points": [{"interpolation": 2, "co": {"X": 1.0, "Y": -1.0}}]}, "end": 3.3116666666666665, "reader": {"channels": 0, "path": "/home/milind/Data/Projects/ProgressCard/Title-03.svg", "duration": 86400.0, "has_audio": false, "video_stream_index": -1, "channel_layout": 4, "vcodec": "", "audio_bit_rate": 0, "top_field_first": true, "has_video": true, "pixel_ratio": {"num": 1, "den": 1}, "height": 3827, "video_length": "2592000", "video_bit_rate": 0, "acodec": "", "sample_rate": 0, "file_size": "104140324", "pixel_format": -1, "fps": {"num": 30, "den": 1}, "video_timebase": {"num": 1, "den": 30}, "display_ratio": {"num": 6803, "den": 3827}, "width": 6803, "has_single_image": true, "audio_stream_index": -1, "type": "QtImageReader", "interlaced_frame": false, "audio_timebase": {"num": 1, "den": 1}}, "perspective_c4_x": {"Points": [{"interpolation": 2, "co": {"X": 1.0, "Y": -1.0}}]}, "perspective_c2_x": {"Points": [{"interpolation": 2, "co": {"X": 1.0, "Y": -1.0}}]}, "time": {"Points": [{"interpolation": 2, "co": {"X": 1.0, "Y": 1.0}}]}, "crop_x": {"Points": [{"interpolation": 2, "co": {"X": 1.0, "Y": 0.0}}]}, "crop_height": {"Points": [{"interpolation": 2, "co": {"X": 1.0, "Y": -1.0}}]}, "crop_y": {"Points": [{"interpolation": 2, "co": {"X": 1.0, "Y": 0.0}}]}, "anchor": 0, "crop_width": {"Points": [{"interpolation": 2, "co": {"X": 1.0, "Y": -1.0}}]}, "perspective_c1_x": {"Points": [{"interpolation": 2, "co": {"X": 1.0, "Y": -1.0}}]}, "effects": [], "wave_color": {"alpha": {"Points": [{"handle_left": {"X": 0.5, "Y": 1.0}, "handle_type": 0, "interpolation": 0, "handle_right": {"X": 0.5, "Y": 0.0}, "co": {"X": 1.0, "Y": 255.0}}]}, "red": {"Points": [{"handle_left": {"X": 0.5, "Y": 1.0}, "handle_type": 0, "interpolation": 0, "handle_right": {"X": 0.5, "Y": 0.0}, "co": {"X": 1.0, "Y": 0.0}}]}, "green": {"Points": [{"handle_left": {"X": 0.5, "Y": 1.0}, "handle_type": 0, "interpolation": 0, "handle_right": {"X": 0.5, "Y": 0.0}, "co": {"X": 1.0, "Y": 123.0}}]}, "blue": {"Points": [{"handle_left": {"X": 0.5, "Y": 1.0}, "handle_type": 0, "interpolation": 0, "handle_right": {"X": 0.5, "Y": 0.0}, "co": {"X": 1.0, "Y": 255.0}}]}}, "title": "Title-03.svg", "display": 0, "channel_filter": {"Points": [{"interpolation": 2, "co": {"X": 1.0, "Y": -1.0}}]}, "id": "DRRWM84D3O", "location_x": {"Points": [{"interpolation": 2, "co": {"X": 1.0, "Y": 0.0}}, {"handle_left": {"X": 0.5, "Y": 1.0}, "handle_type": 0, "interpolation": 0, "handle_right": {"X": 0.5, "Y": 0.0}, "co": {"X": 1.0, "Y": 1.0}}, {"handle_left": {"X": 0.5, "Y": 1.0}, "handle_type": 0, "interpolation": 0, "handle_right": {"X": 0.5, "Y": 0.0}, "co": {"X": 25.0, "Y": 0.0}}]}, "gravity": 4, "rotation": {"Points": [{"interpolation": 2, "co": {"X": 1.0, "Y": 0.0}}]}, "shear_x": {"Points": [{"interpolation": 2, "co": {"X": 1.0, "Y": 0.0}}]}, "scale_y": {"Points": [{"interpolation": 2, "co": {"X": 1.0, "Y": 1.0}}]}, "scale_x": {"Points": [{"interpolation": 2, "co": {"X": 1.0, "Y": 1.0}}]}, "duration": 86400.0, "layer": 2, "alpha": {"Points": [{"interpolation": 2, "co": {"X": 1.0, "Y": 1.0}}]}, "shear_y": {"Points": [{"interpolation": 2, "co": {"X": 1.0, "Y": 0.0}}]}, "perspective_c3_x": {"Points": [{"interpolation": 2, "co": {"X": 1.0, "Y": -1.0}}]}, "position": 4.9799999999999995, "has_video": {"Points": [{"interpolation": 2, "co": {"X": 1.0, "Y": -1.0}}]}}, {"location_y": {"Points": [{"interpolation": 2, "co": {"X": 1.0, "Y": 0.0}}, {"handle_left": {"X": 0.5, "Y": 1.0}, "handle_type": 0, "interpolation": 0, "handle_right": {"X": 0.5, "Y": 0.0}, "co": {"X": 1.0, "Y": 0.0}}, {"handle_left": {"X": 0.5, "Y": 1.0}, "handle_type": 0, "interpolation": 0, "handle_right": {"X": 0.5, "Y": 0.0}, "co": {"X": 25.0, "Y": 0.0}}]}, "scale": 1, "perspective_c1_y": {"Points": [{"interpolation": 2, "co": {"X": 1.0, "Y": -1.0}}]}, "has_audio": {"Points": [{"interpolation": 2, "co": {"X": 1.0, "Y": -1.0}}]}, "image": "/home/milind/.openshot_qt/thumbnail/6B6X3SW6U5.png", "file_id": "6B6X3SW6U5", "perspective_c3_y": {"Points": [{"interpolation": 2, "co": {"X": 1.0, "Y": -1.0}}]}, "volume": {"Points": [{"interpolation": 2, "co": {"X": 1.0, "Y": 1.0}}]}, "waveform": false, "channel_mapping": {"Points": [{"interpolation": 2, "co": {"X": 1.0, "Y": -1.0}}]}, "perspective_c4_y": {"Points": [{"interpolation": 2, "co": {"X": 1.0, "Y": -1.0}}]}, "start": 0, "perspective_c2_y": {"Points": [{"interpolation": 2, "co": {"X": 1.0, "Y": -1.0}}]}, "end": 2.0216666666666665, "reader": {"channels": 0, "path": "/home/milind/Data/Projects/ProgressCard/Title-04.svg", "duration": 86400.0, "has_audio": false, "video_stream_index": -1, "channel_layout": 4, "vcodec": "", "audio_bit_rate": 0, "top_field_first": true, "has_video": true, "pixel_ratio": {"num": 1, "den": 1}, "height": 3827, "video_length": "2592000", "video_bit_rate": 0, "acodec": "", "sample_rate": 0, "file_size": "104140324", "pixel_format": -1, "fps": {"num": 30, "den": 1}, "video_timebase": {"num": 1, "den": 30}, "display_ratio": {"num": 6803, "den": 3827}, "width": 6803, "has_single_image": true, "audio_stream_index": -1, "type": "QtImageReader", "interlaced_frame": false, "audio_timebase": {"num": 1, "den": 1}}, "perspective_c4_x": {"Points": [{"interpolation": 2, "co": {"X": 1.0, "Y": -1.0}}]}, "perspective_c2_x": {"Points": [{"interpolation": 2, "co": {"X": 1.0, "Y": -1.0}}]}, "time": {"Points": [{"interpolation": 2, "co": {"X": 1.0, "Y": 1.0}}]}, "crop_x": {"Points": [{"interpolation": 2, "co": {"X": 1.0, "Y": 0.0}}]}, "crop_height": {"Points": [{"interpolation": 2, "co": {"X": 1.0, "Y": -1.0}}]}, "crop_y": {"Points": [{"interpolation": 2, "co": {"X": 1.0, "Y": 0.0}}]}, "anchor": 0, "crop_width": {"Points": [{"interpolation": 2, "co": {"X": 1.0, "Y": -1.0}}]}, "perspective_c1_x": {"Points": [{"interpolation": 2, "co": {"X": 1.0, "Y": -1.0}}]}, "effects": [], "wave_color": {"alpha": {"Points": [{"handle_left": {"X": 0.5, "Y": 1.0}, "handle_type": 0, "interpolation": 0, "handle_right": {"X": 0.5, "Y": 0.0}, "co": {"X": 1.0, "Y": 255.0}}]}, "red": {"Points": [{"handle_left": {"X": 0.5, "Y": 1.0}, "handle_type": 0, "interpolation": 0, "handle_right": {"X": 0.5, "Y": 0.0}, "co": {"X": 1.0, "Y": 0.0}}]}, "green": {"Points": [{"handle_left": {"X": 0.5, "Y": 1.0}, "handle_type": 0, "interpolation": 0, "handle_right": {"X": 0.5, "Y": 0.0}, "co": {"X": 1.0, "Y": 123.0}}]}, "blue": {"Points": [{"handle_left": {"X": 0.5, "Y": 1.0}, "handle_type": 0, "interpolation": 0, "handle_right": {"X": 0.5, "Y": 0.0}, "co": {"X": 1.0, "Y": 255.0}}]}}, "title": "Title-04.svg", "display": 0, "channel_filter": {"Points": [{"interpolation": 2, "co": {"X": 1.0, "Y": -1.0}}]}, "id": "173ASVPEMX", "location_x": {"Points": [{"interpolation": 2, "co": {"X": 1.0, "Y": 0.0}}, {"handle_left": {"X": 0.5, "Y": 1.0}, "handle_type": 0, "interpolation": 0, "handle_right": {"X": 0.5, "Y": 0.0}, "co": {"X": 1.0, "Y": 1.0}}, {"handle_left": {"X": 0.5, "Y": 1.0}, "handle_type": 0, "interpolation": 0, "handle_right": {"X": 0.5, "Y": 0.0}, "co": {"X": 25.0, "Y": 0.0}}]}, "gravity": 4, "rotation": {"Points": [{"interpolation": 2, "co": {"X": 1.0, "Y": 0.0}}]}, "shear_x": {"Points": [{"interpolation": 2, "co": {"X": 1.0, "Y": 0.0}}]}, "scale_y": {"Points": [{"interpolation": 2, "co": {"X": 1.0, "Y": 1.0}}]}, "scale_x": {"Points": [{"interpolation": 2, "co": {"X": 1.0, "Y": 1.0}}]}, "duration": 86400.0, "layer": 3, "alpha": {"Points": [{"interpolation": 2, "co": {"X": 1.0, "Y": 1.0}}]}, "shear_y": {"Points": [{"interpolation": 2, "co": {"X": 1.0, "Y": 0.0}}]}, "perspective_c3_x": {"Points": [{"interpolation": 2, "co": {"X": 1.0, "Y": -1.0}}]}, "position": 6.27, "has_video": {"Points": [{"interpolation": 2, "co": {"X": 1.0, "Y": -1.0}}]}}, {"location_y": {"Points": [{"interpolation": 2, "co": {"X": 1.0, "Y": 0.0}}, {"handle_left": {"X": 0.5, "Y": 1.0}, "handle_type": 0, "interpolation": 0, "handle_right": {"X": 0.5, "Y": 0.0}, "co": {"X": 150.0, "Y": 0.0}}, {"handle_left": {"X": 0.5, "Y": 1.0}, "handle_type": 0, "interpolation": 0, "handle_right": {"X": 0.5, "Y": 0.0}, "co": {"X": 174.0, "Y": 0.0}}]}, "scale": 1, "perspective_c1_y": {"Points": [{"interpolation": 2, "co": {"X": 1.0, "Y": -1.0}}]}, "has_audio": {"Points": [{"interpolation": 2, "co": {"X": 1.0, "Y": -1.0}}]}, "image": "/home/milind/.openshot_qt/thumbnail/AR5E0JZFG5.png", "file_id": "AR5E0JZFG5", "perspective_c3_y": {"Points": [{"interpolation": 2, "co": {"X": 1.0, "Y": -1.0}}]}, "volume": {"Points": [{"interpolation": 2, "co": {"X": 1.0, "Y": 1.0}}]}, "waveform": false, "channel_mapping": {"Points": [{"interpolation": 2, "co": {"X": 1.0, "Y": -1.0}}]}, "perspective_c4_y": {"Points": [{"interpolation": 2, "co": {"X": 1.0, "Y": -1.0}}]}, "start": 0, "perspective_c2_y": {"Points": [{"interpolation": 2, "co": {"X": 1.0, "Y": -1.0}}]}, "end": 7.220000000000001, "reader": {"channels": 0, "path": "/home/milind/Data/Projects/ProgressCard/Title-05-All Four Titles.svg", "duration": 86400.0, "has_audio": false, "video_stream_index": -1, "channel_layout": 4, "vcodec": "", "audio_bit_rate": 0, "top_field_first": true, "has_video": true, "pixel_ratio": {"num": 1, "den": 1}, "height": 3827, "video_length": "2592000", "video_bit_rate": 0, "acodec": "", "sample_rate": 0, "file_size": "104140324", "pixel_format": -1, "fps": {"num": 30, "den": 1}, "video_timebase": {"num": 1, "den": 30}, "display_ratio": {"num": 6803, "den": 3827}, "width": 6803, "has_single_image": true, "audio_stream_index": -1, "type": "QtImageReader", "interlaced_frame": false, "audio_timebase": {"num": 1, "den": 1}}, "perspective_c4_x": {"Points": [{"interpolation": 2, "co": {"X": 1.0, "Y": -1.0}}]}, "perspective_c2_x": {"Points": [{"interpolation": 2, "co": {"X": 1.0, "Y": -1.0}}]}, "time": {"Points": [{"interpolation": 2, "co": {"X": 1.0, "Y": 1.0}}]}, "crop_x": {"Points": [{"interpolation": 2, "co": {"X": 1.0, "Y": 0.0}}]}, "crop_height": {"Points": [{"interpolation": 2, "co": {"X": 1.0, "Y": -1.0}}]}, "crop_y": {"Points": [{"interpolation": 2, "co": {"X": 1.0, "Y": 0.0}}]}, "anchor": 0, "crop_width": {"Points": [{"interpolation": 2, "co": {"X": 1.0, "Y": -1.0}}]}, "perspective_c1_x": {"Points": [{"interpolation": 2, "co": {"X": 1.0, "Y": -1.0}}]}, "effects": [], "wave_color": {"alpha": {"Points": [{"handle_left": {"X": 0.5, "Y": 1.0}, "handle_type": 0, "interpolation": 0, "handle_right": {"X": 0.5, "Y": 0.0}, "co": {"X": 1.0, "Y": 255.0}}]}, "red": {"Points": [{"handle_left": {"X": 0.5, "Y": 1.0}, "handle_type": 0, "interpolation": 0, "handle_right": {"X": 0.5, "Y": 0.0}, "co": {"X": 1.0, "Y": 0.0}}]}, "green": {"Points": [{"handle_left": {"X": 0.5, "Y": 1.0}, "handle_type": 0, "interpolation": 0, "handle_right": {"X": 0.5, "Y": 0.0}, "co": {"X": 1.0, "Y": 123.0}}]}, "blue": {"Points": [{"handle_left": {"X": 0.5, "Y": 1.0}, "handle_type": 0, "interpolation": 0, "handle_right": {"X": 0.5, "Y": 0.0}, "co": {"X": 1.0, "Y": 255.0}}]}}, "title": "Title-05-All Four Titles.svg", "display": 0, "channel_filter": {"Points": [{"interpolation": 2, "co": {"X": 1.0, "Y": -1.0}}]}, "id": "UTVCSP6ZNL", "location_x": {"Points": [{"interpolation": 2, "co": {"X": 1.0, "Y": 0.0}}, {"handle_left": {"X": 0.5, "Y": 1.0}, "handle_type": 0, "interpolation": 0, "handle_right": {"X": 0.5, "Y": 0.0}, "co": {"X": 150.0, "Y": 0.0}}, {"handle_left": {"X": 0.5, "Y": 1.0}, "handle_type": 0, "interpolation": 0, "handle_right": {"X": 0.5, "Y": 0.0}, "co": {"X": 174.0, "Y": -1.0}}]}, "gravity": 4, "rotation": {"Points": [{"interpolation": 2, "co": {"X": 1.0, "Y": 0.0}}]}, "shear_x": {"Points": [{"interpolation": 2, "co": {"X": 1.0, "Y": 0.0}}]}, "scale_y": {"Points": [{"interpolation": 2, "co": {"X": 1.0, "Y": 1.0}}]}, "scale_x": {"Points": [{"interpolation": 2, "co": {"X": 1.0, "Y": 1.0}}]}, "duration": 86400.0, "layer": 4, "alpha": {"Points": [{"interpolation": 2, "co": {"X": 1.0, "Y": 1.0}}]}, "shear_y": {"Points": [{"interpolation": 2, "co": {"X": 1.0, "Y": 0.0}}]}, "perspective_c3_x": {"Points": [{"interpolation": 2, "co": {"X": 1.0, "Y": -1.0}}]}, "position": 7.529999999999999, "has_video": {"Points": [{"interpolation": 2, "co": {"X": 1.0, "Y": -1.0}}]}}, {"location_y": {"Points": [{"handle_left": {"X": 0.5, "Y": 1.0}, "handle_type": 0, "interpolation": 0, "handle_right": {"X": 0.5, "Y": 0.0}, "co": {"X": 1.0, "Y": 0.0}}, {"handle_left": {"X": 0.5, "Y": 1.0}, "handle_type": 0, "interpolation": 0, "handle_right": {"X": 0.5, "Y": 0.0}, "co": {"X": 1.0, "Y": 0.0}}, {"handle_left": {"X": 0.5, "Y": 1.0}, "handle_type": 0, "interpolation": 0, "handle_right": {"X": 0.5, "Y": 0.0}, "co": {"X": 25.0, "Y": 0.0}}, {"handle_left": {"X": 0.5, "Y": 1.0}, "handle_type": 0, "interpolation": 0, "handle_right": {"X": 0.5, "Y": 0.0}, "co": {"X": 217.0, "Y": 0.0}}, {"handle_left": {"X": 0.5, "Y": 1.0}, "handle_type": 0, "interpolation": 0, "handle_right": {"X": 0.5, "Y": 0.0}, "co": {"X": 241.0, "Y": 0.0}}, {"handle_left": {"X": 0.5, "Y": 1.0}, "handle_type": 0, "interpolation": 0, "handle_right": {"X": 0.5, "Y": 0.0}, "co": {"X": 153.0, "Y": 0.0}}, {"handle_left": {"X": 0.5, "Y": 1.0}, "handle_type": 0, "interpolation": 0, "handle_right": {"X": 0.5, "Y": 0.0}, "co": {"X": 177.0, "Y": 0.0}}]}, "scale": 1, "perspective_c1_y": {"Points": [{"interpolation": 2, "co": {"X": 1.0, "Y": -1.0}}]}, "has_audio": {"Points": [{"interpolation": 2, "co": {"X": 1.0, "Y": -1.0}}]}, "image": "/home/milind/.openshot_qt/thumbnail/EYET6E4WCX.png", "file_id": "EYET6E4WCX", "perspective_c3_y": {"Points": [{"interpolation": 2, "co": {"X": 1.0, "Y": -1.0}}]}, "volume": {"Points": [{"interpolation": 2, "co": {"X": 1.0, "Y": 1.0}}]}, "waveform": false, "channel_mapping": {"Points": [{"interpolation": 2, "co": {"X": 1.0, "Y": -1.0}}]}, "perspective_c4_y": {"Points": [{"interpolation": 2, "co": {"X": 1.0, "Y": -1.0}}]}, "start": 0, "perspective_c2_y": {"Points": [{"interpolation": 2, "co": {"X": 1.0, "Y": -1.0}}]}, "end": 7.348333333333333, "reader": {"channels": 0, "path": "/home/milind/Data/Projects/ProgressCard/intro.png", "duration": 86400.0, "has_audio": false, "video_stream_index": -1, "channel_layout": 4, "vcodec": "", "audio_bit_rate": 0, "top_field_first": true, "has_video": true, "pixel_ratio": {"num": 1, "den": 1}, "height": 169, "video_length": "2592000", "video_bit_rate": 0, "acodec": "", "sample_rate": 0, "file_size": "446836", "pixel_format": -1, "fps": {"num": 30, "den": 1}, "video_timebase": {"num": 1, "den": 30}, "display_ratio": {"num": 661, "den": 169}, "width": 661, "has_single_image": true, "audio_stream_index": -1, "type": "QtImageReader", "interlaced_frame": false, "audio_timebase": {"num": 1, "den": 1}}, "perspective_c4_x": {"Points": [{"interpolation": 2, "co": {"X": 1.0, "Y": -1.0}}]}, "perspective_c2_x": {"Points": [{"interpolation": 2, "co": {"X": 1.0, "Y": -1.0}}]}, "time": {"Points": [{"interpolation": 2, "co": {"X": 1.0, "Y": 1.0}}]}, "crop_x": {"Points": [{"interpolation": 2, "co": {"X": 1.0, "Y": 0.0}}]}, "crop_height": {"Points": [{"interpolation": 2, "co": {"X": 1.0, "Y": -1.0}}]}, "crop_y": {"Points": [{"interpolation": 2, "co": {"X": 1.0, "Y": 0.0}}]}, "anchor": 0, "crop_width": {"Points": [{"interpolation": 2, "co": {"X": 1.0, "Y": -1.0}}]}, "perspective_c1_x": {"Points": [{"interpolation": 2, "co": {"X": 1.0, "Y": -1.0}}]}, "effects": [], "wave_color": {"alpha": {"Points": [{"handle_left": {"X": 0.5, "Y": 1.0}, "handle_type": 0, "interpolation": 0, "handle_right": {"X": 0.5, "Y": 0.0}, "co": {"X": 1.0, "Y": 255.0}}]}, "red": {"Points": [{"handle_left": {"X": 0.5, "Y": 1.0}, "handle_type": 0, "interpolation": 0, "handle_right": {"X": 0.5, "Y": 0.0}, "co": {"X": 1.0, "Y": 0.0}}]}, "green": {"Points": [{"handle_left": {"X": 0.5, "Y": 1.0}, "handle_type": 0, "interpolation": 0, "handle_right": {"X": 0.5, "Y": 0.0}, "co": {"X": 1.0, "Y": 123.0}}]}, "blue": {"Points": [{"handle_left": {"X": 0.5, "Y": 1.0}, "handle_type": 0, "interpolation": 0, "handle_right": {"X": 0.5, "Y": 0.0}, "co": {"X": 1.0, "Y": 255.0}}]}}, "title": "intro.png", "display": 0, "channel_filter": {"Points": [{"interpolation": 2, "co": {"X": 1.0, "Y": -1.0}}]}, "id": "QRWUU8C5AG", "location_x": {"Points": [{"handle_left": {"X": 0.5, "Y": 1.0}, "handle_type": 0, "interpolation": 0, "handle_right": {"X": 0.5, "Y": 0.0}, "co": {"X": 1.0, "Y": 0.0}}, {"handle_left": {"X": 0.5, "Y": 1.0}, "handle_type": 0, "interpolation": 0, "handle_right": {"X": 0.5, "Y": 0.0}, "co": {"X": 1.0, "Y": 1.0}}, {"handle_left": {"X": 0.5, "Y": 1.0}, "handle_type": 0, "interpolation": 0, "handle_right": {"X": 0.5, "Y": 0.0}, "co": {"X": 25.0, "Y": 0.0}}, {"handle_left": {"X": 0.5, "Y": 1.0}, "handle_type": 0, "interpolation": 0, "handle_right": {"X": 0.5, "Y": 0.0}, "co": {"X": 217.0, "Y": 0.0}}, {"handle_left": {"X": 0.5, "Y": 1.0}, "handle_type": 0, "interpolation": 0, "handle_right": {"X": 0.5, "Y": 0.0}, "co": {"X": 241.0, "Y": -1.0}}, {"handle_left": {"X": 0.5, "Y": 1.0}, "handle_type": 0, "interpolation": 0, "handle_right": {"X": 0.5, "Y": 0.0}, "co": {"X": 153.0, "Y": 0.0}}, {"handle_left": {"X": 0.5, "Y": 1.0}, "handle_type": 0, "interpolation": 0, "handle_right": {"X": 0.5, "Y": 0.0}, "co": {"X": 177.0, "Y": -1.0}}]}, "gravity": 4, "rotation": {"Points": [{"interpolation": 2, "co": {"X": 1.0, "Y": 0.0}}]}, "shear_x": {"Points": [{"interpolation": 2, "co": {"X": 1.0, "Y": 0.0}}]}, "scale_y": {"Points": [{"handle_left": {"X": 0.5, "Y": 1.0}, "handle_type": 0, "interpolation": 0, "handle_right": {"X": 0.5, "Y": 0.0}, "co": {"X": 1.0, "Y": 1.0}}]}, "scale_x": {"Points": [{"handle_left": {"X": 0.5, "Y": 1.0}, "handle_type": 0, "interpolation": 0, "handle_right": {"X": 0.5, "Y": 0.0}, "co": {"X": 1.0, "Y": 1.0}}]}, "duration": 86400.0, "layer": 5, "alpha": {"Points": [{"interpolation": 2, "co": {"X": 1.0, "Y": 1.0}}]}, "shear_y": {"Points": [{"interpolation": 2, "co": {"X": 1.0, "Y": 0.0}}]}, "perspective_c3_x": {"Points": [{"interpolation": 2, "co": {"X": 1.0, "Y": -1.0}}]}, "position": 15.36, "has_video": {"Points": [{"interpolation": 2, "co": {"X": 1.0, "Y": -1.0}}]}}], "value": {"location_y": {"Points": [{"interpolation": 2, "co": {"X": 1.0, "Y": 0.0}}]}, "scale": 1, "perspective_c1_y": {"Points": [{"interpolation": 2, "co": {"X": 1.0, "Y": -1.0}}]}, "has_audio": {"Points": [{"interpolation": 2, "co": {"X": 1.0, "Y": -1.0}}]}, "image": "/home/milind/.openshot_qt/thumbnail/JH7UWI807B.png", "file_id": "JH7UWI807B", "perspective_c3_y": {"Points": [{"interpolation": 2, "co": {"X": 1.0, "Y": -1.0}}]}, "volume": {"Points": [{"interpolation": 2, "co": {"X": 1.0, "Y": 1.0}}]}, "waveform": false, "channel_mapping": {"Points": [{"interpolation": 2, "co": {"X": 1.0, "Y": -1.0}}]}, "perspective_c4_y": {"Points": [{"interpolation": 2, "co": {"X": 1.0, "Y": -1.0}}]}, "start": 0, "perspective_c2_y": {"Points": [{"interpolation": 2, "co": {"X": 1.0, "Y": -1.0}}]}, "end": 44, "reader": {"channels": 0, "path": "/home/milind/Data/Projects/ProgressCard/06-Create Progress Card Template.mkv", "duration": 44.0, "has_audio": false, "width": 1366, "video_stream_index": 0, "top_field_first": true, "vcodec": "h264", "audio_bit_rate": 0, "has_video": true, "pixel_ratio": {"num": 1, "den": 1}, "height": 768, "video_length": "1100", "video_bit_rate": 0, "acodec": "", "sample_rate": 0, "file_size": "394038", "pixel_format": 0, "fps": {"num": 25, "den": 1}, "video_timebase": {"num": 1, "den": 1000}, "display_ratio": {"num": 683, "den": 384}, "has_single_image": false, "audio_stream_index": -1, "type": "FFmpegReader", "channel_layout": 4, "interlaced_frame": false, "audio_timebase": {"num": 1, "den": 1}}, "perspective_c4_x": {"Points": [{"interpolation": 2, "co": {"X": 1.0, "Y": -1.0}}]}, "perspective_c2_x": {"Points": [{"interpolation": 2, "co": {"X": 1.0, "Y": -1.0}}]}, "time": {"Points": [{"interpolation": 2, "co": {"X": 1.0, "Y": 1.0}}]}, "crop_x": {"Points": [{"interpolation": 2, "co": {"X": 1.0, "Y": 0.0}}]}, "crop_height": {"Points": [{"interpolation": 2, "co": {"X": 1.0, "Y": -1.0}}]}, "crop_y": {"Points": [{"interpolation": 2, "co": {"X": 1.0, "Y": 0.0}}]}, "anchor": 0, "crop_width": {"Points": [{"interpolation": 2, "co": {"X": 1.0, "Y": -1.0}}]}, "perspective_c1_x": {"Points": [{"interpolation": 2, "co": {"X": 1.0, "Y": -1.0}}]}, "effects": [], "wave_color": {"alpha": {"Points": [{"handle_left": {"X": 0.5, "Y": 1.0}, "handle_type": 0, "interpolation": 0, "handle_right": {"X": 0.5, "Y": 0.0}, "co": {"X": 1.0, "Y": 255.0}}]}, "red": {"Points": [{"handle_left": {"X": 0.5, "Y": 1.0}, "handle_type": 0, "interpolation": 0, "handle_right": {"X": 0.5, "Y": 0.0}, "co": {"X": 1.0, "Y": 0.0}}]}, "green": {"Points": [{"handle_left": {"X": 0.5, "Y": 1.0}, "handle_type": 0, "interpolation": 0, "handle_right": {"X": 0.5, "Y": 0.0}, "co": {"X": 1.0, "Y": 123.0}}]}, "blue": {"Points": [{"handle_left": {"X": 0.5, "Y": 1.0}, "handle_type": 0, "interpolation": 0, "handle_right": {"X": 0.5, "Y": 0.0}, "co": {"X": 1.0, "Y": 255.0}}]}}, "title": "06-Create Progress Card Template.mkv", "display": 0, "channel_filter": {"Points": [{"interpolation": 2, "co": {"X": 1.0, "Y": -1.0}}]}, "id": "AVMGYI71Z9", "location_x": {"Points": [{"interpolation": 2, "co": {"X": 1.0, "Y": 0.0}}]}, "gravity": 4, "rotation": {"Points": [{"interpolation": 2, "co": {"X": 1.0, "Y": 0.0}}]}, "shear_x": {"Points": [{"interpolation": 2, "co": {"X": 1.0, "Y": 0.0}}]}, "scale_y": {"Points": [{"interpolation": 2, "co": {"X": 1.0, "Y": 1.0}}]}, "scale_x": {"Points": [{"interpolation": 2, "co": {"X": 1.0, "Y": 1.0}}]}, "duration": 44.0, "layer": 5, "alpha": {"Points": [{"interpolation": 2, "co": {"X": 1.0, "Y": 1.0}}]}, "shear_y": {"Points": [{"interpolation": 2, "co": {"X": 1.0, "Y": 0.0}}]}, "perspective_c3_x": {"Points": [{"interpolation": 2, "co": {"X": 1.0, "Y": -1.0}}]}, "position": 23.52, "has_video": {"Points": [{"interpolation": 2, "co": {"X": 1.0, "Y": -1.0}}]}}, "type": "insert"}, {"key": ["clips", {"id": "AVMGYI71Z9"}], "partial": false, "old_values": {"location_y": {"Points": [{"interpolation": 2, "co": {"X": 1.0, "Y": 0.0}}]}, "scale": 1, "perspective_c1_y": {"Points": [{"interpolation": 2, "co": {"X": 1.0, "Y": -1.0}}]}, "has_audio": {"Points": [{"interpolation": 2, "co": {"X": 1.0, "Y": -1.0}}]}, "image": "/home/milind/.openshot_qt/thumbnail/JH7UWI807B.png", "file_id": "JH7UWI807B", "perspective_c3_y": {"Points": [{"interpolation": 2, "co": {"X": 1.0, "Y": -1.0}}]}, "volume": {"Points": [{"interpolation": 2, "co": {"X": 1.0, "Y": 1.0}}]}, "waveform": false, "channel_mapping": {"Points": [{"interpolation": 2, "co": {"X": 1.0, "Y": -1.0}}]}, "perspective_c4_y": {"Points": [{"interpolation": 2, "co": {"X": 1.0, "Y": -1.0}}]}, "start": 0.0, "perspective_c2_y": {"Points": [{"interpolation": 2, "co": {"X": 1.0, "Y": -1.0}}]}, "end": 44.0, "reader": {"channels": 0, "path": "/home/milind/Data/Projects/ProgressCard/06-Create Progress Card Template.mkv", "duration": 44.0, "has_audio": false, "video_stream_index": 0, "channel_layout": 4, "vcodec": "h264", "audio_bit_rate": 0, "top_field_first": true, "has_video": true, "pixel_ratio": {"num": 1, "den": 1}, "height": 768, "video_length": "1100", "video_bit_rate": 0, "acodec": "", "sample_rate": 0, "file_size": "394038", "pixel_format": 0, "fps": {"num": 25, "den": 1}, "video_timebase": {"num": 1, "den": 1000}, "display_ratio": {"num": 683, "den": 384}, "width": 1366, "has_single_image": false, "audio_stream_index": -1, "type": "FFmpegReader", "interlaced_frame": false, "audio_timebase": {"num": 1, "den": 1}}, "perspective_c4_x": {"Points": [{"interpolation": 2, "co": {"X": 1.0, "Y": -1.0}}]}, "perspective_c2_x": {"Points": [{"interpolation": 2, "co": {"X": 1.0, "Y": -1.0}}]}, "time": {"Points": [{"interpolation": 2, "co": {"X": 1.0, "Y": 1.0}}]}, "crop_x": {"Points": [{"interpolation": 2, "co": {"X": 1.0, "Y": 0.0}}]}, "crop_height": {"Points": [{"interpolation": 2, "co": {"X": 1.0, "Y": -1.0}}]}, "crop_y": {"Points": [{"interpolation": 2, "co": {"X": 1.0, "Y": 0.0}}]}, "anchor": 0, "crop_width": {"Points": [{"interpolation": 2, "co": {"X": 1.0, "Y": -1.0}}]}, "perspective_c1_x": {"Points": [{"interpolation": 2, "co": {"X": 1.0, "Y": -1.0}}]}, "effects": [], "wave_color": {"alpha": {"Points": [{"handle_left": {"X": 0.5, "Y": 1.0}, "handle_type": 0, "interpolation": 0, "handle_right": {"X": 0.5, "Y": 0.0}, "co": {"X": 1.0, "Y": 255.0}}]}, "red": {"Points": [{"handle_left": {"X": 0.5, "Y": 1.0}, "handle_type": 0, "interpolation": 0, "handle_right": {"X": 0.5, "Y": 0.0}, "co": {"X": 1.0, "Y": 0.0}}]}, "green": {"Points": [{"handle_left": {"X": 0.5, "Y": 1.0}, "handle_type": 0, "interpolation": 0, "handle_right": {"X": 0.5, "Y": 0.0}, "co": {"X": 1.0, "Y": 123.0}}]}, "blue": {"Points": [{"handle_left": {"X": 0.5, "Y": 1.0}, "handle_type": 0, "interpolation": 0, "handle_right": {"X": 0.5, "Y": 0.0}, "co": {"X": 1.0, "Y": 255.0}}]}}, "title": "06-Create Progress Card Template.mkv", "display": 0, "channel_filter": {"Points": [{"interpolation": 2, "co": {"X": 1.0, "Y": -1.0}}]}, "id": "AVMGYI71Z9", "location_x": {"Points": [{"interpolation": 2, "co": {"X": 1.0, "Y": 0.0}}]}, "gravity": 4, "rotation": {"Points": [{"interpolation": 2, "co": {"X": 1.0, "Y": 0.0}}]}, "shear_x": {"Points": [{"interpolation": 2, "co": {"X": 1.0, "Y": 0.0}}]}, "scale_y": {"Points": [{"interpolation": 2, "co": {"X": 1.0, "Y": 1.0}}]}, "scale_x": {"Points": [{"interpolation": 2, "co": {"X": 1.0, "Y": 1.0}}]}, "duration": 44.0, "layer": 5, "alpha": {"Points": [{"interpolation": 2, "co": {"X": 1.0, "Y": 1.0}}]}, "shear_y": {"Points": [{"interpolation": 2, "co": {"X": 1.0, "Y": 0.0}}]}, "perspective_c3_x": {"Points": [{"interpolation": 2, "co": {"X": 1.0, "Y": -1.0}}]}, "position": 24.93, "has_video": {"Points": [{"interpolation": 2, "co": {"X": 1.0, "Y": -1.0}}]}}, "value": {"id": "AVMGYI71Z9", "start": 0, "end": 44, "image": "/home/milind/.openshot_qt/thumbnail/JH7UWI807B.png", "layer": 5, "position": 23.52}, "type": "update"}, {"key": ["scale"], "partial": false, "old_values": 3, "value": 4, "type": "update"}, {"key": ["scale"], "partial": false, "old_values": 4, "value": 5, "type": "update"}, {"key": ["scale"], "partial": false, "old_values": 5, "value": 6, "type": "update"}, {"key": ["clips", {"id": "AVMGYI71Z9"}], "partial": false, "old_values": {"location_y": {"Points": [{"interpolation": 2, "co": {"X": 1.0, "Y": 0.0}}]}, "scale": 1, "perspective_c1_y": {"Points": [{"interpolation": 2, "co": {"X": 1.0, "Y": -1.0}}]}, "has_audio": {"Points": [{"interpolation": 2, "co": {"X": 1.0, "Y": -1.0}}]}, "image": "/home/milind/.openshot_qt/thumbnail/JH7UWI807B.png", "file_id": "JH7UWI807B", "perspective_c3_y": {"Points": [{"interpolation": 2, "co": {"X": 1.0, "Y": -1.0}}]}, "volume": {"Points": [{"interpolation": 2, "co": {"X": 1.0, "Y": 1.0}}]}, "waveform": false, "channel_mapping": {"Points": [{"interpolation": 2, "co": {"X": 1.0, "Y": -1.0}}]}, "perspective_c4_y": {"Points": [{"interpolation": 2, "co": {"X": 1.0, "Y": -1.0}}]}, "start": 0, "perspective_c2_y": {"Points": [{"interpolation": 2, "co": {"X": 1.0, "Y": -1.0}}]}, "end": 44, "reader": {"channels": 0, "path": "/home/milind/Data/Projects/ProgressCard/06-Create Progress Card Template.mkv", "duration": 44.0, "has_audio": false, "video_stream_index": 0, "channel_layout": 4, "vcodec": "h264", "audio_bit_rate": 0, "top_field_first": true, "has_video": true, "pixel_ratio": {"num": 1, "den": 1}, "height": 768, "video_length": "1100", "video_bit_rate": 0, "acodec": "", "sample_rate": 0, "file_size": "394038", "pixel_format": 0, "fps": {"num": 25, "den": 1}, "video_timebase": {"num": 1, "den": 1000}, "display_ratio": {"num": 683, "den": 384}, "width": 1366, "has_single_image": false, "audio_stream_index": -1, "type": "FFmpegReader", "interlaced_frame": false, "audio_timebase": {"num": 1, "den": 1}}, "perspective_c4_x": {"Points": [{"interpolation": 2, "co": {"X": 1.0, "Y": -1.0}}]}, "perspective_c2_x": {"Points": [{"interpolation": 2, "co": {"X": 1.0, "Y": -1.0}}]}, "time": {"Points": [{"interpolation": 2, "co": {"X": 1.0, "Y": 1.0}}]}, "crop_x": {"Points": [{"interpolation": 2, "co": {"X": 1.0, "Y": 0.0}}]}, "crop_height": {"Points": [{"interpolation": 2, "co": {"X": 1.0, "Y": -1.0}}]}, "crop_y": {"Points": [{"interpolation": 2, "co": {"X": 1.0, "Y": 0.0}}]}, "anchor": 0, "crop_width": {"Points": [{"interpolation": 2, "co": {"X": 1.0, "Y": -1.0}}]}, "shear_y": {"Points": [{"interpolation": 2, "co": {"X": 1.0, "Y": 0.0}}]}, "effects": [], "wave_color": {"alpha": {"Points": [{"handle_left": {"X": 0.5, "Y": 1.0}, "handle_type": 0, "interpolation": 0, "handle_right": {"X": 0.5, "Y": 0.0}, "co": {"X": 1.0, "Y": 255.0}}]}, "red": {"Points": [{"handle_left": {"X": 0.5, "Y": 1.0}, "handle_type": 0, "interpolation": 0, "handle_right": {"X": 0.5, "Y": 0.0}, "co": {"X": 1.0, "Y": 0.0}}]}, "green": {"Points": [{"handle_left": {"X": 0.5, "Y": 1.0}, "handle_type": 0, "interpolation": 0, "handle_right": {"X": 0.5, "Y": 0.0}, "co": {"X": 1.0, "Y": 123.0}}]}, "blue": {"Points": [{"handle_left": {"X": 0.5, "Y": 1.0}, "handle_type": 0, "interpolation": 0, "handle_right": {"X": 0.5, "Y": 0.0}, "co": {"X": 1.0, "Y": 255.0}}]}}, "title": "06-Create Progress Card Template.mkv", "perspective_c3_x": {"Points": [{"interpolation": 2, "co": {"X": 1.0, "Y": -1.0}}]}, "display": 0, "id": "AVMGYI71Z9", "location_x": {"Points": [{"interpolation": 2, "co": {"X": 1.0, "Y": 0.0}}]}, "gravity": 4, "rotation": {"Points": [{"interpolation": 2, "co": {"X": 1.0, "Y": 0.0}}]}, "shear_x": {"Points": [{"interpolation": 2, "co": {"X": 1.0, "Y": 0.0}}]}, "scale_y": {"Points": [{"interpolation": 2, "co": {"X": 1.0, "Y": 1.0}}]}, "scale_x": {"Points": [{"interpolation": 2, "co": {"X": 1.0, "Y": 1.0}}]}, "duration": 44.0, "layer": 5, "alpha": {"Points": [{"interpolation": 2, "co": {"X": 1.0, "Y": 1.0}}]}, "perspective_c1_x": {"Points": [{"interpolation": 2, "co": {"X": 1.0, "Y": -1.0}}]}, "channel_filter": {"Points": [{"interpolation": 2, "co": {"X": 1.0, "Y": -1.0}}]}, "position": 23.52, "has_video": {"Points": [{"interpolation": 2, "co": {"X": 1.0, "Y": -1.0}}]}}, "value": {"location_y": {"Points": [{"interpolation": 2, "co": {"X": 1.0, "Y": 0.0}}]}, "scale": 1, "perspective_c1_y": {"Points": [{"interpolation": 2, "co": {"X": 1.0, "Y": -1.0}}]}, "has_audio": {"Points": [{"interpolation": 2, "co": {"X": 1.0, "Y": -1.0}}]}, "image": "/home/milind/.openshot_qt/thumbnail/JH7UWI807B.png", "file_id": "JH7UWI807B", "perspective_c3_y": {"Points": [{"interpolation": 2, "co": {"X": 1.0, "Y": -1.0}}]}, "volume": {"Points": [{"interpolation": 2, "co": {"X": 1.0, "Y": 1.0}}]}, "waveform": false, "channel_mapping": {"Points": [{"interpolation": 2, "co": {"X": 1.0, "Y": -1.0}}]}, "perspective_c4_y": {"Points": [{"interpolation": 2, "co": {"X": 1.0, "Y": -1.0}}]}, "start": 0, "perspective_c2_y": {"Points": [{"interpolation": 2, "co": {"X": 1.0, "Y": -1.0}}]}, "end": 41.105000000000004, "perspective_c4_x": {"Points": [{"interpolation": 2, "co": {"X": 1.0, "Y": -1.0}}]}, "perspective_c2_x": {"Points": [{"interpolation": 2, "co": {"X": 1.0, "Y": -1.0}}]}, "time": {"Points": [{"interpolation": 2, "co": {"X": 1.0, "Y": 1.0}}]}, "crop_x": {"Points": [{"interpolation": 2, "co": {"X": 1.0, "Y": 0.0}}]}, "crop_height": {"Points": [{"interpolation": 2, "co": {"X": 1.0, "Y": -1.0}}]}, "crop_y": {"Points": [{"interpolation": 2, "co": {"X": 1.0, "Y": 0.0}}]}, "anchor": 0, "crop_width": {"Points": [{"interpolation": 2, "co": {"X": 1.0, "Y": -1.0}}]}, "perspective_c1_x": {"Points": [{"interpolation": 2, "co": {"X": 1.0, "Y": -1.0}}]}, "effects": [], "wave_color": {"alpha": {"Points": [{"handle_left": {"X": 0.5, "Y": 1.0}, "handle_type": 0, "interpolation": 0, "handle_right": {"X": 0.5, "Y": 0.0}, "co": {"X": 1.0, "Y": 255.0}}]}, "red": {"Points": [{"handle_left": {"X": 0.5, "Y": 1.0}, "handle_type": 0, "interpolation": 0, "handle_right": {"X": 0.5, "Y": 0.0}, "co": {"X": 1.0, "Y": 0.0}}]}, "green": {"Points": [{"handle_left": {"X": 0.5, "Y": 1.0}, "handle_type": 0, "interpolation": 0, "handle_right": {"X": 0.5, "Y": 0.0}, "co": {"X": 1.0, "Y": 123.0}}]}, "blue": {"Points": [{"handle_left": {"X": 0.5, "Y": 1.0}, "handle_type": 0, "interpolation": 0, "handle_right": {"X": 0.5, "Y": 0.0}, "co": {"X": 1.0, "Y": 255.0}}]}}, "title": "06-Create Progress Card Template.mkv", "display": 0, "channel_filter": {"Points": [{"interpolation": 2, "co": {"X": 1.0, "Y": -1.0}}]}, "id": "AVMGYI71Z9", "location_x": {"Points": [{"interpolation": 2, "co": {"X": 1.0, "Y": 0.0}}]}, "gravity": 4, "rotation": {"Points": [{"interpolation": 2, "co": {"X": 1.0, "Y": 0.0}}]}, "shear_x": {"Points": [{"interpolation": 2, "co": {"X": 1.0, "Y": 0.0}}]}, "scale_y": {"Points": [{"interpolation": 2, "co": {"X": 1.0, "Y": 1.0}}]}, "scale_x": {"Points": [{"interpolation": 2, "co": {"X": 1.0, "Y": 1.0}}]}, "duration": 44.0, "layer": 5, "alpha": {"Points": [{"interpolation": 2, "co": {"X": 1.0, "Y": 1.0}}]}, "shear_y": {"Points": [{"interpolation": 2, "co": {"X": 1.0, "Y": 0.0}}]}, "perspective_c3_x": {"Points": [{"interpolation": 2, "co": {"X": 1.0, "Y": -1.0}}]}, "position": 23.52, "has_video": {"Points": [{"interpolation": 2, "co": {"X": 1.0, "Y": -1.0}}]}}, "type": "update"}, {"key": ["clips", {"id": "AVMGYI71Z9"}], "partial": false, "old_values": {"location_y": {"Points": [{"interpolation": 2, "co": {"X": 1.0, "Y": 0.0}}]}, "scale": 1, "perspective_c1_y": {"Points": [{"interpolation": 2, "co": {"X": 1.0, "Y": -1.0}}]}, "has_audio": {"Points": [{"interpolation": 2, "co": {"X": 1.0, "Y": -1.0}}]}, "image": "/home/milind/.openshot_qt/thumbnail/JH7UWI807B.png", "file_id": "JH7UWI807B", "perspective_c3_y": {"Points": [{"interpolation": 2, "co": {"X": 1.0, "Y": -1.0}}]}, "volume": {"Points": [{"interpolation": 2, "co": {"X": 1.0, "Y": 1.0}}]}, "waveform": false, "channel_mapping": {"Points": [{"interpolation": 2, "co": {"X": 1.0, "Y": -1.0}}]}, "perspective_c4_y": {"Points": [{"interpolation": 2, "co": {"X": 1.0, "Y": -1.0}}]}, "start": 0, "perspective_c2_y": {"Points": [{"interpolation": 2, "co": {"X": 1.0, "Y": -1.0}}]}, "end": 41.105000000000004, "reader": {"channels": 0, "path": "/home/milind/Data/Projects/ProgressCard/06-Create Progress Card Template.mkv", "duration": 44.0, "has_audio": false, "video_stream_index": 0, "channel_layout": 4, "vcodec": "h264", "audio_bit_rate": 0, "top_field_first": true, "has_video": true, "pixel_ratio": {"num": 1, "den": 1}, "height": 768, "video_length": "1100", "video_bit_rate": 0, "acodec": "", "sample_rate": 0, "file_size": "394038", "pixel_format": 0, "fps": {"num": 25, "den": 1}, "video_timebase": {"num": 1, "den": 1000}, "display_ratio": {"num": 683, "den": 384}, "width": 1366, "has_single_image": false, "audio_stream_index": -1, "type": "FFmpegReader", "interlaced_frame": false, "audio_timebase": {"num": 1, "den": 1}}, "perspective_c4_x": {"Points": [{"interpolation": 2, "co": {"X": 1.0, "Y": -1.0}}]}, "perspective_c2_x": {"Points": [{"interpolation": 2, "co": {"X": 1.0, "Y": -1.0}}]}, "time": {"Points": [{"interpolation": 2, "co": {"X": 1.0, "Y": 1.0}}]}, "crop_x": {"Points": [{"interpolation": 2, "co": {"X": 1.0, "Y": 0.0}}]}, "crop_height": {"Points": [{"interpolation": 2, "co": {"X": 1.0, "Y": -1.0}}]}, "crop_y": {"Points": [{"interpolation": 2, "co": {"X": 1.0, "Y": 0.0}}]}, "anchor": 0, "crop_width": {"Points": [{"interpolation": 2, "co": {"X": 1.0, "Y": -1.0}}]}, "perspective_c1_x": {"Points": [{"interpolation": 2, "co": {"X": 1.0, "Y": -1.0}}]}, "effects": [], "wave_color": {"alpha": {"Points": [{"handle_left": {"X": 0.5, "Y": 1.0}, "handle_type": 0, "interpolation": 0, "handle_right": {"X": 0.5, "Y": 0.0}, "co": {"X": 1.0, "Y": 255.0}}]}, "red": {"Points": [{"handle_left": {"X": 0.5, "Y": 1.0}, "handle_type": 0, "interpolation": 0, "handle_right": {"X": 0.5, "Y": 0.0}, "co": {"X": 1.0, "Y": 0.0}}]}, "green": {"Points": [{"handle_left": {"X": 0.5, "Y": 1.0}, "handle_type": 0, "interpolation": 0, "handle_right": {"X": 0.5, "Y": 0.0}, "co": {"X": 1.0, "Y": 123.0}}]}, "blue": {"Points": [{"handle_left": {"X": 0.5, "Y": 1.0}, "handle_type": 0, "interpolation": 0, "handle_right": {"X": 0.5, "Y": 0.0}, "co": {"X": 1.0, "Y": 255.0}}]}}, "title": "06-Create Progress Card Template.mkv", "perspective_c3_x": {"Points": [{"interpolation": 2, "co": {"X": 1.0, "Y": -1.0}}]}, "display": 0, "id": "AVMGYI71Z9", "location_x": {"Points": [{"interpolation": 2, "co": {"X": 1.0, "Y": 0.0}}]}, "gravity": 4, "rotation": {"Points": [{"interpolation": 2, "co": {"X": 1.0, "Y": 0.0}}]}, "shear_x": {"Points": [{"interpolation": 2, "co": {"X": 1.0, "Y": 0.0}}]}, "scale_y": {"Points": [{"interpolation": 2, "co": {"X": 1.0, "Y": 1.0}}]}, "scale_x": {"Points": [{"interpolation": 2, "co": {"X": 1.0, "Y": 1.0}}]}, "duration": 44.0, "layer": 5, "alpha": {"Points": [{"interpolation": 2, "co": {"X": 1.0, "Y": 1.0}}]}, "shear_y": {"Points": [{"interpolation": 2, "co": {"X": 1.0, "Y": 0.0}}]}, "channel_filter": {"Points": [{"interpolation": 2, "co": {"X": 1.0, "Y": -1.0}}]}, "position": 23.52, "has_video": {"Points": [{"interpolation": 2, "co": {"X": 1.0, "Y": -1.0}}]}}, "value": {"location_y": {"Points": [{"interpolation": 2, "co": {"X": 1.0, "Y": 0.0}}]}, "scale": 1, "perspective_c1_y": {"Points": [{"interpolation": 2, "co": {"X": 1.0, "Y": -1.0}}]}, "has_audio": {"Points": [{"interpolation": 2, "co": {"X": 1.0, "Y": -1.0}}]}, "image": "/home/milind/.openshot_qt/thumbnail/AVMGYI71Z9-6.png", "file_id": "JH7UWI807B", "perspective_c3_y": {"Points": [{"interpolation": 2, "co": {"X": 1.0, "Y": -1.0}}]}, "volume": {"Points": [{"interpolation": 2, "co": {"X": 1.0, "Y": 1.0}}]}, "waveform": false, "channel_mapping": {"Points": [{"interpolation": 2, "co": {"X": 1.0, "Y": -1.0}}]}, "perspective_c4_y": {"Points": [{"interpolation": 2, "co": {"X": 1.0, "Y": -1.0}}]}, "start": 0.18833333333333258, "perspective_c2_y": {"Points": [{"interpolation": 2, "co": {"X": 1.0, "Y": -1.0}}]}, "end": 41.105000000000004, "perspective_c4_x": {"Points": [{"interpolation": 2, "co": {"X": 1.0, "Y": -1.0}}]}, "perspective_c2_x": {"Points": [{"interpolation": 2, "co": {"X": 1.0, "Y": -1.0}}]}, "time": {"Points": [{"interpolation": 2, "co": {"X": 1.0, "Y": 1.0}}]}, "crop_x": {"Points": [{"interpolation": 2, "co": {"X": 1.0, "Y": 0.0}}]}, "crop_height": {"Points": [{"interpolation": 2, "co": {"X": 1.0, "Y": -1.0}}]}, "crop_y": {"Points": [{"interpolation": 2, "co": {"X": 1.0, "Y": 0.0}}]}, "anchor": 0, "crop_width": {"Points": [{"interpolation": 2, "co": {"X": 1.0, "Y": -1.0}}]}, "perspective_c1_x": {"Points": [{"interpolation": 2, "co": {"X": 1.0, "Y": -1.0}}]}, "effects": [], "wave_color": {"alpha": {"Points": [{"handle_left": {"X": 0.5, "Y": 1.0}, "handle_type": 0, "interpolation": 0, "handle_right": {"X": 0.5, "Y": 0.0}, "co": {"X": 1.0, "Y": 255.0}}]}, "red": {"Points": [{"handle_left": {"X": 0.5, "Y": 1.0}, "handle_type": 0, "interpolation": 0, "handle_right": {"X": 0.5, "Y": 0.0}, "co": {"X": 1.0, "Y": 0.0}}]}, "green": {"Points": [{"handle_left": {"X": 0.5, "Y": 1.0}, "handle_type": 0, "interpolation": 0, "handle_right": {"X": 0.5, "Y": 0.0}, "co": {"X": 1.0, "Y": 123.0}}]}, "blue": {"Points": [{"handle_left": {"X": 0.5, "Y": 1.0}, "handle_type": 0, "interpolation": 0, "handle_right": {"X": 0.5, "Y": 0.0}, "co": {"X": 1.0, "Y": 255.0}}]}}, "title": "06-Create Progress Card Template.mkv", "perspective_c3_x": {"Points": [{"interpolation": 2, "co": {"X": 1.0, "Y": -1.0}}]}, "display": 0, "id": "AVMGYI71Z9", "location_x": {"Points": [{"interpolation": 2, "co": {"X": 1.0, "Y": 0.0}}]}, "gravity": 4, "rotation": {"Points": [{"interpolation": 2, "co": {"X": 1.0, "Y": 0.0}}]}, "shear_x": {"Points": [{"interpolation": 2, "co": {"X": 1.0, "Y": 0.0}}]}, "scale_y": {"Points": [{"interpolation": 2, "co": {"X": 1.0, "Y": 1.0}}]}, "scale_x": {"Points": [{"interpolation": 2, "co": {"X": 1.0, "Y": 1.0}}]}, "duration": 44.0, "layer": 5, "alpha": {"Points": [{"interpolation": 2, "co": {"X": 1.0, "Y": 1.0}}]}, "shear_y": {"Points": [{"interpolation": 2, "co": {"X": 1.0, "Y": 0.0}}]}, "channel_filter": {"Points": [{"interpolation": 2, "co": {"X": 1.0, "Y": -1.0}}]}, "position": 23.708333333333332, "has_video": {"Points": [{"interpolation": 2, "co": {"X": 1.0, "Y": -1.0}}]}}, "type": "update"}, {"key": ["clips", {"id": "AVMGYI71Z9"}], "partial": false, "old_values": {"location_y": {"Points": [{"interpolation": 2, "co": {"X": 1.0, "Y": 0.0}}]}, "scale": 1, "perspective_c1_y": {"Points": [{"interpolation": 2, "co": {"X": 1.0, "Y": -1.0}}]}, "has_audio": {"Points": [{"interpolation": 2, "co": {"X": 1.0, "Y": -1.0}}]}, "image": "/home/milind/.openshot_qt/thumbnail/AVMGYI71Z9-6.png", "file_id": "JH7UWI807B", "perspective_c3_y": {"Points": [{"interpolation": 2, "co": {"X": 1.0, "Y": -1.0}}]}, "volume": {"Points": [{"interpolation": 2, "co": {"X": 1.0, "Y": 1.0}}]}, "waveform": false, "channel_mapping": {"Points": [{"interpolation": 2, "co": {"X": 1.0, "Y": -1.0}}]}, "perspective_c4_y": {"Points": [{"interpolation": 2, "co": {"X": 1.0, "Y": -1.0}}]}, "start": 0.18833333333333258, "perspective_c2_y": {"Points": [{"interpolation": 2, "co": {"X": 1.0, "Y": -1.0}}]}, "end": 41.105000000000004, "reader": {"channels": 0, "path": "/home/milind/Data/Projects/ProgressCard/06-Create Progress Card Template.mkv", "duration": 44.0, "has_audio": false, "video_stream_index": 0, "channel_layout": 4, "vcodec": "h264", "audio_bit_rate": 0, "top_field_first": true, "has_video": true, "pixel_ratio": {"num": 1, "den": 1}, "height": 768, "video_length": "1100", "video_bit_rate": 0, "acodec": "", "sample_rate": 0, "file_size": "394038", "pixel_format": 0, "fps": {"num": 25, "den": 1}, "video_timebase": {"num": 1, "den": 1000}, "display_ratio": {"num": 683, "den": 384}, "width": 1366, "has_single_image": false, "audio_stream_index": -1, "type": "FFmpegReader", "interlaced_frame": false, "audio_timebase": {"num": 1, "den": 1}}, "perspective_c4_x": {"Points": [{"interpolation": 2, "co": {"X": 1.0, "Y": -1.0}}]}, "perspective_c2_x": {"Points": [{"interpolation": 2, "co": {"X": 1.0, "Y": -1.0}}]}, "time": {"Points": [{"interpolation": 2, "co": {"X": 1.0, "Y": 1.0}}]}, "crop_x": {"Points": [{"interpolation": 2, "co": {"X": 1.0, "Y": 0.0}}]}, "crop_height": {"Points": [{"interpolation": 2, "co": {"X": 1.0, "Y": -1.0}}]}, "crop_y": {"Points": [{"interpolation": 2, "co": {"X": 1.0, "Y": 0.0}}]}, "anchor": 0, "crop_width": {"Points": [{"interpolation": 2, "co": {"X": 1.0, "Y": -1.0}}]}, "perspective_c1_x": {"Points": [{"interpolation": 2, "co": {"X": 1.0, "Y": -1.0}}]}, "effects": [], "wave_color": {"alpha": {"Points": [{"handle_left": {"X": 0.5, "Y": 1.0}, "handle_type": 0, "interpolation": 0, "handle_right": {"X": 0.5, "Y": 0.0}, "co": {"X": 1.0, "Y": 255.0}}]}, "red": {"Points": [{"handle_left": {"X": 0.5, "Y": 1.0}, "handle_type": 0, "interpolation": 0, "handle_right": {"X": 0.5, "Y": 0.0}, "co": {"X": 1.0, "Y": 0.0}}]}, "green": {"Points": [{"handle_left": {"X": 0.5, "Y": 1.0}, "handle_type": 0, "interpolation": 0, "handle_right": {"X": 0.5, "Y": 0.0}, "co": {"X": 1.0, "Y": 123.0}}]}, "blue": {"Points": [{"handle_left": {"X": 0.5, "Y": 1.0}, "handle_type": 0, "interpolation": 0, "handle_right": {"X": 0.5, "Y": 0.0}, "co": {"X": 1.0, "Y": 255.0}}]}}, "title": "06-Create Progress Card Template.mkv", "perspective_c3_x": {"Points": [{"interpolation": 2, "co": {"X": 1.0, "Y": -1.0}}]}, "display": 0, "id": "AVMGYI71Z9", "location_x": {"Points": [{"interpolation": 2, "co": {"X": 1.0, "Y": 0.0}}]}, "gravity": 4, "rotation": {"Points": [{"interpolation": 2, "co": {"X": 1.0, "Y": 0.0}}]}, "shear_x": {"Points": [{"interpolation": 2, "co": {"X": 1.0, "Y": 0.0}}]}, "scale_y": {"Points": [{"interpolation": 2, "co": {"X": 1.0, "Y": 1.0}}]}, "scale_x": {"Points": [{"interpolation": 2, "co": {"X": 1.0, "Y": 1.0}}]}, "duration": 44.0, "layer": 5, "alpha": {"Points": [{"interpolation": 2, "co": {"X": 1.0, "Y": 1.0}}]}, "shear_y": {"Points": [{"interpolation": 2, "co": {"X": 1.0, "Y": 0.0}}]}, "channel_filter": {"Points": [{"interpolation": 2, "co": {"X": 1.0, "Y": -1.0}}]}, "position": 23.708333333333332, "has_video": {"Points": [{"interpolation": 2, "co": {"X": 1.0, "Y": -1.0}}]}}, "value": {"location_y": {"Points": [{"interpolation": 2, "co": {"X": 1.0, "Y": 0.0}}]}, "scale": 1, "perspective_c1_y": {"Points": [{"interpolation": 2, "co": {"X": 1.0, "Y": -1.0}}]}, "has_audio": {"Points": [{"interpolation": 2, "co": {"X": 1.0, "Y": -1.0}}]}, "image": "/home/milind/.openshot_qt/thumbnail/AVMGYI71Z9-6.png", "file_id": "JH7UWI807B", "perspective_c3_y": {"Points": [{"interpolation": 2, "co": {"X": 1.0, "Y": -1.0}}]}, "volume": {"Points": [{"interpolation": 2, "co": {"X": 1.0, "Y": 1.0}}]}, "waveform": false, "channel_mapping": {"Points": [{"interpolation": 2, "co": {"X": 1.0, "Y": -1.0}}]}, "perspective_c4_y": {"Points": [{"interpolation": 2, "co": {"X": 1.0, "Y": -1.0}}]}, "start": 0.18833333333333258, "perspective_c2_y": {"Points": [{"interpolation": 2, "co": {"X": 1.0, "Y": -1.0}}]}, "end": 41.105000000000004, "perspective_c4_x": {"Points": [{"interpolation": 2, "co": {"X": 1.0, "Y": -1.0}}]}, "perspective_c2_x": {"Points": [{"interpolation": 2, "co": {"X": 1.0, "Y": -1.0}}]}, "time": {"Points": [{"interpolation": 2, "co": {"X": 1.0, "Y": 1.0}}]}, "crop_x": {"Points": [{"interpolation": 2, "co": {"X": 1.0, "Y": 0.0}}]}, "crop_height": {"Points": [{"interpolation": 2, "co": {"X": 1.0, "Y": -1.0}}]}, "crop_y": {"Points": [{"interpolation": 2, "co": {"X": 1.0, "Y": 0.0}}]}, "anchor": 0, "crop_width": {"Points": [{"interpolation": 2, "co": {"X": 1.0, "Y": -1.0}}]}, "perspective_c1_x": {"Points": [{"interpolation": 2, "co": {"X": 1.0, "Y": -1.0}}]}, "effects": [], "wave_color": {"alpha": {"Points": [{"handle_left": {"X": 0.5, "Y": 1.0}, "handle_type": 0, "interpolation": 0, "handle_right": {"X": 0.5, "Y": 0.0}, "co": {"X": 1.0, "Y": 255.0}}]}, "red": {"Points": [{"handle_left": {"X": 0.5, "Y": 1.0}, "handle_type": 0, "interpolation": 0, "handle_right": {"X": 0.5, "Y": 0.0}, "co": {"X": 1.0, "Y": 0.0}}]}, "green": {"Points": [{"handle_left": {"X": 0.5, "Y": 1.0}, "handle_type": 0, "interpolation": 0, "handle_right": {"X": 0.5, "Y": 0.0}, "co": {"X": 1.0, "Y": 123.0}}]}, "blue": {"Points": [{"handle_left": {"X": 0.5, "Y": 1.0}, "handle_type": 0, "interpolation": 0, "handle_right": {"X": 0.5, "Y": 0.0}, "co": {"X": 1.0, "Y": 255.0}}]}}, "title": "06-Create Progress Card Template.mkv", "perspective_c3_x": {"Points": [{"interpolation": 2, "co": {"X": 1.0, "Y": -1.0}}]}, "display": 0, "id": "AVMGYI71Z9", "location_x": {"Points": [{"interpolation": 2, "co": {"X": 1.0, "Y": 0.0}}]}, "gravity": 4, "rotation": {"Points": [{"interpolation": 2, "co": {"X": 1.0, "Y": 0.0}}]}, "shear_x": {"Points": [{"interpolation": 2, "co": {"X": 1.0, "Y": 0.0}}]}, "scale_y": {"Points": [{"interpolation": 2, "co": {"X": 1.0, "Y": 1.0}}]}, "scale_x": {"Points": [{"interpolation": 2, "co": {"X": 1.0, "Y": 1.0}}]}, "duration": 44.0, "layer": 5, "alpha": {"Points": [{"interpolation": 2, "co": {"X": 1.0, "Y": 1.0}}, {"handle_left": {"X": 0.5, "Y": 1.0}, "handle_type": 0, "interpolation": 0, "handle_right": {"X": 0.5, "Y": 0.0}, "co": {"X": 6.0, "Y": 0.0}}, {"handle_left": {"X": 0.5, "Y": 1.0}, "handle_type": 0, "interpolation": 0, "handle_right": {"X": 0.5, "Y": 0.0}, "co": {"X": 78.0, "Y": 1.0}}]}, "shear_y": {"Points": [{"interpolation": 2, "co": {"X": 1.0, "Y": 0.0}}]}, "channel_filter": {"Points": [{"interpolation": 2, "co": {"X": 1.0, "Y": -1.0}}]}, "position": 23.708333333333332, "has_video": {"Points": [{"interpolation": 2, "co": {"X": 1.0, "Y": -1.0}}]}}, "type": "update"}, {"key": ["clips", {"id": "AVMGYI71Z9"}], "partial": false, "old_values": {"location_y": {"Points": [{"interpolation": 2, "co": {"X": 1.0, "Y": 0.0}}]}, "scale": 1, "perspective_c1_y": {"Points": [{"interpolation": 2, "co": {"X": 1.0, "Y": -1.0}}]}, "has_audio": {"Points": [{"interpolation": 2, "co": {"X": 1.0, "Y": -1.0}}]}, "image": "/home/milind/.openshot_qt/thumbnail/AVMGYI71Z9-6.png", "file_id": "JH7UWI807B", "perspective_c3_y": {"Points": [{"interpolation": 2, "co": {"X": 1.0, "Y": -1.0}}]}, "volume": {"Points": [{"interpolation": 2, "co": {"X": 1.0, "Y": 1.0}}]}, "waveform": false, "channel_mapping": {"Points": [{"interpolation": 2, "co": {"X": 1.0, "Y": -1.0}}]}, "perspective_c4_y": {"Points": [{"interpolation": 2, "co": {"X": 1.0, "Y": -1.0}}]}, "start": 0.18833333333333258, "perspective_c2_y": {"Points": [{"interpolation": 2, "co": {"X": 1.0, "Y": -1.0}}]}, "end": 41.105000000000004, "reader": {"channels": 0, "path": "/home/milind/Data/Projects/ProgressCard/06-Create Progress Card Template.mkv", "duration": 44.0, "has_audio": false, "video_stream_index": 0, "channel_layout": 4, "vcodec": "h264", "audio_bit_rate": 0, "top_field_first": true, "has_video": true, "pixel_ratio": {"num": 1, "den": 1}, "height": 768, "video_length": "1100", "video_bit_rate": 0, "acodec": "", "sample_rate": 0, "file_size": "394038", "pixel_format": 0, "fps": {"num": 25, "den": 1}, "video_timebase": {"num": 1, "den": 1000}, "display_ratio": {"num": 683, "den": 384}, "width": 1366, "has_single_image": false, "audio_stream_index": -1, "type": "FFmpegReader", "interlaced_frame": false, "audio_timebase": {"num": 1, "den": 1}}, "perspective_c4_x": {"Points": [{"interpolation": 2, "co": {"X": 1.0, "Y": -1.0}}]}, "perspective_c2_x": {"Points": [{"interpolation": 2, "co": {"X": 1.0, "Y": -1.0}}]}, "time": {"Points": [{"interpolation": 2, "co": {"X": 1.0, "Y": 1.0}}]}, "crop_x": {"Points": [{"interpolation": 2, "co": {"X": 1.0, "Y": 0.0}}]}, "crop_height": {"Points": [{"interpolation": 2, "co": {"X": 1.0, "Y": -1.0}}]}, "crop_y": {"Points": [{"interpolation": 2, "co": {"X": 1.0, "Y": 0.0}}]}, "anchor": 0, "crop_width": {"Points": [{"interpolation": 2, "co": {"X": 1.0, "Y": -1.0}}]}, "perspective_c1_x": {"Points": [{"interpolation": 2, "co": {"X": 1.0, "Y": -1.0}}]}, "effects": [], "wave_color": {"alpha": {"Points": [{"handle_left": {"X": 0.5, "Y": 1.0}, "handle_type": 0, "interpolation": 0, "handle_right": {"X": 0.5, "Y": 0.0}, "co": {"X": 1.0, "Y": 255.0}}]}, "red": {"Points": [{"handle_left": {"X": 0.5, "Y": 1.0}, "handle_type": 0, "interpolation": 0, "handle_right": {"X": 0.5, "Y": 0.0}, "co": {"X": 1.0, "Y": 0.0}}]}, "green": {"Points": [{"handle_left": {"X": 0.5, "Y": 1.0}, "handle_type": 0, "interpolation": 0, "handle_right": {"X": 0.5, "Y": 0.0}, "co": {"X": 1.0, "Y": 123.0}}]}, "blue": {"Points": [{"handle_left": {"X": 0.5, "Y": 1.0}, "handle_type": 0, "interpolation": 0, "handle_right": {"X": 0.5, "Y": 0.0}, "co": {"X": 1.0, "Y": 255.0}}]}}, "title": "06-Create Progress Card Template.mkv", "perspective_c3_x": {"Points": [{"interpolation": 2, "co": {"X": 1.0, "Y": -1.0}}]}, "display": 0, "id": "AVMGYI71Z9", "location_x": {"Points": [{"interpolation": 2, "co": {"X": 1.0, "Y": 0.0}}]}, "gravity": 4, "rotation": {"Points": [{"interpolation": 2, "co": {"X": 1.0, "Y": 0.0}}]}, "shear_x": {"Points": [{"interpolation": 2, "co": {"X": 1.0, "Y": 0.0}}]}, "scale_y": {"Points": [{"interpolation": 2, "co": {"X": 1.0, "Y": 1.0}}]}, "scale_x": {"Points": [{"interpolation": 2, "co": {"X": 1.0, "Y": 1.0}}]}, "duration": 44.0, "layer": 5, "alpha": {"Points": [{"interpolation": 2, "co": {"X": 1.0, "Y": 1.0}}, {"handle_left": {"X": 0.5, "Y": 1.0}, "handle_type": 0, "interpolation": 0, "handle_right": {"X": 0.5, "Y": 0.0}, "co": {"X": 6.0, "Y": 0.0}}, {"handle_left": {"X": 0.5, "Y": 1.0}, "handle_type": 0, "interpolation": 0, "handle_right": {"X": 0.5, "Y": 0.0}, "co": {"X": 78.0, "Y": 1.0}}]}, "shear_y": {"Points": [{"interpolation": 2, "co": {"X": 1.0, "Y": 0.0}}]}, "channel_filter": {"Points": [{"interpolation": 2, "co": {"X": 1.0, "Y": -1.0}}]}, "position": 23.708333333333332, "has_video": {"Points": [{"interpolation": 2, "co": {"X": 1.0, "Y": -1.0}}]}}, "value": {"location_y": {"Points": [{"interpolation": 2, "co": {"X": 1.0, "Y": 0.0}}]}, "scale": 1, "perspective_c1_y": {"Points": [{"interpolation": 2, "co": {"X": 1.0, "Y": -1.0}}]}, "has_audio": {"Points": [{"interpolation": 2, "co": {"X": 1.0, "Y": -1.0}}]}, "image": "/home/milind/.openshot_qt/thumbnail/AVMGYI71Z9-6.png", "file_id": "JH7UWI807B", "perspective_c3_y": {"Points": [{"interpolation": 2, "co": {"X": 1.0, "Y": -1.0}}]}, "volume": {"Points": [{"interpolation": 2, "co": {"X": 1.0, "Y": 1.0}}]}, "waveform": false, "channel_mapping": {"Points": [{"interpolation": 2, "co": {"X": 1.0, "Y": -1.0}}]}, "perspective_c4_y": {"Points": [{"interpolation": 2, "co": {"X": 1.0, "Y": -1.0}}]}, "start": 0.18833333333333258, "perspective_c2_y": {"Points": [{"interpolation": 2, "co": {"X": 1.0, "Y": -1.0}}]}, "end": 41.105000000000004, "perspective_c4_x": {"Points": [{"interpolation": 2, "co": {"X": 1.0, "Y": -1.0}}]}, "perspective_c2_x": {"Points": [{"interpolation": 2, "co": {"X": 1.0, "Y": -1.0}}]}, "time": {"Points": [{"interpolation": 2, "co": {"X": 1.0, "Y": 1.0}}]}, "crop_x": {"Points": [{"interpolation": 2, "co": {"X": 1.0, "Y": 0.0}}]}, "crop_height": {"Points": [{"interpolation": 2, "co": {"X": 1.0, "Y": -1.0}}]}, "crop_y": {"Points": [{"interpolation": 2, "co": {"X": 1.0, "Y": 0.0}}]}, "anchor": 0, "crop_width": {"Points": [{"interpolation": 2, "co": {"X": 1.0, "Y": -1.0}}]}, "perspective_c1_x": {"Points": [{"interpolation": 2, "co": {"X": 1.0, "Y": -1.0}}]}, "effects": [], "wave_color": {"alpha": {"Points": [{"handle_left": {"X": 0.5, "Y": 1.0}, "handle_type": 0, "interpolation": 0, "handle_right": {"X": 0.5, "Y": 0.0}, "co": {"X": 1.0, "Y": 255.0}}]}, "red": {"Points": [{"handle_left": {"X": 0.5, "Y": 1.0}, "handle_type": 0, "interpolation": 0, "handle_right": {"X": 0.5, "Y": 0.0}, "co": {"X": 1.0, "Y": 0.0}}]}, "green": {"Points": [{"handle_left": {"X": 0.5, "Y": 1.0}, "handle_type": 0, "interpolation": 0, "handle_right": {"X": 0.5, "Y": 0.0}, "co": {"X": 1.0, "Y": 123.0}}]}, "blue": {"Points": [{"handle_left": {"X": 0.5, "Y": 1.0}, "handle_type": 0, "interpolation": 0, "handle_right": {"X": 0.5, "Y": 0.0}, "co": {"X": 1.0, "Y": 255.0}}]}}, "title": "06-Create Progress Card Template.mkv", "perspective_c3_x": {"Points": [{"interpolation": 2, "co": {"X": 1.0, "Y": -1.0}}]}, "display": 0, "id": "AVMGYI71Z9", "location_x": {"Points": [{"interpolation": 2, "co": {"X": 1.0, "Y": 0.0}}]}, "gravity": 4, "rotation": {"Points": [{"interpolation": 2, "co": {"X": 1.0, "Y": 0.0}}]}, "shear_x": {"Points": [{"interpolation": 2, "co": {"X": 1.0, "Y": 0.0}}]}, "scale_y": {"Points": [{"interpolation": 2, "co": {"X": 1.0, "Y": 1.0}}]}, "scale_x": {"Points": [{"interpolation": 2, "co": {"X": 1.0, "Y": 1.0}}]}, "duration": 44.0, "layer": 5, "alpha": {"Points": [{"interpolation": 2, "co": {"X": 1.0, "Y": 1.0}}, {"handle_left": {"X": 0.5, "Y": 1.0}, "handle_type": 0, "interpolation": 0, "handle_right": {"X": 0.5, "Y": 0.0}, "co": {"X": 6.0, "Y": 0.0}}, {"handle_left": {"X": 0.5, "Y": 1.0}, "handle_type": 0, "interpolation": 0, "handle_right": {"X": 0.5, "Y": 0.0}, "co": {"X": 78.0, "Y": 1.0}}, {"handle_left": {"X": 0.5, "Y": 1.0}, "handle_type": 0, "interpolation": 0, "handle_right": {"X": 0.5, "Y": 0.0}, "co": {"X": 916.0, "Y": 1.0}}, {"handle_left": {"X": 0.5, "Y": 1.0}, "handle_type": 0, "interpolation": 0, "handle_right": {"X": 0.5, "Y": 0.0}, "co": {"X": 988.0, "Y": 0.0}}]}, "shear_y": {"Points": [{"interpolation": 2, "co": {"X": 1.0, "Y": 0.0}}]}, "channel_filter": {"Points": [{"interpolation": 2, "co": {"X": 1.0, "Y": -1.0}}]}, "position": 23.708333333333332, "has_video": {"Points": [{"interpolation": 2, "co": {"X": 1.0, "Y": -1.0}}]}}, "type": "update"}, {"key": ["clips", {"id": "AVMGYI71Z9"}], "partial": false, "old_values": {"location_y": {"Points": [{"interpolation": 2, "co": {"X": 1.0, "Y": 0.0}}]}, "scale": 1, "perspective_c1_y": {"Points": [{"interpolation": 2, "co": {"X": 1.0, "Y": -1.0}}]}, "has_audio": {"Points": [{"interpolation": 2, "co": {"X": 1.0, "Y": -1.0}}]}, "image": "/home/milind/.openshot_qt/thumbnail/AVMGYI71Z9-6.png", "file_id": "JH7UWI807B", "perspective_c3_y": {"Points": [{"interpolation": 2, "co": {"X": 1.0, "Y": -1.0}}]}, "volume": {"Points": [{"interpolation": 2, "co": {"X": 1.0, "Y": 1.0}}]}, "waveform": false, "channel_mapping": {"Points": [{"interpolation": 2, "co": {"X": 1.0, "Y": -1.0}}]}, "perspective_c4_y": {"Points": [{"interpolation": 2, "co": {"X": 1.0, "Y": -1.0}}]}, "start": 0.18833333333333258, "perspective_c2_y": {"Points": [{"interpolation": 2, "co": {"X": 1.0, "Y": -1.0}}]}, "end": 41.105000000000004, "reader": {"channels": 0, "path": "/home/milind/Data/Projects/ProgressCard/06-Create Progress Card Template.mkv", "duration": 44.0, "has_audio": false, "video_stream_index": 0, "channel_layout": 4, "vcodec": "h264", "has_video": true, "pixel_ratio": {"num": 1, "den": 1}, "height": 768, "video_length": "1100", "video_bit_rate": 0, "acodec": "", "sample_rate": 0, "file_size": "394038", "pixel_format": 0, "display_ratio": {"num": 683, "den": 384}, "fps": {"num": 25, "den": 1}, "video_timebase": {"num": 1, "den": 1000}, "top_field_first": true, "width": 1366, "has_single_image": false, "audio_stream_index": -1, "type": "FFmpegReader", "audio_timebase": {"num": 1, "den": 1}, "interlaced_frame": false, "audio_bit_rate": 0}, "perspective_c4_x": {"Points": [{"interpolation": 2, "co": {"X": 1.0, "Y": -1.0}}]}, "perspective_c2_x": {"Points": [{"interpolation": 2, "co": {"X": 1.0, "Y": -1.0}}]}, "time": {"Points": [{"interpolation": 2, "co": {"X": 1.0, "Y": 1.0}}]}, "crop_x": {"Points": [{"interpolation": 2, "co": {"X": 1.0, "Y": 0.0}}]}, "crop_height": {"Points": [{"interpolation": 2, "co": {"X": 1.0, "Y": -1.0}}]}, "crop_y": {"Points": [{"interpolation": 2, "co": {"X": 1.0, "Y": 0.0}}]}, "anchor": 0, "crop_width": {"Points": [{"interpolation": 2, "co": {"X": 1.0, "Y": -1.0}}]}, "perspective_c1_x": {"Points": [{"interpolation": 2, "co": {"X": 1.0, "Y": -1.0}}]}, "effects": [], "wave_color": {"alpha": {"Points": [{"handle_left": {"X": 0.5, "Y": 1.0}, "handle_type": 0, "interpolation": 0, "handle_right": {"X": 0.5, "Y": 0.0}, "co": {"X": 1.0, "Y": 255.0}}]}, "red": {"Points": [{"handle_left": {"X": 0.5, "Y": 1.0}, "handle_type": 0, "interpolation": 0, "handle_right": {"X": 0.5, "Y": 0.0}, "co": {"X": 1.0, "Y": 0.0}}]}, "green": {"Points": [{"handle_left": {"X": 0.5, "Y": 1.0}, "handle_type": 0, "interpolation": 0, "handle_right": {"X": 0.5, "Y": 0.0}, "co": {"X": 1.0, "Y": 123.0}}]}, "blue": {"Points": [{"handle_left": {"X": 0.5, "Y": 1.0}, "handle_type": 0, "interpolation": 0, "handle_right": {"X": 0.5, "Y": 0.0}, "co": {"X": 1.0, "Y": 255.0}}]}}, "title": "06-Create Progress Card Template.mkv", "perspective_c3_x": {"Points": [{"interpolation": 2, "co": {"X": 1.0, "Y": -1.0}}]}, "display": 0, "id": "AVMGYI71Z9", "location_x": {"Points": [{"interpolation": 2, "co": {"X": 1.0, "Y": 0.0}}]}, "gravity": 4, "rotation": {"Points": [{"interpolation": 2, "co": {"X": 1.0, "Y": 0.0}}]}, "shear_x": {"Points": [{"interpolation": 2, "co": {"X": 1.0, "Y": 0.0}}]}, "scale_y": {"Points": [{"interpolation": 2, "co": {"X": 1.0, "Y": 1.0}}]}, "scale_x": {"Points": [{"interpolation": 2, "co": {"X": 1.0, "Y": 1.0}}]}, "duration": 44.0, "layer": 5, "alpha": {"Points": [{"interpolation": 2, "co": {"X": 1.0, "Y": 1.0}}, {"handle_left": {"X": 0.5, "Y": 1.0}, "handle_type": 0, "interpolation": 0, "handle_right": {"X": 0.5, "Y": 0.0}, "co": {"X": 6.0, "Y": 0.0}}, {"handle_left": {"X": 0.5, "Y": 1.0}, "handle_type": 0, "interpolation": 0, "handle_right": {"X": 0.5, "Y": 0.0}, "co": {"X": 78.0, "Y": 1.0}}, {"handle_left": {"X": 0.5, "Y": 1.0}, "handle_type": 0, "interpolation": 0, "handle_right": {"X": 0.5, "Y": 0.0}, "co": {"X": 916.0, "Y": 1.0}}, {"handle_left": {"X": 0.5, "Y": 1.0}, "handle_type": 0, "interpolation": 0, "handle_right": {"X": 0.5, "Y": 0.0}, "co": {"X": 988.0, "Y": 0.0}}]}, "shear_y": {"Points": [{"interpolation": 2, "co": {"X": 1.0, "Y": 0.0}}]}, "channel_filter": {"Points": [{"interpolation": 2, "co": {"X": 1.0, "Y": -1.0}}]}, "position": 23.708333333333332, "has_video": {"Points": [{"interpolation": 2, "co": {"X": 1.0, "Y": -1.0}}]}}, "value": null, "type": "delete"}, {"key": ["clips"], "partial": false, "old_values": [{"location_y": {"Points": [{"interpolation": 2, "co": {"X": 1.0, "Y": 0.0}}]}, "scale": 1, "perspective_c1_y": {"Points": [{"interpolation": 2, "co": {"X": 1.0, "Y": -1.0}}]}, "has_audio": {"Points": [{"interpolation": 2, "co": {"X": 1.0, "Y": -1.0}}]}, "image": "/home/milind/.openshot_qt/thumbnail/RBDOM40FGQ.png", "file_id": "RBDOM40FGQ", "perspective_c3_y": {"Points": [{"interpolation": 2, "co": {"X": 1.0, "Y": -1.0}}]}, "volume": {"Points": [{"interpolation": 2, "co": {"X": 1.0, "Y": 1.0}}]}, "waveform": false, "channel_mapping": {"Points": [{"interpolation": 2, "co": {"X": 1.0, "Y": -1.0}}]}, "perspective_c4_y": {"Points": [{"interpolation": 2, "co": {"X": 1.0, "Y": -1.0}}]}, "start": 0.0, "perspective_c2_y": {"Points": [{"interpolation": 2, "co": {"X": 1.0, "Y": -1.0}}]}, "end": 10.0, "reader": {"channels": 0, "path": "/home/milind/Data/Projects/ProgressCard/Title-01.svg", "duration": 86400.0, "has_audio": false, "video_stream_index": -1, "channel_layout": 4, "vcodec": "", "audio_bit_rate": 0, "top_field_first": true, "has_video": true, "pixel_ratio": {"num": 1, "den": 1}, "height": 3827, "video_length": "2592000", "video_bit_rate": 0, "acodec": "", "sample_rate": 0, "file_size": "104140324", "pixel_format": -1, "fps": {"num": 30, "den": 1}, "video_timebase": {"num": 1, "den": 30}, "display_ratio": {"num": 6803, "den": 3827}, "width": 6803, "has_single_image": true, "audio_stream_index": -1, "type": "QtImageReader", "interlaced_frame": false, "audio_timebase": {"num": 1, "den": 1}}, "perspective_c4_x": {"Points": [{"interpolation": 2, "co": {"X": 1.0, "Y": -1.0}}]}, "perspective_c2_x": {"Points": [{"interpolation": 2, "co": {"X": 1.0, "Y": -1.0}}]}, "time": {"Points": [{"interpolation": 2, "co": {"X": 1.0, "Y": 1.0}}]}, "crop_x": {"Points": [{"interpolation": 2, "co": {"X": 1.0, "Y": 0.0}}]}, "crop_height": {"Points": [{"interpolation": 2, "co": {"X": 1.0, "Y": -1.0}}]}, "crop_y": {"Points": [{"interpolation": 2, "co": {"X": 1.0, "Y": 0.0}}]}, "anchor": 0, "crop_width": {"Points": [{"interpolation": 2, "co": {"X": 1.0, "Y": -1.0}}]}, "perspective_c1_x": {"Points": [{"interpolation": 2, "co": {"X": 1.0, "Y": -1.0}}]}, "effects": [], "wave_color": {"alpha": {"Points": [{"handle_left": {"X": 0.5, "Y": 1.0}, "handle_type": 0, "interpolation": 0, "handle_right": {"X": 0.5, "Y": 0.0}, "co": {"X": 1.0, "Y": 255.0}}]}, "red": {"Points": [{"handle_left": {"X": 0.5, "Y": 1.0}, "handle_type": 0, "interpolation": 0, "handle_right": {"X": 0.5, "Y": 0.0}, "co": {"X": 1.0, "Y": 0.0}}]}, "green": {"Points": [{"handle_left": {"X": 0.5, "Y": 1.0}, "handle_type": 0, "interpolation": 0, "handle_right": {"X": 0.5, "Y": 0.0}, "co": {"X": 1.0, "Y": 123.0}}]}, "blue": {"Points": [{"handle_left": {"X": 0.5, "Y": 1.0}, "handle_type": 0, "interpolation": 0, "handle_right": {"X": 0.5, "Y": 0.0}, "co": {"X": 1.0, "Y": 255.0}}]}}, "title": "Title-01.svg", "display": 0, "channel_filter": {"Points": [{"interpolation": 2, "co": {"X": 1.0, "Y": -1.0}}]}, "id": "B39BCXR0EX", "location_x": {"Points": [{"interpolation": 2, "co": {"X": 1.0, "Y": 0.0}}]}, "gravity": 4, "rotation": {"Points": [{"interpolation": 2, "co": {"X": 1.0, "Y": 0.0}}]}, "shear_x": {"Points": [{"interpolation": 2, "co": {"X": 1.0, "Y": 0.0}}]}, "scale_y": {"Points": [{"interpolation": 2, "co": {"X": 1.0, "Y": 1.0}}]}, "scale_x": {"Points": [{"interpolation": 2, "co": {"X": 1.0, "Y": 1.0}}]}, "duration": 86400.0, "layer": 3, "alpha": {"Points": [{"interpolation": 2, "co": {"X": 1.0, "Y": 1.0}}]}, "shear_y": {"Points": [{"interpolation": 2, "co": {"X": 1.0, "Y": 0.0}}]}, "perspective_c3_x": {"Points": [{"interpolation": 2, "co": {"X": 1.0, "Y": -1.0}}]}, "position": 44.58, "has_video": {"Points": [{"interpolation": 2, "co": {"X": 1.0, "Y": -1.0}}]}}, {"location_y": {"Points": [{"handle_left": {"X": 0.5, "Y": 1.0}, "handle_type": 0, "interpolation": 0, "handle_right": {"X": 0.5, "Y": 0.0}, "co": {"X": 1.0, "Y": 0.0}}, {"handle_left": {"X": 0.5, "Y": 1.0}, "handle_type": 0, "interpolation": 0, "handle_right": {"X": 0.5, "Y": 0.0}, "co": {"X": 1.0, "Y": 0.0}}, {"handle_left": {"X": 0.5, "Y": 1.0}, "handle_type": 0, "interpolation": 0, "handle_right": {"X": 0.5, "Y": 0.0}, "co": {"X": 25.0, "Y": 0.0}}]}, "scale": 1, "perspective_c1_y": {"Points": [{"interpolation": 2, "co": {"X": 1.0, "Y": -1.0}}]}, "has_audio": {"Points": [{"interpolation": 2, "co": {"X": 1.0, "Y": -1.0}}]}, "image": "/home/milind/.openshot_qt/thumbnail/RBDOM40FGQ.png", "file_id": "RBDOM40FGQ", "perspective_c3_y": {"Points": [{"interpolation": 2, "co": {"X": 1.0, "Y": -1.0}}]}, "volume": {"Points": [{"interpolation": 2, "co": {"X": 1.0, "Y": 1.0}}]}, "waveform": false, "channel_mapping": {"Points": [{"interpolation": 2, "co": {"X": 1.0, "Y": -1.0}}]}, "perspective_c4_y": {"Points": [{"interpolation": 2, "co": {"X": 1.0, "Y": -1.0}}]}, "start": 0, "perspective_c2_y": {"Points": [{"interpolation": 2, "co": {"X": 1.0, "Y": -1.0}}]}, "end": 5.891666666666666, "reader": {"channels": 0, "path": "/home/milind/Data/Projects/ProgressCard/Title-01.svg", "duration": 86400.0, "has_audio": false, "video_stream_index": -1, "channel_layout": 4, "vcodec": "", "audio_bit_rate": 0, "top_field_first": true, "has_video": true, "pixel_ratio": {"num": 1, "den": 1}, "height": 3827, "video_length": "2592000", "video_bit_rate": 0, "acodec": "", "sample_rate": 0, "file_size": "104140324", "pixel_format": -1, "fps": {"num": 30, "den": 1}, "video_timebase": {"num": 1, "den": 30}, "display_ratio": {"num": 6803, "den": 3827}, "width": 6803, "has_single_image": true, "audio_stream_index": -1, "type": "QtImageReader", "interlaced_frame": false, "audio_timebase": {"num": 1, "den": 1}}, "perspective_c4_x": {"Points": [{"interpolation": 2, "co": {"X": 1.0, "Y": -1.0}}]}, "perspective_c2_x": {"Points": [{"interpolation": 2, "co": {"X": 1.0, "Y": -1.0}}]}, "time": {"Points": [{"interpolation": 2, "co": {"X": 1.0, "Y": 1.0}}]}, "crop_x": {"Points": [{"interpolation": 2, "co": {"X": 1.0, "Y": 0.0}}]}, "crop_height": {"Points": [{"interpolation": 2, "co": {"X": 1.0, "Y": -1.0}}]}, "crop_y": {"Points": [{"interpolation": 2, "co": {"X": 1.0, "Y": 0.0}}]}, "anchor": 0, "crop_width": {"Points": [{"interpolation": 2, "co": {"X": 1.0, "Y": -1.0}}]}, "perspective_c1_x": {"Points": [{"interpolation": 2, "co": {"X": 1.0, "Y": -1.0}}]}, "effects": [], "wave_color": {"alpha": {"Points": [{"handle_left": {"X": 0.5, "Y": 1.0}, "handle_type": 0, "interpolation": 0, "handle_right": {"X": 0.5, "Y": 0.0}, "co": {"X": 1.0, "Y": 255.0}}]}, "red": {"Points": [{"handle_left": {"X": 0.5, "Y": 1.0}, "handle_type": 0, "interpolation": 0, "handle_right": {"X": 0.5, "Y": 0.0}, "co": {"X": 1.0, "Y": 0.0}}]}, "green": {"Points": [{"handle_left": {"X": 0.5, "Y": 1.0}, "handle_type": 0, "interpolation": 0, "handle_right": {"X": 0.5, "Y": 0.0}, "co": {"X": 1.0, "Y": 123.0}}]}, "blue": {"Points": [{"handle_left": {"X": 0.5, "Y": 1.0}, "handle_type": 0, "interpolation": 0, "handle_right": {"X": 0.5, "Y": 0.0}, "co": {"X": 1.0, "Y": 255.0}}]}}, "title": "Title-01.svg", "display": 0, "channel_filter": {"Points": [{"interpolation": 2, "co": {"X": 1.0, "Y": -1.0}}]}, "id": "RH0T0F5TSV", "location_x": {"Points": [{"handle_left": {"X": 0.5, "Y": 1.0}, "handle_type": 0, "interpolation": 0, "handle_right": {"X": 0.5, "Y": 0.0}, "co": {"X": 1.0, "Y": 0.0}}, {"handle_left": {"X": 0.5, "Y": 1.0}, "handle_type": 0, "interpolation": 0, "handle_right": {"X": 0.5, "Y": 0.0}, "co": {"X": 1.0, "Y": 1.0}}, {"handle_left": {"X": 0.5, "Y": 1.0}, "handle_type": 0, "interpolation": 0, "handle_right": {"X": 0.5, "Y": 0.0}, "co": {"X": 25.0, "Y": 0.0}}]}, "gravity": 4, "rotation": {"Points": [{"interpolation": 2, "co": {"X": 1.0, "Y": 0.0}}]}, "shear_x": {"Points": [{"interpolation": 2, "co": {"X": 1.0, "Y": 0.0}}]}, "scale_y": {"Points": [{"handle_left": {"X": 0.5, "Y": 1.0}, "handle_type": 0, "interpolation": 0, "handle_right": {"X": 0.5, "Y": 0.0}, "co": {"X": 1.0, "Y": 1.0}}]}, "scale_x": {"Points": [{"handle_left": {"X": 0.5, "Y": 1.0}, "handle_type": 0, "interpolation": 0, "handle_right": {"X": 0.5, "Y": 0.0}, "co": {"X": 1.0, "Y": 1.0}}]}, "duration": 86400.0, "layer": 0, "alpha": {"Points": [{"interpolation": 2, "co": {"X": 1.0, "Y": 1.0}}]}, "shear_y": {"Points": [{"interpolation": 2, "co": {"X": 1.0, "Y": 0.0}}]}, "perspective_c3_x": {"Points": [{"interpolation": 2, "co": {"X": 1.0, "Y": -1.0}}]}, "position": 2.4, "has_video": {"Points": [{"interpolation": 2, "co": {"X": 1.0, "Y": -1.0}}]}}, {"location_y": {"Points": [{"interpolation": 2, "co": {"X": 1.0, "Y": 0.0}}, {"handle_left": {"X": 0.5, "Y": 1.0}, "handle_type": 0, "interpolation": 0, "handle_right": {"X": 0.5, "Y": 0.0}, "co": {"X": 1.0, "Y": 0.0}}, {"handle_left": {"X": 0.5, "Y": 1.0}, "handle_type": 0, "interpolation": 0, "handle_right": {"X": 0.5, "Y": 0.0}, "co": {"X": 25.0, "Y": 0.0}}]}, "scale": 1, "perspective_c1_y": {"Points": [{"interpolation": 2, "co": {"X": 1.0, "Y": -1.0}}]}, "has_audio": {"Points": [{"interpolation": 2, "co": {"X": 1.0, "Y": -1.0}}]}, "image": "/home/milind/.openshot_qt/thumbnail/5QW60D58CB.png", "file_id": "5QW60D58CB", "perspective_c3_y": {"Points": [{"interpolation": 2, "co": {"X": 1.0, "Y": -1.0}}]}, "volume": {"Points": [{"interpolation": 2, "co": {"X": 1.0, "Y": 1.0}}]}, "waveform": false, "channel_mapping": {"Points": [{"interpolation": 2, "co": {"X": 1.0, "Y": -1.0}}]}, "perspective_c4_y": {"Points": [{"interpolation": 2, "co": {"X": 1.0, "Y": -1.0}}]}, "start": 0, "perspective_c2_y": {"Points": [{"interpolation": 2, "co": {"X": 1.0, "Y": -1.0}}]}, "end": 4.661666666666666, "reader": {"channels": 0, "path": "/home/milind/Data/Projects/ProgressCard/Title-02.svg", "duration": 86400.0, "has_audio": false, "video_stream_index": -1, "channel_layout": 4, "vcodec": "", "audio_bit_rate": 0, "top_field_first": true, "has_video": true, "pixel_ratio": {"num": 1, "den": 1}, "height": 3827, "video_length": "2592000", "video_bit_rate": 0, "acodec": "", "sample_rate": 0, "file_size": "104140324", "pixel_format": -1, "fps": {"num": 30, "den": 1}, "video_timebase": {"num": 1, "den": 30}, "display_ratio": {"num": 6803, "den": 3827}, "width": 6803, "has_single_image": true, "audio_stream_index": -1, "type": "QtImageReader", "interlaced_frame": false, "audio_timebase": {"num": 1, "den": 1}}, "perspective_c4_x": {"Points": [{"interpolation": 2, "co": {"X": 1.0, "Y": -1.0}}]}, "perspective_c2_x": {"Points": [{"interpolation": 2, "co": {"X": 1.0, "Y": -1.0}}]}, "time": {"Points": [{"interpolation": 2, "co": {"X": 1.0, "Y": 1.0}}]}, "crop_x": {"Points": [{"interpolation": 2, "co": {"X": 1.0, "Y": 0.0}}]}, "crop_height": {"Points": [{"interpolation": 2, "co": {"X": 1.0, "Y": -1.0}}]}, "crop_y": {"Points": [{"interpolation": 2, "co": {"X": 1.0, "Y": 0.0}}]}, "anchor": 0, "crop_width": {"Points": [{"interpolation": 2, "co": {"X": 1.0, "Y": -1.0}}]}, "perspective_c1_x": {"Points": [{"interpolation": 2, "co": {"X": 1.0, "Y": -1.0}}]}, "effects": [], "wave_color": {"alpha": {"Points": [{"handle_left": {"X": 0.5, "Y": 1.0}, "handle_type": 0, "interpolation": 0, "handle_right": {"X": 0.5, "Y": 0.0}, "co": {"X": 1.0, "Y": 255.0}}]}, "red": {"Points": [{"handle_left": {"X": 0.5, "Y": 1.0}, "handle_type": 0, "interpolation": 0, "handle_right": {"X": 0.5, "Y": 0.0}, "co": {"X": 1.0, "Y": 0.0}}]}, "green": {"Points": [{"handle_left": {"X": 0.5, "Y": 1.0}, "handle_type": 0, "interpolation": 0, "handle_right": {"X": 0.5, "Y": 0.0}, "co": {"X": 1.0, "Y": 123.0}}]}, "blue": {"Points": [{"handle_left": {"X": 0.5, "Y": 1.0}, "handle_type": 0, "interpolation": 0, "handle_right": {"X": 0.5, "Y": 0.0}, "co": {"X": 1.0, "Y": 255.0}}]}}, "title": "Title-02.svg", "display": 0, "channel_filter": {"Points": [{"interpolation": 2, "co": {"X": 1.0, "Y": -1.0}}]}, "id": "3OCKSFXMGL", "location_x": {"Points": [{"interpolation": 2, "co": {"X": 1.0, "Y": 0.0}}, {"handle_left": {"X": 0.5, "Y": 1.0}, "handle_type": 0, "interpolation": 0, "handle_right": {"X": 0.5, "Y": 0.0}, "co": {"X": 1.0, "Y": 1.0}}, {"handle_left": {"X": 0.5, "Y": 1.0}, "handle_type": 0, "interpolation": 0, "handle_right": {"X": 0.5, "Y": 0.0}, "co": {"X": 25.0, "Y": 0.0}}]}, "gravity": 4, "rotation": {"Points": [{"interpolation": 2, "co": {"X": 1.0, "Y": 0.0}}]}, "shear_x": {"Points": [{"interpolation": 2, "co": {"X": 1.0, "Y": 0.0}}]}, "scale_y": {"Points": [{"interpolation": 2, "co": {"X": 1.0, "Y": 1.0}}]}, "scale_x": {"Points": [{"interpolation": 2, "co": {"X": 1.0, "Y": 1.0}}]}, "duration": 86400.0, "layer": 1, "alpha": {"Points": [{"interpolation": 2, "co": {"X": 1.0, "Y": 1.0}}]}, "shear_y": {"Points": [{"interpolation": 2, "co": {"X": 1.0, "Y": 0.0}}]}, "perspective_c3_x": {"Points": [{"interpolation": 2, "co": {"X": 1.0, "Y": -1.0}}]}, "position": 3.63, "has_video": {"Points": [{"interpolation": 2, "co": {"X": 1.0, "Y": -1.0}}]}}, {"location_y": {"Points": [{"interpolation": 2, "co": {"X": 1.0, "Y": 0.0}}, {"handle_left": {"X": 0.5, "Y": 1.0}, "handle_type": 0, "interpolation": 0, "handle_right": {"X": 0.5, "Y": 0.0}, "co": {"X": 1.0, "Y": 0.0}}, {"handle_left": {"X": 0.5, "Y": 1.0}, "handle_type": 0, "interpolation": 0, "handle_right": {"X": 0.5, "Y": 0.0}, "co": {"X": 25.0, "Y": 0.0}}]}, "scale": 1, "perspective_c1_y": {"Points": [{"interpolation": 2, "co": {"X": 1.0, "Y": -1.0}}]}, "has_audio": {"Points": [{"interpolation": 2, "co": {"X": 1.0, "Y": -1.0}}]}, "image": "/home/milind/.openshot_qt/thumbnail/1UGFFUXPZG.png", "file_id": "1UGFFUXPZG", "perspective_c3_y": {"Points": [{"interpolation": 2, "co": {"X": 1.0, "Y": -1.0}}]}, "volume": {"Points": [{"interpolation": 2, "co": {"X": 1.0, "Y": 1.0}}]}, "waveform": false, "channel_mapping": {"Points": [{"interpolation": 2, "co": {"X": 1.0, "Y": -1.0}}]}, "perspective_c4_y": {"Points": [{"interpolation": 2, "co": {"X": 1.0, "Y": -1.0}}]}, "start": 0, "perspective_c2_y": {"Points": [{"interpolation": 2, "co": {"X": 1.0, "Y": -1.0}}]}, "end": 3.3116666666666665, "reader": {"channels": 0, "path": "/home/milind/Data/Projects/ProgressCard/Title-03.svg", "duration": 86400.0, "has_audio": false, "video_stream_index": -1, "channel_layout": 4, "vcodec": "", "audio_bit_rate": 0, "top_field_first": true, "has_video": true, "pixel_ratio": {"num": 1, "den": 1}, "height": 3827, "video_length": "2592000", "video_bit_rate": 0, "acodec": "", "sample_rate": 0, "file_size": "104140324", "pixel_format": -1, "fps": {"num": 30, "den": 1}, "video_timebase": {"num": 1, "den": 30}, "display_ratio": {"num": 6803, "den": 3827}, "width": 6803, "has_single_image": true, "audio_stream_index": -1, "type": "QtImageReader", "interlaced_frame": false, "audio_timebase": {"num": 1, "den": 1}}, "perspective_c4_x": {"Points": [{"interpolation": 2, "co": {"X": 1.0, "Y": -1.0}}]}, "perspective_c2_x": {"Points": [{"interpolation": 2, "co": {"X": 1.0, "Y": -1.0}}]}, "time": {"Points": [{"interpolation": 2, "co": {"X": 1.0, "Y": 1.0}}]}, "crop_x": {"Points": [{"interpolation": 2, "co": {"X": 1.0, "Y": 0.0}}]}, "crop_height": {"Points": [{"interpolation": 2, "co": {"X": 1.0, "Y": -1.0}}]}, "crop_y": {"Points": [{"interpolation": 2, "co": {"X": 1.0, "Y": 0.0}}]}, "anchor": 0, "crop_width": {"Points": [{"interpolation": 2, "co": {"X": 1.0, "Y": -1.0}}]}, "perspective_c1_x": {"Points": [{"interpolation": 2, "co": {"X": 1.0, "Y": -1.0}}]}, "effects": [], "wave_color": {"alpha": {"Points": [{"handle_left": {"X": 0.5, "Y": 1.0}, "handle_type": 0, "interpolation": 0, "handle_right": {"X": 0.5, "Y": 0.0}, "co": {"X": 1.0, "Y": 255.0}}]}, "red": {"Points": [{"handle_left": {"X": 0.5, "Y": 1.0}, "handle_type": 0, "interpolation": 0, "handle_right": {"X": 0.5, "Y": 0.0}, "co": {"X": 1.0, "Y": 0.0}}]}, "green": {"Points": [{"handle_left": {"X": 0.5, "Y": 1.0}, "handle_type": 0, "interpolation": 0, "handle_right": {"X": 0.5, "Y": 0.0}, "co": {"X": 1.0, "Y": 123.0}}]}, "blue": {"Points": [{"handle_left": {"X": 0.5, "Y": 1.0}, "handle_type": 0, "interpolation": 0, "handle_right": {"X": 0.5, "Y": 0.0}, "co": {"X": 1.0, "Y": 255.0}}]}}, "title": "Title-03.svg", "display": 0, "channel_filter": {"Points": [{"interpolation": 2, "co": {"X": 1.0, "Y": -1.0}}]}, "id": "DRRWM84D3O", "location_x": {"Points": [{"interpolation": 2, "co": {"X": 1.0, "Y": 0.0}}, {"handle_left": {"X": 0.5, "Y": 1.0}, "handle_type": 0, "interpolation": 0, "handle_right": {"X": 0.5, "Y": 0.0}, "co": {"X": 1.0, "Y": 1.0}}, {"handle_left": {"X": 0.5, "Y": 1.0}, "handle_type": 0, "interpolation": 0, "handle_right": {"X": 0.5, "Y": 0.0}, "co": {"X": 25.0, "Y": 0.0}}]}, "gravity": 4, "rotation": {"Points": [{"interpolation": 2, "co": {"X": 1.0, "Y": 0.0}}]}, "shear_x": {"Points": [{"interpolation": 2, "co": {"X": 1.0, "Y": 0.0}}]}, "scale_y": {"Points": [{"interpolation": 2, "co": {"X": 1.0, "Y": 1.0}}]}, "scale_x": {"Points": [{"interpolation": 2, "co": {"X": 1.0, "Y": 1.0}}]}, "duration": 86400.0, "layer": 2, "alpha": {"Points": [{"interpolation": 2, "co": {"X": 1.0, "Y": 1.0}}]}, "shear_y": {"Points": [{"interpolation": 2, "co": {"X": 1.0, "Y": 0.0}}]}, "perspective_c3_x": {"Points": [{"interpolation": 2, "co": {"X": 1.0, "Y": -1.0}}]}, "position": 4.9799999999999995, "has_video": {"Points": [{"interpolation": 2, "co": {"X": 1.0, "Y": -1.0}}]}}, {"location_y": {"Points": [{"interpolation": 2, "co": {"X": 1.0, "Y": 0.0}}, {"handle_left": {"X": 0.5, "Y": 1.0}, "handle_type": 0, "interpolation": 0, "handle_right": {"X": 0.5, "Y": 0.0}, "co": {"X": 1.0, "Y": 0.0}}, {"handle_left": {"X": 0.5, "Y": 1.0}, "handle_type": 0, "interpolation": 0, "handle_right": {"X": 0.5, "Y": 0.0}, "co": {"X": 25.0, "Y": 0.0}}]}, "scale": 1, "perspective_c1_y": {"Points": [{"interpolation": 2, "co": {"X": 1.0, "Y": -1.0}}]}, "has_audio": {"Points": [{"interpolation": 2, "co": {"X": 1.0, "Y": -1.0}}]}, "image": "/home/milind/.openshot_qt/thumbnail/6B6X3SW6U5.png", "file_id": "6B6X3SW6U5", "perspective_c3_y": {"Points": [{"interpolation": 2, "co": {"X": 1.0, "Y": -1.0}}]}, "volume": {"Points": [{"interpolation": 2, "co": {"X": 1.0, "Y": 1.0}}]}, "waveform": false, "channel_mapping": {"Points": [{"interpolation": 2, "co": {"X": 1.0, "Y": -1.0}}]}, "perspective_c4_y": {"Points": [{"interpolation": 2, "co": {"X": 1.0, "Y": -1.0}}]}, "start": 0, "perspective_c2_y": {"Points": [{"interpolation": 2, "co": {"X": 1.0, "Y": -1.0}}]}, "end": 2.0216666666666665, "reader": {"channels": 0, "path": "/home/milind/Data/Projects/ProgressCard/Title-04.svg", "duration": 86400.0, "has_audio": false, "video_stream_index": -1, "channel_layout": 4, "vcodec": "", "audio_bit_rate": 0, "top_field_first": true, "has_video": true, "pixel_ratio": {"num": 1, "den": 1}, "height": 3827, "video_length": "2592000", "video_bit_rate": 0, "acodec": "", "sample_rate": 0, "file_size": "104140324", "pixel_format": -1, "fps": {"num": 30, "den": 1}, "video_timebase": {"num": 1, "den": 30}, "display_ratio": {"num": 6803, "den": 3827}, "width": 6803, "has_single_image": true, "audio_stream_index": -1, "type": "QtImageReader", "interlaced_frame": false, "audio_timebase": {"num": 1, "den": 1}}, "perspective_c4_x": {"Points": [{"interpolation": 2, "co": {"X": 1.0, "Y": -1.0}}]}, "perspective_c2_x": {"Points": [{"interpolation": 2, "co": {"X": 1.0, "Y": -1.0}}]}, "time": {"Points": [{"interpolation": 2, "co": {"X": 1.0, "Y": 1.0}}]}, "crop_x": {"Points": [{"interpolation": 2, "co": {"X": 1.0, "Y": 0.0}}]}, "crop_height": {"Points": [{"interpolation": 2, "co": {"X": 1.0, "Y": -1.0}}]}, "crop_y": {"Points": [{"interpolation": 2, "co": {"X": 1.0, "Y": 0.0}}]}, "anchor": 0, "crop_width": {"Points": [{"interpolation": 2, "co": {"X": 1.0, "Y": -1.0}}]}, "perspective_c1_x": {"Points": [{"interpolation": 2, "co": {"X": 1.0, "Y": -1.0}}]}, "effects": [], "wave_color": {"alpha": {"Points": [{"handle_left": {"X": 0.5, "Y": 1.0}, "handle_type": 0, "interpolation": 0, "handle_right": {"X": 0.5, "Y": 0.0}, "co": {"X": 1.0, "Y": 255.0}}]}, "red": {"Points": [{"handle_left": {"X": 0.5, "Y": 1.0}, "handle_type": 0, "interpolation": 0, "handle_right": {"X": 0.5, "Y": 0.0}, "co": {"X": 1.0, "Y": 0.0}}]}, "green": {"Points": [{"handle_left": {"X": 0.5, "Y": 1.0}, "handle_type": 0, "interpolation": 0, "handle_right": {"X": 0.5, "Y": 0.0}, "co": {"X": 1.0, "Y": 123.0}}]}, "blue": {"Points": [{"handle_left": {"X": 0.5, "Y": 1.0}, "handle_type": 0, "interpolation": 0, "handle_right": {"X": 0.5, "Y": 0.0}, "co": {"X": 1.0, "Y": 255.0}}]}}, "title": "Title-04.svg", "display": 0, "channel_filter": {"Points": [{"interpolation": 2, "co": {"X": 1.0, "Y": -1.0}}]}, "id": "173ASVPEMX", "location_x": {"Points": [{"interpolation": 2, "co": {"X": 1.0, "Y": 0.0}}, {"handle_left": {"X": 0.5, "Y": 1.0}, "handle_type": 0, "interpolation": 0, "handle_right": {"X": 0.5, "Y": 0.0}, "co": {"X": 1.0, "Y": 1.0}}, {"handle_left": {"X": 0.5, "Y": 1.0}, "handle_type": 0, "interpolation": 0, "handle_right": {"X": 0.5, "Y": 0.0}, "co": {"X": 25.0, "Y": 0.0}}]}, "gravity": 4, "rotation": {"Points": [{"interpolation": 2, "co": {"X": 1.0, "Y": 0.0}}]}, "shear_x": {"Points": [{"interpolation": 2, "co": {"X": 1.0, "Y": 0.0}}]}, "scale_y": {"Points": [{"interpolation": 2, "co": {"X": 1.0, "Y": 1.0}}]}, "scale_x": {"Points": [{"interpolation": 2, "co": {"X": 1.0, "Y": 1.0}}]}, "duration": 86400.0, "layer": 3, "alpha": {"Points": [{"interpolation": 2, "co": {"X": 1.0, "Y": 1.0}}]}, "shear_y": {"Points": [{"interpolation": 2, "co": {"X": 1.0, "Y": 0.0}}]}, "perspective_c3_x": {"Points": [{"interpolation": 2, "co": {"X": 1.0, "Y": -1.0}}]}, "position": 6.27, "has_video": {"Points": [{"interpolation": 2, "co": {"X": 1.0, "Y": -1.0}}]}}, {"location_y": {"Points": [{"interpolation": 2, "co": {"X": 1.0, "Y": 0.0}}, {"handle_left": {"X": 0.5, "Y": 1.0}, "handle_type": 0, "interpolation": 0, "handle_right": {"X": 0.5, "Y": 0.0}, "co": {"X": 150.0, "Y": 0.0}}, {"handle_left": {"X": 0.5, "Y": 1.0}, "handle_type": 0, "interpolation": 0, "handle_right": {"X": 0.5, "Y": 0.0}, "co": {"X": 174.0, "Y": 0.0}}]}, "scale": 1, "perspective_c1_y": {"Points": [{"interpolation": 2, "co": {"X": 1.0, "Y": -1.0}}]}, "has_audio": {"Points": [{"interpolation": 2, "co": {"X": 1.0, "Y": -1.0}}]}, "image": "/home/milind/.openshot_qt/thumbnail/AR5E0JZFG5.png", "file_id": "AR5E0JZFG5", "perspective_c3_y": {"Points": [{"interpolation": 2, "co": {"X": 1.0, "Y": -1.0}}]}, "volume": {"Points": [{"interpolation": 2, "co": {"X": 1.0, "Y": 1.0}}]}, "waveform": false, "channel_mapping": {"Points": [{"interpolation": 2, "co": {"X": 1.0, "Y": -1.0}}]}, "perspective_c4_y": {"Points": [{"interpolation": 2, "co": {"X": 1.0, "Y": -1.0}}]}, "start": 0, "perspective_c2_y": {"Points": [{"interpolation": 2, "co": {"X": 1.0, "Y": -1.0}}]}, "end": 7.220000000000001, "reader": {"channels": 0, "path": "/home/milind/Data/Projects/ProgressCard/Title-05-All Four Titles.svg", "duration": 86400.0, "has_audio": false, "video_stream_index": -1, "channel_layout": 4, "vcodec": "", "has_video": true, "pixel_ratio": {"num": 1, "den": 1}, "height": 3827, "video_length": "2592000", "video_bit_rate": 0, "acodec": "", "sample_rate": 0, "file_size": "104140324", "pixel_format": -1, "display_ratio": {"num": 6803, "den": 3827}, "fps": {"num": 30, "den": 1}, "video_timebase": {"num": 1, "den": 30}, "top_field_first": true, "width": 6803, "has_single_image": true, "audio_stream_index": -1, "type": "QtImageReader", "audio_timebase": {"num": 1, "den": 1}, "interlaced_frame": false, "audio_bit_rate": 0}, "perspective_c4_x": {"Points": [{"interpolation": 2, "co": {"X": 1.0, "Y": -1.0}}]}, "perspective_c2_x": {"Points": [{"interpolation": 2, "co": {"X": 1.0, "Y": -1.0}}]}, "time": {"Points": [{"interpolation": 2, "co": {"X": 1.0, "Y": 1.0}}]}, "crop_x": {"Points": [{"interpolation": 2, "co": {"X": 1.0, "Y": 0.0}}]}, "crop_height": {"Points": [{"interpolation": 2, "co": {"X": 1.0, "Y": -1.0}}]}, "crop_y": {"Points": [{"interpolation": 2, "co": {"X": 1.0, "Y": 0.0}}]}, "anchor": 0, "crop_width": {"Points": [{"interpolation": 2, "co": {"X": 1.0, "Y": -1.0}}]}, "perspective_c1_x": {"Points": [{"interpolation": 2, "co": {"X": 1.0, "Y": -1.0}}]}, "effects": [], "wave_color": {"alpha": {"Points": [{"handle_left": {"X": 0.5, "Y": 1.0}, "handle_type": 0, "interpolation": 0, "handle_right": {"X": 0.5, "Y": 0.0}, "co": {"X": 1.0, "Y": 255.0}}]}, "red": {"Points": [{"handle_left": {"X": 0.5, "Y": 1.0}, "handle_type": 0, "interpolation": 0, "handle_right": {"X": 0.5, "Y": 0.0}, "co": {"X": 1.0, "Y": 0.0}}]}, "green": {"Points": [{"handle_left": {"X": 0.5, "Y": 1.0}, "handle_type": 0, "interpolation": 0, "handle_right": {"X": 0.5, "Y": 0.0}, "co": {"X": 1.0, "Y": 123.0}}]}, "blue": {"Points": [{"handle_left": {"X": 0.5, "Y": 1.0}, "handle_type": 0, "interpolation": 0, "handle_right": {"X": 0.5, "Y": 0.0}, "co": {"X": 1.0, "Y": 255.0}}]}}, "title": "Title-05-All Four Titles.svg", "display": 0, "channel_filter": {"Points": [{"interpolation": 2, "co": {"X": 1.0, "Y": -1.0}}]}, "id": "UTVCSP6ZNL", "location_x": {"Points": [{"interpolation": 2, "co": {"X": 1.0, "Y": 0.0}}, {"handle_left": {"X": 0.5, "Y": 1.0}, "handle_type": 0, "interpolation": 0, "handle_right": {"X": 0.5, "Y": 0.0}, "co": {"X": 150.0, "Y": 0.0}}, {"handle_left": {"X": 0.5, "Y": 1.0}, "handle_type": 0, "interpolation": 0, "handle_right": {"X": 0.5, "Y": 0.0}, "co": {"X": 174.0, "Y": -1.0}}]}, "gravity": 4, "rotation": {"Points": [{"interpolation": 2, "co": {"X": 1.0, "Y": 0.0}}]}, "shear_x": {"Points": [{"interpolation": 2, "co": {"X": 1.0, "Y": 0.0}}]}, "scale_y": {"Points": [{"interpolation": 2, "co": {"X": 1.0, "Y": 1.0}}]}, "scale_x": {"Points": [{"interpolation": 2, "co": {"X": 1.0, "Y": 1.0}}]}, "duration": 86400.0, "layer": 4, "alpha": {"Points": [{"interpolation": 2, "co": {"X": 1.0, "Y": 1.0}}]}, "shear_y": {"Points": [{"interpolation": 2, "co": {"X": 1.0, "Y": 0.0}}]}, "perspective_c3_x": {"Points": [{"interpolation": 2, "co": {"X": 1.0, "Y": -1.0}}]}, "position": 7.529999999999999, "has_video": {"Points": [{"interpolation": 2, "co": {"X": 1.0, "Y": -1.0}}]}}, {"location_y": {"Points": [{"handle_left": {"X": 0.5, "Y": 1.0}, "handle_type": 0, "interpolation": 0, "handle_right": {"X": 0.5, "Y": 0.0}, "co": {"X": 1.0, "Y": 0.0}}, {"handle_left": {"X": 0.5, "Y": 1.0}, "handle_type": 0, "interpolation": 0, "handle_right": {"X": 0.5, "Y": 0.0}, "co": {"X": 1.0, "Y": 0.0}}, {"handle_left": {"X": 0.5, "Y": 1.0}, "handle_type": 0, "interpolation": 0, "handle_right": {"X": 0.5, "Y": 0.0}, "co": {"X": 25.0, "Y": 0.0}}, {"handle_left": {"X": 0.5, "Y": 1.0}, "handle_type": 0, "interpolation": 0, "handle_right": {"X": 0.5, "Y": 0.0}, "co": {"X": 217.0, "Y": 0.0}}, {"handle_left": {"X": 0.5, "Y": 1.0}, "handle_type": 0, "interpolation": 0, "handle_right": {"X": 0.5, "Y": 0.0}, "co": {"X": 241.0, "Y": 0.0}}, {"handle_left": {"X": 0.5, "Y": 1.0}, "handle_type": 0, "interpolation": 0, "handle_right": {"X": 0.5, "Y": 0.0}, "co": {"X": 153.0, "Y": 0.0}}, {"handle_left": {"X": 0.5, "Y": 1.0}, "handle_type": 0, "interpolation": 0, "handle_right": {"X": 0.5, "Y": 0.0}, "co": {"X": 177.0, "Y": 0.0}}]}, "scale": 1, "perspective_c1_y": {"Points": [{"interpolation": 2, "co": {"X": 1.0, "Y": -1.0}}]}, "has_audio": {"Points": [{"interpolation": 2, "co": {"X": 1.0, "Y": -1.0}}]}, "image": "/home/milind/.openshot_qt/thumbnail/EYET6E4WCX.png", "file_id": "EYET6E4WCX", "perspective_c3_y": {"Points": [{"interpolation": 2, "co": {"X": 1.0, "Y": -1.0}}]}, "volume": {"Points": [{"interpolation": 2, "co": {"X": 1.0, "Y": 1.0}}]}, "waveform": false, "channel_mapping": {"Points": [{"interpolation": 2, "co": {"X": 1.0, "Y": -1.0}}]}, "perspective_c4_y": {"Points": [{"interpolation": 2, "co": {"X": 1.0, "Y": -1.0}}]}, "start": 0, "perspective_c2_y": {"Points": [{"interpolation": 2, "co": {"X": 1.0, "Y": -1.0}}]}, "end": 7.348333333333333, "reader": {"channels": 0, "path": "/home/milind/Data/Projects/ProgressCard/intro.png", "duration": 86400.0, "has_audio": false, "video_stream_index": -1, "channel_layout": 4, "vcodec": "", "has_video": true, "pixel_ratio": {"num": 1, "den": 1}, "height": 169, "video_length": "2592000", "video_bit_rate": 0, "acodec": "", "sample_rate": 0, "file_size": "446836", "pixel_format": -1, "display_ratio": {"num": 661, "den": 169}, "fps": {"num": 30, "den": 1}, "video_timebase": {"num": 1, "den": 30}, "top_field_first": true, "width": 661, "has_single_image": true, "audio_stream_index": -1, "type": "QtImageReader", "audio_timebase": {"num": 1, "den": 1}, "interlaced_frame": false, "audio_bit_rate": 0}, "perspective_c4_x": {"Points": [{"interpolation": 2, "co": {"X": 1.0, "Y": -1.0}}]}, "perspective_c2_x": {"Points": [{"interpolation": 2, "co": {"X": 1.0, "Y": -1.0}}]}, "time": {"Points": [{"interpolation": 2, "co": {"X": 1.0, "Y": 1.0}}]}, "crop_x": {"Points": [{"interpolation": 2, "co": {"X": 1.0, "Y": 0.0}}]}, "crop_height": {"Points": [{"interpolation": 2, "co": {"X": 1.0, "Y": -1.0}}]}, "crop_y": {"Points": [{"interpolation": 2, "co": {"X": 1.0, "Y": 0.0}}]}, "anchor": 0, "crop_width": {"Points": [{"interpolation": 2, "co": {"X": 1.0, "Y": -1.0}}]}, "perspective_c1_x": {"Points": [{"interpolation": 2, "co": {"X": 1.0, "Y": -1.0}}]}, "effects": [], "wave_color": {"alpha": {"Points": [{"handle_left": {"X": 0.5, "Y": 1.0}, "handle_type": 0, "interpolation": 0, "handle_right": {"X": 0.5, "Y": 0.0}, "co": {"X": 1.0, "Y": 255.0}}]}, "red": {"Points": [{"handle_left": {"X": 0.5, "Y": 1.0}, "handle_type": 0, "interpolation": 0, "handle_right": {"X": 0.5, "Y": 0.0}, "co": {"X": 1.0, "Y": 0.0}}]}, "green": {"Points": [{"handle_left": {"X": 0.5, "Y": 1.0}, "handle_type": 0, "interpolation": 0, "handle_right": {"X": 0.5, "Y": 0.0}, "co": {"X": 1.0, "Y": 123.0}}]}, "blue": {"Points": [{"handle_left": {"X": 0.5, "Y": 1.0}, "handle_type": 0, "interpolation": 0, "handle_right": {"X": 0.5, "Y": 0.0}, "co": {"X": 1.0, "Y": 255.0}}]}}, "title": "intro.png", "display": 0, "channel_filter": {"Points": [{"interpolation": 2, "co": {"X": 1.0, "Y": -1.0}}]}, "id": "QRWUU8C5AG", "location_x": {"Points": [{"handle_left": {"X": 0.5, "Y": 1.0}, "handle_type": 0, "interpolation": 0, "handle_right": {"X": 0.5, "Y": 0.0}, "co": {"X": 1.0, "Y": 0.0}}, {"handle_left": {"X": 0.5, "Y": 1.0}, "handle_type": 0, "interpolation": 0, "handle_right": {"X": 0.5, "Y": 0.0}, "co": {"X": 1.0, "Y": 1.0}}, {"handle_left": {"X": 0.5, "Y": 1.0}, "handle_type": 0, "interpolation": 0, "handle_right": {"X": 0.5, "Y": 0.0}, "co": {"X": 25.0, "Y": 0.0}}, {"handle_left": {"X": 0.5, "Y": 1.0}, "handle_type": 0, "interpolation": 0, "handle_right": {"X": 0.5, "Y": 0.0}, "co": {"X": 217.0, "Y": 0.0}}, {"handle_left": {"X": 0.5, "Y": 1.0}, "handle_type": 0, "interpolation": 0, "handle_right": {"X": 0.5, "Y": 0.0}, "co": {"X": 241.0, "Y": -1.0}}, {"handle_left": {"X": 0.5, "Y": 1.0}, "handle_type": 0, "interpolation": 0, "handle_right": {"X": 0.5, "Y": 0.0}, "co": {"X": 153.0, "Y": 0.0}}, {"handle_left": {"X": 0.5, "Y": 1.0}, "handle_type": 0, "interpolation": 0, "handle_right": {"X": 0.5, "Y": 0.0}, "co": {"X": 177.0, "Y": -1.0}}]}, "gravity": 4, "rotation": {"Points": [{"interpolation": 2, "co": {"X": 1.0, "Y": 0.0}}]}, "shear_x": {"Points": [{"interpolation": 2, "co": {"X": 1.0, "Y": 0.0}}]}, "scale_y": {"Points": [{"handle_left": {"X": 0.5, "Y": 1.0}, "handle_type": 0, "interpolation": 0, "handle_right": {"X": 0.5, "Y": 0.0}, "co": {"X": 1.0, "Y": 1.0}}]}, "scale_x": {"Points": [{"handle_left": {"X": 0.5, "Y": 1.0}, "handle_type": 0, "interpolation": 0, "handle_right": {"X": 0.5, "Y": 0.0}, "co": {"X": 1.0, "Y": 1.0}}]}, "duration": 86400.0, "layer": 5, "alpha": {"Points": [{"interpolation": 2, "co": {"X": 1.0, "Y": 1.0}}]}, "shear_y": {"Points": [{"interpolation": 2, "co": {"X": 1.0, "Y": 0.0}}]}, "perspective_c3_x": {"Points": [{"interpolation": 2, "co": {"X": 1.0, "Y": -1.0}}]}, "position": 15.36, "has_video": {"Points": [{"interpolation": 2, "co": {"X": 1.0, "Y": -1.0}}]}}], "value": {"location_y": {"Points": [{"interpolation": 2, "co": {"X": 1.0, "Y": 0.0}}, {"interpolation": 1, "co": {"X": 803, "Y": -0.3199999928474426}}, {"interpolation": 1, "co": {"X": 1057, "Y": 0.0}}]}, "scale": 1, "perspective_c1_y": {"Points": [{"interpolation": 2, "co": {"X": 1.0, "Y": -1.0}}]}, "has_audio": {"Points": [{"interpolation": 2, "co": {"X": 1.0, "Y": -1.0}}]}, "image": "/home/milind/.openshot_qt/thumbnail/XQEQ903ILK.png", "file_id": "XQEQ903ILK", "perspective_c3_y": {"Points": [{"interpolation": 2, "co": {"X": 1.0, "Y": -1.0}}]}, "volume": {"Points": [{"interpolation": 2, "co": {"X": 1.0, "Y": 1.0}}]}, "waveform": false, "channel_mapping": {"Points": [{"interpolation": 2, "co": {"X": 1.0, "Y": -1.0}}]}, "perspective_c4_y": {"Points": [{"interpolation": 2, "co": {"X": 1.0, "Y": -1.0}}]}, "start": 0, "perspective_c2_y": {"Points": [{"interpolation": 2, "co": {"X": 1.0, "Y": -1.0}}]}, "end": 42.258333333333326, "reader": {"channels": 0, "path": "/home/milind/Data/Projects/ProgressCard/06-Create Progress Card Template.mkv", "duration": 44.0, "has_audio": false, "video_stream_index": 0, "channel_layout": 4, "vcodec": "h264", "has_video": true, "pixel_ratio": {"num": 1, "den": 1}, "height": 768, "video_length": "1100", "file_size": "394038", "acodec": "", "sample_rate": 0, "video_bit_rate": 0, "pixel_format": 0, "display_ratio": {"num": 683, "den": 384}, "fps": {"num": 25, "den": 1}, "video_timebase": {"num": 1, "den": 1000}, "top_field_first": true, "width": 1366, "has_single_image": false, "audio_stream_index": -1, "type": "FFmpegReader", "audio_timebase": {"num": 1, "den": 1}, "interlaced_frame": false, "audio_bit_rate": 0}, "perspective_c4_x": {"Points": [{"interpolation": 2, "co": {"X": 1.0, "Y": -1.0}}]}, "perspective_c2_x": {"Points": [{"interpolation": 2, "co": {"X": 1.0, "Y": -1.0}}]}, "time": {"Points": [{"interpolation": 2, "co": {"X": 1.0, "Y": 1.0}}]}, "crop_x": {"Points": [{"interpolation": 2, "co": {"X": 1.0, "Y": 0.0}}]}, "crop_height": {"Points": [{"interpolation": 2, "co": {"X": 1.0, "Y": -1.0}}]}, "crop_y": {"Points": [{"interpolation": 2, "co": {"X": 1.0, "Y": 0.0}}]}, "anchor": 0, "crop_width": {"Points": [{"interpolation": 2, "co": {"X": 1.0, "Y": -1.0}}]}, "shear_y": {"Points": [{"interpolation": 2, "co": {"X": 1.0, "Y": 0.0}}]}, "effects": [], "wave_color": {"alpha": {"Points": [{"handle_left": {"X": 0.5, "Y": 1.0}, "handle_type": 0, "interpolation": 0, "handle_right": {"X": 0.5, "Y": 0.0}, "co": {"X": 1.0, "Y": 255.0}}]}, "red": {"Points": [{"handle_left": {"X": 0.5, "Y": 1.0}, "handle_type": 0, "interpolation": 0, "handle_right": {"X": 0.5, "Y": 0.0}, "co": {"X": 1.0, "Y": 0.0}}]}, "green": {"Points": [{"handle_left": {"X": 0.5, "Y": 1.0}, "handle_type": 0, "interpolation": 0, "handle_right": {"X": 0.5, "Y": 0.0}, "co": {"X": 1.0, "Y": 123.0}}]}, "blue": {"Points": [{"handle_left": {"X": 0.5, "Y": 1.0}, "handle_type": 0, "interpolation": 0, "handle_right": {"X": 0.5, "Y": 0.0}, "co": {"X": 1.0, "Y": 255.0}}]}}, "title": "06-Create Progress Card Template.mkv", "perspective_c3_x": {"Points": [{"interpolation": 2, "co": {"X": 1.0, "Y": -1.0}}]}, "display": 0, "id": "TG13P8S1CP", "location_x": {"Points": [{"interpolation": 2, "co": {"X": 1.0, "Y": 0.0}}]}, "gravity": 4, "rotation": {"Points": [{"interpolation": 2, "co": {"X": 1.0, "Y": 0.0}}]}, "shear_x": {"Points": [{"interpolation": 2, "co": {"X": 1.0, "Y": 0.0}}]}, "scale_y": {"Points": [{"interpolation": 2, "co": {"X": 1.0, "Y": 1.0}}, {"interpolation": 1, "co": {"X": 803, "Y": 1.649999976158142}}, {"interpolation": 1, "co": {"X": 1057, "Y": 1.0}}]}, "scale_x": {"Points": [{"interpolation": 2, "co": {"X": 1.0, "Y": 1.0}}, {"interpolation": 1, "co": {"X": 803, "Y": 1.649999976158142}}, {"interpolation": 1, "co": {"X": 1057, "Y": 1.0}}]}, "duration": 44.0, "layer": 5, "alpha": {"Points": [{"handle_left": {"X": 0.5, "Y": 1.0}, "handle_type": 0, "interpolation": 0, "handle_right": {"X": 0.5, "Y": 0.0}, "co": {"X": 1.0, "Y": 1.0}}, {"handle_left": {"X": 0.5, "Y": 1.0}, "handle_type": 0, "interpolation": 0, "handle_right": {"X": 0.5, "Y": 0.0}, "co": {"X": 1.0, "Y": 0.0}}, {"handle_left": {"X": 0.5, "Y": 1.0}, "handle_type": 0, "interpolation": 0, "handle_right": {"X": 0.5, "Y": 0.0}, "co": {"X": 73.0, "Y": 1.0}}, {"handle_left": {"X": 0.5, "Y": 1.0}, "handle_type": 0, "interpolation": 0, "handle_right": {"X": 0.5, "Y": 0.0}, "co": {"X": 943.0, "Y": 1.0}}, {"handle_left": {"X": 0.5, "Y": 1.0}, "handle_type": 0, "interpolation": 0, "handle_right": {"X": 0.5, "Y": 0.0}, "co": {"X": 1015.0, "Y": 0.0}}]}, "perspective_c1_x": {"Points": [{"interpolation": 2, "co": {"X": 1.0, "Y": -1.0}}]}, "channel_filter": {"Points": [{"interpolation": 2, "co": {"X": 1.0, "Y": -1.0}}]}, "position": 23.7, "has_video": {"Points": [{"interpolation": 2, "co": {"X": 1.0, "Y": -1.0}}]}}, "type": "insert"}, {"key": ["clips", {"id": "TG13P8S1CP"}], "partial": false, "old_values": {"location_y": {"Points": [{"interpolation": 2, "co": {"X": 1.0, "Y": 0.0}}, {"interpolation": 1, "co": {"X": 803, "Y": -0.3199999928474426}}, {"interpolation": 1, "co": {"X": 1057, "Y": 0.0}}]}, "scale": 1, "perspective_c1_y": {"Points": [{"interpolation": 2, "co": {"X": 1.0, "Y": -1.0}}]}, "has_audio": {"Points": [{"interpolation": 2, "co": {"X": 1.0, "Y": -1.0}}]}, "image": "/home/milind/.openshot_qt/thumbnail/XQEQ903ILK.png", "file_id": "XQEQ903ILK", "perspective_c3_y": {"Points": [{"interpolation": 2, "co": {"X": 1.0, "Y": -1.0}}]}, "volume": {"Points": [{"interpolation": 2, "co": {"X": 1.0, "Y": 1.0}}]}, "waveform": false, "channel_mapping": {"Points": [{"interpolation": 2, "co": {"X": 1.0, "Y": -1.0}}]}, "perspective_c4_y": {"Points": [{"interpolation": 2, "co": {"X": 1.0, "Y": -1.0}}]}, "start": 0, "perspective_c2_y": {"Points": [{"interpolation": 2, "co": {"X": 1.0, "Y": -1.0}}]}, "end": 44, "reader": {"channels": 0, "path": "/home/milind/Data/Projects/ProgressCard/06-Create Progress Card Template.mkv", "duration": 44.0, "has_audio": false, "video_stream_index": 0, "channel_layout": 4, "vcodec": "h264", "audio_bit_rate": 0, "has_video": true, "pixel_ratio": {"num": 1, "den": 1}, "height": 768, "video_length": "1100", "file_size": "394038", "acodec": "", "sample_rate": 0, "video_bit_rate": 0, "pixel_format": 0, "display_ratio": {"num": 683, "den": 384}, "fps": {"num": 25, "den": 1}, "video_timebase": {"num": 1, "den": 1000}, "top_field_first": true, "width": 1366, "has_single_image": false, "audio_stream_index": -1, "type": "FFmpegReader", "interlaced_frame": false, "audio_timebase": {"num": 1, "den": 1}}, "perspective_c4_x": {"Points": [{"interpolation": 2, "co": {"X": 1.0, "Y": -1.0}}]}, "perspective_c2_x": {"Points": [{"interpolation": 2, "co": {"X": 1.0, "Y": -1.0}}]}, "time": {"Points": [{"interpolation": 2, "co": {"X": 1.0, "Y": 1.0}}]}, "crop_x": {"Points": [{"interpolation": 2, "co": {"X": 1.0, "Y": 0.0}}]}, "crop_height": {"Points": [{"interpolation": 2, "co": {"X": 1.0, "Y": -1.0}}]}, "crop_y": {"Points": [{"interpolation": 2, "co": {"X": 1.0, "Y": 0.0}}]}, "anchor": 0, "crop_width": {"Points": [{"interpolation": 2, "co": {"X": 1.0, "Y": -1.0}}]}, "perspective_c1_x": {"Points": [{"interpolation": 2, "co": {"X": 1.0, "Y": -1.0}}]}, "effects": [], "wave_color": {"alpha": {"Points": [{"handle_left": {"X": 0.5, "Y": 1.0}, "handle_type": 0, "interpolation": 0, "handle_right": {"X": 0.5, "Y": 0.0}, "co": {"X": 1.0, "Y": 255.0}}]}, "red": {"Points": [{"handle_left": {"X": 0.5, "Y": 1.0}, "handle_type": 0, "interpolation": 0, "handle_right": {"X": 0.5, "Y": 0.0}, "co": {"X": 1.0, "Y": 0.0}}]}, "green": {"Points": [{"handle_left": {"X": 0.5, "Y": 1.0}, "handle_type": 0, "interpolation": 0, "handle_right": {"X": 0.5, "Y": 0.0}, "co": {"X": 1.0, "Y": 123.0}}]}, "blue": {"Points": [{"handle_left": {"X": 0.5, "Y": 1.0}, "handle_type": 0, "interpolation": 0, "handle_right": {"X": 0.5, "Y": 0.0}, "co": {"X": 1.0, "Y": 255.0}}]}}, "title": "06-Create Progress Card Template.mkv", "perspective_c3_x": {"Points": [{"interpolation": 2, "co": {"X": 1.0, "Y": -1.0}}]}, "display": 0, "id": "TG13P8S1CP", "location_x": {"Points": [{"interpolation": 2, "co": {"X": 1.0, "Y": 0.0}}]}, "gravity": 4, "rotation": {"Points": [{"interpolation": 2, "co": {"X": 1.0, "Y": 0.0}}]}, "shear_x": {"Points": [{"interpolation": 2, "co": {"X": 1.0, "Y": 0.0}}]}, "scale_y": {"Points": [{"interpolation": 2, "co": {"X": 1.0, "Y": 1.0}}, {"interpolation": 1, "co": {"X": 803, "Y": 1.649999976158142}}, {"interpolation": 1, "co": {"X": 1057, "Y": 1.0}}]}, "scale_x": {"Points": [{"interpolation": 2, "co": {"X": 1.0, "Y": 1.0}}, {"interpolation": 1, "co": {"X": 803, "Y": 1.649999976158142}}, {"interpolation": 1, "co": {"X": 1057, "Y": 1.0}}]}, "duration": 44.0, "layer": 5, "alpha": {"Points": [{"interpolation": 2, "co": {"X": 1.0, "Y": 1.0}}, {"handle_left": {"X": 0.5, "Y": 1.0}, "handle_type": 0, "interpolation": 0, "handle_right": {"X": 0.5, "Y": 0.0}, "co": {"X": 985.0, "Y": 1.0}}, {"handle_left": {"X": 0.5, "Y": 1.0}, "handle_type": 0, "interpolation": 0, "handle_right": {"X": 0.5, "Y": 0.0}, "co": {"X": 1057.0, "Y": 0.0}}]}, "shear_y": {"Points": [{"interpolation": 2, "co": {"X": 1.0, "Y": 0.0}}]}, "channel_filter": {"Points": [{"interpolation": 2, "co": {"X": 1.0, "Y": -1.0}}]}, "position": 29.759999999999998, "has_video": {"Points": [{"interpolation": 2, "co": {"X": 1.0, "Y": -1.0}}]}}, "value": {"id": "TG13P8S1CP", "start": 0, "end": 44, "image": "/home/milind/.openshot_qt/thumbnail/XQEQ903ILK.png", "layer": 5, "position": 23.7}, "type": "update"}, {"key": ["clips", {"id": "TG13P8S1CP"}], "partial": false, "old_values": {"location_y": {"Points": [{"interpolation": 2, "co": {"X": 1.0, "Y": 0.0}}, {"interpolation": 1, "co": {"X": 803, "Y": -0.3199999928474426}}, {"interpolation": 1, "co": {"X": 1057, "Y": 0.0}}]}, "scale": 1, "perspective_c1_y": {"Points": [{"interpolation": 2, "co": {"X": 1.0, "Y": -1.0}}]}, "has_audio": {"Points": [{"interpolation": 2, "co": {"X": 1.0, "Y": -1.0}}]}, "image": "/home/milind/.openshot_qt/thumbnail/XQEQ903ILK.png", "file_id": "XQEQ903ILK", "perspective_c3_y": {"Points": [{"interpolation": 2, "co": {"X": 1.0, "Y": -1.0}}]}, "volume": {"Points": [{"interpolation": 2, "co": {"X": 1.0, "Y": 1.0}}]}, "waveform": false, "channel_mapping": {"Points": [{"interpolation": 2, "co": {"X": 1.0, "Y": -1.0}}]}, "perspective_c4_y": {"Points": [{"interpolation": 2, "co": {"X": 1.0, "Y": -1.0}}]}, "start": 0, "perspective_c2_y": {"Points": [{"interpolation": 2, "co": {"X": 1.0, "Y": -1.0}}]}, "has_video": {"Points": [{"interpolation": 2, "co": {"X": 1.0, "Y": -1.0}}]}, "reader": {"channels": 0, "path": "/home/milind/Data/Projects/ProgressCard/06-Create Progress Card Template.mkv", "duration": 44.0, "has_audio": false, "video_stream_index": 0, "channel_layout": 4, "vcodec": "h264", "audio_bit_rate": 0, "has_video": true, "pixel_ratio": {"num": 1, "den": 1}, "height": 768, "video_length": "1100", "file_size": "394038", "acodec": "", "sample_rate": 0, "video_bit_rate": 0, "pixel_format": 0, "display_ratio": {"num": 683, "den": 384}, "fps": {"num": 25, "den": 1}, "video_timebase": {"num": 1, "den": 1000}, "top_field_first": true, "width": 1366, "has_single_image": false, "audio_stream_index": -1, "type": "FFmpegReader", "interlaced_frame": false, "audio_timebase": {"num": 1, "den": 1}}, "perspective_c4_x": {"Points": [{"interpolation": 2, "co": {"X": 1.0, "Y": -1.0}}]}, "perspective_c2_x": {"Points": [{"interpolation": 2, "co": {"X": 1.0, "Y": -1.0}}]}, "time": {"Points": [{"interpolation": 2, "co": {"X": 1.0, "Y": 1.0}}]}, "crop_x": {"Points": [{"interpolation": 2, "co": {"X": 1.0, "Y": 0.0}}]}, "crop_height": {"Points": [{"interpolation": 2, "co": {"X": 1.0, "Y": -1.0}}]}, "crop_y": {"Points": [{"interpolation": 2, "co": {"X": 1.0, "Y": 0.0}}]}, "anchor": 0, "crop_width": {"Points": [{"interpolation": 2, "co": {"X": 1.0, "Y": -1.0}}]}, "perspective_c1_x": {"Points": [{"interpolation": 2, "co": {"X": 1.0, "Y": -1.0}}]}, "effects": [], "wave_color": {"alpha": {"Points": [{"handle_left": {"X": 0.5, "Y": 1.0}, "handle_type": 0, "interpolation": 0, "handle_right": {"X": 0.5, "Y": 0.0}, "co": {"X": 1.0, "Y": 255.0}}]}, "red": {"Points": [{"handle_left": {"X": 0.5, "Y": 1.0}, "handle_type": 0, "interpolation": 0, "handle_right": {"X": 0.5, "Y": 0.0}, "co": {"X": 1.0, "Y": 0.0}}]}, "green": {"Points": [{"handle_left": {"X": 0.5, "Y": 1.0}, "handle_type": 0, "interpolation": 0, "handle_right": {"X": 0.5, "Y": 0.0}, "co": {"X": 1.0, "Y": 123.0}}]}, "blue": {"Points": [{"handle_left": {"X": 0.5, "Y": 1.0}, "handle_type": 0, "interpolation": 0, "handle_right": {"X": 0.5, "Y": 0.0}, "co": {"X": 1.0, "Y": 255.0}}]}}, "title": "06-Create Progress Card Template.mkv", "perspective_c3_x": {"Points": [{"interpolation": 2, "co": {"X": 1.0, "Y": -1.0}}]}, "display": 0, "id": "TG13P8S1CP", "location_x": {"Points": [{"interpolation": 2, "co": {"X": 1.0, "Y": 0.0}}]}, "gravity": 4, "rotation": {"Points": [{"interpolation": 2, "co": {"X": 1.0, "Y": 0.0}}]}, "shear_x": {"Points": [{"interpolation": 2, "co": {"X": 1.0, "Y": 0.0}}]}, "scale_y": {"Points": [{"interpolation": 2, "co": {"X": 1.0, "Y": 1.0}}, {"interpolation": 1, "co": {"X": 803, "Y": 1.649999976158142}}, {"interpolation": 1, "co": {"X": 1057, "Y": 1.0}}]}, "scale_x": {"Points": [{"interpolation": 2, "co": {"X": 1.0, "Y": 1.0}}, {"interpolation": 1, "co": {"X": 803, "Y": 1.649999976158142}}, {"interpolation": 1, "co": {"X": 1057, "Y": 1.0}}]}, "duration": 44.0, "layer": 5, "alpha": {"Points": [{"interpolation": 2, "co": {"X": 1.0, "Y": 1.0}}, {"handle_left": {"X": 0.5, "Y": 1.0}, "handle_type": 0, "interpolation": 0, "handle_right": {"X": 0.5, "Y": 0.0}, "co": {"X": 985.0, "Y": 1.0}}, {"handle_left": {"X": 0.5, "Y": 1.0}, "handle_type": 0, "interpolation": 0, "handle_right": {"X": 0.5, "Y": 0.0}, "co": {"X": 1057.0, "Y": 0.0}}]}, "shear_y": {"Points": [{"interpolation": 2, "co": {"X": 1.0, "Y": 0.0}}]}, "channel_filter": {"Points": [{"interpolation": 2, "co": {"X": 1.0, "Y": -1.0}}]}, "position": 23.7, "end": 44}, "value": {"location_y": {"Points": [{"interpolation": 2, "co": {"X": 1.0, "Y": 0.0}}, {"interpolation": 1, "co": {"X": 803, "Y": -0.3199999928474426}}, {"interpolation": 1, "co": {"X": 1057, "Y": 0.0}}]}, "scale": 1, "perspective_c1_y": {"Points": [{"interpolation": 2, "co": {"X": 1.0, "Y": -1.0}}]}, "has_audio": {"Points": [{"interpolation": 2, "co": {"X": 1.0, "Y": -1.0}}]}, "image": "/home/milind/.openshot_qt/thumbnail/XQEQ903ILK.png", "file_id": "XQEQ903ILK", "perspective_c3_y": {"Points": [{"interpolation": 2, "co": {"X": 1.0, "Y": -1.0}}]}, "volume": {"Points": [{"interpolation": 2, "co": {"X": 1.0, "Y": 1.0}}]}, "waveform": false, "channel_mapping": {"Points": [{"interpolation": 2, "co": {"X": 1.0, "Y": -1.0}}]}, "perspective_c4_y": {"Points": [{"interpolation": 2, "co": {"X": 1.0, "Y": -1.0}}]}, "start": 0, "perspective_c2_y": {"Points": [{"interpolation": 2, "co": {"X": 1.0, "Y": -1.0}}]}, "has_video": {"Points": [{"interpolation": 2, "co": {"X": 1.0, "Y": -1.0}}]}, "perspective_c4_x": {"Points": [{"interpolation": 2, "co": {"X": 1.0, "Y": -1.0}}]}, "perspective_c2_x": {"Points": [{"interpolation": 2, "co": {"X": 1.0, "Y": -1.0}}]}, "time": {"Points": [{"interpolation": 2, "co": {"X": 1.0, "Y": 1.0}}]}, "crop_x": {"Points": [{"interpolation": 2, "co": {"X": 1.0, "Y": 0.0}}]}, "crop_height": {"Points": [{"interpolation": 2, "co": {"X": 1.0, "Y": -1.0}}]}, "crop_y": {"Points": [{"interpolation": 2, "co": {"X": 1.0, "Y": 0.0}}]}, "anchor": 0, "crop_width": {"Points": [{"interpolation": 2, "co": {"X": 1.0, "Y": -1.0}}]}, "perspective_c1_x": {"Points": [{"interpolation": 2, "co": {"X": 1.0, "Y": -1.0}}]}, "effects": [], "wave_color": {"alpha": {"Points": [{"handle_left": {"X": 0.5, "Y": 1.0}, "handle_type": 0, "interpolation": 0, "handle_right": {"X": 0.5, "Y": 0.0}, "co": {"X": 1.0, "Y": 255.0}}]}, "red": {"Points": [{"handle_left": {"X": 0.5, "Y": 1.0}, "handle_type": 0, "interpolation": 0, "handle_right": {"X": 0.5, "Y": 0.0}, "co": {"X": 1.0, "Y": 0.0}}]}, "green": {"Points": [{"handle_left": {"X": 0.5, "Y": 1.0}, "handle_type": 0, "interpolation": 0, "handle_right": {"X": 0.5, "Y": 0.0}, "co": {"X": 1.0, "Y": 123.0}}]}, "blue": {"Points": [{"handle_left": {"X": 0.5, "Y": 1.0}, "handle_type": 0, "interpolation": 0, "handle_right": {"X": 0.5, "Y": 0.0}, "co": {"X": 1.0, "Y": 255.0}}]}}, "title": "06-Create Progress Card Template.mkv", "perspective_c3_x": {"Points": [{"interpolation": 2, "co": {"X": 1.0, "Y": -1.0}}]}, "display": 0, "id": "TG13P8S1CP", "location_x": {"Points": [{"interpolation": 2, "co": {"X": 1.0, "Y": 0.0}}]}, "gravity": 4, "rotation": {"Points": [{"interpolation": 2, "co": {"X": 1.0, "Y": 0.0}}]}, "shear_x": {"Points": [{"interpolation": 2, "co": {"X": 1.0, "Y": 0.0}}]}, "scale_y": {"Points": [{"interpolation": 2, "co": {"X": 1.0, "Y": 1.0}}, {"interpolation": 1, "co": {"X": 803, "Y": 1.649999976158142}}, {"interpolation": 1, "co": {"X": 1057, "Y": 1.0}}]}, "scale_x": {"Points": [{"interpolation": 2, "co": {"X": 1.0, "Y": 1.0}}, {"interpolation": 1, "co": {"X": 803, "Y": 1.649999976158142}}, {"interpolation": 1, "co": {"X": 1057, "Y": 1.0}}]}, "duration": 44.0, "layer": 5, "alpha": {"Points": [{"interpolation": 2, "co": {"X": 1.0, "Y": 1.0}}, {"handle_left": {"X": 0.5, "Y": 1.0}, "handle_type": 0, "interpolation": 0, "handle_right": {"X": 0.5, "Y": 0.0}, "co": {"X": 985.0, "Y": 1.0}}, {"handle_left": {"X": 0.5, "Y": 1.0}, "handle_type": 0, "interpolation": 0, "handle_right": {"X": 0.5, "Y": 0.0}, "co": {"X": 1057.0, "Y": 0.0}}]}, "shear_y": {"Points": [{"interpolation": 2, "co": {"X": 1.0, "Y": 0.0}}]}, "channel_filter": {"Points": [{"interpolation": 2, "co": {"X": 1.0, "Y": -1.0}}]}, "position": 23.7, "end": 42.258333333333326}, "type": "update"}, {"key": ["clips", {"id": "TG13P8S1CP"}], "partial": false, "old_values": {"location_y": {"Points": [{"interpolation": 2, "co": {"X": 1.0, "Y": 0.0}}, {"interpolation": 1, "co": {"X": 803, "Y": -0.3199999928474426}}, {"interpolation": 1, "co": {"X": 1057, "Y": 0.0}}]}, "scale": 1, "perspective_c1_y": {"Points": [{"interpolation": 2, "co": {"X": 1.0, "Y": -1.0}}]}, "has_audio": {"Points": [{"interpolation": 2, "co": {"X": 1.0, "Y": -1.0}}]}, "image": "/home/milind/.openshot_qt/thumbnail/XQEQ903ILK.png", "file_id": "XQEQ903ILK", "perspective_c3_y": {"Points": [{"interpolation": 2, "co": {"X": 1.0, "Y": -1.0}}]}, "volume": {"Points": [{"interpolation": 2, "co": {"X": 1.0, "Y": 1.0}}]}, "waveform": false, "channel_mapping": {"Points": [{"interpolation": 2, "co": {"X": 1.0, "Y": -1.0}}]}, "perspective_c4_y": {"Points": [{"interpolation": 2, "co": {"X": 1.0, "Y": -1.0}}]}, "start": 0, "perspective_c2_y": {"Points": [{"interpolation": 2, "co": {"X": 1.0, "Y": -1.0}}]}, "has_video": {"Points": [{"interpolation": 2, "co": {"X": 1.0, "Y": -1.0}}]}, "reader": {"channels": 0, "path": "/home/milind/Data/Projects/ProgressCard/06-Create Progress Card Template.mkv", "duration": 44.0, "has_audio": false, "video_stream_index": 0, "channel_layout": 4, "vcodec": "h264", "audio_bit_rate": 0, "has_video": true, "pixel_ratio": {"num": 1, "den": 1}, "height": 768, "video_length": "1100", "file_size": "394038", "acodec": "", "sample_rate": 0, "video_bit_rate": 0, "pixel_format": 0, "display_ratio": {"num": 683, "den": 384}, "fps": {"num": 25, "den": 1}, "video_timebase": {"num": 1, "den": 1000}, "top_field_first": true, "width": 1366, "has_single_image": false, "audio_stream_index": -1, "type": "FFmpegReader", "interlaced_frame": false, "audio_timebase": {"num": 1, "den": 1}}, "perspective_c4_x": {"Points": [{"interpolation": 2, "co": {"X": 1.0, "Y": -1.0}}]}, "perspective_c2_x": {"Points": [{"interpolation": 2, "co": {"X": 1.0, "Y": -1.0}}]}, "time": {"Points": [{"interpolation": 2, "co": {"X": 1.0, "Y": 1.0}}]}, "crop_x": {"Points": [{"interpolation": 2, "co": {"X": 1.0, "Y": 0.0}}]}, "crop_height": {"Points": [{"interpolation": 2, "co": {"X": 1.0, "Y": -1.0}}]}, "crop_y": {"Points": [{"interpolation": 2, "co": {"X": 1.0, "Y": 0.0}}]}, "anchor": 0, "crop_width": {"Points": [{"interpolation": 2, "co": {"X": 1.0, "Y": -1.0}}]}, "perspective_c1_x": {"Points": [{"interpolation": 2, "co": {"X": 1.0, "Y": -1.0}}]}, "effects": [], "wave_color": {"alpha": {"Points": [{"handle_left": {"X": 0.5, "Y": 1.0}, "handle_type": 0, "interpolation": 0, "handle_right": {"X": 0.5, "Y": 0.0}, "co": {"X": 1.0, "Y": 255.0}}]}, "red": {"Points": [{"handle_left": {"X": 0.5, "Y": 1.0}, "handle_type": 0, "interpolation": 0, "handle_right": {"X": 0.5, "Y": 0.0}, "co": {"X": 1.0, "Y": 0.0}}]}, "green": {"Points": [{"handle_left": {"X": 0.5, "Y": 1.0}, "handle_type": 0, "interpolation": 0, "handle_right": {"X": 0.5, "Y": 0.0}, "co": {"X": 1.0, "Y": 123.0}}]}, "blue": {"Points": [{"handle_left": {"X": 0.5, "Y": 1.0}, "handle_type": 0, "interpolation": 0, "handle_right": {"X": 0.5, "Y": 0.0}, "co": {"X": 1.0, "Y": 255.0}}]}}, "title": "06-Create Progress Card Template.mkv", "perspective_c3_x": {"Points": [{"interpolation": 2, "co": {"X": 1.0, "Y": -1.0}}]}, "display": 0, "id": "TG13P8S1CP", "location_x": {"Points": [{"interpolation": 2, "co": {"X": 1.0, "Y": 0.0}}]}, "gravity": 4, "rotation": {"Points": [{"interpolation": 2, "co": {"X": 1.0, "Y": 0.0}}]}, "shear_x": {"Points": [{"interpolation": 2, "co": {"X": 1.0, "Y": 0.0}}]}, "scale_y": {"Points": [{"interpolation": 2, "co": {"X": 1.0, "Y": 1.0}}, {"interpolation": 1, "co": {"X": 803, "Y": 1.649999976158142}}, {"interpolation": 1, "co": {"X": 1057, "Y": 1.0}}]}, "scale_x": {"Points": [{"interpolation": 2, "co": {"X": 1.0, "Y": 1.0}}, {"interpolation": 1, "co": {"X": 803, "Y": 1.649999976158142}}, {"interpolation": 1, "co": {"X": 1057, "Y": 1.0}}]}, "duration": 44.0, "layer": 5, "alpha": {"Points": [{"interpolation": 2, "co": {"X": 1.0, "Y": 1.0}}, {"handle_left": {"X": 0.5, "Y": 1.0}, "handle_type": 0, "interpolation": 0, "handle_right": {"X": 0.5, "Y": 0.0}, "co": {"X": 985.0, "Y": 1.0}}, {"handle_left": {"X": 0.5, "Y": 1.0}, "handle_type": 0, "interpolation": 0, "handle_right": {"X": 0.5, "Y": 0.0}, "co": {"X": 1057.0, "Y": 0.0}}]}, "shear_y": {"Points": [{"interpolation": 2, "co": {"X": 1.0, "Y": 0.0}}]}, "channel_filter": {"Points": [{"interpolation": 2, "co": {"X": 1.0, "Y": -1.0}}]}, "position": 23.7, "end": 42.258333333333326}, "value": {"location_y": {"Points": [{"interpolation": 2, "co": {"X": 1.0, "Y": 0.0}}, {"interpolation": 1, "co": {"X": 803, "Y": -0.3199999928474426}}, {"interpolation": 1, "co": {"X": 1057, "Y": 0.0}}]}, "scale": 1, "perspective_c1_y": {"Points": [{"interpolation": 2, "co": {"X": 1.0, "Y": -1.0}}]}, "has_audio": {"Points": [{"interpolation": 2, "co": {"X": 1.0, "Y": -1.0}}]}, "image": "/home/milind/.openshot_qt/thumbnail/XQEQ903ILK.png", "file_id": "XQEQ903ILK", "perspective_c3_y": {"Points": [{"interpolation": 2, "co": {"X": 1.0, "Y": -1.0}}]}, "volume": {"Points": [{"interpolation": 2, "co": {"X": 1.0, "Y": 1.0}}]}, "waveform": false, "channel_mapping": {"Points": [{"interpolation": 2, "co": {"X": 1.0, "Y": -1.0}}]}, "perspective_c4_y": {"Points": [{"interpolation": 2, "co": {"X": 1.0, "Y": -1.0}}]}, "start": 0, "perspective_c2_y": {"Points": [{"interpolation": 2, "co": {"X": 1.0, "Y": -1.0}}]}, "has_video": {"Points": [{"interpolation": 2, "co": {"X": 1.0, "Y": -1.0}}]}, "perspective_c4_x": {"Points": [{"interpolation": 2, "co": {"X": 1.0, "Y": -1.0}}]}, "perspective_c2_x": {"Points": [{"interpolation": 2, "co": {"X": 1.0, "Y": -1.0}}]}, "time": {"Points": [{"interpolation": 2, "co": {"X": 1.0, "Y": 1.0}}]}, "crop_x": {"Points": [{"interpolation": 2, "co": {"X": 1.0, "Y": 0.0}}]}, "crop_height": {"Points": [{"interpolation": 2, "co": {"X": 1.0, "Y": -1.0}}]}, "crop_y": {"Points": [{"interpolation": 2, "co": {"X": 1.0, "Y": 0.0}}]}, "anchor": 0, "crop_width": {"Points": [{"interpolation": 2, "co": {"X": 1.0, "Y": -1.0}}]}, "perspective_c1_x": {"Points": [{"interpolation": 2, "co": {"X": 1.0, "Y": -1.0}}]}, "effects": [], "wave_color": {"alpha": {"Points": [{"handle_left": {"X": 0.5, "Y": 1.0}, "handle_type": 0, "interpolation": 0, "handle_right": {"X": 0.5, "Y": 0.0}, "co": {"X": 1.0, "Y": 255.0}}]}, "red": {"Points": [{"handle_left": {"X": 0.5, "Y": 1.0}, "handle_type": 0, "interpolation": 0, "handle_right": {"X": 0.5, "Y": 0.0}, "co": {"X": 1.0, "Y": 0.0}}]}, "green": {"Points": [{"handle_left": {"X": 0.5, "Y": 1.0}, "handle_type": 0, "interpolation": 0, "handle_right": {"X": 0.5, "Y": 0.0}, "co": {"X": 1.0, "Y": 123.0}}]}, "blue": {"Points": [{"handle_left": {"X": 0.5, "Y": 1.0}, "handle_type": 0, "interpolation": 0, "handle_right": {"X": 0.5, "Y": 0.0}, "co": {"X": 1.0, "Y": 255.0}}]}}, "title": "06-Create Progress Card Template.mkv", "perspective_c3_x": {"Points": [{"interpolation": 2, "co": {"X": 1.0, "Y": -1.0}}]}, "display": 0, "id": "TG13P8S1CP", "location_x": {"Points": [{"interpolation": 2, "co": {"X": 1.0, "Y": 0.0}}]}, "gravity": 4, "rotation": {"Points": [{"interpolation": 2, "co": {"X": 1.0, "Y": 0.0}}]}, "shear_x": {"Points": [{"interpolation": 2, "co": {"X": 1.0, "Y": 0.0}}]}, "scale_y": {"Points": [{"interpolation": 2, "co": {"X": 1.0, "Y": 1.0}}, {"interpolation": 1, "co": {"X": 803, "Y": 1.649999976158142}}, {"interpolation": 1, "co": {"X": 1057, "Y": 1.0}}]}, "scale_x": {"Points": [{"interpolation": 2, "co": {"X": 1.0, "Y": 1.0}}, {"interpolation": 1, "co": {"X": 803, "Y": 1.649999976158142}}, {"interpolation": 1, "co": {"X": 1057, "Y": 1.0}}]}, "duration": 44.0, "layer": 5, "alpha": {"Points": [{"handle_left": {"X": 0.5, "Y": 1.0}, "handle_type": 0, "interpolation": 0, "handle_right": {"X": 0.5, "Y": 0.0}, "co": {"X": 1.0, "Y": 1.0}}]}, "shear_y": {"Points": [{"interpolation": 2, "co": {"X": 1.0, "Y": 0.0}}]}, "channel_filter": {"Points": [{"interpolation": 2, "co": {"X": 1.0, "Y": -1.0}}]}, "position": 23.7, "end": 42.258333333333326}, "type": "update"}, {"key": ["clips", {"id": "TG13P8S1CP"}], "partial": false, "old_values": {"location_y": {"Points": [{"interpolation": 2, "co": {"X": 1.0, "Y": 0.0}}, {"interpolation": 1, "co": {"X": 803, "Y": -0.3199999928474426}}, {"interpolation": 1, "co": {"X": 1057, "Y": 0.0}}]}, "scale": 1, "perspective_c1_y": {"Points": [{"interpolation": 2, "co": {"X": 1.0, "Y": -1.0}}]}, "has_audio": {"Points": [{"interpolation": 2, "co": {"X": 1.0, "Y": -1.0}}]}, "image": "/home/milind/.openshot_qt/thumbnail/XQEQ903ILK.png", "file_id": "XQEQ903ILK", "perspective_c3_y": {"Points": [{"interpolation": 2, "co": {"X": 1.0, "Y": -1.0}}]}, "volume": {"Points": [{"interpolation": 2, "co": {"X": 1.0, "Y": 1.0}}]}, "waveform": false, "channel_mapping": {"Points": [{"interpolation": 2, "co": {"X": 1.0, "Y": -1.0}}]}, "perspective_c4_y": {"Points": [{"interpolation": 2, "co": {"X": 1.0, "Y": -1.0}}]}, "start": 0, "perspective_c2_y": {"Points": [{"interpolation": 2, "co": {"X": 1.0, "Y": -1.0}}]}, "has_video": {"Points": [{"interpolation": 2, "co": {"X": 1.0, "Y": -1.0}}]}, "reader": {"channels": 0, "path": "/home/milind/Data/Projects/ProgressCard/06-Create Progress Card Template.mkv", "duration": 44.0, "has_audio": false, "video_stream_index": 0, "channel_layout": 4, "vcodec": "h264", "audio_bit_rate": 0, "has_video": true, "pixel_ratio": {"num": 1, "den": 1}, "height": 768, "video_length": "1100", "file_size": "394038", "acodec": "", "sample_rate": 0, "video_bit_rate": 0, "pixel_format": 0, "display_ratio": {"num": 683, "den": 384}, "fps": {"num": 25, "den": 1}, "video_timebase": {"num": 1, "den": 1000}, "top_field_first": true, "width": 1366, "has_single_image": false, "audio_stream_index": -1, "type": "FFmpegReader", "interlaced_frame": false, "audio_timebase": {"num": 1, "den": 1}}, "perspective_c4_x": {"Points": [{"interpolation": 2, "co": {"X": 1.0, "Y": -1.0}}]}, "perspective_c2_x": {"Points": [{"interpolation": 2, "co": {"X": 1.0, "Y": -1.0}}]}, "time": {"Points": [{"interpolation": 2, "co": {"X": 1.0, "Y": 1.0}}]}, "crop_x": {"Points": [{"interpolation": 2, "co": {"X": 1.0, "Y": 0.0}}]}, "crop_height": {"Points": [{"interpolation": 2, "co": {"X": 1.0, "Y": -1.0}}]}, "crop_y": {"Points": [{"interpolation": 2, "co": {"X": 1.0, "Y": 0.0}}]}, "anchor": 0, "crop_width": {"Points": [{"interpolation": 2, "co": {"X": 1.0, "Y": -1.0}}]}, "perspective_c1_x": {"Points": [{"interpolation": 2, "co": {"X": 1.0, "Y": -1.0}}]}, "effects": [], "wave_color": {"alpha": {"Points": [{"handle_left": {"X": 0.5, "Y": 1.0}, "handle_type": 0, "interpolation": 0, "handle_right": {"X": 0.5, "Y": 0.0}, "co": {"X": 1.0, "Y": 255.0}}]}, "red": {"Points": [{"handle_left": {"X": 0.5, "Y": 1.0}, "handle_type": 0, "interpolation": 0, "handle_right": {"X": 0.5, "Y": 0.0}, "co": {"X": 1.0, "Y": 0.0}}]}, "green": {"Points": [{"handle_left": {"X": 0.5, "Y": 1.0}, "handle_type": 0, "interpolation": 0, "handle_right": {"X": 0.5, "Y": 0.0}, "co": {"X": 1.0, "Y": 123.0}}]}, "blue": {"Points": [{"handle_left": {"X": 0.5, "Y": 1.0}, "handle_type": 0, "interpolation": 0, "handle_right": {"X": 0.5, "Y": 0.0}, "co": {"X": 1.0, "Y": 255.0}}]}}, "title": "06-Create Progress Card Template.mkv", "perspective_c3_x": {"Points": [{"interpolation": 2, "co": {"X": 1.0, "Y": -1.0}}]}, "display": 0, "id": "TG13P8S1CP", "location_x": {"Points": [{"interpolation": 2, "co": {"X": 1.0, "Y": 0.0}}]}, "gravity": 4, "rotation": {"Points": [{"interpolation": 2, "co": {"X": 1.0, "Y": 0.0}}]}, "shear_x": {"Points": [{"interpolation": 2, "co": {"X": 1.0, "Y": 0.0}}]}, "scale_y": {"Points": [{"interpolation": 2, "co": {"X": 1.0, "Y": 1.0}}, {"interpolation": 1, "co": {"X": 803, "Y": 1.649999976158142}}, {"interpolation": 1, "co": {"X": 1057, "Y": 1.0}}]}, "scale_x": {"Points": [{"interpolation": 2, "co": {"X": 1.0, "Y": 1.0}}, {"interpolation": 1, "co": {"X": 803, "Y": 1.649999976158142}}, {"interpolation": 1, "co": {"X": 1057, "Y": 1.0}}]}, "duration": 44.0, "layer": 5, "alpha": {"Points": [{"handle_left": {"X": 0.5, "Y": 1.0}, "handle_type": 0, "interpolation": 0, "handle_right": {"X": 0.5, "Y": 0.0}, "co": {"X": 1.0, "Y": 1.0}}]}, "shear_y": {"Points": [{"interpolation": 2, "co": {"X": 1.0, "Y": 0.0}}]}, "channel_filter": {"Points": [{"interpolation": 2, "co": {"X": 1.0, "Y": -1.0}}]}, "position": 23.7, "end": 42.258333333333326}, "value": {"location_y": {"Points": [{"interpolation": 2, "co": {"X": 1.0, "Y": 0.0}}, {"interpolation": 1, "co": {"X": 803, "Y": -0.3199999928474426}}, {"interpolation": 1, "co": {"X": 1057, "Y": 0.0}}]}, "scale": 1, "perspective_c1_y": {"Points": [{"interpolation": 2, "co": {"X": 1.0, "Y": -1.0}}]}, "has_audio": {"Points": [{"interpolation": 2, "co": {"X": 1.0, "Y": -1.0}}]}, "image": "/home/milind/.openshot_qt/thumbnail/XQEQ903ILK.png", "file_id": "XQEQ903ILK", "perspective_c3_y": {"Points": [{"interpolation": 2, "co": {"X": 1.0, "Y": -1.0}}]}, "volume": {"Points": [{"interpolation": 2, "co": {"X": 1.0, "Y": 1.0}}]}, "waveform": false, "channel_mapping": {"Points": [{"interpolation": 2, "co": {"X": 1.0, "Y": -1.0}}]}, "perspective_c4_y": {"Points": [{"interpolation": 2, "co": {"X": 1.0, "Y": -1.0}}]}, "start": 0, "perspective_c2_y": {"Points": [{"interpolation": 2, "co": {"X": 1.0, "Y": -1.0}}]}, "has_video": {"Points": [{"interpolation": 2, "co": {"X": 1.0, "Y": -1.0}}]}, "perspective_c4_x": {"Points": [{"interpolation": 2, "co": {"X": 1.0, "Y": -1.0}}]}, "perspective_c2_x": {"Points": [{"interpolation": 2, "co": {"X": 1.0, "Y": -1.0}}]}, "time": {"Points": [{"interpolation": 2, "co": {"X": 1.0, "Y": 1.0}}]}, "crop_x": {"Points": [{"interpolation": 2, "co": {"X": 1.0, "Y": 0.0}}]}, "crop_height": {"Points": [{"interpolation": 2, "co": {"X": 1.0, "Y": -1.0}}]}, "crop_y": {"Points": [{"interpolation": 2, "co": {"X": 1.0, "Y": 0.0}}]}, "anchor": 0, "crop_width": {"Points": [{"interpolation": 2, "co": {"X": 1.0, "Y": -1.0}}]}, "perspective_c1_x": {"Points": [{"interpolation": 2, "co": {"X": 1.0, "Y": -1.0}}]}, "effects": [], "wave_color": {"alpha": {"Points": [{"handle_left": {"X": 0.5, "Y": 1.0}, "handle_type": 0, "interpolation": 0, "handle_right": {"X": 0.5, "Y": 0.0}, "co": {"X": 1.0, "Y": 255.0}}]}, "red": {"Points": [{"handle_left": {"X": 0.5, "Y": 1.0}, "handle_type": 0, "interpolation": 0, "handle_right": {"X": 0.5, "Y": 0.0}, "co": {"X": 1.0, "Y": 0.0}}]}, "green": {"Points": [{"handle_left": {"X": 0.5, "Y": 1.0}, "handle_type": 0, "interpolation": 0, "handle_right": {"X": 0.5, "Y": 0.0}, "co": {"X": 1.0, "Y": 123.0}}]}, "blue": {"Points": [{"handle_left": {"X": 0.5, "Y": 1.0}, "handle_type": 0, "interpolation": 0, "handle_right": {"X": 0.5, "Y": 0.0}, "co": {"X": 1.0, "Y": 255.0}}]}}, "title": "06-Create Progress Card Template.mkv", "perspective_c3_x": {"Points": [{"interpolation": 2, "co": {"X": 1.0, "Y": -1.0}}]}, "display": 0, "id": "TG13P8S1CP", "location_x": {"Points": [{"interpolation": 2, "co": {"X": 1.0, "Y": 0.0}}]}, "gravity": 4, "rotation": {"Points": [{"interpolation": 2, "co": {"X": 1.0, "Y": 0.0}}]}, "shear_x": {"Points": [{"interpolation": 2, "co": {"X": 1.0, "Y": 0.0}}]}, "scale_y": {"Points": [{"interpolation": 2, "co": {"X": 1.0, "Y": 1.0}}, {"interpolation": 1, "co": {"X": 803, "Y": 1.649999976158142}}, {"interpolation": 1, "co": {"X": 1057, "Y": 1.0}}]}, "scale_x": {"Points": [{"interpolation": 2, "co": {"X": 1.0, "Y": 1.0}}, {"interpolation": 1, "co": {"X": 803, "Y": 1.649999976158142}}, {"interpolation": 1, "co": {"X": 1057, "Y": 1.0}}]}, "duration": 44.0, "layer": 5, "alpha": {"Points": [{"handle_left": {"X": 0.5, "Y": 1.0}, "handle_type": 0, "interpolation": 0, "handle_right": {"X": 0.5, "Y": 0.0}, "co": {"X": 1.0, "Y": 1.0}}, {"handle_left": {"X": 0.5, "Y": 1.0}, "handle_type": 0, "interpolation": 0, "handle_right": {"X": 0.5, "Y": 0.0}, "co": {"X": 1.0, "Y": 0.0}}, {"handle_left": {"X": 0.5, "Y": 1.0}, "handle_type": 0, "interpolation": 0, "handle_right": {"X": 0.5, "Y": 0.0}, "co": {"X": 73.0, "Y": 1.0}}]}, "shear_y": {"Points": [{"interpolation": 2, "co": {"X": 1.0, "Y": 0.0}}]}, "channel_filter": {"Points": [{"interpolation": 2, "co": {"X": 1.0, "Y": -1.0}}]}, "position": 23.7, "end": 42.258333333333326}, "type": "update"}, {"key": ["clips", {"id": "TG13P8S1CP"}], "partial": false, "old_values": {"location_y": {"Points": [{"interpolation": 2, "co": {"X": 1.0, "Y": 0.0}}, {"interpolation": 1, "co": {"X": 803, "Y": -0.3199999928474426}}, {"interpolation": 1, "co": {"X": 1057, "Y": 0.0}}]}, "scale": 1, "perspective_c1_y": {"Points": [{"interpolation": 2, "co": {"X": 1.0, "Y": -1.0}}]}, "has_audio": {"Points": [{"interpolation": 2, "co": {"X": 1.0, "Y": -1.0}}]}, "image": "/home/milind/.openshot_qt/thumbnail/XQEQ903ILK.png", "file_id": "XQEQ903ILK", "perspective_c3_y": {"Points": [{"interpolation": 2, "co": {"X": 1.0, "Y": -1.0}}]}, "volume": {"Points": [{"interpolation": 2, "co": {"X": 1.0, "Y": 1.0}}]}, "waveform": false, "channel_mapping": {"Points": [{"interpolation": 2, "co": {"X": 1.0, "Y": -1.0}}]}, "perspective_c4_y": {"Points": [{"interpolation": 2, "co": {"X": 1.0, "Y": -1.0}}]}, "start": 0, "perspective_c2_y": {"Points": [{"interpolation": 2, "co": {"X": 1.0, "Y": -1.0}}]}, "has_video": {"Points": [{"interpolation": 2, "co": {"X": 1.0, "Y": -1.0}}]}, "reader": {"channels": 0, "path": "/home/milind/Data/Projects/ProgressCard/06-Create Progress Card Template.mkv", "duration": 44.0, "has_audio": false, "video_stream_index": 0, "channel_layout": 4, "vcodec": "h264", "audio_bit_rate": 0, "has_video": true, "pixel_ratio": {"num": 1, "den": 1}, "height": 768, "video_length": "1100", "file_size": "394038", "acodec": "", "sample_rate": 0, "video_bit_rate": 0, "pixel_format": 0, "display_ratio": {"num": 683, "den": 384}, "fps": {"num": 25, "den": 1}, "video_timebase": {"num": 1, "den": 1000}, "top_field_first": true, "width": 1366, "has_single_image": false, "audio_stream_index": -1, "type": "FFmpegReader", "interlaced_frame": false, "audio_timebase": {"num": 1, "den": 1}}, "perspective_c4_x": {"Points": [{"interpolation": 2, "co": {"X": 1.0, "Y": -1.0}}]}, "perspective_c2_x": {"Points": [{"interpolation": 2, "co": {"X": 1.0, "Y": -1.0}}]}, "time": {"Points": [{"interpolation": 2, "co": {"X": 1.0, "Y": 1.0}}]}, "crop_x": {"Points": [{"interpolation": 2, "co": {"X": 1.0, "Y": 0.0}}]}, "crop_height": {"Points": [{"interpolation": 2, "co": {"X": 1.0, "Y": -1.0}}]}, "crop_y": {"Points": [{"interpolation": 2, "co": {"X": 1.0, "Y": 0.0}}]}, "anchor": 0, "crop_width": {"Points": [{"interpolation": 2, "co": {"X": 1.0, "Y": -1.0}}]}, "perspective_c1_x": {"Points": [{"interpolation": 2, "co": {"X": 1.0, "Y": -1.0}}]}, "effects": [], "wave_color": {"alpha": {"Points": [{"handle_left": {"X": 0.5, "Y": 1.0}, "handle_type": 0, "interpolation": 0, "handle_right": {"X": 0.5, "Y": 0.0}, "co": {"X": 1.0, "Y": 255.0}}]}, "red": {"Points": [{"handle_left": {"X": 0.5, "Y": 1.0}, "handle_type": 0, "interpolation": 0, "handle_right": {"X": 0.5, "Y": 0.0}, "co": {"X": 1.0, "Y": 0.0}}]}, "green": {"Points": [{"handle_left": {"X": 0.5, "Y": 1.0}, "handle_type": 0, "interpolation": 0, "handle_right": {"X": 0.5, "Y": 0.0}, "co": {"X": 1.0, "Y": 123.0}}]}, "blue": {"Points": [{"handle_left": {"X": 0.5, "Y": 1.0}, "handle_type": 0, "interpolation": 0, "handle_right": {"X": 0.5, "Y": 0.0}, "co": {"X": 1.0, "Y": 255.0}}]}}, "title": "06-Create Progress Card Template.mkv", "perspective_c3_x": {"Points": [{"interpolation": 2, "co": {"X": 1.0, "Y": -1.0}}]}, "display": 0, "id": "TG13P8S1CP", "location_x": {"Points": [{"interpolation": 2, "co": {"X": 1.0, "Y": 0.0}}]}, "gravity": 4, "rotation": {"Points": [{"interpolation": 2, "co": {"X": 1.0, "Y": 0.0}}]}, "shear_x": {"Points": [{"interpolation": 2, "co": {"X": 1.0, "Y": 0.0}}]}, "scale_y": {"Points": [{"interpolation": 2, "co": {"X": 1.0, "Y": 1.0}}, {"interpolation": 1, "co": {"X": 803, "Y": 1.649999976158142}}, {"interpolation": 1, "co": {"X": 1057, "Y": 1.0}}]}, "scale_x": {"Points": [{"interpolation": 2, "co": {"X": 1.0, "Y": 1.0}}, {"interpolation": 1, "co": {"X": 803, "Y": 1.649999976158142}}, {"interpolation": 1, "co": {"X": 1057, "Y": 1.0}}]}, "duration": 44.0, "layer": 5, "alpha": {"Points": [{"handle_left": {"X": 0.5, "Y": 1.0}, "handle_type": 0, "interpolation": 0, "handle_right": {"X": 0.5, "Y": 0.0}, "co": {"X": 1.0, "Y": 1.0}}, {"handle_left": {"X": 0.5, "Y": 1.0}, "handle_type": 0, "interpolation": 0, "handle_right": {"X": 0.5, "Y": 0.0}, "co": {"X": 1.0, "Y": 0.0}}, {"handle_left": {"X": 0.5, "Y": 1.0}, "handle_type": 0, "interpolation": 0, "handle_right": {"X": 0.5, "Y": 0.0}, "co": {"X": 73.0, "Y": 1.0}}]}, "shear_y": {"Points": [{"interpolation": 2, "co": {"X": 1.0, "Y": 0.0}}]}, "channel_filter": {"Points": [{"interpolation": 2, "co": {"X": 1.0, "Y": -1.0}}]}, "position": 23.7, "end": 42.258333333333326}, "value": {"location_y": {"Points": [{"interpolation": 2, "co": {"X": 1.0, "Y": 0.0}}, {"interpolation": 1, "co": {"X": 803, "Y": -0.3199999928474426}}, {"interpolation": 1, "co": {"X": 1057, "Y": 0.0}}]}, "scale": 1, "perspective_c1_y": {"Points": [{"interpolation": 2, "co": {"X": 1.0, "Y": -1.0}}]}, "has_audio": {"Points": [{"interpolation": 2, "co": {"X": 1.0, "Y": -1.0}}]}, "image": "/home/milind/.openshot_qt/thumbnail/XQEQ903ILK.png", "file_id": "XQEQ903ILK", "perspective_c3_y": {"Points": [{"interpolation": 2, "co": {"X": 1.0, "Y": -1.0}}]}, "volume": {"Points": [{"interpolation": 2, "co": {"X": 1.0, "Y": 1.0}}]}, "waveform": false, "channel_mapping": {"Points": [{"interpolation": 2, "co": {"X": 1.0, "Y": -1.0}}]}, "perspective_c4_y": {"Points": [{"interpolation": 2, "co": {"X": 1.0, "Y": -1.0}}]}, "start": 0, "perspective_c2_y": {"Points": [{"interpolation": 2, "co": {"X": 1.0, "Y": -1.0}}]}, "has_video": {"Points": [{"interpolation": 2, "co": {"X": 1.0, "Y": -1.0}}]}, "perspective_c4_x": {"Points": [{"interpolation": 2, "co": {"X": 1.0, "Y": -1.0}}]}, "perspective_c2_x": {"Points": [{"interpolation": 2, "co": {"X": 1.0, "Y": -1.0}}]}, "time": {"Points": [{"interpolation": 2, "co": {"X": 1.0, "Y": 1.0}}]}, "crop_x": {"Points": [{"interpolation": 2, "co": {"X": 1.0, "Y": 0.0}}]}, "crop_height": {"Points": [{"interpolation": 2, "co": {"X": 1.0, "Y": -1.0}}]}, "crop_y": {"Points": [{"interpolation": 2, "co": {"X": 1.0, "Y": 0.0}}]}, "anchor": 0, "crop_width": {"Points": [{"interpolation": 2, "co": {"X": 1.0, "Y": -1.0}}]}, "perspective_c1_x": {"Points": [{"interpolation": 2, "co": {"X": 1.0, "Y": -1.0}}]}, "effects": [], "wave_color": {"alpha": {"Points": [{"handle_left": {"X": 0.5, "Y": 1.0}, "handle_type": 0, "interpolation": 0, "handle_right": {"X": 0.5, "Y": 0.0}, "co": {"X": 1.0, "Y": 255.0}}]}, "red": {"Points": [{"handle_left": {"X": 0.5, "Y": 1.0}, "handle_type": 0, "interpolation": 0, "handle_right": {"X": 0.5, "Y": 0.0}, "co": {"X": 1.0, "Y": 0.0}}]}, "green": {"Points": [{"handle_left": {"X": 0.5, "Y": 1.0}, "handle_type": 0, "interpolation": 0, "handle_right": {"X": 0.5, "Y": 0.0}, "co": {"X": 1.0, "Y": 123.0}}]}, "blue": {"Points": [{"handle_left": {"X": 0.5, "Y": 1.0}, "handle_type": 0, "interpolation": 0, "handle_right": {"X": 0.5, "Y": 0.0}, "co": {"X": 1.0, "Y": 255.0}}]}}, "title": "06-Create Progress Card Template.mkv", "perspective_c3_x": {"Points": [{"interpolation": 2, "co": {"X": 1.0, "Y": -1.0}}]}, "display": 0, "id": "TG13P8S1CP", "location_x": {"Points": [{"interpolation": 2, "co": {"X": 1.0, "Y": 0.0}}]}, "gravity": 4, "rotation": {"Points": [{"interpolation": 2, "co": {"X": 1.0, "Y": 0.0}}]}, "shear_x": {"Points": [{"interpolation": 2, "co": {"X": 1.0, "Y": 0.0}}]}, "scale_y": {"Points": [{"interpolation": 2, "co": {"X": 1.0, "Y": 1.0}}, {"interpolation": 1, "co": {"X": 803, "Y": 1.649999976158142}}, {"interpolation": 1, "co": {"X": 1057, "Y": 1.0}}]}, "scale_x": {"Points": [{"interpolation": 2, "co": {"X": 1.0, "Y": 1.0}}, {"interpolation": 1, "co": {"X": 803, "Y": 1.649999976158142}}, {"interpolation": 1, "co": {"X": 1057, "Y": 1.0}}]}, "duration": 44.0, "layer": 5, "alpha": {"Points": [{"handle_left": {"X": 0.5, "Y": 1.0}, "handle_type": 0, "interpolation": 0, "handle_right": {"X": 0.5, "Y": 0.0}, "co": {"X": 1.0, "Y": 1.0}}, {"handle_left": {"X": 0.5, "Y": 1.0}, "handle_type": 0, "interpolation": 0, "handle_right": {"X": 0.5, "Y": 0.0}, "co": {"X": 1.0, "Y": 0.0}}, {"handle_left": {"X": 0.5, "Y": 1.0}, "handle_type": 0, "interpolation": 0, "handle_right": {"X": 0.5, "Y": 0.0}, "co": {"X": 73.0, "Y": 1.0}}, {"handle_left": {"X": 0.5, "Y": 1.0}, "handle_type": 0, "interpolation": 0, "handle_right": {"X": 0.5, "Y": 0.0}, "co": {"X": 943.0, "Y": 1.0}}, {"handle_left": {"X": 0.5, "Y": 1.0}, "handle_type": 0, "interpolation": 0, "handle_right": {"X": 0.5, "Y": 0.0}, "co": {"X": 1015.0, "Y": 0.0}}]}, "shear_y": {"Points": [{"interpolation": 2, "co": {"X": 1.0, "Y": 0.0}}]}, "channel_filter": {"Points": [{"interpolation": 2, "co": {"X": 1.0, "Y": -1.0}}]}, "position": 23.7, "end": 42.258333333333326}, "type": "update"}, {"key": ["files"], "partial": false, "old_values": [{"channels": 0, "path": "/home/milind/Data/Projects/ProgressCard/intro.png", "duration": 86400.0, "has_audio": false, "video_stream_index": -1, "channel_layout": 4, "vcodec": "", "has_video": true, "pixel_ratio": {"num": 1, "den": 1}, "height": 169, "video_length": "2592000", "video_bit_rate": 0, "acodec": "", "sample_rate": 0, "file_size": "446836", "pixel_format": -1, "display_ratio": {"num": 661, "den": 169}, "fps": {"num": 30, "den": 1}, "video_timebase": {"num": 1, "den": 30}, "top_field_first": true, "width": 661, "media_type": "image", "id": "EYET6E4WCX", "has_single_image": true, "audio_stream_index": -1, "type": "QtImageReader", "audio_timebase": {"num": 1, "den": 1}, "interlaced_frame": false, "audio_bit_rate": 0}, {"channels": 0, "path": "/home/milind/Data/Projects/ProgressCard/Title-02.svg", "duration": 86400.0, "has_audio": false, "video_stream_index": -1, "channel_layout": 4, "vcodec": "", "has_video": true, "pixel_ratio": {"num": 1, "den": 1}, "height": 3827, "video_length": "2592000", "video_bit_rate": 0, "acodec": "", "sample_rate": 0, "file_size": "104140324", "pixel_format": -1, "display_ratio": {"num": 6803, "den": 3827}, "fps": {"num": 30, "den": 1}, "video_timebase": {"num": 1, "den": 30}, "top_field_first": true, "width": 6803, "media_type": "image", "id": "5QW60D58CB", "has_single_image": true, "audio_stream_index": -1, "type": "QtImageReader", "audio_timebase": {"num": 1, "den": 1}, "interlaced_frame": false, "audio_bit_rate": 0}, {"channels": 0, "path": "/home/milind/Data/Projects/ProgressCard/Title-01.svg", "duration": 86400.0, "has_audio": false, "video_stream_index": -1, "channel_layout": 4, "vcodec": "", "has_video": true, "pixel_ratio": {"num": 1, "den": 1}, "height": 3827, "video_length": "2592000", "video_bit_rate": 0, "acodec": "", "sample_rate": 0, "file_size": "104140324", "pixel_format": -1, "display_ratio": {"num": 6803, "den": 3827}, "fps": {"num": 30, "den": 1}, "video_timebase": {"num": 1, "den": 30}, "top_field_first": true, "width": 6803, "media_type": "image", "id": "RBDOM40FGQ", "has_single_image": true, "audio_stream_index": -1, "type": "QtImageReader", "audio_timebase": {"num": 1, "den": 1}, "interlaced_frame": false, "audio_bit_rate": 0}, {"channels": 0, "path": "/home/milind/Data/Projects/ProgressCard/Title-03.svg", "duration": 86400.0, "has_audio": false, "video_stream_index": -1, "channel_layout": 4, "vcodec": "", "has_video": true, "pixel_ratio": {"num": 1, "den": 1}, "height": 3827, "video_length": "2592000", "video_bit_rate": 0, "acodec": "", "sample_rate": 0, "file_size": "104140324", "pixel_format": -1, "display_ratio": {"num": 6803, "den": 3827}, "fps": {"num": 30, "den": 1}, "video_timebase": {"num": 1, "den": 30}, "top_field_first": true, "width": 6803, "media_type": "image", "id": "1UGFFUXPZG", "has_single_image": true, "audio_stream_index": -1, "type": "QtImageReader", "audio_timebase": {"num": 1, "den": 1}, "interlaced_frame": false, "audio_bit_rate": 0}, {"channels": 0, "path": "/home/milind/Data/Projects/ProgressCard/Title-04.svg", "duration": 86400.0, "has_audio": false, "video_stream_index": -1, "channel_layout": 4, "vcodec": "", "has_video": true, "pixel_ratio": {"num": 1, "den": 1}, "height": 3827, "video_length": "2592000", "video_bit_rate": 0, "acodec": "", "sample_rate": 0, "file_size": "104140324", "pixel_format": -1, "display_ratio": {"num": 6803, "den": 3827}, "fps": {"num": 30, "den": 1}, "video_timebase": {"num": 1, "den": 30}, "top_field_first": true, "width": 6803, "media_type": "image", "id": "6B6X3SW6U5", "has_single_image": true, "audio_stream_index": -1, "type": "QtImageReader", "audio_timebase": {"num": 1, "den": 1}, "interlaced_frame": false, "audio_bit_rate": 0}, {"channels": 0, "path": "/home/milind/Data/Projects/ProgressCard/Title-05-All Four Titles.svg", "duration": 86400.0, "has_audio": false, "video_stream_index": -1, "channel_layout": 4, "vcodec": "", "has_video": true, "pixel_ratio": {"num": 1, "den": 1}, "height": 3827, "video_length": "2592000", "video_bit_rate": 0, "acodec": "", "sample_rate": 0, "file_size": "104140324", "pixel_format": -1, "display_ratio": {"num": 6803, "den": 3827}, "fps": {"num": 30, "den": 1}, "video_timebase": {"num": 1, "den": 30}, "top_field_first": true, "width": 6803, "media_type": "image", "id": "AR5E0JZFG5", "has_single_image": true, "audio_stream_index": -1, "type": "QtImageReader", "audio_timebase": {"num": 1, "den": 1}, "interlaced_frame": false, "audio_bit_rate": 0}, {"channels": 0, "path": "/home/milind/Data/Projects/ProgressCard/06-Create Progress Card Template.mkv", "duration": 44.0, "has_audio": false, "video_stream_index": 0, "channel_layout": 4, "vcodec": "h264", "has_video": true, "pixel_ratio": {"num": 1, "den": 1}, "height": 768, "video_length": "1100", "video_bit_rate": 0, "acodec": "", "sample_rate": 0, "file_size": "394038", "pixel_format": 0, "display_ratio": {"num": 683, "den": 384}, "fps": {"num": 25, "den": 1}, "video_timebase": {"num": 1, "den": 1000}, "top_field_first": true, "width": 1366, "media_type": "video", "id": "JH7UWI807B", "has_single_image": false, "audio_stream_index": -1, "type": "FFmpegReader", "audio_timebase": {"num": 1, "den": 1}, "interlaced_frame": false, "audio_bit_rate": 0}], "value": {"channels": 0, "path": "/home/milind/Data/Projects/ProgressCard/07-Entered Record of 10 students.mkv", "duration": 59.0, "has_audio": false, "video_stream_index": 0, "top_field_first": true, "vcodec": "h264", "has_video": true, "pixel_ratio": {"num": 1, "den": 1}, "height": 768, "video_length": "1475", "video_bit_rate": 0, "acodec": "", "sample_rate": 0, "file_size": "595628", "pixel_format": 0, "fps": {"num": 25, "den": 1}, "video_timebase": {"num": 1, "den": 1000}, "display_ratio": {"num": 683, "den": 384}, "width": 1366, "media_type": "video", "id": "ARUI3RRTAH", "has_single_image": false, "audio_stream_index": -1, "type": "FFmpegReader", "channel_layout": 4, "audio_timebase": {"num": 1, "den": 1}, "interlaced_frame": false, "audio_bit_rate": 0}, "type": "insert"}, {"key": ["clips"], "partial": false, "old_values": [{"location_y": {"Points": [{"interpolation": 2, "co": {"X": 1.0, "Y": 0.0}}]}, "scale": 1, "perspective_c1_y": {"Points": [{"interpolation": 2, "co": {"X": 1.0, "Y": -1.0}}]}, "has_audio": {"Points": [{"interpolation": 2, "co": {"X": 1.0, "Y": -1.0}}]}, "image": "/home/milind/.openshot_qt/thumbnail/RBDOM40FGQ.png", "perspective_c3_y": {"Points": [{"interpolation": 2, "co": {"X": 1.0, "Y": -1.0}}]}, "volume": {"Points": [{"interpolation": 2, "co": {"X": 1.0, "Y": 1.0}}]}, "waveform": false, "channel_mapping": {"Points": [{"interpolation": 2, "co": {"X": 1.0, "Y": -1.0}}]}, "perspective_c4_y": {"Points": [{"interpolation": 2, "co": {"X": 1.0, "Y": -1.0}}]}, "start": 0.0, "perspective_c2_y": {"Points": [{"interpolation": 2, "co": {"X": 1.0, "Y": -1.0}}]}, "has_video": {"Points": [{"interpolation": 2, "co": {"X": 1.0, "Y": -1.0}}]}, "reader": {"channels": 0, "path": "/home/milind/Data/Projects/ProgressCard/Title-01.svg", "duration": 86400.0, "has_audio": false, "video_stream_index": -1, "top_field_first": true, "vcodec": "", "audio_bit_rate": 0, "has_video": true, "pixel_ratio": {"num": 1, "den": 1}, "height": 3827, "video_length": "2592000", "video_bit_rate": 0, "acodec": "", "sample_rate": 0, "file_size": "104140324", "pixel_format": -1, "fps": {"num": 30, "den": 1}, "video_timebase": {"num": 1, "den": 30}, "display_ratio": {"num": 6803, "den": 3827}, "width": 6803, "has_single_image": true, "audio_stream_index": -1, "type": "QtImageReader", "channel_layout": 4, "interlaced_frame": false, "audio_timebase": {"num": 1, "den": 1}}, "perspective_c4_x": {"Points": [{"interpolation": 2, "co": {"X": 1.0, "Y": -1.0}}]}, "perspective_c2_x": {"Points": [{"interpolation": 2, "co": {"X": 1.0, "Y": -1.0}}]}, "time": {"Points": [{"interpolation": 2, "co": {"X": 1.0, "Y": 1.0}}]}, "crop_x": {"Points": [{"interpolation": 2, "co": {"X": 1.0, "Y": 0.0}}]}, "crop_height": {"Points": [{"interpolation": 2, "co": {"X": 1.0, "Y": -1.0}}]}, "crop_y": {"Points": [{"interpolation": 2, "co": {"X": 1.0, "Y": 0.0}}]}, "anchor": 0, "crop_width": {"Points": [{"interpolation": 2, "co": {"X": 1.0, "Y": -1.0}}]}, "perspective_c1_x": {"Points": [{"interpolation": 2, "co": {"X": 1.0, "Y": -1.0}}]}, "effects": [], "file_id": "RBDOM40FGQ", "wave_color": {"alpha": {"Points": [{"handle_left": {"X": 0.5, "Y": 1.0}, "handle_type": 0, "interpolation": 0, "handle_right": {"X": 0.5, "Y": 0.0}, "co": {"X": 1.0, "Y": 255.0}}]}, "red": {"Points": [{"handle_left": {"X": 0.5, "Y": 1.0}, "handle_type": 0, "interpolation": 0, "handle_right": {"X": 0.5, "Y": 0.0}, "co": {"X": 1.0, "Y": 0.0}}]}, "green": {"Points": [{"handle_left": {"X": 0.5, "Y": 1.0}, "handle_type": 0, "interpolation": 0, "handle_right": {"X": 0.5, "Y": 0.0}, "co": {"X": 1.0, "Y": 123.0}}]}, "blue": {"Points": [{"handle_left": {"X": 0.5, "Y": 1.0}, "handle_type": 0, "interpolation": 0, "handle_right": {"X": 0.5, "Y": 0.0}, "co": {"X": 1.0, "Y": 255.0}}]}}, "title": "Title-01.svg", "perspective_c3_x": {"Points": [{"interpolation": 2, "co": {"X": 1.0, "Y": -1.0}}]}, "display": 0, "id": "B39BCXR0EX", "location_x": {"Points": [{"interpolation": 2, "co": {"X": 1.0, "Y": 0.0}}]}, "gravity": 4, "rotation": {"Points": [{"interpolation": 2, "co": {"X": 1.0, "Y": 0.0}}]}, "shear_x": {"Points": [{"interpolation": 2, "co": {"X": 1.0, "Y": 0.0}}]}, "scale_y": {"Points": [{"interpolation": 2, "co": {"X": 1.0, "Y": 1.0}}]}, "scale_x": {"Points": [{"interpolation": 2, "co": {"X": 1.0, "Y": 1.0}}]}, "duration": 86400.0, "layer": 3, "alpha": {"Points": [{"interpolation": 2, "co": {"X": 1.0, "Y": 1.0}}]}, "shear_y": {"Points": [{"interpolation": 2, "co": {"X": 1.0, "Y": 0.0}}]}, "channel_filter": {"Points": [{"interpolation": 2, "co": {"X": 1.0, "Y": -1.0}}]}, "position": 44.58, "end": 10.0}, {"location_y": {"Points": [{"handle_left": {"X": 0.5, "Y": 1.0}, "handle_type": 0, "interpolation": 0, "handle_right": {"X": 0.5, "Y": 0.0}, "co": {"X": 1.0, "Y": 0.0}}, {"handle_left": {"X": 0.5, "Y": 1.0}, "handle_type": 0, "interpolation": 0, "handle_right": {"X": 0.5, "Y": 0.0}, "co": {"X": 1.0, "Y": 0.0}}, {"handle_left": {"X": 0.5, "Y": 1.0}, "handle_type": 0, "interpolation": 0, "handle_right": {"X": 0.5, "Y": 0.0}, "co": {"X": 25.0, "Y": 0.0}}]}, "scale": 1, "perspective_c1_y": {"Points": [{"interpolation": 2, "co": {"X": 1.0, "Y": -1.0}}]}, "has_audio": {"Points": [{"interpolation": 2, "co": {"X": 1.0, "Y": -1.0}}]}, "image": "/home/milind/.openshot_qt/thumbnail/RBDOM40FGQ.png", "file_id": "RBDOM40FGQ", "perspective_c3_y": {"Points": [{"interpolation": 2, "co": {"X": 1.0, "Y": -1.0}}]}, "volume": {"Points": [{"interpolation": 2, "co": {"X": 1.0, "Y": 1.0}}]}, "waveform": false, "channel_mapping": {"Points": [{"interpolation": 2, "co": {"X": 1.0, "Y": -1.0}}]}, "perspective_c4_y": {"Points": [{"interpolation": 2, "co": {"X": 1.0, "Y": -1.0}}]}, "start": 0, "perspective_c2_y": {"Points": [{"interpolation": 2, "co": {"X": 1.0, "Y": -1.0}}]}, "has_video": {"Points": [{"interpolation": 2, "co": {"X": 1.0, "Y": -1.0}}]}, "reader": {"channels": 0, "path": "/home/milind/Data/Projects/ProgressCard/Title-01.svg", "duration": 86400.0, "has_audio": false, "video_stream_index": -1, "top_field_first": true, "vcodec": "", "audio_bit_rate": 0, "has_video": true, "pixel_ratio": {"num": 1, "den": 1}, "height": 3827, "video_length": "2592000", "video_bit_rate": 0, "acodec": "", "sample_rate": 0, "file_size": "104140324", "pixel_format": -1, "fps": {"num": 30, "den": 1}, "video_timebase": {"num": 1, "den": 30}, "display_ratio": {"num": 6803, "den": 3827}, "width": 6803, "has_single_image": true, "audio_stream_index": -1, "type": "QtImageReader", "channel_layout": 4, "interlaced_frame": false, "audio_timebase": {"num": 1, "den": 1}}, "perspective_c4_x": {"Points": [{"interpolation": 2, "co": {"X": 1.0, "Y": -1.0}}]}, "perspective_c2_x": {"Points": [{"interpolation": 2, "co": {"X": 1.0, "Y": -1.0}}]}, "time": {"Points": [{"interpolation": 2, "co": {"X": 1.0, "Y": 1.0}}]}, "crop_x": {"Points": [{"interpolation": 2, "co": {"X": 1.0, "Y": 0.0}}]}, "crop_height": {"Points": [{"interpolation": 2, "co": {"X": 1.0, "Y": -1.0}}]}, "crop_y": {"Points": [{"interpolation": 2, "co": {"X": 1.0, "Y": 0.0}}]}, "anchor": 0, "crop_width": {"Points": [{"interpolation": 2, "co": {"X": 1.0, "Y": -1.0}}]}, "perspective_c1_x": {"Points": [{"interpolation": 2, "co": {"X": 1.0, "Y": -1.0}}]}, "effects": [], "wave_color": {"alpha": {"Points": [{"handle_left": {"X": 0.5, "Y": 1.0}, "handle_type": 0, "interpolation": 0, "handle_right": {"X": 0.5, "Y": 0.0}, "co": {"X": 1.0, "Y": 255.0}}]}, "red": {"Points": [{"handle_left": {"X": 0.5, "Y": 1.0}, "handle_type": 0, "interpolation": 0, "handle_right": {"X": 0.5, "Y": 0.0}, "co": {"X": 1.0, "Y": 0.0}}]}, "green": {"Points": [{"handle_left": {"X": 0.5, "Y": 1.0}, "handle_type": 0, "interpolation": 0, "handle_right": {"X": 0.5, "Y": 0.0}, "co": {"X": 1.0, "Y": 123.0}}]}, "blue": {"Points": [{"handle_left": {"X": 0.5, "Y": 1.0}, "handle_type": 0, "interpolation": 0, "handle_right": {"X": 0.5, "Y": 0.0}, "co": {"X": 1.0, "Y": 255.0}}]}}, "title": "Title-01.svg", "perspective_c3_x": {"Points": [{"interpolation": 2, "co": {"X": 1.0, "Y": -1.0}}]}, "display": 0, "id": "RH0T0F5TSV", "location_x": {"Points": [{"handle_left": {"X": 0.5, "Y": 1.0}, "handle_type": 0, "interpolation": 0, "handle_right": {"X": 0.5, "Y": 0.0}, "co": {"X": 1.0, "Y": 0.0}}, {"handle_left": {"X": 0.5, "Y": 1.0}, "handle_type": 0, "interpolation": 0, "handle_right": {"X": 0.5, "Y": 0.0}, "co": {"X": 1.0, "Y": 1.0}}, {"handle_left": {"X": 0.5, "Y": 1.0}, "handle_type": 0, "interpolation": 0, "handle_right": {"X": 0.5, "Y": 0.0}, "co": {"X": 25.0, "Y": 0.0}}]}, "gravity": 4, "rotation": {"Points": [{"interpolation": 2, "co": {"X": 1.0, "Y": 0.0}}]}, "shear_x": {"Points": [{"interpolation": 2, "co": {"X": 1.0, "Y": 0.0}}]}, "scale_y": {"Points": [{"handle_left": {"X": 0.5, "Y": 1.0}, "handle_type": 0, "interpolation": 0, "handle_right": {"X": 0.5, "Y": 0.0}, "co": {"X": 1.0, "Y": 1.0}}]}, "scale_x": {"Points": [{"handle_left": {"X": 0.5, "Y": 1.0}, "handle_type": 0, "interpolation": 0, "handle_right": {"X": 0.5, "Y": 0.0}, "co": {"X": 1.0, "Y": 1.0}}]}, "duration": 86400.0, "layer": 0, "alpha": {"Points": [{"interpolation": 2, "co": {"X": 1.0, "Y": 1.0}}]}, "shear_y": {"Points": [{"interpolation": 2, "co": {"X": 1.0, "Y": 0.0}}]}, "channel_filter": {"Points": [{"interpolation": 2, "co": {"X": 1.0, "Y": -1.0}}]}, "position": 2.4, "end": 5.891666666666666}, {"location_y": {"Points": [{"interpolation": 2, "co": {"X": 1.0, "Y": 0.0}}, {"handle_left": {"X": 0.5, "Y": 1.0}, "handle_type": 0, "interpolation": 0, "handle_right": {"X": 0.5, "Y": 0.0}, "co": {"X": 1.0, "Y": 0.0}}, {"handle_left": {"X": 0.5, "Y": 1.0}, "handle_type": 0, "interpolation": 0, "handle_right": {"X": 0.5, "Y": 0.0}, "co": {"X": 25.0, "Y": 0.0}}]}, "scale": 1, "perspective_c1_y": {"Points": [{"interpolation": 2, "co": {"X": 1.0, "Y": -1.0}}]}, "has_audio": {"Points": [{"interpolation": 2, "co": {"X": 1.0, "Y": -1.0}}]}, "image": "/home/milind/.openshot_qt/thumbnail/5QW60D58CB.png", "file_id": "5QW60D58CB", "perspective_c3_y": {"Points": [{"interpolation": 2, "co": {"X": 1.0, "Y": -1.0}}]}, "volume": {"Points": [{"interpolation": 2, "co": {"X": 1.0, "Y": 1.0}}]}, "waveform": false, "channel_mapping": {"Points": [{"interpolation": 2, "co": {"X": 1.0, "Y": -1.0}}]}, "perspective_c4_y": {"Points": [{"interpolation": 2, "co": {"X": 1.0, "Y": -1.0}}]}, "start": 0, "perspective_c2_y": {"Points": [{"interpolation": 2, "co": {"X": 1.0, "Y": -1.0}}]}, "has_video": {"Points": [{"interpolation": 2, "co": {"X": 1.0, "Y": -1.0}}]}, "reader": {"channels": 0, "path": "/home/milind/Data/Projects/ProgressCard/Title-02.svg", "duration": 86400.0, "has_audio": false, "video_stream_index": -1, "top_field_first": true, "vcodec": "", "audio_bit_rate": 0, "has_video": true, "pixel_ratio": {"num": 1, "den": 1}, "height": 3827, "video_length": "2592000", "video_bit_rate": 0, "acodec": "", "sample_rate": 0, "file_size": "104140324", "pixel_format": -1, "fps": {"num": 30, "den": 1}, "video_timebase": {"num": 1, "den": 30}, "display_ratio": {"num": 6803, "den": 3827}, "width": 6803, "has_single_image": true, "audio_stream_index": -1, "type": "QtImageReader", "channel_layout": 4, "interlaced_frame": false, "audio_timebase": {"num": 1, "den": 1}}, "perspective_c4_x": {"Points": [{"interpolation": 2, "co": {"X": 1.0, "Y": -1.0}}]}, "perspective_c2_x": {"Points": [{"interpolation": 2, "co": {"X": 1.0, "Y": -1.0}}]}, "time": {"Points": [{"interpolation": 2, "co": {"X": 1.0, "Y": 1.0}}]}, "crop_x": {"Points": [{"interpolation": 2, "co": {"X": 1.0, "Y": 0.0}}]}, "crop_height": {"Points": [{"interpolation": 2, "co": {"X": 1.0, "Y": -1.0}}]}, "crop_y": {"Points": [{"interpolation": 2, "co": {"X": 1.0, "Y": 0.0}}]}, "anchor": 0, "crop_width": {"Points": [{"interpolation": 2, "co": {"X": 1.0, "Y": -1.0}}]}, "perspective_c1_x": {"Points": [{"interpolation": 2, "co": {"X": 1.0, "Y": -1.0}}]}, "effects": [], "wave_color": {"alpha": {"Points": [{"handle_left": {"X": 0.5, "Y": 1.0}, "handle_type": 0, "interpolation": 0, "handle_right": {"X": 0.5, "Y": 0.0}, "co": {"X": 1.0, "Y": 255.0}}]}, "red": {"Points": [{"handle_left": {"X": 0.5, "Y": 1.0}, "handle_type": 0, "interpolation": 0, "handle_right": {"X": 0.5, "Y": 0.0}, "co": {"X": 1.0, "Y": 0.0}}]}, "green": {"Points": [{"handle_left": {"X": 0.5, "Y": 1.0}, "handle_type": 0, "interpolation": 0, "handle_right": {"X": 0.5, "Y": 0.0}, "co": {"X": 1.0, "Y": 123.0}}]}, "blue": {"Points": [{"handle_left": {"X": 0.5, "Y": 1.0}, "handle_type": 0, "interpolation": 0, "handle_right": {"X": 0.5, "Y": 0.0}, "co": {"X": 1.0, "Y": 255.0}}]}}, "title": "Title-02.svg", "perspective_c3_x": {"Points": [{"interpolation": 2, "co": {"X": 1.0, "Y": -1.0}}]}, "display": 0, "id": "3OCKSFXMGL", "location_x": {"Points": [{"interpolation": 2, "co": {"X": 1.0, "Y": 0.0}}, {"handle_left": {"X": 0.5, "Y": 1.0}, "handle_type": 0, "interpolation": 0, "handle_right": {"X": 0.5, "Y": 0.0}, "co": {"X": 1.0, "Y": 1.0}}, {"handle_left": {"X": 0.5, "Y": 1.0}, "handle_type": 0, "interpolation": 0, "handle_right": {"X": 0.5, "Y": 0.0}, "co": {"X": 25.0, "Y": 0.0}}]}, "gravity": 4, "rotation": {"Points": [{"interpolation": 2, "co": {"X": 1.0, "Y": 0.0}}]}, "shear_x": {"Points": [{"interpolation": 2, "co": {"X": 1.0, "Y": 0.0}}]}, "scale_y": {"Points": [{"interpolation": 2, "co": {"X": 1.0, "Y": 1.0}}]}, "scale_x": {"Points": [{"interpolation": 2, "co": {"X": 1.0, "Y": 1.0}}]}, "duration": 86400.0, "layer": 1, "alpha": {"Points": [{"interpolation": 2, "co": {"X": 1.0, "Y": 1.0}}]}, "shear_y": {"Points": [{"interpolation": 2, "co": {"X": 1.0, "Y": 0.0}}]}, "channel_filter": {"Points": [{"interpolation": 2, "co": {"X": 1.0, "Y": -1.0}}]}, "position": 3.63, "end": 4.661666666666666}, {"location_y": {"Points": [{"interpolation": 2, "co": {"X": 1.0, "Y": 0.0}}, {"handle_left": {"X": 0.5, "Y": 1.0}, "handle_type": 0, "interpolation": 0, "handle_right": {"X": 0.5, "Y": 0.0}, "co": {"X": 1.0, "Y": 0.0}}, {"handle_left": {"X": 0.5, "Y": 1.0}, "handle_type": 0, "interpolation": 0, "handle_right": {"X": 0.5, "Y": 0.0}, "co": {"X": 25.0, "Y": 0.0}}]}, "scale": 1, "perspective_c1_y": {"Points": [{"interpolation": 2, "co": {"X": 1.0, "Y": -1.0}}]}, "has_audio": {"Points": [{"interpolation": 2, "co": {"X": 1.0, "Y": -1.0}}]}, "image": "/home/milind/.openshot_qt/thumbnail/1UGFFUXPZG.png", "file_id": "1UGFFUXPZG", "perspective_c3_y": {"Points": [{"interpolation": 2, "co": {"X": 1.0, "Y": -1.0}}]}, "volume": {"Points": [{"interpolation": 2, "co": {"X": 1.0, "Y": 1.0}}]}, "waveform": false, "channel_mapping": {"Points": [{"interpolation": 2, "co": {"X": 1.0, "Y": -1.0}}]}, "perspective_c4_y": {"Points": [{"interpolation": 2, "co": {"X": 1.0, "Y": -1.0}}]}, "start": 0, "perspective_c2_y": {"Points": [{"interpolation": 2, "co": {"X": 1.0, "Y": -1.0}}]}, "has_video": {"Points": [{"interpolation": 2, "co": {"X": 1.0, "Y": -1.0}}]}, "reader": {"channels": 0, "path": "/home/milind/Data/Projects/ProgressCard/Title-03.svg", "duration": 86400.0, "has_audio": false, "video_stream_index": -1, "top_field_first": true, "vcodec": "", "audio_bit_rate": 0, "has_video": true, "pixel_ratio": {"num": 1, "den": 1}, "height": 3827, "video_length": "2592000", "video_bit_rate": 0, "acodec": "", "sample_rate": 0, "file_size": "104140324", "pixel_format": -1, "fps": {"num": 30, "den": 1}, "video_timebase": {"num": 1, "den": 30}, "display_ratio": {"num": 6803, "den": 3827}, "width": 6803, "has_single_image": true, "audio_stream_index": -1, "type": "QtImageReader", "channel_layout": 4, "interlaced_frame": false, "audio_timebase": {"num": 1, "den": 1}}, "perspective_c4_x": {"Points": [{"interpolation": 2, "co": {"X": 1.0, "Y": -1.0}}]}, "perspective_c2_x": {"Points": [{"interpolation": 2, "co": {"X": 1.0, "Y": -1.0}}]}, "time": {"Points": [{"interpolation": 2, "co": {"X": 1.0, "Y": 1.0}}]}, "crop_x": {"Points": [{"interpolation": 2, "co": {"X": 1.0, "Y": 0.0}}]}, "crop_height": {"Points": [{"interpolation": 2, "co": {"X": 1.0, "Y": -1.0}}]}, "crop_y": {"Points": [{"interpolation": 2, "co": {"X": 1.0, "Y": 0.0}}]}, "anchor": 0, "crop_width": {"Points": [{"interpolation": 2, "co": {"X": 1.0, "Y": -1.0}}]}, "perspective_c1_x": {"Points": [{"interpolation": 2, "co": {"X": 1.0, "Y": -1.0}}]}, "effects": [], "wave_color": {"alpha": {"Points": [{"handle_left": {"X": 0.5, "Y": 1.0}, "handle_type": 0, "interpolation": 0, "handle_right": {"X": 0.5, "Y": 0.0}, "co": {"X": 1.0, "Y": 255.0}}]}, "red": {"Points": [{"handle_left": {"X": 0.5, "Y": 1.0}, "handle_type": 0, "interpolation": 0, "handle_right": {"X": 0.5, "Y": 0.0}, "co": {"X": 1.0, "Y": 0.0}}]}, "green": {"Points": [{"handle_left": {"X": 0.5, "Y": 1.0}, "handle_type": 0, "interpolation": 0, "handle_right": {"X": 0.5, "Y": 0.0}, "co": {"X": 1.0, "Y": 123.0}}]}, "blue": {"Points": [{"handle_left": {"X": 0.5, "Y": 1.0}, "handle_type": 0, "interpolation": 0, "handle_right": {"X": 0.5, "Y": 0.0}, "co": {"X": 1.0, "Y": 255.0}}]}}, "title": "Title-03.svg", "perspective_c3_x": {"Points": [{"interpolation": 2, "co": {"X": 1.0, "Y": -1.0}}]}, "display": 0, "id": "DRRWM84D3O", "location_x": {"Points": [{"interpolation": 2, "co": {"X": 1.0, "Y": 0.0}}, {"handle_left": {"X": 0.5, "Y": 1.0}, "handle_type": 0, "interpolation": 0, "handle_right": {"X": 0.5, "Y": 0.0}, "co": {"X": 1.0, "Y": 1.0}}, {"handle_left": {"X": 0.5, "Y": 1.0}, "handle_type": 0, "interpolation": 0, "handle_right": {"X": 0.5, "Y": 0.0}, "co": {"X": 25.0, "Y": 0.0}}]}, "gravity": 4, "rotation": {"Points": [{"interpolation": 2, "co": {"X": 1.0, "Y": 0.0}}]}, "shear_x": {"Points": [{"interpolation": 2, "co": {"X": 1.0, "Y": 0.0}}]}, "scale_y": {"Points": [{"interpolation": 2, "co": {"X": 1.0, "Y": 1.0}}]}, "scale_x": {"Points": [{"interpolation": 2, "co": {"X": 1.0, "Y": 1.0}}]}, "duration": 86400.0, "layer": 2, "alpha": {"Points": [{"interpolation": 2, "co": {"X": 1.0, "Y": 1.0}}]}, "shear_y": {"Points": [{"interpolation": 2, "co": {"X": 1.0, "Y": 0.0}}]}, "channel_filter": {"Points": [{"interpolation": 2, "co": {"X": 1.0, "Y": -1.0}}]}, "position": 4.9799999999999995, "end": 3.3116666666666665}, {"location_y": {"Points": [{"interpolation": 2, "co": {"X": 1.0, "Y": 0.0}}, {"handle_left": {"X": 0.5, "Y": 1.0}, "handle_type": 0, "interpolation": 0, "handle_right": {"X": 0.5, "Y": 0.0}, "co": {"X": 1.0, "Y": 0.0}}, {"handle_left": {"X": 0.5, "Y": 1.0}, "handle_type": 0, "interpolation": 0, "handle_right": {"X": 0.5, "Y": 0.0}, "co": {"X": 25.0, "Y": 0.0}}]}, "scale": 1, "perspective_c1_y": {"Points": [{"interpolation": 2, "co": {"X": 1.0, "Y": -1.0}}]}, "has_audio": {"Points": [{"interpolation": 2, "co": {"X": 1.0, "Y": -1.0}}]}, "image": "/home/milind/.openshot_qt/thumbnail/6B6X3SW6U5.png", "file_id": "6B6X3SW6U5", "perspective_c3_y": {"Points": [{"interpolation": 2, "co": {"X": 1.0, "Y": -1.0}}]}, "volume": {"Points": [{"interpolation": 2, "co": {"X": 1.0, "Y": 1.0}}]}, "waveform": false, "channel_mapping": {"Points": [{"interpolation": 2, "co": {"X": 1.0, "Y": -1.0}}]}, "perspective_c4_y": {"Points": [{"interpolation": 2, "co": {"X": 1.0, "Y": -1.0}}]}, "start": 0, "perspective_c2_y": {"Points": [{"interpolation": 2, "co": {"X": 1.0, "Y": -1.0}}]}, "has_video": {"Points": [{"interpolation": 2, "co": {"X": 1.0, "Y": -1.0}}]}, "reader": {"channels": 0, "path": "/home/milind/Data/Projects/ProgressCard/Title-04.svg", "duration": 86400.0, "has_audio": false, "video_stream_index": -1, "top_field_first": true, "vcodec": "", "audio_bit_rate": 0, "has_video": true, "pixel_ratio": {"num": 1, "den": 1}, "height": 3827, "video_length": "2592000", "video_bit_rate": 0, "acodec": "", "sample_rate": 0, "file_size": "104140324", "pixel_format": -1, "fps": {"num": 30, "den": 1}, "video_timebase": {"num": 1, "den": 30}, "display_ratio": {"num": 6803, "den": 3827}, "width": 6803, "has_single_image": true, "audio_stream_index": -1, "type": "QtImageReader", "channel_layout": 4, "interlaced_frame": false, "audio_timebase": {"num": 1, "den": 1}}, "perspective_c4_x": {"Points": [{"interpolation": 2, "co": {"X": 1.0, "Y": -1.0}}]}, "perspective_c2_x": {"Points": [{"interpolation": 2, "co": {"X": 1.0, "Y": -1.0}}]}, "time": {"Points": [{"interpolation": 2, "co": {"X": 1.0, "Y": 1.0}}]}, "crop_x": {"Points": [{"interpolation": 2, "co": {"X": 1.0, "Y": 0.0}}]}, "crop_height": {"Points": [{"interpolation": 2, "co": {"X": 1.0, "Y": -1.0}}]}, "crop_y": {"Points": [{"interpolation": 2, "co": {"X": 1.0, "Y": 0.0}}]}, "anchor": 0, "crop_width": {"Points": [{"interpolation": 2, "co": {"X": 1.0, "Y": -1.0}}]}, "perspective_c1_x": {"Points": [{"interpolation": 2, "co": {"X": 1.0, "Y": -1.0}}]}, "effects": [], "wave_color": {"alpha": {"Points": [{"handle_left": {"X": 0.5, "Y": 1.0}, "handle_type": 0, "interpolation": 0, "handle_right": {"X": 0.5, "Y": 0.0}, "co": {"X": 1.0, "Y": 255.0}}]}, "red": {"Points": [{"handle_left": {"X": 0.5, "Y": 1.0}, "handle_type": 0, "interpolation": 0, "handle_right": {"X": 0.5, "Y": 0.0}, "co": {"X": 1.0, "Y": 0.0}}]}, "green": {"Points": [{"handle_left": {"X": 0.5, "Y": 1.0}, "handle_type": 0, "interpolation": 0, "handle_right": {"X": 0.5, "Y": 0.0}, "co": {"X": 1.0, "Y": 123.0}}]}, "blue": {"Points": [{"handle_left": {"X": 0.5, "Y": 1.0}, "handle_type": 0, "interpolation": 0, "handle_right": {"X": 0.5, "Y": 0.0}, "co": {"X": 1.0, "Y": 255.0}}]}}, "title": "Title-04.svg", "perspective_c3_x": {"Points": [{"interpolation": 2, "co": {"X": 1.0, "Y": -1.0}}]}, "display": 0, "id": "173ASVPEMX", "location_x": {"Points": [{"interpolation": 2, "co": {"X": 1.0, "Y": 0.0}}, {"handle_left": {"X": 0.5, "Y": 1.0}, "handle_type": 0, "interpolation": 0, "handle_right": {"X": 0.5, "Y": 0.0}, "co": {"X": 1.0, "Y": 1.0}}, {"handle_left": {"X": 0.5, "Y": 1.0}, "handle_type": 0, "interpolation": 0, "handle_right": {"X": 0.5, "Y": 0.0}, "co": {"X": 25.0, "Y": 0.0}}]}, "gravity": 4, "rotation": {"Points": [{"interpolation": 2, "co": {"X": 1.0, "Y": 0.0}}]}, "shear_x": {"Points": [{"interpolation": 2, "co": {"X": 1.0, "Y": 0.0}}]}, "scale_y": {"Points": [{"interpolation": 2, "co": {"X": 1.0, "Y": 1.0}}]}, "scale_x": {"Points": [{"interpolation": 2, "co": {"X": 1.0, "Y": 1.0}}]}, "duration": 86400.0, "layer": 3, "alpha": {"Points": [{"interpolation": 2, "co": {"X": 1.0, "Y": 1.0}}]}, "shear_y": {"Points": [{"interpolation": 2, "co": {"X": 1.0, "Y": 0.0}}]}, "channel_filter": {"Points": [{"interpolation": 2, "co": {"X": 1.0, "Y": -1.0}}]}, "position": 6.27, "end": 2.0216666666666665}, {"location_y": {"Points": [{"interpolation": 2, "co": {"X": 1.0, "Y": 0.0}}, {"handle_left": {"X": 0.5, "Y": 1.0}, "handle_type": 0, "interpolation": 0, "handle_right": {"X": 0.5, "Y": 0.0}, "co": {"X": 150.0, "Y": 0.0}}, {"handle_left": {"X": 0.5, "Y": 1.0}, "handle_type": 0, "interpolation": 0, "handle_right": {"X": 0.5, "Y": 0.0}, "co": {"X": 174.0, "Y": 0.0}}]}, "scale": 1, "perspective_c1_y": {"Points": [{"interpolation": 2, "co": {"X": 1.0, "Y": -1.0}}]}, "has_audio": {"Points": [{"interpolation": 2, "co": {"X": 1.0, "Y": -1.0}}]}, "image": "/home/milind/.openshot_qt/thumbnail/AR5E0JZFG5.png", "file_id": "AR5E0JZFG5", "perspective_c3_y": {"Points": [{"interpolation": 2, "co": {"X": 1.0, "Y": -1.0}}]}, "volume": {"Points": [{"interpolation": 2, "co": {"X": 1.0, "Y": 1.0}}]}, "waveform": false, "channel_mapping": {"Points": [{"interpolation": 2, "co": {"X": 1.0, "Y": -1.0}}]}, "perspective_c4_y": {"Points": [{"interpolation": 2, "co": {"X": 1.0, "Y": -1.0}}]}, "start": 0, "perspective_c2_y": {"Points": [{"interpolation": 2, "co": {"X": 1.0, "Y": -1.0}}]}, "has_video": {"Points": [{"interpolation": 2, "co": {"X": 1.0, "Y": -1.0}}]}, "reader": {"channels": 0, "path": "/home/milind/Data/Projects/ProgressCard/Title-05-All Four Titles.svg", "duration": 86400.0, "has_audio": false, "video_stream_index": -1, "channel_layout": 4, "vcodec": "", "has_video": true, "pixel_ratio": {"num": 1, "den": 1}, "height": 3827, "video_length": "2592000", "video_bit_rate": 0, "acodec": "", "sample_rate": 0, "file_size": "104140324", "pixel_format": -1, "display_ratio": {"num": 6803, "den": 3827}, "fps": {"num": 30, "den": 1}, "video_timebase": {"num": 1, "den": 30}, "top_field_first": true, "width": 6803, "has_single_image": true, "audio_stream_index": -1, "type": "QtImageReader", "audio_timebase": {"num": 1, "den": 1}, "interlaced_frame": false, "audio_bit_rate": 0}, "perspective_c4_x": {"Points": [{"interpolation": 2, "co": {"X": 1.0, "Y": -1.0}}]}, "perspective_c2_x": {"Points": [{"interpolation": 2, "co": {"X": 1.0, "Y": -1.0}}]}, "time": {"Points": [{"interpolation": 2, "co": {"X": 1.0, "Y": 1.0}}]}, "crop_x": {"Points": [{"interpolation": 2, "co": {"X": 1.0, "Y": 0.0}}]}, "crop_height": {"Points": [{"interpolation": 2, "co": {"X": 1.0, "Y": -1.0}}]}, "crop_y": {"Points": [{"interpolation": 2, "co": {"X": 1.0, "Y": 0.0}}]}, "anchor": 0, "crop_width": {"Points": [{"interpolation": 2, "co": {"X": 1.0, "Y": -1.0}}]}, "perspective_c1_x": {"Points": [{"interpolation": 2, "co": {"X": 1.0, "Y": -1.0}}]}, "effects": [], "wave_color": {"alpha": {"Points": [{"handle_left": {"X": 0.5, "Y": 1.0}, "handle_type": 0, "interpolation": 0, "handle_right": {"X": 0.5, "Y": 0.0}, "co": {"X": 1.0, "Y": 255.0}}]}, "red": {"Points": [{"handle_left": {"X": 0.5, "Y": 1.0}, "handle_type": 0, "interpolation": 0, "handle_right": {"X": 0.5, "Y": 0.0}, "co": {"X": 1.0, "Y": 0.0}}]}, "green": {"Points": [{"handle_left": {"X": 0.5, "Y": 1.0}, "handle_type": 0, "interpolation": 0, "handle_right": {"X": 0.5, "Y": 0.0}, "co": {"X": 1.0, "Y": 123.0}}]}, "blue": {"Points": [{"handle_left": {"X": 0.5, "Y": 1.0}, "handle_type": 0, "interpolation": 0, "handle_right": {"X": 0.5, "Y": 0.0}, "co": {"X": 1.0, "Y": 255.0}}]}}, "title": "Title-05-All Four Titles.svg", "perspective_c3_x": {"Points": [{"interpolation": 2, "co": {"X": 1.0, "Y": -1.0}}]}, "display": 0, "id": "UTVCSP6ZNL", "location_x": {"Points": [{"interpolation": 2, "co": {"X": 1.0, "Y": 0.0}}, {"handle_left": {"X": 0.5, "Y": 1.0}, "handle_type": 0, "interpolation": 0, "handle_right": {"X": 0.5, "Y": 0.0}, "co": {"X": 150.0, "Y": 0.0}}, {"handle_left": {"X": 0.5, "Y": 1.0}, "handle_type": 0, "interpolation": 0, "handle_right": {"X": 0.5, "Y": 0.0}, "co": {"X": 174.0, "Y": -1.0}}]}, "gravity": 4, "rotation": {"Points": [{"interpolation": 2, "co": {"X": 1.0, "Y": 0.0}}]}, "shear_x": {"Points": [{"interpolation": 2, "co": {"X": 1.0, "Y": 0.0}}]}, "scale_y": {"Points": [{"interpolation": 2, "co": {"X": 1.0, "Y": 1.0}}]}, "scale_x": {"Points": [{"interpolation": 2, "co": {"X": 1.0, "Y": 1.0}}]}, "duration": 86400.0, "layer": 4, "alpha": {"Points": [{"interpolation": 2, "co": {"X": 1.0, "Y": 1.0}}]}, "shear_y": {"Points": [{"interpolation": 2, "co": {"X": 1.0, "Y": 0.0}}]}, "channel_filter": {"Points": [{"interpolation": 2, "co": {"X": 1.0, "Y": -1.0}}]}, "position": 7.529999999999999, "end": 7.220000000000001}, {"location_y": {"Points": [{"handle_left": {"X": 0.5, "Y": 1.0}, "handle_type": 0, "interpolation": 0, "handle_right": {"X": 0.5, "Y": 0.0}, "co": {"X": 1.0, "Y": 0.0}}, {"handle_left": {"X": 0.5, "Y": 1.0}, "handle_type": 0, "interpolation": 0, "handle_right": {"X": 0.5, "Y": 0.0}, "co": {"X": 1.0, "Y": 0.0}}, {"handle_left": {"X": 0.5, "Y": 1.0}, "handle_type": 0, "interpolation": 0, "handle_right": {"X": 0.5, "Y": 0.0}, "co": {"X": 25.0, "Y": 0.0}}, {"handle_left": {"X": 0.5, "Y": 1.0}, "handle_type": 0, "interpolation": 0, "handle_right": {"X": 0.5, "Y": 0.0}, "co": {"X": 217.0, "Y": 0.0}}, {"handle_left": {"X": 0.5, "Y": 1.0}, "handle_type": 0, "interpolation": 0, "handle_right": {"X": 0.5, "Y": 0.0}, "co": {"X": 241.0, "Y": 0.0}}, {"handle_left": {"X": 0.5, "Y": 1.0}, "handle_type": 0, "interpolation": 0, "handle_right": {"X": 0.5, "Y": 0.0}, "co": {"X": 153.0, "Y": 0.0}}, {"handle_left": {"X": 0.5, "Y": 1.0}, "handle_type": 0, "interpolation": 0, "handle_right": {"X": 0.5, "Y": 0.0}, "co": {"X": 177.0, "Y": 0.0}}]}, "scale": 1, "perspective_c1_y": {"Points": [{"interpolation": 2, "co": {"X": 1.0, "Y": -1.0}}]}, "has_audio": {"Points": [{"interpolation": 2, "co": {"X": 1.0, "Y": -1.0}}]}, "image": "/home/milind/.openshot_qt/thumbnail/EYET6E4WCX.png", "file_id": "EYET6E4WCX", "perspective_c3_y": {"Points": [{"interpolation": 2, "co": {"X": 1.0, "Y": -1.0}}]}, "volume": {"Points": [{"interpolation": 2, "co": {"X": 1.0, "Y": 1.0}}]}, "waveform": false, "channel_mapping": {"Points": [{"interpolation": 2, "co": {"X": 1.0, "Y": -1.0}}]}, "perspective_c4_y": {"Points": [{"interpolation": 2, "co": {"X": 1.0, "Y": -1.0}}]}, "start": 0, "perspective_c2_y": {"Points": [{"interpolation": 2, "co": {"X": 1.0, "Y": -1.0}}]}, "has_video": {"Points": [{"interpolation": 2, "co": {"X": 1.0, "Y": -1.0}}]}, "reader": {"channels": 0, "path": "/home/milind/Data/Projects/ProgressCard/intro.png", "duration": 86400.0, "has_audio": false, "video_stream_index": -1, "channel_layout": 4, "vcodec": "", "has_video": true, "pixel_ratio": {"num": 1, "den": 1}, "height": 169, "video_length": "2592000", "video_bit_rate": 0, "acodec": "", "sample_rate": 0, "file_size": "446836", "pixel_format": -1, "display_ratio": {"num": 661, "den": 169}, "fps": {"num": 30, "den": 1}, "video_timebase": {"num": 1, "den": 30}, "top_field_first": true, "width": 661, "has_single_image": true, "audio_stream_index": -1, "type": "QtImageReader", "audio_timebase": {"num": 1, "den": 1}, "interlaced_frame": false, "audio_bit_rate": 0}, "perspective_c4_x": {"Points": [{"interpolation": 2, "co": {"X": 1.0, "Y": -1.0}}]}, "perspective_c2_x": {"Points": [{"interpolation": 2, "co": {"X": 1.0, "Y": -1.0}}]}, "time": {"Points": [{"interpolation": 2, "co": {"X": 1.0, "Y": 1.0}}]}, "crop_x": {"Points": [{"interpolation": 2, "co": {"X": 1.0, "Y": 0.0}}]}, "crop_height": {"Points": [{"interpolation": 2, "co": {"X": 1.0, "Y": -1.0}}]}, "crop_y": {"Points": [{"interpolation": 2, "co": {"X": 1.0, "Y": 0.0}}]}, "anchor": 0, "crop_width": {"Points": [{"interpolation": 2, "co": {"X": 1.0, "Y": -1.0}}]}, "perspective_c1_x": {"Points": [{"interpolation": 2, "co": {"X": 1.0, "Y": -1.0}}]}, "effects": [], "wave_color": {"alpha": {"Points": [{"handle_left": {"X": 0.5, "Y": 1.0}, "handle_type": 0, "interpolation": 0, "handle_right": {"X": 0.5, "Y": 0.0}, "co": {"X": 1.0, "Y": 255.0}}]}, "red": {"Points": [{"handle_left": {"X": 0.5, "Y": 1.0}, "handle_type": 0, "interpolation": 0, "handle_right": {"X": 0.5, "Y": 0.0}, "co": {"X": 1.0, "Y": 0.0}}]}, "green": {"Points": [{"handle_left": {"X": 0.5, "Y": 1.0}, "handle_type": 0, "interpolation": 0, "handle_right": {"X": 0.5, "Y": 0.0}, "co": {"X": 1.0, "Y": 123.0}}]}, "blue": {"Points": [{"handle_left": {"X": 0.5, "Y": 1.0}, "handle_type": 0, "interpolation": 0, "handle_right": {"X": 0.5, "Y": 0.0}, "co": {"X": 1.0, "Y": 255.0}}]}}, "title": "intro.png", "perspective_c3_x": {"Points": [{"interpolation": 2, "co": {"X": 1.0, "Y": -1.0}}]}, "display": 0, "id": "QRWUU8C5AG", "location_x": {"Points": [{"handle_left": {"X": 0.5, "Y": 1.0}, "handle_type": 0, "interpolation": 0, "handle_right": {"X": 0.5, "Y": 0.0}, "co": {"X": 1.0, "Y": 0.0}}, {"handle_left": {"X": 0.5, "Y": 1.0}, "handle_type": 0, "interpolation": 0, "handle_right": {"X": 0.5, "Y": 0.0}, "co": {"X": 1.0, "Y": 1.0}}, {"handle_left": {"X": 0.5, "Y": 1.0}, "handle_type": 0, "interpolation": 0, "handle_right": {"X": 0.5, "Y": 0.0}, "co": {"X": 25.0, "Y": 0.0}}, {"handle_left": {"X": 0.5, "Y": 1.0}, "handle_type": 0, "interpolation": 0, "handle_right": {"X": 0.5, "Y": 0.0}, "co": {"X": 217.0, "Y": 0.0}}, {"handle_left": {"X": 0.5, "Y": 1.0}, "handle_type": 0, "interpolation": 0, "handle_right": {"X": 0.5, "Y": 0.0}, "co": {"X": 241.0, "Y": -1.0}}, {"handle_left": {"X": 0.5, "Y": 1.0}, "handle_type": 0, "interpolation": 0, "handle_right": {"X": 0.5, "Y": 0.0}, "co": {"X": 153.0, "Y": 0.0}}, {"handle_left": {"X": 0.5, "Y": 1.0}, "handle_type": 0, "interpolation": 0, "handle_right": {"X": 0.5, "Y": 0.0}, "co": {"X": 177.0, "Y": -1.0}}]}, "gravity": 4, "rotation": {"Points": [{"interpolation": 2, "co": {"X": 1.0, "Y": 0.0}}]}, "shear_x": {"Points": [{"interpolation": 2, "co": {"X": 1.0, "Y": 0.0}}]}, "scale_y": {"Points": [{"handle_left": {"X": 0.5, "Y": 1.0}, "handle_type": 0, "interpolation": 0, "handle_right": {"X": 0.5, "Y": 0.0}, "co": {"X": 1.0, "Y": 1.0}}]}, "scale_x": {"Points": [{"handle_left": {"X": 0.5, "Y": 1.0}, "handle_type": 0, "interpolation": 0, "handle_right": {"X": 0.5, "Y": 0.0}, "co": {"X": 1.0, "Y": 1.0}}]}, "duration": 86400.0, "layer": 5, "alpha": {"Points": [{"interpolation": 2, "co": {"X": 1.0, "Y": 1.0}}]}, "shear_y": {"Points": [{"interpolation": 2, "co": {"X": 1.0, "Y": 0.0}}]}, "channel_filter": {"Points": [{"interpolation": 2, "co": {"X": 1.0, "Y": -1.0}}]}, "position": 15.36, "end": 7.348333333333333}, {"has_audio": {"Points": [{"interpolation": 2, "co": {"X": 1.0, "Y": -1.0}}]}, "location_y": {"Points": [{"interpolation": 2, "co": {"X": 1.0, "Y": 0.0}}, {"interpolation": 1, "co": {"X": 803, "Y": -0.3199999928474426}}, {"interpolation": 1, "co": {"X": 1057, "Y": 0.0}}]}, "scale": 1, "perspective_c1_y": {"Points": [{"interpolation": 2, "co": {"X": 1.0, "Y": -1.0}}]}, "effects": [], "image": "/home/milind/.openshot_qt/thumbnail/XQEQ903ILK.png", "perspective_c3_y": {"Points": [{"interpolation": 2, "co": {"X": 1.0, "Y": -1.0}}]}, "volume": {"Points": [{"interpolation": 2, "co": {"X": 1.0, "Y": 1.0}}]}, "waveform": false, "channel_mapping": {"Points": [{"interpolation": 2, "co": {"X": 1.0, "Y": -1.0}}]}, "perspective_c4_y": {"Points": [{"interpolation": 2, "co": {"X": 1.0, "Y": -1.0}}]}, "start": 0, "perspective_c2_y": {"Points": [{"interpolation": 2, "co": {"X": 1.0, "Y": -1.0}}]}, "end": 42.258333333333326, "reader": {"channels": 0, "path": "/home/milind/Data/Projects/ProgressCard/06-Create Progress Card Template.mkv", "duration": 44.0, "has_audio": false, "width": 1366, "video_stream_index": 0, "channel_layout": 4, "vcodec": "h264", "audio_bit_rate": 0, "pixel_ratio": {"num": 1, "den": 1}, "height": 768, "video_length": "1100", "file_size": "394038", "acodec": "", "sample_rate": 0, "video_bit_rate": 0, "pixel_format": 0, "display_ratio": {"num": 683, "den": 384}, "fps": {"num": 25, "den": 1}, "video_timebase": {"num": 1, "den": 1000}, "top_field_first": true, "has_single_image": false, "audio_stream_index": -1, "type": "FFmpegReader", "audio_timebase": {"num": 1, "den": 1}, "interlaced_frame": false, "has_video": true}, "perspective_c4_x": {"Points": [{"interpolation": 2, "co": {"X": 1.0, "Y": -1.0}}]}, "perspective_c2_x": {"Points": [{"interpolation": 2, "co": {"X": 1.0, "Y": -1.0}}]}, "time": {"Points": [{"interpolation": 2, "co": {"X": 1.0, "Y": 1.0}}]}, "crop_x": {"Points": [{"interpolation": 2, "co": {"X": 1.0, "Y": 0.0}}]}, "crop_height": {"Points": [{"interpolation": 2, "co": {"X": 1.0, "Y": -1.0}}]}, "crop_y": {"Points": [{"interpolation": 2, "co": {"X": 1.0, "Y": 0.0}}]}, "anchor": 0, "crop_width": {"Points": [{"interpolation": 2, "co": {"X": 1.0, "Y": -1.0}}]}, "perspective_c1_x": {"Points": [{"interpolation": 2, "co": {"X": 1.0, "Y": -1.0}}]}, "file_id": "XQEQ903ILK", "wave_color": {"alpha": {"Points": [{"handle_left": {"X": 0.5, "Y": 1.0}, "handle_type": 0, "interpolation": 0, "handle_right": {"X": 0.5, "Y": 0.0}, "co": {"X": 1.0, "Y": 255.0}}]}, "red": {"Points": [{"handle_left": {"X": 0.5, "Y": 1.0}, "handle_type": 0, "interpolation": 0, "handle_right": {"X": 0.5, "Y": 0.0}, "co": {"X": 1.0, "Y": 0.0}}]}, "green": {"Points": [{"handle_left": {"X": 0.5, "Y": 1.0}, "handle_type": 0, "interpolation": 0, "handle_right": {"X": 0.5, "Y": 0.0}, "co": {"X": 1.0, "Y": 123.0}}]}, "blue": {"Points": [{"handle_left": {"X": 0.5, "Y": 1.0}, "handle_type": 0, "interpolation": 0, "handle_right": {"X": 0.5, "Y": 0.0}, "co": {"X": 1.0, "Y": 255.0}}]}}, "title": "06-Create Progress Card Template.mkv", "display": 0, "channel_filter": {"Points": [{"interpolation": 2, "co": {"X": 1.0, "Y": -1.0}}]}, "id": "TG13P8S1CP", "location_x": {"Points": [{"interpolation": 2, "co": {"X": 1.0, "Y": 0.0}}]}, "gravity": 4, "rotation": {"Points": [{"interpolation": 2, "co": {"X": 1.0, "Y": 0.0}}]}, "shear_x": {"Points": [{"interpolation": 2, "co": {"X": 1.0, "Y": 0.0}}]}, "scale_y": {"Points": [{"interpolation": 2, "co": {"X": 1.0, "Y": 1.0}}, {"interpolation": 1, "co": {"X": 803, "Y": 1.649999976158142}}, {"interpolation": 1, "co": {"X": 1057, "Y": 1.0}}]}, "scale_x": {"Points": [{"interpolation": 2, "co": {"X": 1.0, "Y": 1.0}}, {"interpolation": 1, "co": {"X": 803, "Y": 1.649999976158142}}, {"interpolation": 1, "co": {"X": 1057, "Y": 1.0}}]}, "duration": 44.0, "layer": 5, "alpha": {"Points": [{"handle_left": {"X": 0.5, "Y": 1.0}, "handle_type": 0, "interpolation": 0, "handle_right": {"X": 0.5, "Y": 0.0}, "co": {"X": 1.0, "Y": 1.0}}, {"handle_left": {"X": 0.5, "Y": 1.0}, "handle_type": 0, "interpolation": 0, "handle_right": {"X": 0.5, "Y": 0.0}, "co": {"X": 1.0, "Y": 0.0}}, {"handle_left": {"X": 0.5, "Y": 1.0}, "handle_type": 0, "interpolation": 0, "handle_right": {"X": 0.5, "Y": 0.0}, "co": {"X": 73.0, "Y": 1.0}}, {"handle_left": {"X": 0.5, "Y": 1.0}, "handle_type": 0, "interpolation": 0, "handle_right": {"X": 0.5, "Y": 0.0}, "co": {"X": 943.0, "Y": 1.0}}, {"handle_left": {"X": 0.5, "Y": 1.0}, "handle_type": 0, "interpolation": 0, "handle_right": {"X": 0.5, "Y": 0.0}, "co": {"X": 1015.0, "Y": 0.0}}]}, "shear_y": {"Points": [{"interpolation": 2, "co": {"X": 1.0, "Y": 0.0}}]}, "perspective_c3_x": {"Points": [{"interpolation": 2, "co": {"X": 1.0, "Y": -1.0}}]}, "position": 23.7, "has_video": {"Points": [{"interpolation": 2, "co": {"X": 1.0, "Y": -1.0}}]}}], "value": {"location_y": {"Points": [{"interpolation": 2, "co": {"X": 1.0, "Y": 0.0}}, {"interpolation": 1, "co": {"X": 192, "Y": 0.45038167938931295}}]}, "scale": 1, "duration": 59.0, "has_audio": {"Points": [{"interpolation": 2, "co": {"X": 1.0, "Y": -1.0}}]}, "image": "/home/milind/.openshot_qt/thumbnail/IV7EF51HD1.png", "perspective_c3_y": {"Points": [{"interpolation": 2, "co": {"X": 1.0, "Y": -1.0}}]}, "volume": {"Points": [{"interpolation": 2, "co": {"X": 1.0, "Y": 1.0}}]}, "waveform": false, "channel_mapping": {"Points": [{"interpolation": 2, "co": {"X": 1.0, "Y": -1.0}}]}, "perspective_c4_y": {"Points": [{"interpolation": 2, "co": {"X": 1.0, "Y": -1.0}}]}, "start": 0, "perspective_c2_y": {"Points": [{"interpolation": 2, "co": {"X": 1.0, "Y": -1.0}}]}, "has_video": {"Points": [{"interpolation": 2, "co": {"X": 1.0, "Y": -1.0}}]}, "reader": {"channels": 0, "path": "/home/milind/Data/Projects/ProgressCard/07-Entered Record of 10 students.mkv", "duration": 59.0, "has_audio": false, "video_stream_index": 0, "top_field_first": true, "vcodec": "h264", "has_video": true, "pixel_ratio": {"num": 1, "den": 1}, "height": 768, "video_length": "1475", "video_bit_rate": 0, "acodec": "", "sample_rate": 0, "file_size": "595628", "pixel_format": 0, "fps": {"num": 25, "den": 1}, "video_timebase": {"num": 1, "den": 1000}, "display_ratio": {"num": 683, "den": 384}, "width": 1366, "has_single_image": false, "audio_stream_index": -1, "type": "FFmpegReader", "channel_layout": 4, "audio_timebase": {"num": 1, "den": 1}, "interlaced_frame": false, "audio_bit_rate": 0}, "perspective_c4_x": {"Points": [{"interpolation": 2, "co": {"X": 1.0, "Y": -1.0}}]}, "perspective_c2_x": {"Points": [{"interpolation": 2, "co": {"X": 1.0, "Y": -1.0}}]}, "time": {"Points": [{"interpolation": 2, "co": {"X": 1.0, "Y": 1.0}}]}, "crop_x": {"Points": [{"interpolation": 2, "co": {"X": 1.0, "Y": 0.0}}]}, "crop_height": {"Points": [{"interpolation": 2, "co": {"X": 1.0, "Y": -1.0}}]}, "crop_y": {"Points": [{"interpolation": 2, "co": {"X": 1.0, "Y": 0.0}}]}, "anchor": 0, "crop_width": {"Points": [{"interpolation": 2, "co": {"X": 1.0, "Y": -1.0}}]}, "shear_y": {"Points": [{"interpolation": 2, "co": {"X": 1.0, "Y": 0.0}}]}, "effects": [], "file_id": "IV7EF51HD1", "wave_color": {"alpha": {"Points": [{"handle_left": {"X": 0.5, "Y": 1.0}, "handle_type": 0, "interpolation": 0, "handle_right": {"X": 0.5, "Y": 0.0}, "co": {"X": 1.0, "Y": 255.0}}]}, "red": {"Points": [{"handle_left": {"X": 0.5, "Y": 1.0}, "handle_type": 0, "interpolation": 0, "handle_right": {"X": 0.5, "Y": 0.0}, "co": {"X": 1.0, "Y": 0.0}}]}, "green": {"Points": [{"handle_left": {"X": 0.5, "Y": 1.0}, "handle_type": 0, "interpolation": 0, "handle_right": {"X": 0.5, "Y": 0.0}, "co": {"X": 1.0, "Y": 123.0}}]}, "blue": {"Points": [{"handle_left": {"X": 0.5, "Y": 1.0}, "handle_type": 0, "interpolation": 0, "handle_right": {"X": 0.5, "Y": 0.0}, "co": {"X": 1.0, "Y": 255.0}}]}}, "title": "07-Entered Record of 10 students.mkv", "display": 0, "perspective_c1_y": {"Points": [{"interpolation": 2, "co": {"X": 1.0, "Y": -1.0}}]}, "id": "KWNI3SZORH", "location_x": {"Points": [{"interpolation": 2, "co": {"X": 1.0, "Y": 0.0}}, {"interpolation": 1, "co": {"X": 192, "Y": 0.43511450381679384}}]}, "gravity": 4, "scale_x": {"Points": [{"interpolation": 2, "co": {"X": 1.0, "Y": 1.0}}, {"interpolation": 1, "co": {"X": 192, "Y": 1.899999976158142}}]}, "rotation": {"Points": [{"interpolation": 2, "co": {"X": 1.0, "Y": 0.0}}]}, "shear_x": {"Points": [{"interpolation": 2, "co": {"X": 1.0, "Y": 0.0}}]}, "scale_y": {"Points": [{"interpolation": 2, "co": {"X": 1.0, "Y": 1.0}}, {"interpolation": 1, "co": {"X": 192, "Y": 1.899999976158142}}]}, "channel_filter": {"Points": [{"interpolation": 2, "co": {"X": 1.0, "Y": -1.0}}]}, "layer": 5, "alpha": {"Points": [{"interpolation": 2, "co": {"X": 1.0, "Y": 1.0}}, {"handle_left": {"X": 0.5, "Y": 1.0}, "handle_type": 0, "interpolation": 0, "handle_right": {"X": 0.5, "Y": 0.0}, "co": {"X": 1.0, "Y": 0.0}}, {"handle_left": {"X": 0.5, "Y": 1.0}, "handle_type": 0, "interpolation": 0, "handle_right": {"X": 0.5, "Y": 0.0}, "co": {"X": 73.0, "Y": 1.0}}, {"handle_left": {"X": 0.5, "Y": 1.0}, "handle_type": 0, "interpolation": 0, "handle_right": {"X": 0.5, "Y": 0.0}, "co": {"X": 1345.0, "Y": 1.0}}, {"handle_left": {"X": 0.5, "Y": 1.0}, "handle_type": 0, "interpolation": 0, "handle_right": {"X": 0.5, "Y": 0.0}, "co": {"X": 1417.0, "Y": 0.0}}]}, "perspective_c1_x": {"Points": [{"interpolation": 2, "co": {"X": 1.0, "Y": -1.0}}]}, "perspective_c3_x": {"Points": [{"interpolation": 2, "co": {"X": 1.0, "Y": -1.0}}]}, "position": 65.94, "end": 59}, "type": "insert"}, {"key": ["clips", {"id": "KWNI3SZORH"}], "partial": false, "old_values": {"image": "/home/milind/.openshot_qt/thumbnail/IV7EF51HD1.png", "scale": 1, "duration": 59.0, "effects": [], "location_y": {"Points": [{"interpolation": 2, "co": {"X": 1.0, "Y": 0.0}}, {"interpolation": 1, "co": {"X": 192, "Y": 0.45038167938931295}}]}, "file_id": "IV7EF51HD1", "perspective_c3_y": {"Points": [{"interpolation": 2, "co": {"X": 1.0, "Y": -1.0}}]}, "volume": {"Points": [{"interpolation": 2, "co": {"X": 1.0, "Y": 1.0}}]}, "waveform": false, "channel_mapping": {"Points": [{"interpolation": 2, "co": {"X": 1.0, "Y": -1.0}}]}, "perspective_c4_y": {"Points": [{"interpolation": 2, "co": {"X": 1.0, "Y": -1.0}}]}, "start": 0, "perspective_c2_y": {"Points": [{"interpolation": 2, "co": {"X": 1.0, "Y": -1.0}}]}, "has_video": {"Points": [{"interpolation": 2, "co": {"X": 1.0, "Y": -1.0}}]}, "reader": {"channels": 0, "path": "/home/milind/Data/Projects/ProgressCard/07-Entered Record of 10 students.mkv", "duration": 59.0, "has_audio": false, "video_stream_index": 0, "display_ratio": {"num": 683, "den": 384}, "vcodec": "h264", "audio_bit_rate": 0, "has_video": true, "pixel_ratio": {"num": 1, "den": 1}, "height": 768, "video_length": "1475", "video_bit_rate": 0, "acodec": "", "sample_rate": 0, "file_size": "595628", "pixel_format": 0, "fps": {"num": 25, "den": 1}, "video_timebase": {"num": 1, "den": 1000}, "top_field_first": true, "width": 1366, "has_single_image": false, "audio_stream_index": -1, "type": "FFmpegReader", "channel_layout": 4, "interlaced_frame": false, "audio_timebase": {"num": 1, "den": 1}}, "perspective_c4_x": {"Points": [{"interpolation": 2, "co": {"X": 1.0, "Y": -1.0}}]}, "perspective_c2_x": {"Points": [{"interpolation": 2, "co": {"X": 1.0, "Y": -1.0}}]}, "time": {"Points": [{"interpolation": 2, "co": {"X": 1.0, "Y": 1.0}}]}, "crop_x": {"Points": [{"interpolation": 2, "co": {"X": 1.0, "Y": 0.0}}]}, "crop_height": {"Points": [{"interpolation": 2, "co": {"X": 1.0, "Y": -1.0}}]}, "crop_y": {"Points": [{"interpolation": 2, "co": {"X": 1.0, "Y": 0.0}}]}, "anchor": 0, "crop_width": {"Points": [{"interpolation": 2, "co": {"X": 1.0, "Y": -1.0}}]}, "perspective_c1_x": {"Points": [{"interpolation": 2, "co": {"X": 1.0, "Y": -1.0}}]}, "has_audio": {"Points": [{"interpolation": 2, "co": {"X": 1.0, "Y": -1.0}}]}, "wave_color": {"alpha": {"Points": [{"handle_left": {"X": 0.5, "Y": 1.0}, "handle_type": 0, "interpolation": 0, "handle_right": {"X": 0.5, "Y": 0.0}, "co": {"X": 1.0, "Y": 255.0}}]}, "green": {"Points": [{"handle_left": {"X": 0.5, "Y": 1.0}, "handle_type": 0, "interpolation": 0, "handle_right": {"X": 0.5, "Y": 0.0}, "co": {"X": 1.0, "Y": 123.0}}]}, "red": {"Points": [{"handle_left": {"X": 0.5, "Y": 1.0}, "handle_type": 0, "interpolation": 0, "handle_right": {"X": 0.5, "Y": 0.0}, "co": {"X": 1.0, "Y": 0.0}}]}, "blue": {"Points": [{"handle_left": {"X": 0.5, "Y": 1.0}, "handle_type": 0, "interpolation": 0, "handle_right": {"X": 0.5, "Y": 0.0}, "co": {"X": 1.0, "Y": 255.0}}]}}, "title": "07-Entered Record of 10 students.mkv", "display": 0, "perspective_c1_y": {"Points": [{"interpolation": 2, "co": {"X": 1.0, "Y": -1.0}}]}, "id": "KWNI3SZORH", "location_x": {"Points": [{"interpolation": 2, "co": {"X": 1.0, "Y": 0.0}}, {"interpolation": 1, "co": {"X": 192, "Y": 0.43511450381679384}}]}, "gravity": 4, "scale_x": {"Points": [{"interpolation": 2, "co": {"X": 1.0, "Y": 1.0}}, {"interpolation": 1, "co": {"X": 192, "Y": 1.899999976158142}}]}, "rotation": {"Points": [{"interpolation": 2, "co": {"X": 1.0, "Y": 0.0}}]}, "shear_x": {"Points": [{"interpolation": 2, "co": {"X": 1.0, "Y": 0.0}}]}, "scale_y": {"Points": [{"interpolation": 2, "co": {"X": 1.0, "Y": 1.0}}, {"interpolation": 1, "co": {"X": 192, "Y": 1.899999976158142}}]}, "channel_filter": {"Points": [{"interpolation": 2, "co": {"X": 1.0, "Y": -1.0}}]}, "layer": 5, "alpha": {"Points": [{"interpolation": 2, "co": {"X": 1.0, "Y": 1.0}}, {"handle_left": {"X": 0.5, "Y": 1.0}, "handle_type": 0, "interpolation": 0, "handle_right": {"X": 0.5, "Y": 0.0}, "co": {"X": 1.0, "Y": 0.0}}, {"handle_left": {"X": 0.5, "Y": 1.0}, "handle_type": 0, "interpolation": 0, "handle_right": {"X": 0.5, "Y": 0.0}, "co": {"X": 73.0, "Y": 1.0}}, {"handle_left": {"X": 0.5, "Y": 1.0}, "handle_type": 0, "interpolation": 0, "handle_right": {"X": 0.5, "Y": 0.0}, "co": {"X": 1345.0, "Y": 1.0}}, {"handle_left": {"X": 0.5, "Y": 1.0}, "handle_type": 0, "interpolation": 0, "handle_right": {"X": 0.5, "Y": 0.0}, "co": {"X": 1417.0, "Y": 0.0}}]}, "shear_y": {"Points": [{"interpolation": 2, "co": {"X": 1.0, "Y": 0.0}}]}, "perspective_c3_x": {"Points": [{"interpolation": 2, "co": {"X": 1.0, "Y": -1.0}}]}, "position": 76.86, "end": 59}, "value": {"id": "KWNI3SZORH", "start": 0, "end": 59, "image": "/home/milind/.openshot_qt/thumbnail/IV7EF51HD1.png", "layer": 5, "position": 65.94}, "type": "update"}]}, "settings": {}, "clips": [{"location_y": {"Points": [{"interpolation": 2, "co": {"X": 1.0, "Y": 0.0}}]}, "scale": 1, "perspective_c1_y": {"Points": [{"interpolation": 2, "co": {"X": 1.0, "Y": -1.0}}]}, "file_id": "RBDOM40FGQ", "image": "../../../.openshot_qt/thumbnail/RBDOM40FGQ.png", "perspective_c3_y": {"Points": [{"interpolation": 2, "co": {"X": 1.0, "Y": -1.0}}]}, "volume": {"Points": [{"interpolation": 2, "co": {"X": 1.0, "Y": 1.0}}]}, "waveform": false, "channel_mapping": {"Points": [{"interpolation": 2, "co": {"X": 1.0, "Y": -1.0}}]}, "perspective_c4_y": {"Points": [{"interpolation": 2, "co": {"X": 1.0, "Y": -1.0}}]}, "start": 0.0, "reader": {"channels": 0, "path": "Title-01.svg", "duration": 86400.0, "has_audio": false, "video_stream_index": -1, "top_field_first": true, "vcodec": "", "audio_bit_rate": 0, "pixel_ratio": {"num": 1, "den": 1}, "has_video": true, "height": 3827, "video_length": "2592000", "video_bit_rate": 0, "acodec": "", "sample_rate": 0, "file_size": "104140324", "pixel_format": -1, "fps": {"num": 30, "den": 1}, "video_timebase": {"num": 1, "den": 30}, "display_ratio": {"num": 6803, "den": 3827}, "width": 6803, "has_single_image": true, "audio_stream_index": -1, "type": "QtImageReader", "channel_layout": 4, "interlaced_frame": false, "audio_timebase": {"num": 1, "den": 1}}, "perspective_c2_y": {"Points": [{"interpolation": 2, "co": {"X": 1.0, "Y": -1.0}}]}, "has_video": {"Points": [{"interpolation": 2, "co": {"X": 1.0, "Y": -1.0}}]}, "anchor": 0, "perspective_c4_x": {"Points": [{"interpolation": 2, "co": {"X": 1.0, "Y": -1.0}}]}, "perspective_c2_x": {"Points": [{"interpolation": 2, "co": {"X": 1.0, "Y": -1.0}}]}, "time": {"Points": [{"interpolation": 2, "co": {"X": 1.0, "Y": 1.0}}]}, "crop_x": {"Points": [{"interpolation": 2, "co": {"X": 1.0, "Y": 0.0}}]}, "crop_height": {"Points": [{"interpolation": 2, "co": {"X": 1.0, "Y": -1.0}}]}, "crop_y": {"Points": [{"interpolation": 2, "co": {"X": 1.0, "Y": 0.0}}]}, "duration": 86400.0, "crop_width": {"Points": [{"interpolation": 2, "co": {"X": 1.0, "Y": -1.0}}]}, "perspective_c1_x": {"Points": [{"interpolation": 2, "co": {"X": 1.0, "Y": -1.0}}]}, "effects": [], "has_audio": {"Points": [{"interpolation": 2, "co": {"X": 1.0, "Y": -1.0}}]}, "wave_color": {"alpha": {"Points": [{"handle_left": {"X": 0.5, "Y": 1.0}, "handle_type": 0, "interpolation": 0, "handle_right": {"X": 0.5, "Y": 0.0}, "co": {"X": 1.0, "Y": 255.0}}]}, "red": {"Points": [{"handle_left": {"X": 0.5, "Y": 1.0}, "handle_type": 0, "interpolation": 0, "handle_right": {"X": 0.5, "Y": 0.0}, "co": {"X": 1.0, "Y": 0.0}}]}, "green": {"Points": [{"handle_left": {"X": 0.5, "Y": 1.0}, "handle_type": 0, "interpolation": 0, "handle_right": {"X": 0.5, "Y": 0.0}, "co": {"X": 1.0, "Y": 123.0}}]}, "blue": {"Points": [{"handle_left": {"X": 0.5, "Y": 1.0}, "handle_type": 0, "interpolation": 0, "handle_right": {"X": 0.5, "Y": 0.0}, "co": {"X": 1.0, "Y": 255.0}}]}}, "title": "Title-01.svg", "display": 0, "channel_filter": {"Points": [{"interpolation": 2, "co": {"X": 1.0, "Y": -1.0}}]}, "id": "B39BCXR0EX", "location_x": {"Points": [{"interpolation": 2, "co": {"X": 1.0, "Y": 0.0}}]}, "gravity": 4, "rotation": {"Points": [{"interpolation": 2, "co": {"X": 1.0, "Y": 0.0}}]}, "shear_x": {"Points": [{"interpolation": 2, "co": {"X": 1.0, "Y": 0.0}}]}, "scale_y": {"Points": [{"interpolation": 2, "co": {"X": 1.0, "Y": 1.0}}]}, "scale_x": {"Points": [{"interpolation": 2, "co": {"X": 1.0, "Y": 1.0}}]}, "layer": 3, "alpha": {"Points": [{"interpolation": 2, "co": {"X": 1.0, "Y": 1.0}}]}, "shear_y": {"Points": [{"interpolation": 2, "co": {"X": 1.0, "Y": 0.0}}]}, "perspective_c3_x": {"Points": [{"interpolation": 2, "co": {"X": 1.0, "Y": -1.0}}]}, "position": 44.58, "end": 10.0}, {"has_audio": {"Points": [{"interpolation": 2, "co": {"X": 1.0, "Y": -1.0}}]}, "location_y": {"Points": [{"handle_left": {"X": 0.5, "Y": 1.0}, "handle_type": 0, "interpolation": 0, "handle_right": {"X": 0.5, "Y": 0.0}, "co": {"X": 1.0, "Y": 0.0}}, {"handle_left": {"X": 0.5, "Y": 1.0}, "handle_type": 0, "interpolation": 0, "handle_right": {"X": 0.5, "Y": 0.0}, "co": {"X": 1.0, "Y": 0.0}}, {"handle_left": {"X": 0.5, "Y": 1.0}, "handle_type": 0, "interpolation": 0, "handle_right": {"X": 0.5, "Y": 0.0}, "co": {"X": 25.0, "Y": 0.0}}]}, "scale": 1, "perspective_c1_y": {"Points": [{"interpolation": 2, "co": {"X": 1.0, "Y": -1.0}}]}, "file_id": "RBDOM40FGQ", "image": "../../../.openshot_qt/thumbnail/RBDOM40FGQ.png", "perspective_c3_y": {"Points": [{"interpolation": 2, "co": {"X": 1.0, "Y": -1.0}}]}, "volume": {"Points": [{"interpolation": 2, "co": {"X": 1.0, "Y": 1.0}}]}, "waveform": false, "channel_mapping": {"Points": [{"interpolation": 2, "co": {"X": 1.0, "Y": -1.0}}]}, "perspective_c4_y": {"Points": [{"interpolation": 2, "co": {"X": 1.0, "Y": -1.0}}]}, "start": 0, "perspective_c2_y": {"Points": [{"interpolation": 2, "co": {"X": 1.0, "Y": -1.0}}]}, "has_video": {"Points": [{"interpolation": 2, "co": {"X": 1.0, "Y": -1.0}}]}, "anchor": 0, "reader": {"channels": 0, "path": "Title-01.svg", "duration": 86400.0, "has_audio": false, "video_stream_index": -1, "top_field_first": true, "vcodec": "", "audio_bit_rate": 0, "pixel_ratio": {"num": 1, "den": 1}, "has_video": true, "height": 3827, "video_length": "2592000", "video_bit_rate": 0, "acodec": "", "sample_rate": 0, "file_size": "104140324", "pixel_format": -1, "fps": {"num": 30, "den": 1}, "video_timebase": {"num": 1, "den": 30}, "display_ratio": {"num": 6803, "den": 3827}, "width": 6803, "has_single_image": true, "audio_stream_index": -1, "type": "QtImageReader", "channel_layout": 4, "interlaced_frame": false, "audio_timebase": {"num": 1, "den": 1}}, "perspective_c4_x": {"Points": [{"interpolation": 2, "co": {"X": 1.0, "Y": -1.0}}]}, "perspective_c2_x": {"Points": [{"interpolation": 2, "co": {"X": 1.0, "Y": -1.0}}]}, "time": {"Points": [{"interpolation": 2, "co": {"X": 1.0, "Y": 1.0}}]}, "crop_x": {"Points": [{"interpolation": 2, "co": {"X": 1.0, "Y": 0.0}}]}, "crop_height": {"Points": [{"interpolation": 2, "co": {"X": 1.0, "Y": -1.0}}]}, "crop_y": {"Points": [{"interpolation": 2, "co": {"X": 1.0, "Y": 0.0}}]}, "duration": 86400.0, "display": 0, "crop_width": {"Points": [{"interpolation": 2, "co": {"X": 1.0, "Y": -1.0}}]}, "perspective_c1_x": {"Points": [{"interpolation": 2, "co": {"X": 1.0, "Y": -1.0}}]}, "effects": [], "gravity": 4, "wave_color": {"alpha": {"Points": [{"handle_left": {"X": 0.5, "Y": 1.0}, "handle_type": 0, "interpolation": 0, "handle_right": {"X": 0.5, "Y": 0.0}, "co": {"X": 1.0, "Y": 255.0}}]}, "red": {"Points": [{"handle_left": {"X": 0.5, "Y": 1.0}, "handle_type": 0, "interpolation": 0, "handle_right": {"X": 0.5, "Y": 0.0}, "co": {"X": 1.0, "Y": 0.0}}]}, "green": {"Points": [{"handle_left": {"X": 0.5, "Y": 1.0}, "handle_type": 0, "interpolation": 0, "handle_right": {"X": 0.5, "Y": 0.0}, "co": {"X": 1.0, "Y": 123.0}}]}, "blue": {"Points": [{"handle_left": {"X": 0.5, "Y": 1.0}, "handle_type": 0, "interpolation": 0, "handle_right": {"X": 0.5, "Y": 0.0}, "co": {"X": 1.0, "Y": 255.0}}]}}, "title": "Title-01.svg", "channel_filter": {"Points": [{"interpolation": 2, "co": {"X": 1.0, "Y": -1.0}}]}, "id": "RH0T0F5TSV", "location_x": {"Points": [{"handle_left": {"X": 0.5, "Y": 1.0}, "handle_type": 0, "interpolation": 0, "handle_right": {"X": 0.5, "Y": 0.0}, "co": {"X": 1.0, "Y": 0.0}}, {"handle_left": {"X": 0.5, "Y": 1.0}, "handle_type": 0, "interpolation": 0, "handle_right": {"X": 0.5, "Y": 0.0}, "co": {"X": 1.0, "Y": 1.0}}, {"handle_left": {"X": 0.5, "Y": 1.0}, "handle_type": 0, "interpolation": 0, "handle_right": {"X": 0.5, "Y": 0.0}, "co": {"X": 25.0, "Y": 0.0}}]}, "rotation": {"Points": [{"interpolation": 2, "co": {"X": 1.0, "Y": 0.0}}]}, "shear_x": {"Points": [{"interpolation": 2, "co": {"X": 1.0, "Y": 0.0}}]}, "scale_y": {"Points": [{"handle_left": {"X": 0.5, "Y": 1.0}, "handle_type": 0, "interpolation": 0, "handle_right": {"X": 0.5, "Y": 0.0}, "co": {"X": 1.0, "Y": 1.0}}]}, "scale_x": {"Points": [{"handle_left": {"X": 0.5, "Y": 1.0}, "handle_type": 0, "interpolation": 0, "handle_right": {"X": 0.5, "Y": 0.0}, "co": {"X": 1.0, "Y": 1.0}}]}, "layer": 0, "alpha": {"Points": [{"interpolation": 2, "co": {"X": 1.0, "Y": 1.0}}]}, "shear_y": {"Points": [{"interpolation": 2, "co": {"X": 1.0, "Y": 0.0}}]}, "perspective_c3_x": {"Points": [{"interpolation": 2, "co": {"X": 1.0, "Y": -1.0}}]}, "position": 2.4, "end": 5.891666666666666}, {"has_audio": {"Points": [{"interpolation": 2, "co": {"X": 1.0, "Y": -1.0}}]}, "location_y": {"Points": [{"interpolation": 2, "co": {"X": 1.0, "Y": 0.0}}, {"handle_left": {"X": 0.5, "Y": 1.0}, "handle_type": 0, "interpolation": 0, "handle_right": {"X": 0.5, "Y": 0.0}, "co": {"X": 1.0, "Y": 0.0}}, {"handle_left": {"X": 0.5, "Y": 1.0}, "handle_type": 0, "interpolation": 0, "handle_right": {"X": 0.5, "Y": 0.0}, "co": {"X": 25.0, "Y": 0.0}}]}, "scale": 1, "perspective_c1_y": {"Points": [{"interpolation": 2, "co": {"X": 1.0, "Y": -1.0}}]}, "file_id": "5QW60D58CB", "image": "../../../.openshot_qt/thumbnail/5QW60D58CB.png", "perspective_c3_y": {"Points": [{"interpolation": 2, "co": {"X": 1.0, "Y": -1.0}}]}, "volume": {"Points": [{"interpolation": 2, "co": {"X": 1.0, "Y": 1.0}}]}, "waveform": false, "channel_mapping": {"Points": [{"interpolation": 2, "co": {"X": 1.0, "Y": -1.0}}]}, "perspective_c4_y": {"Points": [{"interpolation": 2, "co": {"X": 1.0, "Y": -1.0}}]}, "start": 0, "perspective_c2_y": {"Points": [{"interpolation": 2, "co": {"X": 1.0, "Y": -1.0}}]}, "has_video": {"Points": [{"interpolation": 2, "co": {"X": 1.0, "Y": -1.0}}]}, "anchor": 0, "reader": {"channels": 0, "path": "Title-02.svg", "duration": 86400.0, "has_audio": false, "video_stream_index": -1, "top_field_first": true, "vcodec": "", "audio_bit_rate": 0, "pixel_ratio": {"num": 1, "den": 1}, "has_video": true, "height": 3827, "video_length": "2592000", "video_bit_rate": 0, "acodec": "", "sample_rate": 0, "file_size": "104140324", "pixel_format": -1, "fps": {"num": 30, "den": 1}, "video_timebase": {"num": 1, "den": 30}, "display_ratio": {"num": 6803, "den": 3827}, "width": 6803, "has_single_image": true, "audio_stream_index": -1, "type": "QtImageReader", "channel_layout": 4, "interlaced_frame": false, "audio_timebase": {"num": 1, "den": 1}}, "perspective_c4_x": {"Points": [{"interpolation": 2, "co": {"X": 1.0, "Y": -1.0}}]}, "perspective_c2_x": {"Points": [{"interpolation": 2, "co": {"X": 1.0, "Y": -1.0}}]}, "time": {"Points": [{"interpolation": 2, "co": {"X": 1.0, "Y": 1.0}}]}, "crop_x": {"Points": [{"interpolation": 2, "co": {"X": 1.0, "Y": 0.0}}]}, "crop_height": {"Points": [{"interpolation": 2, "co": {"X": 1.0, "Y": -1.0}}]}, "crop_y": {"Points": [{"interpolation": 2, "co": {"X": 1.0, "Y": 0.0}}]}, "duration": 86400.0, "display": 0, "crop_width": {"Points": [{"interpolation": 2, "co": {"X": 1.0, "Y": -1.0}}]}, "perspective_c1_x": {"Points": [{"interpolation": 2, "co": {"X": 1.0, "Y": -1.0}}]}, "effects": [], "gravity": 4, "wave_color": {"alpha": {"Points": [{"handle_left": {"X": 0.5, "Y": 1.0}, "handle_type": 0, "interpolation": 0, "handle_right": {"X": 0.5, "Y": 0.0}, "co": {"X": 1.0, "Y": 255.0}}]}, "red": {"Points": [{"handle_left": {"X": 0.5, "Y": 1.0}, "handle_type": 0, "interpolation": 0, "handle_right": {"X": 0.5, "Y": 0.0}, "co": {"X": 1.0, "Y": 0.0}}]}, "green": {"Points": [{"handle_left": {"X": 0.5, "Y": 1.0}, "handle_type": 0, "interpolation": 0, "handle_right": {"X": 0.5, "Y": 0.0}, "co": {"X": 1.0, "Y": 123.0}}]}, "blue": {"Points": [{"handle_left": {"X": 0.5, "Y": 1.0}, "handle_type": 0, "interpolation": 0, "handle_right": {"X": 0.5, "Y": 0.0}, "co": {"X": 1.0, "Y": 255.0}}]}}, "title": "Title-02.svg", "channel_filter": {"Points": [{"interpolation": 2, "co": {"X": 1.0, "Y": -1.0}}]}, "id": "3OCKSFXMGL", "location_x": {"Points": [{"interpolation": 2, "co": {"X": 1.0, "Y": 0.0}}, {"handle_left": {"X": 0.5, "Y": 1.0}, "handle_type": 0, "interpolation": 0, "handle_right": {"X": 0.5, "Y": 0.0}, "co": {"X": 1.0, "Y": 1.0}}, {"handle_left": {"X": 0.5, "Y": 1.0}, "handle_type": 0, "interpolation": 0, "handle_right": {"X": 0.5, "Y": 0.0}, "co": {"X": 25.0, "Y": 0.0}}]}, "rotation": {"Points": [{"interpolation": 2, "co": {"X": 1.0, "Y": 0.0}}]}, "shear_x": {"Points": [{"interpolation": 2, "co": {"X": 1.0, "Y": 0.0}}]}, "scale_y": {"Points": [{"interpolation": 2, "co": {"X": 1.0, "Y": 1.0}}]}, "scale_x": {"Points": [{"interpolation": 2, "co": {"X": 1.0, "Y": 1.0}}]}, "layer": 1, "alpha": {"Points": [{"interpolation": 2, "co": {"X": 1.0, "Y": 1.0}}]}, "shear_y": {"Points": [{"interpolation": 2, "co": {"X": 1.0, "Y": 0.0}}]}, "perspective_c3_x": {"Points": [{"interpolation": 2, "co": {"X": 1.0, "Y": -1.0}}]}, "position": 3.63, "end": 4.661666666666666}, {"has_audio": {"Points": [{"interpolation": 2, "co": {"X": 1.0, "Y": -1.0}}]}, "location_y": {"Points": [{"interpolation": 2, "co": {"X": 1.0, "Y": 0.0}}, {"handle_left": {"X": 0.5, "Y": 1.0}, "handle_type": 0, "interpolation": 0, "handle_right": {"X": 0.5, "Y": 0.0}, "co": {"X": 1.0, "Y": 0.0}}, {"handle_left": {"X": 0.5, "Y": 1.0}, "handle_type": 0, "interpolation": 0, "handle_right": {"X": 0.5, "Y": 0.0}, "co": {"X": 25.0, "Y": 0.0}}]}, "scale": 1, "perspective_c1_y": {"Points": [{"interpolation": 2, "co": {"X": 1.0, "Y": -1.0}}]}, "file_id": "1UGFFUXPZG", "image": "../../../.openshot_qt/thumbnail/1UGFFUXPZG.png", "perspective_c3_y": {"Points": [{"interpolation": 2, "co": {"X": 1.0, "Y": -1.0}}]}, "volume": {"Points": [{"interpolation": 2, "co": {"X": 1.0, "Y": 1.0}}]}, "waveform": false, "channel_mapping": {"Points": [{"interpolation": 2, "co": {"X": 1.0, "Y": -1.0}}]}, "perspective_c4_y": {"Points": [{"interpolation": 2, "co": {"X": 1.0, "Y": -1.0}}]}, "start": 0, "perspective_c2_y": {"Points": [{"interpolation": 2, "co": {"X": 1.0, "Y": -1.0}}]}, "has_video": {"Points": [{"interpolation": 2, "co": {"X": 1.0, "Y": -1.0}}]}, "anchor": 0, "reader": {"channels": 0, "path": "Title-03.svg", "duration": 86400.0, "has_audio": false, "video_stream_index": -1, "top_field_first": true, "vcodec": "", "audio_bit_rate": 0, "pixel_ratio": {"num": 1, "den": 1}, "has_video": true, "height": 3827, "video_length": "2592000", "video_bit_rate": 0, "acodec": "", "sample_rate": 0, "file_size": "104140324", "pixel_format": -1, "fps": {"num": 30, "den": 1}, "video_timebase": {"num": 1, "den": 30}, "display_ratio": {"num": 6803, "den": 3827}, "width": 6803, "has_single_image": true, "audio_stream_index": -1, "type": "QtImageReader", "channel_layout": 4, "interlaced_frame": false, "audio_timebase": {"num": 1, "den": 1}}, "perspective_c4_x": {"Points": [{"interpolation": 2, "co": {"X": 1.0, "Y": -1.0}}]}, "perspective_c2_x": {"Points": [{"interpolation": 2, "co": {"X": 1.0, "Y": -1.0}}]}, "time": {"Points": [{"interpolation": 2, "co": {"X": 1.0, "Y": 1.0}}]}, "crop_x": {"Points": [{"interpolation": 2, "co": {"X": 1.0, "Y": 0.0}}]}, "crop_height": {"Points": [{"interpolation": 2, "co": {"X": 1.0, "Y": -1.0}}]}, "crop_y": {"Points": [{"interpolation": 2, "co": {"X": 1.0, "Y": 0.0}}]}, "duration": 86400.0, "display": 0, "crop_width": {"Points": [{"interpolation": 2, "co": {"X": 1.0, "Y": -1.0}}]}, "perspective_c1_x": {"Points": [{"interpolation": 2, "co": {"X": 1.0, "Y": -1.0}}]}, "effects": [], "gravity": 4, "wave_color": {"alpha": {"Points": [{"handle_left": {"X": 0.5, "Y": 1.0}, "handle_type": 0, "interpolation": 0, "handle_right": {"X": 0.5, "Y": 0.0}, "co": {"X": 1.0, "Y": 255.0}}]}, "red": {"Points": [{"handle_left": {"X": 0.5, "Y": 1.0}, "handle_type": 0, "interpolation": 0, "handle_right": {"X": 0.5, "Y": 0.0}, "co": {"X": 1.0, "Y": 0.0}}]}, "green": {"Points": [{"handle_left": {"X": 0.5, "Y": 1.0}, "handle_type": 0, "interpolation": 0, "handle_right": {"X": 0.5, "Y": 0.0}, "co": {"X": 1.0, "Y": 123.0}}]}, "blue": {"Points": [{"handle_left": {"X": 0.5, "Y": 1.0}, "handle_type": 0, "interpolation": 0, "handle_right": {"X": 0.5, "Y": 0.0}, "co": {"X": 1.0, "Y": 255.0}}]}}, "title": "Title-03.svg", "channel_filter": {"Points": [{"interpolation": 2, "co": {"X": 1.0, "Y": -1.0}}]}, "id": "DRRWM84D3O", "location_x": {"Points": [{"interpolation": 2, "co": {"X": 1.0, "Y": 0.0}}, {"handle_left": {"X": 0.5, "Y": 1.0}, "handle_type": 0, "interpolation": 0, "handle_right": {"X": 0.5, "Y": 0.0}, "co": {"X": 1.0, "Y": 1.0}}, {"handle_left": {"X": 0.5, "Y": 1.0}, "handle_type": 0, "interpolation": 0, "handle_right": {"X": 0.5, "Y": 0.0}, "co": {"X": 25.0, "Y": 0.0}}]}, "rotation": {"Points": [{"interpolation": 2, "co": {"X": 1.0, "Y": 0.0}}]}, "shear_x": {"Points": [{"interpolation": 2, "co": {"X": 1.0, "Y": 0.0}}]}, "scale_y": {"Points": [{"interpolation": 2, "co": {"X": 1.0, "Y": 1.0}}]}, "scale_x": {"Points": [{"interpolation": 2, "co": {"X": 1.0, "Y": 1.0}}]}, "layer": 2, "alpha": {"Points": [{"interpolation": 2, "co": {"X": 1.0, "Y": 1.0}}]}, "shear_y": {"Points": [{"interpolation": 2, "co": {"X": 1.0, "Y": 0.0}}]}, "perspective_c3_x": {"Points": [{"interpolation": 2, "co": {"X": 1.0, "Y": -1.0}}]}, "position": 4.9799999999999995, "end": 3.3116666666666665}, {"has_audio": {"Points": [{"interpolation": 2, "co": {"X": 1.0, "Y": -1.0}}]}, "location_y": {"Points": [{"interpolation": 2, "co": {"X": 1.0, "Y": 0.0}}, {"handle_left": {"X": 0.5, "Y": 1.0}, "handle_type": 0, "interpolation": 0, "handle_right": {"X": 0.5, "Y": 0.0}, "co": {"X": 1.0, "Y": 0.0}}, {"handle_left": {"X": 0.5, "Y": 1.0}, "handle_type": 0, "interpolation": 0, "handle_right": {"X": 0.5, "Y": 0.0}, "co": {"X": 25.0, "Y": 0.0}}]}, "scale": 1, "perspective_c1_y": {"Points": [{"interpolation": 2, "co": {"X": 1.0, "Y": -1.0}}]}, "file_id": "6B6X3SW6U5", "image": "../../../.openshot_qt/thumbnail/6B6X3SW6U5.png", "perspective_c3_y": {"Points": [{"interpolation": 2, "co": {"X": 1.0, "Y": -1.0}}]}, "volume": {"Points": [{"interpolation": 2, "co": {"X": 1.0, "Y": 1.0}}]}, "waveform": false, "channel_mapping": {"Points": [{"interpolation": 2, "co": {"X": 1.0, "Y": -1.0}}]}, "perspective_c4_y": {"Points": [{"interpolation": 2, "co": {"X": 1.0, "Y": -1.0}}]}, "start": 0, "perspective_c2_y": {"Points": [{"interpolation": 2, "co": {"X": 1.0, "Y": -1.0}}]}, "has_video": {"Points": [{"interpolation": 2, "co": {"X": 1.0, "Y": -1.0}}]}, "anchor": 0, "reader": {"channels": 0, "path": "Title-04.svg", "duration": 86400.0, "has_audio": false, "video_stream_index": -1, "top_field_first": true, "vcodec": "", "audio_bit_rate": 0, "pixel_ratio": {"num": 1, "den": 1}, "has_video": true, "height": 3827, "video_length": "2592000", "video_bit_rate": 0, "acodec": "", "sample_rate": 0, "file_size": "104140324", "pixel_format": -1, "fps": {"num": 30, "den": 1}, "video_timebase": {"num": 1, "den": 30}, "display_ratio": {"num": 6803, "den": 3827}, "width": 6803, "has_single_image": true, "audio_stream_index": -1, "type": "QtImageReader", "channel_layout": 4, "interlaced_frame": false, "audio_timebase": {"num": 1, "den": 1}}, "perspective_c4_x": {"Points": [{"interpolation": 2, "co": {"X": 1.0, "Y": -1.0}}]}, "perspective_c2_x": {"Points": [{"interpolation": 2, "co": {"X": 1.0, "Y": -1.0}}]}, "time": {"Points": [{"interpolation": 2, "co": {"X": 1.0, "Y": 1.0}}]}, "crop_x": {"Points": [{"interpolation": 2, "co": {"X": 1.0, "Y": 0.0}}]}, "crop_height": {"Points": [{"interpolation": 2, "co": {"X": 1.0, "Y": -1.0}}]}, "crop_y": {"Points": [{"interpolation": 2, "co": {"X": 1.0, "Y": 0.0}}]}, "duration": 86400.0, "display": 0, "crop_width": {"Points": [{"interpolation": 2, "co": {"X": 1.0, "Y": -1.0}}]}, "perspective_c1_x": {"Points": [{"interpolation": 2, "co": {"X": 1.0, "Y": -1.0}}]}, "effects": [], "gravity": 4, "wave_color": {"alpha": {"Points": [{"handle_left": {"X": 0.5, "Y": 1.0}, "handle_type": 0, "interpolation": 0, "handle_right": {"X": 0.5, "Y": 0.0}, "co": {"X": 1.0, "Y": 255.0}}]}, "red": {"Points": [{"handle_left": {"X": 0.5, "Y": 1.0}, "handle_type": 0, "interpolation": 0, "handle_right": {"X": 0.5, "Y": 0.0}, "co": {"X": 1.0, "Y": 0.0}}]}, "green": {"Points": [{"handle_left": {"X": 0.5, "Y": 1.0}, "handle_type": 0, "interpolation": 0, "handle_right": {"X": 0.5, "Y": 0.0}, "co": {"X": 1.0, "Y": 123.0}}]}, "blue": {"Points": [{"handle_left": {"X": 0.5, "Y": 1.0}, "handle_type": 0, "interpolation": 0, "handle_right": {"X": 0.5, "Y": 0.0}, "co": {"X": 1.0, "Y": 255.0}}]}}, "title": "Title-04.svg", "channel_filter": {"Points": [{"interpolation": 2, "co": {"X": 1.0, "Y": -1.0}}]}, "id": "173ASVPEMX", "location_x": {"Points": [{"interpolation": 2, "co": {"X": 1.0, "Y": 0.0}}, {"handle_left": {"X": 0.5, "Y": 1.0}, "handle_type": 0, "interpolation": 0, "handle_right": {"X": 0.5, "Y": 0.0}, "co": {"X": 1.0, "Y": 1.0}}, {"handle_left": {"X": 0.5, "Y": 1.0}, "handle_type": 0, "interpolation": 0, "handle_right": {"X": 0.5, "Y": 0.0}, "co": {"X": 25.0, "Y": 0.0}}]}, "rotation": {"Points": [{"interpolation": 2, "co": {"X": 1.0, "Y": 0.0}}]}, "shear_x": {"Points": [{"interpolation": 2, "co": {"X": 1.0, "Y": 0.0}}]}, "scale_y": {"Points": [{"interpolation": 2, "co": {"X": 1.0, "Y": 1.0}}]}, "scale_x": {"Points": [{"interpolation": 2, "co": {"X": 1.0, "Y": 1.0}}]}, "layer": 3, "alpha": {"Points": [{"interpolation": 2, "co": {"X": 1.0, "Y": 1.0}}]}, "shear_y": {"Points": [{"interpolation": 2, "co": {"X": 1.0, "Y": 0.0}}]}, "perspective_c3_x": {"Points": [{"interpolation": 2, "co": {"X": 1.0, "Y": -1.0}}]}, "position": 6.27, "end": 2.0216666666666665}, {"has_audio": {"Points": [{"interpolation": 2, "co": {"X": 1.0, "Y": -1.0}}]}, "location_y": {"Points": [{"interpolation": 2, "co": {"X": 1.0, "Y": 0.0}}, {"handle_left": {"X": 0.5, "Y": 1.0}, "handle_type": 0, "interpolation": 0, "handle_right": {"X": 0.5, "Y": 0.0}, "co": {"X": 150.0, "Y": 0.0}}, {"handle_left": {"X": 0.5, "Y": 1.0}, "handle_type": 0, "interpolation": 0, "handle_right": {"X": 0.5, "Y": 0.0}, "co": {"X": 174.0, "Y": 0.0}}]}, "scale": 1, "perspective_c1_y": {"Points": [{"interpolation": 2, "co": {"X": 1.0, "Y": -1.0}}]}, "file_id": "AR5E0JZFG5", "image": "../../../.openshot_qt/thumbnail/AR5E0JZFG5.png", "perspective_c3_y": {"Points": [{"interpolation": 2, "co": {"X": 1.0, "Y": -1.0}}]}, "volume": {"Points": [{"interpolation": 2, "co": {"X": 1.0, "Y": 1.0}}]}, "waveform": false, "channel_mapping": {"Points": [{"interpolation": 2, "co": {"X": 1.0, "Y": -1.0}}]}, "perspective_c4_y": {"Points": [{"interpolation": 2, "co": {"X": 1.0, "Y": -1.0}}]}, "start": 0, "perspective_c2_y": {"Points": [{"interpolation": 2, "co": {"X": 1.0, "Y": -1.0}}]}, "has_video": {"Points": [{"interpolation": 2, "co": {"X": 1.0, "Y": -1.0}}]}, "anchor": 0, "reader": {"channels": 0, "path": "Title-05-All Four Titles.svg", "duration": 86400.0, "has_audio": false, "video_stream_index": -1, "channel_layout": 4, "vcodec": "", "audio_bit_rate": 0, "pixel_ratio": {"num": 1, "den": 1}, "height": 3827, "video_length": "2592000", "video_bit_rate": 0, "acodec": "", "sample_rate": 0, "file_size": "104140324", "pixel_format": -1, "display_ratio": {"num": 6803, "den": 3827}, "fps": {"num": 30, "den": 1}, "video_timebase": {"num": 1, "den": 30}, "top_field_first": true, "width": 6803, "has_single_image": true, "audio_stream_index": -1, "type": "QtImageReader", "audio_timebase": {"num": 1, "den": 1}, "interlaced_frame": false, "has_video": true}, "perspective_c4_x": {"Points": [{"interpolation": 2, "co": {"X": 1.0, "Y": -1.0}}]}, "perspective_c2_x": {"Points": [{"interpolation": 2, "co": {"X": 1.0, "Y": -1.0}}]}, "time": {"Points": [{"interpolation": 2, "co": {"X": 1.0, "Y": 1.0}}]}, "crop_x": {"Points": [{"interpolation": 2, "co": {"X": 1.0, "Y": 0.0}}]}, "crop_height": {"Points": [{"interpolation": 2, "co": {"X": 1.0, "Y": -1.0}}]}, "crop_y": {"Points": [{"interpolation": 2, "co": {"X": 1.0, "Y": 0.0}}]}, "duration": 86400.0, "display": 0, "crop_width": {"Points": [{"interpolation": 2, "co": {"X": 1.0, "Y": -1.0}}]}, "perspective_c1_x": {"Points": [{"interpolation": 2, "co": {"X": 1.0, "Y": -1.0}}]}, "effects": [], "gravity": 4, "wave_color": {"alpha": {"Points": [{"handle_left": {"X": 0.5, "Y": 1.0}, "handle_type": 0, "interpolation": 0, "handle_right": {"X": 0.5, "Y": 0.0}, "co": {"X": 1.0, "Y": 255.0}}]}, "red": {"Points": [{"handle_left": {"X": 0.5, "Y": 1.0}, "handle_type": 0, "interpolation": 0, "handle_right": {"X": 0.5, "Y": 0.0}, "co": {"X": 1.0, "Y": 0.0}}]}, "green": {"Points": [{"handle_left": {"X": 0.5, "Y": 1.0}, "handle_type": 0, "interpolation": 0, "handle_right": {"X": 0.5, "Y": 0.0}, "co": {"X": 1.0, "Y": 123.0}}]}, "blue": {"Points": [{"handle_left": {"X": 0.5, "Y": 1.0}, "handle_type": 0, "interpolation": 0, "handle_right": {"X": 0.5, "Y": 0.0}, "co": {"X": 1.0, "Y": 255.0}}]}}, "title": "Title-05-All Four Titles.svg", "channel_filter": {"Points": [{"interpolation": 2, "co": {"X": 1.0, "Y": -1.0}}]}, "id": "UTVCSP6ZNL", "location_x": {"Points": [{"interpolation": 2, "co": {"X": 1.0, "Y": 0.0}}, {"handle_left": {"X": 0.5, "Y": 1.0}, "handle_type": 0, "interpolation": 0, "handle_right": {"X": 0.5, "Y": 0.0}, "co": {"X": 150.0, "Y": 0.0}}, {"handle_left": {"X": 0.5, "Y": 1.0}, "handle_type": 0, "interpolation": 0, "handle_right": {"X": 0.5, "Y": 0.0}, "co": {"X": 174.0, "Y": -1.0}}]}, "rotation": {"Points": [{"interpolation": 2, "co": {"X": 1.0, "Y": 0.0}}]}, "shear_x": {"Points": [{"interpolation": 2, "co": {"X": 1.0, "Y": 0.0}}]}, "scale_y": {"Points": [{"interpolation": 2, "co": {"X": 1.0, "Y": 1.0}}]}, "scale_x": {"Points": [{"interpolation": 2, "co": {"X": 1.0, "Y": 1.0}}]}, "layer": 4, "alpha": {"Points": [{"interpolation": 2, "co": {"X": 1.0, "Y": 1.0}}]}, "shear_y": {"Points": [{"interpolation": 2, "co": {"X": 1.0, "Y": 0.0}}]}, "perspective_c3_x": {"Points": [{"interpolation": 2, "co": {"X": 1.0, "Y": -1.0}}]}, "position": 7.529999999999999, "end": 7.220000000000001}, {"has_audio": {"Points": [{"interpolation": 2, "co": {"X": 1.0, "Y": -1.0}}]}, "location_y": {"Points": [{"handle_left": {"X": 0.5, "Y": 1.0}, "handle_type": 0, "interpolation": 0, "handle_right": {"X": 0.5, "Y": 0.0}, "co": {"X": 1.0, "Y": 0.0}}, {"handle_left": {"X": 0.5, "Y": 1.0}, "handle_type": 0, "interpolation": 0, "handle_right": {"X": 0.5, "Y": 0.0}, "co": {"X": 1.0, "Y": 0.0}}, {"handle_left": {"X": 0.5, "Y": 1.0}, "handle_type": 0, "interpolation": 0, "handle_right": {"X": 0.5, "Y": 0.0}, "co": {"X": 25.0, "Y": 0.0}}, {"handle_left": {"X": 0.5, "Y": 1.0}, "handle_type": 0, "interpolation": 0, "handle_right": {"X": 0.5, "Y": 0.0}, "co": {"X": 217.0, "Y": 0.0}}, {"handle_left": {"X": 0.5, "Y": 1.0}, "handle_type": 0, "interpolation": 0, "handle_right": {"X": 0.5, "Y": 0.0}, "co": {"X": 241.0, "Y": 0.0}}, {"handle_left": {"X": 0.5, "Y": 1.0}, "handle_type": 0, "interpolation": 0, "handle_right": {"X": 0.5, "Y": 0.0}, "co": {"X": 153.0, "Y": 0.0}}, {"handle_left": {"X": 0.5, "Y": 1.0}, "handle_type": 0, "interpolation": 0, "handle_right": {"X": 0.5, "Y": 0.0}, "co": {"X": 177.0, "Y": 0.0}}]}, "scale": 1, "perspective_c1_y": {"Points": [{"interpolation": 2, "co": {"X": 1.0, "Y": -1.0}}]}, "file_id": "EYET6E4WCX", "image": "../../../.openshot_qt/thumbnail/EYET6E4WCX.png", "perspective_c3_y": {"Points": [{"interpolation": 2, "co": {"X": 1.0, "Y": -1.0}}]}, "volume": {"Points": [{"interpolation": 2, "co": {"X": 1.0, "Y": 1.0}}]}, "waveform": false, "channel_mapping": {"Points": [{"interpolation": 2, "co": {"X": 1.0, "Y": -1.0}}]}, "perspective_c4_y": {"Points": [{"interpolation": 2, "co": {"X": 1.0, "Y": -1.0}}]}, "start": 0, "perspective_c2_y": {"Points": [{"interpolation": 2, "co": {"X": 1.0, "Y": -1.0}}]}, "has_video": {"Points": [{"interpolation": 2, "co": {"X": 1.0, "Y": -1.0}}]}, "anchor": 0, "reader": {"channels": 0, "path": "intro.png", "duration": 86400.0, "has_audio": false, "video_stream_index": -1, "channel_layout": 4, "vcodec": "", "audio_bit_rate": 0, "pixel_ratio": {"num": 1, "den": 1}, "height": 169, "video_length": "2592000", "video_bit_rate": 0, "acodec": "", "sample_rate": 0, "file_size": "446836", "pixel_format": -1, "display_ratio": {"num": 661, "den": 169}, "fps": {"num": 30, "den": 1}, "video_timebase": {"num": 1, "den": 30}, "top_field_first": true, "width": 661, "has_single_image": true, "audio_stream_index": -1, "type": "QtImageReader", "audio_timebase": {"num": 1, "den": 1}, "interlaced_frame": false, "has_video": true}, "perspective_c4_x": {"Points": [{"interpolation": 2, "co": {"X": 1.0, "Y": -1.0}}]}, "perspective_c2_x": {"Points": [{"interpolation": 2, "co": {"X": 1.0, "Y": -1.0}}]}, "time": {"Points": [{"interpolation": 2, "co": {"X": 1.0, "Y": 1.0}}]}, "crop_x": {"Points": [{"interpolation": 2, "co": {"X": 1.0, "Y": 0.0}}]}, "crop_height": {"Points": [{"interpolation": 2, "co": {"X": 1.0, "Y": -1.0}}]}, "crop_y": {"Points": [{"interpolation": 2, "co": {"X": 1.0, "Y": 0.0}}]}, "duration": 86400.0, "display": 0, "crop_width": {"Points": [{"interpolation": 2, "co": {"X": 1.0, "Y": -1.0}}]}, "perspective_c1_x": {"Points": [{"interpolation": 2, "co": {"X": 1.0, "Y": -1.0}}]}, "effects": [], "gravity": 4, "wave_color": {"alpha": {"Points": [{"handle_left": {"X": 0.5, "Y": 1.0}, "handle_type": 0, "interpolation": 0, "handle_right": {"X": 0.5, "Y": 0.0}, "co": {"X": 1.0, "Y": 255.0}}]}, "red": {"Points": [{"handle_left": {"X": 0.5, "Y": 1.0}, "handle_type": 0, "interpolation": 0, "handle_right": {"X": 0.5, "Y": 0.0}, "co": {"X": 1.0, "Y": 0.0}}]}, "green": {"Points": [{"handle_left": {"X": 0.5, "Y": 1.0}, "handle_type": 0, "interpolation": 0, "handle_right": {"X": 0.5, "Y": 0.0}, "co": {"X": 1.0, "Y": 123.0}}]}, "blue": {"Points": [{"handle_left": {"X": 0.5, "Y": 1.0}, "handle_type": 0, "interpolation": 0, "handle_right": {"X": 0.5, "Y": 0.0}, "co": {"X": 1.0, "Y": 255.0}}]}}, "title": "intro.png", "channel_filter": {"Points": [{"interpolation": 2, "co": {"X": 1.0, "Y": -1.0}}]}, "id": "QRWUU8C5AG", "location_x": {"Points": [{"handle_left": {"X": 0.5, "Y": 1.0}, "handle_type": 0, "interpolation": 0, "handle_right": {"X": 0.5, "Y": 0.0}, "co": {"X": 1.0, "Y": 0.0}}, {"handle_left": {"X": 0.5, "Y": 1.0}, "handle_type": 0, "interpolation": 0, "handle_right": {"X": 0.5, "Y": 0.0}, "co": {"X": 1.0, "Y": 1.0}}, {"handle_left": {"X": 0.5, "Y": 1.0}, "handle_type": 0, "interpolation": 0, "handle_right": {"X": 0.5, "Y": 0.0}, "co": {"X": 25.0, "Y": 0.0}}, {"handle_left": {"X": 0.5, "Y": 1.0}, "handle_type": 0, "interpolation": 0, "handle_right": {"X": 0.5, "Y": 0.0}, "co": {"X": 217.0, "Y": 0.0}}, {"handle_left": {"X": 0.5, "Y": 1.0}, "handle_type": 0, "interpolation": 0, "handle_right": {"X": 0.5, "Y": 0.0}, "co": {"X": 241.0, "Y": -1.0}}, {"handle_left": {"X": 0.5, "Y": 1.0}, "handle_type": 0, "interpolation": 0, "handle_right": {"X": 0.5, "Y": 0.0}, "co": {"X": 153.0, "Y": 0.0}}, {"handle_left": {"X": 0.5, "Y": 1.0}, "handle_type": 0, "interpolation": 0, "handle_right": {"X": 0.5, "Y": 0.0}, "co": {"X": 177.0, "Y": -1.0}}]}, "rotation": {"Points": [{"interpolation": 2, "co": {"X": 1.0, "Y": 0.0}}]}, "shear_x": {"Points": [{"interpolation": 2, "co": {"X": 1.0, "Y": 0.0}}]}, "scale_y": {"Points": [{"handle_left": {"X": 0.5, "Y": 1.0}, "handle_type": 0, "interpolation": 0, "handle_right": {"X": 0.5, "Y": 0.0}, "co": {"X": 1.0, "Y": 1.0}}]}, "scale_x": {"Points": [{"handle_left": {"X": 0.5, "Y": 1.0}, "handle_type": 0, "interpolation": 0, "handle_right": {"X": 0.5, "Y": 0.0}, "co": {"X": 1.0, "Y": 1.0}}]}, "layer": 5, "alpha": {"Points": [{"interpolation": 2, "co": {"X": 1.0, "Y": 1.0}}]}, "shear_y": {"Points": [{"interpolation": 2, "co": {"X": 1.0, "Y": 0.0}}]}, "perspective_c3_x": {"Points": [{"interpolation": 2, "co": {"X": 1.0, "Y": -1.0}}]}, "position": 15.36, "end": 7.348333333333333}, {"has_audio": {"Points": [{"interpolation": 2, "co": {"X": 1.0, "Y": -1.0}}]}, "location_y": {"Points": [{"interpolation": 2, "co": {"X": 1.0, "Y": 0.0}}, {"interpolation": 1, "co": {"X": 803, "Y": -0.3199999928474426}}, {"interpolation": 1, "co": {"X": 1057, "Y": 0.0}}]}, "scale": 1, "perspective_c1_y": {"Points": [{"interpolation": 2, "co": {"X": 1.0, "Y": -1.0}}]}, "effects": [], "image": "../../../.openshot_qt/thumbnail/XQEQ903ILK.png", "file_id": "XQEQ903ILK", "volume": {"Points": [{"interpolation": 2, "co": {"X": 1.0, "Y": 1.0}}]}, "waveform": false, "channel_mapping": {"Points": [{"interpolation": 2, "co": {"X": 1.0, "Y": -1.0}}]}, "perspective_c4_y": {"Points": [{"interpolation": 2, "co": {"X": 1.0, "Y": -1.0}}]}, "start": 0, "perspective_c2_y": {"Points": [{"interpolation": 2, "co": {"X": 1.0, "Y": -1.0}}]}, "end": 42.258333333333326, "anchor": 0, "layer": 5, "reader": {"channels": 0, "path": "06-Create Progress Card Template.mkv", "duration": 44.0, "has_audio": false, "width": 1366, "video_stream_index": 0, "channel_layout": 4, "vcodec": "h264", "audio_bit_rate": 0, "pixel_ratio": {"num": 1, "den": 1}, "height": 768, "video_length": "1100", "file_size": "394038", "acodec": "", "sample_rate": 0, "video_bit_rate": 0, "pixel_format": 0, "display_ratio": {"num": 683, "den": 384}, "fps": {"num": 25, "den": 1}, "video_timebase": {"num": 1, "den": 1000}, "top_field_first": true, "has_single_image": false, "audio_stream_index": -1, "type": "FFmpegReader", "audio_timebase": {"num": 1, "den": 1}, "interlaced_frame": false, "has_video": true}, "perspective_c4_x": {"Points": [{"interpolation": 2, "co": {"X": 1.0, "Y": -1.0}}]}, "perspective_c2_x": {"Points": [{"interpolation": 2, "co": {"X": 1.0, "Y": -1.0}}]}, "time": {"Points": [{"interpolation": 2, "co": {"X": 1.0, "Y": 1.0}}]}, "crop_x": {"Points": [{"interpolation": 2, "co": {"X": 1.0, "Y": 0.0}}]}, "crop_height": {"Points": [{"interpolation": 2, "co": {"X": 1.0, "Y": -1.0}}]}, "crop_y": {"Points": [{"interpolation": 2, "co": {"X": 1.0, "Y": 0.0}}]}, "location_x": {"Points": [{"interpolation": 2, "co": {"X": 1.0, "Y": 0.0}}]}, "crop_width": {"Points": [{"interpolation": 2, "co": {"X": 1.0, "Y": -1.0}}]}, "perspective_c1_x": {"Points": [{"interpolation": 2, "co": {"X": 1.0, "Y": -1.0}}]}, "gravity": 4, "wave_color": {"alpha": {"Points": [{"handle_left": {"X": 0.5, "Y": 1.0}, "handle_type": 0, "interpolation": 0, "handle_right": {"X": 0.5, "Y": 0.0}, "co": {"X": 1.0, "Y": 255.0}}]}, "red": {"Points": [{"handle_left": {"X": 0.5, "Y": 1.0}, "handle_type": 0, "interpolation": 0, "handle_right": {"X": 0.5, "Y": 0.0}, "co": {"X": 1.0, "Y": 0.0}}]}, "green": {"Points": [{"handle_left": {"X": 0.5, "Y": 1.0}, "handle_type": 0, "interpolation": 0, "handle_right": {"X": 0.5, "Y": 0.0}, "co": {"X": 1.0, "Y": 123.0}}]}, "blue": {"Points": [{"handle_left": {"X": 0.5, "Y": 1.0}, "handle_type": 0, "interpolation": 0, "handle_right": {"X": 0.5, "Y": 0.0}, "co": {"X": 1.0, "Y": 255.0}}]}}, "title": "06-Create Progress Card Template.mkv", "display": 0, "position": 23.7, "id": "TG13P8S1CP", "rotation": {"Points": [{"interpolation": 2, "co": {"X": 1.0, "Y": 0.0}}]}, "shear_x": {"Points": [{"interpolation": 2, "co": {"X": 1.0, "Y": 0.0}}]}, "scale_y": {"Points": [{"interpolation": 2, "co": {"X": 1.0, "Y": 1.0}}, {"interpolation": 1, "co": {"X": 803, "Y": 1.649999976158142}}, {"interpolation": 1, "co": {"X": 1057, "Y": 1.0}}]}, "scale_x": {"Points": [{"interpolation": 2, "co": {"X": 1.0, "Y": 1.0}}, {"interpolation": 1, "co": {"X": 803, "Y": 1.649999976158142}}, {"interpolation": 1, "co": {"X": 1057, "Y": 1.0}}]}, "duration": 44.0, "channel_filter": {"Points": [{"interpolation": 2, "co": {"X": 1.0, "Y": -1.0}}]}, "alpha": {"Points": [{"handle_left": {"X": 0.5, "Y": 1.0}, "handle_type": 0, "interpolation": 0, "handle_right": {"X": 0.5, "Y": 0.0}, "co": {"X": 1.0, "Y": 1.0}}, {"handle_left": {"X": 0.5, "Y": 1.0}, "handle_type": 0, "interpolation": 0, "handle_right": {"X": 0.5, "Y": 0.0}, "co": {"X": 1.0, "Y": 0.0}}, {"handle_left": {"X": 0.5, "Y": 1.0}, "handle_type": 0, "interpolation": 0, "handle_right": {"X": 0.5, "Y": 0.0}, "co": {"X": 73.0, "Y": 1.0}}, {"handle_left": {"X": 0.5, "Y": 1.0}, "handle_type": 0, "interpolation": 0, "handle_right": {"X": 0.5, "Y": 0.0}, "co": {"X": 943.0, "Y": 1.0}}, {"handle_left": {"X": 0.5, "Y": 1.0}, "handle_type": 0, "interpolation": 0, "handle_right": {"X": 0.5, "Y": 0.0}, "co": {"X": 1015.0, "Y": 0.0}}]}, "shear_y": {"Points": [{"interpolation": 2, "co": {"X": 1.0, "Y": 0.0}}]}, "perspective_c3_x": {"Points": [{"interpolation": 2, "co": {"X": 1.0, "Y": -1.0}}]}, "perspective_c3_y": {"Points": [{"interpolation": 2, "co": {"X": 1.0, "Y": -1.0}}]}, "has_video": {"Points": [{"interpolation": 2, "co": {"X": 1.0, "Y": -1.0}}]}}, {"scale": 1, "duration": 59.0, "file_id": "IV7EF51HD1", "location_y": {"Points": [{"interpolation": 2, "co": {"X": 1.0, "Y": 0.0}}, {"interpolation": 1, "co": {"X": 192, "Y": 0.45038167938931295}}]}, "perspective_c3_y": {"Points": [{"interpolation": 2, "co": {"X": 1.0, "Y": -1.0}}]}, "waveform": false, "perspective_c4_y": {"Points": [{"interpolation": 2, "co": {"X": 1.0, "Y": -1.0}}]}, "perspective_c2_y": {"Points": [{"interpolation": 2, "co": {"X": 1.0, "Y": -1.0}}]}, "has_video": {"Points": [{"interpolation": 2, "co": {"X": 1.0, "Y": -1.0}}]}, "reader": {"channels": 0, "path": "07-Entered Record of 10 students.mkv", "duration": 59.0, "has_audio": false, "video_stream_index": 0, "display_ratio": {"num": 683, "den": 384}, "vcodec": "h264", "audio_bit_rate": 0, "has_video": true, "pixel_ratio": {"num": 1, "den": 1}, "height": 768, "video_length": "1475", "video_bit_rate": 0, "acodec": "", "sample_rate": 0, "file_size": "595628", "pixel_format": 0, "fps": {"num": 25, "den": 1}, "video_timebase": {"num": 1, "den": 1000}, "top_field_first": true, "width": 1366, "has_single_image": false, "audio_stream_index": -1, "type": "FFmpegReader", "channel_layout": 4, "interlaced_frame": false, "audio_timebase": {"num": 1, "den": 1}}, "perspective_c4_x": {"Points": [{"interpolation": 2, "co": {"X": 1.0, "Y": -1.0}}]}, "crop_x": {"Points": [{"interpolation": 2, "co": {"X": 1.0, "Y": 0.0}}]}, "crop_y": {"Points": [{"interpolation": 2, "co": {"X": 1.0, "Y": 0.0}}]}, "anchor": 0, "crop_width": {"Points": [{"interpolation": 2, "co": {"X": 1.0, "Y": -1.0}}]}, "has_audio": {"Points": [{"interpolation": 2, "co": {"X": 1.0, "Y": -1.0}}]}, "wave_color": {"alpha": {"Points": [{"handle_left": {"X": 0.5, "Y": 1.0}, "handle_type": 0, "interpolation": 0, "handle_right": {"X": 0.5, "Y": 0.0}, "co": {"X": 1.0, "Y": 255.0}}]}, "green": {"Points": [{"handle_left": {"X": 0.5, "Y": 1.0}, "handle_type": 0, "interpolation": 0, "handle_right": {"X": 0.5, "Y": 0.0}, "co": {"X": 1.0, "Y": 123.0}}]}, "red": {"Points": [{"handle_left": {"X": 0.5, "Y": 1.0}, "handle_type": 0, "interpolation": 0, "handle_right": {"X": 0.5, "Y": 0.0}, "co": {"X": 1.0, "Y": 0.0}}]}, "blue": {"Points": [{"handle_left": {"X": 0.5, "Y": 1.0}, "handle_type": 0, "interpolation": 0, "handle_right": {"X": 0.5, "Y": 0.0}, "co": {"X": 1.0, "Y": 255.0}}]}}, "display": 0, "id": "KWNI3SZORH", "shear_x": {"Points": [{"interpolation": 2, "co": {"X": 1.0, "Y": 0.0}}]}, "layer": 5, "perspective_c1_x": {"Points": [{"interpolation": 2, "co": {"X": 1.0, "Y": -1.0}}]}, "perspective_c3_x": {"Points": [{"interpolation": 2, "co": {"X": 1.0, "Y": -1.0}}]}, "image": "../../../.openshot_qt/thumbnail/IV7EF51HD1.png", "effects": [], "volume": {"Points": [{"interpolation": 2, "co": {"X": 1.0, "Y": 1.0}}]}, "channel_mapping": {"Points": [{"interpolation": 2, "co": {"X": 1.0, "Y": -1.0}}]}, "start": 0, "perspective_c1_y": {"Points": [{"interpolation": 2, "co": {"X": 1.0, "Y": -1.0}}]}, "end": 59, "perspective_c2_x": {"Points": [{"interpolation": 2, "co": {"X": 1.0, "Y": -1.0}}]}, "time": {"Points": [{"interpolation": 2, "co": {"X": 1.0, "Y": 1.0}}]}, "crop_height": {"Points": [{"interpolation": 2, "co": {"X": 1.0, "Y": -1.0}}]}, "location_x": {"Points": [{"interpolation": 2, "co": {"X": 1.0, "Y": 0.0}}, {"interpolation": 1, "co": {"X": 192, "Y": 0.43511450381679384}}]}, "title": "07-Entered Record of 10 students.mkv", "channel_filter": {"Points": [{"interpolation": 2, "co": {"X": 1.0, "Y": -1.0}}]}, "gravity": 4, "rotation": {"Points": [{"interpolation": 2, "co": {"X": 1.0, "Y": 0.0}}]}, "scale_y": {"Points": [{"interpolation": 2, "co": {"X": 1.0, "Y": 1.0}}, {"interpolation": 1, "co": {"X": 192, "Y": 1.899999976158142}}]}, "scale_x": {"Points": [{"interpolation": 2, "co": {"X": 1.0, "Y": 1.0}}, {"interpolation": 1, "co": {"X": 192, "Y": 1.899999976158142}}]}, "alpha": {"Points": [{"interpolation": 2, "co": {"X": 1.0, "Y": 1.0}}, {"handle_left": {"X": 0.5, "Y": 1.0}, "handle_type": 0, "interpolation": 0, "handle_right": {"X": 0.5, "Y": 0.0}, "co": {"X": 1.0, "Y": 0.0}}, {"handle_left": {"X": 0.5, "Y": 1.0}, "handle_type": 0, "interpolation": 0, "handle_right": {"X": 0.5, "Y": 0.0}, "co": {"X": 73.0, "Y": 1.0}}, {"handle_left": {"X": 0.5, "Y": 1.0}, "handle_type": 0, "interpolation": 0, "handle_right": {"X": 0.5, "Y": 0.0}, "co": {"X": 1345.0, "Y": 1.0}}, {"handle_left": {"X": 0.5, "Y": 1.0}, "handle_type": 0, "interpolation": 0, "handle_right": {"X": 0.5, "Y": 0.0}, "co": {"X": 1417.0, "Y": 0.0}}]}, "shear_y": {"Points": [{"interpolation": 2, "co": {"X": 1.0, "Y": 0.0}}]}, "position": 65.94}], "markers": [], "height": 720, "version": {"openshot-qt": "2.4.1", "libopenshot": "0.1.9"}, "sample_rate": 44100, "profile": "HDV 720 24p", "fps": {"num": 24, "den": 1}, "files": [{"channels": 0, "path": "intro.png", "duration": 86400.0, "has_audio": false, "video_stream_index": -1, "channel_layout": 4, "vcodec": "", "audio_bit_rate": 0, "pixel_ratio": {"num": 1, "den": 1}, "height": 169, "video_length": "2592000", "video_bit_rate": 0, "acodec": "", "sample_rate": 0, "file_size": "446836", "pixel_format": -1, "display_ratio": {"num": 661, "den": 169}, "fps": {"num": 30, "den": 1}, "video_timebase": {"num": 1, "den": 30}, "top_field_first": true, "width": 661, "media_type": "image", "id": "EYET6E4WCX", "has_single_image": true, "audio_stream_index": -1, "type": "QtImageReader", "audio_timebase": {"num": 1, "den": 1}, "interlaced_frame": false, "has_video": true}, {"channels": 0, "path": "Title-02.svg", "duration": 86400.0, "has_audio": false, "video_stream_index": -1, "channel_layout": 4, "vcodec": "", "audio_bit_rate": 0, "pixel_ratio": {"num": 1, "den": 1}, "height": 3827, "video_length": "2592000", "video_bit_rate": 0, "acodec": "", "sample_rate": 0, "file_size": "104140324", "pixel_format": -1, "display_ratio": {"num": 6803, "den": 3827}, "fps": {"num": 30, "den": 1}, "video_timebase": {"num": 1, "den": 30}, "top_field_first": true, "width": 6803, "media_type": "image", "id": "5QW60D58CB", "has_single_image": true, "audio_stream_index": -1, "type": "QtImageReader", "audio_timebase": {"num": 1, "den": 1}, "interlaced_frame": false, "has_video": true}, {"channels": 0, "path": "Title-01.svg", "duration": 86400.0, "has_audio": false, "video_stream_index": -1, "channel_layout": 4, "vcodec": "", "audio_bit_rate": 0, "pixel_ratio": {"num": 1, "den": 1}, "height": 3827, "video_length": "2592000", "video_bit_rate": 0, "acodec": "", "sample_rate": 0, "file_size": "104140324", "pixel_format": -1, "display_ratio": {"num": 6803, "den": 3827}, "fps": {"num": 30, "den": 1}, "video_timebase": {"num": 1, "den": 30}, "top_field_first": true, "width": 6803, "media_type": "image", "id": "RBDOM40FGQ", "has_single_image": true, "audio_stream_index": -1, "type": "QtImageReader", "audio_timebase": {"num": 1, "den": 1}, "interlaced_frame": false, "has_video": true}, {"channels": 0, "path": "Title-03.svg", "duration": 86400.0, "has_audio": false, "video_stream_index": -1, "channel_layout": 4, "vcodec": "", "audio_bit_rate": 0, "pixel_ratio": {"num": 1, "den": 1}, "height": 3827, "video_length": "2592000", "video_bit_rate": 0, "acodec": "", "sample_rate": 0, "file_size": "104140324", "pixel_format": -1, "display_ratio": {"num": 6803, "den": 3827}, "fps": {"num": 30, "den": 1}, "video_timebase": {"num": 1, "den": 30}, "top_field_first": true, "width": 6803, "media_type": "image", "id": "1UGFFUXPZG", "has_single_image": true, "audio_stream_index": -1, "type": "QtImageReader", "audio_timebase": {"num": 1, "den": 1}, "interlaced_frame": false, "has_video": true}, {"channels": 0, "path": "Title-04.svg", "duration": 86400.0, "has_audio": false, "video_stream_index": -1, "channel_layout": 4, "vcodec": "", "audio_bit_rate": 0, "pixel_ratio": {"num": 1, "den": 1}, "height": 3827, "video_length": "2592000", "video_bit_rate": 0, "acodec": "", "sample_rate": 0, "file_size": "104140324", "pixel_format": -1, "display_ratio": {"num": 6803, "den": 3827}, "fps": {"num": 30, "den": 1}, "video_timebase": {"num": 1, "den": 30}, "top_field_first": true, "width": 6803, "media_type": "image", "id": "6B6X3SW6U5", "has_single_image": true, "audio_stream_index": -1, "type": "QtImageReader", "audio_timebase": {"num": 1, "den": 1}, "interlaced_frame": false, "has_video": true}, {"channels": 0, "path": "Title-05-All Four Titles.svg", "duration": 86400.0, "has_audio": false, "video_stream_index": -1, "channel_layout": 4, "vcodec": "", "audio_bit_rate": 0, "pixel_ratio": {"num": 1, "den": 1}, "height": 3827, "video_length": "2592000", "video_bit_rate": 0, "acodec": "", "sample_rate": 0, "file_size": "104140324", "pixel_format": -1, "display_ratio": {"num": 6803, "den": 3827}, "fps": {"num": 30, "den": 1}, "video_timebase": {"num": 1, "den": 30}, "top_field_first": true, "width": 6803, "media_type": "image", "id": "AR5E0JZFG5", "has_single_image": true, "audio_stream_index": -1, "type": "QtImageReader", "audio_timebase": {"num": 1, "den": 1}, "interlaced_frame": false, "has_video": true}, {"channels": 0, "path": "06-Create Progress Card Template.mkv", "duration": 44.0, "has_audio": false, "video_stream_index": 0, "channel_layout": 4, "vcodec": "h264", "audio_bit_rate": 0, "pixel_ratio": {"num": 1, "den": 1}, "height": 768, "video_length": "1100", "video_bit_rate": 0, "acodec": "", "sample_rate": 0, "file_size": "394038", "pixel_format": 0, "display_ratio": {"num": 683, "den": 384}, "fps": {"num": 25, "den": 1}, "video_timebase": {"num": 1, "den": 1000}, "top_field_first": true, "width": 1366, "media_type": "video", "id": "JH7UWI807B", "has_single_image": false, "audio_stream_index": -1, "type": "FFmpegReader", "audio_timebase": {"num": 1, "den": 1}, "interlaced_frame": false, "has_video": true}, {"channels": 0, "path": "07-Entered Record of 10 students.mkv", "duration": 59.0, "has_audio": false, "video_stream_index": 0, "display_ratio": {"num": 683, "den": 384}, "vcodec": "h264", "audio_bit_rate": 0, "pixel_ratio": {"num": 1, "den": 1}, "has_video": true, "height": 768, "video_length": "1475", "video_bit_rate": 0, "acodec": "", "sample_rate": 0, "file_size": "595628", "pixel_format": 0, "fps": {"num": 25, "den": 1}, "video_timebase": {"num": 1, "den": 1000}, "top_field_first": true, "width": 1366, "media_type": "video", "id": "ARUI3RRTAH", "has_single_image": false, "audio_stream_index": -1, "type": "FFmpegReader", "channel_layout": 4, "interlaced_frame": false, "audio_timebase": {"num": 1, "den": 1}}], "id": "T0", "layers": [{"id": "L0", "label": "", "lock": false, "number": 0, "y": 0}, {"id": "L1", "label": "", "lock": false, "number": 1, "y": 0}, {"id": "L2", "label": "", "lock": false, "number": 2, "y": 0}, {"id": "L3", "label": "", "lock": false, "number": 3, "y": 0}, {"id": "L4", "label": "", "lock": false, "number": 4, "y": 0}, {"id": "N3ZYH74NCE", "label": "", "lock": false, "number": 5, "y": 0}], "progress": [], "export_path": "", "playhead_position": 0, "tick_pixels": 100}