{"export_path": "", "effects": [], "layers": [{"lock": false, "label": "", "number": 0, "y": 0, "id": "L0"}, {"lock": false, "label": "", "number": 1, "y": 0, "id": "L1"}, {"lock": false, "label": "", "number": 2, "y": 0, "id": "L2"}, {"lock": false, "label": "", "number": 3, "y": 0, "id": "L3"}, {"lock": false, "label": "", "number": 4, "y": 0, "id": "L4"}], "width": 1280, "height": 720, "profile": "HDV 720 24p", "sample_rate": 44100, "clips": [{"id": "ACC3WDPIBO", "reader": {"audio_stream_index": -1, "video_stream_index": -1, "path": "intro.png", "video_length": "2592000", "has_audio": false, "display_ratio": {"den": 169, "num": 661}, "video_bit_rate": 0, "audio_timebase": {"den": 1, "num": 1}, "vcodec": "", "video_timebase": {"den": 30, "num": 1}, "fps": {"den": 1, "num": 30}, "has_single_image": true, "acodec": "", "width": 661, "type": "QtImageReader", "interlaced_frame": false, "pixel_ratio": {"den": 1, "num": 1}, "audio_bit_rate": 0, "pixel_format": -1, "sample_rate": 0, "channels": 0, "duration": 86400.0, "channel_layout": 4, "height": 169, "has_video": true, "top_field_first": true, "file_size": "446836"}, "file_id": "EYET6E4WCX", "has_audio": {"Points": [{"co": {"X": 1.0, "Y": -1.0}, "interpolation": 2}]}, "gravity": 4, "perspective_c4_y": {"Points": [{"co": {"X": 1.0, "Y": -1.0}, "interpolation": 2}]}, "time": {"Points": [{"co": {"X": 1.0, "Y": 1.0}, "interpolation": 2}]}, "start": 0, "channel_filter": {"Points": [{"co": {"X": 1.0, "Y": -1.0}, "interpolation": 2}]}, "waveform": false, "perspective_c1_y": {"Points": [{"co": {"X": 1.0, "Y": -1.0}, "interpolation": 2}]}, "location_y": {"Points": [{"co": {"X": 1.0, "Y": 0.0}, "interpolation": 2}, {"handle_type": 0, "handle_right": {"X": 0.5, "Y": 0.0}, "handle_left": {"X": 0.5, "Y": 1.0}, "co": {"X": 1.0, "Y": 0.0}, "interpolation": 0}, {"handle_type": 0, "handle_right": {"X": 0.5, "Y": 0.0}, "handle_left": {"X": 0.5, "Y": 1.0}, "co": {"X": 25.0, "Y": 0.0}, "interpolation": 0}]}, "duration": 86400.0, "crop_x": {"Points": [{"co": {"X": 1.0, "Y": 0.0}, "interpolation": 2}]}, "image": "../../../.openshot_qt/thumbnail/EYET6E4WCX.png", "shear_x": {"Points": [{"co": {"X": 1.0, "Y": 0.0}, "interpolation": 2}]}, "anchor": 0, "crop_height": {"Points": [{"co": {"X": 1.0, "Y": -1.0}, "interpolation": 2}]}, "has_video": {"Points": [{"co": {"X": 1.0, "Y": -1.0}, "interpolation": 2}]}, "effects": [], "title": "intro.png", "scale": 1, "location_x": {"Points": [{"co": {"X": 1.0, "Y": 0.0}, "interpolation": 2}, {"handle_type": 0, "handle_right": {"X": 0.5, "Y": 0.0}, "handle_left": {"X": 0.5, "Y": 1.0}, "co": {"X": 1.0, "Y": 1.0}, "interpolation": 0}, {"handle_type": 0, "handle_right": {"X": 0.5, "Y": 0.0}, "handle_left": {"X": 0.5, "Y": 1.0}, "co": {"X": 25.0, "Y": 0.0}, "interpolation": 0}]}, "wave_color": {"red": {"Points": [{"handle_type": 0, "handle_right": {"X": 0.5, "Y": 0.0}, "handle_left": {"X": 0.5, "Y": 1.0}, "co": {"X": 1.0, "Y": 0.0}, "interpolation": 0}]}, "alpha": {"Points": [{"handle_type": 0, "handle_right": {"X": 0.5, "Y": 0.0}, "handle_left": {"X": 0.5, "Y": 1.0}, "co": {"X": 1.0, "Y": 255.0}, "interpolation": 0}]}, "blue": {"Points": [{"handle_type": 0, "handle_right": {"X": 0.5, "Y": 0.0}, "handle_left": {"X": 0.5, "Y": 1.0}, "co": {"X": 1.0, "Y": 255.0}, "interpolation": 0}]}, "green": {"Points": [{"handle_type": 0, "handle_right": {"X": 0.5, "Y": 0.0}, "handle_left": {"X": 0.5, "Y": 1.0}, "co": {"X": 1.0, "Y": 123.0}, "interpolation": 0}]}}, "perspective_c1_x": {"Points": [{"co": {"X": 1.0, "Y": -1.0}, "interpolation": 2}]}, "alpha": {"Points": [{"co": {"X": 1.0, "Y": 1.0}, "interpolation": 2}]}, "perspective_c3_y": {"Points": [{"co": {"X": 1.0, "Y": -1.0}, "interpolation": 2}]}, "layer": 4, "rotation": {"Points": [{"co": {"X": 1.0, "Y": 0.0}, "interpolation": 2}]}, "position": 41.28, "shear_y": {"Points": [{"co": {"X": 1.0, "Y": 0.0}, "interpolation": 2}]}, "display": 0, "perspective_c2_x": {"Points": [{"co": {"X": 1.0, "Y": -1.0}, "interpolation": 2}]}, "end": 10, "perspective_c3_x": {"Points": [{"co": {"X": 1.0, "Y": -1.0}, "interpolation": 2}]}, "volume": {"Points": [{"co": {"X": 1.0, "Y": 1.0}, "interpolation": 2}]}, "scale_y": {"Points": [{"co": {"X": 1.0, "Y": 1.0}, "interpolation": 2}]}, "perspective_c4_x": {"Points": [{"co": {"X": 1.0, "Y": -1.0}, "interpolation": 2}]}, "crop_width": {"Points": [{"co": {"X": 1.0, "Y": -1.0}, "interpolation": 2}]}, "scale_x": {"Points": [{"co": {"X": 1.0, "Y": 1.0}, "interpolation": 2}]}, "crop_y": {"Points": [{"co": {"X": 1.0, "Y": 0.0}, "interpolation": 2}]}, "perspective_c2_y": {"Points": [{"co": {"X": 1.0, "Y": -1.0}, "interpolation": 2}]}, "channel_mapping": {"Points": [{"co": {"X": 1.0, "Y": -1.0}, "interpolation": 2}]}}, {"channel_filter": {"Points": [{"co": {"X": 1.0, "Y": -1.0}, "interpolation": 2}]}, "id": "2TGY3MFOSA", "anchor": 0, "file_id": "P90UHAKE08", "has_audio": {"Points": [{"co": {"X": 1.0, "Y": -1.0}, "interpolation": 2}]}, "gravity": 4, "perspective_c4_y": {"Points": [{"co": {"X": 1.0, "Y": -1.0}, "interpolation": 2}]}, "time": {"Points": [{"co": {"X": 1.0, "Y": 1.0}, "interpolation": 2}]}, "image": "../../../.openshot_qt/thumbnail/P90UHAKE08.png", "start": 0, "crop_width": {"Points": [{"co": {"X": 1.0, "Y": -1.0}, "interpolation": 2}]}, "waveform": false, "perspective_c1_y": {"Points": [{"co": {"X": 1.0, "Y": -1.0}, "interpolation": 2}]}, "location_y": {"Points": [{"co": {"X": 1.0, "Y": 0.0}, "interpolation": 2}, {"handle_type": 0, "interpolation": 0, "handle_left": {"X": 0.5, "Y": 1.0}, "co": {"X": 1.0, "Y": 0.0}, "handle_right": {"X": 0.5, "Y": 0.0}}, {"handle_type": 0, "interpolation": 0, "handle_left": {"X": 0.5, "Y": 1.0}, "co": {"X": 25.0, "Y": 0.0}, "handle_right": {"X": 0.5, "Y": 0.0}}]}, "crop_x": {"Points": [{"co": {"X": 1.0, "Y": 0.0}, "interpolation": 2}]}, "duration": 86400.0, "reader": {"audio_stream_index": -1, "path": "Title-01.svg", "video_stream_index": -1, "video_length": "2592000", "has_audio": false, "display_ratio": {"den": 3827, "num": 6803}, "video_bit_rate": 0, "audio_timebase": {"den": 1, "num": 1}, "channel_layout": 4, "fps": {"den": 1, "num": 30}, "has_single_image": true, "acodec": "", "width": 6803, "type": "QtImageReader", "interlaced_frame": false, "pixel_ratio": {"den": 1, "num": 1}, "pixel_format": -1, "audio_bit_rate": 0, "sample_rate": 0, "channels": 0, "duration": 86400.0, "vcodec": "", "height": 3827, "video_timebase": {"den": 30, "num": 1}, "has_video": true, "top_field_first": true, "file_size": "104140324"}, "crop_height": {"Points": [{"co": {"X": 1.0, "Y": -1.0}, "interpolation": 2}]}, "has_video": {"Points": [{"co": {"X": 1.0, "Y": -1.0}, "interpolation": 2}]}, "effects": [], "title": "Title-01.svg", "scale": 1, "location_x": {"Points": [{"co": {"X": 1.0, "Y": 0.0}, "interpolation": 2}, {"handle_type": 0, "interpolation": 0, "handle_left": {"X": 0.5, "Y": 1.0}, "co": {"X": 1.0, "Y": 1.0}, "handle_right": {"X": 0.5, "Y": 0.0}}, {"handle_type": 0, "interpolation": 0, "handle_left": {"X": 0.5, "Y": 1.0}, "co": {"X": 25.0, "Y": 0.0}, "handle_right": {"X": 0.5, "Y": 0.0}}]}, "wave_color": {"red": {"Points": [{"handle_type": 0, "interpolation": 0, "handle_left": {"X": 0.5, "Y": 1.0}, "co": {"X": 1.0, "Y": 0.0}, "handle_right": {"X": 0.5, "Y": 0.0}}]}, "alpha": {"Points": [{"handle_type": 0, "interpolation": 0, "handle_left": {"X": 0.5, "Y": 1.0}, "co": {"X": 1.0, "Y": 255.0}, "handle_right": {"X": 0.5, "Y": 0.0}}]}, "blue": {"Points": [{"handle_type": 0, "interpolation": 0, "handle_left": {"X": 0.5, "Y": 1.0}, "co": {"X": 1.0, "Y": 255.0}, "handle_right": {"X": 0.5, "Y": 0.0}}]}, "green": {"Points": [{"handle_type": 0, "interpolation": 0, "handle_left": {"X": 0.5, "Y": 1.0}, "co": {"X": 1.0, "Y": 123.0}, "handle_right": {"X": 0.5, "Y": 0.0}}]}}, "perspective_c1_x": {"Points": [{"co": {"X": 1.0, "Y": -1.0}, "interpolation": 2}]}, "alpha": {"Points": [{"co": {"X": 1.0, "Y": 1.0}, "interpolation": 2}]}, "scale_y": {"Points": [{"co": {"X": 1.0, "Y": 1.0}, "interpolation": 2}]}, "layer": 0, "rotation": {"Points": [{"co": {"X": 1.0, "Y": 0.0}, "interpolation": 2}]}, "position": 0.64, "shear_y": {"Points": [{"co": {"X": 1.0, "Y": 0.0}, "interpolation": 2}]}, "display": 0, "perspective_c2_x": {"Points": [{"co": {"X": 1.0, "Y": -1.0}, "interpolation": 2}]}, "end": 10, "channel_mapping": {"Points": [{"co": {"X": 1.0, "Y": -1.0}, "interpolation": 2}]}, "volume": {"Points": [{"co": {"X": 1.0, "Y": 1.0}, "interpolation": 2}]}, "perspective_c3_y": {"Points": [{"co": {"X": 1.0, "Y": -1.0}, "interpolation": 2}]}, "perspective_c4_x": {"Points": [{"co": {"X": 1.0, "Y": -1.0}, "interpolation": 2}]}, "shear_x": {"Points": [{"co": {"X": 1.0, "Y": 0.0}, "interpolation": 2}]}, "scale_x": {"Points": [{"co": {"X": 1.0, "Y": 1.0}, "interpolation": 2}]}, "crop_y": {"Points": [{"co": {"X": 1.0, "Y": 0.0}, "interpolation": 2}]}, "perspective_c2_y": {"Points": [{"co": {"X": 1.0, "Y": -1.0}, "interpolation": 2}]}, "perspective_c3_x": {"Points": [{"co": {"X": 1.0, "Y": -1.0}, "interpolation": 2}]}}, {"channel_filter": {"Points": [{"co": {"X": 1.0, "Y": -1.0}, "interpolation": 2}]}, "id": "VPXH2YR7L9", "anchor": 0, "file_id": "P90UHAKE08", "has_audio": {"Points": [{"co": {"X": 1.0, "Y": -1.0}, "interpolation": 2}]}, "gravity": 4, "perspective_c4_y": {"Points": [{"co": {"X": 1.0, "Y": -1.0}, "interpolation": 2}]}, "time": {"Points": [{"co": {"X": 1.0, "Y": 1.0}, "interpolation": 2}]}, "image": "../../../.openshot_qt/thumbnail/P90UHAKE08.png", "start": 0, "crop_width": {"Points": [{"co": {"X": 1.0, "Y": -1.0}, "interpolation": 2}]}, "waveform": false, "perspective_c1_y": {"Points": [{"co": {"X": 1.0, "Y": -1.0}, "interpolation": 2}]}, "location_y": {"Points": [{"co": {"X": 1.0, "Y": 0.0}, "interpolation": 2}]}, "crop_x": {"Points": [{"co": {"X": 1.0, "Y": 0.0}, "interpolation": 2}]}, "duration": 86400.0, "reader": {"audio_stream_index": -1, "path": "Title-01.svg", "video_stream_index": -1, "video_length": "2592000", "has_audio": false, "display_ratio": {"den": 3827, "num": 6803}, "video_bit_rate": 0, "audio_timebase": {"den": 1, "num": 1}, "channel_layout": 4, "fps": {"den": 1, "num": 30}, "has_single_image": true, "acodec": "", "width": 6803, "type": "QtImageReader", "interlaced_frame": false, "pixel_ratio": {"den": 1, "num": 1}, "pixel_format": -1, "audio_bit_rate": 0, "sample_rate": 0, "channels": 0, "duration": 86400.0, "vcodec": "", "height": 3827, "video_timebase": {"den": 30, "num": 1}, "has_video": true, "top_field_first": true, "file_size": "104140324"}, "crop_height": {"Points": [{"co": {"X": 1.0, "Y": -1.0}, "interpolation": 2}]}, "has_video": {"Points": [{"co": {"X": 1.0, "Y": -1.0}, "interpolation": 2}]}, "effects": [], "title": "Title-01.svg", "scale": 1, "location_x": {"Points": [{"co": {"X": 1.0, "Y": 0.0}, "interpolation": 2}]}, "wave_color": {"red": {"Points": [{"handle_type": 0, "handle_right": {"X": 0.5, "Y": 0.0}, "handle_left": {"X": 0.5, "Y": 1.0}, "co": {"X": 1.0, "Y": 0.0}, "interpolation": 0}]}, "alpha": {"Points": [{"handle_type": 0, "handle_right": {"X": 0.5, "Y": 0.0}, "handle_left": {"X": 0.5, "Y": 1.0}, "co": {"X": 1.0, "Y": 255.0}, "interpolation": 0}]}, "blue": {"Points": [{"handle_type": 0, "handle_right": {"X": 0.5, "Y": 0.0}, "handle_left": {"X": 0.5, "Y": 1.0}, "co": {"X": 1.0, "Y": 255.0}, "interpolation": 0}]}, "green": {"Points": [{"handle_type": 0, "handle_right": {"X": 0.5, "Y": 0.0}, "handle_left": {"X": 0.5, "Y": 1.0}, "co": {"X": 1.0, "Y": 123.0}, "interpolation": 0}]}}, "perspective_c1_x": {"Points": [{"co": {"X": 1.0, "Y": -1.0}, "interpolation": 2}]}, "alpha": {"Points": [{"co": {"X": 1.0, "Y": 1.0}, "interpolation": 2}]}, "scale_y": {"Points": [{"co": {"X": 1.0, "Y": 1.0}, "interpolation": 2}]}, "layer": 0, "rotation": {"Points": [{"co": {"X": 1.0, "Y": 0.0}, "interpolation": 2}]}, "position": 10.64, "shear_y": {"Points": [{"co": {"X": 1.0, "Y": 0.0}, "interpolation": 2}]}, "display": 0, "perspective_c2_x": {"Points": [{"co": {"X": 1.0, "Y": -1.0}, "interpolation": 2}]}, "end": 10, "channel_mapping": {"Points": [{"co": {"X": 1.0, "Y": -1.0}, "interpolation": 2}]}, "volume": {"Points": [{"co": {"X": 1.0, "Y": 1.0}, "interpolation": 2}]}, "perspective_c3_y": {"Points": [{"co": {"X": 1.0, "Y": -1.0}, "interpolation": 2}]}, "perspective_c4_x": {"Points": [{"co": {"X": 1.0, "Y": -1.0}, "interpolation": 2}]}, "shear_x": {"Points": [{"co": {"X": 1.0, "Y": 0.0}, "interpolation": 2}]}, "scale_x": {"Points": [{"co": {"X": 1.0, "Y": 1.0}, "interpolation": 2}]}, "crop_y": {"Points": [{"co": {"X": 1.0, "Y": 0.0}, "interpolation": 2}]}, "perspective_c2_y": {"Points": [{"co": {"X": 1.0, "Y": -1.0}, "interpolation": 2}]}, "perspective_c3_x": {"Points": [{"co": {"X": 1.0, "Y": -1.0}, "interpolation": 2}]}}, {"channel_filter": {"Points": [{"co": {"X": 1.0, "Y": -1.0}, "interpolation": 2}]}, "id": "O48FS1E8RG", "anchor": 0, "file_id": "P90UHAKE08", "has_audio": {"Points": [{"co": {"X": 1.0, "Y": -1.0}, "interpolation": 2}]}, "gravity": 4, "perspective_c4_y": {"Points": [{"co": {"X": 1.0, "Y": -1.0}, "interpolation": 2}]}, "time": {"Points": [{"co": {"X": 1.0, "Y": 1.0}, "interpolation": 2}]}, "image": "../../../.openshot_qt/thumbnail/P90UHAKE08.png", "start": 0, "crop_width": {"Points": [{"co": {"X": 1.0, "Y": -1.0}, "interpolation": 2}]}, "waveform": false, "perspective_c1_y": {"Points": [{"co": {"X": 1.0, "Y": -1.0}, "interpolation": 2}]}, "location_y": {"Points": [{"co": {"X": 1.0, "Y": 0.0}, "interpolation": 2}]}, "crop_x": {"Points": [{"co": {"X": 1.0, "Y": 0.0}, "interpolation": 2}]}, "duration": 86400.0, "reader": {"audio_stream_index": -1, "path": "Title-01.svg", "video_stream_index": -1, "video_length": "2592000", "has_audio": false, "display_ratio": {"den": 3827, "num": 6803}, "video_bit_rate": 0, "audio_timebase": {"den": 1, "num": 1}, "channel_layout": 4, "fps": {"den": 1, "num": 30}, "has_single_image": true, "acodec": "", "width": 6803, "type": "QtImageReader", "interlaced_frame": false, "pixel_ratio": {"den": 1, "num": 1}, "pixel_format": -1, "audio_bit_rate": 0, "sample_rate": 0, "channels": 0, "duration": 86400.0, "vcodec": "", "height": 3827, "video_timebase": {"den": 30, "num": 1}, "has_video": true, "top_field_first": true, "file_size": "104140324"}, "crop_height": {"Points": [{"co": {"X": 1.0, "Y": -1.0}, "interpolation": 2}]}, "has_video": {"Points": [{"co": {"X": 1.0, "Y": -1.0}, "interpolation": 2}]}, "effects": [], "title": "Title-01.svg", "scale": 1, "location_x": {"Points": [{"co": {"X": 1.0, "Y": 0.0}, "interpolation": 2}]}, "wave_color": {"red": {"Points": [{"handle_type": 0, "handle_right": {"X": 0.5, "Y": 0.0}, "handle_left": {"X": 0.5, "Y": 1.0}, "co": {"X": 1.0, "Y": 0.0}, "interpolation": 0}]}, "alpha": {"Points": [{"handle_type": 0, "handle_right": {"X": 0.5, "Y": 0.0}, "handle_left": {"X": 0.5, "Y": 1.0}, "co": {"X": 1.0, "Y": 255.0}, "interpolation": 0}]}, "blue": {"Points": [{"handle_type": 0, "handle_right": {"X": 0.5, "Y": 0.0}, "handle_left": {"X": 0.5, "Y": 1.0}, "co": {"X": 1.0, "Y": 255.0}, "interpolation": 0}]}, "green": {"Points": [{"handle_type": 0, "handle_right": {"X": 0.5, "Y": 0.0}, "handle_left": {"X": 0.5, "Y": 1.0}, "co": {"X": 1.0, "Y": 123.0}, "interpolation": 0}]}}, "perspective_c1_x": {"Points": [{"co": {"X": 1.0, "Y": -1.0}, "interpolation": 2}]}, "alpha": {"Points": [{"co": {"X": 1.0, "Y": 1.0}, "interpolation": 2}]}, "scale_y": {"Points": [{"co": {"X": 1.0, "Y": 1.0}, "interpolation": 2}]}, "layer": 0, "rotation": {"Points": [{"co": {"X": 1.0, "Y": 0.0}, "interpolation": 2}]}, "position": 20.64, "shear_y": {"Points": [{"co": {"X": 1.0, "Y": 0.0}, "interpolation": 2}]}, "display": 0, "perspective_c2_x": {"Points": [{"co": {"X": 1.0, "Y": -1.0}, "interpolation": 2}]}, "end": 10, "channel_mapping": {"Points": [{"co": {"X": 1.0, "Y": -1.0}, "interpolation": 2}]}, "volume": {"Points": [{"co": {"X": 1.0, "Y": 1.0}, "interpolation": 2}]}, "perspective_c3_y": {"Points": [{"co": {"X": 1.0, "Y": -1.0}, "interpolation": 2}]}, "perspective_c4_x": {"Points": [{"co": {"X": 1.0, "Y": -1.0}, "interpolation": 2}]}, "shear_x": {"Points": [{"co": {"X": 1.0, "Y": 0.0}, "interpolation": 2}]}, "scale_x": {"Points": [{"co": {"X": 1.0, "Y": 1.0}, "interpolation": 2}]}, "crop_y": {"Points": [{"co": {"X": 1.0, "Y": 0.0}, "interpolation": 2}]}, "perspective_c2_y": {"Points": [{"co": {"X": 1.0, "Y": -1.0}, "interpolation": 2}]}, "perspective_c3_x": {"Points": [{"co": {"X": 1.0, "Y": -1.0}, "interpolation": 2}]}}, {"channel_filter": {"Points": [{"co": {"X": 1.0, "Y": -1.0}, "interpolation": 2}]}, "id": "7C0GMAN5HH", "anchor": 0, "file_id": "0D6YTY7G58", "has_audio": {"Points": [{"co": {"X": 1.0, "Y": -1.0}, "interpolation": 2}]}, "gravity": 4, "perspective_c4_y": {"Points": [{"co": {"X": 1.0, "Y": -1.0}, "interpolation": 2}]}, "time": {"Points": [{"co": {"X": 1.0, "Y": 1.0}, "interpolation": 2}]}, "image": "../../../.openshot_qt/thumbnail/0D6YTY7G58.png", "start": 0, "crop_width": {"Points": [{"co": {"X": 1.0, "Y": -1.0}, "interpolation": 2}]}, "waveform": false, "perspective_c1_y": {"Points": [{"co": {"X": 1.0, "Y": -1.0}, "interpolation": 2}]}, "location_y": {"Points": [{"co": {"X": 1.0, "Y": 0.0}, "interpolation": 2}]}, "crop_x": {"Points": [{"co": {"X": 1.0, "Y": 0.0}, "interpolation": 2}]}, "duration": 86400.0, "reader": {"audio_stream_index": -1, "path": "Title-02.svg", "video_stream_index": -1, "video_length": "2592000", "has_audio": false, "display_ratio": {"den": 3827, "num": 6803}, "video_bit_rate": 0, "audio_timebase": {"den": 1, "num": 1}, "channel_layout": 4, "fps": {"den": 1, "num": 30}, "has_single_image": true, "acodec": "", "width": 6803, "type": "QtImageReader", "interlaced_frame": false, "pixel_ratio": {"den": 1, "num": 1}, "pixel_format": -1, "audio_bit_rate": 0, "sample_rate": 0, "channels": 0, "duration": 86400.0, "vcodec": "", "height": 3827, "video_timebase": {"den": 30, "num": 1}, "has_video": true, "top_field_first": true, "file_size": "104140324"}, "crop_height": {"Points": [{"co": {"X": 1.0, "Y": -1.0}, "interpolation": 2}]}, "has_video": {"Points": [{"co": {"X": 1.0, "Y": -1.0}, "interpolation": 2}]}, "effects": [], "title": "Title-02.svg", "scale": 1, "location_x": {"Points": [{"co": {"X": 1.0, "Y": 0.0}, "interpolation": 2}]}, "wave_color": {"red": {"Points": [{"handle_type": 0, "handle_right": {"X": 0.5, "Y": 0.0}, "handle_left": {"X": 0.5, "Y": 1.0}, "co": {"X": 1.0, "Y": 0.0}, "interpolation": 0}]}, "alpha": {"Points": [{"handle_type": 0, "handle_right": {"X": 0.5, "Y": 0.0}, "handle_left": {"X": 0.5, "Y": 1.0}, "co": {"X": 1.0, "Y": 255.0}, "interpolation": 0}]}, "blue": {"Points": [{"handle_type": 0, "handle_right": {"X": 0.5, "Y": 0.0}, "handle_left": {"X": 0.5, "Y": 1.0}, "co": {"X": 1.0, "Y": 255.0}, "interpolation": 0}]}, "green": {"Points": [{"handle_type": 0, "handle_right": {"X": 0.5, "Y": 0.0}, "handle_left": {"X": 0.5, "Y": 1.0}, "co": {"X": 1.0, "Y": 123.0}, "interpolation": 0}]}}, "perspective_c1_x": {"Points": [{"co": {"X": 1.0, "Y": -1.0}, "interpolation": 2}]}, "alpha": {"Points": [{"co": {"X": 1.0, "Y": 1.0}, "interpolation": 2}]}, "scale_y": {"Points": [{"co": {"X": 1.0, "Y": 1.0}, "interpolation": 2}]}, "layer": 1, "rotation": {"Points": [{"co": {"X": 1.0, "Y": 0.0}, "interpolation": 2}]}, "position": 10.88, "shear_y": {"Points": [{"co": {"X": 1.0, "Y": 0.0}, "interpolation": 2}]}, "display": 0, "perspective_c2_x": {"Points": [{"co": {"X": 1.0, "Y": -1.0}, "interpolation": 2}]}, "end": 10, "channel_mapping": {"Points": [{"co": {"X": 1.0, "Y": -1.0}, "interpolation": 2}]}, "volume": {"Points": [{"co": {"X": 1.0, "Y": 1.0}, "interpolation": 2}]}, "perspective_c3_y": {"Points": [{"co": {"X": 1.0, "Y": -1.0}, "interpolation": 2}]}, "perspective_c4_x": {"Points": [{"co": {"X": 1.0, "Y": -1.0}, "interpolation": 2}]}, "shear_x": {"Points": [{"co": {"X": 1.0, "Y": 0.0}, "interpolation": 2}]}, "scale_x": {"Points": [{"co": {"X": 1.0, "Y": 1.0}, "interpolation": 2}]}, "crop_y": {"Points": [{"co": {"X": 1.0, "Y": 0.0}, "interpolation": 2}]}, "perspective_c2_y": {"Points": [{"co": {"X": 1.0, "Y": -1.0}, "interpolation": 2}]}, "perspective_c3_x": {"Points": [{"co": {"X": 1.0, "Y": -1.0}, "interpolation": 2}]}}, {"channel_filter": {"Points": [{"co": {"X": 1.0, "Y": -1.0}, "interpolation": 2}]}, "id": "33BYMNG1XF", "anchor": 0, "file_id": "0D6YTY7G58", "has_audio": {"Points": [{"co": {"X": 1.0, "Y": -1.0}, "interpolation": 2}]}, "gravity": 4, "perspective_c4_y": {"Points": [{"co": {"X": 1.0, "Y": -1.0}, "interpolation": 2}]}, "time": {"Points": [{"co": {"X": 1.0, "Y": 1.0}, "interpolation": 2}]}, "image": "../../../.openshot_qt/thumbnail/0D6YTY7G58.png", "start": 0, "crop_width": {"Points": [{"co": {"X": 1.0, "Y": -1.0}, "interpolation": 2}]}, "waveform": false, "perspective_c1_y": {"Points": [{"co": {"X": 1.0, "Y": -1.0}, "interpolation": 2}]}, "location_y": {"Points": [{"co": {"X": 1.0, "Y": 0.0}, "interpolation": 2}]}, "crop_x": {"Points": [{"co": {"X": 1.0, "Y": 0.0}, "interpolation": 2}]}, "duration": 86400.0, "reader": {"audio_stream_index": -1, "path": "Title-02.svg", "video_stream_index": -1, "video_length": "2592000", "has_audio": false, "display_ratio": {"den": 3827, "num": 6803}, "video_bit_rate": 0, "audio_timebase": {"den": 1, "num": 1}, "channel_layout": 4, "fps": {"den": 1, "num": 30}, "has_single_image": true, "acodec": "", "width": 6803, "type": "QtImageReader", "interlaced_frame": false, "pixel_ratio": {"den": 1, "num": 1}, "pixel_format": -1, "audio_bit_rate": 0, "sample_rate": 0, "channels": 0, "duration": 86400.0, "vcodec": "", "height": 3827, "video_timebase": {"den": 30, "num": 1}, "has_video": true, "top_field_first": true, "file_size": "104140324"}, "crop_height": {"Points": [{"co": {"X": 1.0, "Y": -1.0}, "interpolation": 2}]}, "has_video": {"Points": [{"co": {"X": 1.0, "Y": -1.0}, "interpolation": 2}]}, "effects": [], "title": "Title-02.svg", "scale": 1, "location_x": {"Points": [{"co": {"X": 1.0, "Y": 0.0}, "interpolation": 2}]}, "wave_color": {"red": {"Points": [{"handle_type": 0, "handle_right": {"X": 0.5, "Y": 0.0}, "handle_left": {"X": 0.5, "Y": 1.0}, "co": {"X": 1.0, "Y": 0.0}, "interpolation": 0}]}, "alpha": {"Points": [{"handle_type": 0, "handle_right": {"X": 0.5, "Y": 0.0}, "handle_left": {"X": 0.5, "Y": 1.0}, "co": {"X": 1.0, "Y": 255.0}, "interpolation": 0}]}, "blue": {"Points": [{"handle_type": 0, "handle_right": {"X": 0.5, "Y": 0.0}, "handle_left": {"X": 0.5, "Y": 1.0}, "co": {"X": 1.0, "Y": 255.0}, "interpolation": 0}]}, "green": {"Points": [{"handle_type": 0, "handle_right": {"X": 0.5, "Y": 0.0}, "handle_left": {"X": 0.5, "Y": 1.0}, "co": {"X": 1.0, "Y": 123.0}, "interpolation": 0}]}}, "perspective_c1_x": {"Points": [{"co": {"X": 1.0, "Y": -1.0}, "interpolation": 2}]}, "alpha": {"Points": [{"co": {"X": 1.0, "Y": 1.0}, "interpolation": 2}]}, "scale_y": {"Points": [{"co": {"X": 1.0, "Y": 1.0}, "interpolation": 2}]}, "layer": 1, "rotation": {"Points": [{"co": {"X": 1.0, "Y": 0.0}, "interpolation": 2}]}, "position": 20.880000000000006, "shear_y": {"Points": [{"co": {"X": 1.0, "Y": 0.0}, "interpolation": 2}]}, "display": 0, "perspective_c2_x": {"Points": [{"co": {"X": 1.0, "Y": -1.0}, "interpolation": 2}]}, "end": 10, "channel_mapping": {"Points": [{"co": {"X": 1.0, "Y": -1.0}, "interpolation": 2}]}, "volume": {"Points": [{"co": {"X": 1.0, "Y": 1.0}, "interpolation": 2}]}, "perspective_c3_y": {"Points": [{"co": {"X": 1.0, "Y": -1.0}, "interpolation": 2}]}, "perspective_c4_x": {"Points": [{"co": {"X": 1.0, "Y": -1.0}, "interpolation": 2}]}, "shear_x": {"Points": [{"co": {"X": 1.0, "Y": 0.0}, "interpolation": 2}]}, "scale_x": {"Points": [{"co": {"X": 1.0, "Y": 1.0}, "interpolation": 2}]}, "crop_y": {"Points": [{"co": {"X": 1.0, "Y": 0.0}, "interpolation": 2}]}, "perspective_c2_y": {"Points": [{"co": {"X": 1.0, "Y": -1.0}, "interpolation": 2}]}, "perspective_c3_x": {"Points": [{"co": {"X": 1.0, "Y": -1.0}, "interpolation": 2}]}}, {"channel_filter": {"Points": [{"co": {"X": 1.0, "Y": -1.0}, "interpolation": 2}]}, "id": "XKF5M8RK48", "anchor": 0, "file_id": "NXRCV0O7IK", "has_audio": {"Points": [{"co": {"X": 1.0, "Y": -1.0}, "interpolation": 2}]}, "gravity": 4, "perspective_c4_y": {"Points": [{"co": {"X": 1.0, "Y": -1.0}, "interpolation": 2}]}, "time": {"Points": [{"co": {"X": 1.0, "Y": 1.0}, "interpolation": 2}]}, "image": "../../../.openshot_qt/thumbnail/NXRCV0O7IK.png", "start": 0, "crop_width": {"Points": [{"co": {"X": 1.0, "Y": -1.0}, "interpolation": 2}]}, "waveform": false, "perspective_c1_y": {"Points": [{"co": {"X": 1.0, "Y": -1.0}, "interpolation": 2}]}, "location_y": {"Points": [{"co": {"X": 1.0, "Y": 0.0}, "interpolation": 2}]}, "crop_x": {"Points": [{"co": {"X": 1.0, "Y": 0.0}, "interpolation": 2}]}, "duration": 86400.0, "reader": {"audio_stream_index": -1, "path": "Title-03.svg", "video_stream_index": -1, "video_length": "2592000", "has_audio": false, "display_ratio": {"den": 3827, "num": 6803}, "video_bit_rate": 0, "audio_timebase": {"den": 1, "num": 1}, "channel_layout": 4, "fps": {"den": 1, "num": 30}, "has_single_image": true, "acodec": "", "width": 6803, "type": "QtImageReader", "interlaced_frame": false, "pixel_ratio": {"den": 1, "num": 1}, "pixel_format": -1, "audio_bit_rate": 0, "sample_rate": 0, "channels": 0, "duration": 86400.0, "vcodec": "", "height": 3827, "video_timebase": {"den": 30, "num": 1}, "has_video": true, "top_field_first": true, "file_size": "104140324"}, "crop_height": {"Points": [{"co": {"X": 1.0, "Y": -1.0}, "interpolation": 2}]}, "has_video": {"Points": [{"co": {"X": 1.0, "Y": -1.0}, "interpolation": 2}]}, "effects": [], "title": "Title-03.svg", "scale": 1, "location_x": {"Points": [{"co": {"X": 1.0, "Y": 0.0}, "interpolation": 2}]}, "wave_color": {"red": {"Points": [{"handle_type": 0, "handle_right": {"X": 0.5, "Y": 0.0}, "handle_left": {"X": 0.5, "Y": 1.0}, "co": {"X": 1.0, "Y": 0.0}, "interpolation": 0}]}, "alpha": {"Points": [{"handle_type": 0, "handle_right": {"X": 0.5, "Y": 0.0}, "handle_left": {"X": 0.5, "Y": 1.0}, "co": {"X": 1.0, "Y": 255.0}, "interpolation": 0}]}, "blue": {"Points": [{"handle_type": 0, "handle_right": {"X": 0.5, "Y": 0.0}, "handle_left": {"X": 0.5, "Y": 1.0}, "co": {"X": 1.0, "Y": 255.0}, "interpolation": 0}]}, "green": {"Points": [{"handle_type": 0, "handle_right": {"X": 0.5, "Y": 0.0}, "handle_left": {"X": 0.5, "Y": 1.0}, "co": {"X": 1.0, "Y": 123.0}, "interpolation": 0}]}}, "perspective_c1_x": {"Points": [{"co": {"X": 1.0, "Y": -1.0}, "interpolation": 2}]}, "alpha": {"Points": [{"co": {"X": 1.0, "Y": 1.0}, "interpolation": 2}]}, "scale_y": {"Points": [{"co": {"X": 1.0, "Y": 1.0}, "interpolation": 2}]}, "layer": 2, "rotation": {"Points": [{"co": {"X": 1.0, "Y": 0.0}, "interpolation": 2}]}, "position": 21.12, "shear_y": {"Points": [{"co": {"X": 1.0, "Y": 0.0}, "interpolation": 2}]}, "display": 0, "perspective_c2_x": {"Points": [{"co": {"X": 1.0, "Y": -1.0}, "interpolation": 2}]}, "end": 10, "channel_mapping": {"Points": [{"co": {"X": 1.0, "Y": -1.0}, "interpolation": 2}]}, "volume": {"Points": [{"co": {"X": 1.0, "Y": 1.0}, "interpolation": 2}]}, "perspective_c3_y": {"Points": [{"co": {"X": 1.0, "Y": -1.0}, "interpolation": 2}]}, "perspective_c4_x": {"Points": [{"co": {"X": 1.0, "Y": -1.0}, "interpolation": 2}]}, "shear_x": {"Points": [{"co": {"X": 1.0, "Y": 0.0}, "interpolation": 2}]}, "scale_x": {"Points": [{"co": {"X": 1.0, "Y": 1.0}, "interpolation": 2}]}, "crop_y": {"Points": [{"co": {"X": 1.0, "Y": 0.0}, "interpolation": 2}]}, "perspective_c2_y": {"Points": [{"co": {"X": 1.0, "Y": -1.0}, "interpolation": 2}]}, "perspective_c3_x": {"Points": [{"co": {"X": 1.0, "Y": -1.0}, "interpolation": 2}]}}, {"channel_filter": {"Points": [{"co": {"X": 1.0, "Y": -1.0}, "interpolation": 2}]}, "id": "RKN119MZ6I", "anchor": 0, "file_id": "0D6YTY7G58", "has_audio": {"Points": [{"co": {"X": 1.0, "Y": -1.0}, "interpolation": 2}]}, "gravity": 4, "perspective_c4_y": {"Points": [{"co": {"X": 1.0, "Y": -1.0}, "interpolation": 2}]}, "time": {"Points": [{"co": {"X": 1.0, "Y": 1.0}, "interpolation": 2}]}, "image": "../../../.openshot_qt/thumbnail/0D6YTY7G58.png", "start": 0, "crop_width": {"Points": [{"co": {"X": 1.0, "Y": -1.0}, "interpolation": 2}]}, "waveform": false, "perspective_c1_y": {"Points": [{"co": {"X": 1.0, "Y": -1.0}, "interpolation": 2}]}, "location_y": {"Points": [{"co": {"X": 1.0, "Y": 0.0}, "interpolation": 2}]}, "crop_x": {"Points": [{"co": {"X": 1.0, "Y": 0.0}, "interpolation": 2}]}, "duration": 86400.0, "reader": {"audio_stream_index": -1, "path": "Title-02.svg", "video_stream_index": -1, "video_length": "2592000", "has_audio": false, "display_ratio": {"den": 3827, "num": 6803}, "video_bit_rate": 0, "audio_timebase": {"den": 1, "num": 1}, "channel_layout": 4, "fps": {"den": 1, "num": 30}, "has_single_image": true, "acodec": "", "width": 6803, "type": "QtImageReader", "interlaced_frame": false, "pixel_ratio": {"den": 1, "num": 1}, "pixel_format": -1, "audio_bit_rate": 0, "sample_rate": 0, "channels": 0, "duration": 86400.0, "vcodec": "", "height": 3827, "video_timebase": {"den": 30, "num": 1}, "has_video": true, "top_field_first": true, "file_size": "104140324"}, "crop_height": {"Points": [{"co": {"X": 1.0, "Y": -1.0}, "interpolation": 2}]}, "has_video": {"Points": [{"co": {"X": 1.0, "Y": -1.0}, "interpolation": 2}]}, "effects": [], "title": "Title-02.svg", "scale": 1, "location_x": {"Points": [{"co": {"X": 1.0, "Y": 0.0}, "interpolation": 2}]}, "wave_color": {"red": {"Points": [{"handle_type": 0, "handle_right": {"X": 0.5, "Y": 0.0}, "handle_left": {"X": 0.5, "Y": 1.0}, "co": {"X": 1.0, "Y": 0.0}, "interpolation": 0}]}, "alpha": {"Points": [{"handle_type": 0, "handle_right": {"X": 0.5, "Y": 0.0}, "handle_left": {"X": 0.5, "Y": 1.0}, "co": {"X": 1.0, "Y": 255.0}, "interpolation": 0}]}, "blue": {"Points": [{"handle_type": 0, "handle_right": {"X": 0.5, "Y": 0.0}, "handle_left": {"X": 0.5, "Y": 1.0}, "co": {"X": 1.0, "Y": 255.0}, "interpolation": 0}]}, "green": {"Points": [{"handle_type": 0, "handle_right": {"X": 0.5, "Y": 0.0}, "handle_left": {"X": 0.5, "Y": 1.0}, "co": {"X": 1.0, "Y": 123.0}, "interpolation": 0}]}}, "perspective_c1_x": {"Points": [{"co": {"X": 1.0, "Y": -1.0}, "interpolation": 2}]}, "alpha": {"Points": [{"co": {"X": 1.0, "Y": 1.0}, "interpolation": 2}]}, "scale_y": {"Points": [{"co": {"X": 1.0, "Y": 1.0}, "interpolation": 2}]}, "layer": 1, "rotation": {"Points": [{"co": {"X": 1.0, "Y": 0.0}, "interpolation": 2}]}, "position": 30.56, "shear_y": {"Points": [{"co": {"X": 1.0, "Y": 0.0}, "interpolation": 2}]}, "display": 0, "perspective_c2_x": {"Points": [{"co": {"X": 1.0, "Y": -1.0}, "interpolation": 2}]}, "end": 10, "channel_mapping": {"Points": [{"co": {"X": 1.0, "Y": -1.0}, "interpolation": 2}]}, "volume": {"Points": [{"co": {"X": 1.0, "Y": 1.0}, "interpolation": 2}]}, "perspective_c3_y": {"Points": [{"co": {"X": 1.0, "Y": -1.0}, "interpolation": 2}]}, "perspective_c4_x": {"Points": [{"co": {"X": 1.0, "Y": -1.0}, "interpolation": 2}]}, "shear_x": {"Points": [{"co": {"X": 1.0, "Y": 0.0}, "interpolation": 2}]}, "scale_x": {"Points": [{"co": {"X": 1.0, "Y": 1.0}, "interpolation": 2}]}, "crop_y": {"Points": [{"co": {"X": 1.0, "Y": 0.0}, "interpolation": 2}]}, "perspective_c2_y": {"Points": [{"co": {"X": 1.0, "Y": -1.0}, "interpolation": 2}]}, "perspective_c3_x": {"Points": [{"co": {"X": 1.0, "Y": -1.0}, "interpolation": 2}]}}, {"channel_filter": {"Points": [{"co": {"X": 1.0, "Y": -1.0}, "interpolation": 2}]}, "id": "QSXS4VKWAH", "anchor": 0, "file_id": "P90UHAKE08", "has_audio": {"Points": [{"co": {"X": 1.0, "Y": -1.0}, "interpolation": 2}]}, "gravity": 4, "perspective_c4_y": {"Points": [{"co": {"X": 1.0, "Y": -1.0}, "interpolation": 2}]}, "time": {"Points": [{"co": {"X": 1.0, "Y": 1.0}, "interpolation": 2}]}, "image": "../../../.openshot_qt/thumbnail/P90UHAKE08.png", "start": 0, "crop_width": {"Points": [{"co": {"X": 1.0, "Y": -1.0}, "interpolation": 2}]}, "waveform": false, "perspective_c1_y": {"Points": [{"co": {"X": 1.0, "Y": -1.0}, "interpolation": 2}]}, "location_y": {"Points": [{"co": {"X": 1.0, "Y": 0.0}, "interpolation": 2}]}, "crop_x": {"Points": [{"co": {"X": 1.0, "Y": 0.0}, "interpolation": 2}]}, "duration": 86400.0, "reader": {"audio_stream_index": -1, "path": "Title-01.svg", "video_stream_index": -1, "video_length": "2592000", "has_audio": false, "display_ratio": {"den": 3827, "num": 6803}, "video_bit_rate": 0, "audio_timebase": {"den": 1, "num": 1}, "channel_layout": 4, "fps": {"den": 1, "num": 30}, "has_single_image": true, "acodec": "", "width": 6803, "type": "QtImageReader", "interlaced_frame": false, "pixel_ratio": {"den": 1, "num": 1}, "pixel_format": -1, "audio_bit_rate": 0, "sample_rate": 0, "channels": 0, "duration": 86400.0, "vcodec": "", "height": 3827, "video_timebase": {"den": 30, "num": 1}, "has_video": true, "top_field_first": true, "file_size": "104140324"}, "crop_height": {"Points": [{"co": {"X": 1.0, "Y": -1.0}, "interpolation": 2}]}, "has_video": {"Points": [{"co": {"X": 1.0, "Y": -1.0}, "interpolation": 2}]}, "effects": [], "title": "Title-01.svg", "scale": 1, "location_x": {"Points": [{"co": {"X": 1.0, "Y": 0.0}, "interpolation": 2}]}, "wave_color": {"red": {"Points": [{"handle_type": 0, "handle_right": {"X": 0.5, "Y": 0.0}, "handle_left": {"X": 0.5, "Y": 1.0}, "co": {"X": 1.0, "Y": 0.0}, "interpolation": 0}]}, "alpha": {"Points": [{"handle_type": 0, "handle_right": {"X": 0.5, "Y": 0.0}, "handle_left": {"X": 0.5, "Y": 1.0}, "co": {"X": 1.0, "Y": 255.0}, "interpolation": 0}]}, "blue": {"Points": [{"handle_type": 0, "handle_right": {"X": 0.5, "Y": 0.0}, "handle_left": {"X": 0.5, "Y": 1.0}, "co": {"X": 1.0, "Y": 255.0}, "interpolation": 0}]}, "green": {"Points": [{"handle_type": 0, "handle_right": {"X": 0.5, "Y": 0.0}, "handle_left": {"X": 0.5, "Y": 1.0}, "co": {"X": 1.0, "Y": 123.0}, "interpolation": 0}]}}, "perspective_c1_x": {"Points": [{"co": {"X": 1.0, "Y": -1.0}, "interpolation": 2}]}, "alpha": {"Points": [{"co": {"X": 1.0, "Y": 1.0}, "interpolation": 2}]}, "scale_y": {"Points": [{"co": {"X": 1.0, "Y": 1.0}, "interpolation": 2}]}, "layer": 0, "rotation": {"Points": [{"co": {"X": 1.0, "Y": 0.0}, "interpolation": 2}]}, "position": 30.880000000000006, "shear_y": {"Points": [{"co": {"X": 1.0, "Y": 0.0}, "interpolation": 2}]}, "display": 0, "perspective_c2_x": {"Points": [{"co": {"X": 1.0, "Y": -1.0}, "interpolation": 2}]}, "end": 10, "channel_mapping": {"Points": [{"co": {"X": 1.0, "Y": -1.0}, "interpolation": 2}]}, "volume": {"Points": [{"co": {"X": 1.0, "Y": 1.0}, "interpolation": 2}]}, "perspective_c3_y": {"Points": [{"co": {"X": 1.0, "Y": -1.0}, "interpolation": 2}]}, "perspective_c4_x": {"Points": [{"co": {"X": 1.0, "Y": -1.0}, "interpolation": 2}]}, "shear_x": {"Points": [{"co": {"X": 1.0, "Y": 0.0}, "interpolation": 2}]}, "scale_x": {"Points": [{"co": {"X": 1.0, "Y": 1.0}, "interpolation": 2}]}, "crop_y": {"Points": [{"co": {"X": 1.0, "Y": 0.0}, "interpolation": 2}]}, "perspective_c2_y": {"Points": [{"co": {"X": 1.0, "Y": -1.0}, "interpolation": 2}]}, "perspective_c3_x": {"Points": [{"co": {"X": 1.0, "Y": -1.0}, "interpolation": 2}]}}, {"channel_filter": {"Points": [{"co": {"X": 1.0, "Y": -1.0}, "interpolation": 2}]}, "id": "GX63KBSN8E", "anchor": 0, "file_id": "NXRCV0O7IK", "has_audio": {"Points": [{"co": {"X": 1.0, "Y": -1.0}, "interpolation": 2}]}, "gravity": 4, "perspective_c4_y": {"Points": [{"co": {"X": 1.0, "Y": -1.0}, "interpolation": 2}]}, "time": {"Points": [{"co": {"X": 1.0, "Y": 1.0}, "interpolation": 2}]}, "image": "../../../.openshot_qt/thumbnail/NXRCV0O7IK.png", "start": 0, "crop_width": {"Points": [{"co": {"X": 1.0, "Y": -1.0}, "interpolation": 2}]}, "waveform": false, "perspective_c1_y": {"Points": [{"co": {"X": 1.0, "Y": -1.0}, "interpolation": 2}]}, "location_y": {"Points": [{"co": {"X": 1.0, "Y": 0.0}, "interpolation": 2}]}, "crop_x": {"Points": [{"co": {"X": 1.0, "Y": 0.0}, "interpolation": 2}]}, "duration": 86400.0, "reader": {"audio_stream_index": -1, "path": "Title-03.svg", "video_stream_index": -1, "video_length": "2592000", "has_audio": false, "display_ratio": {"den": 3827, "num": 6803}, "video_bit_rate": 0, "audio_timebase": {"den": 1, "num": 1}, "channel_layout": 4, "fps": {"den": 1, "num": 30}, "has_single_image": true, "acodec": "", "width": 6803, "type": "QtImageReader", "interlaced_frame": false, "pixel_ratio": {"den": 1, "num": 1}, "pixel_format": -1, "audio_bit_rate": 0, "sample_rate": 0, "channels": 0, "duration": 86400.0, "vcodec": "", "height": 3827, "video_timebase": {"den": 30, "num": 1}, "has_video": true, "top_field_first": true, "file_size": "104140324"}, "crop_height": {"Points": [{"co": {"X": 1.0, "Y": -1.0}, "interpolation": 2}]}, "has_video": {"Points": [{"co": {"X": 1.0, "Y": -1.0}, "interpolation": 2}]}, "effects": [], "title": "Title-03.svg", "scale": 1, "location_x": {"Points": [{"co": {"X": 1.0, "Y": 0.0}, "interpolation": 2}]}, "wave_color": {"red": {"Points": [{"handle_type": 0, "handle_right": {"X": 0.5, "Y": 0.0}, "handle_left": {"X": 0.5, "Y": 1.0}, "co": {"X": 1.0, "Y": 0.0}, "interpolation": 0}]}, "alpha": {"Points": [{"handle_type": 0, "handle_right": {"X": 0.5, "Y": 0.0}, "handle_left": {"X": 0.5, "Y": 1.0}, "co": {"X": 1.0, "Y": 255.0}, "interpolation": 0}]}, "blue": {"Points": [{"handle_type": 0, "handle_right": {"X": 0.5, "Y": 0.0}, "handle_left": {"X": 0.5, "Y": 1.0}, "co": {"X": 1.0, "Y": 255.0}, "interpolation": 0}]}, "green": {"Points": [{"handle_type": 0, "handle_right": {"X": 0.5, "Y": 0.0}, "handle_left": {"X": 0.5, "Y": 1.0}, "co": {"X": 1.0, "Y": 123.0}, "interpolation": 0}]}}, "perspective_c1_x": {"Points": [{"co": {"X": 1.0, "Y": -1.0}, "interpolation": 2}]}, "alpha": {"Points": [{"co": {"X": 1.0, "Y": 1.0}, "interpolation": 2}]}, "scale_y": {"Points": [{"co": {"X": 1.0, "Y": 1.0}, "interpolation": 2}]}, "layer": 2, "rotation": {"Points": [{"co": {"X": 1.0, "Y": 0.0}, "interpolation": 2}]}, "position": 31.120000000000008, "shear_y": {"Points": [{"co": {"X": 1.0, "Y": 0.0}, "interpolation": 2}]}, "display": 0, "perspective_c2_x": {"Points": [{"co": {"X": 1.0, "Y": -1.0}, "interpolation": 2}]}, "end": 10, "channel_mapping": {"Points": [{"co": {"X": 1.0, "Y": -1.0}, "interpolation": 2}]}, "volume": {"Points": [{"co": {"X": 1.0, "Y": 1.0}, "interpolation": 2}]}, "perspective_c3_y": {"Points": [{"co": {"X": 1.0, "Y": -1.0}, "interpolation": 2}]}, "perspective_c4_x": {"Points": [{"co": {"X": 1.0, "Y": -1.0}, "interpolation": 2}]}, "shear_x": {"Points": [{"co": {"X": 1.0, "Y": 0.0}, "interpolation": 2}]}, "scale_x": {"Points": [{"co": {"X": 1.0, "Y": 1.0}, "interpolation": 2}]}, "crop_y": {"Points": [{"co": {"X": 1.0, "Y": 0.0}, "interpolation": 2}]}, "perspective_c2_y": {"Points": [{"co": {"X": 1.0, "Y": -1.0}, "interpolation": 2}]}, "perspective_c3_x": {"Points": [{"co": {"X": 1.0, "Y": -1.0}, "interpolation": 2}]}}, {"channel_filter": {"Points": [{"co": {"X": 1.0, "Y": -1.0}, "interpolation": 2}]}, "id": "CK4CCQ0JJP", "anchor": 0, "file_id": "L6IRNOBSSR", "has_audio": {"Points": [{"co": {"X": 1.0, "Y": -1.0}, "interpolation": 2}]}, "gravity": 4, "perspective_c4_y": {"Points": [{"co": {"X": 1.0, "Y": -1.0}, "interpolation": 2}]}, "time": {"Points": [{"co": {"X": 1.0, "Y": 1.0}, "interpolation": 2}]}, "image": "../../../.openshot_qt/thumbnail/L6IRNOBSSR.png", "start": 0, "crop_width": {"Points": [{"co": {"X": 1.0, "Y": -1.0}, "interpolation": 2}]}, "waveform": false, "perspective_c1_y": {"Points": [{"co": {"X": 1.0, "Y": -1.0}, "interpolation": 2}]}, "location_y": {"Points": [{"co": {"X": 1.0, "Y": 0.0}, "interpolation": 2}]}, "crop_x": {"Points": [{"co": {"X": 1.0, "Y": 0.0}, "interpolation": 2}]}, "duration": 86400.0, "reader": {"audio_stream_index": -1, "path": "Title-04.svg", "video_stream_index": -1, "video_length": "2592000", "has_audio": false, "display_ratio": {"den": 3827, "num": 6803}, "video_bit_rate": 0, "audio_timebase": {"den": 1, "num": 1}, "channel_layout": 4, "fps": {"den": 1, "num": 30}, "has_single_image": true, "acodec": "", "width": 6803, "type": "QtImageReader", "interlaced_frame": false, "pixel_ratio": {"den": 1, "num": 1}, "pixel_format": -1, "audio_bit_rate": 0, "sample_rate": 0, "channels": 0, "duration": 86400.0, "vcodec": "", "height": 3827, "video_timebase": {"den": 30, "num": 1}, "has_video": true, "top_field_first": true, "file_size": "104140324"}, "crop_height": {"Points": [{"co": {"X": 1.0, "Y": -1.0}, "interpolation": 2}]}, "has_video": {"Points": [{"co": {"X": 1.0, "Y": -1.0}, "interpolation": 2}]}, "effects": [], "title": "Title-04.svg", "scale": 1, "location_x": {"Points": [{"co": {"X": 1.0, "Y": 0.0}, "interpolation": 2}]}, "wave_color": {"red": {"Points": [{"handle_type": 0, "handle_right": {"X": 0.5, "Y": 0.0}, "handle_left": {"X": 0.5, "Y": 1.0}, "co": {"X": 1.0, "Y": 0.0}, "interpolation": 0}]}, "alpha": {"Points": [{"handle_type": 0, "handle_right": {"X": 0.5, "Y": 0.0}, "handle_left": {"X": 0.5, "Y": 1.0}, "co": {"X": 1.0, "Y": 255.0}, "interpolation": 0}]}, "blue": {"Points": [{"handle_type": 0, "handle_right": {"X": 0.5, "Y": 0.0}, "handle_left": {"X": 0.5, "Y": 1.0}, "co": {"X": 1.0, "Y": 255.0}, "interpolation": 0}]}, "green": {"Points": [{"handle_type": 0, "handle_right": {"X": 0.5, "Y": 0.0}, "handle_left": {"X": 0.5, "Y": 1.0}, "co": {"X": 1.0, "Y": 123.0}, "interpolation": 0}]}}, "perspective_c1_x": {"Points": [{"co": {"X": 1.0, "Y": -1.0}, "interpolation": 2}]}, "alpha": {"Points": [{"co": {"X": 1.0, "Y": 1.0}, "interpolation": 2}]}, "scale_y": {"Points": [{"co": {"X": 1.0, "Y": 1.0}, "interpolation": 2}]}, "layer": 3, "rotation": {"Points": [{"co": {"X": 1.0, "Y": 0.0}, "interpolation": 2}]}, "position": 31.36, "shear_y": {"Points": [{"co": {"X": 1.0, "Y": 0.0}, "interpolation": 2}]}, "display": 0, "perspective_c2_x": {"Points": [{"co": {"X": 1.0, "Y": -1.0}, "interpolation": 2}]}, "end": 10, "channel_mapping": {"Points": [{"co": {"X": 1.0, "Y": -1.0}, "interpolation": 2}]}, "volume": {"Points": [{"co": {"X": 1.0, "Y": 1.0}, "interpolation": 2}]}, "perspective_c3_y": {"Points": [{"co": {"X": 1.0, "Y": -1.0}, "interpolation": 2}]}, "perspective_c4_x": {"Points": [{"co": {"X": 1.0, "Y": -1.0}, "interpolation": 2}]}, "shear_x": {"Points": [{"co": {"X": 1.0, "Y": 0.0}, "interpolation": 2}]}, "scale_x": {"Points": [{"co": {"X": 1.0, "Y": 1.0}, "interpolation": 2}]}, "crop_y": {"Points": [{"co": {"X": 1.0, "Y": 0.0}, "interpolation": 2}]}, "perspective_c2_y": {"Points": [{"co": {"X": 1.0, "Y": -1.0}, "interpolation": 2}]}, "perspective_c3_x": {"Points": [{"co": {"X": 1.0, "Y": -1.0}, "interpolation": 2}]}}], "channel_layout": 3, "fps": {"den": 1, "num": 24}, "channels": 2, "files": [{"audio_stream_index": -1, "video_stream_index": -1, "path": "intro.png", "video_length": "2592000", "has_audio": false, "display_ratio": {"den": 169, "num": 661}, "video_bit_rate": 0, "audio_timebase": {"den": 1, "num": 1}, "vcodec": "", "video_timebase": {"den": 30, "num": 1}, "fps": {"den": 1, "num": 30}, "has_single_image": true, "acodec": "", "width": 661, "media_type": "image", "type": "QtImageReader", "interlaced_frame": false, "pixel_ratio": {"den": 1, "num": 1}, "audio_bit_rate": 0, "pixel_format": -1, "sample_rate": 0, "channels": 0, "duration": 86400.0, "channel_layout": 4, "height": 169, "has_video": true, "top_field_first": true, "id": "EYET6E4WCX", "file_size": "446836"}, {"audio_stream_index": -1, "path": "Title-01.svg", "video_stream_index": -1, "video_length": "2592000", "has_audio": false, "display_ratio": {"den": 3827, "num": 6803}, "video_bit_rate": 0, "audio_timebase": {"den": 1, "num": 1}, "channel_layout": 4, "fps": {"den": 1, "num": 30}, "has_single_image": true, "acodec": "", "width": 6803, "top_field_first": true, "type": "QtImageReader", "interlaced_frame": false, "pixel_ratio": {"den": 1, "num": 1}, "pixel_format": -1, "audio_bit_rate": 0, "sample_rate": 0, "channels": 0, "duration": 86400.0, "vcodec": "", "height": 3827, "video_timebase": {"den": 30, "num": 1}, "has_video": true, "media_type": "image", "id": "P90UHAKE08", "file_size": "104140324"}, {"audio_stream_index": -1, "path": "Title-02.svg", "video_stream_index": -1, "video_length": "2592000", "has_audio": false, "display_ratio": {"den": 3827, "num": 6803}, "video_bit_rate": 0, "audio_timebase": {"den": 1, "num": 1}, "channel_layout": 4, "fps": {"den": 1, "num": 30}, "has_single_image": true, "acodec": "", "width": 6803, "top_field_first": true, "type": "QtImageReader", "interlaced_frame": false, "pixel_ratio": {"den": 1, "num": 1}, "pixel_format": -1, "audio_bit_rate": 0, "sample_rate": 0, "channels": 0, "duration": 86400.0, "vcodec": "", "height": 3827, "video_timebase": {"den": 30, "num": 1}, "has_video": true, "media_type": "image", "id": "0D6YTY7G58", "file_size": "104140324"}, {"audio_stream_index": -1, "path": "Title-03.svg", "video_stream_index": -1, "video_length": "2592000", "has_audio": false, "display_ratio": {"den": 3827, "num": 6803}, "video_bit_rate": 0, "audio_timebase": {"den": 1, "num": 1}, "channel_layout": 4, "fps": {"den": 1, "num": 30}, "has_single_image": true, "acodec": "", "width": 6803, "top_field_first": true, "type": "QtImageReader", "interlaced_frame": false, "pixel_ratio": {"den": 1, "num": 1}, "pixel_format": -1, "audio_bit_rate": 0, "sample_rate": 0, "channels": 0, "duration": 86400.0, "vcodec": "", "height": 3827, "video_timebase": {"den": 30, "num": 1}, "has_video": true, "media_type": "image", "id": "NXRCV0O7IK", "file_size": "104140324"}, {"audio_stream_index": -1, "path": "Title-04.svg", "video_stream_index": -1, "video_length": "2592000", "has_audio": false, "display_ratio": {"den": 3827, "num": 6803}, "video_bit_rate": 0, "audio_timebase": {"den": 1, "num": 1}, "channel_layout": 4, "fps": {"den": 1, "num": 30}, "has_single_image": true, "acodec": "", "width": 6803, "top_field_first": true, "type": "QtImageReader", "interlaced_frame": false, "pixel_ratio": {"den": 1, "num": 1}, "pixel_format": -1, "audio_bit_rate": 0, "sample_rate": 0, "channels": 0, "duration": 86400.0, "vcodec": "", "height": 3827, "video_timebase": {"den": 30, "num": 1}, "has_video": true, "media_type": "image", "id": "L6IRNOBSSR", "file_size": "104140324"}], "settings": {}, "tick_pixels": 100, "playhead_position": 0, "history": {"undo": [{"type": "update", "key": ["clips", {"id": "FGHDRP4UL4"}], "old_values": {"anchor": 0, "location_x": {"Points": [{"co": {"X": 1.0, "Y": 0.0}, "interpolation": 2}]}, "crop_height": {"Points": [{"co": {"X": 1.0, "Y": -1.0}, "interpolation": 2}]}, "wave_color": {"red": {"Points": [{"handle_type": 0, "handle_right": {"X": 0.5, "Y": 0.0}, "handle_left": {"X": 0.5, "Y": 1.0}, "co": {"X": 1.0, "Y": 0.0}, "interpolation": 0}]}, "alpha": {"Points": [{"handle_type": 0, "handle_right": {"X": 0.5, "Y": 0.0}, "handle_left": {"X": 0.5, "Y": 1.0}, "co": {"X": 1.0, "Y": 255.0}, "interpolation": 0}]}, "blue": {"Points": [{"handle_type": 0, "handle_right": {"X": 0.5, "Y": 0.0}, "handle_left": {"X": 0.5, "Y": 1.0}, "co": {"X": 1.0, "Y": 255.0}, "interpolation": 0}]}, "green": {"Points": [{"handle_type": 0, "handle_right": {"X": 0.5, "Y": 0.0}, "handle_left": {"X": 0.5, "Y": 1.0}, "co": {"X": 1.0, "Y": 123.0}, "interpolation": 0}]}}, "perspective_c1_x": {"Points": [{"co": {"X": 1.0, "Y": -1.0}, "interpolation": 2}]}, "alpha": {"Points": [{"co": {"X": 1.0, "Y": 1.0}, "interpolation": 2}]}, "file_id": "0D6YTY7G58", "has_audio": {"Points": [{"co": {"X": 1.0, "Y": -1.0}, "interpolation": 2}]}, "gravity": 4, "perspective_c4_y": {"Points": [{"co": {"X": 1.0, "Y": -1.0}, "interpolation": 2}]}, "time": {"Points": [{"co": {"X": 1.0, "Y": 1.0}, "interpolation": 2}]}, "scale_y": {"Points": [{"co": {"X": 1.0, "Y": 1.0}, "interpolation": 2}]}, "layer": 4, "rotation": {"Points": [{"co": {"X": 1.0, "Y": 0.0}, "interpolation": 2}]}, "position": 26.08, "start": 0.0, "shear_y": {"Points": [{"co": {"X": 1.0, "Y": 0.0}, "interpolation": 2}]}, "display": 0, "image": "/home/milind/.openshot_qt/thumbnail/0D6YTY7G58.png", "perspective_c2_x": {"Points": [{"co": {"X": 1.0, "Y": -1.0}, "interpolation": 2}]}, "end": 10.0, "channel_mapping": {"Points": [{"co": {"X": 1.0, "Y": -1.0}, "interpolation": 2}]}, "scale": 1, "volume": {"Points": [{"co": {"X": 1.0, "Y": 1.0}, "interpolation": 2}]}, "crop_width": {"Points": [{"co": {"X": 1.0, "Y": -1.0}, "interpolation": 2}]}, "waveform": false, "perspective_c1_y": {"Points": [{"co": {"X": 1.0, "Y": -1.0}, "interpolation": 2}]}, "perspective_c3_y": {"Points": [{"co": {"X": 1.0, "Y": -1.0}, "interpolation": 2}]}, "location_y": {"Points": [{"co": {"X": 1.0, "Y": 0.0}, "interpolation": 2}]}, "perspective_c3_x": {"Points": [{"co": {"X": 1.0, "Y": -1.0}, "interpolation": 2}]}, "perspective_c4_x": {"Points": [{"co": {"X": 1.0, "Y": -1.0}, "interpolation": 2}]}, "shear_x": {"Points": [{"co": {"X": 1.0, "Y": 0.0}, "interpolation": 2}]}, "duration": 86400.0, "crop_x": {"Points": [{"co": {"X": 1.0, "Y": 0.0}, "interpolation": 2}]}, "scale_x": {"Points": [{"co": {"X": 1.0, "Y": 1.0}, "interpolation": 2}]}, "crop_y": {"Points": [{"co": {"X": 1.0, "Y": 0.0}, "interpolation": 2}]}, "reader": {"audio_stream_index": -1, "path": "/home/milind/Data/Projects/ProgressCard/Title-02.svg", "video_stream_index": -1, "video_length": "2592000", "has_audio": false, "display_ratio": {"den": 3827, "num": 6803}, "video_bit_rate": 0, "audio_timebase": {"den": 1, "num": 1}, "channel_layout": 4, "fps": {"den": 1, "num": 30}, "has_single_image": true, "acodec": "", "width": 6803, "type": "QtImageReader", "interlaced_frame": false, "pixel_ratio": {"den": 1, "num": 1}, "pixel_format": -1, "audio_bit_rate": 0, "sample_rate": 0, "channels": 0, "duration": 86400.0, "vcodec": "", "height": 3827, "video_timebase": {"den": 30, "num": 1}, "has_video": true, "top_field_first": true, "file_size": "104140324"}, "perspective_c2_y": {"Points": [{"co": {"X": 1.0, "Y": -1.0}, "interpolation": 2}]}, "has_video": {"Points": [{"co": {"X": 1.0, "Y": -1.0}, "interpolation": 2}]}, "effects": [], "title": "Title-02.svg", "id": "FGHDRP4UL4", "channel_filter": {"Points": [{"co": {"X": 1.0, "Y": -1.0}, "interpolation": 2}]}}, "partial": false, "value": {"layer": 2, "image": "/home/milind/.openshot_qt/thumbnail/0D6YTY7G58.png", "position": 20.64, "start": 0, "id": "FGHDRP4UL4", "end": 10}}, {"type": "update", "key": ["clips", {"id": "XKF5M8RK48"}], "old_values": {"location_x": {"Points": [{"co": {"X": 1.0, "Y": 0.0}, "interpolation": 2}]}, "crop_height": {"Points": [{"co": {"X": 1.0, "Y": -1.0}, "interpolation": 2}]}, "wave_color": {"red": {"Points": [{"handle_type": 0, "handle_right": {"X": 0.5, "Y": 0.0}, "handle_left": {"X": 0.5, "Y": 1.0}, "co": {"X": 1.0, "Y": 0.0}, "interpolation": 0}]}, "alpha": {"Points": [{"handle_type": 0, "handle_right": {"X": 0.5, "Y": 0.0}, "handle_left": {"X": 0.5, "Y": 1.0}, "co": {"X": 1.0, "Y": 255.0}, "interpolation": 0}]}, "blue": {"Points": [{"handle_type": 0, "handle_right": {"X": 0.5, "Y": 0.0}, "handle_left": {"X": 0.5, "Y": 1.0}, "co": {"X": 1.0, "Y": 255.0}, "interpolation": 0}]}, "green": {"Points": [{"handle_type": 0, "handle_right": {"X": 0.5, "Y": 0.0}, "handle_left": {"X": 0.5, "Y": 1.0}, "co": {"X": 1.0, "Y": 123.0}, "interpolation": 0}]}}, "id": "XKF5M8RK48", "anchor": 0, "alpha": {"Points": [{"co": {"X": 1.0, "Y": 1.0}, "interpolation": 2}]}, "perspective_c1_x": {"Points": [{"co": {"X": 1.0, "Y": -1.0}, "interpolation": 2}]}, "file_id": "NXRCV0O7IK", "has_audio": {"Points": [{"co": {"X": 1.0, "Y": -1.0}, "interpolation": 2}]}, "gravity": 4, "perspective_c4_y": {"Points": [{"co": {"X": 1.0, "Y": -1.0}, "interpolation": 2}]}, "time": {"Points": [{"co": {"X": 1.0, "Y": 1.0}, "interpolation": 2}]}, "perspective_c3_y": {"Points": [{"co": {"X": 1.0, "Y": -1.0}, "interpolation": 2}]}, "layer": 2, "rotation": {"Points": [{"co": {"X": 1.0, "Y": 0.0}, "interpolation": 2}]}, "position": 31.36, "start": 0, "shear_y": {"Points": [{"co": {"X": 1.0, "Y": 0.0}, "interpolation": 2}]}, "display": 0, "scale_y": {"Points": [{"co": {"X": 1.0, "Y": 1.0}, "interpolation": 2}]}, "perspective_c2_x": {"Points": [{"co": {"X": 1.0, "Y": -1.0}, "interpolation": 2}]}, "end": 10, "channel_mapping": {"Points": [{"co": {"X": 1.0, "Y": -1.0}, "interpolation": 2}]}, "volume": {"Points": [{"co": {"X": 1.0, "Y": 1.0}, "interpolation": 2}]}, "crop_width": {"Points": [{"co": {"X": 1.0, "Y": -1.0}, "interpolation": 2}]}, "waveform": false, "perspective_c1_y": {"Points": [{"co": {"X": 1.0, "Y": -1.0}, "interpolation": 2}]}, "channel_filter": {"Points": [{"co": {"X": 1.0, "Y": -1.0}, "interpolation": 2}]}, "location_y": {"Points": [{"co": {"X": 1.0, "Y": 0.0}, "interpolation": 2}]}, "perspective_c4_x": {"Points": [{"co": {"X": 1.0, "Y": -1.0}, "interpolation": 2}]}, "scale": 1, "duration": 86400.0, "crop_x": {"Points": [{"co": {"X": 1.0, "Y": 0.0}, "interpolation": 2}]}, "scale_x": {"Points": [{"co": {"X": 1.0, "Y": 1.0}, "interpolation": 2}]}, "image": "/home/milind/.openshot_qt/thumbnail/NXRCV0O7IK.png", "shear_x": {"Points": [{"co": {"X": 1.0, "Y": 0.0}, "interpolation": 2}]}, "reader": {"audio_stream_index": -1, "path": "/home/milind/Data/Projects/ProgressCard/Title-03.svg", "video_stream_index": -1, "video_length": "2592000", "has_audio": false, "display_ratio": {"den": 3827, "num": 6803}, "video_bit_rate": 0, "audio_timebase": {"den": 1, "num": 1}, "channel_layout": 4, "fps": {"den": 1, "num": 30}, "has_single_image": true, "acodec": "", "width": 6803, "type": "QtImageReader", "interlaced_frame": false, "pixel_ratio": {"den": 1, "num": 1}, "pixel_format": -1, "audio_bit_rate": 0, "sample_rate": 0, "channels": 0, "duration": 86400.0, "vcodec": "", "height": 3827, "video_timebase": {"den": 30, "num": 1}, "has_video": true, "top_field_first": true, "file_size": "104140324"}, "perspective_c2_y": {"Points": [{"co": {"X": 1.0, "Y": -1.0}, "interpolation": 2}]}, "has_video": {"Points": [{"co": {"X": 1.0, "Y": -1.0}, "interpolation": 2}]}, "effects": [], "title": "Title-03.svg", "perspective_c3_x": {"Points": [{"co": {"X": 1.0, "Y": -1.0}, "interpolation": 2}]}, "crop_y": {"Points": [{"co": {"X": 1.0, "Y": 0.0}, "interpolation": 2}]}}, "partial": false, "value": {"layer": 2, "image": "/home/milind/.openshot_qt/thumbnail/NXRCV0O7IK.png", "position": 28.8, "start": 0, "id": "XKF5M8RK48", "end": 10}}, {"type": "insert", "key": ["effects"], "old_values": [], "partial": false, "value": {"layer": 2, "replace_image": false, "type": "Mask", "position": 28.8, "start": 0, "reader": {"audio_stream_index": -1, "path": "/tmp/.mount_uEG2Am/usr/bin/transitions/common/fade.svg", "video_stream_index": -1, "video_length": "2592000", "has_audio": false, "display_ratio": {"den": 4, "num": 5}, "video_bit_rate": 0, "audio_timebase": {"den": 1, "num": 1}, "channel_layout": 4, "fps": {"den": 1, "num": 30}, "has_single_image": true, "acodec": "", "width": 720, "type": "QtImageReader", "interlaced_frame": false, "pixel_ratio": {"den": 1, "num": 1}, "audio_bit_rate": 0, "pixel_format": -1, "sample_rate": 0, "channels": 0, "duration": 86400.0, "vcodec": "", "height": 576, "video_timebase": {"den": 30, "num": 1}, "has_video": true, "top_field_first": true, "file_size": "1658880"}, "brightness": {"Points": [{"handle_type": 0, "interpolation": 0, "handle_left": {"X": 0.5, "Y": 1.0}, "co": {"X": 1.0, "Y": 1.0}, "handle_right": {"X": 0.5, "Y": 0.0}}, {"handle_type": 0, "interpolation": 0, "handle_left": {"X": 0.5, "Y": 1.0}, "co": {"X": 45.0, "Y": -1.0}, "handle_right": {"X": 0.5, "Y": 0.0}}]}, "contrast": {"Points": [{"co": {"X": 1.0, "Y": 3.0}, "interpolation": 2}]}, "title": "Transition", "id": "AAJQVET0KY", "end": 1.8399999999999999}}, {"type": "update", "key": ["clips", {"id": "XKF5M8RK48"}], "old_values": {"location_x": {"Points": [{"co": {"X": 1.0, "Y": 0.0}, "interpolation": 2}]}, "crop_height": {"Points": [{"co": {"X": 1.0, "Y": -1.0}, "interpolation": 2}]}, "wave_color": {"red": {"Points": [{"handle_type": 0, "handle_right": {"X": 0.5, "Y": 0.0}, "handle_left": {"X": 0.5, "Y": 1.0}, "co": {"X": 1.0, "Y": 0.0}, "interpolation": 0}]}, "alpha": {"Points": [{"handle_type": 0, "handle_right": {"X": 0.5, "Y": 0.0}, "handle_left": {"X": 0.5, "Y": 1.0}, "co": {"X": 1.0, "Y": 255.0}, "interpolation": 0}]}, "blue": {"Points": [{"handle_type": 0, "handle_right": {"X": 0.5, "Y": 0.0}, "handle_left": {"X": 0.5, "Y": 1.0}, "co": {"X": 1.0, "Y": 255.0}, "interpolation": 0}]}, "green": {"Points": [{"handle_type": 0, "handle_right": {"X": 0.5, "Y": 0.0}, "handle_left": {"X": 0.5, "Y": 1.0}, "co": {"X": 1.0, "Y": 123.0}, "interpolation": 0}]}}, "id": "XKF5M8RK48", "anchor": 0, "alpha": {"Points": [{"co": {"X": 1.0, "Y": 1.0}, "interpolation": 2}]}, "perspective_c1_x": {"Points": [{"co": {"X": 1.0, "Y": -1.0}, "interpolation": 2}]}, "file_id": "NXRCV0O7IK", "has_audio": {"Points": [{"co": {"X": 1.0, "Y": -1.0}, "interpolation": 2}]}, "gravity": 4, "perspective_c4_y": {"Points": [{"co": {"X": 1.0, "Y": -1.0}, "interpolation": 2}]}, "time": {"Points": [{"co": {"X": 1.0, "Y": 1.0}, "interpolation": 2}]}, "perspective_c3_y": {"Points": [{"co": {"X": 1.0, "Y": -1.0}, "interpolation": 2}]}, "layer": 2, "rotation": {"Points": [{"co": {"X": 1.0, "Y": 0.0}, "interpolation": 2}]}, "position": 28.8, "start": 0, "shear_y": {"Points": [{"co": {"X": 1.0, "Y": 0.0}, "interpolation": 2}]}, "display": 0, "scale_y": {"Points": [{"co": {"X": 1.0, "Y": 1.0}, "interpolation": 2}]}, "perspective_c2_x": {"Points": [{"co": {"X": 1.0, "Y": -1.0}, "interpolation": 2}]}, "end": 10, "channel_mapping": {"Points": [{"co": {"X": 1.0, "Y": -1.0}, "interpolation": 2}]}, "volume": {"Points": [{"co": {"X": 1.0, "Y": 1.0}, "interpolation": 2}]}, "crop_width": {"Points": [{"co": {"X": 1.0, "Y": -1.0}, "interpolation": 2}]}, "waveform": false, "perspective_c1_y": {"Points": [{"co": {"X": 1.0, "Y": -1.0}, "interpolation": 2}]}, "channel_filter": {"Points": [{"co": {"X": 1.0, "Y": -1.0}, "interpolation": 2}]}, "location_y": {"Points": [{"co": {"X": 1.0, "Y": 0.0}, "interpolation": 2}]}, "perspective_c4_x": {"Points": [{"co": {"X": 1.0, "Y": -1.0}, "interpolation": 2}]}, "scale": 1, "duration": 86400.0, "crop_x": {"Points": [{"co": {"X": 1.0, "Y": 0.0}, "interpolation": 2}]}, "scale_x": {"Points": [{"co": {"X": 1.0, "Y": 1.0}, "interpolation": 2}]}, "image": "/home/milind/.openshot_qt/thumbnail/NXRCV0O7IK.png", "shear_x": {"Points": [{"co": {"X": 1.0, "Y": 0.0}, "interpolation": 2}]}, "reader": {"audio_stream_index": -1, "path": "/home/milind/Data/Projects/ProgressCard/Title-03.svg", "video_stream_index": -1, "video_length": "2592000", "has_audio": false, "display_ratio": {"den": 3827, "num": 6803}, "video_bit_rate": 0, "audio_timebase": {"den": 1, "num": 1}, "channel_layout": 4, "fps": {"den": 1, "num": 30}, "has_single_image": true, "acodec": "", "width": 6803, "type": "QtImageReader", "interlaced_frame": false, "pixel_ratio": {"den": 1, "num": 1}, "pixel_format": -1, "audio_bit_rate": 0, "sample_rate": 0, "channels": 0, "duration": 86400.0, "vcodec": "", "height": 3827, "video_timebase": {"den": 30, "num": 1}, "has_video": true, "top_field_first": true, "file_size": "104140324"}, "perspective_c2_y": {"Points": [{"co": {"X": 1.0, "Y": -1.0}, "interpolation": 2}]}, "has_video": {"Points": [{"co": {"X": 1.0, "Y": -1.0}, "interpolation": 2}]}, "effects": [], "title": "Title-03.svg", "perspective_c3_x": {"Points": [{"co": {"X": 1.0, "Y": -1.0}, "interpolation": 2}]}, "crop_y": {"Points": [{"co": {"X": 1.0, "Y": 0.0}, "interpolation": 2}]}}, "partial": false, "value": {"layer": 2, "image": "/home/milind/.openshot_qt/thumbnail/NXRCV0O7IK.png", "position": 32, "start": 0, "id": "XKF5M8RK48", "end": 10}}, {"type": "delete", "key": ["effects", {"id": "AAJQVET0KY"}], "old_values": {"layer": 2, "replace_image": false, "type": "Mask", "position": 28.8, "start": 0, "brightness": {"Points": [{"handle_type": 0, "handle_right": {"X": 0.5, "Y": 0.0}, "handle_left": {"X": 0.5, "Y": 1.0}, "co": {"X": 1.0, "Y": 1.0}, "interpolation": 0}, {"handle_type": 0, "handle_right": {"X": 0.5, "Y": 0.0}, "handle_left": {"X": 0.5, "Y": 1.0}, "co": {"X": 45.0, "Y": -1.0}, "interpolation": 0}]}, "reader": {"audio_stream_index": -1, "path": "/tmp/.mount_uEG2Am/usr/bin/transitions/common/fade.svg", "video_stream_index": -1, "video_length": "2592000", "has_audio": false, "display_ratio": {"den": 4, "num": 5}, "video_bit_rate": 0, "audio_timebase": {"den": 1, "num": 1}, "channel_layout": 4, "fps": {"den": 1, "num": 30}, "has_single_image": true, "acodec": "", "width": 720, "type": "QtImageReader", "interlaced_frame": false, "pixel_ratio": {"den": 1, "num": 1}, "pixel_format": -1, "audio_bit_rate": 0, "sample_rate": 0, "channels": 0, "duration": 86400.0, "vcodec": "", "height": 576, "video_timebase": {"den": 30, "num": 1}, "has_video": true, "top_field_first": true, "file_size": "1658880"}, "contrast": {"Points": [{"co": {"X": 1.0, "Y": 3.0}, "interpolation": 2}]}, "title": "Transition", "id": "AAJQVET0KY", "end": 1.8399999999999999}, "partial": false, "value": null}, {"type": "update", "key": ["clips", {"id": "XKF5M8RK48"}], "old_values": {"location_x": {"Points": [{"co": {"X": 1.0, "Y": 0.0}, "interpolation": 2}]}, "crop_height": {"Points": [{"co": {"X": 1.0, "Y": -1.0}, "interpolation": 2}]}, "wave_color": {"red": {"Points": [{"handle_type": 0, "handle_right": {"X": 0.5, "Y": 0.0}, "handle_left": {"X": 0.5, "Y": 1.0}, "co": {"X": 1.0, "Y": 0.0}, "interpolation": 0}]}, "alpha": {"Points": [{"handle_type": 0, "handle_right": {"X": 0.5, "Y": 0.0}, "handle_left": {"X": 0.5, "Y": 1.0}, "co": {"X": 1.0, "Y": 255.0}, "interpolation": 0}]}, "blue": {"Points": [{"handle_type": 0, "handle_right": {"X": 0.5, "Y": 0.0}, "handle_left": {"X": 0.5, "Y": 1.0}, "co": {"X": 1.0, "Y": 255.0}, "interpolation": 0}]}, "green": {"Points": [{"handle_type": 0, "handle_right": {"X": 0.5, "Y": 0.0}, "handle_left": {"X": 0.5, "Y": 1.0}, "co": {"X": 1.0, "Y": 123.0}, "interpolation": 0}]}}, "id": "XKF5M8RK48", "anchor": 0, "alpha": {"Points": [{"co": {"X": 1.0, "Y": 1.0}, "interpolation": 2}]}, "perspective_c1_x": {"Points": [{"co": {"X": 1.0, "Y": -1.0}, "interpolation": 2}]}, "file_id": "NXRCV0O7IK", "has_audio": {"Points": [{"co": {"X": 1.0, "Y": -1.0}, "interpolation": 2}]}, "gravity": 4, "perspective_c4_y": {"Points": [{"co": {"X": 1.0, "Y": -1.0}, "interpolation": 2}]}, "time": {"Points": [{"co": {"X": 1.0, "Y": 1.0}, "interpolation": 2}]}, "perspective_c3_y": {"Points": [{"co": {"X": 1.0, "Y": -1.0}, "interpolation": 2}]}, "layer": 2, "rotation": {"Points": [{"co": {"X": 1.0, "Y": 0.0}, "interpolation": 2}]}, "position": 32, "start": 0, "shear_y": {"Points": [{"co": {"X": 1.0, "Y": 0.0}, "interpolation": 2}]}, "display": 0, "scale_y": {"Points": [{"co": {"X": 1.0, "Y": 1.0}, "interpolation": 2}]}, "perspective_c2_x": {"Points": [{"co": {"X": 1.0, "Y": -1.0}, "interpolation": 2}]}, "end": 10, "channel_mapping": {"Points": [{"co": {"X": 1.0, "Y": -1.0}, "interpolation": 2}]}, "volume": {"Points": [{"co": {"X": 1.0, "Y": 1.0}, "interpolation": 2}]}, "crop_width": {"Points": [{"co": {"X": 1.0, "Y": -1.0}, "interpolation": 2}]}, "waveform": false, "perspective_c1_y": {"Points": [{"co": {"X": 1.0, "Y": -1.0}, "interpolation": 2}]}, "channel_filter": {"Points": [{"co": {"X": 1.0, "Y": -1.0}, "interpolation": 2}]}, "location_y": {"Points": [{"co": {"X": 1.0, "Y": 0.0}, "interpolation": 2}]}, "perspective_c4_x": {"Points": [{"co": {"X": 1.0, "Y": -1.0}, "interpolation": 2}]}, "scale": 1, "duration": 86400.0, "crop_x": {"Points": [{"co": {"X": 1.0, "Y": 0.0}, "interpolation": 2}]}, "scale_x": {"Points": [{"co": {"X": 1.0, "Y": 1.0}, "interpolation": 2}]}, "image": "/home/milind/.openshot_qt/thumbnail/NXRCV0O7IK.png", "shear_x": {"Points": [{"co": {"X": 1.0, "Y": 0.0}, "interpolation": 2}]}, "reader": {"audio_stream_index": -1, "path": "/home/milind/Data/Projects/ProgressCard/Title-03.svg", "video_stream_index": -1, "video_length": "2592000", "has_audio": false, "display_ratio": {"den": 3827, "num": 6803}, "video_bit_rate": 0, "audio_timebase": {"den": 1, "num": 1}, "channel_layout": 4, "fps": {"den": 1, "num": 30}, "has_single_image": true, "acodec": "", "width": 6803, "type": "QtImageReader", "interlaced_frame": false, "pixel_ratio": {"den": 1, "num": 1}, "pixel_format": -1, "audio_bit_rate": 0, "sample_rate": 0, "channels": 0, "duration": 86400.0, "vcodec": "", "height": 3827, "video_timebase": {"den": 30, "num": 1}, "has_video": true, "top_field_first": true, "file_size": "104140324"}, "perspective_c2_y": {"Points": [{"co": {"X": 1.0, "Y": -1.0}, "interpolation": 2}]}, "has_video": {"Points": [{"co": {"X": 1.0, "Y": -1.0}, "interpolation": 2}]}, "effects": [], "title": "Title-03.svg", "perspective_c3_x": {"Points": [{"co": {"X": 1.0, "Y": -1.0}, "interpolation": 2}]}, "crop_y": {"Points": [{"co": {"X": 1.0, "Y": 0.0}, "interpolation": 2}]}}, "partial": false, "value": {"layer": 2, "image": "/home/milind/.openshot_qt/thumbnail/NXRCV0O7IK.png", "position": 30.56, "start": 0, "id": "XKF5M8RK48", "end": 10}}, {"type": "update", "key": ["clips", {"id": "RKN119MZ6I"}], "old_values": {"location_x": {"Points": [{"co": {"X": 1.0, "Y": 0.0}, "interpolation": 2}]}, "crop_height": {"Points": [{"co": {"X": 1.0, "Y": -1.0}, "interpolation": 2}]}, "wave_color": {"red": {"Points": [{"handle_type": 0, "handle_right": {"X": 0.5, "Y": 0.0}, "handle_left": {"X": 0.5, "Y": 1.0}, "co": {"X": 1.0, "Y": 0.0}, "interpolation": 0}]}, "alpha": {"Points": [{"handle_type": 0, "handle_right": {"X": 0.5, "Y": 0.0}, "handle_left": {"X": 0.5, "Y": 1.0}, "co": {"X": 1.0, "Y": 255.0}, "interpolation": 0}]}, "blue": {"Points": [{"handle_type": 0, "handle_right": {"X": 0.5, "Y": 0.0}, "handle_left": {"X": 0.5, "Y": 1.0}, "co": {"X": 1.0, "Y": 255.0}, "interpolation": 0}]}, "green": {"Points": [{"handle_type": 0, "handle_right": {"X": 0.5, "Y": 0.0}, "handle_left": {"X": 0.5, "Y": 1.0}, "co": {"X": 1.0, "Y": 123.0}, "interpolation": 0}]}}, "id": "RKN119MZ6I", "anchor": 0, "alpha": {"Points": [{"co": {"X": 1.0, "Y": 1.0}, "interpolation": 2}]}, "perspective_c1_x": {"Points": [{"co": {"X": 1.0, "Y": -1.0}, "interpolation": 2}]}, "file_id": "0D6YTY7G58", "has_audio": {"Points": [{"co": {"X": 1.0, "Y": -1.0}, "interpolation": 2}]}, "gravity": 4, "perspective_c4_y": {"Points": [{"co": {"X": 1.0, "Y": -1.0}, "interpolation": 2}]}, "time": {"Points": [{"co": {"X": 1.0, "Y": 1.0}, "interpolation": 2}]}, "perspective_c3_y": {"Points": [{"co": {"X": 1.0, "Y": -1.0}, "interpolation": 2}]}, "layer": 1, "rotation": {"Points": [{"co": {"X": 1.0, "Y": 0.0}, "interpolation": 2}]}, "position": 31.6, "start": 0, "shear_y": {"Points": [{"co": {"X": 1.0, "Y": 0.0}, "interpolation": 2}]}, "display": 0, "scale_y": {"Points": [{"co": {"X": 1.0, "Y": 1.0}, "interpolation": 2}]}, "perspective_c2_x": {"Points": [{"co": {"X": 1.0, "Y": -1.0}, "interpolation": 2}]}, "end": 10, "channel_mapping": {"Points": [{"co": {"X": 1.0, "Y": -1.0}, "interpolation": 2}]}, "volume": {"Points": [{"co": {"X": 1.0, "Y": 1.0}, "interpolation": 2}]}, "crop_width": {"Points": [{"co": {"X": 1.0, "Y": -1.0}, "interpolation": 2}]}, "waveform": false, "perspective_c1_y": {"Points": [{"co": {"X": 1.0, "Y": -1.0}, "interpolation": 2}]}, "channel_filter": {"Points": [{"co": {"X": 1.0, "Y": -1.0}, "interpolation": 2}]}, "location_y": {"Points": [{"co": {"X": 1.0, "Y": 0.0}, "interpolation": 2}]}, "perspective_c4_x": {"Points": [{"co": {"X": 1.0, "Y": -1.0}, "interpolation": 2}]}, "scale": 1, "duration": 86400.0, "crop_x": {"Points": [{"co": {"X": 1.0, "Y": 0.0}, "interpolation": 2}]}, "scale_x": {"Points": [{"co": {"X": 1.0, "Y": 1.0}, "interpolation": 2}]}, "image": "/home/milind/.openshot_qt/thumbnail/0D6YTY7G58.png", "shear_x": {"Points": [{"co": {"X": 1.0, "Y": 0.0}, "interpolation": 2}]}, "reader": {"audio_stream_index": -1, "path": "/home/milind/Data/Projects/ProgressCard/Title-02.svg", "video_stream_index": -1, "video_length": "2592000", "has_audio": false, "display_ratio": {"den": 3827, "num": 6803}, "video_bit_rate": 0, "audio_timebase": {"den": 1, "num": 1}, "channel_layout": 4, "fps": {"den": 1, "num": 30}, "has_single_image": true, "acodec": "", "width": 6803, "type": "QtImageReader", "interlaced_frame": false, "pixel_ratio": {"den": 1, "num": 1}, "pixel_format": -1, "audio_bit_rate": 0, "sample_rate": 0, "channels": 0, "duration": 86400.0, "vcodec": "", "height": 3827, "video_timebase": {"den": 30, "num": 1}, "has_video": true, "top_field_first": true, "file_size": "104140324"}, "perspective_c2_y": {"Points": [{"co": {"X": 1.0, "Y": -1.0}, "interpolation": 2}]}, "has_video": {"Points": [{"co": {"X": 1.0, "Y": -1.0}, "interpolation": 2}]}, "effects": [], "title": "Title-02.svg", "perspective_c3_x": {"Points": [{"co": {"X": 1.0, "Y": -1.0}, "interpolation": 2}]}, "crop_y": {"Points": [{"co": {"X": 1.0, "Y": 0.0}, "interpolation": 2}]}}, "partial": false, "value": {"layer": 1, "image": "/home/milind/.openshot_qt/thumbnail/0D6YTY7G58.png", "position": 30.56, "start": 0, "id": "RKN119MZ6I", "end": 10}}, {"type": "update", "key": ["clips", {"id": "TTX9439VQS"}], "old_values": {"location_x": {"Points": [{"co": {"X": 1.0, "Y": 0.0}, "interpolation": 2}]}, "crop_height": {"Points": [{"co": {"X": 1.0, "Y": -1.0}, "interpolation": 2}]}, "wave_color": {"red": {"Points": [{"handle_type": 0, "handle_right": {"X": 0.5, "Y": 0.0}, "handle_left": {"X": 0.5, "Y": 1.0}, "co": {"X": 1.0, "Y": 0.0}, "interpolation": 0}]}, "alpha": {"Points": [{"handle_type": 0, "handle_right": {"X": 0.5, "Y": 0.0}, "handle_left": {"X": 0.5, "Y": 1.0}, "co": {"X": 1.0, "Y": 255.0}, "interpolation": 0}]}, "blue": {"Points": [{"handle_type": 0, "handle_right": {"X": 0.5, "Y": 0.0}, "handle_left": {"X": 0.5, "Y": 1.0}, "co": {"X": 1.0, "Y": 255.0}, "interpolation": 0}]}, "green": {"Points": [{"handle_type": 0, "handle_right": {"X": 0.5, "Y": 0.0}, "handle_left": {"X": 0.5, "Y": 1.0}, "co": {"X": 1.0, "Y": 123.0}, "interpolation": 0}]}}, "id": "TTX9439VQS", "anchor": 0, "alpha": {"Points": [{"co": {"X": 1.0, "Y": 1.0}, "interpolation": 2}]}, "perspective_c1_x": {"Points": [{"co": {"X": 1.0, "Y": -1.0}, "interpolation": 2}]}, "file_id": "NXRCV0O7IK", "has_audio": {"Points": [{"co": {"X": 1.0, "Y": -1.0}, "interpolation": 2}]}, "gravity": 4, "perspective_c4_y": {"Points": [{"co": {"X": 1.0, "Y": -1.0}, "interpolation": 2}]}, "time": {"Points": [{"co": {"X": 1.0, "Y": 1.0}, "interpolation": 2}]}, "perspective_c3_y": {"Points": [{"co": {"X": 1.0, "Y": -1.0}, "interpolation": 2}]}, "layer": 3, "rotation": {"Points": [{"co": {"X": 1.0, "Y": 0.0}, "interpolation": 2}]}, "position": 31.84, "start": 0, "shear_y": {"Points": [{"co": {"X": 1.0, "Y": 0.0}, "interpolation": 2}]}, "display": 0, "scale_y": {"Points": [{"co": {"X": 1.0, "Y": 1.0}, "interpolation": 2}]}, "perspective_c2_x": {"Points": [{"co": {"X": 1.0, "Y": -1.0}, "interpolation": 2}]}, "end": 10, "channel_mapping": {"Points": [{"co": {"X": 1.0, "Y": -1.0}, "interpolation": 2}]}, "volume": {"Points": [{"co": {"X": 1.0, "Y": 1.0}, "interpolation": 2}]}, "crop_width": {"Points": [{"co": {"X": 1.0, "Y": -1.0}, "interpolation": 2}]}, "waveform": false, "perspective_c1_y": {"Points": [{"co": {"X": 1.0, "Y": -1.0}, "interpolation": 2}]}, "channel_filter": {"Points": [{"co": {"X": 1.0, "Y": -1.0}, "interpolation": 2}]}, "location_y": {"Points": [{"co": {"X": 1.0, "Y": 0.0}, "interpolation": 2}]}, "perspective_c4_x": {"Points": [{"co": {"X": 1.0, "Y": -1.0}, "interpolation": 2}]}, "scale": 1, "duration": 86400.0, "crop_x": {"Points": [{"co": {"X": 1.0, "Y": 0.0}, "interpolation": 2}]}, "scale_x": {"Points": [{"co": {"X": 1.0, "Y": 1.0}, "interpolation": 2}]}, "image": "/home/milind/.openshot_qt/thumbnail/NXRCV0O7IK.png", "shear_x": {"Points": [{"co": {"X": 1.0, "Y": 0.0}, "interpolation": 2}]}, "reader": {"audio_stream_index": -1, "path": "/home/milind/Data/Projects/ProgressCard/Title-03.svg", "video_stream_index": -1, "video_length": "2592000", "has_audio": false, "display_ratio": {"den": 3827, "num": 6803}, "video_bit_rate": 0, "audio_timebase": {"den": 1, "num": 1}, "channel_layout": 4, "fps": {"den": 1, "num": 30}, "has_single_image": true, "acodec": "", "width": 6803, "type": "QtImageReader", "interlaced_frame": false, "pixel_ratio": {"den": 1, "num": 1}, "pixel_format": -1, "audio_bit_rate": 0, "sample_rate": 0, "channels": 0, "duration": 86400.0, "vcodec": "", "height": 3827, "video_timebase": {"den": 30, "num": 1}, "has_video": true, "top_field_first": true, "file_size": "104140324"}, "perspective_c2_y": {"Points": [{"co": {"X": 1.0, "Y": -1.0}, "interpolation": 2}]}, "has_video": {"Points": [{"co": {"X": 1.0, "Y": -1.0}, "interpolation": 2}]}, "effects": [], "title": "Title-03.svg", "perspective_c3_x": {"Points": [{"co": {"X": 1.0, "Y": -1.0}, "interpolation": 2}]}, "crop_y": {"Points": [{"co": {"X": 1.0, "Y": 0.0}, "interpolation": 2}]}}, "partial": false, "value": {"layer": 3, "image": "/home/milind/.openshot_qt/thumbnail/NXRCV0O7IK.png", "position": 30.56, "start": 0, "id": "TTX9439VQS", "end": 10}}, {"type": "delete", "key": ["clips", {"id": "FGHDRP4UL4"}], "old_values": {"location_x": {"Points": [{"co": {"X": 1.0, "Y": 0.0}, "interpolation": 2}]}, "crop_height": {"Points": [{"co": {"X": 1.0, "Y": -1.0}, "interpolation": 2}]}, "wave_color": {"red": {"Points": [{"handle_type": 0, "handle_right": {"X": 0.5, "Y": 0.0}, "handle_left": {"X": 0.5, "Y": 1.0}, "co": {"X": 1.0, "Y": 0.0}, "interpolation": 0}]}, "alpha": {"Points": [{"handle_type": 0, "handle_right": {"X": 0.5, "Y": 0.0}, "handle_left": {"X": 0.5, "Y": 1.0}, "co": {"X": 1.0, "Y": 255.0}, "interpolation": 0}]}, "blue": {"Points": [{"handle_type": 0, "handle_right": {"X": 0.5, "Y": 0.0}, "handle_left": {"X": 0.5, "Y": 1.0}, "co": {"X": 1.0, "Y": 255.0}, "interpolation": 0}]}, "green": {"Points": [{"handle_type": 0, "handle_right": {"X": 0.5, "Y": 0.0}, "handle_left": {"X": 0.5, "Y": 1.0}, "co": {"X": 1.0, "Y": 123.0}, "interpolation": 0}]}}, "id": "FGHDRP4UL4", "anchor": 0, "alpha": {"Points": [{"co": {"X": 1.0, "Y": 1.0}, "interpolation": 2}]}, "perspective_c1_x": {"Points": [{"co": {"X": 1.0, "Y": -1.0}, "interpolation": 2}]}, "file_id": "0D6YTY7G58", "has_audio": {"Points": [{"co": {"X": 1.0, "Y": -1.0}, "interpolation": 2}]}, "gravity": 4, "perspective_c4_y": {"Points": [{"co": {"X": 1.0, "Y": -1.0}, "interpolation": 2}]}, "time": {"Points": [{"co": {"X": 1.0, "Y": 1.0}, "interpolation": 2}]}, "perspective_c3_y": {"Points": [{"co": {"X": 1.0, "Y": -1.0}, "interpolation": 2}]}, "layer": 2, "rotation": {"Points": [{"co": {"X": 1.0, "Y": 0.0}, "interpolation": 2}]}, "position": 20.64, "start": 0, "shear_y": {"Points": [{"co": {"X": 1.0, "Y": 0.0}, "interpolation": 2}]}, "display": 0, "scale_y": {"Points": [{"co": {"X": 1.0, "Y": 1.0}, "interpolation": 2}]}, "perspective_c2_x": {"Points": [{"co": {"X": 1.0, "Y": -1.0}, "interpolation": 2}]}, "end": 10, "channel_mapping": {"Points": [{"co": {"X": 1.0, "Y": -1.0}, "interpolation": 2}]}, "volume": {"Points": [{"co": {"X": 1.0, "Y": 1.0}, "interpolation": 2}]}, "crop_width": {"Points": [{"co": {"X": 1.0, "Y": -1.0}, "interpolation": 2}]}, "waveform": false, "perspective_c1_y": {"Points": [{"co": {"X": 1.0, "Y": -1.0}, "interpolation": 2}]}, "channel_filter": {"Points": [{"co": {"X": 1.0, "Y": -1.0}, "interpolation": 2}]}, "location_y": {"Points": [{"co": {"X": 1.0, "Y": 0.0}, "interpolation": 2}]}, "perspective_c4_x": {"Points": [{"co": {"X": 1.0, "Y": -1.0}, "interpolation": 2}]}, "scale": 1, "duration": 86400.0, "crop_x": {"Points": [{"co": {"X": 1.0, "Y": 0.0}, "interpolation": 2}]}, "scale_x": {"Points": [{"co": {"X": 1.0, "Y": 1.0}, "interpolation": 2}]}, "image": "/home/milind/.openshot_qt/thumbnail/0D6YTY7G58.png", "shear_x": {"Points": [{"co": {"X": 1.0, "Y": 0.0}, "interpolation": 2}]}, "reader": {"audio_stream_index": -1, "path": "/home/milind/Data/Projects/ProgressCard/Title-02.svg", "video_stream_index": -1, "video_length": "2592000", "has_audio": false, "display_ratio": {"den": 3827, "num": 6803}, "video_bit_rate": 0, "audio_timebase": {"den": 1, "num": 1}, "channel_layout": 4, "fps": {"den": 1, "num": 30}, "has_single_image": true, "acodec": "", "width": 6803, "type": "QtImageReader", "interlaced_frame": false, "pixel_ratio": {"den": 1, "num": 1}, "pixel_format": -1, "audio_bit_rate": 0, "sample_rate": 0, "channels": 0, "duration": 86400.0, "vcodec": "", "height": 3827, "video_timebase": {"den": 30, "num": 1}, "has_video": true, "top_field_first": true, "file_size": "104140324"}, "perspective_c2_y": {"Points": [{"co": {"X": 1.0, "Y": -1.0}, "interpolation": 2}]}, "has_video": {"Points": [{"co": {"X": 1.0, "Y": -1.0}, "interpolation": 2}]}, "effects": [], "title": "Title-02.svg", "perspective_c3_x": {"Points": [{"co": {"X": 1.0, "Y": -1.0}, "interpolation": 2}]}, "crop_y": {"Points": [{"co": {"X": 1.0, "Y": 0.0}, "interpolation": 2}]}}, "partial": false, "value": null}, {"type": "delete", "key": ["clips", {"id": "D6O6ORVAD7"}], "old_values": {"location_x": {"Points": [{"co": {"X": 1.0, "Y": 0.0}, "interpolation": 2}]}, "crop_height": {"Points": [{"co": {"X": 1.0, "Y": -1.0}, "interpolation": 2}]}, "wave_color": {"red": {"Points": [{"handle_type": 0, "handle_right": {"X": 0.5, "Y": 0.0}, "handle_left": {"X": 0.5, "Y": 1.0}, "co": {"X": 1.0, "Y": 0.0}, "interpolation": 0}]}, "alpha": {"Points": [{"handle_type": 0, "handle_right": {"X": 0.5, "Y": 0.0}, "handle_left": {"X": 0.5, "Y": 1.0}, "co": {"X": 1.0, "Y": 255.0}, "interpolation": 0}]}, "blue": {"Points": [{"handle_type": 0, "handle_right": {"X": 0.5, "Y": 0.0}, "handle_left": {"X": 0.5, "Y": 1.0}, "co": {"X": 1.0, "Y": 255.0}, "interpolation": 0}]}, "green": {"Points": [{"handle_type": 0, "handle_right": {"X": 0.5, "Y": 0.0}, "handle_left": {"X": 0.5, "Y": 1.0}, "co": {"X": 1.0, "Y": 123.0}, "interpolation": 0}]}}, "id": "D6O6ORVAD7", "anchor": 0, "alpha": {"Points": [{"co": {"X": 1.0, "Y": 1.0}, "interpolation": 2}]}, "perspective_c1_x": {"Points": [{"co": {"X": 1.0, "Y": -1.0}, "interpolation": 2}]}, "file_id": "0D6YTY7G58", "has_audio": {"Points": [{"co": {"X": 1.0, "Y": -1.0}, "interpolation": 2}]}, "gravity": 4, "perspective_c4_y": {"Points": [{"co": {"X": 1.0, "Y": -1.0}, "interpolation": 2}]}, "time": {"Points": [{"co": {"X": 1.0, "Y": 1.0}, "interpolation": 2}]}, "perspective_c3_y": {"Points": [{"co": {"X": 1.0, "Y": -1.0}, "interpolation": 2}]}, "layer": 0, "rotation": {"Points": [{"co": {"X": 1.0, "Y": 0.0}, "interpolation": 2}]}, "position": 31.120000000000008, "start": 0, "shear_y": {"Points": [{"co": {"X": 1.0, "Y": 0.0}, "interpolation": 2}]}, "display": 0, "scale_y": {"Points": [{"co": {"X": 1.0, "Y": 1.0}, "interpolation": 2}]}, "perspective_c2_x": {"Points": [{"co": {"X": 1.0, "Y": -1.0}, "interpolation": 2}]}, "end": 10, "channel_mapping": {"Points": [{"co": {"X": 1.0, "Y": -1.0}, "interpolation": 2}]}, "volume": {"Points": [{"co": {"X": 1.0, "Y": 1.0}, "interpolation": 2}]}, "crop_width": {"Points": [{"co": {"X": 1.0, "Y": -1.0}, "interpolation": 2}]}, "waveform": false, "perspective_c1_y": {"Points": [{"co": {"X": 1.0, "Y": -1.0}, "interpolation": 2}]}, "channel_filter": {"Points": [{"co": {"X": 1.0, "Y": -1.0}, "interpolation": 2}]}, "location_y": {"Points": [{"co": {"X": 1.0, "Y": 0.0}, "interpolation": 2}]}, "perspective_c4_x": {"Points": [{"co": {"X": 1.0, "Y": -1.0}, "interpolation": 2}]}, "scale": 1, "duration": 86400.0, "crop_x": {"Points": [{"co": {"X": 1.0, "Y": 0.0}, "interpolation": 2}]}, "scale_x": {"Points": [{"co": {"X": 1.0, "Y": 1.0}, "interpolation": 2}]}, "image": "/home/milind/.openshot_qt/thumbnail/0D6YTY7G58.png", "shear_x": {"Points": [{"co": {"X": 1.0, "Y": 0.0}, "interpolation": 2}]}, "reader": {"audio_stream_index": -1, "path": "/home/milind/Data/Projects/ProgressCard/Title-02.svg", "video_stream_index": -1, "video_length": "2592000", "has_audio": false, "display_ratio": {"den": 3827, "num": 6803}, "video_bit_rate": 0, "audio_timebase": {"den": 1, "num": 1}, "channel_layout": 4, "fps": {"den": 1, "num": 30}, "has_single_image": true, "acodec": "", "width": 6803, "type": "QtImageReader", "interlaced_frame": false, "pixel_ratio": {"den": 1, "num": 1}, "pixel_format": -1, "audio_bit_rate": 0, "sample_rate": 0, "channels": 0, "duration": 86400.0, "vcodec": "", "height": 3827, "video_timebase": {"den": 30, "num": 1}, "has_video": true, "top_field_first": true, "file_size": "104140324"}, "perspective_c2_y": {"Points": [{"co": {"X": 1.0, "Y": -1.0}, "interpolation": 2}]}, "has_video": {"Points": [{"co": {"X": 1.0, "Y": -1.0}, "interpolation": 2}]}, "effects": [], "title": "Title-02.svg", "perspective_c3_x": {"Points": [{"co": {"X": 1.0, "Y": -1.0}, "interpolation": 2}]}, "crop_y": {"Points": [{"co": {"X": 1.0, "Y": 0.0}, "interpolation": 2}]}}, "partial": false, "value": null}, {"type": "insert", "key": ["clips"], "old_values": [{"location_x": {"Points": [{"co": {"X": 1.0, "Y": 0.0}, "interpolation": 2}, {"handle_type": 0, "handle_right": {"X": 0.5, "Y": 0.0}, "handle_left": {"X": 0.5, "Y": 1.0}, "co": {"X": 1.0, "Y": 1.0}, "interpolation": 0}, {"handle_type": 0, "handle_right": {"X": 0.5, "Y": 0.0}, "handle_left": {"X": 0.5, "Y": 1.0}, "co": {"X": 25.0, "Y": 0.0}, "interpolation": 0}]}, "crop_height": {"Points": [{"co": {"X": 1.0, "Y": -1.0}, "interpolation": 2}]}, "wave_color": {"red": {"Points": [{"handle_type": 0, "handle_right": {"X": 0.5, "Y": 0.0}, "handle_left": {"X": 0.5, "Y": 1.0}, "co": {"X": 1.0, "Y": 0.0}, "interpolation": 0}]}, "alpha": {"Points": [{"handle_type": 0, "handle_right": {"X": 0.5, "Y": 0.0}, "handle_left": {"X": 0.5, "Y": 1.0}, "co": {"X": 1.0, "Y": 255.0}, "interpolation": 0}]}, "blue": {"Points": [{"handle_type": 0, "handle_right": {"X": 0.5, "Y": 0.0}, "handle_left": {"X": 0.5, "Y": 1.0}, "co": {"X": 1.0, "Y": 255.0}, "interpolation": 0}]}, "green": {"Points": [{"handle_type": 0, "handle_right": {"X": 0.5, "Y": 0.0}, "handle_left": {"X": 0.5, "Y": 1.0}, "co": {"X": 1.0, "Y": 123.0}, "interpolation": 0}]}}, "anchor": 0, "alpha": {"Points": [{"co": {"X": 1.0, "Y": 1.0}, "interpolation": 2}]}, "crop_y": {"Points": [{"co": {"X": 1.0, "Y": 0.0}, "interpolation": 2}]}, "file_id": "EYET6E4WCX", "has_audio": {"Points": [{"co": {"X": 1.0, "Y": -1.0}, "interpolation": 2}]}, "gravity": 4, "perspective_c4_y": {"Points": [{"co": {"X": 1.0, "Y": -1.0}, "interpolation": 2}]}, "time": {"Points": [{"co": {"X": 1.0, "Y": 1.0}, "interpolation": 2}]}, "scale_y": {"Points": [{"co": {"X": 1.0, "Y": 1.0}, "interpolation": 2}]}, "layer": 4, "rotation": {"Points": [{"co": {"X": 1.0, "Y": 0.0}, "interpolation": 2}]}, "position": 53.92, "start": 0, "has_video": {"Points": [{"co": {"X": 1.0, "Y": -1.0}, "interpolation": 2}]}, "shear_y": {"Points": [{"co": {"X": 1.0, "Y": 0.0}, "interpolation": 2}]}, "display": 0, "perspective_c2_x": {"Points": [{"co": {"X": 1.0, "Y": -1.0}, "interpolation": 2}]}, "end": 10, "reader": {"audio_stream_index": -1, "video_stream_index": -1, "path": "/home/milind/Data/Projects/ProgressCard/intro.png", "video_length": "2592000", "has_audio": false, "display_ratio": {"den": 169, "num": 661}, "video_bit_rate": 0, "audio_timebase": {"den": 1, "num": 1}, "vcodec": "", "video_timebase": {"den": 30, "num": 1}, "fps": {"den": 1, "num": 30}, "has_single_image": true, "acodec": "", "width": 661, "type": "QtImageReader", "interlaced_frame": false, "pixel_ratio": {"den": 1, "num": 1}, "audio_bit_rate": 0, "pixel_format": -1, "sample_rate": 0, "channels": 0, "duration": 86400.0, "channel_layout": 4, "height": 169, "has_video": true, "top_field_first": true, "file_size": "446836"}, "perspective_c3_x": {"Points": [{"co": {"X": 1.0, "Y": -1.0}, "interpolation": 2}]}, "volume": {"Points": [{"co": {"X": 1.0, "Y": 1.0}, "interpolation": 2}]}, "channel_filter": {"Points": [{"co": {"X": 1.0, "Y": -1.0}, "interpolation": 2}]}, "waveform": false, "perspective_c1_y": {"Points": [{"co": {"X": 1.0, "Y": -1.0}, "interpolation": 2}]}, "perspective_c3_y": {"Points": [{"co": {"X": 1.0, "Y": -1.0}, "interpolation": 2}]}, "location_y": {"Points": [{"co": {"X": 1.0, "Y": 0.0}, "interpolation": 2}, {"handle_type": 0, "handle_right": {"X": 0.5, "Y": 0.0}, "handle_left": {"X": 0.5, "Y": 1.0}, "co": {"X": 1.0, "Y": 0.0}, "interpolation": 0}, {"handle_type": 0, "handle_right": {"X": 0.5, "Y": 0.0}, "handle_left": {"X": 0.5, "Y": 1.0}, "co": {"X": 25.0, "Y": 0.0}, "interpolation": 0}]}, "perspective_c4_x": {"Points": [{"co": {"X": 1.0, "Y": -1.0}, "interpolation": 2}]}, "id": "ACC3WDPIBO", "duration": 86400.0, "crop_x": {"Points": [{"co": {"X": 1.0, "Y": 0.0}, "interpolation": 2}]}, "scale_x": {"Points": [{"co": {"X": 1.0, "Y": 1.0}, "interpolation": 2}]}, "image": "/home/milind/.openshot_qt/thumbnail/EYET6E4WCX.png", "shear_x": {"Points": [{"co": {"X": 1.0, "Y": 0.0}, "interpolation": 2}]}, "perspective_c1_x": {"Points": [{"co": {"X": 1.0, "Y": -1.0}, "interpolation": 2}]}, "perspective_c2_y": {"Points": [{"co": {"X": 1.0, "Y": -1.0}, "interpolation": 2}]}, "channel_mapping": {"Points": [{"co": {"X": 1.0, "Y": -1.0}, "interpolation": 2}]}, "effects": [], "title": "intro.png", "scale": 1, "crop_width": {"Points": [{"co": {"X": 1.0, "Y": -1.0}, "interpolation": 2}]}}, {"location_x": {"Points": [{"co": {"X": 1.0, "Y": 0.0}, "interpolation": 2}]}, "crop_height": {"Points": [{"co": {"X": 1.0, "Y": -1.0}, "interpolation": 2}]}, "wave_color": {"red": {"Points": [{"handle_type": 0, "handle_right": {"X": 0.5, "Y": 0.0}, "handle_left": {"X": 0.5, "Y": 1.0}, "co": {"X": 1.0, "Y": 0.0}, "interpolation": 0}]}, "alpha": {"Points": [{"handle_type": 0, "handle_right": {"X": 0.5, "Y": 0.0}, "handle_left": {"X": 0.5, "Y": 1.0}, "co": {"X": 1.0, "Y": 255.0}, "interpolation": 0}]}, "blue": {"Points": [{"handle_type": 0, "handle_right": {"X": 0.5, "Y": 0.0}, "handle_left": {"X": 0.5, "Y": 1.0}, "co": {"X": 1.0, "Y": 255.0}, "interpolation": 0}]}, "green": {"Points": [{"handle_type": 0, "handle_right": {"X": 0.5, "Y": 0.0}, "handle_left": {"X": 0.5, "Y": 1.0}, "co": {"X": 1.0, "Y": 123.0}, "interpolation": 0}]}}, "id": "2TGY3MFOSA", "anchor": 0, "alpha": {"Points": [{"co": {"X": 1.0, "Y": 1.0}, "interpolation": 2}]}, "perspective_c1_x": {"Points": [{"co": {"X": 1.0, "Y": -1.0}, "interpolation": 2}]}, "file_id": "P90UHAKE08", "has_audio": {"Points": [{"co": {"X": 1.0, "Y": -1.0}, "interpolation": 2}]}, "gravity": 4, "perspective_c4_y": {"Points": [{"co": {"X": 1.0, "Y": -1.0}, "interpolation": 2}]}, "time": {"Points": [{"co": {"X": 1.0, "Y": 1.0}, "interpolation": 2}]}, "perspective_c3_y": {"Points": [{"co": {"X": 1.0, "Y": -1.0}, "interpolation": 2}]}, "layer": 0, "rotation": {"Points": [{"co": {"X": 1.0, "Y": 0.0}, "interpolation": 2}]}, "position": 0.64, "start": 0, "shear_y": {"Points": [{"co": {"X": 1.0, "Y": 0.0}, "interpolation": 2}]}, "display": 0, "scale_y": {"Points": [{"co": {"X": 1.0, "Y": 1.0}, "interpolation": 2}]}, "perspective_c2_x": {"Points": [{"co": {"X": 1.0, "Y": -1.0}, "interpolation": 2}]}, "end": 10, "channel_mapping": {"Points": [{"co": {"X": 1.0, "Y": -1.0}, "interpolation": 2}]}, "volume": {"Points": [{"co": {"X": 1.0, "Y": 1.0}, "interpolation": 2}]}, "crop_width": {"Points": [{"co": {"X": 1.0, "Y": -1.0}, "interpolation": 2}]}, "waveform": false, "perspective_c1_y": {"Points": [{"co": {"X": 1.0, "Y": -1.0}, "interpolation": 2}]}, "channel_filter": {"Points": [{"co": {"X": 1.0, "Y": -1.0}, "interpolation": 2}]}, "location_y": {"Points": [{"co": {"X": 1.0, "Y": 0.0}, "interpolation": 2}]}, "perspective_c4_x": {"Points": [{"co": {"X": 1.0, "Y": -1.0}, "interpolation": 2}]}, "scale": 1, "duration": 86400.0, "crop_x": {"Points": [{"co": {"X": 1.0, "Y": 0.0}, "interpolation": 2}]}, "scale_x": {"Points": [{"co": {"X": 1.0, "Y": 1.0}, "interpolation": 2}]}, "image": "/home/milind/.openshot_qt/thumbnail/P90UHAKE08.png", "shear_x": {"Points": [{"co": {"X": 1.0, "Y": 0.0}, "interpolation": 2}]}, "reader": {"audio_stream_index": -1, "path": "/home/milind/Data/Projects/ProgressCard/Title-01.svg", "video_stream_index": -1, "video_length": "2592000", "has_audio": false, "display_ratio": {"den": 3827, "num": 6803}, "video_bit_rate": 0, "audio_timebase": {"den": 1, "num": 1}, "channel_layout": 4, "fps": {"den": 1, "num": 30}, "has_single_image": true, "acodec": "", "width": 6803, "type": "QtImageReader", "interlaced_frame": false, "pixel_ratio": {"den": 1, "num": 1}, "pixel_format": -1, "audio_bit_rate": 0, "sample_rate": 0, "channels": 0, "duration": 86400.0, "vcodec": "", "height": 3827, "video_timebase": {"den": 30, "num": 1}, "has_video": true, "top_field_first": true, "file_size": "104140324"}, "perspective_c2_y": {"Points": [{"co": {"X": 1.0, "Y": -1.0}, "interpolation": 2}]}, "has_video": {"Points": [{"co": {"X": 1.0, "Y": -1.0}, "interpolation": 2}]}, "effects": [], "title": "Title-01.svg", "perspective_c3_x": {"Points": [{"co": {"X": 1.0, "Y": -1.0}, "interpolation": 2}]}, "crop_y": {"Points": [{"co": {"X": 1.0, "Y": 0.0}, "interpolation": 2}]}}, {"location_x": {"Points": [{"co": {"X": 1.0, "Y": 0.0}, "interpolation": 2}]}, "crop_height": {"Points": [{"co": {"X": 1.0, "Y": -1.0}, "interpolation": 2}]}, "wave_color": {"red": {"Points": [{"handle_type": 0, "handle_right": {"X": 0.5, "Y": 0.0}, "handle_left": {"X": 0.5, "Y": 1.0}, "co": {"X": 1.0, "Y": 0.0}, "interpolation": 0}]}, "alpha": {"Points": [{"handle_type": 0, "handle_right": {"X": 0.5, "Y": 0.0}, "handle_left": {"X": 0.5, "Y": 1.0}, "co": {"X": 1.0, "Y": 255.0}, "interpolation": 0}]}, "blue": {"Points": [{"handle_type": 0, "handle_right": {"X": 0.5, "Y": 0.0}, "handle_left": {"X": 0.5, "Y": 1.0}, "co": {"X": 1.0, "Y": 255.0}, "interpolation": 0}]}, "green": {"Points": [{"handle_type": 0, "handle_right": {"X": 0.5, "Y": 0.0}, "handle_left": {"X": 0.5, "Y": 1.0}, "co": {"X": 1.0, "Y": 123.0}, "interpolation": 0}]}}, "id": "VPXH2YR7L9", "anchor": 0, "alpha": {"Points": [{"co": {"X": 1.0, "Y": 1.0}, "interpolation": 2}]}, "perspective_c1_x": {"Points": [{"co": {"X": 1.0, "Y": -1.0}, "interpolation": 2}]}, "file_id": "P90UHAKE08", "has_audio": {"Points": [{"co": {"X": 1.0, "Y": -1.0}, "interpolation": 2}]}, "gravity": 4, "perspective_c4_y": {"Points": [{"co": {"X": 1.0, "Y": -1.0}, "interpolation": 2}]}, "time": {"Points": [{"co": {"X": 1.0, "Y": 1.0}, "interpolation": 2}]}, "perspective_c3_y": {"Points": [{"co": {"X": 1.0, "Y": -1.0}, "interpolation": 2}]}, "layer": 0, "rotation": {"Points": [{"co": {"X": 1.0, "Y": 0.0}, "interpolation": 2}]}, "position": 10.64, "start": 0, "shear_y": {"Points": [{"co": {"X": 1.0, "Y": 0.0}, "interpolation": 2}]}, "display": 0, "scale_y": {"Points": [{"co": {"X": 1.0, "Y": 1.0}, "interpolation": 2}]}, "perspective_c2_x": {"Points": [{"co": {"X": 1.0, "Y": -1.0}, "interpolation": 2}]}, "end": 10, "channel_mapping": {"Points": [{"co": {"X": 1.0, "Y": -1.0}, "interpolation": 2}]}, "volume": {"Points": [{"co": {"X": 1.0, "Y": 1.0}, "interpolation": 2}]}, "crop_width": {"Points": [{"co": {"X": 1.0, "Y": -1.0}, "interpolation": 2}]}, "waveform": false, "perspective_c1_y": {"Points": [{"co": {"X": 1.0, "Y": -1.0}, "interpolation": 2}]}, "channel_filter": {"Points": [{"co": {"X": 1.0, "Y": -1.0}, "interpolation": 2}]}, "location_y": {"Points": [{"co": {"X": 1.0, "Y": 0.0}, "interpolation": 2}]}, "perspective_c4_x": {"Points": [{"co": {"X": 1.0, "Y": -1.0}, "interpolation": 2}]}, "scale": 1, "duration": 86400.0, "crop_x": {"Points": [{"co": {"X": 1.0, "Y": 0.0}, "interpolation": 2}]}, "scale_x": {"Points": [{"co": {"X": 1.0, "Y": 1.0}, "interpolation": 2}]}, "image": "/home/milind/.openshot_qt/thumbnail/P90UHAKE08.png", "shear_x": {"Points": [{"co": {"X": 1.0, "Y": 0.0}, "interpolation": 2}]}, "reader": {"audio_stream_index": -1, "path": "/home/milind/Data/Projects/ProgressCard/Title-01.svg", "video_stream_index": -1, "video_length": "2592000", "has_audio": false, "display_ratio": {"den": 3827, "num": 6803}, "video_bit_rate": 0, "audio_timebase": {"den": 1, "num": 1}, "channel_layout": 4, "fps": {"den": 1, "num": 30}, "has_single_image": true, "acodec": "", "width": 6803, "type": "QtImageReader", "interlaced_frame": false, "pixel_ratio": {"den": 1, "num": 1}, "pixel_format": -1, "audio_bit_rate": 0, "sample_rate": 0, "channels": 0, "duration": 86400.0, "vcodec": "", "height": 3827, "video_timebase": {"den": 30, "num": 1}, "has_video": true, "top_field_first": true, "file_size": "104140324"}, "perspective_c2_y": {"Points": [{"co": {"X": 1.0, "Y": -1.0}, "interpolation": 2}]}, "has_video": {"Points": [{"co": {"X": 1.0, "Y": -1.0}, "interpolation": 2}]}, "effects": [], "title": "Title-01.svg", "perspective_c3_x": {"Points": [{"co": {"X": 1.0, "Y": -1.0}, "interpolation": 2}]}, "crop_y": {"Points": [{"co": {"X": 1.0, "Y": 0.0}, "interpolation": 2}]}}, {"location_x": {"Points": [{"co": {"X": 1.0, "Y": 0.0}, "interpolation": 2}]}, "crop_height": {"Points": [{"co": {"X": 1.0, "Y": -1.0}, "interpolation": 2}]}, "wave_color": {"red": {"Points": [{"handle_type": 0, "handle_right": {"X": 0.5, "Y": 0.0}, "handle_left": {"X": 0.5, "Y": 1.0}, "co": {"X": 1.0, "Y": 0.0}, "interpolation": 0}]}, "alpha": {"Points": [{"handle_type": 0, "handle_right": {"X": 0.5, "Y": 0.0}, "handle_left": {"X": 0.5, "Y": 1.0}, "co": {"X": 1.0, "Y": 255.0}, "interpolation": 0}]}, "blue": {"Points": [{"handle_type": 0, "handle_right": {"X": 0.5, "Y": 0.0}, "handle_left": {"X": 0.5, "Y": 1.0}, "co": {"X": 1.0, "Y": 255.0}, "interpolation": 0}]}, "green": {"Points": [{"handle_type": 0, "handle_right": {"X": 0.5, "Y": 0.0}, "handle_left": {"X": 0.5, "Y": 1.0}, "co": {"X": 1.0, "Y": 123.0}, "interpolation": 0}]}}, "id": "O48FS1E8RG", "anchor": 0, "alpha": {"Points": [{"co": {"X": 1.0, "Y": 1.0}, "interpolation": 2}]}, "perspective_c1_x": {"Points": [{"co": {"X": 1.0, "Y": -1.0}, "interpolation": 2}]}, "file_id": "P90UHAKE08", "has_audio": {"Points": [{"co": {"X": 1.0, "Y": -1.0}, "interpolation": 2}]}, "gravity": 4, "perspective_c4_y": {"Points": [{"co": {"X": 1.0, "Y": -1.0}, "interpolation": 2}]}, "time": {"Points": [{"co": {"X": 1.0, "Y": 1.0}, "interpolation": 2}]}, "perspective_c3_y": {"Points": [{"co": {"X": 1.0, "Y": -1.0}, "interpolation": 2}]}, "layer": 0, "rotation": {"Points": [{"co": {"X": 1.0, "Y": 0.0}, "interpolation": 2}]}, "position": 20.64, "start": 0, "shear_y": {"Points": [{"co": {"X": 1.0, "Y": 0.0}, "interpolation": 2}]}, "display": 0, "scale_y": {"Points": [{"co": {"X": 1.0, "Y": 1.0}, "interpolation": 2}]}, "perspective_c2_x": {"Points": [{"co": {"X": 1.0, "Y": -1.0}, "interpolation": 2}]}, "end": 10, "channel_mapping": {"Points": [{"co": {"X": 1.0, "Y": -1.0}, "interpolation": 2}]}, "volume": {"Points": [{"co": {"X": 1.0, "Y": 1.0}, "interpolation": 2}]}, "crop_width": {"Points": [{"co": {"X": 1.0, "Y": -1.0}, "interpolation": 2}]}, "waveform": false, "perspective_c1_y": {"Points": [{"co": {"X": 1.0, "Y": -1.0}, "interpolation": 2}]}, "channel_filter": {"Points": [{"co": {"X": 1.0, "Y": -1.0}, "interpolation": 2}]}, "location_y": {"Points": [{"co": {"X": 1.0, "Y": 0.0}, "interpolation": 2}]}, "perspective_c4_x": {"Points": [{"co": {"X": 1.0, "Y": -1.0}, "interpolation": 2}]}, "scale": 1, "duration": 86400.0, "crop_x": {"Points": [{"co": {"X": 1.0, "Y": 0.0}, "interpolation": 2}]}, "scale_x": {"Points": [{"co": {"X": 1.0, "Y": 1.0}, "interpolation": 2}]}, "image": "/home/milind/.openshot_qt/thumbnail/P90UHAKE08.png", "shear_x": {"Points": [{"co": {"X": 1.0, "Y": 0.0}, "interpolation": 2}]}, "reader": {"audio_stream_index": -1, "path": "/home/milind/Data/Projects/ProgressCard/Title-01.svg", "video_stream_index": -1, "video_length": "2592000", "has_audio": false, "display_ratio": {"den": 3827, "num": 6803}, "video_bit_rate": 0, "audio_timebase": {"den": 1, "num": 1}, "channel_layout": 4, "fps": {"den": 1, "num": 30}, "has_single_image": true, "acodec": "", "width": 6803, "type": "QtImageReader", "interlaced_frame": false, "pixel_ratio": {"den": 1, "num": 1}, "pixel_format": -1, "audio_bit_rate": 0, "sample_rate": 0, "channels": 0, "duration": 86400.0, "vcodec": "", "height": 3827, "video_timebase": {"den": 30, "num": 1}, "has_video": true, "top_field_first": true, "file_size": "104140324"}, "perspective_c2_y": {"Points": [{"co": {"X": 1.0, "Y": -1.0}, "interpolation": 2}]}, "has_video": {"Points": [{"co": {"X": 1.0, "Y": -1.0}, "interpolation": 2}]}, "effects": [], "title": "Title-01.svg", "perspective_c3_x": {"Points": [{"co": {"X": 1.0, "Y": -1.0}, "interpolation": 2}]}, "crop_y": {"Points": [{"co": {"X": 1.0, "Y": 0.0}, "interpolation": 2}]}}, {"location_x": {"Points": [{"co": {"X": 1.0, "Y": 0.0}, "interpolation": 2}]}, "crop_height": {"Points": [{"co": {"X": 1.0, "Y": -1.0}, "interpolation": 2}]}, "wave_color": {"red": {"Points": [{"handle_type": 0, "handle_right": {"X": 0.5, "Y": 0.0}, "handle_left": {"X": 0.5, "Y": 1.0}, "co": {"X": 1.0, "Y": 0.0}, "interpolation": 0}]}, "alpha": {"Points": [{"handle_type": 0, "handle_right": {"X": 0.5, "Y": 0.0}, "handle_left": {"X": 0.5, "Y": 1.0}, "co": {"X": 1.0, "Y": 255.0}, "interpolation": 0}]}, "blue": {"Points": [{"handle_type": 0, "handle_right": {"X": 0.5, "Y": 0.0}, "handle_left": {"X": 0.5, "Y": 1.0}, "co": {"X": 1.0, "Y": 255.0}, "interpolation": 0}]}, "green": {"Points": [{"handle_type": 0, "handle_right": {"X": 0.5, "Y": 0.0}, "handle_left": {"X": 0.5, "Y": 1.0}, "co": {"X": 1.0, "Y": 123.0}, "interpolation": 0}]}}, "id": "7C0GMAN5HH", "anchor": 0, "alpha": {"Points": [{"co": {"X": 1.0, "Y": 1.0}, "interpolation": 2}]}, "perspective_c1_x": {"Points": [{"co": {"X": 1.0, "Y": -1.0}, "interpolation": 2}]}, "file_id": "0D6YTY7G58", "has_audio": {"Points": [{"co": {"X": 1.0, "Y": -1.0}, "interpolation": 2}]}, "gravity": 4, "perspective_c4_y": {"Points": [{"co": {"X": 1.0, "Y": -1.0}, "interpolation": 2}]}, "time": {"Points": [{"co": {"X": 1.0, "Y": 1.0}, "interpolation": 2}]}, "perspective_c3_y": {"Points": [{"co": {"X": 1.0, "Y": -1.0}, "interpolation": 2}]}, "layer": 1, "rotation": {"Points": [{"co": {"X": 1.0, "Y": 0.0}, "interpolation": 2}]}, "position": 10.88, "start": 0, "shear_y": {"Points": [{"co": {"X": 1.0, "Y": 0.0}, "interpolation": 2}]}, "display": 0, "scale_y": {"Points": [{"co": {"X": 1.0, "Y": 1.0}, "interpolation": 2}]}, "perspective_c2_x": {"Points": [{"co": {"X": 1.0, "Y": -1.0}, "interpolation": 2}]}, "end": 10, "channel_mapping": {"Points": [{"co": {"X": 1.0, "Y": -1.0}, "interpolation": 2}]}, "volume": {"Points": [{"co": {"X": 1.0, "Y": 1.0}, "interpolation": 2}]}, "crop_width": {"Points": [{"co": {"X": 1.0, "Y": -1.0}, "interpolation": 2}]}, "waveform": false, "perspective_c1_y": {"Points": [{"co": {"X": 1.0, "Y": -1.0}, "interpolation": 2}]}, "channel_filter": {"Points": [{"co": {"X": 1.0, "Y": -1.0}, "interpolation": 2}]}, "location_y": {"Points": [{"co": {"X": 1.0, "Y": 0.0}, "interpolation": 2}]}, "perspective_c4_x": {"Points": [{"co": {"X": 1.0, "Y": -1.0}, "interpolation": 2}]}, "scale": 1, "duration": 86400.0, "crop_x": {"Points": [{"co": {"X": 1.0, "Y": 0.0}, "interpolation": 2}]}, "scale_x": {"Points": [{"co": {"X": 1.0, "Y": 1.0}, "interpolation": 2}]}, "image": "/home/milind/.openshot_qt/thumbnail/0D6YTY7G58.png", "shear_x": {"Points": [{"co": {"X": 1.0, "Y": 0.0}, "interpolation": 2}]}, "reader": {"audio_stream_index": -1, "path": "/home/milind/Data/Projects/ProgressCard/Title-02.svg", "video_stream_index": -1, "video_length": "2592000", "has_audio": false, "display_ratio": {"den": 3827, "num": 6803}, "video_bit_rate": 0, "audio_timebase": {"den": 1, "num": 1}, "channel_layout": 4, "fps": {"den": 1, "num": 30}, "has_single_image": true, "acodec": "", "width": 6803, "type": "QtImageReader", "interlaced_frame": false, "pixel_ratio": {"den": 1, "num": 1}, "pixel_format": -1, "audio_bit_rate": 0, "sample_rate": 0, "channels": 0, "duration": 86400.0, "vcodec": "", "height": 3827, "video_timebase": {"den": 30, "num": 1}, "has_video": true, "top_field_first": true, "file_size": "104140324"}, "perspective_c2_y": {"Points": [{"co": {"X": 1.0, "Y": -1.0}, "interpolation": 2}]}, "has_video": {"Points": [{"co": {"X": 1.0, "Y": -1.0}, "interpolation": 2}]}, "effects": [], "title": "Title-02.svg", "perspective_c3_x": {"Points": [{"co": {"X": 1.0, "Y": -1.0}, "interpolation": 2}]}, "crop_y": {"Points": [{"co": {"X": 1.0, "Y": 0.0}, "interpolation": 2}]}}, {"location_x": {"Points": [{"co": {"X": 1.0, "Y": 0.0}, "interpolation": 2}]}, "crop_height": {"Points": [{"co": {"X": 1.0, "Y": -1.0}, "interpolation": 2}]}, "wave_color": {"red": {"Points": [{"handle_type": 0, "handle_right": {"X": 0.5, "Y": 0.0}, "handle_left": {"X": 0.5, "Y": 1.0}, "co": {"X": 1.0, "Y": 0.0}, "interpolation": 0}]}, "alpha": {"Points": [{"handle_type": 0, "handle_right": {"X": 0.5, "Y": 0.0}, "handle_left": {"X": 0.5, "Y": 1.0}, "co": {"X": 1.0, "Y": 255.0}, "interpolation": 0}]}, "blue": {"Points": [{"handle_type": 0, "handle_right": {"X": 0.5, "Y": 0.0}, "handle_left": {"X": 0.5, "Y": 1.0}, "co": {"X": 1.0, "Y": 255.0}, "interpolation": 0}]}, "green": {"Points": [{"handle_type": 0, "handle_right": {"X": 0.5, "Y": 0.0}, "handle_left": {"X": 0.5, "Y": 1.0}, "co": {"X": 1.0, "Y": 123.0}, "interpolation": 0}]}}, "id": "33BYMNG1XF", "anchor": 0, "alpha": {"Points": [{"co": {"X": 1.0, "Y": 1.0}, "interpolation": 2}]}, "perspective_c1_x": {"Points": [{"co": {"X": 1.0, "Y": -1.0}, "interpolation": 2}]}, "file_id": "0D6YTY7G58", "has_audio": {"Points": [{"co": {"X": 1.0, "Y": -1.0}, "interpolation": 2}]}, "gravity": 4, "perspective_c4_y": {"Points": [{"co": {"X": 1.0, "Y": -1.0}, "interpolation": 2}]}, "time": {"Points": [{"co": {"X": 1.0, "Y": 1.0}, "interpolation": 2}]}, "perspective_c3_y": {"Points": [{"co": {"X": 1.0, "Y": -1.0}, "interpolation": 2}]}, "layer": 1, "rotation": {"Points": [{"co": {"X": 1.0, "Y": 0.0}, "interpolation": 2}]}, "position": 20.880000000000006, "start": 0, "shear_y": {"Points": [{"co": {"X": 1.0, "Y": 0.0}, "interpolation": 2}]}, "display": 0, "scale_y": {"Points": [{"co": {"X": 1.0, "Y": 1.0}, "interpolation": 2}]}, "perspective_c2_x": {"Points": [{"co": {"X": 1.0, "Y": -1.0}, "interpolation": 2}]}, "end": 10, "channel_mapping": {"Points": [{"co": {"X": 1.0, "Y": -1.0}, "interpolation": 2}]}, "volume": {"Points": [{"co": {"X": 1.0, "Y": 1.0}, "interpolation": 2}]}, "crop_width": {"Points": [{"co": {"X": 1.0, "Y": -1.0}, "interpolation": 2}]}, "waveform": false, "perspective_c1_y": {"Points": [{"co": {"X": 1.0, "Y": -1.0}, "interpolation": 2}]}, "channel_filter": {"Points": [{"co": {"X": 1.0, "Y": -1.0}, "interpolation": 2}]}, "location_y": {"Points": [{"co": {"X": 1.0, "Y": 0.0}, "interpolation": 2}]}, "perspective_c4_x": {"Points": [{"co": {"X": 1.0, "Y": -1.0}, "interpolation": 2}]}, "scale": 1, "duration": 86400.0, "crop_x": {"Points": [{"co": {"X": 1.0, "Y": 0.0}, "interpolation": 2}]}, "scale_x": {"Points": [{"co": {"X": 1.0, "Y": 1.0}, "interpolation": 2}]}, "image": "/home/milind/.openshot_qt/thumbnail/0D6YTY7G58.png", "shear_x": {"Points": [{"co": {"X": 1.0, "Y": 0.0}, "interpolation": 2}]}, "reader": {"audio_stream_index": -1, "path": "/home/milind/Data/Projects/ProgressCard/Title-02.svg", "video_stream_index": -1, "video_length": "2592000", "has_audio": false, "display_ratio": {"den": 3827, "num": 6803}, "video_bit_rate": 0, "audio_timebase": {"den": 1, "num": 1}, "channel_layout": 4, "fps": {"den": 1, "num": 30}, "has_single_image": true, "acodec": "", "width": 6803, "type": "QtImageReader", "interlaced_frame": false, "pixel_ratio": {"den": 1, "num": 1}, "pixel_format": -1, "audio_bit_rate": 0, "sample_rate": 0, "channels": 0, "duration": 86400.0, "vcodec": "", "height": 3827, "video_timebase": {"den": 30, "num": 1}, "has_video": true, "top_field_first": true, "file_size": "104140324"}, "perspective_c2_y": {"Points": [{"co": {"X": 1.0, "Y": -1.0}, "interpolation": 2}]}, "has_video": {"Points": [{"co": {"X": 1.0, "Y": -1.0}, "interpolation": 2}]}, "effects": [], "title": "Title-02.svg", "perspective_c3_x": {"Points": [{"co": {"X": 1.0, "Y": -1.0}, "interpolation": 2}]}, "crop_y": {"Points": [{"co": {"X": 1.0, "Y": 0.0}, "interpolation": 2}]}}, {"location_x": {"Points": [{"co": {"X": 1.0, "Y": 0.0}, "interpolation": 2}]}, "crop_height": {"Points": [{"co": {"X": 1.0, "Y": -1.0}, "interpolation": 2}]}, "wave_color": {"red": {"Points": [{"handle_type": 0, "handle_right": {"X": 0.5, "Y": 0.0}, "handle_left": {"X": 0.5, "Y": 1.0}, "co": {"X": 1.0, "Y": 0.0}, "interpolation": 0}]}, "alpha": {"Points": [{"handle_type": 0, "handle_right": {"X": 0.5, "Y": 0.0}, "handle_left": {"X": 0.5, "Y": 1.0}, "co": {"X": 1.0, "Y": 255.0}, "interpolation": 0}]}, "blue": {"Points": [{"handle_type": 0, "handle_right": {"X": 0.5, "Y": 0.0}, "handle_left": {"X": 0.5, "Y": 1.0}, "co": {"X": 1.0, "Y": 255.0}, "interpolation": 0}]}, "green": {"Points": [{"handle_type": 0, "handle_right": {"X": 0.5, "Y": 0.0}, "handle_left": {"X": 0.5, "Y": 1.0}, "co": {"X": 1.0, "Y": 123.0}, "interpolation": 0}]}}, "id": "XKF5M8RK48", "anchor": 0, "alpha": {"Points": [{"co": {"X": 1.0, "Y": 1.0}, "interpolation": 2}]}, "perspective_c1_x": {"Points": [{"co": {"X": 1.0, "Y": -1.0}, "interpolation": 2}]}, "file_id": "NXRCV0O7IK", "has_audio": {"Points": [{"co": {"X": 1.0, "Y": -1.0}, "interpolation": 2}]}, "gravity": 4, "perspective_c4_y": {"Points": [{"co": {"X": 1.0, "Y": -1.0}, "interpolation": 2}]}, "time": {"Points": [{"co": {"X": 1.0, "Y": 1.0}, "interpolation": 2}]}, "perspective_c3_y": {"Points": [{"co": {"X": 1.0, "Y": -1.0}, "interpolation": 2}]}, "layer": 2, "rotation": {"Points": [{"co": {"X": 1.0, "Y": 0.0}, "interpolation": 2}]}, "position": 30.56, "start": 0, "shear_y": {"Points": [{"co": {"X": 1.0, "Y": 0.0}, "interpolation": 2}]}, "display": 0, "scale_y": {"Points": [{"co": {"X": 1.0, "Y": 1.0}, "interpolation": 2}]}, "perspective_c2_x": {"Points": [{"co": {"X": 1.0, "Y": -1.0}, "interpolation": 2}]}, "end": 10, "channel_mapping": {"Points": [{"co": {"X": 1.0, "Y": -1.0}, "interpolation": 2}]}, "volume": {"Points": [{"co": {"X": 1.0, "Y": 1.0}, "interpolation": 2}]}, "crop_width": {"Points": [{"co": {"X": 1.0, "Y": -1.0}, "interpolation": 2}]}, "waveform": false, "perspective_c1_y": {"Points": [{"co": {"X": 1.0, "Y": -1.0}, "interpolation": 2}]}, "channel_filter": {"Points": [{"co": {"X": 1.0, "Y": -1.0}, "interpolation": 2}]}, "location_y": {"Points": [{"co": {"X": 1.0, "Y": 0.0}, "interpolation": 2}]}, "perspective_c4_x": {"Points": [{"co": {"X": 1.0, "Y": -1.0}, "interpolation": 2}]}, "scale": 1, "duration": 86400.0, "crop_x": {"Points": [{"co": {"X": 1.0, "Y": 0.0}, "interpolation": 2}]}, "scale_x": {"Points": [{"co": {"X": 1.0, "Y": 1.0}, "interpolation": 2}]}, "image": "/home/milind/.openshot_qt/thumbnail/NXRCV0O7IK.png", "shear_x": {"Points": [{"co": {"X": 1.0, "Y": 0.0}, "interpolation": 2}]}, "reader": {"audio_stream_index": -1, "path": "/home/milind/Data/Projects/ProgressCard/Title-03.svg", "video_stream_index": -1, "video_length": "2592000", "has_audio": false, "display_ratio": {"den": 3827, "num": 6803}, "video_bit_rate": 0, "audio_timebase": {"den": 1, "num": 1}, "channel_layout": 4, "fps": {"den": 1, "num": 30}, "has_single_image": true, "acodec": "", "width": 6803, "type": "QtImageReader", "interlaced_frame": false, "pixel_ratio": {"den": 1, "num": 1}, "pixel_format": -1, "audio_bit_rate": 0, "sample_rate": 0, "channels": 0, "duration": 86400.0, "vcodec": "", "height": 3827, "video_timebase": {"den": 30, "num": 1}, "has_video": true, "top_field_first": true, "file_size": "104140324"}, "perspective_c2_y": {"Points": [{"co": {"X": 1.0, "Y": -1.0}, "interpolation": 2}]}, "has_video": {"Points": [{"co": {"X": 1.0, "Y": -1.0}, "interpolation": 2}]}, "effects": [], "title": "Title-03.svg", "perspective_c3_x": {"Points": [{"co": {"X": 1.0, "Y": -1.0}, "interpolation": 2}]}, "crop_y": {"Points": [{"co": {"X": 1.0, "Y": 0.0}, "interpolation": 2}]}}, {"location_x": {"Points": [{"co": {"X": 1.0, "Y": 0.0}, "interpolation": 2}]}, "crop_height": {"Points": [{"co": {"X": 1.0, "Y": -1.0}, "interpolation": 2}]}, "wave_color": {"red": {"Points": [{"handle_type": 0, "handle_right": {"X": 0.5, "Y": 0.0}, "handle_left": {"X": 0.5, "Y": 1.0}, "co": {"X": 1.0, "Y": 0.0}, "interpolation": 0}]}, "alpha": {"Points": [{"handle_type": 0, "handle_right": {"X": 0.5, "Y": 0.0}, "handle_left": {"X": 0.5, "Y": 1.0}, "co": {"X": 1.0, "Y": 255.0}, "interpolation": 0}]}, "blue": {"Points": [{"handle_type": 0, "handle_right": {"X": 0.5, "Y": 0.0}, "handle_left": {"X": 0.5, "Y": 1.0}, "co": {"X": 1.0, "Y": 255.0}, "interpolation": 0}]}, "green": {"Points": [{"handle_type": 0, "handle_right": {"X": 0.5, "Y": 0.0}, "handle_left": {"X": 0.5, "Y": 1.0}, "co": {"X": 1.0, "Y": 123.0}, "interpolation": 0}]}}, "id": "RKN119MZ6I", "anchor": 0, "alpha": {"Points": [{"co": {"X": 1.0, "Y": 1.0}, "interpolation": 2}]}, "perspective_c1_x": {"Points": [{"co": {"X": 1.0, "Y": -1.0}, "interpolation": 2}]}, "file_id": "0D6YTY7G58", "has_audio": {"Points": [{"co": {"X": 1.0, "Y": -1.0}, "interpolation": 2}]}, "gravity": 4, "perspective_c4_y": {"Points": [{"co": {"X": 1.0, "Y": -1.0}, "interpolation": 2}]}, "time": {"Points": [{"co": {"X": 1.0, "Y": 1.0}, "interpolation": 2}]}, "perspective_c3_y": {"Points": [{"co": {"X": 1.0, "Y": -1.0}, "interpolation": 2}]}, "layer": 1, "rotation": {"Points": [{"co": {"X": 1.0, "Y": 0.0}, "interpolation": 2}]}, "position": 30.56, "start": 0, "shear_y": {"Points": [{"co": {"X": 1.0, "Y": 0.0}, "interpolation": 2}]}, "display": 0, "scale_y": {"Points": [{"co": {"X": 1.0, "Y": 1.0}, "interpolation": 2}]}, "perspective_c2_x": {"Points": [{"co": {"X": 1.0, "Y": -1.0}, "interpolation": 2}]}, "end": 10, "channel_mapping": {"Points": [{"co": {"X": 1.0, "Y": -1.0}, "interpolation": 2}]}, "volume": {"Points": [{"co": {"X": 1.0, "Y": 1.0}, "interpolation": 2}]}, "crop_width": {"Points": [{"co": {"X": 1.0, "Y": -1.0}, "interpolation": 2}]}, "waveform": false, "perspective_c1_y": {"Points": [{"co": {"X": 1.0, "Y": -1.0}, "interpolation": 2}]}, "channel_filter": {"Points": [{"co": {"X": 1.0, "Y": -1.0}, "interpolation": 2}]}, "location_y": {"Points": [{"co": {"X": 1.0, "Y": 0.0}, "interpolation": 2}]}, "perspective_c4_x": {"Points": [{"co": {"X": 1.0, "Y": -1.0}, "interpolation": 2}]}, "scale": 1, "duration": 86400.0, "crop_x": {"Points": [{"co": {"X": 1.0, "Y": 0.0}, "interpolation": 2}]}, "scale_x": {"Points": [{"co": {"X": 1.0, "Y": 1.0}, "interpolation": 2}]}, "image": "/home/milind/.openshot_qt/thumbnail/0D6YTY7G58.png", "shear_x": {"Points": [{"co": {"X": 1.0, "Y": 0.0}, "interpolation": 2}]}, "reader": {"audio_stream_index": -1, "path": "/home/milind/Data/Projects/ProgressCard/Title-02.svg", "video_stream_index": -1, "video_length": "2592000", "has_audio": false, "display_ratio": {"den": 3827, "num": 6803}, "video_bit_rate": 0, "audio_timebase": {"den": 1, "num": 1}, "channel_layout": 4, "fps": {"den": 1, "num": 30}, "has_single_image": true, "acodec": "", "width": 6803, "type": "QtImageReader", "interlaced_frame": false, "pixel_ratio": {"den": 1, "num": 1}, "pixel_format": -1, "audio_bit_rate": 0, "sample_rate": 0, "channels": 0, "duration": 86400.0, "vcodec": "", "height": 3827, "video_timebase": {"den": 30, "num": 1}, "has_video": true, "top_field_first": true, "file_size": "104140324"}, "perspective_c2_y": {"Points": [{"co": {"X": 1.0, "Y": -1.0}, "interpolation": 2}]}, "has_video": {"Points": [{"co": {"X": 1.0, "Y": -1.0}, "interpolation": 2}]}, "effects": [], "title": "Title-02.svg", "perspective_c3_x": {"Points": [{"co": {"X": 1.0, "Y": -1.0}, "interpolation": 2}]}, "crop_y": {"Points": [{"co": {"X": 1.0, "Y": 0.0}, "interpolation": 2}]}}, {"location_x": {"Points": [{"co": {"X": 1.0, "Y": 0.0}, "interpolation": 2}]}, "crop_height": {"Points": [{"co": {"X": 1.0, "Y": -1.0}, "interpolation": 2}]}, "wave_color": {"red": {"Points": [{"handle_type": 0, "handle_right": {"X": 0.5, "Y": 0.0}, "handle_left": {"X": 0.5, "Y": 1.0}, "co": {"X": 1.0, "Y": 0.0}, "interpolation": 0}]}, "alpha": {"Points": [{"handle_type": 0, "handle_right": {"X": 0.5, "Y": 0.0}, "handle_left": {"X": 0.5, "Y": 1.0}, "co": {"X": 1.0, "Y": 255.0}, "interpolation": 0}]}, "blue": {"Points": [{"handle_type": 0, "handle_right": {"X": 0.5, "Y": 0.0}, "handle_left": {"X": 0.5, "Y": 1.0}, "co": {"X": 1.0, "Y": 255.0}, "interpolation": 0}]}, "green": {"Points": [{"handle_type": 0, "handle_right": {"X": 0.5, "Y": 0.0}, "handle_left": {"X": 0.5, "Y": 1.0}, "co": {"X": 1.0, "Y": 123.0}, "interpolation": 0}]}}, "id": "TTX9439VQS", "anchor": 0, "alpha": {"Points": [{"co": {"X": 1.0, "Y": 1.0}, "interpolation": 2}]}, "perspective_c1_x": {"Points": [{"co": {"X": 1.0, "Y": -1.0}, "interpolation": 2}]}, "file_id": "NXRCV0O7IK", "has_audio": {"Points": [{"co": {"X": 1.0, "Y": -1.0}, "interpolation": 2}]}, "gravity": 4, "perspective_c4_y": {"Points": [{"co": {"X": 1.0, "Y": -1.0}, "interpolation": 2}]}, "time": {"Points": [{"co": {"X": 1.0, "Y": 1.0}, "interpolation": 2}]}, "perspective_c3_y": {"Points": [{"co": {"X": 1.0, "Y": -1.0}, "interpolation": 2}]}, "layer": 3, "rotation": {"Points": [{"co": {"X": 1.0, "Y": 0.0}, "interpolation": 2}]}, "position": 30.56, "start": 0, "shear_y": {"Points": [{"co": {"X": 1.0, "Y": 0.0}, "interpolation": 2}]}, "display": 0, "scale_y": {"Points": [{"co": {"X": 1.0, "Y": 1.0}, "interpolation": 2}]}, "perspective_c2_x": {"Points": [{"co": {"X": 1.0, "Y": -1.0}, "interpolation": 2}]}, "end": 10, "channel_mapping": {"Points": [{"co": {"X": 1.0, "Y": -1.0}, "interpolation": 2}]}, "volume": {"Points": [{"co": {"X": 1.0, "Y": 1.0}, "interpolation": 2}]}, "crop_width": {"Points": [{"co": {"X": 1.0, "Y": -1.0}, "interpolation": 2}]}, "waveform": false, "perspective_c1_y": {"Points": [{"co": {"X": 1.0, "Y": -1.0}, "interpolation": 2}]}, "channel_filter": {"Points": [{"co": {"X": 1.0, "Y": -1.0}, "interpolation": 2}]}, "location_y": {"Points": [{"co": {"X": 1.0, "Y": 0.0}, "interpolation": 2}]}, "perspective_c4_x": {"Points": [{"co": {"X": 1.0, "Y": -1.0}, "interpolation": 2}]}, "scale": 1, "duration": 86400.0, "crop_x": {"Points": [{"co": {"X": 1.0, "Y": 0.0}, "interpolation": 2}]}, "scale_x": {"Points": [{"co": {"X": 1.0, "Y": 1.0}, "interpolation": 2}]}, "image": "/home/milind/.openshot_qt/thumbnail/NXRCV0O7IK.png", "shear_x": {"Points": [{"co": {"X": 1.0, "Y": 0.0}, "interpolation": 2}]}, "reader": {"audio_stream_index": -1, "path": "/home/milind/Data/Projects/ProgressCard/Title-03.svg", "video_stream_index": -1, "video_length": "2592000", "has_audio": false, "display_ratio": {"den": 3827, "num": 6803}, "video_bit_rate": 0, "audio_timebase": {"den": 1, "num": 1}, "channel_layout": 4, "fps": {"den": 1, "num": 30}, "has_single_image": true, "acodec": "", "width": 6803, "type": "QtImageReader", "interlaced_frame": false, "pixel_ratio": {"den": 1, "num": 1}, "pixel_format": -1, "audio_bit_rate": 0, "sample_rate": 0, "channels": 0, "duration": 86400.0, "vcodec": "", "height": 3827, "video_timebase": {"den": 30, "num": 1}, "has_video": true, "top_field_first": true, "file_size": "104140324"}, "perspective_c2_y": {"Points": [{"co": {"X": 1.0, "Y": -1.0}, "interpolation": 2}]}, "has_video": {"Points": [{"co": {"X": 1.0, "Y": -1.0}, "interpolation": 2}]}, "effects": [], "title": "Title-03.svg", "perspective_c3_x": {"Points": [{"co": {"X": 1.0, "Y": -1.0}, "interpolation": 2}]}, "crop_y": {"Points": [{"co": {"X": 1.0, "Y": 0.0}, "interpolation": 2}]}}], "partial": false, "value": {"location_x": {"Points": [{"co": {"X": 1.0, "Y": 0.0}, "interpolation": 2}]}, "wave_color": {"red": {"Points": [{"handle_type": 0, "interpolation": 0, "handle_left": {"X": 0.5, "Y": 1.0}, "co": {"X": 1.0, "Y": 0.0}, "handle_right": {"X": 0.5, "Y": 0.0}}]}, "alpha": {"Points": [{"handle_type": 0, "interpolation": 0, "handle_left": {"X": 0.5, "Y": 1.0}, "co": {"X": 1.0, "Y": 255.0}, "handle_right": {"X": 0.5, "Y": 0.0}}]}, "blue": {"Points": [{"handle_type": 0, "interpolation": 0, "handle_left": {"X": 0.5, "Y": 1.0}, "co": {"X": 1.0, "Y": 255.0}, "handle_right": {"X": 0.5, "Y": 0.0}}]}, "green": {"Points": [{"handle_type": 0, "interpolation": 0, "handle_left": {"X": 0.5, "Y": 1.0}, "co": {"X": 1.0, "Y": 123.0}, "handle_right": {"X": 0.5, "Y": 0.0}}]}}, "anchor": 0, "alpha": {"Points": [{"co": {"X": 1.0, "Y": 1.0}, "interpolation": 2}]}, "perspective_c3_y": {"Points": [{"co": {"X": 1.0, "Y": -1.0}, "interpolation": 2}]}, "file_id": "P90UHAKE08", "has_audio": {"Points": [{"co": {"X": 1.0, "Y": -1.0}, "interpolation": 2}]}, "gravity": 4, "perspective_c4_y": {"Points": [{"co": {"X": 1.0, "Y": -1.0}, "interpolation": 2}]}, "time": {"Points": [{"co": {"X": 1.0, "Y": 1.0}, "interpolation": 2}]}, "image": "/home/milind/.openshot_qt/thumbnail/P90UHAKE08.png", "layer": 0, "rotation": {"Points": [{"co": {"X": 1.0, "Y": 0.0}, "interpolation": 2}]}, "position": 30.880000000000006, "start": 0, "display": 0, "shear_y": {"Points": [{"co": {"X": 1.0, "Y": 0.0}, "interpolation": 2}]}, "crop_width": {"Points": [{"co": {"X": 1.0, "Y": -1.0}, "interpolation": 2}]}, "reader": {"audio_stream_index": -1, "path": "/home/milind/Data/Projects/ProgressCard/Title-01.svg", "video_stream_index": -1, "video_length": "2592000", "has_audio": false, "display_ratio": {"den": 3827, "num": 6803}, "video_bit_rate": 0, "audio_timebase": {"den": 1, "num": 1}, "channel_layout": 4, "fps": {"den": 1, "num": 30}, "has_single_image": true, "acodec": "", "width": 6803, "type": "QtImageReader", "interlaced_frame": false, "pixel_ratio": {"den": 1, "num": 1}, "audio_bit_rate": 0, "pixel_format": -1, "sample_rate": 0, "channels": 0, "duration": 86400.0, "vcodec": "", "height": 3827, "video_timebase": {"den": 30, "num": 1}, "has_video": true, "top_field_first": true, "file_size": "104140324"}, "end": 10, "scale_x": {"Points": [{"co": {"X": 1.0, "Y": 1.0}, "interpolation": 2}]}, "channel_mapping": {"Points": [{"co": {"X": 1.0, "Y": -1.0}, "interpolation": 2}]}, "perspective_c2_x": {"Points": [{"co": {"X": 1.0, "Y": -1.0}, "interpolation": 2}]}, "volume": {"Points": [{"co": {"X": 1.0, "Y": 1.0}, "interpolation": 2}]}, "channel_filter": {"Points": [{"co": {"X": 1.0, "Y": -1.0}, "interpolation": 2}]}, "waveform": false, "perspective_c1_y": {"Points": [{"co": {"X": 1.0, "Y": -1.0}, "interpolation": 2}]}, "scale_y": {"Points": [{"co": {"X": 1.0, "Y": 1.0}, "interpolation": 2}]}, "location_y": {"Points": [{"co": {"X": 1.0, "Y": 0.0}, "interpolation": 2}]}, "perspective_c3_x": {"Points": [{"co": {"X": 1.0, "Y": -1.0}, "interpolation": 2}]}, "perspective_c4_x": {"Points": [{"co": {"X": 1.0, "Y": -1.0}, "interpolation": 2}]}, "scale": 1, "crop_x": {"Points": [{"co": {"X": 1.0, "Y": 0.0}, "interpolation": 2}]}, "perspective_c1_x": {"Points": [{"co": {"X": 1.0, "Y": -1.0}, "interpolation": 2}]}, "duration": 86400.0, "shear_x": {"Points": [{"co": {"X": 1.0, "Y": 0.0}, "interpolation": 2}]}, "perspective_c2_y": {"Points": [{"co": {"X": 1.0, "Y": -1.0}, "interpolation": 2}]}, "effects": [], "crop_height": {"Points": [{"co": {"X": 1.0, "Y": -1.0}, "interpolation": 2}]}, "has_video": {"Points": [{"co": {"X": 1.0, "Y": -1.0}, "interpolation": 2}]}, "title": "Title-01.svg", "id": "QSXS4VKWAH", "crop_y": {"Points": [{"co": {"X": 1.0, "Y": 0.0}, "interpolation": 2}]}}}, {"type": "update", "key": ["clips", {"id": "QSXS4VKWAH"}], "old_values": {"anchor": 0, "location_x": {"Points": [{"co": {"X": 1.0, "Y": 0.0}, "interpolation": 2}]}, "crop_height": {"Points": [{"co": {"X": 1.0, "Y": -1.0}, "interpolation": 2}]}, "wave_color": {"red": {"Points": [{"handle_type": 0, "handle_right": {"X": 0.5, "Y": 0.0}, "handle_left": {"X": 0.5, "Y": 1.0}, "co": {"X": 1.0, "Y": 0.0}, "interpolation": 0}]}, "alpha": {"Points": [{"handle_type": 0, "handle_right": {"X": 0.5, "Y": 0.0}, "handle_left": {"X": 0.5, "Y": 1.0}, "co": {"X": 1.0, "Y": 255.0}, "interpolation": 0}]}, "blue": {"Points": [{"handle_type": 0, "handle_right": {"X": 0.5, "Y": 0.0}, "handle_left": {"X": 0.5, "Y": 1.0}, "co": {"X": 1.0, "Y": 255.0}, "interpolation": 0}]}, "green": {"Points": [{"handle_type": 0, "handle_right": {"X": 0.5, "Y": 0.0}, "handle_left": {"X": 0.5, "Y": 1.0}, "co": {"X": 1.0, "Y": 123.0}, "interpolation": 0}]}}, "perspective_c1_x": {"Points": [{"co": {"X": 1.0, "Y": -1.0}, "interpolation": 2}]}, "alpha": {"Points": [{"co": {"X": 1.0, "Y": 1.0}, "interpolation": 2}]}, "file_id": "P90UHAKE08", "has_audio": {"Points": [{"co": {"X": 1.0, "Y": -1.0}, "interpolation": 2}]}, "gravity": 4, "perspective_c4_y": {"Points": [{"co": {"X": 1.0, "Y": -1.0}, "interpolation": 2}]}, "time": {"Points": [{"co": {"X": 1.0, "Y": 1.0}, "interpolation": 2}]}, "scale_y": {"Points": [{"co": {"X": 1.0, "Y": 1.0}, "interpolation": 2}]}, "layer": 2, "rotation": {"Points": [{"co": {"X": 1.0, "Y": 0.0}, "interpolation": 2}]}, "position": 26.08, "start": 0.0, "shear_y": {"Points": [{"co": {"X": 1.0, "Y": 0.0}, "interpolation": 2}]}, "display": 0, "image": "/home/milind/.openshot_qt/thumbnail/P90UHAKE08.png", "perspective_c2_x": {"Points": [{"co": {"X": 1.0, "Y": -1.0}, "interpolation": 2}]}, "end": 10.0, "channel_mapping": {"Points": [{"co": {"X": 1.0, "Y": -1.0}, "interpolation": 2}]}, "scale": 1, "volume": {"Points": [{"co": {"X": 1.0, "Y": 1.0}, "interpolation": 2}]}, "crop_width": {"Points": [{"co": {"X": 1.0, "Y": -1.0}, "interpolation": 2}]}, "waveform": false, "perspective_c1_y": {"Points": [{"co": {"X": 1.0, "Y": -1.0}, "interpolation": 2}]}, "perspective_c3_y": {"Points": [{"co": {"X": 1.0, "Y": -1.0}, "interpolation": 2}]}, "location_y": {"Points": [{"co": {"X": 1.0, "Y": 0.0}, "interpolation": 2}]}, "perspective_c3_x": {"Points": [{"co": {"X": 1.0, "Y": -1.0}, "interpolation": 2}]}, "perspective_c4_x": {"Points": [{"co": {"X": 1.0, "Y": -1.0}, "interpolation": 2}]}, "shear_x": {"Points": [{"co": {"X": 1.0, "Y": 0.0}, "interpolation": 2}]}, "duration": 86400.0, "crop_x": {"Points": [{"co": {"X": 1.0, "Y": 0.0}, "interpolation": 2}]}, "scale_x": {"Points": [{"co": {"X": 1.0, "Y": 1.0}, "interpolation": 2}]}, "crop_y": {"Points": [{"co": {"X": 1.0, "Y": 0.0}, "interpolation": 2}]}, "reader": {"audio_stream_index": -1, "path": "/home/milind/Data/Projects/ProgressCard/Title-01.svg", "video_stream_index": -1, "video_length": "2592000", "has_audio": false, "display_ratio": {"den": 3827, "num": 6803}, "video_bit_rate": 0, "audio_timebase": {"den": 1, "num": 1}, "channel_layout": 4, "fps": {"den": 1, "num": 30}, "has_single_image": true, "acodec": "", "width": 6803, "type": "QtImageReader", "interlaced_frame": false, "pixel_ratio": {"den": 1, "num": 1}, "pixel_format": -1, "audio_bit_rate": 0, "sample_rate": 0, "channels": 0, "duration": 86400.0, "vcodec": "", "height": 3827, "video_timebase": {"den": 30, "num": 1}, "has_video": true, "top_field_first": true, "file_size": "104140324"}, "perspective_c2_y": {"Points": [{"co": {"X": 1.0, "Y": -1.0}, "interpolation": 2}]}, "has_video": {"Points": [{"co": {"X": 1.0, "Y": -1.0}, "interpolation": 2}]}, "effects": [], "title": "Title-01.svg", "id": "QSXS4VKWAH", "channel_filter": {"Points": [{"co": {"X": 1.0, "Y": -1.0}, "interpolation": 2}]}}, "partial": false, "value": {"layer": 0, "image": "/home/milind/.openshot_qt/thumbnail/P90UHAKE08.png", "position": 30.880000000000006, "start": 0, "id": "QSXS4VKWAH", "end": 10}}, {"type": "update", "key": ["clips", {"id": "XKF5M8RK48"}], "old_values": {"location_x": {"Points": [{"co": {"X": 1.0, "Y": 0.0}, "interpolation": 2}]}, "crop_height": {"Points": [{"co": {"X": 1.0, "Y": -1.0}, "interpolation": 2}]}, "wave_color": {"red": {"Points": [{"handle_type": 0, "handle_right": {"X": 0.5, "Y": 0.0}, "handle_left": {"X": 0.5, "Y": 1.0}, "co": {"X": 1.0, "Y": 0.0}, "interpolation": 0}]}, "alpha": {"Points": [{"handle_type": 0, "handle_right": {"X": 0.5, "Y": 0.0}, "handle_left": {"X": 0.5, "Y": 1.0}, "co": {"X": 1.0, "Y": 255.0}, "interpolation": 0}]}, "blue": {"Points": [{"handle_type": 0, "handle_right": {"X": 0.5, "Y": 0.0}, "handle_left": {"X": 0.5, "Y": 1.0}, "co": {"X": 1.0, "Y": 255.0}, "interpolation": 0}]}, "green": {"Points": [{"handle_type": 0, "handle_right": {"X": 0.5, "Y": 0.0}, "handle_left": {"X": 0.5, "Y": 1.0}, "co": {"X": 1.0, "Y": 123.0}, "interpolation": 0}]}}, "id": "XKF5M8RK48", "anchor": 0, "alpha": {"Points": [{"co": {"X": 1.0, "Y": 1.0}, "interpolation": 2}]}, "perspective_c1_x": {"Points": [{"co": {"X": 1.0, "Y": -1.0}, "interpolation": 2}]}, "file_id": "NXRCV0O7IK", "has_audio": {"Points": [{"co": {"X": 1.0, "Y": -1.0}, "interpolation": 2}]}, "gravity": 4, "perspective_c4_y": {"Points": [{"co": {"X": 1.0, "Y": -1.0}, "interpolation": 2}]}, "time": {"Points": [{"co": {"X": 1.0, "Y": 1.0}, "interpolation": 2}]}, "perspective_c3_y": {"Points": [{"co": {"X": 1.0, "Y": -1.0}, "interpolation": 2}]}, "layer": 2, "rotation": {"Points": [{"co": {"X": 1.0, "Y": 0.0}, "interpolation": 2}]}, "position": 30.56, "start": 0, "shear_y": {"Points": [{"co": {"X": 1.0, "Y": 0.0}, "interpolation": 2}]}, "display": 0, "scale_y": {"Points": [{"co": {"X": 1.0, "Y": 1.0}, "interpolation": 2}]}, "perspective_c2_x": {"Points": [{"co": {"X": 1.0, "Y": -1.0}, "interpolation": 2}]}, "end": 10, "channel_mapping": {"Points": [{"co": {"X": 1.0, "Y": -1.0}, "interpolation": 2}]}, "volume": {"Points": [{"co": {"X": 1.0, "Y": 1.0}, "interpolation": 2}]}, "crop_width": {"Points": [{"co": {"X": 1.0, "Y": -1.0}, "interpolation": 2}]}, "waveform": false, "perspective_c1_y": {"Points": [{"co": {"X": 1.0, "Y": -1.0}, "interpolation": 2}]}, "channel_filter": {"Points": [{"co": {"X": 1.0, "Y": -1.0}, "interpolation": 2}]}, "location_y": {"Points": [{"co": {"X": 1.0, "Y": 0.0}, "interpolation": 2}]}, "perspective_c4_x": {"Points": [{"co": {"X": 1.0, "Y": -1.0}, "interpolation": 2}]}, "scale": 1, "duration": 86400.0, "crop_x": {"Points": [{"co": {"X": 1.0, "Y": 0.0}, "interpolation": 2}]}, "scale_x": {"Points": [{"co": {"X": 1.0, "Y": 1.0}, "interpolation": 2}]}, "image": "/home/milind/.openshot_qt/thumbnail/NXRCV0O7IK.png", "shear_x": {"Points": [{"co": {"X": 1.0, "Y": 0.0}, "interpolation": 2}]}, "reader": {"audio_stream_index": -1, "path": "/home/milind/Data/Projects/ProgressCard/Title-03.svg", "video_stream_index": -1, "video_length": "2592000", "has_audio": false, "display_ratio": {"den": 3827, "num": 6803}, "video_bit_rate": 0, "audio_timebase": {"den": 1, "num": 1}, "channel_layout": 4, "fps": {"den": 1, "num": 30}, "has_single_image": true, "acodec": "", "width": 6803, "type": "QtImageReader", "interlaced_frame": false, "pixel_ratio": {"den": 1, "num": 1}, "pixel_format": -1, "audio_bit_rate": 0, "sample_rate": 0, "channels": 0, "duration": 86400.0, "vcodec": "", "height": 3827, "video_timebase": {"den": 30, "num": 1}, "has_video": true, "top_field_first": true, "file_size": "104140324"}, "perspective_c2_y": {"Points": [{"co": {"X": 1.0, "Y": -1.0}, "interpolation": 2}]}, "has_video": {"Points": [{"co": {"X": 1.0, "Y": -1.0}, "interpolation": 2}]}, "effects": [], "title": "Title-03.svg", "perspective_c3_x": {"Points": [{"co": {"X": 1.0, "Y": -1.0}, "interpolation": 2}]}, "crop_y": {"Points": [{"co": {"X": 1.0, "Y": 0.0}, "interpolation": 2}]}}, "partial": false, "value": {"layer": 2, "image": "/home/milind/.openshot_qt/thumbnail/NXRCV0O7IK.png", "position": 21.12, "start": 0, "id": "XKF5M8RK48", "end": 10}}, {"type": "insert", "key": ["clips"], "old_values": [{"location_x": {"Points": [{"co": {"X": 1.0, "Y": 0.0}, "interpolation": 2}, {"handle_type": 0, "handle_right": {"X": 0.5, "Y": 0.0}, "handle_left": {"X": 0.5, "Y": 1.0}, "co": {"X": 1.0, "Y": 1.0}, "interpolation": 0}, {"handle_type": 0, "handle_right": {"X": 0.5, "Y": 0.0}, "handle_left": {"X": 0.5, "Y": 1.0}, "co": {"X": 25.0, "Y": 0.0}, "interpolation": 0}]}, "crop_height": {"Points": [{"co": {"X": 1.0, "Y": -1.0}, "interpolation": 2}]}, "wave_color": {"red": {"Points": [{"handle_type": 0, "handle_right": {"X": 0.5, "Y": 0.0}, "handle_left": {"X": 0.5, "Y": 1.0}, "co": {"X": 1.0, "Y": 0.0}, "interpolation": 0}]}, "alpha": {"Points": [{"handle_type": 0, "handle_right": {"X": 0.5, "Y": 0.0}, "handle_left": {"X": 0.5, "Y": 1.0}, "co": {"X": 1.0, "Y": 255.0}, "interpolation": 0}]}, "blue": {"Points": [{"handle_type": 0, "handle_right": {"X": 0.5, "Y": 0.0}, "handle_left": {"X": 0.5, "Y": 1.0}, "co": {"X": 1.0, "Y": 255.0}, "interpolation": 0}]}, "green": {"Points": [{"handle_type": 0, "handle_right": {"X": 0.5, "Y": 0.0}, "handle_left": {"X": 0.5, "Y": 1.0}, "co": {"X": 1.0, "Y": 123.0}, "interpolation": 0}]}}, "anchor": 0, "alpha": {"Points": [{"co": {"X": 1.0, "Y": 1.0}, "interpolation": 2}]}, "crop_y": {"Points": [{"co": {"X": 1.0, "Y": 0.0}, "interpolation": 2}]}, "file_id": "EYET6E4WCX", "has_audio": {"Points": [{"co": {"X": 1.0, "Y": -1.0}, "interpolation": 2}]}, "gravity": 4, "perspective_c4_y": {"Points": [{"co": {"X": 1.0, "Y": -1.0}, "interpolation": 2}]}, "time": {"Points": [{"co": {"X": 1.0, "Y": 1.0}, "interpolation": 2}]}, "scale_y": {"Points": [{"co": {"X": 1.0, "Y": 1.0}, "interpolation": 2}]}, "layer": 4, "rotation": {"Points": [{"co": {"X": 1.0, "Y": 0.0}, "interpolation": 2}]}, "position": 53.92, "start": 0, "has_video": {"Points": [{"co": {"X": 1.0, "Y": -1.0}, "interpolation": 2}]}, "shear_y": {"Points": [{"co": {"X": 1.0, "Y": 0.0}, "interpolation": 2}]}, "display": 0, "perspective_c2_x": {"Points": [{"co": {"X": 1.0, "Y": -1.0}, "interpolation": 2}]}, "end": 10, "reader": {"audio_stream_index": -1, "video_stream_index": -1, "path": "/home/milind/Data/Projects/ProgressCard/intro.png", "video_length": "2592000", "has_audio": false, "display_ratio": {"den": 169, "num": 661}, "video_bit_rate": 0, "audio_timebase": {"den": 1, "num": 1}, "vcodec": "", "video_timebase": {"den": 30, "num": 1}, "fps": {"den": 1, "num": 30}, "has_single_image": true, "acodec": "", "width": 661, "type": "QtImageReader", "interlaced_frame": false, "pixel_ratio": {"den": 1, "num": 1}, "audio_bit_rate": 0, "pixel_format": -1, "sample_rate": 0, "channels": 0, "duration": 86400.0, "channel_layout": 4, "height": 169, "has_video": true, "top_field_first": true, "file_size": "446836"}, "perspective_c3_x": {"Points": [{"co": {"X": 1.0, "Y": -1.0}, "interpolation": 2}]}, "volume": {"Points": [{"co": {"X": 1.0, "Y": 1.0}, "interpolation": 2}]}, "channel_filter": {"Points": [{"co": {"X": 1.0, "Y": -1.0}, "interpolation": 2}]}, "waveform": false, "perspective_c1_y": {"Points": [{"co": {"X": 1.0, "Y": -1.0}, "interpolation": 2}]}, "perspective_c3_y": {"Points": [{"co": {"X": 1.0, "Y": -1.0}, "interpolation": 2}]}, "location_y": {"Points": [{"co": {"X": 1.0, "Y": 0.0}, "interpolation": 2}, {"handle_type": 0, "handle_right": {"X": 0.5, "Y": 0.0}, "handle_left": {"X": 0.5, "Y": 1.0}, "co": {"X": 1.0, "Y": 0.0}, "interpolation": 0}, {"handle_type": 0, "handle_right": {"X": 0.5, "Y": 0.0}, "handle_left": {"X": 0.5, "Y": 1.0}, "co": {"X": 25.0, "Y": 0.0}, "interpolation": 0}]}, "perspective_c4_x": {"Points": [{"co": {"X": 1.0, "Y": -1.0}, "interpolation": 2}]}, "id": "ACC3WDPIBO", "duration": 86400.0, "crop_x": {"Points": [{"co": {"X": 1.0, "Y": 0.0}, "interpolation": 2}]}, "scale_x": {"Points": [{"co": {"X": 1.0, "Y": 1.0}, "interpolation": 2}]}, "image": "/home/milind/.openshot_qt/thumbnail/EYET6E4WCX.png", "shear_x": {"Points": [{"co": {"X": 1.0, "Y": 0.0}, "interpolation": 2}]}, "perspective_c1_x": {"Points": [{"co": {"X": 1.0, "Y": -1.0}, "interpolation": 2}]}, "perspective_c2_y": {"Points": [{"co": {"X": 1.0, "Y": -1.0}, "interpolation": 2}]}, "channel_mapping": {"Points": [{"co": {"X": 1.0, "Y": -1.0}, "interpolation": 2}]}, "effects": [], "title": "intro.png", "scale": 1, "crop_width": {"Points": [{"co": {"X": 1.0, "Y": -1.0}, "interpolation": 2}]}}, {"location_x": {"Points": [{"co": {"X": 1.0, "Y": 0.0}, "interpolation": 2}]}, "crop_height": {"Points": [{"co": {"X": 1.0, "Y": -1.0}, "interpolation": 2}]}, "wave_color": {"red": {"Points": [{"handle_type": 0, "handle_right": {"X": 0.5, "Y": 0.0}, "handle_left": {"X": 0.5, "Y": 1.0}, "co": {"X": 1.0, "Y": 0.0}, "interpolation": 0}]}, "alpha": {"Points": [{"handle_type": 0, "handle_right": {"X": 0.5, "Y": 0.0}, "handle_left": {"X": 0.5, "Y": 1.0}, "co": {"X": 1.0, "Y": 255.0}, "interpolation": 0}]}, "blue": {"Points": [{"handle_type": 0, "handle_right": {"X": 0.5, "Y": 0.0}, "handle_left": {"X": 0.5, "Y": 1.0}, "co": {"X": 1.0, "Y": 255.0}, "interpolation": 0}]}, "green": {"Points": [{"handle_type": 0, "handle_right": {"X": 0.5, "Y": 0.0}, "handle_left": {"X": 0.5, "Y": 1.0}, "co": {"X": 1.0, "Y": 123.0}, "interpolation": 0}]}}, "id": "2TGY3MFOSA", "anchor": 0, "alpha": {"Points": [{"co": {"X": 1.0, "Y": 1.0}, "interpolation": 2}]}, "perspective_c1_x": {"Points": [{"co": {"X": 1.0, "Y": -1.0}, "interpolation": 2}]}, "file_id": "P90UHAKE08", "has_audio": {"Points": [{"co": {"X": 1.0, "Y": -1.0}, "interpolation": 2}]}, "gravity": 4, "perspective_c4_y": {"Points": [{"co": {"X": 1.0, "Y": -1.0}, "interpolation": 2}]}, "time": {"Points": [{"co": {"X": 1.0, "Y": 1.0}, "interpolation": 2}]}, "perspective_c3_y": {"Points": [{"co": {"X": 1.0, "Y": -1.0}, "interpolation": 2}]}, "layer": 0, "rotation": {"Points": [{"co": {"X": 1.0, "Y": 0.0}, "interpolation": 2}]}, "position": 0.64, "start": 0, "shear_y": {"Points": [{"co": {"X": 1.0, "Y": 0.0}, "interpolation": 2}]}, "display": 0, "scale_y": {"Points": [{"co": {"X": 1.0, "Y": 1.0}, "interpolation": 2}]}, "perspective_c2_x": {"Points": [{"co": {"X": 1.0, "Y": -1.0}, "interpolation": 2}]}, "end": 10, "channel_mapping": {"Points": [{"co": {"X": 1.0, "Y": -1.0}, "interpolation": 2}]}, "volume": {"Points": [{"co": {"X": 1.0, "Y": 1.0}, "interpolation": 2}]}, "crop_width": {"Points": [{"co": {"X": 1.0, "Y": -1.0}, "interpolation": 2}]}, "waveform": false, "perspective_c1_y": {"Points": [{"co": {"X": 1.0, "Y": -1.0}, "interpolation": 2}]}, "channel_filter": {"Points": [{"co": {"X": 1.0, "Y": -1.0}, "interpolation": 2}]}, "location_y": {"Points": [{"co": {"X": 1.0, "Y": 0.0}, "interpolation": 2}]}, "perspective_c4_x": {"Points": [{"co": {"X": 1.0, "Y": -1.0}, "interpolation": 2}]}, "scale": 1, "duration": 86400.0, "crop_x": {"Points": [{"co": {"X": 1.0, "Y": 0.0}, "interpolation": 2}]}, "scale_x": {"Points": [{"co": {"X": 1.0, "Y": 1.0}, "interpolation": 2}]}, "image": "/home/milind/.openshot_qt/thumbnail/P90UHAKE08.png", "shear_x": {"Points": [{"co": {"X": 1.0, "Y": 0.0}, "interpolation": 2}]}, "reader": {"audio_stream_index": -1, "path": "/home/milind/Data/Projects/ProgressCard/Title-01.svg", "video_stream_index": -1, "video_length": "2592000", "has_audio": false, "display_ratio": {"den": 3827, "num": 6803}, "video_bit_rate": 0, "audio_timebase": {"den": 1, "num": 1}, "channel_layout": 4, "fps": {"den": 1, "num": 30}, "has_single_image": true, "acodec": "", "width": 6803, "type": "QtImageReader", "interlaced_frame": false, "pixel_ratio": {"den": 1, "num": 1}, "pixel_format": -1, "audio_bit_rate": 0, "sample_rate": 0, "channels": 0, "duration": 86400.0, "vcodec": "", "height": 3827, "video_timebase": {"den": 30, "num": 1}, "has_video": true, "top_field_first": true, "file_size": "104140324"}, "perspective_c2_y": {"Points": [{"co": {"X": 1.0, "Y": -1.0}, "interpolation": 2}]}, "has_video": {"Points": [{"co": {"X": 1.0, "Y": -1.0}, "interpolation": 2}]}, "effects": [], "title": "Title-01.svg", "perspective_c3_x": {"Points": [{"co": {"X": 1.0, "Y": -1.0}, "interpolation": 2}]}, "crop_y": {"Points": [{"co": {"X": 1.0, "Y": 0.0}, "interpolation": 2}]}}, {"location_x": {"Points": [{"co": {"X": 1.0, "Y": 0.0}, "interpolation": 2}]}, "crop_height": {"Points": [{"co": {"X": 1.0, "Y": -1.0}, "interpolation": 2}]}, "wave_color": {"red": {"Points": [{"handle_type": 0, "handle_right": {"X": 0.5, "Y": 0.0}, "handle_left": {"X": 0.5, "Y": 1.0}, "co": {"X": 1.0, "Y": 0.0}, "interpolation": 0}]}, "alpha": {"Points": [{"handle_type": 0, "handle_right": {"X": 0.5, "Y": 0.0}, "handle_left": {"X": 0.5, "Y": 1.0}, "co": {"X": 1.0, "Y": 255.0}, "interpolation": 0}]}, "blue": {"Points": [{"handle_type": 0, "handle_right": {"X": 0.5, "Y": 0.0}, "handle_left": {"X": 0.5, "Y": 1.0}, "co": {"X": 1.0, "Y": 255.0}, "interpolation": 0}]}, "green": {"Points": [{"handle_type": 0, "handle_right": {"X": 0.5, "Y": 0.0}, "handle_left": {"X": 0.5, "Y": 1.0}, "co": {"X": 1.0, "Y": 123.0}, "interpolation": 0}]}}, "id": "VPXH2YR7L9", "anchor": 0, "alpha": {"Points": [{"co": {"X": 1.0, "Y": 1.0}, "interpolation": 2}]}, "perspective_c1_x": {"Points": [{"co": {"X": 1.0, "Y": -1.0}, "interpolation": 2}]}, "file_id": "P90UHAKE08", "has_audio": {"Points": [{"co": {"X": 1.0, "Y": -1.0}, "interpolation": 2}]}, "gravity": 4, "perspective_c4_y": {"Points": [{"co": {"X": 1.0, "Y": -1.0}, "interpolation": 2}]}, "time": {"Points": [{"co": {"X": 1.0, "Y": 1.0}, "interpolation": 2}]}, "perspective_c3_y": {"Points": [{"co": {"X": 1.0, "Y": -1.0}, "interpolation": 2}]}, "layer": 0, "rotation": {"Points": [{"co": {"X": 1.0, "Y": 0.0}, "interpolation": 2}]}, "position": 10.64, "start": 0, "shear_y": {"Points": [{"co": {"X": 1.0, "Y": 0.0}, "interpolation": 2}]}, "display": 0, "scale_y": {"Points": [{"co": {"X": 1.0, "Y": 1.0}, "interpolation": 2}]}, "perspective_c2_x": {"Points": [{"co": {"X": 1.0, "Y": -1.0}, "interpolation": 2}]}, "end": 10, "channel_mapping": {"Points": [{"co": {"X": 1.0, "Y": -1.0}, "interpolation": 2}]}, "volume": {"Points": [{"co": {"X": 1.0, "Y": 1.0}, "interpolation": 2}]}, "crop_width": {"Points": [{"co": {"X": 1.0, "Y": -1.0}, "interpolation": 2}]}, "waveform": false, "perspective_c1_y": {"Points": [{"co": {"X": 1.0, "Y": -1.0}, "interpolation": 2}]}, "channel_filter": {"Points": [{"co": {"X": 1.0, "Y": -1.0}, "interpolation": 2}]}, "location_y": {"Points": [{"co": {"X": 1.0, "Y": 0.0}, "interpolation": 2}]}, "perspective_c4_x": {"Points": [{"co": {"X": 1.0, "Y": -1.0}, "interpolation": 2}]}, "scale": 1, "duration": 86400.0, "crop_x": {"Points": [{"co": {"X": 1.0, "Y": 0.0}, "interpolation": 2}]}, "scale_x": {"Points": [{"co": {"X": 1.0, "Y": 1.0}, "interpolation": 2}]}, "image": "/home/milind/.openshot_qt/thumbnail/P90UHAKE08.png", "shear_x": {"Points": [{"co": {"X": 1.0, "Y": 0.0}, "interpolation": 2}]}, "reader": {"audio_stream_index": -1, "path": "/home/milind/Data/Projects/ProgressCard/Title-01.svg", "video_stream_index": -1, "video_length": "2592000", "has_audio": false, "display_ratio": {"den": 3827, "num": 6803}, "video_bit_rate": 0, "audio_timebase": {"den": 1, "num": 1}, "channel_layout": 4, "fps": {"den": 1, "num": 30}, "has_single_image": true, "acodec": "", "width": 6803, "type": "QtImageReader", "interlaced_frame": false, "pixel_ratio": {"den": 1, "num": 1}, "pixel_format": -1, "audio_bit_rate": 0, "sample_rate": 0, "channels": 0, "duration": 86400.0, "vcodec": "", "height": 3827, "video_timebase": {"den": 30, "num": 1}, "has_video": true, "top_field_first": true, "file_size": "104140324"}, "perspective_c2_y": {"Points": [{"co": {"X": 1.0, "Y": -1.0}, "interpolation": 2}]}, "has_video": {"Points": [{"co": {"X": 1.0, "Y": -1.0}, "interpolation": 2}]}, "effects": [], "title": "Title-01.svg", "perspective_c3_x": {"Points": [{"co": {"X": 1.0, "Y": -1.0}, "interpolation": 2}]}, "crop_y": {"Points": [{"co": {"X": 1.0, "Y": 0.0}, "interpolation": 2}]}}, {"location_x": {"Points": [{"co": {"X": 1.0, "Y": 0.0}, "interpolation": 2}]}, "crop_height": {"Points": [{"co": {"X": 1.0, "Y": -1.0}, "interpolation": 2}]}, "wave_color": {"red": {"Points": [{"handle_type": 0, "handle_right": {"X": 0.5, "Y": 0.0}, "handle_left": {"X": 0.5, "Y": 1.0}, "co": {"X": 1.0, "Y": 0.0}, "interpolation": 0}]}, "alpha": {"Points": [{"handle_type": 0, "handle_right": {"X": 0.5, "Y": 0.0}, "handle_left": {"X": 0.5, "Y": 1.0}, "co": {"X": 1.0, "Y": 255.0}, "interpolation": 0}]}, "blue": {"Points": [{"handle_type": 0, "handle_right": {"X": 0.5, "Y": 0.0}, "handle_left": {"X": 0.5, "Y": 1.0}, "co": {"X": 1.0, "Y": 255.0}, "interpolation": 0}]}, "green": {"Points": [{"handle_type": 0, "handle_right": {"X": 0.5, "Y": 0.0}, "handle_left": {"X": 0.5, "Y": 1.0}, "co": {"X": 1.0, "Y": 123.0}, "interpolation": 0}]}}, "id": "O48FS1E8RG", "anchor": 0, "alpha": {"Points": [{"co": {"X": 1.0, "Y": 1.0}, "interpolation": 2}]}, "perspective_c1_x": {"Points": [{"co": {"X": 1.0, "Y": -1.0}, "interpolation": 2}]}, "file_id": "P90UHAKE08", "has_audio": {"Points": [{"co": {"X": 1.0, "Y": -1.0}, "interpolation": 2}]}, "gravity": 4, "perspective_c4_y": {"Points": [{"co": {"X": 1.0, "Y": -1.0}, "interpolation": 2}]}, "time": {"Points": [{"co": {"X": 1.0, "Y": 1.0}, "interpolation": 2}]}, "perspective_c3_y": {"Points": [{"co": {"X": 1.0, "Y": -1.0}, "interpolation": 2}]}, "layer": 0, "rotation": {"Points": [{"co": {"X": 1.0, "Y": 0.0}, "interpolation": 2}]}, "position": 20.64, "start": 0, "shear_y": {"Points": [{"co": {"X": 1.0, "Y": 0.0}, "interpolation": 2}]}, "display": 0, "scale_y": {"Points": [{"co": {"X": 1.0, "Y": 1.0}, "interpolation": 2}]}, "perspective_c2_x": {"Points": [{"co": {"X": 1.0, "Y": -1.0}, "interpolation": 2}]}, "end": 10, "channel_mapping": {"Points": [{"co": {"X": 1.0, "Y": -1.0}, "interpolation": 2}]}, "volume": {"Points": [{"co": {"X": 1.0, "Y": 1.0}, "interpolation": 2}]}, "crop_width": {"Points": [{"co": {"X": 1.0, "Y": -1.0}, "interpolation": 2}]}, "waveform": false, "perspective_c1_y": {"Points": [{"co": {"X": 1.0, "Y": -1.0}, "interpolation": 2}]}, "channel_filter": {"Points": [{"co": {"X": 1.0, "Y": -1.0}, "interpolation": 2}]}, "location_y": {"Points": [{"co": {"X": 1.0, "Y": 0.0}, "interpolation": 2}]}, "perspective_c4_x": {"Points": [{"co": {"X": 1.0, "Y": -1.0}, "interpolation": 2}]}, "scale": 1, "duration": 86400.0, "crop_x": {"Points": [{"co": {"X": 1.0, "Y": 0.0}, "interpolation": 2}]}, "scale_x": {"Points": [{"co": {"X": 1.0, "Y": 1.0}, "interpolation": 2}]}, "image": "/home/milind/.openshot_qt/thumbnail/P90UHAKE08.png", "shear_x": {"Points": [{"co": {"X": 1.0, "Y": 0.0}, "interpolation": 2}]}, "reader": {"audio_stream_index": -1, "path": "/home/milind/Data/Projects/ProgressCard/Title-01.svg", "video_stream_index": -1, "video_length": "2592000", "has_audio": false, "display_ratio": {"den": 3827, "num": 6803}, "video_bit_rate": 0, "audio_timebase": {"den": 1, "num": 1}, "channel_layout": 4, "fps": {"den": 1, "num": 30}, "has_single_image": true, "acodec": "", "width": 6803, "type": "QtImageReader", "interlaced_frame": false, "pixel_ratio": {"den": 1, "num": 1}, "pixel_format": -1, "audio_bit_rate": 0, "sample_rate": 0, "channels": 0, "duration": 86400.0, "vcodec": "", "height": 3827, "video_timebase": {"den": 30, "num": 1}, "has_video": true, "top_field_first": true, "file_size": "104140324"}, "perspective_c2_y": {"Points": [{"co": {"X": 1.0, "Y": -1.0}, "interpolation": 2}]}, "has_video": {"Points": [{"co": {"X": 1.0, "Y": -1.0}, "interpolation": 2}]}, "effects": [], "title": "Title-01.svg", "perspective_c3_x": {"Points": [{"co": {"X": 1.0, "Y": -1.0}, "interpolation": 2}]}, "crop_y": {"Points": [{"co": {"X": 1.0, "Y": 0.0}, "interpolation": 2}]}}, {"location_x": {"Points": [{"co": {"X": 1.0, "Y": 0.0}, "interpolation": 2}]}, "crop_height": {"Points": [{"co": {"X": 1.0, "Y": -1.0}, "interpolation": 2}]}, "wave_color": {"red": {"Points": [{"handle_type": 0, "handle_right": {"X": 0.5, "Y": 0.0}, "handle_left": {"X": 0.5, "Y": 1.0}, "co": {"X": 1.0, "Y": 0.0}, "interpolation": 0}]}, "alpha": {"Points": [{"handle_type": 0, "handle_right": {"X": 0.5, "Y": 0.0}, "handle_left": {"X": 0.5, "Y": 1.0}, "co": {"X": 1.0, "Y": 255.0}, "interpolation": 0}]}, "blue": {"Points": [{"handle_type": 0, "handle_right": {"X": 0.5, "Y": 0.0}, "handle_left": {"X": 0.5, "Y": 1.0}, "co": {"X": 1.0, "Y": 255.0}, "interpolation": 0}]}, "green": {"Points": [{"handle_type": 0, "handle_right": {"X": 0.5, "Y": 0.0}, "handle_left": {"X": 0.5, "Y": 1.0}, "co": {"X": 1.0, "Y": 123.0}, "interpolation": 0}]}}, "id": "7C0GMAN5HH", "anchor": 0, "alpha": {"Points": [{"co": {"X": 1.0, "Y": 1.0}, "interpolation": 2}]}, "perspective_c1_x": {"Points": [{"co": {"X": 1.0, "Y": -1.0}, "interpolation": 2}]}, "file_id": "0D6YTY7G58", "has_audio": {"Points": [{"co": {"X": 1.0, "Y": -1.0}, "interpolation": 2}]}, "gravity": 4, "perspective_c4_y": {"Points": [{"co": {"X": 1.0, "Y": -1.0}, "interpolation": 2}]}, "time": {"Points": [{"co": {"X": 1.0, "Y": 1.0}, "interpolation": 2}]}, "perspective_c3_y": {"Points": [{"co": {"X": 1.0, "Y": -1.0}, "interpolation": 2}]}, "layer": 1, "rotation": {"Points": [{"co": {"X": 1.0, "Y": 0.0}, "interpolation": 2}]}, "position": 10.88, "start": 0, "shear_y": {"Points": [{"co": {"X": 1.0, "Y": 0.0}, "interpolation": 2}]}, "display": 0, "scale_y": {"Points": [{"co": {"X": 1.0, "Y": 1.0}, "interpolation": 2}]}, "perspective_c2_x": {"Points": [{"co": {"X": 1.0, "Y": -1.0}, "interpolation": 2}]}, "end": 10, "channel_mapping": {"Points": [{"co": {"X": 1.0, "Y": -1.0}, "interpolation": 2}]}, "volume": {"Points": [{"co": {"X": 1.0, "Y": 1.0}, "interpolation": 2}]}, "crop_width": {"Points": [{"co": {"X": 1.0, "Y": -1.0}, "interpolation": 2}]}, "waveform": false, "perspective_c1_y": {"Points": [{"co": {"X": 1.0, "Y": -1.0}, "interpolation": 2}]}, "channel_filter": {"Points": [{"co": {"X": 1.0, "Y": -1.0}, "interpolation": 2}]}, "location_y": {"Points": [{"co": {"X": 1.0, "Y": 0.0}, "interpolation": 2}]}, "perspective_c4_x": {"Points": [{"co": {"X": 1.0, "Y": -1.0}, "interpolation": 2}]}, "scale": 1, "duration": 86400.0, "crop_x": {"Points": [{"co": {"X": 1.0, "Y": 0.0}, "interpolation": 2}]}, "scale_x": {"Points": [{"co": {"X": 1.0, "Y": 1.0}, "interpolation": 2}]}, "image": "/home/milind/.openshot_qt/thumbnail/0D6YTY7G58.png", "shear_x": {"Points": [{"co": {"X": 1.0, "Y": 0.0}, "interpolation": 2}]}, "reader": {"audio_stream_index": -1, "path": "/home/milind/Data/Projects/ProgressCard/Title-02.svg", "video_stream_index": -1, "video_length": "2592000", "has_audio": false, "display_ratio": {"den": 3827, "num": 6803}, "video_bit_rate": 0, "audio_timebase": {"den": 1, "num": 1}, "channel_layout": 4, "fps": {"den": 1, "num": 30}, "has_single_image": true, "acodec": "", "width": 6803, "type": "QtImageReader", "interlaced_frame": false, "pixel_ratio": {"den": 1, "num": 1}, "pixel_format": -1, "audio_bit_rate": 0, "sample_rate": 0, "channels": 0, "duration": 86400.0, "vcodec": "", "height": 3827, "video_timebase": {"den": 30, "num": 1}, "has_video": true, "top_field_first": true, "file_size": "104140324"}, "perspective_c2_y": {"Points": [{"co": {"X": 1.0, "Y": -1.0}, "interpolation": 2}]}, "has_video": {"Points": [{"co": {"X": 1.0, "Y": -1.0}, "interpolation": 2}]}, "effects": [], "title": "Title-02.svg", "perspective_c3_x": {"Points": [{"co": {"X": 1.0, "Y": -1.0}, "interpolation": 2}]}, "crop_y": {"Points": [{"co": {"X": 1.0, "Y": 0.0}, "interpolation": 2}]}}, {"location_x": {"Points": [{"co": {"X": 1.0, "Y": 0.0}, "interpolation": 2}]}, "crop_height": {"Points": [{"co": {"X": 1.0, "Y": -1.0}, "interpolation": 2}]}, "wave_color": {"red": {"Points": [{"handle_type": 0, "handle_right": {"X": 0.5, "Y": 0.0}, "handle_left": {"X": 0.5, "Y": 1.0}, "co": {"X": 1.0, "Y": 0.0}, "interpolation": 0}]}, "alpha": {"Points": [{"handle_type": 0, "handle_right": {"X": 0.5, "Y": 0.0}, "handle_left": {"X": 0.5, "Y": 1.0}, "co": {"X": 1.0, "Y": 255.0}, "interpolation": 0}]}, "blue": {"Points": [{"handle_type": 0, "handle_right": {"X": 0.5, "Y": 0.0}, "handle_left": {"X": 0.5, "Y": 1.0}, "co": {"X": 1.0, "Y": 255.0}, "interpolation": 0}]}, "green": {"Points": [{"handle_type": 0, "handle_right": {"X": 0.5, "Y": 0.0}, "handle_left": {"X": 0.5, "Y": 1.0}, "co": {"X": 1.0, "Y": 123.0}, "interpolation": 0}]}}, "id": "33BYMNG1XF", "anchor": 0, "alpha": {"Points": [{"co": {"X": 1.0, "Y": 1.0}, "interpolation": 2}]}, "perspective_c1_x": {"Points": [{"co": {"X": 1.0, "Y": -1.0}, "interpolation": 2}]}, "file_id": "0D6YTY7G58", "has_audio": {"Points": [{"co": {"X": 1.0, "Y": -1.0}, "interpolation": 2}]}, "gravity": 4, "perspective_c4_y": {"Points": [{"co": {"X": 1.0, "Y": -1.0}, "interpolation": 2}]}, "time": {"Points": [{"co": {"X": 1.0, "Y": 1.0}, "interpolation": 2}]}, "perspective_c3_y": {"Points": [{"co": {"X": 1.0, "Y": -1.0}, "interpolation": 2}]}, "layer": 1, "rotation": {"Points": [{"co": {"X": 1.0, "Y": 0.0}, "interpolation": 2}]}, "position": 20.880000000000006, "start": 0, "shear_y": {"Points": [{"co": {"X": 1.0, "Y": 0.0}, "interpolation": 2}]}, "display": 0, "scale_y": {"Points": [{"co": {"X": 1.0, "Y": 1.0}, "interpolation": 2}]}, "perspective_c2_x": {"Points": [{"co": {"X": 1.0, "Y": -1.0}, "interpolation": 2}]}, "end": 10, "channel_mapping": {"Points": [{"co": {"X": 1.0, "Y": -1.0}, "interpolation": 2}]}, "volume": {"Points": [{"co": {"X": 1.0, "Y": 1.0}, "interpolation": 2}]}, "crop_width": {"Points": [{"co": {"X": 1.0, "Y": -1.0}, "interpolation": 2}]}, "waveform": false, "perspective_c1_y": {"Points": [{"co": {"X": 1.0, "Y": -1.0}, "interpolation": 2}]}, "channel_filter": {"Points": [{"co": {"X": 1.0, "Y": -1.0}, "interpolation": 2}]}, "location_y": {"Points": [{"co": {"X": 1.0, "Y": 0.0}, "interpolation": 2}]}, "perspective_c4_x": {"Points": [{"co": {"X": 1.0, "Y": -1.0}, "interpolation": 2}]}, "scale": 1, "duration": 86400.0, "crop_x": {"Points": [{"co": {"X": 1.0, "Y": 0.0}, "interpolation": 2}]}, "scale_x": {"Points": [{"co": {"X": 1.0, "Y": 1.0}, "interpolation": 2}]}, "image": "/home/milind/.openshot_qt/thumbnail/0D6YTY7G58.png", "shear_x": {"Points": [{"co": {"X": 1.0, "Y": 0.0}, "interpolation": 2}]}, "reader": {"audio_stream_index": -1, "path": "/home/milind/Data/Projects/ProgressCard/Title-02.svg", "video_stream_index": -1, "video_length": "2592000", "has_audio": false, "display_ratio": {"den": 3827, "num": 6803}, "video_bit_rate": 0, "audio_timebase": {"den": 1, "num": 1}, "channel_layout": 4, "fps": {"den": 1, "num": 30}, "has_single_image": true, "acodec": "", "width": 6803, "type": "QtImageReader", "interlaced_frame": false, "pixel_ratio": {"den": 1, "num": 1}, "pixel_format": -1, "audio_bit_rate": 0, "sample_rate": 0, "channels": 0, "duration": 86400.0, "vcodec": "", "height": 3827, "video_timebase": {"den": 30, "num": 1}, "has_video": true, "top_field_first": true, "file_size": "104140324"}, "perspective_c2_y": {"Points": [{"co": {"X": 1.0, "Y": -1.0}, "interpolation": 2}]}, "has_video": {"Points": [{"co": {"X": 1.0, "Y": -1.0}, "interpolation": 2}]}, "effects": [], "title": "Title-02.svg", "perspective_c3_x": {"Points": [{"co": {"X": 1.0, "Y": -1.0}, "interpolation": 2}]}, "crop_y": {"Points": [{"co": {"X": 1.0, "Y": 0.0}, "interpolation": 2}]}}, {"location_x": {"Points": [{"co": {"X": 1.0, "Y": 0.0}, "interpolation": 2}]}, "crop_height": {"Points": [{"co": {"X": 1.0, "Y": -1.0}, "interpolation": 2}]}, "wave_color": {"red": {"Points": [{"handle_type": 0, "handle_right": {"X": 0.5, "Y": 0.0}, "handle_left": {"X": 0.5, "Y": 1.0}, "co": {"X": 1.0, "Y": 0.0}, "interpolation": 0}]}, "alpha": {"Points": [{"handle_type": 0, "handle_right": {"X": 0.5, "Y": 0.0}, "handle_left": {"X": 0.5, "Y": 1.0}, "co": {"X": 1.0, "Y": 255.0}, "interpolation": 0}]}, "blue": {"Points": [{"handle_type": 0, "handle_right": {"X": 0.5, "Y": 0.0}, "handle_left": {"X": 0.5, "Y": 1.0}, "co": {"X": 1.0, "Y": 255.0}, "interpolation": 0}]}, "green": {"Points": [{"handle_type": 0, "handle_right": {"X": 0.5, "Y": 0.0}, "handle_left": {"X": 0.5, "Y": 1.0}, "co": {"X": 1.0, "Y": 123.0}, "interpolation": 0}]}}, "id": "XKF5M8RK48", "anchor": 0, "alpha": {"Points": [{"co": {"X": 1.0, "Y": 1.0}, "interpolation": 2}]}, "perspective_c1_x": {"Points": [{"co": {"X": 1.0, "Y": -1.0}, "interpolation": 2}]}, "file_id": "NXRCV0O7IK", "has_audio": {"Points": [{"co": {"X": 1.0, "Y": -1.0}, "interpolation": 2}]}, "gravity": 4, "perspective_c4_y": {"Points": [{"co": {"X": 1.0, "Y": -1.0}, "interpolation": 2}]}, "time": {"Points": [{"co": {"X": 1.0, "Y": 1.0}, "interpolation": 2}]}, "perspective_c3_y": {"Points": [{"co": {"X": 1.0, "Y": -1.0}, "interpolation": 2}]}, "layer": 2, "rotation": {"Points": [{"co": {"X": 1.0, "Y": 0.0}, "interpolation": 2}]}, "position": 21.12, "start": 0, "shear_y": {"Points": [{"co": {"X": 1.0, "Y": 0.0}, "interpolation": 2}]}, "display": 0, "scale_y": {"Points": [{"co": {"X": 1.0, "Y": 1.0}, "interpolation": 2}]}, "perspective_c2_x": {"Points": [{"co": {"X": 1.0, "Y": -1.0}, "interpolation": 2}]}, "end": 10, "channel_mapping": {"Points": [{"co": {"X": 1.0, "Y": -1.0}, "interpolation": 2}]}, "volume": {"Points": [{"co": {"X": 1.0, "Y": 1.0}, "interpolation": 2}]}, "crop_width": {"Points": [{"co": {"X": 1.0, "Y": -1.0}, "interpolation": 2}]}, "waveform": false, "perspective_c1_y": {"Points": [{"co": {"X": 1.0, "Y": -1.0}, "interpolation": 2}]}, "channel_filter": {"Points": [{"co": {"X": 1.0, "Y": -1.0}, "interpolation": 2}]}, "location_y": {"Points": [{"co": {"X": 1.0, "Y": 0.0}, "interpolation": 2}]}, "perspective_c4_x": {"Points": [{"co": {"X": 1.0, "Y": -1.0}, "interpolation": 2}]}, "scale": 1, "duration": 86400.0, "crop_x": {"Points": [{"co": {"X": 1.0, "Y": 0.0}, "interpolation": 2}]}, "scale_x": {"Points": [{"co": {"X": 1.0, "Y": 1.0}, "interpolation": 2}]}, "image": "/home/milind/.openshot_qt/thumbnail/NXRCV0O7IK.png", "shear_x": {"Points": [{"co": {"X": 1.0, "Y": 0.0}, "interpolation": 2}]}, "reader": {"audio_stream_index": -1, "path": "/home/milind/Data/Projects/ProgressCard/Title-03.svg", "video_stream_index": -1, "video_length": "2592000", "has_audio": false, "display_ratio": {"den": 3827, "num": 6803}, "video_bit_rate": 0, "audio_timebase": {"den": 1, "num": 1}, "channel_layout": 4, "fps": {"den": 1, "num": 30}, "has_single_image": true, "acodec": "", "width": 6803, "type": "QtImageReader", "interlaced_frame": false, "pixel_ratio": {"den": 1, "num": 1}, "pixel_format": -1, "audio_bit_rate": 0, "sample_rate": 0, "channels": 0, "duration": 86400.0, "vcodec": "", "height": 3827, "video_timebase": {"den": 30, "num": 1}, "has_video": true, "top_field_first": true, "file_size": "104140324"}, "perspective_c2_y": {"Points": [{"co": {"X": 1.0, "Y": -1.0}, "interpolation": 2}]}, "has_video": {"Points": [{"co": {"X": 1.0, "Y": -1.0}, "interpolation": 2}]}, "effects": [], "title": "Title-03.svg", "perspective_c3_x": {"Points": [{"co": {"X": 1.0, "Y": -1.0}, "interpolation": 2}]}, "crop_y": {"Points": [{"co": {"X": 1.0, "Y": 0.0}, "interpolation": 2}]}}, {"location_x": {"Points": [{"co": {"X": 1.0, "Y": 0.0}, "interpolation": 2}]}, "crop_height": {"Points": [{"co": {"X": 1.0, "Y": -1.0}, "interpolation": 2}]}, "wave_color": {"red": {"Points": [{"handle_type": 0, "handle_right": {"X": 0.5, "Y": 0.0}, "handle_left": {"X": 0.5, "Y": 1.0}, "co": {"X": 1.0, "Y": 0.0}, "interpolation": 0}]}, "alpha": {"Points": [{"handle_type": 0, "handle_right": {"X": 0.5, "Y": 0.0}, "handle_left": {"X": 0.5, "Y": 1.0}, "co": {"X": 1.0, "Y": 255.0}, "interpolation": 0}]}, "blue": {"Points": [{"handle_type": 0, "handle_right": {"X": 0.5, "Y": 0.0}, "handle_left": {"X": 0.5, "Y": 1.0}, "co": {"X": 1.0, "Y": 255.0}, "interpolation": 0}]}, "green": {"Points": [{"handle_type": 0, "handle_right": {"X": 0.5, "Y": 0.0}, "handle_left": {"X": 0.5, "Y": 1.0}, "co": {"X": 1.0, "Y": 123.0}, "interpolation": 0}]}}, "id": "RKN119MZ6I", "anchor": 0, "alpha": {"Points": [{"co": {"X": 1.0, "Y": 1.0}, "interpolation": 2}]}, "perspective_c1_x": {"Points": [{"co": {"X": 1.0, "Y": -1.0}, "interpolation": 2}]}, "file_id": "0D6YTY7G58", "has_audio": {"Points": [{"co": {"X": 1.0, "Y": -1.0}, "interpolation": 2}]}, "gravity": 4, "perspective_c4_y": {"Points": [{"co": {"X": 1.0, "Y": -1.0}, "interpolation": 2}]}, "time": {"Points": [{"co": {"X": 1.0, "Y": 1.0}, "interpolation": 2}]}, "perspective_c3_y": {"Points": [{"co": {"X": 1.0, "Y": -1.0}, "interpolation": 2}]}, "layer": 1, "rotation": {"Points": [{"co": {"X": 1.0, "Y": 0.0}, "interpolation": 2}]}, "position": 30.56, "start": 0, "shear_y": {"Points": [{"co": {"X": 1.0, "Y": 0.0}, "interpolation": 2}]}, "display": 0, "scale_y": {"Points": [{"co": {"X": 1.0, "Y": 1.0}, "interpolation": 2}]}, "perspective_c2_x": {"Points": [{"co": {"X": 1.0, "Y": -1.0}, "interpolation": 2}]}, "end": 10, "channel_mapping": {"Points": [{"co": {"X": 1.0, "Y": -1.0}, "interpolation": 2}]}, "volume": {"Points": [{"co": {"X": 1.0, "Y": 1.0}, "interpolation": 2}]}, "crop_width": {"Points": [{"co": {"X": 1.0, "Y": -1.0}, "interpolation": 2}]}, "waveform": false, "perspective_c1_y": {"Points": [{"co": {"X": 1.0, "Y": -1.0}, "interpolation": 2}]}, "channel_filter": {"Points": [{"co": {"X": 1.0, "Y": -1.0}, "interpolation": 2}]}, "location_y": {"Points": [{"co": {"X": 1.0, "Y": 0.0}, "interpolation": 2}]}, "perspective_c4_x": {"Points": [{"co": {"X": 1.0, "Y": -1.0}, "interpolation": 2}]}, "scale": 1, "duration": 86400.0, "crop_x": {"Points": [{"co": {"X": 1.0, "Y": 0.0}, "interpolation": 2}]}, "scale_x": {"Points": [{"co": {"X": 1.0, "Y": 1.0}, "interpolation": 2}]}, "image": "/home/milind/.openshot_qt/thumbnail/0D6YTY7G58.png", "shear_x": {"Points": [{"co": {"X": 1.0, "Y": 0.0}, "interpolation": 2}]}, "reader": {"audio_stream_index": -1, "path": "/home/milind/Data/Projects/ProgressCard/Title-02.svg", "video_stream_index": -1, "video_length": "2592000", "has_audio": false, "display_ratio": {"den": 3827, "num": 6803}, "video_bit_rate": 0, "audio_timebase": {"den": 1, "num": 1}, "channel_layout": 4, "fps": {"den": 1, "num": 30}, "has_single_image": true, "acodec": "", "width": 6803, "type": "QtImageReader", "interlaced_frame": false, "pixel_ratio": {"den": 1, "num": 1}, "pixel_format": -1, "audio_bit_rate": 0, "sample_rate": 0, "channels": 0, "duration": 86400.0, "vcodec": "", "height": 3827, "video_timebase": {"den": 30, "num": 1}, "has_video": true, "top_field_first": true, "file_size": "104140324"}, "perspective_c2_y": {"Points": [{"co": {"X": 1.0, "Y": -1.0}, "interpolation": 2}]}, "has_video": {"Points": [{"co": {"X": 1.0, "Y": -1.0}, "interpolation": 2}]}, "effects": [], "title": "Title-02.svg", "perspective_c3_x": {"Points": [{"co": {"X": 1.0, "Y": -1.0}, "interpolation": 2}]}, "crop_y": {"Points": [{"co": {"X": 1.0, "Y": 0.0}, "interpolation": 2}]}}, {"location_x": {"Points": [{"co": {"X": 1.0, "Y": 0.0}, "interpolation": 2}]}, "crop_height": {"Points": [{"co": {"X": 1.0, "Y": -1.0}, "interpolation": 2}]}, "wave_color": {"red": {"Points": [{"handle_type": 0, "handle_right": {"X": 0.5, "Y": 0.0}, "handle_left": {"X": 0.5, "Y": 1.0}, "co": {"X": 1.0, "Y": 0.0}, "interpolation": 0}]}, "alpha": {"Points": [{"handle_type": 0, "handle_right": {"X": 0.5, "Y": 0.0}, "handle_left": {"X": 0.5, "Y": 1.0}, "co": {"X": 1.0, "Y": 255.0}, "interpolation": 0}]}, "blue": {"Points": [{"handle_type": 0, "handle_right": {"X": 0.5, "Y": 0.0}, "handle_left": {"X": 0.5, "Y": 1.0}, "co": {"X": 1.0, "Y": 255.0}, "interpolation": 0}]}, "green": {"Points": [{"handle_type": 0, "handle_right": {"X": 0.5, "Y": 0.0}, "handle_left": {"X": 0.5, "Y": 1.0}, "co": {"X": 1.0, "Y": 123.0}, "interpolation": 0}]}}, "id": "TTX9439VQS", "anchor": 0, "alpha": {"Points": [{"co": {"X": 1.0, "Y": 1.0}, "interpolation": 2}]}, "perspective_c1_x": {"Points": [{"co": {"X": 1.0, "Y": -1.0}, "interpolation": 2}]}, "file_id": "NXRCV0O7IK", "has_audio": {"Points": [{"co": {"X": 1.0, "Y": -1.0}, "interpolation": 2}]}, "gravity": 4, "perspective_c4_y": {"Points": [{"co": {"X": 1.0, "Y": -1.0}, "interpolation": 2}]}, "time": {"Points": [{"co": {"X": 1.0, "Y": 1.0}, "interpolation": 2}]}, "perspective_c3_y": {"Points": [{"co": {"X": 1.0, "Y": -1.0}, "interpolation": 2}]}, "layer": 3, "rotation": {"Points": [{"co": {"X": 1.0, "Y": 0.0}, "interpolation": 2}]}, "position": 30.56, "start": 0, "shear_y": {"Points": [{"co": {"X": 1.0, "Y": 0.0}, "interpolation": 2}]}, "display": 0, "scale_y": {"Points": [{"co": {"X": 1.0, "Y": 1.0}, "interpolation": 2}]}, "perspective_c2_x": {"Points": [{"co": {"X": 1.0, "Y": -1.0}, "interpolation": 2}]}, "end": 10, "channel_mapping": {"Points": [{"co": {"X": 1.0, "Y": -1.0}, "interpolation": 2}]}, "volume": {"Points": [{"co": {"X": 1.0, "Y": 1.0}, "interpolation": 2}]}, "crop_width": {"Points": [{"co": {"X": 1.0, "Y": -1.0}, "interpolation": 2}]}, "waveform": false, "perspective_c1_y": {"Points": [{"co": {"X": 1.0, "Y": -1.0}, "interpolation": 2}]}, "channel_filter": {"Points": [{"co": {"X": 1.0, "Y": -1.0}, "interpolation": 2}]}, "location_y": {"Points": [{"co": {"X": 1.0, "Y": 0.0}, "interpolation": 2}]}, "perspective_c4_x": {"Points": [{"co": {"X": 1.0, "Y": -1.0}, "interpolation": 2}]}, "scale": 1, "duration": 86400.0, "crop_x": {"Points": [{"co": {"X": 1.0, "Y": 0.0}, "interpolation": 2}]}, "scale_x": {"Points": [{"co": {"X": 1.0, "Y": 1.0}, "interpolation": 2}]}, "image": "/home/milind/.openshot_qt/thumbnail/NXRCV0O7IK.png", "shear_x": {"Points": [{"co": {"X": 1.0, "Y": 0.0}, "interpolation": 2}]}, "reader": {"audio_stream_index": -1, "path": "/home/milind/Data/Projects/ProgressCard/Title-03.svg", "video_stream_index": -1, "video_length": "2592000", "has_audio": false, "display_ratio": {"den": 3827, "num": 6803}, "video_bit_rate": 0, "audio_timebase": {"den": 1, "num": 1}, "channel_layout": 4, "fps": {"den": 1, "num": 30}, "has_single_image": true, "acodec": "", "width": 6803, "type": "QtImageReader", "interlaced_frame": false, "pixel_ratio": {"den": 1, "num": 1}, "pixel_format": -1, "audio_bit_rate": 0, "sample_rate": 0, "channels": 0, "duration": 86400.0, "vcodec": "", "height": 3827, "video_timebase": {"den": 30, "num": 1}, "has_video": true, "top_field_first": true, "file_size": "104140324"}, "perspective_c2_y": {"Points": [{"co": {"X": 1.0, "Y": -1.0}, "interpolation": 2}]}, "has_video": {"Points": [{"co": {"X": 1.0, "Y": -1.0}, "interpolation": 2}]}, "effects": [], "title": "Title-03.svg", "perspective_c3_x": {"Points": [{"co": {"X": 1.0, "Y": -1.0}, "interpolation": 2}]}, "crop_y": {"Points": [{"co": {"X": 1.0, "Y": 0.0}, "interpolation": 2}]}}, {"location_x": {"Points": [{"co": {"X": 1.0, "Y": 0.0}, "interpolation": 2}]}, "crop_height": {"Points": [{"co": {"X": 1.0, "Y": -1.0}, "interpolation": 2}]}, "wave_color": {"red": {"Points": [{"handle_type": 0, "handle_right": {"X": 0.5, "Y": 0.0}, "handle_left": {"X": 0.5, "Y": 1.0}, "co": {"X": 1.0, "Y": 0.0}, "interpolation": 0}]}, "alpha": {"Points": [{"handle_type": 0, "handle_right": {"X": 0.5, "Y": 0.0}, "handle_left": {"X": 0.5, "Y": 1.0}, "co": {"X": 1.0, "Y": 255.0}, "interpolation": 0}]}, "blue": {"Points": [{"handle_type": 0, "handle_right": {"X": 0.5, "Y": 0.0}, "handle_left": {"X": 0.5, "Y": 1.0}, "co": {"X": 1.0, "Y": 255.0}, "interpolation": 0}]}, "green": {"Points": [{"handle_type": 0, "handle_right": {"X": 0.5, "Y": 0.0}, "handle_left": {"X": 0.5, "Y": 1.0}, "co": {"X": 1.0, "Y": 123.0}, "interpolation": 0}]}}, "id": "QSXS4VKWAH", "anchor": 0, "alpha": {"Points": [{"co": {"X": 1.0, "Y": 1.0}, "interpolation": 2}]}, "perspective_c1_x": {"Points": [{"co": {"X": 1.0, "Y": -1.0}, "interpolation": 2}]}, "file_id": "P90UHAKE08", "has_audio": {"Points": [{"co": {"X": 1.0, "Y": -1.0}, "interpolation": 2}]}, "gravity": 4, "perspective_c4_y": {"Points": [{"co": {"X": 1.0, "Y": -1.0}, "interpolation": 2}]}, "time": {"Points": [{"co": {"X": 1.0, "Y": 1.0}, "interpolation": 2}]}, "perspective_c3_y": {"Points": [{"co": {"X": 1.0, "Y": -1.0}, "interpolation": 2}]}, "layer": 0, "rotation": {"Points": [{"co": {"X": 1.0, "Y": 0.0}, "interpolation": 2}]}, "position": 30.880000000000006, "start": 0, "shear_y": {"Points": [{"co": {"X": 1.0, "Y": 0.0}, "interpolation": 2}]}, "display": 0, "scale_y": {"Points": [{"co": {"X": 1.0, "Y": 1.0}, "interpolation": 2}]}, "perspective_c2_x": {"Points": [{"co": {"X": 1.0, "Y": -1.0}, "interpolation": 2}]}, "end": 10, "channel_mapping": {"Points": [{"co": {"X": 1.0, "Y": -1.0}, "interpolation": 2}]}, "volume": {"Points": [{"co": {"X": 1.0, "Y": 1.0}, "interpolation": 2}]}, "crop_width": {"Points": [{"co": {"X": 1.0, "Y": -1.0}, "interpolation": 2}]}, "waveform": false, "perspective_c1_y": {"Points": [{"co": {"X": 1.0, "Y": -1.0}, "interpolation": 2}]}, "channel_filter": {"Points": [{"co": {"X": 1.0, "Y": -1.0}, "interpolation": 2}]}, "location_y": {"Points": [{"co": {"X": 1.0, "Y": 0.0}, "interpolation": 2}]}, "perspective_c4_x": {"Points": [{"co": {"X": 1.0, "Y": -1.0}, "interpolation": 2}]}, "scale": 1, "duration": 86400.0, "crop_x": {"Points": [{"co": {"X": 1.0, "Y": 0.0}, "interpolation": 2}]}, "scale_x": {"Points": [{"co": {"X": 1.0, "Y": 1.0}, "interpolation": 2}]}, "image": "/home/milind/.openshot_qt/thumbnail/P90UHAKE08.png", "shear_x": {"Points": [{"co": {"X": 1.0, "Y": 0.0}, "interpolation": 2}]}, "reader": {"audio_stream_index": -1, "path": "/home/milind/Data/Projects/ProgressCard/Title-01.svg", "video_stream_index": -1, "video_length": "2592000", "has_audio": false, "display_ratio": {"den": 3827, "num": 6803}, "video_bit_rate": 0, "audio_timebase": {"den": 1, "num": 1}, "channel_layout": 4, "fps": {"den": 1, "num": 30}, "has_single_image": true, "acodec": "", "width": 6803, "type": "QtImageReader", "interlaced_frame": false, "pixel_ratio": {"den": 1, "num": 1}, "pixel_format": -1, "audio_bit_rate": 0, "sample_rate": 0, "channels": 0, "duration": 86400.0, "vcodec": "", "height": 3827, "video_timebase": {"den": 30, "num": 1}, "has_video": true, "top_field_first": true, "file_size": "104140324"}, "perspective_c2_y": {"Points": [{"co": {"X": 1.0, "Y": -1.0}, "interpolation": 2}]}, "has_video": {"Points": [{"co": {"X": 1.0, "Y": -1.0}, "interpolation": 2}]}, "effects": [], "title": "Title-01.svg", "perspective_c3_x": {"Points": [{"co": {"X": 1.0, "Y": -1.0}, "interpolation": 2}]}, "crop_y": {"Points": [{"co": {"X": 1.0, "Y": 0.0}, "interpolation": 2}]}}], "partial": false, "value": {"location_x": {"Points": [{"co": {"X": 1.0, "Y": 0.0}, "interpolation": 2}]}, "wave_color": {"red": {"Points": [{"handle_type": 0, "interpolation": 0, "handle_left": {"X": 0.5, "Y": 1.0}, "co": {"X": 1.0, "Y": 0.0}, "handle_right": {"X": 0.5, "Y": 0.0}}]}, "alpha": {"Points": [{"handle_type": 0, "interpolation": 0, "handle_left": {"X": 0.5, "Y": 1.0}, "co": {"X": 1.0, "Y": 255.0}, "handle_right": {"X": 0.5, "Y": 0.0}}]}, "blue": {"Points": [{"handle_type": 0, "interpolation": 0, "handle_left": {"X": 0.5, "Y": 1.0}, "co": {"X": 1.0, "Y": 255.0}, "handle_right": {"X": 0.5, "Y": 0.0}}]}, "green": {"Points": [{"handle_type": 0, "interpolation": 0, "handle_left": {"X": 0.5, "Y": 1.0}, "co": {"X": 1.0, "Y": 123.0}, "handle_right": {"X": 0.5, "Y": 0.0}}]}}, "anchor": 0, "alpha": {"Points": [{"co": {"X": 1.0, "Y": 1.0}, "interpolation": 2}]}, "perspective_c3_y": {"Points": [{"co": {"X": 1.0, "Y": -1.0}, "interpolation": 2}]}, "file_id": "NXRCV0O7IK", "has_audio": {"Points": [{"co": {"X": 1.0, "Y": -1.0}, "interpolation": 2}]}, "gravity": 4, "perspective_c4_y": {"Points": [{"co": {"X": 1.0, "Y": -1.0}, "interpolation": 2}]}, "time": {"Points": [{"co": {"X": 1.0, "Y": 1.0}, "interpolation": 2}]}, "image": "/home/milind/.openshot_qt/thumbnail/NXRCV0O7IK.png", "layer": 2, "rotation": {"Points": [{"co": {"X": 1.0, "Y": 0.0}, "interpolation": 2}]}, "position": 31.120000000000008, "start": 0, "display": 0, "shear_y": {"Points": [{"co": {"X": 1.0, "Y": 0.0}, "interpolation": 2}]}, "crop_width": {"Points": [{"co": {"X": 1.0, "Y": -1.0}, "interpolation": 2}]}, "reader": {"audio_stream_index": -1, "path": "/home/milind/Data/Projects/ProgressCard/Title-03.svg", "video_stream_index": -1, "video_length": "2592000", "has_audio": false, "display_ratio": {"den": 3827, "num": 6803}, "video_bit_rate": 0, "audio_timebase": {"den": 1, "num": 1}, "channel_layout": 4, "fps": {"den": 1, "num": 30}, "has_single_image": true, "acodec": "", "width": 6803, "type": "QtImageReader", "interlaced_frame": false, "pixel_ratio": {"den": 1, "num": 1}, "audio_bit_rate": 0, "pixel_format": -1, "sample_rate": 0, "channels": 0, "duration": 86400.0, "vcodec": "", "height": 3827, "video_timebase": {"den": 30, "num": 1}, "has_video": true, "top_field_first": true, "file_size": "104140324"}, "end": 10, "scale_x": {"Points": [{"co": {"X": 1.0, "Y": 1.0}, "interpolation": 2}]}, "channel_mapping": {"Points": [{"co": {"X": 1.0, "Y": -1.0}, "interpolation": 2}]}, "perspective_c2_x": {"Points": [{"co": {"X": 1.0, "Y": -1.0}, "interpolation": 2}]}, "volume": {"Points": [{"co": {"X": 1.0, "Y": 1.0}, "interpolation": 2}]}, "channel_filter": {"Points": [{"co": {"X": 1.0, "Y": -1.0}, "interpolation": 2}]}, "waveform": false, "perspective_c1_y": {"Points": [{"co": {"X": 1.0, "Y": -1.0}, "interpolation": 2}]}, "scale_y": {"Points": [{"co": {"X": 1.0, "Y": 1.0}, "interpolation": 2}]}, "location_y": {"Points": [{"co": {"X": 1.0, "Y": 0.0}, "interpolation": 2}]}, "perspective_c3_x": {"Points": [{"co": {"X": 1.0, "Y": -1.0}, "interpolation": 2}]}, "perspective_c4_x": {"Points": [{"co": {"X": 1.0, "Y": -1.0}, "interpolation": 2}]}, "scale": 1, "crop_x": {"Points": [{"co": {"X": 1.0, "Y": 0.0}, "interpolation": 2}]}, "perspective_c1_x": {"Points": [{"co": {"X": 1.0, "Y": -1.0}, "interpolation": 2}]}, "duration": 86400.0, "shear_x": {"Points": [{"co": {"X": 1.0, "Y": 0.0}, "interpolation": 2}]}, "perspective_c2_y": {"Points": [{"co": {"X": 1.0, "Y": -1.0}, "interpolation": 2}]}, "effects": [], "crop_height": {"Points": [{"co": {"X": 1.0, "Y": -1.0}, "interpolation": 2}]}, "has_video": {"Points": [{"co": {"X": 1.0, "Y": -1.0}, "interpolation": 2}]}, "title": "Title-03.svg", "id": "GX63KBSN8E", "crop_y": {"Points": [{"co": {"X": 1.0, "Y": 0.0}, "interpolation": 2}]}}}, {"type": "update", "key": ["clips", {"id": "GX63KBSN8E"}], "old_values": {"anchor": 0, "location_x": {"Points": [{"co": {"X": 1.0, "Y": 0.0}, "interpolation": 2}]}, "crop_height": {"Points": [{"co": {"X": 1.0, "Y": -1.0}, "interpolation": 2}]}, "wave_color": {"red": {"Points": [{"handle_type": 0, "handle_right": {"X": 0.5, "Y": 0.0}, "handle_left": {"X": 0.5, "Y": 1.0}, "co": {"X": 1.0, "Y": 0.0}, "interpolation": 0}]}, "alpha": {"Points": [{"handle_type": 0, "handle_right": {"X": 0.5, "Y": 0.0}, "handle_left": {"X": 0.5, "Y": 1.0}, "co": {"X": 1.0, "Y": 255.0}, "interpolation": 0}]}, "blue": {"Points": [{"handle_type": 0, "handle_right": {"X": 0.5, "Y": 0.0}, "handle_left": {"X": 0.5, "Y": 1.0}, "co": {"X": 1.0, "Y": 255.0}, "interpolation": 0}]}, "green": {"Points": [{"handle_type": 0, "handle_right": {"X": 0.5, "Y": 0.0}, "handle_left": {"X": 0.5, "Y": 1.0}, "co": {"X": 1.0, "Y": 123.0}, "interpolation": 0}]}}, "perspective_c1_x": {"Points": [{"co": {"X": 1.0, "Y": -1.0}, "interpolation": 2}]}, "alpha": {"Points": [{"co": {"X": 1.0, "Y": 1.0}, "interpolation": 2}]}, "file_id": "NXRCV0O7IK", "has_audio": {"Points": [{"co": {"X": 1.0, "Y": -1.0}, "interpolation": 2}]}, "gravity": 4, "perspective_c4_y": {"Points": [{"co": {"X": 1.0, "Y": -1.0}, "interpolation": 2}]}, "time": {"Points": [{"co": {"X": 1.0, "Y": 1.0}, "interpolation": 2}]}, "scale_y": {"Points": [{"co": {"X": 1.0, "Y": 1.0}, "interpolation": 2}]}, "layer": 3, "rotation": {"Points": [{"co": {"X": 1.0, "Y": 0.0}, "interpolation": 2}]}, "position": 41.44, "start": 0.0, "shear_y": {"Points": [{"co": {"X": 1.0, "Y": 0.0}, "interpolation": 2}]}, "display": 0, "image": "/home/milind/.openshot_qt/thumbnail/NXRCV0O7IK.png", "perspective_c2_x": {"Points": [{"co": {"X": 1.0, "Y": -1.0}, "interpolation": 2}]}, "end": 10.0, "channel_mapping": {"Points": [{"co": {"X": 1.0, "Y": -1.0}, "interpolation": 2}]}, "scale": 1, "volume": {"Points": [{"co": {"X": 1.0, "Y": 1.0}, "interpolation": 2}]}, "crop_width": {"Points": [{"co": {"X": 1.0, "Y": -1.0}, "interpolation": 2}]}, "waveform": false, "perspective_c1_y": {"Points": [{"co": {"X": 1.0, "Y": -1.0}, "interpolation": 2}]}, "perspective_c3_y": {"Points": [{"co": {"X": 1.0, "Y": -1.0}, "interpolation": 2}]}, "location_y": {"Points": [{"co": {"X": 1.0, "Y": 0.0}, "interpolation": 2}]}, "perspective_c3_x": {"Points": [{"co": {"X": 1.0, "Y": -1.0}, "interpolation": 2}]}, "perspective_c4_x": {"Points": [{"co": {"X": 1.0, "Y": -1.0}, "interpolation": 2}]}, "shear_x": {"Points": [{"co": {"X": 1.0, "Y": 0.0}, "interpolation": 2}]}, "duration": 86400.0, "crop_x": {"Points": [{"co": {"X": 1.0, "Y": 0.0}, "interpolation": 2}]}, "scale_x": {"Points": [{"co": {"X": 1.0, "Y": 1.0}, "interpolation": 2}]}, "crop_y": {"Points": [{"co": {"X": 1.0, "Y": 0.0}, "interpolation": 2}]}, "reader": {"audio_stream_index": -1, "path": "/home/milind/Data/Projects/ProgressCard/Title-03.svg", "video_stream_index": -1, "video_length": "2592000", "has_audio": false, "display_ratio": {"den": 3827, "num": 6803}, "video_bit_rate": 0, "audio_timebase": {"den": 1, "num": 1}, "channel_layout": 4, "fps": {"den": 1, "num": 30}, "has_single_image": true, "acodec": "", "width": 6803, "type": "QtImageReader", "interlaced_frame": false, "pixel_ratio": {"den": 1, "num": 1}, "pixel_format": -1, "audio_bit_rate": 0, "sample_rate": 0, "channels": 0, "duration": 86400.0, "vcodec": "", "height": 3827, "video_timebase": {"den": 30, "num": 1}, "has_video": true, "top_field_first": true, "file_size": "104140324"}, "perspective_c2_y": {"Points": [{"co": {"X": 1.0, "Y": -1.0}, "interpolation": 2}]}, "has_video": {"Points": [{"co": {"X": 1.0, "Y": -1.0}, "interpolation": 2}]}, "effects": [], "title": "Title-03.svg", "id": "GX63KBSN8E", "channel_filter": {"Points": [{"co": {"X": 1.0, "Y": -1.0}, "interpolation": 2}]}}, "partial": false, "value": {"layer": 2, "image": "/home/milind/.openshot_qt/thumbnail/NXRCV0O7IK.png", "position": 31.120000000000008, "start": 0, "id": "GX63KBSN8E", "end": 10}}, {"type": "delete", "key": ["clips", {"id": "TTX9439VQS"}], "old_values": {"location_x": {"Points": [{"co": {"X": 1.0, "Y": 0.0}, "interpolation": 2}]}, "crop_height": {"Points": [{"co": {"X": 1.0, "Y": -1.0}, "interpolation": 2}]}, "wave_color": {"red": {"Points": [{"handle_type": 0, "handle_right": {"X": 0.5, "Y": 0.0}, "handle_left": {"X": 0.5, "Y": 1.0}, "co": {"X": 1.0, "Y": 0.0}, "interpolation": 0}]}, "alpha": {"Points": [{"handle_type": 0, "handle_right": {"X": 0.5, "Y": 0.0}, "handle_left": {"X": 0.5, "Y": 1.0}, "co": {"X": 1.0, "Y": 255.0}, "interpolation": 0}]}, "blue": {"Points": [{"handle_type": 0, "handle_right": {"X": 0.5, "Y": 0.0}, "handle_left": {"X": 0.5, "Y": 1.0}, "co": {"X": 1.0, "Y": 255.0}, "interpolation": 0}]}, "green": {"Points": [{"handle_type": 0, "handle_right": {"X": 0.5, "Y": 0.0}, "handle_left": {"X": 0.5, "Y": 1.0}, "co": {"X": 1.0, "Y": 123.0}, "interpolation": 0}]}}, "id": "TTX9439VQS", "anchor": 0, "alpha": {"Points": [{"co": {"X": 1.0, "Y": 1.0}, "interpolation": 2}]}, "perspective_c1_x": {"Points": [{"co": {"X": 1.0, "Y": -1.0}, "interpolation": 2}]}, "file_id": "NXRCV0O7IK", "has_audio": {"Points": [{"co": {"X": 1.0, "Y": -1.0}, "interpolation": 2}]}, "gravity": 4, "perspective_c4_y": {"Points": [{"co": {"X": 1.0, "Y": -1.0}, "interpolation": 2}]}, "time": {"Points": [{"co": {"X": 1.0, "Y": 1.0}, "interpolation": 2}]}, "perspective_c3_y": {"Points": [{"co": {"X": 1.0, "Y": -1.0}, "interpolation": 2}]}, "layer": 3, "rotation": {"Points": [{"co": {"X": 1.0, "Y": 0.0}, "interpolation": 2}]}, "position": 30.56, "start": 0, "shear_y": {"Points": [{"co": {"X": 1.0, "Y": 0.0}, "interpolation": 2}]}, "display": 0, "scale_y": {"Points": [{"co": {"X": 1.0, "Y": 1.0}, "interpolation": 2}]}, "perspective_c2_x": {"Points": [{"co": {"X": 1.0, "Y": -1.0}, "interpolation": 2}]}, "end": 10, "channel_mapping": {"Points": [{"co": {"X": 1.0, "Y": -1.0}, "interpolation": 2}]}, "volume": {"Points": [{"co": {"X": 1.0, "Y": 1.0}, "interpolation": 2}]}, "crop_width": {"Points": [{"co": {"X": 1.0, "Y": -1.0}, "interpolation": 2}]}, "waveform": false, "perspective_c1_y": {"Points": [{"co": {"X": 1.0, "Y": -1.0}, "interpolation": 2}]}, "channel_filter": {"Points": [{"co": {"X": 1.0, "Y": -1.0}, "interpolation": 2}]}, "location_y": {"Points": [{"co": {"X": 1.0, "Y": 0.0}, "interpolation": 2}]}, "perspective_c4_x": {"Points": [{"co": {"X": 1.0, "Y": -1.0}, "interpolation": 2}]}, "scale": 1, "duration": 86400.0, "crop_x": {"Points": [{"co": {"X": 1.0, "Y": 0.0}, "interpolation": 2}]}, "scale_x": {"Points": [{"co": {"X": 1.0, "Y": 1.0}, "interpolation": 2}]}, "image": "/home/milind/.openshot_qt/thumbnail/NXRCV0O7IK.png", "shear_x": {"Points": [{"co": {"X": 1.0, "Y": 0.0}, "interpolation": 2}]}, "reader": {"audio_stream_index": -1, "path": "/home/milind/Data/Projects/ProgressCard/Title-03.svg", "video_stream_index": -1, "video_length": "2592000", "has_audio": false, "display_ratio": {"den": 3827, "num": 6803}, "video_bit_rate": 0, "audio_timebase": {"den": 1, "num": 1}, "channel_layout": 4, "fps": {"den": 1, "num": 30}, "has_single_image": true, "acodec": "", "width": 6803, "type": "QtImageReader", "interlaced_frame": false, "pixel_ratio": {"den": 1, "num": 1}, "pixel_format": -1, "audio_bit_rate": 0, "sample_rate": 0, "channels": 0, "duration": 86400.0, "vcodec": "", "height": 3827, "video_timebase": {"den": 30, "num": 1}, "has_video": true, "top_field_first": true, "file_size": "104140324"}, "perspective_c2_y": {"Points": [{"co": {"X": 1.0, "Y": -1.0}, "interpolation": 2}]}, "has_video": {"Points": [{"co": {"X": 1.0, "Y": -1.0}, "interpolation": 2}]}, "effects": [], "title": "Title-03.svg", "perspective_c3_x": {"Points": [{"co": {"X": 1.0, "Y": -1.0}, "interpolation": 2}]}, "crop_y": {"Points": [{"co": {"X": 1.0, "Y": 0.0}, "interpolation": 2}]}}, "partial": false, "value": null}, {"type": "insert", "key": ["clips"], "old_values": [{"location_x": {"Points": [{"co": {"X": 1.0, "Y": 0.0}, "interpolation": 2}, {"handle_type": 0, "handle_right": {"X": 0.5, "Y": 0.0}, "handle_left": {"X": 0.5, "Y": 1.0}, "co": {"X": 1.0, "Y": 1.0}, "interpolation": 0}, {"handle_type": 0, "handle_right": {"X": 0.5, "Y": 0.0}, "handle_left": {"X": 0.5, "Y": 1.0}, "co": {"X": 25.0, "Y": 0.0}, "interpolation": 0}]}, "crop_height": {"Points": [{"co": {"X": 1.0, "Y": -1.0}, "interpolation": 2}]}, "wave_color": {"red": {"Points": [{"handle_type": 0, "handle_right": {"X": 0.5, "Y": 0.0}, "handle_left": {"X": 0.5, "Y": 1.0}, "co": {"X": 1.0, "Y": 0.0}, "interpolation": 0}]}, "alpha": {"Points": [{"handle_type": 0, "handle_right": {"X": 0.5, "Y": 0.0}, "handle_left": {"X": 0.5, "Y": 1.0}, "co": {"X": 1.0, "Y": 255.0}, "interpolation": 0}]}, "blue": {"Points": [{"handle_type": 0, "handle_right": {"X": 0.5, "Y": 0.0}, "handle_left": {"X": 0.5, "Y": 1.0}, "co": {"X": 1.0, "Y": 255.0}, "interpolation": 0}]}, "green": {"Points": [{"handle_type": 0, "handle_right": {"X": 0.5, "Y": 0.0}, "handle_left": {"X": 0.5, "Y": 1.0}, "co": {"X": 1.0, "Y": 123.0}, "interpolation": 0}]}}, "anchor": 0, "alpha": {"Points": [{"co": {"X": 1.0, "Y": 1.0}, "interpolation": 2}]}, "crop_y": {"Points": [{"co": {"X": 1.0, "Y": 0.0}, "interpolation": 2}]}, "file_id": "EYET6E4WCX", "has_audio": {"Points": [{"co": {"X": 1.0, "Y": -1.0}, "interpolation": 2}]}, "gravity": 4, "perspective_c4_y": {"Points": [{"co": {"X": 1.0, "Y": -1.0}, "interpolation": 2}]}, "time": {"Points": [{"co": {"X": 1.0, "Y": 1.0}, "interpolation": 2}]}, "scale_y": {"Points": [{"co": {"X": 1.0, "Y": 1.0}, "interpolation": 2}]}, "layer": 4, "rotation": {"Points": [{"co": {"X": 1.0, "Y": 0.0}, "interpolation": 2}]}, "position": 53.92, "start": 0, "has_video": {"Points": [{"co": {"X": 1.0, "Y": -1.0}, "interpolation": 2}]}, "shear_y": {"Points": [{"co": {"X": 1.0, "Y": 0.0}, "interpolation": 2}]}, "display": 0, "perspective_c2_x": {"Points": [{"co": {"X": 1.0, "Y": -1.0}, "interpolation": 2}]}, "end": 10, "reader": {"audio_stream_index": -1, "video_stream_index": -1, "path": "/home/milind/Data/Projects/ProgressCard/intro.png", "video_length": "2592000", "has_audio": false, "display_ratio": {"den": 169, "num": 661}, "video_bit_rate": 0, "audio_timebase": {"den": 1, "num": 1}, "vcodec": "", "video_timebase": {"den": 30, "num": 1}, "fps": {"den": 1, "num": 30}, "has_single_image": true, "acodec": "", "width": 661, "type": "QtImageReader", "interlaced_frame": false, "pixel_ratio": {"den": 1, "num": 1}, "audio_bit_rate": 0, "pixel_format": -1, "sample_rate": 0, "channels": 0, "duration": 86400.0, "channel_layout": 4, "height": 169, "has_video": true, "top_field_first": true, "file_size": "446836"}, "perspective_c3_x": {"Points": [{"co": {"X": 1.0, "Y": -1.0}, "interpolation": 2}]}, "volume": {"Points": [{"co": {"X": 1.0, "Y": 1.0}, "interpolation": 2}]}, "channel_filter": {"Points": [{"co": {"X": 1.0, "Y": -1.0}, "interpolation": 2}]}, "waveform": false, "perspective_c1_y": {"Points": [{"co": {"X": 1.0, "Y": -1.0}, "interpolation": 2}]}, "perspective_c3_y": {"Points": [{"co": {"X": 1.0, "Y": -1.0}, "interpolation": 2}]}, "location_y": {"Points": [{"co": {"X": 1.0, "Y": 0.0}, "interpolation": 2}, {"handle_type": 0, "handle_right": {"X": 0.5, "Y": 0.0}, "handle_left": {"X": 0.5, "Y": 1.0}, "co": {"X": 1.0, "Y": 0.0}, "interpolation": 0}, {"handle_type": 0, "handle_right": {"X": 0.5, "Y": 0.0}, "handle_left": {"X": 0.5, "Y": 1.0}, "co": {"X": 25.0, "Y": 0.0}, "interpolation": 0}]}, "perspective_c4_x": {"Points": [{"co": {"X": 1.0, "Y": -1.0}, "interpolation": 2}]}, "id": "ACC3WDPIBO", "duration": 86400.0, "crop_x": {"Points": [{"co": {"X": 1.0, "Y": 0.0}, "interpolation": 2}]}, "scale_x": {"Points": [{"co": {"X": 1.0, "Y": 1.0}, "interpolation": 2}]}, "image": "/home/milind/.openshot_qt/thumbnail/EYET6E4WCX.png", "shear_x": {"Points": [{"co": {"X": 1.0, "Y": 0.0}, "interpolation": 2}]}, "perspective_c1_x": {"Points": [{"co": {"X": 1.0, "Y": -1.0}, "interpolation": 2}]}, "perspective_c2_y": {"Points": [{"co": {"X": 1.0, "Y": -1.0}, "interpolation": 2}]}, "channel_mapping": {"Points": [{"co": {"X": 1.0, "Y": -1.0}, "interpolation": 2}]}, "effects": [], "title": "intro.png", "scale": 1, "crop_width": {"Points": [{"co": {"X": 1.0, "Y": -1.0}, "interpolation": 2}]}}, {"location_x": {"Points": [{"co": {"X": 1.0, "Y": 0.0}, "interpolation": 2}]}, "crop_height": {"Points": [{"co": {"X": 1.0, "Y": -1.0}, "interpolation": 2}]}, "wave_color": {"red": {"Points": [{"handle_type": 0, "handle_right": {"X": 0.5, "Y": 0.0}, "handle_left": {"X": 0.5, "Y": 1.0}, "co": {"X": 1.0, "Y": 0.0}, "interpolation": 0}]}, "alpha": {"Points": [{"handle_type": 0, "handle_right": {"X": 0.5, "Y": 0.0}, "handle_left": {"X": 0.5, "Y": 1.0}, "co": {"X": 1.0, "Y": 255.0}, "interpolation": 0}]}, "blue": {"Points": [{"handle_type": 0, "handle_right": {"X": 0.5, "Y": 0.0}, "handle_left": {"X": 0.5, "Y": 1.0}, "co": {"X": 1.0, "Y": 255.0}, "interpolation": 0}]}, "green": {"Points": [{"handle_type": 0, "handle_right": {"X": 0.5, "Y": 0.0}, "handle_left": {"X": 0.5, "Y": 1.0}, "co": {"X": 1.0, "Y": 123.0}, "interpolation": 0}]}}, "id": "2TGY3MFOSA", "anchor": 0, "alpha": {"Points": [{"co": {"X": 1.0, "Y": 1.0}, "interpolation": 2}]}, "perspective_c1_x": {"Points": [{"co": {"X": 1.0, "Y": -1.0}, "interpolation": 2}]}, "file_id": "P90UHAKE08", "has_audio": {"Points": [{"co": {"X": 1.0, "Y": -1.0}, "interpolation": 2}]}, "gravity": 4, "perspective_c4_y": {"Points": [{"co": {"X": 1.0, "Y": -1.0}, "interpolation": 2}]}, "time": {"Points": [{"co": {"X": 1.0, "Y": 1.0}, "interpolation": 2}]}, "perspective_c3_y": {"Points": [{"co": {"X": 1.0, "Y": -1.0}, "interpolation": 2}]}, "layer": 0, "rotation": {"Points": [{"co": {"X": 1.0, "Y": 0.0}, "interpolation": 2}]}, "position": 0.64, "start": 0, "shear_y": {"Points": [{"co": {"X": 1.0, "Y": 0.0}, "interpolation": 2}]}, "display": 0, "scale_y": {"Points": [{"co": {"X": 1.0, "Y": 1.0}, "interpolation": 2}]}, "perspective_c2_x": {"Points": [{"co": {"X": 1.0, "Y": -1.0}, "interpolation": 2}]}, "end": 10, "channel_mapping": {"Points": [{"co": {"X": 1.0, "Y": -1.0}, "interpolation": 2}]}, "volume": {"Points": [{"co": {"X": 1.0, "Y": 1.0}, "interpolation": 2}]}, "crop_width": {"Points": [{"co": {"X": 1.0, "Y": -1.0}, "interpolation": 2}]}, "waveform": false, "perspective_c1_y": {"Points": [{"co": {"X": 1.0, "Y": -1.0}, "interpolation": 2}]}, "channel_filter": {"Points": [{"co": {"X": 1.0, "Y": -1.0}, "interpolation": 2}]}, "location_y": {"Points": [{"co": {"X": 1.0, "Y": 0.0}, "interpolation": 2}]}, "perspective_c4_x": {"Points": [{"co": {"X": 1.0, "Y": -1.0}, "interpolation": 2}]}, "scale": 1, "duration": 86400.0, "crop_x": {"Points": [{"co": {"X": 1.0, "Y": 0.0}, "interpolation": 2}]}, "scale_x": {"Points": [{"co": {"X": 1.0, "Y": 1.0}, "interpolation": 2}]}, "image": "/home/milind/.openshot_qt/thumbnail/P90UHAKE08.png", "shear_x": {"Points": [{"co": {"X": 1.0, "Y": 0.0}, "interpolation": 2}]}, "reader": {"audio_stream_index": -1, "path": "/home/milind/Data/Projects/ProgressCard/Title-01.svg", "video_stream_index": -1, "video_length": "2592000", "has_audio": false, "display_ratio": {"den": 3827, "num": 6803}, "video_bit_rate": 0, "audio_timebase": {"den": 1, "num": 1}, "channel_layout": 4, "fps": {"den": 1, "num": 30}, "has_single_image": true, "acodec": "", "width": 6803, "type": "QtImageReader", "interlaced_frame": false, "pixel_ratio": {"den": 1, "num": 1}, "pixel_format": -1, "audio_bit_rate": 0, "sample_rate": 0, "channels": 0, "duration": 86400.0, "vcodec": "", "height": 3827, "video_timebase": {"den": 30, "num": 1}, "has_video": true, "top_field_first": true, "file_size": "104140324"}, "perspective_c2_y": {"Points": [{"co": {"X": 1.0, "Y": -1.0}, "interpolation": 2}]}, "has_video": {"Points": [{"co": {"X": 1.0, "Y": -1.0}, "interpolation": 2}]}, "effects": [], "title": "Title-01.svg", "perspective_c3_x": {"Points": [{"co": {"X": 1.0, "Y": -1.0}, "interpolation": 2}]}, "crop_y": {"Points": [{"co": {"X": 1.0, "Y": 0.0}, "interpolation": 2}]}}, {"location_x": {"Points": [{"co": {"X": 1.0, "Y": 0.0}, "interpolation": 2}]}, "crop_height": {"Points": [{"co": {"X": 1.0, "Y": -1.0}, "interpolation": 2}]}, "wave_color": {"red": {"Points": [{"handle_type": 0, "handle_right": {"X": 0.5, "Y": 0.0}, "handle_left": {"X": 0.5, "Y": 1.0}, "co": {"X": 1.0, "Y": 0.0}, "interpolation": 0}]}, "alpha": {"Points": [{"handle_type": 0, "handle_right": {"X": 0.5, "Y": 0.0}, "handle_left": {"X": 0.5, "Y": 1.0}, "co": {"X": 1.0, "Y": 255.0}, "interpolation": 0}]}, "blue": {"Points": [{"handle_type": 0, "handle_right": {"X": 0.5, "Y": 0.0}, "handle_left": {"X": 0.5, "Y": 1.0}, "co": {"X": 1.0, "Y": 255.0}, "interpolation": 0}]}, "green": {"Points": [{"handle_type": 0, "handle_right": {"X": 0.5, "Y": 0.0}, "handle_left": {"X": 0.5, "Y": 1.0}, "co": {"X": 1.0, "Y": 123.0}, "interpolation": 0}]}}, "id": "VPXH2YR7L9", "anchor": 0, "alpha": {"Points": [{"co": {"X": 1.0, "Y": 1.0}, "interpolation": 2}]}, "perspective_c1_x": {"Points": [{"co": {"X": 1.0, "Y": -1.0}, "interpolation": 2}]}, "file_id": "P90UHAKE08", "has_audio": {"Points": [{"co": {"X": 1.0, "Y": -1.0}, "interpolation": 2}]}, "gravity": 4, "perspective_c4_y": {"Points": [{"co": {"X": 1.0, "Y": -1.0}, "interpolation": 2}]}, "time": {"Points": [{"co": {"X": 1.0, "Y": 1.0}, "interpolation": 2}]}, "perspective_c3_y": {"Points": [{"co": {"X": 1.0, "Y": -1.0}, "interpolation": 2}]}, "layer": 0, "rotation": {"Points": [{"co": {"X": 1.0, "Y": 0.0}, "interpolation": 2}]}, "position": 10.64, "start": 0, "shear_y": {"Points": [{"co": {"X": 1.0, "Y": 0.0}, "interpolation": 2}]}, "display": 0, "scale_y": {"Points": [{"co": {"X": 1.0, "Y": 1.0}, "interpolation": 2}]}, "perspective_c2_x": {"Points": [{"co": {"X": 1.0, "Y": -1.0}, "interpolation": 2}]}, "end": 10, "channel_mapping": {"Points": [{"co": {"X": 1.0, "Y": -1.0}, "interpolation": 2}]}, "volume": {"Points": [{"co": {"X": 1.0, "Y": 1.0}, "interpolation": 2}]}, "crop_width": {"Points": [{"co": {"X": 1.0, "Y": -1.0}, "interpolation": 2}]}, "waveform": false, "perspective_c1_y": {"Points": [{"co": {"X": 1.0, "Y": -1.0}, "interpolation": 2}]}, "channel_filter": {"Points": [{"co": {"X": 1.0, "Y": -1.0}, "interpolation": 2}]}, "location_y": {"Points": [{"co": {"X": 1.0, "Y": 0.0}, "interpolation": 2}]}, "perspective_c4_x": {"Points": [{"co": {"X": 1.0, "Y": -1.0}, "interpolation": 2}]}, "scale": 1, "duration": 86400.0, "crop_x": {"Points": [{"co": {"X": 1.0, "Y": 0.0}, "interpolation": 2}]}, "scale_x": {"Points": [{"co": {"X": 1.0, "Y": 1.0}, "interpolation": 2}]}, "image": "/home/milind/.openshot_qt/thumbnail/P90UHAKE08.png", "shear_x": {"Points": [{"co": {"X": 1.0, "Y": 0.0}, "interpolation": 2}]}, "reader": {"audio_stream_index": -1, "path": "/home/milind/Data/Projects/ProgressCard/Title-01.svg", "video_stream_index": -1, "video_length": "2592000", "has_audio": false, "display_ratio": {"den": 3827, "num": 6803}, "video_bit_rate": 0, "audio_timebase": {"den": 1, "num": 1}, "channel_layout": 4, "fps": {"den": 1, "num": 30}, "has_single_image": true, "acodec": "", "width": 6803, "type": "QtImageReader", "interlaced_frame": false, "pixel_ratio": {"den": 1, "num": 1}, "pixel_format": -1, "audio_bit_rate": 0, "sample_rate": 0, "channels": 0, "duration": 86400.0, "vcodec": "", "height": 3827, "video_timebase": {"den": 30, "num": 1}, "has_video": true, "top_field_first": true, "file_size": "104140324"}, "perspective_c2_y": {"Points": [{"co": {"X": 1.0, "Y": -1.0}, "interpolation": 2}]}, "has_video": {"Points": [{"co": {"X": 1.0, "Y": -1.0}, "interpolation": 2}]}, "effects": [], "title": "Title-01.svg", "perspective_c3_x": {"Points": [{"co": {"X": 1.0, "Y": -1.0}, "interpolation": 2}]}, "crop_y": {"Points": [{"co": {"X": 1.0, "Y": 0.0}, "interpolation": 2}]}}, {"location_x": {"Points": [{"co": {"X": 1.0, "Y": 0.0}, "interpolation": 2}]}, "crop_height": {"Points": [{"co": {"X": 1.0, "Y": -1.0}, "interpolation": 2}]}, "wave_color": {"red": {"Points": [{"handle_type": 0, "handle_right": {"X": 0.5, "Y": 0.0}, "handle_left": {"X": 0.5, "Y": 1.0}, "co": {"X": 1.0, "Y": 0.0}, "interpolation": 0}]}, "alpha": {"Points": [{"handle_type": 0, "handle_right": {"X": 0.5, "Y": 0.0}, "handle_left": {"X": 0.5, "Y": 1.0}, "co": {"X": 1.0, "Y": 255.0}, "interpolation": 0}]}, "blue": {"Points": [{"handle_type": 0, "handle_right": {"X": 0.5, "Y": 0.0}, "handle_left": {"X": 0.5, "Y": 1.0}, "co": {"X": 1.0, "Y": 255.0}, "interpolation": 0}]}, "green": {"Points": [{"handle_type": 0, "handle_right": {"X": 0.5, "Y": 0.0}, "handle_left": {"X": 0.5, "Y": 1.0}, "co": {"X": 1.0, "Y": 123.0}, "interpolation": 0}]}}, "id": "O48FS1E8RG", "anchor": 0, "alpha": {"Points": [{"co": {"X": 1.0, "Y": 1.0}, "interpolation": 2}]}, "perspective_c1_x": {"Points": [{"co": {"X": 1.0, "Y": -1.0}, "interpolation": 2}]}, "file_id": "P90UHAKE08", "has_audio": {"Points": [{"co": {"X": 1.0, "Y": -1.0}, "interpolation": 2}]}, "gravity": 4, "perspective_c4_y": {"Points": [{"co": {"X": 1.0, "Y": -1.0}, "interpolation": 2}]}, "time": {"Points": [{"co": {"X": 1.0, "Y": 1.0}, "interpolation": 2}]}, "perspective_c3_y": {"Points": [{"co": {"X": 1.0, "Y": -1.0}, "interpolation": 2}]}, "layer": 0, "rotation": {"Points": [{"co": {"X": 1.0, "Y": 0.0}, "interpolation": 2}]}, "position": 20.64, "start": 0, "shear_y": {"Points": [{"co": {"X": 1.0, "Y": 0.0}, "interpolation": 2}]}, "display": 0, "scale_y": {"Points": [{"co": {"X": 1.0, "Y": 1.0}, "interpolation": 2}]}, "perspective_c2_x": {"Points": [{"co": {"X": 1.0, "Y": -1.0}, "interpolation": 2}]}, "end": 10, "channel_mapping": {"Points": [{"co": {"X": 1.0, "Y": -1.0}, "interpolation": 2}]}, "volume": {"Points": [{"co": {"X": 1.0, "Y": 1.0}, "interpolation": 2}]}, "crop_width": {"Points": [{"co": {"X": 1.0, "Y": -1.0}, "interpolation": 2}]}, "waveform": false, "perspective_c1_y": {"Points": [{"co": {"X": 1.0, "Y": -1.0}, "interpolation": 2}]}, "channel_filter": {"Points": [{"co": {"X": 1.0, "Y": -1.0}, "interpolation": 2}]}, "location_y": {"Points": [{"co": {"X": 1.0, "Y": 0.0}, "interpolation": 2}]}, "perspective_c4_x": {"Points": [{"co": {"X": 1.0, "Y": -1.0}, "interpolation": 2}]}, "scale": 1, "duration": 86400.0, "crop_x": {"Points": [{"co": {"X": 1.0, "Y": 0.0}, "interpolation": 2}]}, "scale_x": {"Points": [{"co": {"X": 1.0, "Y": 1.0}, "interpolation": 2}]}, "image": "/home/milind/.openshot_qt/thumbnail/P90UHAKE08.png", "shear_x": {"Points": [{"co": {"X": 1.0, "Y": 0.0}, "interpolation": 2}]}, "reader": {"audio_stream_index": -1, "path": "/home/milind/Data/Projects/ProgressCard/Title-01.svg", "video_stream_index": -1, "video_length": "2592000", "has_audio": false, "display_ratio": {"den": 3827, "num": 6803}, "video_bit_rate": 0, "audio_timebase": {"den": 1, "num": 1}, "channel_layout": 4, "fps": {"den": 1, "num": 30}, "has_single_image": true, "acodec": "", "width": 6803, "type": "QtImageReader", "interlaced_frame": false, "pixel_ratio": {"den": 1, "num": 1}, "pixel_format": -1, "audio_bit_rate": 0, "sample_rate": 0, "channels": 0, "duration": 86400.0, "vcodec": "", "height": 3827, "video_timebase": {"den": 30, "num": 1}, "has_video": true, "top_field_first": true, "file_size": "104140324"}, "perspective_c2_y": {"Points": [{"co": {"X": 1.0, "Y": -1.0}, "interpolation": 2}]}, "has_video": {"Points": [{"co": {"X": 1.0, "Y": -1.0}, "interpolation": 2}]}, "effects": [], "title": "Title-01.svg", "perspective_c3_x": {"Points": [{"co": {"X": 1.0, "Y": -1.0}, "interpolation": 2}]}, "crop_y": {"Points": [{"co": {"X": 1.0, "Y": 0.0}, "interpolation": 2}]}}, {"location_x": {"Points": [{"co": {"X": 1.0, "Y": 0.0}, "interpolation": 2}]}, "crop_height": {"Points": [{"co": {"X": 1.0, "Y": -1.0}, "interpolation": 2}]}, "wave_color": {"red": {"Points": [{"handle_type": 0, "handle_right": {"X": 0.5, "Y": 0.0}, "handle_left": {"X": 0.5, "Y": 1.0}, "co": {"X": 1.0, "Y": 0.0}, "interpolation": 0}]}, "alpha": {"Points": [{"handle_type": 0, "handle_right": {"X": 0.5, "Y": 0.0}, "handle_left": {"X": 0.5, "Y": 1.0}, "co": {"X": 1.0, "Y": 255.0}, "interpolation": 0}]}, "blue": {"Points": [{"handle_type": 0, "handle_right": {"X": 0.5, "Y": 0.0}, "handle_left": {"X": 0.5, "Y": 1.0}, "co": {"X": 1.0, "Y": 255.0}, "interpolation": 0}]}, "green": {"Points": [{"handle_type": 0, "handle_right": {"X": 0.5, "Y": 0.0}, "handle_left": {"X": 0.5, "Y": 1.0}, "co": {"X": 1.0, "Y": 123.0}, "interpolation": 0}]}}, "id": "7C0GMAN5HH", "anchor": 0, "alpha": {"Points": [{"co": {"X": 1.0, "Y": 1.0}, "interpolation": 2}]}, "perspective_c1_x": {"Points": [{"co": {"X": 1.0, "Y": -1.0}, "interpolation": 2}]}, "file_id": "0D6YTY7G58", "has_audio": {"Points": [{"co": {"X": 1.0, "Y": -1.0}, "interpolation": 2}]}, "gravity": 4, "perspective_c4_y": {"Points": [{"co": {"X": 1.0, "Y": -1.0}, "interpolation": 2}]}, "time": {"Points": [{"co": {"X": 1.0, "Y": 1.0}, "interpolation": 2}]}, "perspective_c3_y": {"Points": [{"co": {"X": 1.0, "Y": -1.0}, "interpolation": 2}]}, "layer": 1, "rotation": {"Points": [{"co": {"X": 1.0, "Y": 0.0}, "interpolation": 2}]}, "position": 10.88, "start": 0, "shear_y": {"Points": [{"co": {"X": 1.0, "Y": 0.0}, "interpolation": 2}]}, "display": 0, "scale_y": {"Points": [{"co": {"X": 1.0, "Y": 1.0}, "interpolation": 2}]}, "perspective_c2_x": {"Points": [{"co": {"X": 1.0, "Y": -1.0}, "interpolation": 2}]}, "end": 10, "channel_mapping": {"Points": [{"co": {"X": 1.0, "Y": -1.0}, "interpolation": 2}]}, "volume": {"Points": [{"co": {"X": 1.0, "Y": 1.0}, "interpolation": 2}]}, "crop_width": {"Points": [{"co": {"X": 1.0, "Y": -1.0}, "interpolation": 2}]}, "waveform": false, "perspective_c1_y": {"Points": [{"co": {"X": 1.0, "Y": -1.0}, "interpolation": 2}]}, "channel_filter": {"Points": [{"co": {"X": 1.0, "Y": -1.0}, "interpolation": 2}]}, "location_y": {"Points": [{"co": {"X": 1.0, "Y": 0.0}, "interpolation": 2}]}, "perspective_c4_x": {"Points": [{"co": {"X": 1.0, "Y": -1.0}, "interpolation": 2}]}, "scale": 1, "duration": 86400.0, "crop_x": {"Points": [{"co": {"X": 1.0, "Y": 0.0}, "interpolation": 2}]}, "scale_x": {"Points": [{"co": {"X": 1.0, "Y": 1.0}, "interpolation": 2}]}, "image": "/home/milind/.openshot_qt/thumbnail/0D6YTY7G58.png", "shear_x": {"Points": [{"co": {"X": 1.0, "Y": 0.0}, "interpolation": 2}]}, "reader": {"audio_stream_index": -1, "path": "/home/milind/Data/Projects/ProgressCard/Title-02.svg", "video_stream_index": -1, "video_length": "2592000", "has_audio": false, "display_ratio": {"den": 3827, "num": 6803}, "video_bit_rate": 0, "audio_timebase": {"den": 1, "num": 1}, "channel_layout": 4, "fps": {"den": 1, "num": 30}, "has_single_image": true, "acodec": "", "width": 6803, "type": "QtImageReader", "interlaced_frame": false, "pixel_ratio": {"den": 1, "num": 1}, "pixel_format": -1, "audio_bit_rate": 0, "sample_rate": 0, "channels": 0, "duration": 86400.0, "vcodec": "", "height": 3827, "video_timebase": {"den": 30, "num": 1}, "has_video": true, "top_field_first": true, "file_size": "104140324"}, "perspective_c2_y": {"Points": [{"co": {"X": 1.0, "Y": -1.0}, "interpolation": 2}]}, "has_video": {"Points": [{"co": {"X": 1.0, "Y": -1.0}, "interpolation": 2}]}, "effects": [], "title": "Title-02.svg", "perspective_c3_x": {"Points": [{"co": {"X": 1.0, "Y": -1.0}, "interpolation": 2}]}, "crop_y": {"Points": [{"co": {"X": 1.0, "Y": 0.0}, "interpolation": 2}]}}, {"location_x": {"Points": [{"co": {"X": 1.0, "Y": 0.0}, "interpolation": 2}]}, "crop_height": {"Points": [{"co": {"X": 1.0, "Y": -1.0}, "interpolation": 2}]}, "wave_color": {"red": {"Points": [{"handle_type": 0, "handle_right": {"X": 0.5, "Y": 0.0}, "handle_left": {"X": 0.5, "Y": 1.0}, "co": {"X": 1.0, "Y": 0.0}, "interpolation": 0}]}, "alpha": {"Points": [{"handle_type": 0, "handle_right": {"X": 0.5, "Y": 0.0}, "handle_left": {"X": 0.5, "Y": 1.0}, "co": {"X": 1.0, "Y": 255.0}, "interpolation": 0}]}, "blue": {"Points": [{"handle_type": 0, "handle_right": {"X": 0.5, "Y": 0.0}, "handle_left": {"X": 0.5, "Y": 1.0}, "co": {"X": 1.0, "Y": 255.0}, "interpolation": 0}]}, "green": {"Points": [{"handle_type": 0, "handle_right": {"X": 0.5, "Y": 0.0}, "handle_left": {"X": 0.5, "Y": 1.0}, "co": {"X": 1.0, "Y": 123.0}, "interpolation": 0}]}}, "id": "33BYMNG1XF", "anchor": 0, "alpha": {"Points": [{"co": {"X": 1.0, "Y": 1.0}, "interpolation": 2}]}, "perspective_c1_x": {"Points": [{"co": {"X": 1.0, "Y": -1.0}, "interpolation": 2}]}, "file_id": "0D6YTY7G58", "has_audio": {"Points": [{"co": {"X": 1.0, "Y": -1.0}, "interpolation": 2}]}, "gravity": 4, "perspective_c4_y": {"Points": [{"co": {"X": 1.0, "Y": -1.0}, "interpolation": 2}]}, "time": {"Points": [{"co": {"X": 1.0, "Y": 1.0}, "interpolation": 2}]}, "perspective_c3_y": {"Points": [{"co": {"X": 1.0, "Y": -1.0}, "interpolation": 2}]}, "layer": 1, "rotation": {"Points": [{"co": {"X": 1.0, "Y": 0.0}, "interpolation": 2}]}, "position": 20.880000000000006, "start": 0, "shear_y": {"Points": [{"co": {"X": 1.0, "Y": 0.0}, "interpolation": 2}]}, "display": 0, "scale_y": {"Points": [{"co": {"X": 1.0, "Y": 1.0}, "interpolation": 2}]}, "perspective_c2_x": {"Points": [{"co": {"X": 1.0, "Y": -1.0}, "interpolation": 2}]}, "end": 10, "channel_mapping": {"Points": [{"co": {"X": 1.0, "Y": -1.0}, "interpolation": 2}]}, "volume": {"Points": [{"co": {"X": 1.0, "Y": 1.0}, "interpolation": 2}]}, "crop_width": {"Points": [{"co": {"X": 1.0, "Y": -1.0}, "interpolation": 2}]}, "waveform": false, "perspective_c1_y": {"Points": [{"co": {"X": 1.0, "Y": -1.0}, "interpolation": 2}]}, "channel_filter": {"Points": [{"co": {"X": 1.0, "Y": -1.0}, "interpolation": 2}]}, "location_y": {"Points": [{"co": {"X": 1.0, "Y": 0.0}, "interpolation": 2}]}, "perspective_c4_x": {"Points": [{"co": {"X": 1.0, "Y": -1.0}, "interpolation": 2}]}, "scale": 1, "duration": 86400.0, "crop_x": {"Points": [{"co": {"X": 1.0, "Y": 0.0}, "interpolation": 2}]}, "scale_x": {"Points": [{"co": {"X": 1.0, "Y": 1.0}, "interpolation": 2}]}, "image": "/home/milind/.openshot_qt/thumbnail/0D6YTY7G58.png", "shear_x": {"Points": [{"co": {"X": 1.0, "Y": 0.0}, "interpolation": 2}]}, "reader": {"audio_stream_index": -1, "path": "/home/milind/Data/Projects/ProgressCard/Title-02.svg", "video_stream_index": -1, "video_length": "2592000", "has_audio": false, "display_ratio": {"den": 3827, "num": 6803}, "video_bit_rate": 0, "audio_timebase": {"den": 1, "num": 1}, "channel_layout": 4, "fps": {"den": 1, "num": 30}, "has_single_image": true, "acodec": "", "width": 6803, "type": "QtImageReader", "interlaced_frame": false, "pixel_ratio": {"den": 1, "num": 1}, "pixel_format": -1, "audio_bit_rate": 0, "sample_rate": 0, "channels": 0, "duration": 86400.0, "vcodec": "", "height": 3827, "video_timebase": {"den": 30, "num": 1}, "has_video": true, "top_field_first": true, "file_size": "104140324"}, "perspective_c2_y": {"Points": [{"co": {"X": 1.0, "Y": -1.0}, "interpolation": 2}]}, "has_video": {"Points": [{"co": {"X": 1.0, "Y": -1.0}, "interpolation": 2}]}, "effects": [], "title": "Title-02.svg", "perspective_c3_x": {"Points": [{"co": {"X": 1.0, "Y": -1.0}, "interpolation": 2}]}, "crop_y": {"Points": [{"co": {"X": 1.0, "Y": 0.0}, "interpolation": 2}]}}, {"location_x": {"Points": [{"co": {"X": 1.0, "Y": 0.0}, "interpolation": 2}]}, "crop_height": {"Points": [{"co": {"X": 1.0, "Y": -1.0}, "interpolation": 2}]}, "wave_color": {"red": {"Points": [{"handle_type": 0, "handle_right": {"X": 0.5, "Y": 0.0}, "handle_left": {"X": 0.5, "Y": 1.0}, "co": {"X": 1.0, "Y": 0.0}, "interpolation": 0}]}, "alpha": {"Points": [{"handle_type": 0, "handle_right": {"X": 0.5, "Y": 0.0}, "handle_left": {"X": 0.5, "Y": 1.0}, "co": {"X": 1.0, "Y": 255.0}, "interpolation": 0}]}, "blue": {"Points": [{"handle_type": 0, "handle_right": {"X": 0.5, "Y": 0.0}, "handle_left": {"X": 0.5, "Y": 1.0}, "co": {"X": 1.0, "Y": 255.0}, "interpolation": 0}]}, "green": {"Points": [{"handle_type": 0, "handle_right": {"X": 0.5, "Y": 0.0}, "handle_left": {"X": 0.5, "Y": 1.0}, "co": {"X": 1.0, "Y": 123.0}, "interpolation": 0}]}}, "id": "XKF5M8RK48", "anchor": 0, "alpha": {"Points": [{"co": {"X": 1.0, "Y": 1.0}, "interpolation": 2}]}, "perspective_c1_x": {"Points": [{"co": {"X": 1.0, "Y": -1.0}, "interpolation": 2}]}, "file_id": "NXRCV0O7IK", "has_audio": {"Points": [{"co": {"X": 1.0, "Y": -1.0}, "interpolation": 2}]}, "gravity": 4, "perspective_c4_y": {"Points": [{"co": {"X": 1.0, "Y": -1.0}, "interpolation": 2}]}, "time": {"Points": [{"co": {"X": 1.0, "Y": 1.0}, "interpolation": 2}]}, "perspective_c3_y": {"Points": [{"co": {"X": 1.0, "Y": -1.0}, "interpolation": 2}]}, "layer": 2, "rotation": {"Points": [{"co": {"X": 1.0, "Y": 0.0}, "interpolation": 2}]}, "position": 21.12, "start": 0, "shear_y": {"Points": [{"co": {"X": 1.0, "Y": 0.0}, "interpolation": 2}]}, "display": 0, "scale_y": {"Points": [{"co": {"X": 1.0, "Y": 1.0}, "interpolation": 2}]}, "perspective_c2_x": {"Points": [{"co": {"X": 1.0, "Y": -1.0}, "interpolation": 2}]}, "end": 10, "channel_mapping": {"Points": [{"co": {"X": 1.0, "Y": -1.0}, "interpolation": 2}]}, "volume": {"Points": [{"co": {"X": 1.0, "Y": 1.0}, "interpolation": 2}]}, "crop_width": {"Points": [{"co": {"X": 1.0, "Y": -1.0}, "interpolation": 2}]}, "waveform": false, "perspective_c1_y": {"Points": [{"co": {"X": 1.0, "Y": -1.0}, "interpolation": 2}]}, "channel_filter": {"Points": [{"co": {"X": 1.0, "Y": -1.0}, "interpolation": 2}]}, "location_y": {"Points": [{"co": {"X": 1.0, "Y": 0.0}, "interpolation": 2}]}, "perspective_c4_x": {"Points": [{"co": {"X": 1.0, "Y": -1.0}, "interpolation": 2}]}, "scale": 1, "duration": 86400.0, "crop_x": {"Points": [{"co": {"X": 1.0, "Y": 0.0}, "interpolation": 2}]}, "scale_x": {"Points": [{"co": {"X": 1.0, "Y": 1.0}, "interpolation": 2}]}, "image": "/home/milind/.openshot_qt/thumbnail/NXRCV0O7IK.png", "shear_x": {"Points": [{"co": {"X": 1.0, "Y": 0.0}, "interpolation": 2}]}, "reader": {"audio_stream_index": -1, "path": "/home/milind/Data/Projects/ProgressCard/Title-03.svg", "video_stream_index": -1, "video_length": "2592000", "has_audio": false, "display_ratio": {"den": 3827, "num": 6803}, "video_bit_rate": 0, "audio_timebase": {"den": 1, "num": 1}, "channel_layout": 4, "fps": {"den": 1, "num": 30}, "has_single_image": true, "acodec": "", "width": 6803, "type": "QtImageReader", "interlaced_frame": false, "pixel_ratio": {"den": 1, "num": 1}, "pixel_format": -1, "audio_bit_rate": 0, "sample_rate": 0, "channels": 0, "duration": 86400.0, "vcodec": "", "height": 3827, "video_timebase": {"den": 30, "num": 1}, "has_video": true, "top_field_first": true, "file_size": "104140324"}, "perspective_c2_y": {"Points": [{"co": {"X": 1.0, "Y": -1.0}, "interpolation": 2}]}, "has_video": {"Points": [{"co": {"X": 1.0, "Y": -1.0}, "interpolation": 2}]}, "effects": [], "title": "Title-03.svg", "perspective_c3_x": {"Points": [{"co": {"X": 1.0, "Y": -1.0}, "interpolation": 2}]}, "crop_y": {"Points": [{"co": {"X": 1.0, "Y": 0.0}, "interpolation": 2}]}}, {"location_x": {"Points": [{"co": {"X": 1.0, "Y": 0.0}, "interpolation": 2}]}, "crop_height": {"Points": [{"co": {"X": 1.0, "Y": -1.0}, "interpolation": 2}]}, "wave_color": {"red": {"Points": [{"handle_type": 0, "handle_right": {"X": 0.5, "Y": 0.0}, "handle_left": {"X": 0.5, "Y": 1.0}, "co": {"X": 1.0, "Y": 0.0}, "interpolation": 0}]}, "alpha": {"Points": [{"handle_type": 0, "handle_right": {"X": 0.5, "Y": 0.0}, "handle_left": {"X": 0.5, "Y": 1.0}, "co": {"X": 1.0, "Y": 255.0}, "interpolation": 0}]}, "blue": {"Points": [{"handle_type": 0, "handle_right": {"X": 0.5, "Y": 0.0}, "handle_left": {"X": 0.5, "Y": 1.0}, "co": {"X": 1.0, "Y": 255.0}, "interpolation": 0}]}, "green": {"Points": [{"handle_type": 0, "handle_right": {"X": 0.5, "Y": 0.0}, "handle_left": {"X": 0.5, "Y": 1.0}, "co": {"X": 1.0, "Y": 123.0}, "interpolation": 0}]}}, "id": "RKN119MZ6I", "anchor": 0, "alpha": {"Points": [{"co": {"X": 1.0, "Y": 1.0}, "interpolation": 2}]}, "perspective_c1_x": {"Points": [{"co": {"X": 1.0, "Y": -1.0}, "interpolation": 2}]}, "file_id": "0D6YTY7G58", "has_audio": {"Points": [{"co": {"X": 1.0, "Y": -1.0}, "interpolation": 2}]}, "gravity": 4, "perspective_c4_y": {"Points": [{"co": {"X": 1.0, "Y": -1.0}, "interpolation": 2}]}, "time": {"Points": [{"co": {"X": 1.0, "Y": 1.0}, "interpolation": 2}]}, "perspective_c3_y": {"Points": [{"co": {"X": 1.0, "Y": -1.0}, "interpolation": 2}]}, "layer": 1, "rotation": {"Points": [{"co": {"X": 1.0, "Y": 0.0}, "interpolation": 2}]}, "position": 30.56, "start": 0, "shear_y": {"Points": [{"co": {"X": 1.0, "Y": 0.0}, "interpolation": 2}]}, "display": 0, "scale_y": {"Points": [{"co": {"X": 1.0, "Y": 1.0}, "interpolation": 2}]}, "perspective_c2_x": {"Points": [{"co": {"X": 1.0, "Y": -1.0}, "interpolation": 2}]}, "end": 10, "channel_mapping": {"Points": [{"co": {"X": 1.0, "Y": -1.0}, "interpolation": 2}]}, "volume": {"Points": [{"co": {"X": 1.0, "Y": 1.0}, "interpolation": 2}]}, "crop_width": {"Points": [{"co": {"X": 1.0, "Y": -1.0}, "interpolation": 2}]}, "waveform": false, "perspective_c1_y": {"Points": [{"co": {"X": 1.0, "Y": -1.0}, "interpolation": 2}]}, "channel_filter": {"Points": [{"co": {"X": 1.0, "Y": -1.0}, "interpolation": 2}]}, "location_y": {"Points": [{"co": {"X": 1.0, "Y": 0.0}, "interpolation": 2}]}, "perspective_c4_x": {"Points": [{"co": {"X": 1.0, "Y": -1.0}, "interpolation": 2}]}, "scale": 1, "duration": 86400.0, "crop_x": {"Points": [{"co": {"X": 1.0, "Y": 0.0}, "interpolation": 2}]}, "scale_x": {"Points": [{"co": {"X": 1.0, "Y": 1.0}, "interpolation": 2}]}, "image": "/home/milind/.openshot_qt/thumbnail/0D6YTY7G58.png", "shear_x": {"Points": [{"co": {"X": 1.0, "Y": 0.0}, "interpolation": 2}]}, "reader": {"audio_stream_index": -1, "path": "/home/milind/Data/Projects/ProgressCard/Title-02.svg", "video_stream_index": -1, "video_length": "2592000", "has_audio": false, "display_ratio": {"den": 3827, "num": 6803}, "video_bit_rate": 0, "audio_timebase": {"den": 1, "num": 1}, "channel_layout": 4, "fps": {"den": 1, "num": 30}, "has_single_image": true, "acodec": "", "width": 6803, "type": "QtImageReader", "interlaced_frame": false, "pixel_ratio": {"den": 1, "num": 1}, "pixel_format": -1, "audio_bit_rate": 0, "sample_rate": 0, "channels": 0, "duration": 86400.0, "vcodec": "", "height": 3827, "video_timebase": {"den": 30, "num": 1}, "has_video": true, "top_field_first": true, "file_size": "104140324"}, "perspective_c2_y": {"Points": [{"co": {"X": 1.0, "Y": -1.0}, "interpolation": 2}]}, "has_video": {"Points": [{"co": {"X": 1.0, "Y": -1.0}, "interpolation": 2}]}, "effects": [], "title": "Title-02.svg", "perspective_c3_x": {"Points": [{"co": {"X": 1.0, "Y": -1.0}, "interpolation": 2}]}, "crop_y": {"Points": [{"co": {"X": 1.0, "Y": 0.0}, "interpolation": 2}]}}, {"location_x": {"Points": [{"co": {"X": 1.0, "Y": 0.0}, "interpolation": 2}]}, "crop_height": {"Points": [{"co": {"X": 1.0, "Y": -1.0}, "interpolation": 2}]}, "wave_color": {"red": {"Points": [{"handle_type": 0, "handle_right": {"X": 0.5, "Y": 0.0}, "handle_left": {"X": 0.5, "Y": 1.0}, "co": {"X": 1.0, "Y": 0.0}, "interpolation": 0}]}, "alpha": {"Points": [{"handle_type": 0, "handle_right": {"X": 0.5, "Y": 0.0}, "handle_left": {"X": 0.5, "Y": 1.0}, "co": {"X": 1.0, "Y": 255.0}, "interpolation": 0}]}, "blue": {"Points": [{"handle_type": 0, "handle_right": {"X": 0.5, "Y": 0.0}, "handle_left": {"X": 0.5, "Y": 1.0}, "co": {"X": 1.0, "Y": 255.0}, "interpolation": 0}]}, "green": {"Points": [{"handle_type": 0, "handle_right": {"X": 0.5, "Y": 0.0}, "handle_left": {"X": 0.5, "Y": 1.0}, "co": {"X": 1.0, "Y": 123.0}, "interpolation": 0}]}}, "id": "QSXS4VKWAH", "anchor": 0, "alpha": {"Points": [{"co": {"X": 1.0, "Y": 1.0}, "interpolation": 2}]}, "perspective_c1_x": {"Points": [{"co": {"X": 1.0, "Y": -1.0}, "interpolation": 2}]}, "file_id": "P90UHAKE08", "has_audio": {"Points": [{"co": {"X": 1.0, "Y": -1.0}, "interpolation": 2}]}, "gravity": 4, "perspective_c4_y": {"Points": [{"co": {"X": 1.0, "Y": -1.0}, "interpolation": 2}]}, "time": {"Points": [{"co": {"X": 1.0, "Y": 1.0}, "interpolation": 2}]}, "perspective_c3_y": {"Points": [{"co": {"X": 1.0, "Y": -1.0}, "interpolation": 2}]}, "layer": 0, "rotation": {"Points": [{"co": {"X": 1.0, "Y": 0.0}, "interpolation": 2}]}, "position": 30.880000000000006, "start": 0, "shear_y": {"Points": [{"co": {"X": 1.0, "Y": 0.0}, "interpolation": 2}]}, "display": 0, "scale_y": {"Points": [{"co": {"X": 1.0, "Y": 1.0}, "interpolation": 2}]}, "perspective_c2_x": {"Points": [{"co": {"X": 1.0, "Y": -1.0}, "interpolation": 2}]}, "end": 10, "channel_mapping": {"Points": [{"co": {"X": 1.0, "Y": -1.0}, "interpolation": 2}]}, "volume": {"Points": [{"co": {"X": 1.0, "Y": 1.0}, "interpolation": 2}]}, "crop_width": {"Points": [{"co": {"X": 1.0, "Y": -1.0}, "interpolation": 2}]}, "waveform": false, "perspective_c1_y": {"Points": [{"co": {"X": 1.0, "Y": -1.0}, "interpolation": 2}]}, "channel_filter": {"Points": [{"co": {"X": 1.0, "Y": -1.0}, "interpolation": 2}]}, "location_y": {"Points": [{"co": {"X": 1.0, "Y": 0.0}, "interpolation": 2}]}, "perspective_c4_x": {"Points": [{"co": {"X": 1.0, "Y": -1.0}, "interpolation": 2}]}, "scale": 1, "duration": 86400.0, "crop_x": {"Points": [{"co": {"X": 1.0, "Y": 0.0}, "interpolation": 2}]}, "scale_x": {"Points": [{"co": {"X": 1.0, "Y": 1.0}, "interpolation": 2}]}, "image": "/home/milind/.openshot_qt/thumbnail/P90UHAKE08.png", "shear_x": {"Points": [{"co": {"X": 1.0, "Y": 0.0}, "interpolation": 2}]}, "reader": {"audio_stream_index": -1, "path": "/home/milind/Data/Projects/ProgressCard/Title-01.svg", "video_stream_index": -1, "video_length": "2592000", "has_audio": false, "display_ratio": {"den": 3827, "num": 6803}, "video_bit_rate": 0, "audio_timebase": {"den": 1, "num": 1}, "channel_layout": 4, "fps": {"den": 1, "num": 30}, "has_single_image": true, "acodec": "", "width": 6803, "type": "QtImageReader", "interlaced_frame": false, "pixel_ratio": {"den": 1, "num": 1}, "pixel_format": -1, "audio_bit_rate": 0, "sample_rate": 0, "channels": 0, "duration": 86400.0, "vcodec": "", "height": 3827, "video_timebase": {"den": 30, "num": 1}, "has_video": true, "top_field_first": true, "file_size": "104140324"}, "perspective_c2_y": {"Points": [{"co": {"X": 1.0, "Y": -1.0}, "interpolation": 2}]}, "has_video": {"Points": [{"co": {"X": 1.0, "Y": -1.0}, "interpolation": 2}]}, "effects": [], "title": "Title-01.svg", "perspective_c3_x": {"Points": [{"co": {"X": 1.0, "Y": -1.0}, "interpolation": 2}]}, "crop_y": {"Points": [{"co": {"X": 1.0, "Y": 0.0}, "interpolation": 2}]}}, {"location_x": {"Points": [{"co": {"X": 1.0, "Y": 0.0}, "interpolation": 2}]}, "crop_height": {"Points": [{"co": {"X": 1.0, "Y": -1.0}, "interpolation": 2}]}, "wave_color": {"red": {"Points": [{"handle_type": 0, "handle_right": {"X": 0.5, "Y": 0.0}, "handle_left": {"X": 0.5, "Y": 1.0}, "co": {"X": 1.0, "Y": 0.0}, "interpolation": 0}]}, "alpha": {"Points": [{"handle_type": 0, "handle_right": {"X": 0.5, "Y": 0.0}, "handle_left": {"X": 0.5, "Y": 1.0}, "co": {"X": 1.0, "Y": 255.0}, "interpolation": 0}]}, "blue": {"Points": [{"handle_type": 0, "handle_right": {"X": 0.5, "Y": 0.0}, "handle_left": {"X": 0.5, "Y": 1.0}, "co": {"X": 1.0, "Y": 255.0}, "interpolation": 0}]}, "green": {"Points": [{"handle_type": 0, "handle_right": {"X": 0.5, "Y": 0.0}, "handle_left": {"X": 0.5, "Y": 1.0}, "co": {"X": 1.0, "Y": 123.0}, "interpolation": 0}]}}, "id": "GX63KBSN8E", "anchor": 0, "alpha": {"Points": [{"co": {"X": 1.0, "Y": 1.0}, "interpolation": 2}]}, "perspective_c1_x": {"Points": [{"co": {"X": 1.0, "Y": -1.0}, "interpolation": 2}]}, "file_id": "NXRCV0O7IK", "has_audio": {"Points": [{"co": {"X": 1.0, "Y": -1.0}, "interpolation": 2}]}, "gravity": 4, "perspective_c4_y": {"Points": [{"co": {"X": 1.0, "Y": -1.0}, "interpolation": 2}]}, "time": {"Points": [{"co": {"X": 1.0, "Y": 1.0}, "interpolation": 2}]}, "perspective_c3_y": {"Points": [{"co": {"X": 1.0, "Y": -1.0}, "interpolation": 2}]}, "layer": 2, "rotation": {"Points": [{"co": {"X": 1.0, "Y": 0.0}, "interpolation": 2}]}, "position": 31.120000000000008, "start": 0, "shear_y": {"Points": [{"co": {"X": 1.0, "Y": 0.0}, "interpolation": 2}]}, "display": 0, "scale_y": {"Points": [{"co": {"X": 1.0, "Y": 1.0}, "interpolation": 2}]}, "perspective_c2_x": {"Points": [{"co": {"X": 1.0, "Y": -1.0}, "interpolation": 2}]}, "end": 10, "channel_mapping": {"Points": [{"co": {"X": 1.0, "Y": -1.0}, "interpolation": 2}]}, "volume": {"Points": [{"co": {"X": 1.0, "Y": 1.0}, "interpolation": 2}]}, "crop_width": {"Points": [{"co": {"X": 1.0, "Y": -1.0}, "interpolation": 2}]}, "waveform": false, "perspective_c1_y": {"Points": [{"co": {"X": 1.0, "Y": -1.0}, "interpolation": 2}]}, "channel_filter": {"Points": [{"co": {"X": 1.0, "Y": -1.0}, "interpolation": 2}]}, "location_y": {"Points": [{"co": {"X": 1.0, "Y": 0.0}, "interpolation": 2}]}, "perspective_c4_x": {"Points": [{"co": {"X": 1.0, "Y": -1.0}, "interpolation": 2}]}, "scale": 1, "duration": 86400.0, "crop_x": {"Points": [{"co": {"X": 1.0, "Y": 0.0}, "interpolation": 2}]}, "scale_x": {"Points": [{"co": {"X": 1.0, "Y": 1.0}, "interpolation": 2}]}, "image": "/home/milind/.openshot_qt/thumbnail/NXRCV0O7IK.png", "shear_x": {"Points": [{"co": {"X": 1.0, "Y": 0.0}, "interpolation": 2}]}, "reader": {"audio_stream_index": -1, "path": "/home/milind/Data/Projects/ProgressCard/Title-03.svg", "video_stream_index": -1, "video_length": "2592000", "has_audio": false, "display_ratio": {"den": 3827, "num": 6803}, "video_bit_rate": 0, "audio_timebase": {"den": 1, "num": 1}, "channel_layout": 4, "fps": {"den": 1, "num": 30}, "has_single_image": true, "acodec": "", "width": 6803, "type": "QtImageReader", "interlaced_frame": false, "pixel_ratio": {"den": 1, "num": 1}, "pixel_format": -1, "audio_bit_rate": 0, "sample_rate": 0, "channels": 0, "duration": 86400.0, "vcodec": "", "height": 3827, "video_timebase": {"den": 30, "num": 1}, "has_video": true, "top_field_first": true, "file_size": "104140324"}, "perspective_c2_y": {"Points": [{"co": {"X": 1.0, "Y": -1.0}, "interpolation": 2}]}, "has_video": {"Points": [{"co": {"X": 1.0, "Y": -1.0}, "interpolation": 2}]}, "effects": [], "title": "Title-03.svg", "perspective_c3_x": {"Points": [{"co": {"X": 1.0, "Y": -1.0}, "interpolation": 2}]}, "crop_y": {"Points": [{"co": {"X": 1.0, "Y": 0.0}, "interpolation": 2}]}}], "partial": false, "value": {"location_x": {"Points": [{"co": {"X": 1.0, "Y": 0.0}, "interpolation": 2}]}, "wave_color": {"red": {"Points": [{"handle_type": 0, "interpolation": 0, "handle_left": {"X": 0.5, "Y": 1.0}, "co": {"X": 1.0, "Y": 0.0}, "handle_right": {"X": 0.5, "Y": 0.0}}]}, "alpha": {"Points": [{"handle_type": 0, "interpolation": 0, "handle_left": {"X": 0.5, "Y": 1.0}, "co": {"X": 1.0, "Y": 255.0}, "handle_right": {"X": 0.5, "Y": 0.0}}]}, "blue": {"Points": [{"handle_type": 0, "interpolation": 0, "handle_left": {"X": 0.5, "Y": 1.0}, "co": {"X": 1.0, "Y": 255.0}, "handle_right": {"X": 0.5, "Y": 0.0}}]}, "green": {"Points": [{"handle_type": 0, "interpolation": 0, "handle_left": {"X": 0.5, "Y": 1.0}, "co": {"X": 1.0, "Y": 123.0}, "handle_right": {"X": 0.5, "Y": 0.0}}]}}, "anchor": 0, "alpha": {"Points": [{"co": {"X": 1.0, "Y": 1.0}, "interpolation": 2}]}, "perspective_c3_y": {"Points": [{"co": {"X": 1.0, "Y": -1.0}, "interpolation": 2}]}, "file_id": "L6IRNOBSSR", "has_audio": {"Points": [{"co": {"X": 1.0, "Y": -1.0}, "interpolation": 2}]}, "gravity": 4, "perspective_c4_y": {"Points": [{"co": {"X": 1.0, "Y": -1.0}, "interpolation": 2}]}, "time": {"Points": [{"co": {"X": 1.0, "Y": 1.0}, "interpolation": 2}]}, "image": "/home/milind/.openshot_qt/thumbnail/L6IRNOBSSR.png", "layer": 3, "rotation": {"Points": [{"co": {"X": 1.0, "Y": 0.0}, "interpolation": 2}]}, "position": 31.36, "start": 0, "display": 0, "shear_y": {"Points": [{"co": {"X": 1.0, "Y": 0.0}, "interpolation": 2}]}, "crop_width": {"Points": [{"co": {"X": 1.0, "Y": -1.0}, "interpolation": 2}]}, "reader": {"audio_stream_index": -1, "path": "/home/milind/Data/Projects/ProgressCard/Title-04.svg", "video_stream_index": -1, "video_length": "2592000", "has_audio": false, "display_ratio": {"den": 3827, "num": 6803}, "video_bit_rate": 0, "audio_timebase": {"den": 1, "num": 1}, "channel_layout": 4, "fps": {"den": 1, "num": 30}, "has_single_image": true, "acodec": "", "width": 6803, "type": "QtImageReader", "interlaced_frame": false, "pixel_ratio": {"den": 1, "num": 1}, "audio_bit_rate": 0, "pixel_format": -1, "sample_rate": 0, "channels": 0, "duration": 86400.0, "vcodec": "", "height": 3827, "video_timebase": {"den": 30, "num": 1}, "has_video": true, "top_field_first": true, "file_size": "104140324"}, "end": 10, "scale_x": {"Points": [{"co": {"X": 1.0, "Y": 1.0}, "interpolation": 2}]}, "channel_mapping": {"Points": [{"co": {"X": 1.0, "Y": -1.0}, "interpolation": 2}]}, "perspective_c2_x": {"Points": [{"co": {"X": 1.0, "Y": -1.0}, "interpolation": 2}]}, "volume": {"Points": [{"co": {"X": 1.0, "Y": 1.0}, "interpolation": 2}]}, "channel_filter": {"Points": [{"co": {"X": 1.0, "Y": -1.0}, "interpolation": 2}]}, "waveform": false, "perspective_c1_y": {"Points": [{"co": {"X": 1.0, "Y": -1.0}, "interpolation": 2}]}, "scale_y": {"Points": [{"co": {"X": 1.0, "Y": 1.0}, "interpolation": 2}]}, "location_y": {"Points": [{"co": {"X": 1.0, "Y": 0.0}, "interpolation": 2}]}, "perspective_c3_x": {"Points": [{"co": {"X": 1.0, "Y": -1.0}, "interpolation": 2}]}, "perspective_c4_x": {"Points": [{"co": {"X": 1.0, "Y": -1.0}, "interpolation": 2}]}, "scale": 1, "crop_x": {"Points": [{"co": {"X": 1.0, "Y": 0.0}, "interpolation": 2}]}, "perspective_c1_x": {"Points": [{"co": {"X": 1.0, "Y": -1.0}, "interpolation": 2}]}, "duration": 86400.0, "shear_x": {"Points": [{"co": {"X": 1.0, "Y": 0.0}, "interpolation": 2}]}, "perspective_c2_y": {"Points": [{"co": {"X": 1.0, "Y": -1.0}, "interpolation": 2}]}, "effects": [], "crop_height": {"Points": [{"co": {"X": 1.0, "Y": -1.0}, "interpolation": 2}]}, "has_video": {"Points": [{"co": {"X": 1.0, "Y": -1.0}, "interpolation": 2}]}, "title": "Title-04.svg", "id": "CK4CCQ0JJP", "crop_y": {"Points": [{"co": {"X": 1.0, "Y": 0.0}, "interpolation": 2}]}}}, {"type": "update", "key": ["clips", {"id": "CK4CCQ0JJP"}], "old_values": {"anchor": 0, "location_x": {"Points": [{"co": {"X": 1.0, "Y": 0.0}, "interpolation": 2}]}, "crop_height": {"Points": [{"co": {"X": 1.0, "Y": -1.0}, "interpolation": 2}]}, "wave_color": {"red": {"Points": [{"handle_type": 0, "handle_right": {"X": 0.5, "Y": 0.0}, "handle_left": {"X": 0.5, "Y": 1.0}, "co": {"X": 1.0, "Y": 0.0}, "interpolation": 0}]}, "alpha": {"Points": [{"handle_type": 0, "handle_right": {"X": 0.5, "Y": 0.0}, "handle_left": {"X": 0.5, "Y": 1.0}, "co": {"X": 1.0, "Y": 255.0}, "interpolation": 0}]}, "blue": {"Points": [{"handle_type": 0, "handle_right": {"X": 0.5, "Y": 0.0}, "handle_left": {"X": 0.5, "Y": 1.0}, "co": {"X": 1.0, "Y": 255.0}, "interpolation": 0}]}, "green": {"Points": [{"handle_type": 0, "handle_right": {"X": 0.5, "Y": 0.0}, "handle_left": {"X": 0.5, "Y": 1.0}, "co": {"X": 1.0, "Y": 123.0}, "interpolation": 0}]}}, "perspective_c1_x": {"Points": [{"co": {"X": 1.0, "Y": -1.0}, "interpolation": 2}]}, "alpha": {"Points": [{"co": {"X": 1.0, "Y": 1.0}, "interpolation": 2}]}, "file_id": "L6IRNOBSSR", "has_audio": {"Points": [{"co": {"X": 1.0, "Y": -1.0}, "interpolation": 2}]}, "gravity": 4, "perspective_c4_y": {"Points": [{"co": {"X": 1.0, "Y": -1.0}, "interpolation": 2}]}, "time": {"Points": [{"co": {"X": 1.0, "Y": 1.0}, "interpolation": 2}]}, "scale_y": {"Points": [{"co": {"X": 1.0, "Y": 1.0}, "interpolation": 2}]}, "layer": 4, "rotation": {"Points": [{"co": {"X": 1.0, "Y": 0.0}, "interpolation": 2}]}, "position": 47.52, "start": 0.0, "shear_y": {"Points": [{"co": {"X": 1.0, "Y": 0.0}, "interpolation": 2}]}, "display": 0, "image": "/home/milind/.openshot_qt/thumbnail/L6IRNOBSSR.png", "perspective_c2_x": {"Points": [{"co": {"X": 1.0, "Y": -1.0}, "interpolation": 2}]}, "end": 10.0, "channel_mapping": {"Points": [{"co": {"X": 1.0, "Y": -1.0}, "interpolation": 2}]}, "scale": 1, "volume": {"Points": [{"co": {"X": 1.0, "Y": 1.0}, "interpolation": 2}]}, "crop_width": {"Points": [{"co": {"X": 1.0, "Y": -1.0}, "interpolation": 2}]}, "waveform": false, "perspective_c1_y": {"Points": [{"co": {"X": 1.0, "Y": -1.0}, "interpolation": 2}]}, "perspective_c3_y": {"Points": [{"co": {"X": 1.0, "Y": -1.0}, "interpolation": 2}]}, "location_y": {"Points": [{"co": {"X": 1.0, "Y": 0.0}, "interpolation": 2}]}, "perspective_c3_x": {"Points": [{"co": {"X": 1.0, "Y": -1.0}, "interpolation": 2}]}, "perspective_c4_x": {"Points": [{"co": {"X": 1.0, "Y": -1.0}, "interpolation": 2}]}, "shear_x": {"Points": [{"co": {"X": 1.0, "Y": 0.0}, "interpolation": 2}]}, "duration": 86400.0, "crop_x": {"Points": [{"co": {"X": 1.0, "Y": 0.0}, "interpolation": 2}]}, "scale_x": {"Points": [{"co": {"X": 1.0, "Y": 1.0}, "interpolation": 2}]}, "crop_y": {"Points": [{"co": {"X": 1.0, "Y": 0.0}, "interpolation": 2}]}, "reader": {"audio_stream_index": -1, "path": "/home/milind/Data/Projects/ProgressCard/Title-04.svg", "video_stream_index": -1, "video_length": "2592000", "has_audio": false, "display_ratio": {"den": 3827, "num": 6803}, "video_bit_rate": 0, "audio_timebase": {"den": 1, "num": 1}, "channel_layout": 4, "fps": {"den": 1, "num": 30}, "has_single_image": true, "acodec": "", "width": 6803, "type": "QtImageReader", "interlaced_frame": false, "pixel_ratio": {"den": 1, "num": 1}, "pixel_format": -1, "audio_bit_rate": 0, "sample_rate": 0, "channels": 0, "duration": 86400.0, "vcodec": "", "height": 3827, "video_timebase": {"den": 30, "num": 1}, "has_video": true, "top_field_first": true, "file_size": "104140324"}, "perspective_c2_y": {"Points": [{"co": {"X": 1.0, "Y": -1.0}, "interpolation": 2}]}, "has_video": {"Points": [{"co": {"X": 1.0, "Y": -1.0}, "interpolation": 2}]}, "effects": [], "title": "Title-04.svg", "id": "CK4CCQ0JJP", "channel_filter": {"Points": [{"co": {"X": 1.0, "Y": -1.0}, "interpolation": 2}]}}, "partial": false, "value": {"layer": 3, "image": "/home/milind/.openshot_qt/thumbnail/L6IRNOBSSR.png", "position": 31.36, "start": 0, "id": "CK4CCQ0JJP", "end": 10}}, {"type": "update", "key": ["clips", {"id": "ACC3WDPIBO"}], "old_values": {"location_x": {"Points": [{"co": {"X": 1.0, "Y": 0.0}, "interpolation": 2}, {"handle_type": 0, "handle_right": {"X": 0.5, "Y": 0.0}, "handle_left": {"X": 0.5, "Y": 1.0}, "co": {"X": 1.0, "Y": 1.0}, "interpolation": 0}, {"handle_type": 0, "handle_right": {"X": 0.5, "Y": 0.0}, "handle_left": {"X": 0.5, "Y": 1.0}, "co": {"X": 25.0, "Y": 0.0}, "interpolation": 0}]}, "crop_height": {"Points": [{"co": {"X": 1.0, "Y": -1.0}, "interpolation": 2}]}, "wave_color": {"red": {"Points": [{"handle_type": 0, "handle_right": {"X": 0.5, "Y": 0.0}, "handle_left": {"X": 0.5, "Y": 1.0}, "co": {"X": 1.0, "Y": 0.0}, "interpolation": 0}]}, "alpha": {"Points": [{"handle_type": 0, "handle_right": {"X": 0.5, "Y": 0.0}, "handle_left": {"X": 0.5, "Y": 1.0}, "co": {"X": 1.0, "Y": 255.0}, "interpolation": 0}]}, "blue": {"Points": [{"handle_type": 0, "handle_right": {"X": 0.5, "Y": 0.0}, "handle_left": {"X": 0.5, "Y": 1.0}, "co": {"X": 1.0, "Y": 255.0}, "interpolation": 0}]}, "green": {"Points": [{"handle_type": 0, "handle_right": {"X": 0.5, "Y": 0.0}, "handle_left": {"X": 0.5, "Y": 1.0}, "co": {"X": 1.0, "Y": 123.0}, "interpolation": 0}]}}, "anchor": 0, "alpha": {"Points": [{"co": {"X": 1.0, "Y": 1.0}, "interpolation": 2}]}, "crop_y": {"Points": [{"co": {"X": 1.0, "Y": 0.0}, "interpolation": 2}]}, "file_id": "EYET6E4WCX", "has_audio": {"Points": [{"co": {"X": 1.0, "Y": -1.0}, "interpolation": 2}]}, "gravity": 4, "perspective_c4_y": {"Points": [{"co": {"X": 1.0, "Y": -1.0}, "interpolation": 2}]}, "time": {"Points": [{"co": {"X": 1.0, "Y": 1.0}, "interpolation": 2}]}, "scale_y": {"Points": [{"co": {"X": 1.0, "Y": 1.0}, "interpolation": 2}]}, "layer": 4, "rotation": {"Points": [{"co": {"X": 1.0, "Y": 0.0}, "interpolation": 2}]}, "position": 53.92, "start": 0, "has_video": {"Points": [{"co": {"X": 1.0, "Y": -1.0}, "interpolation": 2}]}, "shear_y": {"Points": [{"co": {"X": 1.0, "Y": 0.0}, "interpolation": 2}]}, "display": 0, "perspective_c2_x": {"Points": [{"co": {"X": 1.0, "Y": -1.0}, "interpolation": 2}]}, "end": 10, "reader": {"audio_stream_index": -1, "video_stream_index": -1, "path": "/home/milind/Data/Projects/ProgressCard/intro.png", "video_length": "2592000", "has_audio": false, "display_ratio": {"den": 169, "num": 661}, "video_bit_rate": 0, "audio_timebase": {"den": 1, "num": 1}, "vcodec": "", "video_timebase": {"den": 30, "num": 1}, "fps": {"den": 1, "num": 30}, "has_single_image": true, "acodec": "", "width": 661, "type": "QtImageReader", "interlaced_frame": false, "pixel_ratio": {"den": 1, "num": 1}, "audio_bit_rate": 0, "pixel_format": -1, "sample_rate": 0, "channels": 0, "duration": 86400.0, "channel_layout": 4, "height": 169, "has_video": true, "top_field_first": true, "file_size": "446836"}, "perspective_c3_x": {"Points": [{"co": {"X": 1.0, "Y": -1.0}, "interpolation": 2}]}, "volume": {"Points": [{"co": {"X": 1.0, "Y": 1.0}, "interpolation": 2}]}, "channel_filter": {"Points": [{"co": {"X": 1.0, "Y": -1.0}, "interpolation": 2}]}, "waveform": false, "perspective_c1_y": {"Points": [{"co": {"X": 1.0, "Y": -1.0}, "interpolation": 2}]}, "perspective_c3_y": {"Points": [{"co": {"X": 1.0, "Y": -1.0}, "interpolation": 2}]}, "location_y": {"Points": [{"co": {"X": 1.0, "Y": 0.0}, "interpolation": 2}, {"handle_type": 0, "handle_right": {"X": 0.5, "Y": 0.0}, "handle_left": {"X": 0.5, "Y": 1.0}, "co": {"X": 1.0, "Y": 0.0}, "interpolation": 0}, {"handle_type": 0, "handle_right": {"X": 0.5, "Y": 0.0}, "handle_left": {"X": 0.5, "Y": 1.0}, "co": {"X": 25.0, "Y": 0.0}, "interpolation": 0}]}, "perspective_c4_x": {"Points": [{"co": {"X": 1.0, "Y": -1.0}, "interpolation": 2}]}, "id": "ACC3WDPIBO", "duration": 86400.0, "crop_x": {"Points": [{"co": {"X": 1.0, "Y": 0.0}, "interpolation": 2}]}, "scale_x": {"Points": [{"co": {"X": 1.0, "Y": 1.0}, "interpolation": 2}]}, "image": "/home/milind/.openshot_qt/thumbnail/EYET6E4WCX.png", "shear_x": {"Points": [{"co": {"X": 1.0, "Y": 0.0}, "interpolation": 2}]}, "perspective_c1_x": {"Points": [{"co": {"X": 1.0, "Y": -1.0}, "interpolation": 2}]}, "perspective_c2_y": {"Points": [{"co": {"X": 1.0, "Y": -1.0}, "interpolation": 2}]}, "channel_mapping": {"Points": [{"co": {"X": 1.0, "Y": -1.0}, "interpolation": 2}]}, "effects": [], "title": "intro.png", "scale": 1, "crop_width": {"Points": [{"co": {"X": 1.0, "Y": -1.0}, "interpolation": 2}]}}, "partial": false, "value": {"layer": 4, "image": "/home/milind/.openshot_qt/thumbnail/EYET6E4WCX.png", "position": 41.28, "start": 0, "id": "ACC3WDPIBO", "end": 10}}, {"type": "update", "key": ["clips", {"id": "2TGY3MFOSA"}], "old_values": {"location_x": {"Points": [{"co": {"X": 1.0, "Y": 0.0}, "interpolation": 2}]}, "crop_height": {"Points": [{"co": {"X": 1.0, "Y": -1.0}, "interpolation": 2}]}, "wave_color": {"red": {"Points": [{"handle_type": 0, "handle_right": {"X": 0.5, "Y": 0.0}, "handle_left": {"X": 0.5, "Y": 1.0}, "co": {"X": 1.0, "Y": 0.0}, "interpolation": 0}]}, "alpha": {"Points": [{"handle_type": 0, "handle_right": {"X": 0.5, "Y": 0.0}, "handle_left": {"X": 0.5, "Y": 1.0}, "co": {"X": 1.0, "Y": 255.0}, "interpolation": 0}]}, "blue": {"Points": [{"handle_type": 0, "handle_right": {"X": 0.5, "Y": 0.0}, "handle_left": {"X": 0.5, "Y": 1.0}, "co": {"X": 1.0, "Y": 255.0}, "interpolation": 0}]}, "green": {"Points": [{"handle_type": 0, "handle_right": {"X": 0.5, "Y": 0.0}, "handle_left": {"X": 0.5, "Y": 1.0}, "co": {"X": 1.0, "Y": 123.0}, "interpolation": 0}]}}, "id": "2TGY3MFOSA", "anchor": 0, "alpha": {"Points": [{"co": {"X": 1.0, "Y": 1.0}, "interpolation": 2}]}, "perspective_c1_x": {"Points": [{"co": {"X": 1.0, "Y": -1.0}, "interpolation": 2}]}, "file_id": "P90UHAKE08", "has_audio": {"Points": [{"co": {"X": 1.0, "Y": -1.0}, "interpolation": 2}]}, "gravity": 4, "perspective_c4_y": {"Points": [{"co": {"X": 1.0, "Y": -1.0}, "interpolation": 2}]}, "time": {"Points": [{"co": {"X": 1.0, "Y": 1.0}, "interpolation": 2}]}, "perspective_c3_y": {"Points": [{"co": {"X": 1.0, "Y": -1.0}, "interpolation": 2}]}, "layer": 0, "rotation": {"Points": [{"co": {"X": 1.0, "Y": 0.0}, "interpolation": 2}]}, "position": 0.64, "start": 0, "shear_y": {"Points": [{"co": {"X": 1.0, "Y": 0.0}, "interpolation": 2}]}, "display": 0, "scale_y": {"Points": [{"co": {"X": 1.0, "Y": 1.0}, "interpolation": 2}]}, "perspective_c2_x": {"Points": [{"co": {"X": 1.0, "Y": -1.0}, "interpolation": 2}]}, "end": 10, "channel_mapping": {"Points": [{"co": {"X": 1.0, "Y": -1.0}, "interpolation": 2}]}, "volume": {"Points": [{"co": {"X": 1.0, "Y": 1.0}, "interpolation": 2}]}, "crop_width": {"Points": [{"co": {"X": 1.0, "Y": -1.0}, "interpolation": 2}]}, "waveform": false, "perspective_c1_y": {"Points": [{"co": {"X": 1.0, "Y": -1.0}, "interpolation": 2}]}, "channel_filter": {"Points": [{"co": {"X": 1.0, "Y": -1.0}, "interpolation": 2}]}, "location_y": {"Points": [{"co": {"X": 1.0, "Y": 0.0}, "interpolation": 2}]}, "perspective_c4_x": {"Points": [{"co": {"X": 1.0, "Y": -1.0}, "interpolation": 2}]}, "scale": 1, "duration": 86400.0, "crop_x": {"Points": [{"co": {"X": 1.0, "Y": 0.0}, "interpolation": 2}]}, "scale_x": {"Points": [{"co": {"X": 1.0, "Y": 1.0}, "interpolation": 2}]}, "image": "/home/milind/.openshot_qt/thumbnail/P90UHAKE08.png", "shear_x": {"Points": [{"co": {"X": 1.0, "Y": 0.0}, "interpolation": 2}]}, "reader": {"audio_stream_index": -1, "path": "/home/milind/Data/Projects/ProgressCard/Title-01.svg", "video_stream_index": -1, "video_length": "2592000", "has_audio": false, "display_ratio": {"den": 3827, "num": 6803}, "video_bit_rate": 0, "audio_timebase": {"den": 1, "num": 1}, "channel_layout": 4, "fps": {"den": 1, "num": 30}, "has_single_image": true, "acodec": "", "width": 6803, "type": "QtImageReader", "interlaced_frame": false, "pixel_ratio": {"den": 1, "num": 1}, "pixel_format": -1, "audio_bit_rate": 0, "sample_rate": 0, "channels": 0, "duration": 86400.0, "vcodec": "", "height": 3827, "video_timebase": {"den": 30, "num": 1}, "has_video": true, "top_field_first": true, "file_size": "104140324"}, "perspective_c2_y": {"Points": [{"co": {"X": 1.0, "Y": -1.0}, "interpolation": 2}]}, "has_video": {"Points": [{"co": {"X": 1.0, "Y": -1.0}, "interpolation": 2}]}, "effects": [], "title": "Title-01.svg", "perspective_c3_x": {"Points": [{"co": {"X": 1.0, "Y": -1.0}, "interpolation": 2}]}, "crop_y": {"Points": [{"co": {"X": 1.0, "Y": 0.0}, "interpolation": 2}]}}, "partial": false, "value": {"location_x": {"Points": [{"co": {"X": 1.0, "Y": 0.0}, "interpolation": 2}, {"handle_type": 0, "handle_right": {"X": 0.5, "Y": 0.0}, "handle_left": {"X": 0.5, "Y": 1.0}, "co": {"X": 1.0, "Y": 1.0}, "interpolation": 0}, {"handle_type": 0, "handle_right": {"X": 0.5, "Y": 0.0}, "handle_left": {"X": 0.5, "Y": 1.0}, "co": {"X": 25.0, "Y": 0.0}, "interpolation": 0}]}, "crop_height": {"Points": [{"co": {"X": 1.0, "Y": -1.0}, "interpolation": 2}]}, "wave_color": {"red": {"Points": [{"handle_type": 0, "handle_right": {"X": 0.5, "Y": 0.0}, "handle_left": {"X": 0.5, "Y": 1.0}, "co": {"X": 1.0, "Y": 0.0}, "interpolation": 0}]}, "alpha": {"Points": [{"handle_type": 0, "handle_right": {"X": 0.5, "Y": 0.0}, "handle_left": {"X": 0.5, "Y": 1.0}, "co": {"X": 1.0, "Y": 255.0}, "interpolation": 0}]}, "blue": {"Points": [{"handle_type": 0, "handle_right": {"X": 0.5, "Y": 0.0}, "handle_left": {"X": 0.5, "Y": 1.0}, "co": {"X": 1.0, "Y": 255.0}, "interpolation": 0}]}, "green": {"Points": [{"handle_type": 0, "handle_right": {"X": 0.5, "Y": 0.0}, "handle_left": {"X": 0.5, "Y": 1.0}, "co": {"X": 1.0, "Y": 123.0}, "interpolation": 0}]}}, "id": "2TGY3MFOSA", "anchor": 0, "alpha": {"Points": [{"co": {"X": 1.0, "Y": 1.0}, "interpolation": 2}]}, "crop_y": {"Points": [{"co": {"X": 1.0, "Y": 0.0}, "interpolation": 2}]}, "file_id": "P90UHAKE08", "has_audio": {"Points": [{"co": {"X": 1.0, "Y": -1.0}, "interpolation": 2}]}, "gravity": 4, "perspective_c4_y": {"Points": [{"co": {"X": 1.0, "Y": -1.0}, "interpolation": 2}]}, "time": {"Points": [{"co": {"X": 1.0, "Y": 1.0}, "interpolation": 2}]}, "perspective_c3_y": {"Points": [{"co": {"X": 1.0, "Y": -1.0}, "interpolation": 2}]}, "layer": 0, "rotation": {"Points": [{"co": {"X": 1.0, "Y": 0.0}, "interpolation": 2}]}, "position": 0.64, "start": 0, "shear_y": {"Points": [{"co": {"X": 1.0, "Y": 0.0}, "interpolation": 2}]}, "display": 0, "scale_y": {"Points": [{"co": {"X": 1.0, "Y": 1.0}, "interpolation": 2}]}, "perspective_c2_x": {"Points": [{"co": {"X": 1.0, "Y": -1.0}, "interpolation": 2}]}, "end": 10, "channel_mapping": {"Points": [{"co": {"X": 1.0, "Y": -1.0}, "interpolation": 2}]}, "volume": {"Points": [{"co": {"X": 1.0, "Y": 1.0}, "interpolation": 2}]}, "crop_width": {"Points": [{"co": {"X": 1.0, "Y": -1.0}, "interpolation": 2}]}, "waveform": false, "perspective_c1_y": {"Points": [{"co": {"X": 1.0, "Y": -1.0}, "interpolation": 2}]}, "channel_filter": {"Points": [{"co": {"X": 1.0, "Y": -1.0}, "interpolation": 2}]}, "location_y": {"Points": [{"co": {"X": 1.0, "Y": 0.0}, "interpolation": 2}, {"handle_type": 0, "handle_right": {"X": 0.5, "Y": 0.0}, "handle_left": {"X": 0.5, "Y": 1.0}, "co": {"X": 1.0, "Y": 0.0}, "interpolation": 0}, {"handle_type": 0, "handle_right": {"X": 0.5, "Y": 0.0}, "handle_left": {"X": 0.5, "Y": 1.0}, "co": {"X": 25.0, "Y": 0.0}, "interpolation": 0}]}, "perspective_c4_x": {"Points": [{"co": {"X": 1.0, "Y": -1.0}, "interpolation": 2}]}, "scale": 1, "duration": 86400.0, "crop_x": {"Points": [{"co": {"X": 1.0, "Y": 0.0}, "interpolation": 2}]}, "scale_x": {"Points": [{"co": {"X": 1.0, "Y": 1.0}, "interpolation": 2}]}, "image": "/home/milind/.openshot_qt/thumbnail/P90UHAKE08.png", "shear_x": {"Points": [{"co": {"X": 1.0, "Y": 0.0}, "interpolation": 2}]}, "perspective_c1_x": {"Points": [{"co": {"X": 1.0, "Y": -1.0}, "interpolation": 2}]}, "perspective_c2_y": {"Points": [{"co": {"X": 1.0, "Y": -1.0}, "interpolation": 2}]}, "has_video": {"Points": [{"co": {"X": 1.0, "Y": -1.0}, "interpolation": 2}]}, "effects": [], "title": "Title-01.svg", "perspective_c3_x": {"Points": [{"co": {"X": 1.0, "Y": -1.0}, "interpolation": 2}]}}}], "redo": []}, "id": "T0", "version": {"libopenshot": "0.1.9", "openshot-qt": "2.4.1"}, "duration": 300, "progress": [], "scale": 16, "markers": []}