{"fps": {"num": 24, "den": 1}, "settings": {}, "files": [{"fps": {"num": 25, "den": 1}, "video_timebase": {"num": 1, "den": 1000}, "audio_stream_index": -1, "audio_bit_rate": 0, "file_size": "1006948", "has_audio": false, "video_bit_rate": 0, "top_field_first": true, "video_stream_index": 0, "display_ratio": {"num": 683, "den": 384}, "height": 768, "pixel_ratio": {"num": 1, "den": 1}, "duration": 104.0, "id": "GWKYNKFKO2", "acodec": "", "interlaced_frame": false, "path": "Clips/08-Total of all subjects using SUM function.mkv", "channels": 0, "type": "FFmpegReader", "has_video": true, "vcodec": "h264", "width": 1366, "video_length": "2600", "has_single_image": false, "channel_layout": 4, "media_type": "video", "audio_timebase": {"num": 1, "den": 1}, "sample_rate": 0, "pixel_format": 0}, {"fps": {"num": 30, "den": 1}, "video_timebase": {"num": 1, "den": 30}, "audio_stream_index": -1, "audio_bit_rate": 0, "has_audio": false, "video_bit_rate": 0, "video_stream_index": -1, "display_ratio": {"num": 16, "den": 9}, "top_field_first": true, "pixel_ratio": {"num": 1, "den": 1}, "duration": 86400.0, "id": "JDM4CBY4WI", "height": 1080, "acodec": "", "interlaced_frame": false, "path": "Images/01-White-Background.svg", "channels": 0, "type": "QtImageReader", "has_video": true, "vcodec": "", "width": 1920, "sample_rate": 0, "file_size": "8294400", "channel_layout": 4, "media_type": "image", "has_single_image": true, "audio_timebase": {"num": 1, "den": 1}, "video_length": "2592000", "pixel_format": -1}], "history": {"undo": [{"value": {"start": 0.25, "shear_x": {"Points": [{"interpolation": 2, "co": {"Y": 0.0, "X": 1.0}}]}, "perspective_c1_y": {"Points": [{"interpolation": 2, "co": {"Y": -1.0, "X": 1.0}}]}, "wave_color": {"alpha": {"Points": [{"interpolation": 0, "handle_type": 0, "co": {"Y": 255.0, "X": 1.0}, "handle_left": {"Y": 1.0, "X": 0.5}, "handle_right": {"Y": 0.0, "X": 0.5}}]}, "red": {"Points": [{"interpolation": 0, "handle_type": 0, "co": {"Y": 0.0, "X": 1.0}, "handle_left": {"Y": 1.0, "X": 0.5}, "handle_right": {"Y": 0.0, "X": 0.5}}]}, "green": {"Points": [{"interpolation": 0, "handle_type": 0, "co": {"Y": 123.0, "X": 1.0}, "handle_left": {"Y": 1.0, "X": 0.5}, "handle_right": {"Y": 0.0, "X": 0.5}}]}, "blue": {"Points": [{"interpolation": 0, "handle_type": 0, "co": {"Y": 255.0, "X": 1.0}, "handle_left": {"Y": 1.0, "X": 0.5}, "handle_right": {"Y": 0.0, "X": 0.5}}]}}, "crop_width": {"Points": [{"interpolation": 2, "co": {"Y": -1.0, "X": 1.0}}]}, "scale_y": {"Points": [{"interpolation": 2, "co": {"Y": 1.0, "X": 1.0}}, {"interpolation": 1, "co": {"Y": 3.0, "X": 151}}, {"interpolation": 1, "co": {"Y": 1.0, "X": 2482}}, {"interpolation": 1, "co": {"Y": 3.0, "X": 2223}}, {"interpolation": 1, "co": {"Y": 2.6600000858306885, "X": 2432}}, {"interpolation": 1, "co": {"Y": 2.880000114440918, "X": 2378}}]}, "alpha": {"Points": [{"interpolation": 0, "handle_type": 0, "co": {"Y": 1.0, "X": 1.0}, "handle_left": {"Y": 1.0, "X": 0.5}, "handle_right": {"Y": 0.0, "X": 0.5}}, {"interpolation": 0, "handle_type": 0, "co": {"Y": 0.0, "X": 7.0}, "handle_left": {"Y": 1.0, "X": 0.5}, "handle_right": {"Y": 0.0, "X": 0.5}}, {"interpolation": 0, "handle_type": 0, "co": {"Y": 1.0, "X": 79.0}, "handle_left": {"Y": 1.0, "X": 0.5}, "handle_right": {"Y": 0.0, "X": 0.5}}, {"interpolation": 0, "handle_type": 0, "co": {"Y": 1.0, "X": 2378.0}, "handle_left": {"Y": 1.0, "X": 0.5}, "handle_right": {"Y": 0.0, "X": 0.5}}, {"interpolation": 0, "handle_type": 0, "co": {"Y": 0.0, "X": 2450.0}, "handle_left": {"Y": 1.0, "X": 0.5}, "handle_right": {"Y": 0.0, "X": 0.5}}]}, "anchor": 0, "rotation": {"Points": [{"interpolation": 2, "co": {"Y": 0.0, "X": 1.0}}]}, "has_audio": {"Points": [{"interpolation": 2, "co": {"Y": -1.0, "X": 1.0}}]}, "crop_height": {"Points": [{"interpolation": 2, "co": {"Y": -1.0, "X": 1.0}}]}, "crop_x": {"Points": [{"interpolation": 2, "co": {"Y": 0.0, "X": 1.0}}]}, "shear_y": {"Points": [{"interpolation": 2, "co": {"Y": 0.0, "X": 1.0}}]}, "channel_mapping": {"Points": [{"interpolation": 2, "co": {"Y": -1.0, "X": 1.0}}]}, "waveform": false, "title": "08-Total of all subjects using SUM function.mkv", "perspective_c4_y": {"Points": [{"interpolation": 2, "co": {"Y": -1.0, "X": 1.0}}]}, "end": 102.04166666666667, "perspective_c2_x": {"Points": [{"interpolation": 2, "co": {"Y": -1.0, "X": 1.0}}]}, "id": "CYO1OV270J", "scale_x": {"Points": [{"interpolation": 2, "co": {"Y": 1.0, "X": 1.0}}, {"interpolation": 1, "co": {"Y": 3.0, "X": 151}}, {"interpolation": 1, "co": {"Y": 1.0, "X": 2482}}, {"interpolation": 1, "co": {"Y": 3.0, "X": 2223}}, {"interpolation": 1, "co": {"Y": 2.6600000858306885, "X": 2432}}, {"interpolation": 1, "co": {"Y": 2.880000114440918, "X": 2378}}]}, "duration": 104.0, "position": 0, "location_y": {"Points": [{"interpolation": 2, "co": {"Y": 0.0, "X": 1.0}}, {"interpolation": 1, "co": {"Y": 0.699999988079071, "X": 151}}, {"interpolation": 1, "co": {"Y": 0.0, "X": 2482}}, {"interpolation": 1, "co": {"Y": 0.699999988079071, "X": 2223}}, {"interpolation": 1, "co": {"Y": 0.47999998927116394, "X": 2432}}]}, "perspective_c1_x": {"Points": [{"interpolation": 2, "co": {"Y": -1.0, "X": 1.0}}]}, "image": "/home/milind/.openshot_qt/thumbnail/19R3YN73LI-7.png", "effects": [], "reader": {"fps": {"num": 25, "den": 1}, "video_timebase": {"num": 1, "den": 1000}, "audio_stream_index": -1, "audio_bit_rate": 0, "has_audio": false, "video_bit_rate": 0, "video_stream_index": 0, "display_ratio": {"num": 683, "den": 384}, "height": 768, "pixel_ratio": {"num": 1, "den": 1}, "duration": 104.0, "top_field_first": true, "acodec": "", "interlaced_frame": false, "path": "/home/milind/Data/Projects/ProgressCard/08-Total of all subjects using SUM function.mkv", "channels": 0, "type": "FFmpegReader", "has_video": true, "vcodec": "h264", "width": 1366, "video_length": "2600", "file_size": "1006948", "channel_layout": 4, "has_single_image": false, "audio_timebase": {"num": 1, "den": 1}, "sample_rate": 0, "pixel_format": 0}, "perspective_c3_y": {"Points": [{"interpolation": 2, "co": {"Y": -1.0, "X": 1.0}}]}, "perspective_c4_x": {"Points": [{"interpolation": 2, "co": {"Y": -1.0, "X": 1.0}}]}, "scale": 1, "has_video": {"Points": [{"interpolation": 2, "co": {"Y": -1.0, "X": 1.0}}]}, "location_x": {"Points": [{"interpolation": 2, "co": {"Y": 0.0, "X": 1.0}}, {"interpolation": 1, "co": {"Y": 0.5, "X": 151}}, {"interpolation": 1, "co": {"Y": 0.0, "X": 2482}}, {"interpolation": 1, "co": {"Y": 0.5, "X": 2223}}, {"interpolation": 1, "co": {"Y": 0.41999998688697815, "X": 2432}}]}, "perspective_c2_y": {"Points": [{"interpolation": 2, "co": {"Y": -1.0, "X": 1.0}}]}, "channel_filter": {"Points": [{"interpolation": 2, "co": {"Y": -1.0, "X": 1.0}}]}, "volume": {"Points": [{"interpolation": 2, "co": {"Y": 1.0, "X": 1.0}}]}, "display": 0, "layer": 4, "perspective_c3_x": {"Points": [{"interpolation": 2, "co": {"Y": -1.0, "X": 1.0}}]}, "file_id": "0JJ5E6BUXT", "crop_y": {"Points": [{"interpolation": 2, "co": {"Y": 0.0, "X": 1.0}}]}, "gravity": 4, "time": {"Points": [{"interpolation": 2, "co": {"Y": 1.0, "X": 1.0}}]}}, "key": ["clips"], "old_values": [], "type": "insert", "partial": false}, {"value": {"image": "/home/milind/.openshot_qt/thumbnail/19R3YN73LI-7.png", "layer": 4, "start": 0.25, "end": 102.04166666666667, "id": "CYO1OV270J", "position": 0}, "key": ["clips", {"id": "CYO1OV270J"}], "old_values": {"start": 0.25, "shear_x": {"Points": [{"interpolation": 2, "co": {"Y": 0.0, "X": 1.0}}]}, "perspective_c1_y": {"Points": [{"interpolation": 2, "co": {"Y": -1.0, "X": 1.0}}]}, "wave_color": {"alpha": {"Points": [{"interpolation": 0, "handle_type": 0, "co": {"Y": 255.0, "X": 1.0}, "handle_left": {"Y": 1.0, "X": 0.5}, "handle_right": {"Y": 0.0, "X": 0.5}}]}, "red": {"Points": [{"interpolation": 0, "handle_type": 0, "co": {"Y": 0.0, "X": 1.0}, "handle_left": {"Y": 1.0, "X": 0.5}, "handle_right": {"Y": 0.0, "X": 0.5}}]}, "green": {"Points": [{"interpolation": 0, "handle_type": 0, "co": {"Y": 123.0, "X": 1.0}, "handle_left": {"Y": 1.0, "X": 0.5}, "handle_right": {"Y": 0.0, "X": 0.5}}]}, "blue": {"Points": [{"interpolation": 0, "handle_type": 0, "co": {"Y": 255.0, "X": 1.0}, "handle_left": {"Y": 1.0, "X": 0.5}, "handle_right": {"Y": 0.0, "X": 0.5}}]}}, "crop_width": {"Points": [{"interpolation": 2, "co": {"Y": -1.0, "X": 1.0}}]}, "scale_y": {"Points": [{"interpolation": 2, "co": {"Y": 1.0, "X": 1.0}}, {"interpolation": 1, "co": {"Y": 3.0, "X": 151}}, {"interpolation": 1, "co": {"Y": 1.0, "X": 2482}}, {"interpolation": 1, "co": {"Y": 3.0, "X": 2223}}, {"interpolation": 1, "co": {"Y": 2.6600000858306885, "X": 2432}}, {"interpolation": 1, "co": {"Y": 2.880000114440918, "X": 2378}}]}, "alpha": {"Points": [{"interpolation": 0, "handle_type": 0, "co": {"Y": 1.0, "X": 1.0}, "handle_left": {"Y": 1.0, "X": 0.5}, "handle_right": {"Y": 0.0, "X": 0.5}}, {"interpolation": 0, "handle_type": 0, "co": {"Y": 0.0, "X": 7.0}, "handle_left": {"Y": 1.0, "X": 0.5}, "handle_right": {"Y": 0.0, "X": 0.5}}, {"interpolation": 0, "handle_type": 0, "co": {"Y": 1.0, "X": 79.0}, "handle_left": {"Y": 1.0, "X": 0.5}, "handle_right": {"Y": 0.0, "X": 0.5}}, {"interpolation": 0, "handle_type": 0, "co": {"Y": 1.0, "X": 2378.0}, "handle_left": {"Y": 1.0, "X": 0.5}, "handle_right": {"Y": 0.0, "X": 0.5}}, {"interpolation": 0, "handle_type": 0, "co": {"Y": 0.0, "X": 2450.0}, "handle_left": {"Y": 1.0, "X": 0.5}, "handle_right": {"Y": 0.0, "X": 0.5}}]}, "perspective_c3_x": {"Points": [{"interpolation": 2, "co": {"Y": -1.0, "X": 1.0}}]}, "crop_height": {"Points": [{"interpolation": 2, "co": {"Y": -1.0, "X": 1.0}}]}, "has_audio": {"Points": [{"interpolation": 2, "co": {"Y": -1.0, "X": 1.0}}]}, "anchor": 0, "crop_x": {"Points": [{"interpolation": 2, "co": {"Y": 0.0, "X": 1.0}}]}, "shear_y": {"Points": [{"interpolation": 2, "co": {"Y": 0.0, "X": 1.0}}]}, "channel_mapping": {"Points": [{"interpolation": 2, "co": {"Y": -1.0, "X": 1.0}}]}, "waveform": false, "title": "08-Total of all subjects using SUM function.mkv", "perspective_c4_y": {"Points": [{"interpolation": 2, "co": {"Y": -1.0, "X": 1.0}}]}, "end": 102.04166666666667, "perspective_c2_x": {"Points": [{"interpolation": 2, "co": {"Y": -1.0, "X": 1.0}}]}, "id": "CYO1OV270J", "scale_x": {"Points": [{"interpolation": 2, "co": {"Y": 1.0, "X": 1.0}}, {"interpolation": 1, "co": {"Y": 3.0, "X": 151}}, {"interpolation": 1, "co": {"Y": 1.0, "X": 2482}}, {"interpolation": 1, "co": {"Y": 3.0, "X": 2223}}, {"interpolation": 1, "co": {"Y": 2.6600000858306885, "X": 2432}}, {"interpolation": 1, "co": {"Y": 2.880000114440918, "X": 2378}}]}, "duration": 104.0, "position": 19.52, "perspective_c1_x": {"Points": [{"interpolation": 2, "co": {"Y": -1.0, "X": 1.0}}]}, "image": "/home/milind/.openshot_qt/thumbnail/19R3YN73LI-7.png", "effects": [], "reader": {"fps": {"num": 25, "den": 1}, "video_timebase": {"num": 1, "den": 1000}, "audio_stream_index": -1, "audio_bit_rate": 0, "has_audio": false, "video_bit_rate": 0, "video_stream_index": 0, "display_ratio": {"num": 683, "den": 384}, "height": 768, "pixel_ratio": {"num": 1, "den": 1}, "duration": 104.0, "top_field_first": true, "acodec": "", "interlaced_frame": false, "path": "/home/milind/Data/Projects/ProgressCard/08-Total of all subjects using SUM function.mkv", "channels": 0, "type": "FFmpegReader", "has_video": true, "vcodec": "h264", "width": 1366, "video_length": "2600", "file_size": "1006948", "channel_layout": 4, "has_single_image": false, "audio_timebase": {"num": 1, "den": 1}, "sample_rate": 0, "pixel_format": 0}, "perspective_c3_y": {"Points": [{"interpolation": 2, "co": {"Y": -1.0, "X": 1.0}}]}, "rotation": {"Points": [{"interpolation": 2, "co": {"Y": 0.0, "X": 1.0}}]}, "perspective_c4_x": {"Points": [{"interpolation": 2, "co": {"Y": -1.0, "X": 1.0}}]}, "scale": 1, "has_video": {"Points": [{"interpolation": 2, "co": {"Y": -1.0, "X": 1.0}}]}, "location_x": {"Points": [{"interpolation": 2, "co": {"Y": 0.0, "X": 1.0}}, {"interpolation": 1, "co": {"Y": 0.5, "X": 151}}, {"interpolation": 1, "co": {"Y": 0.0, "X": 2482}}, {"interpolation": 1, "co": {"Y": 0.5, "X": 2223}}, {"interpolation": 1, "co": {"Y": 0.41999998688697815, "X": 2432}}]}, "perspective_c2_y": {"Points": [{"interpolation": 2, "co": {"Y": -1.0, "X": 1.0}}]}, "channel_filter": {"Points": [{"interpolation": 2, "co": {"Y": -1.0, "X": 1.0}}]}, "volume": {"Points": [{"interpolation": 2, "co": {"Y": 1.0, "X": 1.0}}]}, "display": 0, "layer": 4, "location_y": {"Points": [{"interpolation": 2, "co": {"Y": 0.0, "X": 1.0}}, {"interpolation": 1, "co": {"Y": 0.699999988079071, "X": 151}}, {"interpolation": 1, "co": {"Y": 0.0, "X": 2482}}, {"interpolation": 1, "co": {"Y": 0.699999988079071, "X": 2223}}, {"interpolation": 1, "co": {"Y": 0.47999998927116394, "X": 2432}}]}, "file_id": "0JJ5E6BUXT", "crop_y": {"Points": [{"interpolation": 2, "co": {"Y": 0.0, "X": 1.0}}]}, "gravity": 4, "time": {"Points": [{"interpolation": 2, "co": {"Y": 1.0, "X": 1.0}}]}}, "type": "update", "partial": false}, {"value": {"start": 0.25, "shear_x": {"Points": [{"interpolation": 2, "co": {"Y": 0.0, "X": 1.0}}]}, "perspective_c1_y": {"Points": [{"interpolation": 2, "co": {"Y": -1.0, "X": 1.0}}]}, "wave_color": {"alpha": {"Points": [{"interpolation": 0, "handle_type": 0, "co": {"Y": 255.0, "X": 1.0}, "handle_left": {"Y": 1.0, "X": 0.5}, "handle_right": {"Y": 0.0, "X": 0.5}}]}, "red": {"Points": [{"interpolation": 0, "handle_type": 0, "co": {"Y": 0.0, "X": 1.0}, "handle_left": {"Y": 1.0, "X": 0.5}, "handle_right": {"Y": 0.0, "X": 0.5}}]}, "green": {"Points": [{"interpolation": 0, "handle_type": 0, "co": {"Y": 123.0, "X": 1.0}, "handle_left": {"Y": 1.0, "X": 0.5}, "handle_right": {"Y": 0.0, "X": 0.5}}]}, "blue": {"Points": [{"interpolation": 0, "handle_type": 0, "co": {"Y": 255.0, "X": 1.0}, "handle_left": {"Y": 1.0, "X": 0.5}, "handle_right": {"Y": 0.0, "X": 0.5}}]}}, "crop_width": {"Points": [{"interpolation": 2, "co": {"Y": -1.0, "X": 1.0}}]}, "scale_y": {"Points": [{"interpolation": 2, "co": {"Y": 1.0, "X": 1.0}}, {"interpolation": 1, "co": {"Y": 3.0, "X": 151}}, {"interpolation": 1, "co": {"Y": 1.0, "X": 2482}}, {"interpolation": 1, "co": {"Y": 3.0, "X": 2223}}, {"interpolation": 1, "co": {"Y": 2.6600000858306885, "X": 2432}}, {"interpolation": 1, "co": {"Y": 2.880000114440918, "X": 2378}}]}, "alpha": {"Points": [{"interpolation": 0, "handle_type": 0, "co": {"Y": 1.0, "X": 1.0}, "handle_left": {"Y": 1.0, "X": 0.5}, "handle_right": {"Y": 0.0, "X": 0.5}}, {"interpolation": 0, "handle_type": 0, "co": {"Y": 0.0, "X": 7.0}, "handle_left": {"Y": 1.0, "X": 0.5}, "handle_right": {"Y": 0.0, "X": 0.5}}, {"interpolation": 0, "handle_type": 0, "co": {"Y": 1.0, "X": 79.0}, "handle_left": {"Y": 1.0, "X": 0.5}, "handle_right": {"Y": 0.0, "X": 0.5}}, {"interpolation": 0, "handle_type": 0, "co": {"Y": 1.0, "X": 2378.0}, "handle_left": {"Y": 1.0, "X": 0.5}, "handle_right": {"Y": 0.0, "X": 0.5}}, {"interpolation": 0, "handle_type": 0, "co": {"Y": 0.0, "X": 2450.0}, "handle_left": {"Y": 1.0, "X": 0.5}, "handle_right": {"Y": 0.0, "X": 0.5}}]}, "anchor": 0, "rotation": {"Points": [{"interpolation": 2, "co": {"Y": 0.0, "X": 1.0}}]}, "has_audio": {"Points": [{"interpolation": 2, "co": {"Y": -1.0, "X": 1.0}}]}, "crop_height": {"Points": [{"interpolation": 2, "co": {"Y": -1.0, "X": 1.0}}]}, "crop_x": {"Points": [{"interpolation": 2, "co": {"Y": 0.0, "X": 1.0}}]}, "shear_y": {"Points": [{"interpolation": 2, "co": {"Y": 0.0, "X": 1.0}}]}, "channel_mapping": {"Points": [{"interpolation": 2, "co": {"Y": -1.0, "X": 1.0}}]}, "waveform": false, "title": "08-Total of all subjects using SUM function.mkv", "perspective_c4_y": {"Points": [{"interpolation": 2, "co": {"Y": -1.0, "X": 1.0}}]}, "end": 102.04166666666667, "perspective_c2_x": {"Points": [{"interpolation": 2, "co": {"Y": -1.0, "X": 1.0}}]}, "id": "LSTE2K610M", "scale_x": {"Points": [{"interpolation": 2, "co": {"Y": 1.0, "X": 1.0}}, {"interpolation": 1, "co": {"Y": 3.0, "X": 151}}, {"interpolation": 1, "co": {"Y": 1.0, "X": 2482}}, {"interpolation": 1, "co": {"Y": 3.0, "X": 2223}}, {"interpolation": 1, "co": {"Y": 2.6600000858306885, "X": 2432}}, {"interpolation": 1, "co": {"Y": 2.880000114440918, "X": 2378}}]}, "duration": 104.0, "position": 0, "location_y": {"Points": [{"interpolation": 2, "co": {"Y": 0.0, "X": 1.0}}, {"interpolation": 1, "co": {"Y": 0.699999988079071, "X": 151}}, {"interpolation": 1, "co": {"Y": 0.0, "X": 2482}}, {"interpolation": 1, "co": {"Y": 0.699999988079071, "X": 2223}}, {"interpolation": 1, "co": {"Y": 0.47999998927116394, "X": 2432}}]}, "perspective_c1_x": {"Points": [{"interpolation": 2, "co": {"Y": -1.0, "X": 1.0}}]}, "image": "/home/milind/.openshot_qt/thumbnail/19R3YN73LI-7.png", "effects": [], "reader": {"fps": {"num": 25, "den": 1}, "video_timebase": {"num": 1, "den": 1000}, "audio_stream_index": -1, "audio_bit_rate": 0, "has_audio": false, "video_bit_rate": 0, "video_stream_index": 0, "display_ratio": {"num": 683, "den": 384}, "height": 768, "pixel_ratio": {"num": 1, "den": 1}, "duration": 104.0, "top_field_first": true, "acodec": "", "interlaced_frame": false, "path": "/home/milind/Data/Projects/ProgressCard/08-Total of all subjects using SUM function.mkv", "channels": 0, "type": "FFmpegReader", "has_video": true, "vcodec": "h264", "width": 1366, "video_length": "2600", "file_size": "1006948", "channel_layout": 4, "has_single_image": false, "audio_timebase": {"num": 1, "den": 1}, "sample_rate": 0, "pixel_format": 0}, "perspective_c3_y": {"Points": [{"interpolation": 2, "co": {"Y": -1.0, "X": 1.0}}]}, "perspective_c4_x": {"Points": [{"interpolation": 2, "co": {"Y": -1.0, "X": 1.0}}]}, "scale": 1, "has_video": {"Points": [{"interpolation": 2, "co": {"Y": -1.0, "X": 1.0}}]}, "location_x": {"Points": [{"interpolation": 2, "co": {"Y": 0.0, "X": 1.0}}, {"interpolation": 1, "co": {"Y": 0.5, "X": 151}}, {"interpolation": 1, "co": {"Y": 0.0, "X": 2482}}, {"interpolation": 1, "co": {"Y": 0.5, "X": 2223}}, {"interpolation": 1, "co": {"Y": 0.41999998688697815, "X": 2432}}]}, "perspective_c2_y": {"Points": [{"interpolation": 2, "co": {"Y": -1.0, "X": 1.0}}]}, "channel_filter": {"Points": [{"interpolation": 2, "co": {"Y": -1.0, "X": 1.0}}]}, "volume": {"Points": [{"interpolation": 2, "co": {"Y": 1.0, "X": 1.0}}]}, "display": 0, "layer": 3, "perspective_c3_x": {"Points": [{"interpolation": 2, "co": {"Y": -1.0, "X": 1.0}}]}, "file_id": "0JJ5E6BUXT", "crop_y": {"Points": [{"interpolation": 2, "co": {"Y": 0.0, "X": 1.0}}]}, "gravity": 4, "time": {"Points": [{"interpolation": 2, "co": {"Y": 1.0, "X": 1.0}}]}}, "key": ["clips"], "old_values": [{"start": 0.25, "shear_x": {"Points": [{"interpolation": 2, "co": {"Y": 0.0, "X": 1.0}}]}, "perspective_c1_y": {"Points": [{"interpolation": 2, "co": {"Y": -1.0, "X": 1.0}}]}, "wave_color": {"alpha": {"Points": [{"interpolation": 0, "handle_type": 0, "co": {"Y": 255.0, "X": 1.0}, "handle_left": {"Y": 1.0, "X": 0.5}, "handle_right": {"Y": 0.0, "X": 0.5}}]}, "red": {"Points": [{"interpolation": 0, "handle_type": 0, "co": {"Y": 0.0, "X": 1.0}, "handle_left": {"Y": 1.0, "X": 0.5}, "handle_right": {"Y": 0.0, "X": 0.5}}]}, "green": {"Points": [{"interpolation": 0, "handle_type": 0, "co": {"Y": 123.0, "X": 1.0}, "handle_left": {"Y": 1.0, "X": 0.5}, "handle_right": {"Y": 0.0, "X": 0.5}}]}, "blue": {"Points": [{"interpolation": 0, "handle_type": 0, "co": {"Y": 255.0, "X": 1.0}, "handle_left": {"Y": 1.0, "X": 0.5}, "handle_right": {"Y": 0.0, "X": 0.5}}]}}, "crop_width": {"Points": [{"interpolation": 2, "co": {"Y": -1.0, "X": 1.0}}]}, "scale_y": {"Points": [{"interpolation": 2, "co": {"Y": 1.0, "X": 1.0}}, {"interpolation": 1, "co": {"Y": 3.0, "X": 151}}, {"interpolation": 1, "co": {"Y": 1.0, "X": 2482}}, {"interpolation": 1, "co": {"Y": 3.0, "X": 2223}}, {"interpolation": 1, "co": {"Y": 2.6600000858306885, "X": 2432}}, {"interpolation": 1, "co": {"Y": 2.880000114440918, "X": 2378}}]}, "alpha": {"Points": [{"interpolation": 0, "handle_type": 0, "co": {"Y": 1.0, "X": 1.0}, "handle_left": {"Y": 1.0, "X": 0.5}, "handle_right": {"Y": 0.0, "X": 0.5}}, {"interpolation": 0, "handle_type": 0, "co": {"Y": 0.0, "X": 7.0}, "handle_left": {"Y": 1.0, "X": 0.5}, "handle_right": {"Y": 0.0, "X": 0.5}}, {"interpolation": 0, "handle_type": 0, "co": {"Y": 1.0, "X": 79.0}, "handle_left": {"Y": 1.0, "X": 0.5}, "handle_right": {"Y": 0.0, "X": 0.5}}, {"interpolation": 0, "handle_type": 0, "co": {"Y": 1.0, "X": 2378.0}, "handle_left": {"Y": 1.0, "X": 0.5}, "handle_right": {"Y": 0.0, "X": 0.5}}, {"interpolation": 0, "handle_type": 0, "co": {"Y": 0.0, "X": 2450.0}, "handle_left": {"Y": 1.0, "X": 0.5}, "handle_right": {"Y": 0.0, "X": 0.5}}]}, "crop_height": {"Points": [{"interpolation": 2, "co": {"Y": -1.0, "X": 1.0}}]}, "has_audio": {"Points": [{"interpolation": 2, "co": {"Y": -1.0, "X": 1.0}}]}, "anchor": 0, "crop_x": {"Points": [{"interpolation": 2, "co": {"Y": 0.0, "X": 1.0}}]}, "shear_y": {"Points": [{"interpolation": 2, "co": {"Y": 0.0, "X": 1.0}}]}, "channel_mapping": {"Points": [{"interpolation": 2, "co": {"Y": -1.0, "X": 1.0}}]}, "waveform": false, "title": "08-Total of all subjects using SUM function.mkv", "perspective_c4_y": {"Points": [{"interpolation": 2, "co": {"Y": -1.0, "X": 1.0}}]}, "perspective_c2_x": {"Points": [{"interpolation": 2, "co": {"Y": -1.0, "X": 1.0}}]}, "end": 102.04166666666667, "id": "CYO1OV270J", "scale_x": {"Points": [{"interpolation": 2, "co": {"Y": 1.0, "X": 1.0}}, {"interpolation": 1, "co": {"Y": 3.0, "X": 151}}, {"interpolation": 1, "co": {"Y": 1.0, "X": 2482}}, {"interpolation": 1, "co": {"Y": 3.0, "X": 2223}}, {"interpolation": 1, "co": {"Y": 2.6600000858306885, "X": 2432}}, {"interpolation": 1, "co": {"Y": 2.880000114440918, "X": 2378}}]}, "duration": 104.0, "position": 0, "location_y": {"Points": [{"interpolation": 2, "co": {"Y": 0.0, "X": 1.0}}, {"interpolation": 1, "co": {"Y": 0.699999988079071, "X": 151}}, {"interpolation": 1, "co": {"Y": 0.0, "X": 2482}}, {"interpolation": 1, "co": {"Y": 0.699999988079071, "X": 2223}}, {"interpolation": 1, "co": {"Y": 0.47999998927116394, "X": 2432}}]}, "image": "/home/milind/.openshot_qt/thumbnail/19R3YN73LI-7.png", "effects": [], "reader": {"fps": {"num": 25, "den": 1}, "video_timebase": {"num": 1, "den": 1000}, "audio_stream_index": -1, "audio_bit_rate": 0, "has_audio": false, "video_bit_rate": 0, "video_stream_index": 0, "display_ratio": {"num": 683, "den": 384}, "height": 768, "pixel_ratio": {"num": 1, "den": 1}, "duration": 104.0, "top_field_first": true, "acodec": "", "interlaced_frame": false, "path": "/home/milind/Data/Projects/ProgressCard/08-Total of all subjects using SUM function.mkv", "channels": 0, "type": "FFmpegReader", "has_video": true, "vcodec": "h264", "width": 1366, "video_length": "2600", "file_size": "1006948", "channel_layout": 4, "has_single_image": false, "audio_timebase": {"num": 1, "den": 1}, "sample_rate": 0, "pixel_format": 0}, "perspective_c3_y": {"Points": [{"interpolation": 2, "co": {"Y": -1.0, "X": 1.0}}]}, "rotation": {"Points": [{"interpolation": 2, "co": {"Y": 0.0, "X": 1.0}}]}, "perspective_c4_x": {"Points": [{"interpolation": 2, "co": {"Y": -1.0, "X": 1.0}}]}, "scale": 1, "has_video": {"Points": [{"interpolation": 2, "co": {"Y": -1.0, "X": 1.0}}]}, "location_x": {"Points": [{"interpolation": 2, "co": {"Y": 0.0, "X": 1.0}}, {"interpolation": 1, "co": {"Y": 0.5, "X": 151}}, {"interpolation": 1, "co": {"Y": 0.0, "X": 2482}}, {"interpolation": 1, "co": {"Y": 0.5, "X": 2223}}, {"interpolation": 1, "co": {"Y": 0.41999998688697815, "X": 2432}}]}, "perspective_c2_y": {"Points": [{"interpolation": 2, "co": {"Y": -1.0, "X": 1.0}}]}, "channel_filter": {"Points": [{"interpolation": 2, "co": {"Y": -1.0, "X": 1.0}}]}, "volume": {"Points": [{"interpolation": 2, "co": {"Y": 1.0, "X": 1.0}}]}, "display": 0, "layer": 4, "perspective_c3_x": {"Points": [{"interpolation": 2, "co": {"Y": -1.0, "X": 1.0}}]}, "file_id": "0JJ5E6BUXT", "perspective_c1_x": {"Points": [{"interpolation": 2, "co": {"Y": -1.0, "X": 1.0}}]}, "crop_y": {"Points": [{"interpolation": 2, "co": {"Y": 0.0, "X": 1.0}}]}, "gravity": 4, "time": {"Points": [{"interpolation": 2, "co": {"Y": 1.0, "X": 1.0}}]}}], "type": "insert", "partial": false}, {"value": {"image": "/home/milind/.openshot_qt/thumbnail/19R3YN73LI-7.png", "layer": 3, "start": 0.25, "end": 102.04166666666667, "id": "LSTE2K610M", "position": 9.92}, "key": ["clips", {"id": "LSTE2K610M"}], "old_values": {"start": 0.25, "shear_x": {"Points": [{"interpolation": 2, "co": {"Y": 0.0, "X": 1.0}}]}, "perspective_c1_y": {"Points": [{"interpolation": 2, "co": {"Y": -1.0, "X": 1.0}}]}, "wave_color": {"alpha": {"Points": [{"interpolation": 0, "handle_type": 0, "co": {"Y": 255.0, "X": 1.0}, "handle_left": {"Y": 1.0, "X": 0.5}, "handle_right": {"Y": 0.0, "X": 0.5}}]}, "red": {"Points": [{"interpolation": 0, "handle_type": 0, "co": {"Y": 0.0, "X": 1.0}, "handle_left": {"Y": 1.0, "X": 0.5}, "handle_right": {"Y": 0.0, "X": 0.5}}]}, "green": {"Points": [{"interpolation": 0, "handle_type": 0, "co": {"Y": 123.0, "X": 1.0}, "handle_left": {"Y": 1.0, "X": 0.5}, "handle_right": {"Y": 0.0, "X": 0.5}}]}, "blue": {"Points": [{"interpolation": 0, "handle_type": 0, "co": {"Y": 255.0, "X": 1.0}, "handle_left": {"Y": 1.0, "X": 0.5}, "handle_right": {"Y": 0.0, "X": 0.5}}]}}, "crop_width": {"Points": [{"interpolation": 2, "co": {"Y": -1.0, "X": 1.0}}]}, "scale_y": {"Points": [{"interpolation": 2, "co": {"Y": 1.0, "X": 1.0}}, {"interpolation": 1, "co": {"Y": 3.0, "X": 151}}, {"interpolation": 1, "co": {"Y": 1.0, "X": 2482}}, {"interpolation": 1, "co": {"Y": 3.0, "X": 2223}}, {"interpolation": 1, "co": {"Y": 2.6600000858306885, "X": 2432}}, {"interpolation": 1, "co": {"Y": 2.880000114440918, "X": 2378}}]}, "alpha": {"Points": [{"interpolation": 0, "handle_type": 0, "co": {"Y": 1.0, "X": 1.0}, "handle_left": {"Y": 1.0, "X": 0.5}, "handle_right": {"Y": 0.0, "X": 0.5}}, {"interpolation": 0, "handle_type": 0, "co": {"Y": 0.0, "X": 7.0}, "handle_left": {"Y": 1.0, "X": 0.5}, "handle_right": {"Y": 0.0, "X": 0.5}}, {"interpolation": 0, "handle_type": 0, "co": {"Y": 1.0, "X": 79.0}, "handle_left": {"Y": 1.0, "X": 0.5}, "handle_right": {"Y": 0.0, "X": 0.5}}, {"interpolation": 0, "handle_type": 0, "co": {"Y": 1.0, "X": 2378.0}, "handle_left": {"Y": 1.0, "X": 0.5}, "handle_right": {"Y": 0.0, "X": 0.5}}, {"interpolation": 0, "handle_type": 0, "co": {"Y": 0.0, "X": 2450.0}, "handle_left": {"Y": 1.0, "X": 0.5}, "handle_right": {"Y": 0.0, "X": 0.5}}]}, "perspective_c3_x": {"Points": [{"interpolation": 2, "co": {"Y": -1.0, "X": 1.0}}]}, "crop_height": {"Points": [{"interpolation": 2, "co": {"Y": -1.0, "X": 1.0}}]}, "has_audio": {"Points": [{"interpolation": 2, "co": {"Y": -1.0, "X": 1.0}}]}, "anchor": 0, "crop_x": {"Points": [{"interpolation": 2, "co": {"Y": 0.0, "X": 1.0}}]}, "shear_y": {"Points": [{"interpolation": 2, "co": {"Y": 0.0, "X": 1.0}}]}, "channel_mapping": {"Points": [{"interpolation": 2, "co": {"Y": -1.0, "X": 1.0}}]}, "waveform": false, "title": "08-Total of all subjects using SUM function.mkv", "perspective_c4_y": {"Points": [{"interpolation": 2, "co": {"Y": -1.0, "X": 1.0}}]}, "end": 102.04166666666667, "perspective_c2_x": {"Points": [{"interpolation": 2, "co": {"Y": -1.0, "X": 1.0}}]}, "id": "LSTE2K610M", "scale_x": {"Points": [{"interpolation": 2, "co": {"Y": 1.0, "X": 1.0}}, {"interpolation": 1, "co": {"Y": 3.0, "X": 151}}, {"interpolation": 1, "co": {"Y": 1.0, "X": 2482}}, {"interpolation": 1, "co": {"Y": 3.0, "X": 2223}}, {"interpolation": 1, "co": {"Y": 2.6600000858306885, "X": 2432}}, {"interpolation": 1, "co": {"Y": 2.880000114440918, "X": 2378}}]}, "duration": 104.0, "position": 20.48, "perspective_c1_x": {"Points": [{"interpolation": 2, "co": {"Y": -1.0, "X": 1.0}}]}, "image": "/home/milind/.openshot_qt/thumbnail/19R3YN73LI-7.png", "effects": [], "reader": {"fps": {"num": 25, "den": 1}, "video_timebase": {"num": 1, "den": 1000}, "audio_stream_index": -1, "audio_bit_rate": 0, "has_audio": false, "video_bit_rate": 0, "video_stream_index": 0, "display_ratio": {"num": 683, "den": 384}, "height": 768, "pixel_ratio": {"num": 1, "den": 1}, "duration": 104.0, "top_field_first": true, "acodec": "", "interlaced_frame": false, "path": "/home/milind/Data/Projects/ProgressCard/08-Total of all subjects using SUM function.mkv", "channels": 0, "type": "FFmpegReader", "has_video": true, "vcodec": "h264", "width": 1366, "video_length": "2600", "file_size": "1006948", "channel_layout": 4, "has_single_image": false, "audio_timebase": {"num": 1, "den": 1}, "sample_rate": 0, "pixel_format": 0}, "perspective_c3_y": {"Points": [{"interpolation": 2, "co": {"Y": -1.0, "X": 1.0}}]}, "rotation": {"Points": [{"interpolation": 2, "co": {"Y": 0.0, "X": 1.0}}]}, "perspective_c4_x": {"Points": [{"interpolation": 2, "co": {"Y": -1.0, "X": 1.0}}]}, "scale": 1, "has_video": {"Points": [{"interpolation": 2, "co": {"Y": -1.0, "X": 1.0}}]}, "location_x": {"Points": [{"interpolation": 2, "co": {"Y": 0.0, "X": 1.0}}, {"interpolation": 1, "co": {"Y": 0.5, "X": 151}}, {"interpolation": 1, "co": {"Y": 0.0, "X": 2482}}, {"interpolation": 1, "co": {"Y": 0.5, "X": 2223}}, {"interpolation": 1, "co": {"Y": 0.41999998688697815, "X": 2432}}]}, "perspective_c2_y": {"Points": [{"interpolation": 2, "co": {"Y": -1.0, "X": 1.0}}]}, "channel_filter": {"Points": [{"interpolation": 2, "co": {"Y": -1.0, "X": 1.0}}]}, "volume": {"Points": [{"interpolation": 2, "co": {"Y": 1.0, "X": 1.0}}]}, "display": 0, "layer": 3, "location_y": {"Points": [{"interpolation": 2, "co": {"Y": 0.0, "X": 1.0}}, {"interpolation": 1, "co": {"Y": 0.699999988079071, "X": 151}}, {"interpolation": 1, "co": {"Y": 0.0, "X": 2482}}, {"interpolation": 1, "co": {"Y": 0.699999988079071, "X": 2223}}, {"interpolation": 1, "co": {"Y": 0.47999998927116394, "X": 2432}}]}, "file_id": "0JJ5E6BUXT", "crop_y": {"Points": [{"interpolation": 2, "co": {"Y": 0.0, "X": 1.0}}]}, "gravity": 4, "time": {"Points": [{"interpolation": 2, "co": {"Y": 1.0, "X": 1.0}}]}}, "type": "update", "partial": false}, {"value": {"image": "/home/milind/.openshot_qt/thumbnail/19R3YN73LI-7.png", "layer": 3, "start": 0.25, "end": 102.04166666666667, "id": "LSTE2K610M", "position": 0}, "key": ["clips", {"id": "LSTE2K610M"}], "old_values": {"start": 0.25, "shear_x": {"Points": [{"interpolation": 2, "co": {"Y": 0.0, "X": 1.0}}]}, "perspective_c1_y": {"Points": [{"interpolation": 2, "co": {"Y": -1.0, "X": 1.0}}]}, "wave_color": {"alpha": {"Points": [{"interpolation": 0, "handle_type": 0, "co": {"Y": 255.0, "X": 1.0}, "handle_left": {"Y": 1.0, "X": 0.5}, "handle_right": {"Y": 0.0, "X": 0.5}}]}, "red": {"Points": [{"interpolation": 0, "handle_type": 0, "co": {"Y": 0.0, "X": 1.0}, "handle_left": {"Y": 1.0, "X": 0.5}, "handle_right": {"Y": 0.0, "X": 0.5}}]}, "green": {"Points": [{"interpolation": 0, "handle_type": 0, "co": {"Y": 123.0, "X": 1.0}, "handle_left": {"Y": 1.0, "X": 0.5}, "handle_right": {"Y": 0.0, "X": 0.5}}]}, "blue": {"Points": [{"interpolation": 0, "handle_type": 0, "co": {"Y": 255.0, "X": 1.0}, "handle_left": {"Y": 1.0, "X": 0.5}, "handle_right": {"Y": 0.0, "X": 0.5}}]}}, "crop_width": {"Points": [{"interpolation": 2, "co": {"Y": -1.0, "X": 1.0}}]}, "scale_y": {"Points": [{"interpolation": 2, "co": {"Y": 1.0, "X": 1.0}}, {"interpolation": 1, "co": {"Y": 3.0, "X": 151}}, {"interpolation": 1, "co": {"Y": 1.0, "X": 2482}}, {"interpolation": 1, "co": {"Y": 3.0, "X": 2223}}, {"interpolation": 1, "co": {"Y": 2.6600000858306885, "X": 2432}}, {"interpolation": 1, "co": {"Y": 2.880000114440918, "X": 2378}}]}, "alpha": {"Points": [{"interpolation": 0, "handle_type": 0, "co": {"Y": 1.0, "X": 1.0}, "handle_left": {"Y": 1.0, "X": 0.5}, "handle_right": {"Y": 0.0, "X": 0.5}}, {"interpolation": 0, "handle_type": 0, "co": {"Y": 0.0, "X": 7.0}, "handle_left": {"Y": 1.0, "X": 0.5}, "handle_right": {"Y": 0.0, "X": 0.5}}, {"interpolation": 0, "handle_type": 0, "co": {"Y": 1.0, "X": 79.0}, "handle_left": {"Y": 1.0, "X": 0.5}, "handle_right": {"Y": 0.0, "X": 0.5}}, {"interpolation": 0, "handle_type": 0, "co": {"Y": 1.0, "X": 2378.0}, "handle_left": {"Y": 1.0, "X": 0.5}, "handle_right": {"Y": 0.0, "X": 0.5}}, {"interpolation": 0, "handle_type": 0, "co": {"Y": 0.0, "X": 2450.0}, "handle_left": {"Y": 1.0, "X": 0.5}, "handle_right": {"Y": 0.0, "X": 0.5}}]}, "crop_height": {"Points": [{"interpolation": 2, "co": {"Y": -1.0, "X": 1.0}}]}, "has_audio": {"Points": [{"interpolation": 2, "co": {"Y": -1.0, "X": 1.0}}]}, "anchor": 0, "crop_x": {"Points": [{"interpolation": 2, "co": {"Y": 0.0, "X": 1.0}}]}, "shear_y": {"Points": [{"interpolation": 2, "co": {"Y": 0.0, "X": 1.0}}]}, "channel_mapping": {"Points": [{"interpolation": 2, "co": {"Y": -1.0, "X": 1.0}}]}, "waveform": false, "title": "08-Total of all subjects using SUM function.mkv", "perspective_c4_y": {"Points": [{"interpolation": 2, "co": {"Y": -1.0, "X": 1.0}}]}, "perspective_c2_x": {"Points": [{"interpolation": 2, "co": {"Y": -1.0, "X": 1.0}}]}, "end": 102.04166666666667, "id": "LSTE2K610M", "scale_x": {"Points": [{"interpolation": 2, "co": {"Y": 1.0, "X": 1.0}}, {"interpolation": 1, "co": {"Y": 3.0, "X": 151}}, {"interpolation": 1, "co": {"Y": 1.0, "X": 2482}}, {"interpolation": 1, "co": {"Y": 3.0, "X": 2223}}, {"interpolation": 1, "co": {"Y": 2.6600000858306885, "X": 2432}}, {"interpolation": 1, "co": {"Y": 2.880000114440918, "X": 2378}}]}, "duration": 104.0, "position": 9.92, "location_y": {"Points": [{"interpolation": 2, "co": {"Y": 0.0, "X": 1.0}}, {"interpolation": 1, "co": {"Y": 0.699999988079071, "X": 151}}, {"interpolation": 1, "co": {"Y": 0.0, "X": 2482}}, {"interpolation": 1, "co": {"Y": 0.699999988079071, "X": 2223}}, {"interpolation": 1, "co": {"Y": 0.47999998927116394, "X": 2432}}]}, "image": "/home/milind/.openshot_qt/thumbnail/19R3YN73LI-7.png", "effects": [], "reader": {"fps": {"num": 25, "den": 1}, "video_timebase": {"num": 1, "den": 1000}, "audio_stream_index": -1, "audio_bit_rate": 0, "has_audio": false, "video_bit_rate": 0, "video_stream_index": 0, "display_ratio": {"num": 683, "den": 384}, "height": 768, "pixel_ratio": {"num": 1, "den": 1}, "duration": 104.0, "top_field_first": true, "acodec": "", "interlaced_frame": false, "path": "/home/milind/Data/Projects/ProgressCard/08-Total of all subjects using SUM function.mkv", "channels": 0, "type": "FFmpegReader", "has_video": true, "vcodec": "h264", "width": 1366, "video_length": "2600", "file_size": "1006948", "channel_layout": 4, "has_single_image": false, "audio_timebase": {"num": 1, "den": 1}, "sample_rate": 0, "pixel_format": 0}, "perspective_c3_y": {"Points": [{"interpolation": 2, "co": {"Y": -1.0, "X": 1.0}}]}, "rotation": {"Points": [{"interpolation": 2, "co": {"Y": 0.0, "X": 1.0}}]}, "perspective_c4_x": {"Points": [{"interpolation": 2, "co": {"Y": -1.0, "X": 1.0}}]}, "scale": 1, "has_video": {"Points": [{"interpolation": 2, "co": {"Y": -1.0, "X": 1.0}}]}, "location_x": {"Points": [{"interpolation": 2, "co": {"Y": 0.0, "X": 1.0}}, {"interpolation": 1, "co": {"Y": 0.5, "X": 151}}, {"interpolation": 1, "co": {"Y": 0.0, "X": 2482}}, {"interpolation": 1, "co": {"Y": 0.5, "X": 2223}}, {"interpolation": 1, "co": {"Y": 0.41999998688697815, "X": 2432}}]}, "perspective_c2_y": {"Points": [{"interpolation": 2, "co": {"Y": -1.0, "X": 1.0}}]}, "channel_filter": {"Points": [{"interpolation": 2, "co": {"Y": -1.0, "X": 1.0}}]}, "volume": {"Points": [{"interpolation": 2, "co": {"Y": 1.0, "X": 1.0}}]}, "display": 0, "layer": 3, "perspective_c3_x": {"Points": [{"interpolation": 2, "co": {"Y": -1.0, "X": 1.0}}]}, "file_id": "0JJ5E6BUXT", "perspective_c1_x": {"Points": [{"interpolation": 2, "co": {"Y": -1.0, "X": 1.0}}]}, "crop_y": {"Points": [{"interpolation": 2, "co": {"Y": 0.0, "X": 1.0}}]}, "gravity": 4, "time": {"Points": [{"interpolation": 2, "co": {"Y": 1.0, "X": 1.0}}]}}, "type": "update", "partial": false}, {"value": {"fps": {"num": 25, "den": 1}, "video_timebase": {"num": 1, "den": 1000}, "audio_stream_index": -1, "audio_bit_rate": 0, "has_audio": false, "video_bit_rate": 0, "video_stream_index": 0, "display_ratio": {"num": 683, "den": 384}, "top_field_first": true, "pixel_ratio": {"num": 1, "den": 1}, "duration": 104.0, "id": "GWKYNKFKO2", "height": 768, "acodec": "", "interlaced_frame": false, "path": "/home/milind/Data/Projects/ProgressCard/Clips/08-Total of all subjects using SUM function.mkv", "channels": 0, "type": "FFmpegReader", "has_video": true, "vcodec": "h264", "width": 1366, "video_length": "2600", "file_size": "1006948", "channel_layout": 4, "media_type": "video", "has_single_image": false, "audio_timebase": {"num": 1, "den": 1}, "sample_rate": 0, "pixel_format": 0}, "key": ["files"], "old_values": [], "type": "insert", "partial": false}, {"value": null, "key": ["clips", {"id": "LSTE2K610M"}], "old_values": {"start": 0.25, "shear_x": {"Points": [{"interpolation": 2, "co": {"Y": 0.0, "X": 1.0}}]}, "gravity": 4, "perspective_c1_y": {"Points": [{"interpolation": 2, "co": {"Y": -1.0, "X": 1.0}}]}, "wave_color": {"alpha": {"Points": [{"interpolation": 0, "handle_type": 0, "co": {"Y": 255.0, "X": 1.0}, "handle_left": {"Y": 1.0, "X": 0.5}, "handle_right": {"Y": 0.0, "X": 0.5}}]}, "red": {"Points": [{"interpolation": 0, "handle_type": 0, "co": {"Y": 0.0, "X": 1.0}, "handle_left": {"Y": 1.0, "X": 0.5}, "handle_right": {"Y": 0.0, "X": 0.5}}]}, "green": {"Points": [{"interpolation": 0, "handle_type": 0, "co": {"Y": 123.0, "X": 1.0}, "handle_left": {"Y": 1.0, "X": 0.5}, "handle_right": {"Y": 0.0, "X": 0.5}}]}, "blue": {"Points": [{"interpolation": 0, "handle_type": 0, "co": {"Y": 255.0, "X": 1.0}, "handle_left": {"Y": 1.0, "X": 0.5}, "handle_right": {"Y": 0.0, "X": 0.5}}]}}, "crop_width": {"Points": [{"interpolation": 2, "co": {"Y": -1.0, "X": 1.0}}]}, "scale_y": {"Points": [{"interpolation": 2, "co": {"Y": 1.0, "X": 1.0}}, {"interpolation": 1, "co": {"Y": 3.0, "X": 151}}, {"interpolation": 1, "co": {"Y": 1.0, "X": 2482}}, {"interpolation": 1, "co": {"Y": 3.0, "X": 2223}}, {"interpolation": 1, "co": {"Y": 2.6600000858306885, "X": 2432}}, {"interpolation": 1, "co": {"Y": 2.880000114440918, "X": 2378}}]}, "alpha": {"Points": [{"interpolation": 0, "handle_type": 0, "co": {"Y": 1.0, "X": 1.0}, "handle_left": {"Y": 1.0, "X": 0.5}, "handle_right": {"Y": 0.0, "X": 0.5}}, {"interpolation": 0, "handle_type": 0, "co": {"Y": 0.0, "X": 7.0}, "handle_left": {"Y": 1.0, "X": 0.5}, "handle_right": {"Y": 0.0, "X": 0.5}}, {"interpolation": 0, "handle_type": 0, "co": {"Y": 1.0, "X": 79.0}, "handle_left": {"Y": 1.0, "X": 0.5}, "handle_right": {"Y": 0.0, "X": 0.5}}, {"interpolation": 0, "handle_type": 0, "co": {"Y": 1.0, "X": 2378.0}, "handle_left": {"Y": 1.0, "X": 0.5}, "handle_right": {"Y": 0.0, "X": 0.5}}, {"interpolation": 0, "handle_type": 0, "co": {"Y": 0.0, "X": 2450.0}, "handle_left": {"Y": 1.0, "X": 0.5}, "handle_right": {"Y": 0.0, "X": 0.5}}]}, "crop_height": {"Points": [{"interpolation": 2, "co": {"Y": -1.0, "X": 1.0}}]}, "has_audio": {"Points": [{"interpolation": 2, "co": {"Y": -1.0, "X": 1.0}}]}, "anchor": 0, "crop_x": {"Points": [{"interpolation": 2, "co": {"Y": 0.0, "X": 1.0}}]}, "shear_y": {"Points": [{"interpolation": 2, "co": {"Y": 0.0, "X": 1.0}}]}, "channel_mapping": {"Points": [{"interpolation": 2, "co": {"Y": -1.0, "X": 1.0}}]}, "waveform": false, "title": "08-Total of all subjects using SUM function.mkv", "perspective_c4_y": {"Points": [{"interpolation": 2, "co": {"Y": -1.0, "X": 1.0}}]}, "perspective_c1_x": {"Points": [{"interpolation": 2, "co": {"Y": -1.0, "X": 1.0}}]}, "end": 102.04166666666667, "id": "LSTE2K610M", "scale_x": {"Points": [{"interpolation": 2, "co": {"Y": 1.0, "X": 1.0}}, {"interpolation": 1, "co": {"Y": 3.0, "X": 151}}, {"interpolation": 1, "co": {"Y": 1.0, "X": 2482}}, {"interpolation": 1, "co": {"Y": 3.0, "X": 2223}}, {"interpolation": 1, "co": {"Y": 2.6600000858306885, "X": 2432}}, {"interpolation": 1, "co": {"Y": 2.880000114440918, "X": 2378}}]}, "duration": 104.0, "position": 0, "image": "/home/milind/.openshot_qt/thumbnail/19R3YN73LI-7.png", "effects": [], "perspective_c2_y": {"Points": [{"interpolation": 2, "co": {"Y": -1.0, "X": 1.0}}]}, "perspective_c3_y": {"Points": [{"interpolation": 2, "co": {"Y": -1.0, "X": 1.0}}]}, "rotation": {"Points": [{"interpolation": 2, "co": {"Y": 0.0, "X": 1.0}}]}, "perspective_c4_x": {"Points": [{"interpolation": 2, "co": {"Y": -1.0, "X": 1.0}}]}, "scale": 1, "has_video": {"Points": [{"interpolation": 2, "co": {"Y": -1.0, "X": 1.0}}]}, "location_x": {"Points": [{"interpolation": 2, "co": {"Y": 0.0, "X": 1.0}}, {"interpolation": 1, "co": {"Y": 0.5, "X": 151}}, {"interpolation": 1, "co": {"Y": 0.0, "X": 2482}}, {"interpolation": 1, "co": {"Y": 0.5, "X": 2223}}, {"interpolation": 1, "co": {"Y": 0.41999998688697815, "X": 2432}}]}, "channel_filter": {"Points": [{"interpolation": 2, "co": {"Y": -1.0, "X": 1.0}}]}, "volume": {"Points": [{"interpolation": 2, "co": {"Y": 1.0, "X": 1.0}}]}, "display": 0, "layer": 3, "location_y": {"Points": [{"interpolation": 2, "co": {"Y": 0.0, "X": 1.0}}, {"interpolation": 1, "co": {"Y": 0.699999988079071, "X": 151}}, {"interpolation": 1, "co": {"Y": 0.0, "X": 2482}}, {"interpolation": 1, "co": {"Y": 0.699999988079071, "X": 2223}}, {"interpolation": 1, "co": {"Y": 0.47999998927116394, "X": 2432}}]}, "perspective_c2_x": {"Points": [{"interpolation": 2, "co": {"Y": -1.0, "X": 1.0}}]}, "file_id": "0JJ5E6BUXT", "crop_y": {"Points": [{"interpolation": 2, "co": {"Y": 0.0, "X": 1.0}}]}, "perspective_c3_x": {"Points": [{"interpolation": 2, "co": {"Y": -1.0, "X": 1.0}}]}, "reader": {"fps": {"num": 25, "den": 1}, "video_timebase": {"num": 1, "den": 1000}, "audio_stream_index": -1, "audio_bit_rate": 0, "has_audio": false, "video_bit_rate": 0, "video_stream_index": 0, "display_ratio": {"num": 683, "den": 384}, "height": 768, "pixel_ratio": {"num": 1, "den": 1}, "duration": 104.0, "top_field_first": true, "acodec": "", "interlaced_frame": false, "path": "/home/milind/Data/Projects/ProgressCard/Clips/08-Total of all subjects using SUM function.mkv", "channels": 0, "type": "FFmpegReader", "has_video": true, "vcodec": "h264", "width": 1366, "video_length": "2600", "file_size": "1006948", "channel_layout": 4, "has_single_image": false, "audio_timebase": {"num": 1, "den": 1}, "sample_rate": 0, "pixel_format": 0}, "time": {"Points": [{"interpolation": 2, "co": {"Y": 1.0, "X": 1.0}}]}}, "type": "delete", "partial": false}, {"value": {"fps": {"num": 30, "den": 1}, "video_timebase": {"num": 1, "den": 30}, "audio_stream_index": -1, "audio_bit_rate": 0, "has_audio": false, "video_bit_rate": 0, "video_stream_index": -1, "path": "/home/milind/Data/Projects/ProgressCard/Images/01-White-Background.svg", "top_field_first": true, "pixel_ratio": {"num": 1, "den": 1}, "duration": 86400.0, "id": "JDM4CBY4WI", "height": 1080, "acodec": "", "interlaced_frame": false, "display_ratio": {"num": 16, "den": 9}, "channels": 0, "type": "QtImageReader", "has_video": true, "vcodec": "", "width": 1920, "video_length": "2592000", "file_size": "8294400", "channel_layout": 4, "media_type": "image", "has_single_image": true, "audio_timebase": {"num": 1, "den": 1}, "sample_rate": 0, "pixel_format": -1}, "key": ["files"], "old_values": [{"fps": {"num": 25, "den": 1}, "video_timebase": {"num": 1, "den": 1000}, "audio_stream_index": -1, "id": "GWKYNKFKO2", "audio_bit_rate": 0, "has_audio": false, "video_bit_rate": 0, "video_stream_index": 0, "display_ratio": {"num": 683, "den": 384}, "top_field_first": true, "pixel_ratio": {"num": 1, "den": 1}, "duration": 104.0, "height": 768, "acodec": "", "interlaced_frame": false, "path": "/home/milind/Data/Projects/ProgressCard/Clips/08-Total of all subjects using SUM function.mkv", "channels": 0, "type": "FFmpegReader", "has_video": true, "vcodec": "h264", "width": 1366, "video_length": "2600", "file_size": "1006948", "channel_layout": 4, "media_type": "video", "has_single_image": false, "audio_timebase": {"num": 1, "den": 1}, "sample_rate": 0, "pixel_format": 0}], "type": "insert", "partial": false}, {"value": {"start": 0, "rotation": {"Points": [{"interpolation": 2, "co": {"Y": 0.0, "X": 1.0}}]}, "perspective_c4_x": {"Points": [{"interpolation": 2, "co": {"Y": -1.0, "X": 1.0}}]}, "perspective_c1_y": {"Points": [{"interpolation": 2, "co": {"Y": -1.0, "X": 1.0}}]}, "wave_color": {"alpha": {"Points": [{"interpolation": 0, "handle_type": 0, "handle_right": {"Y": 0.0, "X": 0.5}, "handle_left": {"Y": 1.0, "X": 0.5}, "co": {"Y": 255.0, "X": 1.0}}]}, "red": {"Points": [{"interpolation": 0, "handle_type": 0, "handle_right": {"Y": 0.0, "X": 0.5}, "handle_left": {"Y": 1.0, "X": 0.5}, "co": {"Y": 0.0, "X": 1.0}}]}, "green": {"Points": [{"interpolation": 0, "handle_type": 0, "handle_right": {"Y": 0.0, "X": 0.5}, "handle_left": {"Y": 1.0, "X": 0.5}, "co": {"Y": 123.0, "X": 1.0}}]}, "blue": {"Points": [{"interpolation": 0, "handle_type": 0, "handle_right": {"Y": 0.0, "X": 0.5}, "handle_left": {"Y": 1.0, "X": 0.5}, "co": {"Y": 255.0, "X": 1.0}}]}}, "crop_width": {"Points": [{"interpolation": 2, "co": {"Y": -1.0, "X": 1.0}}]}, "scale_y": {"Points": [{"interpolation": 2, "co": {"Y": 1.0, "X": 1.0}}]}, "scale_x": {"Points": [{"interpolation": 2, "co": {"Y": 1.0, "X": 1.0}}]}, "title": "01-White-Background.svg", "shear_x": {"Points": [{"interpolation": 2, "co": {"Y": 0.0, "X": 1.0}}]}, "has_audio": {"Points": [{"interpolation": 2, "co": {"Y": -1.0, "X": 1.0}}]}, "has_video": {"Points": [{"interpolation": 2, "co": {"Y": -1.0, "X": 1.0}}]}, "crop_x": {"Points": [{"interpolation": 2, "co": {"Y": 0.0, "X": 1.0}}]}, "shear_y": {"Points": [{"interpolation": 2, "co": {"Y": 0.0, "X": 1.0}}]}, "channel_mapping": {"Points": [{"interpolation": 2, "co": {"Y": -1.0, "X": 1.0}}]}, "waveform": false, "file_id": "JDM4CBY4WI", "perspective_c4_y": {"Points": [{"interpolation": 2, "co": {"Y": -1.0, "X": 1.0}}]}, "perspective_c2_x": {"Points": [{"interpolation": 2, "co": {"Y": -1.0, "X": 1.0}}]}, "end": 108.88, "id": "9COU2HLG7O", "duration": 86400.0, "position": 0, "display": 0, "image": "/home/milind/.openshot_qt/thumbnail/JDM4CBY4WI.png", "effects": [], "channel_filter": {"Points": [{"interpolation": 2, "co": {"Y": -1.0, "X": 1.0}}]}, "perspective_c3_y": {"Points": [{"interpolation": 2, "co": {"Y": -1.0, "X": 1.0}}]}, "reader": {"fps": {"num": 30, "den": 1}, "video_timebase": {"num": 1, "den": 30}, "audio_stream_index": -1, "audio_bit_rate": 0, "has_audio": false, "video_bit_rate": 0, "video_stream_index": -1, "path": "/home/milind/Data/Projects/ProgressCard/Images/01-White-Background.svg", "height": 1080, "pixel_ratio": {"num": 1, "den": 1}, "duration": 86400.0, "top_field_first": true, "acodec": "", "interlaced_frame": false, "display_ratio": {"num": 16, "den": 9}, "channels": 0, "type": "QtImageReader", "has_video": true, "vcodec": "", "width": 1920, "video_length": "2592000", "file_size": "8294400", "channel_layout": 4, "has_single_image": true, "audio_timebase": {"num": 1, "den": 1}, "sample_rate": 0, "pixel_format": -1}, "scale": 1, "anchor": 0, "location_x": {"Points": [{"interpolation": 2, "co": {"Y": 0.0, "X": 1.0}}]}, "perspective_c2_y": {"Points": [{"interpolation": 2, "co": {"Y": -1.0, "X": 1.0}}]}, "crop_height": {"Points": [{"interpolation": 2, "co": {"Y": -1.0, "X": 1.0}}]}, "volume": {"Points": [{"interpolation": 2, "co": {"Y": 1.0, "X": 1.0}}]}, "location_y": {"Points": [{"interpolation": 2, "co": {"Y": 0.0, "X": 1.0}}]}, "layer": 3, "perspective_c3_x": {"Points": [{"interpolation": 2, "co": {"Y": -1.0, "X": 1.0}}]}, "alpha": {"Points": [{"interpolation": 2, "co": {"Y": 1.0, "X": 1.0}}]}, "perspective_c1_x": {"Points": [{"interpolation": 2, "co": {"Y": -1.0, "X": 1.0}}]}, "crop_y": {"Points": [{"interpolation": 2, "co": {"Y": 0.0, "X": 1.0}}]}, "gravity": 4, "time": {"Points": [{"interpolation": 2, "co": {"Y": 1.0, "X": 1.0}}]}}, "key": ["clips"], "old_values": [{"start": 0.25, "shear_x": {"Points": [{"interpolation": 2, "co": {"Y": 0.0, "X": 1.0}}]}, "perspective_c1_y": {"Points": [{"interpolation": 2, "co": {"Y": -1.0, "X": 1.0}}]}, "wave_color": {"alpha": {"Points": [{"interpolation": 0, "handle_type": 0, "co": {"Y": 255.0, "X": 1.0}, "handle_left": {"Y": 1.0, "X": 0.5}, "handle_right": {"Y": 0.0, "X": 0.5}}]}, "red": {"Points": [{"interpolation": 0, "handle_type": 0, "co": {"Y": 0.0, "X": 1.0}, "handle_left": {"Y": 1.0, "X": 0.5}, "handle_right": {"Y": 0.0, "X": 0.5}}]}, "green": {"Points": [{"interpolation": 0, "handle_type": 0, "co": {"Y": 123.0, "X": 1.0}, "handle_left": {"Y": 1.0, "X": 0.5}, "handle_right": {"Y": 0.0, "X": 0.5}}]}, "blue": {"Points": [{"interpolation": 0, "handle_type": 0, "co": {"Y": 255.0, "X": 1.0}, "handle_left": {"Y": 1.0, "X": 0.5}, "handle_right": {"Y": 0.0, "X": 0.5}}]}}, "crop_width": {"Points": [{"interpolation": 2, "co": {"Y": -1.0, "X": 1.0}}]}, "scale_y": {"Points": [{"interpolation": 2, "co": {"Y": 1.0, "X": 1.0}}, {"interpolation": 1, "co": {"Y": 3.0, "X": 151}}, {"interpolation": 1, "co": {"Y": 1.0, "X": 2482}}, {"interpolation": 1, "co": {"Y": 3.0, "X": 2223}}, {"interpolation": 1, "co": {"Y": 2.6600000858306885, "X": 2432}}, {"interpolation": 1, "co": {"Y": 2.880000114440918, "X": 2378}}]}, "alpha": {"Points": [{"interpolation": 0, "handle_type": 0, "co": {"Y": 1.0, "X": 1.0}, "handle_left": {"Y": 1.0, "X": 0.5}, "handle_right": {"Y": 0.0, "X": 0.5}}, {"interpolation": 0, "handle_type": 0, "co": {"Y": 0.0, "X": 7.0}, "handle_left": {"Y": 1.0, "X": 0.5}, "handle_right": {"Y": 0.0, "X": 0.5}}, {"interpolation": 0, "handle_type": 0, "co": {"Y": 1.0, "X": 79.0}, "handle_left": {"Y": 1.0, "X": 0.5}, "handle_right": {"Y": 0.0, "X": 0.5}}, {"interpolation": 0, "handle_type": 0, "co": {"Y": 1.0, "X": 2378.0}, "handle_left": {"Y": 1.0, "X": 0.5}, "handle_right": {"Y": 0.0, "X": 0.5}}, {"interpolation": 0, "handle_type": 0, "co": {"Y": 0.0, "X": 2450.0}, "handle_left": {"Y": 1.0, "X": 0.5}, "handle_right": {"Y": 0.0, "X": 0.5}}]}, "perspective_c3_x": {"Points": [{"interpolation": 2, "co": {"Y": -1.0, "X": 1.0}}]}, "crop_height": {"Points": [{"interpolation": 2, "co": {"Y": -1.0, "X": 1.0}}]}, "has_audio": {"Points": [{"interpolation": 2, "co": {"Y": -1.0, "X": 1.0}}]}, "anchor": 0, "crop_x": {"Points": [{"interpolation": 2, "co": {"Y": 0.0, "X": 1.0}}]}, "shear_y": {"Points": [{"interpolation": 2, "co": {"Y": 0.0, "X": 1.0}}]}, "channel_mapping": {"Points": [{"interpolation": 2, "co": {"Y": -1.0, "X": 1.0}}]}, "waveform": false, "title": "08-Total of all subjects using SUM function.mkv", "perspective_c4_y": {"Points": [{"interpolation": 2, "co": {"Y": -1.0, "X": 1.0}}]}, "end": 102.04166666666667, "perspective_c2_x": {"Points": [{"interpolation": 2, "co": {"Y": -1.0, "X": 1.0}}]}, "id": "CYO1OV270J", "scale_x": {"Points": [{"interpolation": 2, "co": {"Y": 1.0, "X": 1.0}}, {"interpolation": 1, "co": {"Y": 3.0, "X": 151}}, {"interpolation": 1, "co": {"Y": 1.0, "X": 2482}}, {"interpolation": 1, "co": {"Y": 3.0, "X": 2223}}, {"interpolation": 1, "co": {"Y": 2.6600000858306885, "X": 2432}}, {"interpolation": 1, "co": {"Y": 2.880000114440918, "X": 2378}}]}, "duration": 104.0, "position": 0, "perspective_c1_x": {"Points": [{"interpolation": 2, "co": {"Y": -1.0, "X": 1.0}}]}, "image": "/home/milind/.openshot_qt/thumbnail/19R3YN73LI-7.png", "effects": [], "reader": {"fps": {"num": 25, "den": 1}, "video_timebase": {"num": 1, "den": 1000}, "audio_stream_index": -1, "audio_bit_rate": 0, "has_audio": false, "video_bit_rate": 0, "video_stream_index": 0, "display_ratio": {"num": 683, "den": 384}, "height": 768, "pixel_ratio": {"num": 1, "den": 1}, "duration": 104.0, "top_field_first": true, "acodec": "", "interlaced_frame": false, "path": "/home/milind/Data/Projects/ProgressCard/Clips/08-Total of all subjects using SUM function.mkv", "channels": 0, "type": "FFmpegReader", "has_video": true, "vcodec": "h264", "width": 1366, "video_length": "2600", "file_size": "1006948", "channel_layout": 4, "has_single_image": false, "audio_timebase": {"num": 1, "den": 1}, "sample_rate": 0, "pixel_format": 0}, "perspective_c3_y": {"Points": [{"interpolation": 2, "co": {"Y": -1.0, "X": 1.0}}]}, "rotation": {"Points": [{"interpolation": 2, "co": {"Y": 0.0, "X": 1.0}}]}, "perspective_c4_x": {"Points": [{"interpolation": 2, "co": {"Y": -1.0, "X": 1.0}}]}, "scale": 1, "has_video": {"Points": [{"interpolation": 2, "co": {"Y": -1.0, "X": 1.0}}]}, "location_x": {"Points": [{"interpolation": 2, "co": {"Y": 0.0, "X": 1.0}}, {"interpolation": 1, "co": {"Y": 0.5, "X": 151}}, {"interpolation": 1, "co": {"Y": 0.0, "X": 2482}}, {"interpolation": 1, "co": {"Y": 0.5, "X": 2223}}, {"interpolation": 1, "co": {"Y": 0.41999998688697815, "X": 2432}}]}, "perspective_c2_y": {"Points": [{"interpolation": 2, "co": {"Y": -1.0, "X": 1.0}}]}, "channel_filter": {"Points": [{"interpolation": 2, "co": {"Y": -1.0, "X": 1.0}}]}, "volume": {"Points": [{"interpolation": 2, "co": {"Y": 1.0, "X": 1.0}}]}, "display": 0, "layer": 4, "location_y": {"Points": [{"interpolation": 2, "co": {"Y": 0.0, "X": 1.0}}, {"interpolation": 1, "co": {"Y": 0.699999988079071, "X": 151}}, {"interpolation": 1, "co": {"Y": 0.0, "X": 2482}}, {"interpolation": 1, "co": {"Y": 0.699999988079071, "X": 2223}}, {"interpolation": 1, "co": {"Y": 0.47999998927116394, "X": 2432}}]}, "file_id": "0JJ5E6BUXT", "crop_y": {"Points": [{"interpolation": 2, "co": {"Y": 0.0, "X": 1.0}}]}, "gravity": 4, "time": {"Points": [{"interpolation": 2, "co": {"Y": 1.0, "X": 1.0}}]}}], "type": "insert", "partial": false}, {"value": {"image": "/home/milind/.openshot_qt/thumbnail/JDM4CBY4WI.png", "layer": 3, "start": 0, "end": 10, "id": "9COU2HLG7O", "position": 0}, "key": ["clips", {"id": "9COU2HLG7O"}], "old_values": {"start": 0.0, "rotation": {"Points": [{"interpolation": 2, "co": {"Y": 0.0, "X": 1.0}}]}, "perspective_c4_x": {"Points": [{"interpolation": 2, "co": {"Y": -1.0, "X": 1.0}}]}, "perspective_c1_y": {"Points": [{"interpolation": 2, "co": {"Y": -1.0, "X": 1.0}}]}, "wave_color": {"alpha": {"Points": [{"interpolation": 0, "handle_type": 0, "co": {"Y": 255.0, "X": 1.0}, "handle_left": {"Y": 1.0, "X": 0.5}, "handle_right": {"Y": 0.0, "X": 0.5}}]}, "red": {"Points": [{"interpolation": 0, "handle_type": 0, "co": {"Y": 0.0, "X": 1.0}, "handle_left": {"Y": 1.0, "X": 0.5}, "handle_right": {"Y": 0.0, "X": 0.5}}]}, "green": {"Points": [{"interpolation": 0, "handle_type": 0, "co": {"Y": 123.0, "X": 1.0}, "handle_left": {"Y": 1.0, "X": 0.5}, "handle_right": {"Y": 0.0, "X": 0.5}}]}, "blue": {"Points": [{"interpolation": 0, "handle_type": 0, "co": {"Y": 255.0, "X": 1.0}, "handle_left": {"Y": 1.0, "X": 0.5}, "handle_right": {"Y": 0.0, "X": 0.5}}]}}, "crop_width": {"Points": [{"interpolation": 2, "co": {"Y": -1.0, "X": 1.0}}]}, "scale_y": {"Points": [{"interpolation": 2, "co": {"Y": 1.0, "X": 1.0}}]}, "alpha": {"Points": [{"interpolation": 2, "co": {"Y": 1.0, "X": 1.0}}]}, "crop_height": {"Points": [{"interpolation": 2, "co": {"Y": -1.0, "X": 1.0}}]}, "has_audio": {"Points": [{"interpolation": 2, "co": {"Y": -1.0, "X": 1.0}}]}, "has_video": {"Points": [{"interpolation": 2, "co": {"Y": -1.0, "X": 1.0}}]}, "crop_x": {"Points": [{"interpolation": 2, "co": {"Y": 0.0, "X": 1.0}}]}, "shear_y": {"Points": [{"interpolation": 2, "co": {"Y": 0.0, "X": 1.0}}]}, "channel_mapping": {"Points": [{"interpolation": 2, "co": {"Y": -1.0, "X": 1.0}}]}, "waveform": false, "title": "01-White-Background.svg", "perspective_c4_y": {"Points": [{"interpolation": 2, "co": {"Y": -1.0, "X": 1.0}}]}, "end": 10.0, "shear_x": {"Points": [{"interpolation": 2, "co": {"Y": 0.0, "X": 1.0}}]}, "perspective_c2_x": {"Points": [{"interpolation": 2, "co": {"Y": -1.0, "X": 1.0}}]}, "id": "9COU2HLG7O", "scale_x": {"Points": [{"interpolation": 2, "co": {"Y": 1.0, "X": 1.0}}]}, "duration": 86400.0, "position": 2.24, "image": "/home/milind/.openshot_qt/thumbnail/JDM4CBY4WI.png", "effects": [], "perspective_c1_x": {"Points": [{"interpolation": 2, "co": {"Y": -1.0, "X": 1.0}}]}, "perspective_c3_y": {"Points": [{"interpolation": 2, "co": {"Y": -1.0, "X": 1.0}}]}, "channel_filter": {"Points": [{"interpolation": 2, "co": {"Y": -1.0, "X": 1.0}}]}, "scale": 1, "anchor": 0, "location_x": {"Points": [{"interpolation": 2, "co": {"Y": 0.0, "X": 1.0}}]}, "perspective_c2_y": {"Points": [{"interpolation": 2, "co": {"Y": -1.0, "X": 1.0}}]}, "volume": {"Points": [{"interpolation": 2, "co": {"Y": 1.0, "X": 1.0}}]}, "location_y": {"Points": [{"interpolation": 2, "co": {"Y": 0.0, "X": 1.0}}]}, "layer": 4, "perspective_c3_x": {"Points": [{"interpolation": 2, "co": {"Y": -1.0, "X": 1.0}}]}, "file_id": "JDM4CBY4WI", "display": 0, "crop_y": {"Points": [{"interpolation": 2, "co": {"Y": 0.0, "X": 1.0}}]}, "gravity": 4, "reader": {"fps": {"num": 30, "den": 1}, "video_timebase": {"num": 1, "den": 30}, "audio_stream_index": -1, "audio_bit_rate": 0, "has_audio": false, "video_bit_rate": 0, "video_stream_index": -1, "display_ratio": {"num": 16, "den": 9}, "height": 1080, "pixel_ratio": {"num": 1, "den": 1}, "duration": 86400.0, "top_field_first": true, "acodec": "", "interlaced_frame": false, "path": "/home/milind/Data/Projects/ProgressCard/Images/01-White-Background.svg", "channels": 0, "type": "QtImageReader", "has_video": true, "vcodec": "", "width": 1920, "sample_rate": 0, "file_size": "8294400", "channel_layout": 4, "has_single_image": true, "audio_timebase": {"num": 1, "den": 1}, "video_length": "2592000", "pixel_format": -1}, "time": {"Points": [{"interpolation": 2, "co": {"Y": 1.0, "X": 1.0}}]}}, "type": "update", "partial": false}, {"value": {"image": "/home/milind/.openshot_qt/thumbnail/JDM4CBY4WI.png", "layer": 3, "start": 0, "end": 91.44, "id": "9COU2HLG7O", "position": 0}, "key": ["clips", {"id": "9COU2HLG7O"}], "old_values": {"rotation": {"Points": [{"interpolation": 2, "co": {"Y": 0.0, "X": 1.0}}]}, "volume": {"Points": [{"interpolation": 2, "co": {"Y": 1.0, "X": 1.0}}]}, "perspective_c1_y": {"Points": [{"interpolation": 2, "co": {"Y": -1.0, "X": 1.0}}]}, "wave_color": {"alpha": {"Points": [{"interpolation": 0, "handle_type": 0, "co": {"Y": 255.0, "X": 1.0}, "handle_left": {"Y": 1.0, "X": 0.5}, "handle_right": {"Y": 0.0, "X": 0.5}}]}, "red": {"Points": [{"interpolation": 0, "handle_type": 0, "co": {"Y": 0.0, "X": 1.0}, "handle_left": {"Y": 1.0, "X": 0.5}, "handle_right": {"Y": 0.0, "X": 0.5}}]}, "green": {"Points": [{"interpolation": 0, "handle_type": 0, "co": {"Y": 123.0, "X": 1.0}, "handle_left": {"Y": 1.0, "X": 0.5}, "handle_right": {"Y": 0.0, "X": 0.5}}]}, "blue": {"Points": [{"interpolation": 0, "handle_type": 0, "co": {"Y": 255.0, "X": 1.0}, "handle_left": {"Y": 1.0, "X": 0.5}, "handle_right": {"Y": 0.0, "X": 0.5}}]}}, "gravity": 4, "crop_width": {"Points": [{"interpolation": 2, "co": {"Y": -1.0, "X": 1.0}}]}, "scale_y": {"Points": [{"interpolation": 2, "co": {"Y": 1.0, "X": 1.0}}]}, "scale": 1, "shear_x": {"Points": [{"interpolation": 2, "co": {"Y": 0.0, "X": 1.0}}]}, "has_audio": {"Points": [{"interpolation": 2, "co": {"Y": -1.0, "X": 1.0}}]}, "anchor": 0, "crop_x": {"Points": [{"interpolation": 2, "co": {"Y": 0.0, "X": 1.0}}]}, "shear_y": {"Points": [{"interpolation": 2, "co": {"Y": 0.0, "X": 1.0}}]}, "channel_mapping": {"Points": [{"interpolation": 2, "co": {"Y": -1.0, "X": 1.0}}]}, "waveform": false, "title": "01-White-Background.svg", "perspective_c4_y": {"Points": [{"interpolation": 2, "co": {"Y": -1.0, "X": 1.0}}]}, "end": 10, "perspective_c2_x": {"Points": [{"interpolation": 2, "co": {"Y": -1.0, "X": 1.0}}]}, "id": "9COU2HLG7O", "duration": 86400.0, "position": 0, "perspective_c1_x": {"Points": [{"interpolation": 2, "co": {"Y": -1.0, "X": 1.0}}]}, "image": "/home/milind/.openshot_qt/thumbnail/JDM4CBY4WI.png", "effects": [], "channel_filter": {"Points": [{"interpolation": 2, "co": {"Y": -1.0, "X": 1.0}}]}, "perspective_c3_y": {"Points": [{"interpolation": 2, "co": {"Y": -1.0, "X": 1.0}}]}, "perspective_c4_x": {"Points": [{"interpolation": 2, "co": {"Y": -1.0, "X": 1.0}}]}, "scale_x": {"Points": [{"interpolation": 2, "co": {"Y": 1.0, "X": 1.0}}]}, "has_video": {"Points": [{"interpolation": 2, "co": {"Y": -1.0, "X": 1.0}}]}, "location_x": {"Points": [{"interpolation": 2, "co": {"Y": 0.0, "X": 1.0}}]}, "perspective_c2_y": {"Points": [{"interpolation": 2, "co": {"Y": -1.0, "X": 1.0}}]}, "crop_height": {"Points": [{"interpolation": 2, "co": {"Y": -1.0, "X": 1.0}}]}, "start": 0, "display": 0, "layer": 3, "location_y": {"Points": [{"interpolation": 2, "co": {"Y": 0.0, "X": 1.0}}]}, "alpha": {"Points": [{"interpolation": 2, "co": {"Y": 1.0, "X": 1.0}}]}, "file_id": "JDM4CBY4WI", "crop_y": {"Points": [{"interpolation": 2, "co": {"Y": 0.0, "X": 1.0}}]}, "perspective_c3_x": {"Points": [{"interpolation": 2, "co": {"Y": -1.0, "X": 1.0}}]}, "reader": {"fps": {"num": 30, "den": 1}, "video_timebase": {"num": 1, "den": 30}, "audio_stream_index": -1, "audio_bit_rate": 0, "has_audio": false, "video_bit_rate": 0, "video_stream_index": -1, "display_ratio": {"num": 16, "den": 9}, "height": 1080, "pixel_ratio": {"num": 1, "den": 1}, "duration": 86400.0, "top_field_first": true, "acodec": "", "interlaced_frame": false, "path": "/home/milind/Data/Projects/ProgressCard/Images/01-White-Background.svg", "channels": 0, "type": "QtImageReader", "has_video": true, "vcodec": "", "width": 1920, "sample_rate": 0, "file_size": "8294400", "channel_layout": 4, "has_single_image": true, "audio_timebase": {"num": 1, "den": 1}, "video_length": "2592000", "pixel_format": -1}, "time": {"Points": [{"interpolation": 2, "co": {"Y": 1.0, "X": 1.0}}]}}, "type": "update", "partial": false}, {"value": {"image": "/home/milind/.openshot_qt/thumbnail/JDM4CBY4WI.png", "layer": 3, "start": 0, "end": 108.88, "id": "9COU2HLG7O", "position": 0}, "key": ["clips", {"id": "9COU2HLG7O"}], "old_values": {"rotation": {"Points": [{"interpolation": 2, "co": {"Y": 0.0, "X": 1.0}}]}, "volume": {"Points": [{"interpolation": 2, "co": {"Y": 1.0, "X": 1.0}}]}, "perspective_c1_y": {"Points": [{"interpolation": 2, "co": {"Y": -1.0, "X": 1.0}}]}, "wave_color": {"alpha": {"Points": [{"interpolation": 0, "handle_type": 0, "co": {"Y": 255.0, "X": 1.0}, "handle_left": {"Y": 1.0, "X": 0.5}, "handle_right": {"Y": 0.0, "X": 0.5}}]}, "red": {"Points": [{"interpolation": 0, "handle_type": 0, "co": {"Y": 0.0, "X": 1.0}, "handle_left": {"Y": 1.0, "X": 0.5}, "handle_right": {"Y": 0.0, "X": 0.5}}]}, "green": {"Points": [{"interpolation": 0, "handle_type": 0, "co": {"Y": 123.0, "X": 1.0}, "handle_left": {"Y": 1.0, "X": 0.5}, "handle_right": {"Y": 0.0, "X": 0.5}}]}, "blue": {"Points": [{"interpolation": 0, "handle_type": 0, "co": {"Y": 255.0, "X": 1.0}, "handle_left": {"Y": 1.0, "X": 0.5}, "handle_right": {"Y": 0.0, "X": 0.5}}]}}, "gravity": 4, "crop_width": {"Points": [{"interpolation": 2, "co": {"Y": -1.0, "X": 1.0}}]}, "scale_y": {"Points": [{"interpolation": 2, "co": {"Y": 1.0, "X": 1.0}}]}, "scale": 1, "shear_x": {"Points": [{"interpolation": 2, "co": {"Y": 0.0, "X": 1.0}}]}, "has_audio": {"Points": [{"interpolation": 2, "co": {"Y": -1.0, "X": 1.0}}]}, "anchor": 0, "crop_x": {"Points": [{"interpolation": 2, "co": {"Y": 0.0, "X": 1.0}}]}, "shear_y": {"Points": [{"interpolation": 2, "co": {"Y": 0.0, "X": 1.0}}]}, "channel_mapping": {"Points": [{"interpolation": 2, "co": {"Y": -1.0, "X": 1.0}}]}, "waveform": false, "title": "01-White-Background.svg", "perspective_c4_y": {"Points": [{"interpolation": 2, "co": {"Y": -1.0, "X": 1.0}}]}, "end": 91.44, "perspective_c2_x": {"Points": [{"interpolation": 2, "co": {"Y": -1.0, "X": 1.0}}]}, "id": "9COU2HLG7O", "duration": 86400.0, "position": 0, "perspective_c1_x": {"Points": [{"interpolation": 2, "co": {"Y": -1.0, "X": 1.0}}]}, "image": "/home/milind/.openshot_qt/thumbnail/JDM4CBY4WI.png", "effects": [], "channel_filter": {"Points": [{"interpolation": 2, "co": {"Y": -1.0, "X": 1.0}}]}, "perspective_c3_y": {"Points": [{"interpolation": 2, "co": {"Y": -1.0, "X": 1.0}}]}, "perspective_c4_x": {"Points": [{"interpolation": 2, "co": {"Y": -1.0, "X": 1.0}}]}, "scale_x": {"Points": [{"interpolation": 2, "co": {"Y": 1.0, "X": 1.0}}]}, "has_video": {"Points": [{"interpolation": 2, "co": {"Y": -1.0, "X": 1.0}}]}, "location_x": {"Points": [{"interpolation": 2, "co": {"Y": 0.0, "X": 1.0}}]}, "perspective_c2_y": {"Points": [{"interpolation": 2, "co": {"Y": -1.0, "X": 1.0}}]}, "crop_height": {"Points": [{"interpolation": 2, "co": {"Y": -1.0, "X": 1.0}}]}, "start": 0, "display": 0, "layer": 3, "location_y": {"Points": [{"interpolation": 2, "co": {"Y": 0.0, "X": 1.0}}]}, "alpha": {"Points": [{"interpolation": 2, "co": {"Y": 1.0, "X": 1.0}}]}, "file_id": "JDM4CBY4WI", "crop_y": {"Points": [{"interpolation": 2, "co": {"Y": 0.0, "X": 1.0}}]}, "perspective_c3_x": {"Points": [{"interpolation": 2, "co": {"Y": -1.0, "X": 1.0}}]}, "reader": {"fps": {"num": 30, "den": 1}, "video_timebase": {"num": 1, "den": 30}, "audio_stream_index": -1, "audio_bit_rate": 0, "has_audio": false, "video_bit_rate": 0, "video_stream_index": -1, "display_ratio": {"num": 16, "den": 9}, "height": 1080, "pixel_ratio": {"num": 1, "den": 1}, "duration": 86400.0, "top_field_first": true, "acodec": "", "interlaced_frame": false, "path": "/home/milind/Data/Projects/ProgressCard/Images/01-White-Background.svg", "channels": 0, "type": "QtImageReader", "has_video": true, "vcodec": "", "width": 1920, "sample_rate": 0, "file_size": "8294400", "channel_layout": 4, "has_single_image": true, "audio_timebase": {"num": 1, "den": 1}, "video_length": "2592000", "pixel_format": -1}, "time": {"Points": [{"interpolation": 2, "co": {"Y": 1.0, "X": 1.0}}]}}, "type": "update", "partial": false}, {"value": {"image": "/home/milind/.openshot_qt/thumbnail/19R3YN73LI-7.png", "layer": 4, "start": 0.25, "end": 102.04166666666667, "id": "CYO1OV270J", "position": 3.68}, "key": ["clips", {"id": "CYO1OV270J"}], "old_values": {"start": 0.25, "shear_x": {"Points": [{"interpolation": 2, "co": {"Y": 0.0, "X": 1.0}}]}, "perspective_c1_y": {"Points": [{"interpolation": 2, "co": {"Y": -1.0, "X": 1.0}}]}, "wave_color": {"alpha": {"Points": [{"interpolation": 0, "handle_type": 0, "co": {"Y": 255.0, "X": 1.0}, "handle_left": {"Y": 1.0, "X": 0.5}, "handle_right": {"Y": 0.0, "X": 0.5}}]}, "red": {"Points": [{"interpolation": 0, "handle_type": 0, "co": {"Y": 0.0, "X": 1.0}, "handle_left": {"Y": 1.0, "X": 0.5}, "handle_right": {"Y": 0.0, "X": 0.5}}]}, "green": {"Points": [{"interpolation": 0, "handle_type": 0, "co": {"Y": 123.0, "X": 1.0}, "handle_left": {"Y": 1.0, "X": 0.5}, "handle_right": {"Y": 0.0, "X": 0.5}}]}, "blue": {"Points": [{"interpolation": 0, "handle_type": 0, "co": {"Y": 255.0, "X": 1.0}, "handle_left": {"Y": 1.0, "X": 0.5}, "handle_right": {"Y": 0.0, "X": 0.5}}]}}, "crop_width": {"Points": [{"interpolation": 2, "co": {"Y": -1.0, "X": 1.0}}]}, "scale_y": {"Points": [{"interpolation": 2, "co": {"Y": 1.0, "X": 1.0}}, {"interpolation": 1, "co": {"Y": 3.0, "X": 151}}, {"interpolation": 1, "co": {"Y": 1.0, "X": 2482}}, {"interpolation": 1, "co": {"Y": 3.0, "X": 2223}}, {"interpolation": 1, "co": {"Y": 2.6600000858306885, "X": 2432}}, {"interpolation": 1, "co": {"Y": 2.880000114440918, "X": 2378}}]}, "alpha": {"Points": [{"interpolation": 0, "handle_type": 0, "co": {"Y": 1.0, "X": 1.0}, "handle_left": {"Y": 1.0, "X": 0.5}, "handle_right": {"Y": 0.0, "X": 0.5}}, {"interpolation": 0, "handle_type": 0, "co": {"Y": 0.0, "X": 7.0}, "handle_left": {"Y": 1.0, "X": 0.5}, "handle_right": {"Y": 0.0, "X": 0.5}}, {"interpolation": 0, "handle_type": 0, "co": {"Y": 1.0, "X": 79.0}, "handle_left": {"Y": 1.0, "X": 0.5}, "handle_right": {"Y": 0.0, "X": 0.5}}, {"interpolation": 0, "handle_type": 0, "co": {"Y": 1.0, "X": 2378.0}, "handle_left": {"Y": 1.0, "X": 0.5}, "handle_right": {"Y": 0.0, "X": 0.5}}, {"interpolation": 0, "handle_type": 0, "co": {"Y": 0.0, "X": 2450.0}, "handle_left": {"Y": 1.0, "X": 0.5}, "handle_right": {"Y": 0.0, "X": 0.5}}]}, "perspective_c3_x": {"Points": [{"interpolation": 2, "co": {"Y": -1.0, "X": 1.0}}]}, "crop_height": {"Points": [{"interpolation": 2, "co": {"Y": -1.0, "X": 1.0}}]}, "has_audio": {"Points": [{"interpolation": 2, "co": {"Y": -1.0, "X": 1.0}}]}, "anchor": 0, "crop_x": {"Points": [{"interpolation": 2, "co": {"Y": 0.0, "X": 1.0}}]}, "shear_y": {"Points": [{"interpolation": 2, "co": {"Y": 0.0, "X": 1.0}}]}, "channel_mapping": {"Points": [{"interpolation": 2, "co": {"Y": -1.0, "X": 1.0}}]}, "waveform": false, "title": "08-Total of all subjects using SUM function.mkv", "perspective_c4_y": {"Points": [{"interpolation": 2, "co": {"Y": -1.0, "X": 1.0}}]}, "end": 102.04166666666667, "perspective_c2_x": {"Points": [{"interpolation": 2, "co": {"Y": -1.0, "X": 1.0}}]}, "id": "CYO1OV270J", "scale_x": {"Points": [{"interpolation": 2, "co": {"Y": 1.0, "X": 1.0}}, {"interpolation": 1, "co": {"Y": 3.0, "X": 151}}, {"interpolation": 1, "co": {"Y": 1.0, "X": 2482}}, {"interpolation": 1, "co": {"Y": 3.0, "X": 2223}}, {"interpolation": 1, "co": {"Y": 2.6600000858306885, "X": 2432}}, {"interpolation": 1, "co": {"Y": 2.880000114440918, "X": 2378}}]}, "duration": 104.0, "position": 0, "perspective_c1_x": {"Points": [{"interpolation": 2, "co": {"Y": -1.0, "X": 1.0}}]}, "image": "/home/milind/.openshot_qt/thumbnail/19R3YN73LI-7.png", "effects": [], "reader": {"fps": {"num": 25, "den": 1}, "video_timebase": {"num": 1, "den": 1000}, "audio_stream_index": -1, "audio_bit_rate": 0, "has_audio": false, "video_bit_rate": 0, "video_stream_index": 0, "display_ratio": {"num": 683, "den": 384}, "height": 768, "pixel_ratio": {"num": 1, "den": 1}, "duration": 104.0, "top_field_first": true, "acodec": "", "interlaced_frame": false, "path": "/home/milind/Data/Projects/ProgressCard/Clips/08-Total of all subjects using SUM function.mkv", "channels": 0, "type": "FFmpegReader", "has_video": true, "vcodec": "h264", "width": 1366, "video_length": "2600", "file_size": "1006948", "channel_layout": 4, "has_single_image": false, "audio_timebase": {"num": 1, "den": 1}, "sample_rate": 0, "pixel_format": 0}, "perspective_c3_y": {"Points": [{"interpolation": 2, "co": {"Y": -1.0, "X": 1.0}}]}, "rotation": {"Points": [{"interpolation": 2, "co": {"Y": 0.0, "X": 1.0}}]}, "perspective_c4_x": {"Points": [{"interpolation": 2, "co": {"Y": -1.0, "X": 1.0}}]}, "scale": 1, "has_video": {"Points": [{"interpolation": 2, "co": {"Y": -1.0, "X": 1.0}}]}, "location_x": {"Points": [{"interpolation": 2, "co": {"Y": 0.0, "X": 1.0}}, {"interpolation": 1, "co": {"Y": 0.5, "X": 151}}, {"interpolation": 1, "co": {"Y": 0.0, "X": 2482}}, {"interpolation": 1, "co": {"Y": 0.5, "X": 2223}}, {"interpolation": 1, "co": {"Y": 0.41999998688697815, "X": 2432}}]}, "perspective_c2_y": {"Points": [{"interpolation": 2, "co": {"Y": -1.0, "X": 1.0}}]}, "channel_filter": {"Points": [{"interpolation": 2, "co": {"Y": -1.0, "X": 1.0}}]}, "volume": {"Points": [{"interpolation": 2, "co": {"Y": 1.0, "X": 1.0}}]}, "display": 0, "layer": 4, "location_y": {"Points": [{"interpolation": 2, "co": {"Y": 0.0, "X": 1.0}}, {"interpolation": 1, "co": {"Y": 0.699999988079071, "X": 151}}, {"interpolation": 1, "co": {"Y": 0.0, "X": 2482}}, {"interpolation": 1, "co": {"Y": 0.699999988079071, "X": 2223}}, {"interpolation": 1, "co": {"Y": 0.47999998927116394, "X": 2432}}]}, "file_id": "0JJ5E6BUXT", "crop_y": {"Points": [{"interpolation": 2, "co": {"Y": 0.0, "X": 1.0}}]}, "gravity": 4, "time": {"Points": [{"interpolation": 2, "co": {"Y": 1.0, "X": 1.0}}]}}, "type": "update", "partial": false}, {"value": {"image": "/home/milind/.openshot_qt/thumbnail/19R3YN73LI-7.png", "layer": 4, "start": 0.25, "end": 102.04166666666667, "id": "CYO1OV270J", "position": 4.48}, "key": ["clips", {"id": "CYO1OV270J"}], "old_values": {"rotation": {"Points": [{"interpolation": 2, "co": {"Y": 0.0, "X": 1.0}}]}, "volume": {"Points": [{"interpolation": 2, "co": {"Y": 1.0, "X": 1.0}}]}, "perspective_c1_y": {"Points": [{"interpolation": 2, "co": {"Y": -1.0, "X": 1.0}}]}, "wave_color": {"alpha": {"Points": [{"interpolation": 0, "handle_type": 0, "co": {"Y": 255.0, "X": 1.0}, "handle_left": {"Y": 1.0, "X": 0.5}, "handle_right": {"Y": 0.0, "X": 0.5}}]}, "red": {"Points": [{"interpolation": 0, "handle_type": 0, "co": {"Y": 0.0, "X": 1.0}, "handle_left": {"Y": 1.0, "X": 0.5}, "handle_right": {"Y": 0.0, "X": 0.5}}]}, "green": {"Points": [{"interpolation": 0, "handle_type": 0, "co": {"Y": 123.0, "X": 1.0}, "handle_left": {"Y": 1.0, "X": 0.5}, "handle_right": {"Y": 0.0, "X": 0.5}}]}, "blue": {"Points": [{"interpolation": 0, "handle_type": 0, "co": {"Y": 255.0, "X": 1.0}, "handle_left": {"Y": 1.0, "X": 0.5}, "handle_right": {"Y": 0.0, "X": 0.5}}]}}, "gravity": 4, "crop_width": {"Points": [{"interpolation": 2, "co": {"Y": -1.0, "X": 1.0}}]}, "scale_y": {"Points": [{"interpolation": 2, "co": {"Y": 1.0, "X": 1.0}}, {"interpolation": 1, "co": {"Y": 3.0, "X": 151}}, {"interpolation": 1, "co": {"Y": 1.0, "X": 2482}}, {"interpolation": 1, "co": {"Y": 3.0, "X": 2223}}, {"interpolation": 1, "co": {"Y": 2.6600000858306885, "X": 2432}}, {"interpolation": 1, "co": {"Y": 2.880000114440918, "X": 2378}}]}, "scale": 1, "title": "08-Total of all subjects using SUM function.mkv", "shear_x": {"Points": [{"interpolation": 2, "co": {"Y": 0.0, "X": 1.0}}]}, "has_audio": {"Points": [{"interpolation": 2, "co": {"Y": -1.0, "X": 1.0}}]}, "has_video": {"Points": [{"interpolation": 2, "co": {"Y": -1.0, "X": 1.0}}]}, "crop_x": {"Points": [{"interpolation": 2, "co": {"Y": 0.0, "X": 1.0}}]}, "shear_y": {"Points": [{"interpolation": 2, "co": {"Y": 0.0, "X": 1.0}}]}, "channel_mapping": {"Points": [{"interpolation": 2, "co": {"Y": -1.0, "X": 1.0}}]}, "waveform": false, "file_id": "0JJ5E6BUXT", "perspective_c4_y": {"Points": [{"interpolation": 2, "co": {"Y": -1.0, "X": 1.0}}]}, "perspective_c2_x": {"Points": [{"interpolation": 2, "co": {"Y": -1.0, "X": 1.0}}]}, "end": 102.04166666666667, "id": "CYO1OV270J", "scale_x": {"Points": [{"interpolation": 2, "co": {"Y": 1.0, "X": 1.0}}, {"interpolation": 1, "co": {"Y": 3.0, "X": 151}}, {"interpolation": 1, "co": {"Y": 1.0, "X": 2482}}, {"interpolation": 1, "co": {"Y": 3.0, "X": 2223}}, {"interpolation": 1, "co": {"Y": 2.6600000858306885, "X": 2432}}, {"interpolation": 1, "co": {"Y": 2.880000114440918, "X": 2378}}]}, "duration": 104.0, "position": 3.68, "image": "/home/milind/.openshot_qt/thumbnail/19R3YN73LI-7.png", "effects": [], "reader": {"fps": {"num": 25, "den": 1}, "video_timebase": {"num": 1, "den": 1000}, "audio_stream_index": -1, "audio_bit_rate": 0, "has_audio": false, "video_bit_rate": 0, "video_stream_index": 0, "display_ratio": {"num": 683, "den": 384}, "height": 768, "pixel_ratio": {"num": 1, "den": 1}, "duration": 104.0, "top_field_first": true, "acodec": "", "interlaced_frame": false, "path": "/home/milind/Data/Projects/ProgressCard/Clips/08-Total of all subjects using SUM function.mkv", "channels": 0, "type": "FFmpegReader", "has_video": true, "vcodec": "h264", "width": 1366, "video_length": "2600", "file_size": "1006948", "channel_layout": 4, "has_single_image": false, "audio_timebase": {"num": 1, "den": 1}, "sample_rate": 0, "pixel_format": 0}, "perspective_c3_y": {"Points": [{"interpolation": 2, "co": {"Y": -1.0, "X": 1.0}}]}, "perspective_c4_x": {"Points": [{"interpolation": 2, "co": {"Y": -1.0, "X": 1.0}}]}, "perspective_c1_x": {"Points": [{"interpolation": 2, "co": {"Y": -1.0, "X": 1.0}}]}, "anchor": 0, "location_x": {"Points": [{"interpolation": 2, "co": {"Y": 0.0, "X": 1.0}}, {"interpolation": 1, "co": {"Y": 0.5, "X": 151}}, {"interpolation": 1, "co": {"Y": 0.0, "X": 2482}}, {"interpolation": 1, "co": {"Y": 0.5, "X": 2223}}, {"interpolation": 1, "co": {"Y": 0.41999998688697815, "X": 2432}}]}, "perspective_c2_y": {"Points": [{"interpolation": 2, "co": {"Y": -1.0, "X": 1.0}}]}, "crop_height": {"Points": [{"interpolation": 2, "co": {"Y": -1.0, "X": 1.0}}]}, "start": 0.25, "display": 0, "layer": 4, "location_y": {"Points": [{"interpolation": 2, "co": {"Y": 0.0, "X": 1.0}}, {"interpolation": 1, "co": {"Y": 0.699999988079071, "X": 151}}, {"interpolation": 1, "co": {"Y": 0.0, "X": 2482}}, {"interpolation": 1, "co": {"Y": 0.699999988079071, "X": 2223}}, {"interpolation": 1, "co": {"Y": 0.47999998927116394, "X": 2432}}]}, "alpha": {"Points": [{"interpolation": 0, "handle_type": 0, "co": {"Y": 1.0, "X": 1.0}, "handle_left": {"Y": 1.0, "X": 0.5}, "handle_right": {"Y": 0.0, "X": 0.5}}, {"interpolation": 0, "handle_type": 0, "co": {"Y": 0.0, "X": 7.0}, "handle_left": {"Y": 1.0, "X": 0.5}, "handle_right": {"Y": 0.0, "X": 0.5}}, {"interpolation": 0, "handle_type": 0, "co": {"Y": 1.0, "X": 79.0}, "handle_left": {"Y": 1.0, "X": 0.5}, "handle_right": {"Y": 0.0, "X": 0.5}}, {"interpolation": 0, "handle_type": 0, "co": {"Y": 1.0, "X": 2378.0}, "handle_left": {"Y": 1.0, "X": 0.5}, "handle_right": {"Y": 0.0, "X": 0.5}}, {"interpolation": 0, "handle_type": 0, "co": {"Y": 0.0, "X": 2450.0}, "handle_left": {"Y": 1.0, "X": 0.5}, "handle_right": {"Y": 0.0, "X": 0.5}}]}, "channel_filter": {"Points": [{"interpolation": 2, "co": {"Y": -1.0, "X": 1.0}}]}, "crop_y": {"Points": [{"interpolation": 2, "co": {"Y": 0.0, "X": 1.0}}]}, "perspective_c3_x": {"Points": [{"interpolation": 2, "co": {"Y": -1.0, "X": 1.0}}]}, "time": {"Points": [{"interpolation": 2, "co": {"Y": 1.0, "X": 1.0}}]}}, "type": "update", "partial": false}], "redo": []}, "export_path": "", "version": {"openshot-qt": "2.4.1", "libopenshot": "0.1.9"}, "clips": [{"rotation": {"Points": [{"interpolation": 2, "co": {"Y": 0.0, "X": 1.0}}]}, "wave_color": {"alpha": {"Points": [{"interpolation": 0, "handle_type": 0, "co": {"Y": 255.0, "X": 1.0}, "handle_left": {"Y": 1.0, "X": 0.5}, "handle_right": {"Y": 0.0, "X": 0.5}}]}, "red": {"Points": [{"interpolation": 0, "handle_type": 0, "co": {"Y": 0.0, "X": 1.0}, "handle_left": {"Y": 1.0, "X": 0.5}, "handle_right": {"Y": 0.0, "X": 0.5}}]}, "green": {"Points": [{"interpolation": 0, "handle_type": 0, "co": {"Y": 123.0, "X": 1.0}, "handle_left": {"Y": 1.0, "X": 0.5}, "handle_right": {"Y": 0.0, "X": 0.5}}]}, "blue": {"Points": [{"interpolation": 0, "handle_type": 0, "co": {"Y": 255.0, "X": 1.0}, "handle_left": {"Y": 1.0, "X": 0.5}, "handle_right": {"Y": 0.0, "X": 0.5}}]}}, "crop_width": {"Points": [{"interpolation": 2, "co": {"Y": -1.0, "X": 1.0}}]}, "scale_y": {"Points": [{"interpolation": 2, "co": {"Y": 1.0, "X": 1.0}}, {"interpolation": 1, "co": {"Y": 3.0, "X": 151}}, {"interpolation": 1, "co": {"Y": 1.0, "X": 2482}}, {"interpolation": 1, "co": {"Y": 3.0, "X": 2223}}, {"interpolation": 1, "co": {"Y": 2.6600000858306885, "X": 2432}}, {"interpolation": 1, "co": {"Y": 2.880000114440918, "X": 2378}}]}, "scale_x": {"Points": [{"interpolation": 2, "co": {"Y": 1.0, "X": 1.0}}, {"interpolation": 1, "co": {"Y": 3.0, "X": 151}}, {"interpolation": 1, "co": {"Y": 1.0, "X": 2482}}, {"interpolation": 1, "co": {"Y": 3.0, "X": 2223}}, {"interpolation": 1, "co": {"Y": 2.6600000858306885, "X": 2432}}, {"interpolation": 1, "co": {"Y": 2.880000114440918, "X": 2378}}]}, "scale": 1, "has_video": {"Points": [{"interpolation": 2, "co": {"Y": -1.0, "X": 1.0}}]}, "channel_mapping": {"Points": [{"interpolation": 2, "co": {"Y": -1.0, "X": 1.0}}]}, "file_id": "0JJ5E6BUXT", "end": 102.04166666666667, "perspective_c2_x": {"Points": [{"interpolation": 2, "co": {"Y": -1.0, "X": 1.0}}]}, "id": "CYO1OV270J", "duration": 104.0, "position": 4.48, "image": "../../../.openshot_qt/thumbnail/19R3YN73LI-7.png", "effects": [], "reader": {"fps": {"num": 25, "den": 1}, "video_timebase": {"num": 1, "den": 1000}, "audio_stream_index": -1, "audio_bit_rate": 0, "file_size": "1006948", "has_audio": false, "video_bit_rate": 0, "video_stream_index": 0, "display_ratio": {"num": 683, "den": 384}, "height": 768, "pixel_ratio": {"num": 1, "den": 1}, "duration": 104.0, "top_field_first": true, "acodec": "", "interlaced_frame": false, "path": "Clips/08-Total of all subjects using SUM function.mkv", "channels": 0, "type": "FFmpegReader", "has_video": true, "vcodec": "h264", "width": 1366, "video_length": "2600", "has_single_image": false, "channel_layout": 4, "audio_timebase": {"num": 1, "den": 1}, "sample_rate": 0, "pixel_format": 0}, "perspective_c3_y": {"Points": [{"interpolation": 2, "co": {"Y": -1.0, "X": 1.0}}]}, "perspective_c1_x": {"Points": [{"interpolation": 2, "co": {"Y": -1.0, "X": 1.0}}]}, "anchor": 0, "volume": {"Points": [{"interpolation": 2, "co": {"Y": 1.0, "X": 1.0}}]}, "location_y": {"Points": [{"interpolation": 2, "co": {"Y": 0.0, "X": 1.0}}, {"interpolation": 1, "co": {"Y": 0.699999988079071, "X": 151}}, {"interpolation": 1, "co": {"Y": 0.0, "X": 2482}}, {"interpolation": 1, "co": {"Y": 0.699999988079071, "X": 2223}}, {"interpolation": 1, "co": {"Y": 0.47999998927116394, "X": 2432}}]}, "channel_filter": {"Points": [{"interpolation": 2, "co": {"Y": -1.0, "X": 1.0}}]}, "gravity": 4, "time": {"Points": [{"interpolation": 2, "co": {"Y": 1.0, "X": 1.0}}]}, "shear_x": {"Points": [{"interpolation": 2, "co": {"Y": 0.0, "X": 1.0}}]}, "perspective_c1_y": {"Points": [{"interpolation": 2, "co": {"Y": -1.0, "X": 1.0}}]}, "start": 0.25, "alpha": {"Points": [{"interpolation": 0, "handle_type": 0, "co": {"Y": 1.0, "X": 1.0}, "handle_left": {"Y": 1.0, "X": 0.5}, "handle_right": {"Y": 0.0, "X": 0.5}}, {"interpolation": 0, "handle_type": 0, "co": {"Y": 0.0, "X": 7.0}, "handle_left": {"Y": 1.0, "X": 0.5}, "handle_right": {"Y": 0.0, "X": 0.5}}, {"interpolation": 0, "handle_type": 0, "co": {"Y": 1.0, "X": 79.0}, "handle_left": {"Y": 1.0, "X": 0.5}, "handle_right": {"Y": 0.0, "X": 0.5}}, {"interpolation": 0, "handle_type": 0, "co": {"Y": 1.0, "X": 2378.0}, "handle_left": {"Y": 1.0, "X": 0.5}, "handle_right": {"Y": 0.0, "X": 0.5}}, {"interpolation": 0, "handle_type": 0, "co": {"Y": 0.0, "X": 2450.0}, "handle_left": {"Y": 1.0, "X": 0.5}, "handle_right": {"Y": 0.0, "X": 0.5}}]}, "crop_height": {"Points": [{"interpolation": 2, "co": {"Y": -1.0, "X": 1.0}}]}, "has_audio": {"Points": [{"interpolation": 2, "co": {"Y": -1.0, "X": 1.0}}]}, "crop_x": {"Points": [{"interpolation": 2, "co": {"Y": 0.0, "X": 1.0}}]}, "shear_y": {"Points": [{"interpolation": 2, "co": {"Y": 0.0, "X": 1.0}}]}, "waveform": false, "title": "08-Total of all subjects using SUM function.mkv", "perspective_c4_y": {"Points": [{"interpolation": 2, "co": {"Y": -1.0, "X": 1.0}}]}, "perspective_c3_x": {"Points": [{"interpolation": 2, "co": {"Y": -1.0, "X": 1.0}}]}, "perspective_c2_y": {"Points": [{"interpolation": 2, "co": {"Y": -1.0, "X": 1.0}}]}, "perspective_c4_x": {"Points": [{"interpolation": 2, "co": {"Y": -1.0, "X": 1.0}}]}, "location_x": {"Points": [{"interpolation": 2, "co": {"Y": 0.0, "X": 1.0}}, {"interpolation": 1, "co": {"Y": 0.5, "X": 151}}, {"interpolation": 1, "co": {"Y": 0.0, "X": 2482}}, {"interpolation": 1, "co": {"Y": 0.5, "X": 2223}}, {"interpolation": 1, "co": {"Y": 0.41999998688697815, "X": 2432}}]}, "display": 0, "layer": 4, "crop_y": {"Points": [{"interpolation": 2, "co": {"Y": 0.0, "X": 1.0}}]}}, {"rotation": {"Points": [{"interpolation": 2, "co": {"Y": 0.0, "X": 1.0}}]}, "wave_color": {"alpha": {"Points": [{"interpolation": 0, "handle_type": 0, "co": {"Y": 255.0, "X": 1.0}, "handle_left": {"Y": 1.0, "X": 0.5}, "handle_right": {"Y": 0.0, "X": 0.5}}]}, "red": {"Points": [{"interpolation": 0, "handle_type": 0, "co": {"Y": 0.0, "X": 1.0}, "handle_left": {"Y": 1.0, "X": 0.5}, "handle_right": {"Y": 0.0, "X": 0.5}}]}, "green": {"Points": [{"interpolation": 0, "handle_type": 0, "co": {"Y": 123.0, "X": 1.0}, "handle_left": {"Y": 1.0, "X": 0.5}, "handle_right": {"Y": 0.0, "X": 0.5}}]}, "blue": {"Points": [{"interpolation": 0, "handle_type": 0, "co": {"Y": 255.0, "X": 1.0}, "handle_left": {"Y": 1.0, "X": 0.5}, "handle_right": {"Y": 0.0, "X": 0.5}}]}}, "crop_width": {"Points": [{"interpolation": 2, "co": {"Y": -1.0, "X": 1.0}}]}, "scale_y": {"Points": [{"interpolation": 2, "co": {"Y": 1.0, "X": 1.0}}]}, "scale": 1, "anchor": 0, "channel_mapping": {"Points": [{"interpolation": 2, "co": {"Y": -1.0, "X": 1.0}}]}, "file_id": "JDM4CBY4WI", "end": 108.88, "perspective_c2_x": {"Points": [{"interpolation": 2, "co": {"Y": -1.0, "X": 1.0}}]}, "id": "9COU2HLG7O", "duration": 86400.0, "position": 0, "image": "../../../.openshot_qt/thumbnail/JDM4CBY4WI.png", "effects": [], "channel_filter": {"Points": [{"interpolation": 2, "co": {"Y": -1.0, "X": 1.0}}]}, "perspective_c3_y": {"Points": [{"interpolation": 2, "co": {"Y": -1.0, "X": 1.0}}]}, "scale_x": {"Points": [{"interpolation": 2, "co": {"Y": 1.0, "X": 1.0}}]}, "has_video": {"Points": [{"interpolation": 2, "co": {"Y": -1.0, "X": 1.0}}]}, "volume": {"Points": [{"interpolation": 2, "co": {"Y": 1.0, "X": 1.0}}]}, "location_y": {"Points": [{"interpolation": 2, "co": {"Y": 0.0, "X": 1.0}}]}, "perspective_c1_x": {"Points": [{"interpolation": 2, "co": {"Y": -1.0, "X": 1.0}}]}, "gravity": 4, "reader": {"fps": {"num": 30, "den": 1}, "video_timebase": {"num": 1, "den": 30}, "audio_stream_index": -1, "audio_bit_rate": 0, "has_audio": false, "video_bit_rate": 0, "video_stream_index": -1, "display_ratio": {"num": 16, "den": 9}, "height": 1080, "pixel_ratio": {"num": 1, "den": 1}, "duration": 86400.0, "top_field_first": true, "acodec": "", "interlaced_frame": false, "path": "Images/01-White-Background.svg", "channels": 0, "type": "QtImageReader", "has_video": true, "vcodec": "", "width": 1920, "sample_rate": 0, "file_size": "8294400", "channel_layout": 4, "has_single_image": true, "audio_timebase": {"num": 1, "den": 1}, "video_length": "2592000", "pixel_format": -1}, "time": {"Points": [{"interpolation": 2, "co": {"Y": 1.0, "X": 1.0}}]}, "shear_x": {"Points": [{"interpolation": 2, "co": {"Y": 0.0, "X": 1.0}}]}, "perspective_c1_y": {"Points": [{"interpolation": 2, "co": {"Y": -1.0, "X": 1.0}}]}, "start": 0, "alpha": {"Points": [{"interpolation": 2, "co": {"Y": 1.0, "X": 1.0}}]}, "crop_height": {"Points": [{"interpolation": 2, "co": {"Y": -1.0, "X": 1.0}}]}, "has_audio": {"Points": [{"interpolation": 2, "co": {"Y": -1.0, "X": 1.0}}]}, "crop_x": {"Points": [{"interpolation": 2, "co": {"Y": 0.0, "X": 1.0}}]}, "shear_y": {"Points": [{"interpolation": 2, "co": {"Y": 0.0, "X": 1.0}}]}, "waveform": false, "title": "01-White-Background.svg", "perspective_c4_y": {"Points": [{"interpolation": 2, "co": {"Y": -1.0, "X": 1.0}}]}, "perspective_c3_x": {"Points": [{"interpolation": 2, "co": {"Y": -1.0, "X": 1.0}}]}, "perspective_c2_y": {"Points": [{"interpolation": 2, "co": {"Y": -1.0, "X": 1.0}}]}, "perspective_c4_x": {"Points": [{"interpolation": 2, "co": {"Y": -1.0, "X": 1.0}}]}, "location_x": {"Points": [{"interpolation": 2, "co": {"Y": 0.0, "X": 1.0}}]}, "display": 0, "layer": 3, "crop_y": {"Points": [{"interpolation": 2, "co": {"Y": 0.0, "X": 1.0}}]}}], "progress": [], "markers": [], "height": 720, "duration": 300, "id": "T0", "effects": [], "channels": 2, "profile": "HDV 720 24p", "scale": 16, "tick_pixels": 100, "width": 1280, "channel_layout": 3, "layers": [{"number": 0, "y": 0, "id": "L0", "label": "", "lock": false}, {"number": 1, "y": 0, "id": "L1", "label": "", "lock": false}, {"number": 2, "y": 0, "id": "L2", "label": "", "lock": false}, {"number": 3, "y": 0, "id": "L3", "label": "", "lock": false}, {"number": 4, "y": 0, "id": "L4", "label": "", "lock": false}], "playhead_position": 0, "sample_rate": 44100}